<svg fill="none" height="12" viewBox="0 0 16 12" width="16" xmlns="http://www.w3.org/2000/svg" xmlns:xlink="http://www.w3.org/1999/xlink"><mask id="a" height="12" maskUnits="userSpaceOnUse" width="16" x="0" y="0"><path d="m0 0h16v12h-16z" fill="#fff"/></mask><mask id="b" height="6" maskUnits="userSpaceOnUse" width="10" x="3" y="3"><path clip-rule="evenodd" d="m3 3h10v6h-10z" fill="#fff" fill-rule="evenodd"/></mask><g clip-rule="evenodd" fill-rule="evenodd" mask="url(#a)"><path d="m0 0h16v11c0 .5523-.4477 1-1 1h-14c-.552285 0-1-.4477-1-1z" fill="#c51918"/><path d="m3 3h10v6h-10z" fill="#feca00"/><g mask="url(#b)"><path d="m3 3 5 3-5 3z" fill="#23875f"/><path d="m13 3-5 3 5 3z" fill="#23875f"/><path d="m8 8c1.10457 0 2-.89543 2-2s-.89543-2-2-2-2 .89543-2 2 .89543 2 2 2z" fill="#c51918"/><path d="m7.96473 6.65661-1.03546.71822.33087-1.23014-.76014-.78581 1.02927-.04249.43546-1.21641.43546 1.21641h1.02752l-.75839.8283.37981 1.15753z" fill="#feca00"/></g><path d="m4.38836 2.22097.56589-.3509.59263.31543-.20757-.56554.41446-.40468h-.56154l-.23798-.594308-.23798.594308-.5625.02076.41541.38392zm3 0 .56589-.3509.59263.31543-.20757-.56554.41446-.40468h-.56154l-.23798-.594308-.23798.594308-.5625.02076.41541.38392zm3.56584-.3509-.5658.3509.1808-.60101-.4154-.38392.5625-.02076.2379-.594308.238.594308h.5616l-.4145.40468.2076.56554zm-6.56631 9.21343.56588-.3509.59263.3155-.20757-.5656.41446-.4047h-.56154l-.23798-.59426-.23798.59426-.5625.0208.41542.3839zm3.56588-.3509-.56588.3509.18082-.601-.41542-.3839.5625-.0208.23798-.59426.23798.59426h.56154l-.41446.4047.20757.5656zm2.43413.3509.5659-.3509.5926.3155-.2076-.5656.4145-.4047h-.5616l-.2379-.59426-.238.59426-.5625.0208.4154.3839z" fill="#feca00"/><path d="m4.31734 6.38606s.26928.23972.41594.32134c.05057-.19166-.06226-.62588-.06226-.62588-.03166-.1038-.37891-.28989-.37891-.28989s-.09753.32767.02523.59443z" fill="#c51918"/><path d="m4.59787 6.96509s-.69162-.32303-.7619-.77993c-.07029-.4569.07877-1.18528.07877-1.18528s1.1231.25558 1.19951.80318c.07641.54761-.17726.89162-.17726.89162s-.25978-.66754-.50491-.74159c0 0 0 .66158.16579 1.012z" fill="#feca00"/></g></svg>