<svg fill="none" height="15" viewBox="0 0 20 15" width="20" xmlns="http://www.w3.org/2000/svg" xmlns:xlink="http://www.w3.org/1999/xlink"><mask id="a" height="15" maskUnits="userSpaceOnUse" width="20" x="0" y="0"><path d="m0 0h20v15h-20z" fill="#fff"/></mask><mask id="b" height="11" maskUnits="userSpaceOnUse" width="16" x="2" y="2"><path clip-rule="evenodd" d="m2 2h16v11h-16z" fill="#fff" fill-rule="evenodd"/></mask><mask id="c" height="4" maskUnits="userSpaceOnUse" width="4" x="8" y="6"><path clip-rule="evenodd" d="m8.72116 6.47464s.71105-.13419 1.09615-.13419c.34569 0 1.09619.13419 1.09619.13419 0 .85003.2392 1.37044 0 1.95101-.2392.58058-.8238.3015-1.08839.85707-.33813-.52697-.79478-.2369-1.10395-.98729s.18796-1.096 0-1.82079z" fill="#fff" fill-rule="evenodd"/></mask><g mask="url(#a)"><path clip-rule="evenodd" d="m0 0h20v15h-20z" fill="#e8aa00" fill-rule="evenodd"/><path clip-rule="evenodd" d="m2 2h16v11h-16z" fill="#c51918" fill-rule="evenodd"/><g mask="url(#b)"><path clip-rule="evenodd" d="m12.6442 9.84463c.2549 0 .4616-.21176.4616-.47298 0-.26121-.2067-.47297-.4616-.47297s-.4615.21176-.4615.47297c0 .26122.2066.47298.4615.47298z" fill="#1e5e91" fill-rule="evenodd"/><g fill="#f6c540"><path clip-rule="evenodd" d="m6.64224 7.70742c-1.21077-1.40716.52454-3.84914.52454-3.84914s.25943 1.45847 1.21965 2.43988c0 .06968-.09068.1725-.18248.2766-.06411.0727-.12877.14602-.16349.20912-.08442.15345.20541.24091.34597.24091.06309 0 .09794.09149.1294.17407.03864.1014.07215.18935.14652.07793.13494-.20217-.13494-.64636-.13494-.64636l.42723-.45062.14448-.2913h-.14448v-.2999l-.10124.08313s-.11108-.26815-.32599-.26815-.28154-.12262-.28154-.12262h.28154c.14098 0-.02253-.18681-.14098-.28412-.0531-.04362-.13364-.02858-.20636-.015-.08951.01671-.16715.0312-.16715-.06862 0-.10942.08519-.12392.18363-.14067.06433-.01095.13432-.02286.18988-.06286.09189-.06616.21573-.04582.3498-.0238.07101.01167.14489.0238.21841.0238h.3481c.1257 0-.20362.20353-.20362.20353l.20362.18093.3028.30943-.15143.08988.31246.303s-.10606.17245 0 .17245c.04372 0 .07249.03583.0912.07795.01872-.04212.04748-.07795.0912-.07795.10603 0 0-.17245 0-.17245l.31243-.303-.1514-.08988.3028-.30943.2036-.18093s-.3293-.20353-.2036-.20353h.3481c.0735 0 .1474-.01213.2184-.0238.1341-.02202.2579-.04236.3498.0238.0556.04.1256.05191.1899.06286.0984.01675.1836.03125.1836.14067 0 .09982-.0776.08533-.1671.06862-.0727-.01358-.1533-.02862-.2064.015-.1184.09731-.2819.28412-.141.28412h.2816s-.0667.12262-.2816.12262-.326.26815-.326.26815l-.1012-.08313v.2999h-.1445l.1445.2913.4272.45062s-.2698.44419-.1349.64636c.0744.11142.1079.02347.1465-.07793.0315-.08258.0663-.17407.1294-.17407.1406 0 .4304-.08746.346-.24091-.0347-.0631-.0994-.13642-.1635-.20912-.0918-.1041-.1825-.20692-.1825-.2766.9602-.98141 1.2197-2.43988 1.2197-2.43988s1.7353 2.44198.5245 3.84914c-1.2108 1.40715-2.1001.98283-2.1001.98283l.4965.44518-.1406.12164h.4137l-.1521.1017.1119.04904.1186.05191s-.3196.23497 0 .23497c.0504 0 .1039-.00148.1589-.00301.0602-.00168.1224-.00341.1845-.00329.0167.00004-.0207-.09206-.0578-.18338-.0365-.09012-.0728-.17947-.0565-.17877.0346.00148.1024.0834.1705.1656.0543.06553.1087.13124.1465.15653.0244.01629.1195-.01675.2077-.04736.0745-.02589.144-.05004.1616-.04118.0743.0375.0553.11339.0372.18565-.0047.01858-.0093.03692-.0122.0543-.0026.01581.0925-.04593.1926-.11087.1051-.06819.2157-.13991.2241-.12908.0018.00228.0037.00459.0057.00698.0357.043.0933.11228-.3317.43989 0 .0629.0023.1143.0041.1561.0058.134.0073.1687-.0835.1687-.0404 0-.097.0201-.1626.0433-.1681.0596-.3951.1401-.56-.0433-.2291-.2548-.5806-.63681-.5806-.63681v.18774l-.4165-.42271-.08.23497-.5604-.64369-.1514.08443s.5159 1.42357.7918 1.43347c.1371.0049-.0711.138-.3469.3142-.2792.1785-.6277.4012-.75733.5801-.03858.0532-.06839-.028-.0912-.2045-.0228.1765-.05261.2577-.0912.2045-.12963-.1789-.47812-.4016-.75733-.5801-.2758-.1762-.484-.3093-.34689-.3142.27592-.0099.79176-1.43347.79176-1.43347l-.15137-.08443-.56042.64369-.07997-.23497-.41648.42271v-.18774s-.35148.38201-.58065.63681c-.16487.1834-.3919.1029-.56.0433-.06556-.0232-.12215-.0433-.1626-.0433-.14418 0-.19244-.2017 0-.44907.16206-.20829.49952-.19891.79287-.19075.055.00153.10845.00301.1589.00301.31953 0 0-.23497 0-.23497l.11853-.05191.11197-.04904-.1521-.1017h.41364l-.14056-.12164.49645-.44518s-.88931.42432-2.10008-.98283z" fill-rule="evenodd"/><path clip-rule="evenodd" d="m7.7707 10.6439-.54695-.95885s-.71511-1.64881-.71511-1.849c0-.20018-.28788-.79299-.28788-.62091v.62091l1.20655 2.71815v.2141h.16248z" fill-rule="evenodd"/><path d="m12.1512 9.3531.0832-.2762 1.0161.30615-.0832.2762z"/><path d="m12.6924 8.85022.2748.08995-.2685.86126-.2747-.08995z"/><g clip-rule="evenodd" fill-rule="evenodd"><path d="m12.9483 8.56937-.0591-.01346-.024.09501-.1085-.02665-.0134.05798.1074.02635-.0274.1083.0591.01346.0271-.10732.1068.02623.0133-.05799-.1055-.02592z"/><path d="m9.80902 3.26404.0297.10363h.09025l.0297-.10363c.07513.0226.14323.04832.20423.07703l.0021-.02269c.4824.04406.7328.24599.7059.60101-.0222.29387-.1709.44783-.419.44389v.21951s-.4038.15503-.60574.15503c-.20192 0-.60577-.15503-.60577-.15503v-.22322c-.20423-.02526-.32619-.17632-.34613-.44018-.02683-.35502.22349-.55695.70588-.60101l.00222.02382c.06166-.02917.13059-.05526.20666-.07816zm-.5107.90268c-.02719.00761-.0463.01322-.05406.01553-.11075-.02077-.16482-.10926-.17738-.2755-.0127-.16807.06626-.285.25245-.35244-.12702.16258-.13634.36938-.02101.61241zm.17197-.0448c.10178-.02445.21955-.04877.31389-.05712v-.60667c-.38739.13595-.48046.34394-.31389.66379zm.48697-.05167c.12984.01702.28744.05602.38934.08345l-.0511-.02818c.1729-.32902.0726-.54013-.33824-.67635zm.49214-.51466c.1295.1669.1354.38024.0101.63143.1526.00229.2241-.08578.2388-.28027.0126-.16701-.0653-.28353-.2489-.35116z"/></g></g><g clip-rule="evenodd" fill-rule="evenodd"><path d="m9.84615 3.4495c.11152 0 .20195-.0904.20195-.20192s-.09043-.20193-.20195-.20193-.20192.09041-.20192.20193.0904.20192.20192.20192z" fill="#3d58db"/><path d="m9.87428 2.81138-.06057.00122-.0003.098-.11178.0004.00108.05949.11051-.00039-.00035.11169.06057-.00122.00034-.11069.10997-.00039-.00109-.05949-.10869.00039z" fill="#f6c540"/><path d="m8.72116 6.47464s.71105-.13419 1.09615-.13419c.34569 0 1.09619.13419 1.09619.13419 0 .85003.2392 1.37044 0 1.95101-.2392.58058-.8238.3015-1.08839.85707-.33813-.52697-.79478-.2369-1.10395-.98729s.18796-1.096 0-1.82079z" fill="#1e5e91"/></g><g mask="url(#c)"><path d="m8.72116 8.24829h2.19231v1.06419h-2.19231z" fill="#5eaa22"/><path clip-rule="evenodd" d="m9.36934 6.89357c-.08378-.17804.44019-.19875.44019-.19875s.11299.19875 0 .48156c-.08217.20567.05488.18733.24397.16202.0709-.00949.1491-.01996.2259-.01996.1175 0 .1794-.00862.2308.01069.0716.0269.1228.10803.2759.34231.07.10698.0669.17742.0247.21955.0037.10882-.1148.19903-.3337.25678l-.0287-.11451c.1157-.03054.1866-.05976.2196-.09204-.165.01005-.3886-.0715-.3886-.17626 0-.15493-.52811-.12231-.84591-.10268-.08095.005-.14825.00916-.18971.00916-.18483 0-.04311-.22587.08585-.43143.01351-.02153.02687-.04283.03971-.06363.06624-.10732.08772-.13472.08258-.15554-.00537-.02175-.03978-.03632-.08258-.12727zm1.25696-.02756c-.3166-.05025-.4942-.00164-.4942.17549 0 .16859.1685.2417.4768.24057.012.00392.0225.00778.0315.01151-.0115.00546-.0256.01123-.0421.01719l.0383.11154c.1943-.07008.1943-.19476-.0024-.25598l-.0084-.00262-.0088.00007c-.2562.00212-.3695-.04593-.3695-.12228 0-.06946.1075-.09889.3611-.05864z" fill="#f6c540" fill-rule="evenodd"/></g></g></g></svg>