<svg fill="none" height="12" viewBox="0 0 16 12" width="16" xmlns="http://www.w3.org/2000/svg" xmlns:xlink="http://www.w3.org/1999/xlink"><mask id="a" height="12" maskUnits="userSpaceOnUse" width="16" x="0" y="0"><path d="m0 0h16v12h-16z" fill="#fff"/></mask><mask id="b" height="12" maskUnits="userSpaceOnUse" width="16" x="0" y="0"><path clip-rule="evenodd" d="m0 0v12h16v-12z" fill="#fff" fill-rule="evenodd"/></mask><g clip-rule="evenodd" fill-rule="evenodd" mask="url(#a)"><path d="m0 0v12h16v-12z" fill="#f7fcff"/><g mask="url(#b)"><path d="m0 0v6h16v-6z" fill="#e31d1c"/><path d="m4.4342 5.29478s-1.41284-.56825-1.41284-2.10778c0-1.53954 1.41284-2.08943 1.41284-2.08943-.68667-.173834-2.50872-.01835-2.50872 2.08943s1.79452 2.50528 2.50872 2.10778zm.36199-.25448.40531-.24468.41424.24468-.10138-.47748.33675-.37667h-.45625l-.19336-.44585-.19336.44585-.45703.01933.33753.35734zm1.87846-.27201-.40531.24469.09245-.47748-.33753-.35735.45703-.01932.19336-.44585.19336.44585h.45625l-.33675.37667.10138.47748zm-1.03107-1.88336.40531-.24469.41424.24469-.10138-.47749.33675-.37667h-.45625l-.19336-.44584-.19336.44584-.45703.01933.33752.35734zm-.95869.72639-.40531.24469.09245-.47748-.33753-.35735.45703-.01932.19336-.44585.19336.44585h.45625l-.33674.37667.10138.47748zm2.2739.22276.40531-.24469.41424.24469-.10138-.47748.33675-.37667h-.45625l-.19336-.44585-.19336.44585-.45703.01932.33753.35735z" fill="#f1f9ff"/></g></g></svg>