<svg fill="none" height="15" viewBox="0 0 20 15" width="20" xmlns="http://www.w3.org/2000/svg" xmlns:xlink="http://www.w3.org/1999/xlink"><mask id="a" height="15" maskUnits="userSpaceOnUse" width="20" x="0" y="0"><path d="m0 0h20v15h-20z" fill="#fff"/></mask><g clip-rule="evenodd" fill-rule="evenodd" mask="url(#a)"><path d="m5 0h15v15h-15z" fill="#2f8d00"/><path d="m0 0h5v15h-5z" fill="#f7fcff"/><path d="m14.0184 9.56649s-2.7911.72771-5.00649-.75666c-2.21541-1.48435-1.10177-4.90488-1.10177-4.90488-1.15559.16815-2.97037 4.38431-.04511 6.49895 2.92527 2.1147 5.72757.082 6.15337-.83741zm-3.0972-4.02484-1.48224.72477 1.56364.2785.2111 1.52845.8856-1.30175 1.7429.11752-1.3651-1.01807.7267-1.36022-1.359.62241-1.0095-.94918z" fill="#f1f9ff"/></g></svg>