<svg fill="none" height="24" viewBox="0 0 32 24" width="32" xmlns="http://www.w3.org/2000/svg" xmlns:xlink="http://www.w3.org/1999/xlink"><mask id="a" height="24" maskUnits="userSpaceOnUse" width="32" x="0" y="0"><path d="m0 0h32v24h-32z" fill="#fff"/></mask><mask id="b" height="24" maskUnits="userSpaceOnUse" width="32" x="0" y="0"><path clip-rule="evenodd" d="m0 0v24h32v-24z" fill="#fff" fill-rule="evenodd"/></mask><mask id="c" height="14" maskUnits="userSpaceOnUse" width="18" x="0" y="0"><path d="m0 0h18v14h-18z" fill="#fff"/></mask><mask id="d" fill="#000" height="18" maskUnits="userSpaceOnUse" width="22" x="-2" y="-2"><path d="m-2-2h22v18h-22z" fill="#fff"/><path clip-rule="evenodd" d="m9.98451 0h-2v6h-7.98451v2h7.98451v6h2v-6h8.01549v-2h-8.01549z" fill="#000" fill-rule="evenodd"/></mask><g mask="url(#a)"><path clip-rule="evenodd" d="m0 0v24h32v-24z" fill="#2e42a5" fill-rule="evenodd"/><g mask="url(#b)"><path d="m0 0h18v14h-18z" fill="#2b409a"/><g mask="url(#c)"><path d="m-2.00427 12.9999 3.96095 1.7372 16.13322-12.84832 2.0893-2.581529-4.2357-.580621-6.58033 5.53669-5.2965 3.73043z" fill="#f7fcff"/><path d="m-1.46204 14.217 2.017925 1.0081 18.873015-16.157717h-2.8334z" fill="#f50100"/><path d="m20.0043 12.9999-3.961 1.7372-16.1331743-12.84832-2.0893157-2.581529 4.23567-.580621 6.58035 5.53669 5.29647 3.73043z" fill="#f7fcff"/><path d="m19.8691 13.8732-2.0179 1.0081-8.03631-6.91791-2.3826-.77293-9.81249-7.874529h2.833394l9.807006 7.687629 2.6049.92682z" fill="#f50100"/><path clip-rule="evenodd" d="m9.98451 0h-2v6h-7.98451v2h7.98451v6h2v-6h8.01549v-2h-8.01549z" fill="#f50100" fill-rule="evenodd"/><path d="m7.98451 0v-1.5h-1.5v1.5zm2 0h1.49999v-1.5h-1.49999zm-2 6v1.5h1.5v-1.5zm-7.98451 0v-1.5h-1.5v1.5zm0 2h-1.5v1.5h1.5zm7.98451 0h1.5v-1.5h-1.5zm0 6h-1.5v1.5h1.5zm2 0v1.5h1.49999v-1.5zm0-6v-1.5h-1.5v1.5zm8.01549 0v1.5h1.5v-1.5zm0-2h1.5v-1.5h-1.5zm-8.01549 0h-1.5v1.5h1.5zm-2-4.5h2v-3h-2zm1.5 4.5v-6h-3v6zm-9.48451 1.5h7.98451v-3h-7.98451zm1.5.5v-2h-3v2zm6.48451-1.5h-7.98451v3h7.98451zm1.5 7.5v-6h-3v6zm.5-1.5h-2v3h2zm-1.5-4.5v6h2.99999v-6zm9.51549-1.5h-8.01549v3h8.01549zm-1.5-.5v2h3v-2zm-6.51549 1.5h8.01549v-3h-8.01549zm-1.5-7.5v6h2.99999v-6z" fill="#f7fcff" mask="url(#d)"/></g><path clip-rule="evenodd" d="m20.2467 10.0327v6.5292s-.0967 5.4021 4.882 5.4021 4.9787-5.4021 4.9787-5.4021v-6.5292z" fill="#3b7e05" fill-rule="evenodd" stroke="#f7fcff" stroke-width=".5"/><path clip-rule="evenodd" d="m20.237 19.8888.7932-.7963c1.2396 1.5309 2.5434 2.276 3.9297 2.276 1.3862 0 2.6889-.7449 3.9266-2.2757l.4514.4526.0192-.0284c.276.2337.458.4523.5453.7056.1423.4125-.0097.8089-.3432 1.0186-.0827.052-.1484.0895-.2068.1167-.1354.063-.2439.0904-.405.045-.164-.0463-.3019-.1725-.3732-.3462-1.1249.995-2.3323 1.501-3.6143 1.501-1.271 0-2.4692-.4973-3.5869-1.4755-.0747.1708-.214.2934-.3778.3365-.1619.0426-.2699.0133-.4042-.0521-.0579-.0282-.1229-.0668-.2047-.1202-.3298-.2155-.4749-.6145-.3254-1.0244.0407-.1116.1059-.215.1904-.3156-.0048-.0058-.0095-.0117-.0143-.0176z" fill="#ffd018" fill-rule="evenodd"/><path d="m21.0302 19.0925.1943-.1573-.1751-.2162-.1963.1971zm-.7932.7963-.1771-.1764-.1585.1592.1413.1746zm8.6495-.796.177-.1765-.1965-.197-.175.2164zm.4514.4526-.177.1766.2144.2149.1698-.2516zm.0192-.0284.1615-.1908-.2128-.1801-.1559.231zm.5453.7056.2363-.0815zm-.3432 1.0186-.1331-.2116zm-.2068.1167-.1055-.2267zm-.405.045-.0679.2406zm-.3732-.3462.2313-.095-.1336-.3252-.2633.233zm-7.2012.0255.1647-.1881-.257-.2248-.1367.3128zm-.3778.3365-.0636-.2418zm-.4042-.0521.1095-.2247zm-.2047-.1202-.1367.2093zm-.3254-1.0244.2349.0856zm.1904-.3156.1914.1608.1329-.1582-.1303-.1603zm.6018-.9903-.7932.7963.3543.3529.7931-.7963zm4.1068 2.2024c-1.2843 0-2.5236-.6867-3.7354-2.1833l-.3886.3146c1.2673 1.5652 2.6357 2.3687 4.124 2.3687zm3.7321-2.1828c-1.2098 1.4963-2.4479 2.1828-3.7321 2.1828v.5c1.4883 0 2.8555-.8034 4.121-2.3685zm.8229.4332-.4514-.4526-.354.3531.4514.4526zm-.365.0082-.0192.0284.4144.2798.0192-.0284zm.9888.764c-.1086-.3149-.3294-.5688-.6201-.8149l-.3231.3816c.2614.2213.4045.4046.4706.5963zm-.4465 1.3117c.4327-.272.6264-.7902.4465-1.3117l-.4726.163c.1047.3035-.0055.578-.24.7255zm-.2343.1317c.0722-.0336.148-.0774.2343-.1317l-.2661-.4232c-.0791.0497-.1346.0809-.1792.1016zm-.5784.059c.1094.0308.212.0396.3149.0251.0997-.0141.1865-.0483.2635-.0841l-.211-.4533c-.0584.0272-.0936.0382-.1223.0423-.0254.0036-.0576.0033-.1094-.0113zm-.5366-.4918c.0979.2384.2923.4229.5366.4918l.1357-.4813c-.0837-.0236-.165-.0915-.2097-.2005zm-3.383 1.656c1.3541 0 2.6183-.5363 3.7799-1.5637l-.3312-.3745c-1.0883.9625-2.2387 1.4382-3.4487 1.4382zm-3.7515-1.5373c1.1545 1.0102 2.4091 1.5373 3.7515 1.5373v-.5c-1.1997 0-2.3413-.4676-3.4222-1.4136zm-.1496.3901c.244-.0643.4407-.2435.5433-.4781l-.4581-.2003c-.0468.107-.1288.1728-.2124.1948zm-.5772-.0691c.0763.0372.1625.0729.2619.0887.1027.0163.2054.0093.3153-.0196l-.1272-.4836c-.052.0137-.0843.0134-.1096.0094-.0286-.0046-.0636-.0162-.1215-.0444zm-.232-.1357c.0854.0558.1604.1009.232.1357l.2189-.4495c-.0443-.0216-.0992-.0537-.1774-.1048zm-.4236-1.3194c-.189.5183-.0042 1.0399.4236 1.3194l.2735-.4186c-.2319-.1515-.3373-.4279-.2273-.7295zm.2339-.3907c-.0977.1163-.1807.2448-.2339.3907l.4698.1713c.0281-.0771.0757-.1556.1469-.2404zm-.0172.3006c.0049.006.0098.0119.0146.0179l.388-.3154c-.0047-.0057-.0093-.0114-.014-.0172z" fill="#fff"/><g clip-rule="evenodd" fill-rule="evenodd"><path d="m21.9558 11.4604.1113.0408c.0909-.2079.1059-.3663 0-.468l-.003-.0047c-.0247-.0386-.0686-.1071.003-.2535l-.051-.1046c-.1036.2119-.1503.3649-.0693.4679l.0041.0053.0049.0044c.0469.0422.0666.1602 0 .3124zm0 1.5135.1113.0408c.0909-.2079.1059-.3663 0-.468l-.003-.0047c-.0247-.0386-.0686-.1071.003-.2534l-.051-.1047c-.1036.2119-.1503.3649-.0693.468l.0041.0052.0049.0044c.0469.0422.0666.1602 0 .3124zm.1113 1.3922-.1113-.0408c.0666-.1522.0469-.2702 0-.3124l-.0049-.0044-.0041-.0053c-.081-.1031-.0343-.256.0693-.4679l.051.1046c-.0716.1464-.0277.2149-.003.2534l.003.0047c.1059.1017.0909.2601 0 .4681zm.6654 1.5808.1113.0408c.0909-.2079.1059-.3663 0-.468l-.003-.0047c-.0247-.0386-.0686-.1071.003-.2535l-.051-.1046c-.1036.2119-.1503.3648-.0693.4679l.0041.0053.0049.0044c.0469.0422.0666.1602 0 .3124zm-.8111 1.3381-.1112-.0408c.0665-.1522.0469-.2702 0-.3124l-.0049-.0044-.0041-.0053c-.081-.1031-.0343-.256.0692-.4679l.051.1046c-.0715.1464-.0276.2149-.0029.2535l.0029.0046c.106.1018.091.2602 0 .4681zm-.1112 1.4727.1112.0408c.091-.2079.106-.3663 0-.468l-.0029-.0047c-.0247-.0386-.0686-.1071.0029-.2535l-.051-.1046c-.1035.2119-.1502.3648-.0692.4679l.0041.0053.0049.0044c.0469.0422.0665.1602 0 .3124zm4.9171.0408-.1113-.0408c.0666-.1522.0469-.2702 0-.3124l-.0049-.0044-.0041-.0053c-.081-.1031-.0343-.256.0693-.4679l.051.1046c-.0716.1464-.0277.2149-.003.2535l.003.0047c.1059.1017.0909.2601 0 .468zm-.1113-1.5002.1113.0407c.0909-.2079.1059-.3663 0-.468l-.003-.0047c-.0247-.0386-.0686-.1071.003-.2534l-.051-.1047c-.1036.212-.1503.3649-.0693.468l.0041.0052.0049.0044c.0469.0423.0666.1602 0 .3125zm.1113-1.4187-.1113-.0408c.0666-.1522.0469-.2702 0-.3124l-.0049-.0044-.0041-.0053c-.081-.1031-.0343-.256.0693-.4679l.051.1046c-.0716.1464-.0277.2149-.003.2535l.003.0046c.1059.1017.0909.2602 0 .4681zm-.1598-1.4462.1112.0408c.0909-.2079.106-.3664 0-.4681l-.003-.0046c-.0247-.0386-.0685-.1071.003-.2535l-.051-.1046c-.1036.2119-.1502.3648-.0693.4679l.0042.0053.0049.0044c.0468.0422.0665.1602 0 .3124zm.1112-1.4727-.1112-.0408c.0665-.1522.0468-.2702 0-.3124l-.0049-.0044-.0042-.0053c-.0809-.1031-.0343-.256.0693-.4679l.051.1046c-.0715.1464-.0277.2149-.003.2534l.003.0047c.106.1017.0909.2601 0 .4681zm-.1112-1.4462.1112.0408c.0909-.208.106-.3664 0-.4681-.0009-.0015-.0019-.0031-.003-.0047-.0247-.0385-.0685-.107.003-.2534l-.051-.1046c-.1036.2119-.1502.3648-.0693.4679l.0042.0053.0049.0044c.0468.0422.0665.1602 0 .3124z" fill="#f50100"/><path d="m22.7601 10.815c.0081-.0155.0126-.0335.0126-.0526 0-.0597-.0447-.1081-.1-.1081-.0552 0-.1.0484-.1.1081 0 .0257.0084.0494.0223.068l-.3784.5859.0394.0315.3782-.5856c.0119.0054.0249.0083.0385.0083.0195 0 .0377-.006.053-.0164l.398.5941.0389-.0323zm-.0136.5069c.0163-.0192.0262-.0449.0262-.073 0-.0597-.0447-.1081-.1-.1081-.0552 0-.1.0484-.1.1081 0 .0364.0167.0686.0422.0882l-.0948.114h-.6424s.0704.161.2894.2036c.0669.0635.238.1819.238.1819l-.0976.1185h.6926v-.1185c.1688-.0013.2321-.1345.2548-.1821.0093-.0196.0117-.0247.0117.0002 0 .085.1232 0 .1232 0s.2044-.2036.2044-.3976c0-.1939-.4275.194-.4275.194h-.2902zm-.8688 1.6427h.6424l.0948-.114c-.0255-.0196-.0422-.0518-.0422-.0882 0-.0597.0448-.1081.1-.1081.0553 0 .1.0484.1.1081 0 .0281-.0099.0538-.0262.073l.13.1292h.2902s.4275-.3879.4275-.1939c0 .1939-.2044.3975-.2044.3975s-.1232.085-.1232 0c0-.0249-.0024-.0198-.0117-.0002-.0227.0476-.086.1808-.2548.1821v.1185h-.6926l.0976-.1185s-.1711-.1183-.238-.1819c-.219-.0425-.2894-.2036-.2894-.2036zm.8824-.636c.0081-.0156.0126-.0336.0126-.0527 0-.0597-.0447-.1081-.1-.1081-.0552 0-.1.0484-.1.1081 0 .0258.0084.0494.0223.068l-.3784.5859.0394.0315.3782-.5856c.0119.0054.0249.0083.0385.0083.0195 0 .0377-.006.053-.0164l.398.5941.0389-.0323zm-.8824 1.9874h.6424l.0948-.114c-.0255-.0196-.0422-.0518-.0422-.0882 0-.0598.0448-.1082.1-.1082.0553 0 .1.0484.1.1082 0 .0281-.0099.0537-.0262.073l.13.1292h.2902s.4275-.388.4275-.194-.2044.3975-.2044.3975-.1232.0851-.1232 0c0-.0248-.0024-.0198-.0117-.0001-.0227.0475-.086.1808-.2548.182v.1186h-.6926l.0976-.1186s-.1711-.1183-.238-.1819c-.219-.0425-.2894-.2035-.2894-.2035zm.8824-.6361c.0081-.0156.0126-.0335.0126-.0526 0-.0597-.0447-.1081-.1-.1081-.0552 0-.1.0484-.1.1081 0 .0257.0084.0493.0223.0679l-.3784.5859.0394.0316.3782-.5856c.0119.0053.0249.0083.0385.0083.0195 0 .0377-.006.053-.0164l.398.5941.0389-.0324zm-.1057 2.2577h.6424l.0948-.114c-.0255-.0196-.0422-.0518-.0422-.0882 0-.0597.0448-.1081.1-.1081.0553 0 .1.0484.1.1081 0 .0281-.0099.0537-.0262.073l.13.1292h.2902s.4275-.3879.4275-.194c0 .194-.2044.3976-.2044.3976s-.1232.085-.1232 0c0-.0249-.0024-.0198-.0117-.0002-.0227.0475-.086.1808-.2548.182v.1186h-.6926l.0976-.1186s-.1711-.1183-.238-.1818c-.219-.0426-.2894-.2036-.2894-.2036zm.8824-.6361c.0081-.0155.0126-.0335.0126-.0526 0-.0597-.0447-.1081-.1-.1081-.0552 0-.1.0484-.1.1081 0 .0257.0084.0494.0223.0679l-.3784.5859.0394.0316.3782-.5856c.0119.0053.0249.0083.0385.0083.0195 0 .0377-.006.053-.0164l.398.5941.0389-.0323zm-1.8047 1.9334h.6424l.0948-.114c-.0255-.0196-.0422-.0518-.0422-.0882 0-.0597.0448-.1081.1-.1081s.1.0484.1.1081c0 .0281-.0099.0537-.0262.073l.13.1292h.2901s.4276-.3879.4276-.194c0 .194-.2045.3976-.2045.3976s-.1231.085-.1231 0c0-.0249-.0024-.0199-.0118-.0002-.0226.0475-.086.1808-.2547.182v.1186h-.6926l.0976-.1186s-.1711-.1183-.238-.1818c-.2191-.0426-.2894-.2036-.2894-.2036zm.8824-.6361c.008-.0155.0126-.0335.0126-.0526 0-.0597-.0448-.1081-.1-.1081s-.1.0484-.1.1081c0 .0257.0083.0494.0222.0679l-.3784.5859.0395.0316.3782-.5856c.0118.0053.0248.0083.0385.0083.0195 0 .0376-.006.053-.0164l.398.5941.0389-.0323zm-.8824 2.1496h.6424l.0948-.114c-.0255-.0196-.0422-.0518-.0422-.0882 0-.0597.0448-.1081.1-.1081s.1.0484.1.1081c0 .0281-.0099.0538-.0262.073l.13.1292h.2901s.4276-.3879.4276-.194c0 .194-.2045.3976-.2045.3976s-.1231.085-.1231 0c0-.0249-.0024-.0198-.0118-.0002-.0226.0475-.086.1808-.2547.1821v.1185h-.6926l.0976-.1185s-.1711-.1184-.238-.1819c-.2191-.0426-.2894-.2036-.2894-.2036zm.8824-.6361c.008-.0155.0126-.0335.0126-.0526 0-.0597-.0448-.1081-.1-.1081s-.1.0484-.1.1081c0 .0257.0083.0494.0222.0679l-.3784.586.0395.0315.3782-.5856c.0118.0053.0248.0083.0385.0083.0195 0 .0376-.006.053-.0164l.398.5941.0389-.0323zm3.9234.6361h.6424l.0948-.114c-.0255-.0196-.0422-.0518-.0422-.0882 0-.0597.0448-.1081.1-.1081.0553 0 .1.0484.1.1081 0 .0281-.0099.0538-.0262.073l.13.1292h.2902s.4275-.3879.4275-.194c0 .194-.2044.3976-.2044.3976s-.1232.085-.1232 0c0-.0249-.0024-.0198-.0118-.0002-.0226.0475-.0859.1808-.2547.1821v.1185h-.6926l.0976-.1185s-.1711-.1184-.238-.1819c-.219-.0426-.2894-.2036-.2894-.2036zm.8824-.6361c.0081-.0155.0126-.0335.0126-.0526 0-.0597-.0447-.1081-.1-.1081-.0552 0-.1.0484-.1.1081 0 .0257.0084.0494.0223.0679l-.3784.586.0394.0315.3782-.5856c.0119.0053.0249.0083.0385.0083.0195 0 .0377-.006.053-.0164l.398.5941.0389-.0323zm-.8824-.8233h.6424l.0948-.1141c-.0255-.0196-.0422-.0518-.0422-.0882 0-.0597.0448-.1081.1-.1081.0553 0 .1.0484.1.1081 0 .0282-.0099.0538-.0262.073l.13.1293h.2902s.4275-.388.4275-.194-.2044.3975-.2044.3975-.1232.085-.1232 0c0-.0248-.0024-.0198-.0117-.0002-.0227.0476-.086.1808-.2548.1821v.1185h-.6926l.0976-.1185s-.1711-.1183-.238-.1819c-.219-.0425-.2894-.2035-.2894-.2035zm.8824-.6361c.0081-.0156.0126-.0335.0126-.0527 0-.0597-.0447-.1081-.1-.1081-.0552 0-.1.0484-.1.1081 0 .0258.0084.0494.0223.068l-.3784.5859.0394.0316.3782-.5857c.0119.0054.0249.0084.0385.0084.0195 0 .0377-.0061.053-.0164l.398.594.0389-.0323zm-.8824-.8234h.6424l.0948-.114c-.0255-.0196-.0422-.0518-.0422-.0882 0-.0597.0448-.1081.1-.1081.0553 0 .1.0484.1.1081 0 .0281-.0099.0537-.0262.073l.13.1292h.2902s.4275-.388.4275-.194-.2044.3975-.2044.3975-.1232.0851-.1232 0c0-.0248-.0024-.0198-.0117-.0001-.0227.0475-.086.1808-.2548.182v.1186h-.6926l.0976-.1186s-.1711-.1183-.238-.1819c-.219-.0425-.2894-.2035-.2894-.2035zm.8824-.6361c.0081-.0156.0126-.0335.0126-.0526 0-.0597-.0447-.1081-.1-.1081-.0552 0-.1.0484-.1.1081 0 .0257.0084.0494.0223.0679l-.3784.5859.0394.0316.3782-.5856c.0119.0053.0249.0083.0385.0083.0195 0 .0377-.006.053-.0164l.398.5941.0389-.0323zm-.931-.7693h.6425l.0948-.114c-.0256-.0196-.0422-.0518-.0422-.0882 0-.0597.0448-.1081.1-.1081s.1.0484.1.1081c0 .0281-.0099.0537-.0262.073l.1299.1292h.2902s.4276-.388.4276-.194-.2045.3975-.2045.3975-.1232.0851-.1232 0c0-.0248-.0024-.0198-.0117-.0001-.0226.0475-.086.1808-.2547.182v.1186h-.6926l.0976-.1186s-.1712-.1183-.238-.1819c-.2191-.0425-.2895-.2035-.2895-.2035zm.8825-.6361c.008-.0156.0126-.0335.0126-.0526 0-.0597-.0448-.1081-.1-.1081s-.1.0484-.1.1081c0 .0257.0083.0494.0222.0679l-.3784.5859.0394.0316.3782-.5856c.0119.0053.0249.0083.0386.0083.0195 0 .0376-.006.053-.0164l.3979.5941.039-.0323zm-.8825-.8774h.6425l.0948-.114c-.0256-.0196-.0422-.0518-.0422-.0882 0-.0598.0448-.1082.1-.1082s.1.0484.1.1082c0 .0281-.0099.0537-.0262.073l.1299.1292h.2902s.4276-.388.4276-.194-.2045.3975-.2045.3975-.1232.0851-.1232 0c0-.0248-.0024-.0198-.0117-.0002-.0226.0476-.086.1809-.2547.1821v.1186h-.6926l.0976-.1186s-.1712-.1183-.238-.1819c-.2191-.0425-.2895-.2035-.2895-.2035zm.8825-.6361c.008-.0156.0126-.0335.0126-.0526 0-.0597-.0448-.1081-.1-.1081s-.1.0484-.1.1081c0 .0257.0083.0493.0222.0679l-.3784.5859.0394.0316.3782-.5857c.0119.0054.0249.0084.0386.0084.0195 0 .0376-.006.053-.0164l.3979.5941.039-.0324z" fill="#ffd018"/><path d="m24.6397 12.5857-.3363 1.0935s-.5635.729-.6675 1.0862c-.1039.3573-.1609.5947-.1324.5947s.2587-.1018.2587-.3482c0-.2465.8775-1.039.8775-1.039l.2619-1.3872z" fill="#ffc6b5"/><path d="m27.3718 10.869c.0081-.0156.0126-.0335.0126-.0526 0-.0597-.0447-.1081-.1-.1081-.0552 0-.1.0484-.1.1081 0 .0257.0084.0493.0223.0679l-.3784.5859.0394.0316.3782-.5857c.0118.0054.0249.0084.0385.0084.0195 0 .0377-.006.053-.0164l.398.5941.0389-.0324zm-.0136.5069c.0163-.0193.0262-.0449.0262-.0731 0-.0597-.0447-.1081-.1-.1081-.0552 0-.1.0484-.1.1081 0 .0365.0167.0687.0422.0883l-.0948.114h-.6424s.0704.161.2894.2035c.0669.0636.238.1819.238.1819l-.0976.1186h.6926v-.1186c.1688-.0012.2321-.1345.2547-.1821.0094-.0196.0118-.0246.0118.0002 0 .0851.1232 0 .1232 0s.2044-.2035.2044-.3975-.4276.194-.4276.194h-.2901z" fill="#ffd018"/><path d="m25.4601 12.1481c.0094.02.0165.0349.0165.056 0 .0631-.2672.1557-.46.1557s-.1172-.1557 0-.242-.0095-.2349-.1172-.2349c-.1023 0-.1019-.1445-.1016-.2606 0-.0061 0-.0122 0-.0182v-.4524c0-.1816.0492-.1603.1432-.1197.0553.0239.1261.0545.2115.0545.1435 0 .1514.0331.173.1226.0131.0544.0312.1296.0877.2309.0901.1613.0717.1984.0429.2569-.0191.0386-.0429.0866-.0429.186 0 .1662.0281.2256.0469.2652zm.238 1.1606.0568-.615s-.0568-.225.0761-.225.3392 1.0756.4138 1.5068c.0477.2758.0039.327-.1226.4748-.0713.0833-.1689.1973-.2912.3995-.2034.3364-.1902.5332-.1802.6832.0067.1002.012.1795-.0495.2655-.143.1999-.2017.0107-.2589-.1738-.0042-.0138-.0085-.0275-.0127-.041-.0546-.1726.1945-.6959.3638-1.0514.0221-.0465.0429-.0901.0614-.1297.1603-.3422.1452-.4617.0761-.605s-.1329-.4889-.1329-.4889z" fill="#ffc6b5"/><path d="m26.0195 19.3698c0 .1564-.1196.2832-.267.2832-.1475 0-.267-.1268-.267-.2832s.1195-.2831.267-.2831c.1474 0 .267.1267.267.2831zm-1.42.0787c-.1197.1005-.2658.1237-.3261.0518s-.0121-.2116.1077-.3121.2658-.1238.3261-.0519.0121.2117-.1077.3122z" fill="#ffd018"/><path d="m24.951 10.7848s-.2776.0564-.1851.1954c.0926.139-.1206.1031.1851.121.3057.018.3894.1293.3476.2115-.0419.0822-.0747.2864 0 .4094s.0984.3371.2304.2301c.1319-.1071.3854-.2541.3078-.4468-.0777-.1927.0313-.4168-.1383-.5252-.1695-.1084-.2074-.0421-.3044-.1954-.0971-.1533-.24-.1955-.3415-.0978-.1016.0978-.1016.0978-.1016.0978z" fill="#a95601"/><path d="m24.896 12.1777s-.558.6719-.4667.9087c.0914.2367.228.2492.1597.5858s.0415.8569-.1597 1.5189-.3334 2.2152-.2673 2.2152.158.858.079 1.2429-.6298.707-.079.707.6162.0763.8363 0 .5324.2195.5324 0c0-.2196.0236-.2645.1913-.2645h.3079c.1485 0 .3432.1382.3432-.1898s.0363-1.0327-.1535-1.58c-.1897-.5473-.1253-.1978-.3114-.9297-.1103-.4335-.1954-.6056-.2625-.757-.0461-.1042-.1779.0787-.2091-.0844-.0107-.0553.0795-.38.0804-.4216.006-.2599.205-.3041.205-.7511 0-.5186-.1243-1.0884 0-1.3735.1244-.2851.4296-.1137.3079-.391s-.1613-.4359-.3904-.4359c-.229 0-.7435 0-.7435 0z" fill="#f7fcff"/></g><path d="m20.9868 20.1457.0935-.1244c1.336 1.2445 2.5712 1.8646 3.7048 1.8646 1.1348 0 2.5164-.6582 4.1422-1.9782l.0858.131c-1.6484 1.3384-3.0568 2.0093-4.228 2.0093-1.1724 0-2.4382-.6355-3.7983-1.9023z" fill="#272727"/></g></g></svg>