<svg fill="none" height="24" viewBox="0 0 32 24" width="32" xmlns="http://www.w3.org/2000/svg" xmlns:xlink="http://www.w3.org/1999/xlink"><mask id="a" height="24" maskUnits="userSpaceOnUse" width="32" x="0" y="0"><path d="m0 0h32v24h-32z" fill="#fff"/></mask><g mask="url(#a)"><path clip-rule="evenodd" d="m0 16h32v8h-32z" fill="#14dc5a" fill-rule="evenodd"/><path clip-rule="evenodd" d="m0 0h32v10h-32z" fill="#0099b5" fill-rule="evenodd"/><g fill="#f7fcff"><path d="m-2 9.5h-.5v.5 6 .5h.5 36 .5v-.5-6-.5h-.5z" stroke="#c51918"/><path clip-rule="evenodd" d="m14.5412 3.00637-.673.37397.1922-.76005-.6447-.55852h.8421l.2824-.71924.3312.71924h.7179l-.5641.55852.2712.76005zm-3.6081 2.29085.6731-.37397.7552.37397-.2712-.76005.564-.55852h-.7179l-.3311-.71924-.2825.71924h-.8421l.6448.55852zm-2.50543 1.66384-.67304.37397.19222-.76005-.64472-.55852h.84209l.28243-.71924.33117.71924h.71786l-.56404.55852.27121.76005zm3.17853 0-.6731.37397.1923-.76005-.6448-.55852h.8421l.2825-.71924.3311.71924h.7179l-.564.55852.2712.76005zm2.9799 0-.673.37397.1922-.76005-.6447-.55852h.8421l.2824-.71924.3312.71924h.7178l-.564.55852.2712.76005zm-.673-1.66384.673-.37397.7552.37397-.2712-.76005.564-.55852h-.7178l-.3312-.71924-.2824.71924h-.8421l.6447.55852zm2.9993 2.03781.6731-.37397.7552.37397-.2712-.76005.564-.55852h-.7179l-.3311-.71924-.2825.71924h-.8421l.6448.55852zm.6731-2.41178-.6731.37397.1923-.76005-.6448-.55852h.8421l.2825-.71924.3311.71924h.7179l-.564.55852.2712.76005zm-.7179-1.54291.673-.37397.7552.37397-.2712-.76005.564-.55852h-.7178l-.3312-.71924-.2824.71924h-.8421l.6447.55852zm3.7481 3.58072-.6731.37397.1923-.76005-.6447-.55852h.842l.2825-.71924.3311.71924h.7179l-.564.55852.2712.76005zm-.6731-1.66384.6731-.37397.7552.37397-.2712-.76005.564-.55852h-.7179l-.3311-.71924-.2825.71924h-.842l.6447.55852zm.6282-2.29085-.673.37397.1922-.76005-.6447-.55852h.8421l.2824-.71924.3312.71924h.7178l-.564.55852.2712.76005zm-14.68589 5.23425s-2.41585-.65523-2.37036-3.07871c.04549-2.42349 2.48545-3.0527 2.48545-3.0527-.99697-.37754-3.94485.12907-3.99927 3.02813s2.9552 3.47018 3.88418 3.10328z" fill-rule="evenodd"/></g></g></svg>