<svg fill="none" height="12" viewBox="0 0 16 12" width="16" xmlns="http://www.w3.org/2000/svg" xmlns:xlink="http://www.w3.org/1999/xlink"><mask id="a" height="12" maskUnits="userSpaceOnUse" width="16" x="0" y="0"><path d="m0 0h16v12h-16z" fill="#fff"/></mask><g clip-rule="evenodd" fill-rule="evenodd" mask="url(#a)"><path d="m11 0h5v12h-5z" fill="#409100"/><path d="m0 0h6v12h-6z" fill="#409100"/><path d="m5 0h6v12h-6z" fill="#fff"/><path d="m6.34769 9.38526c-.77782.12655-1.02308-.25309-1.02308-.25309l.09796-.08047c.06579-.05403.2874-.03549.50261-.01748.10524.00881.20896.01748.29218.01748.1214 0 .2611-.01831.40665-.03739.15825-.02075.32341-.0424.47945-.0424.29956 0-.8861-.39172-1.13949-.15147-.25339.24026-.96397-.11134-.96397-.31182 0-.1368.2616-.08692.50021-.04142.11109.02119.21721.04142.28962.04142.22793 0-.22793-.44464-.46522-.44464-.23728 0 .23729-.10328.46522-.10328.12979 0 .25039.03349.35425.06233.07853.0218.14749.04095.20361.04095.13032 0-.65444-.33731-.78579-.33731h.65546c.22496 0 .27959.03171.33135.06175.04662.02706.09092.05277.25519.05277.3467 0 .15687-.18964.15687-.18964s-1.17094-.12156-1.39887-.28947c-.15412-.11354.25947-.07353.65039-.03572h.00001c.1872.01811.3692.03572.48117.03572.34578 0-.7295-.24683-.90364-.24683h.79243c.17347 0 .36392.05578.56374.11431.2205.06459.45242.13252.68553.13252.24576 0-.23421-.14661-.76147-.30765l-.00002-.00001c-.42607-.13014-.88303-.26971-1.01286-.34898-.13434-.08202-.03215-.05025.15397.0076.21636.06726.54614.16976.74962.16976.3785 0-.50357-.37132-.74341-.37132s-.46946-.10795-.25339-.20773c.13266-.06126.47819.03101.77913.11138.1892.05053.36078.09635.45076.09635.10908 0 .18975.04248.27558.08768.09757.05138.20182.10628.36209.10628.30125 0-.63767-.40169-1.02763-.40169-.38995 0-.45621-.18918-.22164-.18918.23458 0-.52508-.3223-.52508-.3223s-.11013-.22859.16018-.22859h.3649c.12506 0-.12506-.39645-.3649-.39645s-.03068-.11977.3649-.11977c.24055 0 .38127.08302.55059.18292.10914.06438.23015.13578.39743.19647.42682.15486.10487-.25962 0-.25962-.10486 0-1.18259-.33782-1.18259-.33782s.10951-.12445 0-.2939c-.08265-.12787.26129-.06275.47073-.02309.06809.01289.12197.02309.14235.02309.04957 0 .19195.03539.3668.07885h.00001c.118.02932.25078.06232.37981.0906.32022.07019-1.08775-.51703-1.25019-.51703-.16243 0 .3467-.09649.64626-.09649.14729 0 .21832.02332.29055.04704.07467.02451.1506.04945.31338.04945.32022 0-.60393-.34322-.90349-.34322s-.12245-.29554 0-.29554c.04768 0 .16833.01586.31569.03523h.00001.00001.00001.00001c.23113.03038.52795.06938.7119.06938.14005 0 .01206-.03924-.1741-.09632h-.00001c-.21426-.0657-.50559-.15503-.55396-.23534-.05338-.08863.05525-.07257.24469-.04456.03423.00506.07111.01051.11014.0158.12916.06768.23705.11139.25283.05978.00454-.01485.01468-.02546.02759-.0331.0305.00134.06148.00208.09282.00208.17856 0 .09605-.02721-.07582-.05976l-.01539-.00471c-.26077-.07973-.82506-.25016-.61397-.14499.04134.0206.08781.04602.13602.07286-.14229-.01885-.26187-.03192-.3016-.03192-.1427 0-.28581-.11026 0-.11026h.56951c-.17711 0-.42682 0-.42682-.13914 0-.0947.19772-.06049.37985-.02898.08547.01479.16751.02898.22408.02898.17711 0 .22118 0 .12414-.08277-.09214-.0786-.40992-.07821-.60726-.07797l-.03041.00002c-.19332 0 .40989-.10101.63767-.10101.03829 0 .05519 0 .05522-.00072.00002-.00057-.0105-.0016-.02934-.00343-.0991-.00963-.42838-.04165-.66355-.14804-.21038-.09516-.02608-.07131.21521-.04007.14457.01871.30959.04007.42246.04007.30125 0-.12414-.20259-.44436-.20259-.25702 0-.13455-.0702.02438-.16131.03907-.0224.08035-.04606.11873-.07026.11555-.07283.20012.05142.24975.12432.03391.04981.0515.07565.0515-.00172 0-.07552-.01949-.12345-.0353-.14864.00846.0071.01999.01583.0353.02604.12414.08283 0-.21728 0-.21728s-.12414-.08288 0-.08288-.03993-.14247-.12414-.14247.22118-.13632.22118-.13632l.06729-.577146s.16645.628886.16645.713466v.44263c0 .10538-.0745.17891-.12434.2281-.0625.06169-.08623.08512.12434.08512.37848 0 .36238.12094.13198.12094s.06616.15219.47984.15219-.34691.17896-.61182.17896c-.26492 0 .26491.08277.61182.08277.23425 0-.00604.08097-.22773.15567-.10662.03592-.20894.0704-.25211.09373-.06878.03716.10076.03587.28043.02597-.09443.02782-.18819.05632-.25934.07808-.08629.02638-.11547.0353-.11483.03889.00033.00183.00844.00227.02069.00294.03625.00197.10874.00591.12334.05366.02178.07125.21912-.03917.4056-.14351.02986-.01671.05945-.03327.088-.0489.04903-.00414.08054-.00713.08054-.00713s.17143.19781.17143.31861c0 .07045-.22551.09121-.46604.11336l-.02426.00223c.01209-.01588-.03906-.00757-.1142.01101-.12474.01283-.24255.02873-.32334.05497-.07717.02507-.06415.03553-.00142.03778l-.01705.0052c-.05907.01806-.07934.02426-.07889.02782.00023.00186.00612.003.01509.00474.02613.00506.0784.01519.093.06293.02178.07125.15356-.01912.27809-.10452l.01177-.00807.11845-.00789h.00001c.13554-.00917.26589-.01799.33736-.01799.22327 0-.22328.10764-.39403.10764-.07266 0 .01889.01646.15853.04156.18853.03388.46471.08353.54273.12969.09324.05518-.18058.03458-.42425.01626h-.00001c-.1112-.00837-.21612-.01626-.277-.01626-.19428 0-.2304.15877-.09747.15877h.4915c.1859 0 .37942.28438.30723.28438-.02187 0-.06872.01466-.13404.03509-.15027.04701-.39829.1246-.66469.1246-.38218 0 .4915.00041.66293 0s.66053.00041.66053.16945c0 .10516-.09259.12826-.21391.15853-.07372.01839-.15803.03942-.23863.08311-.21325.11561.63777.22063.63777.22063s-.33683.10476-.50075.10476c-.16391 0 .07624.15486.50075.15486.32839 0 .23199.17846.17149.29039v.00001c-.0176.03274-.0323.05979-.0323.07502 0 .02943-.0621.05483-.15205.09159-.11559.04725-.27709.11326-.41165.23071-.15482.13513.03328.0954.24581.05052.11595-.02449.23916-.05052.31789-.05052.2232 0 .3182.0093.2456.11751-.0727.1082-.72162.2794-.88554.2794h.88554c.2455 0-.0688.19396-.38479.19396-.21189 0-.3305.07976-.40864.13231-.03838.02581-.067.04505-.09211.04505h.63994c.0326 0 .0685-.05211.1013-.09987.0289-.042.0555-.08063.0755-.07749.2895.04544.1596.40981 0 .40981-.1832 0-.7405.12285-.65282.24683.04244.06.10873.03288.21621-.01108.11461-.04687.27601-.1129.50541-.1129.4443 0 .0427.12398-.0688.12398s-.58329.09007-.7405.16791c-.10496.05196.26021.03455.6234.01722.1809-.00862.3613-.01722.4829-.01722.3657 0-.86702.3112-1.31956.3112-.45253 0 .30094.11951.45254.11951.05815 0 .17097.0152.31002.03393h.0001c.2235.03011.5148.06935.7561.06935.3914 0-.3914.25787-.7418.25787l-.08005-.00021c-.31237-.00129-.5472-.00225-.39597.18698.08409.10522.36392.07657.65602.04667.2772-.02838.5655-.05789.7078.0249.2557.14874-.8756.13589-1.36373.13035h-.00001c-.0698-.00079-.12645-.00144-.164-.00144-.30012 0 .30013.11134.81674.11134l.0652-.00002c.4616-.0003.571-.00037.571.15149 0 .13344-1.00557.09894-1.42523.08454-.07963-.00274-.13816-.00475-.16473-.00475-.08039 0-.12698.04858-.17518.09885-.05167.05388-.1052.10971-.20424.10971-.08156 0-.11986-.05219-.15479-.09977-.04705-.0641-.08796-.11983-.2202-.02832-.23039.15943.2304 1.76783.2304 1.76783h-1.24385v-1.51474s-.40478-.12655-1.18259 0zm1.429-7.377c-.00173.00036.00307.008.01954.02182-.00959-.01527-.01782-.02219-.01954-.02182zm-.43277 6.00359c-.19654-.07399.3015-.07779.53189-.07779.07428 0 .10066 0 .10231.00637.0009.00351-.00569.00896-.01592.01739-.0288.02377-.08639.07129-.08639.16635 0 .14185-.18673.05066-.36317-.0355v-.00001h-.00001l-.00001-.00001c-.06001-.0293-.11882-.05802-.1687-.0768zm.4072-.579c-.23039 0-.72843.0038-.53189.07779.04988.01877.10869.0475.1687.0768l.00001.00001h.00001c.17644.08617.36317.17736.36317.0355 0-.09505.05759-.14258.08639-.16634.01023-.00844.01682-.01388.01592-.01739-.00165-.00637-.02802-.00637-.10231-.00637zm-.41545-.33505c-.16046-.03887.24615-.04086.43424-.04086.06178 0 .08298 0 .08359.00354.00031.00184-.00499.00466-.01305.00894-.02351.01248-.07054.03744-.07054.08737 0 .07451-.15244.02661-.29649-.01865-.049-.01539-.09702-.03048-.13775-.04034zm.40465-1.58469c-.26077-.07972-.82506-.25016-.61397-.14499.05358.0267.11575.06148.17917.09697.18648.10434.38382.21476.4056.14351.0146-.04775.08709-.05169.12333-.05366.01226-.00067.02037-.00111.0207-.00294.00064-.00359-.02854-.01251-.11483-.03889zm-.61397-.6462c-.21109-.10517.3532.06526.61397.14498.08629.02639.11547.03531.11483.0389-.00033.00183-.00844.00227-.0207.00294-.03624.00197-.10873.00591-.12333.05365-.02178.07126-.21912-.03916-.4056-.1435-.06343-.03549-.1256-.07028-.17917-.09697zm.61397-.48153c-.26077-.07973-.82506-.25016-.61397-.14499.05358.0267.11575.06148.17917.09697.18648.10434.38382.21476.4056.14351.0146-.04775.08709-.05169.12333-.05366.01226-.00067.02037-.00111.0207-.00294.00064-.00359-.02854-.01251-.11483-.03889zm.56426 3.42338c.23039 0 .72843.0038.53189.07779-.04988.01877-.1087.0475-.1687.0768l-.00002.00001c-.17645.08617-.36317.17736-.36317.0355 0-.09505-.05759-.14258-.08639-.16634-.01023-.00844-.01682-.01388-.01592-.01739.00164-.00637.02802-.00637.10231-.00637zm.53189-.29812c.19654-.07399-.3015-.07779-.53189-.07779-.07429 0-.10067 0-.10231.00637-.0009.00351.00569.00895.01592.01739.0288.02376.08639.07129.08639.16634 0 .14186.18672.05067.36317-.0355h.00001l.00001-.00001c.06001-.0293.11882-.05803.1687-.0768zm.30825-.86676h.00001c.02054-.00475.0212-.00491-.00555.00157-.05296.01283-.16394.05648-.28887.10561h-.00001c-.25354.09972-.56452.22201-.56452.15512 0-.04992-.04702-.07489-.07053-.08737-.00807-.00428-.01336-.00709-.01305-.00894.00061-.00354.02181-.00354.08358-.00354.15673 0 .75621-.13868.85894-.16245zm-.21537-1.52636c.21109-.10518-.35321.06526-.61397.14498-.08629.02638-.11547.03531-.11483.03889.00033.00184.00844.00228.02069.00294.03625.00197.10874.00592.12334.05366.02178.07125.21912-.03916.4056-.1435.06342-.03549.12559-.07028.17917-.09697zm-.61397.6462c.26076-.07973.82506-.25016.61397-.14499-.05358.0267-.11575.06148-.17917.09697-.18648.10434-.38382.21476-.4056.1435-.0146-.04774-.08709-.05168-.12334-.05365-.01225-.00067-.02036-.00111-.02069-.00294-.00064-.00359.02854-.01251.11483-.03889zm.61397-1.14742c.21109-.10517-.35321.06526-.61397.14499-.08629.02638-.11547.0353-.11483.03889.00033.00183.00844.00227.02069.00294.03625.00197.10874.00591.12334.05366.02178.07125.21912-.03917.40559-.14351.06343-.03549.1256-.07027.17918-.09697zm-.78551-.29302c.17988-.05499.5693-.17197.42722-.08789-.03606.02134-.07758.04981-.11993.07886-.12453.0854-.25631.17577-.27809.10452-.0146-.04775-.06687-.05787-.093-.06293-.00897-.00174-.01486-.00288-.01509-.00474-.00045-.00356.01982-.00976.07889-.02782zm.11476 1.90697c-.20656 0 0-.16323 0-.16323h.10635c.03651 0 .06911-.01504.11193-.03478.0819-.03778.2012-.0928.45677-.0928.38916 0-.46849.29081-.67505.29081z" fill="#409100"/></g></svg>