<svg fill="none" height="15" viewBox="0 0 20 15" width="20" xmlns="http://www.w3.org/2000/svg" xmlns:xlink="http://www.w3.org/1999/xlink"><mask id="a" height="15" maskUnits="userSpaceOnUse" width="20" x="0" y="0"><path d="m0 0h20v15h-20z" fill="#fff"/></mask><mask id="b" height="8" maskUnits="userSpaceOnUse" width="8" x="6" y="4"><path clip-rule="evenodd" d="m6.89996 4.89575h6.60004v4.77431s-1.6795.50584-3.3 1.33594c-1.19631-.8875-3.30004-1.33594-3.30004-1.33594z" fill="#fff" fill-rule="evenodd"/></mask><g mask="url(#a)"><g clip-rule="evenodd" fill-rule="evenodd"><path d="m13 0h7v15h-7z" fill="#d9071e"/><path d="m0 0h7v15h-7z" fill="#3d58db"/><path d="m6 0h8v15h-8z" fill="#fbcd17"/><path d="m13.574 12.2589-.6582.3596-2.1816-3.99303.6582-.3596zm-7.00308.096.65817.3596 2.1816-3.99302-.65817-.3596z" fill="#fd1900"/><path d="m7.1113 5.86808v3.46957c0 .77075-.66365 1.77525-.99836 2.14885-.33471.3737-.99948 1.2298-.99948 1.2298v-9.33616c0-1.04723.99948-1.40697.99948-1.40697s.82989.16418.99836 1.40697v1.21122c.25687.20228 1.11459.82265 1.66868.56077.65789-.31094.88513-1.20279.88513-1.20279s-.06152-.89993-.33156-.89993c-.27003 0-.2916-1.26767.74255-1.26767 1.0341 0 1.1547.48863 1.1547.87815 0 .20418-.1637.53187-.3195.84369-.1413.28305-.2762.55304-.2762.70574 0 .32093.2418.94281.5957.94281.2481 0 1.4418-.46375 2.1327-.74076v-1.03123c.1684-1.24279.9983-1.40697.9983-1.40697s.9995.35974.9995 1.40697v9.33616s-.6648-.8561-.9995-1.2298c-.3347-.3736-.9983-1.3781-.9983-2.14885v-3.46957zm1.10758 6.52692c.67599-.4401 1.66483-2.41372 1.66483-2.41372l.32829.07622s.5013 1.3073 1.9753 2.3375c-1.5711.4193-1.9753 1.2613-1.9753 1.2613 0-.6736-1.99312-1.2613-1.99312-1.2613zm-.10886-1.2492c.45563 0 .825-.3498.825-.7813 0-.43145-.36937-.78123-.825-.78123-.45564 0-.825.34978-.825.78123 0 .4315.36936.7813.825.7813zm4.83998-.7813c0 .4315-.3694.7813-.825.7813s-.825-.3498-.825-.7813c0-.43145.3694-.78123.825-.78123s.825.34978.825.78123z" fill="#a77b3b"/></g><path d="m15.7125 6.50476.5737.24797-2.3373 5.40747-.5737-.248z" fill="#fdff00"/><path clip-rule="evenodd" d="m6.89996 4.89575h6.60004v4.77431s-1.6795.50584-3.3 1.33594c-1.19631-.8875-3.30004-1.33594-3.30004-1.33594z" fill="#e1e5e8" fill-rule="evenodd" opacity=".3"/><g mask="url(#b)"><path d="m6.89996 8.02075h6.6v3.125h-6.6z" fill="#3d58db"/><path d="m6.89996 4.89575h6.6v3.125h-6.6z" fill="#fd1900"/><g clip-rule="evenodd" fill="#fdff00" fill-rule="evenodd"><path d="m9.86666 6.30121-.50022.04139.2885-.38916-.30744-.40302.50275.06473.19275-.44442.2143.45389.5002-.04139-.2885.38916.3074.40303-.5027-.06474-.1928.44442z"/><path d="m8.96871 5.41976s-1.3437.81749-.8958 1.40433c.4479.58683 1.0117.66195 1.0117.66195s-1.3745 2.06207 1.04469 3.24016c2.59-1.13729 1.2279-3.24016 1.2279-3.24016s.7973-.17638.9569-.81089c.1596-.63452-1.0421-1.36228-1.0421-1.36228s.7498 1.08675.5786 1.36228-1.0881.55604-1.7213.55604c-.63319 0-1.61095-.17779-1.76874-.65925-.1578-.48146.60815-1.15218.60815-1.15218z"/><path d="m7.72496 7.49988.825.52083-.825.52083-.825-.52083z"/><path d="m12.675 7.49988.825.52083-.825.52083-.825-.52083z"/><path d="m7.69995 9.56238c.13807 0 .25-.11193.25-.25s-.11193-.25-.25-.25-.25.11193-.25.25.11193.25.25.25z"/><path d="m13.0188 9.08919c-.2147-.17378-.5436-.12329-.7347.11277-.1912.23607-.1722.56831.0424.74209.1166.09445.0558-.28081.2323-.51959.1483-.20054.5579-.25594.46-.33527z"/></g></g><g clip-rule="evenodd" fill-rule="evenodd"><path d="m2.96039 7.20559s.65883.77888 1.27918.52422.46995-1.16768.46995-1.16768l-.46995.42633h-.40004v.21713l-.31244-.21713v.21713zm.44558 1.19692s.80299.70033 1.34398.50242c.541-.1979.40515-1.14588.40515-1.14588l-.46995.42633h-.40004v.21713l-.31244-.21713v.21713zm2.16238 1.58929c-.541.1979-1.34399-.50242-1.34399-.50242h.56671v-.21713l.31243.21713v-.21713h.40004l.46995-.42633s.13585.94798-.40514 1.14588z" fill="#048f02"/><path d="m8.73704 1.40527h-.625v.37225h-.29417v.625h.29417v1.09039h.625v-1.09039h.3576v-.625h-.3576z" fill="#fdff00"/><path d="m9.47377 2.11536-1.44759.3729 1.44759.45743z" fill="#db4400"/></g></g></svg>