<svg fill="none" height="12" viewBox="0 0 16 12" width="16" xmlns="http://www.w3.org/2000/svg" xmlns:xlink="http://www.w3.org/1999/xlink"><mask id="a" height="12" maskUnits="userSpaceOnUse" width="16" x="0" y="0"><path d="m0 0h16v12h-16z" fill="#fff"/></mask><mask id="b" height="12" maskUnits="userSpaceOnUse" width="16" x="0" y="0"><path clip-rule="evenodd" d="m0 0v12h16v-12z" fill="#fff" fill-rule="evenodd"/></mask><mask id="c" height="8" maskUnits="userSpaceOnUse" width="10" x="3" y="2"><path d="m3 2h10v8h-10z" fill="#fff"/></mask><g mask="url(#a)"><path clip-rule="evenodd" d="m0 0v12h16v-12z" fill="#2e42a5" fill-rule="evenodd"/><g mask="url(#b)"><path clip-rule="evenodd" d="m0 6v6h16v-6z" fill="#e31d1c" fill-rule="evenodd"/><path d="m3 2h10v8h-10z" fill="#fff"/><g mask="url(#c)"><g clip-rule="evenodd" fill-rule="evenodd"><path d="m3 8.38494s2.40028-1.06367 5-.99876c2.5997.06491 5 1.24844 5 1.24844v1.36538h-10z" fill="#279e19"/><path d="m5.71993 3.50928c-.027.03201-.02806.07651-.00571.11192.16028.25397.86566 1.25681 2.01045 1.25681 1.10235 0 1.92348-.92986 2.15673-1.22557.03862-.04895.02711-.11793-.02614-.15037-.16994-.10356-.5534-.30212-.995-.30212-.59738 0-1.13559.25515-1.13559.25515s-.80076-.25515-1.31077-.25515c-.38598 0-.60854.20811-.69397.30933z" fill="#026a16"/><path d="m7.89464 7.40706-.89611-.56674c-.52358.24226-.78536.72199-.78536 1.43917l.69395 1.13932h1.41732.69934l.5009-1.13932s.19507-1.47321-.5009-1.71089z" fill="#c51918"/><path d="m5.93405 5.81604s-1.35264.46959-1.35264 2.20191l1.80416.35682s-.02114-.99251.51815-1.45807z" fill="#0a328c"/></g><g fill="#ffd018"><path d="m5.26796 5.26384.21534-.21758 2.51669 2.4771-.21534.21758z"/><path d="m4.48126 5.84548.17697-.25234 3.23637 2.46279-.17697.25234z"/><path d="m3.9431 6.81096.13906-.2769 3.67688 2.0036-.13906.2769z"/></g><path clip-rule="evenodd" d="m4.59074 8.00439 2.42053.31715-.13627.39587h-.38375l.26136.22367.58936.16163v-.3853h.51616v.81859h-1.10552l-.42402-.59492s-.35612.41138-.70367.41138c-.34756 0-.69021-.13361-.69021-.58226 0-.44866 0-.31214 0-.31214l-.34397-.13652z" fill="#feca00" fill-rule="evenodd"/><path clip-rule="evenodd" d="m9.80822 5.72278s1.58618.56291 1.58618 2.29523l-1.82021.35638s-.08276-1.28095-.64452-1.7465z" fill="#0a328c" fill-rule="evenodd"/><path d="m10.6792 5.26384-.2243-.21758-2.71155 2.27649.22431.21757z" fill="#ffd018"/><path d="m11.4987 5.84548-.1843-.25234-3.37126 2.46279v.46168z" fill="#ffd018"/><path d="m12.0583 6.81145-.1429-.27788-4.05837 1.97175.14297.27788z" fill="#ffd018"/><path clip-rule="evenodd" d="m11.3847 8.00439-2.52142.31715.14195.39587h.39974l-.27225.22367-.61392.16163v-.3853h-.53766v.81859h1.15158l.44168-.59492s.37096.41138.733.41138c.362 0 .719-.13361.719-.58226 0-.44866 0-.31214 0-.31214l.3583-.13652z" fill="#feca00" fill-rule="evenodd"/><path clip-rule="evenodd" d="m7.69151 4.67871s-.1634 1.20367-.1634 1.69354.1634 3.09381.1634 3.09381h.42025s0-2.68486 0-3.09381-.24659-1.69354-.24659-1.69354z" fill="#feca00" fill-rule="evenodd"/></g></g></g></svg>