<svg fill="none" height="15" viewBox="0 0 20 15" width="20" xmlns="http://www.w3.org/2000/svg" xmlns:xlink="http://www.w3.org/1999/xlink"><mask id="a" height="15" maskUnits="userSpaceOnUse" width="20" x="0" y="0"><path d="m0 0h20v15h-20z" fill="#fff"/></mask><g clip-rule="evenodd" fill-rule="evenodd" mask="url(#a)"><path d="m0 0h20v15h-20z" fill="#5eaa22"/><path d="m0 0 20 15h-20z" fill="#4141db"/><g fill="#fff"><path d="m3.75 5.625-.625.45753.08373-.77003-.70873-.3125.70873-.3125-.08373-.77003.625.45753.625-.45753-.08373.77003.70873.3125-.70873.3125.08373.77003z"/><path d="m2.5 9.375-.625.45753.08373-.77003-.70873-.3125.70873-.3125-.08373-.77003.625.45753.625-.45753-.08373.77003.70873.3125-.70873.3125.08373.77003z"/><path d="m5 13.125-.625.4575.08373-.77-.70873-.3125.70873-.3125-.08373-.77.625.4575.625-.4575-.08373.77.70873.3125-.70873.3125.08373.77z"/><path d="m5.625 7.1875-.3125.22877.04187-.38502-.35437-.15625.35437-.15625-.04187-.38502.3125.22877.3125-.22877-.04187.38502.35437.15625-.35437.15625.04187.38502z"/></g><path d="m13.4757 7.63992c-.2337-.24373 1.8689-.81642 2.0868-1.55488.2888-.64293.0959-1.1639-.9955-1.62143-1.0913-.45753-2.1943-1.34221-.926-1.34221s1.2683.18084 1.609.71427c.3407.53344 1.0772.64771 1.0928 0 0-1.10362.1041-1.25205-.7868-2.21153-.8909-.959484 2.2341.39402 1.9758 2.03889s-.5693 1.1141-.3719 1.39022 1.3852-.58101 1.2369.56075c-.4155.65666-1.2397 1.63369-4.9211 2.02592z" fill="#feca00"/><path d="m10 10.625c1.7259 0 3.125-1.39911 3.125-3.125s-1.3991-3.125-3.125-3.125c-1.72589 0-3.125 1.39911-3.125 3.125s1.39911 3.125 3.125 3.125z" fill="#feca00"/><path d="m8.0956 6.35129c.35447-.07903.83917.87016 1.714.51415.8748-.356 1.0575-1.03567 1.4732-.78692.4156.24876.4702.84768.1933 1.14871s-.7468.37223-.7468.75271c0 .38047-.0921 1.73727-.2717 1.34406-.53846-.43691-.2099-1.13281-.87321-1.34406-.66329-.21126-1.06614-.20418-1.55543-.11503-.48929.08914.32871-.24489.50219-.56202.35322-.33981-.59763-.83861-.43555-.9516z" fill="#548650"/></g></svg>