<svg fill="none" height="15" viewBox="0 0 20 15" width="20" xmlns="http://www.w3.org/2000/svg" xmlns:xlink="http://www.w3.org/1999/xlink"><filter id="a" color-interpolation-filters="sRGB" filterUnits="userSpaceOnUse" height="10.292" width="15.1998" x="2.38055" y="2.31506"><feFlood flood-opacity="0" result="BackgroundImageFix"/><feColorMatrix in="SourceAlpha" type="matrix" values="0 0 0 0 0 0 0 0 0 0 0 0 0 0 0 0 0 0 127 0"/><feOffset/><feColorMatrix type="matrix" values="0 0 0 0 0.0313726 0 0 0 0 0.368627 0 0 0 0 0 0 0 0 0.28 0"/><feBlend in2="BackgroundImageFix" mode="normal" result="effect1_dropShadow"/><feBlend in="SourceGraphic" in2="effect1_dropShadow" mode="normal" result="shape"/></filter><linearGradient id="b" gradientUnits="userSpaceOnUse" x1="20" x2="20" y1="15" y2="0"><stop offset="0" stop-color="#ffc600"/><stop offset="1" stop-color="#ffde42"/></linearGradient><mask id="c" height="15" maskUnits="userSpaceOnUse" width="20" x="0" y="0"><path d="m0 0h20v15h-20z" fill="#fff"/></mask><mask id="d" height="15" maskUnits="userSpaceOnUse" width="20" x="0" y="0"><path clip-rule="evenodd" d="m0 0v15h20v-15z" fill="#fff" fill-rule="evenodd"/></mask><mask id="e" height="7" maskUnits="userSpaceOnUse" width="8" x="6" y="4"><path clip-rule="evenodd" d="m10 10.75c1.7259 0 3.125-1.39911 3.125-3.125s-1.3991-3.125-3.125-3.125c-1.72589 0-3.125 1.39911-3.125 3.125s1.39911 3.125 3.125 3.125z" fill="#fff" fill-rule="evenodd"/></mask><g mask="url(#c)"><path clip-rule="evenodd" d="m0 0v15h20v-15z" fill="#093" fill-rule="evenodd"/><g mask="url(#d)"><g clip-rule="evenodd" fill-rule="evenodd" filter="url(#a)"><path d="m9.95424 2.31503 7.62616 5.31466-7.7299 4.97731-7.46992-5.08033z" fill="#ffd221"/><path d="m9.95424 2.31503 7.62616 5.31466-7.7299 4.97731-7.46992-5.08033z" fill="url(#b)"/></g><path clip-rule="evenodd" d="m10 10.75c1.7259 0 3.125-1.39911 3.125-3.125s-1.3991-3.125-3.125-3.125c-1.72589 0-3.125 1.39911-3.125 3.125s1.39911 3.125 3.125 3.125z" fill="#2e42a5" fill-rule="evenodd"/><g fill="#f7fcff" mask="url(#e)"><g clip-rule="evenodd" fill-rule="evenodd"><path d="m8.9875 9.10625-.1396.07339.02666-.15544-.11294-.11009.15608-.02268.0698-.14143.0698.14143.15608.02268-.11294.11009.02666.15544z"/><path d="m10.2375 9.10625-.1396.07339.0267-.15544-.113-.11009.1561-.02268.0698-.14143.0698.14143.1561.02268-.113.11009.0267.15544z"/><path d="m10.2375 9.85625-.1396.07339.0267-.15544-.113-.11009.1561-.02268.0698-.14143.0698.14143.1561.02268-.113.11009.0267.15544z"/><path d="m9.6125 7.23125-.1396.07339.02666-.15544-.11294-.11009.15608-.02268.0698-.14143.0698.14143.15608.02268-.11294.11009.02666.15544z"/><path d="m9.6125 8.48125-.1396.07339.02666-.15544-.11294-.11009.15608-.02268.0698-.14143.0698.14143.15608.02268-.11294.11009.02666.15544z"/><path d="m8.7375 7.85625-.1396.07339.02666-.15544-.11294-.11009.15608-.02268.0698-.14143.0698.14143.15608.02268-.11294.11009.02666.15544z"/><path d="m7.8625 8.35625-.1396.07339.02666-.15544-.11294-.11009.15608-.02268.0698-.14143.0698.14143.15608.02268-.11294.11009.02666.15544z"/><path d="m10.7375 6.23125-.1396.07339.0267-.15544-.113-.11009.1561-.02268.0698-.14143.0698.14143.1561.02268-.113.11009.0267.15544z"/></g><path d="m6.203 6.87317.09399-1.24646c2.99871.22612 5.36551 1.2121 7.07061 2.96599l-.8962.87133c-1.4779-1.52014-3.55741-2.38644-6.2684-2.59086z"/></g></g></g></svg>