<svg fill="none" height="15" viewBox="0 0 20 15" width="20" xmlns="http://www.w3.org/2000/svg" xmlns:xlink="http://www.w3.org/1999/xlink"><mask id="a" height="15" maskUnits="userSpaceOnUse" width="20" x="0" y="0"><path d="m0 0h20v15h-20z" fill="#fff"/></mask><mask id="b" height="15" maskUnits="userSpaceOnUse" width="20" x="0" y="0"><path clip-rule="evenodd" d="m0 0v15h20v-15z" fill="#fff" fill-rule="evenodd"/></mask><mask id="c" height="4" maskUnits="userSpaceOnUse" width="4" x="8" y="5"><path clip-rule="evenodd" d="m9.98424 5.59363-1.71056 2.95673h3.44792z" fill="#fff" fill-rule="evenodd"/></mask><g mask="url(#a)"><path clip-rule="evenodd" d="m0 0v15h20v-15z" fill="#f7fcff" fill-rule="evenodd"/><g mask="url(#b)"><g clip-rule="evenodd" fill-rule="evenodd"><path d="m0 0v5h20v-5z" fill="#0080ec"/><path d="m0 10v5h20v-5z" fill="#0080ec"/><path d="m10 5c.1178 0 .2337.00815.3471.0239l-.1238.79751c-.0731-.00962-.1476-.01459-.2233-.01459-.11009 0-.21772.0105-.32195.03057l-.05786-.80872c.12385-.01888.25069-.02867.37981-.02867zm.7201.10526-.2173.77747c.6896.21417 1.1904.85724 1.1904 1.61727 0 .01868-.0003.03729-.0009.05583l.8047.06822c.002-.0411.003-.08246.003-.12405 0-1.13039-.7502-2.08556-1.7799-2.39474zm1.4758 3.59072c-.3962.72586-1.1418 1.23364-2.0107 1.29726v-.81007c.4629-.05036.8698-.28731 1.1439-.63407zm-4.3354.09799c.41498.68468 1.14935 1.15423 1.99648 1.20201v-.80875c-.49371-.04129-.9272-.29442-1.20931-.66821zm-.35824-1.18678c-.0015-.03554-.00226-.07128-.00226-.10719 0-1.06152.6616-1.96852 1.59494-2.33114l.20867.78734c-.58432.26399-.99199.84999-.99675 1.53173z" fill="#d0ab00"/><path d="m9.98424 5.59363-1.71056 2.95673h3.44792z" fill="#7cdfff"/></g><g mask="url(#c)"><g stroke-width=".625"><path d="m9.99999 9.44896c.82531 0 1.49431-.66903 1.49431-1.49431 0-.82529-.669-1.49432-1.49431-1.49432-.82528 0-1.49431.66903-1.49431 1.49432 0 .82528.66903 1.49431 1.49431 1.49431z" stroke="#e31d1c"/><path d="m9.99999 9.44896c.82531 0 1.49431-.66903 1.49431-1.49431 0-.82529-.669-1.49432-1.49431-1.49432-.82528 0-1.49431.66903-1.49431 1.49432 0 .82528.66903 1.49431 1.49431 1.49431z" stroke="#ffd018"/><path d="m9.99999 9.44896c.82531 0 1.49431-.66903 1.49431-1.49431 0-.82529-.669-1.49432-1.49431-1.49432-.82528 0-1.49431.66903-1.49431 1.49432 0 .82528.66903 1.49431 1.49431 1.49431z" stroke="#4edd00"/><path d="m9.99999 9.44896c.82531 0 1.49431-.66903 1.49431-1.49431 0-.82529-.669-1.49432-1.49431-1.49432-.82528 0-1.49431.66903-1.49431 1.49432 0 .82528.66903 1.49431 1.49431 1.49431z" stroke="#3d58db"/></g><path d="m8.13635 7.63635h3.90909v1.13636h-3.90909z" fill="#3d58db"/><path clip-rule="evenodd" d="m8.39807 8.11934.77912-.77478.23911.38739.16704-.47243.18551.35412.19486-.26908.25209.26908.2312-.35412.1976.35412.2267-.26908.5297.56293.0953.21185-3.09823.15716z" fill="#97c923" fill-rule="evenodd"/></g></g></g></svg>