<svg fill="none" height="15" viewBox="0 0 20 15" width="20" xmlns="http://www.w3.org/2000/svg" xmlns:xlink="http://www.w3.org/1999/xlink"><mask id="a" height="15" maskUnits="userSpaceOnUse" width="20" x="0" y="0"><path d="m0 0h20v15h-20z" fill="#fff"/></mask><g mask="url(#a)"><g clip-rule="evenodd" fill-rule="evenodd"><path d="m0 0h21.25v15h-21.25z" fill="#2993ec"/><path d="m3.88293 7.23958c0 3.30792 2.73869 5.98962 6.11703 5.98962s6.11704-2.6817 6.11704-5.98962c0-3.30795-2.7387-5.98958-6.11704-5.98958s-6.11703 2.68163-6.11703 5.98958zm10.90427 0c0 2.58884-2.1433 4.68752-4.78724 4.68752-2.64392 0-4.78724-2.09868-4.78724-4.68752 0-2.58883 2.14332-4.6875 4.78724-4.6875 2.64394 0 4.78724 2.09867 4.78724 4.6875z" fill="#f1f9ff"/><path d="m4.41486 7.23962c0 3.02028 2.50053 5.46878 5.5851 5.46878 3.08454 0 5.58514-2.4485 5.58514-5.46878 0-3.0203-2.5006-5.46875-5.58514-5.46875-3.08457 0-5.5851 2.44845-5.5851 5.46875zm10.90424 0c0 2.87648-2.3815 5.20838-5.31914 5.20838-2.93768 0-5.31915-2.3319-5.31915-5.20838s2.38147-5.20833 5.31915-5.20833c2.93764 0 5.31914 2.33185 5.31914 5.20833z" fill="#e31d1c"/><path d="m9.99998 1.38025c-.06742.13917-.10113.33693-.10113.59329s-.09927.51298-.2978.76985c-.03688-.28281-.05532-.53943-.05532-.76985s.15142-.42818.45425-.59329zm1.39762.21164c-.097.12044-.1743.30555-.232.55533-.0576.24979-.2121.4775-.4633.68313.0277-.28386.0674-.53804.1193-.76256.0518-.22451.2438-.38315.576-.4759zm.9605 1.01307c.1164-.22841.2362-.38932.3595-.48271-.3448.00963-.5695.1171-.6741.3224-.1046.20531-.2047.44233-.3002.71106.2935-.13875.4984-.32233.6148-.55075zm1.5114.32258c-.1411.06327-.2941.1931-.4589.38948-.1647.19638-.4057.32915-.7229.39832.1535-.24035.3043-.44879.4524-.6253s.3913-.23068.7294-.1625zm.398 1.32006c.2047-.15428.3829-.24637.5346-.27628-.3141-.14249-.5631-.1444-.7472-.00573-.184.13867-.3778.30783-.5815.50748.3246.00397.5893-.07119.7941-.22547zm1.1991.96259c-.1545-.00768-.3497.03856-.5857.13873-.2359.10016-.5109.10906-.825.02667.246-.14444.475-.26168.6871-.35172.2121-.09003.4533-.02792.7236.18632zm-.2463 1.34666c.2524-.04451.453-.04566.6018-.00342-.2152-.26957-.4362-.38434-.6632-.34433-.2269.04001-.4764.10273-.7485.18816.2874.15091.5574.20411.8099.15959zm-11.41781-.45077c.12535.09056.31426.1581.56672.20262s.48794.18684.70644.42696c-.28492-.01279-.54084-.0392-.76776-.07921s-.39539-.22347-.5054-.55037zm.96074-.98911c-.23598-.10017-.40485-.20847-.50662-.32491.03366.34327.15654.55992.36864.64995.21211.09003.45553.17333.73027.24989-.15889-.28312-.35632-.47476-.59229-.57493zm.25372-1.50843c.07057.1376.20823.28354.41296.43782.20474.15428.34994.38799.43561.70114-.24806-.14075-.4641-.28046-.64812-.41913s-.25084-.37861-.20045-.71983zm1.31116-.45349c-.16478-.19638-.26608-.36955-.30389-.5195-.12585.32114-.11472.56997.03339.74648s.32718.36124.53722.55418c-.01303-.32439-.10194-.58478-.26672-.78116zm.90477-1.23903c.00311.15461.06286.34613.17924.57455.11639.22841.14444.50213.08416.82114-.16125-.23525-.29418-.45553-.39878-.66083-.10461-.20531-.05948-.45026.13538-.73486zm1.39273.17452c-.05767-.24979-.06931-.45007-.03492-.60084-.25793.229-.36098.45576-.30915.68027.05183.22452.12753.47041.22707.73768.13567-.29495.17466-.56732.117-.81711z" fill="#fdda33"/><path d="m9.11633 3.59375c-.22922 0-.39974.21188-.35074.4358l.24179 1.10483c.02124.09707.0806.17771.16027.22761-.07348.05713-.12447.14243-.13621.24103l-.86723 7.27848c-.01591.1335.04383.2644.16058.3311.3264.1866 1.03405.5374 1.74171.5374.7076 0 1.4153-.3508 1.7417-.5374.1167-.0667.1765-.1976.1606-.3311l-.8672-7.27848c-.0118-.0986-.0628-.1839-.1363-.24103.0797-.0499.1391-.13054.1603-.22761l.2418-1.10483c.049-.22392-.1215-.4358-.3507-.4358z" fill="#a7a7a7"/></g><path d="m4.07452 7.50797c.03224-.10315.14376-.16118.2491-.12962.10535.03156.16461.14077.13238.24392-.05577.17846-.05577.44205.00575.78692.0236.13228.05166.23442.08617.32464.01374.03595.02796.06884.04695.10967-.00845-.01818.03791.08029.04918.10581.05962.13494.08598.25319.08598.42644 0 .10786-.0893.19531-.19946.19531-.11017 0-.19947-.08745-.19947-.19531 0-.1184-.01466-.18413-.05319-.27134-.00908-.02055-.05238-.11253-.04607-.09897-.02251-.04838-.04014-.08917-.05752-.13462-.0433-.1132-.07777-.23869-.10555-.39441-.07138-.4001-.07138-.72162.00575-.96844z" fill="#73be4a"/><path clip-rule="evenodd" d="m10.1329 10.112-2.57153 1.7522.90722-2.93621-2.49653-1.8533 3.13225-.0625 1.02859-2.89757 1.0287 2.89757 3.1322.0625-2.4965 1.8533.9072 2.93621z" fill="#f7fcff" fill-rule="evenodd"/><path d="m15.9747 7.76846c-.0323-.10314-.1438-.16117-.2491-.12961-.1054.03156-.1646.14077-.1324.24391.0558.17847.0558.44206-.0058.78693-.0236.13228-.0516.23441-.0861.32464-.0138.03594-.028.06884-.047.10967.0085-.01818-.0379.08029-.0492.10581-.0596.13493-.0859.25319-.0859.42643 0 .10787.0893.19532.1994.19532.1102 0 .1995-.08745.1995-.19532 0-.11839.0147-.18412.0532-.27133.0091-.02055.0524-.11253.0461-.09897.0225-.04838.0401-.08918.0575-.13462.0433-.11321.0777-.23869.1055-.39441.0714-.4001.0714-.72163-.0057-.96845z" fill="#73be4a"/><path d="m10.038 1.96729s.7278.3242.4135.83468" stroke="#73be4a" stroke-linecap="round" stroke-linejoin="round" stroke-width=".625"/><path d="m10.5699 1.96729s.7278.3242.4135.83468" stroke="#73be4a" stroke-linecap="round" stroke-linejoin="round" stroke-width=".625"/><g fill="#73be4a"><path d="m5.78736 3.97299c.05276-.09132.16358-.11882.24752-.06142.08395.0574.10922.17797.05646.2693-.10123.17522-.15393.41562-.15393.72387 0 .10787-.08037.19531-.17952.19531s-.17952-.08744-.17952-.19531c0-.37672.06827-.68819.20899-.93175z"/><path d="m5.50528 5.75786c0 .10787-.08037.19531-.17952.19531s-.17952-.08744-.17952-.19531v-.55635c0-.39367.06175-.70369.19195-.93008.05259-.09145.16336-.11919.24741-.06198.08405.05722.10955.17773.05696.26918-.08928.15524-.13728.39621-.13728.72288z"/><path d="m14.6776 5.49736c0 .10787.0804.19532.1795.19532s.1795-.08745.1795-.19532v-.55635c0-.39367-.0617-.70369-.1919-.93008-.0526-.09144-.1634-.11919-.2474-.06197-.0841.05721-.1096.17773-.057.26917.0893.15525.1373.39621.1373.72288z"/><path d="m15.2095 6.40886c0 .10787.0804.19531.1795.19531.0992 0 .1795-.08744.1795-.19531v-.55635c0-.39367-.0617-.70369-.1919-.93008-.0526-.09145-.1634-.11919-.2474-.06197-.0841.05721-.1096.17772-.057.26917.0893.15524.1373.39621.1373.72288z"/></g></g></svg>