<svg fill="none" height="24" viewBox="0 0 32 24" width="32" xmlns="http://www.w3.org/2000/svg" xmlns:xlink="http://www.w3.org/1999/xlink"><mask id="a" height="24" maskUnits="userSpaceOnUse" width="32" x="0" y="0"><path d="m0 0h32v24h-32z" fill="#fff"/></mask><mask id="b" height="24" maskUnits="userSpaceOnUse" width="32" x="0" y="0"><path clip-rule="evenodd" d="m0 0v24h32v-24z" fill="#fff" fill-rule="evenodd"/></mask><g clip-rule="evenodd" fill-rule="evenodd" mask="url(#a)"><path d="m0 0v24h32v-24z" fill="#e31d1c"/><g mask="url(#b)"><path d="m16 20c4.4183 0 8-3.5817 8-8 0-4.41828-3.5817-8-8-8s-8 3.58172-8 8c0 4.4183 3.5817 8 8 8z" fill="#f7fcff"/><path d="m17.4028 17.6507s-4.2164-1.1504-4.2164-5.6773c0-4.52703 4.2164-5.77596 4.2164-5.77596-1.7435-.6748-6.8459.36058-6.8459 5.77596 0 5.4153 5.2447 6.3906 6.8459 5.6773zm-.2322-6.6624-2.0918.7643 2.2483.7859.0757 2.1049 1.3682-1.6353 2.2561.1602-1.6255-1.3262.979-1.91508-1.9123.64368-1.3248-1.65595z" fill="#e31d1c"/></g></g></svg>