<svg fill="none" height="15" viewBox="0 0 20 15" width="20" xmlns="http://www.w3.org/2000/svg" xmlns:xlink="http://www.w3.org/1999/xlink"><filter id="a" color-interpolation-filters="sRGB" filterUnits="userSpaceOnUse" height="15.5512" width="20.4288" x="-.742859" y="-.781616"><feFlood flood-opacity="0" result="BackgroundImageFix"/><feColorMatrix in="SourceAlpha" type="matrix" values="0 0 0 0 0 0 0 0 0 0 0 0 0 0 0 0 0 0 127 0"/><feOffset/><feGaussianBlur stdDeviation="1.5"/><feColorMatrix type="matrix" values="0 0 0 0 0.866667 0 0 0 0 0.184314 0 0 0 0 0 0 0 0 0.38 0"/><feBlend in2="BackgroundImageFix" mode="normal" result="effect1_dropShadow"/><feBlend in="SourceGraphic" in2="effect1_dropShadow" mode="normal" result="shape"/></filter><mask id="b" height="15" maskUnits="userSpaceOnUse" width="20" x="0" y="0"><path d="m0 0h20v15h-20z" fill="#fff"/></mask><g mask="url(#b)"><path clip-rule="evenodd" d="m0 0h20v15h-20z" fill="#ff6230" fill-rule="evenodd"/><path clip-rule="evenodd" d="m0 0v15l20-15z" fill="#feca00" fill-rule="evenodd"/><g filter="url(#a)"><path clip-rule="evenodd" d="m2.73889 10.2055s-.93949.856-.19457.901c.74484.0452.60519.4992 1.21455.0027.60936-.4967.01828.0789.83104-.0339.81249-.113 1.21871-1.10432 1.64777-1.0366.42866.0677.18037-.0903.54153.3385.36124.429.99578-.48164.65713.1504-.33838.632-.47387 1.2639.02279 1.2414.49648-.0225.69961-.316.92529-.632.22575-.316 1.98648.7675 1.17399-.316-.81275-1.0835-1.12798.1188-1.19563-.4455-.06767-.5643-.22912-.85776.15473-.58688.38343.27078 1.28653.20316.58659-.47408-.69964-.67711-.60223-.85763-.80571-.67711-.20306.18054-.69969-.67714 0-.78997.69972-.11293 1.50565.27075 1.77641.4739.271.20324 1.1062-.04508 1.2867.36106.1806.40645.79.47414.948.72248.1582.24837.0452 1.4672 1.3318 1.3995 1.2866-.0678 1.6928-.7224 1.1513-1.24154-.5419-.51913-.4966-1.46722-1.061-1.0157-.5643.45135-1.3769.38364-1.3769-.15805 0-.54165.2483-.63197.2031-1.06088-.0452-.42896-.0901-.24833.7451-.2258.835.02261.5415 0 1.1509-.29333.6096-.29346 1.0158.99313 1.2642.04504.2483-.9479-.0902-1.91861-.7674-1.53487-.6773.38372-.6546 1.33177-1.5125.58697-.8576-.74504-1.2639-.36131-.9931-.7676.2707-.40621-.0677-.69967.5417-.42891.6094.27104.429.3612.948.42891.5191.0677 3.273.4063 2.6637-.15787-.6095-.56437-1.1946-.47234-1.2849-.83359-.0904-.36108.2813-.27081.823-.47391.5418-.2032.316-1.2416-.2033-1.0384-.5191.20324-.4747 1.10611-1.5356.5417-1.2173.52951-1.0289.2638-1.6486-.63363-.542-.42902-.8354-.45144-1.7607.04499-.7304.30136-1.34156.85778-.9578 1.60281.3839.74479 1.2979 2.14775.8014 2.23802-.4967.09025-2.27984-1.24152-3.31819-.54161-1.03842.69957-1.60521 1.38048-1.94359 2.19302-.33863.8127-1.4343 1.28588-1.70526 1.28588-.2708 0-.65218.47833-1.12597.83945z" fill="#fff" fill-rule="evenodd"/></g></g></svg>