<svg fill="none" height="12" viewBox="0 0 16 12" width="16" xmlns="http://www.w3.org/2000/svg" xmlns:xlink="http://www.w3.org/1999/xlink"><mask id="a" height="12" maskUnits="userSpaceOnUse" width="16" x="0" y="0"><path d="m0 0h16v12h-16z" fill="#fff"/></mask><mask id="b" height="12" maskUnits="userSpaceOnUse" width="16" x="0" y="0"><path clip-rule="evenodd" d="m0 0v12h16v-12z" fill="#fff" fill-rule="evenodd"/></mask><g mask="url(#a)"><path clip-rule="evenodd" d="m0 0v12h16v-12z" fill="#f7fcff" fill-rule="evenodd"/><g mask="url(#b)"><g clip-rule="evenodd" fill-rule="evenodd"><path d="m0 0v4h16v-4z" fill="#bf2714"/><path d="m0 8v4h16v-4z" fill="#272727"/><path d="m2.66831 6.4056c.4548.6527-.16831 1.0944-.16831 1.0944s.54475 0 .75337-.43718h4.45869v-.96291s-.09326-.46242-.49028-.46242-.48648.46242-.48648.46242h-1.56824l1.51735-1.33948-.29502-.26043-1.68538 1.48781v.31545h2.39255v-.1857s.01343-.1075.12522-.1075c.11178 0 .08457.1075.08457.1075v.39663h-3.01504v-.54235l-.32647.14572v.39663s-.39983-.10859-.65251-.10859-.26758-.28804-.26758-.28804zm6.05498.03705.24451.60888h-.97298v-2.44434l.41042.13138v1.70408zm4.53221 0 .2445.60888h-.973v-2.44434l.4104.13138v1.70408zm-1.2048-1.81017-.2535.17159v1.6369h-.2582v-1.31283l-.4254.24526v1.06757h-.2855v-.74122l-.3234.20813v.20122s-.62203.04289-.62203.92232h2.16553zm-8.30481 2.85034c.07822 0 .14163-.05597.14163-.12502s-.06341-.12503-.14163-.12503-.14163.05598-.14163.12503.06341.12502.14163.12502zm7.21141-2.66199c-.11.14496-.4437 0-.4437 0l.9463-.10963c-.0978.19079-.5026.10963-.5026.10963z" fill="#009c4e"/></g><path d="m2.5 7.5-.14458-.20396-.6404.45396h.78498zm.16831-1.0944-.15192-.19854-.18988.1453.13669.19617zm.58506.65722v-.25h-.1577l-.06792.14233zm4.45869 0v.25h.25v-.25zm0-.96291h.25v-.02496l-.00494-.02447zm-.97676 0v.25h.20627l.03918-.20252zm-1.56824 0-.16545-.18742-.49551.43742h.66096zm1.51735-1.33948.16545.18742.21231-.18742-.21231-.18742zm-.29502-.26043.16545-.18742-.16545-.14605-.16545.14605zm-1.68538 1.48781-.16545-.18742-.08455.07463v.11279zm0 .31545h-.25v.25h.25zm2.39255 0v.25h.25v-.25zm0-.1857-.24807-.03101-.00193.01545v.01556zm.20979 0-.24235-.06135-.00765.0302v.03115zm0 .39663v.25h.25v-.25zm-3.01504 0h-.25v.25h.25zm0-.54235h.25v-.38535l-.3519.15706zm-.32647.14572-.10189-.2283-.14811.06611v.16219zm0 .39663-.06552.24126.31552.08569v-.32695zm-.92009-.39663.24966-.01292-.02454-.47414-.37705.28851zm5.92305.93397v.25h.3698l-.1378-.34316zm-.24451-.60888.23199-.09316-.06298-.15684h-.16901zm-.72847.60888h-.25v.25h.25zm0-2.44434.07622-.2381-.32622-.10443v.34253zm.41042.13138h.25v-.18247l-.17379-.05563zm0 1.70408h-.25v.25h.25zm5.09476.60888v.25h.3698l-.1378-.34316zm-.2445-.60888.232-.09316-.063-.15684h-.169zm-.7285.60888h-.25v.25h.25zm0-2.44434.0762-.2381-.3262-.10443v.34253zm.4104.13138h.25v-.18247l-.1738-.05563zm0 1.70408h-.25v.25h.25zm-1.1402-1.63858-.1401-.20703-.1099.07437v.13266zm.2535-.17159.25.00026.0005-.47169-.3906.2644zm-.2535 1.80849v.25h.25v-.25zm-.2582 0h-.25v.25h.25zm0-1.31283h.25v-.4327l-.3749.21612zm-.4254.24526-.1249-.21658-.1251.07214v.14444zm0 1.06757v.25h.25v-.25zm-.2855 0h-.25v.25h.25zm0-.74122h.25v-.4582l-.3853.24798zm-.3234.20813-.1353-.21022-.1147.07382v.1364zm0 .20122.0172.24941.2328-.01605v-.23336zm-.62203.92232h-.25v.25h.25zm2.16553 0v.25h.2498l.0002-.24974zm-1.5346-2.21059-.0288-.24834-.92402.10705.85322.37059zm.4437 0 .0491-.24512-.1536-.0308-.0947.12484zm.5026-.10963.2225.11397.2131-.41612-.4644.05381zm-8.9599 2.7888c.14458.20396.14468.20388.14479.2038.00004-.00003.00015-.0001.00023-.00016.00016-.00011.00033-.00023.0005-.00036.00036-.00025.00075-.00054.00119-.00085.00086-.00062.00188-.00136.00304-.00222.00233-.00171.00525-.00388.0087-.00651.00689-.00526.01596-.01237.02674-.02128.02149-.01777.05019-.04302.08235-.07537.06353-.06389.14493-.15986.2094-.28499.06507-.12628.11442-.28556.10673-.47049-.00775-.18623-.07268-.38148-.21024-.57889l-.41023.28585c.08984.12893.11757.23366.1209.31382.00339.08146-.01777.15498-.05163.22071-.03446.06688-.0804.12214-.1195.16146-.01915.01926-.03558.03362-.04638.04255-.00537.00444-.00926.00746-.01127.00899-.001.00077-.00153.00115-.00153.00115s.00013-.00009.0004-.00029c.00014-.00009.00031-.00022.00051-.00036.0001-.00008.00022-.00015.00034-.00024.00006-.00004.00015-.00011.00018-.00013.0001-.00007.0002-.00015.14478.20381zm.52775-.54485c-.06487.13594-.18397.21114-.30909.25328-.06168.02077-.11934.0314-.16147.03669-.0208.00262-.0371.00385-.0473.00441-.00509.00029-.00859.0004-.01032.00045-.00087.00002-.00128.00003-.00122.00003.00003 0 .00018 0 .00046-.00001h.0005.00032.00018c.00009 0 .00019 0 .00019.25s.0001.25.0002.25h.00022.00047c.00033 0 .00069 0 .00109-.00001.0008 0 .00174-.00001.0028-.00002.00214-.00003.00481-.00008.00799-.00016.00635-.00017.01475-.00048.02497-.00105.0204-.00114.0483-.00333.08182-.00754.06653-.00837.1581-.02507.25868-.05894.19941-.06716.457-.21055.60076-.51179zm4.68431-.14233h-4.45869v.5h4.45869zm-.25-.71291v.96291h.5v-.96291zm-.24028-.21242c.08214 0 .13634.04131.18259.11461.02338.03707.03991.07614.05056.10704.00519.01503.00861.02705.01057.03448.00097.00369.00155.00616.00179.0072.00012.00051.00015.00067.0001.00043-.00003-.00012-.00007-.00034-.00014-.00066-.00003-.00016-.00007-.00034-.00012-.00055-.00002-.00011-.00004-.00022-.00006-.00034-.00002-.00006-.00003-.00015-.00004-.00018-.00002-.00009-.00004-.00019.24503-.04961.24506-.04943.24504-.04953.24502-.04963-.00001-.00004-.00003-.00014-.00004-.00021-.00003-.00015-.00006-.0003-.0001-.00047-.00006-.00032-.00014-.00067-.00021-.00105-.00016-.00077-.00035-.00165-.00056-.00264-.00043-.00199-.00097-.00443-.00163-.0073-.00132-.00574-.00313-.0132-.00549-.02216-.00469-.01786-.01166-.04196-.02142-.07028-.01924-.0558-.05084-.13233-.1004-.21088-.09963-.15789-.29057-.3478-.60545-.3478zm-.48648.21242c.24545.04748.24543.04758.24541.04767-.00001.00003-.00002.00013-.00003.00019-.00003.00012-.00005.00023-.00007.00033-.00004.00022-.00008.0004-.00011.00056-.00007.00032-.00011.00054-.00014.00067-.00005.00024-.00002.00009.00009-.00042.00023-.00103.00079-.00348.00173-.00715.00188-.0074.0052-.01938.01024-.03436.01037-.03082.02651-.06971.04945-.10654.04521-.0726.09823-.11337.17991-.11337v-.5c-.31535 0-.50556.19044-.60434.34905-.04905.07877-.08009.15549-.0989.21137-.00955.02837-.01632.05251-.02088.0704-.00229.00898-.00404.01646-.00531.0222-.00064.00288-.00116.00533-.00158.00732-.0002.001-.00038.00188-.00054.00265-.00007.00038-.00014.00073-.00021.00106-.00003.00016-.00006.00032-.00009.00046-.00001.00008-.00003.00018-.00004.00022-.00002.0001-.00004.0002.24541.04769zm-1.56824.25h1.56824v-.5h-1.56824zm1.3519-1.7769-1.51735 1.33948.3309.37484 1.51735-1.33948zm-.29502.11441.29502.26043.3309-.37484-.29502-.26043zm-1.35448 1.48781 1.68538-1.48781-.3309-.37484-1.68538 1.48781zm.08455.12803v-.31545h-.5v.31545zm2.14255-.25h-2.39255v.5h2.39255zm-.25.0643v.1857h.5v-.1857zm.37522-.3575c-.15428 0-.25906.08208-.31463.16825-.02476.0384-.03855.07497-.04631.10099-.00401.01343-.00677.02526-.00866.03479-.00096.00479-.00172.0091-.00232.01285-.00029.00188-.00056.00362-.00078.00522-.00012.0008-.00022.00157-.00032.0023-.00005.00037-.0001.00073-.00014.00108-.00002.00017-.00004.00034-.00007.00051-.00001.00009-.00002.00021-.00003.00026-.00001.00012-.00003.00024.24804.03125.24807.031.24806.03112.24804.03125-.00001.00004-.00002.00016-.00003.00024-.00002.00017-.00004.00033-.00006.00049-.00005.00032-.00009.00064-.00013.00095-.00008.00063-.00017.00125-.00025.00184-.00017.0012-.00034.00234-.00052.00343-.00034.00217-.0007.00417-.00107.00603-.00073.00365-.00157.00708-.00256.01043-.00175.00587-.0052.01556-.01263.02708-.00787.01221-.022.02907-.04469.04254-.02404.01426-.04679.01822-.06088.01822zm.08457.3575c.24236.06134.24239.06123.24242.06111.00001-.00004.00004-.00016.00006-.00024.00004-.00015.00008-.00032.00012-.00048.00008-.00033.00016-.00066.00025-.00101.00017-.00069.00034-.00142.00052-.00219.00037-.00153.00075-.00321.00115-.00504.0008-.00365.00166-.00793.00253-.01276.0017-.00954.00351-.02188.00466-.0363.00214-.02672.0029-.07096-.01053-.12129-.01409-.05281-.04615-.11954-.11344-.17104-.06717-.0514-.14414-.06826-.21231-.06826v.5c-.01228 0-.05073-.00342-.09156-.03467-.04096-.03134-.05887-.0712-.06579-.09713-.00625-.02346-.0053-.04083-.00478-.04739.00035-.00434.0009-.00829.00156-.01195.00034-.00189.00073-.00385.00118-.00593.00023-.00104.00047-.00212.00074-.00325.00013-.00056.00027-.00113.00042-.00172.00007-.0003.00014-.00059.00022-.0009.00003-.00015.00007-.0003.00011-.00045.00002-.00008.00005-.00019.00006-.00023.00003-.00011.00006-.00023.24241.06112zm.25.39663v-.39663h-.5v.39663zm-3.26504.25h3.01504v-.5h-3.01504zm-.25-.79235v.54235h.5v-.54235zm.02543.37401.32646-.14571-.20379-.45659-.32646.14571zm.1481.16834v-.39663h-.5v.39663zm-.90251.14141c.09926 0 .24133.02248.37048.04914.06203.0128.11679.02564.15596.03526.01953.0048.03506.00877.04552.01149.00523.00136.00919.0024.01174.00308.00127.00034.0022.00059.00275.00074.00028.00007.00046.00012.00055.00014.00005.00002.00007.00002.00007.00002s-.00001 0-.00002 0c-.00001-.00001-.00002-.00001-.00003-.00001s-.00003-.00001.06549-.24127.0655-.24127.06548-.24127c-.00001-.00001-.00003-.00001-.00005-.00002-.00004-.00001-.00008-.00002-.00013-.00003-.0001-.00003-.00022-.00006-.00037-.0001-.0003-.00008-.00069-.00019-.00118-.00032-.00097-.00026-.00233-.00062-.00404-.00108-.00343-.00091-.00831-.0022-.01451-.00381-.01239-.00322-.03007-.00774-.05197-.01312-.0437-.01073-.10469-.02504-.1742-.03938-.13393-.02764-.31813-.05946-.47154-.05946zm-.26758-.53804c-.24967.01292-.24966.01303-.24966.01314 0 .00003.00001.00014.00001.00022.00001.00015.00002.00031.00003.00047.00002.00032.00004.00067.00006.00103.00004.00072.00009.00153.00015.0024.00011.00176.00026.00381.00045.00615.00038.00468.00093.01053.00171.01738.00156.01364.00411.03169.00828.05276.00812.04101.02351.09929.05354.16054.06378.13006.20399.28395.45301.28395v-.5c-.01213 0-.00834-.00229-.00084.00319.00441.00323.002.00341-.00324-.00728-.00528-.01076-.00941-.02449-.01199-.03749-.00117-.00593-.00176-.01039-.002-.0125-.00012-.00102-.00014-.00137-.0001-.00091.00002.00023.00005.00067.00009.00133.00003.00034.00005.00072.00008.00117.00001.00023.00002.00046.00004.00072.00001.00013.00001.00026.00002.00039 0 .00007.00001.00017.00001.00021.00001.0001.00001.00021-.24965.01313zm-.22451.48659.37643-.28805-.30385-.39709-.37643.28805zm6.37956.35422-.24452-.60888-.46398.18633.24451.60888zm-1.20498.34316h.97298v-.5h-.97298zm-.25-2.69434v2.44434h.5v-2.44434zm.73663-.10672-.41041-.13138-.15243.4762.41041.13137zm.17379 1.94218v-1.70408h-.5v1.70408zm.06805-.25h-.31805v.5h.31805zm5.00871.76572-.2445-.60888-.464.18633.2445.60888zm-1.205.34316h.973v-.5h-.973zm-.25-2.69434v2.44434h.5v-2.44434zm.7366-.10672-.4104-.13138-.1524.4762.4104.13137zm.1738 1.94218v-1.70408h-.5v1.70408zm.0681-.25h-.3181v.5h.3181zm-1.3181-1.18154.2535-.1716-.2803-.41406-.2535.17159zm.1098 1.42986v-1.6369h-.5v1.6369zm-.5082.25h.2582v-.5h-.2582zm-.25-1.56283v1.31283h.5v-1.31283zm-.0506.46185.4254-.24526-.2497-.43317-.4254.24526zm.1252.85098v-1.06757h-.5v1.06757zm-.5355.25h.2855v-.5h-.2855zm-.25-.99122v.74122h.5v-.74122zm.0619.41836.3234-.20814-.2706-.42044-.3234.20813zm.1147-.00901v-.20122h-.5v.20122zm-.622.92232c0-.37279.1275-.52612.2142-.59342.0488-.03781.0975-.05836.1334-.0693.0178-.00542.0317-.00823.0396-.00957.0039-.00066.0062-.00094.0066-.001.0003-.00002 0 .00001-.0007.00008-.0004.00003-.0009.00008-.0016.00013-.0003.00002-.0006.00005-.001.00008-.0002.00001-.0004.00003-.0006.00004-.0001.00001-.0003.00002-.0004.00003s-.0003.00002-.0175-.24939-.0174-.24939-.0175-.24938c-.0001 0-.0003.00002-.0004.00002-.0003.00002-.0005.00004-.0008.00006-.0005.00004-.0011.00009-.0017.00014-.0013.0001-.0027.00022-.0042.00036-.0031.00028-.0069.00066-.0112.00117-.0087.001-.0197.0025-.0328.00473-.0261.00444-.0609.01185-.1014.02419-.0808.02459-.1875.06972-.2943.15256-.22423.17399-.40773.48182-.40773.98847zm1.9155-.25h-2.16553v.5h2.16553zm-.2475-2.1492-.0025 2.39893.5.00053.0025-2.39894zm-8.16318 2.72558c0-.04539.02141-.0799.04307-.09902.02118-.01869.045-.02596.0653-.02596v.5c.18609 0 .39163-.13952.39163-.37502zm.10837.12497c-.0203 0-.04412-.00726-.0653-.02596-.02166-.01912-.04307-.05363-.04307-.09901h.5c0-.23551-.20554-.37503-.39163-.37503zm.10837-.12497c0 .04538-.02141.07989-.04307.09901-.02118.0187-.045.02596-.0653.02596v-.5c-.18608 0-.39163.13952-.39163.37503zm-.10837-.12498c.0203 0 .04412.00727.0653.02596.02166.01912.04307.05363.04307.09902h-.5c0 .2355.20555.37502.39163.37502zm6.76771-2.41199c-.0996.2293-.0996.22933-.0995.22935 0 .00001.0001.00004.0001.00006.0001.00003.0002.00007.0003.00011.0002.00008.0004.00017.0006.00027.0005.0002.001.00043.0016.0007.0013.00053.0029.0012.0048.00198.0037.00158.0088.00364.015.00607.0123.00485.0293.01127.0498.01831.0402.01381.0977.03128.1621.04327.062.01157.1443.02077.2291.00844.0863-.01255.1986-.05155.2789-.15748l-.3983-.30216c.0253-.03345.0547-.03621.0475-.03517-.0087.00126-.0304.0014-.0656-.00515-.0328-.00613-.0657-.01584-.0914-.02468-.0125-.00429-.0224-.00806-.0288-.01057-.0032-.00124-.0054-.00216-.0066-.00264-.0005-.00024-.0008-.00037-.0009-.00037 0-.00001.0001.00002.0002.00008.0001.00003.0002.00007.0003.00011 0 .00003.0001.00005.0002.00008 0 .00001.0001.00003.0001.00004 0 .00002.0001.00005-.0995.22935zm.9175-.35797-.9463.10963.0575.49668.9463-.10963zm-.4738.35797c-.0492.24512-.0491.24514-.0491.24515.0001 0 .0001.00002.0002.00003s.0002.00003.0003.00006l.0007.00014c.0005.0001.0011.00022.0019.00036.0014.00028.0032.00062.0055.00103.0044.00081.0103.00186.0176.00305.0145.00238.0345.00536.0585.00818.0473.00554.114.01089.1869.00861.0707-.00222.1604-.01195.2474-.04429.0883-.03282.1931-.09678.2552-.21798l-.445-.22795c.0132-.0258.0307-.02836.0156-.02273-.0164.0061-.0462.01185-.0889.01319-.0406.00128-.0813-.00174-.113-.00545-.0154-.00181-.0278-.00367-.0358-.00499-.004-.00066-.0069-.00116-.0084-.00145-.0008-.00014-.0012-.00023-.0013-.00024s0 0 .0001.00002c.0001.00001.0002.00003.0003.00005 0 .00002.0001.00003.0002.00004 0 .00001.0001.00002.0001.00002 0 .00001.0001.00003-.049.24515z" fill="#009c4e"/></g></g></svg>