<svg fill="none" height="15" viewBox="0 0 20 15" width="20" xmlns="http://www.w3.org/2000/svg" xmlns:xlink="http://www.w3.org/1999/xlink"><mask id="a" height="15" maskUnits="userSpaceOnUse" width="20" x="0" y="0"><path d="m0 0h20v15h-20z" fill="#fff"/></mask><mask id="b" height="9" maskUnits="userSpaceOnUse" width="14" x="3" y="3"><path clip-rule="evenodd" d="m3.75 3.75h12.5v7.5h-12.5z" fill="#fff" fill-rule="evenodd"/></mask><g clip-rule="evenodd" fill-rule="evenodd" mask="url(#a)"><path d="m0 0h20v13.75c0 .6904-.5596 1.25-1.25 1.25h-17.5c-.690356 0-1.25-.5596-1.25-1.25z" fill="#c51918"/><path d="m3.75 3.75h12.5v7.5h-12.5z" fill="#feca00"/><g mask="url(#b)"><path d="m3.75 3.75 6.25 3.75-6.25 3.75z" fill="#23875f"/><path d="m16.25 3.75-6.25 3.75 6.25 3.75z" fill="#23875f"/><path d="m10 10c1.3807 0 2.5-1.11929 2.5-2.5s-1.1193-2.5-2.5-2.5c-1.38071 0-2.5 1.11929-2.5 2.5s1.11929 2.5 2.5 2.5z" fill="#c51918"/><path d="m9.95591 8.32079-1.29433.89777.41359-1.53766-.95017-.98227 1.28658-.05311.54433-1.52052.54429 1.52052h1.2844l-.9479 1.03538.4747 1.44691z" fill="#feca00"/></g><path d="m5.48543 2.77625.70736-.43863.74078.39428-.25946-.70692.51808-.50585h-.70193l-.29747-.742885-.29748.742885-.70312.02595.51927.4799zm3.75 0 .70736-.43863.74081.39428-.2595-.70692.5181-.50585h-.7019l-.29751-.742885-.29748.742885-.70312.02595.51927.4799zm4.45737-.43863-.7074.43863.2261-.75127-.5193-.4799.7031-.02595.2975-.742885.2975.742885h.7019l-.5181.50585.2595.70692zm-8.20797 11.51688.70736-.4387.74079.3943-.25946-.7069.51807-.5059h-.70193l-.29747-.7428-.29748.7428-.70312.026.51927.4799zm4.45736-.4387-.70736.4387.22603-.7513-.51927-.4799.70312-.026.29748-.7428.29751.7428h.7019l-.5181.5059.2595.7069zm3.04261.4387.7074-.4387.7408.3943-.2595-.7069.5181-.5059h-.7019l-.2975-.7428-.2975.7428-.7031.026.5193.4799z" fill="#feca00"/><path d="m5.39673 7.98254s.3366.29966.51993.40168c.06321-.23958-.07783-.78235-.07783-.78235-.03957-.12975-.47363-.36237-.47363-.36237s-.12192.4096.03153.74304z" fill="#c51918"/><path d="m5.74737 8.7064s-.86452-.4038-.95237-.97492c-.08786-.57112.09846-1.4816.09846-1.4816s1.40388.31948 1.49939 1.00398-.22157 1.11452-.22157 1.11452-.32472-.83443-.63115-.92698c0 0 0 .82697.20724 1.265z" fill="#feca00"/></g></svg>