<svg fill="none" height="12" viewBox="0 0 16 12" width="16" xmlns="http://www.w3.org/2000/svg" xmlns:xlink="http://www.w3.org/1999/xlink"><mask id="a" height="12" maskUnits="userSpaceOnUse" width="16" x="0" y="0"><path d="m0 0h16v12h-16z" fill="#fff"/></mask><g mask="url(#a)"><path d="m0 0h16v12h-16z" fill="#67bd23"/><path d="m3.49086 2.28776s.25534 1.16466 0 .94129c-.25535-.22338-.82267.62788-.23003.31394s.69696-.63935.69696 0 .28339.31405-.20678.78928c-.49018.47523 1.71802.48265.72893.78012-.98908.29746-1.45787.93168-.72893.69849.72893-.2332 1.90243-1.22088 1.59613-1.47861-.30631-.25773-.15572-.20493-.15572-.78928s-.19446-.73505-.44795-.88596c-.25349-.15092.98625 1.02073 1.40048.32573.41422-.695.36436-.24629.66379 0s.76571.54353.76571 0c0-.54354.61479-1.59231.61479-.51604s.77168 1.63268.77168.9115c0-.72119.70966-1.42754.70966-.9115s.40742.49214.75562.34122c.3483-.15091.3188-.5491.3188.57028 0 1.11937.1459 2.8687-.3188 2.72123-.4646-.14748-.0303-.81312-.46536-1.76718-.43507-.95405.44336-.95744-.46453.26058-.9079 1.21803-.76372 1.03907-1.03539.51954-.27168-.51954.88647-1.0407 0-.78012s-.40459 1.71922-.64553 1.24967-.85642-2.96387-.93154-1.71671c-.07511 1.24716.23656 1.94565-.42293 1.94565s-1.21732.05041-.76665-.22894c.45068-.27935.45068-1.24967.45068-1.24967" stroke="#fff" stroke-width=".5"/><path clip-rule="evenodd" d="m6.96684 7.92775c-.40661.04923-2.4613.0408-3.0751-.10728-.13752-.02901-.0589.59814.03008.74226.08899.14413.78752.28853 1.03107.32178.20898.02854 1.01416-.01638 1.85111-.06307.13847-.00772.2778-.0155.41546-.02299.73273-.03991 1.80314.02964 2.3629.06601.181.01176.30862.02005.35415.02005.17159 0 .15869.0579.13279.17424-.0023.01004-.0046.02051-.0069.03142-.0293.13734.1245.43232.1923.46006.0678.02775.5722 0 .847-.10604.1564-.06036.1749-.052.2156-.0336.0308.01393.0744.0336.2.0336.1888 0 .1986-.27032.2055-.46117.0038-.10411.0067-.18457.0373-.18457.0344 0 .0806.10208.1238.19763.0659.14571.1249.27626.1249.00654 0-.44658-.5252-1.03141-.6969-.98462-.1204.03281-.3186-.00338-.4532-.02795-.0574-.01048-.1032-.01884-.1264-.01884-.0337 0-.0236-.00816-.0013-.02615.0291-.02351.0791-.06381.0791-.12459 0-.10729-.1021-.12247-.1871-.12247s-.1304.06947-.1304.12247c0 .05299.0641.10728.0641.10728-.0133 0-.0804-.00089-.1875-.0023-.69108-.00914-3.05031-.04033-3.40236.0023zm3.47066.94525c0-.0001.0541-.03145.1795-.18602.1388-.17115.1879-.11644.2391-.05942.0264.0294.0533.05942.0934.05942.1178 0 .2734 0 .3746.08589.1012.0859-.1332.20397-.2014.20397-.0339 0-.059-.02114-.0842-.04245-.0256-.02164-.0515-.04345-.087-.04345-.0418 0-.077.03033-.1056.05494-.0195.01681-.036.03096-.0493.03096-.0116 0-.0374-.01474-.0709-.03381-.0611-.03489-.1476-.08426-.2188-.08426-.0444 0-.0693.0143-.0694.01423z" fill="#fff" fill-rule="evenodd"/><path d="m3.89174 7.82047.01173-.04863-.00141-.0003zm3.0751.10728.00601.04964zm-3.04502.63498.04255-.02627zm1.03107.32178.00677-.04954zm1.85111-.06307-.00279-.04992zm.41546-.02299.00271.04992zm2.3629.06601-.00324.0499zm.48694.19429.0488.01087zm-.0069.03142-.0489-.0104zm1.0393.35402.018.04665zm.2156-.0336.0206-.04556zm.4055-.42757.05.00182zm.1611.01306.0455-.02059zm-.572-.97808-.0131-.04824zm-.4532-.02795-.009.04919zm-.1277-.04499-.0314-.03892zm-.1743-.01731v.05h.1363l-.104-.08814zm-.1875-.0023-.0006.04999zm.2478.76153.0388.0315zm-.1795.18602.0434-.02491-.0001-.00017zm.4186-.24544-.0372.0334zm.468.14531.0324-.03812zm-.2856.16152-.0323.0382zm-.1926.01149.0326.03789zm-.1202-.00285.0248-.04343zm-.2188-.08426v-.05zm-6.62689-.9897c.3131.07554.98586.11458 1.62585.12902.64077.01445 1.25959.00441 1.46699-.0207l-.01202-.09928c-.19921.02412-.81104.03448-1.45271.02-.64246-.01449-1.30395-.0537-1.60465-.12625zm.08436.66739c-.01753-.02839-.03773-.08747-.05535-.16559-.0172-.07625-.03072-.16489-.03733-.24815-.00668-.08411-.006-.15914.00338-.20965.00483-.02599.01097-.03972.01503-.04522.0016-.00216.00131-.00088-.00167.00042-.00347.00151-.00642.00124-.00701.00112l.02064-.09785c-.01778-.00375-.03623-.00252-.05362.00507-.01688.00737-.0295.01929-.03874.03178-.01761.02381-.0272.05544-.03295.08642-.01177.06343-.01166.14876-.00475.23582.00698.08792.0212.18127.03947.26224.01784.0791.04085.15246.06781.19613zm.99529.29851c-.11966-.01633-.35309-.06032-.56725-.11805-.10714-.02887-.20799-.0608-.28685-.09389-.03946-.01656-.07223-.03292-.09711-.04869-.02579-.01635-.03888-.02945-.04408-.03788l-.08509.05254c.01705.02761.04525.05054.07564.0698.0313.01985.06961.03868.11195.05644.08476.03557.19045.06884.29951.09824.21824.05882.45585.10366.57975.12058zm1.84155-.06345c-.4186.02335-.82871.04623-1.16028.05971-.33396.01358-.58222.01727-.68127.00374l-.01353.09909c.10992.015.36875.01051.69886-.00291.33249-.01352.74344-.03645 1.16179-.05979zm.41553-.023c-.13769.0075-.27707.01528-.41553.023l.00557.09984c.13848-.00772.27778-.01549.41539-.02299zm2.36886.06605c-.55881-.03631-1.63252-.10615-2.36886-.06605l.00543.09985c.72912-.03971 1.79624.02955 2.35695.06599zm.35091.01994c-.04341 0-.16852-.00809-.35091-.01994l-.00648.09979c.17962.01167.30973.02015.35739.02015zm.18159.23511c.0062-.02812.0127-.0568.0152-.08221.0025-.02518.0022-.055-.0119-.08234-.0152-.02947-.0416-.04725-.0728-.05729-.0299-.0096-.06731-.01327-.11209-.01327v.1c.041 0 .06629.00358.08149.00846.0072.00233.0108.00456.0125.00583.0014.00107.0018.00171.002.00214.0009.00168.0032.00815.0013.02654-.0018.01816-.0067.04035-.0134.07039zm-.0068.03096c.0022-.01064.0045-.02089.0068-.03096l-.0977-.02175c-.0022.01001-.0046.02072-.0069.0319zm.1624.40338c.0011.00047-.0029-.00125-.012-.0106-.0082-.00848-.0179-.02055-.0287-.036-.0215-.03082-.0447-.0719-.0654-.1169-.0206-.04499-.038-.09249-.0484-.13603-.0107-.04463-.013-.08025-.0079-.10385l-.0978-.02081c-.0096.04507-.0036.09782.0084.14799.0123.05127.0322.10499.0548.15438.0227.04938.0488.09583.0743.13241.0127.01826.0258.03486.0389.04836.0122.01262.0278.02619.0459.0336zm.81-.10642c-.1311.05059-.3206.0835-.4881.10009-.0832.00823-.1596.01231-.2189.01265-.0297.00018-.0545-.00059-.0733-.00212-.0095-.00077-.0169-.00169-.0225-.00265-.006-.00104-.0079-.00182-.0072-.00155l-.0379.09255c.0164.0067.0387.00963.0595.01132.0227.00184.0506.00263.082.00245.0629-.00037.1425-.00466.2282-.01314.1703-.01687.3704-.05084.5142-.1063zm.2542-.03251c-.0095-.00429-.0224-.0103-.0376-.014-.0162-.00398-.0331-.00501-.0528-.00289-.0366.00395-.086.01936-.1638.0494l.036.0933c.0785-.03032.1166-.04091.1385-.04328.0096-.00103.0147-.00029.0183.00059.0047.00115.0093.00309.0202.008zm.1794.02916c-.0603 0-.0989-.00473-.1249-.01042-.0253-.00554-.0401-.01222-.0545-.01874l-.0412.09112c.0164.00741.0388.01752.0744.02531.0348.00763.0809.01273.1462.01273zm.1555-.41298c-.0035.09713-.0077.20563-.0325.28985-.0123.04172-.0284.07284-.048.09304-.0183.0187-.0414.03009-.075.03009v.1c.0608 0 .1097-.0224.1466-.06034.0355-.03646.0577-.08485.0723-.13456.029-.09865.0332-.22073.0366-.31445zm.0873-.23276c-.035 0-.0543.02489-.0628.04161-.0083.01648-.0126.03623-.0153.05412-.0056.03664-.0073.08619-.0092.13703l.1.00363c.0019-.05328.0035-.09602.008-.12564.0023-.01523.0048-.02211.0057-.02397.0008-.00162-.0067.01322-.0264.01322zm.1693.22704c-.0213-.0471-.0446-.09884-.0672-.13871-.0112-.0198-.0236-.03913-.0369-.05411-.011-.01229-.0332-.03422-.0652-.03422v.1c-.0147 0-.0183-.00917-.0096.00066.0064.00714.0147.01931.0247.03698.0199.03505.0412.08213.0631.13059zm.0294.02713c0 .03292-.0009.05897-.0025.07918-.0017.02061-.0039.0334-.0059.04058-.001.00355-.0016.00424-.001.00328.0004-.00075.0033-.00578.0102-.01025.0082-.00526.0183-.00726.0277-.00572.008.0013.0127.00466.0136.00536.0011.00085.0009.00087-.0008-.00105-.0015-.00178-.0035-.00451-.0061-.00841-.0053-.00788-.0114-.01861-.0184-.03211-.0141-.02707-.0295-.06118-.0462-.09799l-.0911.04119c.0163.03604.033.07289.0485.10285.0078.01502.0158.02932.0239.04148.0075.01123.0176.02465.0304.03421.0067.00499.0169.011.0301.01316.0146.00239.0296-.00057.0424-.00879.0214-.0137.0294-.03708.0331-.05022.0086-.03075.0121-.07943.0121-.14675zm-.6337-.93638c.0062-.0017.021-.0019.0474.00871.0254.0102.0561.02828.0907.05431.069.05194.1477.13119.2221.22675.1501.19286.2735.4398.2735.64661h.1c0-.23977-.1393-.50854-.2946-.70804-.0783-.10062-.1631-.18671-.2409-.24522-.0388-.0292-.0773-.05262-.1135-.06719-.0352-.01417-.0744-.0224-.111-.01241zm-.4754-.027c.067.01223.1522.02781.236.03606.0827.00814.1699.00986.2394-.00906l-.0263-.09648c-.051.01389-.123.01392-.2033.00602-.079-.00778-.1602-.02258-.2278-.03492zm-.1174-.01803c.0072 0 .021.00147.0426.00488.0208.00329.046.00787.0748.01315l.018-.09838c-.0285-.0052-.0549-.01003-.0772-.01355-.0214-.00338-.0422-.0061-.0582-.0061zm-.0327-.11507c-.0051.00409-.0114.00919-.0165.01391-.0026.00241-.0061.0058-.0094.00989-.0027.00341-.0086.01123-.0115.0225-.0036.01414-.0019.03225.0105.04724.0099.01183.0221.01618.0275.01782.0112.0034.0235.00371.0321.00371v-.1c-.0083 0-.0074-.00071-.0031.0006.002.00059.0119.00363.0204.01387.0047.00572.0085.01298.0101.02135.0015.0081.0007.01516-.0007.0203-.0023.00911-.0068.01451-.0073.01521-.0011.00138-.0017.00177-.0007.00088.002-.00186.0053-.00453.0114-.00943zm.0605-.08567c0 .01579-.0063.03049-.018.04545-.0121.0155-.0276.02818-.0425.04022l.0628.07785c.0142-.01147.0383-.0307.0584-.05642.0206-.02627.0393-.06211.0393-.1071zm-.1371-.07247c.0414 0 .0785.00405.1039.01615.0118.0056.0194.01215.0242.01947.0047.00712.009.01826.009.03685h.1c0-.03506-.0085-.06605-.0256-.09195-.0169-.0257-.0402-.04306-.0646-.05467-.0469-.02231-.1033-.02585-.1469-.02585zm-.0804.07247c0-.02962.0271-.07247.0804-.07247v-.1c-.1167 0-.1804.0961-.1804.17247zm.0141.10728c.0323-.03814.0323-.03813.0323-.03813v.00002c.0001 0 .0001.00001.0001.00002v.00003c0 .00002 0 .00002 0 .00001 0-.00002-.0001-.00008-.0002-.0002-.0003-.00023-.0007-.00064-.0014-.00123-.0013-.00117-.0033-.00303-.0057-.00544-.005-.0049-.0115-.01181-.018-.01991-.0146-.01849-.0212-.03383-.0212-.04245h-.1c0 .04436.0255.08267.0429.10457.0096.0121.019.02207.0261.02901.0035.0035.0065.0063.0087.0083.0011.001.0021.00181.0027.0024.0004.0003.0007.00054.0009.00073.0001.0001.0002.00018.0003.00025 0 .00003 0 .00006.0001.00009v.00004.00001c0 .00001.0001.00002.0324-.03812zm-.1881.04769c.1067.00141.1743.00231.1881.00231v-.1c-.0129 0-.0794-.00088-.1868-.0023zm-3.39575.00195c.08465-.01025.29493-.01633.57746-.01927.28111-.00293.63032-.00274.99033-.00094.71997.00361 1.48236.01369 1.82796.01826l.0013-.09999c-.3455-.00457-1.10833-.01465-1.82876-.01826-.3602-.00181-.71-.002-.99187.00093-.28043.00292-.49707.00893-.58844.01999zm3.60525.67808c-.0615.0759-.1048.12059-.132.14585-.0135.01261-.023.02031-.0286.02459-.0028.00213-.0046.00343-.0055.00406-.0005.00032-.0008.0005-.0009.00058-.0002.00011-.0001.00003-.0004.00024 0 0-.0004.00029-.0009.00063-.0002.00008-.0011.0007-.0022.00155-.0004.00025-.0022.00159-.0043.00354-.0012.00125-.0047.00507-.0067.00774-.004.00674-.0088.0344-.0023.05383l.0865-.05016c.0064.01944.0016.04709-.0024.05383-.002.00267-.0054.00649-.0067.00774-.0021.00194-.0039.00328-.0042.00353-.0011.00083-.002.00144-.0021.00151-.0003.00019-.0005.00033-.0006.00038s-.0002.00009-.0002.0001c-.0001.00007.0004-.00021.0006-.00037.0007-.00047.0017-.00112.003-.00197.0025-.0017.0058-.00408.0101-.00732.0084-.00645.0203-.01627.036-.03083.0312-.02909.0777-.07736.1415-.15604zm.3152-.0613c-.012-.0134-.028-.03148-.0466-.04545-.0198-.01482-.0457-.02754-.0781-.02701-.0317.00052-.0622.01356-.0922.03526-.0299.02163-.0621.05399-.0983.0985l.0777.06301c.0333-.04105.0593-.06604.0792-.08051.0199-.01438.0309-.0162.0352-.01627.0036-.00006.0083.0009.0165.00703.0093.00697.0186.01712.0322.03223zm.0562.04281c-.0063 0-.0129-.00203-.022-.00882-.0103-.00764-.0203-.01849-.0342-.03399l-.0744.06679c.0226.02522.0644.07602.1306.07602zm.407.09777c-.0602-.05113-.1345-.07489-.2054-.08639-.0709-.01149-.1433-.01138-.2016-.01138v.1c.0595 0 .1239.0001.1856.01009.0615.00998.1157.02916.1567.06392zm-.2338.29209c.0272 0 .0622-.01061.0936-.02359.0331-.01369.0693-.03302.1004-.05597.0296-.02189.061-.05178.075-.08851.0074-.01961.0103-.04223.0039-.0657-.0064-.02327-.0207-.04265-.0391-.05832l-.0647.07624c.0034.00293.0053.00519.0063.00659.0004.00069.0007.00119.0008.00148.0002.00029.0002.00045.0002.00047s0 .00003 0 .00002v.00006.00021c0 .00039-.0002.00148-.0009.00337-.0036.00956-.0161.0253-.041.04366-.0234.01731-.0522.03286-.0791.044-.0287.01184-.0486.01599-.0554.01599zm-.1165-.05425c.0225.01892.0613.05425.1165.05425v-.1c-.0127 0-.0239-.00696-.0519-.03066zm-.0547-.03165c.0144 0 .0265.00782.0547.03165l.0646-.07641c-.0231-.01944-.0626-.05524-.1193-.05524zm-.073.04283c.0148-.01274.0277-.02367.0411-.03181.0131-.00793.0234-.01102.0319-.01102v-.1c-.0332 0-.0615.01208-.0837.02547-.0217.01317-.0408.02971-.0545.04158zm-.0819.04307c.0227 0 .041-.01133.0506-.01795.011-.00752.0222-.01728.0313-.02512l-.0652-.07578c-.0105.00897-.0172.01469-.0227.01845-.0025.00174-.0034.0021-.0031.00194.0004-.00014.0037-.00154.0091-.00154zm-.0956-.04038c.0162.00929.0324.01851.0459.02531.0068.00342.0141.00679.0212.0094.0062.00226.0166.00567.0285.00567v-.1c.0061 0 .009.00156.006.00046-.0021-.00075-.0055-.00225-.0108-.0049-.0106-.00534-.0241-.01302-.0413-.0228zm-.1941-.07769c.0253 0 .0571.00909.0931.02485.0354.01547.0701.03521.101.05284l.0495-.08686c-.0302-.01726-.0694-.03966-.1104-.05759-.0403-.01765-.0873-.03324-.1332-.03324zm-.1127-.01086c.0099.01226.0311.02358.0395.02495.0043.00014.011-.00038.0134-.00078.004-.00078.007-.00189.0076-.00213.002-.00073.0035-.00143.0038-.00155.0009-.00042.0016-.00078.0017-.00082.0002-.0001.0004-.0002.0004-.00023.0001-.00003.0002-.00008.0002-.00008.0001-.00005.0001-.00008.0002-.00011.0001-.00006.0005-.00026.0012-.00056.0014-.00061.004-.00167.0078-.00283.0077-.0023.0201-.005.0369-.005v-.1c-.0276 0-.0498.00445-.0658.00928-.008.00241-.0143.00491-.019.00696-.0024.00103-.0043.00194-.0057.00265-.0007.00035-.0013.00063-.0015.00078-.0003.00013-.0001.00002.0001-.00009 0-.00001.0007-.00036.0016-.00076.0003-.00011.0018-.00081.0037-.00154.0007-.00023.0037-.00134.0076-.00212.0025-.00041.0092-.00093.0135-.00078.0083.00136.0296.01268.0395.02494z" fill="#fff"/><path d="m13.1161 2.3728s.8071 3.62727 0 3.62727c-.807 0-.807-.31639-.807-.31639s.8862.40757.6412-.65823c-.2451-1.06579-.4738-.33205-.4738-1.26931 0-.93725-.1674-1.56601-.1674-1.08674 0 .47926-.1111 3.37427-.5489 2.78207-.4378-.59221-.3314-2.42612-.3314-2.60409" stroke="#fff" stroke-width=".5"/></g></svg>