<svg fill="none" height="15" viewBox="0 0 20 15" width="20" xmlns="http://www.w3.org/2000/svg" xmlns:xlink="http://www.w3.org/1999/xlink"><mask id="a" height="15" maskUnits="userSpaceOnUse" width="20" x="0" y="0"><path d="m0 0h20v15h-20z" fill="#fff"/></mask><mask id="b" height="15" maskUnits="userSpaceOnUse" width="20" x="0" y="0"><path clip-rule="evenodd" d="m0 0v15h20v-15z" fill="#fff" fill-rule="evenodd"/></mask><g mask="url(#a)"><path clip-rule="evenodd" d="m0 0v15h20v-15z" fill="#feca00" fill-rule="evenodd"/><g mask="url(#b)"><path clip-rule="evenodd" d="m0 0v5h20v-5z" fill="#db501c" fill-rule="evenodd"/><path clip-rule="evenodd" d="m0 10v5h20v-5z" fill="#5eaa22" fill-rule="evenodd"/><path d="m7.2796 7.03748s-.23243 2.38069 1.88351 2.38069h1.57729s2.226-.14522 1.9675-2.38069" stroke="#db501c" stroke-width=".9375"/><path d="m11.4062 7.375c0 .77665-.6295 1.40625-1.4062 1.40625-.77665 0-1.40625-.6296-1.40625-1.40625s.6296-1.40625 1.40625-1.40625c.7767 0 1.4062.6296 1.4062 1.40625z" fill="#feca00" stroke="#68b9e8" stroke-width=".9375"/><g clip-rule="evenodd" fill-rule="evenodd"><path d="m10 7.5c.3452 0 .625-.27982.625-.625s-.2798-.625-.625-.625c-.34518 0-.625.27982-.625.625s.27982.625.625.625z" fill="#db501c"/><path d="m10.0625 8.5c.5868 0 1.0625-.22386 1.0625-.5s-.4757-.5-1.0625-.5-1.0625.22386-1.0625.5.4757.5 1.0625.5z" fill="#5eaa22"/><path d="m10.0625 6.25c.8284 0 1.5-.22386 1.5-.5s-.6716-.5-1.5-.5c-.82843 0-1.5.22386-1.5.5s.67157.5 1.5.5z" fill="#674f28"/></g></g></g></svg>