<svg fill="none" height="12" viewBox="0 0 16 12" width="16" xmlns="http://www.w3.org/2000/svg" xmlns:xlink="http://www.w3.org/1999/xlink"><mask id="a" height="12" maskUnits="userSpaceOnUse" width="16" x="0" y="0"><path d="m0 0h16v12h-16z" fill="#fff"/></mask><g clip-rule="evenodd" fill-rule="evenodd" mask="url(#a)"><path d="m11 0h5v12h-5z" fill="#67bd38"/><path d="m5 0h6v12h-6z" fill="#d51700"/><path d="m0 0h5v12h-5z" fill="#272727"/><path d="m5 6.05003c0 1.68447 1.36553 3.05 3.05 3.05s3.05-1.36553 3.05-3.05c0-.69277-.231-1.3316-.6201-1.84368l-.4429 1.33747c.0411.16191.063.33151.063.50621 0 .66166-.31347 1.25011-.8 1.62494v-2.37494h-.3c0-.55228-.44772-1-1-1s-1 .44772-1 1h-.3v2.29276c-.42906-.37575-.7-.92761-.7-1.54276 0-.13491.01303-.26677.0379-.3944h-.0379l-.37052-1.46154c-.3948.51412-.62948 1.15763-.62948 1.85594zm2.7.20422v1.81602c.11374.01957.23068.02976.35.02976.08463 0 .16806-.00513.25-.01509v-1.83069c-.0947.02975-.19548.04578-.3.04578s-.2053-.01603-.3-.04578z" fill="#f7fcff"/></g></svg>