<svg fill="none" height="24" viewBox="0 0 33 24" width="33" xmlns="http://www.w3.org/2000/svg" xmlns:xlink="http://www.w3.org/1999/xlink"><mask id="a" height="24" maskUnits="userSpaceOnUse" width="34" x="0" y="0"><path d="m0 0h34v24h-34z" fill="#fff"/></mask><g clip-rule="evenodd" fill-rule="evenodd" mask="url(#a)"><path d="m0 0v12h32v-12z" fill="#43b764"/><path d="m0 12v12h32v-12z" fill="#b4d7f4"/><path d="m0 0 33 12-33 12z" fill="#be0027"/><path d="m8.1007 18.5159c.12551-.1266.28531-.2402.48634-.3086.01176-.6369.00424-1.3318-.03485-1.9921-.05274-.0792-.14468-.1453-.30465-.1453-.39982 0-1.27801-.3417-1.27801-.8337 0 0 .65505.296.83788.148.07788-.063-.12521-.2585-.37069-.4947-.33074-.3182-.73842-.7105-.63951-.9527 0 0 .64227.5686.77938.5686.0626 0 .01993-.1843-.02297-.3695-.05107-.2206-.10247-.4426.02297-.3568.23082.1577.87191 1.2456.87191 1.6051 0 .1956.05142.5034.09831.7435l-.00044-.0069c-.02658-.4142-.06488-.7862-.11586-1.1047-.28815-1.7998-.29844-3.6446.10239-4.6265-.19977-.1237-.34551-.2816-.34551-.46185 0 0 .65506.26615.83788.13305.07789-.0567-.12521-.23244-.37069-.44492-.33073-.28626-.73841-.63911-.6395-.85705 0 0 .64227.51149.77938.51149.0626 0 .01993-.16575-.02297-.33241-.05107-.19838-.10247-.39805.02297-.32095.23081.14187.8719 1.12047.8719 1.44384l.00004.0077c.24836-.30785.5379-.59512.6902-.66709.1631-.0771.0962.12258.0298.32096-.0558.16666-.1112.33243-.0298.33243.1783 0 1.0135-.51152 1.0135-.51152.1286.21794-.4016.57082-.8316.85702-.3193.2125-.58337.3883-.4821.445.2378.1331 1.0896-.1331 1.0896-.1331 0 .4425-1.142.7499-1.66194.7499-.19332 0-.31023.0513-.38084.1158-.03457.3066-.05046.6539-.04865 1.026.25987-.3346.58438-.6634.74879-.7411.16312-.0771.09628.1225.02987.3209-.05578.1667-.11127.3324-.02987.3324.1783 0 1.01354-.5115 1.01354-.5115.1286.218-.4016.5708-.83164.8571-.31922.2125-.58333.3883-.48205.445.23775.1331 1.08959-.1331 1.08959-.1331 0 .3934-.9026.68-1.46825.7388.03158.3232.07359.651.12554.9755.05547.3464.09631.743.1244 1.1809.01206.188.02158.3786.02882.5699.02491-.1591.0434-.3168.0434-.434 0-.3596.64109-1.4475.87189-1.6052.1254-.0857.074.1363.023.3568-.0429.1853-.0856.3695-.023.3695.1371 0 .7794-.5686.7794-.5686.0989.2423-.3088.6346-.6395.9528-.2455.2362-.4486.4316-.3707.4947.1828.1479.8379-.148.8379-.148 0 .4919-.8782.8337-1.27804.8337-.1044 0-.17982.0281-.23428.0697.01054.4221.0108.8428.00367 1.2423.21803.0711.38832.1952.51947.3325.25678-.0177.50948-.0566.75818-.1168.4802-.2643 1.5431-1.1151 1.8122-1.4497.2038-.2534.2817-.7523.3552-1.2238.0421-.2698.0828-.5305.1449-.7312.1706-.5514.4725.6701.4725.8603s.2486-.7054.2486-1.3336c0-.3147-.0624-.5168-.1247-.7184-.062-.2008-.1239-.4013-.1239-.7123 0-.3676.2149-.3024.4139-.1119-.091-.2495-.1653-.5583-.1653-.8767 0-.4076-.0512-.5299-.0734-.5603.0201.009.0733.014.1854-.0469.1925-.1045.2821.0238.3571.1312.0655.0939.1199.1718.2221.0647.1118-.1171-.1295-.2502-.4879-.448-.3442-.1899-.7963-.4394-1.1476-.7915-.7172-.71889.2232-.96562.3836-.71496s1.1162.53246.5607-.3019c-.3377-.50718-.754-.50088-1.1327-.49515-.2443.0037-.473.00716-.6549-.12766-.314-.2328.1234-.4734.3617-.60448.1136-.06247.1819-.10006.1021-.10006-.1017 0-.2314-.03611-.3841-.07865-.2188-.06095-.485-.13509-.7841-.13509-.508 0-1.51183-.4545-1.1646-.4545.1235 0 .3065-.04385.5076-.09201.2209-.05291.4635-.11103.6727-.12192-.6094-.28177-1.30658-.51935-2.09233-.71287l.13371-.53075c.77682.19131 1.47572.42638 2.09622.70512-.107-.16452-.2227-.34311-.3189-.51104-.3324-.57998.7051.32072 1.1159.91704l.0011.00165c.6682.38776 1.2196.84021 1.6526 1.35717v-1.17371c.388.13288.6088 1.38631.7249 2.33065.0846.18976.1575.38582.2187.58822.151-.40308.436-.83031.6924-.46006.3052.44076-.2339 2.94096-.4325 3.80496-.0087.0907-.0186.1806-.0299.27.4729-.3011.7181-.9962.8438-1.3525.1084-.3073.1278-.3625.1278.3051 0 .8634-.672 1.7184-1.2227 2.274-.0789.2731-.1723.5392-.2802.7981.3793-.1197.7045-.3301.9563-.493.4412-.2855.6576-.4255.5466.3218-.1209.8149-1.3032 1.1158-2.0463 1.2248-.054.0866-.1099.1722-.1677.2569l-.0314.0382c-.1151.1165-.2314.2276-.3489.3334.075-.0319.1471-.0647.2177-.0967.2901-.1317.5543-.2517.8886-.2517.2018 0-.0741.1054-.4647.2545v.0001c-.4616.1762-1.0832.4137-1.2655.6106-.0763.0824-.1264.1491-.1669.203-.1191.1585-.1549.2062-.5288.2163-.5767.3065-1.1776.4998-1.8019.5789.0394.0938.0559.1556.0559.1556h-2.63205s.02027-.0758.06951-.187c-.54732-.093-1.07628-.2751-1.58631-.5457-.01333.0003-.02716.0005-.0415.0005-.57099 0-.59713-.0348-.73525-.2186h-.00001l-.00002-.0001c-.04049-.0538-.09061-.1206-.1669-.2029-.1823-.1969-.80395-.4344-1.2655-.6107h-.00002c-.39053-.1491-.66645-.2545-.46463-.2545.33432 0 .59852.12.88855.2517.09197.0417.18655.0847.28677.1253.09458.0384.22137.0846.36088.1329-.18084-.1525-.35893-.3175-.53425-.4949l-.03146-.0382c-.05066-.0742-.09985-.1492-.14757-.2249-.68808-.075-2.16114-.3421-2.29692-1.2568-.11093-.7473.10544-.6073.54661-.3218.26573.1719.61301.3966 1.01945.512.07395.021.13947.0382.19738.0521-.07822-.1823-.14919-.3682-.2129-.5576-.56148-.5032-1.55054-1.5382-1.55054-2.5856 0-.6676.01945-.6124.12786-.3051.12909.366.38433 1.0896.88306 1.3763 0 0-.87185-3.5642-.50168-4.09876.37017-.53454.80005.59316.80005.91066 0 .0555.00539-.0043.0178-.142.05863-.65078.274-3.04111.81809-3.22747v1.29203c0 .06024.02688.08372.07403.07805.36187-.47795.81891-.90404 1.3702-1.27816.08184-.10122.15345-.1956.20954-.27703.41077-.59632 1.44826-1.49702 1.11589-.91704-.09943.17349-.21963.35838-.3295.52737v.00001l-.00008.00013c-.03151.04846-.06216.09561-.09123.14081.69988-.3486 1.50983-.63611 2.42862-.8624l.13371.53075c-.80418.19806-1.51556.44228-2.1351.73277.15943.02403.32771.06434.48499.10202.20105.04816.38409.09201.50762.09201.34719 0-.65667.4545-1.16461.4545-.29917 0-.56536.07414-.78417.13509-.1527.04254-.28234.07865-.38402.07865-.07985 0-.0115.03759.10208.10006.2383.13108.67573.37168.36168.60448-.18187.13482-.41056.13136-.6549.12766-.27054-.00409-.56026-.00847-.8268.17426-.17958.25731-.32929.53001-.44933.81813.12122.15882.5954-.02544.70411-.19534.1604-.25066 1.10087-.00393.38363.71496-.35131.3521-.80344.6016-1.14758.7915-.11213.0618-.2128.1174-.29478.1681-.01163.0984-.02191.1962-.03085.2932.02006-.021.0394-.0487.05983-.078.07499-.1074.16453-.2357.35702-.1312.1121.0609.16534.0559.18548.0469-.02221.0304-.07339.1527-.07339.5603 0 .3184-.07436.6272-.16539.8767.19909-.1905.41392-.2557.41392.1119 0 .311-.06189.5115-.1239.7123-.06226.2016-.12463.4037-.12463.7184 0 .6282.24853 1.5238.24853 1.3336s.3019-1.4117.47251-.8603c.06209.2007.10278.4614.14487.7312.07357.4715.15143.9704.35528 1.2238.23345.2903 1.06429.9691 1.59384 1.3163.32614.1152.6593.1922.99968.2312zm-3.73128-6.9638c-.00047-.0012-.00428.0005-.01004.0084.00762-.0034.0105-.0073.01004-.0084zm9.28528.0084c-.0058-.0079-.0096-.0096-.0101-.0084-.0004.0011.0024.005.0101.0084zm.1792 4.3928c.0224-.0469.0442-.0941.0655-.1416-.0558.0543-.0977.1119-.0655.1416zm-4.61726-5.0039c-.01413.1346-.05097.2995-.09054.4502.02398-.1653.0541-.3163.09054-.4502z" fill="#f3e294"/></g></svg>