<svg fill="none" height="24" viewBox="0 0 32 24" width="32" xmlns="http://www.w3.org/2000/svg"><path d="m0 0v7h32v-7z" fill="#002488"/><path d="m.00073242 7v17h31.99996758v-17z" fill="#da121a"/><g fill="#fcdd09"><path d="m5.02799.789522c-.38219.630258-.42779 1.134408-.16694 2.004948.12559.40625.26355 1.01291.32151 1.34178.07729.46429.0692.50843.08005.60938.09661 0 .31616.00037.41768-.00024.01459-.16074.02639-.34628.06067-.60141.03996-.29747.15848-.91962.28595-1.35175.25473-.86353.23767-1.39333-.15842-1.993035-.14492-.222471-.33813-.406251-.42508-.406251s-.28365.169856-.41542.396578z"/><path d="m5.86076 4.33313c-.03283.1663-.04083.225-.05729.41244.1171.00047.16312.00127.27727.00059.02499-.12609.04298-.19266.09806-.37163.21832-.69218.86136-.96997.83237-.32191-.00966.17895-.08509.27886-.16905.37479.10379-.02591.32421-.1289.50294-.23047.99507-.5997.60322-2.06917-.44016-1.62423-.54101.23215-.8664.87479-1.04414 1.76042z"/><path d="m4.69434 4.9896c.43662.00224 1.19123.00625 1.55368.00401.00042-.1075.00177-.05264.00266-.13951-.26683-.00257-1.2886.00167-1.55428.00167.00061.0562-.0006.08342-.00206.13383z"/><path d="m4.41943 5.78025s.2175.02448.42034.00967c.20283-.01481.31538-.04016.43526-.09846-.03255.242-.03442.47569-.03442.47569.0295.31143.06288.39114.13033.54271.09152.12644.14474.12713.21202-.00638.07272-.14949.12059-.30324.13578-.53778-.00528-.17579-.0151-.25634-.05668-.47122.14034.0608.22899.07656.43837.09544.21426.01931.41119.00984.41119.00984s-.28941-.14542-.4168-.32377c-.12575-.17605-.09893-.14612-.19036-.37292-.1111-.00527-.6744-.00008-.85312-.00008-.09789.20676-.10773.24994-.22864.38042-.1574.16985-.40327.29684-.40327.29684z"/><path d="m4.02731 2.57247c.54101.23214.8664.87479 1.04415 1.76042.03282.1663.04083.225.05729.41243-.11711.00048-.16313.00128-.27728.00059-.02499-.12609-.04298-.19265-.09805-.37162-.21833-.69218-.86136-.96998-.83238-.32191.00966.17894.08509.27886.16905.37479-.10379-.02591-.32421-.12891-.50294-.23047-.99507-.5997-.60322-2.06917.44016-1.62423z"/><path d="m15.028.789522c-.3822.630258-.4278 1.134408-.167 2.004948.1256.40625.2636 1.01291.3216 1.34178.0773.46429.0692.50843.08.60938.0966 0 .3162.00037.4177-.00024.0146-.16074.0264-.34628.0607-.60141.0399-.29747.1584-.91962.2859-1.35175.2547-.86353.2377-1.39333-.1584-1.993035-.1449-.222471-.3381-.406251-.4251-.406251-.0869 0-.2836.169856-.4154.396578z"/><path d="m16.9049 2.57271c-.541.23215-.8664.87479-1.0441 1.76042-.0329.1663-.0409.225-.0573.41244.1171.00047.1631.00127.2772.00059.025-.12609.043-.19266.0981-.37163.2183-.69218.8614-.96997.8324-.32191-.0097.17895-.0851.27886-.1691.37479.1038-.02591.3242-.1289.503-.23047.995-.5997.6032-2.06917-.4402-1.62423z"/><path d="m14.6943 4.9896c.4367.00224 1.1913.00625 1.5537.00401.0004-.1075.0018-.05264.0027-.13951-.2668-.00257-1.2886.00167-1.5543.00167.0006.0562-.0006.08342-.0021.13383z"/><path d="m14.8227 5.48341c-.1574.16985-.4033.29684-.4033.29684s.2175.02448.4204.00967c.2028-.01481.3154-.04016.4352-.09846-.0325.242-.0344.47569-.0344.47569.0295.31143.0629.39114.1303.54271.0916.12644.1448.12713.2121-.00638.0727-.14949.1205-.30324.1357-.53778-.0052-.17579-.0151-.25634-.0566-.47122.1403.0608.2289.07656.4383.09544.2143.01931.4112.00984.4112.00984s-.2894-.14542-.4168-.32377c-.1257-.17605-.0989-.14612-.1903-.37292-.1111-.00527-.6744-.00008-.8532-.00008-.0979.20676-.1077.24994-.2286.38042z"/><path d="m14.0273 2.57247c.541.23214.8664.87479 1.0442 1.76042.0328.1663.0408.225.0572.41243-.1171.00048-.1631.00128-.2772.00059-.025-.12609-.043-.19265-.0981-.37162-.2183-.69218-.8613-.96998-.8324-.32191.0097.17894.0851.27886.1691.37479-.1038-.02591-.3242-.12891-.5029-.23047-.9951-.5997-.6033-2.06917.4401-1.62423z"/><path d="m25.028.789522c-.3822.630258-.4278 1.134408-.167 2.004948.1256.40625.2636 1.01291.3216 1.34178.0773.46429.0692.50843.08.60938.0966 0 .3162.00037.4177-.00024.0146-.16074.0264-.34628.0607-.60141.0399-.29747.1584-.91962.2859-1.35175.2547-.86353.2377-1.39333-.1584-1.993035-.1449-.222471-.3381-.406251-.4251-.406251-.0869 0-.2836.169856-.4154.396578z"/><path d="m26.9049 2.57271c-.541.23215-.8664.87479-1.0441 1.76042-.0329.1663-.0409.225-.0573.41244.1171.00047.1631.00127.2772.00059.025-.12609.043-.19266.0981-.37163.2183-.69218.8614-.96997.8324-.32191-.0097.17895-.0851.27886-.1691.37479.1038-.02591.3242-.1289.503-.23047.995-.5997.6032-2.06917-.4402-1.62423z"/><path d="m24.6943 4.9896c.4367.00224 1.1913.00625 1.5537.00401.0004-.1075.0018-.05264.0027-.13951-.2668-.00257-1.2886.00167-1.5543.00167.0006.0562-.0006.08342-.0021.13383z"/><path d="m24.8227 5.48341c-.1574.16985-.4033.29684-.4033.29684s.2175.02448.4204.00967c.2028-.01481.3154-.04016.4352-.09846-.0325.242-.0344.47569-.0344.47569.0295.31143.0629.39114.1303.54271.0916.12644.1448.12713.2121-.00638.0727-.14949.1205-.30324.1357-.53778-.0052-.17579-.0151-.25634-.0566-.47122.1403.0608.2289.07656.4383.09544.2143.01931.4112.00984.4112.00984s-.2894-.14542-.4168-.32377c-.1257-.17605-.0989-.14612-.1903-.37292-.1111-.00527-.6744-.00008-.8532-.00008-.0979.20676-.1077.24994-.2286.38042z"/><path d="m24.0273 2.57247c.541.23214.8664.87479 1.0442 1.76042.0328.1663.0408.225.0572.41243-.1171.00048-.1631.00128-.2772.00059-.025-.12609-.043-.19265-.0981-.37162-.2183-.69218-.8613-.96998-.8324-.32191.0097.17894.0851.27886.1691.37479-.1038-.02591-.3242-.12891-.5029-.23047-.9951-.5997-.6033-2.06917.4401-1.62423z"/></g><g fill="#008000"><path d="m11.2988 13.1284c.2098.0979.4776.1751.6127.1796.1596.0054.1172-.0339-.1807-.1499-.2332-.0911-.5121-.2443-.6359-.3394-.2219-.1815-.2219-.1815-.1987-.0218.0133.0913.1806.2332.4026.3315z"/><path d="m9.99406 11.2412c.13524.5417.69554 1.538.88884 1.5767.1739.029.1739.0193.0289-.1451-.2415-.2805-.7632-1.3058-.7632-1.4993 0-.1064-.0483-.1838-.1062-.1838-.06766 0-.08698.0968-.04834.2515z"/><path d="m4.18706 10.562c-.00336.0191.17799.1591.40522.3171.22724.158.49198.3815.57986.4952.15057.2034 1.00353.7076 1.08355.6431.07834-.0549-1.02036-.9462-1.48489-1.205-.55297-.3137-.572-.3171-.58374-.2504z"/><path d="m4.49829 11.3061c0 .0194.20288.1258.45406.2419.25119.116.55067.2901.65694.3869.18356.1741 1.11101.5223 1.17863.4449.06763-.0677-1.16897-.7545-1.67133-.9286-.59898-.2128-.6183-.2128-.6183-.1451z"/><path d="m9.28198 11.3835c0 .1064.37678.8416.59898 1.1511.12554.1741.27054.2708.43474.2708.2415 0 .2415 0-.1256-.4159-.21253-.2225-.4927-.561-.63761-.7448-.14492-.1838-.27051-.2999-.27051-.2612z"/><path d="m7.72648 14.3614c-.63761.2514-.77287.3385-.77287.4739 0 .0581.06763.0484.1739-.0387.08695-.087.40576-.2031.69558-.2708.28983-.0677.63762-.1838.77288-.2515l.24152-.1257h-.28983c-.15457.0096-.53135.1064-.82118.2128z"/><path d="m6.46237 12.8455c-.16424.1257-.15458.1354.20288.0773.21254-.029.52169-.087.67626-.1257.25118-.0677.23186-.0774-.20288-.0871-.28983-.0096-.56033.0484-.67626.1355z"/><path d="m4.06229 11.8284c1.59404.2902 4.7918 1.3639 4.59858 1.5477-.0483.0483-.94677-.1741-1.07236-.2612-.0483-.0484-.52169-.029-1.04338.0387-.97575.1064-1.13998.1934-1.12066.59.00966.1935.00966.1935.05797 0 .08694-.3579.23186-.4352.78253-.4352.59897 0 2.24133.2418 2.96589.4352.96614.2709.99504.2709.67626.0967-.41541-.2321-1.04337-.6577-1.1593-.7834-.21254-.2419-4.06724-1.3058-4.62757-1.2865-.26084.0193-.2705.0193-.05796.058z"/><path d="m4.79519 12.3439c-.11593.087-.24152.2902-.27051.4546-.05796.2805-.05796.2805.09661.0967.40576-.5126.43474-.532.93711-.5417.40576-.0096.46372-.029.2705-.087-.40575-.1257-.81151-.0967-1.03371.0774z"/><path d="m9.71956 12.9408c.07729.1355.83084.5127.88884.4547.0289-.0291-.058-.1064-.1739-.1741-.1256-.0678-.2899-.1742-.3575-.2515-.15456-.1451-.44439-.1741-.35744-.0291z"/><path d="m9.77766 13.8598c.07729.1354.83084.5126.88884.4546.0289-.029-.058-.1064-.1739-.1741-.1256-.0677-.2899-.1741-.3575-.2515-.15456-.1451-.44438-.1741-.35744-.029z"/><path d="m8.69756 12.7082c.0139-.0135.23127.0587.48915.159.25789.1003.59101.195.73433.2044.25256.0112 1.14706.4373 1.13846.5397-.0017.0958-1.35413-.3178-1.82819-.5586-.56898-.2836-.5824-.2975-.53375-.3445z"/><path d="m10.2976 13.415c-.1802.0697-.36146.1958-.41778.2861-.06655.1066-.01023.1076.22218-.0093.1823-.0912.4455-.1661.5899-.1784.2703-.0134.2703-.0134.0983-.121-.0983-.0615-.3072-.0554-.4926.0226z"/><path d="m5.77654 10.1551c.29949.5707 1.51676 1.8862 2.19302 2.3892.18356.1354.51203.2708.71491.2998l.37677.0581-.28016-.3096c-.45406-.4933-1.14965-1.4412-1.37185-1.8571-.24152-.4546-.2705-.3386-.06762.2418.07728.2321.38643.6964.68592 1.0253.29949.3385.4927.6191.4444.6191-.12559 0-.93711-.9576-1.51676-1.7895-.62796-.90921-.65694-.93823-.48305-.4353.08695.2419.28017.5997.44441.7932.15457.2031.25118.3676.20287.3676-.0966 0-.52168-.4837-1.05303-1.1801-.14492-.2031-.34779-.46428-.43474-.58036-.09661-.12574-.02899.03869.14491.35786z"/><path d="m6.34221 13.8985c-.41542.0967-.63762.2418-.63762.4159 0 .0677.03864.058.08695-.0194.07729-.1257.86948-.3578.94677-.2805.01932.0194-.00967.1645-.06763.3096-.05797.1451-.07729.2901-.04831.3192.02899.0387.07729-.0387.10627-.1451.11594-.416.47339-.5417 1.33321-.4643.43474.0387.91778.087 1.07236.0967.16423.0097.38643.0677.50236.1354.25119.1354 1.22693.1451 1.14003.0097-.029-.0484-.2126-.1161-.4155-.1451-.1932-.029-.59893-.1257-.89842-.2031-.59898-.1548-2.51183-.1741-3.12047-.029z"/><path d="m9.87022 15.0149c-.72812-.13-1.0744-.0139-1.36892.4406l-.2513.3903.3232-.3067c.43906-.4269.75814-.4681 1.5473-.2385.3692.1093.6823.1808.6931.1647.0595-.0882-.5632-.392-.94338-.4504z"/><path d="m10.0685 15.2181c-.67622.2998-.89842.59-.88876 1.1317l.00966.4642.09661-.4352c.12559-.5997.36712-.8125 1.14969-1.064.3671-.1161.6666-.2322.6666-.2515 0-.1064-.686-.0097-1.0338.1548z"/><path d="m9.94018 16.0485c-.11593.1547-.20288.3578-.20288.4642 0 .1258.04831.0968.18356-.1257.10624-.1741.28984-.3772.40574-.4643.2222-.1548.2222-.1548.0193-.1548-.1159 0-.2898.1161-.40572.2806z"/><path d="m20.3853 17.6248c.3137.1361 1.9413.5471 3.0929.8847 1.1516.3377 2.4981.7264 2.7961.7683.426-.9296-.3493.8092.0932-.2447-.5752-.1466-2.8422-.6806-3.752-.9424-.7843-.2198-1.8969-.5628-2.1819-.6256-.2849-.0628-.2888.055-.0483.1597z"/><path d="m20.5843 17.3835c.3183.1251 1.9592.4789 3.1219.7761s2.5219.6387 2.8212.6701c.3933-.9439-.3209.8209.0846-.2478-.58-.1264-2.8642-.5809-3.7826-.8107-.7915-.1923-1.9154-.4962-2.2023-.549-.287-.0528-.2868.0651-.0428.1613z"/><path d="m20.1338 17.8001c.3061.1524 1.91.6481 3.0424 1.0456 1.1324.3976 2.4567.8563 2.7521.9137.474-.906-.3911.7898.1058-.2394-.5667-.1765-2.8027-.8286-3.6975-1.1377-.7717-.2607-1.8649-.6615-2.1462-.7391-.2813-.0777-.2913.0398-.0566.1569z"/><path d="m19.9383 17.9983c.2978.1682 1.8735.7472 2.9836 1.2035 1.11.4564 2.4085.9839 2.7006 1.0567.5207-.8799-.4319.7682.1182-.2335-.5567-.206-2.7556-.9744-3.6331-1.3299-.757-.3008-1.8277-.7583-2.1046-.8506-.2768-.0923-.293.0245-.0647.1538z"/><path d="m19.7542 18.2477c.2918.1785 1.8464.8122 2.9399 1.3071 1.0934.4948 2.3727 1.0674 2.6621 1.1504.551-.8613-.4584.7526.1262-.2293-.5491-.2253-2.7199-1.0701-3.5844-1.4561-.7461-.327-1.8002-.8216-2.0737-.9236-.2735-.1019-.2937.0143-.0701.1515z"/></g><path d="m16.4952 20.755c.4485.3129.6952.7477.6708 1.1964l-.0166.3707.1473-.3647c.161-.3816.1389-.9594-.0514-1.3873l-.111-.2496.3525.1537c.5037.2127.8354.5866.9046 1.0308l.0608.3659.0683-.3874c.0783-.4069-.0633-.9672-.3384-1.3462l-.1604-.2211.3767.0769c.5369.1032.9389.4 1.099.82l.1354.3454-.0137-.3932c-.0079-.4143-.2628-.933-.6105-1.2464l-.2028-.1829.3844-.0031c.5466-.0108 1.0015.1957 1.2452.5734l.2041.3095-.095-.3817c-.0937-.4034-.4507-.8577-.8559-1.092l-.2364-.1367.3755-.083c.5323-.1245 1.0202-.017 1.337.3016l.2639.2603-.1722-.3536c-.1754-.3752-.6191-.7453-1.064-.8901l-.2596-.0843.35-.1594c.4948-.2325.9943-.229 1.3703.0166l.3123.1997-.2418-.3101c-.2496-.3305-.7603-.6001-1.2257-.649l-.2713-.0285.3092-.2288c.4358-.3304.9251-.4311 1.3439-.269l.347.1303-.301-.2529c-.3127-.2713-.8683-.4288-1.3336-.3797l-.2714.0285.2549-.2882c.3576-.4139.8154-.6142 1.2587-.5428l.3664.0552-.3469-.1847c-.3622-.2002-.9384-.2386-1.3833-.0939l-.2596.0844.1894-.3349c.2639-.4793.6701-.7704 1.1185-.793l.3699-.0222-.3777-.1084c-.3959-.1205-.9674-.038-1.3726.1961l-.2364.1366.1159-.3671c.1586-.5237.4953-.893.9293-1.0084l.3572-.0988-.3919-.0274c-.4123-.0355-.9542.1641-1.3019.4775l-.2028.1829.0371-.3831c.0463-.5455.2991-.9767.6996-1.1801l.3289-.1708-.3891.0547c-.4106.0511-.8992.3591-1.1742.7381l-.1604.2211-.0433-.3825c-.0679-.543.0897-1.0176.4393-1.2998l.2861-.2356-.3692.1345c-.391.1355-.8049.5385-.9953.9664l-.111.2498-.1218-.3652c-.1792-.517-.1235-1.0141.1598-1.3628l.2311-.29004-.3333.20834c-.3543.2139-.6755.6943-.7728 1.1525l-.0568.2673-.1949-.3317c-.2827-.4686-.3314-.9662-.1267-1.36641l.1657-.33175-.2827.27314c-.3022.28308-.5166.81992-.5166 1.28832v.2732l-.2596-.284c-.3737-.3992-.5247-.876-.4076-1.31003l.0931-.35909-.2198.32621c-.2368.33963-.3351.90931-.2378 1.36761l.0567.2673-.3129-.2238c-.4485-.3128-.6952-.7477-.6708-1.19659l.0165-.37061-.1472.36482c-.161.38158-.1388.95918.0514 1.38718l.111.2497-.3525-.1537c-.5037-.2126-.8354-.5866-.9047-1.0307l-.0607-.36599-.0682.38739c-.0783.4067.0632.9673.3383 1.3462l.1604.221-.3767-.0769c-.5369-.1032-.9389-.3999-1.0989-.82l-.1355-.3453.0137.3932c.0079.4142.2629.9329.6105 1.2463l.2029.1829-.3845.0031c-.5466.0108-1.0015-.1958-1.2452-.5733l-.2042-.3096.0951.3817c.0937.4035.4507.8579.8559 1.0921l.2363.1366-.3754.0831c-.5323.1243-1.0202.017-1.337-.3015l-.26393-.2604.17223.3536c.1755.3752.6191.7452 1.0641.89l.2596.0844-.35.1594c-.4949.2326-.9944.229-1.37049-.0166l-.31229-.1997.24187.3099c.24953.3305.76031.6001 1.22561.6491l.2714.0286-.3092.2287c-.4358.3305-.92512.431-1.34396.269l-.34695-.1302.30096.2528c.31271.2714.86835.4288 1.33365.3798l.2714-.0285-.255.2881c-.3576.414-.81534.6141-1.25867.5429l-.36639-.0553.34696.1848c.36224.2003.9384.2386 1.3834.0938l.2595-.0844-.1895.335c-.2638.4793-.67.7705-1.11845.793l-.36986.0221.37771.1085c.3959.1205.9674.038 1.3726-.1961l.2364-.1367-.1159.367c-.1585.5239-.4953.8932-.9293 1.0086l-.3572.0988.392.0274c.4122.0354.9541-.1642 1.3018-.4777l.2028-.1828-.0371.3833c-.0463.5452-.299.9766-.6996 1.1798l-.3289.171.3891-.0547c.4107-.0511.8993-.3593 1.1743-.7382l.1604-.221.0433.3825c.0679.543-.0898 1.0175-.4393 1.2997l-.2862.2357.3692-.1345c.391-.1354.805-.5386.9953-.9665l.1109-.2496.1218.365c.1792.5172.1236 1.0141-.1598 1.3629l-.231.2901.3332-.2085c.3544-.2139.6756-.6943.7729-1.1525l.0567-.2672.195.3318c.2826.4684.3314.9662.1267 1.3663l-.1657.3318.2827-.2733c.3021-.2829.5166-.8197.5166-1.2882v-.2733l.2596.284c.3737.3994.5247.8761.4077 1.3101l-.0933.3591.2198-.3262c.2368-.3398.3351-.9093.2378-1.3676l-.0567-.2672z" fill="#fcdd09"/></svg>