<svg fill="none" height="15" viewBox="0 0 20 15" width="20" xmlns="http://www.w3.org/2000/svg" xmlns:xlink="http://www.w3.org/1999/xlink"><mask id="a" height="15" maskUnits="userSpaceOnUse" width="20" x="0" y="0"><path d="m0 0h20v15h-20z" fill="#fff"/></mask><mask id="b" height="8" maskUnits="userSpaceOnUse" width="20" x="0" y="7"><path clip-rule="evenodd" d="m0 7.5h20v7.5h-20z" fill="#fff" fill-rule="evenodd"/></mask><mask id="c" height="8" maskUnits="userSpaceOnUse" width="20" x="0" y="0"><path clip-rule="evenodd" d="m0 0h20v7.5h-20z" fill="#fff" fill-rule="evenodd"/></mask><g mask="url(#a)"><path clip-rule="evenodd" d="m0 7.5h20v7.5h-20z" fill="#c51918" fill-rule="evenodd"/><g mask="url(#b)"><path clip-rule="evenodd" d="m7.5 12.5c2.7614 0 5-2.2386 5-5 0-2.76142-2.2386-5-5-5-2.76142 0-5 2.23858-5 5 0 2.7614 2.23858 5 5 5z" fill="#f7fcff" fill-rule="evenodd"/></g><path clip-rule="evenodd" d="m0 0h20v7.5h-20z" fill="#f7fcff" fill-rule="evenodd"/><g mask="url(#c)"><path clip-rule="evenodd" d="m7.5 12.5c2.7614 0 5-2.2386 5-5 0-2.76142-2.2386-5-5-5-2.76142 0-5 2.23858-5 5 0 2.7614 2.23858 5 5 5z" fill="#c51918" fill-rule="evenodd"/></g></g></svg>