<svg fill="none" height="24" viewBox="0 0 32 24" width="32" xmlns="http://www.w3.org/2000/svg" xmlns:xlink="http://www.w3.org/1999/xlink"><mask id="a" height="24" maskUnits="userSpaceOnUse" width="32" x="0" y="0"><path d="m0 0h32v24h-32z" fill="#fff"/></mask><mask id="b" height="24" maskUnits="userSpaceOnUse" width="32" x="0" y="0"><path clip-rule="evenodd" d="m0 0v24h32v-24z" fill="#fff" fill-rule="evenodd"/></mask><mask id="c" height="14" maskUnits="userSpaceOnUse" width="18" x="0" y="0"><path d="m0 0h18v14h-18z" fill="#fff"/></mask><mask id="d" fill="#000" height="18" maskUnits="userSpaceOnUse" width="22" x="-2" y="-2"><path d="m-2-2h22v18h-22z" fill="#fff"/><path clip-rule="evenodd" d="m9.98451 0h-2v6h-7.98451v2h7.98451v6h2v-6h8.01549v-2h-8.01549z" fill="#000" fill-rule="evenodd"/></mask><mask id="e" height="8" maskUnits="userSpaceOnUse" width="6" x="22" y="15"><path clip-rule="evenodd" d="m22.1868 15.1946h5.1846v3.1676s-.4226 2.5883-2.6805 3.8634c0 0-2.1871-1.2927-2.5041-3.8634z" fill="#fff" fill-rule="evenodd"/></mask><g mask="url(#a)"><path clip-rule="evenodd" d="m0 0v24h32v-24z" fill="#2e42a5" fill-rule="evenodd"/><g mask="url(#b)"><path d="m0 0h18v14h-18z" fill="#2b409a"/><g mask="url(#c)"><path d="m-2.00427 12.9999 3.96095 1.7372 16.13322-12.84832 2.0893-2.581529-4.2357-.580621-6.58033 5.53669-5.2965 3.73043z" fill="#f7fcff"/><path d="m-1.46204 14.217 2.017925 1.0081 18.873015-16.157717h-2.8334z" fill="#f50100"/><path d="m20.0043 12.9999-3.961 1.7372-16.1331743-12.84832-2.0893157-2.581529 4.23567-.580621 6.58035 5.53669 5.29647 3.73043z" fill="#f7fcff"/><path d="m19.8691 13.8732-2.0179 1.0081-8.03631-6.91791-2.3826-.77293-9.81249-7.874529h2.833394l9.807006 7.687629 2.6049.92682z" fill="#f50100"/><path clip-rule="evenodd" d="m9.98451 0h-2v6h-7.98451v2h7.98451v6h2v-6h8.01549v-2h-8.01549z" fill="#f50100" fill-rule="evenodd"/><path d="m7.98451 0v-1.5h-1.5v1.5zm2 0h1.49999v-1.5h-1.49999zm-2 6v1.5h1.5v-1.5zm-7.98451 0v-1.5h-1.5v1.5zm0 2h-1.5v1.5h1.5zm7.98451 0h1.5v-1.5h-1.5zm0 6h-1.5v1.5h1.5zm2 0v1.5h1.49999v-1.5zm0-6v-1.5h-1.5v1.5zm8.01549 0v1.5h1.5v-1.5zm0-2h1.5v-1.5h-1.5zm-8.01549 0h-1.5v1.5h1.5zm-2-4.5h2v-3h-2zm1.5 4.5v-6h-3v6zm-9.48451 1.5h7.98451v-3h-7.98451zm1.5.5v-2h-3v2zm6.48451-1.5h-7.98451v3h7.98451zm1.5 7.5v-6h-3v6zm.5-1.5h-2v3h2zm-1.5-4.5v6h2.99999v-6zm9.51549-1.5h-8.01549v3h8.01549zm-1.5-.5v2h3v-2zm-6.51549 1.5h8.01549v-3h-8.01549zm-1.5-7.5v6h2.99999v-6z" fill="#f7fcff" mask="url(#d)"/></g><g clip-rule="evenodd" fill-rule="evenodd"><path d="m20.6161 10.7568s.0987 1.0947-.1178 1.715c-.2164.6203-.3265.9803-.3265.5838 0-.3964-.152-.7107-.2743-.7107-.1222 0-.0257.3932-.1486.3932s-.5462.0676-.5462-.1628-.0557.6181.219.694-.1334.3113-.3156.2384c0 0 .7494.2436 1.0433.4512 0 0 .881 1.0998 1.7051.9656 0 0-1.1221-.3873-.9244-1.1274.1977-.74.9244-.8471.9244-.8471s.341.1141.3307.4128c-.0102.2987.2494-.0935.2494-.0935s.0418-.3775-.0043-.4696.7811-.2704.8332-.659c0 0-.8451.0386-.9031-.0612-.058-.0999.2615-.2564.1616-.4511-.1-.1946-1.5919 1.1097-1.5919 1.1097s.5152-.8878.5152-1.3645c0-.4768-.1309-.8026-.5152-.8026s-.314.1858-.314.1858z" fill="#5eaa22"/><path d="m28.3835 11.017c-.001.0016.0011.003.0025.0017.0555-.0547.3978-.3695.6847-.1205.3132.2719-.1579.5369-.1579.5369s.2202.2135.472.2135.3136-.2135.3136-.2135.0192.4752.8405.6552c0 0 .293-.4207 0-.651 0 0 .3461-.0718.321-.3522 0 0-.2846.097-.4875-.1258s-.5984-.3256-.886-.2742c-.7298-.2632-1.0584.2524-1.1029.3299z" fill="#5eaa22"/><path d="m23.4037 13.415s.8492 1.5974.3184 1.9284 2.5238.0955 2.8116 0c.2878-.0956-.0581-.5992-.3773-.739s-1.6314-.605-1.9804-.9559c-.3491-.3508-.1359-.4753.1452-.8216.2812-.3464 1.322-.4849 1.322-.8086s.6602-1.6587 1.1216-1.7595c.4614-.1007.2122-.25932.1061-.25932s-.744.65752-.9859.53892c-.2418-.1187-.2714-.1103 0-.3971.2714-.28671.4757-.61675.1169-.37928-.3587.23746-.9502.61328-1.2346.61328-.2843 0-1.2965-.1282-1.1708.1631.1256.2912.1789.7968.7247 1.1384.5458.3415.3086.5915-.1452.9206-.4539.3291-.7723.8176-.7723.8176z" fill="#96877d"/></g><path d="m29.0386 11.3025-1.6182 3.2453s-.0471.9168 1.1097.3059c1.1569-.6109 1.1113-1.0441 1.4449-1.0441.3335 0 .4395-.1852.4395-.1852l-.2222-.1748s-.0257-.3186.115-.3902c0 0-.2761-.1521-.3155-.0251-.0395.127-.2341-.2656-.124-.2656 0 0-.2434.3941-.2948.5479 0 0-.3522-.1432-.3353-.8067.0168-.6635-.1991-1.2074-.1991-1.2074z" fill="#ffd018"/><path d="m21.3364 10.7888s-.824.1918-.7351.3914c.0888.1996.2198-.0054-.1837.2352 0 0-.7087.548-.8631.4886-.1545-.0594.1094.138.1094-.4886s-.4116-.1166 0-.5349c.4115-.4183.5558-.0917.7537-.3324.198-.2407.02-.1127.5569-.1127s.3619.3534.3619.3534z" fill="#ffd018"/><path d="m23.8506 14.0139s-2.307 1.813-2.7681 1.9484c-.4611.1353.9483-.0373 1.2927-.2766.3443-.2394 1.4754-1.6718 1.4754-1.6718z" fill="#ffd018"/><path clip-rule="evenodd" d="m28.4246 17.1945s.2214 1.4285-.3567 1.2879c-.578-.1406-.818-.2133-.818-.2133s.2121.6653.5151.6653c0 0 .5162 1.006.3176 1.3237 0 0 .8892-.7214.7454-1.295-.1437-.5736.2299.0944.2299.0944s.3272.158.5638-.0184c.2365-.1765-.003-.0981-.2396-.434-.2365-.336-.1781-1.2795-.8976-1.7685-.7195-.4891-.887-.4734-.887-.4734s-.5299-.8664-.2124-.8091c0 0 2.2751.7799 2.3342.9798s.6625.1633.3608-.4083c-.3017-.5715-1.928-.916-2.1216-1.0771-.1935-.1612-.0134-.7726-.361-.9057-.3476-.1332-1.2972-1.0782-1.2966-1.5336s-.4463-.6698-.8348-.6698-1.1201-.1123-1.4291-.1123c-.3091 0-.5972.5171-.2986.5171s.0435.9679-.4564 1.1795c-.5.2115-.8865.5156-1.4574.5156s.8082.4922 1.028.2978c.2198-.1943.1477-.484.8858-.8134.7381-.3295 1.4426-.5245 1.3534-.2623-.0892.2623.1384.7009.4861.5422.3478-.1588.4593-.5598.4593-.2799s.5332 1.7174.9405 2.2784c.4074.5611 1.4469 1.3924 1.4469 1.3924z" fill="#5eaa22" fill-rule="evenodd"/><g fill="#ffd018"><path d="m23.5712 11.9456s-.2705.4309 0 .4309.7055 0 .4405-.2155c-.2651-.2154-.4405-.2154-.4405-.2154z"/><path d="m24.475 11.935s.0013.2865.1887.2865c.1875 0 .3543.2865.3543 0s.2606-.1915-.1412-.2865c-.4018-.0951-.4018 0-.4018 0z"/><path d="m25.6296 12.0007s-.1807.1361-.0904.3788c.0904.2427.2948.7231 0 .7231-.2947 0-.5373.1731-.307.1731s.6399.1732.6399 0c0-.1731.1667.2856.1667 0 0-.2855 0-.422 0-.5894 0-.1675.1667-.2156 0-.4506s-.4092-.235-.4092-.235z"/><path d="m26.0471 13.6716s.3767 1.1855.5815 1.3383.2967 1.4402.3866 1.5802 1.3147.8464 1.3147 1.2256c0 .3791.3771-.2914.1885-.6668-.1885-.3754-.7822-1.1747-1.2092-1.349s-.3729-.5964-.4626-.8931c-.0898-.2966.5312.2397 0-.4332-.5313-.6728-.5172-.3118-.3676-.3118s.2992-.0795.1496-.184c-.1496-.1046-.5815-.3062-.5815-.3062z"/><path d="m22.0541 16.1165s-1.2234 2.1606-1.4417 2.2722-.3811.1343-.4926 0c-.1116-.1343-.1231.3605 0 .4959.123.1355.4926.1355.6977-.1051 0 0 .0324.6079.352 1.0661.3195.4583.4526.3317.4526.5909 0 .2591.0755.6022.173.6022.0976 0 .1731.8157 0 .8157-.173 0 .401.0669.6513-.1371.2502-.204.3572-.3594.3037-.3594s-.696-.3382-.696-.5774c0-.2393-.432-.4267-.432-.7819s-.2245-.7776-.2245-.9458.192.0649.3975-.0943c.2056-.1593.259-.5698.259-.5698s-.3238.2172-.432.1086c-.1083-.1086-.4489-.323-.2245-.6908.2245-.3678.6565-1.69.6565-1.69z"/></g><path clip-rule="evenodd" d="m24.1743 9.30225s-.4381.19484-.2921.48435c.146.2895.1985.4177.2921.3536.0935-.0641.7498-.18528.6028-.51162-.147-.32633-.455-.32633-.455-.32633z" fill="#5eaa22" fill-rule="evenodd"/><path d="m25.694 9.1456s-.5786-.25604-.3858 0c.1929.25604.4396.39102.6172.39102.1775 0 .5463-.05293.3619-.15622-.1844-.1033-.5933-.2348-.5933-.2348z" fill="#ffd018"/><path clip-rule="evenodd" d="m19.9814 15.8004c.0029-.0156-.0157-.0265-.0272-.0155-.1208.1153-.4815.4982-.3281.8313.1829.3975.3659.5355.3659.5355s.1114.6086.3418.7742c0 0 .3093-.0158.3246-.4895 0 0 .5254-.1541.6798.1739 0 0-.1019.0369-.1019.3156 0 .2788.2377.5807.2377.5807s.1089-.9613.598-1.5812c.4892-.6198.6292-.7421.6292-.7421v-.6975s-1.0121.8247-1.2272 1.5104c0 0-.5097.017-.7168-.0708-.207-.0877.2587-.2318 0-.5438-.2586-.3121-.1401.4394-.4234.2346-.4432-.1232-.3831-.65-.3524-.8158z" fill="#5eaa22" fill-rule="evenodd"/><path clip-rule="evenodd" d="m22.1868 15.1946h5.1846v3.1676s-.4226 2.5883-2.6805 3.8634c0 0-2.1871-1.2927-2.5041-3.8634z" fill="#5eaa22" fill-rule="evenodd"/><g mask="url(#e)"><path clip-rule="evenodd" d="m24.6517 15.0234-2.2652 4.7007 3.0719-2.7896 2.1143 3.5043v-5.4154l-2.1143 1.7332z" fill="#58a5ff" fill-rule="evenodd"/><g fill="#ffd018"><path d="m24.5802 18.4134c0-.0933.0757-.169.169-.169.0934 0 .169.0757.169.169v3.0183c0 .0934-.0756.1691-.169.1691-.0933 0-.169-.0757-.169-.1691z"/><path d="m23.9925 19.1578c-.0917 0-.1661-.0744-.1661-.1661s.0744-.166.1661-.166h1.5272c.0917 0 .166.0743.166.166s-.0743.1661-.166.1661z"/><path d="m24.8159 21.4886-.1309.1063c-.1928-.2342-.3686-.3469-.5239-.3469-.2288 0-.4149-.1908-.5666-.5529l.156-.0645c.1284.3063.268.4495.4106.4495.2159 0 .4331.1391.6548.4085z"/><path clip-rule="evenodd" d="m23.4434 20.119c-.001-.001-.0027-.0003-.0027.0011v.8161c0 .0011.0011.0019.0022.0015l.6138-.2527c.0011-.0005.0013-.0019.0004-.0027z" fill-rule="evenodd"/><path d="m24.677 21.4886.1309.1063c.1928-.2342.3686-.3469.524-.3469.2288 0 .4148-.1908.5665-.5529l-.156-.0645c-.1283.3063-.268.4495-.4105.4495-.216 0-.4331.1391-.6549.4085z"/><path clip-rule="evenodd" d="m26.0495 20.119c.0011-.001.0027-.0003.0027.0011v.8161c0 .0011-.0011.0019-.0022.0015l-.6137-.2527c-.0011-.0005-.0014-.0019-.0005-.0027z" fill-rule="evenodd"/></g><path d="m24.4084 17.0583h.676056v1.00733h-.676056z" fill="#fff"/></g></g></g></svg>