<svg fill="none" height="24" viewBox="0 0 32 24" width="32" xmlns="http://www.w3.org/2000/svg" xmlns:xlink="http://www.w3.org/1999/xlink"><mask id="a" height="24" maskUnits="userSpaceOnUse" width="32" x="0" y="0"><path d="m0 0h32v24h-32z" fill="#fff"/></mask><mask id="b" height="24" maskUnits="userSpaceOnUse" width="32" x="0" y="0"><path clip-rule="evenodd" d="m0 0v24h32v-24z" fill="#fff" fill-rule="evenodd"/></mask><mask id="c" height="6" maskUnits="userSpaceOnUse" width="6" x="13" y="8"><path clip-rule="evenodd" d="m15.9749 8.94971-2.7369 4.73079h5.5168z" fill="#fff" fill-rule="evenodd"/></mask><g mask="url(#a)"><path clip-rule="evenodd" d="m0 0v24h32v-24z" fill="#f7fcff" fill-rule="evenodd"/><g mask="url(#b)"><g clip-rule="evenodd" fill-rule="evenodd"><path d="m0 0v8h32v-8z" fill="#0080ec"/><path d="m0 16v8h32v-8z" fill="#0080ec"/><path d="m16 8c.1885 0 .3739.01303.5554.03825l-.1981 1.27601c-.1169-.0154-.2362-.02335-.3573-.02335-.1761 0-.3484.01681-.5151.04891l-.0926-1.29395c.1982-.03021.4011-.04587.6077-.04587zm1.1521.16841-.3476 1.24396c1.1034.34268 1.9046 1.37163 1.9046 2.58763 0 .0299-.0005.0597-.0015.0893l1.2876.1092c.0032-.0658.0048-.1319.0048-.1985 0-1.8086-1.2004-3.33689-2.8479-3.83159zm2.3613 5.74519c-.6338 1.1614-1.8268 1.9738-3.2171 2.0756v-1.2961c.7407-.0806 1.3917-.4597 1.8302-1.0145zm-6.9366.1568c.664 1.0954 1.839 1.8467 3.1944 1.9232v-1.294c-.79-.0661-1.4836-.4711-1.9349-1.0692zm-.5732-1.8989c-.0024-.0569-.0036-.114-.0036-.1715 0-1.6984 1.0586-3.14963 2.5519-3.72983l.3339 1.25975c-.9349.42239-1.5872 1.35998-1.5948 2.45078z" fill="#d0ab00"/><path d="m15.9749 8.94971-2.7369 4.73079h5.5168z" fill="#7cdfff"/></g><g mask="url(#c)"><path d="m16 15.1181c1.3205 0 2.3909-1.0704 2.3909-2.3909 0-1.3204-1.0704-2.3909-2.3909-2.3909-1.3204 0-2.3909 1.0705-2.3909 2.3909 0 1.3205 1.0705 2.3909 2.3909 2.3909z" stroke="#e31d1c"/><path d="m16 15.1181c1.3205 0 2.3909-1.0704 2.3909-2.3909 0-1.3204-1.0704-2.3909-2.3909-2.3909-1.3204 0-2.3909 1.0705-2.3909 2.3909 0 1.3205 1.0705 2.3909 2.3909 2.3909z" stroke="#ffd018"/><path d="m16 15.1181c1.3205 0 2.3909-1.0704 2.3909-2.3909 0-1.3204-1.0704-2.3909-2.3909-2.3909-1.3204 0-2.3909 1.0705-2.3909 2.3909 0 1.3205 1.0705 2.3909 2.3909 2.3909z" stroke="#4edd00"/><path d="m16 15.1181c1.3205 0 2.3909-1.0704 2.3909-2.3909 0-1.3204-1.0704-2.3909-2.3909-2.3909-1.3204 0-2.3909 1.0705-2.3909 2.3909 0 1.3205 1.0705 2.3909 2.3909 2.3909z" stroke="#3d58db"/><path d="m13.0183 12.2181h6.25455v1.81818h-6.25455z" fill="#3d58db"/><path clip-rule="evenodd" d="m13.437 12.9909 1.2466-1.2396.3826.6198.2672-.7559.2969.5666.3117-.4305.4034.4305.3699-.5666.3161.5666.3627-.4305.8476.9007.1526.3389-4.9573.2515z" fill="#97c923" fill-rule="evenodd"/></g></g></g></svg>