<svg fill="none" height="15" viewBox="0 0 20 15" width="20" xmlns="http://www.w3.org/2000/svg" xmlns:xlink="http://www.w3.org/1999/xlink"><mask id="a" height="15" maskUnits="userSpaceOnUse" width="20" x="0" y="0"><path d="m0 0h20v15h-20z" fill="#fff"/></mask><mask id="b" height="15" maskUnits="userSpaceOnUse" width="20" x="0" y="0"><path clip-rule="evenodd" d="m0 0v15h20v-15z" fill="#fff" fill-rule="evenodd"/></mask><g mask="url(#a)"><path clip-rule="evenodd" d="m0 0h20v15h-20z" fill="#f7fcff" fill-rule="evenodd"/><path clip-rule="evenodd" d="m0 0v15h20v-15z" fill="#5eaa22" fill-rule="evenodd"/><g mask="url(#b)"><path d="m16.25 6.25h3.75v8.75h-3.75z" fill="#ff8126"/><path d="m12.5 6.25h3.75v8.75h-3.75z" fill="#272727"/><path d="m8.75 6.25h3.75v8.75h-3.75z" fill="#c51918"/><path clip-rule="evenodd" d="m13.5095 1.94807c.3384.12439 0 .3148 0 .3148s-.0668-.07763-.0668-.14247c0-.06483-.2592 0-.3928.23526-.1267.22296.1068.22232.3522.22164.0135-.00003.0271-.00007.0406-.00007.1387 0 .3556-.01366.5573-.02636.1753-.01105.3392-.02137.4303-.02137.1959 0 .2885 0 .5469-.17384.168-.113.7233-.25132 1.1362-.35417.2223-.05536.4033-.10044.4604-.12575.163-.07233-.163.3095-.163.3095s1.2575-.50718 1.5094-.68036c.1557-.107.0852-.01568-.03.13343-.0712.09223-.1595.20657-.2219.30976-.1063.17581.1102.0082.3507-.17796.1289-.09974.2646-.20481.3613-.26523.277-.17319-.0705.29658-.2232.44319s.3586 0 .5356-.14661c.1303-.10788.0113.08069-.0888.23944-.036.05698-.0695.11013-.0882.14434l-.003.00545c-.0685.12519-.0902.16497.0738.16497.1664 0-.4294.46316-.4294.46316s.1775-.02817 0 .28022c-.1046.18179-.6141.36543-1.0277.51453-.2881.10384-.5296.19092-.5556.24896-.0467.10421-.5107.22491-.7269.28116-.0771.02006-.1227.03192-.1067.03192.0611 0 .1625.07722.0524.07722-.1102 0-.3037.06229-.3037.06229s.1018 0 0 .14512c-.0488.06951-.1343.0585-.1943.05078-.0652-.0084-.1002-.0129-.0249.09433.0678.09641.0927.1317.0849.14198-.0089.01167-.06-.00889-.1386-.00889-.0701 0-.1451-.03003-.2238-.06155-.087-.03485-.1786-.07154-.2734-.07154-.1732 0 .0007.12263.1093.19924.0045.0032.009.00632.0133.00934.0969.06858.0565.06845-.119.06785-.0177-.00006-.0367-.00013-.0572-.00013-.1088 0-.1674-.01188-.1988-.01825-.033-.0067-.0361-.00732-.0361.01825 0 .02453-.082-.00962-.1807-.0507-.1022-.04254-.2223-.09251-.2877-.09251-.1286 0 .2726.26525.2726.26525s-.209-.06757-.3221-.12204c-.0643-.03096.0174.1151.0912.24695.056.10011.1074.19204.0869.19204-.0156 0-.0501-.01653-.0893-.03537-.0805-.03865-.1813-.08702-.1813-.02223 0 .09637.0925.16797.2056.16797.1132 0 .1318.15051.065.15051-.0232 0-.0517-.00996-.0791-.01952-.0515-.01802-.099-.03461-.099.01952 0 .03493.0201.06107.0433.09133.0319.04154.0698.09082.0698.18119 0 .1562-.1684.17843-.1131.07491.0552-.10352-.1917-.35341-.1917-.2311v.15619c0 .11043-.0213.11749-.0545.12851-.0205.00678-.0455.01507-.0729.04992-.0408.052-.047.0816-.0504.09817-.0034.01641-.0041.02006-.0334.02006-.0231 0-.0424-.03451-.0683-.0809-.0398-.07121-.0952-.1704-.2043-.21576-.1036-.04308-.1091-.01182-.1185.04222-.007.0399-.0161.09223-.0685.13621-.0788.06608-.057.09349-.0309.12627.0147.01856.0309.03884.0309.06884 0 .08298-.1379-.08297-.1379-.19511s-.1567-.26133-.1567-.17843 0 .17843-.0806.17843c-.0387 0-.0402.02764-.0421.06477-.0021.04-.0048.09102-.0553.13034-.0498.03875-.0488.0181-.0464-.02727.0023-.04343.0058-.1095-.0329-.16784-.0486-.07299-.008-.18596.0126-.24341.0131-.03644.0181-.05054-.0126-.01792-.0783.08294-.1781.08292-.2456.0829h-.0026c-.034 0-.0637.04323-.0848.07397-.0209.03034-.0334.04852-.0334.00094 0-.09578.1-.34743.2881-.34743.145 0 .2179-.05878.2806-.1093.0187-.01506.0365-.02939.055-.04121.0806-.05143 0-.11852-.0806-.16797-.0366-.02246-.0233-.09488.0021-.15958.0447-.02876.0785-.06426.0785-.09977 0-.04447-.048.02208-.0785.09977-.0579.03726-.1341.06322-.1788.06322-.043 0-.0161-.07774.0176-.175.0284-.08218.0617-.17831.0617-.25324 0-.07136.0118-.13339.0201-.17629.0106-.05546.0151-.07894-.0201-.04924-.0437.03688-.2767-.00368-.4355-.03134-.0681-.01185-.1225-.02133-.1427-.02133-.0297 0-.0057-.05579.018-.11127.03-.06983.0597-.13917-.018-.09614-.1217.06744-.3691.06459-.5256.06279-.0227-.00026-.0435-.0005-.0617-.0005-.0915 0-.0287-.08071.005-.12399.0192-.02472.0289-.03722-.005-.01552-.0934.05972-.1863.07722-.2913.07722-.0473 0-.0609-.02807-.0757-.0588-.0181-.03743-.038-.0788-.1233-.07814-.1554.00122-.1902-.00121-.2757-.06867-.0445-.03511-.0196-.05575-.0054-.06747.0131-.0108.017-.01404-.051-.01404h-.4215c-.20993 0 .0007-.16349.0763-.16349.0757 0 .1634-.14714 0-.08107-.1045.04229-.2164.03044-.34875.01643-.07441-.00787-.15526-.01643-.2449-.01643-.24904 0-.29678-.11507-.14952-.11507s.15594-.0843-.07295-.0843c-.14358 0-.26164-.03898-.34963-.06803-.05227-.01726-.09392-.03102-.12402-.03102-.08077 0-.1681-.11346 0-.11346.16809 0 .38371-.09457.19976-.09457-.10392 0-.27723-.0553-.42802-.10341-.11611-.03705-.21886-.06984-.26631-.06984-.03642 0 .02054-.01222.09641-.02851.15132-.03247.37788-.0811.08894-.0811-.30854 0-.63184-.25146-.85513-.42513-.09065-.07052-.16483-.12821-.21484-.15105-.17318-.07908 0-.23526.04989-.17042.04989.06483.39919.16452.24789.07763-.15129-.08689-.24789-.23475-.29778-.3148-.04988-.08005-.01147-.13535.04989-.07233s.34455.24466.34455.24466-.15152-.17233-.27179-.44234c-.12028-.27.12027-.20424.32643 0s.39943.25828.49647.27001c.09705.01173-.09704-.14711-.28384-.27001-.1868-.12289-.1444-.56286 0-.38719.07512.0914.43102.26557.77912.43591.32101.1571.63538.31094.71678.39362.14086.14308.02752-.07022-.09526-.30128-.02511-.04724-.0506-.09522-.0744-.14106-.08151-.15697.2461.02138.61881.22429.2684.14612.5602.30498.7395.36052.1235.03826.2709.09952.4183.16072.3636.15103.7264.30174.7264.10591 0-.2752.3325-.70582.6891-.85144.2263-.09241.3329-.00887.467.09631.0772.06054.1636.12825.2872.1737zm-.3836 3.22998c.0805 0 .0584-.83623.0584-.83623s.2376.5128.2376.73469c0 .10134-.0072.13129-.0049.16052.0027.03477.0187.0685.0762.22018.0585.15469.0197.13794-.0861.09225-.0852-.03676-.2138-.09225-.37-.09225-.3504 0 .0083-.27916.0888-.27916z" fill="#ff8126" fill-rule="evenodd"/></g></g></svg>