<svg fill="none" height="24" viewBox="0 0 32 24" width="32" xmlns="http://www.w3.org/2000/svg" xmlns:xlink="http://www.w3.org/1999/xlink"><mask id="a" height="24" maskUnits="userSpaceOnUse" width="32" x="0" y="0"><path d="m0 0h32v24h-32z" fill="#fff"/></mask><mask id="b" height="24" maskUnits="userSpaceOnUse" width="32" x="0" y="0"><path clip-rule="evenodd" d="m0 0v24h32v-24z" fill="#fff" fill-rule="evenodd"/></mask><g mask="url(#a)"><path clip-rule="evenodd" d="m0 0v24h32v-24z" fill="#f50100" fill-rule="evenodd"/><g fill="#ffd018" mask="url(#b)"><path clip-rule="evenodd" d="m0-.0419922v4.0839222l14 5.95124-10.74477-10.0351622zm16 12.0419922 3-12.00003203h-6zm0 0-3 12h6zm-16 7.9512v4.0839h3.25523l10.74477-10.0351zm32-15.8849v-4.0839155h-3.2552l-10.7448 10.0352155zm0 19.9932v-4.0839l-14-5.9513 10.7448 10.0352zm0-15.05953-12 3.00003 12 3zm-20 3.00003-12-3.00003v6.00003z" fill-rule="evenodd"/><path d="m16 17c2.7614 0 5-2.2386 5-5 0-2.76142-2.2386-5-5-5s-5 2.23858-5 5c0 2.7614 2.2386 5 5 5z" stroke="#f50100" stroke-width="2"/></g></g></svg>