<svg fill="none" height="15" viewBox="0 0 20 15" width="20" xmlns="http://www.w3.org/2000/svg" xmlns:xlink="http://www.w3.org/1999/xlink"><clipPath id="a"><path d="m13.4265 6.94543h5v7h-5z"/></clipPath><mask id="b" height="15" maskUnits="userSpaceOnUse" width="20" x="0" y="0"><path d="m0 0h20v15h-20z" fill="#fff"/></mask><mask id="c" height="9" maskUnits="userSpaceOnUse" width="11" x="0" y="0"><path d="m0 0h11v9h-11z" fill="#fff"/></mask><mask id="d" fill="#000" height="11" maskUnits="userSpaceOnUse" width="13" x="-1" y="-1"><path d="m-1-1h13v11h-13z" fill="#fff"/><path clip-rule="evenodd" d="m6 0h-1v4h-5v1h5v4h1v-4h5v-1h-5z" fill="#000" fill-rule="evenodd"/></mask><mask id="e" height="8" maskUnits="userSpaceOnUse" width="6" x="13" y="6"><path d="m13.481 9.27166v-2.27623h4.6412v.00149.00403.00404.00405.00406.00406.00408.00409.00409.00411.00411.00413.00413.00414.00415.00416.00417.00418.00419.00419.00421.00421.00422.00423.00424.00425.00425.00427.00427.00428.00429.0043.00431.00431.00432.00434.00433.00435.00436.00436.00437.00438.00439.00439.0044.00441.00442.00442.00444.00444.00444.00446.00446.00447.00448.00448.00449.0045.0045.00452.00452.00452.00453.00454.00455.00455.00457.00456.00458.00458.00458.0046.0046.0046.00461.00462.00463.00463.00464.00464.00465.00465.00467.00466.00468.00468.00468.00469.0047.0047.00471.00471.00472.00473.00473.00473.00474.00475.00475.00476.00476.00477.00477.00477.00479.00478.0048.00479.0048.00481.00481.00482.00482.00482.00483.00484.00484.00484.00485.00485.00485.00486.00487.00487.00487.00488.00488.00488.00489.00489.0049.0049.0049.00491.00491.00492.00491.00493.00492.00493.00493.00494.00494.00494.00494.00495.00495.00496.00496.00496.00496.00497.00496.00498.00497.00498.00498.00498.00499.00498.00499.005.00499.005.005.005.005.00501.00501.00501.00501.00502.00501.00502.00502.00502.00502.00503.00503.00503.00503.00503.00503.00503.00504.00504.00504.00504.00504.00504.00504.00505.00504.00505.00505.00504.00505.00505.00505.00505.00506.00505.00505.00506.00505.00505.00506.00505.00506.00506.00505.00506.00505.00506.00506.00505.00506.00506.00505.00506.00505.00506.00505.00506.00505.00506.00505.00505.00506.00505.00505.00505.00505.00505.00504.00505.00505.00504.00504.00505.00504.00504.00504.00503.00504.00504.00503.00503.00503.00503.00503.00502.00503.00502.00502.00502.00502.00501.00502.00501.00501.005.00501.005.005.005.00499.005.00499.00499.00498.00499.00498.00498.00497.00497.00498.00496.00497.00496.00496.00495.00496.00494.00495.00494.00494.00494.00493.00493.00493.00492.00492.00492.00491.00491.00491.0049.0049.00489.00489.00489.00488.00488.00487.00487.00487.00486.00486.00485.00485.00484.00484.00484.00483.00483.00482.00482.00481.00481.0048.0048.00479.00479.00479.00478.00477.00477.00476.00476.00475.00475.00474.00474.00473.00473.00472.00472.00471.0047.0047.00469.00469.00468.00468.00467.00466.00466.00465.00465.00464.00463.00463.00462.00461.00461.0046.0046.00459.00458.00458.00457.00456.00456.00455.00454.00453.00453.00452.00452.00451.0045.00449.00449.00448.00447.00446.00446.00445.00444.00444.00443.00442.00441.0044.0044.00439.00438.00438.00436.00436.00435.00434.00434.00432.00432.00431.0043.00429.00429.00427.00427.00426.00425.00425.00423.00422.00422.00421.0042.00419.00418.00417.00416.00416.00414.00414.00413.00411.00411.0041.00409.00408.00407.00407.00405.00404.00403.00403.00401.004.004.00398.00398.00396.00396.00394.00394.00392.00391.00391.00389.00389.00387.00386.00386.00384.00383.00382.00381.0038.00379.00378.00377.00375.00375.00373.00373.00371.0037.0037.00368.00366.00366.00365.00363.00363.00361.0036.00359.00358.00356.00356.00354.00353.00352.00351.00349.00349.00347.00346.00345.00343.00343.00341.0034.00338.00338.00336.00335.00334.00332.00332.0033.00328.00328.00326.00325.00323.00323c0 1.46524-.5434 2.43434-1.0961 3.03734-.2766.3018-.5559.5122-.7712.6469-.1076.0674-.199.1157-.2657.147-.0334.0157-.0603.0269-.0797.0341-.0097.0036-.0171.006-.0222.0075-.0003 0-.0006.0001-.0009.0002-.0003-.0001-.0008-.0002-.0012-.0003-.0054-.0015-.0133-.004-.0236-.0077-.0206-.0072-.0492-.0186-.0848-.0343-.0712-.0314-.1691-.0798-.2846-.1473-.231-.1349-.5317-.3455-.8297-.6475-.5954-.6032-1.1815-1.572-1.1815-3.03594z" fill="#fff"/><path d="m13.481 9.27166v-2.27623h4.6412v.00149.00403.00404.00405.00406.00406.00408.00409.00409.00411.00411.00413.00413.00414.00415.00416.00417.00418.00419.00419.00421.00421.00422.00423.00424.00425.00425.00427.00427.00428.00429.0043.00431.00431.00432.00434.00433.00435.00436.00436.00437.00438.00439.00439.0044.00441.00442.00442.00444.00444.00444.00446.00446.00447.00448.00448.00449.0045.0045.00452.00452.00452.00453.00454.00455.00455.00457.00456.00458.00458.00458.0046.0046.0046.00461.00462.00463.00463.00464.00464.00465.00465.00467.00466.00468.00468.00468.00469.0047.0047.00471.00471.00472.00473.00473.00473.00474.00475.00475.00476.00476.00477.00477.00477.00479.00478.0048.00479.0048.00481.00481.00482.00482.00482.00483.00484.00484.00484.00485.00485.00485.00486.00487.00487.00487.00488.00488.00488.00489.00489.0049.0049.0049.00491.00491.00492.00491.00493.00492.00493.00493.00494.00494.00494.00494.00495.00495.00496.00496.00496.00496.00497.00496.00498.00497.00498.00498.00498.00499.00498.00499.005.00499.005.005.005.005.00501.00501.00501.00501.00502.00501.00502.00502.00502.00502.00503.00503.00503.00503.00503.00503.00503.00504.00504.00504.00504.00504.00504.00504.00505.00504.00505.00505.00504.00505.00505.00505.00505.00506.00505.00505.00506.00505.00505.00506.00505.00506.00506.00505.00506.00505.00506.00506.00505.00506.00506.00505.00506.00505.00506.00505.00506.00505.00506.00505.00505.00506.00505.00505.00505.00505.00505.00504.00505.00505.00504.00504.00505.00504.00504.00504.00503.00504.00504.00503.00503.00503.00503.00503.00502.00503.00502.00502.00502.00502.00501.00502.00501.00501.005.00501.005.005.005.00499.005.00499.00499.00498.00499.00498.00498.00497.00497.00498.00496.00497.00496.00496.00495.00496.00494.00495.00494.00494.00494.00493.00493.00493.00492.00492.00492.00491.00491.00491.0049.0049.00489.00489.00489.00488.00488.00487.00487.00487.00486.00486.00485.00485.00484.00484.00484.00483.00483.00482.00482.00481.00481.0048.0048.00479.00479.00479.00478.00477.00477.00476.00476.00475.00475.00474.00474.00473.00473.00472.00472.00471.0047.0047.00469.00469.00468.00468.00467.00466.00466.00465.00465.00464.00463.00463.00462.00461.00461.0046.0046.00459.00458.00458.00457.00456.00456.00455.00454.00453.00453.00452.00452.00451.0045.00449.00449.00448.00447.00446.00446.00445.00444.00444.00443.00442.00441.0044.0044.00439.00438.00438.00436.00436.00435.00434.00434.00432.00432.00431.0043.00429.00429.00427.00427.00426.00425.00425.00423.00422.00422.00421.0042.00419.00418.00417.00416.00416.00414.00414.00413.00411.00411.0041.00409.00408.00407.00407.00405.00404.00403.00403.00401.004.004.00398.00398.00396.00396.00394.00394.00392.00391.00391.00389.00389.00387.00386.00386.00384.00383.00382.00381.0038.00379.00378.00377.00375.00375.00373.00373.00371.0037.0037.00368.00366.00366.00365.00363.00363.00361.0036.00359.00358.00356.00356.00354.00353.00352.00351.00349.00349.00347.00346.00345.00343.00343.00341.0034.00338.00338.00336.00335.00334.00332.00332.0033.00328.00328.00326.00325.00323.00323c0 1.46524-.5434 2.43434-1.0961 3.03734-.2766.3018-.5559.5122-.7712.6469-.1076.0674-.199.1157-.2657.147-.0334.0157-.0603.0269-.0797.0341-.0097.0036-.0171.006-.0222.0075-.0003 0-.0006.0001-.0009.0002-.0003-.0001-.0008-.0002-.0012-.0003-.0054-.0015-.0133-.004-.0236-.0077-.0206-.0072-.0492-.0186-.0848-.0343-.0712-.0314-.1691-.0798-.2846-.1473-.231-.1349-.5317-.3455-.8297-.6475-.5954-.6032-1.1815-1.572-1.1815-3.03594z" fill="none" stroke="#fff" stroke-width=".1"/></mask><g mask="url(#b)"><path clip-rule="evenodd" d="m0 0h20v15h-20z" fill="#2e42a5" fill-rule="evenodd"/></g><path d="m0 0h11v9h-11z" fill="#2e42a5"/><g mask="url(#c)"><path d="m-1.25269 8.12482 2.4756 1.08575 10.08329-8.03017 1.3058-1.61346-2.64732-.362889-4.11271 3.460429-3.31032 2.33152z" fill="#f7fcff"/><path d="m-.913757 8.88555 1.261201.63007 11.795656-10.098567h-1.7709z" fill="#f50100"/><path d="m12.5026 8.12493-2.1971 1.3957-10.3617172-8.34013-1.3058228-1.613454 2.6473-.36289 4.11271 3.460434 3.31031 2.33152z" fill="#f7fcff"/><path d="m12.4182 8.67082-1.2612.63008-5.02275-4.32372-1.48913-.48308-6.13281-4.921582h1.770875l6.129365 4.804762 1.62809.57927z" fill="#f50100"/><path clip-rule="evenodd" d="m6 0h-1v4h-5v1h5v4h1v-4h5v-1h-5z" fill="#f50100" fill-rule="evenodd"/><path d="m5 0v-.9375h-.9375v.9375zm1 0h.9375v-.9375h-.9375zm-1 4v.9375h.9375v-.9375zm-5 0v-.9375h-.9375v.9375zm0 1h-.9375v.9375h.9375zm5 0h.9375v-.9375h-.9375zm0 4h-.9375v.9375h.9375zm1 0v.9375h.9375v-.9375zm0-4v-.9375h-.9375v.9375zm5 0v.9375h.9375v-.9375zm0-1h.9375v-.9375h-.9375zm-5 0h-.9375v.9375h.9375zm-1-3.0625h1v-1.875h-1zm.9375 3.0625v-4h-1.875v4zm-5.9375.9375h5v-1.875h-5zm.9375.0625v-1h-1.875v1zm4.0625-.9375h-5v1.875h5zm.9375 4.9375v-4h-1.875v4zm.0625-.9375h-1v1.875h1zm-.9375-3.0625v4h1.875v-4zm5.9375-.9375h-5v1.875h5zm-.9375-.0625v1h1.875v-1zm-4.0625.9375h5v-1.875h-5zm-.9375-4.9375v4h1.875v-4z" fill="#f7fcff" mask="url(#d)"/></g><g clip-path="url(#a)"><path d="m13.481 9.27166v-2.27623h4.6412v.00149.00403.00404.00405.00406.00406.00408.00409.00409.00411.00411.00413.00413.00414.00415.00416.00417.00418.00419.00419.00421.00421.00422.00423.00424.00425.00425.00427.00427.00428.00429.0043.00431.00431.00432.00434.00433.00435.00436.00436.00437.00438.00439.00439.0044.00441.00442.00442.00444.00444.00444.00446.00446.00447.00448.00448.00449.0045.0045.00452.00452.00452.00453.00454.00455.00455.00457.00456.00458.00458.00458.0046.0046.0046.00461.00462.00463.00463.00464.00464.00465.00465.00467.00466.00468.00468.00468.00469.0047.0047.00471.00471.00472.00473.00473.00473.00474.00475.00475.00476.00476.00477.00477.00477.00479.00478.0048.00479.0048.00481.00481.00482.00482.00482.00483.00484.00484.00484.00485.00485.00485.00486.00487.00487.00487.00488.00488.00488.00489.00489.0049.0049.0049.00491.00491.00492.00491.00493.00492.00493.00493.00494.00494.00494.00494.00495.00495.00496.00496.00496.00496.00497.00496.00498.00497.00498.00498.00498.00499.00498.00499.005.00499.005.005.005.005.00501.00501.00501.00501.00502.00501.00502.00502.00502.00502.00503.00503.00503.00503.00503.00503.00503.00504.00504.00504.00504.00504.00504.00504.00505.00504.00505.00505.00504.00505.00505.00505.00505.00506.00505.00505.00506.00505.00505.00506.00505.00506.00506.00505.00506.00505.00506.00506.00505.00506.00506.00505.00506.00505.00506.00505.00506.00505.00506.00505.00505.00506.00505.00505.00505.00505.00505.00504.00505.00505.00504.00504.00505.00504.00504.00504.00503.00504.00504.00503.00503.00503.00503.00503.00502.00503.00502.00502.00502.00502.00501.00502.00501.00501.005.00501.005.005.005.00499.005.00499.00499.00498.00499.00498.00498.00497.00497.00498.00496.00497.00496.00496.00495.00496.00494.00495.00494.00494.00494.00493.00493.00493.00492.00492.00492.00491.00491.00491.0049.0049.00489.00489.00489.00488.00488.00487.00487.00487.00486.00486.00485.00485.00484.00484.00484.00483.00483.00482.00482.00481.00481.0048.0048.00479.00479.00479.00478.00477.00477.00476.00476.00475.00475.00474.00474.00473.00473.00472.00472.00471.0047.0047.00469.00469.00468.00468.00467.00466.00466.00465.00465.00464.00463.00463.00462.00461.00461.0046.0046.00459.00458.00458.00457.00456.00456.00455.00454.00453.00453.00452.00452.00451.0045.00449.00449.00448.00447.00446.00446.00445.00444.00444.00443.00442.00441.0044.0044.00439.00438.00438.00436.00436.00435.00434.00434.00432.00432.00431.0043.00429.00429.00427.00427.00426.00425.00425.00423.00422.00422.00421.0042.00419.00418.00417.00416.00416.00414.00414.00413.00411.00411.0041.00409.00408.00407.00407.00405.00404.00403.00403.00401.004.004.00398.00398.00396.00396.00394.00394.00392.00391.00391.00389.00389.00387.00386.00386.00384.00383.00382.00381.0038.00379.00378.00377.00375.00375.00373.00373.00371.0037.0037.00368.00366.00366.00365.00363.00363.00361.0036.00359.00358.00356.00356.00354.00353.00352.00351.00349.00349.00347.00346.00345.00343.00343.00341.0034.00338.00338.00336.00335.00334.00332.00332.0033.00328.00328.00326.00325.00323.00323c0 1.46524-.5434 2.43434-1.0961 3.03734-.2766.3018-.5559.5122-.7712.6469-.1076.0674-.199.1157-.2657.147-.0334.0157-.0603.0269-.0797.0341-.0097.0036-.0171.006-.0222.0075-.0003 0-.0006.0001-.0009.0002-.0003-.0001-.0008-.0002-.0012-.0003-.0054-.0015-.0133-.004-.0236-.0077-.0206-.0072-.0492-.0186-.0848-.0343-.0712-.0314-.1691-.0798-.2846-.1473-.231-.1349-.5317-.3455-.8297-.6475-.5954-.6032-1.1815-1.572-1.1815-3.03594z" fill="#fff"/><path d="m13.481 9.27166v-2.27623h4.6412v.00149.00403.00404.00405.00406.00406.00408.00409.00409.00411.00411.00413.00413.00414.00415.00416.00417.00418.00419.00419.00421.00421.00422.00423.00424.00425.00425.00427.00427.00428.00429.0043.00431.00431.00432.00434.00433.00435.00436.00436.00437.00438.00439.00439.0044.00441.00442.00442.00444.00444.00444.00446.00446.00447.00448.00448.00449.0045.0045.00452.00452.00452.00453.00454.00455.00455.00457.00456.00458.00458.00458.0046.0046.0046.00461.00462.00463.00463.00464.00464.00465.00465.00467.00466.00468.00468.00468.00469.0047.0047.00471.00471.00472.00473.00473.00473.00474.00475.00475.00476.00476.00477.00477.00477.00479.00478.0048.00479.0048.00481.00481.00482.00482.00482.00483.00484.00484.00484.00485.00485.00485.00486.00487.00487.00487.00488.00488.00488.00489.00489.0049.0049.0049.00491.00491.00492.00491.00493.00492.00493.00493.00494.00494.00494.00494.00495.00495.00496.00496.00496.00496.00497.00496.00498.00497.00498.00498.00498.00499.00498.00499.005.00499.005.005.005.005.00501.00501.00501.00501.00502.00501.00502.00502.00502.00502.00503.00503.00503.00503.00503.00503.00503.00504.00504.00504.00504.00504.00504.00504.00505.00504.00505.00505.00504.00505.00505.00505.00505.00506.00505.00505.00506.00505.00505.00506.00505.00506.00506.00505.00506.00505.00506.00506.00505.00506.00506.00505.00506.00505.00506.00505.00506.00505.00506.00505.00505.00506.00505.00505.00505.00505.00505.00504.00505.00505.00504.00504.00505.00504.00504.00504.00503.00504.00504.00503.00503.00503.00503.00503.00502.00503.00502.00502.00502.00502.00501.00502.00501.00501.005.00501.005.005.005.00499.005.00499.00499.00498.00499.00498.00498.00497.00497.00498.00496.00497.00496.00496.00495.00496.00494.00495.00494.00494.00494.00493.00493.00493.00492.00492.00492.00491.00491.00491.0049.0049.00489.00489.00489.00488.00488.00487.00487.00487.00486.00486.00485.00485.00484.00484.00484.00483.00483.00482.00482.00481.00481.0048.0048.00479.00479.00479.00478.00477.00477.00476.00476.00475.00475.00474.00474.00473.00473.00472.00472.00471.0047.0047.00469.00469.00468.00468.00467.00466.00466.00465.00465.00464.00463.00463.00462.00461.00461.0046.0046.00459.00458.00458.00457.00456.00456.00455.00454.00453.00453.00452.00452.00451.0045.00449.00449.00448.00447.00446.00446.00445.00444.00444.00443.00442.00441.0044.0044.00439.00438.00438.00436.00436.00435.00434.00434.00432.00432.00431.0043.00429.00429.00427.00427.00426.00425.00425.00423.00422.00422.00421.0042.00419.00418.00417.00416.00416.00414.00414.00413.00411.00411.0041.00409.00408.00407.00407.00405.00404.00403.00403.00401.004.004.00398.00398.00396.00396.00394.00394.00392.00391.00391.00389.00389.00387.00386.00386.00384.00383.00382.00381.0038.00379.00378.00377.00375.00375.00373.00373.00371.0037.0037.00368.00366.00366.00365.00363.00363.00361.0036.00359.00358.00356.00356.00354.00353.00352.00351.00349.00349.00347.00346.00345.00343.00343.00341.0034.00338.00338.00336.00335.00334.00332.00332.0033.00328.00328.00326.00325.00323.00323c0 1.46524-.5434 2.43434-1.0961 3.03734-.2766.3018-.5559.5122-.7712.6469-.1076.0674-.199.1157-.2657.147-.0334.0157-.0603.0269-.0797.0341-.0097.0036-.0171.006-.0222.0075-.0003 0-.0006.0001-.0009.0002-.0003-.0001-.0008-.0002-.0012-.0003-.0054-.0015-.0133-.004-.0236-.0077-.0206-.0072-.0492-.0186-.0848-.0343-.0712-.0314-.1691-.0798-.2846-.1473-.231-.1349-.5317-.3455-.8297-.6475-.5954-.6032-1.1815-1.572-1.1815-3.03594z" stroke="#0b50a0" stroke-width=".1"/><path d="m13.481 9.27166v-2.27623h4.6412v.00149.00403.00404.00405.00406.00406.00408.00409.00409.00411.00411.00413.00413.00414.00415.00416.00417.00418.00419.00419.00421.00421.00422.00423.00424.00425.00425.00427.00427.00428.00429.0043.00431.00431.00432.00434.00433.00435.00436.00436.00437.00438.00439.00439.0044.00441.00442.00442.00444.00444.00444.00446.00446.00447.00448.00448.00449.0045.0045.00452.00452.00452.00453.00454.00455.00455.00457.00456.00458.00458.00458.0046.0046.0046.00461.00462.00463.00463.00464.00464.00465.00465.00467.00466.00468.00468.00468.00469.0047.0047.00471.00471.00472.00473.00473.00473.00474.00475.00475.00476.00476.00477.00477.00477.00479.00478.0048.00479.0048.00481.00481.00482.00482.00482.00483.00484.00484.00484.00485.00485.00485.00486.00487.00487.00487.00488.00488.00488.00489.00489.0049.0049.0049.00491.00491.00492.00491.00493.00492.00493.00493.00494.00494.00494.00494.00495.00495.00496.00496.00496.00496.00497.00496.00498.00497.00498.00498.00498.00499.00498.00499.005.00499.005.005.005.005.00501.00501.00501.00501.00502.00501.00502.00502.00502.00502.00503.00503.00503.00503.00503.00503.00503.00504.00504.00504.00504.00504.00504.00504.00505.00504.00505.00505.00504.00505.00505.00505.00505.00506.00505.00505.00506.00505.00505.00506.00505.00506.00506.00505.00506.00505.00506.00506.00505.00506.00506.00505.00506.00505.00506.00505.00506.00505.00506.00505.00505.00506.00505.00505.00505.00505.00505.00504.00505.00505.00504.00504.00505.00504.00504.00504.00503.00504.00504.00503.00503.00503.00503.00503.00502.00503.00502.00502.00502.00502.00501.00502.00501.00501.005.00501.005.005.005.00499.005.00499.00499.00498.00499.00498.00498.00497.00497.00498.00496.00497.00496.00496.00495.00496.00494.00495.00494.00494.00494.00493.00493.00493.00492.00492.00492.00491.00491.00491.0049.0049.00489.00489.00489.00488.00488.00487.00487.00487.00486.00486.00485.00485.00484.00484.00484.00483.00483.00482.00482.00481.00481.0048.0048.00479.00479.00479.00478.00477.00477.00476.00476.00475.00475.00474.00474.00473.00473.00472.00472.00471.0047.0047.00469.00469.00468.00468.00467.00466.00466.00465.00465.00464.00463.00463.00462.00461.00461.0046.0046.00459.00458.00458.00457.00456.00456.00455.00454.00453.00453.00452.00452.00451.0045.00449.00449.00448.00447.00446.00446.00445.00444.00444.00443.00442.00441.0044.0044.00439.00438.00438.00436.00436.00435.00434.00434.00432.00432.00431.0043.00429.00429.00427.00427.00426.00425.00425.00423.00422.00422.00421.0042.00419.00418.00417.00416.00416.00414.00414.00413.00411.00411.0041.00409.00408.00407.00407.00405.00404.00403.00403.00401.004.004.00398.00398.00396.00396.00394.00394.00392.00391.00391.00389.00389.00387.00386.00386.00384.00383.00382.00381.0038.00379.00378.00377.00375.00375.00373.00373.00371.0037.0037.00368.00366.00366.00365.00363.00363.00361.0036.00359.00358.00356.00356.00354.00353.00352.00351.00349.00349.00347.00346.00345.00343.00343.00341.0034.00338.00338.00336.00335.00334.00332.00332.0033.00328.00328.00326.00325.00323.00323c0 1.46524-.5434 2.43434-1.0961 3.03734-.2766.3018-.5559.5122-.7712.6469-.1076.0674-.199.1157-.2657.147-.0334.0157-.0603.0269-.0797.0341-.0097.0036-.0171.006-.0222.0075-.0003 0-.0006.0001-.0009.0002-.0003-.0001-.0008-.0002-.0012-.0003-.0054-.0015-.0133-.004-.0236-.0077-.0206-.0072-.0492-.0186-.0848-.0343-.0712-.0314-.1691-.0798-.2846-.1473-.231-.1349-.5317-.3455-.8297-.6475-.5954-.6032-1.1815-1.572-1.1815-3.03594z" stroke="#f7fcff" stroke-width=".1"/><g mask="url(#e)"><path d="m13.1265 6.63293h5.4v2.125h-5.4z" fill="#f50100"/><path d="m15.5337 9.19543c.1728 0 .5184-.19591.6048-.24112.3168-.19591.5472-.01507.7344.07535.2016.09042.576.19591.8064 0s.36-.18084.5184-.18084c.0288-.22605.0288-.4521.0288-.7083v-.18084c-.2016-.04521-.3024.01507-.5184.21098-.216.19592-.4608.15071-.7776.03014-.3024-.13563-.6048-.37675-.9072 0-.0864.1055-.288.2562-.4896.2562-.216 0-.4032-.1507-.4896-.2562-.3168-.37675-.6048-.13563-.9072 0-.3168.12057-.576.16578-.792-.03014-.2016-.19591-.3024-.25619-.5184-.21098v.18084c0 .2562.0144.48225.0432.7083.1584 0 .2736-.01507.504.18084s.6192.09042.8064 0c.2016-.09042.432-.27126.7488-.07535.0864.04521.4176.24112.6048.24112z" fill="#f50100"/><path clip-rule="evenodd" d="m14.0767 7.60103s.1301.00628.2843.17201c.1541.16572.7212.06024.7212-.03973s-.3441-.15969-.2119-.33063c.1322-.17093.3562-.17124.5362-.08219.0516 0 .0459.58473.1637.55263.3731-.10165.9749-.30307 1.1515-.21666.2322.1137.4099.08542.3509-.07772s-.2108-.2651-.503-.17606c-.2921.08905-.2232.17606-.4757.17606s-.6858.14231-.4934-.17606c.1724-.28528.3781-.29086.4566-.17093.0402.06135-.2874.19684-.2874.25998 0 .08701.8438-.17111.952-.17111.1081 0 .4058-.00698.4353.08206.0295.08905.2092.17076.0722.25378-.137.08301-.3629.13501-.2075.24137.1555.10636.5493.15473.5666.26537.0172.11063.1866.27584.1186.27584s-.1909.15581-.3053.10837-.1279-.0891-.0181-.12753c.1097-.03843.1086-.20006.0181-.20006s-.0827-.01224-.2888-.06886c-.206-.05663-.4787-.11958-.4623 0 .0164.11957.1559.37622-.0916.40068-.2475.02447-.3633.12268-.4115.04359s-.2203-.18448-.0849-.21828c.1353-.03379.2647.11487.3135.0906.0487-.02427.1539-.11089.0613-.21374-.0925-.10285-.2723-.10634-.1308-.18332.1415-.07699.057-.13564-.2126.02384s-.4196.29501-.6562.27585c-.2367-.01917-.3429.06853-.419.04268s-.4466.28563-.5533.20658-.4511-.10938-.3891-.20658c.062-.09721.1453-.14725.238-.09721.0927.05005.1848.10009.2474.05005.0625-.05005.2606-.28361.2152-.31795-.0454-.03433-.2055-.09312-.4626-.09312-.2572 0-.2631-.17798-.3241-.25914-.0611-.08117.0865-.09446.0865-.09446z" fill="#ffd100" fill-rule="evenodd"/><g fill="#0b50a0"><path d="m15.5337 10.6954c.1728 0 .5184-.1959.6048-.2411.3168-.1959.5472-.0151.7344.0754.2016.0904.576.1959.8064 0s.36-.1809.5184-.1809c.0288-.226.0288-.45208.0288-.70828v-.18084c-.2016-.04521-.3024.01507-.5184.21098-.216.19592-.4608.15071-.7776.03014-.3024-.13563-.6048-.37675-.9072 0-.0864.1055-.288.2562-.4896.2562-.216 0-.4032-.1507-.4896-.2562-.3168-.37675-.6048-.13563-.9072 0-.3168.12057-.576.16578-.792-.03014-.2016-.19591-.3024-.25619-.5184-.21098v.18084c0 .2562.0144.48228.0432.70828.1584 0 .2736-.015.504.1809s.6192.0904.8064 0c.2016-.0905.432-.2713.7488-.0754.0864.0452.4176.2411.6048.2411z"/><path d="m15.5337 12.1329c.1728 0 .5184-.1959.6048-.2411.3168-.1959.5472-.0151.7344.0754.2016.0904.576.1959.8064 0s.36-.1809.5184-.1809c.0288-.226.0288-.4521.0288-.7083v-.1808c-.2016-.0452-.3024.0151-.5184.211s-.4608.1507-.7776.0301c-.3024-.1356-.6048-.3767-.9072 0-.0864.1055-.288.2562-.4896.2562-.216 0-.4032-.1507-.4896-.2562-.3168-.3767-.6048-.1356-.9072 0-.3168.1206-.576.1658-.792-.0301-.2016-.1959-.3024-.2562-.5184-.211v.1808c0 .2562.0144.4823.0432.7083.1584 0 .2736-.015.504.1809s.6192.0904.8064 0c.2016-.0905.432-.2713.7488-.0754.0864.0452.4176.2411.6048.2411z"/><path d="m15.5337 13.5704c.1728 0 .5184-.1959.6048-.2411.3168-.1959.5472-.0151.7344.0754.2016.0904.576.1959.8064 0s.36-.1809.5184-.1809c.0288-.226.0288-.4521.0288-.7083v-.1808c-.2016-.0452-.3024.0151-.5184.211s-.4608.1507-.7776.0301c-.3024-.1356-.6048-.3767-.9072 0-.0864.1055-.288.2562-.4896.2562-.216 0-.4032-.1507-.4896-.2562-.3168-.3767-.6048-.1356-.9072 0-.3168.1206-.576.1658-.792-.0301-.2016-.1959-.3024-.2562-.5184-.211v.1808c0 .2562.0144.4823.0432.7083.1584 0 .2736-.015.504.1809s.6192.0904.8064 0c.2016-.0905.432-.2713.7488-.0754.0864.0452.4176.2411.6048.2411z"/></g><g fill="#059334" stroke="#ffd100" stroke-width=".1"><path d="m15.8712 11.656-.0248-.013-.0241.0142-.2702.1602.0789-.333.0068-.0284-.0215-.0198-.2621-.2422h.3372.0348l.0121-.0327.1127-.3061.1332.3086.013.0302h.0329.2801l-.2315.2445-.0206.0218.0095.0285.1102.3292z"/><path d="m14.6712 10.406-.0248-.013-.0241.0142-.2702.1602.0789-.333.0068-.0284-.0215-.0198-.2621-.2422h.3371.0349l.0121-.03273.1127-.30611.1332.30865.013.03019h.0329.2801l-.2315.2445-.0206.0218.0095.0285.1101.3292z"/><path d="m17.0712 10.406-.0248-.013-.024.0142-.2703.1602.0789-.333.0068-.0284-.0215-.0198-.2621-.2422h.3372.0348l.0121-.03273.1127-.30611.1332.30865.0131.03019h.0328.2802l-.2316.2445-.0206.0218.0095.0285.1102.3292z"/></g></g></g><g fill="#ffd100"><path d="m13.0286 12.9669c.0551.1229.4501.2842.9095.0768.3123-.1459.5144-.3533.7073-.7219.0552-.0922.0827-.2074-.0459-.2765-.1011-.0614-.2664-.1306-.3399-.192-.0367-.0307-.0735-.0538-.1011-.0768.0184.0153.0368.0307.0552.0537.1837.1844-.0092.4532-.2113.6145-.147.1152-.4134.3993-.7993.1305-.0826-.0614-.2756.192-.1745.3917z"/><path d="m18.614 12.9669c-.0643.1229-.4593.2842-.9095.0768-.3123-.1459-.5144-.3533-.7165-.7219-.046-.0922-.0735-.2074.0551-.2765.101-.0614.2664-.1306.3399-.192.0367-.0307.0643-.0538.101-.0768-.0183.0153-.0367.0307-.0551.0537-.1837.1844.0092.4532.2021.6145.147.1152.4226.3993.8084.1305.0827-.0614.2665.192.1746.3917z"/><path d="m15.8213 13.6274c.735 0 1.8649-.2765 2.4712-1.2442.1011-.1613 0-.2458-.1194-.2995-.1286-.0461-.2848-.1536-.3674-.2227.1469.1228.1194.2073.0183.3456-.4685.6528-1.1116.983-2.0026.983-.8912 0-1.5342-.3302-2.0027-.983-.1011-.1383-.1286-.2228.0092-.3456-.0735.0691-.2389.1766-.3675.2227-.1194.0537-.2205.1382-.1194.2995.6063.9677 1.7454 1.2442 2.4804 1.2442z"/></g><path d="m14.1218 12.3295c-.0184-.0768-.1378-.0461-.1746.0461-.0459-.0538-.0918-.1076-.1286-.169-.1102-.1382-.1286-.2304.0276-.361.0735-.0614.2205-.1305.3215-.0537.2113.1459.1011.384-.0459.5376z" fill="#f50100"/><path d="m17.5116 12.3295c.0184-.0768.147-.0461.1838.0461.0459-.0538.0918-.1076.1286-.169.1102-.1382.1286-.2304-.0368-.361-.0643-.0614-.2113-.1305-.3215-.0537-.2021.1459-.101.384.0459.5376z" fill="#f50100"/><path d="m14.8808 5.92317c-.0722-.10267-.2681-.14831-.3506-.05704-.0309.02282-.0722.02282-.1031.03423-.0516 0-.1174.02872-.0968.14281.0555 0 .0555.02831.0865.02831.0206-.01141.0742.19786.1773.18645.1135 0 .2145.05313.2352.07594.0309.03423.0722.12549.0206.17113-.0722.06845-.1238.22816 0 .35366.1341.11408.4744.28521.856-.04564.3712-.31943.9487-.1369.99-.02281.0516.11408.0722.18253.0825.23957.0103.04564.2888.11409.33.14831.0516.03423.1238.02282.1031-.07986-.0412-.31943-.2165-.36506-.2371-.51337.1031.01141.1753.01141.2165-.03423.031-.04563.0722-.12549.1135-.14831.0309-.02281.0309-.04563-.0104-.03422-.0515.01141-.0825.03422-.1753.02282-.2195-.02641-.1652-.8918-.8914-1.06014-.4487-.10403-1.0083.60935-1.1617.67998-.0034.00154-.0065.00277-.0094.00368-.0722 0-.1341-.03423-.1754-.09127z" fill="#059334"/></svg>