<svg fill="none" height="12" viewBox="0 0 16 12" width="16" xmlns="http://www.w3.org/2000/svg" xmlns:xlink="http://www.w3.org/1999/xlink"><mask id="a" height="12" maskUnits="userSpaceOnUse" width="16" x="0" y="0"><path d="m0 0h16v12h-16z" fill="#fff"/></mask><mask id="b" height="8" maskUnits="userSpaceOnUse" width="12" x="2" y="2"><path clip-rule="evenodd" d="m2 2h12v8h-12z" fill="#fff" fill-rule="evenodd"/><path d="m2.5 2.5h11v7h-11z" fill="none" stroke="#fff"/></mask><mask id="c" height="6" maskUnits="userSpaceOnUse" width="5" x="6" y="3"><path d="m8.6658 7.60264c-.15954.17388-.32017.32267-.45979.44136-.14202-.12314-.30608-.27757-.46899-.45718-.45828-.50526-.81201-1.1037-.81201-1.70296 0-.58692.34206-1.128.78706-1.57199.17291-.17251.34744-.31609.49436-.42593.14451.10549.31543.24346.48479.4103.43811.43159.78379.97256.78379 1.58762 0 .62696-.35689 1.22577-.80921 1.71878z" fill="#fff"/><path d="m8.6658 7.60264c-.15954.17388-.32017.32267-.45979.44136-.14202-.12314-.30608-.27757-.46899-.45718-.45828-.50526-.81201-1.1037-.81201-1.70296 0-.58692.34206-1.128.78706-1.57199.17291-.17251.34744-.31609.49436-.42593.14451.10549.31543.24346.48479.4103.43811.43159.78379.97256.78379 1.58762 0 .62696-.35689 1.22577-.80921 1.71878z" fill="none" stroke="#fff" stroke-width="1.45"/></mask><g mask="url(#a)"><path clip-rule="evenodd" d="m0 0h16v12h-16z" fill="#c51918" fill-rule="evenodd"/><path clip-rule="evenodd" d="m2 2h12v8h-12z" fill="#4564f9" fill-rule="evenodd"/><path d="m2.5 2.5h11v7h-11z" stroke="#cbdaff" stroke-opacity=".1"/><g mask="url(#b)"><path clip-rule="evenodd" d="m8 2s3 1.44776 3 3.85885c0 2.4111-3 4.14115-3 4.14115s-3-1.79784-3-4.14115c0-2.3433 3-3.85885 3-3.85885z" fill="#cce0e5" fill-rule="evenodd"/><path d="m8 2 .3151-.65294-.32244-.15561-.31957.16144zm0 0c.3151-.65294.31532-.65284.31555-.65273l.00052.00026.00125.0006.00332.00162.00988.00486.03224.01622c.02685.01367.06422.0331.11063.05815.09271.05007.22204.12294.37585.21777.3061.18873.71695.46918 1.13107.83545.80629.71313 1.74469 1.86005 1.74469 3.37665 0 1.50306-.9246 2.71664-1.7179 3.49292-.40903.40021-.81527.71583-1.11838.93123-.15221.1081-.28009.1922-.37157.2502-.04578.0291-.08257.0516-.10886.0675l-.03144.0188-.0095.0056-.00313.0018-.00115.0006-.00048.0003c-.00021.0001-.0004.0002-.36259-.6278m0-8c-.32691-.64711-.32712-.64701-.32734-.6469l-.0005.00026-.0012.00061-.00323.00164-.00969.00499-.03185.01673c-.02659.01412-.06369.03419-.1098.06006-.09214.05169-.22082.12681-.37394.2241-.30476.19363-.71384.47983-1.12618.84917-.79884.71555-1.74127 1.86259-1.74127 3.34819 0 1.47166.9282 2.6858 1.71497 3.46458.40743.40329.81212.72457 1.11402.94477.15158.1106.27888.1969.36983.2564.04551.0299.08205.0531.1081.0693l.03108.0193.00932.0057.00305.0018.00111.0007.00046.0002c.00019.0002.00038.0003.37306-.6216m0 0 .36219.628-.36925.213-.36562-.2191z" stroke="#c1c9f1" stroke-opacity=".1482" stroke-width="1.45"/><path d="m8.20001 3.01843.34326-.63859-.35125-.1888-.34754.19555zm0 0c.34326-.63859.34348-.63847.34372-.63834l.0005.00027.00115.00062.00284.00154.00788.00432.02414.01353c.0197.01117.0465.02669.07939.04647.06569.03951.1562.09635.2633.1699.21291.14621.49817.3631.78588.64653.56189.55353 1.21619 1.44527 1.21619 2.62059 0 1.16342-.6431 2.10213-1.19077 2.69906-.28221.30759-.56237.55002-.77176.71575-.10524.08331-.19405.14838-.25827.19373-.03215.02271-.05824.04055-.07728.05334l-.02317.01542-.00741.00484-.00262.00169-.00104.00067-.00044.00029c-.00021.00013-.0004.00026-.39223-.60974m0-5.94048c-.35553-.63184-.35574-.63172-.35596-.63159l-.00048.00026-.00109.00062-.00275.00156-.00766.0044-.02371.01386c-.0194.01148-.04589.02745-.07846.0478-.06505.04065-.15485.09907-.2612.17433-.21142.14962-.49484.37047-.78075.65572-.55499.55372-1.21294 1.44534-1.21294 2.59847 0 1.14078.64628 2.07987 1.18799 2.67712.28067.30944.55926.55576.76733.72482.10458.08498.19277.15158.25641.19802.03186.02324.05768.04151.07645.05459l.02278.01571.00722.00489.00253.0017.00098.00066.00043.00029c.00019.00013.00038.00025.40288-.60275m0 0 .39183.61-.39946.25658-.39487-.26358z" fill="#cce0e5"/><path d="m8.20001 3.01843.34326-.63859-.35125-.1888-.34754.19555zm0 0c.34326-.63859.34348-.63847.34372-.63834l.0005.00027.00115.00062.00284.00154.00788.00432.02414.01353c.0197.01117.0465.02669.07939.04647.06569.03951.1562.09635.2633.1699.21291.14621.49817.3631.78588.64653.56189.55353 1.21619 1.44527 1.21619 2.62059 0 1.16342-.6431 2.10213-1.19077 2.69906-.28221.30759-.56237.55002-.77176.71575-.10524.08331-.19405.14838-.25827.19373-.03215.02271-.05824.04055-.07728.05334l-.02317.01542-.00741.00484-.00262.00169-.00104.00067-.00044.00029c-.00021.00013-.0004.00026-.39223-.60974m0-5.94048c-.35553-.63184-.35574-.63172-.35596-.63159l-.00048.00026-.00109.00062-.00275.00156-.00766.0044-.02371.01386c-.0194.01148-.04589.02745-.07846.0478-.06505.04065-.15485.09907-.2612.17433-.21142.14962-.49484.37047-.78075.65572-.55499.55372-1.21294 1.44534-1.21294 2.59847 0 1.14078.64628 2.07987 1.18799 2.67712.28067.30944.55926.55576.76733.72482.10458.08498.19277.15158.25641.19802.03186.02324.05768.04151.07645.05459l.02278.01571.00722.00489.00253.0017.00098.00066.00043.00029c.00019.00013.00038.00025.40288-.60275m0 0 .39183.61-.39946.25658-.39487-.26358z" stroke="#c1c9f1" stroke-opacity=".748217" stroke-width="1.45"/><path d="m8.20001 3.01843.34326-.63859-.35125-.1888-.34754.19555zm0 0c.34326-.63859.34348-.63847.34372-.63834l.0005.00027.00115.00062.00284.00154.00788.00432.02414.01353c.0197.01117.0465.02669.07939.04647.06569.03951.1562.09635.2633.1699.21291.14621.49817.3631.78588.64653.56189.55353 1.21619 1.44527 1.21619 2.62059 0 1.16342-.6431 2.10213-1.19077 2.69906-.28221.30759-.56237.55002-.77176.71575-.10524.08331-.19405.14838-.25827.19373-.03215.02271-.05824.04055-.07728.05334l-.02317.01542-.00741.00484-.00262.00169-.00104.00067-.00044.00029c-.00021.00013-.0004.00026-.39223-.60974m0-5.94048c-.35553-.63184-.35574-.63172-.35596-.63159l-.00048.00026-.00109.00062-.00275.00156-.00766.0044-.02371.01386c-.0194.01148-.04589.02745-.07846.0478-.06505.04065-.15485.09907-.2612.17433-.21142.14962-.49484.37047-.78075.65572-.55499.55372-1.21294 1.44534-1.21294 2.59847 0 1.14078.64628 2.07987 1.18799 2.67712.28067.30944.55926.55576.76733.72482.10458.08498.19277.15158.25641.19802.03186.02324.05768.04151.07645.05459l.02278.01571.00722.00489.00253.0017.00098.00066.00043.00029c.00019.00013.00038.00025.40288-.60275m0 0 .39183.61-.39946.25658-.39487-.26358z" stroke="#c51918" stroke-width="1.45"/><g mask="url(#c)"><path d="m6.46667 7h3.73333v.75h-3.73333z" fill="#91cbcb"/><path clip-rule="evenodd" d="m6.8009 7.59905s2.64703.00095 2.89031-.0904c.24329-.09134-.45673 1.75378-1.35115 1.75378s-1.53916-1.66338-1.53916-1.66338z" fill="#fdf9a1" fill-rule="evenodd"/><path d="m9.29681 7.3776-.47552.3659c-.74944-.97393-1.06381-1.98146-.92963-3.00974l.59496.07764c-.11239.86126.15318 1.71238.81019 2.5662z" fill="#a68861"/><g clip-rule="evenodd" fill="#239e46" fill-rule="evenodd"><path d="m8.19684 4.81838-.45366.53157c-.01702.01995-.04936.00357-.04335-.02196l.15605-.66278h-.70966c-.02708 0-.03484-.03702-.01004-.04789l.6064-.26585-.43041-.56745c-.01524-.0201.0055-.04756.029-.0384l.67683.26385.15451-.62172c.00629-.02531.04228-.02529.04854.00003l.1537.62169.67096-.26124c.024-.00935.04475.01932.02837.03919l-.46481.56405.64136.26565c.02527.01046.01779.04809-.00957.04809h-.63179l.09615.67808c.00351.02478-.02752.03877-.04377.01974z"/><path d="m7.79999 6.5h2.40001v.525h-2.40001z"/></g></g></g></g></svg>