<svg width="20" height="15" viewBox="0 0 20 15" fill="none" xmlns="http://www.w3.org/2000/svg">
<mask id="mask0" mask-type="alpha" maskUnits="userSpaceOnUse" x="0" y="0" width="20" height="15">
<rect width="20" height="15" fill="white"/>
</mask>
<g mask="url(#mask0)">
<path fill-rule="evenodd" clip-rule="evenodd" d="M0 0H20V15H0V0Z" fill="#2E42A5"/>
</g>
<path fill-rule="evenodd" clip-rule="evenodd" d="M2.87727 3.74678C2.67126 3.58666 2.90295 3.27477 3.11574 3.42576C3.25529 3.52478 3.52444 3.7005 3.90896 3.92736C4.55174 4.3066 5.28162 4.68608 6.08431 5.04029C8.49879 6.10575 11.0405 6.71974 13.5857 6.65274C13.9269 6.65413 14.4216 6.60925 14.9071 6.47438C14.9619 6.45916 15.0154 6.443 15.0674 6.42588C14.9909 6.23653 14.873 6.02747 14.7109 5.79865C14.5815 5.61588 14.8044 5.39104 14.9883 5.51883C15.1281 5.61599 15.3317 5.7851 15.536 6.01026C15.5772 6.05574 15.6168 6.10191 15.6546 6.14874C16.3039 5.70835 16.346 5.00476 15.5424 3.8699C15.413 3.68713 15.6359 3.46229 15.8198 3.59009C15.8647 3.6213 15.94 3.67801 16.0357 3.75749C16.1942 3.88915 16.3526 4.03795 16.501 4.20147C17.174 4.94334 17.4301 5.73203 16.9797 6.48334C16.9368 6.55492 16.8876 6.62528 16.8362 6.68896C16.7468 6.80832 16.5681 6.97511 16.2889 7.13808C16.2291 7.17295 16.1667 7.2062 16.1016 7.23764C16.1009 7.5188 16.0036 7.78978 15.8046 8.03707C15.7304 8.13597 15.5846 8.27209 15.3579 8.40439C15.1948 8.49955 15.0101 8.57847 14.8031 8.63656C14.7979 8.86572 14.7162 9.08667 14.5543 9.28784C14.4911 9.37208 14.3688 9.48622 14.1797 9.59654C13.9135 9.75191 13.5858 9.85222 13.2038 9.87447C13.1773 9.98731 13.1239 10.0952 13.0442 10.1942C12.9971 10.2571 12.9091 10.3391 12.775 10.4174C12.5671 10.5387 12.3068 10.6117 12.006 10.6145C11.992 10.6155 11.992 10.6155 11.9373 10.6181C11.5363 10.634 10.9998 10.6038 10.3759 10.4904C9.43174 10.3187 8.49827 9.98874 7.62475 9.46251C7.36752 9.30755 7.11823 9.13689 6.8777 8.94994C6.67169 8.78982 6.90339 8.47793 7.11618 8.62892C7.1737 8.66974 7.28684 8.7436 7.4494 8.83952C7.72225 9.0005 8.03233 9.16172 8.37339 9.31223C9.39789 9.76433 10.4754 10.0246 11.5556 9.99626C11.6924 9.99682 11.8958 9.97835 12.0926 9.92369C12.14 9.91054 12.1839 9.89595 12.2241 9.88C10.0486 9.794 7.6196 9.09581 5.43927 7.40114C5.23326 7.24102 5.46496 6.92913 5.67775 7.08012C5.76631 7.14296 5.93847 7.25537 6.18502 7.40083C6.59784 7.6444 7.06676 7.8882 7.58249 8.11578C9.1329 8.79995 10.7644 9.19408 12.3989 9.1511C12.4037 9.15112 12.4086 9.15111 12.4136 9.15108C12.3829 9.09667 12.3462 9.03923 12.3034 8.97882C12.2305 8.87579 12.2694 8.7594 12.3503 8.70033C11.9464 8.66185 11.51 8.60281 11.047 8.51864C9.32417 8.2054 7.62112 7.60337 6.0282 6.64369C5.55945 6.36128 5.10517 6.0503 4.66687 5.70963C4.46086 5.54951 4.69255 5.23762 4.90534 5.38861C5.0152 5.46656 5.22786 5.6054 5.53202 5.78485C6.04087 6.08508 6.61876 6.38553 7.25432 6.66599C9.16555 7.50938 11.1771 7.99532 13.1919 7.94231C13.1917 7.94231 13.1917 7.94231 13.1923 7.94231C13.3619 7.943 13.5971 7.92766 13.8535 7.88449C13.8078 7.78651 13.749 7.68215 13.6764 7.57141C10.1698 7.48474 6.3054 6.41125 2.87727 3.74678ZM12.8932 8.97904C12.9272 9.01657 12.9593 9.05492 12.9891 9.09409C13.3475 9.02903 13.6294 8.91604 13.7981 8.75493C13.4528 8.76492 13.0552 8.75648 12.614 8.72294C12.6918 8.78074 12.7922 8.86775 12.8932 8.97904ZM14.3767 7.96729C14.7649 7.84594 15.1372 7.64053 15.2956 7.29284C14.9612 7.50003 14.538 7.50003 13.9042 7.50003C13.9987 7.57091 14.174 7.66771 14.3767 7.96729ZM4.8023 3.15794C4.59629 2.99782 4.82799 2.68593 5.04078 2.83692C5.13925 2.90679 5.33026 3.0315 5.60361 3.19278C6.06111 3.46272 6.58074 3.73289 7.15223 3.98508C8.87051 4.74335 10.6788 5.1802 12.4903 5.13257C12.7291 5.13354 13.0779 5.10188 13.4188 5.00716C14.3195 4.75694 14.5648 4.25526 13.8416 3.2339C13.7121 3.05113 13.935 2.82627 14.1189 2.95407C14.2459 3.04233 14.4303 3.1955 14.6154 3.3995C15.1114 3.94622 15.3023 4.53423 14.9641 5.09815C14.9321 5.15148 14.8955 5.20381 14.8584 5.24973C14.7902 5.3408 14.6569 5.46518 14.4504 5.58573C14.1246 5.77583 13.7147 5.89081 13.2297 5.8955C13.2086 5.89707 13.1729 5.89913 13.1202 5.90122C12.4633 5.9272 11.5816 5.87759 10.5554 5.69099C9.00194 5.40854 7.46628 4.86565 6.02984 4.00021C5.60716 3.74555 5.19753 3.46513 4.8023 3.15794ZM10.3598 11.943C10.3152 12.2192 9.94979 12.249 9.49668 12.1582C9.0505 12.0687 8.72476 11.9027 8.76745 11.6391C8.81204 11.3627 9.17741 11.333 9.63064 11.4237C10.0769 11.5132 10.4026 11.6793 10.3598 11.943Z" fill="#F7FCFF"/>
</svg>
