<svg fill="none" height="15" viewBox="0 0 20 15" width="20" xmlns="http://www.w3.org/2000/svg" xmlns:xlink="http://www.w3.org/1999/xlink"><mask id="a" height="15" maskUnits="userSpaceOnUse" width="20" x="0" y="0"><path d="m0 0h20v15h-20z" fill="#fff"/></mask><mask id="b" height="15" maskUnits="userSpaceOnUse" width="20" x="0" y="0"><path clip-rule="evenodd" d="m0 0v15h20v-15z" fill="#fff" fill-rule="evenodd"/></mask><g mask="url(#a)"><path clip-rule="evenodd" d="m0 0v15h20v-15z" fill="#4ec7ee" fill-rule="evenodd"/><g mask="url(#b)"><path d="m2.55624 14.523c-.03966.2938.14849.503.46413.6377.42433.181.85248.0115 1.24631-.4249l-.51038-.4606c-.17494.1938-.30136.2685-.39895.2672.19108-.1365.4359-.305.7341-.5053l.14314-.2073c.11495-.4931-.2425-.7603-.78766-.7603-.32109 0-.57781.0635-.74068.2001-.26759.2244-.22178.5825.05981.7688.02234.0148.04501.0281.06799.04-.15797.1334-.25438.2711-.27781.4446z" fill="#ffe402"/><path d="m2.85309 14.0596s.07799-.1729.03899-.2628" stroke="#ffe402" stroke-width=".6875"/><g fill="#ffe402"><path d="m5.35587 14.523c.03966.2938-.14849.503-.46414.6377-.42432.181-.85247.0115-1.2463-.4249l.51038-.4606c.17494.1938.30136.2685.39895.2672-.19108-.1365-.4359-.305-.73411-.5053l-.14313-.2073c-.11496-.4931.2425-.7603.78766-.7603.32109 0 .57781.0635.74068.2001.26759.2244.22177.5825-.05982.7688-.02233.0148-.045.0281-.06798.04.15797.1334.25438.2711.27781.4446z"/><path d="m5.37238 13.9182-.62667.2827c-.08796-.1949-.11424-.372-.04104-.5409l.63076.2735c.02121-.0489.02092-.0508.03695-.0153z"/><path d="m2.55624.476844c-.03966-.29375.14849-.5029797.46413-.63764.42433-.181026.85248-.011512 1.24631.42487l-.51038.460618c-.17494-.193847-.30136-.268531-.39895-.267262.19108.136513.4359.305038.7341.505301l.14314.207329c.11495.49312-.2425.76032-.78766.76032-.32109 0-.57781-.06353-.74068-.20009-.26759-.22437-.22178-.58252.05981-.768856.02234-.01478.04501-.028081.06799-.039932-.15797-.133402-.25438-.271124-.27781-.444658z"/><path d="m5.35587.476844c.03966-.29375-.14849-.5029797-.46414-.63764-.42432-.181026-.85247-.011512-1.2463.42487l.51038.460618c.17494-.193847.30136-.268531.39895-.267262-.19108.136513-.4359.305038-.73411.505301l-.14313.207329c-.11496.49312.2425.76032.78766.76032.32109 0 .57781-.06353.74068-.20009.26759-.22437.22177-.58252-.05982-.768856-.02233-.01478-.045-.028081-.06798-.039932.15797-.133402.25438-.271124.27781-.444658z"/><g clip-rule="evenodd" fill-rule="evenodd"><path d="m3.18365 12.5394c-.39439.0113-.63977.0927-.63977.4728 0 .4193.40727.5504.84058.5504.39251 0 .83471-.2436.83471-.6799 0-.2654-.33748-.801-1.18725-1.9621-.02945-.0274-.04567-.0414-.05866-.0415.05153-.0287.14229-.0623.26204-.0623.04158 0 .0956.0211.14916.048v.4554h.89967v-.3438c0-.3884-.5741-.8471-1.04883-.8471-.41459 0-.74744.1973-.91603.481-.16661.2804-.03921.5496.20007.7637.35605.491.6325.8975.80588 1.1646-.0637-.0005-.09868-.0005-.14157.0008zm.04226.317c-.01248-.0028-.02448-.0058-.03569-.0091.00835.0088.04116.0479.04116.1649 0 .0638-.00307.1086-.00719.1402-.11599-.1024-.14842-.2807-.06354-.418l.0021-.0035-.01294-.0257c.00172-.0008.00344-.0017.00513-.0026.01998-.0103.03641-.0188.00781.0283zm-.03569-.0091-.01192-.0036c.00128.0004.00296.0012.00493.0024zm.34145.0354c0-.0117-.00399-.0187-.01089-.0224l.004.0043c.00457.0094.00689.0155.00689.0181z"/><path d="m4.72852 12.5394c.39439.0113.63977.0927.63977.4728 0 .4193-.40727.5504-.84058.5504-.39251 0-.83471-.2436-.83471-.6799 0-.2654.33748-.801 1.18725-1.9621.02945-.0274.04567-.0414.05866-.0415-.05153-.0287-.14229-.0623-.26204-.0623-.04158 0-.0956.0211-.14916.048v.4554h-.89967v-.3438c0-.3884.5741-.8471 1.04883-.8471.41459 0 .74744.1973.91603.481.16661.2804.03921.5496-.20007.7637-.35605.491-.6325.8975-.80588 1.1646.0637-.0005.09868-.0005.14157.0008zm-.04226.317c.01248-.0028.02448-.0058.03569-.0091-.00835.0088-.04116.0479-.04116.1649 0 .0638.00307.1086.00719.1402.11599-.1024.14842-.2807.06354-.418l-.0021-.0035.01294-.0257c-.00172-.0008-.00344-.0017-.00513-.0026-.01998-.0103-.03641-.0188-.00781.0283zm.03569-.0091.01193-.0036c-.00129.0004-.00297.0012-.00494.0024zm-.34145.0354c0-.0117.00399-.0187.01089-.0224l-.004.0043c-.00457.0094-.00689.0155-.00689.0181z"/><path d="m3.18365 8.34662c-.39439-.01136-.63977-.09271-.63977-.47288 0-.41922.40727-.55038.84058-.55038.39251 0 .83471.24362.83471.67991 0 .26542-.33748.80102-1.18725 1.96207-.02945.02744-.04567.04146-.05866.04146.05153.0287.14229.0623.26204.0623.04158 0 .0956-.021.14916-.0479v-.45538h.89967v.34375c0 .38833-.5741.84703-1.04883.84703-.41459 0-.74744-.1972-.91603-.4809-.16661-.28041-.03921-.54958.20007-.76368.35605-.49106.6325-.89754.80588-1.16462-.0637.00053-.09868.00045-.14157-.00078zm.04226-.317c-.01248.00278-.02448.00581-.03569.00907.00835-.00876.04116-.04787.04116-.16495 0-.06375-.00307-.10859-.00719-.14012-.11599.10232-.14842.2807-.06354.41801l.0021.00343-.01294.02571c.00172.00087.00344.00175.00513.00262.01998.01029.03641.01875.00781-.02833zm-.03569.00907-.01192.00364c.00128-.00041.00296-.00121.00493-.00248zm.34145-.03542c0 .01173-.00399.01871-.01089.02245l.004-.00438c.00457-.0094.00689-.01547.00689-.01807z"/><path d="m4.72852 8.34662c.39439-.01136.63977-.09271.63977-.47288 0-.41922-.40727-.55038-.84058-.55038-.39251 0-.83471.24362-.83471.67991 0 .26542.33748.80102 1.18725 1.96207.02945.02744.04567.04146.05866.04146-.05153.0287-.14229.0623-.26204.0623-.04158 0-.0956-.021-.14916-.0479v-.45538h-.89967v.34375c0 .38833.5741.84703 1.04883.84703.41459 0 .74744-.1972.91603-.4809.16661-.28041.03921-.54958-.20007-.76368-.35605-.49106-.6325-.89754-.80588-1.16462.0637.00053.09868.00045.14157-.00078zm-.04226-.317c.01248.00278.02448.00581.03569.00907-.00835-.00876-.04116-.04787-.04116-.16495 0-.06375.00307-.10859.00719-.14012.11599.10232.14842.2807.06354.41801l-.0021.00343.01294.02571c-.00172.00087-.00344.00175-.00513.00262-.01998.01029-.03641.01875-.00781-.02833zm.03569.00907.01193.00364c-.00129-.00041-.00297-.00121-.00494-.00248zm-.34145-.03542c0 .01173.00399.01871.01089.02245l-.004-.00438c-.00457-.0094-.00689-.01547-.00689-.01807z"/><path d="m3.18365 6.65326c-.39439.01135-.63977.09271-.63977.47288 0 .41922.40727.55037.84058.55037.39251 0 .83471-.24361.83471-.6799 0-.26542-.33748-.80102-1.18725-1.96208-.02945-.02743-.04567-.04141-.05866-.0415.05153-.02869.14229-.06229.26204-.06229.04158 0 .0956.02102.14916.04796v.45536h.89967v-.34375c0-.38837-.5741-.84707-1.04883-.84707-.41459 0-.74744.19722-.91603.48095-.16661.2804-.03921.54957.20007.76367.35605.49106.6325.89754.80588 1.16462-.0637-.00054-.09868-.00045-.14157.00078zm.04226.317c-.01248-.00278-.02448-.00581-.03569-.00907.00835.00876.04116.04787.04116.16495 0 .06374-.00307.10859-.00719.14012-.11599-.10233-.14842-.28071-.06354-.41802l.0021-.00342-.01294-.02571c.00172-.00087.00344-.00175.00513-.00262.01998-.01029.03641-.01875.00781.02833zm-.03569-.00907-.01192-.00364c.00128.00041.00296.0012.00493.00248zm.34145.03542c0-.01174-.00399-.01871-.01089-.02245l.004.00438c.00457.0094.00689.01547.00689.01807z"/><path d="m4.72852 6.65326c.39439.01135.63977.09271.63977.47288 0 .41922-.40727.55037-.84058.55037-.39251 0-.83471-.24361-.83471-.6799 0-.26542.33748-.80102 1.18725-1.96208.02945-.02743.04567-.04141.05866-.0415-.05153-.02869-.14229-.06229-.26204-.06229-.04158 0-.0956.02102-.14916.04796v.45536h-.89967v-.34375c0-.38837.5741-.84707 1.04883-.84707.41459 0 .74744.19722.91603.48095.16661.2804.03921.54957-.20007.76367-.35605.49106-.6325.89754-.80588 1.16462.0637-.00054.09868-.00045.14157.00078zm-.04226.317c.01248-.00278.02448-.00581.03569-.00907-.00835.00876-.04116.04787-.04116.16495 0 .06374.00307.10859.00719.14012.11599-.10233.14842-.28071.06354-.41802l-.0021-.00342.01294-.02571c-.00172-.00087-.00344-.00175-.00513-.00262-.01998-.01029-.03641-.01875-.00781.02833zm.03569-.00907.01193-.00364c-.00129.00041-.00297.0012-.00494.00248zm-.34145.03542c0-.01174.00399-.01871.01089-.02245l-.004.00438c-.00457.0094-.00689.01547-.00689.01807z"/><path d="m3.18365 2.46063c-.39439-.01135-.63977-.09271-.63977-.47288 0-.41922.40727-.55037.84058-.55037.39251 0 .83471.24361.83471.6799 0 .26542-.33748.80102-1.18725 1.96208-.02945.02743-.04567.04141-.05866.0415.05153.02869.14229.0623.26204.0623.04158 0 .0956-.02103.14916-.04797v-.45535h.89967v.34375c0 .38836-.5741.84707-1.04883.84707-.41459 0-.74744-.19723-.91603-.48096-.16661-.2804-.03921-.54957.20007-.76366.35605-.49107.6325-.89755.80588-1.16462-.0637.00053-.09868.00044-.14157-.00079zm.04226-.31699c-.01248.00277-.02448.00581-.03569.00906.00835-.00875.04116-.04787.04116-.16495 0-.06374-.00307-.10859-.00719-.14012-.11599.10233-.14842.28071-.06354.41802l.0021.00342-.01294.02571c.00172.00087.00344.00175.00513.00263.01998.01028.03641.01874.00781-.02834zm-.03569.00906-.01192.00365c.00128-.00042.00296-.00121.00493-.00248zm.34145-.03542c0 .01174-.00399.01872-.01089.02245l.004-.00438c.00457-.0094.00689-.01547.00689-.01807z"/><path d="m4.72852 2.46063c.39439-.01135.63977-.09271.63977-.47288 0-.41922-.40727-.55037-.84058-.55037-.39251 0-.83471.24361-.83471.6799 0 .26542.33748.80102 1.18725 1.96208.02945.02743.04567.04141.05866.0415-.05153.02869-.14229.0623-.26204.0623-.04158 0-.0956-.02103-.14916-.04797v-.45535h-.89967v.34375c0 .38836.5741.84707 1.04883.84707.41459 0 .74744-.19723.91603-.48096.16661-.2804.03921-.54957-.20007-.76366-.35605-.49107-.6325-.89755-.80588-1.16462.0637.00053.09868.00044.14157-.00079zm-.04226-.31699c.01248.00277.02448.00581.03569.00906-.00835-.00875-.04116-.04787-.04116-.16495 0-.06374.00307-.10859.00719-.14012.11599.10233.14842.28071.06354.41802l-.0021.00342.01294.02571c-.00172.00087-.00344.00175-.00513.00263-.01998.01028-.03641.01874-.00781-.02834zm.03569.00906.01193.00365c-.00129-.00042-.00297-.00121-.00494-.00248zm-.34145-.03542c0 .01174.00399.01872.01089.02245l-.004-.00438c-.00457-.0094-.00689-.01547-.00689-.01807z"/><path d="m11.8667 1.74048.2559.95482s.003.21693-.242.21693c-.2451 0-.2575-.21693-.2575-.21693zm2.1648 3.64699c0 1.24264-.9486 2.25-2.1188 2.25-1.1701 0-2.11872-1.00736-2.11872-2.25 0-1.24265.94862-2.25 2.11872-2.25 1.1702 0 2.1188 1.00735 2.1188 2.25zm-1.1682-2.49963.0344-.98792-.5121.84189s-.0516.21106.1828.28271c.2343.07165.2949-.13668.2949-.13668zm.9746-.5201-.3218.93468s-.1188.18153-.3219.04449c-.2032-.13704-.0922-.3238-.0922-.3238zm.1851 1.53449.581-.79976-.8953.41159s-.1609.14612-.0066.33658c.1542.19045.3209.05159.3209.05159zm1.1089.14624-.7997.58109s-.2015.08055-.2893-.14825c-.0878-.22879.1103-.31807.1103-.31807zm-.702 1.37792.9347-.32188-.9695-.17639s-.2156.02747-.1985.27194.2333.22633.2333.22633zm.8579.75854-.9879.03456s-.212-.04587-.1569-.28466c.0551-.23878.2693-.20203.2693-.20203zm-1.3341.75327.9548.25579-.7051-.68836s-.194-.09776-.3166.11447c-.1225.21224.0669.3181.0669.3181zm.3065 1.10406-.8383-.52378s-.1502-.1566.0291-.32374c.1792-.16713.3362-.01691.3362-.01691zm-1.5084-.13369.6486.74601-.1996-.96497s-.1062-.18955-.3265-.08212-.1225.30108-.1225.30108zm-.3466 1.06811-.4021-.90304s-.0369-.21378.2051-.25212c.2421-.03834.2882.17399.2882.17399zm-1.1558-.98117.1034.9831.3899-.90496s.0217-.21619-.2203-.25453c-.2421-.03834-.273.17639-.273.17639zm-.8929.66449.1886-.97037s.0924-.19629.3126-.08886c.2203.10743.1363.30782.1363.30782zm-.39787-1.48215-.46403.87284.8293-.53219s.1389-.16708-.0403-.33421c-.1792-.16714-.32497-.00644-.32497-.00644zm-1.11518.02684.69894-.69903s.18636-.11107.3089.10117c.12253.21223-.05915.3314-.05915.3314zm.49006-1.47185-.87278.46413.98514.02255s.20859-.06084.15347-.29963c-.05513-.23878-.26583-.18705-.26583-.18705zm-.95314-.616.97035-.18868s.21661.01213.19951.2566c-.01709.24447-.23436.24167-.23436.24167zm1.21222-.95356-.98311-.10327.80411.56958s.20695.0662.29477-.16259c.08783-.22879-.11577-.30372-.11577-.30372zm-.45856-1.0512.90307.40201s.1705.13418.0163.32463c-.15426.19046-.33062.06354-.33062.06354zm1.50967-.08895-.74608-.64848.33198.92779s.1316.17293.3347.03589c.2032-.13704.0794-.3152.0794-.3152zm.1925-1.11959.5239.83828s.0663.20657-.168.27822c-.2344.07165-.3096-.13219-.3096-.13219z"/><path d="m7.63813 6.66996c-.00855-.03284-.01637-.06488-.02346-.09614l.04374.08804zm.05998.20631c-.02291-.07198-.04291-.14072-.05998-.20631l-.26784.10694.03968.09937h-.02888l-.01119.00556c-.01604-.08163-.02411-.15899-.02411-.2324v-.61693l.26888.54132c-.03407-.15039-.05118-.28269-.05118-.398v-.76912l.31116.77932-.29547.09248.11609.37093h-.00573l-.03113.01243.11017.2218.10625.33949c-.0994-.18249-.14999-.30362-.14999-.34688zm.34193.86663c-.14854-.32977-.26266-.61757-.34193-.86663h-.28814l.2928.73332-.10844-.11568c-.11352-.2274-.18872-.43031-.22443-.61208l-.23834.11839-.04746-.05063v.0742l-.01087.0054.01087.0219v.08391c-.03125-.09756-.04676-.18308-.04676-.25873v-1.46473l.30845.62096v-1.17103l.2177.54523v-1.48006l.86923 2.77731-.06112.0199c-.08062-.24091-.12061-.42522-.12061-.54803h-.34375l-.03259.0102.24722.61918-.05967.01944c-.01935-.06865-.02891-.12725-.02891-.17521h-.33802l.07331.23423.38388.77282-.01591.00605c-.10837-.17026-.19578-.31832-.26172-.43938l.15072.48157.111-.04219.01546.02422zm.11918-.04491-.11902.04525-.00016-.00034-.14441.07244-.19286-.20575.09186.23009c-.0111-.00919-.01783-.01554-.02094-.01861-.0677-.11437-.12753-.22332-.17936-.32716l-.46277-.49369-.04746.02357v.0273l.38142.76786h-.03767l-.00255.00239c-.16963-.28015-.28285-.50422-.3412-.68634v.50216l-1.36541-.97273 1.73892 2.0695c.5557.66136 1.24042 1.16953 2.05045 1.52267l-1.57462-.0334 1.6004.4516-.82794.6093 1.43-.4393.39.11c.5247.1481.817.2967.8361.3419l.0736.1741.1865.031c.4087.0679 1.1626-.038 2.1338-.2532.33-.0732.6612-.1547.9175-.2238.1074-.029.1914-.0532.2388-.0687l.0181-.0061c.0062-.0022.0123-.0046.0262-.0099l.0001-.0001.0113-.0046c.0079-.0035.0155-.0077.0415-.0218h.0001c.0313-.0043.0543-.0075.0698-.02.0427-.0347.0271-.1414-.032-.5436v-.0001c-.2708-.0725-.3086-.0826-.3187-.0702-.0017.0021-.0026.0047-.0037.0077-.0929.0192-.2377.0171-.4308-.0078 1.6161-.7947 2.6778-1.59094 3.1864-2.41023l.9303-1.49856-.5636.41117.2031-.65284-.8033.51621c.1034-.13716.1834-.27369.2398-.41014l.6051-1.46232-.9548.89068.5179-1.70701-1.2288 1.64624-5.031 3.70229-.0785-.01819c-1.2384-.28714-2.10817-1.162-2.62575-2.66707l-.25823.08412.00335.01071-.06089.01983-.00358-.01064-.24973.08135.00417.01045-.06075.01978-.00309-.01079-.02486.0081c.08361.27165.17485.52621.27372.76345l-.1586.06029.01195.02405-.0124.00622zm.01166-.00443-.01166.00443.02458.03812-.24654.12365-.04163-.04442-.08065.04044c-.00797-.00606-.01472-.01144-.02035-.0161l.00876.02192.01159-.00582c.01408.0107.03198.0235.05425.0381l-.03967.0199c-.01919-.0313-.03781-.0622-.05587-.09271l-.00209-.00212h-.30608l.06914.13919-.04492-.03201c-.02232-.03577-.0438-.0707-.06444-.10479l-.03569.03346-.30551-.21764v.18179c0 .32538.22895.57134.62222.77344l-.18499.20037 2.05685 1.46534-.07012-.0015c.06736.0294.13559.0576.20467.0849l.17855.0703-.35744.263.60206.17.4801-.1475 1.7083.673-.551-.3925c.0672-.0006.1326-.0014.196-.0025-.0269-.0494-.061-.096-.1027-.1405-.0506-.0014-.0947-.0051-.1317-.0112l-.0188.1134-.5756-.4101c.2203-.076.4342-.1556.6418-.2389.8526-.0092 1.3636-.0549 1.4394-.1111l.1316-.0976.1587.0407c.1528.0392.2935.0719.4216.0981l.109.1831c.0853-.0405.1691-.081.2515-.1216-.0204-.0026-.0414-.0055-.0629-.0086l3.1598-2.30523-.2644-.24537c.3345-.17226.5525-.39826.6431-.68929l.0775-.24913-.3406.24845-.0652-.10143-.3282-.10211c-.0303.09752-.1292.19509-.3044.28466.1757-.15669.3218-.31184.4382-.4662l-.4962.31889.6529-.6091-.4074-.28244c.0354-.08019.065-.15931.0887-.2374l.0521-.17173-.23.21464-.3422-.1729.1582-.32102-.2969.21851-.7033.94214-.2394-.20048c-.6423 1.30338-1.7984 2.33822-3.4798 3.10173l-.6085-.1411-.1739.12793.0178-.155c-1.1464 0-1.99147-.85006-2.54468-2.64751l-.25835.08415.2456.78472-.24539.09328-.01528-.03827.24603-.09353c-.1261-.27992-.22326-.523-.29185-.72637l-.24914.08116.29496.73874-.02108.00801.01578-.00791c-.18284-.29829-.29847-.54127-.35041-.71906l-.02448.00798c.09025.26242.19112.5093.30257.74049l-.03232.01229.00374.00891-.15039.07543zm.15614-.05936-.15614.05936.0195.03925-.00658.0033.02359.03626-.22913.13112-.041-.04373-.06803.03412c.01741.01141.03749.02392.06051.03738l-.24001.13735-.15507-.11047.07705.15511.07802-.04464.03619.02579-.09416.05388c-.05063-.07751-.09796-.1515-.14202-.22215l-.10013-.07133-.21255.19924.44102.47048.25079-.23508.03489-.06835 1.12038.79817.41429.44197c-.56401-.29648-1.04812-.68597-1.45447-1.16957l-.27764.30073.00626.00321 1.7535.89512-.02765-.02949c.1683.08846.34372.16865.5263.24058l-.30279.55809-.08376-.0018.0611.0435.02266-.0417.42356.0089-.19422.143.72472.2855.0254-.0078c.1698-.0522.3362-.1064.4991-.1626l-.1249-.0889.2028-.1492c.2016.0014.3899.001.5639-.0008.254-.102.4985-.2095.7334-.32248h1.2676l.1503.25258c.0288.0059.057.0115.0846.0167l.0795.1336.1335-.0974c-.066-.0096-.137-.0217-.213-.0362l-.1603-.26928h.3857l-.4475-.10376-.0485-.08156c1.3298-.63173 2.2701-1.25216 2.82-1.84818.2122-.05906.3989-.12919.559-.21162l-.1149-.10663.6156-.39558-.1207-.18776-1.0376.75699-.1297-.30288c.1748-.12553.3313-.24974.4695-.37299-.0981.05019-.2203.09786-.3677.14161l.3097-.28892-.9407.60447c.5864-.5411.9829-1.03623 1.1862-1.49601l-.0415-.02876.0767-.10282-.1244-.06291-.7911.73794.4489-.91084-.1378-.06962c-.084.27715-.2929.60351-.6284.97271l-.0758-.06346-.4239.56787.1057.09528-3.1275 2.30151-.2735-.06341c-.2614.1187-.5355.23085-.8224.33643l.04-.3496-.5261.38717c-1.00886-.36073-1.78548-1.09226-2.3235-2.17833l.07017-.03519-.00559-.01401-.07481.02844-.01541-.03168.05386-.02702-.05654.0215.00268.00552-.03126.01568zm.01055.02478-.14719.07383.03705.0746-.2208.12635-.02837-.03027-.04852.02777c.0127.00743.0263.01515.04084.02313l-.24466.14001.17784.12669.1214-.23782c-.01951-.00996-.03768-.0196-.05458-.02888l.03605-.02063 1.01751 1.0855 1.40206.99884-.3407.2507.4781.0102.1806.3588.2714-.1998-.2166-.1543c.1455.0025.2854.0042.4194.0051l.4393-.32328h.858c.1845-.08874.3631-.18088.5358-.27641l.6581.15259.0737.12382h.0746l-.0618-.10376-.0865-.02006-.0171-.02871 2.4252-1.76927.3053-.07412c.0495-.01199.0976-.02452.1446-.03758.0238-.02585.047-.05166.0693-.07742l.3748-.24083-.1153-.107c-.0714.11491-.1578.23089-.2595.34783l-.1091.07014-.0588-.13732-.3513.2563-1.2451.30221c.1394-.13866.2712-.28163.3955-.42892l.3985-.25609.136.17853c.1948-.11966.3737-.23786.5367-.35491l-.0418-.09748.1436-.1339c-.0564.01671-.1164.03285-.1802.04834l.0366.08556-.4404.41084-.1326-.17417.0825-.05302.0005.00043.0026-.00243-.0031.002-.1623-.14634c.0121-.01756.0241-.03518.036-.05285l.1692.15254 1.1049-1.48012-.1033-.07158c-.1117.2701-.4066.58575-.8861.93395.0469-.08485.0918-.17083.1348-.25795l.0158-.03221-.1457.13597-.1716-.14372c-.1326.14588-.285.29846-.4573.45734l.1154.104-.0521.03835.0391.03522-.0556.05188.1804.23702c-.0947.13138-.1948.25965-.3005.3848l-.8324.53496.4369-.10604c-.5075.50475-1.1148.95241-1.8211 1.34318l-.7743-.17951-.6195.45592h-.4186c-.1625 0-.3199-.01266-.4723-.03785.0422-.01404.0842-.02821.1259-.04251.0879.02649.1775.05032.2687.07147l.0199-.17401c-.0948.0349-.191.06908-.2886.10254-.0668-.02012-.1326-.04178-.1975-.06497l-.0997.0734c-.96824-.22602-1.72198-.98234-2.25793-2.23461zm0 0 .03413-.01712-.01023-.02076-.03445.0131zm2.10653 2.37192-.0179-.0128.1693-.12451c.0563.01316.1134.02453.1713.03408-.106.03523-.2135.06963-.3227.10323zm5.1662-2.55718.0344-.04935-.1945-.1753.0561-.03477.1744.15722c.1019-.1511.1968-.30617.2847-.46521-.1378.10008-.2908.20284-.4591.30799l-.016-.01438.2782-.25956.2271-.16709-.0253-.02115-.2018.18824-.3117.22938.0335.03018-.0465.04339.0064.00576-.0075.00458zm0 0 .1142.15001-.0579.03719-.098-.12871c.014-.01943.0279-.03893.0417-.05849zm-5.1662 2.55718.3549.2528c-.0567-.001-.1141-.0021-.1725-.0034l-.0629-.0013-.1241-.2467zm1.272.9061-.0069.0412.0641-.0004zm1.9152-.208-.1002-.135c-.0502.011-.0999.0216-.149.0319l-.0411.16c.0402.0103.0797.0202.1185.0298.0712-.0255.1282-.0543.1718-.0867z"/></g></g></g></g></svg>