<svg fill="none" height="15" viewBox="0 0 20 15" width="20" xmlns="http://www.w3.org/2000/svg" xmlns:xlink="http://www.w3.org/1999/xlink"><mask id="a" height="15" maskUnits="userSpaceOnUse" width="20" x="0" y="0"><path d="m0 0h20v15h-20z" fill="#fff"/></mask><g clip-rule="evenodd" fill-rule="evenodd" mask="url(#a)"><path d="m0 0v15h20v-15z" fill="#fbcd17"/><path d="m0 0v5h20v-5z" fill="#73be4a"/><path d="m0 10v5h20v-5z" fill="#73be4a"/><path d="m0 0v15l6.25-7.5z" fill="#c51918"/><g fill="#272727"><path d="m10.6261 8.66917-1.16915.70583.26668-1.37735-.97363-1.03081 1.3184-.05574.5577-1.2861.5578 1.2861h1.3161l-.9714 1.08655.2925 1.37735z"/><path d="m15.6261 8.66917-1.1691.70583.2666-1.37735-.9736-1.03081 1.3184-.05574.5577-1.2861.5578 1.2861h1.3161l-.9714 1.08655.2925 1.37735z"/></g></g></svg>