<svg fill="none" height="24" viewBox="0 0 32 24" width="32" xmlns="http://www.w3.org/2000/svg" xmlns:xlink="http://www.w3.org/1999/xlink"><mask id="a" height="24" maskUnits="userSpaceOnUse" width="32" x="0" y="0"><path d="m0 0h32v24h-32z" fill="#fff"/></mask><g clip-rule="evenodd" fill-rule="evenodd" mask="url(#a)"><path d="m32 0h-32v6h32zm0 18h-32v6h32z" fill="#f50101"/><path d="m0 6h32v12h-32z" fill="#f7fcff"/><path d="m21.5149 12.5132c.0745.8674-3.1263-.3598-3.1263-.0125 0 .3472 3.4289.957 3.4232 1.7344s-4.0658-.2218-3.1553.1278c.9104.3496 2.8652 1.1865 2.6431 1.708-.4745 1.1135-3.6261-.7726-3.8882-.4007-.4231.5997 2.3256 1.9986 2.3024 2.1323-.0448.2564-1.8773-.4029-2.3024.1294-.3442-.097-.5032-.5604-.6101-.6219l-.6763-8.72339s.6072 8.21339-.1687 8.44959c-.7759.2363-2.9314.9545-2.9941.5958-.0233-.1337 2.5953-1.3621 2.1723-1.9618-.3116-.442-3.4717 1.1253-3.6734.2177-.8981-.6474 2.9088-1.2077 2.9088-1.8698 0-.6622-3.4826.7837-3.066-.138.4166-.9218 3.2047-1.2518 3.2567-1.3794.0951-.2335-3.0995.3634-3.0995 0 0-.6877 1.9122-.823 3.0995-1.4419.0702-.7062-2.8803.6952-3.0995.1291-.2191-.5661 3.7712-2.03274 3.6734-2.14699-.1544-.18044-3.3703.63373-2.84.20618 1.0293-.8298 3.0385-1.95818 3.5007-2.25916 0 0 .0557-.11357.1152-.07503.0597-.03854.1252-.08075.1252-.08075s0 .71003-.0098.15578c-.0099-.55426 4.7096 1.871 4.7632 2.4858.0623.71827-2.9162-.54146-2.8461.16475.6054.37512 2.3275 1.10112 3.0391 1.42032.3227.1448-2.3778-.3065-2.3208-.0849.1454.5646 2.7759.6347 2.8537 1.5393z" fill="#52ab0b"/></g></svg>