<svg fill="none" height="12" viewBox="0 0 16 12" width="16" xmlns="http://www.w3.org/2000/svg" xmlns:xlink="http://www.w3.org/1999/xlink"><mask id="a" height="12" maskUnits="userSpaceOnUse" width="16" x="0" y="0"><path d="m0 0h16v12h-16z" fill="#fff"/></mask><mask id="b" height="12" maskUnits="userSpaceOnUse" width="16" x="0" y="0"><path clip-rule="evenodd" d="m0 0v12h16v-12z" fill="#fff" fill-rule="evenodd"/></mask><mask id="c" fill="#000" height="8" maskUnits="userSpaceOnUse" width="7" x="4.5" y="2"><path d="m4.5 2h7v8h-7z" fill="#fff"/><path clip-rule="evenodd" d="m8.34844 8.9213-.15672.0787-.10928-.16616v-.08584l-.08244-.19743-.13071-.15928-.05405-.4022-.15997-.29565-.01879-.03286-.02184-.07655v-.10605l.04063-.15009.07097-.17697v-.15693-.19662l-.07097-.23997-.19256-.19826-.09306-.15223.09306-.18167.06977-.15973-.16283-.11139h-.18464l-.18734-.19235-.25795.09536-.32388.09699h-.18467-.21243l-.17601-.19235-.09392-.22689-.17798-.23482-.07083-.11889.07083-.1681v-.25481-.23247l.11143-.12403.16047-.3212.17601-.16887.15003-.14582.0624-.14954.18467-.22985.16692-.10104v.10104h.15696l.79276-.18648v.29722l.33681.19847.32243.07018v-.14954l.55618.14954.39657-.07018v.29882l.20139.40725.16776.3565.09286.17347.14565.16197.23399.20636v.09831h.23038l.2835-.09831v.23482l-.1511.41924-.2949.27112-.37592.53216v.23997l.07405.35355-.07405.32706-.41063.27029v.16498.34102h-.20131v.2426l-.44893.42443zm1.48613-.77844-.10774-.0419-.03678-.05914-.02338-.15183.18307-.13233-.03789-.14679.06029-.07729.10458-.02149.23408-.04512.1778-.18126.1114.02939-.0153.19699-.4588.58887z" fill="#000" fill-rule="evenodd"/></mask><g mask="url(#a)"><path clip-rule="evenodd" d="m0 0v12h16v-12z" fill="#19724d" fill-rule="evenodd"/><g mask="url(#b)"><path d="m7.78771 7.50895-.8569 2.34554.47354-2.45186-1.43477 2.04383 1.09199-2.24575-1.91487 1.60285 1.63602-1.8866-2.26447 1.05263 2.06857-1.39889-2.45975.43068 2.36014-.81584-2.4874-.22063 2.49087-.17719-2.34554-.8569 2.45186.47354-2.04384-1.43477 2.24575 1.09198-1.60284-1.91486 1.8866 1.63602-1.05263-2.26447 1.39888 2.06857-.43067-2.45975.81584 2.36014.22063-2.4874.17718 2.49087.8569-2.34554-.47353 2.45185 1.43473-2.04383-1.09195 2.24575 1.91485-1.60285-1.636 1.8866 2.2645-1.05262-2.0686 1.39888 2.4597-.43067-2.36009.81583 2.48739.22063-2.49086.17719 2.34556.8569-2.45188-.47353 2.04388 1.43477-2.24579-1.09199 1.60289 1.91487-1.88665-1.63602 1.05263 2.26446-1.39889-2.06856.43068 2.45974-.81584-2.36013-.22063 2.4874z" fill="#f7fcff"/><path clip-rule="evenodd" d="m8.34844 8.9213-.15672.0787-.10928-.16616v-.08584l-.08244-.19743-.13071-.15928-.05405-.4022-.15997-.29565-.01879-.03286-.02184-.07655v-.10605l.04063-.15009.07097-.17697v-.15693-.19662l-.07097-.23997-.19256-.19826-.09306-.15223.09306-.18167.06977-.15973-.16283-.11139h-.18464l-.18734-.19235-.25795.09536-.32388.09699h-.18467-.21243l-.17601-.19235-.09392-.22689-.17798-.23482-.07083-.11889.07083-.1681v-.25481-.23247l.11143-.12403.16047-.3212.17601-.16887.15003-.14582.0624-.14954.18467-.22985.16692-.10104v.10104h.15696l.79276-.18648v.29722l.33681.19847.32243.07018v-.14954l.55618.14954.39657-.07018v.29882l.20139.40725.16776.3565.09286.17347.14565.16197.23399.20636v.09831h.23038l.2835-.09831v.23482l-.1511.41924-.2949.27112-.37592.53216v.23997l.07405.35355-.07405.32706-.41063.27029v.16498.34102h-.20131v.2426l-.44893.42443zm1.48613-.77844-.10774-.0419-.03678-.05914-.02338-.15183.18307-.13233-.03789-.14679.06029-.07729.10458-.02149.23408-.04512.1778-.18126.1114.02939-.0153.19699-.4588.58887z" fill="#19724d" fill-rule="evenodd"/><path d="m8.19172 9-.1671.1099.0978.1487.15905-.07987zm.15672-.0787v-.2h-.04739l-.04236.02127zm-.266-.08746h-.2v.05988l.0329.05002zm0-.08584h.2v-.04007l-.01545-.03699zm-.08244-.19743.18456-.07706-.01132-.0271-.01863-.02271zm-.13071-.15928-.19822.02664.00757.05631.03605.04392zm-.05405-.4022.19821-.02664-.00488-.03631-.01743-.03223zm-.15997-.29565.17595-.0952-.00234-.00409zm-.01879-.03286-.19232.05488.00666.02334.01205.02107zm-.02184-.07655h-.2v.02797l.00767.0269zm0-.10605-.19305-.05226-.00695.02567v.02659zm.04063-.15009-.18563-.07445-.00436.01088-.00306.01131zm.07097-.17697.18563.07444.01437-.03583v-.03861zm0-.35355h.2v-.02896l-.00821-.02776zm-.07097-.23997.19179-.05672-.01398-.04727-.03434-.03536zm-.19256-.19826-.17064.10431.01163.01903.01554.016zm-.09306-.15223-.178-.09118-.05113.09981.05849.09569zm.09306-.18167.17834.09135.00494-.0113zm.06977-.15973.18328.08006.06625-.15167-.13661-.09346zm-.16283-.11139.11293-.16507-.05106-.03493h-.06187zm-.18464 0-.14328.13954.05888.06046h.0844zm-.18734-.19235.14327-.13954-.09069-.09312-.12193.04507zm-.25795.09536.05749.19197.01185-.00438zm-.32388.09699v.2h.02931l.02807-.00841zm-.3971 0-.14755.13502.05947.06498h.08808zm-.17601-.19235-.18479.0765.01347.03254.02377.02598zm-.09392-.22689.18479-.07649-.00985-.02379-.01555-.02052zm-.17798-.23482-.17182.10236.0057.00957.00673.00888zm-.07083-.11889-.18431-.07766-.03925.09317.05174.08685zm.07083-.1681.18431.07766.01569-.03725v-.04041zm0-.48728-.14878-.13366-.05122.05702v.07664zm.11143-.12403.14878.13366.01806-.0201.01208-.02418zm.16047-.3212-.13846-.14432-.02498.02396-.01547.03097zm.17601-.16887.13847.14432.00093-.0009zm.15003-.14582.13939.14342.0294-.02857.01578-.03783zm.0624-.14954-.15591-.12527-.01774.02209-.01092.02615zm.18467-.22985-.10357-.17109-.03021.01829-.02213.02753zm.16692-.10104h.2v-.35487l-.30357.18377zm0 .10104h-.2v.2h.2zm.15696 0v.2h.0232l.02259-.00531zm.79276-.18648h.2v-.2525l-.2458.05781zm0 .29722h-.2v.11428l.09846.05802zm.33681.19847-.10154.17231.02765.0163.03136.00682zm.32243.07018-.04253.19542.24253.05279v-.24821zm0-.14954.05193-.19315-.25193-.06773v.26088zm.55618.14954-.05194.19314.04297.01155.04381-.00775zm.39657-.07018h.2v-.23849l-.23485.04155zm0 .29882h-.2v.04675l.02072.0419zm.20139.40725.181-.08517-.00172-.00349zm.16776.3565-.18121.08527.00488.00913zm.09286.17347-.17632.09439.01142.02134.01619.018zm.14565.16197-.14872.13373.00775.00861.00868.00766zm.23399.20636h.19998v-.09028l-.0677-.05972zm0 .09831h-.2v.2h.2zm.23038 0v.2h.0336l.0319-.01104zm.2835-.09831h.2v-.28102l-.2655.09205zm0 .23482.1882.06781.0118-.03287v-.03494zm-.1511.41924.1354.14724.0361-.03324.0167-.04619zm-.2949.27112-.13535-.14724-.01569.01443-.0123.01741zm-.37592.53216-.16335-.1154-.03665.05188v.06352zm0 .23997h-.2v.02072l.00425.02028zm.07405.35355.19506.04416.00963-.0425-.00894-.04266zm-.07405.32706.10997.16705.0673-.0443.0178-.07859zm-.41063.27029-.10996-.16705-.09004.05926v.10779zm0 .506v.2h.2v-.2zm-.20131 0v-.2h-.2v.2zm0 .2426.1374.14533.0626-.05919v-.08614zm-.44893.42443v.2h.07958l.05782-.05467zm1.10962-.82034-.16985.1056.03521.05664.06216.02417zm.10774.0419-.07248.1864.05627.02188.05898-.01291zm-.14452-.10104-.19766.03045.00622.04042.0216.03473zm-.02338-.15183-.11717-.16209-.09912.07165.01862.12088zm.18307-.13233.11716.16209.1106-.07995-.0341-.13213zm-.03789-.14679-.15769-.12302-.06058.07765.02462.09535zm.06029-.07729-.04026-.1959-.07213.01482-.0453.05806zm.10458-.02149-.03786-.1964-.00241.00049zm.23408-.04512.0378.19639.0613-.0118.0437-.04453zm.1778-.18126.051-.19338-.1124-.02965-.0814.08298zm.1114.02939.1994.01546.0129-.16629-.1613-.04255zm-.0153.19699.1578.12292.037-.04747.0046-.06zm-.4588.58887.0428.19538.0706-.01546.0444-.057zm-1.74443 1.07777.15672-.0787-.1795-.35746-.15672.0787zm-.36613-.23499.10928.16616.3342-.2198-.10928-.16616zm-.0329-.19574v.08584h.4v-.08584zm-.067-.12037.08244.19744.36911-.15413-.08243-.19743zm-.10075-.10947.1307.15928.30922-.25374-.13071-.15928zm-.09767-.50243.05405.4022.39644-.05328-.05406-.4022zm-.13765-.22712.15996.29565.35181-.19035-.15997-.29565zm-.0165-.02874.01879.03286.34722-.19858-.01879-.03285zm-.04056-.12097.02185.07656.38465-.10975-.02184-.07655zm-.00767-.16092v.10605h.4v-.10605zm.04758-.20235-.04063.15009.3861.10452.04063-.15009zm.07839-.19916-.07097.17697.37126.14889.07097-.17697zm-.01437-.08248v.15693h.4v-.15693zm0-.19662v.19662h.4v-.19662zm-.06276-.18325.07097.23997.38358-.11344-.07097-.23997zm-.14424-.11564.19256.19826.28694-.27869-.19256-.19826zm-.12023-.18725.09306.15222.34128-.20863-.09306-.15222zm.08569-.37717-.09305.18167.35601.18236.09306-.18167zm.0645-.1486-.06977.15972.36656.16011.06977-.15972zm-.09247.13373.16282.11139.22585-.33014-.16282-.11139zm-.07172.03493h.18464v-.4h-.18464zm-.33062-.2528.18734.19234.28655-.27908-.18734-.19235zm-.04533.1434.25795-.09535-.13869-.37519-.25795.09535zm-.33584.10099.32387-.09699-.11475-.38319-.32387.097zm-.24205.00841h.18467v-.4h-.18467zm-.21243 0h.21243v-.4h-.21243zm-.32356-.25733.17601.19235.2951-.27003-.17601-.19235zm-.13116-.28541.09392.22689.36958-.15299-.09392-.22689zm-.15258-.19051.17798.23482.31878-.24161-.17798-.23483zm-.08326-.13734.07083.11889.34364-.20472-.07083-.11889zm.05834-.34812-.07083.1681.36862.15532.07083-.1681zm-.01569-.17715v.25481h.4v-.25481zm0-.23247v.23247h.4v-.23247zm.16266-.2577-.11144.12404.29755.26733.11144-.12404zm.13033-.27692-.16047.3212.35783.17877.16047-.3212zm.21646-.2238-.17601.16887.27692.28864.17601-.16887zm.14909-.14492-.15003.14582.2788.28684.15002-.14582zm.01723-.08315-.06241.14954.36915.15405.06241-.14954zm.21333-.27809-.18467.22985.31182.25053.18468-.22984zm.21926-.14687-.16692.10105.20715.34218.16691-.10104zm.30357.27214v-.10104h-.4v.10104zm-.04304-.2h-.15696v.4h.15696zm.74696-.18117-.79276.18649.09159.38937.79276-.18648zm.2458.49191v-.29722h-.4v.29722zm.23835.02617-.33681-.19848-.20308.34461.33681.19848zm.26342.04705-.32242-.07017-.08507.39085.32243.07017zm-.24253.04589v.14954h.4v-.14954zm.80811-.0436-.55618-.14955-.10386.38629.55617.14954zm.30979-.07398-.39657.07018.06969.39388.39658-.07017zm.23485.49576v-.29882h-.4v.29882zm.18067.31859-.20139-.40725-.35856.17731.20139.40725zm.16944.36001-.16775-.35651-.36194.17031.16776.35651zm.08822.16422-.09286-.17346-.35265.18879.09287.17346zm.11804.12264-.14564-.16197-.29743.26746.14564.16197zm.21756.19009-.23398-.20636-.26458.3.23399.20636zm.0677.24831v-.09831h-.39998v.09831zm.0304-.2h-.23038v.4h.23038zm.218-.08728-.2836.09831.1311.37793.2835-.09831zm.2655.42379v-.23482h-.4v.23482zm-.1629.48705.1511-.41924-.3764-.13561-.151.41923zm-.3477.35054.2949-.27111-.2707-.29447-.29495.27111zm-.34796.50032.37596-.53216-.32674-.23079-.37593.53216zm.03664.12458v-.23997h-.4v.23997zm.0698.31255-.07404-.35355-.39151.082.07405.35355zm-.07473.41222.07404-.32706-.39012-.08832-.07405.32706zm-.49573.39319.41063-.2703-.21993-.33411-.41063.2703zm.09003-.00208v-.16498h-.4v.16498zm0 .34102v-.34102h-.4v.34102zm-.40131.2h.20131v-.4h-.20131zm.2.0426v-.2426h-.4v.2426zm-.51153.56976.44893-.42443-.27481-.29066-.44892.42443zm-.40617.05467h.26877v-.4h-.26877zm1.30591-.83393.10774.04189.14496-.37281-.10775-.04189zm-.13414-.13995.03677.05914.33969-.2112-.03677-.05914zm-.05121-.22699.02339.15184.39533-.0609-.02338-.15183zm.26358-.32486-.18308.13233.23433.32418.18307-.13233zm-.11438.06528.03789.14679.38731-.09997-.0379-.14679zm.09625-.25029-.06029.07729.31538.24604.06026-.07729zm.222-.09438-.10457.0215.08053.39181.10459-.0215zm.23645-.04559-.23404.04511.07574.39278.234-.04512zm.0729-.12493-.1778.18126.2856.28011.1778-.18126zm.3052-.02394-.1114-.02939-.102.38677.1114.02939zm.1331.40582.0153-.19698-.3988-.03091-.0153.19699zm-.5004.69634.4588-.58887-.3155-.24584-.45883.58888zm-.30636.11435.19136-.04189-.08553-.39075-.19137.04189z" fill="#f7fcff" mask="url(#c)"/><g clip-rule="evenodd" fill="#feca00" fill-rule="evenodd"><path d="m8 1.75-.29389.15451.05613-.32726-.23777-.23176.32858-.04774.14695-.29775.14695.29775.32858.04774-.23777.23176.05613.32726z"/><path d="m9.09998 1.89481-.32387.07318.13892-.30158-.16968-.2854.32975.03892.219-.24957.06487.32564.30503.13116-.28964.16233-.03049.33063z"/><path d="m10.125 2.31938-.33177-.01314.21227-.25534-.09007-.3196.30847.12294.2761-.18438-.0216.33133.2607.20564-.3218.08183-.115.31147z"/><path d="m11.0052 2.99478-.3171-.09856.2711-.19171-.0042-.33201.2661.19859.3144-.10664-.1066.31445.1986.2661-.332-.00424-.1917.27109z"/><path d="m11.6806 3.87503-.2807-.17726.3114-.11502.0819-.32179.2056.26068.3313-.02161-.1844.27613.123.30843-.3196-.09002-.2554.21223z"/><path d="m12.1052 4.90004-.2253-.24389.3306-.03048.1623-.28965.1312.30503.3256.06487-.2495.21901.0389.32974-.2854-.16968-.3016.13892z"/><path d="m12.25 6-.1545-.29389.3272.05613.2318-.23777.0478.32858.2977.14695-.2977.14695-.0478.32858-.2318-.23777-.3272.05613z"/><path d="m12.1052 7.10001-.0732-.32387.3016.13891.2854-.16967-.0389.32974.2495.219-.3256.06488-.1312.30503-.1623-.28965-.3306-.03049z"/><path d="m11.6806 8.12503.0131-.33177.2554.21223.3196-.09003-.123.30844.1844.27613-.3313-.02161-.2056.26068-.0819-.32179-.3114-.11502z"/><path d="m11.0052 9.00523.0986-.31707.1917.2711.332-.00425-.1986.26611.1066.31444-.3144-.10663-.2661.19858.0042-.33201-.2711-.19171z"/><path d="m10.125 9.68062.1773-.28075.115.31147.3218.08183-.2607.20564.0216.33129-.2761-.1843-.30846.1229.09006-.3196-.21227-.25534z"/><path d="m9.09998 10.1052.24389-.22535.03048.33065.28965.1623-.30503.1312-.06488.3256-.219-.2496-.32974.039.16968-.2854-.13892-.3016z"/><path d="m8 10.25.29389-.1545-.05613.3272.23777.2318-.32858.0478-.14695.2977-.14695-.2977-.32858-.0478.23777-.2318-.05613-.3272z"/><path d="m6.90002 10.1052.32387-.0732-.13892.3016.16968.2854-.32975-.0389-.219.2495-.06487-.3256-.30503-.1312.28964-.1623.03049-.33062z"/><path d="m5.875 9.68062.33177.01314-.21223.25534.09003.3196-.30844-.1229-.27613.1843.02161-.33129-.26068-.20564.32179-.08183.11502-.31147z"/><path d="m4.9948 9.00522.31706.09856-.27109.19171.00425.33201-.26611-.19859-.31444.10664.10663-.31445-.19858-.2661.332.00424.19172-.27109z"/><path d="m4.31939 8.12497.28076.17726-.31148.11502-.08183.32179-.20564-.26068-.33133.02161.18438-.27613-.12294-.30843.3196.09002.25534-.21223z"/><path d="m3.89482 7.09996.22531.24389-.33064.03048-.16232.28965-.13116-.30503-.32564-.06487.24957-.21901-.03892-.32974.2854.16968.30158-.13892z"/><path d="m3.75 6 .15451.29389-.32726-.05613-.23176.23777-.04774-.32858-.29775-.14695.29775-.14695.04774-.32858.23176.23777.32726-.05613z"/><path d="m3.89482 4.89999.07317.32387-.30157-.13891-.2854.16967.03892-.32974-.24957-.219.32563-.06488.13117-.30503.16232.28965.33063.03049z"/><path d="m4.31939 3.87497-.01314.33177-.25534-.21223-.3196.09003.12294-.30844-.18438-.27613.33133.02161.20564-.26068.08183.32179.31148.11502z"/><path d="m4.9948 2.99477-.09856.31707-.19172-.2711-.332.00425.19858-.26611-.10663-.31444.31444.10663.2661-.19858-.00424.33201.27109.19171z"/><path d="m5.875 2.31938-.17727.28075-.11501-.31147-.3218-.08183.26069-.20564-.02161-.33133.27613.18438.30843-.12294-.09002.3196.21223.25534z"/><path d="m6.90002 1.89484-.24389.22531-.03048-.33063-.28965-.16233.30503-.13116.06488-.32563.219.24956.32974-.03892-.16968.2854.13892.30158z"/></g></g></g></svg>