<svg fill="none" height="24" viewBox="0 0 32 24" width="32" xmlns="http://www.w3.org/2000/svg" xmlns:xlink="http://www.w3.org/1999/xlink"><mask id="a" height="24" maskUnits="userSpaceOnUse" width="32" x="0" y="0"><path d="m0 0h32v24h-32z" fill="#fff"/></mask><mask id="b" height="24" maskUnits="userSpaceOnUse" width="32" x="0" y="0"><path clip-rule="evenodd" d="m0 0v24h32v-24z" fill="#fff" fill-rule="evenodd"/></mask><mask id="c" height="12" maskUnits="userSpaceOnUse" width="11" x="21" y="10"><path d="m25.9286 21.714c-1.2956 0-2.2059-.2948-2.8562-.8149-.6513-.5211-1.0737-1.2937-1.3426-2.3124-.2695-1.0209-.3793-2.268-.4203-3.7132-.0288-1.0159-.0235-2.1185-.0178-3.3002.0021-.4203.0041-.8506.0048-1.2906h9.375c.1673 2.9083.2311 5.7528-.3623 7.8858-.3033 1.0903-.7728 1.9725-1.4683 2.5822-.6911.6058-1.629.9633-2.9123.9633z" fill="#fff" stroke="#fff" stroke-width=".5"/></mask><mask id="d" height="14" maskUnits="userSpaceOnUse" width="18" x="0" y="0"><path d="m0 0h18v14h-18z" fill="#fff"/></mask><mask id="e" fill="#000" height="18" maskUnits="userSpaceOnUse" width="22" x="-2" y="-2"><path d="m-2-2h22v18h-22z" fill="#fff"/><path clip-rule="evenodd" d="m9.98451 0h-2v6h-7.98451v2h7.98451v6h2v-6h8.01549v-2h-8.01549z" fill="#000" fill-rule="evenodd"/></mask><g mask="url(#a)"><path clip-rule="evenodd" d="m0 0v24h32v-24z" fill="#2e42a5" fill-rule="evenodd"/><g mask="url(#b)"><path d="m25.9286 21.714c-1.2956 0-2.2059-.2948-2.8562-.8149-.6513-.5211-1.0737-1.2937-1.3426-2.3124-.2695-1.0209-.3793-2.268-.4203-3.7132-.0288-1.0159-.0235-2.1185-.0178-3.3002.0021-.4203.0041-.8506.0048-1.2906h9.375c.1673 2.9083.2311 5.7528-.3623 7.8858-.3033 1.0903-.7728 1.9725-1.4683 2.5822-.6911.6058-1.629.9633-2.9123.9633z" fill="#6dc2ff" stroke="#f7fcff" stroke-width=".5"/><g mask="url(#c)"><path d="m20.9325 10h10.07v7.97838h-10.07z" fill="#2ebed7"/><path d="m20.8 17.9136h10.6v4.08649h-10.6z" fill="#a95601"/><path d="m26.7458 13.4639s-1.8671.4234-1.6866 0c.1806-.4235.6634-1.9506.6634-1.9506" stroke="#ffc6b5"/><g clip-rule="evenodd" fill-rule="evenodd"><path d="m27.3073 13.7658s-.3406-.2087-.3406-.5888c0-.3802-.8307-.5224-.2451-1.1163.5857-.5939.8384-.3324.8384 0s.4708 1.1163.4708 1.1163z" fill="#ffc6b5"/><path d="m26.365 10.3243h-.9275v.9081h-1.855v.9082h1.855v7.9135h.9275v-7.9135h1.855v-.9082h-1.855z" fill="#272727"/><path d="m28.3621 20.3212s-.3374-1.5615-.3374-2.6304-.5655-1.8334-.4039-2.3987.5506-1.1903.3561-1.5772.1898-.5753-.3561-.3869-.6927-.1884-1.2197 0c-.5271.1884-.5938 1.0778-.5938 1.3315s.2343 1.9644.2343 2.4978c0 .5335-.1931 3.8137.3595 3.8137.5525 0 1.1549-.8536 1.3654-.8536.2104 0 .5956.2038.5956.2038z" fill="#0c7c38"/><path d="m25.0299 16.1414c-.3369 0-.0271.7824-.8841 1.1254-.8571.3431-1.0253.8262-.7553.8262.2699 0 2.4047 2.3985 2.4047 2.3985l.5235-.8093v-2.5555s-.952-.9853-1.2888-.9853z" stroke="#ff9a06"/></g><path d="m27.5432 20.1578s.4.8584 0 .8584" stroke="#979797"/><path d="m27.4145 13.7903s-.1758.9628-.5103 1.1644c-.3346.2016-1.7091.5918-1.7091.925 0 .3333-.1364.4524-.1364.4524" stroke="#ffc6b5"/><path clip-rule="evenodd" d="m26.7479 11.8025s.3364.3997.5247 1.0586c.1883.6588.7338.8833.7338.5749s.4033-1.6335 0-1.6335-1.2585 0-1.2585 0z" fill="#ff9a06" fill-rule="evenodd"/></g><path d="m0 0h18v14h-18z" fill="#2b409a"/><g mask="url(#d)"><path d="m-2.00427 12.9997 3.96095 1.7372 16.13322-12.84824 2.0893-2.581531-4.2357-.580619-6.58033 5.53669-5.2965 3.73043z" fill="#f7fcff"/><path d="m-1.46204 14.217 2.017925 1.0081 18.873015-16.157717h-2.8334z" fill="#f50100"/><path d="m20.0043 12.9997-3.961 1.7372-16.1331743-12.84824-2.0893157-2.581531 4.23567-.580619 6.58035 5.53669 5.29647 3.73043z" fill="#f7fcff"/><path d="m19.8691 13.8733-2.0179 1.0082-8.03631-6.91799-2.3826-.77292-9.81249-7.874537h2.833394l9.807006 7.687627 2.6049.92682z" fill="#f50100"/><path clip-rule="evenodd" d="m9.98451 0h-2v6h-7.98451v2h7.98451v6h2v-6h8.01549v-2h-8.01549z" fill="#f50100" fill-rule="evenodd"/><path d="m7.98451 0v-1.5h-1.5v1.5zm2 0h1.49999v-1.5h-1.49999zm-2 6v1.5h1.5v-1.5zm-7.98451 0v-1.5h-1.5v1.5zm0 2h-1.5v1.5h1.5zm7.98451 0h1.5v-1.5h-1.5zm0 6h-1.5v1.5h1.5zm2 0v1.5h1.49999v-1.5zm0-6v-1.5h-1.5v1.5zm8.01549 0v1.5h1.5v-1.5zm0-2h1.5v-1.5h-1.5zm-8.01549 0h-1.5v1.5h1.5zm-2-4.5h2v-3h-2zm1.5 4.5v-6h-3v6zm-9.48451 1.5h7.98451v-3h-7.98451zm1.5.5v-2h-3v2zm6.48451-1.5h-7.98451v3h7.98451zm1.5 7.5v-6h-3v6zm.5-1.5h-2v3h2zm-1.5-4.5v6h2.99999v-6zm9.51549-1.5h-8.01549v3h8.01549zm-1.5-.5v2h3v-2zm-6.51549 1.5h8.01549v-3h-8.01549zm-1.5-7.5v6h2.99999v-6z" fill="#f7fcff" mask="url(#e)"/></g></g></g></svg>