<svg fill="none" height="24" viewBox="0 0 32 24" width="32" xmlns="http://www.w3.org/2000/svg" xmlns:xlink="http://www.w3.org/1999/xlink"><mask id="a" height="24" maskUnits="userSpaceOnUse" width="32" x="0" y="0"><path d="m0 0h32v24h-32z" fill="#fff"/></mask><mask id="b" height="24" maskUnits="userSpaceOnUse" width="32" x="0" y="0"><path clip-rule="evenodd" d="m0 0v24h32v-24z" fill="#fff" fill-rule="evenodd"/></mask><mask id="c" height="12" maskUnits="userSpaceOnUse" width="14" x="-1" y="-1"><path d="m-.5-.5h13v11h-13z" fill="#fff" stroke="#fff"/></mask><g mask="url(#a)"><path clip-rule="evenodd" d="m0 0v24h32v-24z" fill="#2e42a5" fill-rule="evenodd"/><g mask="url(#b)"><path clip-rule="evenodd" d="m18.7889 6.19995h4.0083.0316 4.0084l-.7842 1.50402h-2.4417v.80787h1.8719l-.7625 1.39922h-1.1094v2.79824l1.8272-2.87923 2.3647 4.09463h-.966l-.3374-.4483h-2.1404l-1.505 2.7809.0004.1536-.0418-.0772-.0417.0772.0004-.1536-1.5051-2.7809h-2.1403l-.3374.4483h-.9661l2.3647-4.09463 1.8272 2.87923v-5.00533h-2.4417zm6.6967 5.30955-.5252.8077h.9943zm-5.3452 0 .5252.8077h-.9942zm-3.8267-.8963.831-.6127.831.6127-.2932-1.02671.8068-.64804-1.0122-.02185-.3324-1.01319-.3324 1.01319-1.0123.02185.8068.64804zm12.1417-.6127-.831.6127.2932-1.02671-.8068-.64804 1.0122-.02185.3324-1.01319.3324 1.01319 1.0122.02185-.8067.64804.2931 1.02671zm-3.3759 7.8028.831-.6127.831.6127-.2931-1.0267.8067-.6481-1.0122-.0218-.3324-1.0132-.3324 1.0132-1.0122.0218.8067.6481zm-5.3899-.6127-.831.6127.2931-1.0267-.8067-.6481 1.0122-.0218.3324-1.0132.3324 1.0132 1.0122.0218-.8067.6481.2931 1.0267zm2.2794 3.0094.831-.6127.8311.6127-.2932-1.0267.8068-.6481-1.0122-.0218-.3325-1.0132-.3324 1.0132-1.0122.0218.8068.6481z" fill="#f7fcff" fill-rule="evenodd"/><path d="m-.5-.5h13v11h-13z" fill="#2e42a5" stroke="#fff"/><g clip-rule="evenodd" fill-rule="evenodd" mask="url(#c)"><path d="m8 0h4v10h-4z" fill="#f50100"/><path d="m0 0h4v10h-4z" fill="#2e42a5"/><path d="m4 0h4v10h-4z" fill="#f7fcff"/></g></g></g></svg>