<svg fill="none" height="12" viewBox="0 0 16 12" width="16" xmlns="http://www.w3.org/2000/svg" xmlns:xlink="http://www.w3.org/1999/xlink"><mask id="a" height="12" maskUnits="userSpaceOnUse" width="16" x="0" y="0"><path d="m0 0h16v12h-16z" fill="#fff"/></mask><mask id="b" height="12" maskUnits="userSpaceOnUse" width="16" x="0" y="0"><path clip-rule="evenodd" d="m0 0v12h16v-12z" fill="#fff" fill-rule="evenodd"/></mask><mask id="c" height="12" maskUnits="userSpaceOnUse" width="9" x="0" y="0"><path clip-rule="evenodd" d="m0 0v12l9-6z" fill="#fff" fill-rule="evenodd"/></mask><g mask="url(#a)"><path clip-rule="evenodd" d="m0 0v12h16v-12z" fill="#f7fcff" fill-rule="evenodd"/><g mask="url(#b)"><path clip-rule="evenodd" d="m0 0v4h16v-4z" fill="#feca00" fill-rule="evenodd"/><path clip-rule="evenodd" d="m0 8v4h16v-4z" fill="#093" fill-rule="evenodd"/><path d="m0 3.5h-.5v.5 4 .5h.5 16 .5v-.5-4-.5h-.5z" fill="#272727" stroke="#fff"/></g><path clip-rule="evenodd" d="m0 0v12l9-6z" fill="#f50100" fill-rule="evenodd"/><g mask="url(#c)"><path clip-rule="evenodd" d="m4.03439 7.17661-1.88947 1.52523.86669-2.03831-1.48921-1.43411h1.7578l.7213-1.72942.76609 1.72942h1.75481l-1.56788 1.43411.78468 2.03831z" fill="#feca00" fill-rule="evenodd"/><path clip-rule="evenodd" d="m3.07796 5.99215-.32045 1.07022s1.08182-.0107 1.21175.0986c.3915-.24412 1.19748-.0986 1.19748-.0986l-.42869-1.14537s-.54352-.24628-.76879-.11124c-.55214-.12473-.8913.18639-.8913.18639z" fill="#f7fcff" fill-rule="evenodd"/><path d="m5.7819 7.60816c.08305.1103.06097.26704-.04933.3501-.1103.08305-.26704.06097-.3501-.04933l-2.09004-2.77562c-.08306-.1103-.06097-.26704.04933-.3501.1103-.08305.26704-.06097.35009.04933z" fill="#000"/><path d="m3.48699 4.91981-.2-.24" stroke="#000" stroke-linecap="round" stroke-linejoin="round" stroke-width=".5"/><g clip-rule="evenodd" fill="#000" fill-rule="evenodd"><path d="m2.80231 4.68127-.60425.96767.30213.52335.69109-1.02712.1243-.3176-.1243-.1463z"/><path d="m2.01947 7.55426.4644.53925 3.51419-4.07203-1.59737.99584z"/></g></g></g></svg>