<svg width="20" height="15" viewBox="0 0 20 15" fill="none" xmlns="http://www.w3.org/2000/svg">
<mask id="mask0" mask-type="alpha" maskUnits="userSpaceOnUse" x="0" y="0" width="20" height="15">
<rect width="20" height="15" fill="white"/>
</mask>
<g mask="url(#mask0)">
<path fill-rule="evenodd" clip-rule="evenodd" d="M0 0V15H20V0H0Z" fill="#3D58DB"/>
<mask id="mask1" mask-type="alpha" maskUnits="userSpaceOnUse" x="0" y="0" width="20" height="15">
<path fill-rule="evenodd" clip-rule="evenodd" d="M0 0V15H20V0H0Z" fill="white"/>
</mask>
<g mask="url(#mask1)">
<path fill-rule="evenodd" clip-rule="evenodd" d="M0 15H20V0L0 15Z" fill="#579D20"/>
<path d="M-0.488746 15.4658L-1.61609 13.9057L21.047 -1.22144L22.1743 0.33862L-0.488746 15.4658Z" fill="#FECA00"/>
<path fill-rule="evenodd" clip-rule="evenodd" d="M2.2833 4.09159L3.13553 3.50046L4.02804 4.03183L3.71544 3.07913L4.33963 2.39741H3.49394L3.13553 1.39624L2.77713 2.39741L1.92999 2.43238L2.55562 3.07913L2.2833 4.09159ZM5.81966 4.09159L6.67189 3.50046L7.56441 4.03183L7.2518 3.07913L7.87599 2.39741H7.0303L6.67189 1.39624L6.31349 2.39741L5.46635 2.43238L6.09198 3.07913L5.81966 4.09159Z" fill="#F7FCFF"/>
<path fill-rule="evenodd" clip-rule="evenodd" d="M4.15499 5.90897L5.00722 5.31785L5.89973 5.84921L5.58713 4.89652L6.21132 4.21479H5.36563L5.00722 3.21362L4.64882 4.21479L3.80168 4.24976L4.42731 4.89652L4.15499 5.90897ZM3.13553 7.25037L2.2833 7.84149L2.55562 6.82904L1.92999 6.18228L2.77713 6.14731L3.13553 5.14614L3.49394 6.14731H4.33963L3.71544 6.82904L4.02804 7.78173L3.13553 7.25037ZM6.67189 7.25037L5.81966 7.84149L6.09198 6.82904L5.46635 6.18228L6.31349 6.14731L6.67189 5.14614L7.0303 6.14731H7.87599L7.2518 6.82904L7.56441 7.78173L6.67189 7.25037Z" fill="#F7FCFF"/>
</g>
</g>
</svg>
