<svg fill="none" height="12" viewBox="0 0 16 12" width="16" xmlns="http://www.w3.org/2000/svg" xmlns:xlink="http://www.w3.org/1999/xlink"><mask id="a" height="12" maskUnits="userSpaceOnUse" width="16" x="0" y="0"><path d="m0 0h16v12h-16z" fill="#fff"/></mask><mask id="b" height="12" maskUnits="userSpaceOnUse" width="16" x="0" y="0"><path clip-rule="evenodd" d="m0 0v12h16v-12z" fill="#fff" fill-rule="evenodd"/></mask><mask id="c" height="7" maskUnits="userSpaceOnUse" width="6" x="5" y="4"><path d="m5.32614 4.47998h5.06426c.0086.38448.0111 1.05518.0111 1.70085 0 .41696-.0011.81838-.0022 1.1156l-.0015.35648-.0005.09878-.0001.01421-.0003.00164c-.0022.01331-.0059.03426-.0117.06174-.0115.05505-.0309.13585-.0617.23376-.0619.19666-.1684.45741-.34586.71649-.34723.50695-.97768 1.02818-2.15273 1.02818-1.17346 0-1.77339-.52053-2.09273-1.02261-.16398-.25782-.25762-.51767-.31003-.71418-.02607-.09777-.04157-.17849-.05044-.23348-.00442-.02746-.00717-.04838-.00875-.06166l-.00096-.0086-.00027-.02204-.00118-.09815-.00425-.35427c-.00351-.29544-.0082-.69476-.01288-1.11028-.00716-.6349-.0143-1.30569-.01728-1.70246zm.03503 3.27936c-.00001-.00014-.00001-.00015 0-.00002z" fill="#fff" stroke="#fff" stroke-width=".5625"/></mask><g mask="url(#a)"><path clip-rule="evenodd" d="m0 0v12h16v-12z" fill="#f7fcff" fill-rule="evenodd"/><g mask="url(#b)"><path clip-rule="evenodd" d="m0 0v4h16v-4z" fill="#e31d1c" fill-rule="evenodd"/><path clip-rule="evenodd" d="m0 8v4h16v-4z" fill="#3d58db" fill-rule="evenodd"/><path d="m5.03828 3.19873h5.7v2h-5.7z" fill="#e31d1c"/><path d="m5.32614 4.47998h5.06426c.0086.38448.0111 1.05518.0111 1.70085 0 .41696-.0011.81838-.0022 1.1156l-.0015.35648-.0005.09878-.0001.01421-.0003.00164c-.0022.01331-.0059.03426-.0117.06174-.0115.05505-.0309.13585-.0617.23376-.0619.19666-.1684.45741-.34586.71649-.34723.50695-.97768 1.02818-2.15273 1.02818-1.17346 0-1.77339-.52053-2.09273-1.02261-.16398-.25782-.25762-.51767-.31003-.71418-.02607-.09777-.04157-.17849-.05044-.23348-.00442-.02746-.00717-.04838-.00875-.06166l-.00096-.0086-.00027-.02204-.00118-.09815-.00425-.35427c-.00351-.29544-.0082-.69476-.01288-1.11028-.00716-.6349-.0143-1.30569-.01728-1.70246zm.03503 3.27936c-.00001-.00014-.00001-.00015 0-.00002z" fill="#f7fcff" stroke="#e31d1c" stroke-width=".5625"/><g mask="url(#c)"><path clip-rule="evenodd" d="m5.24922 4.52002h1.05469v1.07095h-1.05469zm2.10938 1.07095h-1.05469v1.07095h-1.05469v1.07095h1.05469v1.07095h-1.05469v1.07095h1.05469v-1.07095h1.05469v1.07095h1.05468v-1.07095h1.05469v1.07095h1.05473v-1.07095h-1.05473v-1.07095h1.05473v-1.07095h-1.05473v-1.07095h1.05473v-1.07095h-1.05473v1.07095h-1.05469v-1.07095h-1.05468zm0 1.07095v-1.07095h1.05468v1.07095zm0 1.07095v-1.07095h-1.05469v1.07095zm1.05468 0v1.07095h-1.05468v-1.07095zm0 0v-1.07095h1.05469v1.07095z" fill="#f50100" fill-rule="evenodd"/></g><g stroke="#fff" stroke-width=".15"><path clip-rule="evenodd" d="m5.22653 4.0814s.32622-.17425.60446-.26405.49816-.13886.49816-.13886l-.41397-1.52605-.82916-.30979-.46961.77405z" fill="#56c6f5" fill-rule="evenodd"/><path clip-rule="evenodd" d="m7.27039 3.53794s.2782-.02483.57052-.01915.53961.00775.53961.00775l.14278-1.50473-.62617-.5657-.69603.57899z" fill="#56c6f5" fill-rule="evenodd"/><path d="m6.23424 3.66601.02161.07341.07296-.02308.00003-.00001.00015-.00005.00064-.0002.00263-.00082.01032-.00321.03864-.01176c.0329-.00988.07875-.02332.13057-.03758.10469-.02882.22992-.05994.32188-.07272.09445-.01312.21136-.02263.30567-.02887.04694-.00311.08787-.00538.11705-.00687l.03419-.00166.0091-.00041.00231-.0001.00057-.00002h.00014l.00002-.00001h.00001l.07838-.00322-.00674-.07816-.12614-1.46221-.00298-.03459-.02831-.02011-.68136-.4839-.05261-.03736-.0448.04644-.61924.64195-.03029.0314.01232.04185z" fill="#2e42a5"/><path d="m9.47002 3.66437-.02039.07558-.07463-.02361h-.00001l-.00003-.00001-.00015-.00005-.00064-.0002-.00262-.00082-.01033-.00321-.03864-.01176c-.03289-.00988-.07875-.02332-.13057-.03758-.10469-.02882-.22992-.05994-.32188-.07272-.09445-.01312-.21136-.02263-.30567-.02887-.04694-.00311-.08787-.00538-.11705-.00687l-.03418-.00166-.00911-.00041-.00231-.0001-.00057-.00002h-.00013l-.00003-.00001-.07839-.00322.00674-.07816.12614-1.46221.00298-.03459.02832-.02011.68136-.4839.05409-.03842.04472.049.58385.63953.02774.03039-.01072.03972z" fill="#2e42a5"/><path d="m10.6304 4.07315-.0324.07462-.0718-.03832v-.00002l-.0001-.00007-.0007-.00034-.0026-.00139-.0105-.00551c-.0092-.00483-.0228-.01185-.04-.02059-.0344-.01747-.0832-.04172-.1406-.06873-.1152-.05428-.263-.11873-.39763-.16218-.13749-.04437-.26063-.0787-.34937-.10192-.04435-.01161-.08005-.02043-.10458-.02633l-.02809-.00663-.00716-.00165-.00176-.00039-.0004-.00009-.00009-.00002-.00001-.00001-.07753-.01729.02172-.07641.423-1.48795.01037-.03647.03552-.01328.82921-.30979.0581-.02173.0322.05309.4696.77405.0202.03317-.0155.03559z" fill="#56c6f5"/></g></g></g></svg>