<svg xmlns="http://www.w3.org/2000/svg" xmlns:xlink="http://www.w3.org/1999/xlink" width="32" height="24" viewBox="0 0 32 24">
  <defs>
    <rect id="sa---saudi-arabia-a" width="32" height="24" x="0" y="0"/>
  </defs>
  <g fill="none" fill-rule="evenodd">
    <mask id="sa---saudi-arabia-b" fill="#fff">
      <use xlink:href="#sa---saudi-arabia-a"/>
    </mask>
    <g mask="url(#sa---saudi-arabia-b)">
      <rect width="32" height="24" fill="#67BD23"/>
      <path fill="#FFF" stroke="#FFF" stroke-width=".5" d="M13.3310566 5.15284045C13.3106757 4.52041392 13.2311198 3.11621902 13.136737 3.04455969 13.0270327 2.96126766 12.3808318 1.74983272 12.2803123 1.57239811 12.1797928 1.39496351 11.6268904.548495689 11.6817577.809535927 11.7366249 1.07057617 11.4698722 1.07104657 11.308745 1.07104657 11.1476177 1.07104657 11.4698722 1.80220384 11.588006 2.03839501 11.7061398 2.27458618 12.0464316 2.13819436 12.2803123 2.04888122 12.514193 1.95956808 12.3337595 2.51206771 12.2118491 2.69367319 12.0899386 2.87527867 11.9111367 2.80186502 11.8202552 2.69367319 11.7293738 2.58548136 11.6961694 2.43670974 11.588006 2.56951914 11.4798426 2.70232854 11.2637272 3.13484499 10.9320462 3.19590282 10.6003652 3.25696064 10.3924981 2.69458263 10.1897068 2.62430498 9.98691546 2.55402732 9.83684627 3.0479152 9.37419083 3.19590282 8.9115354 3.34389043 8.70508829 2.71233236 8.66097695 2.56951914 8.61686561 2.42670592 8.70508829 1.96524423 8.66097695 1.80220384 8.61686561 1.63916345 8.44957487 1.89633954 8.40878699 2.04888122 8.36799911 2.2014229 8.21533158 2.88067258 7.85736504 2.92997043 7.4993985 2.97926827 7.36522148 2.57914665 7.15475601 2.13819436 6.94429054 1.69724208 7.17227868 1.1427965 7.29222628.858582892 7.41217387.574369284 7.60200269.988820772 7.49102943 1.34140071 7.38005618 1.69398065 7.60200269 2.04888122 7.74324961 2.296029 7.88449653 2.54317678 8.02090934 2.13819436 8.02090934 1.80220384 8.02090934 1.46621332 8.40878699.809535927 8.75406396.604630003 9.09934093.399724078 9.17433021 1.07104657 9.0609399 1.49321424 8.94754959 1.91538191 9.12949375 2.36596169 9.37419083 2.52454897 9.61888791 2.68313625 9.84868986 2.1951754 9.92660982 2.03839501 10.0045298 1.88161463 9.94905826 1.42227802 9.84868986 1.14395845 9.74832145.865638881 9.70405905.244241437 10.1251108.120181468 10.5461626-.00387850132 10.4482415 1.07104657 10.3840988 1.42227802 10.3199561 1.77350948 10.4046136 2.04888122 10.5496674 2.296029 10.6947212 2.54317678 10.9951617 2.37041481 11.1555638 2.13819436 11.3159659 1.90597392 10.9951617 1.39897758 10.7817957 1.18689023 10.5684298.974802873 10.6103658.604630003 10.9951617.244241437 11.3799576-.116147129 11.4516234.405306149 11.5357371.604630003 11.6198508.803953856 11.6817577.597887613 11.7443293.4892881 11.806901.380688587 11.588006.314425009 11.8202552.120181468 12.0525044-.0740620734 12.5293903.4892881 12.6190934.752554895 12.7087966 1.01582169 12.8524605.747725462 12.8524605.4892881 12.8524605.230850738 13.136737.405306149 13.2710953.678859008 13.4054536.952411868 13.6197259 1.07104657 13.7051086 1.34140071 13.7904912 1.61175485 13.7051086 1.57239811 13.5278474 1.89380626 13.3505863 2.21521441 13.9949744 3.29412219 14.3241175 3.8275236 14.6532606 4.36092502 14.8902533 5.04645357 15.1644083 5.31730947 15.4385633 5.58816538 14.9917698 2.34520141 14.8902533 1.93827467 14.7887368 1.53134794 14.8872924.693127786 15.0971536.405306149 15.3070148.117484512 15.3749946.693127786 15.6061864.988820772 15.8373782 1.28451376 15.7118119 1.45404566 15.6061864 1.57239811 15.5005609 1.69075057 15.4730064 1.45404566 15.3749946 1.68482354 15.2769829 1.91560143 15.5134317 2.46637626 15.5134317 2.56951914 15.5134317 2.67266202 15.9588052 6.16227201 15.4232754 7.17839717 14.8877456 8.19452233 13.9762724 8.08369626 13.7678917 8.08369626 13.5595109 8.08369626 13.5328326 7.75601612 13.7051086 7.71286483 13.8773845 7.66971353 14.1963155 7.41265601 14.7942961 7.01498046 15.3922766 6.61730491 15.314115 5.89329771 15.314115 5.61874133 15.314115 5.34418495 15.2472833 5.46372909 15.1644083 5.61874133 15.0815334 5.77375357 15.0663361 6.38182304 14.9419482 6.24898228 14.8175603 6.11614152 13.8412797 4.1541375 13.7678917 4.09038272 13.6945037 4.02662794 13.6596074 4.2743402 13.7678917 4.52797949 13.876176 4.78161878 13.8412797 6.05395474 13.8412797 6.38182304 13.8412797 6.70969133 13.7095499 6.9251342 13.6197259 7.07704181 13.5299019 7.22894941 13.2206089 7.31973647 13.2710953 7.17839717 13.3215816 7.03705787 13.3361142 5.7702099 13.3361142 5.3908172 13.3361142 5.35456907 13.3352956 5.30459022 13.3337192 5.24376263 13.2220939 5.33144662 12.9629951 5.48434063 12.8925837 5.73819139 12.759585 6.21768505 12.2241157 6.21066042 11.6772257 6.29890732 11.1303357 6.38715423 10.8100451 6.46662035 10.6555044 6.70900141 10.5009636 6.95138248 11.1080384 7.17864805 11.3378101 7.35489098 11.5675818 7.53113391 11.3627965 7.80249157 10.5365246 7.73566351 9.71025277 7.66883546 8.97456023 6.65920181 8.97456023 6.65920181 8.97456023 6.65920181 7.78391664 7.96336812 7.24832643 8.11925844 6.89126629 8.22318532 6.54178968 7.95319704 6.19989659 7.30929361 5.90672739 7.38202779 5.69954509 7.47034787 5.57834969 7.57425384 5.39655659 7.7301128 4.72854173 7.92071859 4.47006741 7.96336812 4.2977512 7.99180115 4.39929792 7.83893183 4.77470757 7.50476019 5.34499266 7.08152628 5.75759481 6.81627335 6.01251404 6.70900141 6.39489288 6.5480935 6.48356875 6.11792904 6.59466286 5.87742957 6.70575696 5.6369301 6.7674222 5.91208232 6.7674222 6.11792904 6.7674222 6.32377576 7.07372408 5.91208232 7.5012113 5.50496742 7.92869851 5.09785253 7.55514194 4.64169067 7.33594484 4.38547987 7.11674774 4.12926906 6.96921647 3.87387361 7.33594484 3.4640304 7.70267322 3.05418719 7.90072105 3.47274847 8.03946027 3.84176102 8.1781995 4.21077358 8.01450413 4.14821047 7.90072105 4.14821047 7.78693796 4.14821047 7.97126898 4.34204633 8.15463317 5.34315007 8.33799735 6.34425381 7.13176373 6.70900141 6.88295765 6.86990932 6.63415157 7.03081724 6.76527706 7.15490857 6.98459501 7.35489098 7.20391296 7.55487339 8.02078849 6.93209611 8.5969853 6.29890732 9.17318211 5.66571854 8.58674301 4.38547987 8.47317142 4.29491233 8.35959982 4.20434479 8.04399226 3.62221 8.31122842 3.21048519 8.57846458 2.79876039 8.76584713 3.25225665 8.92836418 3.62221 9.09088123 3.99216335 9.16324195 4.17649715 9.16324195 4.38547987 9.16324195 4.59446258 9.03024324 5.73819139 9.44449706 5.13940447 9.85875087 4.54061755 10.5365246 4.51107647 10.7576554 4.47391493 10.9787861 4.43675339 11.0448927 4.51107647 11.0448927 4.09743871 11.0448927 3.68380095 11.2139056 3.2563648 11.7514597 3.16165775 12.2890137 3.06695069 12.3838833 3.38171053 12.4339164 4.09743871 12.4839496 4.81316689 11.6772257 4.83370766 11.2139056 4.99684213 10.7505855 5.1599766 11.2237853 5.13940447 11.5135606 5.23081873 11.8033358 5.32223299 12.2596767 5.13940447 13.0457347 5.13940447 13.1894543 5.13940447 13.2799461 5.14339232 13.3310566 5.15284045zM4.10386644 1.22109489C4.0965886 1.12765905 4.09089948 1.02938073 4.08679907.926259903 4.04092026.78997309 4.21416225.570715284 4.60652504.268486484 4.85092416.213172488 4.9954874.584067582 5.04021474 1.38117176 5.12736649 1.66521156 5.02533561 1.75128253 4.73412211 1.63938467 4.59159193 1.62687272 4.66836248 2.20529801 4.96443374 3.37466053 4.9859518 3.77500538 5.09402789 3.86906905 5.288662 3.65685154 5.4382809 3.59772794 5.51839789 3.76040188 5.52901299 4.14487337 5.62951458 4.29804197 5.77515731 4.11437784 5.9659412 3.59388099 6.09972741 3.40321391 6.27162002 3.52517734 6.48161904 3.9597713 6.58147292 4.0946762 6.73488807 3.96972483 6.94186448 3.58491721 7.22096957 3.40620183 6.94186448 3.95495327 6.94186448 4.26560429 6.94186448 4.57625531 6.89096598 4.59569551 6.55286613 4.75065686 6.32746623 4.85396443 6.17977244 4.81949123 6.10978477 4.64723725 6.05562978 4.58239923 5.83996338 4.66163532 5.46278558 4.8849455 5.32025541 4.93794385 5.20509059 4.90586099 5.11729114 4.78869691 5.00971883 4.64897398 5.03071513 5.35515181 5.03071513 6.13550493 5.03071513 6.91585805 3.8461782 7.89425469 2.74891896 8.08417479 1.65165973 8.27409489 1.13425469 7.41525267 1.08713445 6.88364446 1.04001421 6.35203625 1.16313135 5.84093269 1.39193168 5.84093269 1.54446523 5.84093269 1.62073201 6.01047887 1.62073201 6.34957121 1.70622852 7.04601961 2.10067835 7.40974368 2.80408149 7.44074342 3.50748462 7.47174316 4.09394177 6.87658548 4.56345293 5.65527039 4.60386227 5.44962632 4.61821964 5.21854753 4.60652504 4.96203401 4.47892797 4.69177603 4.45361366 5.42322052 4.08793255 6.24357451 3.72225143 7.0639285 2.94376897 7.01345121 2.48692396 7.00420731 2.03007895 6.99496341 1.66110536 6.23433061 1.62073201 5.84093269 1.59381644 5.57866741 1.62452826 5.34478744 1.71286746 5.13929277 1.95539545 4.88569248 2.07237742 4.98033506 2.06381337 5.42322052 2.05096731 6.0875487 2.3798914 6.19679478 2.96994688 6.24357451 3.56000237 6.29035424 3.99568915 5.38534855 4.08793255 5.04197973 4.14942815 4.81306718 3.99324228 4.87650461 3.61937495 5.232292 3.46700332 5.3762167 3.13505663 5.24187204 2.96994688 4.8849455 2.80483714 4.52801896 3.13505663 4.10638514 3.40660521 3.81567853 3.58763761 3.62187413 3.78076041 3.60422668 3.98597364 3.7627362 4.25153099 3.80863823 4.43819478 3.92227282 4.54596501 4.10363998 4.67809598 4.20257771 4.67253655 3.9781844 4.52928671 3.43046006 4.4379249 3.19968006 4.33650574 2.71557989 4.22502923 1.97815955 4.1911453 1.85879844 4.16315249 1.72148086 4.14105081 1.56620682 4.11492889 1.60935531 4.0972228 1.69262876 4.08793255 1.81602717 4.26292205 2.57712369 4.22529742 3.07611764 3.97505865 3.31300904 3.5997005 3.66834614 3.5997005 3.66834614 3.17108885 3.31300904 2.7424772 2.95767194 2.72022844 3.31300904 2.72022844 3.73892196 2.72022844 4.16483488 2.72022844 4.9678221 2.72022844 5.45695069 2.72022844 5.94607928 2.15281322 5.52325048 2.17391366 5.87084019 2.18798062 6.10256666 2.21912889 5.80156063 2.26735846 4.9678221 2.27692782 4.8102918 2.17668877 4.41611842 1.96664132 3.78530195 1.78233544 3.62846694 1.58152241 3.35259027 1.36420224 2.95767194 1.31415449 2.66456229 1.23578142 2.59548139 1.12908306 2.75042922 1.12908306 3.05895364 1.03108374 3.71583767.52941003 3.52245086.194960888 3.39352632.121646661 2.72984501.30946735 1.53140694.443861453 1.54509017.51717568 1.70431605.52941003 2.00908459.541644379 2.31385313.628868096 2.57966657.791081178 2.80652491.875714091 3.02796764.932945659 2.78433956.962775882 2.07564066.9636035 1.78555031 1.14236894 1.51114658 1.4990722 1.25242947 1.69723268 1.14590988 1.79383006 1.31896686 1.78886436 1.77160043 1.88353663 2.07140154 1.87984834 2.33394694 1.77779947 2.55923662 1.76488143 2.85451849 1.86590478 2.92729318 2.0808695 2.7775607 2.23214363 2.76994149 2.17573968 2.33949328 1.91165765 1.48621607 1.78362878 1.18368848 1.754986.898789651 1.82572933.631519595 1.83875532.470134196 1.94533809.36828324 2.14547766.325966726 2.28286221.339561794 2.35218419.650773049 2.35344361 1.25960049 2.35344361 1.83289028 2.51115877 2.34612274 2.65019856 2.45256763 2.78923834 2.55901253 2.62688132 2.1302637 2.51115877 2.00998097 2.39543622 1.88969824 2.51115877 1.53140694 2.51115877 1.18570533 2.51115877.84000371 2.72022844 1.00631767 2.94895058 1.18570533 3.17767272 1.36509298 3.09392762 1.69070231 3.09392762 2.00998097 3.09392762 2.32925963 3.25358589 2.54573493 3.51790181 2.75042922 3.78221774 2.95512351 3.72246733 2.54573493 3.72246733 2.34612274 3.72246733 2.14651055 3.51790181 1.81602717 3.37702687 1.53140694 3.23615194 1.24678672 3.35473517 1.18570533 3.51790181.912422067 3.68106845.639138808 3.97505865.931974313 4.08793255 1.18570533 4.0933446 1.19787117 4.09865993 1.20966512 4.10386644 1.22109489zM1.81164184 4.05517954C1.88195337 4.05517954 1.96279003 4.10390142 2.05415184 4.20134519 2.19119454 4.34751083 1.71648379 4.64395292 1.40369824 4.7360347 1.0909127 4.82811648.677787503 5.06663013.343627832 5.21968668.0094681619 5.37274323.511220431 4.81939785.992516147 4.39681163 1.31337996 4.11508747 1.58642186 4.00121011 1.81164184 4.05517954zM.402514636 6.16693419C.439757435 6.55786706.441376687 6.85890069.407372392 7.07003507.373368097 7.28116945.44693612 7.34850985.628076461 7.27205628.794049807 7.08796263.942805106 7.4281381.942805106 7.4281381.942805106 7.4281381.843490973 7.92327493.628076461 7.97470462.412661949 8.02613431.0878939414 7.92327493.0108715138 7.4281381-.0404767713 7.09804689.090070936 6.67764558.402514636 6.16693419zM3.59542416 4.30162336C3.38526082 4.36768832 3.33271999 4.44962142 3.43780166 4.54742266 3.59542416 4.69412451 3.8370697 4.71209376 3.8370697 4.54742266 3.8370697 4.43764192 3.75652119 4.35570882 3.59542416 4.30162336zM2.83027674.228401735C2.83027674.1930785 2.88612068.175416882 2.99780856.175416882 3.16534039.175416882 3.11234698.305968361 3.15801337.354137247 3.20367977.402306133 3.15801337.228401735 3.23617313.228401735 3.31433288.228401735 3.33024491.309292516 3.33024491.439436316 3.33024491.569580116 3.437653.465621876 3.437653.354137247 3.437653.242652619 3.53745813.228401735 3.6258693.228401735 3.71428047.228401735 3.53745813.784156128 3.15801337.784156128 2.9050502.784156128 2.79580466.598904663 2.83027674.228401735zM9.9135011 3.5525357C9.91226834 3.51723398 9.96746188 3.4976342 10.0790817 3.49373635 10.2465115 3.48788957 10.1981065 3.62021097 10.2454262 3.66675677 10.2927458 3.71330258 10.2410381 3.54109786 10.3191502 3.53837012 10.3972624 3.53564239 10.4159877 3.61592857 10.4205297 3.74599309 10.4250717 3.87605761 10.5287862 3.76841421 10.5248955 3.65699749 10.5210047 3.54558078 10.6202517 3.52785543 10.708609 3.52476992 10.7969663 3.52168442 10.6396472 4.08327127 10.2604336 4.0965137 10.0076246 4.10534199 9.89198039 3.92401599 9.9135011 3.5525357zM13.9969099 2.21090037C13.9956771 2.17559865 14.0508707 2.15599887 14.1624905 2.15210102 14.3299203 2.14625424 14.2815153 2.27857563 14.328835 2.32512144 14.3761546 2.37166725 14.3244469 2.19946253 14.402559 2.19673479 14.4806712 2.19400705 14.4993965 2.27429324 14.5039385 2.40435776 14.5084804 2.53442228 14.612195 2.42677888 14.6083043 2.31536216 14.6044135 2.20394545 14.7036605 2.18622009 14.7920178 2.18313459 14.8803751 2.18004908 14.723056 2.74163594 14.3438424 2.75487837 14.0910334 2.76370665 13.9753892 2.58238065 13.9969099 2.21090037zM.660902233.239223845C.703679238.181859672.834709064.110836202 1.02711699.239223845 1.21952491.367611487 1.15380113.936951411 1.02711699 1.19893245.900432846 1.46091349.969772245.878653261.855475536.594093059.741178828.309532857.618125229.296588018.660902233.239223845zM5.63312914 5.29086714C5.78773032 5.14981008 5.97556606 5.35591481 6.16364352 5.59164757 6.35172098 5.82738033 6.17690713 6.00788821 6.08366906 6.17767099 5.99043098 6.34745377 5.73709292 6.31703461 5.83184165 6.17767099 5.92659039 6.03830736 5.80591869 5.68365767 5.63312914 5.59164757 5.46033958 5.49963747 5.47852796 5.43192421 5.63312914 5.29086714zM18.3314707 4.78310583C18.4860719 4.64204877 18.6565132 4.84859873 18.7344153 5.15339055 18.8123174 5.45818237 18.6878955 5.65535325 18.5946574 5.82513603 18.5014193 5.99491881 18.236722 5.84167079 18.3314707 5.70230717 18.4262194 5.56294354 18.5042603 5.17589635 18.3314707 5.08388626 18.1586811 4.99187616 18.1768695 4.92416289 18.3314707 4.78310583zM20.5292606 1.23456588C20.6838618 1.09350882 20.8543031 1.30005878 20.9322052 1.6048506 21.0101072 1.90964242 20.8856854 2.1068133 20.7924473 2.27659608 20.6992092 2.44637886 20.4345118 2.29313085 20.5292606 2.15376722 20.6240093 2.0144036 20.7020501 1.62735641 20.5292606 1.53534631 20.356471 1.44333621 20.3746594 1.37562295 20.5292606 1.23456588zM13.9668708.415528287C14.1214719.274471224 14.3093077.480575955 14.4973851.716308712 14.6854626.95204147 14.5906232 1.36110292 14.4973851 1.5308857 14.4041471 1.70066848 14.150809 1.67024933 14.2455577 1.5308857 14.3403065 1.39152207 14.1396603.808318811 13.9668708.716308712 13.7940812.624298614 13.8122696.55658535 13.9668708.415528287zM11.7189502 3.83426599C11.5056749 3.93104281 11.3829487 3.98723984 11.4949492 4.06466756 11.6069497 4.14209528 11.8724939 4.16051141 11.8724939 4.06466756 11.8724939 3.96882371 11.9322255 3.73748918 11.7189502 3.83426599zM10.0623579 5.70642375C9.94273362 5.73343513 9.80723728 5.74694081 9.65586892 5.74694081 9.42881638 5.74694081 9.2730671 5.67076749 9.37391891 5.92152166 9.47477073 6.17227584 9.68581025 6.72521451 9.90401031 6.79376736 10.1222104 6.86232022 10.1555658 6.72317611 10.1992239 6.52338186 10.2428821 6.32358761 10.2371113 6.23841398 10.5278534 6.10055563 10.8185955 5.96269728 10.8630392 5.74694081 10.6175868 5.74694081 10.4539518 5.74694081 10.2688755 5.73343513 10.0623579 5.70642375zM6.95181364.847387389C6.86670292.847387389 6.76110763.761367041 6.76110763.704793689 6.76110763.648220336 6.70131562.543634896 6.6273838.704793689 6.55345199.865952481 6.89894046.940212846 6.95181364.98969885 7.00468682 1.03918485 6.95181364 1.39076127 6.70131562 1.56772548 6.45081759 1.74468969 6.12949982 2.24321884 5.97559345 2.29515092 5.82168708 2.347083 5.48468863 2.29515092 5.28446545 2.29515092 5.08424227 2.29515092 5.4305465 2.10460786 5.53269748 2.04201339 5.63484846 1.97941893 6.27944806 1.43504153 6.48976247 1.18726655 6.70007687.939491567 6.34630998.707239765 6.27944806.485650346 6.21258615.264060927 6.76295064.171988108 6.95181364.246436634 7.14067664.320885159 7.03692435.847387389 6.95181364.847387389zM6.61155206 2.67454362L6.80929776 2.60304293C6.96545995 2.63461195 6.99554227 2.70018561 6.89954472 2.79976391 6.75554839 2.94913136 6.59034236 3.11527638 6.45773643 3.03220387 6.32513049 2.94913136 6.084059 2.75909005 6.13623728 2.60304293 6.18841555 2.44699581 6.30392079 2.18768037 6.45773643 2.18768037 6.61155206 2.18768037 6.41785494 2.3993914 6.45773643 2.53696751 6.48432408 2.62868492 6.53559596 2.67454362 6.61155206 2.67454362zM8.05154557.0450116635C8.14278957.0450116635 8.05154557.28773769 7.88529349.391162811 7.7190414.494587932 7.95652491.526637803 8.09689565.602905205 8.23726639.679172608 8.05154557.876301265 7.83819474.940275566 7.6248439 1.00424987 7.6248439.800159302 7.6248439.526637803 7.6248439.253116303 7.96030157.0450116635 8.05154557.0450116635zM9.43893782.0729847404C9.56885477-.124802475 9.6747522.121498586 9.71608392.312857011 9.75741564.504215437 9.56951947.751551377 9.37488574.962729292 9.18025201 1.17390721 9.20324429.819320232 9.20324429.686918516 9.20324429.5545168 9.30902086.270771956 9.43893782.0729847404zM16.0462111 6.08707477C16.2245318 5.72124937 16.1644876 6.08707477 16.1644876 6.52322848 16.1644876 6.95938219 16.3267103 7.03540553 16.528531 7.29802186 16.7303517 7.56063818 16.9004422 7.29802186 16.9004422 7.13894419 16.9004422 6.97986652 17.2590506 6.2434196 17.5185861 5.96307345 17.7781217 5.6827273 17.9933488 5.85132182 17.9933488 5.96307345 17.9933488 6.07482508 18.2452753 6.43919985 18.5369552 6.52322848 18.7314084 6.57924757 18.8635547 6.35527868 18.9333941 5.85132182 18.9333941 4.87446216 18.9333941 4.11387055 18.9333941 3.569547 18.9333941 2.75306167 18.6823551 2.75080515 18.5369552 2.59338579 18.3915552 2.43596643 17.8775568 1.99175371 17.713419 1.75181007 17.5492811 1.51186643 17.5869122 1.02198598 17.5869122.574872017 17.5869122.127758053 18.2045385.77398333 18.3505596 1.02198598 18.4965807 1.26998863 18.3505596 1.38910082 18.3505596 1.63387987 18.3505596 1.87865891 18.5369552 1.82079521 18.5369552 1.63387987 18.5369552 1.44696453 18.4251489.67861836 18.6823551.574872017 18.9395614.471125674 18.9333941.67861836 19.1627599 1.20836406 19.3921257 1.73810975 19.1627599 1.82079521 19.1627599 2.30884895 19.1627599 2.7969027 19.6432682 3.20560204 19.7611824 3.40444472 19.8790966 3.6032874 19.6432682 2.11494913 19.439791 1.82079521 19.2363139 1.52664129 19.3476544.840443313 19.6432682.471394308 19.9388819.102345303 20.0959284.840443313 20.2920035 1.20836406 20.4880786 1.5762848 20.205043 1.82079521 20.0959284 1.99175371 19.9868137 2.16271221 20.2920035 2.43328009 20.2920035 3.06242027 20.2920035 3.69156044 20.5435677 4.32268382 20.9143919 4.82986896 21.2852161 5.33705411 21.3517305 5.93239548 21.4348606 6.52322848 21.5179906 7.11406149 21.5240986 5.59483034 21.4348606 4.82986896 21.3456226 4.06490758 21.0541498 1.37443342 21.1722711.67861836 21.2903923-.0171967022 21.4254916.827387714 21.6973983 1.20836406 21.969305 1.5893404 22 1.59782922 21.8573434 1.82079521 21.7146869 2.0437612 21.6010172 1.78044643 21.6010172 1.99175371 21.6010172 2.20306099 22 5.02430605 22 6.2434196 22 7.46253315 21.3517305 7.9379611 20.7906803 8.14658205 20.2296301 8.355203 19.925165 8.14658205 19.925165 7.9379611 19.925165 7.72934016 19.6432682 8.14658205 19.439791 8.14658205 19.2363139 8.14658205 19.3053647 7.9070145 19.439791 7.66927366 19.5742174 7.43153282 19.439791 7.5520419 19.439791 7.41509243 19.439791 7.27814296 19.439791 7.13894419 19.6432682 7.13894419 19.8467453 7.13894419 20.0265153 7.13894419 19.8306472 7.41509243 19.6347792 7.69124068 19.7820425 7.51771051 20.0265153 7.66927366 20.2709881 7.8208368 20.1070055 7.70177834 20.2920035 7.80772748 20.4770015 7.91367662 20.922208 7.54016829 21.3517305 7.13894419 21.781253 6.73772008 21.3023494 6.77047896 21.1722711 6.61843227 21.0421927 6.46638559 20.6635006 5.75477486 20.5435677 5.66376176 20.4236347 5.57274865 20.6635006 6.34727339 20.5435677 6.52322848 20.4236347 6.69918357 20.1510551 6.92402999 20.0265153 6.92402999 19.9434888 6.92402999 19.9434888 6.17296593 20.0265153 4.6708378 19.5613114 4.02493488 19.3657366 3.82317305 19.439791 4.0655523 19.5508727 4.42912118 19.3287094 6.77047896 19.0126496 7.13894419 18.6965897 7.50740942 18.0392101 7.03540553 17.8775568 6.77047896 17.7159036 6.50555238 17.5211742 6.76301094 17.4477755 7.03540553 17.3743767 7.30780012 17.2137069 7.90277009 16.8222814 8.14658205 16.4308558 8.39039402 16.1718379 7.55870402 15.977885 7.29802186 15.7839321 7.03733969 15.8678904 6.45290017 16.0462111 6.08707477zM18.1318126 4.03525042C18.1318126 4.03525042 18.553105 3.71928344 18.6360797 3.86595745 18.7190545 4.01263146 18.553105 4.24328037 18.3329087 4.48319715 18.1127124 4.72311392 17.5162568 5.00797312 17.3679064 4.93114388 17.2195561 4.85431463 17.258533 4.752395 17.3679064 4.61367255 17.4772799 4.47495009 18.1318126 4.03525042 18.1318126 4.03525042zM17.1935197 2.59338579C17.3368664 2.59338579 17.4854547 2.65671171 17.6392846 2.78336356 17.8700294 2.97334132 17.6392846 2.49538821 17.7450457 2.25474612 17.8508067 2.01410404 18.2110088 2.29530981 18.3039736 2.59338579 18.3969385 2.89146177 18.2110088 2.77954896 18.0345515 2.85659311 17.8580942 2.93363726 18.0345515 3.41852112 18.0345515 3.7149853 18.0345515 4.01144947 17.3194571 3.34760182 17.0546935 3.03625534 16.8781845 2.82869102 16.9244599 2.68106784 17.1935197 2.59338579zM2.78350613 11.6410856C4.01111121 11.9372489 8.12049152 11.9541217 8.93369957 11.8556514 9.74690761 11.7571812 15.9150113 11.8556514 16.1133914 11.8556514 16.0279972 11.7832619 15.9853001 11.71174 15.9853001 11.6410856 15.9853001 11.535104 16.0760561 11.3961506 16.2460382 11.3961506 16.4160203 11.3961506 16.6202213 11.4265198 16.6202213 11.6410856 16.6202213 11.8556514 16.3089519 11.9425752 16.4645866 11.9425752 16.6202213 11.9425752 17.2804267 12.1297449 17.6238758 12.03616 17.967325 11.9425752 19.0175634 13.112226 19.0175634 14.0053994 19.0175634 14.8985727 18.6939661 13.5970489 18.5203137 13.5970489 18.3466613 13.5970489 18.6180996 14.8885367 18.0346735 14.8885367 17.4512474 14.8885367 17.7528972 14.6764527 17.2033367 14.8885367 16.6537763 15.1006208 15.6450755 15.1561098 15.5094976 15.1006208 15.3739198 15.0451317 15.0663219 14.4551781 15.1247475 14.1805035 15.183173 13.9058289 15.2457902 13.7691843 14.873053 13.7691843 14.5003157 13.7691843 11.3782654 13.4914253 9.43893782 13.5970489 7.49961024 13.7026724 5.39292496 13.8356962 4.90581592 13.7691843 4.41870688 13.7026724 3.02164032 13.413869 2.84367261 13.1256172 2.66570489 12.8373655 2.50847334 11.5830816 2.78350613 11.6410856zM16.2339698 13.3741091C15.8130731 13.8928632 15.793855 13.7176945 16.0139124 13.7176945 16.2339698 13.7176945 16.5275121 13.9538298 16.5932241 13.9538298 16.658936 13.9538298 16.7622333 13.7820371 16.9031161 13.7820371 17.0439989 13.7820371 17.1087599 13.9538298 17.2453386 13.9538298 17.3819173 13.9538298 17.8506933 13.7176945 17.6483026 13.5459018 17.4459119 13.3741091 17.1346686 13.3741091 16.8990465 13.3741091 16.6634245 13.3741091 16.6548664 12.855355 16.2339698 13.3741091z" transform="translate(5 4)"/>
    </g>
  </g>
</svg>
