<svg fill="none" height="12" viewBox="0 0 16 12" width="16" xmlns="http://www.w3.org/2000/svg" xmlns:xlink="http://www.w3.org/1999/xlink"><mask id="a" height="12" maskUnits="userSpaceOnUse" width="16" x="0" y="0"><path d="m0 0h16v12h-16z" fill="#fff"/></mask><mask id="b" height="12" maskUnits="userSpaceOnUse" width="16" x="0" y="0"><path clip-rule="evenodd" d="m0 0v12h16v-12z" fill="#fff" fill-rule="evenodd"/></mask><g mask="url(#a)"><path clip-rule="evenodd" d="m0 0v12h16v-12z" fill="#f7fcff" fill-rule="evenodd"/><g mask="url(#b)"><g clip-rule="evenodd" fill-rule="evenodd"><path d="m6 6c0 1.10457.89543 2 2 2s2-.89543 2-2-.89543-2-2-2-2 .89543-2 2zm3.5 0c0 .82843-.67157 1.5-1.5 1.5s-1.5-.67157-1.5-1.5.67157-1.5 1.5-1.5 1.5.67157 1.5 1.5z" fill="#272727"/><path d="m0 0v4h16v-4z" fill="#f05234"/><path d="m0 8v4h16v-4z" fill="#3d58db"/></g><path d="m7.28904 4.92791.2846.4111c-.28448.19694-.3702.46934-.26137.87548.10648.39741.34241.58371.75919.59818l-.01736.4997c-.63582-.02208-1.06122-.358-1.22479-.96847-.16124-.60173-.00659-1.09316.45973-1.41599z" fill="#73be4a"/><path d="m8.71227 4.92791-.2846.4111c.28448.19694.3702.46934.26137.87548-.10648.39741-.34241.58371-.75918.59818l.01735.4997c.63582-.02208 1.06122-.358 1.2248-.96847.16123-.60173.00658-1.09316-.45974-1.41599z" fill="#73be4a"/><path clip-rule="evenodd" d="m8.00121 6.37354c.27614 0 .5-.22386.5-.5 0-.27615-.22386-.5-.5-.5-.27615 0-.5.22385-.5.5 0 .27614.22385.5.5.5z" fill="#fbcd17" fill-rule="evenodd"/></g></g></svg>