<svg fill="none" height="15" viewBox="0 0 20 15" width="20" xmlns="http://www.w3.org/2000/svg" xmlns:xlink="http://www.w3.org/1999/xlink"><mask id="a" height="15" maskUnits="userSpaceOnUse" width="20" x="0" y="0"><path d="m0 0h20v15h-20z" fill="#fff"/></mask><mask id="b" fill="#fff"><path clip-rule="evenodd" d="m5.84583 3.125.3293.70701c1.34113.16004 2.38588 1.28528 2.41985 2.66131l.59669.29835-.65189.32594c-.23351 1.13923-1.17151 2.02168-2.33884 2.17217l-.35511.71022-.3551-.71022c-1.16733-.15049-2.10533-1.03294-2.33884-2.17217l-.65189-.32594.59669-.29835c.03378-1.36838 1.06713-2.48874 2.39749-2.65855z" fill="#fff" fill-rule="evenodd"/></mask><g mask="url(#a)"><g clip-rule="evenodd" fill-rule="evenodd"><path d="m0 0h20v15h-20z" fill="#fff"/><path d="m0 6.83333v-6.83333h10z" fill="#feda00"/><path d="m0 15h20.0056v-15z" fill="#00268d"/><path d="m5.84583 3.125.3293.70701c1.34113.16004 2.38588 1.28528 2.41985 2.66131l.59669.29835-.65189.32594c-.23351 1.13923-1.17151 2.02168-2.33884 2.17217l-.35511.71022-.3551-.71022c-1.16733-.15049-2.10533-1.03294-2.33884-2.17217l-.65189-.32594.59669-.29835c.03378-1.36838 1.06713-2.48874 2.39749-2.65855z" fill="#fff"/></g><path d="m6.17513 3.83201-.45325.21111.11755.25238.27646.03299zm-.3293-.70701.45325-.21111-.43933-.94325-.46194.93239zm2.74915 3.36832-.49985.01235.00742.30046.26882.13441zm.59669.29835.2236.44721.89443-.44721-.89443-.44722zm-.65189.32594-.22361-.44721-.2174.1087-.04881.23811zm-2.33884 2.17217-.06393-.49589-.26417.03406-.11911.23823zm-.35511.71022-.44721.2236.44721.8944.44722-.8944zm-.3551-.71022.44721-.2236-.11912-.23823-.26416-.03406zm-2.33884-2.17217.48981-.1004-.04881-.23811-.2174-.1087zm-.65189-.32594-.22361-.44722-.89442.44722.89442.44721zm.59669-.29835.2236.44722.26883-.13441.00741-.30047zm2.39749-2.65855.06331.49598.26577-.03392.11895-.24009zm1.1342-.21386-.3293-.70702-.9065.42222.3293.70701zm2.46645 2.86007c-.04017-1.62684-1.27489-2.95624-2.86045-3.14544l-.11849.99295c1.09669.13087 1.95146 1.05194 1.97924 2.17718zm.32044-.13653-.59668-.29834-.44722.89443.59669.29834zm-.65188 1.22037.65188-.32594-.44721-.89443-.65189.32595zm-2.49851 2.22086c1.38073-.17801 2.48862-1.22069 2.76472-2.56767l-.97964-.2008c-.19092.93148-.95904 1.65369-1.91295 1.77668zm-.51115-.7195-.35511.71021.89443.44721.35511-.71021zm.53932.71021-.35511-.71021-.89443.44721.35511.71021zm-3.63098-2.55838c.2761 1.34698 1.38399 2.38966 2.76472 2.56767l.12787-.99179c-.95392-.12299-1.72203-.8452-1.91296-1.77668zm-.38568.02087.65189.32594.44721-.89442-.65188-.32595zm.59669-1.19277-.59669.29834.44722.89443.59668-.29834zm2.5578-2.70731c-1.57283.20075-2.7941 1.52436-2.83404 3.14218l.99969.02468c.02763-1.11894.87306-2.03605 1.96096-2.17491zm-.03307-.43577-.35166.70977.89606.44394.35165-.70977z" fill="#000" mask="url(#b)"/><path clip-rule="evenodd" d="m5.85988 5.1875-.40564.68066h-.80007l.39895.71511-.39895.68594h.80007l.40564.69983.41183-.69983h.79286l-.38918-.68594.38918-.71511h-.79286z" fill="#f00a17" fill-rule="evenodd"/></g></svg>