<svg xmlns="http://www.w3.org/2000/svg" xmlns:xlink="http://www.w3.org/1999/xlink" width="32" height="24" viewBox="0 0 32 24">
  <defs>
    <rect id="bz---belize-a" width="32" height="24" x="0" y="0"/>
    <rect id="bz---belize-c" width="32" height="24" x="0" y="0"/>
    <path id="bz---belize-e" d="M5.68434189e-14,0 L4.05263158,0 C4.05263158,0.754756976 4.05263158,1.58535589 4.05263158,2.49179675 C4.05263158,3.73346204 3.37719298,4.55286312 2.02631579,4.95 C0.675438596,4.5159913 5.68434189e-14,3.69659021 5.68434189e-14,2.49179675 C5.68434189e-14,1.7286109 5.68434189e-14,0.898011985 5.68434189e-14,0 Z"/>
  </defs>
  <g fill="none" fill-rule="evenodd">
    <mask id="bz---belize-b" fill="#fff">
      <use xlink:href="#bz---belize-a"/>
    </mask>
    <g mask="url(#bz---belize-b)">
      <mask id="bz---belize-d" fill="#fff">
        <use xlink:href="#bz---belize-c"/>
      </mask>
      <use fill="#0168B4" xlink:href="#bz---belize-c"/>
      <rect width="32" height="3" fill="#E93C43" mask="url(#bz---belize-d)"/>
      <rect width="32" height="3" y="21" fill="#E93C43" mask="url(#bz---belize-d)"/>
      <g mask="url(#bz---belize-d)">
        <g transform="translate(8 4)">
          <path fill="#F7FCFF" fill-rule="nonzero" d="M8,14 C4.6862915,14 2,11.3137085 2,8 C2,4.6862915 4.6862915,2 8,2 C11.3137085,2 14,4.6862915 14,8 C14,11.3137085 11.3137085,14 8,14 Z"/>
          <path fill="#FFF" fill-rule="nonzero" d="M8,16 C3.581722,16 0,12.418278 0,8 C0,3.581722 3.581722,0 8,0 C12.418278,0 16,3.581722 16,8 C16,12.418278 12.418278,16 8,16 Z"/>
          <circle cx="8" cy="8" r="7" stroke="#9C4C17" stroke-width=".5"/>
          <path fill="#5B8C39" fill-rule="nonzero" d="M7.41769835,0.417739807 L7.57293076,0.0828488477 C8.0563784,0.345380802 8.52097774,0.576210916 8.52097774,1.0622992 C8.52097774,1.55035612 8.0593744,1.61929845 7.57293076,1.87335641 L7.41769835,1.52718272 C7.6708238,1.3949813 7.77097774,1.25102236 7.77097774,1.0622992 C7.77097774,0.871607412 7.6738198,0.556824292 7.41769835,0.417739807 Z M9.57182196,0.571830987 L9.81334939,0.292700987 C10.2057055,0.678319128 10.5886816,1.02826821 10.4546975,1.49552626 C10.3201708,1.96467668 9.85744612,1.90371318 9.31981862,2.01384732 L9.26601805,1.63829596 C9.5457775,1.58098664 9.68173211,1.47021059 9.73375126,1.28879824 C9.78631304,1.10549353 9.77968482,0.776124215 9.57182196,0.571830987 Z M11.6082139,1.32239971 L11.9207974,1.12608215 C12.1832656,1.60956443 12.4471923,2.05619379 12.1824496,2.46386173 C11.9166348,2.8731807 11.4919529,2.6795934 10.9456171,2.62772814 L11.003968,2.25285683 C11.2882589,2.2798454 11.4506607,2.21365901 11.5534467,2.05538245 C11.6573049,1.89545486 11.7472646,1.57853952 11.6082139,1.32239971 Z M13.337137,2.61767628 L13.691724,2.51512343 C13.8107588,3.05222246 13.9413537,3.55429821 13.5744982,3.87320082 C13.206157,4.19339497 12.8512865,3.89024874 12.3404108,3.68980208 L12.4998298,3.34553632 C12.7656687,3.4498406 12.9400228,3.43098217 13.082454,3.30716863 C13.2263709,3.18206356 13.4001994,2.90222123 13.337137,2.61767628 Z M14.6314087,4.3462235 L15.0005271,4.34538081 C14.9669061,4.89448396 14.9540512,5.41310699 14.5135056,5.61853677 C14.0711758,5.82479854 13.8136108,5.43558012 13.3777761,5.102082 L13.625912,4.81509433 C13.8527026,4.98863317 14.0255006,5.01856379 14.1965419,4.93880593 C14.3693673,4.8582161 14.613597,4.63712801 14.6314087,4.3462235 Z M15.3978986,6.3764212 L15.7511346,6.48353509 C15.5584405,6.99881524 15.3945166,7.49101847 14.9131589,7.55866889 C14.4298517,7.62659328 14.2973375,7.17907715 13.9780522,6.73272558 L14.2992527,6.53082581 C14.4653958,6.76308899 14.6218925,6.84223302 14.808779,6.81596783 C14.997615,6.78942867 15.2958129,6.64940692 15.3978986,6.3764212 Z M15.5514454,8.53103644 L15.8614731,8.73136596 C15.5342132,9.17357133 15.2409697,9.60152388 14.759612,9.53387347 C14.2763049,9.46594907 14.2722762,8.9992431 14.0883906,8.48217547 L14.4527996,8.37663183 C14.5484861,8.64569277 14.6771053,8.76490723 14.8639919,8.79117242 C15.0528279,8.81771158 15.3780693,8.76530852 15.5514454,8.53103644 Z M15.0976748,10.6538658 L15.335585,10.9360852 C14.8933364,11.2632867 14.4877851,11.5868037 14.0472395,11.3813739 C13.6049098,11.1751122 13.7375088,10.7276212 13.712834,10.179384 L14.092178,10.184995 C14.1050177,10.4702753 14.193162,10.6218852 14.3642032,10.7016431 C14.5370287,10.7822329 14.8633798,10.827211 15.0976748,10.6538658 Z M14.0609534,12.5496682 L14.2118572,12.8865318 C13.6965516,13.0791579 13.2175373,13.2783573 12.8506818,12.9594547 C12.4823406,12.6392606 12.7331482,12.2456539 12.860544,11.7118532 L13.2236462,11.8218082 C13.1573546,12.0995763 13.2002949,12.269609 13.3427261,12.3934225 C13.486643,12.5185276 13.7879542,12.6517179 14.0609534,12.5496682 Z M12.5335018,14.0767113 L12.5857077,14.4421201 C12.0372692,14.4852467 11.5219043,14.5446952 11.2571617,14.1370273 C10.9913468,13.7277083 11.3409313,13.4184812 11.6105273,12.9404741 L11.9292559,13.1462541 C11.7889691,13.3949896 11.7833786,13.5702715 11.8861646,13.728548 C11.9900228,13.8884756 12.2429495,14.0995589 12.5335018,14.0767113 Z M10.6323622,15.124064 L10.5754517,15.4887697 C10.0383684,15.369664 9.5281414,15.2758368 9.39415731,14.8085788 C9.2596306,14.3394283 9.68434913,14.1459216 10.0819209,13.7676234 L10.3265583,14.057599 C10.1196781,14.25445 10.0630844,14.4204384 10.1151036,14.6018507 C10.1676654,14.7851555 10.3478256,15.0609641 10.6323622,15.124064 Z M8.52097774,15.5822602 L8.36574533,15.9171512 C7.88229769,15.6546192 7.41769835,15.4237891 7.41769835,14.9377008 C7.41769835,14.4496439 7.87930169,14.3807016 8.36574533,14.1266436 L8.52097774,14.4728173 C8.26785228,14.6050187 8.16769835,14.7489776 8.16769835,14.9377008 C8.16769835,15.1283926 8.26485629,15.4431757 8.52097774,15.5822602 Z M6.36685413,15.428169 L6.1253267,15.707299 C5.73297061,15.3216809 5.34999447,14.9717318 5.48397856,14.5044737 C5.61850527,14.0353233 6.08122997,14.0962868 6.61885747,13.9861527 L6.67265804,14.361704 C6.39289859,14.4190134 6.25694398,14.5297894 6.20492483,14.7112018 C6.15236305,14.8945065 6.15899126,15.2238758 6.36685413,15.428169 Z M4.33046222,14.6776003 L4.01787868,14.8739178 C3.75541052,14.3904356 3.49148382,13.9438062 3.75622647,13.5361383 C4.02204132,13.1268193 4.44672314,13.3204066 4.99305899,13.3722719 L4.93470814,13.7471432 C4.65041722,13.7201546 4.4880154,13.786341 4.3852294,13.9446175 C4.28137121,14.1045451 4.19141154,14.4214605 4.33046222,14.6776003 Z M2.60153911,13.3823237 L2.24695207,13.4848766 C2.12791726,12.9477775 1.99732237,12.4457018 2.36417785,12.1267992 C2.73251908,11.806605 3.08738956,12.1097513 3.59826528,12.3101979 L3.4388463,12.6544637 C3.17300739,12.5501594 2.9986533,12.5690178 2.85622212,12.6928314 C2.7123052,12.8179364 2.53847671,13.0977788 2.60153911,13.3823237 Z M1.30726735,11.6537765 L0.938149012,11.6546192 C0.971769966,11.105516 0.984624929,10.586893 1.42517053,10.3814632 C1.86750031,10.1752015 2.12506529,10.5644199 2.56089996,10.897918 L2.3127641,11.1849057 C2.08597349,11.0113668 1.91317549,10.9814362 1.74213422,11.0611941 C1.56930877,11.1417839 1.3250791,11.362872 1.30726735,11.6537765 Z M0.540777461,9.6235788 L0.187541462,9.51646491 C0.380235567,9.00118476 0.544159526,8.50898153 1.02551723,8.44133111 C1.50882441,8.37340672 1.64133857,8.82092285 1.96062393,9.26727442 L1.63942335,9.46917419 C1.47328026,9.23691101 1.31678358,9.15776698 1.12989706,9.18403217 C0.94106107,9.21057133 0.642863169,9.35059308 0.540777461,9.6235788 Z M0.387230647,7.46896356 L0.077203,7.26863404 C0.404462919,6.82642867 0.697706341,6.39847612 1.17906405,6.46612653 C1.66237123,6.53405093 1.66639985,7.0007569 1.85028546,7.51782453 L1.48587654,7.62336817 C1.39018995,7.35430723 1.26157074,7.23509277 1.07468422,7.20882758 C0.885848233,7.18228842 0.560606789,7.23469148 0.387230647,7.46896356 Z M0.841001329,5.3461342 L0.603091097,5.06391482 C1.04533965,4.73671326 1.45089095,4.41319628 1.89143655,4.61862607 C2.33376633,4.82488783 2.2011673,5.27237883 2.22584204,5.82061602 L1.84649808,5.81500504 C1.83365835,5.52972473 1.74551412,5.37811476 1.57447285,5.29835691 C1.4016474,5.21776708 1.07529628,5.17278898 0.841001329,5.3461342 Z M1.8777227,3.45033181 L1.72681891,3.11346818 C2.24212448,2.92084208 2.72113877,2.72164268 3.08799426,3.04054529 C3.45633549,3.36073944 3.20552789,3.75434614 3.07813212,4.28814683 L2.7150299,4.17819185 C2.78132146,3.90042371 2.73838116,3.73039101 2.59594999,3.60657748 C2.45203307,3.48147241 2.15072189,3.34828213 1.8777227,3.45033181 Z M3.40517427,1.92328873 L3.35296843,1.55787991 C3.90140689,1.51475328 4.41677177,1.45530477 4.68151443,1.86297271 C4.94732927,2.27229168 4.59774482,2.58151878 4.32814874,3.05952591 L4.00942018,2.85374585 C4.149707,2.60501041 4.1552975,2.42972854 4.0525115,2.27145198 C3.94865331,2.11152439 3.69572663,1.90044106 3.40517427,1.92328873 Z M5.30631391,0.875936001 L5.36322442,0.511230299 C5.90030773,0.630335982 6.41053469,0.724163194 6.54451877,1.19142124 C6.67904549,1.66057166 6.25432696,1.85407841 5.85675519,2.23237663 L5.61211782,1.94240098 C5.81899798,1.74554999 5.87559166,1.57956161 5.8235725,1.39814926 C5.77101072,1.21484455 5.59085053,0.939035949 5.30631391,0.875936001 Z"/>
          <g transform="translate(2.6 2.3)">
            <path fill="#247805" d="M1.67874606,7.68691599 C0.945546931,7.67086276 0.578947368,7.8312716 0.578947368,8.16814251 C0.578947368,8.67344887 0.578947368,9.23321273 1.12884671,8.9533308 C1.67874606,8.67344887 2.35105282,8.56286679 2.7066734,8.7580988 C3.06229399,8.9533308 3.89092829,9.35 5.05896051,9.35 C6.22699273,9.35 6.14912392,8.9533308 7.2248344,8.9533308 C8.30054488,8.9533308 10.2212107,8.86767818 9.77641455,8.51791034 C9.33161844,8.16814251 8.80806864,7.94679313 8.40840105,7.94679313 C8.00873346,7.94679313 7.70227248,7.94679313 6.86193819,7.5349351 C6.0216039,7.12307708 5.083442,7.08575331 4.13810279,7.21856294 C3.19276358,7.35137257 3.0679965,7.68691599 2.50895347,7.68691599 C2.13625812,7.68691599 1.85952231,7.68691599 1.67874606,7.68691599 Z"/>
            <g transform="translate(3.474 4.4)">
              <mask id="bz---belize-f" fill="#fff">
                <use xlink:href="#bz---belize-e"/>
              </mask>
              <path stroke="#565656" stroke-width=".5" d="M-0.25,-0.25 L4.30263158,-0.25 L4.30263158,0 C4.30263158,1.17005643 4.30263158,1.17005643 4.30263158,2.49179675 C4.30263158,3.84945334 3.54984791,4.76268477 2.09682796,5.18985002 L1.94984573,5.1880175 C0.500757419,4.72245561 -0.25,3.81168231 -0.25,2.49179675 C-0.25,1.31331144 -0.25,1.31331144 -0.25,0 L-0.25,-0.25 Z"/>
              <polygon fill="#84CEFF" points=".123 3.209 2.056 1.785 4.089 3.37 4.089 5.627 .123 5.627" mask="url(#bz---belize-f)" opacity=".4"/>
              <polygon fill="#006AC9" points=".184 3.712 3.776 3.712 3.776 4.213 .184 4.213" mask="url(#bz---belize-f)"/>
              <polygon fill="#59C800" points=".368 4.207 3.684 4.207 3.684 4.473 .368 4.473" mask="url(#bz---belize-f)"/>
              <polygon fill="#FFD800" points=".368 4.537 3.684 4.537 3.684 5.037 .368 5.037" mask="url(#bz---belize-f)"/>
              <polygon fill="#F7D85D" points="4.653 3.811 2.062 1.833 2.062 -.838 4.653 -.838" mask="url(#bz---belize-f)"/>
              <path fill="#F5F6F6" d="M1.47368421,2.7225 C1.52826394,3.00574081 1.57642863,3.14736121 1.61817828,3.14736121 C1.65992793,3.14736121 1.71854547,3.00574081 1.79403091,2.7225 C1.80296331,3.00574081 1.82843913,3.14736121 1.87045837,3.14736121 C1.93348724,3.14736121 1.92569595,2.79127812 2.02631579,2.7225 C2.06276519,2.69758521 2.10877005,3.14519995 2.16473288,3.14736121 C2.19608537,3.14857203 2.25007136,3.00695163 2.32669087,2.7225 C2.34989813,3.00574081 2.37962222,3.14736121 2.41586316,3.14736121 C2.45210409,3.14736121 2.5064655,3.00574081 2.57894737,2.7225 L2.57894737,3.795 L1.47368421,3.795 L1.47368421,2.7225 Z" mask="url(#bz---belize-f)"/>
              <ellipse cx="2.026" cy="3.919" fill="#892E2E" mask="url(#bz---belize-f)" rx="1.013" ry="1"/>
              <polygon fill="#A46031" fill-rule="nonzero" points=".216 .404 .424 .242 1.825 1.681 1.617 1.844" mask="url(#bz---belize-f)"/>
              <polygon fill="#892E2E" fill-rule="nonzero" points=".441 2.067 .22 1.919 1.582 .288 1.803 .436" mask="url(#bz---belize-f)"/>
              <polygon fill="#A46031" fill-rule="nonzero" points="2.334 .618 2.542 .489 3.943 1.632 3.735 1.761" mask="url(#bz---belize-f)"/>
              <polygon fill="#F5F6F6" fill-rule="nonzero" points="2.627 1.786 2.368 1.61 3.7 .536 3.985 .77" mask="url(#bz---belize-f)"/>
            </g>
            <g transform="translate(1.737 8.8)">
              <g fill="#69F" transform="translate(1.765 .287)">
                <polygon points=".465 1.148 1.115 1.352 1.115 1.913 .465 1.913"/>
                <polygon points="0 0 .366 .204 .366 .765 0 .765"/>
              </g>
              <g fill="#69F" transform="matrix(-1 0 0 1 5.668 .287)">
                <polygon points=".465 1.148 1.115 1.352 1.115 1.913 .465 1.913"/>
                <polygon points="0 0 .366 .204 .366 .765 0 .765"/>
              </g>
              <g fill-rule="nonzero">
                <path fill="#FFF" d="M1.4109682,1.47612662 C1.29190459,1.47612662 1.19279357,1.47890635 1.07948462,1.48433044 C0.804839728,1.49747767 0.787600173,1.4971829 0.711801529,1.4660382 C0.66623208,1.44731429 0.620779385,1.41709418 0.555375056,1.36339473 C0.400294274,1.23606749 0.233144956,0.943557764 0.0517352229,0.484653638 L0.0522776919,0.465360516 C0.27619263,-0.0187831132 0.73664594,-0.078742609 1.42150601,0.280133806 C1.60190583,0.374665875 2.12788443,0.66053161 2.12354087,0.658206894 C2.36280693,0.786264311 2.53053057,0.868259422 2.69543127,0.934650885 C3.03722715,1.07226297 3.35954079,1.13473198 3.77287471,1.13473198 C4.02111487,1.13473198 4.30866173,1.06417621 4.64410651,0.930988351 C4.83790891,0.854039393 5.03958515,0.759999176 5.28555426,0.635134633 C5.31794438,0.618692009 5.83264111,0.351013219 5.95994079,0.289750447 C6.18268668,0.182554339 6.32960559,0.130605384 6.43085596,0.130605384 C6.45841625,0.130605384 6.47979673,0.13050821 6.53324277,0.130191225 C6.62580452,0.129642248 6.66972361,0.129586778 6.72313707,0.130239107 C7.21682464,0.136268422 7.46047728,0.218518346 7.46047728,0.4756401 C7.46047728,0.718566613 7.30247221,1.04819185 6.98749522,1.46685589 L6.97214637,1.47592412 C6.34899482,1.55994099 5.98757906,1.55994099 5.87640664,1.47110335 C5.84610776,1.44689158 5.762969,1.45791661 5.61024867,1.50687277 C5.54106703,1.5290497 5.17060272,1.66150711 5.05610153,1.69946699 C4.57957044,1.85744845 4.17118467,1.94232825 3.75524957,1.94232825 C3.12182326,1.94232825 2.4285638,1.69660681 1.67534581,1.20577585 C1.81188017,1.3793097 1.72549587,1.47612662 1.4109682,1.47612662 Z"/>
                <path fill="#666" d="M0.584343633,1.32600445 C0.646495571,1.37703357 0.688530927,1.4049816 0.729023879,1.42161964 C0.795539781,1.44895018 0.812392856,1.44923833 1.07732656,1.43655598 C1.19130532,1.43109982 1.2911138,1.42830053 1.4109682,1.42830053 C1.78720723,1.42830053 1.78720723,1.30821884 1.39727783,1.01538723 L1.42424387,0.976445487 C2.27832099,1.58877114 3.05538188,1.89450216 3.75524957,1.89450216 C4.16552104,1.89450216 4.56953024,1.810532 5.04186,1.65394338 C5.15560454,1.61623435 5.52635658,1.48367406 5.59643581,1.4612094 C5.766273,1.40676625 5.85666045,1.39477996 5.90489464,1.4333238 C6.00081108,1.50997042 6.35515586,1.51037088 6.95661573,1.42977957 C7.26188882,1.02254713 7.41401854,0.703735325 7.41401854,0.4756401 C7.41401854,0.259329059 7.19019438,0.183772644 6.72258594,0.178061829 C6.66953329,0.177413906 6.625803,0.177469137 6.53351043,0.178016518 C6.47997185,0.178334052 6.45853749,0.178431471 6.43085596,0.178431471 C6.33878968,0.178431471 6.19616539,0.228861895 5.97961595,0.333075969 C5.85307581,0.393973211 5.3390611,0.661297306 5.30610191,0.678028815 C5.05898886,0.80347407 4.8561422,0.898060045 4.66082506,0.975610429 C4.32051154,1.11073141 4.02778525,1.18255806 3.77287471,1.18255806 C3.35375544,1.18255806 3.02570223,1.11897664 2.67850925,0.979191609 C2.51176065,0.912056154 2.34271751,0.829415978 2.10211,0.700640605 C2.10618075,0.702819311 1.5804608,0.417094151 1.40043039,0.322755655 C0.740709494,-0.0229474727 0.310746187,0.0300316438 0.098660907,0.476455897 C0.27573956,0.92255889 0.438348605,1.20613697 0.584343633,1.32600445 Z M1.4109682,1.47612662 C1.29190459,1.47612662 1.19279357,1.47890635 1.07948462,1.48433044 C0.804839728,1.49747767 0.787600173,1.4971829 0.711801529,1.4660382 C0.66623208,1.44731429 0.620779385,1.41709418 0.555375056,1.36339473 C0.400294274,1.23606749 0.233144956,0.943557764 0.0517352229,0.484653638 L0.0522776919,0.465360516 C0.27619263,-0.0187831132 0.73664594,-0.078742609 1.42150601,0.280133806 C1.60190583,0.374665875 2.12788443,0.66053161 2.12354087,0.658206894 C2.36280693,0.786264311 2.53053057,0.868259422 2.69543127,0.934650885 C3.03722715,1.07226297 3.35954079,1.13473198 3.77287471,1.13473198 C4.02111487,1.13473198 4.30866173,1.06417621 4.64410651,0.930988351 C4.83790891,0.854039393 5.03958515,0.759999176 5.28555426,0.635134633 C5.31794438,0.618692009 5.83264111,0.351013219 5.95994079,0.289750447 C6.18268668,0.182554339 6.32960559,0.130605384 6.43085596,0.130605384 C6.45841625,0.130605384 6.47979673,0.13050821 6.53324277,0.130191225 C6.62580452,0.129642248 6.66972361,0.129586778 6.72313707,0.130239107 C7.21682464,0.136268422 7.46047728,0.218518346 7.46047728,0.4756401 C7.46047728,0.718566613 7.30247221,1.04819185 6.98749522,1.46685589 L6.97214637,1.47592412 C6.34899482,1.55994099 5.98757906,1.55994099 5.87640664,1.47110335 C5.84610776,1.44689158 5.762969,1.45791661 5.61024867,1.50687277 C5.54106703,1.5290497 5.17060272,1.66150711 5.05610153,1.69946699 C4.57957044,1.85744845 4.17118467,1.94232825 3.75524957,1.94232825 C3.12182326,1.94232825 2.4285638,1.69660681 1.67534581,1.20577585 C1.81188017,1.3793097 1.72549587,1.47612662 1.4109682,1.47612662 Z"/>
                <path fill="#565757" d="M0.691460147,0.708523728 L0.624302977,0.64241874 C0.775815843,0.479300499 0.976548333,0.43819687 1.21828943,0.518088437 C1.31234511,0.549172332 1.9248684,0.90325097 2.08848938,0.986315643 C2.68637062,1.28983913 3.25548205,1.4593517 3.86000015,1.4593517 C4.72907121,1.4593517 5.56854239,1.18499608 6.37610341,0.637899343 C6.68131213,0.39043882 6.87224197,0.39043882 6.87224197,0.675471234 L6.77932449,0.675471234 C6.77932449,0.505451088 6.68963177,0.505451088 6.43039614,0.715417659 C5.60488132,1.27488845 4.74778634,1.55500387 3.86000015,1.55500387 C3.23924882,1.55500387 2.65699317,1.38157623 2.04739265,1.07210328 C1.87594057,0.98506303 1.27342826,0.636771396 1.18988736,0.609162463 C0.980388123,0.539926318 0.816982724,0.573386545 0.691460147,0.708523728 Z"/>
              </g>
            </g>
            <g transform="translate(2.316)">
              <path fill="#984800" fill-rule="nonzero" d="M2.25141134,3.53978483 C2.25102501,3.53959097 2.25072555,3.53941225 2.2505117,3.53925773 C2.25113893,3.53971094 2.25179968,3.54021592 2.25249271,3.54077254 L2.25141134,3.53978483 Z M2.42681865,2.34270662 C2.38182974,2.33030187 2.33361718,2.32412377 2.28222486,2.32412377 C1.65263759,2.32412377 1.19815573,2.15226978 0.928614259,1.80530805 L1.07592848,1.7089198 C1.30771278,2.00727938 1.70653324,2.15808604 2.28222486,2.15808604 C2.40621413,2.15808604 2.5150673,2.18214188 2.60905747,2.22995144 C2.62459733,2.2211783 2.64073842,2.21207752 2.65719314,2.20279219 C2.62621528,2.11639377 2.5831345,2.00749515 2.52467161,1.86415019 C2.51657906,1.84430215 2.51657906,1.84430215 2.50848862,1.82441165 C2.27309973,1.24518142 2.22608485,1.00588947 2.44373586,0.877368757 L2.5416309,1.01700035 C2.44293981,1.07527644 2.48580198,1.29343229 2.67800417,1.76639138 C2.68604484,1.78615954 2.68604484,1.78615954 2.69411243,1.80594639 C2.74495636,1.93061044 2.78468538,2.03022057 2.8153298,2.11269596 C2.85037023,2.0923701 2.88231856,2.07343751 2.90786359,2.05754576 C3.23167661,1.85609921 3.39794646,1.38704713 3.3935713,0.644518896 L3.57448971,0.643621056 C3.57915808,1.43591108 3.39515522,1.95498846 3.0093793,2.1949826 C2.97136055,2.21863435 2.92240087,2.24733242 2.87102342,2.27681792 C2.89743433,2.36682324 2.90733457,2.43262783 2.90733457,2.50001528 L2.90733457,2.54905792 C2.98988149,2.71646421 3.03938351,2.93709226 3.05678048,3.20990239 C3.10940206,3.14548669 3.16975818,3.09125242 3.23797207,3.04725401 C3.51403679,2.86919043 3.66851919,2.70596903 3.70559835,2.56377875 L3.88155083,2.60242354 C3.83199566,2.79245646 3.65075362,2.98395129 3.34200382,3.18309696 C3.21935864,3.26220392 3.12565515,3.38927012 3.0622377,3.56488943 C3.05640724,3.78557279 3.0349731,4.03171431 2.99825944,4.3029554 L2.96437027,4.29909201 C2.96456371,4.31627671 2.96487619,4.33364597 2.96530803,4.35119993 L2.78443307,4.35494761 C2.78405221,4.33946571 2.78376067,4.32410633 2.78355862,4.30886956 L2.72641352,4.30886956 L2.72641352,4.30387216 L2.6964503,4.31282216 C2.69498624,4.30869398 2.69352648,4.3045725 2.69207101,4.30045774 L2.6363106,4.3186907 C2.52982972,4.04442229 2.43950005,3.83933738 2.36594279,3.70433977 C2.33069734,3.63965476 2.29984934,3.59214559 2.2745549,3.56267047 C2.26539672,3.55199862 2.25771869,3.54459008 2.25227604,3.54051531 C2.25357598,3.54075384 2.25918597,3.5423557 2.26846297,3.5423557 L2.26846297,3.37631796 C2.32386691,3.37631796 2.37840439,3.41174734 2.43696647,3.48669716 C2.36095474,3.19440019 2.32289542,2.96054209 2.32289542,2.7842754 C2.32289542,2.50272954 2.33514098,2.42085315 2.42681865,2.34270662 Z M2.72641352,2.59169774 C2.68962011,2.52641299 2.64648299,2.47319047 2.59711673,2.43190344 C2.58417113,2.43944322 2.57524986,2.44486038 2.57151936,2.44757208 C2.51119473,2.49142193 2.50381648,2.5243031 2.50381648,2.7842754 C2.50381648,3.01635594 2.57791461,3.36877345 2.72641352,3.83912879 L2.72641352,2.59169774 Z"/>
              <path fill="#247805" d="M4.0674302,0.785308579 C3.93063651,0.825472121 3.75509805,0.835412719 3.56873254,0.805895321 C3.36267011,0.773258239 3.18410324,0.69883314 3.06506531,0.606154316 C3.07236676,0.629218658 3.07596747,0.65286088 3.07554767,0.676910849 C3.07154671,0.906126207 2.70385378,1.08558048 2.25428254,1.07773318 C1.8047113,1.06988589 1.44350523,0.877708637 1.4475062,0.64849328 C1.45150717,0.419277922 1.81920009,0.23982365 2.26877133,0.247670946 C2.53915281,0.252390472 2.77757199,0.323783419 2.92380523,0.429808206 C2.91100164,0.394649088 2.90680982,0.358993428 2.91239964,0.323700713 C2.94467601,0.119915673 3.29085661,0.00540072188 3.68561565,0.0679244103 C4.08037468,0.130448099 4.37422493,0.346333978 4.34194855,0.550119018 C4.33609144,0.587099341 4.31989735,0.621139966 4.2949518,0.651716406 C4.48937356,0.595733263 4.75708317,0.608935695 5.03042975,0.703056471 C5.50281054,0.86571022 5.81314494,1.20842996 5.72358104,1.46854243 C5.63401713,1.7286549 5.17847095,1.8076608 4.70609016,1.64500705 C4.64926397,1.62544023 4.59478283,1.60326758 4.54306081,1.5789464 C4.56645522,1.54262106 4.58208497,1.5031499 4.58876225,1.46099122 C4.63179743,1.18927783 4.28666601,0.90882162 3.81788966,0.83457474 C3.34911331,0.76032786 2.93420809,0.920406092 2.89117292,1.19211948 C2.84813775,1.46383287 3.19326916,1.74428907 3.66204551,1.81853595 C4.05808715,1.88126279 4.4156779,1.77673846 4.54306081,1.5789464 Z M1.81771631,3.5817789 C1.32184056,3.64266479 0.897205142,3.50756374 0.869266562,3.28002226 C0.841327981,3.05248078 1.22066601,2.81866421 1.71654176,2.75777832 C2.21241751,2.69689244 2.63705293,2.83199349 2.66499151,3.05953496 C2.69293009,3.28707644 2.31359206,3.52089302 1.81771631,3.5817789 Z M3.64669101,3.88550663 C3.20857553,3.7843597 2.89939916,3.50317493 2.95612626,3.25746287 C3.01285336,3.0117508 3.41400253,2.89455761 3.85211802,2.99570454 C4.2902335,3.09685147 4.59940988,3.37803624 4.54268278,3.6237483 C4.48595568,3.86946037 4.0848065,3.98665356 3.64669101,3.88550663 Z M1.44793118,2.25730802 C0.898455219,2.24771688 0.456584712,2.03554439 0.460985778,1.78340749 C0.465386844,1.5312706 0.914392889,1.33464842 1.46386885,1.34423956 C2.01334481,1.35383069 2.45521532,1.56600319 2.45081425,1.81814008 C2.44641318,2.07027697 1.99740714,2.26689916 1.44793118,2.25730802 Z M4.0332064,2.95274127 C3.37113854,2.82404832 2.87343328,2.51904952 2.9215506,2.27150739 C2.96966791,2.02396526 3.54538675,1.92761897 4.20745461,2.05631192 C4.86952247,2.18500488 5.36722773,2.49000368 5.31911041,2.73754581 C5.2709931,2.98508794 4.69527426,3.08143423 4.0332064,2.95274127 Z M0.905618699,1.36158913 C0.55605091,1.55535772 0.191581135,1.56614961 0.0915526703,1.38569348 C-0.00847579389,1.20523735 0.193815798,0.901868282 0.543383586,0.708099692 C0.892951375,0.514331103 1.25742115,0.503539219 1.35744961,0.683995346 C1.45747808,0.864451472 1.25518649,1.16782054 0.905618699,1.36158913 Z"/>
            </g>
            <g transform="translate(0 1.65)">
              <path fill="#FFF" d="M1.6450964,2.98923847 C1.43650844,4.96933987 1.33221447,6.09356955 1.33221447,6.36192752 C1.33221447,6.63028549 1.52414869,6.63028549 1.90801715,6.36192752 C1.96439002,5.41632762 2.05794234,4.76788546 2.18867412,4.41660101 C2.38477178,3.88967435 2.47732488,4.46857728 2.47732488,4.77621723 C2.47732488,4.98131053 2.47732488,5.5635729 2.47732488,6.52300432 C2.95503709,6.58804702 3.1938932,6.53435475 3.1938932,6.36192752 C3.1938932,6.10328667 2.89574982,2.98923847 2.89574982,2.98923847 C2.89574982,2.98923847 2.53446798,2.98923847 1.81190431,2.98923847 L1.6450964,2.98923847 Z"/>
              <path fill="#979797" fill-rule="nonzero" d="M1.60126421,2.98508635 L1.60522718,2.94746632 L2.93598201,2.94746632 L2.93961973,2.98546152 C2.94020251,2.9915486 2.94020251,2.9915486 2.94296901,3.02050723 C2.94675457,3.06017295 2.94675457,3.06017295 2.95243269,3.11979553 C2.96262402,3.22687353 2.97398001,3.34662122 2.9862095,3.47612397 C3.02115104,3.84613347 3.05609267,4.2201854 3.08870544,4.57496516 C3.09355018,4.6276993 3.09355018,4.6276993 3.0983889,4.68049449 C3.18619881,5.63918931 3.23794355,6.25105192 3.23794355,6.36192752 C3.23794355,6.57338522 2.97368817,6.63278697 2.47106432,6.56435245 L2.43327453,6.55920719 L2.43327453,4.77621723 C2.43327453,4.60426189 2.40629785,4.399078 2.36542956,4.29846078 C2.33046959,4.21238978 2.307906,4.22173811 2.23021362,4.43050242 C2.10126453,4.77699666 2.00814732,5.4224229 1.95199727,6.36428525 L1.95082819,6.38389534 L1.93415635,6.39555043 C1.52672941,6.68037787 1.28816412,6.68037787 1.28816412,6.36192752 C1.28816412,6.09142452 1.3924085,4.96772948 1.60126421,2.98508635 Z M1.37626481,6.36192752 C1.37626481,6.5767978 1.51708251,6.58014029 1.86521899,6.33987689 C1.92193717,5.40121774 2.01553844,4.75630677 2.14713462,4.40269961 C2.24666769,4.13524804 2.37238952,4.08316015 2.44764268,4.2684325 C2.49320156,4.3805979 2.52137522,4.59488596 2.52137522,4.77621723 L2.52137522,6.48661758 C2.948272,6.54052883 3.14984286,6.49155709 3.14984286,6.36192752 C3.14984286,6.25495773 3.09778444,5.63938582 3.01061866,4.68772361 C3.00578117,4.63494173 3.00578117,4.63494173 3.00093758,4.58222019 C2.96833149,4.22751306 2.93339576,3.85352427 2.89845995,3.48357556 C2.88623236,3.35409294 2.87487821,3.23436453 2.86468865,3.12730525 C2.85915708,3.06922149 2.85901542,3.06773403 2.85551067,3.03101062 L1.68496709,3.03101062 C1.47928565,4.98521937 1.37626481,6.09740731 1.37626481,6.36192752 Z"/>
              <path fill="#FF863B" d="M0.60665822,1.96763814 C0.77048068,2.55732273 0.88864913,2.85216502 0.961163569,2.85216502 C1.03367801,2.85216502 1.29002942,2.67124048 1.73021779,2.30939139 L1.73021779,3.04611465 L2.96045601,3.04611465 L2.96045601,2.71980542 L3.11828284,3.04611465 L3.3334061,2.94551142 L3.70557131,2.50687639 L3.3334061,2.50687639 C3.26132771,2.03727062 3.22528851,1.76533592 3.22528851,1.6910723 C3.22528851,1.57967687 3.22967077,1.35930494 2.96045601,1.27954184 C2.7809795,1.22636644 2.64722241,1.15270239 2.55918473,1.05854967 C2.94565225,0.505045858 2.99174231,0.22829395 2.6974549,0.22829395 C2.25602379,0.22829395 2.05620574,0.334727449 2.05620574,0.334727449 C2.05620574,0.334727449 2.05620574,0.827695663 2.05620574,0.943122669 C2.05620574,1.05854967 1.42293622,0.921879386 1.42293622,1.27954184 C1.42293622,1.6372043 1.12762411,1.96763814 1.12762411,1.96763814 C1.12762411,1.96763814 1.10257327,1.88779234 1.05247159,1.72810074 L0.60665822,1.96763814 Z"/>
              <ellipse cx="2.467" cy=".209" fill="#000" rx="1" ry="1"/>
              <path fill="#740000" fill-rule="nonzero" d="M0.247089115,2.30990771 L0.0482708183,2.14476808 C0.431326089,1.73006087 0.857537415,1.42834206 1.32648248,1.2410501 C1.77054303,1.06369676 2.3508725,0.78064018 3.06635733,0.392154341 L3.19768715,0.609656557 C2.47370288,1.00275732 1.8845355,1.2901246 1.42907146,1.47203238 C0.998491936,1.64400153 0.604638593,1.92281383 0.247089115,2.30990771 Z"/>
              <polygon fill="#F9FCFF" stroke="#6C6C6C" stroke-width=".5" points="3.058 .483 3.225 1.267 3.966 .875 3.382 .226"/>
            </g>
            <g transform="matrix(-1 0 0 1 11 1.65)">
              <path fill="#FFF" d="M1.74078774,3.3570122 C1.53388648,5.42364241 1.43043585,6.59700002 1.43043585,6.87708501 C1.43043585,7.15717 1.62081804,7.15717 2.00158244,6.87708501 C2.05749947,5.89016317 2.1502953,5.21338461 2.27996995,4.84674932 C2.47448191,4.29679639 2.5662866,4.90099691 2.5662866,5.22208048 C2.5662866,5.43613619 2.5662866,6.04384294 2.5662866,7.04520074 C3.04013592,7.11308575 3.27706058,7.05704717 3.27706058,6.87708501 C3.27706058,6.60714177 2.98132805,3.3570122 2.98132805,3.3570122 C2.98132805,3.3570122 2.62296764,3.3570122 1.9062468,3.3570122 L1.74078774,3.3570122 Z"/>
              <path fill="#979797" fill-rule="nonzero" d="M1.69730999,3.35267863 L1.70124091,3.31341463 L3.02123492,3.31341463 L3.02484322,3.35307019 C3.02542129,3.35942328 3.02542129,3.35942328 3.02816542,3.38964737 C3.03192036,3.43104645 3.03192036,3.43104645 3.03755257,3.49327449 C3.0476615,3.60503171 3.05892565,3.73001228 3.07105625,3.86517419 C3.10571525,4.25135281 3.14037433,4.64175051 3.17272339,5.01203385 C3.17752896,5.06707243 3.17752896,5.06707243 3.18232854,5.12217473 C3.26942841,6.12276373 3.32075472,6.76136425 3.32075472,6.87708501 C3.32075472,7.09778325 3.05863618,7.15978081 2.56007667,7.08835575 L2.52259246,7.08298565 L2.52259246,5.22208048 C2.52259246,5.04261082 2.49583392,4.82846056 2.4552961,4.72344645 C2.42061883,4.63361422 2.39823769,4.64337107 2.32117355,4.8612582 C2.19326718,5.22289397 2.10090294,5.8965248 2.04520693,6.87954577 L2.04404731,6.90001281 L2.02751028,6.91217722 C1.62337789,7.20945138 1.3867417,7.20945138 1.3867417,6.87708501 C1.3867417,6.59476126 1.49014314,5.42196165 1.69730999,3.35267863 Z M1.47412999,6.87708501 C1.47412999,7.10134495 1.613809,7.1048335 1.95913035,6.85407079 C2.01538991,5.874393 2.10823429,5.20129994 2.23876635,4.83224044 C2.33749457,4.55310145 2.46219978,4.49873737 2.53684442,4.69210597 C2.5820349,4.8091729 2.60998074,5.03282517 2.60998074,5.22208048 L2.60998074,7.00722393 C3.03342553,7.06349106 3.23336643,7.01237929 3.23336643,6.87708501 C3.23336643,6.76544073 3.18172897,6.12296883 3.09526803,5.12971976 C3.09046966,5.07463135 3.09046966,5.07463135 3.08566524,5.01960592 C3.05332281,4.64939838 3.01866958,4.25906658 2.98401627,3.87295142 C2.97188756,3.73781051 2.96062522,3.61285006 2.95051805,3.50111238 C2.94503121,3.44049041 2.9448907,3.43893794 2.94141429,3.40060976 L1.78033602,3.40060976 C1.57631777,5.44021583 1.47412999,6.60100549 1.47412999,6.87708501 Z"/>
              <path fill="#824028" d="M0.68914091,2.22801257 C0.85163866,2.8434659 0.96885157,3.15119256 1.04077964,3.15119256 C1.11270771,3.15119256 1.3669862,2.96236176 1.8036151,2.58470016 L1.8036151,3.35361762 L3.02390529,3.35361762 L3.02390529,3.01304894 L3.18045589,3.35361762 L3.39383962,3.24861812 L3.76299541,2.7908151 L3.39383962,2.7908151 C3.32234407,2.30068794 3.28659629,2.01686991 3.28659629,1.93936103 C3.28659629,1.82309771 3.29094312,1.59309571 3.02390529,1.50984702 C2.84588008,1.4543479 2.71320458,1.37746479 2.6258788,1.27919768 C3.00922124,0.701506195 3.0549386,0.412660454 2.76303088,0.412660454 C2.32516929,0.412660454 2.12696702,0.523745011 2.12696702,0.523745011 C2.12696702,0.523745011 2.12696702,1.03825553 2.12696702,1.15872661 C2.12696702,1.27919768 1.49881828,1.13655501 1.49881828,1.50984702 C1.49881828,1.88313904 1.20589414,2.22801257 1.20589414,2.22801257 C1.20589414,2.22801257 1.18104586,2.14467757 1.13134932,1.97800758 L0.68914091,2.22801257 Z"/>
              <ellipse cx="2.534" cy=".392" fill="#000" rx="1" ry="1"/>
              <path fill="#BA611F" fill-rule="nonzero" d="M4.56358839,2.39559311 L1.89091928,1.00256671 C1.85793626,0.69058388 1.66937595,0.487627647 1.32523835,0.393698011 C0.981100744,0.299768375 0.67181372,0.180129687 0.397377276,0.0347819452 L0.162349526,0.393698011 C-0.116723707,0.320049376 0.2709059,0.52300561 1.32523835,1.00256671 C2.90673702,1.72190837 1.26569798,0.612667131 1.71524197,1.00256671 L4.56358839,2.39559311 Z" transform="matrix(-1 0 0 1 4.638 0)"/>
            </g>
          </g>
        </g>
      </g>
    </g>
  </g>
</svg>
