<svg fill="none" height="12" viewBox="0 0 16 12" width="16" xmlns="http://www.w3.org/2000/svg" xmlns:xlink="http://www.w3.org/1999/xlink"><mask id="a" height="12" maskUnits="userSpaceOnUse" width="16" x="0" y="0"><path d="m0 0h16v12h-16z" fill="#fff"/></mask><g clip-rule="evenodd" fill-rule="evenodd" mask="url(#a)"><path d="m0 0h16v12h-16z" fill="#e31d1c"/><g fill="#feca00"><path d="m3.55698 4.87768-1.94665 1.52572.74333-2.30731-1.29818-1.19976 1.7578-.06487.7437-1.857217.74369 1.857217h1.75481l-1.29518 1.26463.59001 2.30731z"/><path d="m7.50817 3.08597-.81686.49314.18632-.96231-.68024-.72019.92109-.03895.38969-.898554.3897.898554h.91952l-.67868.75914.20432.96231z"/><path d="m8.50817 5.08597-.81686.49314.18632-.96231-.68024-.72019.92109-.03895.38969-.89855.3897.89855h.91952l-.67868.75914.20432.96231z"/><path d="m7.50817 7.08597-.81686.49314.18632-.96231-.68024-.72019.92109-.03895.38969-.89855.3897.89855h.91952l-.67868.75914.20432.96231z"/><path d="m5.50817 8.08597-.81686.49314.18632-.96231-.68024-.72019.92109-.03895.38969-.89855.3897.89855h.91952l-.67868.75914.20432.96231z"/></g></g></svg>