<svg fill="none" height="24" viewBox="0 0 32 24" width="32" xmlns="http://www.w3.org/2000/svg" xmlns:xlink="http://www.w3.org/1999/xlink"><mask id="a" height="24" maskUnits="userSpaceOnUse" width="32" x="0" y="0"><path d="m0 0h32v24h-32z" fill="#fff"/></mask><mask id="b" height="16" maskUnits="userSpaceOnUse" width="10" x="11" y="4"><path clip-rule="evenodd" d="m16 20c.9967 0 5-3.5817 5-8 0-4.41828-4.0033-8-5-8s-5 3.58172-5 8c0 4.4183 4.0033 8 5 8z" fill="#fff" fill-rule="evenodd"/></mask><g mask="url(#a)"><path clip-rule="evenodd" d="m0 0v8h32v-8z" fill="#272727" fill-rule="evenodd"/><path clip-rule="evenodd" d="m0 16v8h32v-8z" fill="#4e8b1d" fill-rule="evenodd"/><path d="m0 7h-1v1 8 1h1 32 1v-1-8-1h-1z" fill="#e31d1c" stroke="#f7fcff" stroke-width="2"/></g><path d="m19.0195 3.92892c.1903-.39019.702-.81628 1.535-1.27827.0286-.01588.0632-.01679.0926-.00244.0498.02428.0704.08433.0459.13399l-8.6313 17.6968-.4494-.2192 7.6084-15.59959c-.3445-.05612-.4116-.29988-.2012-.73129z" fill="#fff"/><path d="m12.9713 3.92892c.2104.43141.1433.67517-.2012.73129l7.6084 15.59959-.4494.2192-8.6313-17.6968c-.0245-.04966-.0039-.10971.0459-.13399.0294-.01435.064-.01344.0926.00244.833.46199 1.3447.88808 1.535 1.27827z" fill="#fff"/><path clip-rule="evenodd" d="m16 20c.9967 0 5-3.5817 5-8 0-4.41828-4.0033-8-5-8s-5 3.58172-5 8c0 4.4183 4.0033 8 5 8z" fill="#e31d1c" fill-rule="evenodd"/><g mask="url(#b)"><path d="m6.5 19c3.866 0 7-3.134 7-7 0-3.86599-3.134-7-7-7-3.86599 0-7 3.13401-7 7 0 3.866 3.13401 7 7 7z" fill="#272727"/><path d="m25.5 19c3.866 0 7-3.134 7-7 0-3.86599-3.134-7-7-7s-7 3.13401-7 7c0 3.866 3.134 7 7 7z" fill="#272727"/><g fill="#f7fcff"><path clip-rule="evenodd" d="m16.2 10.9299c.4564-.3243.8-1.7367.8-3.42997s-.3436-3.10569-.8-3.42998zm-.5-.0902c-.4057-.446-.7-1.77259-.7-3.33977 0-1.56717.2943-2.89377.7-3.33977zm0 2.3205v6.6795c-.4057-.446-.7-1.7726-.7-3.3398 0-1.5671.2943-2.8937.7-3.3397zm.5 6.7697v-6.86c.4564.3243.8 1.7368.8 3.43 0 1.6933-.3436 3.1057-.8 3.43z" fill-rule="evenodd"/><path d="m16 11c.5523 0 1 .4477 1 1s-.4477 1-1 1-1-.4477-1-1 .4477-1 1-1z"/></g></g></svg>