<svg fill="none" height="24" viewBox="0 0 32 24" width="32" xmlns="http://www.w3.org/2000/svg" xmlns:xlink="http://www.w3.org/1999/xlink"><mask id="a" height="24" maskUnits="userSpaceOnUse" width="32" x="0" y="0"><path d="m0 0h32v24h-32z" fill="#fff"/></mask><g clip-rule="evenodd" fill-rule="evenodd" mask="url(#a)"><path d="m0 0h32v24h-32z" fill="#f7fcff"/><path d="m9.0012 13.2471-1.24712.7529.28446-1.4692-1.03854-1.0995 1.40624-.0595.59496-1.3718.59495 1.3718h1.40385l-1.03615 1.159.31195 1.4692z" fill="#409100"/><path d="m23.0012 13.2471-1.2471.7529.2844-1.4692-1.0385-1.0995 1.4062-.0595.595-1.3718.5949 1.3718h1.4039l-1.0361 1.159.3119 1.4692z" fill="#409100"/><path d="m0 0v8h32v-8z" fill="#e31d1c"/><path d="m0 16v8h32v-8z" fill="#272727"/></g></svg>