<svg fill="none" height="24" viewBox="0 0 32 24" width="32" xmlns="http://www.w3.org/2000/svg" xmlns:xlink="http://www.w3.org/1999/xlink"><mask id="a" height="24" maskUnits="userSpaceOnUse" width="32" x="0" y="0"><path d="m0 0h32v24h-32z" fill="#fff"/></mask><mask id="b" height="24" maskUnits="userSpaceOnUse" width="32" x="0" y="0"><path clip-rule="evenodd" d="m0 0v24h32v-24z" fill="#fff" fill-rule="evenodd"/></mask><g mask="url(#a)"><path clip-rule="evenodd" d="m0 0v24h32v-24z" fill="#e31d1c" fill-rule="evenodd"/><g mask="url(#b)"><g clip-rule="evenodd" fill-rule="evenodd"><path d="m6.09358 4.14096c-.00768-.09252.10302-.13738.16564-.06884.44913.49165 1.63618 1.71563 2.32266 1.71563.85901 0 4.23262-2.84264 5.22972-2.37957.9972.46307 3.0161 5.3047 3.0161 5.3047l-1.3156 1.65022-1.7005-.92758-.3213-3.64777s-3.2731 1.68348-4.90842 1.07241l-.91928.77247s-.88529-1.75301-1.2339-2.28918c-.23067-.35477-.30871-.88458-.33512-1.20249z" fill="#f7fcff"/><path d="m8.26195 8.12437-.55979.33916.10691-.71836-.45289-.50875.62587-.1048.2799-.65359.2799.65359.62587.1048-.45288.50875.10691.71836z" fill="#feca00"/><path d="m13.0127 3.79191c0-.20032.1624-.36271.3627-.36271s.3627.16239.3627.36271v1.7136c0 .20032-.1624.36271-.3627.36271s-.3627-.16239-.3627-.36271z" fill="#feca00"/><path d="m25.2202 5.10343c.0826.04251.062.16017-.0293.17695-.655.12035-2.322.47842-2.6858 1.06059-.4552.72848.1678 5.09583-.7534 5.69603-.9211.6003-6.0969-.2533-6.0969-.2533l-.7023-1.9902 1.6878-.95047 3.2637 1.66047s.3068-3.66781 1.6916-4.73082l-.1679-1.18894s1.9558.17818 2.5952.16667c.4231-.00762.9138.20695 1.1973.35302z" fill="#f7fcff"/><path d="m20.693 4.83135.009-.65446.5526.47134.6714-.11447-.2428.58631.406.58371-.7026-.10898-.4206.47523-.1914-.65366-.6659-.29001z" fill="#feca00"/><path d="m21.9143 11.2048c.1796.1114.2385.3452.1331.5284-.113.1965-.3688.2564-.5573.1305l-1.5486-1.0343c-.139-.0928-.1959-.2689-.1376-.4255.0794-.2134.3343-.3006.5278-.1806z" fill="#feca00"/><path d="m14.8625 20.9836c-.0781.0503-.1697-.0264-.1386-.1139.2233-.6274.7467-2.2501.4244-2.8562-.4033-.7585-4.497-2.4026-4.5563-3.5005-.0592-1.0978 3.2679-5.1534 3.2679-5.1534l2.0747.38688-.0207 1.93692-3.0699 1.9962s3.023 2.0996 3.2512 3.8304l1.1136.449s-1.1322 1.6047-1.4419 2.1642c-.205.3702-.6361.6879-.9044.8604z" fill="#f7fcff"/><g fill="#feca00"><path d="m17.3616 17.1989.5623.3351-.6845.2428-.2366.6387-.3863-.5034-.7085.0597.4457-.5539-.2013-.6018.6618.161.5841-.4317z"/><path d="m11.1034 14.9572c-.223.0852-.4711-.0394-.536-.2692-.057-.2014.0483-.4131.2433-.4892l1.6683-.651c.1854-.0724.396-.0023.501.1667.1372.2206.0392.5115-.2035.6041z"/></g></g><g fill="#feca00"><path d="m13.6626 9.76489c-.1244-.04349-.1909-.18209-.1484-.30959.0424-.12749.2418-.34044.3663-.29695l1.7357.60654c.0896.03129.1526.11395.1604.21054l.1553 1.90387c.0109.1342-.1846.2428-.3157.254-.131.0112-.2461-.0885-.257-.2227l-.1438-1.6373z"/><path d="m16.6806 8.76749c.1038-.08276.289.01316.3698.11944.0808.10629.0622.25953-.0415.34229l-1.2025 1.23238c-.1037.0828-.3371-.0786-.4178-.1849-.0808-.1063-.1038-.39582 0-.47858z"/></g></g></g></svg>