<svg fill="none" height="15" viewBox="0 0 20 15" width="20" xmlns="http://www.w3.org/2000/svg" xmlns:xlink="http://www.w3.org/1999/xlink"><mask id="a" height="15" maskUnits="userSpaceOnUse" width="20" x="0" y="0"><path d="m0 0h20v15h-20z" fill="#fff"/></mask><mask id="b" height="15" maskUnits="userSpaceOnUse" width="20" x="0" y="0"><path clip-rule="evenodd" d="m0 0v15h20v-15z" fill="#fff" fill-rule="evenodd"/></mask><g clip-rule="evenodd" fill-rule="evenodd" mask="url(#a)"><path d="m0 0v15h20v-15z" fill="#f7fcff"/><g fill="#e31d1c" mask="url(#b)"><path d="m8.75 0h2.5v6.25h8.75v2.5h-8.75v6.25h-2.5v-6.25h-8.75v-2.5h8.75z"/><path d="m6.24918 10.7637 1.37582-.1387v1.25s-1.37582-.0861-1.37582-.0613c0 .0249.12582 1.3113.12582 1.3113h-1.25l.10014-1.25h-1.35014v-1.25l1.35014.1387-.10014-1.3887h1.25z"/><path d="m6.24918 3.26372 1.37582-.13872v1.25s-1.37582-.08615-1.37582-.06128.12582 1.31128.12582 1.31128h-1.25l.10014-1.25h-1.35014v-1.25l1.35014.13872-.10014-1.38872h1.25z"/><path d="m14.9992 3.26372 1.3758-.13872v1.25s-1.3758-.08615-1.3758-.06128.1258 1.31128.1258 1.31128h-1.25l.1001-1.25h-1.3501v-1.25l1.3501.13872-.1001-1.38872h1.25z"/><path d="m14.9992 10.7637 1.3758-.1387v1.25s-1.3758-.0861-1.3758-.0613c0 .0249.1258 1.3113.1258 1.3113h-1.25l.1001-1.25h-1.3501v-1.25l1.3501.1387-.1001-1.3887h1.25z"/></g></g></svg>