<svg fill="none" height="12" viewBox="0 0 16 12" width="16" xmlns="http://www.w3.org/2000/svg" xmlns:xlink="http://www.w3.org/1999/xlink"><mask id="a" height="12" maskUnits="userSpaceOnUse" width="16" x="0" y="0"><path d="m0 0h16v12h-16z" fill="#fff"/></mask><g clip-rule="evenodd" fill-rule="evenodd" mask="url(#a)"><path d="m0 8h16v4h-16z" fill="#55ba07"/><path d="m0 4h16v4h-16z" fill="#f7fcff"/><path d="m0 0h16v4h-16z" fill="#3d58db"/><path d="m7.625 4.1201c-.26134.07017-.39934.25078-.39934.57034 0 .3652.17931.70798.39934.88476zm.625 1.44532c.21392-.17922.38588-.51562.38588-.87404 0-.31038-.13588-.49017-.38588-.56478zm-.02107-1.69932c.40921.09089.70535.36958.70535.82235 0 .32932-.15666.72966-.39954 1.00438l1.21686 1.19352.3002-.09884.4482.67984s-1.13296.53261-2.53329.53261c-1.40032 0-2.46671-.53261-2.46671-.53261l.38158-.581.30816.10102 1.12898-1.27384c-.2535-.27503-.41822-.68739-.41822-1.02508 0-.46879.31746-.75095.74919-.83129.04752-.11199.15849-.19053.28781-.19053.13273 0 .24613.08274.29143.19947z" fill="#1d1d1d"/></g></svg>