<svg fill="none" height="24" viewBox="0 0 32 24" width="32" xmlns="http://www.w3.org/2000/svg" xmlns:xlink="http://www.w3.org/1999/xlink"><mask id="a" height="24" maskUnits="userSpaceOnUse" width="32" x="0" y="0"><path d="m0 0h32v24h-32z" fill="#fff"/></mask><mask id="b" height="24" maskUnits="userSpaceOnUse" width="32" x="0" y="0"><path clip-rule="evenodd" d="m0 0v24h32v-24z" fill="#fff" fill-rule="evenodd"/></mask><g mask="url(#a)"><path clip-rule="evenodd" d="m0 0v24h32v-24z" fill="#5196ed" fill-rule="evenodd"/><g mask="url(#b)"><path clip-rule="evenodd" d="m8.71741 7.89376s2.06409 1.13248 2.35119 1.44572c.2869.3133.7469 1.46372 1.4642.81312.7174-.65034 1.4347-.1447 1.4347-1.1809 0-1.03612 1.071-3.43966 2.6251-2.83736 1.5543.60224 2.8321.22548 3.1906.46626.3588.24094 1.2196 1.43742 1.889 1.43742.6697 0 1.0042.69868 1.0522 1.71074.0476 1.01214-.2151 1.10884.4064 1.22944.6218.1204.8608.5784.5502 1.1807-.3109.6024-.2872.3373-.2393.9639.048.6265-.6215 4.3212-2.6783 4.683-2.0565.3613-4.0058.1687-3.4795-.5304.526-.6986 1.2542-1.5027.1784-1.6714-1.0763-.1689-1.7545-.3125-2.8306-.0234-1.0762.2892-2.2.7468-2.8698-.1204-.6695-.8676-.5258-1.4941-1.0758-1.9038-.5499-.4096-1.21972-.3373-.6695-1.1325.5497-.7952 1.004-.4983.5497-1.1248-.454-.6263-2.16891-.8993-2.16891-1.52558 0-.62678-1.0908-2.00028.32002-1.87976z" fill="#f5f8fb" fill-rule="evenodd"/></g></g></svg>