<svg fill="none" height="15" viewBox="0 0 20 15" width="20" xmlns="http://www.w3.org/2000/svg" xmlns:xlink="http://www.w3.org/1999/xlink"><mask id="a" height="15" maskUnits="userSpaceOnUse" width="20" x="0" y="0"><path d="m0 0h20v15h-20z" fill="#fff"/></mask><mask id="b" height="15" maskUnits="userSpaceOnUse" width="20" x="0" y="0"><path clip-rule="evenodd" d="m0 0v15h20v-15z" fill="#fff" fill-rule="evenodd"/></mask><mask id="c" height="15" maskUnits="userSpaceOnUse" width="12" x="0" y="0"><path clip-rule="evenodd" d="m0 0v15l11.25-7.5z" fill="#fff" fill-rule="evenodd"/></mask><g mask="url(#a)"><path clip-rule="evenodd" d="m0 0v15h20v-15z" fill="#bf2714" fill-rule="evenodd"/><g mask="url(#b)"><path clip-rule="evenodd" d="m0-1.25v8.75h20v-8.75z" fill="#3d58db" fill-rule="evenodd"/></g><g clip-rule="evenodd" fill-rule="evenodd"><path d="m0 0v15l11.25-7.5z" fill="#f7fcff"/><g fill="#feca00" mask="url(#c)"><path d="m8.50315 6.82507.79743.30752.47444-.55833.01259.74672.73389.23872-.77248.26221.05091.68619-.5088-.52564-.79976.15212.47218-.6054z"/><path d="m1.00315 10.5751.73298.324.53889-.5748-.05186.7632.79836.2222-.83695.2788.11536.6696-.58273-.4785-.725835.105.407735-.5889z"/><path d="m1.00315 3.07507.8111.29889.46077-.5497.02626.73809.72024.24735-.75883.25358.03724.69482-.50461-.50367-.803955.13015.485855-.61403z"/><path d="m5.07593 9.08301c.86294 0 1.5625-.69956 1.5625-1.5625 0-.86295-.69956-1.5625-1.5625-1.5625-.86295 0-1.5625.69955-1.5625 1.5625 0 .86294.69955 1.5625 1.5625 1.5625z"/><path d="m4.89123 5.14987.08396 1.00375c.00803.06096.05492.10952.11555.11967.07618.01275.14826-.03867.16101-.11484l.11082-1.00035c.00195-.01163.00303-.02339.00323-.03519.0023-.1316-.10252-.24015-.23413-.24245-.01179-.0002-.02358.00047-.03528.00201-.13049.01719-.22235.13691-.20516.2674zm-.26132.48511.12976.43664c.01204.04054.05252.06563.0983.05756.03753-.00887.06076-.04648.05189-.084l-.10355-.43823c-.01191-.05039-.06074-.08302-.11186-.07475-.00341.00055-.00679.00132-.01011.00231-.04277.01271-.06714.05769-.05443.10047zm.70176.45484c-.01017.03719.01174.07559.05302.08675.04138.00868.08271-.01499.09616-.05508l.14492-.43185c.0142-.04231-.00859-.08811-.05089-.10231-.00328-.0011-.00663-.00199-.01002-.00266-.0508-.01005-.10074.02086-.1144.07081zm1.2982-.43886-.69857.77138c-.03742.04878-.0386.11628-.0029.16633.04484.06288.13217.07749.19505.03265l.83389-.63125c.0096-.00685.01869-.0144.02717-.02259.09468-.09144.09732-.24231.00588-.337-.00819-.00848-.017-.01635-.02636-.02353-.10443-.08012-.25404-.06041-.33416.04401zm-.21251 1.63747 1.0431-.08073c.13049-.01719.25022.07467.2674.20517.00154.01169.00221.02348.00201.03528-.0023.1316-.11085.23643-.24245.23413-.0118-.00021-.02356-.00129-.03519-.00324l-1.0397-.11405c-.07617-.01275-.12758-.08483-.11483-.161.01015-.06064.05871-.10753.11966-.11556zm.54136 1.66137-.81008-.70526c-.04878-.03742-.11627-.0386-.16632-.0029-.06288.04484-.0775.13217-.03265.19505l.66994.84058c.00685.0096.0144.01868.02259.02717.09144.09468.24232.09731.337.00588.00848-.00819.01635-.017.02353-.02636.08012-.10443.06042-.25404-.04401-.33416zm-1.67617-.2192.06185 1.05314c.01719.1305-.07467.25026-.20517.26736-.01169.0016-.02348.0023-.03527.0021-.13161-.0023-.23643-.11089-.23414-.2425.00021-.01179.00129-.02355.00324-.03519l.13293-1.04974c.01275-.07617.08484-.12758.16101-.11483.06063.01015.10753.05871.11555.11966zm-1.64442.56895.68831-.83767c.03743-.04877.0386-.11627.00291-.16632-.04485-.06288-.13218-.0775-.19505-.03265l-.82364.69754c-.0096.00684-.01868.0144-.02717.02259-.09468.09143-.09731.24231-.00588.33699.00819.00849.01701.01635.02636.02353.10443.08013.25404.06042.33416-.04401zm.20225-1.70376-1.0495.08649c-.1305.01719-.25022-.07467-.26741-.20517-.00154-.01169-.00221-.02348-.002-.03528.00229-.1316.11084-.23643.24245-.23413.01179.00021.02355.00129.03519.00324l1.0461.10829c.07617.01275.12759.08484.11483.16101-.01015.06063-.05871.10753-.11966.11555zm-.62142-1.64442.89014.68831c.04878.03743.11627.0386.16633.00291.06287-.04485.07749-.13218.03265-.19505l-.75001-.82364c-.00685-.0096-.0144-.01868-.0226-.02717-.09143-.09468-.24231-.09731-.33699-.00588-.00849.00819-.01635.01701-.02353.02636-.08012.10443-.06042.25404.04401.33416zm2.61793.26059.217-.40051c.02126-.03923.0703-.0538.10953-.03255.00304.00165.00598.00349.00878.00552.042.0303.05345.08789.02624.13195l-.23665.3831c-.02026.0328-.06328.04297-.09609.0227-.03808-.02666-.04896-.07303-.02881-.11021zm1.09912.73119-.43665.12976c-.04053.01204-.06563.05252-.05756.0983.00887.03753.04648.06076.08401.05189l.43822-.10355c.0504-.01191.08303-.06074.07475-.11186-.00055-.00341-.00132-.00679-.00231-.01011-.01271-.04277-.05769-.06714-.10046-.05443zm-.57699 1.20698.40051.217c.03923.02126.05381.0703.03255.10953-.00165.00304-.00349.00598-.00551.00878-.0303.042-.0879.05345-.13196.02624l-.38309-.23665c-.03281-.02026-.04298-.06328-.02271-.09609.02666-.03808.07303-.04895.11021-.02881zm-.73119 1.09912-.12976-.43665c-.01204-.04053-.05252-.06563-.0983-.05756-.03753.00887-.06076.04648-.05189.08401l.10356.43822c.01191.0504.06073.08303.11185.07475.00342-.00055.00679-.00132.01011-.0023.04277-.01272.06715-.0577.05443-.10047zm-1.20698-.57699-.217.40051c-.02125.03923-.07029.05381-.10953.03255-.00304-.00165-.00597-.00349-.00878-.00551-.042-.0303-.05345-.0879-.02623-.13196l.23664-.38309c.02027-.03281.06329-.04297.09609-.02271.03808.02666.04896.07303.02881.11021zm-1.09911-.73118.43664-.12976c.04053-.01205.06563-.05253.05756-.09831-.00887-.03752-.04648-.06076-.08401-.05189l-.43822.10356c-.05039.01191-.08302.06073-.07475.11185.00055.00342.00132.00679.00231.01011.01271.04278.05769.06715.10047.05444zm.57698-1.20698-.40051-.21701c-.03923-.02125-.0538-.07029-.03255-.10953.00165-.00304.00349-.00597.00552-.00878.03029-.042.08789-.05345.13195-.02623l.3831.23664c.0328.02027.04297.06329.0227.09609-.02666.03808-.07303.04896-.11021.02882zm2.32977-.1048c-.03349.0191-.04516.06175-.02386.09883.02313.0354.06909.04788.10695.02905l.40784-.20289c.03995-.01988.05623-.06838.03635-.10833-.00154-.0031-.00328-.00609-.0052-.00897-.02882-.04303-.08598-.05648-.13096-.03082zm.16593 1.06863c.01115-.04128.04955-.06319.08675-.05302l.43434.11879c.04995.01366.08085.0636.0708.1144-.00067.00339-.00156.00674-.00266.01002-.0142.0423-.06.06509-.1023.05089l-.43186-.14492c-.04008-.01345-.06375-.05478-.05507-.09616zm-.45273.8438c-.01911-.03349-.06175-.04515-.09883-.02386-.0354.02313-.04789.06909-.02905.10695l.20289.40784c.01987.03995.06837.05623.10833.03635.00309-.00154.00609-.00328.00896-.0052.04303-.02881.05649-.08598.03083-.13096zm-1.06863.16593c.04128.01115.06318.04955.05301.08675l-.11879.43434c-.01366.04995-.06359.08086-.11439.0708-.0034-.00067-.00674-.00156-.01002-.00266-.04231-.0142-.0651-.06-.0509-.1023l.14492-.43185c.01345-.04009.05478-.06376.09617-.05508zm-.84381-.45273c.0335-.01911.04516-.06175.02386-.09883-.02313-.0354-.06909-.04789-.10695-.02905l-.40784.20289c-.03995.01987-.05622.06837-.03635.10833.00154.00309.00328.00609.00521.00896.02881.04303.08597.05649.13095.03083zm-.16592-1.06863c-.01116.04128-.04956.06318-.08675.05301l-.43434-.11879c-.04995-.01366-.08086-.06359-.07081-.11439.00067-.0034.00156-.00674.00266-.01002.0142-.04231.06-.06509.10231-.0509l.43185.14492c.04009.01345.06376.05478.05508.09617zm.45273-.84381c.0191.0335.06174.04516.09882.02386.03541-.02312.04789-.06909.02906-.10695l-.20289-.40783c-.01988-.03996-.06838-.05623-.10833-.03636-.0031.00154-.0061.00328-.00897.00521-.04303.02881-.05648.08597-.03082.13095z"/></g></g></g></svg>