<svg fill="none" height="15" viewBox="0 0 20 15" width="20" xmlns="http://www.w3.org/2000/svg" xmlns:xlink="http://www.w3.org/1999/xlink"><mask id="a" height="15" maskUnits="userSpaceOnUse" width="20" x="0" y="0"><path d="m0 0h20v15h-20z" fill="#fff"/></mask><g mask="url(#a)"><path clip-rule="evenodd" d="m0 0h20v15h-20z" fill="#e31d1c" fill-rule="evenodd"/><path clip-rule="evenodd" d="m0 1.25v1.25h20v-1.25zm0 2.5v1.25h20v-1.25zm0 3.75v-1.25h20v1.25zm0 1.25v1.25h20v-1.25zm0 3.75v-1.25h20v1.25zm0 2.5v-1.25h20v1.25z" fill="#f7fcff" fill-rule="evenodd"/><path d="m0 0h11.25v8.75h-11.25z" fill="#2e42a5"/><path clip-rule="evenodd" d="m1.3 2.71718.6624-.46141.51383.36992h-.29093l.58834.52037-.19872.72963h-.31123l-.30221-.67012-.25773.67012h-.768447l.588337.52037-.22364.82113.6624-.46142.51383.36992h-.29093l.58834.52037-.19872.72963h-.31123l-.30221-.67012-.25773.67012h-.768447l.588337.52037-.22364.82113.6624-.46142.64092.46142-.19926-.82113.51471-.52037h-.23741l.53104-.36992.51383.36992h-.29093l.58834.52037-.22364.82113.6624-.46142.64092.46142-.19926-.82113.51471-.52037h-.23741l.53104-.36992.51383.36992h-.29093l.58834.52037-.22364.82113.6624-.46142.64092.46142-.19926-.82113.51471-.52037h-.23741l.53104-.36992.51383.36992h-.29093l.58834.52037-.22364.82113.6624-.46142.6409.46142-.19924-.82113.51474-.52037h-.65511l-.30221-.67012-.25773.67012h-.37263l-.17706-.72963.51471-.52037h-.23741l.53104-.36992.6409.46142-.19924-.82113.51474-.52037h-.65511l-.30221-.67012-.25773.67012h-.37263l-.17706-.72963.51471-.52037h-.23741l.53104-.36992.6409.46141-.19924-.82112.51474-.52037h-.65511l-.30221-.670124-.25773.670124h-.76845l.58834.52037-.19872.72963h-.31123l-.30221-.67012-.25773.67012h-.37263l-.17706-.72963.51471-.52037h-.65508l-.30221-.670124-.25773.670124h-.76845l.58834.52037-.19872.72963h-.31123l-.30221-.67012-.25773.67012h-.37263l-.17706-.72963.51471-.52037h-.65508l-.30221-.670124-.25773.670124h-.76845l.58834.52037-.19872.72963h-.31123l-.30221-.67012-.25773.67012h-.37263l-.17706-.72963.51471-.52037h-.65508l-.30221-.670124-.25773.670124h-.768447l.588337.52037zm7.52492 2.40851.19872-.72963-.58834-.52037h.29093l-.51383-.36992-.53104.36992h.23741l-.51471.52037.17706.72963h.37263l.25773-.67012.30221.67012zm-1.34869 0-.51383-.36992-.53104.36992h.23741l-.51471.52037.17706.72963h.37263l.25773-.67012.30221.67012h.31123l.19872-.72963-.58834-.52037zm-2.20259.52037-.19872.72963h-.31123l-.30221-.67012-.25773.67012h-.37263l-.17706-.72963.51471-.52037h-.23741l.53104-.36992.51383.36992h-.29093zm.18011-.52037h-.37263l-.17706-.72963.51471-.52037h-.23741l.53104-.36992.51383.36992h-.29093l.58834.52037-.19872.72963h-.31123l-.30221-.67012zm-1.62883 0 .19872-.72963-.58834-.52037h.29093l-.51383-.36992-.53104.36992h.23741l-.51471.52037.17706.72963h.37263l.25773-.67012.30221.67012zm3.94872-1.97963-.19872.72963h-.31123l-.30221-.67012-.25773.67012h-.37263l-.17706-.72963.51471-.52037h-.23741l.53104-.36992.51383.36992h-.29093zm-2.79741-.52037-.51383-.36992-.53104.36992h.23741l-.51471.52037.17706.72963h.37263l.25773-.67012.30221.67012h.31123l.19872-.72963-.58834-.52037z" fill="#f7fcff" fill-rule="evenodd"/></g></svg>