<svg fill="none" height="24" viewBox="0 0 32 24" width="32" xmlns="http://www.w3.org/2000/svg" xmlns:xlink="http://www.w3.org/1999/xlink"><mask id="a" height="24" maskUnits="userSpaceOnUse" width="32" x="0" y="0"><path d="m0 0h32v24h-32z" fill="#fff"/></mask><mask id="b" height="24" maskUnits="userSpaceOnUse" width="32" x="0" y="0"><path clip-rule="evenodd" d="m0 0v24h32v-24z" fill="#fff" fill-rule="evenodd"/></mask><g mask="url(#a)"><path clip-rule="evenodd" d="m0 0v24h32v-24z" fill="#3d58db" fill-rule="evenodd"/><g mask="url(#b)"><path clip-rule="evenodd" d="m8 11-.817 2.9441.00761-3.0553-1.58102 2.6145.83166-2.94-2.22778 2.091 1.59402-2.6066-2.70931 1.4124 2.23816-2.0799-2.98991.6291 2.71632-1.39893-3.04876-.20092 2.993-.61418-2.88149-1.01601 3.04772.2161-2.50053-1.75575 2.8764 1.03035-1.93411-2.36528 2.49176 1.76819-1.22424-2.79939 1.9223 2.37489-.42358-3.02587 1.21028 2.80544.4085-3.02794.4085 3.02794 1.21028-2.80544-.42358 3.02587 1.9223-2.37489-1.22424 2.79939 2.49174-1.76819-1.9341 2.36528 2.8764-1.03035-2.5005 1.75575 3.0477-.2161-2.8815 1.01601 2.993.61418-3.0487.20092 2.7163 1.39893-2.9899-.6291 2.2381 2.0799-2.7093-1.4124 1.594 2.6066-2.22775-2.091.83165 2.94-1.58101-2.6145.00761 3.0553z" fill="#f7fcff" fill-rule="evenodd"/><path d="m-.781982 24.7453 34.040282-23.53046v7.67077z" fill="#fff"/><path d="m-.781982 24.7453 34.040282-29.53046v7.67077z" fill="#e2ae57"/></g></g></svg>