<svg fill="none" height="24" viewBox="0 0 32 24" width="32" xmlns="http://www.w3.org/2000/svg" xmlns:xlink="http://www.w3.org/1999/xlink"><mask id="a" height="24" maskUnits="userSpaceOnUse" width="32" x="0" y="0"><path d="m0 0h32v24h-32z" fill="#fff"/></mask><mask id="b" height="24" maskUnits="userSpaceOnUse" width="32" x="0" y="0"><path clip-rule="evenodd" d="m0 0v24h32v-24z" fill="#fff" fill-rule="evenodd"/></mask><mask id="c" height="13" maskUnits="userSpaceOnUse" width="12" x="10" y="8"><path d="m10.6522 8.95984h10.1285c.0171.76896.0223 2.11036.0222 3.40166-.0001.834-.0023 1.6368-.0045 2.2312-.0011.2972-.0022.5423-.003.713l-.0009.1976-.0002.0285c-.0002.0011-.0003.0021-.0005.0032-.0045.0266-.012.0685-.0235.1234-.023.1101-.0618.2717-.1234.4676-.1238.3933-.3368.9148-.6917 1.4329-.6945 1.0139-1.9554 2.0564-4.3055 2.0564-2.3469 0-3.5468-1.0411-4.1854-2.0452-.328-.5157-.5153-1.0354-.6201-1.4284-.0521-.1955-.0831-.357-.1009-.4669-.0088-.055-.0143-.0968-.0175-.1234-.0007-.0064-.0014-.0119-.0019-.0165l-.0005-.0447-.0024-.1963-.0085-.7086c-.007-.5909-.0164-1.3895-.0258-2.2205-.0143-1.2698-.0285-2.61143-.0345-3.40496zm.07 6.55876c0-.0003 0-.0003 0-.0001z" fill="#fff" stroke="#fff" stroke-width="1.125"/></mask><mask id="d" height="6" maskUnits="userSpaceOnUse" width="5" x="11" y="2"><path d="m12.4446 7.60484-.072-.2447-.8666-2.94374-.041-.1395.1009-.10466 1.2385-1.28391.1493-.15481.1754.12454 1.3627.96781.0944.06702.0099.11532.2523 2.92442.0225.26054-.2613.01073-.0003.00001-.0011.00005-.0045.00019-.018.0008-.0678.0033c-.0579.00297-.1393.00748-.2326.01365-.188.01244-.4189.03128-.6042.05701-.1769.02459-.422.08526-.631.1428-.1027.02828-.1936.05494-.2589.07452-.0326.00978-.0586.01777-.0765.02329l-.0203.00631-.0051.0016-.0012.00038-.0003.00008v.00001zm0 0 .2432-.07694z" fill="#fff" stroke="#fff" stroke-width=".5"/></mask><mask id="e" height="6" maskUnits="userSpaceOnUse" width="5" x="16" y="2"><path d="m18.9687 7.6066.068-.25192.7957-2.94859.0358-.1324-.0925-.10129-1.1677-1.27907-.1491-.16331-.1803.12804-1.3627.96781-.0944.06702-.0099.11532-.2523 2.92442-.0225.26054.2613.01073.0003.00001.0011.00005.0045.00019.0179.0008.0679.0033c.0579.00297.1393.00748.2326.01365.188.01244.4189.03128.6042.05701.1769.02459.422.08526.6309.1428.1028.02828.1937.05494.259.07452.0326.00978.0586.01777.0765.02329l.0203.00631.0051.0016.0012.00038.0003.00008v.00001zm0 0-.2488-.0787z" fill="#fff" stroke="#fff" stroke-width=".5"/></mask><mask id="f" height="6" maskUnits="userSpaceOnUse" width="5" x="18" y="3"><path d="m21.3524 8.18587-.108.24873-.2391-.12773-.0001-.00002-.0002-.00012-.0011-.00062-.0051-.00268-.0206-.01079c-.0181-.00949-.045-.02337-.079-.04065-.0681-.03459-.1648-.08264-.2785-.13617-.229-.10788-.5201-.23469-.7834-.31966-.2728-.08803-.5172-.15618-.6933-.20227-.088-.02303-.1588-.0405-.2072-.05216l-.0554-.01307-.0139-.0032-.0033-.00075-.0007-.00016-.0001-.00002-.0001-.00001-.2584-.05765.0724-.25471.846-2.97589.0346-.12158.1184-.04424 1.6583-.61958.1939-.07244.1074.17695.9392 1.54811.067.11056-.0514.11864z" fill="#fff" stroke="#fff" stroke-width=".5"/></mask><g mask="url(#a)"><path clip-rule="evenodd" d="m0 0v24h32v-24z" fill="#f7fcff" fill-rule="evenodd"/><g mask="url(#b)"><path clip-rule="evenodd" d="m0 0v8h32v-8z" fill="#e31d1c" fill-rule="evenodd"/><path clip-rule="evenodd" d="m0 16v8h32v-8z" fill="#3d58db" fill-rule="evenodd"/><path d="m10.0765 6.39734h11.4v4h-11.4z" fill="#e31d1c"/><path d="m10.6522 8.95984h10.1285c.0171.76896.0223 2.11036.0222 3.40166-.0001.834-.0023 1.6368-.0045 2.2312-.0011.2972-.0022.5423-.003.713l-.0009.1976-.0002.0285c-.0002.0011-.0003.0021-.0005.0032-.0045.0266-.012.0685-.0235.1234-.023.1101-.0618.2717-.1234.4676-.1238.3933-.3368.9148-.6917 1.4329-.6945 1.0139-1.9554 2.0564-4.3055 2.0564-2.3469 0-3.5468-1.0411-4.1854-2.0452-.328-.5157-.5153-1.0354-.6201-1.4284-.0521-.1955-.0831-.357-.1009-.4669-.0088-.055-.0143-.0968-.0175-.1234-.0007-.0064-.0014-.0119-.0019-.0165l-.0005-.0447-.0024-.1963-.0085-.7086c-.007-.5909-.0164-1.3895-.0258-2.2205-.0143-1.2698-.0285-2.61143-.0345-3.40496zm.07 6.55876c0-.0003 0-.0003 0-.0001z" fill="#f7fcff" stroke="#e31d1c" stroke-width="1.125"/><g mask="url(#c)"><path clip-rule="evenodd" d="m10.4984 9.03992h2.1094v2.14188h-2.1094zm4.2188 2.14188h-2.1094v2.1419h-2.1094v2.1419h2.1094v2.1419h-2.1094v2.1419h2.1094v-2.1419h2.1094v2.1419h2.1093v-2.1419h2.1094v2.1419h2.1094v-2.1419h-2.1094v-2.1419h2.1094v-2.1419h-2.1094v-2.1419h2.1094v-2.14188h-2.1094v2.14188h-2.1094v-2.14188h-2.1093zm0 2.1419v-2.1419h2.1093v2.1419zm0 2.1419v-2.1419h-2.1094v2.1419zm2.1093 0v2.1419h-2.1093v-2.1419zm0 0v-2.1419h2.1094v2.1419z" fill="#f50100" fill-rule="evenodd"/></g><path clip-rule="evenodd" d="m10.453 8.16255s.6525-.3485 1.2089-.5281c.5565-.1796.9964-.27772.9964-.27772l-.828-3.05209-1.6583-.61958-.93921 1.5481z" fill="#56c6f5" fill-rule="evenodd" stroke="#fff" stroke-width=".5"/><path d="m10.181 6.4907.1906-.09186c.1968.42092.4562.55093.8117.41824.3632-.13553.5112-.39182.459-.79814l.2091-.02773c.0649.50437-.1385.85642-.5953 1.02692-.4645.17334-.834-.01188-1.0751-.52743z" fill="#fff"/><g clip-rule="evenodd" fill-rule="evenodd"><path d="m10.6323 5.54176-.1822.11036c-.0403.02442-.0904-.01067-.0813-.05691l.0414-.20893-.1866-.1026c-.0413-.0227-.036-.08365.0086-.09883l.2017-.06863-.0045-.21295c-.001-.04712.0544-.07297.0899-.04193l.1602.14032.1822-.11036c.0403-.02442.0905.01068.0813.05691l-.0414.20894.1867.10259c.0413.0227.0359.08366-.0087.09884l-.2016.06862.0045.21295c.001.04712-.0545.07298-.09.04193z" fill="#feca00"/><path d="m14.5407 7.07575s.5564-.04965 1.141-.03829c.5847.01135 1.0792.01551 1.0792.01551l.2856-3.00948-1.2523-1.13139-1.3921 1.15798z" fill="#56c6f5" stroke="#fff" stroke-width=".5"/><g fill="#feca00"><path d="m15.7501 6.58475c.4824 0 .5286-.52096.5286-.87585-.1234-.19683-.0985-.33768-.4939-.33768-.3953 0-.4404.11946-.5558.33768 0 .35489.0388.87585.5211.87585z"/><path d="m16.293 5.11282c.4823 0 .5285-.52096.5285-.87584-.1233-.19683-.0985-.33769-.4938-.33769-.3954 0-.4405.11946-.5558.33769 0 .35488.0387.87584.5211.87584z"/><path d="m15.2383 5.11282c.4823 0 .5285-.52096.5285-.87584-.1233-.19683-.0985-.33769-.4938-.33769-.3954 0-.4405.11946-.5558.33769 0 .35488.0387.87584.5211.87584z"/></g></g><path d="m12.4446 7.60484-.072-.2447-.8666-2.94374-.041-.1395.1009-.10466 1.2385-1.28391.1493-.15481.1754.12454 1.3627.96781.0944.06702.0099.11532.2523 2.92442.0225.26054-.2613.01073-.0003.00001-.0011.00005-.0045.00019-.018.0008-.0678.0033c-.0579.00297-.1393.00748-.2326.01365-.188.01244-.4189.03128-.6042.05701-.1769.02459-.422.08526-.631.1428-.1027.02828-.1936.05494-.2589.07452-.0326.00978-.0586.01777-.0765.02329l-.0203.00631-.0051.0016-.0012.00038-.0003.00008v.00001zm0 0 .2432-.07694z" fill="#2e42a5" stroke="#fff" stroke-width=".5"/><g fill="#c51918" mask="url(#d)"><path d="m12.4364 6.63778-.2505-.59008c.538-.2355 1.4469-.37999 2.4032-.43649l.0368.64148c-.8891.05252-1.7301.18401-2.1895.38509z"/><path d="m12.0137 5.21042-.2505-.59008c.538-.2355 1.6944-.42615 2.6508-.48264l.0367.64148c-.889.05252-1.9776.23015-2.437.43124z"/></g><path d="m18.9687 7.6066.068-.25192.7957-2.94859.0358-.1324-.0925-.10129-1.1677-1.27907-.1491-.16331-.1803.12804-1.3627.96781-.0944.06702-.0099.11532-.2523 2.92442-.0225.26054.2613.01073.0003.00001.0011.00005.0045.00019.0179.0008.0679.0033c.0579.00297.1393.00748.2326.01365.188.01244.4189.03128.6042.05701.1769.02459.422.08526.6309.1428.1028.02828.1937.05494.259.07452.0326.00978.0586.01777.0765.02329l.0203.00631.0051.0016.0012.00038.0003.00008v.00001zm0 0-.2488-.0787z" fill="#2e42a5" stroke="#fff" stroke-width=".5"/><g clip-rule="evenodd" fill-rule="evenodd" mask="url(#e)"><path d="m18.3978 6.46648s.294-.16363.3364-.43951.4971-.61568.2697-.57524c-.2273.04044-.0973.07203-.4265 0-.3293-.07203-.7554-.11967-.7554-.32206s.2118-.36302.0387-.36302c-.1732 0-.5425-.19155-.4684-.04514.0742.14641-.1706-.01914-.0482.28482.1224.30397-.0259.61019.0482.69077.0742.08057-.0482.47576-.0482.47576s.045.14678.1236-.07307c.0787-.21984.2508-.37394.1648-.18697-.0861.18697-.1959.6317-.098.55366.098-.07804.1953-.29386.1953-.36669 0-.07282.2471-.35868.2471-.14281 0 .21588-.2325.38589-.1162.38589.1162 0 .1814.04587.2545-.17001.073-.21588.2505-.35868.3233-.21588.0728.14281.0567.13518-.0407.32234-.0973.18716 0 .18716 0 .18716z" fill="#feca00"/><path d="m17.7072 4.86644-.1094-.18311c.1964-.12101.3767-.15326.535-.08579.0721.03068.1263.06563.2677.16508l.0185.01298c.1472.10325.2251.14531.2731.14531v.21419c-.1098 0-.2048-.05127-.393-.18326l-.0187-.01315c-.1273-.08952-.1764-.12117-.2292-.14364-.0876-.03732-.2003-.01717-.344.07139zm-.3463 1.39694c.0621 0 .1125-.04975.1125-.11111 0-.06137-.0504-.11111-.1125-.11111s-.1125.04974-.1125.11111c0 .06136.0504.11111.1125.11111zm.3235.10308c0 .06136-.0504.11111-.1125.11111-.0622 0-.1125-.04975-.1125-.11111 0-.06137.0503-.11111.1125-.11111.0621 0 .1125.04974.1125.11111zm.2664.10285c.0621 0 .1125-.04975.1125-.11111 0-.06137-.0504-.11111-.1125-.11111-.0622 0-.1125.04974-.1125.11111 0 .06136.0503.11111.1125.11111zm.4649.06671c0 .06136-.0503.11111-.1125.11111-.0621 0-.1125-.04975-.1125-.11111 0-.06137.0504-.11111.1125-.11111.0622 0 .1125.04974.1125.11111z" fill="#c51918"/></g><path d="m21.3524 8.18587-.108.24873-.2391-.12773-.0001-.00002-.0002-.00012-.0011-.00062-.0051-.00268-.0206-.01079c-.0181-.00949-.045-.02337-.079-.04065-.0681-.03459-.1648-.08264-.2785-.13617-.229-.10788-.5201-.23469-.7834-.31966-.2728-.08803-.5172-.15618-.6933-.20227-.088-.02303-.1588-.0405-.2072-.05216l-.0554-.01307-.0139-.0032-.0033-.00075-.0007-.00016-.0001-.00002-.0001-.00001-.2584-.05765.0724-.25471.846-2.97589.0346-.12158.1184-.04424 1.6583-.61958.1939-.07244.1074.17695.9392 1.54811.067.11056-.0514.11864z" fill="#56c6f5" stroke="#fff" stroke-width=".5"/><g mask="url(#f)"><path clip-rule="evenodd" d="m21.1274 5.08906-.142.1588c-.0314.03513-.0896.01623-.0943-.03066l-.0215-.21191-.2085-.04354c-.0461-.00963-.0589-.06948-.0206-.09705l.1727-.12457-.0665-.20234c-.0147-.04477.0307-.08571.0737-.06639l.1943.08734.1419-.1588c.0314-.03514.0896-.01623.0944.03066l.0215.21191.2085.04353c.0461.00963.0589.06949.0206.09705l-.1727.12458.0665.20233c.0147.04477-.0307.08571-.0737.06639z" fill="#feca00" fill-rule="evenodd"/><path d="m18.9951 6.48749.2124-.82916c.9408.24849 1.9215.56698 2.6409.87495l-.3277.78948c-.6797-.29094-1.6222-.59665-2.5256-.83527z" fill="#e31d1c"/><path d="m19.2831 5.72186.0501-.20807c.9019.22382 1.8605.58095 2.5571.91357l-.0898.19383c-.6832-.32623-1.6286-.67876-2.5174-.89933z" fill="#fff"/><path d="m19.0157 6.57647.0501-.20806c.9019.22382 1.7355.52751 2.4321.86013l-.0897.19383c-.6832-.32623-1.5036-.62532-2.3925-.8459z" fill="#fff"/><path d="m19.4229 6.17485.1931-.0872c.0813.19031.1817.23224.3496.15067.3965-.19266 1.3801.07657 1.3801.4396 0 .14163-.0821.2275-.2074.22252-.0707-.0028-.1462-.03075-.257-.08551-.0134-.00664-.0223-.01109-.0441-.02217-.1224-.06246-.1317-.06702-.1643-.07877l.0698-.20465c.0451.01628.0522.01976.1883.08914.021.01067.0291.0148.0417.021.0849.04198.1417.06299.1737.06426.003.00012-.0116.01542-.0116-.00582 0-.15973-.8006-.37886-1.0791-.24353-.2778.13496-.5048.04015-.6328-.25954z" fill="#272727"/></g></g></g></svg>