<svg fill="none" height="12" viewBox="0 0 16 12" width="16" xmlns="http://www.w3.org/2000/svg" xmlns:xlink="http://www.w3.org/1999/xlink"><mask id="a" height="12" maskUnits="userSpaceOnUse" width="16" x="0" y="0"><path d="m0 0h16v12h-16z" fill="#fff"/></mask><g mask="url(#a)"><path clip-rule="evenodd" d="m0 0h16v12h-16z" fill="#feca00" fill-rule="evenodd"/><path d="m1 1h3v10h-3z" fill="#1f8a6e"/><path d="m4 1h3v10h-3z" fill="#f56800"/><path d="m7 1h8v10h-8z" fill="#b01d00"/><path clip-rule="evenodd" d="m8.47132 3s-.64355-.00187-.64355 1.11869v1.64317s-.30635.05462-.30635.24492c0 .19031.06493.35683.18564.35683s.24143.55826.12071.55826c-.12071 0-.24142.23954-.12071.23954.02888 0 .05085-.00392.06757-.0069.01758-.00313.02934-.00523.03721-.00065.01593.00928.01593.04591.01593.15667 0 .21754-.12071.30551-.12071.30551s-.11368-.03172-.11368.0963.11368.16043.11368.16043.06509.02814-.06027.08875c-.12537.06062-.12537.08992-.12537.08992h.30635l.15343.28071.1464-.28071h.3024s-.15227-.09739-.17013-.1178c-.01785-.02042-.03944-.05023 0-.08437.0115-.00995.02835-.01755.04644-.02572.04393-.01984.09522-.043.09522-.11121 0-.0963-.19302-.0963-.19302-.0963s-.11779-.21265-.08091-.30551c.01031-.02596.01619-.04907.02123-.06888.01299-.05105.02042-.08024.08375-.08024.08791 0 .13837-.11098.02729-.23954 0 0 .12732.13687.08991.31448s.0389.25805.08022.25805.10707-.06107.10707-.06107.34329.30694.49418.30694c.15088 0 .36718-.24587.36718-.24587l.31056.17442s.22733.31845.19382.53738-.16308.34092-.31557.30707-.40051.03561-.4194.13004c-.00286.01429-.0071.0317-.01176.05081v.00001c-.02611.10718-.0652.26762.05433.22804.14085-.04665.16843-.08243.16843-.08243s-.0185.08243.09495.08243.14624-.08243.14624-.08243.11763.08243.20021.08243c.08257 0 .17508-.06351.17508-.06351s.06088.09435.19558.06351c.1346-.03085.2364-.38229.1384-.46103 0 0 .3249-.04712.4083-.32949 0 0-.3143-.00465-.2819-.19801.0324-.19337.1984-.3176.1984-.3176s.4778-.23133.6834-.30551.5473-.14912.632-.14912c.0345 0 .0591.08044.0924.18947.0486.15889.1158.3785.2591.49839.2417.20217.0769.664.0769.664s-.5378.05418-.5378.19979c0 .1456.0087.20911.1094.20911s.0987-.08243.0987-.08243.0598.08243.1563.08243.1734-.08243.1734-.08243.0257.08243.1521.08243c.1265 0 .1256-.08243.1256-.08243s.0228.08243.1342.08243c.1115 0 .3403-.08243.3403-.08243s.0358.08243.1516.08243c.1157 0 .1185-.08243.1185-.08243s.0618.08243.162.08243c.1003 0 .1591-.08243.1591-.08243s.1441.08243.2436.08243c.0994 0 .0637-.14882 0-.27886-.0162-.03289-.0348-.06099-.0519-.08666-.0504-.07582-.0866-.13041-.0013-.2245.0242-.02665.0519-.05358.0796-.08054v-.00002c.1033-.10052.2072-.20157.1311-.29007-.0226-.02626-.049-.04464-.0756-.06312-.0871-.06051-.1758-.12211-.1351-.46507.0244-.20538.0707-.37235.1138-.52737v-.00001c.0508-.18292.0969-.3492.0969-.54234 0-.35683-.2107-.76485-.2107-.76485s.2837-.19803.2837-.60086-.6332-.44677-.6332-.44677-.6289.1619-.9066.08095c-.0627-.01827-.1151-.0314-.1587-.04234-.1498-.0375-.1959-.04905-.1959-.15283 0-.13404-.2021.11422-.2021.11422s-.1584-.06359-.0507-.19517.1563-.18317.1563-.18317-.0949-.10821-.255-.0541c-.1601.0541-.1887.14376-.1887.14376s-.1825-.18686-.0688-.32254c.1138-.13568.2575 0 .2575 0s.1635.08538.1767-.02669c.0131-.11207 0-.20143 0-.20143s.4102.11766.2943.30068-.0426.24998-.0426.24998.282.01736.3329-.17716c.0193-.07356.0161-.14491.002-.20098.0813.03827.1733.08362.1476.15884-.0472.13821-.1496.31281-.1496.31281s.2818-.01647.3657-.23727c.084-.22081.0536.0541.0536.0541s.108-.00384.2701.08966c.162.09351 0-.14376 0-.14376s.3364.41714.6546.36768.3006-.31358.3006-.31358-.0754-.12964-.233-.12964c-.1575 0-.0676.12964-.0676.12964s.1536.0875-.0899 0c-.0706-.02534-.1759-.10715-.3065-.20866-.3204-.24897-.7933-.61645-1.2805-.56017-.6859.07923-.9252.38573-.9252.38573v-.25521s-.1153.17731-.2227.17731c-.1075 0-.4058-.17731-.4058-.17731l-.1901.17731s-.072-.17731-.1984-.17731-.1264.17731-.1264.17731-.1589-.07817-.33398-.07817c-.07173 0-.13274-.02619-.17978-.04639-.06778-.0291-.10655-.04574-.10655.04639 0 .0187.00044.03655.00086.05353.00306.12474.00497.20258-.17653.22607-.20621.02669-.36548.02669-.36548.02669s-.12343-.15022-.21947-.15022-.20729.11657-.20729.22278c0 .10622.12441.40913.20729.4739.02183.01706.01778.01519-.00003.00699-.04981-.02294-.20726-.09546-.20726.05777 0 .10565.02637.13206.04563.15135.01866.0187.03064.0307.00549.10164-.01047.02952-.02484.06366-.03984.09929-.05825.13836-.12595.29918-.01128.29918.06193 0 .12051-.01364.16222-.02335.05544-.0129.08106-.01887.04507.02335-.01434.01683-.03364.03709-.0531.05752-.06612.0694-.13414.14082-.01641.08662.06189-.02849.11416-.06982.15726-.1039.06302-.04984.10644-.08418.13172-.04024.01599.02779.00318.06492-.0078.09675-.01826.05294-.03146.0912.10125.04739.04653-.01536.07377-.02733.08892-.03594.00064.00862.00774.0206.02863.03594.04454.0327.03601.06367.02949.08735-.00738.02679-.01219.04423.06546.04423.0743 0 .17916-.05759.24131-.09172.06018-.03305.08031-.04411-.00611.04039-.05446.05326-.13324.08876-.22069.12817-.19463.0877-.43217.19474-.53993.55987-.14545.49286-.08026.59442-.07063.60604l-.44774-.4902s.10707-.08368.10707-.22408c0-.14039-.2772-.24492-.2772-.24492s.00968-1.74704.08991-2.12824c.08022-.38119.12154-.63362.12154-.63362zm.89285 2.29429c-.00505.00001-.01476.00552-.01396.0165.01942-.01102.01902-.01651.01396-.0165zm3.36863-1.40998-.0059-.00279c-.0656-.03083-.122-.05736-.1003-.09183.0305-.04844.0831.00244.1062.09462zm.2963 3.78031s-.2122.2081-.0775.25384c.0409.01387.0906.0216.1368.0288.1062.01651.1938.03016.1134.10873-.1154.11278-.2131.26514-.2131.40391s.0033.25592.0404.19734c.0204-.03215.1042-.06581.1944-.10208.0742-.0298.1527-.06135.2041-.09526.0969-.06409.0955-.13339.093-.25793-.0004-.02154-.0009-.04473-.0009-.06983 0-.17023-.4906-.46752-.4906-.46752zm-1.6462-2.78706c.0494-.0393.0526-.52443.0526-.52443s.1735.05776.1735.13354c0 .04719-.0131.07419-.033.11493-.012.02468-.0264.05441-.0419.09672-.0381.10422.0656.16951.162.23016.0073.00463.0146.00922.0218.01381.0653.04164.0837-.04871.0978-.11845.0079-.03867.0145-.071.027-.071.0353 0 .2982.05961.4961.16017.1726.08773.3421.04466.7301-.05399.0567-.01442.118-.03002.1848-.04657.5233-.12984.592.06511.6457.2186.0536.15349-.3527.36618-.6457.40473-.1288.01693-.2403.01155-.343.00659-.1309-.00633-.2473-.01195-.3664.0304-.1867.06638-.7706.05977-.9985.05719-.0315-.00035-.0562-.00063-.0721-.00063-.1046 0-.1244-.03303-.1641-.0993-.0101-.01684-.0215-.03583-.0359-.05696-.071-.10431.0152-.17252.071-.17252s.0382-.12209 0-.1695c-.0382-.0474-.0113-.11418.0382-.15349z" fill="#feca00" fill-rule="evenodd"/><path d="m6 1h1v10h-1z" fill="#e8aa00"/><path clip-rule="evenodd" d="m7.08561 1.06113v.18052c0 .02223-.0096.05255-.02035.08653-.03408.10773-.07983.2523.13133.29293.27777.05344.48239.17491.54461.28958.03987.07349.02864-.04897.01542-.19299v-.00001c-.0074-.08071-.01542-.1682-.01542-.23178 0-.17702-.19829-.521973-.3388-.42478-.14051.0972-.31679 0-.31679 0zm0 9.69247v.1805s.17628-.0972.31679 0 .3388-.2477.3388-.4247c0-.0636.00802-.1511.01542-.2318.01322-.144.02445-.2665-.01542-.193-.06222.1147-.26684.2361-.54461.2896-.21116.0406-.16541.1852-.13133.2929.01075.034.02035.0643.02035.0865zm7.83219 0v.1805s-.1763-.0972-.3168 0-.3388-.2477-.3388-.4247c0-.0636-.008-.1511-.0154-.2318-.0132-.144-.0244-.2665.0154-.193.0622.1147.2669.2361.5446.2896.2112.0406.1655.1852.1314.2929-.0108.034-.0204.0643-.0204.0865zm0-9.51195v-.18052s-.1763.0972-.3168 0c-.1405-.097193-.3388.24776-.3388.42478 0 .06358-.008.15107-.0154.23179-.0132.14402-.0244.26648.0154.19299.0622-.11467.2669-.23614.5446-.28958.2112-.04063.1655-.1852.1314-.29293-.0108-.03398-.0204-.0643-.0204-.08653z" fill="#feca00" fill-rule="evenodd"/></g></svg>