<svg width="32" height="24" viewBox="0 0 32 24" fill="none" xmlns="http://www.w3.org/2000/svg">
<mask id="mask0" mask-type="alpha" maskUnits="userSpaceOnUse" x="0" y="0" width="32" height="24">
<rect width="32" height="24" fill="white"/>
</mask>
<g mask="url(#mask0)">
<path fill-rule="evenodd" clip-rule="evenodd" d="M0 0V24H32V0H0Z" fill="#2E42A5"/>
<mask id="mask1" mask-type="alpha" maskUnits="userSpaceOnUse" x="0" y="0" width="32" height="24">
<path fill-rule="evenodd" clip-rule="evenodd" d="M0 0V24H32V0H0Z" fill="white"/>
</mask>
<g mask="url(#mask1)">
<path fill-rule="evenodd" clip-rule="evenodd" d="M4.25442 6.14923L2.26558 7.19891L3.22584 5.33053L2 3.96315L3.52334 3.90693L4.25442 2L4.81233 3.90693L6.59497 3.96315L5.31147 5.33053L6.12572 7.19891L4.25442 6.14923Z" fill="#F7FCFF"/>
<path fill-rule="evenodd" clip-rule="evenodd" d="M11.3524 11.0766L8.89776 12.1048L9.86073 9.52818L7.72656 7.7993H10.2839L11.3524 5.01221L12.1678 7.7993H14.729L12.909 9.52818L13.8127 12.1048L11.3524 11.0766Z" fill="#F7FCFF"/>
<path fill-rule="evenodd" clip-rule="evenodd" d="M0 14V18H32V14H0Z" fill="#F9E813"/>
</g>
</g>
</svg>
