<svg fill="none" height="24" viewBox="0 0 32 24" width="32" xmlns="http://www.w3.org/2000/svg" xmlns:xlink="http://www.w3.org/1999/xlink"><mask id="a" height="24" maskUnits="userSpaceOnUse" width="32" x="0" y="0"><path d="m0 0h32v24h-32z" fill="#fff"/></mask><g mask="url(#a)"><path clip-rule="evenodd" d="m0 0h32v24h-32z" fill="#f7fcff" fill-rule="evenodd"/><path d="m0-1h-1v1 11.307l-1.848.693 1.848.693v11.307 1h1 32l.3511-1.9363-29.5031-11.0637 29.5031-11.063671-.3511-1.936329z" fill="#3547a0" stroke="#e31d1c" stroke-width="2"/><g clip-rule="evenodd" fill-rule="evenodd"><path d="m29.0224 5.11005s-2.0103.54246-2.7372.73965c-.0981.0266-.2852.07418-.2718-.19282-.4606.29561-1.203.59439-1.5073.67918-.1532.04266-.1123-.22234-.1777-.29819-.1325.19537-.4731.4816-.5698.50956-.9582.27729-1.5945.47885-1.9087.60469 0 0-.4491.43194-.4491.77439 0 .34246-.0479.63494-.357.63494s-1.0221.62205-.7609.97258c.2611.35053 1.1179.16387 1.1179 0 0-.16388.6107-.36889.6107-.18445 0 .18445-.1616.51806-.1616.51806h.6743l-.5127.26516h.5127l-.5127.3141h.9599l-.6135.2737h.4256l-.2593.3601h.6649s.2588.2617.5027.4047c.2439.1431.7846 1.3603.5142 1.8316-.2703.4713.0614.5414.1224.3344.0611-.2071.1875-.5038.296-.5038h.3168l.1472.3872.3493.3733s.0248-.3245.0904-.3733c0 0 .2727.0278.4049-.0043 0 0-.0587-.4719-.054-.5353 0 0 .4228.1435.6039.1402 0 0-.2721-.4254-.2721-.5707 0 0 .5054.0257.5054.2407l-.056-.5365s.4785-.2035.4952-.3748l-.3135-.0383s.1628-.2067.1477-.2475l-.4632-.0588s.5061-.1761.5443-.2874c0 0-.1136-.1785-.2177-.2486l-.3535-.229s.7906.0051.9229.0051c0 0 .2066-.0743.0476-.2014 0 0-.1557-.0935-.1344-.1839 0 0 .1058-.2033.0816-.2387 0 0 .1129.1497.1129-.22015 0 0 .0029-.37175-.0683-.38963 0 0 .2081-.15306.1263-.25075-.0819-.0977-.958-.35775-1.1676-.35775l1.6052-1.01743s.1112-.42023.2741-.67141c0 0 .4266-.38293.5125-.68299.086-.30006.3281-1.04013.3281-1.04013v-.33868z" fill="#9c3900"/><path d="m26.2108 12.5647c.0208.0011.041.0024.0648.0043.2669.0216.4125.0886.4369.2011l.0116.1c0-.0347-.0038-.068-.0116-.1l-.0523-.5012c.319-.1357.484-.2606.4952-.3748l-.239-.0292-.0234.0299-.0145-.0346-.0366-.0044.0225-.0289-.0145-.0343.0371.0045c.077-.1028.1111-.1657.1026-.1888l-.3239-.0411c-.037.0138-.0762.0279-.1177.0423 0 0-.0118-.0634-.007-.065l-.0063-.0581.1229.0156c.2535-.096.3911-.176.4131-.2399-.0757-.119-.1483-.2018-.2177-.2486l-.2542-.1647-.0997-.0007s.0132-.0636.0196-.0635l.0164-.0533.0832.0539c.4547.0029.7228.0044.8041.0044.1378-.0495.1536-.1166.0476-.2014-.1038-.0623-.1486-.1236-.1344-.1839.0341-.0655.058-.1179.0719-.1572-.0148-.0114-.0291-.0261-.0423-.0435l.052-.038.0536-.0355c.0138.02.0185.0442.0146.0751.0298-.018.0447-.1046.0447-.25975.0013-.16567-.0085-.27863-.0296-.33864l-.0387-.05099.016-.06168c.0143.00358.0269.00972.0381.01856.0948-.08271.1188-.15193.0722-.20763-.072-.08589-.7578-.29725-1.065-.34709l-.0676.04286s-.0291-.05352-.019-.06366l-.016-.05352c.0234 0 .0534.00268.0884.00761l1.5168-.96138c.0741-.28015.1655-.50396.2741-.67141.2844-.25529.4552-.48295.5125-.68299s.1667-.54675.3281-1.04013v-.33868l-.118-.08663c-1.3402.36164-2.2526.60819-2.7372.73965-.0981.0266-.2852.07418-.2718-.19282-.4606.29561-1.203.59439-1.5073.67918-.098.02729-.1166-.07133-.1343-.16579-.01-.0532-.0198-.10508-.0434-.1324-.1325.19537-.4731.4816-.5698.50956-.9582.27729-1.5945.47885-1.9087.60469-.2994.28796-.4491.54609-.4491.77439 0 .34246-.0479.63494-.357.63494s-1.0221.62205-.7609.97258c.2611.35053 1.1179.16387 1.1179 0 0-.16388.6107-.36889.6107-.18445 0 .12297-.0539.29565-.1616.51806h.5352l.109-.05635.0159.06366.0142.05635h-.1231l-.3896.2015h.3903l.0882-.054.0185.0636.0157.0541h-.1039l-.4088.2504h.8032l.13-.058.014.0637.0127.058h-.1427l-.4708.21h.3463l.0265-.0368.0193.0368h.0335l-.0194.0268.0194.0368h-.0459l-.2134.2965h.6649c.1725.1745.3401.3094.5027.4047.2439.1431.7846 1.3603.5142 1.8316-.2703.4713.0614.5414.1224.3344.0611-.2071.1875-.5038.296-.5038h.3168l.1472.3872.3493.3733s.0248-.3245.0904-.3733c.1818.0185.3168.0171.4049-.0043-.0027-.0223-.0054-.044-.008-.0649-.0236-.1913-.0403-.3261-.0671-.4102l.0211-.0602s.0642.0141.0644.0214c.2483.0812.4281.1208.5395.1188-.1474-.2305-.2349-.3993-.2651-.5168-.0047-.0204-.007-.0383-.007-.0539zm.2941-1.0752-.2558.089.6535.083c-.0232.0382-.0605.0901-.1118.1553l-.0696.0883.3432.042c-.0558.074-.1985.165-.4298.2634l-.0435.0185.0371.356c-.0956-.0475-.2347-.0747-.4141-.0839l-.068-.0034v.067c0 .0991.0713.2612.2144.4963-.1131-.0185-.2671-.0604-.4605-.126l-.0795-.027-.0061.0826c-.0033.0456.0122.2035.047.4878-.0789.0093-.1882.0072-.3267-.0069l-.0457.0125c-.0456.034-.0699.1071-.0907.2233-.0033.018-.0062.0364-.009.0551l-.2448-.2616-.1584-.4169h-.3617c-.1395 0-.2675.2426-.3581.5497-.017.0578-.0595.076-.0799.0578-.0407-.0362-.0303-.1579.076-.3431.1342-.234.0979-.6361-.0594-1.0907-.135-.3901-.3369-.744-.4781-.8268-.1574-.0923-.3206-.2238-.4894-.3945l-.0191-.0193h-.5671l.2593-.3601h-.2513l.6135-.2736h-1.033l.5127-.3141h-.4769l.5127-.26522h-.8357c.0835-.1874.1256-.33816.1256-.4544 0-.08373-.0644-.12891-.1554-.13552-.0649-.00471-.1481.00897-.2346.03657-.1957.06241-.3501.16859-.3501.2834 0 .00477-.0333.03271-.0984.05978-.0804.0334-.1901.05897-.3041.06975-.2684.02537-.4978-.03192-.5986-.16717-.0953-.12792-.0299-.32932.1623-.53727.1754-.18968.4157-.33401.5465-.33401.1722 0 .2895-.08017.3538-.22758.0497-.11384.0679-.26091.0679-.47102 0-.20559.1385-.44659.4205-.72012.3157-.12509.9466-.32463 1.8909-.59788.1041-.03011.37-.253.533-.41751.0136.07219.0238.10869.0455.14396.0359.05822.0958.08255.1683.06235.3594-.10011 1.0138-.38058 1.4325-.63001.0174.08167.062.13471.1315.15669.0633.02003.1205.01262.2147-.01292.4809-.13045 1.3831-.37425 2.7066-.73141l.0667.04895v.29676c-.1599.48902-.2684.83314-.3256 1.03285-.0534.18643-.2176.40522-.5048.66601-.1095.16878-.2012.39056-.2758.66553l-1.7689 1.12122h.2199c.2001 0 1.0535.25796 1.1176.33458.0227.02704-.002.07616-.115.15927l-.1084.07972.1199.03021c.0057.0115.0114.03118.0161.05823.0106.06049.0156.15152.0147.27197 0 .09554-.0061.16244-.0155.19614 0 0-.09.0471-.093.0464v-.0004l-.0001.0003c-.0009.0076-.0039.0196-.0092.0353-.0124.0362-.0357.0874-.0751.1673-.0219.0931.0377.1758.16.2503.0593.0477.0589.0561-.0216.0856-.1012-.0001-.405-.0018-.9109-.0051l-.2185-.0014.536.3473c.0536.0362.1131.1014.1762.1953-.0193.0184-.0556.0434-.1088.0715-.0873.0461-.2142.0983-.38.156zm.852-1.302.0002.0021-.0003-.0017v-.0005z" fill="#212121"/><path d="m27.4067 10.7921s1.9086.254 2.024.254.5958-.1222.4313-.8909c-.1645-.76882-.0975-1.23387-.5685-1.23387-.4709 0-.962.20459-1.1388.20459-.1767 0-.0057 0-.748 0s-5.1639-.02553-5.4823.32912c-.3184.35464-1.2139.85486-1.6287 1.03126-.4147.1765-.5211.0532-.7076.5598-.1864.5067-.3252.5419-.3252.5419l.3252.3627h.9666s.6655-.835 2.047-.9046c1.3816-.0696 4.805-.254 4.805-.254z" fill="#fff"/><path d="m22.6017 11.0461c.9211-.0464 2.5227-.1311 4.805-.254 1.2724.1693 1.947.254 2.024.254.1154 0 .5958-.1222.4313-.8909-.0379-.17714-.0635-.33812-.0862-.48101-.076-.4774-.1198-.75286-.4823-.75286-.292 0-.5918.07868-.8196.13845-.1395.03662-.252.06614-.3192.06614h-.748c-.0382 0-.0862-.00007-.1429-.00015-1.0441-.00147-5.0374-.00711-5.3394.32927-.3184.35464-1.2139.85486-1.6287 1.03126-.1059.0451-.1918.0706-.264.0921-.2103.0625-.3047.0905-.4436.4677-.1243.3378-.2327.5184-.3252.5419l.3252.3627h.9666c.4436-.5566 1.126-.8582 2.047-.9046zm-2.0936.8091h-.8762l-.2245-.2504c.0904-.093.1765-.2666.272-.5262.0365-.099.0693-.1719.1011-.2255.058-.0977.1038-.1292.2265-.1674.0026-.0008.0123-.0037.0256-.0077.0337-.0101.0906-.0272.1149-.035.0643-.0205.1237-.0422.1868-.069.5456-.2322 1.3754-.73564 1.6628-1.05574.0539-.06003.3835-.12816.9012-.17681.4676-.04394 1.0829-.07473 1.8135-.09432.814-.02182 1.5668-.02721 2.5129-.02592-.0048-.00001.0805.00011.1011.00014l.0809.00006h.748c.0508 0 .1137-.01126.2098-.0348.0239-.00585.0917-.02346.155-.03991.0504-.01309.098-.02545.1183-.03055.2263-.05681.4035-.08887.5752-.09731.0274-.00134.0542-.00202.0805-.00202.2271 0 .2931.10666.3662.54671.0026.0157.0096.05961.0176.10902.0104.0652.0224.14.0278.17228.0201.1206.0395.22477.062.32997.0673.3146.0258.524-.0884.6508-.0742.0825-.1806.125-.248.125-.0698 0-.756-.0861-2.0293-.2539-2.2822.123-3.8838.2077-4.8046.2541-.9273.0467-1.626.3477-2.0887.9044z" fill="#4d4d4d"/><path d="m19.507 11.3993s-.728.4669-.4608.7806c.2673.3138.2937.3536.347.3536 0 0 .0143-.336.1005-.336s.7689.3263 1.0164-.2252c.2475-.5514-1.0031-.573-1.0031-.573z" fill="#ffc221"/><path d="m17.9221 12.9208 1.6755-.3103.6427.6957.1854-.6226.4607.113v.3144h.17v.4313l1.2048.2518.1512-.4132s.3923.6475.995.6152c.6026-.0322.7101.1385.8161-.3399s.4015-.7354.4015-.7354l.7032.2369s-.7726.9489-.4032 1.2471l2.7538.6371-.1088.3336h-.3161l.0853.2873-3.0093-.2079s-.3354.4249-.3354.3164-.0182-.1085-.1664-.1085c-.1481 0-.225-.2079-.225-.2079l-.1957.0753s.0295.0041-.2166-.0753c-.2462-.0794-.3904-.0794-.3904-.0794l-1.0164-.075v.1544s-.2692.0135-.1758.0753c.0935.0619 1.9949.1326 1.9949.1326l-.1158.2136s.94.0034 1.1377-.1051c.1976-.1085.0705.2404.0705.2404h.9338s-.2316.2192-.5285.2192c-.2968 0 .8522.3644.8522.3644s-.6414.1991-.9385.0675c-.297-.1316.1261.2544.3137.352.1876.0975-.6599.0888-.9983-.2875 0 0 .1063.2788 0 .3585 0 0-.593-.6986-.8892-.6986-.2961 0 .0466.4606.0466.4606s-.1692-.2408-.3581-.143-.3288.2085-.3288.2085-.1238-.4267-.7781-.6031c-.6544-.1764-.4348-.2413-.9659-.2985-.531-.0572-.5578-.3489-.6307-.3489s-.6346-.4915-.6346-.4915-.1249-.461.1679-.461.7573-.1378.9274 0c.17.1378.2419 0 .2419 0h.2993l.4288.3316h.8508s.1631-.2519.422-.3316 0-.3055 0-.3055-.6178.0352-.868.1309c-.2501.0957-.0898-.4632-.0898-.4632l-1.115-.2025-.17.2025-.3691.111v.2213l-.389-.0856.112-.663-.9104.4163z" fill="#ffc221"/><path d="m23.5217 15.8128.0814-.15c-1.1559-.043-1.8107-.0835-1.9651-.1218-.0144-.0036-.0244-.0072-.0298-.0108-.0934-.0618.1758-.0753.1758-.0753v-.0953-.0591l.0647.0048.9517.0702c.0962 0 .2263.0265.3904.0794.0697.0225.1228.0399.1594.0524.0024-.0057.0064-.0112.0138-.0213.0174-.0111.0245-.0156.0322-.0175.0052-.0012.0108-.0013.0201-.0013 0 0-.0048.0636-.0089.063 0 0 .1351-.0531.1369-.0527l.0588-.0226c.0236.0638.0522.1129.0859.1474l.0134.0126c.0364.0319.0784.0479.1257.0479.1482 0 .1664 0 .1664.1085 0 .0723.1118-.0331.3354-.3164l3.0093.2079-.0853-.2236.0136-.0179-.0136-.0458h.0485l.0136-.0179.0053.0179h.2487l.1088-.3336-2.7538-.6371c-.2462-.1988-.1119-.6145.4032-1.2471l-.7032-.2369c-.197.1713-.3309.4164-.4015.7354-.0788.3559-.1585.3526-.4422.3408-.0977-.0041-.2196-.0091-.3739-.0009-.4018.0215-.7335-.1835-.995-.6152l-.1512.4132-1.2048-.2518v-.4313h-.17v-.3144l-.4607-.113-.1641.5511.0265.0287-.0376.0086-.0102.0342-.0245-.0264-.0376.0085.0111-.0372-.5917-.6406-1.6755.3103 1.4078 1.1517.8393-.3838.0072-.0429.0329.0245.031-.0141-.0056.0331.0328.0246-.0401.0184-.0991.5869.389.0856v-.2213l.3691-.111.17-.2025s1.0522.1871 1.057.192l.058.0105c-.0056.0194-.0108.0383-.017.0617-.086.3278-.0504.4617.1068.4015.1668-.0638.4561-.1075.868-.1309.1726.1505.1726.2524 0 .3055-.1726.0532-.3133.1637-.422.3316h-.8508l-.4288-.3316h-.2993c-.0479.0919-.1286.0919-.2419 0-.1144-.0927-.362-.0607-.601-.0298-.1163.0151-.2305.0298-.3264.0298-.1952 0-.2512.1537-.1679.461.3744.3277.586.4915.6346.4915.0203 0 .037.0226.0621.0565.0649.0878.1856.2511.5686.2924.2878.031.3551.0642.4606.1163.0891.0439.2055.1014.5053.1822.4362.1176.6956.3187.7781.6031 0 0 .1399-.1107.3288-.2085.122-.0632.2379-.0204.3475.1284.0208.0294.0331.0459.0331.0459-.011-.0156-.022-.031-.0331-.0459-.0553-.0785-.3005-.446-.036-.446.1975 0 .4939.2329.8892.6986.0534-.0401.0666-.118.0394-.2336-.0321-.0259-.0616-.0534-.0879-.0827 0 0 .0499-.0385.0565-.0335l.0525-.0311c.015.0392.0271.0762.0364.1109.3787.2885 1.0729.2882.9014.199-.1119-.0582-.3074-.2189-.389-.3172-.0411-.0514-.0415-.079.0445-.0476.0093.0035.0195.0078.0308.0128.1981.0877.5109.0653.9385-.0675-.4459-.1414-.7285-.2416-.8646-.3094-.0686-.0367-.0644-.055.0142-.055-.0016-.0051-.004-.0097-.0074-.0154.004.0029.0102.0068.0254.0152.1383-.0035.2658-.0431.3826-.119h.0514c.0189-.0226.0375-.0468.0558-.0726l-.0022-.0081c.0071-.0063.0141-.0127.0211-.0193h-.0261l.005.0193c-.034.0304-.069.0573-.105.0807h-.0628c.0313-.0289.0618-.0623.0916-.1h-.7679l-.0077.0215-.0154-.0215h-.0455c.0054-.0149.0104-.0291.0149-.0428l.0068-.0209c.0574-.1831.0267-.242-.0922-.1767-.1266.0695-.4814.1045-1.0645.1052l-.0162.0299-.0181-.0299-.0389-.0001.0183-.0338-.0181-.0299zm-4.1819-1.815-1.2706-1.0394 1.5048-.2788.6959.7534.2004-.6729.3514.0862v.3284h.17v.4192l1.3113.274.1257-.3437c.2622.3756.591.5564.9822.5355.1176-.0063.2103-.0055.3468 0 .2267.0093.2766.0065.3505-.038.087-.0523.1341-.1514.1785-.352.0645-.2911.1826-.516.3537-.6764l.5804.1955c-.4887.6192-.6128 1.0424-.3252 1.2746l2.7002.6247-.073.2237h-.3552l.0835.2811-2.9512-.2039-.0211.0268c-.0991.1256-.1757.2154-.2286.2685-.0203-.0708-.0795-.0852-.2221-.0852-.0672 0-.1213-.05-.1642-.166l-.0226-.0612s-.2439.0842-.2517.0815c-.0367-.0128-.0962-.0324-.1787-.059-.1686-.0544-.3041-.0821-.408-.0826l-1.0836-.0799v.1645c-.0147.0016-.0292.0035-.0431.0056-.0464.0072-.0816.0165-.107.0315-.0628.037-.0593.1084.0029.1496.0771.051.6779.0921 1.9253.1394l-.1178.2172.1074.0004c.6398.0023 1.0237-.0332 1.1695-.1132.0092-.0051.0173-.009.024-.0118-.0006.0101-.0022.0231-.0053.0387-.0069.0355-.0204.0811-.0406.1364l-.031.0852h.8368c-.1044.0614-.2173.0918-.3396.0918-.0324 0-.0562.0027-.0756.0103-.0466.0183-.066.0697-.0355.1126.0207.0291.0661.0544.15.0903.1177.0503.3147.1205.5918.2107-.3104.0763-.5411.0798-.6904.0136-.0417-.0184-.0735-.029-.0987-.0318-.0504-.0057-.0976.021-.0952.0783.0018.0414.0341.084.0963.1463.0679.0681.1616.146.245.2049-.0452-.0023-.0974-.0078-.1518-.0165-.2721-.0437-.5215-.1486-.6584-.3008l-.2321-.2581.1231.3227c.0385.1008.053.1749.0488.2238-.3773-.4328-.6645-.6499-.8774-.6499-.0978 0-.1635.0436-.1809.1221-.0108.0491-.0013.1059.0233.171-.0597-.0109-.1214-.0007-.184.0318-.0199.0102-.0397.0209-.0594.0319-.0716.0399-.1391.0827-.2075.1303-.1133-.2637-.3799-.4506-.7928-.5619-.1562-.0421-.2706-.0799-.3622-.1175-.0346-.0142-.0647-.0278-.0983-.0441l-.0119-.0059c-.019-.0093-.0547-.0268-.0671-.0326-.1086-.051-.2108-.076-.4364-.1003-.1963-.0211-.3294-.0752-.4231-.1546-.0262-.0222-.0665-.0702-.1008-.111-.0277-.0331-.0515-.0613-.0604-.0672-.0144-.0094-.0303-.0152-.0521-.0182-.0082-.0038-.0195-.0101-.0336-.019-.0304-.0191-.0715-.0487-.1229-.0885-.1018-.0789-.2425-.1967-.4219-.3533-.0673-.2595-.0266-.3626.1103-.3626.085 0 .1569-.0074.3412-.0312l.0372-.0048c.2958-.0377.4376-.0354.5078.0215.1281.1037.2459.1135.3192.0145h.2408l.4288.3316h.9087l.0191-.0295c.1007-.1556.2291-.2565.3867-.305.2292-.0706.2292-.2347.0236-.414l-.0466-.0159c-.4182.0238-.713.0683-.8877.1352-.0476.0181-.0536.0154-.0606-.0206-.0125-.0647.0056-.1886.0565-.366l.0192-.0672-1.2221-.222-.1819.2166-.3963.1192v.1889l-.2504-.055.122-.7227zm4.0676 1.5344c.01.0013.0125.0004.0073-.0029zm-1.7713.0107-.0004.0003.0012-.0007z" fill="#4d4d4d"/></g></g></svg>