<svg fill="none" height="15" viewBox="0 0 20 15" width="20" xmlns="http://www.w3.org/2000/svg" xmlns:xlink="http://www.w3.org/1999/xlink"><mask id="a" height="15" maskUnits="userSpaceOnUse" width="20" x="0" y="0"><path d="m0 0h20v15h-20z" fill="#fff"/></mask><mask id="b" height="15" maskUnits="userSpaceOnUse" width="20" x="0" y="0"><path clip-rule="evenodd" d="m0 0v15h20v-15z" fill="#fff" fill-rule="evenodd"/></mask><g clip-rule="evenodd" fill-rule="evenodd" mask="url(#a)"><path d="m0 0v15h20v-15z" fill="#feca00"/><g mask="url(#b)"><path d="m0 0v8.75h20v-8.75z" fill="#3ca5d9"/><path d="m0 11.25v3.75h20v-3.75z" fill="#5a962a"/><path d="m15.0511 7.416c-.0207.0005-.0415.00075-.0624.00075-.0178 0-.0356-.00018-.0534-.00055l-.3778 1.23366-.0799-1.285c-.0382-.00789-.0762-.01665-.1138-.02626l-.6542 1.11247.2215-1.2667c-.0357-.01656-.0708-.03394-.1056-.0521l-.8946.93194.5102-1.1805c-.0311-.02441-.0616-.04953-.0914-.07535l-1.0864.70178.7703-1.03046c-.0248-.03113-.049-.06286-.0723-.09518l-1.2184.43422.9878-.82526c-.0171-.03637-.0334-.07322-.0487-.11052l-1.2842.14429 1.152-.57695c-.0081-.03951-.0153-.07937-.0215-.11955l-1.2818-.15239 1.2547-.29843c.0013-.04082.0036-.08139.0069-.12169l-1.211-.44041 1.2893-.00414c.0109-.03954.0227-.07868.0355-.1174l-1.0748-.70423 1.2557.29013c.0198-.03583.0405-.07111.062-.10583l-.882-.9308 1.1552.56923c.0274-.03015.0556-.05962.0845-.0884l-.6417-1.10781.9919.81788c.0336-.02299.0678-.04518.1025-.06655l-.3664-1.225.775 1.02268c.0378-.0146.0761-.02831.1149-.04111l-.071-1.27639.5163 1.17333c.0398-.00546.08-.00998.1204-.01355l.2288-1.25985.2291 1.26068c.0402.00369.0801.00833.1197.0139l.5168-1.17451-.0711 1.27934c.0381.01274.0757.02637.113.04086l.777-1.02538-.3678 1.22969c.0338.02098.0671.04273.0998.06524l.996-.82126-.645 1.11351c.0279.02794.0551.05654.0816.08577l1.1614-.5723-.8874.93655c.0206.03346.0404.06744.0594.10193l1.2637-.29198-1.0822.70909c.0122.03712.0234.07463.0338.11251l1.2984.00417-1.2198.44359c.0031.03854.0053.07733.0066.11635l1.2638.30059-1.291.15348c-.006.03842-.0128.07655-.0205.11437l1.1602.58104-1.2928-.14526c-.0147.03579-.0302.07115-.0466.10608l.9943.83067-1.2256-.43677c-.0224.03118-.0456.06181-.0695.09189l.7747 1.0363-1.0915-.70512c-.029.02513-.0585.0496-.0886.07339l.5125 1.1858-.8977-.93508c-.0339.01788-.0683.035-.1032.05135l.2222 1.27059-.6554-1.11448c-.0372.00963-.0747.01842-.1125.02637l-.08 1.2869zm-.0849-.90673c.8754 0 1.5851-.69931 1.5851-1.56197 0-.86265-.7097-1.56196-1.5851-1.56196-.8753 0-1.585.69931-1.585 1.56196 0 .86266.7097 1.56197 1.585 1.56197zm.9117-1.51624c0 .49334-.4.89327-.8933.89327s-.8933-.39993-.8933-.89327.4-.89327.8933-.89327.8933.39993.8933.89327z" fill="#ffdc17"/></g></g></svg>