<svg fill="none" height="12" viewBox="0 0 16 12" width="16" xmlns="http://www.w3.org/2000/svg" xmlns:xlink="http://www.w3.org/1999/xlink"><mask id="a" height="12" maskUnits="userSpaceOnUse" width="16" x="0" y="0"><path d="m0 0h16v12h-16z" fill="#fff"/></mask><mask id="b" height="12" maskUnits="userSpaceOnUse" width="16" x="0" y="0"><path clip-rule="evenodd" d="m0 0v12h16v-12z" fill="#fff" fill-rule="evenodd"/></mask><mask id="c" height="5" maskUnits="userSpaceOnUse" width="5" x="3" y="4"><path clip-rule="evenodd" d="m3.73602 4.63208h3.64v3.27042s-.27038 1.09758-1.82 1.09758c-1.54961 0-1.82-1.12652-1.82-1.12652z" fill="#fff" fill-rule="evenodd"/></mask><g mask="url(#a)"><path clip-rule="evenodd" d="m0 0v12h16v-12z" fill="#ffb400" fill-rule="evenodd"/><g mask="url(#b)"><path clip-rule="evenodd" d="m0 0v3h16v-3z" fill="#c51918" fill-rule="evenodd"/><path clip-rule="evenodd" d="m0 9v3h16v-3z" fill="#c51918" fill-rule="evenodd"/><path d="m2.50403 5.13599h.56v2.912h-.56z" fill="#f1f9ff"/><g clip-rule="evenodd" fill-rule="evenodd"><path d="m3.28803 4.63208h-1.008v.28h.168v.224h.672v-.224h.168z" fill="#c88a02"/><path d="m3.12003 8.21607h.168v.28h-1.008v-.28h.168v-.224h.672z" fill="#c88a02"/><path d="m2.78403 4.68802c.12186 0 .13425-.04589.20615-.11442.05583-.05322.18585-.11923.18585-.19358 0-.1701-.17551-.308-.392-.308-.2165 0-.392.1379-.392.308 0 .08284.08954.13822.15724.19358.07133.05832.12369.11442.23476.11442z" fill="#ad1619"/><path d="m2.28003 8.49597h1.008v.448s-.126-.056-.252-.056-.252.056-.252.056-.126-.056-.252-.056-.252.056-.252.056z" fill="#005bbf"/></g><path d="m7.992 5.13599h.56v2.912h-.56z" fill="#f1f9ff"/><g clip-rule="evenodd" fill-rule="evenodd"><path d="m8.77601 4.63208h-1.008v.28h.168v.224h.672v-.224h.168z" fill="#c88a02"/><path d="m8.60801 8.21607h.168v.28h-1.008v-.28h.168v-.224h.672z" fill="#c88a02"/><path d="m8.272 4.68802c.12187 0 .13426-.04589.20615-.11442.05583-.05322.18585-.11923.18585-.19358 0-.1701-.1755-.308-.392-.308-.21649 0-.392.1379-.392.308 0 .08284.08954.13822.15725.19358.07132.05832.12368.11442.23475.11442z" fill="#ad1619"/><path d="m7.76801 8.49597h1.008v.448s-.126-.056-.252-.056-.252.056-.252.056-.126-.056-.252-.056-.252.056-.252.056z" fill="#005bbf"/><path d="m2.494 7.83994c.10096-.1224.15742-.23376.15742-.35203 0-.07457-.02219-.13898-.06107-.1916l.00657-.00295c-.0006.00027.11076-.04827.14953-.06687.07208-.03455.13558-.07116.19749-.11618.03952-.02875.09248-.06006.17321-.10341l.09635-.05122c.03924-.02094.06846-.03698.0956-.05273.08459-.04906.14048-.08961.18323-.14383.10126-.1284.08024-.30246-.06166-.39907-.06952-.04733-.16333-.07449-.30084-.09587l-.19668-.03049c-.06581-.01033-.12452-.01997-.17688-.02912.34428-.05729.8359-.03623 1.05215.07542l.20553-.39807c-.44067-.22753-1.44474-.20429-1.8198.054-.2751.18946-.23819.47584.04804.59916.1196.05153.27552.08572.56404.13207-.04835.02805-.08844.05368-.12579.08084-.03787.02754-.07846.05094-.12768.07454-.02354.01129-.09324.04189-.1252.05592l-.00002.00001v.00001l-.01606.00707c-.23314.10601-.34629.25266-.31248.51739l.0183.14331.03284.01008zm-.28819-.37034-.00071.00206.00054-.00146zm6.14719.01831c0 .11827.05646.22963.15742.35203l.34387-.28362.03283-.01008.0183-.14331c.03381-.26473-.07934-.41138-.31248-.51739l-.01606-.00708c-.03195-.01402-.10167-.04464-.12522-.05593-.04922-.0236-.0898-.047-.12768-.07454-.03735-.02716-.07744-.05279-.12579-.08084.28853-.04635.44444-.08054.56404-.13207.28623-.12332.32314-.4097.04804-.59916-.37506-.25829-1.37913-.28153-1.8198-.054l.20553.39807c.21625-.11165.70787-.13271 1.05215-.07542-.05235.00915-.11107.01879-.17688.02912l-.19668.03049c-.13751.02138-.23132.04854-.30084.09587-.1419.09661-.16292.27067-.06166.39907.04275.05422.09865.09477.18323.14383.02714.01575.05636.03179.0956.05273l.09635.05122c.08073.04335.13369.07466.17321.10341.06192.04502.12541.08163.19749.11618.03877.0186.15013.06714.14953.06687l.00657.00295c-.03888.05262-.06107.11703-.06107.1916z" fill="#ad1619"/></g><path d="m2.96171 6.20007.16529.0342v.24637c-.17605.14047-.62297.37722-.62297.37722v-.65779z" fill="#f1f9ff"/><path d="m8.15731 6.20007-.16529.0342v.24637c.17605.14047.62297.37722.62297.37722v-.65779z" fill="#f1f9ff"/><path clip-rule="evenodd" d="m7.38801 3.60301v-.08199c-.28804-.20672-.58968-.31008-.90491-.31008-.30222-.13374-.60811-.18565-.9177-.15574.00009-.00096.00013-.00144.00013-.00144-.46549-.04555-.9346.15718-.9346.15718-.47286 0-.90492.31008-.90492.31008v.08199l.56482.56727s.15892.5458 1.27181.41774c.00039.00087.00059.00132.00059.00132s.73718-.02012.78897-.03735c.02056-.00684.04187-.01306.06365-.01942.14439-.04215.30923-.09028.40734-.36229zm-1.82514-.51848c-.00233.02751-.00602.07231-.01039.12958.00554-.04104.00926-.0841.01039-.12958z" fill="#ad1619" fill-rule="evenodd"/><path clip-rule="evenodd" d="m3.75989 3.69923.03837-.04078.51285.4825c.09735-.02618.62576-.16083 1.216-.16746v-.00025l.02246.00006.02245-.00006v.00025c.65395.00735 1.232.17184 1.232.17184s-.00619.05308-.02124.11548c.01593-.03267.0348-.06897.05662-.10903l.0054-.007.51692-.48633.03837.04078-.51365.48326c-.07494.13801-.11268.22911-.11268.26695 0 .05773-.15019.092-.44332.12719-.22964.02757-.50066.04608-.72235.04885v.00036l-.0281-.0001-.0281.0001v-.00036c-.22169-.00277-.49271-.02128-.72235-.04885-.29313-.03519-.44332-.06946-.44332-.12719 0-.00716-.00135-.01622-.00405-.02715-.02956-.03764-.05034-.09922-.06417-.15477-.01298-.02598-.0278-.05434-.04446-.08503zm2.86664.75131c.03923.01836.07068.00004.09555-.03512-.00215.00971-.0035.01849-.00404.02636-.00328.00215-.00832.00473-.01493.00751-.01845.00776-.04662.01602-.08326.02438-.07204.01643-.17457.03277-.29609.04736-.23729.02849-.51945.04724-.74377.04871-.22432-.00147-.50648-.02022-.74377-.04871-.12152-.01459-.22405-.03093-.29608-.04736-.03072-.00701-.05549-.01395-.07356-.02057l.00603-.00256c.12234-.05725.93128-.11096 1.07696-.12023.14568.00927.95462.06298 1.07696.12023zm.15427-.01026-.00085.00098.00051-.00071z" fill="#c88a02" fill-rule="evenodd"/><path clip-rule="evenodd" d="m5.55612 2.67352c.09279 0 .168-.07521.168-.168 0-.09278-.07521-.168-.168-.168-.09278 0-.168.07522-.168.168 0 .09279.07522.168.168.168z" fill="#005bbf" fill-rule="evenodd"/><path clip-rule="evenodd" d="m5.49343 2.03833h.11667v.0737h.07623v.11667h-.07623v.23333h.07623v.11667h-.27031v-.11667h.07741v-.23333h-.07741v-.11667h.07741z" fill="#c88a02" fill-rule="evenodd"/><path d="m5.47198 2.672h.224v.728h-.224z" fill="#c88a02"/><path d="m3.85388 3.64843-.30762-.01157c.14514-.83879.85993-1.24978 2.00214-1.24978 1.14369 0 1.85595.41277 1.99017 1.25468l-.41604.04364c-.06532-.4097-.75155-.78047-1.56812-.78047-.81805 0-1.6291.33068-1.70053.7435z" fill="#c88a02"/><path clip-rule="evenodd" d="m3.73602 4.63208h3.64v3.27042s-.27038 1.09758-1.82 1.09758c-1.54961 0-1.82-1.12652-1.82-1.12652z" fill="#e1e5e8" fill-rule="evenodd" opacity=".3"/><g mask="url(#c)"><path d="m3.73602 6.64807h1.848v2.184h-1.848z" fill="#ffc034"/><path d="m3.73602 4.57605h1.848v2.128h-1.848z" fill="#ad1619"/><path d="m5.52802 6.59204h1.848v2.128h-1.848z" fill="#ad1619"/><path d="m5.52802 4.63208h1.96v2.072h-1.96z" fill="#f1f9ff"/><g clip-rule="evenodd" fill-rule="evenodd"><path d="m6.74139 8.72141s-1.1861.09325-1.1861-.67173c0 0-.01131.67173-1.24981.67173v.60391h2.43591z" fill="#f1f9ff"/><path d="m5.55605 7.09607c.23196 0 .42-.20057.42-.448 0-.24742-.18804-.448-.42-.448s-.42.20058-.42.448c0 .24743.18804.448.42.448z" fill="#005bbf" stroke="#ad1619" stroke-width=".583333"/></g></g><path clip-rule="evenodd" d="m4.5 6c.27614 0 .5-.22386.5-.5s-.22386-.5-.5-.5-.5.22386-.5.5.22386.5.5.5z" fill="#c88a02" fill-rule="evenodd"/><path clip-rule="evenodd" d="m6.5 6c.27614 0 .5-.22386.5-.5s-.22386-.5-.5-.5-.5.22386-.5.5.22386.5.5.5z" fill="#c37c9c" fill-rule="evenodd"/><path clip-rule="evenodd" d="m6.5 8c.27614 0 .5-.22386.5-.5s-.22386-.5-.5-.5-.5.22386-.5.5.22386.5.5.5z" fill="#ffc034" fill-rule="evenodd"/><path d="m4.5 8c.27614 0 .5-.22386.5-.5s-.22386-.5-.5-.5-.5.22386-.5.5.22386.5.5.5z" fill="#ad1619"/></g></g></svg>