<svg fill="none" height="24" viewBox="0 0 32 24" width="32" xmlns="http://www.w3.org/2000/svg" xmlns:xlink="http://www.w3.org/1999/xlink"><filter id="a" color-interpolation-filters="sRGB" filterUnits="userSpaceOnUse" height="7" width="12" x="20" y="8"><feFlood flood-opacity="0" result="BackgroundImageFix"/><feColorMatrix in="SourceAlpha" type="matrix" values="0 0 0 0 0 0 0 0 0 0 0 0 0 0 0 0 0 0 127 0"/><feOffset dy="1"/><feColorMatrix type="matrix" values="0 0 0 0 0 0 0 0 0 0 0 0 0 0 0 0 0 0 0.5 0"/><feBlend in2="BackgroundImageFix" mode="normal" result="effect1_dropShadow"/><feBlend in="SourceGraphic" in2="effect1_dropShadow" mode="normal" result="shape"/></filter><mask id="b" height="24" maskUnits="userSpaceOnUse" width="32" x="0" y="0"><path d="m0 0h32v24h-32z" fill="#fff"/></mask><mask id="c" height="24" maskUnits="userSpaceOnUse" width="32" x="0" y="0"><path clip-rule="evenodd" d="m0 0v24h32v-24z" fill="#fff" fill-rule="evenodd"/></mask><mask id="d" height="14" maskUnits="userSpaceOnUse" width="18" x="0" y="0"><path d="m0 0h18v14h-18z" fill="#fff"/></mask><mask id="e" fill="#000" height="18" maskUnits="userSpaceOnUse" width="22" x="-2" y="-2"><path d="m-2-2h22v18h-22z" fill="#fff"/><path clip-rule="evenodd" d="m9.98451 0h-2v6h-7.98451v2h7.98451v6h2v-6h8.01549v-2h-8.01549z" fill="#000" fill-rule="evenodd"/></mask><mask id="f" height="12" maskUnits="userSpaceOnUse" width="10" x="21" y="9"><path d="m22.0379 9.78271h-.25v.24999c0 .4332-.0019.8575-.0039 1.2717-.0046.9873-.0089 1.917.0144 2.7704.0331 1.2117.122 2.2916.351 3.1927.2293.9025.6047 1.6478 1.2271 2.1649.6245.5189 1.4659.7816 2.5737.7816 1.1205 0 1.9848-.3273 2.6343-.9186.6442-.5866 1.0542-1.4123 1.3107-2.3702.5108-1.9073.4357-4.4306.2944-6.9067l-.0134-.23579h-.2362z" fill="#fff" stroke="#fff" stroke-width=".5"/></mask><g mask="url(#b)"><path clip-rule="evenodd" d="m0 0v24h32v-24z" fill="#2e42a5" fill-rule="evenodd"/><g mask="url(#c)"><path d="m0 0h18v14h-18z" fill="#2b409a"/><g mask="url(#d)"><path d="m-2.00427 12.9999 3.96095 1.7372 16.13322-12.84832 2.0893-2.581529-4.2357-.580621-6.58033 5.53669-5.2965 3.73043z" fill="#f7fcff"/><path d="m-1.46204 14.217 2.017925 1.0081 18.873015-16.157717h-2.8334z" fill="#f50100"/><path d="m20.0043 12.9999-3.961 1.7372-16.1331743-12.84832-2.0893157-2.581529 4.23567-.580621 6.58035 5.53669 5.29647 3.73043z" fill="#f7fcff"/><path d="m19.8691 13.8732-2.0179 1.0081-8.03631-6.91791-2.3826-.77293-9.81249-7.874529h2.833394l9.807006 7.687629 2.6049.92682z" fill="#f50100"/><path clip-rule="evenodd" d="m9.98451 0h-2v6h-7.98451v2h7.98451v6h2v-6h8.01549v-2h-8.01549z" fill="#f50100" fill-rule="evenodd"/><path d="m7.98451 0v-1.5h-1.5v1.5zm2 0h1.49999v-1.5h-1.49999zm-2 6v1.5h1.5v-1.5zm-7.98451 0v-1.5h-1.5v1.5zm0 2h-1.5v1.5h1.5zm7.98451 0h1.5v-1.5h-1.5zm0 6h-1.5v1.5h1.5zm2 0v1.5h1.49999v-1.5zm0-6v-1.5h-1.5v1.5zm8.01549 0v1.5h1.5v-1.5zm0-2h1.5v-1.5h-1.5zm-8.01549 0h-1.5v1.5h1.5zm-2-4.5h2v-3h-2zm1.5 4.5v-6h-3v6zm-9.48451 1.5h7.98451v-3h-7.98451zm1.5.5v-2h-3v2zm6.48451-1.5h-7.98451v3h7.98451zm1.5 7.5v-6h-3v6zm.5-1.5h-2v3h2zm-1.5-4.5v6h2.99999v-6zm9.51549-1.5h-8.01549v3h8.01549zm-1.5-.5v2h3v-2zm-6.51549 1.5h8.01549v-3h-8.01549zm-1.5-7.5v6h2.99999v-6z" fill="#f7fcff" mask="url(#e)"/></g><path d="m22.0379 9.78271h-.25v.24999c0 .4332-.0019.8575-.0039 1.2717-.0046.9873-.0089 1.917.0144 2.7704.0331 1.2117.122 2.2916.351 3.1927.2293.9025.6047 1.6478 1.2271 2.1649.6245.5189 1.4659.7816 2.5737.7816 1.1205 0 1.9848-.3273 2.6343-.9186.6442-.5866 1.0542-1.4123 1.3107-2.3702.5108-1.9073.4357-4.4306.2944-6.9067l-.0134-.23579h-.2362z" fill="#b7e1ff" stroke="#f7fcff" stroke-width=".5"/><g mask="url(#f)"><path d="m24 18h6v2h-6z" fill="#2e42a5"/><g filter="url(#a)"><path d="m20 8h12v6h-12z" fill="#fdff00"/></g><path d="m25.1792 10.8766c-.0077-.0752-.0196-.1724-.0509-.2746l.4724 1.4676c-.0438-.0434-.0903-.0827-.1244-.1113-.0066-.0055-.0129-.0108-.0189-.0159-.0296-.0248-.0535-.0447-.0781-.0668-.101-.0906-.1504-.1585-.158-.2871-.006-.102-.0109-.2001-.0154-.2917-.0082-.1659-.0154-.311-.0267-.4202zm-.3738 2.5819h.0001l.0881.0709z" fill="#f7fcff" stroke="#272727"/><path d="m24.8263 14.0442h.2v3.9552h-.2z" fill="#fdff00"/><path clip-rule="evenodd" d="m24.1003 16.8125h1.7828s.0172.5144-.2534.4193c-.2707-.0952.0271.0951-.3847 0-.4117-.0952-.7746.2987-.8669.1017-.0923-.1969-.4505.056-.3642-.2325.0864-.2885.0864-.2885.0864-.2885z" fill="#f7fcff" fill-rule="evenodd"/><path d="m24.1333 16.7639h1.73333v.2h-1.73333z" fill="#212123"/><path clip-rule="evenodd" d="m24.3469 16.0654h1.4262s.0137.4116-.2028.3354c-.2165-.0761.0218.0762-.3077 0-.3294-.0761-.6197.239-.6935.0814-.0739-.1575-.3604.0448-.2913-.186s.0691-.2308.0691-.2308z" fill="#f7fcff" fill-rule="evenodd"/><path d="m24.3733 16.0266h1.38667v.2h-1.38667z" fill="#212123"/><path clip-rule="evenodd" d="m24.0869 15.2449h1.5451s.0149.4115-.2197.3354c-.2345-.0762.0236.0761-.3333 0-.3569-.0762-.6714.2389-.7514.0814-.08-.1576-.3904.0447-.3156-.186.0749-.2308.0749-.2308.0749-.2308z" fill="#f7fcff" fill-rule="evenodd"/><path d="m24.1155 15.2061h1.50222v.2h-1.50222z" fill="#212123"/><path clip-rule="evenodd" d="m24.2136 14.5562h1.4262s.0137.5144-.2028.4192.0218.0952-.3077 0c-.3294-.0952-.6197.2987-.6935.1018-.0739-.197-.3604.0559-.2913-.2326.0691-.2884.0691-.2884.0691-.2884z" fill="#f7fcff" fill-rule="evenodd"/><path d="m24.24 14.5076h1.38667v.2h-1.38667z" fill="#212123"/><path d="m26.7424 14.5442h.2v3.9552h-.2z" fill="#fdff00"/><path clip-rule="evenodd" d="m26.1003 16.9758h1.7828s.0172.4116-.2534.3354c-.2707-.0761.0271.0762-.3847 0-.4117-.0761-.7746.239-.8669.0814-.0923-.1575-.4505.0448-.3642-.186.0864-.2308.0864-.2308.0864-.2308z" fill="#f7fcff" fill-rule="evenodd"/><path d="m26.1333 16.937h1.73333v.2h-1.73333z" fill="#212123"/><path clip-rule="evenodd" d="m26.3645 16.2305h1.4007s.0135.3086-.1991.2515c-.2127-.0571.0213.0571-.3022 0s-.6086.1792-.6812.0611c-.0725-.1182-.354.0335-.2861-.1395.0679-.1731.0679-.1731.0679-.1731z" fill="#f7fcff" fill-rule="evenodd"/><path d="m26.3904 16.2007h1.3619v.2h-1.3619z" fill="#212123"/><path clip-rule="evenodd" d="m26.0859 15.4099h1.5282s.0147.3087-.2173.2516.0233.0571-.3297 0c-.3529-.0571-.6639.1792-.7431.061-.0791-.1181-.3861.0336-.3121-.1395s.074-.1731.074-.1731z" fill="#f7fcff" fill-rule="evenodd"/><path d="m26.1143 15.3801h1.48571v.2h-1.48571z" fill="#212123"/><path clip-rule="evenodd" d="m26.2216 14.7192h1.4008s.0135.4116-.1991.3354c-.2127-.0761.0213.0762-.3022 0-.3236-.0761-.6087.239-.6812.0815-.0725-.1576-.354.0447-.2861-.1861.0678-.2308.0678-.2308.0678-.2308z" fill="#f7fcff" fill-rule="evenodd"/><path d="m26.2476 14.6804h1.3619v.2h-1.3619z" fill="#212123"/><path d="m29.4905 14.0586h.2v5.2586h-.2z" fill="#fdff00"/><path clip-rule="evenodd" d="m28.6732 17.2529h2.269s.0219.4116-.3226.3354c-.3445-.0761.0346.0762-.4895 0-.5241-.0761-.9859.239-1.1034.0814-.1175-.1575-.5734.0448-.4635-.186.11-.2308.11-.2308.11-.2308z" fill="#f7fcff" fill-rule="evenodd"/><path d="m28.7152 17.2141h2.20606v.2h-2.20606z" fill="#212123"/><path clip-rule="evenodd" d="m29.0095 16.2556h1.7828s.0172.3087-.2535.2516c-.2706-.0571.0272.0571-.3846 0s-.7746.1792-.8669.061c-.0924-.1181-.4506.0336-.3642-.1395s.0864-.1731.0864-.1731z" fill="#f7fcff" fill-rule="evenodd"/><path d="m29.0425 16.231h1.73333v.2h-1.73333z" fill="#212123"/><path clip-rule="evenodd" d="m28.8276 14.9348h1.7828s.0172.4116-.2534.3354c-.2707-.0761.0271.0762-.3847 0-.4117-.0761-.7746.239-.8669.0814-.0923-.1575-.4505.0448-.3642-.186.0864-.2308.0864-.2308.0864-.2308z" fill="#f7fcff" fill-rule="evenodd"/><path d="m28.8606 14.896h1.73333v.2h-1.73333z" fill="#212123"/><g clip-rule="evenodd" fill-rule="evenodd"><path d="m24.1851 17.6867s.9256.503 2.3369.4163c1.4113-.0866 1.31.1858 1.676-.2018.3661-.3875.3982-.3011.8548-.5046.4566-.2034.5221-.3953.7575-.3953s2.7421-.1007 2.7421-.1007-.2294.206-.2294.496c0 .2901.1529.3198 0 .5828-.1529.2631-.3257.6148-.5476.7168-.222.1021-3.218.1666-3.9819.1666-.764 0-2.3331.0851-2.5136 0-.1806-.085-1.0948-1.1761-1.0948-1.1761z" fill="#272727"/><path d="m22.1177 15.6863.8932-.8228s.039 0 .205.4114.1738.9741.3465.8336c.1727-.1406.4384-.0108.5503-.4222s.1049-.9441.2472-.6777c.1422.2663.0577-.1231.2848.4884.227.6115.3169-.2627.4418.6115.1248.8741.2305 1.1758.2305 1.3791 0 .2034 1.1372.8092.701 1.2265-.4362.4172-.3127.2206-.701.483-.3882.2624-.7861.1098-.2305.3159s.476.5797.476.8552c0 .2754-.0342.3989-.476.3371-.4418-.0617-.9791.1582-1.0865.1582-.1073 0-1.4026-.2639-1.4026-.8072s-.4797-4.37-.4797-4.37z" fill="#ce6201"/></g></g></g></g></svg>