<svg fill="none" height="12" viewBox="0 0 16 12" width="16" xmlns="http://www.w3.org/2000/svg" xmlns:xlink="http://www.w3.org/1999/xlink"><mask id="a" height="12" maskUnits="userSpaceOnUse" width="16" x="0" y="0"><path d="m0 0h16v12h-16z" fill="#fff"/></mask><mask id="b" height="12" maskUnits="userSpaceOnUse" width="16" x="0" y="0"><path clip-rule="evenodd" d="m0 0v12h16v-12z" fill="#fff" fill-rule="evenodd"/></mask><mask id="c" fill="#000" height="3" maskUnits="userSpaceOnUse" width="3" x="3.05882" y="-1"><path d="m3.05882-1h3v3h-3z" fill="#fff"/><path clip-rule="evenodd" d="m4.56302 0h-.2521l.03246.461361-.28456-.038719v.316981l.28893-.039797-.03683.726594h.2521l-.03732-.727817.28943.04102v-.316981l-.28418.040791z" fill="#000" fill-rule="evenodd"/></mask><g mask="url(#a)"><path clip-rule="evenodd" d="m0 0v12h16v-12z" fill="#e31d1c" fill-rule="evenodd"/><g mask="url(#b)"><path clip-rule="evenodd" d="m0 0v6h16v-6z" fill="#2e42a5" fill-rule="evenodd"/><path clip-rule="evenodd" d="m2.39923 5.52665s.60333.37554 2.00142.37554c1.39808 0 2.14018-.37554 2.14018-.37554s-1.09641-.63737-2.07676-.63737c-.98034 0-2.06484.63737-2.06484.63737z" fill="#000" fill-rule="evenodd"/><g fill="#ffd83d"><path d="m2.43532 3.3711-.10804.06287.03616.06213h.07188 4.16262.09159l.0276-.08734-.11919-.03766.11922.03758.00003-.00011.00009-.00028.00027-.00085.00086-.00279.00295-.00987c.00248-.00844.00593-.02053.01007-.03589.00827-.0307.01929-.07458.03069-.12853.02274-.10756.04736-.25681.05421-.42242.01341-.3241-.04008-.74667-.35467-1.02015-.29609-.25739-.70897-.38541-1.09891-.45102-.39267-.06608-.77944-.07151-1.03569-.07151-.5294 0-1.01527.06272-1.80169.5081-.21949.12431-.34499.29735-.40441.48699-.05826.18593-.05096.38059-.01994.55124.03114.17136.08763.32628.13554.43735.0241.05585.04635.10135.06274.13319.00821.01594.01497.0285.01979.03726l.00573.01027.00166.00292.00051.00089.00018.00029.00006.00012c.00003.00004.00005.00009.10809-.06278z" stroke="#000" stroke-width=".25"/><path d="m1.94308 3.453.05828.11058c-.05828-.11058-.05823-.11061-.05818-.11063l.00012-.00007.0003-.00015.00081-.00043.00254-.0013.00867-.00435c.0074-.00364.018-.00875.03183-.01511.02766-.01271.06821-.03043.12174-.05146.10705-.04205.26594-.09734.47729-.15236.42279-.11007 1.05492-.21893 1.90111-.21893s1.47833.10886 1.90112.21893c.21135.05502.37024.11031.47729.15236.05352.02103.09408.03875.12174.05146.01382.00636.02443.01147.03182.01511l.00868.00435.00254.0013.00081.00043.0003.00015.00012.00007c.00005.00002.0001.00005-.05818.11063l.05828-.11058.09734.0513-.03854.10307-.59245 1.58418-.04129.11042zm0 0-.09648.05084.03729.10249.57649 1.58418.04025.11062.11281-.03354zm4.40144 1.81421h.00003l-3.73109.00037.00005-.00001.00039-.00012.0018-.00053.00765-.00221.03081-.00869c.0272-.00754.06741-.0184.11878-.03147.10277-.02616.25005-.06112.42712-.0961.35494-.07012.826-.13957 1.29701-.13957.47088 0 .93308.06942 1.27897.13945.17258.03495.31537.06987.41476.09598.04969.01305.08848.02388.11467.0314l.02963.00866.00731.00219.00172.00053.00036.00011z" stroke="#000" stroke-width=".25"/><path clip-rule="evenodd" d="m4.56302 0h-.2521l.03246.461361-.28456-.038719v.316981l.28893-.039797-.03683.726594h.2521l-.03732-.727817.28943.04102v-.316981l-.28418.040791z" fill-rule="evenodd"/></g><path d="m4.31092 0v-.25h-.2682l.01882.2675417zm.2521 0 .24941.0172624.0185-.2672624h-.26791zm-.21964.461361-.03371.247717.30466.041456-.02157-.306715zm-.28456-.038719.03371-.247718-.28371-.038604v.286322zm0 .316981h-.25v.286797l.28412-.039136zm.28893-.039797.24968.012653.01528-.30151-.29908.041195zm-.03683.726594-.24968-.01266-.01331.26266h.26299zm.2521 0v.25h.26315l-.01347-.26281zm-.03732-.727817.03508-.247526-.30028-.042559.01553.302888zm.28943.04102-.03509.247526.28509.040401v-.287927zm0-.316981h.25v-.288448l-.28553.040984zm-.28418.040791-.24941-.017262-.02136.308691.30629-.043965zm-.22003-.213433h.2521v-.5h-.2521zm.28184.193819-.03245-.4613607-.49877.0350834.03245.4613603zm-.56764.22654.28455.038719.06741-.495435-.28455-.038719zm.2837.069264v-.316981h-.5v.316981zm.00481-.287459-.28892.039797.06823.495323.28892-.039797zm.24697.986906.03683-.726591-.49936-.025307-.03683.726588zm.00242-.26265h-.2521v.5h.2521zm-.28699-.465014.03732.727814.49935-.02561-.03733-.72781zm.57418-.21931-.28943-.041019-.07016.495053.28942.041019zm-.28508-.069454v.316981h.5v-.316981zm.00134.288255.28418-.040792-.07105-.494927-.28417.040791zm-.25285-.7281594-.03208.4634334.49881.034524.03208-.4634326z" fill="#000" mask="url(#c)"/></g></g></svg>