<svg fill="none" height="24" viewBox="0 0 32 24" width="32" xmlns="http://www.w3.org/2000/svg" xmlns:xlink="http://www.w3.org/1999/xlink"><mask id="a" height="24" maskUnits="userSpaceOnUse" width="32" x="0" y="0"><path d="m0 0h32v24h-32z" fill="#fff"/></mask><mask id="b" height="24" maskUnits="userSpaceOnUse" width="32" x="0" y="0"><path clip-rule="evenodd" d="m0 0v24h32v-24z" fill="#fff" fill-rule="evenodd"/></mask><g mask="url(#a)"><path clip-rule="evenodd" d="m0 0v24h32v-24z" fill="#f7fcff" fill-rule="evenodd"/><g mask="url(#b)"><path clip-rule="evenodd" d="m0 0v8h32v-8z" fill="#bf2714" fill-rule="evenodd"/><path clip-rule="evenodd" d="m0 16v8h32v-8z" fill="#272727" fill-rule="evenodd"/><g fill="#c09302"><path d="m12.2603 10.2202.9989.0458-.2507 5.4698-.999-.0458z"/><path d="m13.304 10.5597.9984.0564-.2508 4.4354-.9984-.0565z"/><path d="m14.3484 10.8918.9967.0818-.2508 3.056-.9966-.0817z"/><path d="m19.7396 10.2202-.9989.0458.2507 5.4698.999-.0458z"/><path d="m18.6959 10.5597-.9984.0564.2507 4.4354.9985-.0565z"/><path d="m17.6515 10.8918-.9967.0818.2508 3.056.9966-.0817z"/><path d="m15.9733 15.3267-.9748-.2234.4126-1.8007.9748.2233z"/><path d="m16.7195 15.3267.9747-.2234-.4126-1.8007-.9747.2233z"/><path d="m16.4722 15.3102h-1v-1.768h1z"/><path d="m14.6347 10.9132.9997.0245-.0584 2.3809-.9997-.0245z"/><path d="m16.3738 10.9132.9997.0245-.0584 2.3809-.9997-.0245z"/><path d="m13.3379 15.9228.2597-.9656c1.061.2853 1.8758.4264 2.4313.4264.5556 0 1.3703-.1411 2.4313-.4264l.2597.9656c-1.1384.3062-2.0311.4608-2.691.4608s-1.5526-.1546-2.691-.4608z"/><path d="m12.2822 10.2227c-.0667-.66065.32-1.10783.9752-1.05079.2155.01875.4575.08249.7798.19184.0942.03231.0942.03231.1857.06471.4431.1576.5634.19811.5884.20344-.0982-.02224.191-.54501.2573-.63312.0078.05596-.0254.04799-.1054.03199l-.902-.18053.6421-.65875c.2244-.23026.5233-.34444.8644-.34444.0354 0 .0684-.00165.1767-.00831.0802-.00487.0802-.00487.1703-.0086.6239-.02022 1.0714.15622 1.0714.79787 0 .22956.029.59871.0769.87876.0161.09421.0471.18239-.0446.22112.0038-.03342.2224-.11967.5622-.26179l.0408-.01705c.9874-.41215 1.1028-.45038 1.4211-.25694.2121.12891.4141.36078.6404.70649l-.8367.5477c-.1459-.223-.2622-.3583-.3175-.3961.1258.0874-.2979.2281-.5221.3217l-.0402.0168c-.7687.3215-.8701.3598-1.0899.3598-.5982 0-.813-.6127-.8718-1.49027-.1846.60757-.7352 1.37427-1.189 1.37427-.1987 0-.1032.0315-.9279-.2619-.0864-.0305-.0864-.0305-.1719-.0599-.2498-.0847-.4301-.1323-.5438-.1424.0047-.0054.0214-.0234.0402-.0395z"/></g></g></g></svg>