<svg fill="none" height="24" viewBox="0 0 32 24" width="32" xmlns="http://www.w3.org/2000/svg" xmlns:xlink="http://www.w3.org/1999/xlink"><mask id="a" height="24" maskUnits="userSpaceOnUse" width="32" x="0" y="0"><path d="m0 0h32v24h-32z" fill="#fff"/></mask><g clip-rule="evenodd" fill-rule="evenodd" mask="url(#a)"><path d="m0 0h32v24h-32z" fill="#f50100"/><path d="m16.5 6.2236c.0679-.01383.2378-.10739.6028-.58697.2228-.29277.2127-.64565.2038-.95178-.0115-.40123-.0208-.72214.4999-.72214.4268 0 .7431-.12253 1.0079-.22516.3048-.1181.5416-.20985.8006-.05823.417.24416.9086.27796.9083.28264 0 .00075-.0127.00075-.0405.00075-.2008 0-.9222.41076-.3644.41076.2729 0 .5641-.19657.7903-.34933.2362-.15952.4017-.27125.4017-.06143 0 0 .1587.46369-.2244.49887 0 0-1.7282.16889-1.3905.24484 0 0 .3075.12672.518.13443 0 0 .0911.32022-.4689.40888 0 0-1.5829.29389-1.6553.8025-.0182.12769-.0634.29556-.1117.47539-.1442.53648-.3171 1.1794.1117 1.1794.5724 0 .9442-.39206.9442-.8326s.0777-1.18469.5815-1.22092c0 0 1.2385-.4182 1.3921-.3895.0579.01083.0548.04885.0512.09201-.0058.07129-.0128.1566.2521.1566.4253 0 1.6577-1.02173 1.8517-1.42751s.4854 0 .4854 0 .1875 1.13593-.7889 1.55153-1.5482.4156-1.5482.4156-.6089.44776-.2244.44776c.0853 0 .1921.00776.3128.01654.4233.03078 1.0181.07403 1.4598-.16155.1219-.06504.2279-.12391.3191-.17459.3333-.18526.4698-.26108.4698-.12816v.00275c0 .17653.0001 1.11611-.6501 1.11611h-1.687c-.2244 0-.7557.31964.1269.53593s1.1671.12591 1.5601 0c.3929-.1259.6501-.19742.6501 0 0 .19743-.539.93604-1.0021.93604-.2713 0-.56-.14076-.7991-.25733-.169-.08239-.3132-.1527-.409-.1527-.2313 0-.4712.41003-.3513.41003.0389 0 .1071.06258.1991.14716.1918.17624.4876.44799.8395.44799.2872 0 .511-.05863.7118-.11123.1634-.0428.3116-.08161.4663-.08161.1997 0 .2837-.02405.3191.00712.0257.02264.0257.07442.0257.18572 0 .26452-.688.55635-1.0021.55635-.1428 0-.4944-.15661-.8354-.30851-.4091-.18219-.8029-.35761-.8029-.24784 0 .20128.8297 1.28379 1.3406 1.28379h.955c.3448 0 .2079.4378.2079.4378s-.3338.2967-.7484.2967c-.3108 0-.6175-.2355-.8575-.4199-.0801-.0615-.1528-.1173-.2158-.1568-.2516-.1578-.6029-.28-.6029 0s.7932 1.3988 1.4346 1.3988c.2563 0 .4876-.0412.6731-.0742.2787-.0496.4538-.0808.4538.0742 0 .2581-.2982.8328-.6501.7058l-.0076-.0027c-.3599-.1298-1.4566-.5254-1.6794-.9455-.2244-.4229-.6345-.2423-.4689 0 .1656.2424 1.0377 1.4958 1.6791 1.6126.1704.031.3393.0516.4931.0704.4253.052.7343.0898.6338.2934-.1369.2774-.7044.6648-1.0021.5428-.2977-.1221-1.3148-1.057-1.5594-1.4468-.2445-.3898-.8725-1.136-.8725-.83 0 .0654-.0116.1549-.0248.2564-.0486.3736-.1183.9094.2941.9994.5243.1144.8005.6192.5243.6192-.2763 0-1.2625-.2365-1.2625-.8621s-.4461-.9768-.4461-.8012c0 .02-.0005.0445-.0012.0728-.0052.2206-.0159.6702.2017.9713.2455.3396-.1024.6169-.2005.4782-.098-.1386-.5184-.7798-.5184-.904s-.1483-.4157-.3227-.4157-.2094.3039.1169.9559 1.1308 1.1733 1.385 1.1733 0 .5847 0 .5847l1.7296.448s.6588-.3396.6588-.448c0-.1085.3443-.3727.6497-.3727.3053 0 .3295.3727.1647.3727-.0814 0-.1967.0696-.3134.1402-.1195.0722-.2405.1454-.3281.1454-.1729 0-.7016.3698-.7016.3698h1.1784s-.1887-.2074.3053-.2074c.4939 0 .6973.2074.6973.2074s-.5568.3267-.6973.3267c-.0355 0-.0803.0073-.1359.0163-.0822.0134-.188.0306-.3226.0339-.0378-.0281-.0601-.0219-.073.0003-.1199-.0018-.2601-.0152-.4235-.0505-.5287-.1141.4145.2371.4145.2371s-.0205-.1356.009-.1866c.0252.0004.0495.0002.073-.0003.0357.0265.0851.0837.1532.1869.3053.463.3519.6071 0 .6071-.352 0-.6497-.1071-.6497-.3571s-.6588-.4871-.6588-.4871l-.8474.4871s.1582.2716-.1003.3571c-.2584.0856-.6228-.0401-.6228-.1256 0-.0856.0855-.4815.3051-.4815s.8869-.3628.8869-.3628l-1.6149-.4824s-.4523.4824-.601.4824c-.0762 0-.226-.308-.3896-.6444-.1558-.3204-.3241-.6666-.4532-.7967-.0809-.0816-.1527-.1898-.2221-.2945-.1575-.2376-.3029-.4567-.5154-.304-.3061.22-.4277.8979 0 1.4688.4277.5708 1.1678 1.0218 1.374 1.0218.2063 0 .6108.0195.6108.1618 0 .1424-.1799.7253-.6108.4784-.0854-.049-.172-.0999-.2564-.1495-.3415-.2007-.6479-.3808-.7004-.3289-.0654.0648.2039.799.5804.9742.1653.0769.3188.0713.439.0669.1534-.0056.2524-.0093.2524.1635 0 .308-.266.6513-.7458.3257-.212-.1439-.3869-.3335-.5237-.4816-.1727-.1871-.2845-.3082-.3328-.1877-.0867.2158-.0499 1.0591.3305 1.0591.0876 0 .1689-.0029.2422-.0054.2451-.0086.4007-.014.4007.1004 0 .1487-.0878.7825-.485.5296-.3973-.2529-.6878-.5681-.7588-.7913-.071-.2231-.4951-.0008-.3614.313s.4585.9463.5451.9463c.0867 0-1.0072 1.9113-1.0072 1.9113l-.007-2.3531-.007 2.3531s-1.0939-1.9113-1.0072-1.9113c.0866 0 .4114-.6325.5451-.9463s-.2904-.5361-.3614-.313c-.071.2232-.3615.5384-.7588.7913-.3972.2529-.485-.3809-.485-.5296 0-.1144.1556-.109.4007-.1004.0733.0025.1546.0054.2422.0054.3804 0 .4172-.8433.3305-1.0591-.0483-.1205-.1601.0006-.3328.1877-.1368.1481-.3117.3377-.5237.4816-.4798.3256-.7458-.0177-.7458-.3257 0-.1728.099-.1691.2524-.1635.1202.0044.2737.01.439-.0669.3765-.1752.6458-.9094.5804-.9742-.0525-.0519-.3589.1282-.7004.3289-.0844.0496-.171.1005-.2564.1495-.4309.2469-.6108-.336-.6108-.4784 0-.1423.4045-.1618.6108-.1618.2062 0 .9463-.451 1.374-1.0218.4277-.5709.3061-1.2488 0-1.4688-.2125-.1527-.3579.0664-.5154.304-.0694.1047-.1412.2129-.2221.2945-.1291.1301-.2974.4763-.4532.7967-.1636.3364-.3134.6444-.3896.6444-.1487 0-.601-.4824-.601-.4824l-1.6149.4824s.6673.3628.8869.3628.3051.3959.3051.4815c0 .0855-.3644.2112-.6228.1256-.2585-.0855-.1003-.3571-.1003-.3571l-.8474-.4871s-.6588.2371-.6588.4871-.2977.3571-.6497.3571c-.35189 0-.30527-.1441 0-.6071.0681-.1032.1175-.1604.1532-.1869.0235.0005.0478.0007.073.0003.0295.051.009.1866.009.1866s.9432-.3512.4145-.2371c-.1634.0353-.3036.0487-.4235.0505-.0129-.0222-.0353-.0284-.073-.0003-.1346-.0033-.24042-.0205-.32259-.0339-.05561-.009-.10038-.0163-.13588-.0163-.14054 0-.69733-.3267-.69733-.3267s.20337-.2074.69733-.2074c.49397 0 .30527.2074.30527.2074h1.1784s-.5287-.3698-.7016-.3698c-.0876 0-.2086-.0732-.3281-.1454-.1167-.0706-.23204-.1402-.31343-.1402-.16478 0-.14054-.3727.16473-.3727.3054 0 .6497.2642.6497.3727 0 .1084.6588.448.6588.448l1.7296-.448s-.2542-.5847 0-.5847 1.0587-.5213 1.385-1.1733.2913-.9559.1169-.9559-.3227.2915-.3227.4157-.4204.7654-.5184.904c-.0981.1387-.4461-.1386-.2005-.4782.2176-.3011.2069-.7507.2017-.9713-.0007-.0283-.0012-.0528-.0012-.0728 0-.1756-.4461.1756-.4461.8012s-.9862.8621-1.2625.8621c-.2762 0 0-.5048.5243-.6192.4124-.09.3427-.6258.2941-.9994-.0132-.1015-.0248-.191-.0248-.2564 0-.306-.628.4402-.8725.83-.2446.3898-1.2617 1.3247-1.5594 1.4468-.2977.122-.86525-.2654-1.00207-.5428-.10049-.2036.20847-.2414.63381-.2934.15376-.0188.32266-.0394.49306-.0704.6414-.1168 1.5135-1.3702 1.6791-1.6126.1656-.2423-.2445-.4229-.4689 0-.2228.4201-1.3195.8157-1.6794.9455l-.0076.0027c-.35189.127-.65007-.4477-.65007-.7058 0-.155.17503-.1238.45379-.0742.18544.033.41678.0742.67308.0742.6414 0 1.4346-1.1188 1.4346-1.3988s-.3513-.1578-.6029 0c-.063.0395-.1357.0953-.2158.1568-.24.1844-.5467.4199-.8575.4199-.41458 0-.74845-.2967-.74845-.2967s-.13682-.4378.20798-.4378h.95497c.5109 0 1.3406-1.08251 1.3406-1.28379 0-.10977-.3938.06565-.8029.24784-.341.1519-.6926.30851-.8354.30851-.3141 0-1.00207-.29183-1.00207-.55635 0-.1113 0-.16308.02569-.18572.03536-.03117.11939-.00712.31911-.00712.15469 0 .30287.03881.46627.08161.2008.0526.4246.11123.7118.11123.3519 0 .6477-.27175.8395-.44799.092-.08458.1602-.14716.1991-.14716.1199 0-.12-.41003-.3513-.41003-.0958 0-.24.07031-.409.1527-.2391.11657-.5278.25733-.7991.25733-.46312 0-1.00207-.73861-1.00207-.93604 0-.19742.25721-.1259.65007 0 .393.12591.6775.21629 1.5601 0s.3513-.53593.1269-.53593h-1.687c-.65019 0-.65009-.93958-.65007-1.11611v-.00275c0-.13292.13643-.0571.4698.12816.09121.05068.19717.10955.31907.17459.4417.23558 1.0365.19233 1.4598.16155.1207-.00878.2275-.01654.3128-.01654.3845 0-.2244-.44776-.2244-.44776s-.5718 0-1.5482-.4156-.78887-1.55153-.78887-1.55153.29134-.40578.48534 0c.19403.40578 1.42643 1.42751 1.85173 1.42751.2649 0 .2579-.08531.2521-.1566-.0036-.04316-.0067-.08118.0512-.09201.1536-.0287 1.3921.3895 1.3921.3895.5038.03623.5815.78038.5815 1.22092s.3718.8326.9442.8326c.4288 0 .2559-.64292.1117-1.1794-.0483-.17983-.0935-.3477-.1117-.47539-.0724-.50861-1.6553-.8025-1.6553-.8025-.56-.08866-.4689-.40888-.4689-.40888.2105-.00771.518-.13443.518-.13443.3377-.07595-1.3905-.24484-1.3905-.24484-.3831-.03518-.2244-.49887-.2244-.49887 0-.20982.1655-.09809.4017.06143.2262.15276.5174.34933.7903.34933.5578 0-.1636-.41076-.3644-.41076-.0278 0-.0405 0-.0405-.00075-.0003-.00468.4913-.03848.9083-.28264.259-.15162.4958-.05987.8006.05823.2648.10263.5811.22516 1.0079.22516.5207 0 .5114.32091.4999.72214-.0089.30613-.019.65901.2038.95178.365.47958.5349.57314.6028.58697z" fill="#1a1a1a"/></g></svg>