<svg fill="none" height="24" viewBox="0 0 32 24" width="32" xmlns="http://www.w3.org/2000/svg" xmlns:xlink="http://www.w3.org/1999/xlink"><mask id="a" height="24" maskUnits="userSpaceOnUse" width="32" x="0" y="0"><path d="m0 0h32v24h-32z" fill="#fff"/></mask><mask id="b" height="24" maskUnits="userSpaceOnUse" width="32" x="0" y="0"><path clip-rule="evenodd" d="m0 0v24h32v-24z" fill="#fff" fill-rule="evenodd"/></mask><g clip-rule="evenodd" fill-rule="evenodd" mask="url(#a)"><path d="m0 0v24h32v-24z" fill="#2e42a5"/><g mask="url(#b)"><path d="m4.25442 6.14923-1.98884 1.04968.96026-1.86838-1.22584-1.36738 1.52334-.05622.73108-1.90693.55791 1.90693 1.78264.05622-1.2835 1.36738.81425 1.86838z" fill="#f7fcff"/><path d="m11.3524 11.0766-2.45464 1.0282.96297-2.57662-2.13417-1.72888h2.55734l1.0685-2.78709.8154 2.78709h2.5612l-1.82 1.72888.9037 2.57662z" fill="#f7fcff"/><path d="m0 14v4h32v-4z" fill="#f9e813"/></g></g></svg>