<svg fill="none" height="15" viewBox="0 0 20 15" width="20" xmlns="http://www.w3.org/2000/svg" xmlns:xlink="http://www.w3.org/1999/xlink"><mask id="a" height="15" maskUnits="userSpaceOnUse" width="20" x="0" y="0"><path d="m0 0h20v15h-20z" fill="#fff"/></mask><mask id="b" height="9" maskUnits="userSpaceOnUse" width="10" x="5" y="3"><path clip-rule="evenodd" d="m5.5108 7.53292s1.77584-3.73751 4.31579-3.73751c2.53991 0 4.37551 3.73751 4.37551 3.73751s-2.2413 3.68838-4.34565 3.68838c-2.1043 0-4.34565-3.68838-4.34565-3.68838z" fill="#fff" fill-rule="evenodd"/></mask><g mask="url(#a)"><path clip-rule="evenodd" d="m0 0h20v15h-20z" fill="#3d58db" fill-rule="evenodd"/><path d="m0 3.125h-.625v.625 7.5.625h.625 20 .625v-.625-7.5-.625h-.625z" fill="#c51918" stroke="#ffd018" stroke-width="1.25"/><path d="m4.46833 5.83189c-.07497 0-.13575-.1695-.13575-.37859s.06078-.37859.13575-.37859h10.88177c.0749 0 .1357.1695.1357.37859s-.0608.37859-.1357.37859z" fill="#ffd018"/><path clip-rule="evenodd" d="m15.0595 5.37643.6319-.80612 1.1181.80612-1.1181.82732z" fill="#f7fcff" fill-rule="evenodd"/><path d="m4.46833 8.33189c-.07497 0-.13575-.1695-.13575-.37859s.06078-.37859.13575-.37859h10.88177c.0749 0 .1357.1695.1357.37859s-.0608.37859-.1357.37859z" fill="#ffd018"/><path clip-rule="evenodd" d="m15.0595 7.87643.6319-.80612 1.1181.80612-1.1181.82732z" fill="#f7fcff" fill-rule="evenodd"/><path d="m2.71594 9.88854c-.10052 0-.182-.19246-.182-.42987 0-.2374.08148-.42986.182-.42986h14.59016c.1005 0 .182.19246.182.42986 0 .23741-.0815.42987-.182.42987z" fill="#ffd018"/><g clip-rule="evenodd" fill-rule="evenodd"><path d="m5.5108 7.53292s1.77584-3.73751 4.31579-3.73751c2.53991 0 4.37551 3.73751 4.37551 3.73751s-2.2413 3.68838-4.34565 3.68838c-2.1043 0-4.34565-3.68838-4.34565-3.68838z" fill="#f7fcff"/><g mask="url(#b)"><path d="m9.95269 3.55005s-.57954.70388-.38636 1.37507c.19318.6712.64327.60031.64327 1.19141s-.2079 1.19394 0 1.19394.28.4079.0899.68444c-.19.27654-.35807.28508-.34681.73515.01126.45006.99501.89186.51841.89186-.47651 0-1.10461.46258-.90477.46258s1.24537.3604 1.24537.8333v.8515h-5.45464v-8.21925z" fill="#272727"/><path d="m7.38685 6.2019h-.27149v1.10577h.27149zm.8009 0h-.27149v1.10577h.27149zm-.67194 0h.27149v1.10577h-.27149zm1.0724 0h-.2715v1.10577h.2715zm.12896 0h.27149v1.10577h-.27149zm.67194 0h-.27149v1.10577h.27149zm-2.27375 1.58654h.27149v1.10577h-.27149zm1.07239 0h-.27149v1.10577h.27149zm-.67194 0h.27149v1.10577h-.27149zm1.0724 0h-.2715v1.10577h.2715zm.12896 0h.27149v1.10577h-.27149zm.67194 0h-.27149v1.10577h.27149z" fill="#f7fcff"/><path d="m10.6108 6.2019h-.2714v1.10577h.2714zm.801 0h-.2715v1.10577h.2715zm-.672 0h.2715v1.10577h-.2715zm1.0724 0h-.2715v1.10577h.2715zm.129 0h.2715v1.10577h-.2715zm.6719 0h-.2715v1.10577h.2715zm-2.2737 1.58654h.2714v1.10577h-.2714zm1.0724 0h-.2715v1.10577h.2715zm-.672 0h.2715v1.10577h-.2715zm1.0724 0h-.2715v1.10577h.2715zm.129 0h.2715v1.10577h-.2715zm.6719 0h-.2715v1.10577h.2715z" fill="#272727"/><path d="m8.26975 4.41966c-.38032.11782-.55435 1.11521-.51184 1.35629s.17154-.03025.17154-.03025.26315.57194.29029.72581c.02713.15388.16571-.2326.16571-.2326s.45645.31445.51823.66484c.06178.35038.15471-.40095.15471-.40095l.1034-.01824-.06542-.371.19718.16861-.06083-.34502s.1485.19407.11083-.01954c-.03766-.21362-.05869-.33288-.05869-.33288l-.05148-.29197.19517-.03441s-.77849-.95652-1.1588-.83869z" fill="#3d58db"/></g><g fill="#3d58db"><path d="m16.3052 8.55983c-.395.05-.7396 1.00201-.7396 1.24681 0 .24476.1742 0 .1742 0s.1598.60896.1598.76516c0 .1563.2036-.2003.2036-.2003s.3949.389.3949.7448.222-.368.222-.368h.105v-.3768l.1649.2003v-.3503s.1126.2169.1126 0 0-.33801 0-.33801v-.29648h.1982s-.6006-1.07717-.9956-1.02718z"/><path d="m3.49559 8.41555c.39499.05.73958 1.00201.73958 1.24681 0 .24479-.17419 0-.17419 0s-.15984.60894-.15984.76514c0 .1563-.20359-.2002-.20359-.2002s-.39491.3889-.39491.7447-.22198-.368-.22198-.368h-.10499v-.3767l-.16491.2002v-.3503s-.11255.2169-.11255 0 0-.338 0-.338v-.29648h-.19819s.60057-1.07717.99557-1.02717z"/></g></g></g></svg>