<svg fill="none" height="12" viewBox="0 0 16 12" width="16" xmlns="http://www.w3.org/2000/svg" xmlns:xlink="http://www.w3.org/1999/xlink"><mask id="a" height="12" maskUnits="userSpaceOnUse" width="16" x="0" y="0"><path d="m0 0h16v12h-16z" fill="#fff"/></mask><mask id="b" height="12" maskUnits="userSpaceOnUse" width="16" x="0" y="0"><path clip-rule="evenodd" d="m0 0v12h16v-12z" fill="#fff" fill-rule="evenodd"/></mask><g mask="url(#a)"><path clip-rule="evenodd" d="m0 0v12h16v-12z" fill="#3d58db" fill-rule="evenodd"/><g mask="url(#b)"><path clip-rule="evenodd" d="m4 5.5-.4085 1.47206.0038-1.52768-.7905 1.30725.41582-1.47-1.11388 1.0455.79701-1.3033-1.35466.70621 1.11908-1.03994-1.49495.31454 1.35815-.69946-1.52438-.10045 1.49651-.30709-1.44075-.50801 1.52386.10805-1.25027-.87788 1.43821.51518-.96706-1.18264 1.24588.88409-.61212-1.39969.96115 1.18744-.21179-1.51293.60514 1.40272.20425-1.51397.20425 1.51397.60514-1.40272-.21179 1.51293.96115-1.18744-.61212 1.39969 1.24588-.88409-.96706 1.18264 1.43821-.51518-1.25027.87788 1.52386-.10805-1.44075.50801 1.49651.30709-1.52438.10045 1.35815.69946-1.49495-.31454 1.11908 1.03994-1.35466-.70621.79701 1.3033-1.11388-1.0455.41582 1.47-.7905-1.30725.0038 1.52768z" fill="#f7fcff" fill-rule="evenodd"/><path d="m-.390991 12.3726 17.020091-11.765178v3.835388z" fill="#fff"/><path d="m-.390991 12.3726 17.020091-14.76518v3.83539z" fill="#e2ae57"/></g></g></svg>