<svg fill="none" height="15" viewBox="0 0 20 15" width="20" xmlns="http://www.w3.org/2000/svg" xmlns:xlink="http://www.w3.org/1999/xlink"><mask id="a" height="15" maskUnits="userSpaceOnUse" width="20" x="0" y="0"><path d="m0 0h20v15h-20z" fill="#fff"/></mask><mask id="b" height="15" maskUnits="userSpaceOnUse" width="20" x="0" y="0"><path clip-rule="evenodd" d="m0 0v15h20v-15z" fill="#fff" fill-rule="evenodd"/></mask><mask id="c" height="9" maskUnits="userSpaceOnUse" width="11" x="0" y="0"><path d="m0 0h11v9h-11z" fill="#fff"/></mask><mask id="d" fill="#000" height="11" maskUnits="userSpaceOnUse" width="13" x="-1" y="-1"><path d="m-1-1h13v11h-13z" fill="#fff"/><path clip-rule="evenodd" d="m6 0h-1v4h-5v1h5v4h1v-4h5v-1h-5z" fill="#000" fill-rule="evenodd"/></mask><g mask="url(#a)"><path clip-rule="evenodd" d="m0 0v15h20v-15z" fill="#2e42a5" fill-rule="evenodd"/><g mask="url(#b)"><path d="m0 0h11v9h-11z" fill="#2e42a5"/><g mask="url(#c)"><path d="m-1.25269 8.12494 2.4756 1.08575 10.08329-8.03017 1.3058-1.613458-2.64732-.362889-4.11271 3.460427-3.31032 2.33153z" fill="#f7fcff"/><path d="m-.913757 8.88555 1.261201.63007 11.795656-10.098567h-1.7709z" fill="#f50100"/><path d="m12.5026 8.1248-2.1971 1.39571-10.3617172-8.34013-1.3058228-1.613456 2.6473-.36289 4.11271 3.460436 3.31031 2.33152z" fill="#f7fcff"/><path d="m12.4182 8.6707-1.2612.63008-5.02275-4.32372-1.48913-.48308-6.13281-4.921584h1.770875l6.129365 4.804764 1.62809.57926z" fill="#f50100"/><path clip-rule="evenodd" d="m6 0h-1v4h-5v1h5v4h1v-4h5v-1h-5z" fill="#f50100" fill-rule="evenodd"/><path d="m5 0v-.9375h-.9375v.9375zm1 0h.9375v-.9375h-.9375zm-1 4v.9375h.9375v-.9375zm-5 0v-.9375h-.9375v.9375zm0 1h-.9375v.9375h.9375zm5 0h.9375v-.9375h-.9375zm0 4h-.9375v.9375h.9375zm1 0v.9375h.9375v-.9375zm0-4v-.9375h-.9375v.9375zm5 0v.9375h.9375v-.9375zm0-1h.9375v-.9375h-.9375zm-5 0h-.9375v.9375h.9375zm-1-3.0625h1v-1.875h-1zm.9375 3.0625v-4h-1.875v4zm-5.9375.9375h5v-1.875h-5zm.9375.0625v-1h-1.875v1zm4.0625-.9375h-5v1.875h5zm.9375 4.9375v-4h-1.875v4zm.0625-.9375h-1v1.875h1zm-.9375-3.0625v4h1.875v-4zm5.9375-.9375h-5v1.875h5zm-.9375-.0625v1h1.875v-1zm-4.0625.9375h5v-1.875h-5zm-.9375-4.9375v4h1.875v-4z" fill="#f7fcff" mask="url(#d)"/></g><g clip-rule="evenodd" fill-rule="evenodd"><path d="m13.1542 6.27051s.5538 7.45709 3.0512 7.45709c2.4975 0 3.1117-7.45709 3.1117-7.45709z" fill="#feca00" stroke="#f7fcff" stroke-width=".5"/><path d="m16.1945 6.63864.0915-.10329.4337.27629c.0628-.09767.1747-.1431.3313-.13561l-.1582-.24089.1288-.06863.3003.36146.0297.00932-.0761-.4697.1509-.01759.0986.60866c.0025-.00012.0048-.00019.0072-.00019.0425 0 .0904.02051.1396.05308l.1072-.66155.1509.01759-.0761.4697.0297-.00932.3003-.36146.1288.06863-.1582.24089c.1566-.00749.2685.03794.3313.13561l.4337-.27629.0915.10329-.4758.30314c.0065.03427.0098.07182.0098.11265v.07031l.6567-.14394.0484.12215-.7051.24985v.0853l.6685-.05414.0201.12797-.6886.10022v.14738l.6903.11406-.0278.12702-.6625-.09904v1.43633h-.1016v-1.45152l-.4445-.06644c-.0498.35145-.1059.79392-.098.9539.0077.15806.1257.22579.2086.27334.0644.03699.1076.06177.061.10734-.1064.10417-.3722.20395-.6382.20395s-.5283-.09978-.5851-.20395c-.0102-.01858-.0089-.01708.0002-.00663.042.04812.2495.28609.2657-.37405.0089-.36222-.0443-.68921-.1054-.93911l-.3455.05165v1.45152h-.1016v-1.43633l-.6625.09904-.0278-.12702.6903-.11406v-.14738l-.6886-.10022.0201-.12797.6685.05414v-.0853l-.7051-.24985.0484-.12215.6567.14394v-.07031c0-.04083.0033-.07838.0098-.11265zm.8692 1.03217c.002.00695.004.01398.0061.02111l-.3077.05083v-.11582zm.0064-.47436c-.0047.0051-.0092.01012-.0136.01506l-.2944-.06451v-.09257c0-.01847.0007-.03607.0022-.05279zm.1956-.19344c-.0342.02941-.0679.06111-.0998.0929l-.3634-.23154c.051-.08862.1515-.12085.308-.09766zm.6683.1601.4689-.29874c-.051-.08862-.1515-.12085-.308-.09766l-.2176.33128c.0199.02193.0389.04388.0567.06512zm.1582.06085.3489-.22232c.0015.01672.0022.03432.0022.05279v.09257zm.1405.23942.2106-.07459v.05754zm-.1621.21779.3727-.05424v.11582zm-1.3085-.29238v.05754l.2106.01705z" fill="#cf6900"/><path d="m15.5487 9.90186s-.821 1.37504-.821 2.20854c0 0 .5594.4437 1.5218.4437.9623 0 1.4574-.4437 1.4574-.4437-.2709-.988-.7321-2.20854-.7321-2.20854z" fill="#00a727"/><path d="m15.5887 9.52207c0-.37867.307-.68564.6857-.68564s.6856.30697.6856.68564v.46906h-1.3713z" fill="#e31d1c"/><path d="m13.4495 8.02087s1.0836.22325 1.0836.57528.4364.47896.5436.38379c.1072-.09516.8623-.16173.8623-.62059 0-.45885.063-.58377-.1204-.87515s-.5659-1.27634-.6539-.88171c-.088.39462-.2205.68697-.4652.45174-.2448-.23524-.5591-.73325-.6694-.45174-.1104.28151.3496.56407 0 .56407-.3497 0-.1033.01846-.1033.25681 0 .23836.0415.46304-.2179.46304s-.2594.13446-.2594.13446z" fill="#ff927f"/></g></g></g></svg>