<svg fill="none" height="24" viewBox="0 0 32 24" width="32" xmlns="http://www.w3.org/2000/svg" xmlns:xlink="http://www.w3.org/1999/xlink"><mask id="a" height="24" maskUnits="userSpaceOnUse" width="32" x="0" y="0"><path d="m0 0h32v24h-32z" fill="#fff"/></mask><mask id="b" height="24" maskUnits="userSpaceOnUse" width="32" x="0" y="0"><path clip-rule="evenodd" d="m0 0v24h32v-24z" fill="#fff" fill-rule="evenodd"/></mask><g mask="url(#a)"><path clip-rule="evenodd" d="m0 0v24h32v-24z" fill="#f7fcff" fill-rule="evenodd"/><g mask="url(#b)"><g clip-rule="evenodd" fill-rule="evenodd"><path d="m0 12v12h32v-12z" fill="#56c6f5"/><path d="m10.2542 9.02848c-.0074-.08451-.0251-.15756-.0557-.21452-.25686-.47875-.1739-1.07782-.1739-1.07782s-.3067.70156-.48667 1.36207c-.18919-.30759-.25533-.61574-.25533-.61574s-.12244 1.93753.2519 2.39663.6239.6608.6239.6608.0283-.8045-.0806-1.4337c.0768-.26253.146-.55008.1709-.79766.0491-.03638.1786-.1336.3406-.26581-.0683.37678-.0717.5815-.0717.5815s1.4106-1.0242 1.4465-1.56633c.0358-.54213.4237-1.00619.4237-1.00619s-.3207.21945-.6869.51373c.0968-.45507.3965-.81373.3965-.81373s-1.6022 1.0964-1.7335 1.67403c-.0571.25125-.0904.45392-.1097.60274zm.0686 3.33042c-.1536-.2901-.82217-1.506-1.28849-1.6118-.52984-.1202-.92752-.5759-.92752-.5759s.83227 1.754 1.38224 1.9741c.44167.1767.73247.2472.82987.2681-.016.2365-.0188.3998-.0188.3998s.2598-.1883.6576-.6272c.3979-.4389.377-2.3802.377-2.3802s-.1577.5839-.5812.9242c-.2841.2283-.3911 1.0878-.4307 1.6289zm-1.25142-.1835c.60531-.0036 1.53652 1.4807 1.53652 1.4807s-.3608.0198-.99099-.0798c-.63023-.0996-1.61252-1.7909-1.61252-1.7909s.46167.3935 1.06699.39zm2.95062 3.4569s.3592-1.8915-.1802-2.3324c-.5393-.441-.6345-1.0999-.6345-1.0999s-.4791 2.0975 0 2.6407c.4792.5431.8147.7916.8147.7916zm-2.17629-.5107c.35219.4176 1.47439 0 1.47439 0s.2473.2246-.6427-.5888c-.88994-.8134-2.70086-.2997-2.2135-.2997s1.02958.4709 1.38181.8885zm.83169 2.2204c.653.5529 2.0638-.7619 2.0638-.7619s-.3632-.4398-1.0363-.764c-.6732-.3242-3.15619 0-3.15619 0l1.10501.4918s-1.23001.4811-.90352.4543c.32649-.0269 1.2743.0268 1.9272.5798z" fill="#006923"/><path d="m19.2135 16.1965s-.5613-.9434 0-1.3991c.5614-.4558.7836-.1527.7836-.6766 0-.524.0568-.368.3326-.6281.2758-.2602.0804-.892.4498-.5761s.4384-.2899.4384.9686 0-1.1414 0-1.8482c0-.7069-.4384-.5395-.4384-1.0136 0-.474-.4384-1.18194 0-1.18194s.6961.52674.6961.52674.4307.7341.4307 0c0-.73417-.7668-.51591-1.1268-1.32605-.3599-.81014-.303.09086-.7824-.95306s-1.0502-1.37518-.5251-1.37518h.8577c.4498 0 1.1459-.37363 1.1459 0v.7888c0 .58638.4307.58638.4307.58638s.2342-1.17277.5284-.58638c.2941.58638.0939 1.53944.3091 1.53944.2153 0 .0371-.98491.5073-.23055.4701.75437 0 1.2656 0 1.5566s-.5073 1.004-.5073 1.004.0991.3487.5073 0c.4082-.3488.7954-.6975.7954-.3488 0 .3488.7954.4571 0 1.0136-.7954.5564-.2882 1.1136-.7954 1.1136-.5073 0-1.1049.7346-1.3448.7346s-1.1369.5625-.6884.5625.9076-1.125 1.2168-.5625c.3091.5625.3051-.0913.5607.2356.2557.3269.5113 2.1006.2557 1.3886-.2557-.712-.6564-.712-1.3448-.712s-2.0264.0514-1.5766.3817.9551-.3303 1.1459 0 .1353.6606.4307.3303.586 0 .8375 0c.2516 0-.2515.3697 0 .6871.2516.3173.8124.7401.2516.7401-.5607 0-.8492-.4483-1.0891 0s-.25 1.2269-.6884.6135c-.4384-.6135-1.2208-.3021-1.2208-.6135s.1711-.3617-.3062-.3617c-.4774 0-.4774-.3784-.4774-.3784z" fill="#093"/><path d="m21.516 9.44995c0 .13807-.1083.25-.2419.25s-.2419-.11193-.2419-.25.1083-.25.2419-.25.2419.11193.2419.25zm-11.1774.55c.1336 0 .242-.11193.242-.25s-.1084-.25-.242-.25-.2419.11193-.2419.25.1083.25.2419.25zm.242 1.05005c0 .138-.1084.25-.242.25s-.2419-.112-.2419-.25c0-.1381.1083-.25.2419-.25s.242.1119.242.25zm.1451 2.55c.1336 0 .2419-.112.2419-.25 0-.1381-.1083-.25-.2419-.25s-.2419.1119-.2419.25c0 .138.1083.25.2419.25zm1.9355 2.5c.1336 0 .2419-.112.2419-.25 0-.1381-.1083-.25-.2419-.25s-.2419.1119-.2419.25c0 .138.1083.25.2419.25zm9.2903-3.8c.1336 0 .242-.112.242-.25 0-.1381-.1084-.25-.242-.25s-.2419.1119-.2419.25c0 .138.1083.25.2419.25zm-.5322 1.75c0 .138-.1084.25-.242.25s-.2419-.112-.2419-.25c0-.1381.1083-.25.2419-.25s.242.1119.242.25zm-2.2742 2.45c.1336 0 .2419-.112.2419-.25 0-.1381-.1083-.25-.2419-.25-.1337 0-.242.1119-.242.25 0 .138.1083.25.242.25zm-6.1452.05c0 .138-.1083.25-.2419.25s-.242-.112-.242-.25c0-.1381.1084-.25.242-.25s.2419.1119.2419.25z" fill="#c51918"/><path d="m18.0377 19.8199c0-.2049-3.1006-2.3417-3.9328-2.813s-4.89596-3.0653-3.7893-7.0067h-.1675s-.7489 4.8565 4.4111 7.8753c2.3495 1.5761 2.4665 1.9444 2.4665 1.9444s1.012.2048 1.012 0z" fill="#feca00"/><path d="m13.9242 19.8199c0-.2049 3.1006-2.3417 3.9328-2.813s4.896-3.0653 3.7893-7.0067h.1675s.7489 4.8565-4.4111 7.8753c-2.3495 1.5761-2.4665 1.9444-2.4665 1.9444s-1.012.2048-1.012 0z" fill="#feca00"/><path d="m16.0485 16.8856c2.1646 0 3.9194-2.8018 3.9194-5.5356 0-2.73386-1.7548-4.15005-3.9194-4.15005s-3.9193 1.41619-3.9193 4.15005c0 2.7338 1.7547 5.5356 3.9193 5.5356z" fill="#56c6f5"/><path d="m14.3131 9.53886s.6036-.53239.3018-.53239c-.0585 0-.1298-.01143-.2066-.02375-.3194-.05124-.7353-.11796-.7353.55614v1.15844l-.0001.0027h-.0891c-.0552 0-.1.0448-.1.1s.0448.1.1.1h.0782c-.0133.2474-.037.6874-.0602 1.1272l-.1145.01c-.0591.0052-.1029.0574-.0977.1165l.0074.0847c.0052.0591.0573.1029.1165.0977l.0723-.0063c-.0268.5138-.0495.9635-.0495 1.0185 0 .1352.9183.0829.9183.0829s-.0286-.5421-.06-1.1722l.0615-.0054c.0592-.0051.1029-.0573.0978-.1165l-.0075-.0846c-.0051-.0591-.0573-.1029-.1164-.0977l-.0503.0044c-.0185-.3774-.0367-.7605-.0493-1.0592h.1179c.0553 0 .1-.0448.1-.1s-.0447-.1-.1-.1h-.126c-.0058-.1493-.0092-.2614-.0092-.318z" fill="#fff"/><path d="m13.8708 11h.3226v.4301h-.3226z" fill="#000"/><path d="m13.7742 12.5h.5376v1h-.5376z" fill="#000"/><path d="m16.3454 9.53886s.6036-.53239.3018-.53239c-.0586 0-.1298-.01143-.2067-.02375-.3194-.05124-.7353-.11796-.7353.55614v1.15844l-.0001.0027h-.0891c-.0552 0-.1.0448-.1.1s.0448.1.1.1h.0783c-.0134.2474-.0371.6874-.0603 1.1272l-.1145.01c-.0591.0052-.1029.0574-.0977.1165l.0074.0847c.0052.0591.0573.1029.1165.0977l.0724-.0063c-.0269.5138-.0496.9635-.0496 1.0185 0 .1352.9183.0829.9183.0829s-.0285-.5421-.06-1.1722l.0615-.0054c.0592-.0051.103-.0573.0978-.1165l-.0074-.0846c-.0052-.0591-.0574-.1029-.1165-.0977l-.0503.0044c-.0185-.3774-.0366-.7605-.0493-1.0592h.118c.0552 0 .1-.0448.1-.1s-.0448-.1-.1-.1h-.1261c-.0058-.1493-.0091-.2614-.0091-.318z" fill="#fff"/><path d="m15.9031 11h.3226v.4301h-.3226z" fill="#000"/><path d="m15.8064 12.5h.5376v1h-.5376z" fill="#000"/><path d="m18.2809 9.53886s.6036-.53239.3018-.53239c-.0585 0-.1298-.01143-.2066-.02375-.3194-.05124-.7353-.11796-.7353.55614v1.15844l-.0002.0027h-.089c-.0552 0-.1.0448-.1.1s.0448.1.1.1h.0782c-.0134.2474-.037.6874-.0603 1.1272l-.1144.01c-.0592.0052-.1029.0574-.0978.1165l.0075.0847c.0051.0591.0573.1029.1164.0977l.0724-.0063c-.0268.5138-.0495.9635-.0495 1.0185 0 .1352.9183.0829.9183.0829s-.0286-.5421-.0601-1.1722l.0616-.0054c.0591-.0051.1029-.0573.0977-.1165l-.0074-.0846c-.0052-.0591-.0573-.1029-.1165-.0977l-.0502.0044c-.0185-.3774-.0367-.7605-.0493-1.0592h.1179c.0552 0 .1-.0448.1-.1s-.0448-.1-.1-.1h-.1261c-.0057-.1493-.0091-.2614-.0091-.318z" fill="#fff"/><path d="m17.8386 11h.3226v.4301h-.3226z" fill="#000"/><path d="m17.7419 12.5h.5377v1h-.5377z" fill="#000"/><path d="m18.516 6.40015h-5.129v.76563l-.0344.00308s-2.5129 1.95273-1.8155 4.87794c.6974 2.9252 3.4676 5.0945 3.4676 5.0945l.1396-.5048s-2.6396-3.5892-2.6396-5.0234.498-2.78028 1.0253-2.98958c.3172-.12589.3719-.10034.4583-.05999.0573.02675.1284.05999.2991.05999.4283 0 .8569-.30657.8569-.30657s.298.30657.5748.30657.2807-.30657.2807-.30657v-1.0168h.0309v1.0168s.0039.30657.2807.30657.5748-.30657.5748-.30657.4286.30657.8569.30657c.1707 0 .2418-.03324.2991-.05999.0864-.04035.1411-.0659.4583.05999.5273.2093 1.0253 1.55538 1.0253 2.98958s-2.6396 5.0234-2.6396 5.0234l.1396.5048s2.7702-2.1693 3.4676-5.0945c.6974-2.92521-1.8155-4.87794-1.8155-4.87794l-.1619-.01447z" fill="#e8aa00"/></g><path d="m13.387 6.40015v-.5h-.5v.5zm5.129 0h.5v-.5h-.5zm-5.129.76563.0445.49802.4555-.04073v-.45729zm-.0344.00308-.0445-.49801-.1463.01308-.116.09012zm-1.8155 4.87794-.4864.1159zm3.4676 5.0945-.3083.3936.5903.4623.1999-.7226zm.1396-.5048.4819.1333.0647-.234-.1438-.1956zm-1.6143-8.01298-.1845-.46473zm.4583-.05999-.2116.45304zm1.156-.24658.3586-.34849-.2997-.30835-.3498.25017zm.8555 0 .5.00632v-.00632zm0-1.0168v-.5h-.5v.5zm.0309 0h.5v-.5h-.5zm0 1.0168h-.5l.0001.00632zm.8555 0 .2909-.40667-.3498-.25017-.2997.30835zm1.156.24658.2116.45304zm.4583.05999-.1845.46473zm-1.6143 8.01298-.4028-.2963-.1438.1956.0647.234zm.1396.5048-.4819.1333.1999.7226.5903-.4623zm1.6521-9.97244.3068-.39481-.116-.09012-.1463-.01308zm-.1619-.01447h-.5v.45729l.4555.04072zm-5.129-.25424h5.129v-1h-5.129zm.5.26563v-.76563h-1v.76563zm-.4899.50109.0344-.00307-.089-.99603-.0344.00308zm-1.3736 4.26393c-.3078-1.2909.0876-2.37183.5822-3.1523.2473-.3904.5156-.6985.7219-.90847.1027-.10462.1891-.18386.2482-.23575.0295-.02592.0522-.04494.0666-.05681.0072-.00593.0123-.01006.0152-.01238.0015-.00115.0023-.00185.0026-.00209.0002-.00012.0002-.00012.0001-.00001-.0001.00005-.0002.00014-.0004.00025 0 .00006-.0002.00017-.0002.00019-.0002.00012-.0003.00024-.3071-.39457s-.307-.39467-.3072-.39453c-.0001.00006-.0002.00021-.0004.00033-.0003.00023-.0006.00049-.001.00079-.0008.00059-.0017.00129-.0027.00212-.0021.00167-.0048.00381-.0081.00644-.0066.00525-.0155.01244-.0265.02152-.0221.01817-.0527.04396-.0905.07715-.0756.06632-.1801.16249-.3021.28665-.2431.24758-.5595.61048-.8531 1.07391-.5876.9272-1.0999 2.28526-.7103 3.91946zm2.9812 5.2105c.3082-.3937.3083-.3936.3084-.3935h.0001c.0001.0001.0001.0001 0 .0001 0-.0001-.0002-.0003-.0006-.0006-.0008-.0006-.0022-.0017-.0043-.0034-.0041-.0033-.0108-.0086-.0199-.0159-.0181-.0148-.0457-.0375-.0818-.0679-.0721-.0608-.1776-.1522-.3071-.2714-.2593-.2387-.6131-.5872-.9878-1.0235-.7553-.8796-1.5658-2.0819-1.8882-3.4344l-.9728.2319c.375 1.5728 1.2983 2.9177 2.1024 3.854.4051.4717.7873.8484 1.0692 1.1078.1411.1299.2575.2308.3396.3001.0411.0346.0736.0613.0964.0798.0114.0093.0204.0165.0268.0216.0032.0025.0057.0046.0076.0061.001.0007.0017.0013.0024.0018.0003.0002.0005.0004.0007.0006.0002.0001.0003.0002.0003.0003.0002 0 .0003.0001.3086-.3935zm-.3423-.6382-.1396.5049.9638.2666.1396-.5048zm-2.6577-4.89c0 .4761.2083 1.0555.4582 1.5988.2591.5636.6003 1.1655.9353 1.712.336.5482.6712 1.0495.922 1.4132.1256.1821.2304.3302.304.4332.0368.0514.0658.0917.0858.1192.01.0138.0177.0244.023.0316.0027.0036.0047.0064.0062.0084.0007.0009.0012.0017.0016.0022.0002.0003.0004.0005.0005.0007 0 .0001.0001.0001.0001.0002.0001 0 .0001.0001.4029-.2961.4028-.2963.4028-.2963.4028-.2962 0-.0001 0-.0001 0-.0001 0-.0001-.0001-.0002-.0003-.0003-.0002-.0004-.0006-.0009-.0012-.0017-.0011-.0015-.0028-.0039-.0052-.0071-.0046-.0064-.0117-.0161-.0211-.029-.0187-.0257-.0463-.064-.0817-.1135-.0707-.0989-.1722-.2424-.2941-.4192-.2441-.3541-.5688-.8397-.8927-1.3681-.3249-.5301-.6436-1.0943-.8794-1.6071-.2451-.533-.3667-.9401-.3667-1.1811zm1.3408-3.45431c-.2667.10589-.4669.32407-.6119.53768-.1517.22358-.2808.49813-.3857.79678-.2102.59805-.3432 1.34945-.3432 2.11985h1c0-.6638.1159-1.3025.2866-1.78837.0855-.24332.1798-.43418.2697-.56667.0967-.14248.1566-.17105.1535-.16981zm.8544-.04829c-.0598-.02789-.1916-.09136-.3877-.07819-.1475.0099-.3024.06127-.4667.12648l.369.92946c.0706-.02805.117-.04377.1468-.05233.0304-.00874.0329-.00687.0179-.00586-.0086.00058-.0218.00081-.0383-.00079-.0169-.00163-.0333-.00478-.0484-.00892-.0145-.00398-.0245-.00797-.0275-.00925-.0013-.00054-.0009-.00043.0117.00547zm.0875.01302c-.0265 0-.0442-.0013-.055-.00251-.0106-.00118-.015-.00232-.015-.00233-.0001-.00003.0002.00005.0009.00027.0006.00021.0009.00035.0007.00026-.0015-.00059-.0039-.00159-.0192-.00871l-.4231.90607c.0325.01516.101.04781.1966.07186.0935.02354.196.03509.3141.03509zm.8569.19343c-.2909-.40667-.2908-.40674-.2907-.4068 0-.00002.0001-.00009.0002-.00013.0001-.00008.0002-.00015.0003-.00022.0002-.00015.0004-.00027.0005-.00038.0003-.00022.0005-.00037.0006-.00045.0003-.00015.0001-.00005-.0004.00031-.001.00073-.0035.00244-.0074.00501-.0077.00515-.0207.01362-.0381.02431-.0353.02163-.0867.05106-.1481.08034-.1324.06318-.2678.10458-.3738.10458v1c.3223 0 .6154-.11189.8043-.202.0993-.04736.1818-.09457.2403-.13042.0294-.01805.0533-.03353.0707-.04515.0087-.00581.0158-.01068.0213-.01445.0027-.00189.005-.0035.0069-.00482.0009-.00066.0018-.00125.0025-.00176.0003-.00026.0007-.00049.001-.00071.0001-.00011.0003-.00021.0004-.00031.0001-.00005.0002-.00012.0002-.00015.0001-.00007.0002-.00014-.2907-.4068zm.5748-.19343c.0202 0 .0187.0047-.0091-.00726-.026-.01116-.0587-.02985-.0947-.05515-.035-.0246-.0656-.05012-.0875-.06959-.0107-.00949-.0185-.01691-.023-.02122-.0022-.00214-.0035-.00346-.0039-.00383-.0002-.00018-.0001-.00011.0002.00021.0002.00016.0004.00039.0007.00068.0001.00015.0003.00032.0005.0005.0001.00009.0002.00018.0003.00028 0 .00005.0001.00013.0001.00016.0001.00008.0002.00016-.3584.34865-.3585.34849-.3585.34857-.3584.34865.0001.00003.0001.00012.0002.00018.0001.00012.0002.00024.0004.00037.0002.00025.0005.00053.0008.00082.0005.00059.0012.00126.0019.002.0015.00149.0033.00327.0053.00534.0042.00412.0095.00939.016.01563.0129.01246.0305.02899.0521.04824.0427.03801.1038.08913.1779.14118.1273.08942.3787.24416.6786.24416zm.2807.19343c-.5-.00633-.5-.00655-.5-.00677 0-.00007 0-.00028 0-.00043 0-.00028 0-.00057 0-.00085 0-.00056 0-.0011 0-.00164.0001-.00106.0001-.00207.0001-.00303.0001-.00192.0001-.00365.0002-.00519.0001-.00308.0003-.0055.0004-.00738.0003-.00359.0006-.00581.0008-.00731.0001-.00054.0013-.00934.0084-.0246.0074-.0159.0283-.05365.0748-.08768.0522-.03819.1051-.04855.1346-.04855v1c.1679 0 .325-.04868.4558-.14436.1251-.09151.1989-.2059.2419-.29845.0426-.0919.062-.17734.0715-.23536.0049-.03024.0077-.05641.0093-.07678.0008-.01026.0013-.01926.0016-.02683.0001-.00379.0003-.00723.0003-.01031.0001-.00154.0001-.003.0001-.00436.0001-.00068.0001-.00133.0001-.00197 0-.00031 0-.00063 0-.00093 0-.00015 0-.00038 0-.00045 0-.00023 0-.00045-.4999-.00677zm-.5-1.0168v1.0168h1v-1.0168zm.5309-.5h-.0309v1h.0309zm-.5.5v1.0168h1v-1.0168zm.5 1.0168c-.4999.00632-.4999.00654-.4999.00677v.00045.00093c0 .00064 0 .00129.0001.00197 0 .00136 0 .00282.0001.00436 0 .00308.0002.00652.0003.01031.0003.00757.0008.01657.0016.02683.0016.02037.0044.04654.0093.07678.0095.05802.0289.14346.0715.23536.043.09255.1168.20694.2419.29845.1308.09568.2879.14436.4558.14436v-1c.0295 0 .0824.01036.1346.04855.0465.03403.0674.07178.0748.08768.0071.01526.0083.02406.0084.0246.0002.0015.0005.00372.0008.00731.0001.00188.0003.0043.0004.00738.0001.00154.0001.00327.0002.00519 0 .00096 0 .00197.0001.00303v.00164.00085.00043c0 .00022 0 .00044-.5.00677zm.2807.80657c.2999 0 .5513-.15474.6786-.24416.0741-.05205.1352-.10317.1779-.14118.0216-.01925.0392-.03578.0521-.04824.0065-.00624.0118-.01151.016-.01563.002-.00207.0038-.00385.0053-.00534.0007-.00074.0014-.00141.0019-.002.0003-.00029.0006-.00057.0008-.00082.0002-.00013.0003-.00025.0004-.00037.0001-.00006.0001-.00015.0002-.00018.0001-.00008.0001-.00016-.3584-.34865-.3586-.34849-.3585-.34857-.3584-.34865 0-.00003.0001-.00011.0001-.00016.0001-.0001.0002-.00019.0003-.00028.0002-.00018.0004-.00035.0005-.0005.0003-.00029.0005-.00052.0007-.00068.0003-.00032.0004-.00039.0002-.00021-.0004.00037-.0017.00169-.0039.00383-.0045.00431-.0123.01173-.023.02122-.0219.01947-.0525.04499-.0875.06959-.0361.0253-.0687.04399-.0947.05515-.0278.01196-.0293.00726-.0091.00726zm.5748-.80657c-.2909.40666-.2908.40673-.2907.4068 0 .00003.0001.0001.0002.00015.0001.0001.0003.0002.0004.00031.0003.00022.0007.00045.001.00071.0007.00051.0016.0011.0025.00176.0019.00132.0042.00293.0069.00482.0055.00377.0126.00864.0213.01445.0174.01162.0412.0271.0707.04515.0585.03585.141.08306.2403.13042.1889.09011.482.202.8043.202v-1c-.106 0-.2414-.0414-.3738-.10458-.0614-.02928-.1128-.05871-.1481-.08034-.0174-.01069-.0304-.01916-.0381-.02431-.0039-.00257-.0064-.00428-.0074-.00501-.0005-.00036-.0007-.00046-.0004-.00031.0001.00008.0003.00023.0006.00045.0001.00011.0003.00023.0005.00038.0001.00007.0002.00014.0003.00022.0001.00004.0002.00011.0002.00013.0001.00006.0002.00013-.2907.4068zm.8569.80657c.1181 0 .2206-.01155.3141-.03509.0956-.02405.1641-.0567.1966-.07186l-.4232-.90607c-.0152.00712-.0176.00812-.0191.00871-.0002.00009.0001-.00005.0007-.00026.0007-.00022.001-.0003.0009-.00027 0 .00001-.0044.00115-.015.00233-.0108.00121-.0285.00251-.055.00251zm.5107-.10695c.0126-.0059.013-.00601.0117-.00547-.003.00128-.013.00527-.0275.00925-.0151.00414-.0315.00729-.0484.00892-.0165.0016-.0297.00137-.0383.00079-.015-.00101-.0125-.00288.0179.00586.0298.00856.0762.02428.1468.05233l.369-.92946c-.1643-.06521-.3192-.11658-.4667-.12648-.1961-.01317-.3279.0503-.3877.07819zm.0622.07168c-.0031-.00124.0567.02733.1535.16981.0899.13249.1842.32335.2697.56667.1707.48587.2866 1.12457.2866 1.78837h1c0-.7704-.133-1.5218-.3432-2.11985-.1049-.29865-.234-.5732-.3857-.79678-.145-.21361-.3452-.43179-.6119-.53768zm.7098 2.52485c0 .241-.1216.6481-.3667 1.1811-.2358.5128-.5545 1.077-.8794 1.6071-.3239.5284-.6486 1.014-.8927 1.3681-.1219.1768-.2234.3203-.2941.4192-.0354.0495-.063.0878-.0817.1135-.0094.0129-.0165.0226-.0211.029-.0024.0032-.0041.0056-.0052.0071-.0006.0008-.001.0013-.0012.0017-.0002.0001-.0003.0002-.0003.0003v.0001c0-.0001 0-.0001.4028.2962.4028.2962.4028.2961.4029.2961 0-.0001.0001-.0001.0001-.0002.0001-.0002.0003-.0004.0005-.0007.0004-.0005.0009-.0013.0016-.0022.0015-.002.0035-.0048.0062-.0084.0053-.0072.013-.0178.023-.0316.02-.0275.049-.0678.0858-.1192.0736-.103.1784-.2511.304-.4332.2508-.3637.586-.865.922-1.4132.335-.5465.6762-1.1484.9353-1.712.2499-.5433.4582-1.1227.4582-1.5988zm-2.6215 5.1567.1396.5048.9638-.2666-.1396-.5049zm.6215.3715c.3083.3936.3084.3935.3086.3935 0-.0001.0001-.0002.0003-.0003.0002-.0002.0004-.0004.0007-.0006.0007-.0005.0014-.0011.0024-.0018.0019-.0015.0044-.0036.0076-.0061.0064-.0051.0154-.0123.0268-.0216.0228-.0185.0553-.0452.0964-.0798.0821-.0693.1985-.1702.3396-.3001.2819-.2594.6641-.6361 1.0692-1.1078.8041-.9363 1.7274-2.2812 2.1024-3.854l-.9728-.2319c-.3224 1.3525-1.1329 2.5548-1.8882 3.4344-.3747.4363-.7285.7848-.9878 1.0235-.1295.1192-.235.2106-.3071.2714-.0361.0304-.0637.0531-.0818.0679-.0091.0073-.0158.0126-.0199.0159-.0021.0017-.0035.0028-.0043.0034-.0004.0003-.0006.0005-.0006.0006-.0001 0-.0001 0 0-.0001h.0001c.0001-.0001.0002-.0002.3084.3935zm3.954-4.9786c.3896-1.6342-.1227-2.99226-.7103-3.91946-.2936-.46343-.61-.82633-.8531-1.07391-.122-.12416-.2265-.22033-.3021-.28665-.0378-.03319-.0684-.05898-.0905-.07715-.011-.00908-.0199-.01627-.0265-.02152-.0033-.00263-.006-.00477-.0081-.00644-.001-.00083-.0019-.00153-.0027-.00212-.0004-.0003-.0007-.00056-.001-.00079-.0002-.00012-.0004-.00027-.0004-.00033-.0002-.00014-.0004-.00028-.3072.39453s-.3069.39469-.3071.39457c0-.00002-.0002-.00013-.0002-.00019-.0002-.00011-.0003-.0002-.0004-.00025-.0001-.00011-.0001-.00011.0001.00001.0003.00024.0011.00094.0026.00209.0029.00232.008.00645.0152.01238.0144.01187.0371.03089.0666.05681.0591.05189.1455.13113.2482.23575.2063.20997.4746.51807.7219.90847.4946.78047.89 1.8614.5822 3.1523zm-2.2574-5.49185-.1619-.01448-.089.99603.1619.01447zm-.7064-.2707v.75424h1v-.75424z" fill="#ffd018"/><g clip-rule="evenodd" fill-rule="evenodd"><path d="m13.1035 13.7849s.3145-.8444.8644-.5629c.55.2815.502 1.2613 1.0023.9121.5004-.3492.2167-.9121.9581-.9121.7415 0 .6323.9121 1.0769.9121.4447 0 .4832-.9121.9802-.9121.4971 0 1.0012.5629 1.0012.5629l-2.9415 4.0025z" fill="#8fc753"/><path d="m7.92888 18.4574-.31638-.4264s1.31207 0 1.49007.3086c.05017.0869.07206.1533.08872.2039.04246.1288.05096.1546.40687.1546.49554 0 0-.4917-.20636-.6671-.20635-.1753-.08069-.481.20636-.481.11062 0 .30318-.0254.53984-.0565.3775-.0498.8672-.1143 1.3159-.1143.7301 0 .1249.6518.1249.6518s.9452 0 .7106-.2712c-.2347-.2713.7879-.6014 1.2297-.6014.4119 0 2.266.0925 2.5154.105.2608-.0125 2.1991-.105 2.6109-.105.4418 0 1.4644.3301 1.2297.6014-.2346.2712.7106.2712.7106.2712s-.6052-.6518.1249-.6518c.4487 0 .9384.0645 1.3159.1143.2367.0311.4292.0565.5399.0565.287 0 .4127.3057.2063.481-.2063.1754-.7019.6671-.2063.6671.3559 0 .3644-.0258.4068-.1546.0167-.0506.0386-.117.0887-.2039.1717-.2976 1.3986-.3082 1.4853-.3085-.0198-.0363-.0311-.0781-.0311-.1227 0-.138.1083-.25.242-.25.1336 0 .2419.112.2419.25 0 .1381-.1083.25-.2419.25-.0891 0-.1668-.0496-.2089-.1236l-.3136.4226.3266.4043c.044-.0626.1153-.1033.1959-.1033.1336 0 .2419.112.2419.25 0 .1381-.1083.25-.2419.25-.1337 0-.242-.1119-.242-.25 0-.0285.0047-.0559.0132-.0814-.185-.0899-.5046-.2289-.7119-.2289h-.5775c.1453 0 .9449.5276.7028.7562l-.0411.0389c-.2375.2258-.5473.5204-.8397.3597-.3094-.17-.4955-.3986-.4955-.3986l-.2425-.7562s-1.4292-.3689-1.4292-.1135c0 .2553-.004.3804-.5108.3804-.2836 0-.5577-.0482-.799-.0905-.1899-.0334-.3595-.0632-.4977-.0632-.1976 0-.503.061-.7289.1061-.1327.0265-.2381.0476-.2781.0476-.1082 0-.6869-.0261-.2903-.2669.3966-.2407.488-.4917.488-.4917s-1.5875.2358-2.2156.2503v.0007l-.0284-.0002-.0284.0002v-.0007c-.6228-.0146-2.1189-.2503-2.1189-.2503s.0914.251.488.4917c.3966.2408-.1821.2669-.2903.2669-.04 0-.1454-.0211-.2781-.0476-.2259-.0451-.5313-.1061-.7289-.1061-.1382 0-.3078.0298-.4977.0632-.2413.0423-.5154.0905-.799.0905-.5068 0-.5108-.1251-.5108-.3804 0-.2554-1.42919.1135-1.42919.1135l-.24245.7562s-.18613.2286-.49559.3986c-.29232.1607-.60216-.1339-.8397-.3597l-.04101-.0389c-.24217-.2286.55749-.7562.70271-.7562h-.57741c-.30638 0-.85784.3035-.85784.3035zm-.68694-.299c.13361 0 .24193-.1119.24193-.25 0-.138-.10832-.25-.24193-.25-.13362 0-.24194.112-.24194.25 0 .1381.10832.25.24194.25zm0 1.1c.13361 0 .24193-.1119.24193-.25 0-.138-.10832-.25-.24193-.25-.13362 0-.24194.112-.24194.25 0 .1381.10832.25.24194.25z" fill="#fff"/><path d="m15.8945 2.02954h.2v.21436h.2456v.2h-.2456v.36405c.2758.04659.4862.29395.4862.59211 0 .33137-.2599.6-.5806.6s-.5807-.26863-.5807-.6c0-.2941.2048-.53879.4751-.5901v-.36606h-.2258v-.2h.2258z" fill="#ffd018"/><path d="m13.7468 5.22595c-.28 0-.8703.29938-.8703.29938l.459 1.01794 2.7686-.10387 2.7687.10387.459-1.01794s-.5903-.29938-.8703-.29938c-.1229 0-.1385-.07233-.156-.15348-.0224-.10364-.0478-.22165-.304-.22165-.1812 0-.3093.03007-.413.05442-.1576.037-.2588.06078-.4048-.05442-.0061-.0048-.0122-.00962-.0183-.01444-.2363-.18668-.4818-.38057-.8789-.38057-.0792 0-.1384.07491-.1824.19557-.0439-.12066-.1031-.19557-.1823-.19557-.3971 0-.6426.19389-.8789.38057-.0061.00482-.0122.00964-.0183.01444-.146.1152-.2472.09142-.4048.05442-.1037-.02435-.2318-.05442-.413-.05442-.2562 0-.2816.11801-.304.22165-.0175.08115-.0331.15348-.156.15348z" fill="#e31d1c"/><path d="m15.6081 3.5686-.1943.06742c-.5136.17816-.9583.23693-1.334.17903-.7734-.11919-1.7826.28323-1.6561.87255.0554.25826.2171.74603.3853 1.15943.2334.57362.3968.86297.5879.86297.0247 0 .2842.01417.3707.01889.0155.00085.0255.00139.0275.00149.281.01423.5287.02175.767.02064.6892-.00322 1.1163-.07087 1.2688-.27762l.0449-.06084-.0213-.07328c-.1809-.62227-.2647-1.47594-.2494-2.55887zm-2.901 1.05406c-.062-.28897.7274-.60374 1.3299-.51089.3753.05785.8006.0143 1.2761-.12874-.0025.96257.076 1.74445.2368 2.34714-.1378.07209-.4999.11857-.9891.12085-.2323.00109-.4752-.00629-.7515-.02028.0024.00013-.2847-.01578-.383-.01982-.0033-.00332-.0071-.00748-.0114-.01248-.0259-.0302-.0583-.07902-.0948-.14367-.072-.12745-.156-.3091-.2434-.52402-.1621-.39819-.3185-.86998-.3696-1.10809z" fill="#ffd018"/><path d="m16.4546 3.5686.1944.06742c.5135.17816.9583.23693 1.3339.17903.7735-.11919 1.7826.28323 1.6562.87255-.0554.25826-.2172.74603-.3854 1.15943-.2334.57362-.3968.86297-.5879.86297-.0247 0-.2841.01417-.3706.01889-.0156.00085-.0255.00139-.0275.00149-.2811.01423-.5288.02175-.7671.02064-.6891-.00322-1.1162-.07087-1.2688-.27762l-.0449-.06084.0213-.07328c.181-.62227.2647-1.47594.2494-2.55887zm2.9011 1.05406c.062-.28897-.7274-.60374-1.3299-.51089-.3754.05785-.8007.0143-1.2761-.12874.0025.96257-.076 1.74445-.2368 2.34714.1377.07209.4998.11857.989.12085.2323.00109.4753-.00629.7516-.02028-.0025.00013.2846-.01578.3829-.01982.0033-.00332.0071-.00748.0114-.01248.026-.0302.0583-.07902.0948-.14367.072-.12745.156-.3091.2435-.52402.162-.39819.3185-.86998.3696-1.10809z" fill="#ffd018"/><path d="m12.8368 6.4712c.0003-.0555-.0317-.15573-.1016-.34187-.0963-.25644-.1622-.33415-.3021-.41964-.0709-.04328-.0985-.08078-.1319-.2099-.0267-.10329-.0538-.18389-.0848-.25819-.0063-.01511-.0198-.04517-.0328-.07411v-.00001c-.0134-.02972-.0262-.05826-.0302-.06822-.0216-.05434-.0305-.10267-.0305-.18102 0-.08932.0234-.16087.085-.29098.0369-.0777.0416-.08802.0547-.12079.0266-.06649.0402-.12398.0402-.18268v-.38514c0-.2249.0089-.2386.1193-.22368.0111.00149.0218.00321.0331.00523-.0041-.00074.0531.0104.0666.012.0263.00312.0479.00101.0697-.00883.0396-.01789.0687-.05297.1384-.15718.0328-.04908.0681-.04427.1935.01681.0178.00868.0283.01372.0398.01899.1283.05889.2173.0606.2931-.03192.1163-.14218.1932-.13311.3344.00412.0697.06778.1049.09344.1495.09999l.0037.00055c.047.00697.0499.00739.1823-.07377.0091.01878.0287.02603.0605.03344.0424.0099.1055.01326.1478.00665.0352-.0055.0601-.01635.0766-.05068.056-.00169.1222-.00259.1987-.00259v-.1c-.098 0-.1797.00145-.2457.00421-.0052-.00432-.0115-.00986-.0185-.01608v-.00001c-.0363-.03196-.0927-.08162-.1194-.07373-.0036.00105-.0141.01042-.0287.02333-.0232.02056-.0565.05009-.0878.06929-.1314.08064-.1364.08325-.1559.08039-.0173-.00255-.0421-.02062-.0968-.07382-.1772-.17228-.3167-.18874-.4746.00412-.0401.04891-.0865.04802-.1799.00512-.0106-.00488-.0206-.00967-.0378-.01805-.1674-.08154-.2419-.09169-.3145.01681-.0574.08599-.0817.11527-.0974.12236l-.0022.00114-.0012.00065c-.0035.0016-.008.00077-.0514-.00708l-.0262-.00474c-.0125-.00226-.0246-.00419-.0371-.00588-.1828-.0247-.2286.04582-.2286.32284v.38514c0 .04379-.0108.08914-.0329.14452-.012.02989-.0165.03979-.0522.11497-.0677.14299-.0949.22604-.0949.33496 0 .09118.0114.15242.0378.21901.0049.01219.0194.04461.0337.0764.0123.02751.0245.05455.0299.06758.0292.06981.0547.14579.0802.24435.0399.15453.0835.21363.1761.27019.1217.07434.1729.13474.2612.36974.0458.12208.0742.20774.0878.26132.0029.01107.0049.02035.0063.02782-.014.01124-.0123.01919-.0077.04135.0033.00761.0043.00994.0057.01206l.0022.00311v.00001c.0056.00676.0056.00676.0123.01232.0027.00209.0057.00397.0087.00559-.0018-.00028-.0033-.00086-.005-.00208.0058.0068.0136.0165.0233.02922.0948.12391.2141.12391.3282.00406l-.069-.07014c-.0749.07869-.1262.07869-.1833.00406zm1.1622-2.93663-.0018-.0009.0007.00034zm5.1163 2.93663c-.0003-.0555.0317-.15573.1016-.34187.0963-.25644.1621-.33415.3021-.41964.0709-.04328.0985-.08078.1319-.2099.0267-.10329.0538-.18389.0848-.25819.0063-.01511.0198-.04517.0328-.07411.0134-.02972.0262-.05827.0302-.06823.0216-.05434.0305-.10267.0305-.18102 0-.08932-.0234-.16087-.085-.29098-.0369-.0777-.0416-.08802-.0547-.12079-.0266-.06649-.0402-.12398-.0402-.18268v-.38514c0-.2249-.0089-.2386-.1194-.22368-.011.00149-.0217.00321-.033.00523.0041-.00074-.0531.0104-.0666.012-.0263.00312-.0479.00101-.0697-.00883-.0396-.01789-.0687-.05297-.1384-.15718-.0328-.04908-.0681-.04427-.1935.01681-.0178.00868-.0283.01372-.0398.01899-.1283.05889-.2173.0606-.2931-.03192-.1163-.14218-.1932-.13311-.3344.00412-.0697.06778-.1049.09344-.1495.09999l-.0037.00055c-.047.00697-.0499.00739-.1823-.07377-.0091.01878-.0287.02603-.0605.03344-.0424.0099-.1055.01326-.1478.00665-.0352-.0055-.0601-.01635-.0766-.05068-.056-.00169-.1222-.00259-.1987-.00259v-.1c.098 0 .1797.00145.2457.00421.0052-.00432.0115-.00987.0185-.01609.0363-.03196.0927-.08162.1194-.07373.0036.00105.0141.01042.0287.02332v.00001c.0223.01974.0538.04775.084.06694l.0038.00235c.1314.08064.1364.08325.1559.08039.0173-.00255.0421-.02062.0968-.07382.1772-.17228.3167-.18874.4746.00412.0401.04891.0865.04802.1799.00512.0106-.00488.0206-.00967.0378-.01805.1674-.08154.2419-.09169.3144.01681.0575.08599.0818.11527.0975.12236l.0022.00114.0012.00065c.0035.0016.008.00077.0514-.00708l.0262-.00474c.0125-.00226.0246-.00419.0371-.00588.1828-.0247.2286.04582.2286.32284v.38514c0 .04379.0108.08914.0329.14452.012.02989.0165.03979.0522.11497.0677.14299.0949.22604.0949.33496 0 .09118-.0114.15242-.0378.21901-.0049.01219-.0194.04461-.0337.07639-.0123.02752-.0245.05456-.0299.06759-.0292.06981-.0547.14579-.0802.24435-.0399.15453-.0835.21363-.1761.27019-.1217.07434-.1729.13474-.2612.36974-.0458.12208-.0742.20774-.0879.26132-.0028.01107-.0048.02035-.0062.02782.014.01124.0123.01919.0077.04135-.0033.00761-.0043.00994-.0057.01206l-.0022.00311c-.0056.00677-.0056.00677-.0123.01233-.0027.00209-.0057.00397-.0087.00559.0018-.00028.0032-.00086.005-.00208-.0058.0068-.0136.0165-.0233.02922-.0948.12391-.2141.12391-.3282.00406l.069-.07014c.0749.07869.1262.07869.1833.00406z" fill="#5e5e5e"/></g><path d="m13.7739 17.8852.0608-.4963c1.0745.1315 1.792.1973 2.1535.1976.5452.0245 1.1951-.015 1.9484-.1191l.0685.4953c-.7816.108-1.461.1493-2.0281.1235-.3774 0-1.1083-.067-2.2031-.201z" fill="#272727"/></g></g></svg>