<svg fill="none" height="24" viewBox="0 0 32 24" width="32" xmlns="http://www.w3.org/2000/svg" xmlns:xlink="http://www.w3.org/1999/xlink"><mask id="a" height="24" maskUnits="userSpaceOnUse" width="32" x="0" y="0"><path d="m0 0h32v24h-32z" fill="#fff"/></mask><mask id="b" height="24" maskUnits="userSpaceOnUse" width="32" x="0" y="0"><path clip-rule="evenodd" d="m0 0v24h32v-24z" fill="#fff" fill-rule="evenodd"/></mask><g mask="url(#a)"><path clip-rule="evenodd" d="m0 0v24h32v-24z" fill="#f7fcff" fill-rule="evenodd"/><g mask="url(#b)"><path clip-rule="evenodd" d="m0 0v8h32v-8z" fill="#3d58db" fill-rule="evenodd"/><path clip-rule="evenodd" d="m0 16v8h32v-8z" fill="#3d58db" fill-rule="evenodd"/><path d="m19.4254 11.8583c0 2.0113-1.6305 3.6418-3.6418 3.6418s-3.6418-1.6305-3.6418-3.6418c0-2.01126 1.6305-3.64175 3.6418-3.64175s3.6418 1.63049 3.6418 3.64175z" stroke="#e8aa00"/><path clip-rule="evenodd" d="m13.8107 9.66235s-.9525 1.56765-.9525 2.64385 1.1401 2.4289 2.934 2.4289c1.7498 0 3.0075-1.0452 3.0455-2.4289.0381-1.3837-.9413-2.36867-.9413-2.36867s.5543 1.99207.2772 2.79937c-.2772.8072-1.1742 1.7839-2.3814 1.6595-1.2072-.1243-2.3528-1.6102-2.3528-2.0902s.3713-2.64385.3713-2.64385z" fill="#1e601b" fill-rule="evenodd"/><path d="m14.1605 12.3283h3.2073" stroke="#188396"/><g stroke="#e8aa00"><path d="m14.459 11.8061h2.7595"/><path d="m17.0496 12.4113h-2.4562l1.2393-2.0563z"/></g></g></g></svg>