<svg width="33" height="24" viewBox="0 0 33 24" fill="none" xmlns="http://www.w3.org/2000/svg">
<mask id="mask0" mask-type="alpha" maskUnits="userSpaceOnUse" x="0" y="0" width="33" height="24">
<rect x="0.5" width="32" height="24" fill="white"/>
</mask>
<g mask="url(#mask0)">
<path fill-rule="evenodd" clip-rule="evenodd" d="M0.5 0V24H32.5V0H0.5Z" fill="#E31D1C"/>
<mask id="mask1" mask-type="alpha" maskUnits="userSpaceOnUse" x="0" y="0" width="33" height="24">
<path fill-rule="evenodd" clip-rule="evenodd" d="M0.5 0V24H32.5V0H0.5Z" fill="white"/>
</mask>
<g mask="url(#mask1)">
<path fill-rule="evenodd" clip-rule="evenodd" d="M0.5 8V16H32.5V8H0.5Z" fill="#272727"/>
<path fill-rule="evenodd" clip-rule="evenodd" d="M6.55282 11.9071L4.43994 14.02L5.85415 15.4342L7.96703 13.3213L10.0799 15.4342L11.4941 14.02L9.38125 11.9071L11.4941 9.79422L10.0799 8.38L7.96703 10.4929L5.85415 8.38L4.43994 9.79422L6.55282 11.9071Z" fill="#F7FCFF"/>
<path fill-rule="evenodd" clip-rule="evenodd" d="M15.1529 11.9071L13.04 14.02L14.4543 15.4342L16.5671 13.3213L18.68 15.4342L20.0942 14.02L17.9813 11.9071L20.0942 9.79422L18.68 8.38L16.5671 10.4929L14.4543 8.38L13.04 9.79422L15.1529 11.9071Z" fill="#F7FCFF"/>
<path fill-rule="evenodd" clip-rule="evenodd" d="M23.7528 11.9071L21.6399 14.02L23.0541 15.4342L25.167 13.3213L27.2799 15.4342L28.6941 14.02L26.5812 11.9071L28.6941 9.79422L27.2799 8.38L25.167 10.4929L23.0541 8.38L21.6399 9.79422L23.7528 11.9071Z" fill="#F7FCFF"/>
</g>
</g>
</svg>
