<svg fill="none" height="12" viewBox="0 0 16 12" width="16" xmlns="http://www.w3.org/2000/svg" xmlns:xlink="http://www.w3.org/1999/xlink"><mask id="a" height="12" maskUnits="userSpaceOnUse" width="16" x="0" y="0"><path d="m0 0h16v12h-16z" fill="#fff"/></mask><mask id="b" height="12" maskUnits="userSpaceOnUse" width="16" x="0" y="0"><path clip-rule="evenodd" d="m0 0v12h16v-12z" fill="#fff" fill-rule="evenodd"/></mask><mask id="c" height="7" maskUnits="userSpaceOnUse" width="9" x="0" y="0"><path d="m0 0h9v7h-9z" fill="#fff"/></mask><mask id="d" fill="#000" height="9" maskUnits="userSpaceOnUse" width="11" x="-1" y="-1"><path d="m-1-1h11v9h-11z" fill="#fff"/><path clip-rule="evenodd" d="m4.99226 0h-1v3h-3.99226v1h3.99226v3h1v-3h4.00774v-1h-4.00774z" fill="#000" fill-rule="evenodd"/></mask><g mask="url(#a)"><path clip-rule="evenodd" d="m0 0v12h16v-12z" fill="#2e42a5" fill-rule="evenodd"/><g mask="url(#b)"><g mask="url(#c)"><path d="m-1.00214 6.49993 1.980479.8686 8.066601-6.424139 1.04466-1.290766-2.11784-.290311-3.29017 2.768346-2.64825 1.86522z" fill="#f7fcff"/><path d="m-.731018 7.10849 1.008961.50406 9.436507-8.078859h-1.4167z" fill="#f50100"/><path d="m10.0021 6.49993-1.98044.8686-8.0665971-6.424139-1.0446529-1.290766 2.11783-.290311 3.29017 2.768346 2.64825 1.86522z" fill="#f7fcff"/><path d="m9.93457 6.93661-1.00896.50406-4.01816-3.45897-1.1913-.38647-4.90625-3.937264h1.416697l4.903493 3.843814 1.30247.46341z" fill="#f50100"/><path clip-rule="evenodd" d="m4.99226 0h-1v3h-3.99226v1h3.99226v3h1v-3h4.00774v-1h-4.00774z" fill="#f50100" fill-rule="evenodd"/><path d="m3.99226 0v-.75h-.75v.75zm1 0h.75v-.75h-.75zm-1 3v.75h.75v-.75zm-3.99226 0v-.75h-.75v.75zm0 1h-.75v.75h.75zm3.99226 0h.75v-.75h-.75zm0 3h-.75v.75h.75zm1 0v.75h.75v-.75zm0-3v-.75h-.75v.75zm4.00774 0v.75h.75v-.75zm0-1h.75v-.75h-.75zm-4.00774 0h-.75v.75h.75zm-1-2.25h1v-1.5h-1zm.75 2.25v-3h-1.5v3zm-4.74226.75h3.99226v-1.5h-3.99226zm.75.25v-1h-1.5v1zm3.24226-.75h-3.99226v1.5h3.99226zm.75 3.75v-3h-1.5v3zm.25-.75h-1v1.5h1zm-.75-2.25v3h1.5v-3zm4.75774-.75h-4.00774v1.5h4.00774zm-.75-.25v1h1.5v-1zm-3.25774.75h4.00774v-1.5h-4.00774zm-.75-3.75v3h1.5v-3z" fill="#f7fcff" mask="url(#d)"/></g><g clip-rule="evenodd" fill="#f50100" fill-rule="evenodd" stroke="#f7fcff" stroke-width=".35"><path d="m12.4266 10.25-.8817.4635.1684-.98174-.7133-.69529.9857-.14323.4409-.89324.4408.89324.9858.14323-.7133.69529.1684.98174z"/><path d="m10.6 6.93499-.67984.35741.12984-.75701-.55-.53612.7601-.11045.3399-.68875.3399.68875.7601.11045-.55.53612.1298.75701z"/><path d="m14.0988 6.93306-.6791.35701.1297-.75617-.5494-.53552.7592-.11032.3396-.68799.3395.68799.7593.11032-.5494.53552.1297.75617z"/><path d="m12.6 4.13494-.6798.35741.1298-.75701-.55-.53612.7601-.11045.3399-.68875.3399.68875.7601.11045-.55.53612.1298.75701z"/></g></g></g></svg>