<svg fill="none" height="24" viewBox="0 0 32 24" width="32" xmlns="http://www.w3.org/2000/svg" xmlns:xlink="http://www.w3.org/1999/xlink"><mask id="a" height="24" maskUnits="userSpaceOnUse" width="32" x="0" y="0"><path d="m0 0h32v24h-32z" fill="#fff"/></mask><mask id="b" height="24" maskUnits="userSpaceOnUse" width="32" x="0" y="0"><path clip-rule="evenodd" d="m0 0v24h32v-24z" fill="#fff" fill-rule="evenodd"/></mask><mask id="c" height="16" maskUnits="userSpaceOnUse" width="16" x="8" y="6"><path clip-rule="evenodd" d="m16 22c4.4183 0 8-3.5817 8-8 0-4.41828-3.5817-8-8-8s-8 3.58172-8 8c0 4.4183 3.5817 8 8 8z" fill="#fff" fill-rule="evenodd"/></mask><g mask="url(#a)"><path clip-rule="evenodd" d="m0 0v24h32v-24z" fill="#1c9975" fill-rule="evenodd"/><g mask="url(#b)"><g clip-rule="evenodd" fill="#feca00" fill-rule="evenodd"><path d="m16.0216 6.8537-1.6337.98628.3726-1.92462-1.3605-1.44039 1.8422-.07788.7794-1.79711.7794 1.79711h1.839l-1.3573 1.51827.4086 1.92462z"/><path d="m11.3826 7.58439-1.0102.60983.2304-1.19003-.8412-.89062 1.1391-.04815.4819-1.1112.4819 1.1112h1.1371l-.8393.93877.2527 1.19003z"/><path d="m20.5809 7.58439-1.0101.60983.2304-1.19003-.8412-.89062 1.139-.04815.4819-1.1112.4819 1.1112h1.1372l-.8393.93877.2527 1.19003z"/><path d="m8.76648 9.61063-.81063.48937.1849-.95496-.67505-.7147.91406-.03864.38672-.8917.38672.8917h.9125l-.6735.75334.20276.95496z"/><path d="m23.5608 9.61063-.8106.48937.1849-.95496-.6751-.7147.9141-.03864.3867-.8917.3867.8917h.9125l-.6735.75334.2028.95496z"/></g><g fill="#f7fcff"><g mask="url(#c)"><path clip-rule="evenodd" d="m12.6809 21.0638h6.6383v1.0724h-6.6383z" fill-rule="evenodd"/><path clip-rule="evenodd" d="m9.9574 19.46h12.766v.9829h-12.766z" fill-rule="evenodd"/><path d="m12.6203 19.0206h-3.90472v-1h3.89772c1.3807-.0194 2.3896-.4137 3.0627-1.1724l.3355-.3781.3744.3395c.8991.8152 1.7971 1.211 2.7056 1.211h4.3042v1h-4.3042c-1.0437 0-2.0513-.3926-3.0148-1.1614-.8533.7564-2.0119 1.1411-3.4564 1.1614z"/></g><path clip-rule="evenodd" d="m16.0347 7.60779s-1.7088 1.688-1.7088 4.00461c0 .4957.0783.9641.2013 1.394-.5505-1.2201-.5887-2.5432-.1136-3.98637l-.6467-.2129c-.4833 1.46817-.4854 2.84847-.0055 4.12767-.9927-.598-2.1347-.9999-3.3069-1.1294l-.0748.6767c1.0244.1132 2.0243.4548 2.9022.9605-.2168-.0874-.444-.1634-.6811-.224-2.163-.552-4.285.2308-4.285.2308s1.22409 2.7462 3.595 3.1512c.1182.0202.235.0359.3504.0475l-.0179.0001c-1.1304 0-2.1816-.4622-3.16601-1.4012l-.46994.4927c1.10567 1.0547 2.32175 1.5893 3.63595 1.5893 1.2852 0 2.4789-.5114 3.5695-1.5204.175-.1057.2774-.1813.2937-.1936l.043.0365c-.0225.0386-.0338.0597-.0338.0597s.1075.0651.3014.1568c1.0769.8347 2.4243 1.461 3.4904 1.461 1.3141 0 2.5302-.5346 3.6359-1.5893l-.4699-.4927c-.9844.939-2.0356 1.4012-3.166 1.4012-.413 0-.8177-.0664-1.2146-.1999.5558.0299 1.1682-.0202 1.802-.2139 2.3354-.7141 3.309-2.8737 3.309-2.8737s-1.2427-.6705-2.821-.678c.3536-.0912.7227-.1581 1.1075-.2006l-.0748-.6767c-1.4802.1636-2.7609.6632-3.8352 1.4969.6281-1.3812.6768-2.8854.1468-4.49517l-.6467.2129c.433 1.31547.4397 2.53107.0206 3.65997.0718-.3338.1142-.6906.1142-1.0676 0-2.44218-1.7806-4.00461-1.7806-4.00461zm.7517 7.14761-.0254.0365.031-.0368zm-1.6516-.1594.0669-.0616c.0609.1011.1216.1963.1809.2851-.0769-.0725-.1596-.1474-.2478-.2235z" fill-rule="evenodd"/></g></g></g></svg>