<svg fill="none" height="15" viewBox="0 0 20 15" width="20" xmlns="http://www.w3.org/2000/svg" xmlns:xlink="http://www.w3.org/1999/xlink"><mask id="a" height="15" maskUnits="userSpaceOnUse" width="20" x="0" y="0"><path d="m0 0h20v15h-20z" fill="#fff"/></mask><mask id="b" height="15" maskUnits="userSpaceOnUse" width="20" x="0" y="0"><path clip-rule="evenodd" d="m0 0v15h20v-15z" fill="#fff" fill-rule="evenodd"/></mask><mask id="c" height="15" maskUnits="userSpaceOnUse" width="12" x="0" y="0"><path clip-rule="evenodd" d="m0 0v15l11.25-7.5z" fill="#fff" fill-rule="evenodd"/></mask><g mask="url(#a)"><path clip-rule="evenodd" d="m0 0v15h20v-15z" fill="#ef0000" fill-rule="evenodd"/><g mask="url(#b)"><path d="m0 5h-1.25v1.25 2.5 1.25h1.25 20 1.25v-1.25-2.5-1.25h-1.25z" fill="#ef0000" stroke="#f7fcff" stroke-width="2.5"/></g><path clip-rule="evenodd" d="m0 0v15l11.25-7.5z" fill="#3d58db" fill-rule="evenodd"/><g mask="url(#c)"><path clip-rule="evenodd" d="m4.17984 8.8855-2.29496 1.2113 1.11729-2.43376-1.42374-1.30008 1.7578-.06488.84361-2.20042.64378 2.20042h1.75481l-1.16962 1.36496.93034 2.43376z" fill="#f7fcff" fill-rule="evenodd"/></g></g></svg>