<svg fill="none" height="12" viewBox="0 0 16 12" width="16" xmlns="http://www.w3.org/2000/svg" xmlns:xlink="http://www.w3.org/1999/xlink"><filter id="a" color-interpolation-filters="sRGB" filterUnits="userSpaceOnUse" height="6.9736" width="6.48916" x="3.96753" y="2.01343"><feFlood flood-opacity="0" result="BackgroundImageFix"/><feColorMatrix in="SourceAlpha" type="matrix" values="0 0 0 0 0 0 0 0 0 0 0 0 0 0 0 0 0 0 127 0"/><feOffset/><feColorMatrix type="matrix" values="0 0 0 0 0 0 0 0 0 0 0 0 0 0 0 0 0 0 0.2 0"/><feBlend in2="BackgroundImageFix" mode="normal" result="effect1_dropShadow"/><feBlend in="SourceGraphic" in2="effect1_dropShadow" mode="normal" result="shape"/></filter><mask id="b" height="12" maskUnits="userSpaceOnUse" width="16" x="0" y="0"><path d="m0 0h16v12h-16z" fill="#fff"/></mask><mask id="c" height="12" maskUnits="userSpaceOnUse" width="16" x="0" y="0"><path clip-rule="evenodd" d="m0 0v12h16v-12z" fill="#fff" fill-rule="evenodd"/></mask><g clip-rule="evenodd" fill-rule="evenodd" mask="url(#b)"><path d="m0 0v12h16v-12z" fill="#1d1d1d"/><g mask="url(#c)"><path d="m0 0v6h16v-6z" fill="#f50100"/><g filter="url(#a)"><path d="m7.77496 6.69606c.38761-.47901.50902-1.09823.50902-1.48463 0-2.059-2.56897-3.198-2.56897-3.198 1.7662 0 3.73334 1.43182 3.73334 3.198 0 .74784-.25669 1.44173-.68676 1.99328.78709.39264 1.45331.69904 1.45331.69904.2471.16206.3162.59424.1542.8415-.1622.24712-.49406.31613-.74111.15418 0 0-.63205-.37379-1.01718-.62631-.17652-.11572-.38063-.24114-.59787-.36963-.50537.3402-1.11128.5395-1.76266.5395 0 0-2.34855-.28767-2.28134-1.49199 0 0 .56856.43492 2.24112.43492.26617 0 .50015-.03728.70543-.1028-.72444-.39531-1.33882-.70865-1.33882-.70865-.2473-.16203-.89038-.98357-.72831-1.23084.16213-.24715 1.1423.03223 1.38941.19421 0 0 .3437.47202.82875.76061.21432.12749.45627.26237.70844.39761zm-1.18479-1.79485-.50491.33643.16133-.57623-.37066-.3681.5019-.0199.21234-.56981.21234.56981h.50105l-.36981.388.1852.54222z" fill="#fcff01"/><path d="m7.77496 6.69606c.38761-.47901.50902-1.09823.50902-1.48463 0-2.059-2.56897-3.198-2.56897-3.198 1.7662 0 3.73334 1.43182 3.73334 3.198 0 .74784-.25669 1.44173-.68676 1.99328.78709.39264 1.45331.69904 1.45331.69904.2471.16206.3162.59424.1542.8415-.1622.24712-.49406.31613-.74111.15418 0 0-.63205-.37379-1.01718-.62631-.17652-.11572-.38063-.24114-.59787-.36963-.50537.3402-1.11128.5395-1.76266.5395 0 0-2.34855-.28767-2.28134-1.49199 0 0 .56856.43492 2.24112.43492.26617 0 .50015-.03728.70543-.1028-.72444-.39531-1.33882-.70865-1.33882-.70865-.2473-.16203-.89038-.98357-.72831-1.23084.16213-.24715 1.1423.03223 1.38941.19421 0 0 .3437.47202.82875.76061.21432.12749.45627.26237.70844.39761zm-1.18479-1.79485-.50491.33643.16133-.57623-.37066-.3681.5019-.0199.21234-.56981.21234.56981h.50105l-.36981.388.1852.54222z" fill="#ffea42"/></g></g></g></svg>