<svg fill="none" height="12" viewBox="0 0 16 12" width="16" xmlns="http://www.w3.org/2000/svg" xmlns:xlink="http://www.w3.org/1999/xlink"><filter id="a" color-interpolation-filters="sRGB" filterUnits="userSpaceOnUse" height="6.57268" width="8.51079" x="3.69756" y="2.71941"><feFlood flood-opacity="0" result="BackgroundImageFix"/><feColorMatrix in="SourceAlpha" type="matrix" values="0 0 0 0 0 0 0 0 0 0 0 0 0 0 0 0 0 0 127 0"/><feOffset/><feGaussianBlur stdDeviation=".15"/><feColorMatrix type="matrix" values="0 0 0 0 0.0941176 0 0 0 0 0.32549 0 0 0 0 0.639216 0 0 0 0.43 0"/><feBlend in2="BackgroundImageFix" mode="normal" result="effect1_dropShadow"/><feBlend in="SourceGraphic" in2="effect1_dropShadow" mode="normal" result="shape"/></filter><mask id="b" height="12" maskUnits="userSpaceOnUse" width="16" x="0" y="0"><path d="m0 0h16v12h-16z" fill="#fff"/></mask><mask id="c" height="12" maskUnits="userSpaceOnUse" width="16" x="0" y="0"><path clip-rule="evenodd" d="m0 0v12h16v-12z" fill="#fff" fill-rule="evenodd"/></mask><g mask="url(#b)"><path clip-rule="evenodd" d="m0 0v12h16v-12z" fill="#5196ed" fill-rule="evenodd"/><g mask="url(#c)"><g clip-rule="evenodd" fill-rule="evenodd" filter="url(#a)"><path d="m4.3587 3.94688s1.03206.56624 1.1756.72286c.14347.15665.37345.73188.73209.40658.35871-.32519.71735-.07237.71735-.59047 0-.51806.53552-1.71983 1.31257-1.41868.77712.30112 1.41604.11274 1.59529.23313.1794.12047.6098.71871.9445.71871.3349 0 .5021.34934.5261.85537.0238.50607-.1076.5544.2032.61473.3109.06018.4304.2892.2751.59032-.1554.30123-.1436.16868-.1197.48195.024.31327-.3107 2.16062-1.3391 2.34154-1.02826.18061-2.00291.08432-1.73976-.26524.26301-.3493.6271-.75135.0892-.83568-.53815-.08444-.87722-.15623-1.41531-.01169-.53809.14458-1.09998.37341-1.43489-.06022-.33472-.43377-.26288-.74704-.5379-.95188-.27494-.20479-.60985-.16868-.33472-.56628.27483-.39759.50199-.24913.27483-.56236-.22698-.31319-1.08445-.44966-1.08445-.76281 0-.31339-.5454-1.00014.16-.93988z" fill="#fff"/><path d="m4.3587 3.94688s1.03206.56624 1.1756.72286c.14347.15665.37345.73188.73209.40658.35871-.32519.71735-.07237.71735-.59047 0-.51806.53552-1.71983 1.31257-1.41868.77712.30112 1.41604.11274 1.59529.23313.1794.12047.6098.71871.9445.71871.3349 0 .5021.34934.5261.85537.0238.50607-.1076.5544.2032.61473.3109.06018.4304.2892.2751.59032-.1554.30123-.1436.16868-.1197.48195.024.31327-.3107 2.16062-1.3391 2.34154-1.02826.18061-2.00291.08432-1.73976-.26524.26301-.3493.6271-.75135.0892-.83568-.53815-.08444-.87722-.15623-1.41531-.01169-.53809.14458-1.09998.37341-1.43489-.06022-.33472-.43377-.26288-.74704-.5379-.95188-.27494-.20479-.60985-.16868-.33472-.56628.27483-.39759.50199-.24913.27483-.56236-.22698-.31319-1.08445-.44966-1.08445-.76281 0-.31339-.5454-1.00014.16-.93988z" fill="#f5f8fb"/></g></g></g></svg>