<svg fill="none" height="15" viewBox="0 0 20 15" width="20" xmlns="http://www.w3.org/2000/svg" xmlns:xlink="http://www.w3.org/1999/xlink"><mask id="a" height="15" maskUnits="userSpaceOnUse" width="20" x="0" y="0"><path d="m0 0h20v15h-20z" fill="#fff"/></mask><g clip-rule="evenodd" fill-rule="evenodd" mask="url(#a)"><path d="m0 11h20v4h-20z" fill="#55ba07"/><path d="m0 3.75h20v7.5h-20z" fill="#1d1d1d"/><path d="m0 0h20v4h-20z" fill="#e11c1b"/><path d="m9.87348 9.41621c-1.12005-.2315-1.41064-.81758-1.39863-1.72159 0-.95657.5037-1.9248 1.38723-2.03065.88352-.10585 1.60712.22372 1.98652.68363-.3173-1.24844-1.3683-1.38499-2.17521-1.38499-1.21487-.01061-2.46087.91254-2.46087 2.64911 0 1.51291 1.09829 2.65048 2.49595 2.67858 1.74733 0 2.02083-1.20666 2.07113-1.61774-.1011.07252-.1951.15906-.2916.24789-.3514.32346-.7358.67738-1.61452.49576zm2.79092-2.3592-.8274.26037.9266.36259-.129.97122.628-.66828.9111.1876-.6156-.71988.545-.73564-.761.1606-.5377-.60762z" fill="#fff"/></g></svg>