<svg fill="none" height="24" viewBox="0 0 32 24" width="32" xmlns="http://www.w3.org/2000/svg" xmlns:xlink="http://www.w3.org/1999/xlink"><mask id="a" height="24" maskUnits="userSpaceOnUse" width="32" x="0" y="0"><path d="m0 0h32v24h-32z" fill="#fff"/></mask><mask id="b" height="24" maskUnits="userSpaceOnUse" width="32" x="0" y="0"><path clip-rule="evenodd" d="m0 0v24h32v-24z" fill="#fff" fill-rule="evenodd"/></mask><g clip-rule="evenodd" fill-rule="evenodd" mask="url(#a)"><path d="m0 0v24h32v-24z" fill="#f7fcff"/><g fill="#e31d1c" mask="url(#b)"><path d="m14 0h4v10h14v4h-14v10h-4v-10h-14v-4h14z"/><path d="m9.99864 17.222 2.20136-.222v2s-2.20136-.1378-2.20136-.098.20136 2.098.20136 2.098h-2.00005l.16022-2h-2.16022v-2l2.16022.222-.16022-2.222h2.00005z"/><path d="m9.99864 5.22195 2.20136-.22195v2s-2.20136-.13784-2.20136-.09804c0 .03979.20136 2.09804.20136 2.09804h-2.00005l.16022-2h-2.16022v-2l2.16022.22195-.16022-2.22195h2.00005z"/><path d="m23.9986 5.22195 2.2014-.22195v2s-2.2014-.13784-2.2014-.09804c0 .03979.2014 2.09804.2014 2.09804h-2l.1602-2h-2.1602v-2l2.1602.22195-.1602-2.22195h2z"/><path d="m23.9986 17.222 2.2014-.222v2s-2.2014-.1378-2.2014-.098.2014 2.098.2014 2.098h-2l.1602-2h-2.1602v-2l2.1602.222-.1602-2.222h2z"/></g></g></svg>