<svg fill="none" height="12" viewBox="0 0 16 12" width="16" xmlns="http://www.w3.org/2000/svg" xmlns:xlink="http://www.w3.org/1999/xlink"><mask id="a" height="12" maskUnits="userSpaceOnUse" width="16" x="0" y="0"><path d="m0 0h16v12h-16z" fill="#fff"/></mask><mask id="b" height="12" maskUnits="userSpaceOnUse" width="16" x="0" y="0"><path clip-rule="evenodd" d="m0 0v12h16v-12z" fill="#fff" fill-rule="evenodd"/></mask><g mask="url(#a)"><path clip-rule="evenodd" d="m0 0v12h16v-12z" fill="#f7fcff" fill-rule="evenodd"/><g mask="url(#b)"><g fill="#2e42a5"><path d="m0 2h16v1h-16z"/><path d="m0 4h16v1h-16z"/><path d="m0 6h16v1h-16z"/><path d="m0 8h16v1h-16z"/><path d="m0 10h16v1h-16z"/></g><path d="m0 0h8v7h-8z" fill="#f7fcff"/><g style="fill-rule:evenodd;clip-rule:evenodd;fill:#ffd018;stroke:#f19900;stroke-opacity:.98;stroke-width:.25"><path d="m4.61376 5.51848s-.51095 1.05936-.96002 1.27655c.19383-.48588.26518-1.47725.26518-1.47725s-1.16596.46227-1.57519.37802c.49209-.34387 1.17513-.98078 1.17513-.98078s-1.50911-.49337-1.47209-.70334c.68124.1222 1.6181-.01101 1.6181-.01101s-1.0587-1.26962-.95134-1.36403c.16138.15685 1.43016.81961 1.43016.81961s.09205-1.1296.3651-1.51045c.03275.26884.416 1.48602.416 1.48602s.77044-.77088 1.19806-.77088c-.18783.23288-.63258 1.25585-.63258 1.25585s1.10841-.01744 1.52977.19001c-.51044.0726-1.40472.52156-1.40472.52156s1.16472.88351 1.05853 1.06744c-.62534-.30591-1.34831-.40836-1.34831-.40836s.19983 1.22953.0383 1.50759c-.15754-.4093-.75008-1.27655-.75008-1.27655z"/><path d="m4.54677 4.9458c.27614 0 .5-.22386.5-.5s-.22386-.5-.5-.5-.5.22386-.5.5.22386.5.5.5z"/></g></g></g></svg>