<svg fill="none" height="12" viewBox="0 0 16 12" width="16" xmlns="http://www.w3.org/2000/svg" xmlns:xlink="http://www.w3.org/1999/xlink"><mask id="a" height="12" maskUnits="userSpaceOnUse" width="16" x="0" y="0"><path d="m0 0h16v12h-16z" fill="#fff"/></mask><mask id="b" height="12" maskUnits="userSpaceOnUse" width="16" x="0" y="0"><path clip-rule="evenodd" d="m0 0v12h16v-12z" fill="#fff" fill-rule="evenodd"/></mask><g clip-rule="evenodd" fill-rule="evenodd" mask="url(#a)"><path d="m0 0v12h16v-12z" fill="#1c7b4d"/><g mask="url(#b)"><path d="m0 0v3h16v-3z" fill="#e31d1c"/><path d="m0 9v3h16v-3z" fill="#e31d1c"/><g fill="#feca00"><path d="m8.12098 7.18925c2.59262.01437 3.32282-2.15672 3.32282-2.15672-.1469 1.85741-1.1742 3.11701-3.32282 3.11701-2.14865 0-2.93763-1.63159-3.32282-3.25918 0 0 .73018 2.28452 3.32282 2.29889z"/><path d="m8.81856 4.90677.16839.98176-.88168-.46353-.88168.46353.16839-.98176-.7133-.76691h.98575l.44084-.96486.44084.96486h.98574z"/></g></g></g></svg>