<svg fill="none" height="24" viewBox="0 0 32 24" width="32" xmlns="http://www.w3.org/2000/svg" xmlns:xlink="http://www.w3.org/1999/xlink"><mask id="a" height="24" maskUnits="userSpaceOnUse" width="32" x="0" y="0"><path d="m0 0h32v24h-32z" fill="#fff"/></mask><mask id="b" height="24" maskUnits="userSpaceOnUse" width="32" x="0" y="0"><path clip-rule="evenodd" d="m0 0v24h32v-24z" fill="#fff" fill-rule="evenodd"/></mask><g mask="url(#a)"><path clip-rule="evenodd" d="m0 0v24h32v-24z" fill="#f7fcff" fill-rule="evenodd"/><g mask="url(#b)"><g fill="#2e42a5"><path d="m0 2h32v3h-32z"/><path d="m0 8h32v3h-32z"/><path d="m0 14h32v3h-32z"/><path d="m0 19h32v3h-32z"/></g><path d="m0 0h14v14h-14z" fill="#f7fcff"/><path clip-rule="evenodd" d="m4.78251 2.58209c-.07329-.00492-.13727.04998-.14291.12262-.02742.35315.28343.67419.45552.85192l.01697.01755c.02718.02814.05502.05594.0899.08999-.00002-.00001.08138.07901.10366.10103.14945.1478.18185.28623.21821.44167l.00901.03822c.01573.06587.0319.14549.04966.23291l.00001.00001c.07871.38747.18858.92828.42858 1.10458.05878.04318.47059-.21333.51472-.27195.01557-.02068.0616-.0549.11208-.09243l.00001-.00001c.09262-.06886.20023-.14887.16219-.17682-.25131-.1846-.44222-.63199-.69026-1.27618-.13243-.3033-.47921-.4961-.76698-.65609-.2458-.13666-.44854-.24938-.43789-.38659.00564-.07263-.0492-.13551-.12248-.14043zm4.04729.09943c-.03578-.06414-.11667-.0879-.18067-.05307-.3111.16934-.41105.60489-.46638.84602l-.00547.02379c-.0088.03812-.01695.07661-.02652.12441.00001-.00002-.02193.11128-.02827.14196-.04256.20584-.14101.3084-.25156.42356l-.02716.02837c-.04667.04907-.10464.106-.16829.16851-.28208.27705-.67581.66375-.69295.96104-.0042.07281.43521.27848.50841.28357.02582.00179.0796.02176.13857.04365.1082.04018.23391.08686.23663.03973.01795-.31131.28919-.71509.69435-1.27396.18225-.27626.15507-.6721.13252-1.00058-.01926-.28057-.03514-.512.08573-.57779.06399-.03483.08685-.11507.05106-.17921zm2.5863 2.3489c.0705.01817.1135.09071.0959.16203-.0175.07132-.089.11441-.1595.09624-.1333-.03432-.2795.14577-.4568.36411-.2075.25561-.4576.56364-.7793.64139-.67748.13241-1.15122.24273-1.37666.45817-.03413.03261-.09423-.08726-.14597-.19043v-.00001c-.0282-.05623-.05391-.10751-.07157-.12643-.05007-.05364-.23117-.50373-.17844-.55412.21529-.20574.76697-.22003 1.16223-.23027h.00001c.08918-.00231.1704-.00441.23799-.00846l.03921-.00223c.15938-.00883.3013-.01669.4728-.13821.0252-.01781.1145-.08238.1175-.08449v-.00005c.0396-.02843.0718-.05103.1043-.07291l.0202-.01366c.2049-.13862.5751-.389.9181-.30067zm-9.0933.44327c-.0553.04834-.06172.1324-.01434.18775.23032.2691.67713.27631.9245.2803.00837.00013.01651.00026.0244.0004.03912.00068.07847.00065.12721.00007-.00003 0 .11341-.00168.14473-.00186.2102-.00117.33099.07381.46661.158.01102.00684.02213.01374.0334.02067.05769.03545.12543.08031.19981.12957.32965.21832.78975.52305 1.08412.478.07209-.01103.18191-.48359.17166-.55625-.00361-.02563.00474-.08238.01389-.14462.0168-.11419.03632-.24686-.01034-.23972-.30824.04717-.75959-.13419-1.39048-.41431-.30811-.12082-.68965-.01194-1.00627.07841-.27043.07717-.4935.14083-.58299.03628-.04737-.05536-.13061-.06104-.18591-.01269z" fill="#ffc125" fill-rule="evenodd"/><path d="m4.6396 2.70471-.07478-.0058zm.14291-.12262-.00503.07484zm.31261.97454.05391-.05214-.00003-.00003zm.01697.01755.05395-.05211-.00004-.00004zm.0899.08999-.0524.05366.10509-.10703zm.10366.10103-.05274.05333zm.21821.44167-.07302.01708.00002.00012zm.00901.03822-.073.0172.00005.00022zm.04966.23291-.07363.01496.00117.00437zm.00001.00001.07363-.01496-.00117-.00437zm.42858 1.10458-.0444.06044zm.51472-.27195.05992.04511zm.11208-.09243-.04166-.06249-.00309.0023zm.00001-.00001.04165.06249.00309-.0023zm.16219-.17682-.0444.06045zm-.69026-1.27618.07006-.02697-.00133-.00304zm-.76698-.65609-.03644.06555zm-.43789-.38659-.07478-.0058zm3.74414-.09407-.03585-.06587zm.18067.05307.0655-.03654zm-.64705.79295.07309.01681.00001-.00003zm-.00547.02379.07308.01687.00001-.00006zm-.02652.12441-.07354-.01472.14702.02976zm-.02827.14196.07345.01519v-.00001zm-.25156.42356-.05411-.05194-.00007.00008zm-.02716.02837-.05418-.05185-.00016.00016zm-.16829.16851-.05255-.05351zm-.69295.96104.07487.00432zm.50841.28357-.0052.07482zm.13857.04365.02611-.07031zm.23663.03973-.07487-.00432zm.69435-1.27396.06078.04406.00183-.00276zm.13252-1.00058.07483-.00513zm.08573-.57779-.03586-.06588zm2.63736 2.16969.0187-.07263zm-.0636.25827-.0187.07263zm-.4568.36411-.0582-.04728zm-.7793.64139.0144.07368.0032-.00078zm-1.37666.45817-.05182-.05422zm-.14597-.19043-.06988.02795.00284.00567zm0-.00001.06988-.02795-.0028-.00559zm0 0 .06708-.03354-.00004-.00008zm-.07157-.12643-.05483.05118zm-.17844-.55412.05182.05422zm1.16223-.23027.00194.07498.00094-.00003zm.00001 0-.00194-.07498-.00094.00004zm.23799-.00846-.00426-.07488-.00023.00001zm.03921-.00223-.00415-.07489-.00011.00001zm.4728-.13821-.0433-.0612zm.1175-.08449-.0439-.06084-.0001.00005zm0-.00005-.0437-.06092-.0001.00008zm.1043-.07291.0419.06218.0001-.00003zm.0202-.01366.042.06214v-.00002zm-8.18954.33035.05698-.04877zm.01434-.18775.04937.05646zm.91016.46805-.00121.07499zm.0244.0004.00131-.07499zm.12721.00007.00089.075-.00157-.15zm.14473-.00186.00042.075zm.46661.158.03956-.06372zm.0334.02067-.03927.0639zm.19981.12957-.04141.06253zm1.08412.478.01134.07414zm.17166-.55625.07427-.01047zm.01389-.14462.07421.01092zm-.01034-.23972-.01134-.07414zm-1.39048-.41431.03046-.06861-.00308-.00121zm-1.00627.07841.02058.07212zm-.58299.03628.05698-.04877zm2.20566-2.77586c.00242-.03109.03029-.0558.06311-.05359l.01005-.14967c-.11375-.00763-.21384.07745-.22271.19165zm.43463.79394c-.08648-.08932-.20233-.20924-.29367-.34903-.09163-.14025-.15283-.29196-.14096-.44491l-.14955-.01161c-.01554.20019.06497.38557.16493.53856.10026.15345.22588.28292.31149.37133zm.017.01757-.01697-.01754-.10781.10429.01697.01754zm.08839.08849c-.03455-.03374-.06184-.061-.08835-.08845l-.1079.10421c.02785.02883.05625.05718.09145.09155zm.10399.10136c-.0114-.01128-.03757-.03679-.06062-.05921-.01158-.01127-.02247-.02185-.03045-.02961-.00399-.00388-.00726-.00705-.00953-.00926-.00114-.0011-.00203-.00196-.00263-.00255-.0003-.00029-.00053-.00051-.00069-.00066-.00007-.00008-.00013-.00014-.00017-.00018-.00002-.00001-.00004-.00003-.00005-.00004s-.00001-.00001-.00002-.00002c0 0-.00001-.00001-.00002-.00002s-.10583.00141-.1049.10722l.10538-.10675c.00094.10581-.10488.10723-.1049.10722 0-.00001-.00001-.00001-.00001-.00001 0-.00001 0 0 0 0 .00001.00001.00002.00002.00004.00004.00004.00003.0001.00009.00017.00016.00016.00015.00039.00037.00068.00067.0006.00058.00149.00143.00262.00253.00226.0022.00552.00537.00951.00924.00796.00774.01882.01829.03037.02953.02322.02259.04888.0476.05975.05835zm.23851.4779c-.03672-.15695-.07278-.31402-.23851-.47791l-.10547.10666c.13319.13171.16191.25151.19793.40542zm.00898.03811-.009-.03822-.14601.0344.00901.03822zm.05016.23518c-.01768-.08702-.03412-.16803-.05021-.2354l-.1459.03484c.01537.06436.03127.1426.04912.23043zm-.00103-.00439-.14493.03865zm.40052 1.06346c-.09915-.07283-.18081-.23101-.24789-.43598-.06572-.20082-.11207-.42852-.1516-.62308l-.14699.02986c.03919.19291.08713.42935.15603.63988.06754.20638.16081.40676.30165.51021zm.4104-.25661c.00067-.00089-.00391.00446-.01945.01694-.01373.01105-.0321.02459-.05406.03977-.04383.03031-.09944.06537-.15559.0974-.05656.03226-.11148.06018-.15437.07721-.02177.00865-.03746.01328-.04719.015-.00484.00085-.00559.0005-.00343.00066.00167.00013.01201.00106.02369.00963l-.0888.12089c.01902.01398.03947.01796.05366.01905.01467.00112.02884-.00038.04096-.00252.02422-.00427.0507-.01306.07648-.0233.05224-.02075.11405-.05252.17331-.08632.05966-.03403.11895-.07138.16658-.10431.02378-.01644.04528-.03221.06274-.04625.01567-.01259.03361-.02809.04531-.04363zm.12725-.10751c-.02491.01852-.05023.03734-.07127.05419-.01913.01532-.04175.03443-.05598.05332l.11984.09022c-.00015.00019.00179-.00224.00781-.00777.00557-.00512.01292-.01134.02211-.0187.01849-.01481.04142-.03187.06699-.05089zm.00315-.00222.0832.12481h.00001zm.1594-.05397c-.0106-.00778-.02058-.02186-.02245-.03992-.00151-.01457.00317-.02367.00336-.02404.00001-.00003-.00447.00717-.02032.02226-.02968.02825-.0755.06247-.12313.09789l.08949.12037c.045-.03345.0993-.07367.13706-.10962.01788-.01702.03896-.03936.05135-.0644.00637-.01289.01394-.03336.01139-.05791-.0029-.02806-.01784-.05075-.03795-.06552zm-.71585-1.30968c.12392.32186.23494.59821.34711.81763.11154.21816.22859.3891.36874.49205l.0888-.12089c-.11116-.08166-.21522-.22672-.32398-.43945-.10812-.21148-.21658-.48091-.34069-.80324zm-.73343-.61749c.1447.08045.29852.16612.43272.2684.13415.10226.24292.21693.30196.35215l.13747-.06002c-.07339-.16807-.20423-.30146-.34851-.41143-.14423-.10993-.30769-.20066-.45075-.2802zm-.47623-.45794c-.00854.11002.06939.1945.15145.25846.08569.06678.20371.13217.32478.19948l.07289-.1311c-.12474-.06935-.23098-.12865-.30546-.18669-.0781-.06088-.09622-.10135-.09411-.12854zm-.05273-.05979c.03224.00216.0551.02933.05273.05979l.14955.01161c.00892-.11482-.07789-.21339-.19223-.22107zm3.90751.03739c.02739-.0149.06329-.00499.07932.02374l.13099-.07308c-.05555-.09956-.18142-.13716-.28202-.0824zm-.42914.79693c.02781-.12118.06528-.28366.13278-.4364.06771-.15323.16162-.28718.29636-.36053l-.07171-.13174c-.17637.09599-.28798.26448-.36185.43164-.07409.16766-.11425.34352-.14178.46348zm-.00548.02382.00547-.02379-.14618-.03361-.00547.02378zm-.02607.12232c.00948-.04735.01748-.08508.02606-.12226l-.14616-.03374c-.00901.03906-.01732.07832-.02698.12656zm-.02836.14242c.00324-.0157.01038-.05155.01663-.08309.00315-.01585.00609-.03074.00825-.04166.00108-.00546.00196-.00993.00257-.01304.00031-.00155.00055-.00276.00071-.00359.00008-.00041.00014-.00072.00018-.00093.00003-.00011.00004-.00019.00005-.00025.00001-.00002.00001-.00005.00002-.00006 0-.00001 0-.00002 0-.00002 0-.00001 0-.00002 0-.00003.00001-.00002-.05885-.088-.14706-.0295l.14695.03007c-.08821.0585-.14707-.02949-.14707-.0295s0-.00002 0-.00002v.00001c0 .00001 0 .00003-.00001.00005-.00001.00005-.00002.00013-.00004.00024-.00004.00021-.00011.00052-.00019.00093-.00016.00082-.0004.00202-.0007.00357-.00061.0031-.00149.00756-.00257.01301-.00215.0109-.00509.02575-.00822.04155-.0063.03178-.0133.06693-.0164.0819zm-.27091.46032c.11163-.11628.22372-.23207.27091-.46031l-.1469-.03037c-.03792.18343-.12275.27277-.23222.3868zm-.02707.02829.02715-.02837-.10836-.10372-.02716.02838zm-.16992.17016c.06335-.06223.12233-.12014.17007-.17032l-.10868-.10339c-.0456.04794-.10256.10389-.1665.16669zm-.67064.91185c.00709-.12283.09527-.27747.23064-.44536.13263-.16448.29835-.32738.44-.46649l-.10511-.10702c-.14044.13794-.31262.30692-.45166.47936-.1363.16905-.25356.35641-.26362.53087zm.43874.20443c.00111.00008-.00587-.00086-.0248-.00709-.01674-.0055-.03811-.01353-.0628-.02368-.04929-.02025-.10898-.04779-.16643-.07744-.05785-.02987-.11118-.06072-.14883-.08741-.01911-.01355-.03154-.02419-.03827-.03141-.00336-.0036-.00347-.00442-.00243-.00252.0008.00148.00566.01065.00482.02512l-.14975-.00864c-.00136.02357.00644.04288.01326.05538.00705.01291.01602.02398.02442.03298.01677.01798.03856.0354.06119.05145.04585.03251.10616.06704.16679.09834.06103.0315.12465.06088.17821.08289.02673.01099.05167.02044.07295.02744.01909.00627.04186.01288.06127.01423zm.15948.04816c-.02911-.0108-.05868-.02179-.08427-.03026-.02328-.0077-.05162-.01626-.07521-.0179l-.0104.14964c-.00024-.00002.00286.00028.01078.00232.00732.00188.01655.00466.02772.00835.02249.00744.04929.01738.07916.02847zm.13565.10572c.00075-.01312.00712-.02916.02125-.04057.01139-.00919.02157-.01023.02199-.01028.00003 0-.00845.00016-.02973-.00491-.03987-.00951-.09352-.0293-.14916-.04996l-.05222.14062c.05256.01952.11587.04316.16659.05525.02401.00572.05423.01123.08197.00798.01428-.00167.03557-.00648.05478-.02198.02195-.01772.03284-.04261.03428-.06751zm.7085-1.31366c-.20243.27923-.37374.52284-.49666.73642-.12223.21237-.20183.40363-.21184.57724l.14975.00864c.00794-.1377.07292-.30399.19209-.51105.11848-.20586.28537-.44357.4881-.72321zm.11842-.95142c.01134.16517.02327.34083.01057.50909-.01269.16821-.04962.32188-.13087.44505l.12521.0826c.10099-.15309.14159-.33547.15524-.51636.01364-.18085.00071-.36734-.0105-.53065zm.12469-.64881c-.09692.05276-.12533.16413-.13428.26778-.00934.10824.0001.24284.00959.38103l.14965-.01027c-.00978-.14238-.01791-.26379-.00979-.35786.00851-.09865.03259-.13589.05654-.14893zm.02143-.07679c.01574.02822.0054.06219-.02143.07679l.07171.13175c.10116-.05506.13655-.18155.08071-.28162zm2.82049 2.49233c.0273-.11069-.0391-.22404-.15-.2526l-.0374.14526c.0302.00778.0497.03951.0418.07146zm-.251.15093c.1115.02872.2236-.03966.251-.15093l-.1456-.03588c-.0077.03137-.0385.04916-.068.04155zm-.3799.33875c.09-.1108.1668-.20513.2369-.2684.0735-.06634.1165-.07715.143-.07035l.0374-.14526c-.1069-.02752-.2036.03456-.2809.10426-.0806.07279-.1655.17766-.2528.2852zm-.8199.66702c.1783-.04308.3324-.14877.4657-.27177.1333-.12295.2511-.26817.3542-.39525l-.1164-.09455c-.1044.12853-.2155.26514-.3395.37954-.124.11436-.2558.20156-.3992.23623zm-1.34245.43949c.09972-.09529.26065-.17258.48903-.24275.22704-.06975.51122-.12978.85022-.19603l-.0288-.14722c-.33848.06616-.62991.1275-.86547.19987-.23422.07196-.42289.15754-.54861.27769zm-.26482-.21103c.02513.05011.05531.11057.08415.15401.01366.02056.032.0452.05451.06174.01158.00852.03043.01952.05505.02128.02814.00201.05308-.00876.07111-.026l-.10363-.10844c.00951-.00908.0251-.01647.04322-.01518.0146.00105.02275.00723.02309.00748.00002.00002-.00629-.00564-.0184-.02387-.02267-.03414-.04841-.0852-.07502-.13826zm-.0026-.00577.13928-.05571h-.00001zm.00255.00568.00001.00001.13416-.06709zm-.05931-.10879c-.00016-.00018.0019.00215.0063.00904.00407.00637.00892.01469.01457.02502.01138.02078.0242.04632.03848.07481l.13409-.06724c-.01392-.02775-.02805-.05595-.04099-.0796-.01177-.0215-.02665-.04709-.04279-.06438zm-.17542-.65952c-.01707.0163-.02454.03575-.02807.04953-.00366.01425-.00464.02847-.00464.04078 0 .02459.00406.05219.00967.07936.01136.05505.03191.12144.05491.18567.02315.06466.04964.12954.0738.18217.01206.02626.02385.05018.03465.06981.00968.01761.02182.03797.0351.0522l.10966-.10235c.00076.00081-.00371-.00463-.01331-.0221-.00849-.01544-.01864-.03589-.02978-.06014-.02223-.04843-.04711-.10929-.0689-.17015-.02194-.06129-.0399-.12023-.04923-.16543-.00474-.02294-.00657-.03919-.00657-.04907 0-.00492.00048-.0056-.00006-.0035-.00042.00163-.00313.01165-.0136.02166zm1.21209-.25102c-.19678.0051-.43795.01125-.65725.04255-.21497.03067-.4285.08773-.55484.20847l.10363.10844c.08895-.085.2589-.13795.4724-.16842.20918-.02985.44148-.03595.63995-.04109zm-.00092.00003h-.00002l.00577.14989h.00002zm.23638-.00839c-.06605.00396-.14585.00604-.23544.00836l.00389.14995c.08876-.0023.17139-.00443.24052-.00858zm.03944-.00224-.03921.00223.00852.14976.03921-.00223zm.43376-.12453c-.1529.1083-.27582.11578-.43365.12452l.00829.14977c.16095-.00891.32186-.01715.51206-.1519zm.1168-.08408c-.0031.00226-.092.06653-.1168.08408l.0867.12239c.0255-.01807.1153-.08292.118-.08488zm.0002-.0001-.0001.00005.0877.12169.0001-.00006zm.1061-.07424c-.0332.02242-.066.04546-.106.07416l.0875.12184c.0392-.02817.0708-.05031.1024-.07165zm.0202-.01363-.0202.01366.084.12429.0202-.01367zm.9788-.31116c-.1945-.05007-.391-.00297-.559.0689-.1686.07209-.3179.17332-.4198.24228l.084.12424c.103-.06966.2412-.16293.3948-.2286.154-.06589.314-.09981.4626-.06156zm-9.06936.65488c-.02028-.02368-.01804-.06086.00673-.08252l-.09873-.11293c-.08583.07503-.09644.20597-.02196.29299zm.86873.25408c-.12431-.00201-.29103-.00488-.45447-.03915-.16396-.03437-.31451-.09838-.41426-.21493l-.11396.09754c.13056.15255.31858.2267.49744.2642.1794.03761.35977.04033.48283.04232zm.0245.0004c-.00795-.00014-.01614-.00027-.0245-.0004l-.00242.14998c.00838.00013.01647.00026.02431.0004zm.12501.00007c-.04829.00057-.08686.0006-.12501-.00007l-.00261.14998c.04008.0007.0802.00066.1294.00008zm.14521-.00187c-.01604.00009-.05259.00056-.08474.001-.01616.00023-.03133.00044-.04246.0006-.00557.00008-.01013.00015-.01329.0002-.00159.00002-.00282.00004-.00366.00005-.00042.00001-.00074.00001-.00096.00001-.0001.00001-.00019.00001-.00024.00001-.00003 0-.00005 0-.00007 0-.00001 0-.00001 0-.00002 0 0 0-.00001 0-.00002 0s-.07385.07592.00182.14999l-.00136-.15c.07568.07407.00184.14999.00182.14999h-.00001.00001.00006.00024c.00021 0 .00053-.00001.00095-.00002.00083-.00001.00206-.00003.00364-.00005.00315-.00005.0077-.00011.01325-.00019.01111-.00016.02625-.00038.04236-.0006.03239-.00044.06823-.0009.08351-.00099zm.50658.16928c-.13695-.08501-.27351-.17058-.50658-.16928l.00083.15c.18731-.00104.29234.06336.42664.14672zm.03311.02049c-.0111-.00682-.02207-.01363-.03311-.02049l-.07911.12744c.01099.00683.02225.01382.03368.02085zm.20196.13094c-.07404-.04903-.14295-.09468-.20196-.13094l-.07854.1278c.05638.03464.12295.07871.19767.1282zm1.03135.4664c-.12162.01861-.29121-.0355-.48357-.133-.18847-.09553-.38226-.22377-.54778-.3334l-.08283.12506c.16412.1087.36521.24198.56279.34213.19369.09818.40133.17392.57408.14748zm.10875-.47165c-.00016-.0011.00038.00591-.00178.02573-.0019.01752-.00531.04009-.0101.06635-.00957.05242-.0241.11654-.04116.17889-.01718.0628-.03627.12138-.05455.16375-.00928.02152-.0171.03588-.02276.04397-.00283.00403-.00361.00431-.00197.0029.00128-.00109.00925-.00775.02357-.00994l.02269.14827c.02333-.00357.04061-.01521.05141-.02448.01116-.00957.02013-.02065.02719-.03074.0141-.02015.02661-.04508.0376-.07056.02226-.0516.0435-.11777.06151-.18358.01812-.06625.03364-.13459.04403-.19155.00519-.02844.00924-.05479.01166-.07707.00218-.01997.0039-.04362.00119-.06288zm.01395-.16601c-.00452.03071-.00912.06193-.01208.08872-.00269.02436-.00518.05387-.00187.07729l.14853-.02094c.00003.00023-.00032-.00286.00002-.01103.00032-.00755.00112-.01715.00242-.02885.0026-.02355.00675-.05183.01139-.08335zm.07521-.15466c-.013.00198-.03001-.00091-.04411-.01236-.01136-.00923-.01449-.01897-.01462-.01937-.00001-.00003.00191.00823.00137.0301-.00101.04097-.00921.09757-.01785.15629l.14841.02184c.00816-.05547.01811-.12231.0194-.17443.00061-.02468-.00029-.05539-.00924-.08185-.0046-.01362-.01373-.03344-.03289-.04901-.02189-.01778-.0485-.02326-.07316-.01949zm-1.43227-.4199c.31522.13995.58913.25687.8236.3327.23314.0754.43677.1135.60867.0872l-.02269-.14828c-.13634.02086-.3125-.00813-.53982-.08165-.226-.07308-.49321-.1869-.80889-.32707zm-.95525.08198c.15921-.04543.32855-.09362.49577-.11619.16717-.02256.32516-.01839.46254.03548l.05476-.13964c-.17074-.06696-.35758-.06876-.53736-.04449-.17973.02425-.35946.07568-.51687.1206zm-.66055.01292c.07176.08384.1866.08847.28985.07567.10781-.01336.2375-.05058.3707-.08859l-.04116-.14424c-.13723.03916-.25429.07236-.348.08397-.09827.01219-.1397-.00362-.15743-.02434zm-.07956-.00499c.02432-.02126.0597-.01821.07956.00499l.11396-.09753c-.07489-.0875-.20597-.09581-.29225-.02039z" fill="#984111"/><path clip-rule="evenodd" d="m4.75565 11.2453c-.07329.0049-.13727-.05-.14291-.1226-.02742-.3532.28343-.6742.45553-.8519l.01697-.0176c.02717-.0281.05502-.0559.0899-.09-.00002 0 .08138-.079.10365-.101.14946-.14781.18185-.28624.21822-.44167l.00901-.03823c.01572-.06586.0319-.14548.04966-.23291v-.00001c.07872-.38747.18859-.92828.42859-1.10458.05877-.04317.47058.21333.51472.27195.01556.02068.06159.0549.11208.09243v.00001c.09262.06886.20024.14887.16219.17682-.2513.1846-.44222.632-.69026 1.27619-.13243.3033-.47921.4961-.76697.6561-.2458.1366-.44855.2494-.4379.3866.00564.0726-.04919.1355-.12248.1404zm4.0473-.0994c-.03579.0641-.11668.0879-.18067.053-.31111-.1693-.41105-.6048-.46639-.846l-.00547-.0238c-.0088-.0381-.01694-.0766-.02651-.1244 0 0-.02193-.1113-.02828-.1419-.04255-.20588-.14101-.30844-.25156-.4236l-.02715-.02837c-.04677-.04916-.10559-.1069-.17043-.17055l-.00002-.00002-.00001-.00001c-.28663-.28137-.69079-.67811-.69079-.95897 0-.12757.43521-.27848.50841-.28357.02583-.00179.0796-.02175.13857-.04365.10821-.04018.23392-.08685.23664-.03973.01795.31131.28918.71509.69435 1.27397.18224.27625.15507.6721.13252 1.0006-.01926.2805-.03515.512.08572.5778.064.0348.08686.115.05107.1792zm2.58625-2.34893c.0706-.01817.1135-.09071.096-.16203-.0176-.07132-.089-.1144-.1596-.09623-.1333.03431-.2795-.14578-.4568-.36411-.2075-.25562-.4576-.56365-.7793-.6414-.67743-.13241-1.15118-.24273-1.37662-.45817-.03412-.03261-.09423.08726-.14597.19043v.00001c-.0282.05624-.05391.10751-.07157.12643-.05006.05364-.23116.50374-.17843.55412.21529.20574.76697.22003 1.16222.23027h.00002c.08918.00231.17039.00441.23798.00846l.03921.00224c.15939.00882.30136.01668.47286.1382.0251.01782.1145.08238.1174.08449l.0001.00005c.0396.02844.0718.05103.1042.07291l.0202.01366c.205.13862.5751.389.9181.30067zm-9.09325-.44326c-.0553-.04835-.06172-.13241-.01435-.18776.23032-.2691.67713-.2763.9245-.28029.00837-.00014.01651-.00027.02441-.00041.03911-.00068.07846-.00065.12721-.00007-.00003 0 .1134.00169.14473.00186.21019.00117.33098-.07381.46661-.158.01101-.00684.02213-.01374.03339-.02066.0577-.03546.12544-.08032.19982-.12958.32964-.21832.78975-.52305 1.08411-.478.07209.01103.18191.4836.17167.55626-.00362.02563.00473.08238.01389.14461.0168.1142.03632.24686-.01034.23972-.30824-.04716-.75959.1342-1.39049.41431-.30811.12083-.68965.01195-1.00626-.0784-.27044-.07718-.49351-.14084-.58299-.03628-.04738.05535-.13061.06103-.18591.01269z" fill="#ffc125" fill-rule="evenodd"/><path d="m4.61274 11.1227-.07477.0058zm.14291.1226-.00502-.0748zm.31262-.9745.0539.0521h-.00002zm.01697-.0176.05395.0521-.00005.0001zm.0899-.09-.0524-.0536.10509.107zm.10365-.101-.05273-.0533zm.21822-.44167-.07303-.01709.00003-.00011zm.00901-.03823-.07301-.0172.00006-.00022zm.04966-.23291-.07363-.01496.00116-.00437zm0-.00001.07363.01496-.00116.00437zm.42859-1.10458-.04441-.06044zm.51472.27195.05991-.04511zm.11208.09243-.04166.06249-.00309-.0023zm0 .00001.04166-.06249.00309.0023zm.16219.17682-.0444-.06045zm-.69026 1.27619.07006.027-.00133.003zm-.76697.6561-.03645-.0656zm-.4379.3866-.07477.0058zm3.74415.094-.03586.0659zm.18067-.053.06549.0365zm-.64706-.793.0731-.0168zm-.00547-.0238.07308-.0168h.00002zm-.02651-.1244-.07354.0147.14701-.0297zm-.02828-.1419.07345-.0152zm-.25156-.4236-.0541.05194-.00008-.00008zm-.02715-.02837-.05419.05186-.00015-.00017zm-.17043-.17055-.05254.05352-.00004-.00004zm-.00002-.00002.05206-.05399.00053.00051zm-.00001-.00001-.05206.05399-.00048-.00047zm-.18238-1.24254-.00519-.07481zm.13857-.04365.02611.07031zm.23664-.03973-.07488.00432zm.69435 1.27397.06078-.04407.00182.00277zm.13252 1.0006.07482.0051zm.08572.5778-.03585.0658zm2.63732-2.16973.0187.07263zm-.0636-.25826-.0187-.07264zm-.4568-.36411-.0582.04727zm-.7793-.6414.0144-.07368.0033.00078zm-1.37662-.45817-.05181.05423zm-.14597.19043-.06988-.02795.00284-.00566zm0 .00001.06988.02795-.0028.00559zm0 0 .06708.03354-.00004.00008zm-.07157.12643-.05483-.05117zm-.17843.55412.05181-.05422zm1.16222.23027.00194-.07498.00094.00004zm.00002 0-.00194.07498-.00094-.00003zm.23798.00846-.00426.07488-.00022-.00001zm.03921.00224-.00414.07488-.00012-.00001zm.47286.1382-.0434.0612zm.1174.08449-.0438.06084-.0001-.00005zm.0001.00005-.0438.06092-.0001-.00008zm.1042.07291.042-.06218v.00004zm.0202.01366.042-.06214.0001.00002zm-8.1895-.33035.05698.04877zm.01435.18776.04936-.05647zm.91015-.46805-.00121-.07499zm.02441-.00041.0013.07499zm.12721-.00007.00089-.07499-.00158.14999zm.14473.00186.00042-.075zm.46661-.158.03955.06372zm.03339-.02066-.03926-.0639zm.19982-.12958-.04141-.06253zm1.08411-.478.01134-.07414zm.17167.55626.07426.01047zm.01389.14461.0742-.01091zm-.01034.23972-.01135.07414zm-1.39049.41431.03046.06861-.00308.00121zm-1.00626-.0784.02058-.07212zm-.58299-.03628.05698.04877zm2.20566 2.77588c.00241.0311.03028.0558.06311.0536l.01004.1496c-.11374.0077-.21384-.0774-.2227-.1916zm.43463-.794c-.08649.0893-.20234.2093-.29368.3491-.09163.1402-.15283.2919-.14095.4449l-.14955.0116c-.01555-.2002.06497-.3856.16493-.5386.10026-.1534.22587-.2829.31148-.3713zm.01699-.0175-.01697.0175-.10781-.1043.01697-.0175zm.0884-.0885c-.03456.0337-.06185.061-.08835.0884l-.1079-.1042c.02785-.0288.05624-.0572.09145-.0915zm.10399-.1014c-.01141.0113-.03758.0368-.06062.0592-.01159.0113-.02247.0219-.03046.0296-.00399.0039-.00726.0071-.00953.0093-.00114.0011-.00202.002-.00262.0025-.0003.0003-.00054.0006-.00069.0007-.00008.0001-.00014.0001-.00018.0002-.00002 0-.00003 0-.00005 0h-.00001c-.00001 0-.00002.0001-.00002.0001-.00002 0-.10584-.0014-.1049-.1073l.10538.1068c.00093-.1058-.10489-.1072-.1049-.1072s-.00002 0-.00002 0h.00001s.00002 0 .00004-.0001c.00003 0 .00009 0 .00017-.0001.00015-.0002.00038-.0004.00068-.0007.0006-.0006.00148-.0014.00261-.0025.00227-.0022.00553-.0054.00951-.0093.00797-.0077.01882-.0182.03037-.0295.02322-.0226.04889-.0476.05976-.0583zm.23851-.47789c-.03673.15696-.07278.31402-.23851.47789l-.10547-.1066c.13318-.13175.16191-.25155.19792-.40546zm.00898-.03811-.00901.03823-.146-.0344.009-.03823zm.05016-.23518c-.01768.08703-.03413.16803-.05022.2354l-.14589-.03484c.01536-.06436.03127-.14259.04911-.23042zm-.00103.00439-.14494-.03865zm.40052-1.06346c-.09916.07284-.18082.23101-.2479.43598-.06571.20082-.11207.42853-.15159.62309l-.147-.02987c.03919-.19291.08714-.42934.15603-.63987.06754-.20638.16081-.40676.30165-.51022zm.4104.25661c.00067.00089-.00392-.00445-.01945-.01694-.01374-.01104-.03211-.02459-.05406-.03977-.04384-.03031-.09944-.06537-.1556-.0974-.05655-.03225-.11147-.06018-.15436-.07721-.02178-.00865-.03747-.01328-.04719-.01499-.00485-.00086-.0056-.00051-.00344-.00067.00168-.00013.01202-.00105.0237-.00963l-.08881-.12089c.01903-.01398.03947-.01796.05366-.01904.01467-.00113.02884.00037.04097.00251.02421.00428.05069.01306.07648.0233.05223.02075.11404.05252.17331.08632.05965.03403.11895.07139.16658.10431.02377.01644.04528.03221.06274.04625.01566.01259.0336.02809.0453.04363zm.12725.10751c-.02492-.01852-.05024-.03733-.07128-.05419-.01913-.01532-.04175-.03442-.05597-.05332l.11983-.09022c-.00014-.00019.0018.00225.00782.00778.00556.00511.01292.01133.0221.01869.01849.01481.04142.03188.06699.05089zm.00315.00222h-.00001l.08321-.12481zm.15939.05397c-.01059.00779-.02057.02186-.02244.03993-.00151.01456.00316.02366.00335.02404.00001.00002-.00447-.00718-.02031-.02226-.02969-.02826-.07551-.06248-.12314-.09789l.0895-.12038c.04499.03345.09929.07367.13706.10962.01788.01702.03896.03937.05134.0644.00638.01289.01394.03336.0114.05792-.00291.02805-.01785.05074-.03795.06551zm-.71585 1.30964c.12393-.32182.23494-.59817.34712-.81758.11154-.21817.22858-.38911.36873-.49206l.08881.12089c-.11116.08166-.21523.22672-.32398.43945-.10812.21148-.21659.48091-.3407.8032zm-.73343.6175c.1447-.0804.29852-.1661.43272-.2684.13416-.1022.24292-.2169.30197-.3521l.13746.06c-.07338.1681-.20422.3015-.3485.4114-.14424.11-.30769.2007-.45076.2802zm-.47622.458c-.00854-.11.06939-.1945.15145-.2585.08568-.0668.20371-.1322.32477-.1995l.07289.1311c-.12473.0694-.23098.1287-.30545.1867-.07811.0609-.09622.1014-.09411.1286zm-.05273.0598c.03223-.0022.05509-.0294.05273-.0598l.14955-.0116c.00892.1148-.0779.2134-.19224.221zm3.9075-.0374c.02739.0149.06329.005.07932-.0238l.13099.0731c-.05554.0996-.18142.1372-.28202.0824zm-.42914-.797c.02781.1212.06529.2837.13278.4364.06771.1533.16162.2872.29636.3606l-.07171.1317c-.17636-.096-.28798-.2645-.36185-.4316-.07409-.1677-.11425-.3436-.14178-.4635zm-.00547-.0238.00547.0238-.14619.0336-.00547-.0238zm-.02607-.1223c.00948.0474.01747.0851.02605.1223l-.14615.0337c-.00902-.0391-.01733-.0783-.02698-.1266zm-.02837-.1424c.00325.0157.01039.0515.01664.0831.00314.0158.00609.0307.00824.0416.00108.0055.00196.01.00258.0131.0003.0015.00054.0027.0007.0036.00009.0004.00015.0007.00019.0009.00002.0001.00004.0002.00005.0002 0 .0001.00001.0001.00001.0001h.00001c0 .0001-.05886.0881-.14707.0296l.14695-.0301c-.08821-.0585-.14707.0295-.14706.0295s-.00001 0-.00001-.0001c-.00001 0-.00003-.0001-.00005-.0002-.00004-.0002-.0001-.0005-.00018-.0009-.00016-.0008-.0004-.0021-.00071-.0036-.00061-.0031-.00149-.0076-.00256-.013-.00216-.0109-.00509-.0258-.00823-.0416-.0063-.0317-.0133-.0669-.01639-.0819zm-.2709-.46034c.11163.11629.22371.23207.2709.46034l-.14689.0303c-.03793-.18339-.12275-.27273-.23222-.38676zm-.02708-.02829.02716.02838-.10837.10371-.02716-.02837zm-.17207-.17221c.06454.06335.12438.12208.17223.17238l-.10868.10338c-.04569-.04803-.10349-.10477-.16863-.16872zm.00003.00002.00002.00002-.10517.10696-.00002-.00002zm-.00054-.00052.00001.00001-.10412.10798-.00001-.00001zm-.66785-.90498c0 .05319.01949.11822.0591.19403.03923.07507.09542.15551.16216.23814.13366.1655.30313.33198.44707.47328l-.10508.10704c-.14269-.14007-.31861-.31264-.45869-.48607-.07012-.08683-.13289-.17582-.1784-.26292-.04513-.08637-.07616-.17626-.07616-.2635zm.43861-.20875c.00014-.00001-.00051.00004-.00214.00028-.00157.00023-.00368.00059-.00637.00112-.00543.00107-.0124.00266-.02087.00483-.01692.00436-.03828.01066-.06264.01869-.04875.01608-.10735.0384-.16346.06424-.05678.02614-.10776.05441-.14334.08169-.01781.01366-.0292.02515-.03556.03379-.00654.00887-.00423.0098-.00423.00411h-.15c0-.03758.01592-.06927.03347-.09309.01772-.02405.04091-.04533.06504-.06383.04831-.03706.1107-.07075.17188-.09892.06184-.02847.12577-.05281.17921-.07044.05022-.01657.09963-.03009.12862-.0321zm.15948-.04816c-.0291.0108-.05867.02179-.08427.03026-.02327.0077-.05161.01627-.07521.0179l-.01039-.14963c-.00024.00001.00286-.00029.01077-.00232.00733-.00189.01655-.00466.02772-.00836.0225-.00744.0493-.01738.07917-.02847zm.13565-.10572c.00076.01312.00713.02916.02126.04057.01139.0092.02157.01023.02198.01028.00003 0-.00844-.00016-.02973.00491-.03986.00951-.09352.0293-.14916.04996l-.05221-.14062c.05256-.01952.11586-.04315.16658-.05525.02401-.00572.05424-.01123.08198-.00798.01428.00167.03557.00648.05478.02198.02194.01772.03283.04261.03427.06752zm.70851 1.31367c-.20244-.27923-.37375-.52285-.49667-.73643-.12222-.21237-.20183-.40363-.21184-.57724l.14975-.00863c.00794.1377.07293.30398.1921.51105.11848.20585.28537.44356.4881.7232zm.11842.95138c.01133-.1651.02326-.3408.01057-.50906-.01269-.1682-.04962-.32187-.13088-.44504l.12521-.0826c.10099.15308.1416.33546.15524.51636.01365.18084.00071.36734-.0105.53064zm.12469.6488c-.09692-.0527-.12534-.1641-.13428-.2677-.00934-.1083.0001-.2429.00959-.3811l.14964.0103c-.00977.1424-.01791.2638-.00979.3579.00852.0986.0326.1359.05655.1489zm.02142.0768c.01575-.0282.00541-.0622-.02142-.0768l.07171-.1317c.10115.0551.13654.1815.0807.2816zm2.82055-2.4923c.0273.11069-.0392.22404-.1501.2526l-.0374-.14526c.0302-.00777.0497-.03951.0418-.07146zm-.2511-.15093c.1115-.02871.2237.03966.2511.15093l-.1457.03588c-.0077-.03136-.0384-.04916-.068-.04154zm-.3798-.33875c.0899.1108.1668.20513.2369.2684.0735.06634.1165.07715.1429.07035l.0374.14527c-.1069.02751-.2036-.03456-.2808-.10427-.0807-.07278-.1656-.17766-.2529-.2852zm-.8199-.66702c.1782.04309.3323.14878.4657.27177.1333.12296.251.26817.3542.39525l-.1165.09455c-.1043-.12853-.2154-.26514-.3394-.37954-.124-.11436-.2559-.20156-.3993-.23623zm-1.3425-.43949c.09972.09529.26065.17259.48903.24275.22704.06975.51121.12978.85017.19604l-.0287.14721c-.33853-.06616-.62997-.1275-.86553-.19987-.23422-.07195-.42288-.15754-.5486-.27768zm-.26483.21104c.02513-.05012.05531-.11058.08415-.15401.01366-.02057.03201-.04521.05451-.06175.01159-.00851.03043-.01952.05506-.02128.02813-.00201.05307.00876.07111.026l-.10363.10845c.0095.00908.0251.01646.04321.01517.0146-.00104.02275-.00723.02309-.00748.00002-.00001-.00629.00564-.01839.02387-.02267.03414-.04842.0852-.07502.13826zm-.00259.00576.13927.05571zm.00255-.00568.13416.06708zm-.05932.1088c-.00016.00017.0019-.00216.00631-.00905.00407-.00637.00892-.01469.01457-.02502.01137-.02077.02419-.04632.03848-.0748l.13408.06723c-.01391.02775-.02804.05596-.04099.0796-.01177.0215-.02665.04709-.04279.06439zm-.17542.65952c-.01707-.01631-.02454-.03575-.02807-.04954-.00365-.01425-.00464-.02847-.00464-.04078.00001-.02459.00406-.05219.00967-.07936.01136-.05505.03192-.12143.05492-.18567.02315-.06466.04964-.12954.07379-.18216.01206-.02627.02386-.05019.03465-.06982.00968-.01761.02183-.03797.0351-.05219l.10966.10234c.00076-.00081-.0037.00463-.01331.0221-.00848.01544-.01864.03589-.02977.06015-.02224.04843-.04711.10928-.0689.17014-.02195.0613-.03991.12023-.04924.16543-.00473.02295-.00657.0392-.00657.04907 0 .00493.00048.0056-.00006.00351-.00041-.00164-.00312-.01166-.0136-.02167zm1.2121.25101c-.19679-.00509-.43796-.01125-.65725-.04254-.21497-.03068-.42851-.08774-.55485-.20847l.10363-.10845c.08895.085.2589.13796.47241.16842.20918.02985.44148.03595.63994.0411zm-.00092-.00002-.00002-.00001.00576-.14988h.00002zm.23638.00838c-.06605-.00396-.14585-.00603-.23544-.00835l.00388-.14995c.08877.0023.17139.00443.24053.00857zm.03943.00224-.03921-.00223.00852-.14975.03921.00223zm.43372.12453c-.1528-.10829-.27578-.11578-.4336-.12452l.00829-.14977c.16094.00891.32191.01715.51201.1519zm.1169.08408c-.0031-.00225-.0921-.06653-.1169-.08408l.0867-.12239c.0256.01807.1153.08293.118.08488zm.0001.0001v-.00005l.0877-.12168v.00005zm.1062.07424c-.0333-.02241-.0661-.04546-.1061-.07416l.0875-.12184c.0393.02817.0708.05031.1025.07165zm.0202.01363-.0203-.01366.084-.12428.0202.01366zm.9787.31116c-.1944.05008-.391.00297-.559-.0689-.1685-.07209-.3178-.17332-.4198-.24227l.0841-.12425c.1029.06966.2412.16293.3947.22861.154.06588.3141.09981.4626.06155zm-9.06932-.65488c-.02027.02369-.01804.06087.00673.08252l-.09873.11293c-.08582-.07503-.09643-.20597-.02196-.29299zm.86873-.25407c-.12431.002-.29103.00488-.45446.03914-.16396.03438-.31452.09838-.41427.21493l-.11396-.09754c.13057-.15255.31858-.2267.49745-.2642.17939-.03761.35977-.04033.48282-.04231zm.0245-.00041c-.00795.00014-.01614.00027-.0245.00041l-.00242-.14998c.00838-.00014.01647-.00027.02431-.00041zm.12501-.00006c-.04828-.00058-.08685-.0006-.12501.00006l-.00261-.14998c.04008-.0007.0802-.00066.12941-.00007zm.14521.00186c-.01604-.00009-.05258-.00056-.08473-.001-.01616-.00022-.03134-.00044-.04247-.0006-.00557-.00008-.01012-.00015-.01329-.00019-.00158-.00003-.00282-.00005-.00366-.00006-.00041 0-.00074-.00001-.00095-.00001-.00011 0-.00019 0-.00025-.00001-.00003 0-.00005 0-.00006 0s-.00002 0-.00003 0h-.00001c-.00002 0-.07386-.07592.00182-.14999l-.00137.15c.07568-.07407.00184-.14999.00183-.14999s-.00001 0-.00001 0h.00006.00024c.00021.00001.00053.00001.00095.00002.00083.00001.00206.00003.00364.00005.00316.00005.0077.00011.01326.00019.01111.00017.02624.00038.04235.0006.0324.00045.06823.00091.08352.00099zm.50658-.16928c-.13695.08501-.27351.17058-.50658.16928l.00084-.15c.18731.00105.29233-.06335.42663-.14672zm.03311-.02048c-.0111.00682-.02207.01363-.03311.02048l-.07911-.12744c.01099-.00683.02225-.01382.03369-.02084zm.20196-.13095c-.07404.04903-.14295.09468-.20196.13095l-.07853-.1278c.05637-.03465.12294-.07872.19767-.12821zm1.03136-.4664c-.12162-.01861-.29121.0355-.48358.133-.18847.09553-.38226.22377-.54778.3334l-.08282-.12506c.16412-.1087.3652-.24198.56279-.34213.19368-.09818.40133-.17391.57407-.14748zm.10874.47165c-.00015.00111.00038-.00591-.00177-.02573-.00191-.01752-.00532-.04009-.01011-.06635-.00956-.05242-.02409-.11653-.04115-.17889-.01718-.0628-.03627-.12138-.05456-.16375-.00928-.02151-.0171-.03588-.02276-.04397-.00282-.00403-.0036-.00431-.00196-.0029.00128.0011.00924.00775.02356.00994l.02269-.14827c.02334.00357.04061.01521.05141.02448.01117.00958.02013.02065.02719.03074.0141.02015.02661.04508.0376.07056.02227.0516.04351.11778.06151.18358.01813.06625.03364.13459.04404.19155.00518.02844.00924.0548.01166.07707.00217.01998.0039.04362.00118.06289zm.01396.16601c-.00452-.03071-.00912-.06192-.01208-.08872-.00269-.02436-.00518-.05386-.00188-.07729l.14853.02095c.00004-.00024-.00032.00285.00003.01102.00032.00756.00112.01716.00241.02885.0026.02355.00675.05183.01139.08336zm.0752.15467c-.01299-.00199-.03001.0009-.0441.01235-.01136.00923-.01449.01897-.01463.01937-.00001.00003.00192-.00823.00138-.0301-.00101-.04097-.00921-.09756-.01785-.15629l.1484-.02183c.00816.05546.01812.1223.0194.17443.00061.02467-.00028.05538-.00923.08184-.00461.01362-.01373.03345-.03289.04901-.0219.01779-.04851.02326-.07317.01949zm-1.43226.41989c.31521-.13995.58912-.25687.82359-.33269.23314-.0754.43677-.11351.60867-.0872l-.02269.14827c-.13634-.02086-.3125.00813-.53982.08165-.22599.07308-.4932.18691-.80888.32707zm-.95525-.08197c.1592.04543.32855.09362.49577.11618.16717.02256.32516.01839.46253-.03548l.05476.13964c-.17074.06696-.35757.06876-.53735.0445-.17973-.02426-.35946-.07568-.51687-.1206zm-.66055-.01293c.07175-.08384.1866-.08847.28984-.07567.10781.01337.23751.05058.37071.0886l-.04116.14424c-.13724-.03917-.2543-.07236-.348-.08398-.09827-.01218-.1397.00363-.15743.02435zm-.07957.00499c.02432.02126.0597.01822.07957-.00499l.11396.09754c-.07489.08749-.20598.09581-.29226.02038z" fill="#984111"/><path clip-rule="evenodd" d="m7.00002 2.05908c-.12744 0-.23543.09385-.25319.22006l-.41347 2.93784h1.33333l-.41347-2.93784c-.01776-.12621-.12575-.22006-.2532-.22006zm3.49368 1.44713c-.0901-.09011-.2328-.10011-.3346-.02343l-2.36976 1.785.94281.94281 1.78495-2.36974c.0767-.1018.0667-.24452-.0234-.33464zm1.2271 3.2405c.1262.01776.22.12575.22.25319 0 .12745-.0938.23543-.22.2532l-2.93785.41347v-1.33333zm-1.2271 3.74689c.0901-.0901.1001-.2328.0234-.3346l-1.78495-2.36978-.94281.94281 2.36976 1.78497c.1018.0767.2445.0667.3346-.0234zm-3.24048 1.2271c-.01776.1262-.12575.22-.2532.22-.12744 0-.23543-.0938-.25319-.22l-.41347-2.93787h1.33333zm-3.74688-1.2271c.09011.0901.23284.1001.33463.0234l2.36974-1.78497-.94281-.94281-1.785 2.36978c-.07667.1018-.06668.2445.02344.3346zm-1.22708-3.2405c-.1262-.01777-.22006-.12575-.22006-.2532 0-.12744.09386-.23543.22006-.25319l2.93784-.41347v1.33333zm1.22708-3.74689c-.09012.09012-.10011.23284-.02344.33464l1.785 2.36974.94281-.94281-2.36974-1.785c-.10179-.07668-.24452-.06668-.33463.02343z" fill="#ffc125" fill-rule="evenodd"/><path d="m6.74683 2.27914-.07427-.01046zm-.41347 2.93784-.07427-.01046-.01203.08546h.0863zm1.33333 0v.075h.0863l-.01203-.08546zm-.41347-2.93784.07427-.01046zm2.90588 1.20364-.0451-.0599zm-2.36976 1.785-.04513-.05991-.06892.05192.06102.06102zm.94281.94281-.05303.05303.06101.06102.05192-.06893zm1.78495-2.36974-.0599-.04512zm1.2037 2.90586-.0105.07427zm0 .50639.0104.07426zm-2.93785.41347h-.075v.08629l.08545-.01202zm0-1.33333.01045-.07427-.08545-.01203v.0863zm1.73415 3.82576.06-.0452zm-.0234.3346.053.053zm-1.76155-2.70438.05991-.04513-.05192-.06893-.06102.06102zm-.94281.94281-.05303-.05304-.06102.06102.06893.05192zm2.36976 1.78497.0451-.0599zm-2.90588 1.2037-.07427-.0105zm-.50639 0-.07427.0104zm-.41347-2.93787v-.075h-.0863l.01203.08545zm1.33333 0 .07427.01045.01203-.08545h-.0863zm-3.82572 1.73417-.04512-.0599zm-.33463-.0234-.05304.053zm2.70437-1.76157.04513.0599.06892-.05192-.06102-.06102zm-.94281-.94281.05303-.05304-.06102-.06102-.05192.06893zm-1.785 2.36978.05991.0451zm-1.20364-2.9059-.01045.07426zm0-.50639-.01045-.07427zm2.93784-.41347h.075v-.0863l-.08545.01203zm0 1.33333-.01045.07427.08545.01202v-.08629zm-1.7342-3.82572.05991-.04512zm.02344-.33464-.05304-.05303zm1.76156 2.70438-.05991.04512.05192.06893.06102-.06102zm.94281-.94281.05303.05303.06102-.06102-.06892-.05192zm-2.36974-1.785-.04512.05991zm2.98013-1.19319c.01255-.08918.08886-.15551.17892-.15551v-.15c-.16482 0-.30448.12138-.32746.2846zm-.41347 2.93784.41347-2.93784-.14854-.02091-.41347 2.93784zm1.25906-.08545h-1.33333v.15h1.33333zm-.48774-2.85239.41347 2.93784.14854-.02091-.41347-2.93784zm-.17893-.15551c.09007 0 .16638.06633.17893.15551l.14854-.02091c-.02298-.16322-.16264-.2846-.32747-.2846zm3.20418 1.40861c.0719-.05419.1728-.04713.2365.01656l.106-.10607c-.1165-.11655-.3011-.12947-.4327-.0303zm-2.36974 1.785 2.36974-1.785-.0902-.11981-2.36979 1.78499zm.95072.82987-.94281-.94281-.10606.10606.94281.94281zm1.67202-2.36183-1.78496 2.36973.11981.09025 1.78505-2.36973zm-.0165-.23648c.0637.06368.0707.16454.0165.23648l.1199.09025c.0991-.13166.0862-.31625-.0304-.4328zm1.5751 3.44065c0-.16483-.1213-.30449-.2846-.32746l-.0209.14854c.0892.01255.1555.08886.1555.17892zm-.2846.32746c.1633-.02297.2846-.16263.2846-.32746h-.15c0 .09006-.0663.16638-.1555.17893zm-2.9378.41348 2.9378-.41348-.0209-.14853-2.9378.41347zm-.08545-1.4076v1.33333h.15v-1.33333zm3.02325.3392-2.9378-.41347-.0209.14853 2.9378.41348zm-1.274 3.53166c.0542.0719.0472.1728-.0165.2365l.106.106c.1166-.1165.1295-.3011.0304-.4328zm-1.78496-2.36976 1.78496 2.36976.1199-.0903-1.78504-2.36971zm-.82987.95072.94281-.94281-.10606-.10607-.94281.94281zm2.36183 1.67204-2.36974-1.78498-.09024.11981 2.36978 1.78497zm.2365-.0165c-.0637.0636-.1646.0707-.2365.0165l-.0902.1198c.1316.0992.3162.0863.4327-.0303zm-3.44068 1.5751c.16483 0 .30449-.1214.32747-.2846l-.14854-.0209c-.01255.0892-.08886.1555-.17893.1555zm-.32746-.2846c.02298.1632.16264.2846.32746.2846v-.15c-.09006 0-.16637-.0663-.17892-.1555zm-.41347-2.93782.41347 2.93782.14854-.0209-.41347-2.93782zm1.4076-.08545h-1.33333v.15h1.33333zm-.3392 3.02327.41347-2.93782-.14854-.0209-.41347 2.93782zm-3.53164-1.274c-.07194.0542-.1728.0471-.23648-.0165l-.10607.106c.11655.1166.30114.1295.4328.0303zm2.36974-1.78498-2.36974 1.78498.09025.1198 2.36974-1.78497zm-.95072-.82987.94281.94281.10606-.10607-.94281-.94281zm-1.67206 2.36185 1.785-2.36976-.11982-.09025-1.78499 2.36971zm.01656.2365c-.06368-.0637-.07075-.1646-.01656-.2365l-.11981-.0903c-.09917.1317-.08625.3163.0303.4328zm-1.57517-3.4407c0 .16483.12139.30449.28461.32746l.0209-.14853c-.08918-.01255-.15551-.08887-.15551-.17893zm.28461-.32746c-.16322.02297-.28461.16263-.28461.32746h.15c0-.09006.06633-.16637.15551-.17892zm2.93784-.41347-2.93784.41347.0209.14854 2.93784-.41348zm.08545 1.4076v-1.33333h-.15v1.33333zm-3.02329-.33921 2.93784.41348.0209-.14854-2.93784-.41347zm1.274-3.53163c-.05419-.07194-.04712-.1728.01656-.23648l-.10607-.10607c-.11655.11655-.12947.30114-.0303.43279zm1.785 2.36973-1.785-2.36973-.11981.09024 1.78499 2.36974zm.82987-.95071-.94281.94281.10606.10606.94281-.94281zm-2.36183-1.67206 2.36974 1.785.09025-.11982-2.36974-1.78499zm-.23648.01656c.06368-.06369.16454-.07075.23648-.01656l.09025-.11981c-.13166-.09917-.31625-.08625-.4328.0303z" fill="#984111"/><path clip-rule="evenodd" d="m6.99998 8.84191c1.06775 0 1.93334-.85419 1.93334-1.90789s-.86559-1.9079-1.93334-1.9079-1.93333.8542-1.93333 1.9079.86558 1.90789 1.93333 1.90789z" fill="#ffc125" fill-rule="evenodd" stroke="#984111" stroke-width=".15"/><g fill="#984111"><path d="m6.81346 6.43645c-.01994-.01235-.10449-.06815-.12526-.0813-.07317-.04631-.13153-.0765-.18573-.09341-.02971-.00927-.05682-.01395-.08135-.01395-.11766 0-.28388.07344-.49412.2231l-.078-.10671c.23091-.16438.42011-.24797.57212-.24797.03916 0 .07957.00697.12155.02007.06778.02116.13528.05607.21751.10811.02244.0142.10626.06952.12417.08062.02914.01805.048.02673.04778.02673.15919 0 .16883.56956.05624.7442-.03043.04721-.06778.08536-.11673.12377-.01882.01477-.07793.05734-.08664.06406-.03923.03023-.05166.04784-.05166.0694 0 .00373.04791.0156.15475.01059.02117-.00099.04219-.0024.07315-.00475.07593-.00576.08575-.00641.11024-.00641v.13158c-.01931 0-.02952.00067-.1.00602-.03216.00245-.05429.00392-.07705.00499-.18786.00882-.29443-.01759-.29443-.14202 0-.07147.03456-.1204.10292-.1731.01116-.0086.06965-.05073.08574-.06336.03827-.03002.06574-.05808.08722-.0914.03448-.05349.05589-.19267.05339-.34022-.00115-.06774-.00733-.12992-.0171-.17353-.00293-.01309-.00607-.02387-.00903-.03177-.02529-.00613-.05251-.02031-.08968-.04334z"/><path clip-rule="evenodd" d="m7.35162 6.39029c-.02899.01895-.06011.03928-.07121.04616-.03716.02303-.06439.03721-.08968.04334-.00296.0079-.00609.01868-.00903.03177-.00977.04361-.01595.10579-.0171.17353-.0025.14755.01891.28673.05339.34022.02148.03332.04895.06138.08722.0914.00937.00735.03309.0247.05349.03961.01465.0107.02758.02016.03225.02375.06837.0527.10292.10163.10292.1731 0 .12443-.10657.15084-.29443.14202-.02276-.00107-.04489-.00254-.07704-.00499-.07048-.00535-.08069-.00602-.10001-.00602v-.13158c.02449 0 .03431.00065.11024.00641.03096.00235.05198.00376.07315.00475.10684.00501.15476-.00686.15476-.01059 0-.02156-.01244-.03917-.05167-.0694-.00322-.00249-.01334-.00988-.02577-.01896-.02116-.01546-.04901-.0358-.06087-.0451-.04895-.03841-.0863-.07656-.11673-.12377-.11259-.17464-.10295-.7442.05625-.7442-.00004 0 .00035-.00019.00112-.00057.00445-.0022.02182-.01077.04665-.02616.00956-.00592.0379-.02444.06565-.04259.02425-.01585.04806-.03141.05853-.03803.08222-.05204.14972-.08695.2175-.10811.04198-.0131.08239-.02007.12155-.02007.15202 0 .34121.08359.57212.24797l-.078.10671c-.21024-.14966-.37646-.2231-.49412-.2231-.02452 0-.05164.00468-.08134.01395-.0542.01691-.11257.0471-.18574.09341-.00921.00583-.03096.02004-.05405.03514zm-.15672.08004-.00158.00318.00097-.00218z" fill-rule="evenodd"/><path d="m6.66518 7.72276.03351.0671zm.67683.00129.03862-.06429zm.06868.04126.0616.04278.0457-.06581-.06868-.04126zm-.0457.06581-.0616-.04277zm-.72326.00753.05696-.04879zm-.0625-.07296-.03351-.0671-.08595.04293.0625.07296zm.25147.05144-.0223-.0716-.12947.04033.10298.08823zm.35445-.00159.05394.05211.08175-.08461-.11121-.03839zm-.57393-.0425-.03875-.06422-.07139.04307.05036.06645zm.77117-.00025.06406.03902.03539-.05811-.0544-.04087zm-.85888-.12194.03946.06378zm.95743.00846-.04592.0593zm.04592.03556.04592-.05929zm.05256.04071.06438.03847.0341-.05706-.05256-.04071zm-.03411.05706-.06438-.03847zm-.02964.04962.06438.03847zm-1.03115.01186-.06015.0448zm-.0425-.05707.06015-.0448zm-.04883-.06556-.03947-.06377-.06951.04301.04883.06556zm.06951-.04301-.03947-.06378zm.55324-.12433c-.13421 0-.26261.03075-.38427.09151l.06702.1342c.10131-.0506.20682-.07571.31725-.07571zm.36469.09561c-.10873-.06531-.23151-.09561-.36469-.09561v.15c.10974 0 .20509.02472.28745.0742zm.06868.04126-.06868-.04126-.07724.12859.06868.04125zm-.02272.17288.0457-.06581-.12321-.08556-.04569.06582zm-.41065.24989c.17191 0 .30743-.10124.41065-.24989l-.1232-.08555c-.08753.12604-.18293.18544-.28745.18544zm-.43117-.23635c.12063.14082.26429.23635.43117.23635v-.15c-.10491 0-.21068-.05953-.31725-.18393zm-.0625-.07296.0625.07296.11392-.09758-.0625-.07297zm.1094-.15882-.08595.04293.06702.13419.08595-.04292zm.38427.16813c-.03229 0-.0774-.01302-.13644-.06361l-.09759.11391c.07834.06712.15677.0997.23403.0997zm.11528-.06036c-.04758.04924-.08545.06036-.11528.06036v.15c.07807 0 .15304-.03357.22315-.10614zm-.11528.10072c.05554 0 .1032.00794.14474.02228l.04895-.14178c-.05921-.02045-.12367-.0305-.19369-.0305zm-.16293.02459c.05282-.01645.1069-.02459.16293-.02459v-.15c-.0709 0-.14003.01035-.20754.03138zm.16293.06663c-.10043 0-.21619-.05774-.34495-.22763l-.11955.0906c.1432.18894.29807.28703.4645.28703zm.3024-.22159c-.10154.16669-.2045.22159-.3024.22159v.15c.16888 0 .31311-.10083.43051-.29356zm-.3024-.00121c.12889 0 .2344.03481.3214.10018l.0901-.11992c-.11562-.08687-.25357-.13026-.4115-.13026zm-.36598.10469c.11689-.07053.23849-.10469.36598-.10469v-.15c-.15604 0-.30427.04227-.44347.12625zm.36598-.40469c-.18892 0-.36749.05277-.5319.1545l.07893.12756c.14191-.08782.29333-.13206.45297-.13206zm.51093.16745c-.14599-.11307-.31967-.16745-.51093-.16745v.15c.16149 0 .302.04537.41908.13604zm.04591.03556-.04591-.03556-.09185.11859.04591.03556zm.05256.0407-.05256-.0407-.09185.11859.05256.0407zm-.01565.15484.03411-.05707-.12876-.07694-.03411.05706zm-.02964.04961.02964-.04961-.12876-.07695-.02964.04961zm-.56411.37464c.24393 0 .43078-.15153.56411-.37464l-.12876-.07695c-.11826.1979-.26402.30159-.43535.30159zm-.59157-.35645c.15888.21333.35512.35645.59157.35645v-.15c-.16908 0-.32615-.1012-.47127-.29604zm-.0425-.05707.0425.05707.1203-.08959-.0425-.05708zm-.04883-.06556.04883.06556.1203-.0896-.04883-.06556zm.09019-.15159-.06951.04302.07893.12755.06952-.04302zm.06081-.03763-.06081.03763.07894.12755.0608-.03762z"/><path d="m6.06523 6.45293.03245.06761zm0 .3615-.03246.06762zm.53631 0 .03245.06762zm0-.3615-.03246.06761zm-.52573.17792-.06899-.02941zm.0067-.00986.05628.04958zm.04762-.03283-.03245-.06762zm.4065 0 .03245-.06762zm.04762.03283-.05627.04958zm.0067.00986-.06899.02941zm0 .00567-.06899-.02942zm-.0067.00986-.05627-.04959zm-.04762.03282.03245.06762zm-.4065 0-.03245.06762zm-.04762-.03282-.05627.04958zm-.0067-.00986-.06899.02941zm1.32275-.18359-.03246-.06761zm0 .3615-.03246.06762zm.53631 0-.03245-.06761zm0-.3615-.03245.06761zm-.52572.17792-.069-.02941zm.0067-.00986-.05627-.04959zm.04762-.03283.03245.06761zm.40649 0-.03245.06761zm.04762.03283-.05627.04958zm.0067.00986-.06899.02941zm0 .00567-.06899-.02942zm-.0067.00986-.05627-.04959zm-.04762.03282-.03245-.06761zm-.40649 0 .03245-.06761zm-.04762-.03282-.05627.04958zm-.0067-.00986-.069.0294v.00001zm-1.31147-.11598c.06032-.02895.14365-.04686.2357-.04686v-.15c-.10945 0-.21591.02098-.30061.06164zm-.09763.11314c0-.04379.0367-.08389.09763-.11314l-.06491-.13522c-.07328.03517-.18272.11313-.18272.24836zm.09763.11314c-.06093-.02925-.09763-.06935-.09763-.11314h-.15c0 .13523.10944.21319.18272.24837zm.2357.04686c-.09205 0-.17538-.01791-.2357-.04686l-.06491.13523c.0847.04065.19116.06163.30061.06163zm.2357-.04686c-.06031.02895-.14365.04686-.2357.04686v.15c.10946 0 .21592-.02098.30061-.06163zm.09764-.11314c0 .04379-.03671.08389-.09764.11314l.06491.13523c.07328-.03518.18273-.11314.18273-.24837zm-.09764-.11314c.06093.02925.09764.06935.09764.11314h.15c0-.13523-.10945-.21319-.18273-.24836zm-.2357-.04686c.09205 0 .17539.01791.2357.04686l.06491-.13522c-.08469-.04066-.19115-.06164-.30061-.06164zm-.32656.12776c-.00449.01052-.00677.02131-.00677.03224h.15c0 .00083-.00001.00326-.00028.00635-.00026.00289-.00068.00565-.00123.00826-.00108.00512-.00254.00917-.00373.01197zm.01942-.03004c-.00844.00959-.01498.01963-.01942.03004l.13799.05882c-.00277.0065-.00558.00981-.00602.01031zm.07144-.05086c-.03017.01448-.05457.03172-.07144.05086l.11255.09917c-.00021.00024.0058-.00616.0238-.0148zm.2357-.04686c-.09205 0-.17538.01791-.2357.04686l.06491.13523c.03595-.01726.09616-.03209.17079-.03209zm.2357.04686c-.06031-.02895-.14364-.04686-.2357-.04686v.15c.07463 0 .13484.01483.17079.03209zm.07144.05086c-.01686-.01914-.04127-.03638-.07144-.05086l-.06491.13523c.01801.00864.02402.01504.02381.0148zm.01942.03004c-.00443-.01041-.01097-.02045-.01942-.03004l-.11254.09917c-.00045-.0005-.00325-.00381-.00602-.01031zm.00678.03224c0-.01093-.00229-.02172-.00678-.03224l-.13798.05882c-.0012-.0028-.00266-.00685-.00373-.01197-.00055-.00261-.00098-.00537-.00123-.00826-.00028-.00309-.00028-.00552-.00028-.00635zm-.00678.03225c.00449-.01053.00678-.02131.00678-.03225h-.15c0-.00083 0-.00326.00028-.00634.00025-.0029.00068-.00566.00123-.00827.00107-.00512.00253-.00916.00373-.01197zm-.01942.03003c.00845-.00958.01499-.01963.01942-.03003l-.13798-.05883c.00277-.00649.00557-.0098.00602-.01031zm-.07144.05086c.03017-.01448.05458-.03172.07144-.05086l-.11254-.09917c.00021-.00023-.0058.00616-.02381.0148zm-.2357.04686c.09206 0 .17539-.01791.2357-.04686l-.06491-.13523c-.03595.01726-.09616.03209-.17079.03209zm-.2357-.04686c.06032.02895.14365.04686.2357.04686v-.15c-.07463 0-.13484-.01483-.17079-.03209zm-.07144-.05086c.01687.01914.04127.03638.07144.05086l.06491-.13523c-.018-.00864-.02401-.01503-.0238-.0148zm-.01942-.03003c.00444.0104.01098.02045.01942.03003l.11255-.09917c.00044.00051.00325.00382.00602.01031zm-.00677-.03225c0 .01094.00228.02172.00677.03225l.13799-.05883c.00119.00281.00265.00685.00373.01197.00055.00261.00097.00537.00123.00827.00027.00308.00028.00551.00028.00634zm1.43096-.11314c.06032-.02895.14365-.04686.23571-.04686v-.15c-.10946 0-.21592.02098-.30062.06164zm-.09763.11314c0-.04379.0367-.08389.09763-.11314l-.06491-.13522c-.07327.03517-.18272.11313-.18272.24836zm.09763.11314c-.06093-.02925-.09763-.06935-.09763-.11314h-.15c0 .13523.10945.21319.18272.24837zm.23571.04686c-.09206 0-.17539-.01791-.23571-.04686l-.06491.13523c.0847.04065.19116.06163.30062.06163zm.2357-.04686c-.06032.02895-.14365.04686-.2357.04686v.15c.10945 0 .21591-.02098.30061-.06163zm.09763-.11314c0 .04379-.0367.08389-.09763.11314l.06491.13523c.07328-.03518.18272-.11314.18272-.24837zm-.09763-.11314c.06093.02925.09763.06935.09763.11314h.15c0-.13523-.10944-.21319-.18272-.24836zm-.2357-.04686c.09205 0 .17538.01791.2357.04686l.06491-.13522c-.0847-.04066-.19116-.06164-.30061-.06164zm-.32657.12776c-.00448.01052-.00677.02131-.00677.03224h.15c0 .00083-.00001.00326-.00028.00635-.00026.00289-.00068.00565-.00123.00826-.00107.00512-.00254.00916-.00373.01197zm.01943-.03004c-.00845.00959-.01499.01963-.01943.03004l.13799.05882c-.00277.0065-.00558.00981-.00602.01031zm.07143-.05086c-.03016.01448-.05457.03172-.07143.05086l.11254.09917c-.00021.00024.0058-.00616.0238-.0148zm.23571-.04686c-.09206 0-.17539.01791-.23571.04686l.06491.13523c.03596-.01726.09616-.03209.1708-.03209zm.2357.04686c-.06032-.02895-.14365-.04686-.2357-.04686v.15c.07463 0 .13483.01483.17079.03209zm.07143.05086c-.01686-.01914-.04127-.03638-.07143-.05086l-.06491.13523c.018.00864.02401.01504.0238.0148zm.01943.03004c-.00444-.01041-.01098-.02045-.01943-.03004l-.11254.09917c-.00044-.0005-.00325-.00381-.00602-.01031zm.00677.03224c0-.01093-.00228-.02171-.00677-.03224l-.13799.05882c-.00119-.0028-.00265-.00685-.00373-.01198-.00055-.0026-.00097-.00536-.00123-.00826-.00027-.00308-.00028-.00551-.00028-.00634zm-.00677.03225c.00449-.01053.00677-.02132.00677-.03225h-.15c0-.00082.00001-.00326.00028-.00634.00026-.00289.00068-.00566.00123-.00826.00108-.00512.00254-.00917.00373-.01198zm-.01943.03003c.00845-.00958.01499-.01963.01943-.03003l-.13799-.05883c.00277-.00649.00558-.0098.00602-.01031zm-.07143.05086c.03016-.01448.05457-.03172.07143-.05086l-.11254-.09917c.00021-.00023-.0058.00616-.0238.0148zm-.2357.04686c.09205 0 .17538-.01791.2357-.04686l-.06491-.13523c-.03596.01726-.09616.03209-.17079.03209zm-.23571-.04686c.06032.02895.14365.04686.23571.04686v-.15c-.07464 0-.13484-.01483-.1708-.03209zm-.07143-.05086c.01686.01914.04127.03638.07143.05086l.06491-.13523c-.018-.00864-.02401-.01503-.0238-.0148zm-.01943-.03003c.00444.0104.01098.02045.01943.03003l.11254-.09917c.00044.00051.00325.00382.00602.01031zm-.00677-.03225c0 .01093.00229.02172.00677.03224l.13799-.05881c.00119.0028.00266.00685.00373.01197.00055.0026.00097.00536.00123.00826.00027.00308.00028.00551.00028.00634z"/></g></g></g></svg>