<svg fill="none" height="24" viewBox="0 0 32 24" width="32" xmlns="http://www.w3.org/2000/svg" xmlns:xlink="http://www.w3.org/1999/xlink"><mask id="a" height="24" maskUnits="userSpaceOnUse" width="32" x="0" y="0"><path d="m0 0h32v24h-32z" fill="#fff"/></mask><mask id="b" height="24" maskUnits="userSpaceOnUse" width="32" x="0" y="0"><path clip-rule="evenodd" d="m0 0v24h32v-24z" fill="#fff" fill-rule="evenodd"/></mask><mask id="c" height="12" maskUnits="userSpaceOnUse" width="34" x="-1" y="12"><path clip-rule="evenodd" d="m-.792133 13.9201 2.614843-1.0612c.38115-.1547.80793-.1528 1.1877.0053l3.63075 1.5109c.41079.171.875.1586 1.27614-.0339l2.9286-1.4054c.42-.2016.9081-.2052 1.3311-.0098l3.0674 1.4171c.4133.1909.8892.1921 1.3034.0032l3.1388-1.4314c.414-.1888.8898-.1877 1.303.003l3.0988 1.4306c.4067.1878.8744.1919 1.2844.0114l3.3861-1.491c.3666-.1614.7812-.1758 1.1581-.0403l3.0358 1.0915v10.0137h-33.833904z" fill="#fff" fill-rule="evenodd"/></mask><g mask="url(#a)"><path clip-rule="evenodd" d="m0 0v24h32v-24z" fill="#e31d1c" fill-rule="evenodd"/><g mask="url(#b)"><path clip-rule="evenodd" d="m16.009 9.96085c.0166.0015.0332.00313.0498.00487.057-.196.1582-.51741.288-.82136.2058-.48206.8004-.75267.8004-.75267s-.2938.33142-.371.85667c-.0472.32087-.0638.64708-.0696.85234l.0414.0134c.1035-.17708.2767-.45873.4725-.71742.3163-.41795.9587-.53667.9587-.53667s-.3653.25049-.5673.74146c-.1172.28503-.2089.58143-.2652.77993.0207.0118.0411.0238.0615.036.1421-.1497.3638-.3726.6008-.57062.4023-.33608 1.0549-.30725 1.0549-.30725s-.4123.1619-.7195.59487c-.1686.2375-.3172.4901-.417.6697.022.02.0436.0402.065.0608.1721-.1128.422-.2678.6799-.3986.4676-.237 1.097-.0621 1.097-.0621s-.4381.065-.8349.4178c-.2028.1803-.3916.3772-.5277.5266.0188.0268.0372.054.0552.0814.1917-.0659.4537-.1485.7175-.2089.511-.1168 1.0794.2052 1.0794.2052s-.4408-.0429-.9111.2034c-.2198.115-.4316.2464-.5948.3537.0169.0416.0331.0837.0483.1261.1953-.0192.4455-.0372.693-.0367.5241.0011 1.0055.4427 1.0055.4427s-.4198-.141-.9335-.0068c-.2206.0576-.4376.1301-.6136.1941.0081.0522.015.1049.0206.1578.1856.0252.4111.0619.6309.1132.5105.119.8802.6575.8802.6575s-.3774-.2318-.9081-.2166c-.2092.006-.4183.0249-.595.0456-.0045.0576-.0105.1148-.018.1716.1654.0669.3586.151.5441.246.4665.239.695.851.695.851s-.3101-.3162-.8287-.4299c-.1862-.0408-.3751-.0712-.5406-.0934-.0211.0647-.0441.1286-.0691.1915.1371.0972.2913.2127.4371.3356.4008.3377.4857.9855.4857.9855s-.231-.3779-.7107-.6053c-.1602-.076-.3246-.1436-.4726-.2001-.0389.0626-.08.1237-.123.1834.1052.1192.2196.256.3257.3973.3145.4193.2516 1.0695.2516 1.0695s-.1401-.4202-.5564-.7496c-.1311-.1038-.2674-.2012-.3928-.286-.054.0526-.1098.1034-.1673.1522.0701.1362.144.2892.2095.4443.2038.483-.0146 1.0987-.0146 1.0987s-.0343-.4416-.3585-.862c-.0966-.1254-.1993-.2464-.2957-.3545-.0699.0411-.1413.0797-.2144.1157.036.1433.0716.3015.0992.46.0899.5164-.2614 1.0672-.2614 1.0672s.0659-.438-.1554-.9206c-.0644-.1405-.1353-.2782-.2035-.4028-.0791.0233-.1594.0438-.2408.0613.0026.1447.0014.3029-.0071.4596-.0286.5234-.4948.981-.4948.981s.1628-.4119.0557-.9319c-.0312-.1513-.0693-.3014-.1076-.4382-.0477.0021-.0956.0031-.1438.0031-.0326 0-.0652-.0005-.0976-.0014-.0327.1424-.0725.2974-.1192.4491-.1543.5009-.7173.8322-.7173.8322s.2575-.3603.2794-.8907c.0064-.1553.0057-.311.0015-.4536-.0807-.0162-.1603-.0353-.2388-.0572-.0645.1329-.139.2769-.2197.4161-.2631.4533-.8862.6495-.8862.6495s.332-.2932.4727-.8051c.0427-.1556.0781-.3134.1067-.4577-.0719-.0342-.1423-.0709-.2111-.11-.0951.1183-.2036.2465-.3173.368-.3583.3826-1.0096.4335-1.0096.4335s.3895-.2109.6416-.6781c.0812-.1503.1549-.305.2175-.4455-.0561-.0463-.1106-.0944-.1635-.1442-.1266.0969-.2716.202-.4207.2984-.4402.2845-1.0844.1764-1.0844.1764s.4289-.1105.7866-.5028c.1221-.1339.2372-.2745.3359-.4016-.0419-.0565-.0821-.1143-.1204-.1734-.1518.0696-.3272.1445-.5047.2087-.493.1782-1.0964-.0721-1.0964-.0721s.4428-.0111.8796-.3128c.1617-.1118.3172-.233.4489-.3414-.0246-.0592-.0475-.1192-.0687-.1801-.1716.0362-.3734.0731-.5749.0974-.5204.0628-1.052-.3169-1.052-.3169s.4339.0888.9274-.107c.2-.0793.3954-.1715.557-.2531-.0079-.0527-.0145-.1059-.0198-.1595-.1855-.0057-.4102-.0187-.6309-.0463-.5201-.0649-.9441-.5619-.9441-.5619s.3996.1911.9257.1205c.2315-.031.4613-.0781.6461-.121.0043-.0493.0098-.0983.0163-.1469-.1876-.0485-.4222-.1157-.6485-.1986-.4921-.1803-.7935-.7599-.7935-.7599s.3464.276.8749.3256c.2544.0239.5112.0287.7091.0272.0133-.0393.0274-.0782.0422-.1168-.1781-.0915-.4098-.2181-.6278-.3603-.439-.2864-.6023-.919-.6023-.919s.2754.3469.7793.5142c.2642.0877.5363.1539.7353.1971.0157-.0249.0318-.0496.0481-.0741-.155-.1341-.3677-.3275-.5602-.5348-.3567-.3841-.3621-1.03735-.3621-1.03735s.1833.40325.6317.68745c.2506.1587.5157.296.7008.3862.0191-.0191.0385-.0379.0581-.0565-.1225-.1662-.2983-.4171-.4483-.6782-.2612-.45449-.1194-1.09221-.1194-1.09221s.0878.43412.4608.81188c.2213.22403.4638.42813.6246.55713.0183-.0115.0367-.0228.0553-.0339-.0825-.1889-.2044-.48644-.296-.78858-.1522-.50158.1293-1.09108.1293-1.09108s-.0121.44276.2664.89475c.1722.27946.3719.54302.4992.70351.0124-.0044.0249-.0087.0373-.0129-.0346-.20135-.0843-.53352-.1008-.86256-.0263-.5235.3894-1.02737.3894-1.02737s-.1188.42669.0421.93262c.1005.31617.2322.62336.3169.80932.0162-.00202.0324-.00391.0487-.0057.0114-.2032.0376-.54246.0963-.87094.0921-.51601.6106-.91343.6106-.91343s-.2118.38902-.1689.91818c.0269.33072.0861.6597.1268.85993z" fill="#ffc84a" fill-rule="evenodd"/><path clip-rule="evenodd" d="m-.792133 13.9201 2.614843-1.0612c.38115-.1547.80793-.1528 1.1877.0053l3.63075 1.5109c.41079.171.875.1586 1.27614-.0339l2.9286-1.4054c.42-.2016.9081-.2052 1.3311-.0098l3.0674 1.4171c.4133.1909.8892.1921 1.3034.0032l3.1388-1.4314c.414-.1888.8898-.1877 1.303.003l3.0988 1.4306c.4067.1878.8744.1919 1.2844.0114l3.3861-1.491c.3666-.1614.7812-.1758 1.1581-.0403l3.0358 1.0915v10.0137h-33.833904z" fill="#f7fcff" fill-rule="evenodd"/><g mask="url(#c)"><path d="m-.792236 16.2457 2.614846-1.0612c.38115-.1546.80793-.1528 1.1877.0053l3.63074 1.5109c.4108.171.875.1587 1.27615-.0339l2.9286-1.4054c.42-.2016.9081-.2052 1.3311-.0098l3.0674 1.4171c.4133.1909.8892.1921 1.3034.0032l3.1388-1.4314c.414-.1888.8898-.1877 1.303.0031l3.0988 1.4305c.4067.1878.8744.1919 1.2844.0114l3.3861-1.491c.3666-.1614.7812-.1758 1.1581-.0403l3.0358 1.0915" stroke="#015989" stroke-width="2"/><path d="m-.792236 19.5747 2.614846-1.0612c.38115-.1547.80793-.1528 1.1877.0053l3.63074 1.5109c.4108.171.875.1586 1.27615-.0339l2.9286-1.4054c.42-.2016.9081-.2052 1.3311-.0098l3.0674 1.4171c.4133.1909.8892.1921 1.3034.0032l3.1388-1.4314c.414-.1888.8898-.1877 1.303.003l3.0988 1.4306c.4067.1878.8744.1919 1.2844.0114l3.3861-1.491c.3666-.1614.7812-.1758 1.1581-.0403l3.0358 1.0915" stroke="#015989" stroke-width="2"/><path clip-rule="evenodd" d="m-.792236 22.2274 1.091665-.4431c1.357001-.5507 2.876451-.544 4.228541.0187l2.11309.8793c.41079.171.87499.1587 1.27614-.0338l1.23051-.5906c1.49549-.7176 3.23319-.7304 4.73909-.0347l1.3575.6271c.4133.1909.8892.1921 1.3034.0032l1.4689-.6699c1.4742-.6722 3.1681-.6683 4.6391.0108l1.4326.6614c.4067.1877.8744.1919 1.2844.0113l1.9241-.8472c1.3052-.5747 2.7813-.6261 4.1233-.1436l1.5326.5511v3.3148h-33.561319z" fill="#015989" fill-rule="evenodd"/></g><path clip-rule="evenodd" d="m9.78003 3.41838h1.86057c.4686 0 1.5258-.71653 2.1373-.47768.6114.23884 1.6408 1.00995 1.6408 1.00995s1.6995-1.34152 2.7131-1.34152c1.0137 0 2.8421-.14917 2.8421-.14917s-.429 1.11347-1.6355 1.30208c-1.2066.18861-2.6501 1.11233-2.6501 1.11233h1.961c.299 0 .6891.45079.6891.45079s-.8048.54685-1.2066.54685c-.4017 0-.8455 0-.8455 0s-.8541.73297-1.9093.57701c-1.0552-.15595-1.9019-1.12386-1.9019-1.12386s-.9232-.13233-.9232-.29156c0 0-.1092-.05022-.1595-.04885-.2904.00792-.484.0601-.5806.04885.5309-.20716.7401-.39044.7401-.39044s.3654-.34275.6443-.34275 1.2103.57396 1.2103.57396l.2224-.23121-1.1538-.88112c-2.3534.24658-3.69507-.34366-3.69507-.34366z" fill="#ffc84a" fill-rule="evenodd"/></g></g></svg>