<svg fill="none" height="15" viewBox="0 0 20 15" width="20" xmlns="http://www.w3.org/2000/svg" xmlns:xlink="http://www.w3.org/1999/xlink"><mask id="a" height="15" maskUnits="userSpaceOnUse" width="20" x="0" y="0"><path d="m0 0h20v15h-20z" fill="#fff"/></mask><mask id="b" height="15" maskUnits="userSpaceOnUse" width="20" x="0" y="0"><path clip-rule="evenodd" d="m0 0v15h20v-15z" fill="#fff" fill-rule="evenodd"/></mask><g clip-rule="evenodd" fill-rule="evenodd" mask="url(#a)"><path d="m0 0v15h20v-15z" fill="#f7fcff"/><g mask="url(#b)"><path d="m0 0v7.5h20v-7.5z" fill="#e31d1c"/><path d="m5.54277 6.61841s-1.76606-.7103-1.76606-2.63473c0-1.92442 1.76606-2.61178 1.76606-2.61178-.85834-.21729-3.13591-.02294-3.13591 2.61178 0 2.63473 2.24316 3.13161 3.13591 2.63473zm.45248-.31809.50664-.30586.5178.30586-.12672-.59685.42093-.47084h-.57031l-.2417-.55731-.2417.55731-.57129.02415.42191.44669zm2.34808-.34001-.50664.30585.11556-.59685-.42191-.44668.57129-.02415.2417-.55732.2417.55732h.57031l-.42094.47083.12673.59685zm-1.28885-2.35421.50664-.30586.51781.30586-.12673-.59686.42094-.47083h-.57032l-.2417-.55731-.24169.55731-.57129.02415.42191.44668zm-1.19835.90799-.50664.30586.11556-.59685-.42191-.44669.57129-.02415.2417-.55731.2417.55731h.57031l-.42093.47084.12673.59685zm2.84237.27845.50664-.30586.5178.30586-.12672-.59685.42098-.47084h-.57036l-.2417-.55731-.2417.55731-.57129.02415.42191.44669z" fill="#f1f9ff"/></g></g></svg>