<svg fill="none" height="12" viewBox="0 0 16 12" width="16" xmlns="http://www.w3.org/2000/svg" xmlns:xlink="http://www.w3.org/1999/xlink"><mask id="a" height="12" maskUnits="userSpaceOnUse" width="16" x="0" y="0"><path d="m0 0h16v12h-16z" fill="#fff"/></mask><mask id="b" height="12" maskUnits="userSpaceOnUse" width="16" x="0" y="0"><path clip-rule="evenodd" d="m0 0v12h16v-12z" fill="#fff" fill-rule="evenodd"/></mask><g clip-rule="evenodd" fill-rule="evenodd" mask="url(#a)"><path d="m0 0v12h16v-12z" fill="#f7fcff"/><g mask="url(#b)"><path d="m0 0v4h16v-4z" fill="#ff8c1a"/><path d="m0 8v4h16v-4z" fill="#5eaa22"/><g fill="#3d58db"><path d="m6 6c0 1.10457.89543 2 2 2s2-.89543 2-2-.89543-2-2-2-2 .89543-2 2zm3.5 0c0 .82843-.67157 1.5-1.5 1.5s-1.5-.67157-1.5-1.5.67157-1.5 1.5-1.5 1.5.67157 1.5 1.5z"/><path d="m7.99725 6.43035-.41697 1.53687.24418-1.57359-1.00602 1.2344.8631-1.33824-1.42112.7185 1.33279-.87149-1.59049.07836 1.57203-.25404-1.48486-.57534 1.53945.40733-1.12248-1.12954 1.24068.99826-.56601-1.48844.7274 1.41659.08832-1.58998.08833 1.58998.72739-1.41659-.56601 1.48844 1.24069-.99826-1.12248 1.12954 1.53945-.40733-1.48486.57534 1.57203.25404-1.5905-.07836 1.3328.87149-1.42113-.7185.86311 1.33824-1.00602-1.2344.24417 1.57359z"/></g></g></g></svg>