<svg fill="none" height="24" viewBox="0 0 32 24" width="32" xmlns="http://www.w3.org/2000/svg" xmlns:xlink="http://www.w3.org/1999/xlink"><mask id="a" height="24" maskUnits="userSpaceOnUse" width="32" x="0" y="0"><path d="m0 0h32v24h-32z" fill="#fff"/></mask><mask id="b" height="24" maskUnits="userSpaceOnUse" width="32" x="0" y="0"><path clip-rule="evenodd" d="m0 0v24h32v-24z" fill="#fff" fill-rule="evenodd"/></mask><g clip-rule="evenodd" fill-rule="evenodd" mask="url(#a)"><path d="m0 0v24h32v-24z" fill="#af0100"/><g mask="url(#b)"><path d="m0 0v8h32v-8z" fill="#3ca5d9"/><path d="m0 16v8h32v-8z" fill="#73be4a"/><path d="m17.1399 15.024c-1.347-.3106-2.5296-1.4701-2.5156-3.024.0131-1.4546.869-2.63216 2.3504-2.96655 1.4815-.3344 3.0175.30103 3.0175.30103-.4083-.90791-1.8297-1.54456-2.9956-1.5415-2.1703.00569-4.4856 1.66252-4.5084 4.19262-.0236 2.623 2.4728 4.1143 4.6699 4.1085 1.7613-.0046 2.598-1.1382 2.7716-1.6202 0 0-1.4428.8606-2.7898.5501zm.8779-1.6033 1.1755-.818 1.1756.818-.4147-1.3708 1.1413-.8653-1.4319-.0292-.4703-1.35274-.4702 1.35274-1.4319.0292 1.1413.8653z" fill="#f7fcff"/></g></g></svg>