<svg fill="none" height="12" viewBox="0 0 16 12" width="16" xmlns="http://www.w3.org/2000/svg" xmlns:xlink="http://www.w3.org/1999/xlink"><mask id="a" height="12" maskUnits="userSpaceOnUse" width="16" x="0" y="0"><path d="m0 0h16v12h-16z" fill="#fff"/></mask><mask id="b" height="12" maskUnits="userSpaceOnUse" width="16" x="0" y="0"><path clip-rule="evenodd" d="m0 0v12h16v-12z" fill="#fff" fill-rule="evenodd"/></mask><g clip-rule="evenodd" fill-rule="evenodd" mask="url(#a)"><path d="m0 0v12h16v-12z" fill="#f7fcff"/><g mask="url(#b)"><path d="m8 0v6h8v-6z" fill="#e31d1c"/><path d="m11.5104 9.57486-1.1512.71234.4469-1.19585-.97849-.90534h1.18689l.4959-1.29355.3785 1.29355h1.1887l-.8567.90534.4195 1.19585z" fill="#e31d1c"/><g fill="#2e42a5"><path d="m4.51043 4.1824-1.15122.71236.44693-1.19587-.97853-.90534h1.18689l.49593-1.29355.37845 1.29355h1.18873l-.85669.90534.41944 1.19587z"/><path d="m0 6v6h8v-6z"/></g></g></g></svg>