<svg fill="none" height="15" viewBox="0 0 20 15" width="20" xmlns="http://www.w3.org/2000/svg" xmlns:xlink="http://www.w3.org/1999/xlink"><mask id="a" height="15" maskUnits="userSpaceOnUse" width="20" x="0" y="0"><path d="m0 0h20v15h-20z" fill="#fff"/></mask><mask id="b" height="15" maskUnits="userSpaceOnUse" width="20" x="0" y="0"><path clip-rule="evenodd" d="m0 0v15h20v-15z" fill="#fff" fill-rule="evenodd"/></mask><g mask="url(#a)"><path clip-rule="evenodd" d="m0 0v15h20v-15z" fill="#e31d1c" fill-rule="evenodd"/><g mask="url(#b)"><path clip-rule="evenodd" d="m10.0159 10.0709c-1.33833-.3297-2.38653-1.4499-2.37437-3.09199.01139-1.53713.94205-2.83641 2.41327-3.18814 1.4712-.35173 2.7665.3949 2.7665.3949-.4066-.95988-1.8192-1.63422-2.97736-1.63228-2.15576.00361-4.45381 1.75188-4.47362 4.42552-.02054 2.77187 2.46087 4.35049 4.64328 4.34679 1.7495-.0029 2.5794-1.1999 2.7513-1.70907 0 0-1.4107.78397-2.749.45427zm3.0487-3.61683-1.3334.48979 1.5045.53075-.0257 1.58586.9914-1.18975 1.6375.11899-1.2977-1.11547.852-1.18988-1.3872.46686-.9915-1.10224z" fill="#f7fcff" fill-rule="evenodd"/></g></g></svg>