<svg fill="none" height="24" viewBox="0 0 32 24" width="32" xmlns="http://www.w3.org/2000/svg" xmlns:xlink="http://www.w3.org/1999/xlink"><mask id="a" height="24" maskUnits="userSpaceOnUse" width="32" x="0" y="0"><path d="m0 0h32v24h-32z" fill="#fff"/></mask><mask id="b" height="24" maskUnits="userSpaceOnUse" width="32" x="0" y="0"><path clip-rule="evenodd" d="m0 0v24h32v-24z" fill="#fff" fill-rule="evenodd"/></mask><mask id="c" fill="#000" height="5" maskUnits="userSpaceOnUse" width="4" x="7.11755" y="-1"><path d="m7.11755-1h4v5h-4z" fill="#fff"/><path clip-rule="evenodd" d="m9.12596 0h-.5042l.0649.922722-.56911-.077439v.633967l.57785-.0796-.07364 1.45318h.5042l-.07465-1.45562.57885.08204v-.633967l-.56836.081583z" fill="#000" fill-rule="evenodd"/></mask><g mask="url(#a)"><path clip-rule="evenodd" d="m0 0v24h32v-24z" fill="#e31d1c" fill-rule="evenodd"/><g mask="url(#b)"><path clip-rule="evenodd" d="m0 0v12h32v-12z" fill="#2e42a5" fill-rule="evenodd"/><path clip-rule="evenodd" d="m4.79846 11.0532s1.20667.7511 4.00284.7511c2.7962 0 4.2804-.7511 4.2804-.7511s-2.1929-1.27476-4.15355-1.27476c-1.96068 0-4.12969 1.27476-4.12969 1.27476z" fill="#000" fill-rule="evenodd"/><g fill="#ffd83d"><g stroke="#000" stroke-width=".5"><path d="m4.87056 6.74216-.21608.12574.0723.12426h.14378 8.32524.1832l.0552-.17467-.2384-.07533c.2384.07533.2384.07525.2384.07517l.0001-.00022.0002-.00057.0005-.00169.0017-.00559.0059-.01974c.005-.01687.0119-.04106.0202-.07178.0165-.0614.0385-.14916.0614-.25705.0454-.21513.0947-.51363.1084-.84484.0268-.64821-.0802-1.49335-.7094-2.0403-.6411-.55736-1.4546-.4706-2.1564-.2952-.2389.0597-.4824.1347-.7105.20494-.1077.03317-.21194.06527-.31061.0942-.3213.0942-.58914.1567-.8047.1567-.21452 0-.45099-.05771-.72861-.14511-.0842-.02651-.17362-.05628-.26664-.08725-.1997-.0665-.41601-.13853-.63301-.19564-.6588-.17337-1.41921-.23886-2.26208.23849-.43898.24862-.68998.59471-.80883.97399-.11652.37186-.10191.76118-.03988 1.10247.0623.34273.17526.65257.2711.87471.04818.11169.09268.2027.12547.26638.01642.03187.02994.05699.03959.07452l.01145.02054.00333.00583.00102.00178.00034.00059.00013.00023c.00006.00009.00011.00018.21619-.12556z"/><path d="m3.88613 6.906.11656.22117c-.11656-.22117-.11646-.22122-.11636-.22128l.00024-.00012.00059-.00031.00163-.00085.00507-.00261.01736-.00869c.01478-.00729.03599-.01751.06365-.03023.05532-.02543.13643-.06086.24347-.10291.2141-.08411.53189-.19469.95458-.30473.84558-.22014 2.10986-.43786 3.80224-.43786 1.69234 0 2.95664.21772 3.80224.43786.4227.11004.7405.22062.9546.30473.107.04205.1881.07748.2434.10291.0277.01272.0489.02294.0637.03023l.0174.00869.005.00261.0017.00085.0005.00031.0003.00012c.0001.00006.0002.00011-.1164.22128l.1166-.22117.1947.1026-.0771.20614-1.1849 3.16836-.0826.2208zm0 0-.19296.10169.07459.20497 1.15296 3.16834.08051.2213.22562-.0671zm8.80287 3.6284h.0001l-7.46221.0008.00009-.0001.00078-.0002.00362-.0011.01529-.0044c.01372-.0039.03441-.0098.06161-.0174.05441-.015.13482-.0368.23756-.0629.20556-.0523.5001-.1222.85424-.1922.70988-.1402 1.65202-.27915 2.59402-.27915.94176 0 1.8662.13885 2.5579.27895.3452.0699.6308.1397.8296.1919.0993.0261.1769.0478.2293.0628.0262.0075.0461.0134.0593.0173l.0146.0044.0034.0011z"/><path d="m8.87393 4.26515c.55972 0 .92227-.54681.92227-1.09528 0-.54848-.36255-1.09529-.92227-1.09529s-.92227.54681-.92227 1.09529c0 .54847.36255 1.09528.92227 1.09528z"/></g><path clip-rule="evenodd" d="m9.12596 0h-.5042l.0649.922722-.56911-.077439v.633967l.57785-.0796-.07364 1.45318h.5042l-.07465-1.45562.57885.08204v-.633967l-.56836.081583z" fill-rule="evenodd"/></g><path d="m8.62176 0v-.5h-.53641l.03764.5350833zm.5042 0 .4988.0345249.037-.5345249h-.5358zm-.4393.922722-.06741.495438.60933.08291-.04315-.613432zm-.56911-.077439.06742-.495434-.56742-.077209v.572643zm0 .633967h-.5v.57359l.56823-.07827zm.57785-.0796.49936.02531.03056-.603021-.59815.082389zm-.07364 1.45318-.49936-.02531-.02663.52531h.52599zm.5042 0v.5h.52629l-.02695-.52561zm-.07465-1.45562.07017-.495056-.60057-.085118.03106.605774zm.57885.08204-.07016.49505.5702.08081v-.57586zm0-.633967h.50004v-.576896l-.57108.081969zm-.56836.081583-.4988-.034525-.04273.617379.61258-.08793zm-.44004-.426866h.5042v-1h-.5042zm.56367.387638-.06491-.9227213-.99753.0701666.0649.9227217zm-1.13529.453082.56911.07744.13482-.990873-.5691-.077438zm.56741.13853v-.633967h-1v.633967zm.00962-.574922-.57784.079594.13645.990648.57785-.0796zm.49394 1.973812.07365-1.45318-.99872-.05062-.07364 1.45318zm.00485-.52531h-.5042v1h.5042zm-.57399-.93002.07464 1.45563.99869-.05122-.07464-1.45562zm1.14835-.438617-.57884-.082039-.14033.990106.57885.08204zm-.57016-.13891v.633967h1.00004v-.633967zm.00269.576507.56835-.08158-.14208-.989854-.56836.081583zm-.5057-1.4563149-.06415.9268659.99761.06905.06415-.9268661z" fill="#000" mask="url(#c)"/></g></g></svg>