<svg fill="none" height="24" viewBox="0 0 32 24" width="32" xmlns="http://www.w3.org/2000/svg" xmlns:xlink="http://www.w3.org/1999/xlink"><mask id="a" height="24" maskUnits="userSpaceOnUse" width="32" x="0" y="0"><path d="m0 0h32v24h-32z" fill="#fff"/></mask><mask id="b" height="24" maskUnits="userSpaceOnUse" width="32" x="0" y="0"><path clip-rule="evenodd" d="m0 0v24h32v-24z" fill="#fff" fill-rule="evenodd"/></mask><mask id="c" height="7" maskUnits="userSpaceOnUse" width="6" x="13" y="10"><path d="m16.1 15.65c.0706.2398.0707.2398.0708.2397h.0002l.0007-.0002.0019-.0006.006-.0018.0204-.0065c.0172-.0056.0414-.0137.0717-.0246.0606-.0218.1456-.0547.247-.1.2021-.0904.4728-.232.745-.4371.5448-.4105 1.1127-1.0912 1.1127-2.1272v-.0079-.008-.0079-.008-.0079-.008-.0079-.0079-.0079-.008-.0079-.0079-.0079-.0079-.0078-.0079-.0079-.0079-.0078-.0079-.0078-.0079-.0078-.0079-.0078-.0078-.0078-.0078-.0078-.0078-.0078-.0078-.0078-.0077-.0078-.0078-.0077-.0078-.0077-.0077-.0077-.0078-.0077-.0077-.0077-.0077-.0076-.0077-.0077-.0076-.0077-.0076-.0077-.0076-.0076-.0076-.0076-.0077-.0075-.0076-.0076-.0076-.0075-.0076-.0075-.0076-.0075-.0075-.0075-.0076-.0075-.0074-.0075-.0075-.0075-.0074-.0075-.0074-.0075-.0074-.0074-.0074-.0074-.0074-.0074-.0073-.0074-.0074-.0073-.0074-.0073-.0073-.0073-.0073-.0073-.0073-.0073-.0072-.0073-.0073-.0072-.0072-.0072-.0073-.0072-.0071-.0072-.0072-.0072-.0071-.0072-.0071-.0071-.0071-.0071-.0071-.0071-.0071-.0071-.007-.0071-.007-.007-.007-.007-.007-.007-.007-.007-.0069-.007-.0069-.0069-.0069-.0069-.0069-.0069-.0069-.0068-.0069-.0068-.0068-.0068-.0068-.0068-.0068-.0068-.0067-.0068-.0067-.0068-.0067-.0067-.0067-.0066-.0067-.0067-.0066-.0066-.0067-.0066-.0066-.0066-.0065-.0066-.0066-.0065-.0065-.0065-.0065-.0065-.0065-.0065-.0064-.0065-.0064-.0064-.0064-.0064-.0064-.0064-.0063-.0064-.0063-.0063-.0063-.0063-.0063-.0063-.0062-.0063-.0062-.0062-.0062-.0062-.0062-.0061-.0062-.0061-.0061-.0061-.0061-.0061-.0061-.006-.0061-.006-.006-.006-.006-.006-.006-.0059-.0059-.006-.0059-.0059-.0058-.0059-.0058-.0059-.0058-.0058-.0058-.0058-.0057-.0058-.0057-.0058-.0057-.0057-.0056-.0057-.0056-.0057-.0056-.0056-.0056-.0056-.0055-.0056-.0055-.0055-.0055-.0055-.0055-.0054-.0055-.0054-.0054-.0054-.0054-.0053-.0054-.0053-.0053-.0053-.0053-.0053-.0052-.0053-.0052-.0052-.0052-.0052-.0051-.0052-.0051-.0051-.0051-.0051-.005-.0051-.005-.005-.005-.005-.005-.0049-.005-.0049-.0049-.0048-.0049-.0049-.0048-.0048-.0048-.0048-.0048-.0047-.0047-.0047-.0047-.0047-.0047-.0046-.0047-.0046-.0046-.0045-.0046-.0045-.0046-.0045-.0045-.0044-.0045-.0044-.0044-.0044-.0044-.0044-.0043-.0044-.0043-.0043-.0042-.0043-.0042-.0043-.0042-.0041-.0042-.0042-.0041-.0041-.0041-.0041-.004-.0041-.004-.004-.004-.0039-.004-.0039-.0039-.0039-.0038-.0039-.0038-.0038-.0038-.0038-.0038-.0037-.0037-.0037-.0037-.0036-.0037-.0036-.0036-.0036-.0035-.0036-.0035-.0035-.0035-.0034-.0035-.0034-.0034-.0034-.0033-.0034-.0033-.0033-.0033-.0033-.0032-.0032-.0032-.0032-.0032-.0031-.0031-.0031-.0031-.0031-.003-.003-.003-.003-.0029-.003-.0029-.0029-.0028-.0029-.0028-.0028-.0028-.0028-.0027-.0028-.0027-.0026-.0027-.0026-.0026-.0026-.0026-.0026-.0025-.0025-.0025-.0025-.0024-.0024-.0024-.0024-.0024-.0023-.0023-.0023-.0023-.0022-.0022-.0022-.0022-.0022-.0021-.0021-.0021-.0021-.002-.002-.002-.002-.002-.0019-.0019-.0019-.0019-.0018-.0018-.0018-.0018-.0017-.0018-.0017-.0017-.0016-.0016-.0017-.0015-.0016-.0016-.0015-.0015-.0014-.0015-.0014-.0014-.0014-.0013-.0014-.0013-.0012-.0013-.0012-.0012-.0012-.0012-.0011-.0011-.0011-.0011-.001-.0011-.0009-.001-.001-.0009-.0009-.0008-.0009-.0008-.0008-.0008-.0007-.0007-.0007-.0007-.0007-.0006-.0006-.0005-.0006-.0005-.0005-.0005-.0004-.0005-.0004-.0003-.0004-.0003-.0003-.0003-.0002-.0002-.0002-.0002-.0001-.0001-.0001-.0001h-.25.25v-.25h-.25-4.0527-.25v.25h.25-.25v.0001.0001.0001.0002.0002.0002.0003.0003.0003.0004.0003.0004.0005.0005.0004.0006.0005.0006.0006.0007.0007.0007.0007.0008.0008.0008.0008.0009.0009.001.0009.001.001.0011.0011.0011.0011.0012.0012.0012.0012.0013.0013.0013.0014.0014.0014.0014.0015.0015.0015.0016.0016.0016.0016.0017.0016.0018.0017.0018.0017.0019.0018.0019.0019.0019.002.0019.002.0021.002.0021.0021.0021.0022.0022.0022.0022.0023.0022.0023.0024.0023.0024.0024.0025.0024.0025.0025.0025.0026.0026.0026.0026.0027.0026.0027.0028.0027.0028.0028.0028.0028.0029.0029.0029.003.0029.003.003.003.0031.0031.0031.0031.0031.0032.0032.0032.0032.0033.0033.0033.0033.0033.0034.0034.0034.0034.0035.0035.0035.0035.0035.0036.0036.0036.0036.0037.0036.0037.0037.0038.0037.0038.0038.0038.0038.0039.0039.0039.0039.0039.004.004.004.004.004.0041.004.0041.0041.0042.0041.0042.0042.0042.0042.0043.0043.0043.0043.0043.0043.0044.0044.0044.0044.0044.0045.0045.0044.0046.0045.0045.0046.0046.0046.0046.0046.0047.0046.0047.0047.0048.0047.0048.0047.0048.0048.0048.0049.0048.0049.0049.0049.0049.005.0049.005.005.005.005.005.0051.0051.005.0051.0052.0051.0051.0052.0052.0052.0052.0052.0052.0053.0053.0052.0053.0053.0054.0053.0054.0053.0054.0054.0054.0054.0055.0054.0055.0055.0055.0055.0055.0056.0055.0056.0055.0056.0056.0057.0056.0056.0057.0057.0056.0057.0057.0058.0057.0057.0058.0058.0057.0058.0058.0059.0058.0058.0059.0059.0058.0059.0059.0059.006.0059.0059.006.006.0059.006.006.006.0061.006.006.0061.0061.006.0061.0061.0061.0062.0061.0061.0062.0061.0062.0062.0062.0062.0062.0062.0062.0062.0063.0062.0063.0063.0062.0063.0063.0063.0064.0063.0063.0063.0064.0064.0063.0064.0064.0064.0064.0064.0064.0064.0064.0065.0064.0065.0064.0065.0065.0065.0065.0065.0065.0065.0065.0065.0066.0065.0065.0066.0065.0066.0066.0066.0065.0066.0066.0066.0066.0067.0066.0066.0066.0067.0066.0067.0066.0067.0066.0067.0067.0067.0066.0067.0067.0067.0067.0067.0068.0067.0067.0067.0068.0067.0067.0068.0067.0068.0067.0068.0067.0068.0068.0068.0067.0068.0068.0068.0068.0068.0068.0068.0068.0068.0068.0068.0068.0068.0068.0069.0068.0068.0068.0069.0068.0068.0069.0068.0068.0069.0068.0069.0068.0069.0068.0069.0068.0069.0068.0069.0068.0069.0068.0069.0069.0068.0069.0068.0069.0069.0068.0069.0069.0274.0549.0274.0137.0137.0274.0274.0273.0273.0545.0543.027.027.0538c0 1.01.5697 1.6899 1.111 2.1052.2712.208.541.3547.7424.4494.1011.0474.1858.0822.2461.1055.0301.0116.0542.0203.0713.0263l.0202.0069.0059.002.0019.0006.0006.0002.0003.0001c.0001 0 .0002.0001.0766-.2379zm0 0 .0706.2398-.0738.0217-.0732-.0235z" fill="#fff" stroke="#fff" stroke-width=".5"/></mask><g mask="url(#a)"><path clip-rule="evenodd" d="m0 0v24h32v-24z" fill="#0168b4" fill-rule="evenodd"/><g mask="url(#b)"><path clip-rule="evenodd" d="m0 0v3h32v-3z" fill="#e93c43" fill-rule="evenodd"/><path clip-rule="evenodd" d="m0 21v3h32v-3z" fill="#e93c43" fill-rule="evenodd"/><path d="m16 18c-3.3137 0-6-2.6863-6-6 0-3.31371 2.6863-6 6-6s6 2.68629 6 6c0 3.3137-2.6863 6-6 6z" fill="#f7fcff"/><path d="m16 20c-4.4183 0-8-3.5817-8-8 0-4.41828 3.5817-8 8-8s8 3.58172 8 8c0 4.4183-3.5817 8-8 8z" fill="#fff"/><path clip-rule="evenodd" d="m16 19c3.866 0 7-3.134 7-7 0-3.86599-3.134-7-7-7s-7 3.13401-7 7c0 3.866 3.134 7 7 7z" fill-rule="evenodd" stroke="#9c4c17" stroke-width=".5"/><path clip-rule="evenodd" d="m15.5729 4.08289-.1553.33489c.2562.13908.3533.45386.3533.64456 0 .18872-.1001.33268-.3533.46488l.1553.34617c.1061-.0554.211-.102.3101-.14606.3557-.158.6379-.28337.6379-.66499 0-.46631-.4275-.69771-.8891-.94753zm2.2404.20985-.2415.27913c.2078.20429.2145.53366.1619.71697-.052.18141-.188.29218-.4677.34949l.0538.37555c.1172-.02401.2309-.03989.3384-.05491.3854-.05384.6913-.09657.7964-.46341.1286-.44824-.2186-.78852-.5935-1.1559zm1.7949 1.0297.3125-.19632.0321.05885c.251.46093.4836.88785.2296 1.27893-.2079.32005-.5128.27149-.8972.21029-.1071-.01706-.2205-.03511-.3396-.04643l.0583-.37487c.2843.02699.4467-.03919.5495-.19747.1039-.15993.1938-.47684.0548-.73298zm2.0835 1.19272-.3546.10255c.063.28455-.1108.56439-.2547.6895-.1424.12381-.3168.14267-.5826.03836l-.1594.34427c.1114.04371.2154.09231.3137.13826.3525.16476.6323.29551.9203.04514.352-.30592.2461-.78041.1318-1.29268zm.9397 1.8311.3691-.00084-.0041.06688c-.0313.52392-.0603 1.00921-.4829 1.20627-.3459.16128-.5788-.04151-.8723-.29707-.0819-.07127-.1684-.14665-.2635-.21938l.2482-.28699c.2267.17354.3995.20347.5706.12371.1728-.08059.417-.30167.4349-.59258zm1.1197 2.13734-.3533-.1071c-.102.2729-.4002.413-.5891.4395-.1869.0263-.3434-.0529-.5095-.2851l-.3212.2019c.0696.0973.1304.1947.1878.2868.206.3302.3694.5922.7473.5391.4618-.0649.6314-.5205.8146-1.0123zm-.1997 2.0475.31.2003-.0398.0539c-.3116.4223-.6003.8135-1.062.7486-.378-.0531-.4628-.35-.5698-.7242-.0298-.1044-.0614-.2147-.1015-.3275l.3644-.1055c.0957.269.2244.3882.4112.4145.1889.0265.5141-.0259.6875-.2601zm-.2159 2.405-.2379-.2822c-.2343.1733-.5606.1284-.7335.0478-.171-.0798-.2591-.2314-.272-.5167l-.3793-.0056c.0054.1196.0033.2343.0013.3429-.0071.3891-.0128.6978.3331.8591.4226.1971.813-.0926 1.2345-.4054zm-1.2746 1.6136.1509.3369-.0627.0235c-.4914.1845-.9466.3553-1.2985.0494-.288-.2504-.1975-.5456-.0834-.9177.0319-.1038.0655-.2135.0933-.3299l.3631.1099c-.0663.2778-.0234.4478.1191.5717.1439.1251.4452.2583.7182.1562zm-1.4752 1.8925-.0523-.3655c-.2905.0229-.5434-.1882-.6473-.3481-.1028-.1583-.0972-.3336.0431-.5823l-.3187-.2058c-.0588.1043-.1214.2005-.1806.2914-.2122.3262-.3806.5851-.1728.9052.254.391.7386.3522 1.2618.3104zm-1.9534.6819-.0569.3647-.0654-.0144c-.5126-.113-.9874-.2175-1.1159-.6658-.1052-.3668.1315-.5651.4299-.815.0832-.0697.1712-.1434.2579-.2259l.2446.2899c-.2069.1969-.2635.3629-.2115.5443.0526.1833.2328.4591.5173.5222zm-2.2666.7931.1552-.3349c-.2561-.1391-.3533-.4539-.3533-.6446 0-.1887.1002-.3326.3533-.4648l-.1552-.3462c-.1061.0554-.211.102-.3102.146-.3556.158-.6379.2834-.6379.665 0 .4663.4276.6977.8892.9476zm-1.9989-.489-.2415.2791-.0479-.0469c-.3748-.3674-.722-.7077-.5935-1.1559.1052-.3668.4111-.4096.7965-.4634.1075-.015.2212-.0309.3384-.0549l.0538.3755c-.2798.0574-.4157.1681-.4677.3495-.0526.1833-.046.5127.1619.717zm-2.349-.5542.3126-.1964c-.139-.2561-.0491-.573.0548-.7329.1028-.1583.2652-.2245.5495-.1975l.0583-.3749c-.1191-.0113-.2325-.0294-.3397-.0464-.3843-.0612-.6893-.1098-.8971.2103-.254.391-.0215.818.2296 1.2789zm-1.4163-1.4916-.3546.1025-.0146-.0654c-.1142-.5123-.2201-.9867.1318-1.2927.288-.2503.5678-.1196.9204.0452.0983.0459.2023.0945.3137.1382l-.1594.3443c-.2658-.1043-.4402-.0854-.5826.0384-.1439.1251-.3178.4049-.2547.6895zm-1.66341-1.7277.36912-.0009c.01781-.2909.26204-.512.43487-.5926.17104-.0797.34382-.0498.57062.1237l.2481-.2869c-.095-.0728-.1816-.1482-.2634-.2194-.2935-.2556-.52642-.4584-.87228-.2971-.42262.1971-.45165.6824-.48299 1.2063zm-.39737-2.0311-.35323-.1071.02341-.0628c.18315-.4918.3528-.9474.81456-1.0123.37791-.0531.54135.2089.7473.5391.05743.0921.11818.1895.18781.2868l-.3212.2019c-.16614-.2323-.32264-.3114-.50953-.2851-.18883.0265-.48703.1665-.58912.4395zm-.46357-2.3549.31003.2003c.17337-.2343.49861-.2867.68745-.2601.18689.0262.31551.1454.41119.4145l.36441-.1055c-.0401-.1128-.07165-.2232-.10148-.3275-.10696-.3742-.19183-.6711-.56974-.7242-.46177-.0649-.75042.3262-1.06205.7486zm.7638-1.92253-.23791-.28222.05382-.0399c.4215-.31276.81191-.60246 1.23452-.40539.34592.16128.34022.47005.33312.85915-.002.10852-.0041.22329.0013.34284l-.37936-.00561c-.01284-.28528-.10098-.43689-.27202-.51665-.17283-.08059-.49918-.12556-.73347.04778zm.88581-2.23266.15091.33686c.27303-.10205.57433.03114.71823.15624.1424.12382.1854.29385.1191.57162l.3631.10995c.0278-.11641.0614-.22615.0932-.32992.1141-.37206.2047-.66731-.0834-.91768-.3519-.30592-.807-.13506-1.2984.04941zm1.67834-1.19018-.0522-.36541.0668-.00532c.5232-.04188 1.0078-.08066 1.2618.31041.2078.32006.0394.57892-.1728.90512-.0592.09098-.1218.18719-.1806.29143l-.3187-.20578c.1403-.24873.1458-.42401.0431-.58229-.1039-.15993-.3568-.37101-.6474-.34816zm1.9581-1.41206-.0569.3647c.2845.0631.4647.33891.5172.52222.052.18141-.0046.3474-.2114.54425l.2446.28997c.0867-.08249.1747-.1562.2579-.2259.2983-.2499.5351-.44821.4299-.81505-.1286-.44824-.6033-.55283-1.1159-.66575-.0218-.00479-.0436-.00959-.0654-.01444z" fill="#5b8c39" fill-rule="evenodd"/><path clip-rule="evenodd" d="m12.2788 13.9869s-1.0998-.0241-1.0998.4812 0 1.0651.5499.7852 1.2222-.3905 1.5778-.1953c.3556.1953 1.1842.592 2.3523.592 1.168 0 1.0901-.3967 2.1658-.3967 1.0758 0 2.9964-.0857 2.5516-.4354-.4448-.3498-.9683-.5712-1.368-.5712s-.7061 0-1.5465-.4118c-.8403-.4119-1.7785-.4492-2.7238-.3164s-1.0701.4684-1.6291.4684c-.5591 0-.8302 0-.8302 0z" fill="#247805" fill-rule="evenodd"/><path d="m16.1 15.65c.0706.2398.0707.2398.0708.2397h.0002l.0007-.0002.0019-.0006.006-.0018.0204-.0065c.0172-.0056.0414-.0137.0717-.0246.0606-.0218.1456-.0547.247-.1.2021-.0904.4728-.232.745-.4371.5448-.4105 1.1127-1.0912 1.1127-2.1272v-.0079-.008-.0079-.008-.0079-.008-.0079-.0079-.0079-.008-.0079-.0079-.0079-.0079-.0078-.0079-.0079-.0079-.0078-.0079-.0078-.0079-.0078-.0079-.0078-.0078-.0078-.0078-.0078-.0078-.0078-.0078-.0078-.0077-.0078-.0078-.0077-.0078-.0077-.0077-.0077-.0078-.0077-.0077-.0077-.0077-.0076-.0077-.0077-.0076-.0077-.0076-.0077-.0076-.0076-.0076-.0076-.0077-.0075-.0076-.0076-.0076-.0075-.0076-.0075-.0076-.0075-.0075-.0075-.0076-.0075-.0074-.0075-.0075-.0075-.0074-.0075-.0074-.0075-.0074-.0074-.0074-.0074-.0074-.0074-.0073-.0074-.0074-.0073-.0074-.0073-.0073-.0073-.0073-.0073-.0073-.0073-.0072-.0073-.0073-.0072-.0072-.0072-.0073-.0072-.0071-.0072-.0072-.0072-.0071-.0072-.0071-.0071-.0071-.0071-.0071-.0071-.0071-.0071-.007-.0071-.007-.007-.007-.007-.007-.007-.007-.007-.0069-.007-.0069-.0069-.0069-.0069-.0069-.0069-.0069-.0068-.0069-.0068-.0068-.0068-.0068-.0068-.0068-.0068-.0067-.0068-.0067-.0068-.0067-.0067-.0067-.0066-.0067-.0067-.0066-.0066-.0067-.0066-.0066-.0066-.0065-.0066-.0066-.0065-.0065-.0065-.0065-.0065-.0065-.0065-.0064-.0065-.0064-.0064-.0064-.0064-.0064-.0064-.0063-.0064-.0063-.0063-.0063-.0063-.0063-.0063-.0062-.0063-.0062-.0062-.0062-.0062-.0062-.0061-.0062-.0061-.0061-.0061-.0061-.0061-.0061-.006-.0061-.006-.006-.006-.006-.006-.006-.0059-.0059-.006-.0059-.0059-.0058-.0059-.0058-.0059-.0058-.0058-.0058-.0058-.0057-.0058-.0057-.0058-.0057-.0057-.0056-.0057-.0056-.0057-.0056-.0056-.0056-.0056-.0055-.0056-.0055-.0055-.0055-.0055-.0055-.0054-.0055-.0054-.0054-.0054-.0054-.0053-.0054-.0053-.0053-.0053-.0053-.0053-.0052-.0053-.0052-.0052-.0052-.0052-.0051-.0052-.0051-.0051-.0051-.0051-.005-.0051-.005-.005-.005-.005-.005-.0049-.005-.0049-.0049-.0048-.0049-.0049-.0048-.0048-.0048-.0048-.0048-.0047-.0047-.0047-.0047-.0047-.0047-.0046-.0047-.0046-.0046-.0045-.0046-.0045-.0046-.0045-.0045-.0044-.0045-.0044-.0044-.0044-.0044-.0044-.0043-.0044-.0043-.0043-.0042-.0043-.0042-.0043-.0042-.0041-.0042-.0042-.0041-.0041-.0041-.0041-.004-.0041-.004-.004-.004-.0039-.004-.0039-.0039-.0039-.0038-.0039-.0038-.0038-.0038-.0038-.0038-.0037-.0037-.0037-.0037-.0036-.0037-.0036-.0036-.0036-.0035-.0036-.0035-.0035-.0035-.0034-.0035-.0034-.0034-.0034-.0033-.0034-.0033-.0033-.0033-.0033-.0032-.0032-.0032-.0032-.0032-.0031-.0031-.0031-.0031-.0031-.003-.003-.003-.003-.0029-.003-.0029-.0029-.0028-.0029-.0028-.0028-.0028-.0028-.0027-.0028-.0027-.0026-.0027-.0026-.0026-.0026-.0026-.0026-.0025-.0025-.0025-.0025-.0024-.0024-.0024-.0024-.0024-.0023-.0023-.0023-.0023-.0022-.0022-.0022-.0022-.0022-.0021-.0021-.0021-.0021-.002-.002-.002-.002-.002-.0019-.0019-.0019-.0019-.0018-.0018-.0018-.0018-.0017-.0018-.0017-.0017-.0016-.0016-.0017-.0015-.0016-.0016-.0015-.0015-.0014-.0015-.0014-.0014-.0014-.0013-.0014-.0013-.0012-.0013-.0012-.0012-.0012-.0012-.0011-.0011-.0011-.0011-.001-.0011-.0009-.001-.001-.0009-.0009-.0008-.0009-.0008-.0008-.0008-.0007-.0007-.0007-.0007-.0007-.0006-.0006-.0005-.0006-.0005-.0005-.0005-.0004-.0005-.0004-.0003-.0004-.0003-.0003-.0003-.0002-.0002-.0002-.0002-.0001-.0001-.0001-.0001h-.25.25v-.25h-.25-4.0527-.25v.25h.25-.25v.0001.0001.0001.0002.0002.0002.0003.0003.0003.0004.0003.0004.0005.0005.0004.0006.0005.0006.0006.0007.0007.0007.0007.0008.0008.0008.0008.0009.0009.001.0009.001.001.0011.0011.0011.0011.0012.0012.0012.0012.0013.0013.0013.0014.0014.0014.0014.0015.0015.0015.0016.0016.0016.0016.0017.0016.0018.0017.0018.0017.0019.0018.0019.0019.0019.002.0019.002.0021.002.0021.0021.0021.0022.0022.0022.0022.0023.0022.0023.0024.0023.0024.0024.0025.0024.0025.0025.0025.0026.0026.0026.0026.0027.0026.0027.0028.0027.0028.0028.0028.0028.0029.0029.0029.003.0029.003.003.003.0031.0031.0031.0031.0031.0032.0032.0032.0032.0033.0033.0033.0033.0033.0034.0034.0034.0034.0035.0035.0035.0035.0035.0036.0036.0036.0036.0037.0036.0037.0037.0038.0037.0038.0038.0038.0038.0039.0039.0039.0039.0039.004.004.004.004.004.0041.004.0041.0041.0042.0041.0042.0042.0042.0042.0043.0043.0043.0043.0043.0043.0044.0044.0044.0044.0044.0045.0045.0044.0046.0045.0045.0046.0046.0046.0046.0046.0047.0046.0047.0047.0048.0047.0048.0047.0048.0048.0048.0049.0048.0049.0049.0049.0049.005.0049.005.005.005.005.005.0051.0051.005.0051.0052.0051.0051.0052.0052.0052.0052.0052.0052.0053.0053.0052.0053.0053.0054.0053.0054.0053.0054.0054.0054.0054.0055.0054.0055.0055.0055.0055.0055.0056.0055.0056.0055.0056.0056.0057.0056.0056.0057.0057.0056.0057.0057.0058.0057.0057.0058.0058.0057.0058.0058.0059.0058.0058.0059.0059.0058.0059.0059.0059.006.0059.0059.006.006.0059.006.006.006.0061.006.006.0061.0061.006.0061.0061.0061.0062.0061.0061.0062.0061.0062.0062.0062.0062.0062.0062.0062.0062.0063.0062.0063.0063.0062.0063.0063.0063.0064.0063.0063.0063.0064.0064.0063.0064.0064.0064.0064.0064.0064.0064.0064.0065.0064.0065.0064.0065.0065.0065.0065.0065.0065.0065.0065.0065.0066.0065.0065.0066.0065.0066.0066.0066.0065.0066.0066.0066.0066.0067.0066.0066.0066.0067.0066.0067.0066.0067.0066.0067.0067.0067.0066.0067.0067.0067.0067.0067.0068.0067.0067.0067.0068.0067.0067.0068.0067.0068.0067.0068.0067.0068.0068.0068.0067.0068.0068.0068.0068.0068.0068.0068.0068.0068.0068.0068.0068.0068.0068.0069.0068.0068.0068.0069.0068.0068.0069.0068.0068.0069.0068.0069.0068.0069.0068.0069.0068.0069.0068.0069.0068.0069.0068.0069.0069.0068.0069.0068.0069.0069.0068.0069.0069.0274.0549.0274.0137.0137.0274.0274.0273.0273.0545.0543.027.027.0538c0 1.01.5697 1.6899 1.111 2.1052.2712.208.541.3547.7424.4494.1011.0474.1858.0822.2461.1055.0301.0116.0542.0203.0713.0263l.0202.0069.0059.002.0019.0006.0006.0002.0003.0001c.0001 0 .0002.0001.0766-.2379zm0 0 .0706.2398-.0738.0217-.0732-.0235z" fill="#fff" stroke="#565656" stroke-width=".5"/><g mask="url(#c)"><g clip-rule="evenodd" fill-rule="evenodd"><path d="m14.1968 13.9088 1.9333-1.4242 2.0329 1.5856v2.2569h-3.9662z" fill="#84ceff" opacity=".4"/><path d="m14.2579 14.4125h3.5921v.5h-3.5921z" fill="#006ac9"/><path d="m14.4421 14.9075h3.3158v.2651h-3.3158z" fill="#59c800"/><path d="m14.4421 15.2374h3.3158v.5h-3.3158z" fill="#ffd800"/><path d="m18.7265 14.5106-2.5903-1.978v-2.6703h2.5903z" fill="#f7d85d"/><path d="m15.5474 13.4225s.0818.4249.1445.4249c.0626 0 .1758-.4249.1758-.4249s.0134.4249.0764.4249c.0631 0 .0553-.3561.1559-.4249.0364-.0249.0824.4227.1384.4249.047.0018.162-.4249.162-.4249s.0348.4249.0891.4249c.0544 0 .1631-.4249.1631-.4249v1.0725h-1.1052z" fill="#f5f6f6"/><path d="m16.1001 14.84c.5595 0 1.0131-.0957 1.0131-.2138 0-.118-.4536-.2137-1.0131-.2137-.5596 0-1.0132.0957-1.0132.2137 0 .1181.4536.2138 1.0132.2138z" fill="#892e2e"/></g><path d="m14.2894 11.104.2083-.1626 1.4008 1.4395-.2083.1626z" fill="#a46031"/><path d="m14.5147 12.7674-.2212-.1483 1.3622-1.6311.2213.1483z" fill="#892e2e"/><path d="m16.4078 11.3181.2083-.1291 1.4008 1.143-.2083.1291z" fill="#a46031"/><path d="m16.701 12.4859-.2592-.1761 1.3323-1.0743.2841.234z" fill="#f5f6f6"/></g><path clip-rule="evenodd" d="m14.567 16.5348.6504.2038v.5614h-.6504z" fill="#69f" fill-rule="evenodd"/><path clip-rule="evenodd" d="m14.1024 15.387.3659.2037v.5615h-.3659z" fill="#69f" fill-rule="evenodd"/><path clip-rule="evenodd" d="m17.5403 16.5348-.6504.2038v.5614h.6504z" fill="#69f" fill-rule="evenodd"/><path clip-rule="evenodd" d="m18.0049 15.387-.3659.2037v.5615h.3659z" fill="#69f" fill-rule="evenodd"/><path d="m13.7479 16.5761c-.1191 0-.2182.0028-.3315.0082-.2746.0132-.2919.0129-.3677-.0183-.0455-.0187-.091-.0489-.1564-.1026-.1551-.1274-.3222-.4199-.5036-.8788l.0005-.0193c.2239-.4841.6844-.5441 1.3692-.1852.1804.0945.7064.3804.7021.3781.2392.128.407.21.5719.2764.3418.1376.6641.2001 1.0774.2001.2483 0 .5358-.0705.8712-.2037.1938-.077.3955-.171.6415-.2959.0324-.0164.5471-.2841.6744-.3454.2227-.1072.3696-.1591.4709-.1591.0276 0 .0489-.0001.1024-.0004.0925-.0006.1365-.0006.1899 0 .4937.006.7373.0883.7373.3454 0 .2429-.158.5726-.473.9912l-.0153.0091c-.6232.084-.9846.084-1.0958-.0048-.0303-.0242-.1134-.0132-.2661.0357-.0692.0222-.4397.1547-.5542.1926-.4765.158-.8849.2429-1.3008.2429-.6334 0-1.3267-.2457-2.0799-.7365.1365.1735.0501.2703-.2644.2703z" fill="#fff"/><path clip-rule="evenodd" d="m13.4164 16.5843c.1133-.0054.2124-.0082.3315-.0082.3145 0 .4009-.0968.2644-.2703.7532.4908 1.4465.7365 2.0799.7365.4159 0 .8243-.0849 1.3008-.2429.0583-.0193.1826-.063.2999-.1042.1135-.0399.2203-.0775.2543-.0884.1527-.0489.2358-.0599.2661-.0357.1112.0888.4726.0888 1.0958.0048l.0153-.0091c.315-.4186.473-.7483.473-.9912 0-.2571-.2436-.3394-.7373-.3454-.0534-.0006-.0974-.0006-.1899 0-.0535.0003-.0748.0004-.1024.0004-.1013 0-.2482.0519-.4709.1591-.1007.0485-.4435.2259-.5986.3062-.0411.0213-.069.0358-.0758.0392-.246.1249-.4477.2189-.6415.2959-.3354.1332-.6229.2037-.8712.2037-.4133 0-.7356-.0625-1.0774-.2001-.1649-.0664-.3327-.1484-.5719-.2764.0043.0023-.5217-.2836-.7021-.3781-.6848-.3589-1.1453-.2989-1.3692.1852l-.0005.0193c.1814.4589.3485.7514.5036.8788.0654.0537.1109.0839.1564.1026.0758.0312.0931.0315.3677.0183zm-.3504-.0627c-.0405-.0166-.0826-.0446-.1447-.0956-.146-.1199-.3086-.4035-.4857-.8496.2121-.4464.642-.4994 1.3018-.1537.18.0944.7057.3801.7016.3779.2407.1288.4097.2114.5764.2786.3472.1398.6753.2033 1.0944.2033.2549 0 .5476-.0718.888-.2069.1953-.0776.3981-.1722.6452-.2976.007-.0035.0354-.0182.0771-.0398.1558-.0807.4966-.2571.5965-.3051.2165-.1043.3591-.1547.4512-.1547.0277 0 .0491-.0001.1026-.0004.0923-.0006.1361-.0006.1891 0 .4676.0057.6915.0813.6915.2976 0 .2281-.1522.5469-.4574.9542-.6015.0805-.9559.0801-1.0518.0035-.0482-.0385-.1386-.0266-.3084.0279-.0346.0111-.1427.0491-.2568.0892-.1169.0411-.2403.0844-.2978.1035-.4723.1566-.8763.2406-1.2866.2406-.6999 0-1.4769-.3058-2.331-.9181l-.027.039c.3899.2928.3899.4129.0137.4129-.1198 0-.2197.0028-.3336.0082-.265.0127-.2818.0124-.3483-.0149z" fill="#666" fill-rule="evenodd"/><path d="m13.0283 15.8085-.0671-.0661c.1515-.1631.3522-.2042.594-.1243.094.0311.7065.3852.8702.4682.5978.3036 1.167.4731 1.7715.4731.869 0 1.7085-.2744 2.5161-.8215.3052-.2475.4961-.2475.4961.0376h-.0929c0-.17-.0897-.17-.3489.0399-.8255.5595-1.6826.8396-2.5704.8396-.6208 0-1.203-.1734-1.8126-.4829-.1715-.087-.774-.4353-.8575-.4629-.2095-.0693-.3729-.0358-.4985.0993z" fill="#565757"/><g clip-rule="evenodd" fill-rule="evenodd"><path d="m16.4904 6.9436-.181.0009c.0044.74253-.1619 1.21158-.4857 1.41303-.0255.01589-.0575.03482-.0925.05515-.0306-.08248-.0704-.18209-.1212-.30675l-.0161-.03956c-.1922-.47296-.2351-.69111-.1364-.74939l-.0979-.13963c-.2176.12852-.1706.36781.0648.94704l.0161.03974c.0585.14335.1016.25225.1326.33864l-.0195.011c-.0098.00549-.0193.01089-.0287.01616-.094-.04781-.2028-.07186-.3268-.07186-.5757 0-.9745-.15081-1.2063-.44917l-.1473.09639c.2695.34696.724.51882 1.3536.51882.0514 0 .0996.00617.1446.01858-.0917.07815-.1039.16002-.1039.44157 0 .17626.038.41012.114.70242-.0585-.07495-.1131-.11038-.1685-.11038v.16604c-.008 0-.0132-.00119-.0154-.00167l-.0008-.00017-.0008-.00073-.0009-.00053.002.00151-.0003-.00025c.0055.00407.0132.01148.0223.02215.0253.02948.0562.07699.0914.14165.0736.135.1639.3401.2704.6144l.0557-.0183.0044.0124.03-.0089v.005h.0571l.0009.046.1809-.0037c-.0005-.0176-.0008-.0349-.001-.0521l.0339.0038c.0367-.2712.0582-.5173.064-.73803.0634-.17562.1571-.30268.2798-.38179.3087-.19915.49-.39064.5395-.58067l-.1759-.03865c-.0371.14219-.1916.30541-.4677.48348-.0682.04399-.1285.09823-.1812.16264-.0173-.27281-.0669-.49343-.1494-.66084v-.04904c0-.06739-.0099-.13319-.0363-.2232.0514-.02949.1003-.05818.1383-.08183.3858-.24.5698-.75908.5652-1.55137zm-.9774 1.78829c.0494.04128.0925.09451.1293.15979v1.24742c-.1485-.47034-.2226-.82276-.2226-1.05484 0-.25997.0074-.29286.0677-.33671.0037-.00271.0126-.00812.0256-.01566z" fill="#984800"/><path d="m16.9833 7.08529c-.1368.04017-.3124.05011-.4987.02059-.2061-.03264-.3847-.10706-.5037-.19974.0073.02306.0109.04671.0105.07076-.004.22921-.3717.40867-.8213.40082s-.8108-.20003-.8068-.42924c.004-.22922.3717-.40867.8213-.40082.2704.00472.5088.07611.655.18213-.0128-.03516-.017-.07081-.0114-.1061.0323-.20379.3785-.3183.7732-.25578.3948.06252.6887.27841.6564.48219-.0059.03698-.0221.07102-.047.1016.1944-.05598.4621-.04278.7355.05134.4723.16265.7827.50537.6931.76549-.0896.26011-.5451.33912-1.0175.17646-.0568-.01957-.1113-.04174-.163-.06606-.1274.19779-.485.30232-.881.23959-.4688-.07425-.8139-.3547-.7709-.62642.043-.27171.4579-.43179.9267-.35754.0679.01076.1333.02584.1952.0446.0119-.03453.0303-.06587.0544-.09387zm-2.71-.10131c.1.18046-.1023.48383-.4518.67759-.3496.19377-.7141.20456-.8141.02411-.1-.18046.1022-.48383.4518-.6776.3496-.19376.7141-.20456.8141-.0241zm1.0933 1.13414c-.0044.25214-.4534.44876-1.0028.43917-.5495-.00959-.9914-.22176-.987-.4739.0044-.25213.4534-.44876 1.0029-.43917.5495.0096.9913.22177.9869.4739zm-.6331 1.76364c.4959-.06088.8753-.2947.8473-.52224-.0279-.22754-.4526-.36264-.9484-.30176-.4959.06089-.8752.29471-.8473.52225s.4526.36264.9484.30175zm1.829.30374c.4381.1011.8393-.0161.896-.26177.0567-.24571-.2524-.52689-.6905-.62804-.4382-.10115-.8393.01605-.896.26176-.0568.24571.2524.52685.6905.62805zm.3865-.93277c.6621.12869 1.2378.03234 1.2859-.2152.0482-.24754-.4495-.55254-1.1116-.68123-.6621-.1287-1.2378-.03235-1.2859.21519s.4496.55254 1.1116.68124z" fill="#247805"/><path d="m12.2451 10.9392s-.3128 2.9702-.3128 3.3727.5758 0 .5758 0 .0845-1.4184.2806-1.9453c.1961-.527.2887.0519.2887.3596v1.7468s.7165.0975.7165-.1611-.2981-3.3727-.2981-3.3727h-1.0839z" fill="#fff"/><path d="m12.2052 10.8975-.0039.0376c-.2089 1.9826-.3131 3.1063-.3131 3.3768 0 .3185.2385.3185.646.0336l.0166-.0116.0012-.0196c.0562-.9419.1493-1.5873.2782-1.9338.0777-.2088.1003-.2181.1352-.132.0409.1006.0679.3058.0679.4777v1.783l.0378.0051c.5026.0685.7669.0091.7669-.2024 0-.1109-.0518-.7227-.1396-1.6814l-.0097-.1055c-.0326-.3548-.0675-.7289-.1025-1.0989l-.0337-.3563-.0095-.0993-.0034-.035-.0036-.038zm.26 3.3924c-.3481.2402-.4889.2369-.4889.022 0-.2645.103-1.3767.3087-3.3309h1.1705l.0092.0963.0338.3563c.0349.3699.0699.7439.1025 1.0986l.0096.1055c.0872.9517.1393 1.5673.1393 1.6742 0 .1297-.2016.1786-.6285.1247v-1.7104c0-.1813-.0282-.3956-.0737-.5078-.0753-.1852-.201-.1332-.3005.1343-.1316.3536-.2252.9985-.282 1.9372z" fill="#979797"/><path d="m11.2067 9.91757s.2457.88453.3545.88453c.1087 0 .769-.5428.769-.5428v.7367h1.2303v-.3263l.1578.3263.2151-.1006.3722-.4386h-.3722s-.1081-.7044-.1081-.8158c0-.11139.0044-.33177-.2648-.41153-.2693-.07976-.4013-.22099-.4013-.22099s.5797-.83026.1383-.83026c-.4415 0-.6413.10644-.6413.10644v.60839c0 .11543-.6333-.02124-.6333.33642s-.2953.6881-.2953.6881l-.0751-.23954z" fill="#ff863b"/><path d="m13.0668 8.38286c.2433 0 .4405-.09691.4405-.21645 0-.11955-.1972-.21646-.4405-.21646-.2432 0-.4405.09691-.4405.21646 0 .11954.1973.21645.4405.21645z" fill="#000"/></g><path d="m10.8471 10.2599-.1988-.1651c.3831-.41473.8093-.71645 1.2782-.90374.4441-.17735 1.0244-.46041 1.7399-.8489l.1313.21751c-.724.3931-1.3131.68046-1.7686.86237-.4306.17197-.8244.45078-1.182.83786z" fill="#740000"/><g clip-rule="evenodd" fill-rule="evenodd"><path d="m13.6578 8.43301.167.78418.7413-.39209-.5838-.64883z" fill="#f9fcff" stroke="#6c6c6c" stroke-width=".5"/><path d="m19.8592 11.307s.3104 3.1.3104 3.5201-.5712 0-.5712 0-.0839-1.4804-.2784-2.0304c-.1945-.5499-.2863.0543-.2863.3754v1.8231s-.7108.1018-.7108-.1681c0-.27.2958-3.5201.2958-3.5201h1.075z" fill="#fff"/><path d="m19.8988 11.2634.0039.0393c.2072 2.0693.3106 3.2421.3106 3.5244 0 .3324-.2367.3324-.6408.0351l-.0165-.0122-.0012-.0204c-.0557-.9831-.1481-1.6567-.276-2.0183-.077-.2179-.0994-.2277-.1341-.1378-.0405.105-.0673.3191-.0673.4986v1.8609l-.0375.0054c-.4985.0714-.7607.0094-.7607-.2113 0-.1157.0514-.7543.1385-1.7549l.0096-.1102c.0323-.3702.067-.7606.1016-1.1468l.0335-.3719.0094-.1036.0034-.0366.0036-.0397zm-.2579 3.5407c.3453.2507.485.2473.485.023 0-.2761-.1022-1.4369-.3062-3.4765h-1.1611l-.0091.1005-.0335.3719c-.0347.3861-.0693.7764-.1017 1.1466l-.0096.1101c-.0864.9933-.1381 1.6358-.1381 1.7474 0 .1353.2.1864.6234.1301v-1.7851c0-.1893.028-.4129.0732-.53.0746-.1933.1993-.139.298.1402.1306.369.2234 1.0421.2797 2.0218z" fill="#979797"/><path d="m20.9109 10.178s-.2438.9232-.3517.9232c-.1078 0-.7628-.5665-.7628-.5665v.7689h-1.2203v-.3405l-.1565.3405-.2134-.105-.3692-.4578h.3692s.1072-.7352.1072-.85143c0-.11626-.0043-.34626.2627-.42951.2671-.08325.3981-.23065.3981-.23065s-.5751-.86654-.1372-.86654.6361.11109.6361.11109v.63498c0 .12047.6281-.02217.6281.35112s.2929.71814.2929.71814l.0746-.24998z" fill="#824028"/><path d="m19.0657 8.57622c-.2413 0-.4369-.10115-.4369-.22592 0-.12476.1956-.22591.4369-.22591.2414 0 .437.10115.437.22591 0 .12477-.1956.22592-.437.22592z" fill="#000"/></g><path d="m21.5252 10.3456-2.6726-1.39307s-.0495-.46798-.5657-.60887c-.5162-.1409-.9279-.35892-.9279-.35892l-.235.35892s-.4186-.11048 1.1629.60887c1.5815.71934-.0596-.3899.39 0z" fill="#ba611f"/></g></g></svg>