<svg fill="none" height="24" viewBox="0 0 32 24" width="32" xmlns="http://www.w3.org/2000/svg" xmlns:xlink="http://www.w3.org/1999/xlink"><mask id="a" height="24" maskUnits="userSpaceOnUse" width="32" x="0" y="0"><path d="m0 0h32v24h-32z" fill="#fff"/></mask><mask id="b" height="24" maskUnits="userSpaceOnUse" width="32" x="0" y="0"><path clip-rule="evenodd" d="m0 0v24h32v-24z" fill="#fff" fill-rule="evenodd"/></mask><g mask="url(#a)"><g clip-rule="evenodd" fill-rule="evenodd"><path d="m0 0v24h32v-24z" fill="#f7fcff"/><g mask="url(#b)"><path d="m0 0v8h32v-8z" fill="#009d00"/><path d="m0 8v8h32v-8z" fill="#fff"/><path d="m0 16v8h32v-8z" fill="#f80000"/></g><path d="m0 0v24l8-11.848z" fill="#0075d5"/></g><g fill="#ffd500" stroke="#000" stroke-width=".05"><path d="m14.5702 8.88296-.0129.0029-.0096-.00892-.2067-.19093-.0258.28019-.0012.01308-.0115.00643-.2455.13756.2585.11115.0121.0052.0026.01289.055.27595.1855-.21149.0087-.00988.0131.00154.2794.03298-.1438-.24186-.0067-.0113.0055-.01193.1177-.25557z"/><path d="m15.5702 8.88296-.0129.0029-.0096-.00892-.2067-.19093-.0258.28019-.0012.01308-.0115.00643-.2455.13756.2585.11115.0121.0052.0026.01289.055.27595.1855-.21149.0087-.00988.0131.00154.2794.03298-.1438-.24186-.0067-.0113.0055-.01193.1177-.25557z"/><path d="m16.5702 8.88296-.0129.0029-.0096-.00892-.2067-.19093-.0258.28019-.0012.01308-.0115.00643-.2455.13756.2585.11115.0121.0052.0026.01289.055.27595.1855-.21149.0087-.00988.0131.00154.2794.03298-.1438-.24186-.0067-.0113.0055-.01193.1177-.25557z"/><path d="m17.5702 8.88296-.0129.0029-.0096-.00892-.2067-.19093-.0258.28019-.0012.01308-.0115.00643-.2455.13756.2585.11115.0121.0052.0026.01289.055.27595.1855-.21149.0087-.00988.0131.00154.2794.03298-.1438-.24186-.0067-.0113.0055-.01193.1177-.25557z"/><path d="m18.5702 8.88296-.0129.0029-.0096-.00892-.2067-.19093-.0258.28019-.0012.01308-.0115.00643-.2455.13756.2585.11115.0121.0052.0026.01289.055.27595.1855-.21149.0087-.00988.0131.00154.2794.03298-.1438-.24186-.0067-.0113.0055-.01193.1177-.25557z"/><path d="m19.5702 8.88296-.0129.0029-.0096-.00892-.2067-.19093-.0258.28019-.0012.01308-.0115.00643-.2455.13756.2585.11115.0121.0052.0026.01289.055.27595.1855-.21149.0087-.00988.0131.00154.2794.03298-.1438-.24186-.0067-.0113.0055-.01193.1177-.25557z"/></g><path d="m15.05 10.05h3.9v2.95c0 1.077-.873 1.95-1.95 1.95s-1.95-.873-1.95-1.95z" stroke="#373737" stroke-width=".1"/><path clip-rule="evenodd" d="m16.7264 11.9599s-.2017 2.3653-.403 2.5086c-.2014.1433.9649.2149 1.0763.1075.1115-.1075-.5086-2.0349-.2953-2.6161s.5569-.6283.5569-.6283-.4331-.0916-.5569.0828c-.1237.1744-.4928-.0828-.4928-.0828z" fill="#6f3e1d" fill-rule="evenodd"/><path clip-rule="evenodd" d="m16.6823 11.8261h-.1552s-.1051.4108-.3461.2054-.581-.133-.581-.133.0305-.2457.4005-.3435c.37-.0977.5266-.8911.5266-.8911s.5236-.1949.8421.2045c.3186.3994.7674.229.7674.229s.328.1865.164.4576-.4438.4695-.6876.2711c-.2438-.1983-.9307 0-.9307 0z" fill="#009d29" fill-rule="evenodd"/></g></svg>