<svg fill="none" height="15" viewBox="0 0 20 15" width="20" xmlns="http://www.w3.org/2000/svg" xmlns:xlink="http://www.w3.org/1999/xlink"><mask id="a" height="15" maskUnits="userSpaceOnUse" width="20" x="0" y="0"><path d="m0 0h20v15h-20z" fill="#fff"/></mask><mask id="b" height="15" maskUnits="userSpaceOnUse" width="20" x="0" y="0"><path clip-rule="evenodd" d="m0 0v15h20v-15z" fill="#fff" fill-rule="evenodd"/></mask><mask id="c" height="9" maskUnits="userSpaceOnUse" width="11" x="0" y="0"><path d="m0 0h11v9h-11z" fill="#fff"/></mask><mask id="d" fill="#000" height="11" maskUnits="userSpaceOnUse" width="13" x="-1" y="-1"><path d="m-1-1h13v11h-13z" fill="#fff"/><path clip-rule="evenodd" d="m6 0h-1v4h-5v1h5v4h1v-4h5v-1h-5z" fill="#000" fill-rule="evenodd"/></mask><g mask="url(#a)"><path clip-rule="evenodd" d="m0 0v15h20v-15z" fill="#2e42a5" fill-rule="evenodd"/><g mask="url(#b)"><path d="m0 0h11v9h-11z" fill="#2e42a5"/><g mask="url(#c)"><path d="m-1.25269 8.12494 2.4756 1.08575 10.08329-8.03017 1.3058-1.613458-2.64732-.362889-4.11271 3.460427-3.31032 2.33153z" fill="#f7fcff"/><path d="m-.913757 8.88555 1.261201.63007 11.795656-10.098567h-1.7709z" fill="#f50100"/><path d="m12.5026 8.1248-2.1971 1.39571-10.3617172-8.34013-1.3058228-1.613456 2.6473-.36289 4.11271 3.460436 3.31031 2.33152z" fill="#f7fcff"/><path d="m12.4182 8.6707-1.2612.63008-5.02275-4.32372-1.48913-.48308-6.13281-4.921584h1.770875l6.129365 4.804764 1.62809.57926z" fill="#f50100"/><path clip-rule="evenodd" d="m6 0h-1v4h-5v1h5v4h1v-4h5v-1h-5z" fill="#f50100" fill-rule="evenodd"/><path d="m5 0v-.9375h-.9375v.9375zm1 0h.9375v-.9375h-.9375zm-1 4v.9375h.9375v-.9375zm-5 0v-.9375h-.9375v.9375zm0 1h-.9375v.9375h.9375zm5 0h.9375v-.9375h-.9375zm0 4h-.9375v.9375h.9375zm1 0v.9375h.9375v-.9375zm0-4v-.9375h-.9375v.9375zm5 0v.9375h.9375v-.9375zm0-1h.9375v-.9375h-.9375zm-5 0h-.9375v.9375h.9375zm-1-3.0625h1v-1.875h-1zm.9375 3.0625v-4h-1.875v4zm-5.9375.9375h5v-1.875h-5zm.9375.0625v-1h-1.875v1zm4.0625-.9375h-5v1.875h5zm.9375 4.9375v-4h-1.875v4zm.0625-.9375h-1v1.875h1zm-.9375-3.0625v4h1.875v-4zm5.9375-.9375h-5v1.875h5zm-.9375-.0625v1h1.875v-1zm-4.0625.9375h5v-1.875h-5zm-.9375-4.9375v4h1.875v-4z" fill="#f7fcff" mask="url(#d)"/></g><path clip-rule="evenodd" d="m12.6542 6.27051v4.08069s-.0605 3.3764 3.0512 3.3764 3.1117-3.3764 3.1117-3.3764v-4.08069z" fill="#3b7e05" fill-rule="evenodd" stroke="#f7fcff" stroke-width=".5"/><path clip-rule="evenodd" d="m12.6481 12.4306.4958-.4977c.7747.9568 1.5896 1.4225 2.456 1.4225s1.6806-.4656 2.4541-1.4223l.2822.2828.012-.0177c.1725.146.2862.2827.3408.441.0889.2578-.0061.5055-.2145.6366-.0517.0325-.0928.0559-.1293.0729-.0846.0394-.1524.0565-.2531.0281-.1025-.0289-.1887-.1078-.2332-.2163-.7031.6218-1.4577.9381-2.259.9381-.7944 0-1.5432-.3108-2.2418-.9222-.0467.1068-.1337.1834-.2361.2103-.1012.0267-.1687.0083-.2526-.0325-.0362-.0176-.0768-.0418-.128-.0752-.2061-.1347-.2968-.384-.2034-.6403.0255-.0696.0663-.1343.119-.1972-.0029-.0036-.0059-.0073-.0089-.0109z" fill="#ffd018" fill-rule="evenodd"/><path d="m13.1439 11.9329.1943-.1574-.1751-.2162-.1964.1971zm-.4958.4977-.1771-.1765-.1585.1592.1413.1746zm5.4059-.4975.177-.1766-.1965-.197-.1749.2164zm.2822.2828-.177.1766.2143.2149.1699-.2516zm.012-.0177.1615-.1908-.2128-.1801-.1559.231zm.3408.441.2363-.0816zm-.2145.6366.133.2116zm-.1293.0729-.1055-.2266zm-.2531.0281.0678-.2406zm-.2332-.2163.2312-.095-.1335-.3252-.2634.2329zm-4.5008.0159.1647-.1881-.257-.2248-.1367.3128zm-.2361.2103-.0637-.2417zm-.2526-.0325-.1095.2248zm-.128-.0752-.1367.2093zm-.2034-.6403-.2348-.0856zm.119-.1972.1915.1608.1328-.1582-.1303-.1603zm.3097-.6851-.4957.4977.3543.3529.4957-.4977zm2.6332 1.349c-.7644 0-1.5148-.4073-2.2617-1.3299l-.3886.3147c.8025.9911 1.6819 1.5152 2.6503 1.5152zm2.2597-1.3295c-.7457.9223-1.4953 1.3295-2.2597 1.3295v.5c.9684 0 1.8472-.5241 2.6485-1.5152zm.6536.2635-.2822-.2829-.354.3531.2822.2829zm-.3722.0189-.012.0177.4144.2798.012-.0177zm.7843.4993c-.0758-.2198-.2285-.3918-.4156-.5502l-.3231.3816c.1579.1336.2327.235.2661.3317zm-.3178.9298c.3076-.1934.4444-.5629.3178-.9298l-.4726.1631c.0513.1488-.0019.2747-.1113.3434zm-.1568.0879c.0503-.0234.1015-.0531.1568-.0879l-.2661-.4233c-.0481.0303-.079.0474-.1017.058zm-.4265.0421c.0792.0224.1565.0295.2354.0183.0756-.0106.1395-.0363.1911-.0604l-.211-.4532c-.033.0153-.0453.0179-.0499.0185-.0013.0002-.0083.0017-.0299-.0044zm-.3966-.362c.0712.1733.2138.3105.3966.362l.1357-.4812c-.0222-.0063-.0518-.0269-.0698-.0707zm-2.0277 1.0932c.8734 0 1.6848-.3465 2.4246-1.0009l-.3313-.3745c-.6663.5894-1.3641.8754-2.0933.8754zm-2.4064-.984c.7353.6434 1.5407.984 2.4064.984v-.5c-.723 0-1.4153-.2811-2.0771-.8603zm-.0079.2639c.1826-.0481.327-.1814.4016-.3519l-.4581-.2003c-.0188.0429-.0486.0628-.0708.0687zm-.4257-.0495c.0512.0249.1147.0517.1901.0637.0787.0125.1561.0067.2356-.0142l-.1273-.4835c-.0216.0057-.0285.0041-.0299.0039-.0046-.0008-.0168-.0035-.0496-.0195zm-.1552-.0907c.0547.0358.1053.0664.1552.0907l.2189-.4496c-.0225-.0109-.0531-.0286-.1006-.0597zm-.3015-.9352c-.133.3646-.0026.7365.3015.9352l.2735-.4186c-.1082-.0706-.1592-.1975-.1053-.3453zm.1624-.2724c-.066.0786-.1245.1683-.1624.2724l.4697.1713c.0129-.0353.036-.075.0756-.1221zm-.0118.3072c.0031.0038.0062.0076.0093.0113l.3879-.3154c-.0028-.0035-.0057-.007-.0086-.0106z" fill="#fff"/><g clip-rule="evenodd" fill-rule="evenodd"><path d="m13.7224 7.1627.0695.02549c.0568-.12995.0662-.22896 0-.29252l-.0019-.00293c-.0154-.02411-.0428-.06692.0019-.1584l-.0319-.06539c-.0647.13244-.0939.22802-.0433.29246l.0026.00329.0031.00274c.0293.02638.0416.10012 0 .19526zm0 .94595.0695.02549c.0568-.12996.0662-.22896 0-.29253l-.0019-.00292c-.0154-.02411-.0428-.06692.0019-.1584l-.0319-.0654c-.0647.13245-.0939.22803-.0433.29246l.0026.00329.0031.00275c.0293.02638.0416.10012 0 .19526zm.0695.87008-.0695-.02549c.0416-.09513.0293-.16887 0-.19526l-.0031-.00274-.0026-.00329c-.0506-.06444-.0214-.16002.0433-.29246l.0319.06539c-.0447.09148-.0173.13429-.0019.1584l.0019.00293c.0662.06356.0568.16257 0 .29252zm.4159.98802.0695.02549c.0568-.12995.0662-.22895 0-.29252l-.0018-.00293c-.0155-.02411-.0429-.06692.0018-.1584l-.0319-.06539c-.0647.13244-.0939.22803-.0432.29246l.0025.00329.0031.00275c.0293.02638.0416.10012 0 .19525zm-.5069.83635-.0696-.0255c.0416-.0952.0293-.1689 0-.1953l-.003-.0027-.0026-.0033c-.0506-.0645-.0214-.16.0433-.2925l.0319.0654c-.0447.0915-.0173.1343-.0019.1584l.0019.0029c.0662.0636.0568.1626 0 .2926zm-.0696.9204.0696.0255c.0568-.1299.0662-.229 0-.2925l-.0019-.0029c-.0154-.0242-.0428-.067.0019-.1584l-.0319-.0654c-.0647.1324-.0939.228-.0433.2924l.0026.0033.003.0028c.0293.0263.0416.1001 0 .1952zm3.0732.0255-.0695-.0255c.0416-.0951.0293-.1689 0-.1952l-.0031-.0028-.0026-.0033c-.0506-.0644-.0214-.16.0433-.2924l.0319.0654c-.0447.0914-.0173.1342-.0019.1584l.0019.0029c.0662.0635.0568.1626 0 .2925zm-.0695-.9377.0695.0255c.0568-.1299.0662-.2289 0-.2925l-.0019-.0029c-.0154-.0241-.0428-.0669.0019-.1584l-.0319-.0654c-.0647.1324-.0939.228-.0433.2925l.0026.0032.0031.0028c.0293.0264.0416.1001 0 .1952zm.0695-.88662-.0695-.02549c.0416-.09514.0293-.16888 0-.19526l-.0031-.00275-.0026-.00329c-.0506-.06443-.0214-.16001.0433-.29246l.0319.0654c-.0447.09148-.0173.13429-.0019.1584l.0019.00292c.0662.06357.0568.16258 0 .29253zm-.0999-.90387.0696.02549c.0568-.12995.0662-.22896 0-.29252l-.0019-.00293c-.0154-.02411-.0428-.06692.0019-.1584l-.0319-.0654c-.0647.13245-.0939.22803-.0433.29246l.0026.00329.003.00275c.0293.02638.0416.10012 0 .19526zm.0696-.92046-.0696-.02549c.0416-.09513.0293-.16887 0-.19525l-.003-.00275-.0026-.00329c-.0506-.06444-.0214-.16002.0433-.29246l.0319.06539c-.0447.09148-.0173.13429-.0019.1584l.0019.00293c.0662.06356.0568.16257 0 .29252zm-.0696-.90387.0696.02549c.0568-.12995.0662-.22895 0-.29252-.0006-.00094-.0013-.00192-.0019-.00293-.0154-.02411-.0428-.06692.0019-.1584l-.0319-.06539c-.0647.13244-.0939.22802-.0433.29246l.0026.00329.003.00275c.0293.02638.0416.10012 0 .19525z" fill="#f50100"/><path d="m14.2251 6.75916c.005-.00974.0079-.02096.0079-.0329 0-.03732-.028-.06757-.0625-.06757s-.0625.03025-.0625.06757c0 .01609.0052.03086.0139.04246l-.2365.3662.0246.01972.2364-.36602c.0074.00335.0156.00521.0241.00521.0122 0 .0235-.00376.0331-.01025l.2488.3713.0243-.0202zm-.0085.31678c.0102-.01202.0164-.02804.0164-.04563 0-.03731-.028-.06756-.0625-.06756s-.0625.03025-.0625.06756c0 .02276.0104.04289.0264.05513l-.0593.07127h-.4015s.044.10064.1809.12721c.0418.03974.1487.11369.1487.11369l-.061.07409h.4329v-.07409c.1055-.00079.1451-.08407.1592-.1138.0059-.01226.0074-.01541.0074.00011 0 .05316.077 0 .077 0s.1277-.12721.1277-.24845c0-.12123-.2672.12124-.2672.12124h-.1813zm-.543 1.02672h.4015l.0593-.07127c-.016-.01225-.0264-.03238-.0264-.05513 0-.03732.028-.06757.0625-.06757s.0625.03025.0625.06757c0 .01759-.0062.03361-.0164.04563l.0813.08077h.1813s.2672-.24248.2672-.12124-.1277.24845-.1277.24845-.077.05315-.077 0c0-.01553-.0015-.01238-.0074-.00011-.0141.02972-.0537.113-.1592.11379v.07409h-.4329l.061-.07409s-.1069-.07395-.1487-.11368c-.1369-.02658-.1809-.12721-.1809-.12721zm.5515-.39755c.005-.00974.0079-.02096.0079-.03291 0-.03731-.028-.06756-.0625-.06756s-.0625.03025-.0625.06756c0 .01609.0052.03087.0139.04247l-.2365.36619.0246.01973.2364-.36602c.0074.00335.0156.0052.0241.0052.0122 0 .0235-.00375.0331-.01025l.2488.37131.0243-.0202zm-.5515 1.24214h.4015l.0593-.07127c-.016-.01224-.0264-.03237-.0264-.05513 0-.03731.028-.06756.0625-.06756s.0625.03025.0625.06756c0 .01759-.0062.03361-.0164.04563l.0813.08077h.1813s.2672-.24247.2672-.12124c0 .12124-.1277.24845-.1277.24845s-.077.05316-.077 0c0-.01552-.0015-.01237-.0074-.00011-.0141.02973-.0537.11301-.1592.1138v.07409h-.4329l.061-.07409s-.1069-.07395-.1487-.11369c-.1369-.02657-.1809-.12721-.1809-.12721zm.5515-.39755c.005-.00973.0079-.02096.0079-.0329 0-.03732-.028-.06757-.0625-.06757s-.0625.03025-.0625.06757c0 .01609.0052.03086.0139.04247l-.2365.36619.0246.01972.2364-.36602c.0074.00336.0156.00521.0241.00521.0122 0 .0235-.00376.0331-.01025l.2488.3713.0243-.0202zm-.0661 1.41106h.4016l.0592-.07127c-.0159-.01224-.0264-.03237-.0264-.05512 0-.03732.028-.06757.0625-.06757.0346 0 .0625.03025.0625.06757 0 .01758-.0062.0336-.0164.04562l.0813.08077h.1813s.2673-.24247.2673-.12123c0 .12123-.1278.24847-.1278.24847s-.077.0531-.077 0c0-.0155-.0015-.0124-.0073-.0001-.0142.0297-.0538.113-.1593.1138v.0741h-.4328l.061-.0741s-.107-.074-.1487-.1137c-.137-.0266-.181-.12724-.181-.12724zm.5516-.39754c.005-.00974.0078-.02096.0078-.03291 0-.03731-.0279-.06756-.0625-.06756-.0345 0-.0625.03025-.0625.06756 0 .01609.0052.03087.0139.04247l-.2365.36619.0247.01973.2364-.36602c.0074.00335.0155.0052.024.0052.0122 0 .0236-.00375.0332-.01025l.2487.3713.0243-.0202zm-1.128 1.20838h.4015l.0592-.0713c-.0159-.0122-.0263-.0324-.0263-.0551 0-.0373.028-.0676.0625-.0676s.0625.0303.0625.0676c0 .0176-.0062.0336-.0164.0456l.0812.0808h.1814s.2672-.2425.2672-.1213c0 .1213-.1278.2485-.1278.2485s-.077.0531-.077 0c0-.0155-.0015-.0124-.0073-.0001-.0141.0297-.0537.113-.1592.1138v.0741h-.4329l.061-.0741s-.1069-.074-.1487-.1137c-.1369-.0266-.1809-.1272-.1809-.1272zm.5515-.3976c.005-.0097.0079-.0209.0079-.0329 0-.0373-.028-.0675-.0625-.0675s-.0625.0302-.0625.0675c0 .0161.0052.0309.0139.0425l-.2365.3662.0246.0197.2364-.366c.0074.0033.0156.0052.0241.0052.0122 0 .0235-.0038.0331-.0103l.2487.3713.0244-.0202zm-.5515 1.3435h.4015l.0592-.0712c-.0159-.0123-.0263-.0324-.0263-.0552 0-.0373.028-.0675.0625-.0675s.0625.0302.0625.0675c0 .0176-.0062.0336-.0164.0457l.0812.0807h.1814s.2672-.2425.2672-.1212c0 .1212-.1278.2484-.1278.2484s-.077.0532-.077 0c0-.0155-.0015-.0123-.0073-.0001-.0141.0297-.0537.113-.1592.1138v.0741h-.4329l.061-.0741s-.1069-.0739-.1487-.1137c-.1369-.0265-.1809-.1272-.1809-.1272zm.5515-.3975c.005-.0098.0079-.021.0079-.0329 0-.0373-.028-.0676-.0625-.0676s-.0625.0303-.0625.0676c0 .0161.0052.0308.0139.0424l-.2365.3662.0246.0198.2364-.3661c.0074.0034.0156.0052.0241.0052.0122 0 .0235-.0037.0331-.0102l.2487.3713.0244-.0202zm2.4521.3975h.4015l.0593-.0712c-.016-.0123-.0264-.0324-.0264-.0552 0-.0373.028-.0675.0625-.0675.0346 0 .0625.0302.0625.0675 0 .0176-.0062.0336-.0164.0457l.0813.0807h.1813s.2673-.2425.2673-.1212c0 .1212-.1278.2484-.1278.2484s-.077.0532-.077 0c0-.0155-.0015-.0123-.0073-.0001-.0142.0297-.0538.113-.1593.1138v.0741h-.4328l.061-.0741s-.107-.0739-.1488-.1137c-.1369-.0265-.1809-.1272-.1809-.1272zm.5515-.3975c.0051-.0098.0079-.021.0079-.0329 0-.0373-.0279-.0676-.0625-.0676-.0345 0-.0625.0303-.0625.0676 0 .0161.0052.0308.0139.0424l-.2365.3662.0247.0198.2363-.3661c.0075.0034.0156.0052.0241.0052.0122 0 .0235-.0037.0331-.0102l.2488.3713.0243-.0202zm-.5515-.5146h.4015l.0593-.0713c-.016-.0123-.0264-.0324-.0264-.0551 0-.0374.028-.0676.0625-.0676.0346 0 .0625.0302.0625.0676 0 .0175-.0062.0336-.0164.0456l.0813.0808h.1813s.2673-.2425.2673-.1213c0 .1213-.1278.2485-.1278.2485s-.077.0531-.077 0c0-.0156-.0015-.0124-.0073-.0001-.0142.0297-.0538.113-.1593.1138v.074h-.4328l.061-.074s-.107-.074-.1488-.1137c-.1369-.0266-.1809-.1272-.1809-.1272zm.5515-.3976c.0051-.0097.0079-.0209.0079-.0329 0-.0373-.0279-.0676-.0625-.0676-.0345 0-.0625.0303-.0625.0676 0 .0161.0052.0309.0139.0425l-.2365.3662.0247.0197.2363-.366c.0075.0033.0156.0052.0241.0052.0122 0 .0235-.0038.0331-.0103l.2488.3713.0243-.0202zm-.5515-.5146h.4015l.0593-.07127c-.016-.01225-.0264-.03237-.0264-.05513 0-.03732.028-.06757.0625-.06757.0346 0 .0625.03025.0625.06757 0 .01759-.0062.03361-.0164.04563l.0813.08077h.1813s.2673-.24248.2673-.12124-.1278.24844-.1278.24844-.077.0532-.077 0c0-.0155-.0015-.0124-.0073-.0001-.0142.0297-.0538.113-.1593.1138v.0741h-.4328l.061-.0741s-.107-.074-.1488-.1137c-.1369-.02657-.1809-.1272-.1809-.1272zm.5515-.39755c.0051-.00974.0079-.02096.0079-.0329 0-.03732-.0279-.06757-.0625-.06757-.0345 0-.0625.03025-.0625.06757 0 .01608.0052.03086.0139.04246l-.2365.36619.0247.01973.2363-.36602c.0075.00335.0156.0052.0241.0052.0122 0 .0235-.00375.0331-.01025l.2488.37131.0243-.0202zm-.5818-.48083h.4015l.0592-.07127c-.0159-.01225-.0263-.03237-.0263-.05513 0-.03732.028-.06757.0625-.06757s.0625.03025.0625.06757c0 .01759-.0062.03361-.0164.04563l.0812.08077h.1814s.2672-.24247.2672-.12124c0 .12124-.1278.24845-.1278.24845s-.077.05315-.077 0c0-.01552-.0015-.01238-.0073-.00011-.0141.02973-.0537.11301-.1592.1138v.07409h-.4329l.061-.07409s-.1069-.07395-.1487-.11369c-.1369-.02657-.1809-.12721-.1809-.12721zm.5515-.39755c.005-.00974.0079-.02096.0079-.0329 0-.03732-.028-.06757-.0625-.06757s-.0625.03025-.0625.06757c0 .01608.0052.03086.0139.04246l-.2365.3662.0246.01972.2364-.36602c.0074.00335.0156.0052.0241.0052.0122 0 .0235-.00375.0331-.01024l.2487.3713.0244-.0202zm-.5515-.5484h.4015l.0592-.07127c-.0159-.01224-.0263-.03237-.0263-.05512 0-.03732.028-.06757.0625-.06757s.0625.03025.0625.06757c0 .01758-.0062.0336-.0164.04562l.0812.08077h.1814s.2672-.24247.2672-.12123c0 .12123-.1278.24845-.1278.24845s-.077.05315-.077 0c0-.01553-.0015-.01238-.0073-.00012-.0141.02973-.0537.11301-.1592.1138v.07409h-.4329l.061-.07409s-.1069-.07395-.1487-.11368c-.1369-.02658-.1809-.12722-.1809-.12722zm.5515-.39755c.005-.00973.0079-.02095.0079-.0329 0-.03732-.028-.06757-.0625-.06757s-.0625.03025-.0625.06757c0 .01609.0052.03086.0139.04247l-.2365.36619.0246.01972.2364-.36602c.0074.00336.0156.00521.0241.00521.0122 0 .0235-.00376.0331-.01025l.2487.3713.0244-.0202z" fill="#ffd018"/><path d="m15.3999 7.86597-.2103.68341s-.3521.45564-.4171.67892c-.065.22329-.1005.37164-.0828.37164.0178 0 .1617-.06356.1617-.2176s.5485-.64938.5485-.64938l.1637-.86699z" fill="#ffc6b5"/><path d="m17.1074 6.7931c.005-.00974.0079-.02096.0079-.03291 0-.03731-.028-.06756-.0625-.06756-.0346 0-.0625.03025-.0625.06756 0 .01609.0052.03087.0138.04247l-.2364.36619.0246.01973.2364-.36602c.0074.00335.0155.0052.0241.0052.0121 0 .0235-.00375.0331-.01025l.2487.37131.0243-.0202zm-.0085.31678c.0101-.01203.0164-.02804.0164-.04563 0-.03732-.028-.06757-.0625-.06757-.0346 0-.0625.03025-.0625.06757 0 .02275.0104.04288.0263.05513l-.0592.07126h-.4016s.044.10064.181.12722c.0417.03973.1487.11368.1487.11368l-.061.07409h.4329v-.07409c.1054-.00079.145-.08407.1592-.11379.0058-.01227.0073-.01542.0073.00011 0 .05315.077 0 .077 0s.1278-.12722.1278-.24845c0-.12124-.2672.12123-.2672.12123h-.1814z" fill="#ffd018"/><path d="m15.9126 7.59243c.0059.01246.0103.02182.0103.035 0 .03942-.167.09728-.2875.09728s-.0733-.09728 0-.15123c.0732-.05395-.0059-.1468-.0733-.1468-.0639 0-.0637-.09032-.0635-.1629 0-.00384 0-.00762 0-.01134v-.2828c0-.11347.0308-.10018.0895-.07478.0346.01495.0788.03408.1322.03408.0897 0 .0947.02066.1081.0766.0082.03399.0195.081.0549.1443.0563.10082.0448.12402.0268.16055-.012.02416-.0268.05415-.0268.11629 0 .10388.0175.14095.0293.16575zm.1488.72535.0354-.38438s-.0354-.1406.0476-.1406c.0831 0 .212.67224.2586.94175.0298.17236.0025.20435-.0766.29673-.0446.05207-.1056.12332-.182.24971-.1271.21023-.1189.33326-.1126.42701.0041.06261.0075.11216-.031.1659-.0894.12494-.126.00671-.1618-.10864-.0026-.00858-.0053-.01714-.008-.02558-.0341-.1079.1217-.43497.2274-.65713.0139-.02905.0268-.05631.0384-.08106.1002-.21391.0908-.28856.0476-.37814-.0432-.08959-.083-.30557-.083-.30557z" fill="#ffc6b5"/><path d="m16.2621 12.1059c0 .0978-.0747.177-.1669.177-.0921 0-.1668-.0792-.1668-.177 0-.0977.0747-.1769.1668-.1769.0922 0 .1669.0792.1669.1769zm-.8874.0492c-.0749.0628-.1662.0773-.2039.0324-.0376-.0449-.0075-.1323.0674-.1951.0748-.0628.1661-.0773.2038-.0324s.0075.1323-.0673.1951z" fill="#ffd018"/><path d="m15.5944 6.7404s-.1735.03523-.1157.12213c.0578.08689-.0754.06442.1157.07566.191.01123.2434.08079.2172.13217-.0262.05139-.0467.17898 0 .25587.0467.07688.0615.21067.144.14377.0825-.06689.2409-.1588.1924-.27922-.0486-.12042.0195-.2605-.0864-.32825-.106-.06775-.1297-.02632-.1903-.12213-.0607-.09581-.15-.12219-.2135-.0611-.0634.0611-.0634.0611-.0634.0611z" fill="#a95601"/><path d="m15.56 7.61084s-.3488.41995-.2917.56791.1425.15574.0998.36611.026.53561-.0998.94935c-.1257.41375-.2084 1.38449-.167 1.38449.0413 0 .0987.5363.0493.7768-.0493.2406-.3936.4419-.0493.4419.3442 0 .385.0477.5226 0s.3328.1372.3328 0c0-.1373.0147-.1653.1196-.1653h.1924c.0928 0 .2145.0864.2145-.1186s.0226-.6455-.0959-.9876c-.1186-.342-.0784-.1236-.1947-.581-.0689-.27096-.1221-.37849-.1641-.47314-.0288-.06513-.1111.04921-.1307-.05277-.0066-.03457.0497-.23745.0503-.2635.0037-.1624.1282-.19004.1282-.4694 0-.32417-.0778-.6803 0-.85849.0777-.17818.2684-.07105.1924-.24435-.0761-.1733-.1009-.27241-.244-.27241s-.4647 0-.4647 0z" fill="#f7fcff"/></g><path d="m13.1167 12.5909.0584-.0778c.835.7778 1.607 1.1654 2.3155 1.1654.7093 0 1.5728-.4114 2.5889-1.2364l.0536.0819c-1.0302.8365-1.9105 1.2558-2.6425 1.2558-.7327 0-1.5239-.3972-2.3739-1.1889z" fill="#272727"/></g></g></svg>