<svg fill="none" height="24" viewBox="0 0 32 24" width="32" xmlns="http://www.w3.org/2000/svg" xmlns:xlink="http://www.w3.org/1999/xlink"><mask id="a" height="24" maskUnits="userSpaceOnUse" width="32" x="0" y="0"><path d="m0 0h32v24h-32z" fill="#fff"/></mask><mask id="b" height="24" maskUnits="userSpaceOnUse" width="32" x="0" y="0"><path clip-rule="evenodd" d="m0 0v24h32v-24z" fill="#fff" fill-rule="evenodd"/></mask><g mask="url(#a)"><path clip-rule="evenodd" d="m0 0v24h32v-24z" fill="#ffd221" fill-rule="evenodd"/><g mask="url(#b)"><path d="m-3.06702 10.6152 2.00799-4.57907 34.82663 15.27197-2.008 4.5791z" fill="#313131"/><path d="m-3.01721 5.56956 2.00715-4.579448 36.55856 16.023388-2.0071 4.5795z" fill="#faf9f9"/><g clip-rule="evenodd" fill-rule="evenodd"><g fill="#cf1225"><path d="m7.33082 12.3973c-1.41856-1.7408-1.18141-2.91817-1.18141-2.91817s1.45176.05305 1.43557.98917c0 .3956.52073.77.96935 1.0926.33947.2441.63766.4585.63766.6299 0 .398.29961 4.4098.29961 4.4098s-.20927.3653-1.21162.3653c-1.00236 0-.94916-.5774-.94916-.5774.60769-.7451 0-3.9912 0-3.9912zm17.33888 0c1.4185-1.7408 1.1814-2.91817 1.1814-2.91817s-1.4518.05305-1.4356.98917c0 .3956-.5207.77-.9693 1.0926-.3395.2441-.6377.4585-.6377.6299 0 .398-.2996 4.4098-.2996 4.4098s.2092.3653 1.2116.3653.9492-.5774.9492-.5774c-.6077-.7451 0-3.9912 0-3.9912z"/><path d="m16.0598 2.87476 1.1268.80435-.7384.19728.7384.63821-.9193-.23289v.64477h.9193l.3074 1.5114-.3557-.25234-.3558.25234-.3557-.25234-.3558.25234-.3665-.25234-.3664.25234-.3665-.25234-.3664.25234.4616-1.5114h.8506v-2.05172zm5.0253 5.07664s-.3434.30361-1.08 0c-.2461-.10143-.5158-.27876-.7972-.46376-.561-.36881-1.1684-.76811-1.7272-.65737-.8391.16628-1.212.56676-1.212.56676v-.92236h-.1017-.1575-.1017v.92236s-.3729-.40048-1.212-.56676c-.5588-.11074-1.1662.28856-1.7272.65737-.2814.185-.5511.36233-.7972.46376-.7366.30361-1.08 0-1.08 0s0 .25702.5476.65285c.2376.17173.5092.15937.7407.09032-.1714.12932-.2545.28125.0187.40299.5661.2523 1.4967-.4117 1.5987-.48652-.1137.08451-1.2384.93032-.7229.93032.5426 0 1.4216-.71099 1.4216-.71099s-1.0666 1.02332-.4928 1.18273c.3653.1015.8014-.43075 1.0063-.74604.0066.06701.0682.10802.1353.1527.0859.05726.1809.12054.1809.25228 0 .16887.0419.19785.0787.22326.0286.01984.0542.0375.0542.1178v.2333l-.1329.1959s0 .3048.1329.547c.1006.1835.0488.3378-.04.6022-.0284.0847-.0606.1807-.0929.2925-.1328.4611.1329 1.2486.1329 1.2486h-.1329s.1329.097.1329.4853c0 .3162-.0881.4958-.2544.8349-.038.0774-.08.1631-.126.2606-.2475.5248.2475 1.1921.2475 1.1921s-.8297-.3641-.6634 0c.1277.2797.8288.5517 1.1474.663v.0525s.0291-.009.0788-.0256c.0496.0166.0787.0256.0787.0256v-.0525c.3186-.1113 1.0197-.3833 1.1474-.663.1663-.3641-.6634 0-.6634 0s.495-.6673.2475-1.1921c-.046-.0975-.088-.1832-.126-.2606-.1663-.3391-.2544-.5187-.2544-.8349 0-.3883.1329-.4853.1329-.4853h-.1329s.2657-.7875.1329-1.2486c-.0322-.1118-.0645-.2078-.0929-.2925-.0888-.2644-.1406-.4187-.04-.6022.1329-.2422.1329-.547.1329-.547l-.1329-.1959v-.2333c0-.0803.0256-.09796.0542-.1178.0368-.02541.0787-.05439.0787-.22326 0-.13174.095-.19502.181-.25228.067-.04468.1286-.08569.1352-.1527.2049.31529.641.84754 1.0063.74604.5738-.15941-.4928-1.18273-.4928-1.18273s.879.71099 1.4216.71099c.5155 0-.6092-.84582-.7229-.93032.102.07482 1.0326.73882 1.5987.48652.2732-.12174.1901-.27367.0187-.40299.2315.06905.5031.08141.7407-.09032.5476-.39583.5476-.65285.5476-.65285zm-1.8238.46644s.2335.18663.5355.27673c-.2047-.15449-.5355-.27673-.5355-.27673zm-2.3628.67972c-.09-.11984-.0483-.01054.0687.1695.0042-.04311-.0143-.09697-.0687-.1695zm-1.6205 0c.09-.11984.0483-.01054-.0687.1695-.0042-.04311.0143-.09697.0687-.1695zm-1.2718-.49331s-.0031.00237-.0091.00679c.006-.00445.0091-.00679.0091-.00679zm-1.0909-.18641s-.2336.18663-.5356.27673c.2047-.15449.5356-.27673.5356-.27673z"/><path d="m11.2293 9.578s-1.1937 1.6236-1.0608 3.3584c.1328 1.7348 1.5482 5.771 5.7472 5.771.0361 0 .072-.001.1077-.001 4.4494 0 5.7124-4.4503 5.7124-6.0506 0-1.6142-1.0067-3.0778-1.0067-3.0778s.1176 2.166 0 3.0778c-.3548 2.7505-2.0876 4.021-4.7355 4.021-2.6643 0-4.313-1.3185-4.7643-4.021-.146-.8737 0-3.0778 0-3.0778z"/><path d="m9.06555 19.7512s.21667-.6205.483-.6205c.26634 0-.50958-.5385 0-.6908.50955-.1523 1.29375.607 1.29375-.1523 0-.7594-.6632-1.1737-.1759-1.1737s.9956-.1454.9956-.1454 2.0732 2.1622 4.1487 2.1622 4.5714-2.0168 4.5714-2.0168.9199-.2339.9199.1309c0 .3649-.2018.9157-.2018.9157s.6446-.1271.9726 0c.3279.1271 0 .735 0 .735v.2352s.8532-.1879.8532.1483-.4119.1442-1.2465.2402c-.8347.096-1.1515.7486-1.6758.7486-.5244 0-.6373-.5166-.6373-.5166s-1.6249.8808-3.5557.8808-3.0971-.8808-3.0971-.8808.1822.9042-.4347.7104-1.248-1.4228-1.9891-1.1826c-.74125.2402-1.22425.4722-1.22425.4722z"/></g><path d="m12.0618 16.1648c.0365-.034.0732-.0718.1213-.124.1361-.1478.173-.187.2009-.2049.0056.0253.0094.0666.0094.1233 0 .3765.0134.6608.05.8585.0262.1408.0624.232.1265.2755.0936.0634.188.0082.2755-.1234.2003-.3011.5773-.3383.5773-.2234 0 .0298-.0117.062-.0849.2414-.0127.0309-.0227.056-.0319.0803-.0514.1354-.0743.2333-.0632.3184.0166.1271.1103.1987.262.1987.1687 0 .2795-.1092.4021-.3242.0119-.021.044-.0794.0576-.1042l.0001-.0002.0061-.011c.0224-.0403.0388-.0674.054-.0884.0446-.0623.0544-.0575.1534.1764.026.0617.0796.1916.1259.3041.0366.0888.0687.1668.0793.1917.065.1528.1106.2429.1586.3059.1102.1448.2418.1436.3989.0092.0311-.0266.0658-.0528.106-.0805.0209-.0144.0707-.0464.1184-.077.0452-.0291.0883-.0569.103-.0671.0911-.0637.1364-.1138.1355-.1878-.0012-.0935-.0792-.1522-.2349-.2101-.0308-.0115-.0547-.0223-.072-.0302l-.0001-.0001h-.0001c-.0127-.0058-.0218-.0099-.0276-.0115.0039-.0007.0096-.0036.0185-.0081l.0078-.0039c.0976-.0485.2947-.084.4706-.084h.001c.0082 0 .0131 0 .016.0024.0044.0037.0042.0128.0037.0354l-.0001.0026c-.0012.053-.0126.1043-.0561.2672l-.0149.0571c-.0493.1913-.0629.307-.0291.4068.0496.1462.1906.197.4096.1536.2963-.0586.4406-.1763.4783-.3566.0094-.0452.0113-.0798.0114-.1503.0001-.1162.0008-.1172.1-.1172.1413 0 .1972.0501.2566.1891.0052.0122.0105.0249.0212.0508.069.1665.1331.2389.2776.2389.0965 0 .1637-.0405.1518-.1341-.003-.0238-.0111-.0448-.0256-.0742l-.0116-.0227c-.0078-.0151-.017-.033-.0207-.0406-.0896-.1834-.0541-.3235.2543-.5209.0881-.0564.2243-.1518.3422-.2345h.0001c.0849-.0595.1603-.1124.2016-.1393.0033.0251.0057.0595.0079.1096.0009.0198.0031.0818.0049.1318l.0024.0644c.0131.3348.0827.6413.1843.7657.1721.2107.3382.016.4512-.4477.1081-.4436.2624-.8619.4128-1.1158.0737-.1244.1427-.2024.1953-.2261.0349-.0157.0595-.0045.0956.0611.1358.2467.3449.4756.5216.5437.2623.101.418-.1118.418-.5851 0-.3968.0644-.7132.171-.9573.0366-.084.0756-.1527.1141-.2073.0221-.0313.0383-.0502.0459-.0577l-.1132-.1216c-.052.0509-.1251.1545-.1964.3178-.1162.266-.1854.6059-.1854 1.0261 0 .3742-.0736.4749-.1964.4276-.1333-.0514-.3178-.2534-.4365-.469-.0746-.1354-.1852-.186-.3042-.1323-.091.041-.1798.1413-.2695.2928-.1601.2703-.3199.7036-.4317 1.1623-.0486.1994-.0991.3263-.1665.3804-.0716-.0876-.1344-.3642-.1462-.6644l-.0023-.0627v-.0002c-.0018-.0503-.0041-.1135-.005-.1341-.0028-.0629-.006-.1044-.0112-.1381-.0166-.1078-.0711-.1713-.1692-.1456-.0385.01-.2234.1386-.3898.2543-.0927.0644-.1796.1248-.2321.1585-.3814.2442-.4411.4792-.3141.7391l.0102.0201c-.0305-.0141-.0517-.05-.0844-.1287-.0104-.0254-.0162-.0393-.0218-.0526-.083-.194-.1899-.2897-.4068-.2897-.2086 0-.2637.0876-.2639.2852-.0001.0589-.0016.0852-.0078.1152-.0223.1067-.112.1798-.349.2267-.1482.0294-.206.0085-.2238-.0437-.019-.0562-.0079-.1505.0328-.3086l.0146-.0556c.048-.1804.0602-.2346.0618-.3078.0028-.1268-.0592-.2124-.1845-.2124-.1986 0-.4191.0397-.5421.1008-.2018.1003-.1618.27.0892.3634.0493.0183.0819.034.1017.0435.014.0068.0216.0104.0241.0097-.0018.0004-.0064.0041-.0141.0104-.0103.0083-.0262.0213-.0488.037-.0119.0084-.0498.0327-.0916.0596l-.0001.0001-.0002.0001c-.0495.0318-.1045.0672-.1285.0837-.0446.0307-.0838.0603-.1197.091-.0917.0784-.1174.0787-.1647.0164-.0369-.0484-.0779-.1294-.1375-.2696-.0103-.0241-.0417-.1003-.0777-.1878-.0466-.113-.1009-.2448-.1275-.3077-.1409-.3331-.2932-.4079-.4358-.2092-.0197.0275-.0389.0593-.0642.1047l-.0075.0136c-.0143.026-.0446.0811-.0556.1004-.095.1668-.1703.2409-.2605.2409-.0745 0-.0946-.0154-.0995-.0528-.0063-.0482.0117-.1251.0534-.2349.0087-.0229.0182-.0467.0304-.0765.0912-.2235.0976-.2412.0976-.3064 0-.3411-.6038-.2815-.8765.1285-.0232.0349-.0431.0577-.0576.069-.014-.0216-.033-.0766-.048-.1577-.0341-.1839-.0472-.4609-.0472-.827 0-.2319-.0696-.3546-.2195-.2878-.0678.0303-.0703.0329-.2739.2538-.0454.0494-.0795.0845-.1123.1151-.0424.0395-.0791.0676-.1107.0842-.0466.0246-.0644.0093-.0896-.099-.026-.1124-.0346-.271-.0345-.5352l.0003-.1107.0004-.1141c0-.1875-.0502-.2925-.1726-.2925-.0419 0-.084.0142-.1373.0413-.0186.0095-.0382.0203-.0643.0354l-.01.0058-.0558.0323c-.1129.0644-.1878.0936-.2583.0936-.0132 0-.0209.0021-.0243.003-.0014.0004-.0021.0006-.0022.0004-.0002-.0002.0004-.0008.0015-.0022.003-.0036.0103-.0123.0198-.0311.0466-.0915.1718-.2391.3731-.437l-.1133-.1215c-.2137.21-.3479.3682-.4051.4807-.0791.1555-.0178.2759.1505.2759.1064 0 .2022-.0373.338-.1148.157-.0897.1648-.0936.1877-.0936 0 0 .0086.018.0086.1243l-.0003.1134-.0003.1113c-.0001.2777.0089.4446.039.5743.0463.1996.1597.2963.3239.2096.0464-.0244.0939-.0607.146-.1093zm.3394-.3391c.0012.0002.0021.0002.0024 0zm2.6628 1.5466c-.003-.002-.0044-.0032-.0045-.0034.0017.0069.0032.0111.0058.0129zm2.9012-.4933-.0018.0004.0012-.0002z" fill="#f6e017"/><path d="m13.8326 19.7503c-.0727.1962-.1874.2612-.3171.1631-.0393-.0298-.0776-.0722-.131-.1408l-.0119-.0157c-.0285-.0374-.0991-.1303-.1251-.1626-.1117-.139-.2078-.226-.3123-.2705l-.0096-.0041c-.1274-.0543-.1547-.0659-.1816-.0787l-.0293-.0142c-.1532-.0748-.2407-.1522-.3249-.2972-.0658-.1134-.1296-.2669-.2376-.5639l.1536-.0588c.1046.2875.1657.4347.2249.5366.0667.1149.1292.1703.2544.2314l.0262.0127c.0256.0122.0517.0233.1778.077l.009.0038c.1347.0575.2486.1605.3759.3189.0284.0353.1043.1351.13.169l.0087.0113c.0448.0577.0756.0919.1001.1104.0133.0101.0141.0108.0124.0118.0114-.0069.0316-.0385.0542-.0993.0502-.1356.0061-.2407-.1161-.3501-.0045-.0041-.017-.0141-.0334-.0272-.0469-.0376-.1254-.1005-.1399-.1221-.0466-.0693-.0067-.1396.0652-.1587.0324-.0087.0803-.0119.1568-.0119.2647 0 .3375.1555.3866.5532l.0008.0065c.0387.3134.0778.3995.2116.3995.1509 0 .2428-.0601.4032-.2314l.0352-.0376c.2045-.2176.3477-.2908.5882-.2242.1921.0532.2742.1476.2936.2941.0021.0164.0032.0281.0053.056.0093.1235.0311.1431.2702.1431.1813 0 .3501.0097.5702.0291l.0266.0024c.0516.0047.1613.0147.1943.0174.0716.0059.1224.0087.1626.0087.0286 0 .0507-.0015.0658-.0041.0062-.0482.0346-.0821.1495-.2122.0133-.015.0235-.0268.033-.038.0537-.0634.0774-.1058.0759-.1126-.0003-.0013-.0483-.0186-.178-.0186-.1192 0-.1788-.0148-.1895-.0989-.009-.0703.0316-.1042.1216-.1521.1032-.0549.2911-.1262.5167-.198.2171-.0691.4462-.1313.6206-.1679.0943-.0198.171-.0318.2269-.035.1066-.006.1699.0088.1699.1048 0 .04.1126.1775.2248.2399.134.0745.2291.0462.2948-.1287.0958-.2554.2956-.5312.4903-.6891.1045-.0847.2006-.1303.2838-.1228.1123.0101.171.1065.171.2521h-.164c0-.0683-.0092-.0834-.0213-.0845-.031-.0028-.0933.0268-.1678.0872-.1719.1394-.3538.3906-.439.6176-.1034.2752-.3094.3365-.5259.2161-.1328-.0738-.2596-.214-.2985-.325-.0554.003-.1251.014-.2122.0322-.1686.0354-.3926.0962-.6048.1637-.1406.0448-.2658.0893-.3617.1284.117.0168.1847.0603.2024.1422.0176.0818-.0222.153-.1123.2593-.0104.0123-.0213.0249-.0353.0407-.0793.0898-.1085.1283-.1085.1298 0 .1112-.0845.1418-.2282.1418-.0455 0-.1001-.0031-.1758-.0093-.0338-.0028-.1457-.013-.1966-.0176l-.0252-.0023c-.2158-.0191-.3803-.0285-.5561-.0285-.3228 0-.4175-.0851-.4337-.2982-.0018-.0247-.0027-.0344-.0043-.0465-.0104-.0789-.0449-.1186-.1738-.1543-.1682-.0466-.2602.0005-.4275.1786l-.0349.0373c-.1889.2017-.3134.2831-.5215.2831-.2354 0-.3125-.1259-.3614-.4515-.0046.0176-.0102.0356-.017.0539zm.0137-.1489-.001-.0066c-.0155-.1032-.0315-.1823-.052-.242.0811.1024.1093.2153.0687.3436-.0055-.03-.0107-.0616-.0157-.095zm2.9989-.1222.0039.0012-.0019-.0008zm-.0032.5503-.0041.0014.0027-.0006z" fill="#f6e017"/></g></g></g></svg>