<svg fill="none" height="12" viewBox="0 0 16 12" width="16" xmlns="http://www.w3.org/2000/svg" xmlns:xlink="http://www.w3.org/1999/xlink"><mask id="a" height="12" maskUnits="userSpaceOnUse" width="16" x="0" y="0"><path d="m0 0h16v12h-16z" fill="#fff"/></mask><mask id="b" height="12" maskUnits="userSpaceOnUse" width="16" x="0" y="0"><path clip-rule="evenodd" d="m0 0v12h16v-12z" fill="#fff" fill-rule="evenodd"/></mask><g clip-rule="evenodd" fill-rule="evenodd" mask="url(#a)"><path d="m0 0v12h16v-12z" fill="#f7fcff"/><g mask="url(#b)"><path d="m0 0v4h16v-4z" fill="#58a5ff"/><path d="m0 8v4h16v-4z" fill="#58a5ff"/><g fill="#ffd018" stroke="#f19900" stroke-opacity=".98" stroke-width=".25"><path d="m8.27631 7.24358s-.51095 1.05936-.96002 1.27655c.19384-.48588.26518-1.47725.26518-1.47725s-1.16595.46227-1.57519.37802c.49209-.34387 1.17513-.98078 1.17513-.98078s-1.50911-.49337-1.47209-.70334c.68124.1222 1.6181-.01101 1.6181-.01101s-1.0587-1.26962-.95133-1.36404c.16137.15686 1.43015.81962 1.43015.81962s.09205-1.1296.3651-1.51045c.03275.26884.416 1.48602.416 1.48602s.77044-.77089 1.19806-.77089c-.18783.23289-.63257 1.25586-.63257 1.25586s1.10837-.01745 1.52977.19001c-.5104.0726-1.40473.52156-1.40473.52156s1.16473.88351 1.05853 1.06744c-.62534-.30591-1.34831-.40836-1.34831-.40836s.19983 1.22953.0383 1.50759c-.15754-.40931-.75008-1.27655-.75008-1.27655z"/><path d="m8.20935 6.6709c.27614 0 .5-.22386.5-.5s-.22386-.5-.5-.5-.5.22386-.5.5.22386.5.5.5z"/></g></g></g></svg>