<svg fill="none" height="15" viewBox="0 0 20 15" width="20" xmlns="http://www.w3.org/2000/svg" xmlns:xlink="http://www.w3.org/1999/xlink"><mask id="a" height="15" maskUnits="userSpaceOnUse" width="20" x="0" y="0"><path d="m0 0h20v15h-20z" fill="#fff"/></mask><mask id="b" fill="#000" height="25" maskUnits="userSpaceOnUse" width="24" x="-2" y="-5.09692"><path d="m-2-5.09692h24v25h-24z" fill="#fff"/><path clip-rule="evenodd" d="m0-2.09692 10.8802 8.34684h9.1198v2.5h-9.2691l-10.7309 8.00718v-2.7946l8.75-6.46258-8.75-6.540936z" fill="#000" fill-rule="evenodd"/></mask><g mask="url(#a)"><g clip-rule="evenodd" fill-rule="evenodd"><path d="m0 0h20v15h-20z" fill="#f7fcff"/><path d="m0 0v5h20v-5z" fill="#c51918"/><path d="m0 10v5h20v-5z" fill="#5eaa22"/><path d="m0-1.25 10.4185 8.75-10.4185 8.75z" fill="#272727"/><path d="m0-2.09692 10.8802 8.34684h9.1198v2.5h-9.2691l-10.7309 8.00718v-2.7946l8.75-6.46258-8.75-6.540936z" fill="#ffd018"/></g><path d="m10.8802 6.24992-.7609.99177.3366.25823h.4243zm-10.8802-8.34684.760848-.99178-2.010848-1.54264v2.53442zm20 8.34684h1.25v-1.25h-1.25zm0 2.5v1.25h1.25v-1.25zm-9.2691 0v-1.25h-.415l-.33259.24817zm-10.7309 8.00718h-1.25v2.4924l1.997551-1.4906zm0-2.7946-.742634-1.0054-.507366.3747v.6307zm8.75-6.46258.74263 1.00548 1.35317-.99944-1.34738-1.00723zm-8.75-6.540936h-1.25v.626236l.50158.37495zm11.641 4.299166-10.880152-8.34685-1.521696 1.98355 10.880148 8.34684zm8.359-.25823h-9.1198v2.5h9.1198zm1.25 3.75v-2.5h-2.5v2.5zm-10.5191 1.25h9.2691v-2.5h-9.2691zm-9.983349 7.75898 10.730849-8.00715-1.49509-2.00366-10.730861 8.00721zm-1.997551-3.7964v2.7946h2.5v-2.7946zm9.25737-7.46806-8.750004 6.46266 1.485268 2.0109 8.749996-6.4626zm-8.75579-4.53427 8.75 6.54093 1.49684-2.00237-8.75-6.5409296zm-.50158-4.05709v3.055904h2.5v-3.055904z" fill="#272727" mask="url(#b)"/><g fill="#ffd018"><path d="m3.04604 10.48.00125-.98774c.88021-.19418 1.4633-.44677 1.74712-.75051.6989-.86135.2343-2.8794-1.20155-2.86621-.71137 0-1.44699.33899-1.44699 1.13683 0 .9909.20392 1.41449.90142 1.41449.69316 0 .94729.03705 1.40388-.58527l.49549.1531c-.48928.66688-1.14881 1.19367-1.90062 1.19367-1.23846 0-1.91243-.93379-1.91243-2.01374 0-1.33319 1.0823-2.26691 2.38726-2.26691.97369 0 2.51378 1.19263 2.51378 2.26691s0 1.56713-.84447 2.31764c-.34015.30229-1.18293.84214-2.14414.98774z"/><path clip-rule="evenodd" d="m3.11962 6.17486c-.04768-.01259-.09653.01585-.10912.06353l-.03414.12926c-.0017-.00221-.00342-.00443-.00513-.00665-.03014-.03902-.08621-.04623-.12524-.01609s-.04623.08621-.01609.12524c.02069.02679.0411.05326.06123.07941l-.10289.09502c-.03623.03345-.03848.08994-.00503.12616.03345.03623.08994.03848.12617.00503l.09092-.08396c.05429.07096.10631.13931.15601.20495l-.17116.09189c-.04345.02332-.05976.07745-.03644.1209.02333.04344.07746.05976.1209.03643l.19549-.10495c.0469.06248.09136.12209.13335.17875l-.23473.12601c-.04345.02333-.05976.07745-.03644.1209.02333.04345.07746.05976.1209.03643l.25721-.13808c.06841.09358.12838.17704.17958.24979l-.16411.0881c-.04345.02333-.05976.07746-.03643.1209.02332.04345.07745.05976.1209.03644l.18163-.09752c.07555.11258.11466.18011.11466.19788 0 .04931.03997.08929.08929.08929.04931 0 .08928-.03998.08928-.08929 0-.04519-.04701-.14024-.14525-.29257.00142-.00247.00273-.00501.00391-.00762l.13212-.29091c.0204-.04489.00053-.09782-.04437-.11821s-.09782-.00053-.11821.04437l-.09026.19874c-.05639-.08117-.12222-.17304-.19779-.27618l.09349-.20586c.02039-.0449.00053-.09782-.04437-.11822-.0449-.02039-.09782-.00052-.11822.04438l-.05241.1154c-.02888-.03874-.0589-.07879-.09006-.12019l.12649-.27851c.02039-.0449.00053-.09783-.04437-.11822s-.09783-.00052-.11822.04437l-.08646.19037c-.05445-.07164-.11188-.14678-.17232-.22551l.06926-.26228c.01259-.04768-.01585-.09653-.06353-.10912z" fill-rule="evenodd"/><path clip-rule="evenodd" d="m3.7201 6.17486c.04768-.01259.09654.01585.10913.06353l.03413.12926c.00171-.00221.00342-.00443.00513-.00665.03014-.03902.08621-.04623.12524-.01609s.04623.08621.01609.12524c-.02068.02679-.04109.05326-.06123.07941l.1029.09502c.03622.03345.03847.08994.00502.12616-.03345.03623-.08994.03848-.12617.00503l-.09092-.08396c-.05428.07096-.1063.13931-.15601.20495l.17117.09189c.04344.02332.05975.07745.03643.1209-.02333.04344-.07745.05976-.1209.03643l-.19548-.10495c-.0469.06248-.09137.12209-.13336.17875l.23473.12601c.04345.02333.05976.07745.03644.1209-.02333.04345-.07746.05976-.1209.03643l-.25721-.13808c-.06841.09358-.12838.17704-.17958.24979l.16411.0881c.04345.02333.05976.07746.03643.1209-.02332.04345-.07745.05976-.12089.03644l-.18164-.09752c-.07554.11258-.11466.18011-.11466.19788 0 .04931-.03997.08929-.08928.08929-.04932 0-.08929-.03998-.08929-.08929 0-.04519.04701-.14024.14525-.29257-.00142-.00247-.00273-.00501-.00391-.00762l-.13212-.29091c-.02039-.04489-.00053-.09782.04437-.11821s.09782-.00053.11822.04437l.09026.19874c.05639-.08117.12221-.17304.19778-.27618l-.09349-.20586c-.02039-.0449-.00053-.09782.04437-.11822.0449-.02039.09783-.00052.11822.04438l.05241.1154c.02889-.03874.0589-.07879.09006-.12019l-.12649-.27851c-.02039-.0449-.00052-.09783.04437-.11822.0449-.02039.09783-.00052.11822.04437l.08646.19037c.05445-.07164.11188-.14678.17232-.22551l-.06926-.26228c-.01259-.04768.01586-.09653.06353-.10912z" fill-rule="evenodd"/></g></g></svg>