<svg fill="none" height="24" viewBox="0 0 32 24" width="32" xmlns="http://www.w3.org/2000/svg" xmlns:xlink="http://www.w3.org/1999/xlink"><mask id="a" height="24" maskUnits="userSpaceOnUse" width="32" x="0" y="0"><path d="m0 0h32v24h-32z" fill="#fff"/></mask><g clip-rule="evenodd" fill-rule="evenodd" mask="url(#a)"><path d="m0 0h32v22c0 1.1046-.8954 2-2 2h-28c-1.104569 0-2-.8954-2-2z" fill="#c51918"/><path d="m0 0h32v24h-32z" fill="#e31d1c"/><g fill="#579d20"><path d="m22.4819 19.6261-6.3161-16.92554h-.274l-6.09663 16.92554 6.33133-3.8051zm-7.0153-11.40412.6771-2.63835.7027 2.71392 2.0186 5.65645 1.1853 2.7386-2.5588-1.8027-1.3664-.8181-1.3444.808-2.4994 1.8128 1.1555-2.7947z"/><path d="m12.6625 13.4731 3.496 2.324 3.2621-2.324 6.1958-5.23665h-19.23115zm.0726-1.999-2.3776-1.455h2.9007 5.7637 2.5588l-2.041 1.2928-3.3964 2.577z"/></g></g></svg>