<svg fill="none" height="24" viewBox="0 0 32 24" width="32" xmlns="http://www.w3.org/2000/svg" xmlns:xlink="http://www.w3.org/1999/xlink"><mask id="a" height="24" maskUnits="userSpaceOnUse" width="32" x="0" y="0"><path d="m0 0h32v24h-32z" fill="#fff"/></mask><mask id="b" height="24" maskUnits="userSpaceOnUse" width="32" x="0" y="0"><path clip-rule="evenodd" d="m0 0v24h32v-24z" fill="#fff" fill-rule="evenodd"/></mask><g mask="url(#a)"><path clip-rule="evenodd" d="m0 0v24h32v-24z" fill="#c51918" fill-rule="evenodd"/><g mask="url(#b)"><path d="m0 0h14v10h-14z" fill="#4257bf"/><path d="m18 14h14v10h-14z" fill="#4257bf"/><g clip-rule="evenodd" fill-rule="evenodd"><path d="m13 0h6v9h13v6h-13v9h-6v-9h-13v-6h13z" fill="#f7fcff"/><path d="m13.8654 10.5247c-.0377-.1751-.0803-.3914-.0803-.3914-.0947.2305-.1246.4402-.0865.6277-.0403.0591-.0768.1144-.1094.1661-.1019-.1435-.229-.412-.229-.412.0044.0782.0024.1579.0005.2353-.0046.182-.0089.3512.0712.4571l-.0009.0021c-.016.0351-.0312.0701-.0455.1051-.1104-.1174-.2935-.3291-.2935-.3291.0143.2539.0802.4539.1998.5966-.0216.0744-.0395.1484-.0537.222-.0925-.1021-.1818-.203-.1818-.203.0131.2316.0494.3846.1438.5132-.0019.0366-.0029.073-.0029.1093-.0978-.1076-.1972-.22-.1972-.22.0138.2445.1031.4053.2208.5392.0117.0774.0277.154.0478.2297l.0113.0419c-.136-.0712-.2854-.1523-.2854-.1523.0907.2112.2187.3304.3634.415.0315.098.0648.1927.0998.2838-.16-.049-.4-.1294-.4-.1294.1443.2203.316.3131.4994.3689.0377.084.0768.1642.1173.2403-.1521-.048-.3323-.1083-.3323-.1083.1401.2139.3061.3076.4835.364.1173.1779.243.3238.3742.4326-.1509.0629-.3441.139-.3441.139.2142.0645.3843.0459.5388-.0072l.0106.0055c.0634.0323.1342.0629.2141.0927-.1244.0506-.2438.0977-.2438.0977.2101.0633.3779.0466.53-.0042l.0074.0021c.0714.0208.1442.0407.24.066-.0634-.0168.1705.0448.218.0577.1521.0412.2387.0702.2803.0952.0039.0023.0067.0043.0085.0055s.0026.0017.0022.0012l.1163-.0902c-.0134-.0198-.0322-.0356-.0564-.0501-.0571-.0343-.1496-.0653-.3154-.1103-.0471-.0128-.2737-.0724-.2224-.0588-.0931-.0247-.164-.044-.2333-.0642l-.0538-.0159c.0127-.1602-.0116-.3274-.1241-.5163 0 0-.0386.2934-.0653.4546-.0922-.0328-.1716-.066-.2402-.1011-.0199-.0102-.0397-.0213-.0595-.0335-.0138-.164-.0657-.3283-.213-.4991 0 0 .008.1822.0122.3395-.0978-.0956-.1928-.2153-.283-.3562l.0852.0471c.0004-.201-.0369-.4004-.2172-.6095 0 0 .0086.1971.0128.3584-.0531-.099-.104-.2057-.1523-.3195.0448-.1608.0536-.3349-.0275-.5488 0 0-.0408.1293-.084.2607-.0126-.036-.025-.0725-.0372-.1096.0938-.168.1536-.3545.1041-.6143 0 0-.1048.2014-.1847.3471-.0055-.0198-.0108-.0396-.0162-.0596-.0172-.0649-.0312-.1305-.0417-.1968.1345-.1221.2436-.2738.2836-.5201 0 0-.1808.1656-.3068.2756-.0018-.0557-.0012-.1119.0018-.1685.1452-.0955.2709-.2247.3494-.4499 0 0-.1804.1149-.3209.2005.0096-.0547.0214-.1098.0354-.1652.1729-.0999.3254-.2319.4157-.4907 0 0-.1817.1158-.3224.2014.0181-.0466.0379-.0934.0593-.1404.0252-.0554.0611-.1216.1076-.1985.1546-.0558.2995-.1484.4261-.3345 0 0-.1285.0405-.2605.0804.074-.1076.1609-.228.2607-.3612l-.1124-.0958c-.0409.0546-.0797.1072-.1164.1577z" fill="#5ab92d"/><path d="m17.9127 10.5247c.0377-.1751.0803-.3914.0803-.3914.0947.2305.1245.4402.0865.6277.0403.0591.0768.1144.1094.1661.1019-.1435.229-.412.229-.412-.0045.0782-.0025.1579-.0005.2353.0046.182.0088.3512-.0712.4571l.0009.0021c.016.0351.0311.0701.0454.1051.1104-.1174.2936-.3291.2936-.3291-.0143.2539-.0802.4539-.1999.5966.0217.0744.0396.1484.0537.222.0926-.1021.1819-.203.1819-.203-.0131.2316-.0495.3846-.1438.5132.0019.0366.0028.073.0029.1093.0978-.1076.1972-.22.1972-.22-.0138.2445-.1031.4053-.2208.5392-.0117.0774-.0277.154-.0478.2297l-.0113.0419c.1359-.0712.2854-.1523.2854-.1523-.0907.2112-.2187.3304-.3634.415-.0315.098-.0649.1927-.0998.2838.1599-.049.4-.1294.4-.1294-.1443.2203-.316.3131-.4994.3689-.0377.084-.0769.1642-.1174.2403.1522-.048.3324-.1083.3324-.1083-.1401.2139-.3061.3076-.4835.364-.1173.1779-.2431.3238-.3742.4326.1509.0629.3441.139.3441.139-.2142.0645-.3844.0459-.5388-.0072l-.0106.0055c-.0634.0323-.1342.0629-.2141.0927.1244.0506.2438.0977.2438.0977-.2101.0633-.3779.0466-.53-.0042l-.0074.0021c-.0715.0208-.1442.0407-.24.066.0634-.0168-.1706.0448-.2181.0577-.1521.0412-.2387.0702-.2802.0952-.0039.0023-.0068.0043-.0086.0055s-.0025.0017-.0021.0012l-.1164-.0902c.0135-.0198.0323-.0356.0565-.0501.057-.0343.1496-.0653.3154-.1103.0471-.0128.2737-.0724.2224-.0588.0931-.0247.164-.044.2333-.0642l.0538-.0159c-.0127-.1602.0115-.3274.1241-.5163 0 0 .0386.2934.0652.4546.0923-.0328.1717-.066.2403-.1011.0199-.0102.0397-.0213.0595-.0335.0138-.164.0657-.3283.213-.4991 0 0-.008.1822-.0123.3395.0979-.0956.1928-.2153.283-.3562l-.0851.0471c-.0005-.201.0369-.4004.2171-.6095 0 0-.0086.1971-.0127.3584.0531-.099.104-.2057.1523-.3195-.0448-.1608-.0536-.3349.0275-.5488 0 0 .0408.1293.0839.2607.0127-.036.0251-.0725.0373-.1096-.0939-.168-.1536-.3545-.1042-.6143 0 0 .1049.2014.1848.3471.0054-.0198.0108-.0396.0161-.0596.0173-.0649.0313-.1305.0418-.1968-.1346-.1221-.2436-.2738-.2836-.5201 0 0 .1808.1656.3068.2756.0018-.0557.0012-.1119-.0018-.1685-.1452-.0955-.2709-.2247-.3495-.4499 0 0 .1805.1149.321.2005-.0096-.0547-.0214-.1098-.0355-.1652-.1728-.0999-.3254-.2319-.4157-.4907 0 0 .1818.1158.3225.2014-.0182-.0466-.0379-.0934-.0593-.1404-.0253-.0554-.0612-.1216-.1077-.1985-.1545-.0558-.2995-.1484-.4261-.3345 0 0 .1286.0405.2606.0804-.074-.1076-.161-.228-.2607-.3612l.1124-.0958c.0409.0546.0796.1072.1164.1577z" fill="#5ab92d"/></g><path d="m13.2515 9.31579c.3996-.28101 1.1323-.52362 1.5093-.52362.0019 0 .0059-.0009.0165-.00529.0313-.01295.2378-.14084.2507-.14824.2665-.1525.5452-.23276.9249-.23276v.66667c-.2726 0-.4507.05129-.6294.15353.0311-.01779-.2353.14726-.3202.18236-.079.0327-.1584.0504-.2425.0504-.2525 0-.8661.20316-1.1654.41357-.1075.07563-.0976.05254-.0943.09763.0121.16396-.0003.26416-.1011.39216-.0132.0166-.034.1083-.0358.2691l-.6249-.0079c.0029-.2625.0427-.4696.1372-.62526-.0137-.26917.0809-.47559.375-.68235z" fill="#003994"/><path d="m13.5856 9.56537-.069-.1112c.3208-.22642.62-.34065.8976-.34065.0919 0 .1968-.02447.3188-.07157.0817-.03156.1654-.07056.2777-.12769.4072-.20697.4188-.21223.5263-.21223h.3686v.13333h-.3686c-.0778 0-.103.01142-.4725.19926-.1157.05883-.2027.09936-.289.1327-.1344.05193-.2527.07953-.3613.07953-.2505 0-.5268.10549-.8286.31852z" fill="#ebca5e"/><path d="m18.4984 9.31579c-.3997-.28101-1.1324-.52362-1.5093-.52362-.0019 0-.006-.0009-.0166-.00529-.0313-.01295-.2377-.14084-.2507-.14824-.2664-.1525-.5451-.23276-.9249-.23276v.66667c.2727 0 .4508.05129.6294.15353-.0311-.01779.2354.14726.3203.18236.079.0327.1584.0504.2425.0504.2525 0 .8661.20316 1.1653.41357.1076.07563.0977.05254.0944.09763-.0121.16396.0003.26416.1011.39216.0131.0166.034.1083.0358.2691l.6249-.0079c-.0029-.2625-.0427-.4696-.1373-.62526.0138-.26917-.0808-.47559-.3749-.68235z" fill="#003994"/><path d="m18.1143 9.56537.0689-.1112c-.3208-.22642-.6199-.34065-.8976-.34065-.0919 0-.1968-.02447-.3187-.07157-.0818-.03156-.1654-.07056-.2778-.12769-.4071-.20697-.4187-.21223-.5263-.21223h-.3686v.13333h.3686c.0778 0 .103.01142.4725.19926.1157.05883.2027.09936.289.1327.1344.05193.2528.07953.3613.07953.2506 0 .5268.10549.8287.31852z" fill="#ebca5e"/><path d="m13.8221 10.0193.3261.3546v1.4728h.3292v.0937l.4819.2317s.0728-.9743-.1538-1.231.1538-.3199.1538-.3199l.5785.5792v-1.1811z" fill="#003994"/><path d="m17.7378 10.0193-.3262.3546v1.4728h-.3292v.0937l-.4819.2317s-.0728-.9743.1538-1.231-.1538-.3199-.1538-.3199l-.5785.5792v-1.1811z" fill="#d62818"/><path d="m14.8769 10.5967-.0491.0604.9617.889.0517-.0026.7954-.889-.0543-.0552-.7707.8614z" fill="#ffc300"/><path d="m14.7404 10.97-.0626.0604 1.2275.889.066-.0026 1.0153-.889-.0693-.0552-.9837.8614z" fill="#ffc300"/><path d="m14.1766 12.422h.4222l.2881.088s.0926.661.5554.661l.0759.8463-.3587-.1938s-.2332.103-.2726.103c-.0395 0-.3719.1864-.3719 0s-.3384-.4881-.3384-.4881z" fill="#d62818"/><path d="m17.5182 12.422h-.4222l-.288.088s-.0927.661-.5555.661l-.0759.8463.3587-.1938s.2332.103.2727.103c.0394 0 .3718.1864.3718 0s.3384-.4881.3384-.4881z" fill="#003994"/><path d="m16.6137 12.502.5.0002c-.0001.374-.1321.6771-.3921.8821l-.2973-.4288c.1275-.1005.1893-.2426.1894-.4535z" fill="#d62818"/><path d="m15.304 11.4734v.7013h.5813s-.0546.5259-.0546.8576.0546.7622.0546.7622.1423-.071.1423-.5196c0-.4487 0-1.1488 0-1.1488l.4593.0486-.0486-.6325h-.1937s.2979.3942 0 .3942c-.2978 0-.6401.0769-.705.0769-.065 0-.2356-.5399-.2356-.5399z" fill="#d62818"/><path d="m15.8095 12.3209s-.3266.1924-.3266.5053.1633.6698.1633.6698-.0775-.7048.0429-.8922c.1204-.1875.1204-.2829.1204-.2829z" fill="#003994"/><path d="m15.278 12.5526s-.0184.2265.1157.2265c.1342 0-.1157-.2265-.1157-.2265z" fill="#003994"/><path d="m16.4276 11.944.0514.1784-.8546.2798-.1915-.7957.1695-.0464.1459.6063z" fill="#373737"/><g clip-rule="evenodd" fill-rule="evenodd"><path d="m14.0359 15.4086-.075.0637c-.0251-.0336-.0466-.0674-.0645-.1012-.0752-.026-.1463-.0606-.2049-.1018-.0812-.0571-.1649-.0571-.2709.0054l-.1209-.2334c.1843-.1086.3673-.1086.5294.0054.002.0014.004.0027.0061.0041.0225-.1318.1088-.249.2574-.3336.2549-.1452 1.3701-.298 1.7089-.298v.4267c-.275 0-1.3424.1463-1.5205.2477-.0052.003-.0101.0057-.0145.0082-.0236.0131-.0361.0201-.0385.0297-.002.008.0034.0179.0157.0349.0096-.0009.0161-.0026.0187-.0054l.1774.1879c-.0736.0789-.2366.0922-.4039.0597zm-1.1946.0075s.3696.3248.6365.2461c.2668-.0788.3495-.1674.3495-.1674s-.2664-.0355-.5492-.0787c-.2828-.0431-.4368 0-.4368 0z" fill="#d62818"/><path d="m14.0651 15.1794.0449-.064c-.132-.1056-.0976-.1647.1552-.2214.0221-.005.0444-.0098.0669-.0147v.0001c.233-.0497.4874-.0918.7412-.1224.2793-.0336.5587-.0533.8073-.0533-.2486 0-.5275.0196-.8073.0533-.2552.0307-.5102.073-.7412.1223l-.0146-.0784c.2353-.0501.4921-.0927.7484-.1235.2816-.0339.5635-.0537.8147-.0537-.2513 0-.5326.0197-.8147.0537-.2829.034-.5655.0821-.8161.1383-.3049.0684-.3839.2044-.1847.3637z" fill="#ebca5e"/><path d="m17.464 15.4086.075.0637c.0251-.0336.0465-.0674.0644-.1012.0753-.026.1464-.0606.2049-.1018.0812-.0571.165-.0571.271.0054l.1209-.2334c-.1843-.1086-.3673-.1086-.5295.0054-.0019.0014-.004.0027-.006.0041-.0225-.1318-.1088-.249-.2574-.3336-.2549-.1452-1.3701-.298-1.7089-.298v.4267c.275 0 1.3424.1463 1.5205.2477.0052.003.0101.0057.0145.0082.0235.0131.0361.0201.0385.0297.0019.008-.0034.0179-.0157.0349-.0096-.0009-.0161-.0026-.0187-.0054l-.1774.1879c.0735.0789.2366.0922.4039.0597zm1.1946.0075s-.3697.3248-.6365.2461c-.2668-.0788-.3495-.1674-.3495-.1674s.2664-.0355.5492-.0787c.2828-.0431.4368 0 .4368 0z" fill="#d62818"/><path d="m17.4348 15.1794-.045-.064c.132-.1056.0977-.1647-.1552-.2214-.022-.005-.0443-.0098-.0669-.0147v.0001c-.2329-.0497-.4874-.0918-.7412-.1224-.2792-.0336-.5587-.0533-.8072-.0533.2486 0 .5275.0196.8072.0533.2553.0307.5103.073.7412.1223l.0147-.0784c-.2353-.0501-.4921-.0927-.7484-.1235-.2816-.0339-.5635-.0537-.8147-.0537.2512 0 .5326.0197.8147.0537.2829.034.5654.0821.8161.1383.3049.0684.3839.2044.1847.3637z" fill="#ebca5e"/></g><path d="m15.3655 15.5106-.1944-.3421c.177-.1144.4043-.169.6802-.169.2772 0 .5018.0551.6726.1716l-.2021.3369c-.1029-.0702-.2592-.1085-.4705-.1085-.2125 0-.3739.0388-.4858.1111z" fill="#d62818"/></g></g></svg>