<svg fill="none" height="15" viewBox="0 0 20 15" width="20" xmlns="http://www.w3.org/2000/svg" xmlns:xlink="http://www.w3.org/1999/xlink"><mask id="a" height="15" maskUnits="userSpaceOnUse" width="20" x="0" y="0"><path d="m0 0h20v15h-20z" fill="#fff"/></mask><g mask="url(#a)"><path clip-rule="evenodd" d="m0 10h20v5h-20z" fill="#14dc5a" fill-rule="evenodd"/><path clip-rule="evenodd" d="m0 0h20v6.25h-20z" fill="#0099b5" fill-rule="evenodd"/><g fill="#f7fcff"><path d="m-1.25 5.78125h-.46875v.46875 3.75.4688h.46875 22.5.4688v-.4688-3.75-.46875h-.4688z" stroke="#c51918" stroke-width=".9375"/><path clip-rule="evenodd" d="m10.4546 1.50064-.61418.34843.17538-.70814-.58831-.52037h.76841l.2578-.6701205.3022.6701205h.6551l-.5148.52037.2475.70814zm-3.14864 1.92148.61418-.34842.68914.34842-.24749-.70814.51471-.52037h-.65508l-.30221-.67012-.25773.67012h-.76844l.58833.52037zm-1.69562 1.29869-.61418.34843.17541-.70814-.58833-.52037h.76844l.25773-.67012.30221.67012h.65508l-.51471.52037.24749.70814zm2.34517.00272-.61418.34843.17541-.70814-.58833-.52037h.76844l.25773-.67012.30221.67012h.65508l-.51471.52037.24749.70814zm2.49999 0-.61417.34843.17537-.70814-.5883-.52037h.7685l.2577-.67012.3022.67012h.6551l-.5147.52037.2474.70814zm-.64954-1.30141.61414-.34842.6892.34842-.2475-.70814.5147-.52037h-.6551l-.3022-.67012-.2577.67012h-.76846l.58833.52037zm2.53534 1.64984.6142-.34843.6891.34843-.2474-.70814.5147-.52037h-.6551l-.3022-.67012-.2577.67012h-.7685l.5883.52037zm.5788-1.99826-.6141.34842.1754-.70814-.5884-.52037h.7685l.2577-.67012.3022.67012h.6551l-.5147.52037.2475.70814zm-.5797-1.22463.6142-.34843.6891.34843-.2475-.70814.5148-.52037h-.6551l-.3022-.6701205-.2578.6701205h-.7684l.5883.52037zm3.1151 2.87446-.6142.34843.1754-.70814-.5883-.52037h.7685l.2577-.67012.3022.67012h.6551l-.5147.52037.2474.70814zm-.6495-1.30141.6141-.34842.6892.34842-.2475-.70814.5147-.52037h-.6551l-.3022-.67012-.2577.67012h-.7685l.5884.52037zm.6486-1.92148-.6142.34843.1754-.70814-.5883-.52037h.7684l.2578-.6701205.3022.6701205h.6551l-.5148.52037.2475.70814zm-11.77653 3.64982s-1.50991-.40952-1.48148-1.9242c.02844-1.51468 1.55341-1.90793 1.55341-1.90793-.62311-.23596-2.46553.08066-2.49954 1.89258-.03402 1.81191 1.847 2.16886 2.42761 1.93955z" fill-rule="evenodd"/></g></g></svg>