<svg fill="none" height="24" viewBox="0 0 32 24" width="32" xmlns="http://www.w3.org/2000/svg" xmlns:xlink="http://www.w3.org/1999/xlink"><mask id="a" height="24" maskUnits="userSpaceOnUse" width="32" x="0" y="0"><path d="m0 0h32v24h-32z" fill="#fff"/></mask><mask id="b" height="24" maskUnits="userSpaceOnUse" width="32" x="0" y="0"><path clip-rule="evenodd" d="m0 0v24h32v-24z" fill="#fff" fill-rule="evenodd"/></mask><mask id="c" height="2" maskUnits="userSpaceOnUse" width="3" x="4" y="16"><path clip-rule="evenodd" d="m4.56006 16.9919h2.016v.896s-.252-.112-.504-.112-.504.112-.504.112-.252-.112-.504-.112-.504.112-.504.112z" fill="#fff" fill-rule="evenodd"/></mask><mask id="d" height="2" maskUnits="userSpaceOnUse" width="3" x="15" y="16"><path clip-rule="evenodd" d="m15.536 16.9919h2.016v.896s-.252-.112-.504-.112-.504.112-.504.112-.252-.112-.504-.112-.504.112-.504.112z" fill="#fff" fill-rule="evenodd"/></mask><mask id="e" height="9" maskUnits="userSpaceOnUse" width="8" x="7" y="9"><path clip-rule="evenodd" d="m7.47205 9.26392h7.27995v6.54078s-.5407 2.1952-3.64 2.1952c-3.09918 0-3.63995-2.253-3.63995-2.253z" fill="#fff" fill-rule="evenodd"/></mask><g mask="url(#a)"><path clip-rule="evenodd" d="m0 0v24h32v-24z" fill="#ffb400" fill-rule="evenodd"/><g mask="url(#b)"><path clip-rule="evenodd" d="m0 0v6h32v-6z" fill="#c51918" fill-rule="evenodd"/><path clip-rule="evenodd" d="m0 18v6h32v-6z" fill="#c51918" fill-rule="evenodd"/><path d="m5.00806 10.272h1.12v5.824h-1.12z" fill="#f1f9ff"/><g clip-rule="evenodd" fill-rule="evenodd"><path d="m6.57606 9.26392h-2.016v.56h.336v.44798h1.344v-.44798h.336z" fill="#c88a02"/><path d="m6.24006 16.4319h.336v.56h-2.016v-.56h.336v-.448h1.344z" fill="#c88a02"/><path d="m5.56806 9.37592c.24373 0 .2685-.09178.4123-.22885.11165-.10644.3717-.23845.3717-.38715 0-.34021-.35101-.616-.784-.616s-.784.27579-.784.616c0 .16567.17908.27644.31448.38715.14266.11664.24738.22885.46952.22885z" fill="#ad1619"/><path d="m4.56006 16.9919h2.016v.896s-.252-.112-.504-.112-.504.112-.504.112-.252-.112-.504-.112-.504.112-.504.112z" fill="#005bbf"/></g><g fill="#fff" mask="url(#c)"><path d="m4.54181 17.7119-.04401-.1073c.18158-.0808.36381-.1213.54631-.1213.11791 0 .17948.0164.28415.063.09194.0409.1396.0536.24015.0536s.14821-.0127.24015-.0536c.10467-.0466.16624-.063.28415-.063.1825 0 .36473.0405.54631.1213l-.04401.1073c-.16795-.0747-.33526-.112-.5023-.112-.10055 0-.14821.0128-.24015.0537-.10467.0466-.16624.063-.28415.063s-.17948-.0164-.28415-.063c-.09194-.0409-.1396-.0537-.24015-.0537-.16704 0-.33435.0373-.5023.112z"/><path d="m4.54181 17.3759-.04401-.1073c.18158-.0808.36381-.1214.54631-.1214.11791 0 .17948.0165.28415.063.09194.041.1396.0537.24015.0537s.14821-.0127.24015-.0537c.10467-.0465.16624-.063.28415-.063.1825 0 .36473.0406.54631.1214l-.04401.1073c-.16795-.0748-.33526-.112-.5023-.112-.10055 0-.14821.0127-.24015.0536-.10467.0466-.16624.0631-.28415.0631s-.17948-.0165-.28415-.0631c-.09194-.0409-.1396-.0536-.24015-.0536-.16704 0-.33435.0372-.5023.112z"/></g><path d="m15.984 10.272h1.12v5.824h-1.12z" fill="#f1f9ff"/><path clip-rule="evenodd" d="m17.552 9.26392h-2.016v.56h.336v.44798h1.344v-.44798h.336z" fill="#c88a02" fill-rule="evenodd"/><path clip-rule="evenodd" d="m17.216 16.4319h.336v.56h-2.016v-.56h.336v-.448h1.344z" fill="#c88a02" fill-rule="evenodd"/><path clip-rule="evenodd" d="m16.544 9.37592c.2437 0 .2685-.09178.4123-.22885.1117-.10644.3717-.23845.3717-.38715 0-.34021-.351-.616-.784-.616s-.784.27579-.784.616c0 .16567.1791.27644.3145.38715.1426.11664.2474.22885.4695.22885z" fill="#ad1619" fill-rule="evenodd"/><path clip-rule="evenodd" d="m15.536 16.9919h2.016v.896s-.252-.112-.504-.112-.504.112-.504.112-.252-.112-.504-.112-.504.112-.504.112z" fill="#005bbf" fill-rule="evenodd"/><g fill="#fff" mask="url(#d)"><path d="m15.5178 17.7119-.044-.1073c.1815-.0808.3638-.1213.5463-.1213.1179 0 .1794.0164.2841.063.092.0409.1396.0536.2402.0536.1005 0 .1482-.0127.2401-.0536.1047-.0466.1663-.063.2842-.063.1825 0 .3647.0405.5463.1213l-.044.1073c-.168-.0747-.3353-.112-.5023-.112-.1006 0-.1482.0128-.2402.0537-.1047.0466-.1662.063-.2841.063s-.1795-.0164-.2842-.063c-.0919-.0409-.1396-.0537-.2401-.0537-.1671 0-.3344.0373-.5023.112z"/><path d="m15.5178 17.3759-.044-.1073c.1815-.0808.3638-.1214.5463-.1214.1179 0 .1794.0165.2841.063.092.041.1396.0537.2402.0537.1005 0 .1482-.0127.2401-.0537.1047-.0465.1663-.063.2842-.063.1825 0 .3647.0406.5463.1214l-.044.1073c-.168-.0748-.3353-.112-.5023-.112-.1006 0-.1482.0127-.2402.0536-.1047.0466-.1662.0631-.2841.0631s-.1795-.0165-.2842-.0631c-.0919-.0409-.1396-.0536-.2401-.0536-.1671 0-.3344.0372-.5023.112z"/></g><path clip-rule="evenodd" d="m4.988 15.6799c.20193-.2448.31485-.4675.31485-.7041 0-.1491-.04439-.2779-.12215-.3832l.01314-.0059c-.00121.0006.22152-.0965.29906-.1337.14416-.0691.27115-.1423.39498-.2324.07905-.0575.18497-.1201.34643-.2068.0279-.015.10352-.0551.15175-.0807l.04094-.0217c.07848-.0419.13691-.074.1912-.1055.16917-.0981.28097-.1792.36647-.2877.20252-.2568.16047-.6049-.12332-.7981-.13904-.0947-.32667-.149-.6017-.1917l-.05687-.0088c-.09395-.0146-.27448-.0425-.33648-.0522-.13162-.0207-.24905-.04-.35376-.0583.68857-.1145 1.67181-.0724 2.10431.1509l.41105-.7962c-.88134-.455-2.88947-.4085-3.63961.108-.55019.379-.47636.9517.09609 1.1984.2392.103.55103.1714 1.12808.2641-.0967.0561-.17687.1074-.25157.1617-.07576.0551-.15692.1019-.25537.1491-.04708.0225-.18647.0837-.25039.1118h-.00005l-.03212.0142c-.46628.212-.69258.5053-.62496 1.0348l.03661.2866.06566.0201zm-.57638-.7407-.00142.0041.00108-.0029zm12.29438.0366c0 .2366.1129.4593.3148.7041l.6878-.5673.0656-.0201.0366-.2866c.0677-.5295-.1586-.8228-.6249-1.0348l-.0321-.0142c-.0639-.028-.2034-.0893-.2505-.1118-.0984-.0472-.1796-.094-.2553-.1491-.0747-.0543-.1549-.1056-.2516-.1617.577-.0927.8889-.1611 1.1281-.2641.5724-.2467.6462-.8194.096-1.1984-.7501-.5165-2.7582-.563-3.6396-.108l.4111.7962c.4325-.2233 1.4157-.2654 2.1043-.1509-.1047.0183-.2221.0376-.3538.0583-.0619.0097-.2424.0376-.3364.0521l-.0003.0001-.0566.0088c-.275.0427-.4627.097-.6017.1917-.2838.1932-.3258.5413-.1233.7981.0855.1085.1973.1896.3664.2877.0543.0315.1128.0636.1912.1055l.0408.0216c.0482.0256.124.0658.1519.0808.1615.0867.2674.1493.3465.2068.1238.0901.2508.1633.3949.2324.0776.0372.3003.1343.2991.1337l.0131.0059c-.0777.1053-.1221.2341-.1221.3832z" fill="#ad1619" fill-rule="evenodd"/><path d="m5.92341 12.3999.33059.0684v.4927c-.3521.281-1.24594.7545-1.24594.7545v-1.3156z" fill="#f1f9ff"/><path d="m16.3146 12.3999-.3306.0684v.4927c.3521.281 1.246.7545 1.246.7545v-1.3156z" fill="#f1f9ff"/><g clip-rule="evenodd" fill-rule="evenodd"><path d="m14.7761 7.2059v-.16398c-.576-.41345-1.1793-.62017-1.8098-.62017-.6044-.26747-1.2162-.3713-1.8354-.31148.0002-.00191.0003-.00288.0003-.00288-.931-.09109-1.86922.31436-1.86922.31436-.94571 0-1.80983.62017-1.80983.62017v.16398l1.12963 1.13453s.31796 1.092 2.54482.83535v.00277s1.4743-.04024 1.5779-.0747c.0411-.01367.0838-.02611.1273-.03883.2888-.08431.6185-.18056.8147-.72459zm-3.6495-1.04546c-.0322.37772-.2157 2.65465 0 3.00766z" fill="#ad1619"/><path d="m8.31374 8.14951.00075-.00345-.79471-.74769.07674-.08157.74573.70159.01908-.08777c.122.02653.21117.03628.26315.03076v-.1522l.1653.08946c.08131.044.19775.05584.35112.03088.11264-.01833.18865-.14915.2135-.42792l.05017-.56276.1683.53935c.07616.24406.19234.35165.35774.35165.16159 0 .22649-.05923.23369-.20851l.0203-.42338.1915.37816c.0689.13624.1641.19805.2993.19805.1935 0 .3227-.16128.3227-.41432h.0036.2204.0036c0 .25304.1293.41432.3227.41432.1353 0 .2304-.06181.2994-.19805l.1914-.37816.0204.42338c.0071.14928.0721.20851.2336.20851.1654 0 .2816-.10759.3577-.35165l.1683-.53935.0502.56276c.0249.27877.1009.40959.2135.42792.1534.02496.2698.01312.3511-.03088l.1653-.08946v.1522c.052.00552.1412-.00423.2632-.03076l.0354.16287.8255-.77669.0768.08157-1.0273.96651c-.1499.27603-.2254.45822-.2254.5339 0 .11546-.3004.18399-.8866.25438-.4593.05515-1.0013.09216-1.4447.09769v.00072l-.0562-.00018-.0562.00018v-.00072c-.4434-.00553-.9854-.04254-1.44472-.09769-.58626-.07039-.88664-.13892-.88664-.25438 0-.01432-.00271-.03244-.0081-.0543-.05912-.07528-.10068-.19845-.12834-.30954-.02595-.05195-.0556-.10869-.08892-.17006l-.2276-.21413zm5.50546.01803c-.1834.03247-.3159.02919-.3862-.02803-.1099.03199-.2388.03506-.3861.0111-.1572-.02558-.2667-.13017-.3326-.30367-.086.10958-.1948.17723-.325.19911.7167.10164 1.2187.24452 1.2187.24452s-.0123.10614-.0424.23094c.0318-.06533.0696-.13793.1132-.21805l.0108-.014zm-1.7681-.16407c-.0624-.03097-.1122-.07588-.1481-.13376-.0535.04719-.1142.08171-.1817.103.1126.00862.2228.01903.3298.03076zm-.7252-.05255c-.0873-.04032-.1598-.10488-.214-.18761-.0538.08215-.1257.14638-.2121.18675.0512-.00152.1027-.0026.1544-.00318v-.00051l.0449.00013.0449-.00013v.00051c.061.00069.1217.00205.1819.00404zm-2.70369.33087-.10442-.09824c.12535.01243.21813.00064.273-.04404.10993.03199.23887.03506.38608.0111.15724-.02558.26674-.13017.33263-.30367.08352.10641.18849.17328.31378.19709-.61794.08682-1.07899.20494-1.20107.23776zm1.87549-.31064c-.1085.00806-.2147.01781-.318.02882.0591-.03082.1065-.07452.1412-.13026.0521.04606.1112.08004.1768.10144zm2.7554.92982c.0784.03673.1413.0001.1911-.07022-.0043.01942-.007.03698-.0081.0527-.0066.0043-.0167.00948-.0299.01504-.0369.01551-.0932.03203-.1665.04875-.1441.03287-.3491.06554-.5922.09472-.4746.05698-1.0389.09448-1.4875.09742-.4487-.00294-1.013-.04044-1.48756-.09742-.24304-.02918-.4481-.06185-.59217-.09472-.06143-.01401-.11096-.02789-.1471-.04115.00397-.00151.00799-.00321.01206-.00512.24466-.11448 1.86257-.22192 2.15387-.24046.2914.01854 1.9093.12598 2.154.24046zm.3079-.0199-.0009.00105.0008-.00112.0007-.00054z" fill="#c88a02"/><path d="m11.1124 5.34705c.1855 0 .336-.15043.336-.336s-.1505-.336-.336-.336c-.1856 0-.336.15043-.336.336s.1504.336.336.336z" fill="#005bbf"/><g fill="#c88a02"><path d="m10.8938 6.99679c.0071.03688.0183.07121.0325.1018-.0434-.01657-.0949-.02618-.1502-.02618-.1546 0-.28.07522-.28.168 0 .09279.1254.168.28.168s.28-.07521.28-.168c0 .09279.1254.168.28.168s.28-.07521.28-.168c0-.09278-.1254-.168-.28-.168-.0389 0-.076.00477-.1097.01338.0081-.04593.0078-.09859-.0028-.15311-.0295-.1518-.1273-.26051-.2184-.2428-.091.0177-.141.15511-.1114.30691zm.1623.24362-.0001-.00512.0002.00008zm-1.80983-.02982c-.01415-.03059-.02535-.06492-.03252-.1018-.0295-.1518.02041-.28921.11149-.30691.09108-.01771.18883.091.21834.2428.0106.05452.01095.10718.00283.15311.03368-.00861.07076-.01338.10968-.01338.15464 0 .28.07522.28.168 0 .09279-.12536.168-.28.168s-.28-.07521-.28-.168l.00013-.00504-.00025-.00008.00012.00512c0 .09279-.12536.168-.28.168s-.28-.07521-.28-.168c0-.09278.12536-.168.28-.168.05526 0 .10678.00961.15018.02618zm3.50773.10238c-.0129.09188-.1475.14892-.3006.1274-.1532-.02152-.2668-.11345-.2539-.20533s.1475-.14892.3006-.1274c.0548.00769.1044.02437.1451.04683-.0098-.03227-.0161-.06783-.018-.10534-.0081-.15443.0604-.28356.1531-.28841.0926-.00486.1743.11639.1824.27082.0029.05547-.0041.10767-.0185.15202.0346-.00384.0719-.0034.1105.00202.1531.02152.2668.11345.2539.20533s-.1475.14892-.3007.1274c-.1531-.02153-.2668-.11346-.2539-.20534zm0 0 .0006-.00509.0002.00012zm1.0664.44426c.1366.0726.2826.06504.3261-.01689l.0023-.00458c.0135.01423.0294.0246.0476.03015.0887.02713.1973-.07077.2425-.21865s.0099-.28976-.0788-.31688c-.0887-.02713-.1973.07076-.2425.21864-.011.03593-.0172.0715-.0191.10516-.0305-.03501-.0715-.06768-.1203-.09362-.1366-.0726-.2826-.06504-.3261.01688-.0436.08192.0318.20719.1683.27979zm-5.49549.03431c-.13654.0726-.28254.06504-.32609-.01689-.00081-.00151-.00157-.00304-.0023-.00458-.01345.01423-.02937.02459-.04754.03015-.08873.02712-.19731-.07077-.24252-.21865s-.00993-.28976.0788-.31688c.08873-.02713.19731.07076.24252.21864.01098.03593.01722.0715.01909.10516.03053-.03502.07151-.06768.1203-.09362.13654-.0726.28254-.06504.3261.01688s-.03182.20719-.16836.27979z"/><path d="m10.9869 4.07654h.2333v.1474h.1525v.23333h-.1525v.46667h.1525v.23333h-.5407v-.23333h.1549v-.46667h-.1549v-.23333h.1549z"/></g></g><path d="m10.9441 5.34399h.448v1.456h-.448z" fill="#c88a02"/><path d="m9.14067 5.58785-.00195.11199c-.9931-.01734-1.56276.12758-1.70736.41643-.1495.29863-.1217.66165.08778 1.09288l-.10074.04894c-.22351-.4601-.25403-.85869-.08719-1.19195.17173-.34304.77435-.49636 1.80946-.47829z" fill="#fff"/><path d="m9.33286 6.58095-.05742.09616c-.21627-.12913-.32451-.34951-.32451-.65321 0-.43648.22484-.69243.72219-.86759.31743-.11179.75108-.06596 1.30208.13382l-.0382.10529c-.529-.19178-.93826-.23504-1.22667-.13347-.45619.16066-.6474.37833-.6474.76195 0 .26651.0899.44956.26993.55705z" fill="#fff"/><path d="m7.66018 7.03733-.21134.07423c-.21928-.62435-.15666-1.04836.21803-1.23127.33017-.16117.81135-.22676 1.44595-.20104l-.00907.22381c-.60084-.02434-1.04784.03659-1.33862.17853-.24624.1202-.29129.42519-.10495.95574z" fill="#c88a02"/><path d="m10.1294 5.4386c-.51213 0-.72244.12473-.84259.49302-.07657.2347-.00231.43502.23848.622l-.13739.17692c-.31174-.24208-.42165-.53856-.31404-.86839.15312-.46935.45358-.64755 1.05554-.64755.3946 0 .7019.10366.9159.31462l.0334.0329v1.07996h-.224v-.98422c-.1671-.14518-.4072-.21926-.7253-.21926z" fill="#c88a02"/><path d="m13.0491 5.69979.002.11198c.9931-.01733 1.5628.12759 1.7074.41644.1495.29863.1217.66165-.0878 1.09288l.1007.04894c.2235-.4601.254-.85869.0872-1.19196-.1717-.34304-.7743-.49635-1.8095-.47828z" fill="#fff"/><path d="m12.6984 6.60426.0574.09617c.2163-.12914.3245-.34951.3245-.65321 0-.43648-.2248-.69244-.7222-.8676-.3174-.11179-.751-.06595-1.302.13383l.0382.10529c.5289-.19178.9382-.23505 1.2266-.13348.4562.16066.6474.37834.6474.76196 0 .26651-.0899.44955-.2699.55704z" fill="#fff"/><path d="m14.5993 7.14939.2114.07423c.2193-.62435.1566-1.04836-.2181-1.23127-.3301-.16117-.8113-.22676-1.4459-.20104l.0091.22382c.6008-.02435 1.0478.03658 1.3386.17852.2462.1202.2913.42519.1049.95574z" fill="#c88a02"/><path d="m12.1174 5.45593c.5122 0 .7225.12474.8426.49302.0766.23471.0023.43502-.2385.62201l.1374.17692c.3118-.24208.4217-.53857.3141-.8684-.1532-.46935-.4536-.64755-1.0556-.64755-.3945 0-.7019.10366-.9159.31462l-.0334.0329v1.07997h.224v-.98423c.1672-.14517.4072-.21926.7253-.21926z" fill="#c88a02"/><path clip-rule="evenodd" d="m7.47205 9.26392h7.27995v6.54078s-.5407 2.1952-3.64 2.1952c-3.09918 0-3.63995-2.253-3.63995-2.253z" fill="#e1e5e8" fill-rule="evenodd" opacity=".3"/><g mask="url(#e)"><path d="m7.47205 13.2959h3.696v4.368h-3.696z" fill="#ffc034"/><g fill="#ad1619"><path d="m7.92004 13.5199h.448v4.144h-.448z"/><path d="m9.48804 13.5199h.448v4.144h-.448z"/><path d="m8.7041 13.5199h.448v4.144h-.448z"/><path d="m10.2721 13.5199h.448v4.144h-.448z"/><path d="m7.47205 9.15186h3.696v4.256h-3.696z"/><path d="m11.056 13.184h3.696v4.256h-3.696z"/></g><path d="m11.056 9.26392h3.92v4.144h-3.92z" fill="#f1f9ff"/><path clip-rule="evenodd" d="m9.0401 9.59998h.336v.92922h.224v-.4646h.336v.4646h.336v.5807h-.336v1.0453h.336v.5808h-2.016v-.5808h.336v-1.0453h-.336v-.5807h.224v-.4646h.336v.4646h.224z" fill="#c88a02" fill-rule="evenodd"/><path d="m12.9789 9.79497.2293-.24553.4816.44982-.2294.24554z" fill="#c88a02"/><g clip-rule="evenodd" fill-rule="evenodd"><path d="m14.3601 16.1399v-2.452h-2.8v2.4315l.0044.0189c.1417.604.6244.9096 1.3956.9096.7703 0 1.253-.2977 1.3953-.8886zm-1.4.572c-.6187 0-.9566-.2084-1.064-.6321v-2.0559h2.128v2.0754c-.1072.4098-.4451.6126-1.064.6126z" fill="#ffc034"/><path d="m13.0756 13.8928h-.2333v1.1117l-.9198-1.0004-.1649.1516.8318.9047h-.7537v.336h.579.193l-.8501.9247.1649.1516.9198-1.0004v1.2994h.2333v-1.1825l.8123.8835.1649-.1516-.8502-.9247h.949v-.336h-.9306l.8318-.9047-.1649-.1516-.8123.8835z" fill="#ffc034"/><path d="m13.4828 17.4426s-2.3722.1865-2.3722-1.3435c0 0-.0226 1.3435-2.49964 1.3435v1.2078h4.87184z" fill="#f1f9ff"/><path d="m11.1121 14.1919c.4639 0 .84-.4012.84-.896s-.3761-.896-.84-.896-.84.4012-.84.896.3761.896.84.896z" fill="#005bbf" stroke="#ad1619" stroke-width="1.16667"/></g></g></g></g></svg>