<svg fill="none" height="15" viewBox="0 0 20 15" width="20" xmlns="http://www.w3.org/2000/svg" xmlns:xlink="http://www.w3.org/1999/xlink"><mask id="a" height="15" maskUnits="userSpaceOnUse" width="20" x="0" y="0"><path d="m0 0h20v15h-20z" fill="#fff"/></mask><g mask="url(#a)"><g clip-rule="evenodd" fill-rule="evenodd"><path d="m0 0h20v15h-20z" fill="#5eaa22"/><g fill="#feca00"><path d="m15 4.375-.625.45753.0837-.77003-.7087-.3125.7087-.3125-.0837-.77003.625.45753.625-.45753-.0837.77003.7087.3125-.7087.3125.0837.77003z"/><path d="m14.3517 8.54921-.625.45753.0838-.77003-.7088-.3125.7088-.3125-.0838-.77004.625.45754.625-.45754-.0837.77004.7087.3125-.7087.3125.0837.77003z"/><path d="m16.25 11.875-.625.4575.0837-.77-.7087-.3125.7087-.3125-.0837-.77.625.4575.625-.4575-.0837.77.7087.3125-.7087.3125.0837.77z"/><path d="m16.875 5.9375-.3125.22877.0419-.38502-.3544-.15625.3544-.15625-.0419-.38502.3125.22877.3125-.22877-.0419.38502.3544.15625-.3544.15625.0419.38502z"/><path d="m4.375 8.75c1.72589 0 3.125-1.39911 3.125-3.125s-1.39911-3.125-3.125-3.125-3.125 1.39911-3.125 3.125 1.39911 3.125 3.125 3.125z"/></g></g><path d="m4.05593 7.49216-.22426-.15799c.49608-.64991.3649-1.55816.22426-2.15504l.91251-.21502c.20948.88901-.25559 1.66743-.91251 2.52805z" fill="#915e2b"/><g clip-rule="evenodd" fill-rule="evenodd"><path d="m12.4361 9.34061c-.4114.70599-1.0651 1.02639-1.9401 1.02639-1.30947 0-2.371-1.06154-2.371-2.37101 0-1.30946 1.06153-2.37099 2.371-2.37099.9991 0 1.7962.34955 2.1619 1.30162-.2895-.2871-.7376-.48403-1.4079-.45907-1.0355 0-1.70916.80674-1.70916 1.49709 0 .69036.67366 1.62879 1.70916 1.62879.5208-.0078.9056-.10303 1.1861-.25282z" fill="#feca00"/><path d="m4.37501 5.46216c1.03553 0 1.69563-.27982 1.69563-.625s-.6601-.625-1.69563-.625-1.57228.27982-1.57228.625.53675.625 1.57228.625z" fill="#5eaa22"/></g></g></svg>