<svg fill="none" height="12" viewBox="0 0 16 12" width="16" xmlns="http://www.w3.org/2000/svg" xmlns:xlink="http://www.w3.org/1999/xlink"><mask id="a" height="12" maskUnits="userSpaceOnUse" width="16" x="0" y="0"><path d="m0 0h16v12h-16z" fill="#fff"/></mask><mask id="b" height="12" maskUnits="userSpaceOnUse" width="16" x="0" y="0"><path clip-rule="evenodd" d="m0 0v12h16v-12z" fill="#fff" fill-rule="evenodd"/></mask><mask id="c" height="8" maskUnits="userSpaceOnUse" width="7" x="4" y="2"><path clip-rule="evenodd" d="m7.8933 9.28579c1.70812 0 3.0928-1.41803 3.0928-3.16725s-1.38468-3.16725-3.0928-3.16725-3.09282 1.41803-3.09282 3.16725 1.3847 3.16725 3.09282 3.16725z" fill="#fff" fill-rule="evenodd"/></mask><g mask="url(#a)"><path clip-rule="evenodd" d="m0 0v12h16v-12z" fill="#f7fcff" fill-rule="evenodd"/><g mask="url(#b)"><path clip-rule="evenodd" d="m7.8933 9.28579c1.70812 0 3.0928-1.41803 3.0928-3.16725s-1.38468-3.16725-3.0928-3.16725-3.09282 1.41803-3.09282 3.16725 1.3847 3.16725 3.09282 3.16725z" fill="#3d58db" fill-rule="evenodd"/><g mask="url(#c)"><path clip-rule="evenodd" d="m11.0943 6.36114s-.1736-1.49346-1.45928-1.57453c-1.28569-.08108-1.63236 1.09521-1.70655 1.40685-.07419.31165-.26197 1.14299-1.61565 1.14299s-1.47578-2.11393-1.47578-2.11393v-2.49266h6.25726z" fill="#e31d1c" fill-rule="evenodd"/></g><g fill="#272727"><path clip-rule="evenodd" d="m3.64967 1.02612.45748.41377-2.12013 2.47595-.45748-.41376zm.75449.66958.45749.41377-2.04414 2.44008-.45748-.41376zm1.20852 1.09159-.45748-.41376-2.04981 2.4586.45748.41376z" fill-rule="evenodd"/><path d="m4.10715 1.43989.05697.04878.04747-.05545-.05413-.04896zm-.45748-.41377.05031-.055621-.05716-.051692-.05012.058535zm-1.66265 2.88972-.05031.05562.05716.05169.05012-.05853zm-.45748-.41376-.05697-.04879-.04747.05545.05413.04896zm3.33211-1.39261.05749.04816.04637-.05535-.05356-.04844zm-.45749-.41377.05031-.05562-.05777-.05226-.05003.05972zm-1.58665 2.85385-.0503.05562.05777.05226.05003-.05972zm-.45748-.41376-.05749-.04817-.04637.05535.05356.04844zm2.79517-1.76226.05031-.05562-.05791-.05238-.05.05997zm.45748.41376.05761.04803.04613-.05533-.05343-.04832zm-2.50729 2.04484-.0576-.04803-.04613.05533.05342.04833zm.45748.41376-.05031.05563.05792.05238.05-.05998zm.59459-3.86163-.45748-.413761-.10062.111251.45748.41376zm-2.11347 2.58036 2.12013-2.47595-.11394-.09757-2.12013 2.47596zm-.56476-.40692.45748.41376.10062-.11125-.45748-.41376zm2.11347-2.580358-2.12013 2.475948.11394.09757 2.12013-2.47596zm1.31925 1.076498-.45748-.41376-.10061.11125.45748.41376zm-2.03694 2.54387 2.04413-2.44008-.11499-.09633-2.04413 2.44009zm-.56528-.4063.45748.41376.10061-.11125-.45748-.41376zm2.03694-2.54387-2.04413 2.44008.11499.09633 2.04413-2.44009zm.75823.78161.45748.41377.10061-.11125-.45748-.41376zm-1.9419 2.45101 2.04981-2.4586-.11521-.09606-2.04981 2.4586zm.45018.31011-.45748-.41376-.10062.11125.45748.41376zm1.9419-2.451-2.04981 2.4586.11521.09605 2.04981-2.4586z"/><path clip-rule="evenodd" d="m12.2925 1.02612-.4575.41377 2.1202 2.47595.4575-.41376zm-.7545.66958-.4574.41377 2.0441 2.44008.4575-.41376zm-1.2085 1.09159.4575-.41376 2.0498 2.4586-.4575.41376z" fill-rule="evenodd"/><path d="m11.835 1.43989-.0569.04878-.0475-.05545.0541-.04896zm.4575-.41377-.0503-.055621.0572-.051692.0501.058535zm1.6627 2.88972.0503.05562-.0572.05169-.0501-.05853zm.4575-.41376.0569-.04879.0475.05545-.0541.04896zm-3.3321-1.39261-.0575.04816-.0464-.05535.0535-.04844zm.4574-.41377-.0503-.05562.0578-.05226.05.05972zm1.5867 2.85385.0503.05562-.0578.05226-.05-.05972zm.4575-.41376.0575-.04817.0463.05535-.0535.04844zm-2.7952-1.76226-.0503-.05562.0579-.05238.05.05997zm-.4575.41376-.0576.04803-.0461-.05533.0534-.04832zm2.5073 2.04484.0576-.04803.0461.05533-.0534.04833zm-.4575.41376.0503.05563-.0579.05238-.05-.05998zm-.5946-3.86163.4575-.413761.1006.111251-.4574.41376zm2.1135 2.58036-2.1201-2.47595.1139-.09757 2.1201 2.47596zm.5648-.40692-.4575.41376-.1006-.11125.4575-.41376zm-2.1135-2.580358 2.1201 2.475948-.1139.09757-2.1201-2.47596zm-1.3193 1.076498.4575-.41376.1006.11125-.4574.41376zm2.037 2.54387-2.0441-2.44008.1149-.09633 2.0442 2.44009zm.5653-.4063-.4575.41376-.1006-.11125.4575-.41376zm-2.037-2.54387 2.0442 2.44008-.115.09633-2.0442-2.44009zm-.7582.78161-.4575.41377-.1006-.11125.4575-.41376zm1.9419 2.45101-2.0498-2.4586.1152-.09606 2.0498 2.4586zm-.4502.31011.4575-.41376.1006.11125-.4575.41376zm-1.9419-2.451 2.0498 2.4586-.1152.09605-2.0498-2.4586z"/><path clip-rule="evenodd" d="m3.64967 11.2458.45748-.4137-2.12013-2.47597-.45748.41377zm.75449-.6695.45749-.4138-2.04414-2.44008-.45748.41377zm1.20852-1.09162-.45748.41376-2.04981-2.4586.45748-.41376z" fill-rule="evenodd"/><path d="m4.10715 10.8321.05697-.0488.04747.0554-.05413.049zm-.45748.4137.05031.0557-.05716.0517-.05012-.0586zm-1.66265-2.88967-.05031-.05562.05716-.05169.05012.05853zm-.45748.41377-.05697.04878-.04747-.05544.05413-.04897zm3.33211 1.3926.05749-.0482.04637.0554-.05356.0484zm-.45749.4138.05031.0556-.05777.0522-.05003-.0597zm-1.58665-2.85388-.0503-.05562.05777-.05225.05003.05971zm-.45748.41377-.05749.04816-.04637-.05535.05356-.04844zm2.79517 1.76225.05031.05563-.05791.05233-.05-.05993zm.45748-.41376.05761-.04803.04613.05533-.05343.04832zm-2.50729-2.04484-.0576.04803-.04613-.05533.05342-.04832zm.45748-.41376-.05031-.05563.05792-.05237.05.05997zm.59459 3.86162-.45748.4138-.10062-.1113.45748-.4137zm-2.11347-2.58035 2.12013 2.47595-.11394.0976-2.12013-2.47598zm-.56476.40692.45748-.41376.10062.11125-.45748.41376zm2.11347 2.58033-2.12013-2.47592.11394-.09756 2.12013 2.47598zm1.31925-1.0765-.45748.4138-.10061-.1113.45748-.4137zm-2.03694-2.54384 2.04413 2.44004-.11499.0964-2.04413-2.44011zm-.56528.4063.45748-.41376.10061.11125-.45748.41376zm2.03694 2.54384-2.04413-2.44005.11499-.09633 2.04413 2.44008zm.75823-.78158.45748-.41377.10061.11125-.45748.41377zm-1.9419-2.45101 2.04981 2.4586-.11521.09606-2.04981-2.4586zm.45018-.31011-.45748.41377-.10062-.11125.45748-.41377zm1.9419 2.45101-2.04981-2.4586.11521-.09606 2.04981 2.4586z"/><path clip-rule="evenodd" d="m12.2925 11.2458-.4575-.4137 2.1202-2.47597.4575.41377zm-.7545-.6695-.4574-.4138 2.0441-2.44008.4575.41377zm-1.2085-1.09162.4575.41376 2.0498-2.4586-.4575-.41376z" fill-rule="evenodd"/><path d="m11.835 10.8321-.0569-.0488-.0475.0554.0541.049zm.4575.4137-.0503.0557.0572.0517.0501-.0586zm1.6627-2.88967.0503-.05562-.0572-.05169-.0501.05853zm.4575.41377.0569.04878.0475-.05544-.0541-.04897zm-3.3321 1.3926-.0575-.0482-.0464.0554.0535.0484zm.4574.4138-.0503.0556.0578.0522.05-.0597zm1.5867-2.85388.0503-.05562-.0578-.05225-.05.05971zm.4575.41377.0575.04816.0463-.05535-.0535-.04844zm-2.7952 1.76225-.0503.05563.0579.05233.05-.05993zm-.4575-.41376-.0576-.04803-.0461.05533.0534.04832zm2.5073-2.04484.0576.04803.0461-.05533-.0534-.04832zm-.4575-.41376.0503-.05563-.0579-.05237-.05.05997zm-.5946 3.86162.4575.4138.1006-.1113-.4574-.4137zm2.1135-2.58035-2.1201 2.47595.1139.0976 2.1201-2.47598zm.5648.40692-.4575-.41376-.1006.11125.4575.41376zm-2.1135 2.58033 2.1201-2.47592-.1139-.09756-2.1201 2.47598zm-1.3193-1.0765.4575.4138.1006-.1113-.4574-.4137zm2.037-2.54384-2.0441 2.44004.1149.0964 2.0442-2.44011zm.5653.4063-.4575-.41376-.1006.11125.4575.41376zm-2.037 2.54384 2.0442-2.44005-.115-.09633-2.0442 2.44008zm-.7582-.78158-.4575-.41377-.1006.11125.4575.41377zm1.9419-2.45101-2.0498 2.4586.1152.09606 2.0498-2.4586zm-.4502-.31011.4575.41377.1006-.11125-.4575-.41377zm-1.9419 2.45101 2.0498-2.4586-.1152-.09606-2.0498 2.4586z"/></g></g></g></svg>