<svg fill="none" height="24" viewBox="0 0 32 24" width="32" xmlns="http://www.w3.org/2000/svg" xmlns:xlink="http://www.w3.org/1999/xlink"><mask id="a" height="24" maskUnits="userSpaceOnUse" width="32" x="0" y="0"><path d="m0 0h32v24h-32z" fill="#fff"/></mask><mask id="b" height="24" maskUnits="userSpaceOnUse" width="32" x="0" y="0"><path clip-rule="evenodd" d="m0 0v24h32v-24z" fill="#fff" fill-rule="evenodd"/></mask><g clip-rule="evenodd" fill-rule="evenodd" mask="url(#a)"><path d="m0 0v24h32v-24z" fill="#c51918"/><g mask="url(#b)"><path d="m0 0v14h16v-14z" fill="#2e42a5"/><g fill="#feffff"><path d="m3.56564 7.77201-1.06005.63995.24179-1.24879-.88276-.9346 1.19531-.05054.50571-1.16607.50571 1.16607h1.19327l-.88072.98514.26515 1.24879z"/><path d="m11.5656 7.77201-1.06.63995.2418-1.24879-.88278-.9346 1.19528-.05054.5057-1.16607.5058 1.16607h1.1932l-.8807.98514.2651 1.24879z"/><path d="m7.46558 4.13798-.99769.6023.22757-1.17533-.83084-.87963 1.125-.04756.47596-1.09748.47596 1.09748h1.12308l-.82891.92719.24955 1.17533z"/><path d="m8.54625 8.42532-.62355.37644.14222-.73459-.51927-.54976.70313-.02973.29747-.68592.29748.68592h.70192l-.51807.57949.15597.73459z"/><path d="m7.40876 12.8282-1.49654.9034.34135-1.763-1.24625-1.3194 1.6875-.0713.71394-1.64626.71394 1.64626h1.68462l-1.24337 1.3907.37433 1.763z"/></g></g></g></svg>