<svg fill="none" height="12" viewBox="0 0 16 12" width="16" xmlns="http://www.w3.org/2000/svg" xmlns:xlink="http://www.w3.org/1999/xlink"><mask id="a" height="12" maskUnits="userSpaceOnUse" width="16" x="0" y="0"><path d="m0 0h16v12h-16z" fill="#fff"/></mask><mask id="b" fill="#000" height="6" maskUnits="userSpaceOnUse" width="5" x="5.58847" y="3.4408"><path d="m5.58847 3.4408h5v6h-5z" fill="#fff"/><path clip-rule="evenodd" d="m8.04337 4.45277c.01331-.00755.02074-.01197.02074-.01197v.02356c.09626.05311.33862.17755.49622.17755.20034 0 .47265-.20111.47265-.20111l.45565.64336s-.30686.64315-.07206 1.42906c.2348.7859-.01243 1.39189-1.05659 1.45918 0 0-.20574.03909-.29587.10139v.05756c0-.01432-.00769-.02793-.02074-.04073-.01305.0128-.02074.02641-.02074.04073v-.05756c-.09013-.0623-.29587-.10139-.29587-.10139-1.04416-.06729-1.29139-.67328-1.05659-1.45918.2348-.78591-.07206-1.42906-.07206-1.42906l.45565-.64336s.27231.20111.47265.20111c.1576 0 .39996-.12444.49622-.17755v-.02356s.00743.00442.02074.01197z" fill="#000" fill-rule="evenodd"/></mask><mask id="c" height="6" maskUnits="userSpaceOnUse" width="5" x="6" y="3"><path clip-rule="evenodd" d="m8.04337 4.45277c.01331-.00755.02074-.01197.02074-.01197v.02356c.09626.05311.33862.17755.49622.17755.20034 0 .47265-.20111.47265-.20111l.45565.64336s-.30686.64315-.07206 1.42906c.2348.7859-.01243 1.39189-1.05659 1.45918 0 0-.20574.03909-.29587.10139v.05756c0-.01432-.00769-.02793-.02074-.04073-.01305.0128-.02074.02641-.02074.04073v-.05756c-.09013-.0623-.29587-.10139-.29587-.10139-1.04416-.06729-1.29139-.67328-1.05659-1.45918.2348-.78591-.07206-1.42906-.07206-1.42906l.45565-.64336s.27231.20111.47265.20111c.1576 0 .39996-.12444.49622-.17755v-.02356s.00743.00442.02074.01197z" fill="#fff" fill-rule="evenodd"/><path d="m8.06411 4.4408h.5v-.88018l-.75603.4507zm-.02074.01197-.24656.43498.24656.13975.24656-.13975zm.02074.01159h-.5v.29519l.25846.1426zm.96887-.02356.40804-.28898-.29479-.41624-.41029.30301zm.45565.64336.45126.21531.12641-.26483-.16964-.23945zm-.07206 1.42906-.47908.14313zm-1.05659 1.45918-.03215-.49897-.03083.00199-.03036.00577zm-.29587.10139-.28429-.41131-.21571.14909v.26222zm-.02074.01683.35011-.35697-.35011-.34339-.35011.34339zm-.02074-.01683h.5v-.26222l-.21571-.14909zm-.29587-.10139.09333-.49121-.03035-.00577-.03083-.00199zm-1.12865-2.88824-.40803-.28897-.16959.23945.12636.26483zm.45565-.64336.29704-.40221-.41029-.30301-.29479.41624zm.96887.02356.24154.43779.25846-.1426v-.29519zm0-.02356.25603-.42948-.75603-.4507v.88018zm.04148 0c-.25603-.42948-.25603-.42948-.25602-.42949.00001 0 .00001-.00001.00002-.00001s.00002-.00001.00003-.00002l.00006-.00003c.00004-.00003.00008-.00005.00012-.00007.00007-.00004.00013-.00008.00019-.00012.00012-.00007.00021-.00012.00028-.00016.00013-.00008.00015-.00009.00006-.00004-.00016.0001-.00075.00044-.00172.00101-.00195.00114-.00545.00316-.01032.00592l.49312.86996c.00844-.00479.01531-.00875.0204-.01171.00254-.00148.00465-.00272.00629-.00369.00082-.00048.00153-.0009.00211-.00125.0003-.00017.00056-.00033.0008-.00047.00011-.00007.00022-.00013.00032-.00019l.00015-.00009c.00002-.00001.00005-.00003.00007-.00004.00001-.00001.00002-.00001.00003-.00002.00001 0 .00002-.00001.00002-.00001.00001 0 .00002-.00001-.25601-.42948zm.5.02356v-.02356h-1v.02356zm-.74154.43779c.05674.0313.16014.08576.27742.13371.10135.04144.278.10605.46034.10605v-1c.02093 0 .02303.00325-.00043-.00307-.0204-.00549-.048-.01492-.08145-.0286-.06737-.02755-.13329-.06187-.17281-.08367zm.73776.23976c.23394 0 .44706-.10555.549-.16059.06237-.03368.11535-.06677.15277-.09139.01895-.01246.03451-.02315.04598-.03119.00574-.00404.0105-.00743.01417-.01008.00184-.00133.00342-.00247.00472-.00342.00064-.00047.00122-.0009.00173-.00127.00026-.00019.0005-.00036.00071-.00052.00011-.00008.00022-.00016.00032-.00024.00005-.00003.00012-.00009.00015-.00011.00007-.00005.00014-.0001-.2969-.4023-.29704-.40221-.29697-.40226-.2969-.40231.00002-.00001.00009-.00006.00013-.00009.00008-.00007.00016-.00013.00024-.00018.00015-.00012.00029-.00022.00042-.00031.00024-.00018.00043-.00031.00056-.00041.00025-.00018.00027-.0002.00007-.00005-.00041.0003-.0017.00122-.00379.00269-.00422.00296-.01149.00797-.0212.01436-.0199.0131-.04753.03028-.07827.04688-.03174.01714-.05976.02982-.08117.03733-.02502.00879-.02025.0032.00726.0032zm.06462-.41214.45564.64337.81607-.57795-.45564-.64337zm.86368.35439c-.45127-.21531-.45135-.21513-.45144-.21496-.00002.00006-.00011.00024-.00017.00037-.00012.00024-.00024.0005-.00037.00077-.00025.00054-.00052.00112-.00081.00173-.00058.00124-.00124.00265-.00196.00421-.00145.00314-.00318.00692-.00515.01135-.00396.00885-.00892.02026-.01467.03412-.01148.02768-.02617.06528-.04225.11176-.03206.0927-.07019.22236-.09911.38053-.05764.31525-.08069.75537.06479 1.24231l.95815-.28626c-.08932-.29898-.07633-.57338-.03925-.77618.01845-.10086.04236-.1811.0605-.23355.00902-.02609.01647-.04488.02085-.05544.00218-.00526.00358-.00843.00401-.00939.00022-.00048.00018-.0004-.00012.00025-.00015.00033-.00037.0008-.00065.00141-.00015.00031-.00031.00065-.00049.00103-.00009.00019-.00019.00039-.00028.0006-.00005.0001-.00013.00027-.00016.00032-.00008.00017-.00016.00033-.45142-.21498zm-.55114 1.57219c.09877.3306.05935.50705.0076.58901-.04315.06835-.17777.19975-.61726.22807l.06431.99793c.60466-.03896 1.11573-.24421 1.39853-.69215.27423-.43433.24103-.95382.10497-1.40912zm-.57751 1.31605c-.09334-.49121-.09339-.4912-.09344-.49119-.00002 0-.00007.00001-.00011.00002-.00007.00001-.00015.00003-.00023.00004-.00016.00003-.00034.00007-.00053.0001-.00037.00007-.0008.00016-.00128.00025-.00096.00019-.00213.00041-.00349.00068-.00272.00054-.00623.00124-.01045.00211-.00842.00172-.01977.00412-.03337.00717-.02685.00602-.06421.01495-.10608.02668-.06271.01756-.21038.06072-.33118.14422l.56858.82263c-.02381.01645-.03518.01892-.01887.01258.01193-.00464.02952-.01042.05116-.01649.02084-.00583.04054-.01057.05509-.01383.00709-.00158.01252-.00273.0157-.00338.00159-.00032.00258-.00052.00292-.00059.00017-.00003.00017-.00003-.00001 0-.00008.00002-.00022.00004-.00039.00008-.00009.00002-.00019.00004-.00031.00006-.00005.00001-.00011.00002-.00017.00003-.00003.00001-.00008.00002-.0001.00002-.00005.00001-.0001.00002-.09344-.49119zm.20413.15895v-.05756h-1v.05756zm-.87085.31623c-.03499-.03432-.12915-.14149-.12915-.31623h1c0-.20337-.10954-.33778-.17063-.3977zm0-.71393c-.06109.05992-.17063.19433-.17063.3977h1c0 .17474-.09416.28191-.12915.31623zm.82937.3977v-.05756h-1v.05756zm-.79587-.15895c-.09334.49121-.09339.4912-.09344.49119-.00002 0-.00007-.00001-.0001-.00002-.00006-.00001-.00012-.00002-.00017-.00003-.00012-.00002-.00022-.00004-.00031-.00006-.00017-.00004-.00031-.00006-.00039-.00008-.00018-.00003-.00018-.00003-.00001 0 .00033.00007.00133.00027.00292.00059.00318.00065.00861.0018.0157.00338.01454.00326.03425.008.05509.01383.02164.00607.03923.01185.05115.01649.01632.00634.00495.00387-.01886-.01258l.56858-.82263c-.1208-.0835-.26847-.12666-.33118-.14422-.04187-.01173-.07923-.02066-.10608-.02668-.0136-.00305-.02495-.00545-.03337-.00717-.00422-.00087-.00773-.00157-.01045-.00211-.00136-.00027-.00253-.00049-.00349-.00068-.00048-.00009-.00091-.00018-.00128-.00025-.00019-.00003-.00037-.00007-.00053-.0001-.00008-.00001-.00016-.00003-.00023-.00004-.00004-.00001-.00009-.00002-.00011-.00002-.00005-.00001-.00011-.00002-.09344.49119zm-1.53566-1.60231c-.13603.4553-.16924.97479.10496 1.40912.28281.44794.79388.65319 1.39854.69215l.06431-.99793c-.43949-.02832-.57411-.15972-.61726-.22807-.05175-.08196-.09117-.25841.0076-.58901zm.40701-1.28593c-.45126.21531-.45134.21515-.45142.21498-.00003-.00005-.00011-.00022-.00016-.00032-.00009-.00021-.00019-.00041-.00028-.0006-.00018-.00038-.00034-.00072-.00049-.00103-.00028-.00061-.0005-.00108-.00065-.00141-.0003-.00065-.00034-.00073-.00012-.00025.00043.00096.00183.00413.00401.00939.00438.01056.01183.02935.02085.05544.01814.05245.04205.13269.0605.23355.03708.2028.05007.4772-.03925.77618l.95815.28626c.14548-.48694.12243-.92706.06479-1.24231-.02893-.15817-.06705-.28783-.09911-.38053-.01608-.04648-.03077-.08408-.04225-.11176-.00575-.01386-.01071-.02527-.01467-.03412-.00197-.00443-.0037-.00821-.00515-.01135-.00072-.00156-.00138-.00297-.00196-.00421-.00029-.00061-.00056-.00119-.00081-.00173-.00013-.00027-.00025-.00053-.00037-.00077-.00006-.00013-.00015-.00031-.00018-.00037-.00008-.00017-.00016-.00035-.45143.21496zm.04761-.93234-.45564.64337.81607.57795.45564-.64337zm.88069-.00991c.0275 0 .03228.00559.00726-.0032-.02141-.00751-.04943-.02019-.08117-.03733-.03074-.0166-.05837-.03378-.07827-.04688-.00971-.00639-.01698-.0114-.0212-.01436-.00209-.00147-.00338-.00239-.00379-.00269-.0002-.00015-.00018-.00013.00007.00005.00013.0001.00032.00023.00056.00041.00013.00009.00027.0002.00042.00031.00008.00005.00016.00011.00024.00018.00004.00003.00011.00008.00013.00009.00007.00005.00014.0001-.2969.40231-.29704.4022-.29697.40225-.2969.4023.00003.00002.0001.00008.00015.00011.0001.00008.00021.00016.00031.00024.00022.00016.00046.00033.00072.00052.00051.00037.00109.0008.00173.00127.0013.00095.00288.00209.00472.00342.00367.00265.00843.00604.01417.01008.01147.00804.02703.01873.04598.03119.03742.02462.0904.05771.15277.09139.10194.05504.31506.16059.549.16059zm.25469-.11534c-.03952.0218-.10544.05612-.17281.08367-.03345.01368-.06105.02311-.08145.0286-.02346.00632-.02136.00307-.00043.00307v1c.18234 0 .35899-.06461.46034-.10605.11728-.04795.22068-.10241.27742-.13371zm.74153.43779v-.02356h-1v.02356zm-.5-.02356c-.25603.42947-.25602.42948-.25601.42948 0 0 .00001.00001.00002.00001.00001.00001.00002.00001.00003.00002.00002.00001.00005.00003.00007.00004.00005.00003.0001.00006.00015.00009.0001.00006.00021.00012.00032.00019.00024.00014.0005.0003.0008.00047.00058.00035.00129.00077.00211.00125.00164.00097.00375.00221.00629.00369.00509.00296.01196.00692.0204.01171l.49312-.86996c-.00487-.00276-.00837-.00478-.01032-.00592-.00097-.00057-.00156-.00091-.00172-.00101-.00009-.00005-.00007-.00004.00006.00004.00007.00004.00016.00009.00028.00016.00006.00004.00012.00008.00019.00012.00004.00002.00008.00004.00012.00007l.00006.00003c.00001.00001.00002.00002.00003.00002s.00001.00001.00002.00001c.00001.00001.00001.00001-.25602.42949z" fill="#fff" mask="url(#d)"/></mask><mask id="d" fill="#000" height="6" maskUnits="userSpaceOnUse" width="5" x="5.58847" y="3.4408"><path d="m5.58847 3.4408h5v6h-5z" fill="#fff"/><path clip-rule="evenodd" d="m8.04337 4.45277c.01331-.00755.02074-.01197.02074-.01197v.02356c.09626.05311.33862.17755.49622.17755.20034 0 .47265-.20111.47265-.20111l.45565.64336s-.30686.64315-.07206 1.42906c.2348.7859-.01243 1.39189-1.05659 1.45918 0 0-.20574.03909-.29587.10139v.05756c0-.01432-.00769-.02793-.02074-.04073-.01305.0128-.02074.02641-.02074.04073v-.05756c-.09013-.0623-.29587-.10139-.29587-.10139-1.04416-.06729-1.29139-.67328-1.05659-1.45918.2348-.78591-.07206-1.42906-.07206-1.42906l.45565-.64336s.27231.20111.47265.20111c.1576 0 .39996-.12444.49622-.17755v-.02356s.00743.00442.02074.01197z" fill="#000" fill-rule="evenodd"/></mask><g mask="url(#a)"><g clip-rule="evenodd" fill-rule="evenodd"><path d="m4 0h8.5v12h-8.5z" fill="#f7fcff"/><g fill="#f50101"><path d="m12 0h4v12h-4z"/><path d="m0 0h4v12h-4z"/></g></g><path d="m7.87065 4.37257.01675.18098c-.49922.05049-.76893-.19344-.76893-.69971 0-.50236.26388-.76938.76002-.77254l.00106.18181c-.40198.00256-.58717.18996-.58717.59073 0 .39686.17936.55908.57827.51873z" fill="#a2bb6a"/><path d="m8.09175 4.37257-.01675.18098c.49923.05049.76893-.19344.76893-.69971 0-.50236-.26387-.76938-.76002-.77254l-.00106.18181c.40198.00256.58717.18996.58717.59073 0 .39686-.17936.55908-.57827.51873z" fill="#a2bb6a"/><path clip-rule="evenodd" d="m8.04337 4.45277c.01331-.00755.02074-.01197.02074-.01197v.02356c.09626.05311.33862.17755.49622.17755.20034 0 .47265-.20111.47265-.20111l.45565.64336s-.30686.64315-.07206 1.42906c.2348.7859-.01243 1.39189-1.05659 1.45918 0 0-.20574.03909-.29587.10139v.05756c0-.01432-.00769-.02793-.02074-.04073-.01305.0128-.02074.02641-.02074.04073v-.05756c-.09013-.0623-.29587-.10139-.29587-.10139-1.04416-.06729-1.29139-.67328-1.05659-1.45918.2348-.78591-.07206-1.42906-.07206-1.42906l.45565-.64336s.27231.20111.47265.20111c.1576 0 .39996-.12444.49622-.17755v-.02356s.00743.00442.02074.01197z" fill="#e8aa00" fill-rule="evenodd"/><path d="m8.06411 4.4408h.5v-.88018l-.75603.4507zm-.02074.01197-.24656.43498.24656.13975.24656-.13975zm.02074.01159h-.5v.29519l.25846.1426zm.96887-.02356.40804-.28898-.29479-.41624-.41029.30301zm.45565.64336.45126.21531.12641-.26483-.16964-.23945zm-.07206 1.42906-.47908.14313zm-1.05659 1.45918-.03215-.49897-.03083.00199-.03036.00577zm-.29587.10139-.28429-.41131-.21571.14909v.26222zm-.02074.01683.35011-.35697-.35011-.34339-.35011.34339zm-.02074-.01683h.5v-.26222l-.21571-.14909zm-.29587-.10139.09333-.49121-.03035-.00577-.03083-.00199zm-1.12865-2.88824-.40803-.28897-.16959.23945.12636.26483zm.45565-.64336.29704-.40221-.41029-.30301-.29479.41624zm.96887.02356.24154.43779.25846-.1426v-.29519zm0-.02356.25603-.42948-.75603-.4507v.88018zm.04148 0c-.25603-.42948-.25603-.42948-.25602-.42949.00001 0 .00001-.00001.00002-.00001s.00002-.00001.00003-.00002l.00006-.00003c.00004-.00003.00008-.00005.00012-.00007.00007-.00004.00013-.00008.00019-.00012.00012-.00007.00021-.00012.00028-.00016.00013-.00008.00015-.00009.00006-.00004-.00016.0001-.00075.00044-.00172.00101-.00195.00114-.00545.00316-.01032.00592l.49312.86996c.00844-.00479.01531-.00875.0204-.01171.00254-.00148.00465-.00272.00629-.00369.00082-.00048.00153-.0009.00211-.00125.0003-.00017.00056-.00033.0008-.00047.00011-.00007.00022-.00013.00032-.00019l.00015-.00009c.00002-.00001.00005-.00003.00007-.00004.00001-.00001.00002-.00001.00003-.00002.00001 0 .00002-.00001.00002-.00001.00001 0 .00002-.00001-.25601-.42948zm.5.02356v-.02356h-1v.02356zm-.74154.43779c.05674.0313.16014.08576.27742.13371.10135.04144.278.10605.46034.10605v-1c.02093 0 .02303.00325-.00043-.00307-.0204-.00549-.048-.01492-.08145-.0286-.06737-.02755-.13329-.06187-.17281-.08367zm.73776.23976c.23394 0 .44706-.10555.549-.16059.06237-.03368.11535-.06677.15277-.09139.01895-.01246.03451-.02315.04598-.03119.00574-.00404.0105-.00743.01417-.01008.00184-.00133.00342-.00247.00472-.00342.00064-.00047.00122-.0009.00173-.00127.00026-.00019.0005-.00036.00071-.00052.00011-.00008.00022-.00016.00032-.00024.00005-.00003.00012-.00009.00015-.00011.00007-.00005.00014-.0001-.2969-.4023-.29704-.40221-.29697-.40226-.2969-.40231.00002-.00001.00009-.00006.00013-.00009.00008-.00007.00016-.00013.00024-.00018.00015-.00012.00029-.00022.00042-.00031.00024-.00018.00043-.00031.00056-.00041.00025-.00018.00027-.0002.00007-.00005-.00041.0003-.0017.00122-.00379.00269-.00422.00296-.01149.00797-.0212.01436-.0199.0131-.04753.03028-.07827.04688-.03174.01714-.05976.02982-.08117.03733-.02502.00879-.02025.0032.00726.0032zm.06462-.41214.45564.64337.81607-.57795-.45564-.64337zm.86368.35439c-.45127-.21531-.45135-.21513-.45144-.21496-.00002.00006-.00011.00024-.00017.00037-.00012.00024-.00024.0005-.00037.00077-.00025.00054-.00052.00112-.00081.00173-.00058.00124-.00124.00265-.00196.00421-.00145.00314-.00318.00692-.00515.01135-.00396.00885-.00892.02026-.01467.03412-.01148.02768-.02617.06528-.04225.11176-.03206.0927-.07019.22236-.09911.38053-.05764.31525-.08069.75537.06479 1.24231l.95815-.28626c-.08932-.29898-.07633-.57338-.03925-.77618.01845-.10086.04236-.1811.0605-.23355.00902-.02609.01647-.04488.02085-.05544.00218-.00526.00358-.00843.00401-.00939.00022-.00048.00018-.0004-.00012.00025-.00015.00033-.00037.0008-.00065.00141-.00015.00031-.00031.00065-.00049.00103-.00009.00019-.00019.00039-.00028.0006-.00005.0001-.00013.00027-.00016.00032-.00008.00017-.00016.00033-.45142-.21498zm-.55114 1.57219c.09877.3306.05935.50705.0076.58901-.04315.06835-.17777.19975-.61726.22807l.06431.99793c.60466-.03896 1.11573-.24421 1.39853-.69215.27423-.43433.24103-.95382.10497-1.40912zm-.57751 1.31605c-.09334-.49121-.09339-.4912-.09344-.49119-.00002 0-.00007.00001-.00011.00002-.00007.00001-.00015.00003-.00023.00004-.00016.00003-.00034.00007-.00053.0001-.00037.00007-.0008.00016-.00128.00025-.00096.00019-.00213.00041-.00349.00068-.00272.00054-.00623.00124-.01045.00211-.00842.00172-.01977.00412-.03337.00717-.02685.00602-.06421.01495-.10608.02668-.06271.01756-.21038.06072-.33118.14422l.56858.82263c-.02381.01645-.03518.01892-.01887.01258.01193-.00464.02952-.01042.05116-.01649.02084-.00583.04054-.01057.05509-.01383.00709-.00158.01252-.00273.0157-.00338.00159-.00032.00258-.00052.00292-.00059.00017-.00003.00017-.00003-.00001 0-.00008.00002-.00022.00004-.00039.00008-.00009.00002-.00019.00004-.00031.00006-.00005.00001-.00011.00002-.00017.00003-.00003.00001-.00008.00002-.0001.00002-.00005.00001-.0001.00002-.09344-.49119zm.20413.15895v-.05756h-1v.05756zm-.87085.31623c-.03499-.03432-.12915-.14149-.12915-.31623h1c0-.20337-.10954-.33778-.17063-.3977zm0-.71393c-.06109.05992-.17063.19433-.17063.3977h1c0 .17474-.09416.28191-.12915.31623zm.82937.3977v-.05756h-1v.05756zm-.79587-.15895c-.09334.49121-.09339.4912-.09344.49119-.00002 0-.00007-.00001-.0001-.00002-.00006-.00001-.00012-.00002-.00017-.00003-.00012-.00002-.00022-.00004-.00031-.00006-.00017-.00004-.00031-.00006-.00039-.00008-.00018-.00003-.00018-.00003-.00001 0 .00033.00007.00133.00027.00292.00059.00318.00065.00861.0018.0157.00338.01454.00326.03425.008.05509.01383.02164.00607.03923.01185.05115.01649.01632.00634.00495.00387-.01886-.01258l.56858-.82263c-.1208-.0835-.26847-.12666-.33118-.14422-.04187-.01173-.07923-.02066-.10608-.02668-.0136-.00305-.02495-.00545-.03337-.00717-.00422-.00087-.00773-.00157-.01045-.00211-.00136-.00027-.00253-.00049-.00349-.00068-.00048-.00009-.00091-.00018-.00128-.00025-.00019-.00003-.00037-.00007-.00053-.0001-.00008-.00001-.00016-.00003-.00023-.00004-.00004-.00001-.00009-.00002-.00011-.00002-.00005-.00001-.00011-.00002-.09344.49119zm-1.53566-1.60231c-.13603.4553-.16924.97479.10496 1.40912.28281.44794.79388.65319 1.39854.69215l.06431-.99793c-.43949-.02832-.57411-.15972-.61726-.22807-.05175-.08196-.09117-.25841.0076-.58901zm.40701-1.28593c-.45126.21531-.45134.21515-.45142.21498-.00003-.00005-.00011-.00022-.00016-.00032-.00009-.00021-.00019-.00041-.00028-.0006-.00018-.00038-.00034-.00072-.00049-.00103-.00028-.00061-.0005-.00108-.00065-.00141-.0003-.00065-.00034-.00073-.00012-.00025.00043.00096.00183.00413.00401.00939.00438.01056.01183.02935.02085.05544.01814.05245.04205.13269.0605.23355.03708.2028.05007.4772-.03925.77618l.95815.28626c.14548-.48694.12243-.92706.06479-1.24231-.02893-.15817-.06705-.28783-.09911-.38053-.01608-.04648-.03077-.08408-.04225-.11176-.00575-.01386-.01071-.02527-.01467-.03412-.00197-.00443-.0037-.00821-.00515-.01135-.00072-.00156-.00138-.00297-.00196-.00421-.00029-.00061-.00056-.00119-.00081-.00173-.00013-.00027-.00025-.00053-.00037-.00077-.00006-.00013-.00015-.00031-.00018-.00037-.00008-.00017-.00016-.00035-.45143.21496zm.04761-.93234-.45564.64337.81607.57795.45564-.64337zm.88069-.00991c.0275 0 .03228.00559.00726-.0032-.02141-.00751-.04943-.02019-.08117-.03733-.03074-.0166-.05837-.03378-.07827-.04688-.00971-.00639-.01698-.0114-.0212-.01436-.00209-.00147-.00338-.00239-.00379-.00269-.0002-.00015-.00018-.00013.00007.00005.00013.0001.00032.00023.00056.00041.00013.00009.00027.0002.00042.00031.00008.00005.00016.00011.00024.00018.00004.00003.00011.00008.00013.00009.00007.00005.00014.0001-.2969.40231-.29704.4022-.29697.40225-.2969.4023.00003.00002.0001.00008.00015.00011.0001.00008.00021.00016.00031.00024.00022.00016.00046.00033.00072.00052.00051.00037.00109.0008.00173.00127.0013.00095.00288.00209.00472.00342.00367.00265.00843.00604.01417.01008.01147.00804.02703.01873.04598.03119.03742.02462.0904.05771.15277.09139.10194.05504.31506.16059.549.16059zm.25469-.11534c-.03952.0218-.10544.05612-.17281.08367-.03345.01368-.06105.02311-.08145.0286-.02346.00632-.02136.00307-.00043.00307v1c.18234 0 .35899-.06461.46034-.10605.11728-.04795.22068-.10241.27742-.13371zm.74153.43779v-.02356h-1v.02356zm-.5-.02356c-.25603.42947-.25602.42948-.25601.42948 0 0 .00001.00001.00002.00001.00001.00001.00002.00001.00003.00002.00002.00001.00005.00003.00007.00004.00005.00003.0001.00006.00015.00009.0001.00006.00021.00012.00032.00019.00024.00014.0005.0003.0008.00047.00058.00035.00129.00077.00211.00125.00164.00097.00375.00221.00629.00369.00509.00296.01196.00692.0204.01171l.49312-.86996c-.00487-.00276-.00837-.00478-.01032-.00592-.00097-.00057-.00156-.00091-.00172-.00101-.00009-.00005-.00007-.00004.00006.00004.00007.00004.00016.00009.00028.00016.00006.00004.00012.00008.00019.00012.00004.00002.00008.00004.00012.00007l.00006.00003c.00001.00001.00002.00002.00003.00002s.00001.00001.00002.00001c.00001.00001.00001.00001-.25602.42949z" fill="#e8aa00" mask="url(#b)"/><g mask="url(#c)"><path d="m6.65216 4.36365h1.3913v1.90909h-1.3913z" fill="#67baff"/><path d="m8.04346 4.36365h1.3913v1.90909h-1.3913z" fill="#fff"/><path d="m6.47824 6.45459h3.47826v2.18182h-3.47826z" fill="#c51918"/><g fill="#c9a951"><path d="m8.71737 6.13755h-.17391v-1.30735h.17391z"/><path d="m8.6469 5.54286-.08478.15184-.30019-.16761.08479-.15185z"/><path d="m8.6469 5.17921-.08478.15184-.30019-.16761.08479-.15184z"/><path d="m8.60975 5.54286.08478.15184.30019-.16761-.08478-.15185z"/><path d="m8.60975 5.17921.08478.15184.30019-.16761-.08478-.15184z"/></g><path clip-rule="evenodd" d="m7.68805 4.78503c-.10483.0917-.0372.42678-.20898.42678-.17177 0-.41351-.25091-.47438-.08535-.06087.16557 0 .10994 0 .25096s-.1458.53287-.0729.59911.1476.24079.13466.15908c-.01295-.08171-.06806-.2017-.0451-.33204-.0222-.13467.12286-.26419.12286-.26419s-.01574.13981-.02716.19193c0 0-.04783.10522-.02841.1751 0 0 .04911.19695.06936.21056 0 0 .01315-.46635.02811-.5432.01495-.07686.12156.08669.15703.06816 0 0 .01217.31888-.00627.35688 0 0-.03739.07543-.02348.09952 0 0 .03468.08731.06427.06188 0 0 .00104-.00182.01604-.08679 0 0-.01743-.05131.00985-.16815 0 0 .02872-.25726.04061-.20144 0 0-.00534.12146.00836.18407 0 0 .02188.15542.02627.17249 0 0 .10495.14949.10774.08635 0 0-.1006-.11996-.07905-.21125 0 0-.0576-.25862.0228-.31628 0 0 .21331-.09867.22614-.26756 0 0 .0309-.19247.03645-.28071 0 0-.04679-.02594.04993-.0715 0 0 .1557-.05976.05868-.14286" fill="#d18219" fill-rule="evenodd"/></g><path d="m6.10001 3.84326.38666.30984c-.50365.82876-.38666 1.60857-.38666 2.11002 0 .92469.69484 1.99191 1.90529 1.99191.89967 0 1.87753-.70035 2.1083-1.55607.1818-.67379-.23523-2.25708-.54989-2.67031l.37217-.18539c.48832.64135 1.41442 2.11098 1.14322 3.11612-.3521 1.30538-1.73471 2.29565-3.0738 2.29565-1.87522 0-2.90529-1.58209-2.90529-2.99191 0-.71598.40977-1.44864 1-2.41986z" fill="#00a854"/><path clip-rule="evenodd" d="m8 7.59998c.55228 0 1-.22386 1-.5 0-.27615-.44772-.5-1-.5s-1 .22385-1 .5c0 .27614.44772.5 1 .5z" fill="#fdd200" fill-rule="evenodd"/><path d="m6.5 8h3v1h-3z" fill="#ca0000"/></g></svg>