<svg fill="none" height="12" viewBox="0 0 16 12" width="16" xmlns="http://www.w3.org/2000/svg" xmlns:xlink="http://www.w3.org/1999/xlink"><mask id="a" height="12" maskUnits="userSpaceOnUse" width="16" x="0" y="0"><path d="m0 0h16v12h-16z" fill="#fff"/></mask><g mask="url(#a)"><g clip-rule="evenodd" fill-rule="evenodd"><path d="m0 0h16v12h-16z" fill="#f7fcff"/><path d="m0 0v4h16v-4z" fill="#c51918"/><path d="m0 8v4h16v-4z" fill="#409100"/><g fill="#fb0"><path d="m7.97263 7.78855c-.20632.00591-.34375-.21204-.34375-.21204l.21153-.0545c.01316-.13949.10882-.21366.10882-.21366.06325.04064.13161.22379.13161.22379l.18123.02547s-.08312.22503-.28944.23094zm-1.0074.06232c-.20348.03457-.36991-.16213-.36991-.16213l.20189-.08341c-.00639-.13996.07802-.22673.07802-.22673.06829.03145.16148.2033.16148.2033h.18301s-.051.23441-.25449.26897zm-.72377.1981.09216.32818c.47806-.12935 1.03295-.19439 1.66456-.19439.6316 0 1.18649.06504 1.66455.19439l.09216-.32818c-.51002-.138-1.09555-.20664-1.75671-.20664-.66117 0-1.2467.06864-1.75672.20664zm3.12855-.32619s-.16643.1967-.36992.16214c-.20348-.03457-.25448-.26897-.25448-.26897h.18301s.09319-.17186.16147-.2033c0 0 .08442.08676.07803.22672z"/><path d="m7.97927 6.84913s-.2345.53664-.60382.57815c-.36933.04151-.55691-.30521-.55691-.30521s-.02419.36055-.46281.49953c-.43861.13899-.66957-.4163-.66957-.4163s.22835.20426.58252.11525c.35416-.08901.49396-.41771.49396-.41771s.26211.34269.61281.17134c.35069-.17134.54471-.38075.54471-.58169v-.60091s-.09048-.15583-.24743-.15583c-.15696 0-.20076.11047-.20076.11047s-.06127-.62516.50323-.6638l-.00003-.00151.01561.0006.01561-.0006-.00002.00151c.56449.03864.50323.6638.50323.6638s-.0438-.11047-.20076-.11047c-.15695 0-.24743.15583-.24743.15583v.60091c0 .20094.19402.41035.54471.58169.3507.17135.6128-.17134.6128-.17134s.1398.3287.49397.41771c.35421.08901.58251-.11525.58251-.11525s-.231.55529-.66957.4163c-.43861-.13898-.4628-.49953-.4628-.49953s-.18758.34672-.55691.30521c-.36932-.04151-.60382-.57815-.60382-.57815l-.01152-.7083zm-.0052-1.49838c-.26041 0-.31316.22046-.31316.22046.2293 0 .31316.09994.31316.09994s.16977-.09994.3407-.09994c0 0-.08028-.22046-.3407-.22046z"/></g></g><path d="m5.95025 6.49916-.99635.0853c-.07292-.85174.27764-1.65752 1.01439-2.39587 1.08378-1.08615 3.27846-.98035 4.21261.01009.5338.56587.8072 1.34998.8335 2.32971l-.9997.02683c-.02013-.75049-.21163-1.29975-.56122-1.67039-.55729-.59085-2.10332-.66538-2.77732.01009-.54204.54323-.77157 1.07082-.72591 1.60424z" fill="#fb0"/></g></svg>