<svg fill="none" height="15" viewBox="0 0 20 15" width="20" xmlns="http://www.w3.org/2000/svg" xmlns:xlink="http://www.w3.org/1999/xlink"><mask id="a" height="15" maskUnits="userSpaceOnUse" width="20" x="0" y="0"><path d="m0 0h20v15h-20z" fill="#fff"/></mask><g clip-rule="evenodd" fill-rule="evenodd" mask="url(#a)"><path d="m0 0h20v15h-20z" fill="#f7fcff"/><path d="m5.62612 8.66917-1.16917.70583.26668-1.37735-.97363-1.03081 1.31835-.05574.55777-1.2861.55777 1.2861h1.31611l-.97139 1.08655.29245 1.37735z" fill="#409100"/><path d="m14.3761 8.66917-1.1691.70583.2666-1.37735-.9736-1.03081 1.3184-.05574.5577-1.2861.5578 1.2861h1.3161l-.9714 1.08655.2925 1.37735z" fill="#409100"/><path d="m0 0v5h20v-5z" fill="#e31d1c"/><path d="m0 10v5h20v-5z" fill="#272727"/></g></svg>