<svg fill="none" height="15" viewBox="0 0 20 15" width="20" xmlns="http://www.w3.org/2000/svg" xmlns:xlink="http://www.w3.org/1999/xlink"><mask id="a" height="15" maskUnits="userSpaceOnUse" width="20" x="0" y="0"><path d="m0 0h20v15h-20z" fill="#fff"/></mask><mask id="b" height="15" maskUnits="userSpaceOnUse" width="20" x="0" y="0"><path clip-rule="evenodd" d="m0 0v15h20v-15z" fill="#fff" fill-rule="evenodd"/></mask><g mask="url(#a)"><path clip-rule="evenodd" d="m0 0v15h20v-15z" fill="#f7fcff" fill-rule="evenodd"/><g mask="url(#b)"><path clip-rule="evenodd" d="m0 0v5h20v-5z" fill="#bf2714" fill-rule="evenodd"/><path clip-rule="evenodd" d="m0 10v5h20v-5z" fill="#272727" fill-rule="evenodd"/><g fill="#c09302"><path d="m7.6627 6.3877.62435.02862-.15672 3.41862-.62435-.02862z"/><path d="m8.31505 6.59985.624.03528-.15672 2.77208-.624-.03528z"/><path d="m8.96776 6.8075.6229.05111-.15672 1.91-.6229-.05111z"/><path d="m12.3373 6.3877-.6243.02862.1567 3.41862.6243-.02862z"/><path d="m11.685 6.59985-.624.03528.1567 2.77208.624-.03528z"/><path d="m11.0322 6.8075-.6229.05111.1568 1.91.6229-.05111z"/><path d="m9.98336 9.57923-.60921-.13958.25785-1.12544.6092.13958z"/><path d="m10.4497 9.57923.6092-.13958-.2579-1.12544-.6092.13958z"/><path d="m10.2951 9.56894h-.625v-1.10495h.625z"/><path d="m9.14673 6.8208.62482.01533-.03651 1.48806-.62481-.01533z"/><path d="m10.2337 6.8208.6248.01533-.0365 1.48806-.6248-.01533z"/><path d="m8.33624 9.95182.16232-.60355c.66315.17834 1.17235.26654 1.51954.26654.3472 0 .8564-.0882 1.5196-.26654l.1623.60355c-.7115.19138-1.2694.28798-1.6819.28798-.41241 0-.97037-.0966-1.68186-.28798z"/><path d="m7.67646 6.38922c-.04167-.41288.19998-.69236.60952-.65672.13466.01172.28591.05156.48735.11991.05886.02019.05886.02019.11606.04044.27693.0985.35213.12381.36774.12715-.06136-.0139.11937-.34063.16082-.3957.00491.03497-.0159.02999-.06586.02l-.56377-.11284.40132-.41172c.14028-.14391.32709-.21527.54027-.21527.0221 0 .04272-.00103.11044-.0052.05009-.00304.05009-.00304.1064-.00537.38995-.01264.66965.09764.66965.49867 0 .14347.0181.37419.048.54922.0101.05888.0295.11399-.0278.1382.0024-.02089.139-.07479.3514-.16362l.0255-.01066c.6171-.25758.6892-.28148.8881-.16058.1326.08057.2588.22549.4003.44156l-.5229.34231c-.0913-.13937-.1639-.22393-.1985-.24755.0786.05463-.1862.14256-.3263.20104l-.0251.01049c-.4805.20095-.5438.22492-.6812.22492-.3739 0-.5081-.38298-.5449-.93145-.11534.37974-.45951.85895-.74312.85895-.12415 0-.06446.01965-.57993-.16369-.05401-.01912-.05401-.01912-.10742-.03744-.15616-.05298-.26882-.0827-.33989-.08905.00293-.00335.0134-.0146.02514-.02466z"/></g></g></g></svg>