<svg fill="none" height="15" viewBox="0 0 20 15" width="20" xmlns="http://www.w3.org/2000/svg" xmlns:xlink="http://www.w3.org/1999/xlink"><mask id="a" height="15" maskUnits="userSpaceOnUse" width="20" x="0" y="0"><path d="m0 0h20v15h-20z" fill="#fff"/></mask><mask id="b" height="15" maskUnits="userSpaceOnUse" width="20" x="0" y="0"><path clip-rule="evenodd" d="m0 0v15h20v-15z" fill="#fff" fill-rule="evenodd"/></mask><g clip-rule="evenodd" fill-rule="evenodd" mask="url(#a)"><path d="m0 0v15h20v-15z" fill="#ef0000"/><g mask="url(#b)"><path d="m0 0v8.75h11.25v-8.75z" fill="#2e42a5"/><path d="m5.45602 6.75672-.92604 1.15532-.22431-1.46356-1.37963.53752.53751-1.37963-1.46355-.22431 1.15532-.92604-1.15532-.92604 1.46355-.22431-.53751-1.37963 1.37963.53751.22431-1.46355.92604 1.15532.92604-1.15532.22431 1.46355 1.37963-.53751-.53752 1.37963 1.46356.22431-1.15532.92604 1.15532.92604-1.46356.22431.53752 1.37963-1.37963-.53752-.22431 1.46356zm0-.51174c.98802 0 1.78896-.80094 1.78896-1.78896s-.80094-1.78897-1.78896-1.78897-1.78897.80095-1.78897 1.78897.80095 1.78896 1.78897 1.78896zm1.43117-1.78896c0 .79041-.64076 1.43117-1.43117 1.43117-.79042 0-1.43118-.64076-1.43118-1.43117 0-.79042.64076-1.43118 1.43118-1.43118.79041 0 1.43117.64076 1.43117 1.43118z" fill="#feffff"/></g></g></svg>