<svg fill="none" height="24" viewBox="0 0 32 24" width="32" xmlns="http://www.w3.org/2000/svg" xmlns:xlink="http://www.w3.org/1999/xlink"><mask id="a" height="24" maskUnits="userSpaceOnUse" width="32" x="0" y="0"><path d="m0 0h32v24h-32z" fill="#fff"/></mask><mask id="b" height="24" maskUnits="userSpaceOnUse" width="32" x="0" y="0"><path clip-rule="evenodd" d="m0 0v24h32v-24z" fill="#fff" fill-rule="evenodd"/></mask><mask id="c" height="8" maskUnits="userSpaceOnUse" width="12" x="10" y="8"><path d="m10 8h12v8h-12z" fill="#fff"/></mask><g mask="url(#a)"><path clip-rule="evenodd" d="m0 0v24h32v-24z" fill="#2e42a5" fill-rule="evenodd"/><g mask="url(#b)"><path clip-rule="evenodd" d="m0 12v12h32v-12z" fill="#e31d1c" fill-rule="evenodd"/><path d="m10 8h12v8h-12z" fill="#fff"/><g mask="url(#c)"><path clip-rule="evenodd" d="m10 14.5778s2.8803-.7573 6-.7111 6 .8889 6 .8889v1.2444h-12z" fill="#279e19" fill-rule="evenodd"/><g stroke="#026a16" stroke-width=".5"><path d="m16.0736 8.90119s-.9311-.41938-1.581-.41938c-.65 0-1.011.64011-1.011.64011"/><path d="m16.2805 9.32156s-.8568-.30642-1.4548-.30642c-.5981 0-.9303.46769-.9303.46769"/><path d="m16.2804 9.67715s-.6338-.30642-1.0762-.30642-.6882.4677-.6882.4677"/><path d="m16.0199 10.0326s-.3916-.3064-.6649-.3064-.4252.4677-.4252.4677"/><path d="m15.9864 10.2752s-.1566-.1934-.2659-.1934c-.1092 0-.17.2953-.17.2953"/><path d="m15.9263 8.90119s.9311-.41938 1.581-.41938c.65 0 1.011.64011 1.011.64011"/><path d="m15.7194 9.32156s.8567-.30642 1.4548-.30642.9303.46769.9303.46769"/><path d="m15.7195 9.67715s.6338-.30642 1.0762-.30642.6882.4677.6882.4677"/><path d="m15.98 10.0326s.3916-.3064.6649-.3064.4252.4677.4252.4677"/><path d="m16.0135 10.2752s.1565-.1934.2658-.1934.17.2953.17.2953"/></g><g clip-rule="evenodd" fill-rule="evenodd"><path d="m15.8876 10.3982s-.1143 1.3374-.1143 1.8817.1143 1.7187.1143 1.7187h.2938s0-1.2643 0-1.7187-.1724-1.8817-.1724-1.8817z" fill="#feca00"/><path d="m14.7321 11.9185s-.7242.3876-.7242 1.5351l.7242 1.3855h1.3069v-2.2817z" fill="#c51918"/><path d="m13.659 10.8259s-1.6909.5009-1.6909 2.3487l2.1907.1869s-.1197-1.0735.5544-1.5701z" fill="#0a328c"/></g><path d="m12.9609 10.1208 2.9005 2.6581" stroke="#ffd018" stroke-width=".5"/><path d="m11.9536 10.7227 4.0455 2.6269" stroke="#ffd018" stroke-width=".5"/><path d="m11.2572 11.7395 4.5596 2.0853" stroke="#ffd018" stroke-width=".5"/><path clip-rule="evenodd" d="m11.9799 13.1602 3.0256.3382-.1703.4223h-.4797l.3267.2386.7367.1724v-.411h.6452v.8732h-1.3819l-.53-.6346s-.4452.4388-.8796.4388c-.4345 0-.8628-.1425-.8628-.6211s0-.3329 0-.3329l-.4299-.1457z" fill="#feca00" fill-rule="evenodd"/><path clip-rule="evenodd" d="m16.8542 11.9185s.7242.3876.7242 1.5351l-.7242 1.3855h-1.3069v-2.2817z" fill="#c51918" fill-rule="evenodd"/><path clip-rule="evenodd" d="m17.9274 10.8259s1.6908.5009 1.6908 2.3487l-2.1906.1869s.1196-1.0735-.5545-1.5701z" fill="#0a328c" fill-rule="evenodd"/><path d="m18.6254 10.1208-2.9005 2.6581" stroke="#ffd018" stroke-width=".5"/><path d="m19.6327 10.7227-4.0455 2.6269" stroke="#ffd018" stroke-width=".5"/><path d="m20.3291 11.7395-4.5596 2.0853" stroke="#ffd018" stroke-width=".5"/><path clip-rule="evenodd" d="m19.6064 13.1602-3.0256.3382.1703.4223h.4797l-.3267.2386-.7367.1724v-.411h-.6452v.8732h1.3819l.53-.6346s.4452.4388.8796.4388c.4345 0 .8628-.1425.8628-.6211s0-.3329 0-.3329l.4299-.1457z" fill="#feca00" fill-rule="evenodd"/></g></g></g></svg>