<svg fill="none" height="24" viewBox="0 0 32 24" width="32" xmlns="http://www.w3.org/2000/svg" xmlns:xlink="http://www.w3.org/1999/xlink"><mask id="a" height="24" maskUnits="userSpaceOnUse" width="32" x="0" y="0"><path d="m0 0h32v24h-32z" fill="#fff"/></mask><mask id="b" height="24" maskUnits="userSpaceOnUse" width="32" x="0" y="0"><path clip-rule="evenodd" d="m0 0v24h32v-24z" fill="#fff" fill-rule="evenodd"/></mask><g clip-rule="evenodd" fill-rule="evenodd" mask="url(#a)"><path d="m0 0v24h32v-24z" fill="#f7fcff"/><g mask="url(#b)"><path d="m0 0v8h32v-8z" fill="#5eaa22"/><path d="m0 16v8h32v-8z" fill="#e31d1c"/><path d="m4.60068 16.392v.6338h-2.33077v-.6338zm-4.034978 1.5922h-.206974v-.2532h.454694v.8871h.579498v.0068h.56144v-1.8416h-.35873v1.2077h-.05539v-1.3037h-.35873v1.2969h-.00936v-.2532-1.0437h-.358728v.4098h-.813422v1.521h.179364.386338zm1.500828.3553h.35872v-.6284h.4v.9136h1.12542v-1.5465h-.57713v.6339h.2184v.2787h-.40796v-.9136h-1.11745zm2.29196-.3553h.20697v.6339h-.38634-.17936v-1.521h.81342v-.4098h.35873v1.0437.2532h.00936v-1.2969h.35873v1.3037h.05539v-1.2077h.35873v1.8416h-.56144v-.0068h-.5795v-.8871h-.45469zm4.24195-1.5922v.6338h-2.33077v-.6338zm-2.53415 1.9475h.35873v-.6284h.39999v.9136h1.12542v-1.5465h-.57713v.6339h.2184v.2787h-.40796v-.9136h-1.11745zm2.36338-.3553h.20698v.6339h-.38634-.17937v-1.521h.81343v-.4098h.35873v1.0437.2532h.00936v-1.2969h.35873v1.3037h.05539v-1.2077h.35872v1.8416h-.56144v-.0068h-.57949v-.8871h-.4547zm4.24193-1.5922v.6338h-2.3307v-.6338zm-2.5341 1.9475h.3587v-.6284h.4v.9136h1.1254v-1.5465h-.5771v.6339h.2184v.2787h-.408v-.9136h-1.1174zm2.2919-.3553h.207v.6339h-.3863-.1794v-1.521h.8134v-.4098h.3588v1.0437.2532h.0093v-1.2969h.3587v1.3037h.0554v-1.2077h.3588v1.8416h-.5615v-.0068h-.5795v-.8871h-.4547zm4.242-1.5922v.6338h-2.3308v-.6338zm-2.5342 1.9475h.3588v-.6284h.4v.9136h1.1254v-1.5465h-.5772v.6339h.2184v.2787h-.4079v-.9136h-1.1175zm2.292-.3553h.207v.6339h-.3864-.1793v-1.521h.8134v-.4098h.3587v1.0437.2532h.0094v-1.2969h.3587v1.3037h.0554v-1.2077h.3587v1.8416h-.5614v-.0068h-.5795v-.8871h-.4547zm4.2419-1.5922v.6338h-2.3307v-.6338zm-2.5341 1.9475h.3587v-.6284h.4v.9136h1.1254v-1.5465h-.5771v.6339h.2184v.2787h-.408v-.9136h-1.1174zm2.3634-.3553h.207v.6339h-.3864-.1793v-1.521h.8134v-.4098h.3587v1.0437.2532h.0094v-1.2969h.3587v1.3037h.0554v-1.2077h.3587v1.8416h-.5614v-.0068h-.5795v-.8871h-.4547zm4.2419-1.5922v.6338h-2.3307v-.6338zm-2.5341 1.9475h.3587v-.6284h.4v.9136h1.1254v-1.5465h-.5771v.6339h.2184v.2787h-.408v-.9136h-1.1174zm2.3634-.3553h.2069v.6339h-.3863-.1794v-1.521h.8135v-.4098h.3587v1.0437.2532h.0094v-1.2969h.3587v1.3037h.0554v-1.2077h.3587v1.8416h-.5614v-.0068h-.5795v-.8871h-.4547zm4.2419-1.5922v.6338h-2.3308v-.6338zm-2.5341 1.9475h.3587v-.6284h.4v.9136h1.1254v-1.5465h-.5771v.6339h.2184v.2787h-.408v-.9136h-1.1174zm2.3633-.3553h.207v.6339h-.3863-.1794v-1.521h.8134v-.4098h.3588v1.0437.2532h.0093v-1.2969h.3588v1.3037h.0554v-1.2077h.3587v1.8416h-.5615v-.0068h-.5795v-.8871h-.4547zm4.242-1.5922v.6338h-2.3308v-.6338zm-2.5342 1.9475h.3588v-.6284h.4v.9136h1.1254v-1.5465h-.5771v.6339h.2184v.2787h-.408v-.9136h-1.1175zm2.292-.3553h.207v.6339h-.3864-.1793v-1.521h.8134v-.4098h.3587v1.0437.2532h.0094v-1.2969h.3587v1.3037h.0554v-1.2077h.3587v1.8416h-.5614v-.0068h-.5795v-.8871h-.4547zm4.242-1.5922v.6338h-2.3308v-.6338zm-2.5342 1.9475h.3587v-.6284h.4v.9136h1.1254v-1.5465h-.5771v.6339h.2184v.2787h-.4079v-.9136h-1.1175zm2.5062-.3553h.207v.6339h-.3863-.1794v-1.521h.8134v-.4098h.3588v1.0437.2532h.0093v-1.2969h.3588v1.3037h.0553v-1.2077h.3588v1.8416h-.5615v-.0068h-.5795v-.8871h-.4547zm4.242-1.5922v.6338h-2.3308v-.6338zm-2.5342 1.9475h.3588v-.6284h.4v.9136h1.1254v-1.5465h-.5772v.6339h.2184v.2787h-.4079v-.9136h-1.1175z" fill="#f7fcff"/><path d="m.484587 5.39197v.63388h-2.330757v-.63388zm-4.034977 1.59223h-.20697v-.25323h.45469v.88711h.5795v.0068h.56144v-1.84158h-.35873v1.2077h-.05539v-1.3037h-.35872v1.2969h-.00937v-.25323-1.04367h-.35873v.40979h-.81342v1.52099h.17937.38633zm1.50083.35532h.35873v-.62846h.4v.91366h1.125407v-1.54652h-.577131v.63388h.218402v.27876h-.407954v-.91366h-1.117454zm2.29196-.35532h.206973v.63388h-.386337-.179364v-1.52099h.813421v-.40979h.358727v1.04367.25323h.00937v-1.2969h.35872v1.3037h.05539v-1.2077h.35873v1.84158h-.56144v-.0068h-.579497v-.88711h-.454693zm4.24195-1.59223v.63388h-2.33076v-.63388zm-2.53415 1.94755h.35873v-.62846h.4v.91366h1.12541v-1.54652h-.57713v.63388h.2184v.27876h-.40796v-.91366h-1.11745zm2.36338-.35532h.20698v.63388h-.38634-.17936v-1.52099h.81342v-.40979h.35873v1.04367.25323h.00936v-1.2969h.35873v1.3037h.05539v-1.2077h.35873v1.84158h-.56145v-.0068h-.57949v-.88711h-.4547zm4.24195-1.59223v.63388h-2.33076v-.63388zm-2.53415 1.94755h.35873v-.62846h.4v.91366h1.12541v-1.54652h-.57713v.63388h.2184v.27876h-.40795v-.91366h-1.11746zm2.29196-.35532h.20698v.63388h-.38634-.17936v-1.52099h.81342v-.40979h.35873v1.04367.25323h.00936v-1.2969h.35873v1.3037h.05539v-1.2077h.35873v1.84158h-.56145v-.0068h-.57949v-.88711h-.4547zm4.24196-1.59223v.63388h-2.3308v-.63388zm-2.5342 1.94755h.3588v-.62846h.4v.91366h1.1254v-1.54652h-.5771v.63388h.2184v.27876h-.408v-.91366h-1.1175zm2.292-.35532h.207v.63388h-.3864-.1793v-1.52099h.8134v-.40979h.3587v1.04367.25323h.0094v-1.2969h.3587v1.3037h.0554v-1.2077h.3587v1.84158h-.5614v-.0068h-.5795v-.88711h-.4547zm4.242-1.59223v.63388h-2.3308v-.63388zm-2.5342 1.94755h.3587v-.62846h.4v.91366h1.1254v-1.54652h-.5771v.63388h.2184v.27876h-.4079v-.91366h-1.1175zm2.3634-.35532h.207v.63388h-.3864-.1793v-1.52099h.8134v-.40979h.3587v1.04367.25323h.0094v-1.2969h.3587v1.3037h.0554v-1.2077h.3587v1.84158h-.5614v-.0068h-.5795v-.88711h-.4547zm4.2419-1.59223v.63388h-2.3307v-.63388zm-2.5341 1.94755h.3587v-.62846h.4v.91366h1.1254v-1.54652h-.5771v.63388h.2184v.27876h-.408v-.91366h-1.1174zm2.3634-.35532h.2069v.63388h-.3863-.1794v-1.52099h.8135v-.40979h.3587v1.04367.25323h.0094v-1.2969h.3587v1.3037h.0554v-1.2077h.3587v1.84158h-.5614v-.0068h-.5795v-.88711h-.4547zm4.2419-1.59223v.63388h-2.3307v-.63388zm-2.5341 1.94755h.3587v-.62846h.4v.91366h1.1254v-1.54652h-.5771v.63388h.2184v.27876h-.408v-.91366h-1.1174zm2.3634-.35532h.2069v.63388h-.3863-.1794v-1.52099h.8135v-.40979h.3587v1.04367.25323h.0093v-1.2969h.3588v1.3037h.0554v-1.2077h.3587v1.84158h-.5615v-.0068h-.5794v-.88711h-.4547zm4.2419-1.59223v.63388h-2.3308v-.63388zm-2.5341 1.94755h.3587v-.62846h.4v.91366h1.1254v-1.54652h-.5771v.63388h.2184v.27876h-.408v-.91366h-1.1174zm2.2919-.35532h.207v.63388h-.3863-.1794v-1.52099h.8134v-.40979h.3587v1.04367.25323h.0094v-1.2969h.3587v1.3037h.0554v-1.2077h.3588v1.84158h-.5615v-.0068h-.5795v-.88711h-.4547zm4.242-1.59223v.63388h-2.3308v-.63388zm-2.5342 1.94755h.3587v-.62846h.4v.91366h1.1255v-1.54652h-.5772v.63388h.2184v.27876h-.4079v-.91366h-1.1175zm2.5063-.35532h.2069v.63388h-.3863-.1794v-1.52099h.8134v-.40979h.3588v1.04367.25323h.0093v-1.2969h.3588v1.3037h.0554v-1.2077h.3587v1.84158h-.5615v-.0068h-.5795v-.88711h-.4546zm4.2419-1.59223v.63388h-2.3308v-.63388zm-2.5342 1.94755h.3588v-.62846h.4v.91366h1.1254v-1.54652h-.5771v.63388h.2184v.27876h-.408v-.91366h-1.1175z" fill="#f7fcff"/><path d="m14.6063 8.25s.4273.225.8647.225.8775-.225.8775-.225v.3s-.4805.225-.906.225-.8362-.225-.8362-.225zm-3.1499 3.5406c0-1.778 2.442-2.9406 2.442-2.9406s-1.4114.75621-1.4114 2.8661c0 2.1099.7327 3.0236.7327 3.0236s-1.7633-1.1711-1.7633-2.9491zm8.2377-.0981c0-1.77802-2.4397-2.8425-2.4397-2.8425s1.4114.75621 1.4114 2.8661c0 2.1099-.7327 3.0236-.7327 3.0236s1.761-1.2692 1.761-3.0472zm-6.5706.4851c-.093-1.7756 1.384-3.36708 1.384-3.36708s-.5376.73133-.4271 2.83828c.0379.7235.3228 1.7998.6818 2.4344v-5.1582h1.5v5.2029c.3595-.5927.6365-1.6033.675-2.3373.1104-2.10699-.4014-2.98008-.4014-2.98008s1.477 1.59148 1.384 3.36708c-.0554 1.0575-.8691 2.1758-1.5182 2.9075.3154.0703.7381.156 1.3193.2708.0124.0643-.1171.0613-.3744.0554-.2841-.0066-.7241-.0167-1.3008.0562-.2652.2718-.4498.4329-.4498.4329s-.0292-.0394-.0742-.094c-.0451.0546-.0743.094-.0743.094s-.1846-.1611-.4497-.4329c-.5768-.0729-1.0167-.0628-1.3008-.0562-.2574.0059-.3869.0089-.3745-.0554.5812-.1148 1.0039-.2005 1.3193-.2708-.6491-.7317-1.4628-1.85-1.5182-2.9075z" fill="#e31d1c"/></g></g></svg>