<svg fill="none" height="15" viewBox="0 0 20 15" width="20" xmlns="http://www.w3.org/2000/svg" xmlns:xlink="http://www.w3.org/1999/xlink"><mask id="a" height="15" maskUnits="userSpaceOnUse" width="20" x="0" y="0"><path d="m0 0h20v15h-20z" fill="#fff"/></mask><mask id="b" height="15" maskUnits="userSpaceOnUse" width="20" x="0" y="0"><path clip-rule="evenodd" d="m0 0v15h20v-15z" fill="#fff" fill-rule="evenodd"/></mask><g mask="url(#a)"><path clip-rule="evenodd" d="m0 0v15h20v-15z" fill="#f50101" fill-rule="evenodd"/><g mask="url(#b)"><path clip-rule="evenodd" d="m0 0v5h20v-5z" fill="#f7fcff" fill-rule="evenodd"/><path clip-rule="evenodd" d="m0 10v5h20v-5z" fill="#5eaa22" fill-rule="evenodd"/><path d="m0 0h7.5v15h-7.5z" fill="#f50101"/><path clip-rule="evenodd" d="m6.73148 1.27058c.00592-.05702-.06701-.07895-.09609-.02956-.2268.38528-.79528 1.30181-1.73107 2.50036v-.57355c-.08926-.09701-.37383-.358-.37383-.358v-.5727l.5148-.46587-.70704-.52122-.74522.52122.56328.46587v.5727c0 .27463-.34149.358-.34149.358l-.06253.50518c-.87059-1.1305-1.41337-2.01196-1.64322-2.40594-.02967-.05084-.10428-.02689-.09552.03132.06938.46072.27688 1.48298.85006 2.57443h-.15373v-.02032c0-.03002-.02433-.05435-.05435-.05435h-1.31793c-.03002 0-.05435.02433-.05435.05435v.8288c0 .03002.02433.05435.05435.05435h1.31793c.03002 0 .05435-.02433.05435-.05435v-.43512h.16598c.0563.12981.18558.2213.33677.22396.10562.16295.22016.32546.34437.48594-.28572-.02826-2.17407-.18903-2.17407.49796 0 .41007.4593.62712 1.03533.73931-.58.52522-1.12745 1.01939-1.37932 1.24664-.040872.03687-.00893.10074.0445.0875.4498-.11147 1.62883-.45539 2.75123-1.22109l.03496.00004c.3161 0 .53595-.13712.68876-.32273 1.14158.93182 2.43308 1.36218 2.9937 1.51638.05817.016.08962-.05929.04006-.09369-.45536-.31607-1.48217-1.07675-2.5321-2.18163l.02755-.03225c.21421-.25279.40086-.51281.56349-.77353.06805-.03979.12224-.10033.15368-.17281h.16598v.43512c0 .03002.02433.05435.05435.05435h1.31793c.03002 0 .05435-.02433.05435-.05435v-.8288c0-.03002-.02433-.05435-.05435-.05435h-1.31793c-.01392 0-.02661.00523-.03623.01384.53895-1.09094.69718-2.1032.74261-2.54141zm-.76073 2.60224v-.02032l.00018-.00445-.01247.02477zm-2.44565.22775c0 .16702-.13687.30242-.30571.30242s-.30571-.1354-.30571-.30242.13687-.30242.30571-.30242.30571.1354.30571.30242zm1.63043 0c0 .16702.13687.30242.30571.30242s.30571-.1354.30571-.30242-.13687-.30242-.30571-.30242-.30571.1354-.30571.30242z" fill="#f7fcff" fill-rule="evenodd"/></g></g></svg>