<svg fill="none" height="24" viewBox="0 0 32 24" width="32" xmlns="http://www.w3.org/2000/svg" xmlns:xlink="http://www.w3.org/1999/xlink"><mask id="a" height="24" maskUnits="userSpaceOnUse" width="32" x="0" y="0"><path d="m0 0h32v24h-32z" fill="#fff"/></mask><g mask="url(#a)"><path clip-rule="evenodd" d="m0 0v24h32v-24z" fill="#c51918" fill-rule="evenodd"/><path clip-rule="evenodd" d="m0 0v24l32-24z" fill="#5eaa22" fill-rule="evenodd"/><path d="m.635865 27.9521.723365.807.90137-.6017 36.2609-24.20344 1.1992-.80044-.9623-1.0736-5.3208-5.93564-.7234-.80696-.9014.60165-36.26091 24.20343-1.1992.8005.96238 1.0736z" fill="#272727" stroke="#ffd018" stroke-width="2.5"/><g clip-rule="evenodd" fill="#f7fcff" fill-rule="evenodd"><path d="m12.0886 16.9183-1.0886 1.8947-.6952-2.1343-2.16213-.6873 1.80165-1.1006-.21708-2.2325 1.77816 1.3672 1.8417-1.0209-.5165 2.274 1.4777 1.7006z"/><path d="m22.0886 10.3652-1.0886 1.8947-.6952-2.1343-2.1621-.68729 1.8016-1.10064-.2171-2.23242 1.7782 1.3671 1.8417-1.0209-.5165 2.27401 1.4777 1.70064z"/></g></g></svg>