<svg fill="none" height="15" viewBox="0 0 20 15" width="20" xmlns="http://www.w3.org/2000/svg" xmlns:xlink="http://www.w3.org/1999/xlink"><mask id="a" height="15" maskUnits="userSpaceOnUse" width="20" x="0" y="0"><path d="m0 0h20v15h-20z" fill="#fff"/></mask><mask id="b" height="15" maskUnits="userSpaceOnUse" width="20" x="0" y="0"><path clip-rule="evenodd" d="m0 0v15h20v-15z" fill="#fff" fill-rule="evenodd"/></mask><mask id="c" height="9" maskUnits="userSpaceOnUse" width="11" x="0" y="0"><path d="m0 0h11v9h-11z" fill="#fff"/></mask><mask id="d" fill="#000" height="11" maskUnits="userSpaceOnUse" width="13" x="-1" y="-1"><path d="m-1-1h13v11h-13z" fill="#fff"/><path clip-rule="evenodd" d="m6 0h-1v4h-5v1h5v4h1v-4h5v-1h-5z" fill="#000" fill-rule="evenodd"/></mask><g mask="url(#a)"><path clip-rule="evenodd" d="m0 0v15h20v-15z" fill="#2e42a5" fill-rule="evenodd"/><g mask="url(#b)"><path d="m16.2189 13.4775c-.6282 0-1.0521-.1481-1.349-.3947-.2992-.2486-.5015-.6238-.6328-1.1407-.1317-.5183-.1865-1.1567-.207-1.9064-.0144-.52663-.0117-1.09736-.0089-1.7112.0009-.18094.0017-.36564.0022-.55405h4.4526c.079 1.47436.1006 2.89055-.1839 3.95265-.1487.5551-.3753.9902-.7003 1.2861-.3199.2913-.7575.4683-1.3729.4683z" fill="#fff" stroke="#e6e617" stroke-width=".5"/><g clip-rule="evenodd" fill-rule="evenodd"><path d="m14.2458 12.6962c.3735.8334 1.0271 1.25 1.9605 1.25.9272 0 1.5828-.4111 1.9668-1.2333z" fill="#82e5ff"/><g fill="#e18600"><path d="m14.6531 9.75c0 .8294.6754 1.5 1.5063 1.5s1.5062-.6706 1.5062-1.5c0-.82943-.6753-1.5-1.5062-1.5s-1.5063.67057-1.5063 1.5zm2.3875 0c0 .4832-.3945.875-.8812.875s-.8813-.3918-.8813-.875c0-.48325.3946-.875.8813-.875s.8812.39175.8812.875z"/><path d="m15.9052 8.04108s-.5482.24862-.4292.71601.2534.53399.2534.53399.1936-1.01186.9754-1.01186z"/><path d="m14.9076 10.5619s.457.3918.8303.0864c.3733-.3053.3769-.4553.3769-.4553s-.9989.2521-1.3293-.45637z"/><path d="m17.6503 10.5093s.0168-.60172-.4554-.69968c-.4723-.09797-.5911-.00633-.5911-.00633s.8246.61761.4819 1.32021z"/></g></g><path d="m0 0h11v9h-11z" fill="#2e42a5"/><g mask="url(#c)"><path d="m-1.25269 8.12488 2.4756 1.08575 10.08329-8.03017 1.3058-1.613459-2.64732-.362889-4.11271 3.460428-3.31032 2.33153z" fill="#f7fcff"/><path d="m-.913757 8.88555 1.261201.63007 11.795656-10.098567h-1.7709z" fill="#f50100"/><path d="m12.5026 8.12487-2.1971 1.3957-10.3617172-8.34013-1.3058228-1.613455 2.6473-.36289 4.11271 3.460435 3.31031 2.33152z" fill="#f7fcff"/><path d="m12.4182 8.67082-1.2612.63008-5.02275-4.32372-1.48913-.48308-6.13281-4.921582h1.770875l6.129365 4.804762 1.62809.57927z" fill="#f50100"/><path clip-rule="evenodd" d="m6 0h-1v4h-5v1h5v4h1v-4h5v-1h-5z" fill="#f50100" fill-rule="evenodd"/><path d="m5 0v-.9375h-.9375v.9375zm1 0h.9375v-.9375h-.9375zm-1 4v.9375h.9375v-.9375zm-5 0v-.9375h-.9375v.9375zm0 1h-.9375v.9375h.9375zm5 0h.9375v-.9375h-.9375zm0 4h-.9375v.9375h.9375zm1 0v.9375h.9375v-.9375zm0-4v-.9375h-.9375v.9375zm5 0v.9375h.9375v-.9375zm0-1h.9375v-.9375h-.9375zm-5 0h-.9375v.9375h.9375zm-1-3.0625h1v-1.875h-1zm.9375 3.0625v-4h-1.875v4zm-5.9375.9375h5v-1.875h-5zm.9375.0625v-1h-1.875v1zm4.0625-.9375h-5v1.875h5zm.9375 4.9375v-4h-1.875v4zm.0625-.9375h-1v1.875h1zm-.9375-3.0625v4h1.875v-4zm5.9375-.9375h-5v1.875h5zm-.9375-.0625v1h1.875v-1zm-4.0625.9375h5v-1.875h-5zm-.9375-4.9375v4h1.875v-4z" fill="#f7fcff" mask="url(#d)"/></g></g></g></svg>