<svg fill="none" height="15" viewBox="0 0 20 15" width="20" xmlns="http://www.w3.org/2000/svg" xmlns:xlink="http://www.w3.org/1999/xlink"><mask id="a" height="15" maskUnits="userSpaceOnUse" width="20" x="0" y="0"><path d="m0 0h20v15h-20z" fill="#fff"/></mask><mask id="b" fill="#000" height="8" maskUnits="userSpaceOnUse" width="6" x="7.2356" y="3.55078"><path d="m7.2356 3.55078h6v8h-6z" fill="#fff"/><path clip-rule="evenodd" d="m10.0542 5.56575c.0167-.00943.0259-.01497.0259-.01497v.02946c.1204.06638.4233.22193.6203.22193.2504 0 .5908-.25139.5908-.25139l.5696.80421s-.3836.80393-.0901 1.78632c.2935.98238-.0155 1.73986-1.3207 1.82397 0 0-.2572.04882-.3699.12672v.072c0-.0179-.0096-.0349-.0259-.0509-.0163.016-.0259.033-.0259.0509v-.072c-.11267-.0779-.36985-.12672-.36985-.12672-1.30519-.08411-1.61423-.84159-1.32073-1.82397.2935-.98239-.09007-1.78632-.09007-1.78632l.56955-.80421s.3404.25139.59082.25139c.197 0 .49995-.15555.62028-.22193v-.02946s.0093.00554.0259.01497z" fill="#000" fill-rule="evenodd"/></mask><mask id="c" height="7" maskUnits="userSpaceOnUse" width="6" x="7" y="4"><path clip-rule="evenodd" d="m10.0542 5.56575c.0167-.00943.0259-.01497.0259-.01497v.02946c.1204.06638.4233.22193.6203.22193.2504 0 .5908-.25139.5908-.25139l.5696.80421s-.3836.80393-.0901 1.78632c.2935.98238-.0155 1.73986-1.3207 1.82397 0 0-.2572.04882-.3699.12672v.072c0-.0179-.0096-.0349-.0259-.0509-.0163.016-.0259.033-.0259.0509v-.072c-.11267-.0779-.36985-.12672-.36985-.12672-1.30519-.08411-1.61423-.84159-1.32073-1.82397.2935-.98239-.09007-1.78632-.09007-1.78632l.56955-.80421s.3404.25139.59082.25139c.197 0 .49995-.15555.62028-.22193v-.02946s.0093.00554.0259.01497z" fill="#fff" fill-rule="evenodd"/><path d="m10.0801 5.55078h.625v-1.10023l-.945.56339zm-.0259.01497-.30818.54372.30818.17469.3082-.17469zm.0259.01449h-.62496v.36899l.32308.17825zm1.2111-.02946.5101-.36122-.3685-.52029-.5129.37876zm.5696.80421.5641.26914.1579-.33104-.212-.29932zm-.0901 1.78632-.5988.17891zm-1.3207 1.82397-.0402-.6237-.0385.00248-.038.00721zm-.3699.12672-.35532-.51412-.26964.18637v.32775zm-.0259.0211.4377-.44625-.4377-.42924-.43762.42924zm-.0259-.0211h.625v-.32775l-.2696-.18637zm-.36985-.12672.11668-.61401-.03794-.00721-.03854-.00248zm-1.4108-3.61029-.51005-.36122-.21198.29932.15794.33104zm.56955-.80421.3713-.50275-.51286-.37876-.36848.52029zm1.2111.02946.3019.54724.3231-.17825v-.36899zm0-.02946.32-.53684-.945-.56339v1.10023zm.0518 0c-.32-.53684-.31999-.53685-.31998-.53685 0-.00001.00001-.00001.00002-.00002.00001 0 .00003-.00001.00004-.00002.00003-.00001.00005-.00003.00008-.00004.00005-.00003.00009-.00006.00014-.00009.00009-.00005.00017-.0001.00025-.00015.00015-.00008.00026-.00015.00034-.0002.00016-.0001.00019-.00011.00008-.00005-.00021.00012-.00093.00055-.00215.00126-.00244.00142-.00682.00395-.0129.0074l.61638 1.08745c.0106-.00598.0192-.01093.0255-.01464.0032-.00185.0058-.00339.0079-.0046.001-.00061.0019-.00113.0026-.00156.0004-.00022.0007-.00042.001-.00059.0002-.00009.0003-.00017.0004-.00025.0001-.00003.0002-.00007.0002-.00011 0-.00001.0001-.00003.0001-.00005 0-.00001 0-.00001 0-.00002s.0001-.00001.0001-.00001c0-.00001 0-.00002-.3201-.53686zm.625.02946v-.02946h-1.24996v.02946zm-.92688.54724c.07093.03912.20017.10719.34678.16713.1267.0518.3475.13256.5754.13256v-1.25c.0262 0 .0288.00407-.0005-.00383-.0255-.00687-.06-.01866-.1018-.03575-.0842-.03444-.1666-.07734-.216-.10459zm.92218.29969c.2924 0 .5588-.13194.6863-.20073.0779-.0421.1442-.08346.1909-.11424.0237-.01558.0432-.02894.0575-.03899.0072-.00504.0131-.00929.0177-.0126.0023-.00166.0043-.00309.0059-.00427.0008-.00059.0015-.00112.0022-.00159.0003-.00023.0006-.00045.0009-.00065.0001-.00011.0002-.0002.0004-.0003 0-.00004.0001-.00011.0002-.00013 0-.00007.0001-.00013-.3712-.50289-.3713-.50275-.3712-.50282-.3711-.50288 0-.00002.0001-.00008.0002-.00012.0001-.00008.0002-.00015.0003-.00022.0002-.00014.0003-.00027.0005-.00038.0003-.00023.0005-.0004.0007-.00051.0003-.00024.0003-.00025.0001-.00007-.0005.00037-.0021.00153-.0048.00336-.0052.0037-.0143.00997-.0265.01796-.0248.01636-.0594.03785-.0978.0586-.0397.02141-.0747.03726-.1015.04666-.0312.01098-.0253.00399.0091.00399zm.0808-.51517.5695.80421 1.0201-.72244-.5695-.80421zm1.0796.44299c-.5641-.26914-.5642-.26892-.5643-.2687 0 .00008-.0001.0003-.0002.00045-.0002.00031-.0003.00064-.0005.00097-.0003.00067-.0006.0014-.001.00217-.0007.00155-.0015.0033-.0024.00526-.0019.00392-.004.00865-.0065.01418-.0049.01106-.0111.02533-.0183.04265-.0144.03461-.0327.0816-.0528.13971-.0401.11587-.0878.27795-.1239.47565-.0721.39407-.1009.94422.081 1.55289l1.1977-.35783c-.1117-.37371-.0955-.71672-.0491-.97021.0231-.12608.0529-.22639.0756-.29194.0113-.03262.0206-.05611.0261-.0693.0027-.00658.0045-.01055.005-.01174.0003-.0006.0002-.0005-.0002.00031-.0001.00041-.0004.001-.0008.00177-.0002.00038-.0004.00081-.0006.00128-.0001.00024-.0002.00049-.0003.00075-.0001.00013-.0002.00034-.0002.0004-.0001.00021-.0002.00042-.5643-.26872zm-.6889 1.96523c.1234.41325.0742.63382.0095.73627-.054.08544-.2222.24968-.7716.28509l.0804 1.24742c.7558-.0487 1.3946-.3053 1.7482-.8652.3427-.54291.3012-1.19227.1312-1.76141zm-.7219 1.64506c-.1167-.61401-.1168-.614-.1168-.61399s-.0001.00002-.0002.00003c0 .00002-.0001.00004-.0002.00006-.0002.00003-.0005.00008-.0007.00012-.0005.00009-.001.00019-.0016.00031-.0012.00023-.0027.00052-.0044.00085-.0034.00067-.0078.00155-.013.00263-.0105.00216-.0247.00516-.0417.00897-.0336.00753-.0803.01869-.1326.03335-.0784.02195-.26301.0759-.41402.18027l.71072 1.02832c-.0298.0205-.044.0236-.0236.0157.0149-.0058.0369-.013.064-.0206.026-.0073.0507-.0132.0688-.0173.0089-.002.0157-.0034.0197-.0042.0019-.0004.0032-.0007.0036-.0008.0002 0 .0002 0 0 0-.0001.0001-.0003.0001-.0005.0001-.0001.0001-.0002.0001-.0004.0001 0 0-.0001 0-.0002 0 0 .0001-.0001.0001-.0001.0001-.0001 0-.0001 0-.1168-.61402zm.2551.19872v-.072h-1.24996v.072zm-1.08852.3953c-.04373-.0429-.16144-.1769-.16144-.3953h1.24996c0-.25425-.1369-.42225-.2132-.49715zm0-.89245c-.07636.0749-.21328.2429-.21328.49715h1.25c0 .2184-.1177.3524-.1614.3953zm1.03672.49715v-.072h-1.25v.072zm-.99485-.19872c-.11667.61402-.11673.61402-.11679.61402-.00002 0-.00008 0-.00012-.0001-.00008 0-.00015 0-.00022 0-.00014 0-.00027 0-.00038-.0001-.00022 0-.00039 0-.0005-.0001-.00022 0-.00022 0-.00001 0 .00042.0001.00167.0004.00365.0008.00398.0008.01076.0022.01963.0042.01818.0041.04281.01.06885.0173.02706.0076.04904.0148.06395.0206.02039.0079.00619.0048-.02357-.0157l.71076-1.02832c-.151-.10437-.3356-.15832-.41402-.18027-.05233-.01466-.09903-.02582-.1326-.03335-.017-.00381-.03119-.00681-.04171-.00897-.00527-.00108-.00966-.00196-.01306-.00263-.0017-.00033-.00316-.00062-.00436-.00085-.0006-.00012-.00114-.00022-.00161-.00031-.00023-.00004-.00045-.00009-.00066-.00012-.0001-.00002-.00019-.00004-.00029-.00006-.00004-.00001-.00011-.00002-.00013-.00003-.00007-.00001-.00013-.00002-.11681.61399zm-1.91957-2.00289c-.17004.56914-.21155 1.2185.13121 1.76141.3535.5599.99234.8165 1.74817.8652l.08039-1.24742c-.54937-.03541-.71765-.19965-.77159-.28509-.06468-.10245-.11396-.32302.00951-.73627zm.50877-1.6074c-.56409.26914-.56419.26893-.56428.26872-.00004-.00006-.00013-.00027-.00019-.0004-.00013-.00026-.00025-.00051-.00036-.00075-.00022-.00047-.00043-.0009-.00061-.00128-.00036-.00077-.00063-.00136-.00082-.00177-.00037-.00081-.00041-.00091-.00015-.00031.00054.00119.00229.00516.00502.01174.00547.01319.01478.03668.02606.0693.02268.06555.05257.16586.07562.29194.04636.25349.06259.5965-.04906.97021l1.19769.35783c.18184-.60867.15304-1.15882.08098-1.55289-.03615-.1977-.08381-.35978-.12388-.47565-.0201-.05811-.03846-.1051-.05282-.13971-.00718-.01732-.01338-.03159-.01832-.04265-.00248-.00553-.00463-.01026-.00644-.01418-.00091-.00196-.00173-.00371-.00245-.00526-.00037-.00077-.00071-.0015-.00103-.00217-.00015-.00033-.00031-.00066-.00046-.00097-.00007-.00015-.00017-.00037-.00021-.00045-.00011-.00022-.00021-.00044-.56429.2687zm.05951-1.16543-.56956.80421 1.02009.72244.56956-.80421zm1.10086-.01239c.03438 0 .04036.00699.00908-.00399-.02676-.0094-.06179-.02525-.10146-.04666-.03844-.02075-.07296-.04224-.09784-.0586-.01214-.00799-.02123-.01426-.0265-.01796-.00261-.00183-.00423-.00299-.00474-.00336-.00025-.00018-.00023-.00017.00009.00007.00016.00011.00039.00028.0007.00051.00015.00011.00033.00024.00052.00038.00009.00007.0002.00014.0003.00022.00005.00004.00014.0001.00016.00012.00009.00006.00017.00013-.37113.50288-.37129.50276-.37121.50282-.37112.50289.00004.00002.00013.00009.00019.00013.00012.0001.00026.00019.00039.0003.00028.0002.00057.00042.00089.00065.00064.00047.00137.001.00218.00159.00162.00118.00358.00261.00588.00427.0046.00331.01055.00756.01773.0126.01433.01005.03378.02341.05747.03899.04677.03078.11299.07214.19096.11424.12743.06879.39383.20073.68625.20073zm.31836-.14417c-.0494.02725-.1318.07015-.216.10459-.04183.01709-.07632.02888-.10182.03575-.02933.0079-.02671.00383-.00054.00383v1.25c.22793 0 .44873-.08076.57543-.13256.14655-.05994.27585-.12801.34675-.16713zm.92692.54724v-.02946h-1.25v.02946zm-.625-.02946c-.32004.53684-.32003.53685-.32002.53686 0 0 .00001 0 .00002.00001s.00003.00001.00004.00002c.00003.00002.00006.00004.00009.00005.00006.00004.00012.00008.00018.00011.00013.00008.00027.00016.00041.00025.0003.00017.00063.00037.00099.00059.00074.00043.00162.00095.00264.00156.00206.00121.00469.00275.00787.0046.00636.00371.01495.00866.0255.01464l.61638-1.08745c-.0061-.00345-.0104-.00598-.0129-.0074-.0012-.00071-.0019-.00114-.0021-.00126-.0001-.00006-.0001-.00005 0 .00005.0001.00005.0002.00012.0004.0002.0001.00005.0001.0001.0002.00015.0001.00003.0001.00006.0002.00009 0 .00001 0 .00003.0001.00004v.00002.00002s0 .00001-.32.53685z" fill="#fff" mask="url(#d)"/></mask><mask id="d" fill="#000" height="8" maskUnits="userSpaceOnUse" width="6" x="7.2356" y="3.55078"><path d="m7.2356 3.55078h6v8h-6z" fill="#fff"/><path clip-rule="evenodd" d="m10.0542 5.56575c.0167-.00943.0259-.01497.0259-.01497v.02946c.1204.06638.4233.22193.6203.22193.2504 0 .5908-.25139.5908-.25139l.5696.80421s-.3836.80393-.0901 1.78632c.2935.98238-.0155 1.73986-1.3207 1.82397 0 0-.2572.04882-.3699.12672v.072c0-.0179-.0096-.0349-.0259-.0509-.0163.016-.0259.033-.0259.0509v-.072c-.11267-.0779-.36985-.12672-.36985-.12672-1.30519-.08411-1.61423-.84159-1.32073-1.82397.2935-.98239-.09007-1.78632-.09007-1.78632l.56955-.80421s.3404.25139.59082.25139c.197 0 .49995-.15555.62028-.22193v-.02946s.0093.00554.0259.01497z" fill="#000" fill-rule="evenodd"/></mask><g mask="url(#a)"><g clip-rule="evenodd" fill-rule="evenodd"><path d="m5 0h10.625v15h-10.625z" fill="#f7fcff"/><path d="m15 0h5v15h-5z" fill="#f50101"/><path d="m0 0h5v15h-5z" fill="#f50101"/></g><path d="m9.83836 5.46566.02093.22621c-.62402.06311-.96116-.2418-.96116-.87463 0-.62795.32985-.96173.95003-.96568l.00133.22727c-.50248.0032-.73397.23745-.73397.73841 0 .49607.2242.69885.72284.64842z" fill="#a2bb6a"/><path d="m10.1147 5.46566-.0209.22621c.624.06311.9611-.2418.9611-.87463 0-.62795-.3298-.96173-.95-.96568l-.0013.22727c.5025.0032.7339.23745.7339.73841 0 .49607-.2242.69885-.7228.64842z" fill="#a2bb6a"/><g clip-rule="evenodd" fill-rule="evenodd"><path d="m9.46226 10.7017c-.17943.0643-1.39598 0-1.39598 0v.3388h.80655c.26911 0 .37085.0482.46418.0924.07909.0375.15214.072.31589.072.31895 0 .31311-.2372.30824-.4347-.00058-.0236-.00115-.0465-.00115-.0685 0-.0839.01311-.1307.02331-.1671.01484-.053.0235-.084-.02331-.1753-.07901-.1539-.83034-.1333-.83034 0 0 .0629.11391.1284.21545.1867.11374.0653.21196.1218.11716.1557zm1.09344 0c.1794.0643 1.3959 0 1.3959 0v.3388h-.8065c-.2691 0-.3709.0482-.4642.0924-.0791.0375-.1521.072-.3159.072-.3189 0-.3131-.2372-.3082-.4347.0006-.0236.0011-.0465.0011-.0685 0-.0839-.0131-.1307-.0233-.1671-.0148-.053-.0235-.084.0233-.1753.079-.1539.8304-.1333.8304 0 0 .0629-.1139.1284-.2155.1867-.1137.0653-.2119.1218-.1171.1557z" fill="#e31d1c"/><path d="m10.2544 10.734s.9493-.0943 1.164-.4366c.2147-.34239.5724-.92687.6981-1.06838.1258-.1415.1339.20212.1339.20212s.2075.29426.2075-.082c0-.37627-.1476-.11339-.3414-.67952-.1937-.56614-.3028-1.12145-.2483-1.2055.0546-.08405.1836.08405.1836 0s0-.24859 0-.24859l.1986.24859.2075-.07875s.1708.36576.276.47899c.1052.11322.1667-.15166.1359-.40024-.0307-.24859-.4119-.24859-.4119-.24859s-.4875-.26277-.4875-.3729.2107-.07732.2107-.07732l-.0646-.341s.1743.20711.2578.10355c.0836-.10355-.1239-.28527-.1239-.28527h.3308v-.1597l.1527.08548-.1527-.34873s-.4479.06744-.5294 0c-.0814-.06744-.3379-.33032-.3379-.33032v-.12479h-.1478l.1478-.25032v-.39861l.5365.10697v-.29474s.7554.36823.6194.66486c-.1359.29663-.1359.62695-.1359.62695v.26325s.0226-.08058.1359-.08058c.1134 0 .2423.05856.2423.24028s.2308-.07422.2308-.07422v.756s.0543.08174.1729 0 .0666-.01798-.2897.461c-.3563.47899-.2279.48027-.114.36292.114-.11735.5766-.45099.4037-.28417s-.1843.5163 0 .40024c.1843-.11607.1487-.19865.1487 0 0 .19864-.3244.8748-.4384.98072s-.2203.17105-.3563.2775c-.1359.10644-.2886.23223-.2886.30856s.2886-.082.2886-.082l-.1359.48534h.2642s-.2103.64452-.6238.64452-.7251 0-.8082 0-.4585.177-.4585.177l-.2746.078s.4378.0419.5854.1734c.1477.1314 0 .2231 0 .2231s-.4052-.0402-.7077-.1317c-.3024-.0914-.4563.0819-.4563-.0914 0-.1734 0-.1734 0-.1734z" fill="#00a854"/><path d="m12.9891 5.56798c0 .06276-.0486.11364-.1087.11364-.06 0-.1087-.05088-.1087-.11364s.0487-.11363.1087-.11363c.0601 0 .1087.05087.1087.11363zm-.5434.45455c0 .06276-.0487.11363-.1087.11363-.0601 0-.1087-.05087-.1087-.11363s.0486-.11364.1087-.11364c.06 0 .1087.05088.1087.11364zm.5434-.11364c.0601 0 .1087-.05088.1087-.11364 0-.06275-.0486-.11363-.1087-.11363-.06 0-.1087.05088-.1087.11363 0 .06276.0487.11364.1087.11364zm-.2174 1.70455c0 .06276-.0486.11363-.1087.11363-.06 0-.1086-.05087-.1086-.11363s.0486-.11364.1086-.11364c.0601 0 .1087.05088.1087.11364zm-.5434 1.47727c.06 0 .1087-.05088.1087-.11364s-.0487-.11363-.1087-.11363c-.0601 0-.1087.05087-.1087.11363s.0486.11364.1087.11364zm.8695.22727c0 .06276-.0486.11364-.1087.11364-.06 0-.1087-.05088-.1087-.11364s.0487-.11363.1087-.11363c.0601 0 .1087.05087.1087.11363zm.1087-.11363c.0601 0 .1087-.05088.1087-.11364s-.0486-.11364-.1087-.11364c-.06 0-.1087.05088-.1087.11364s.0487.11364.1087.11364zm0-1.70455c0 .06276-.0486.11364-.1087.11364-.06 0-.1087-.05088-.1087-.11364s.0487-.11364.1087-.11364c.0601 0 .1087.05088.1087.11364z" fill="#c51918"/><path d="m9.80345 10.5339s-1.72727-.3413-1.82173-1.00211c-.09447-.66077-.09315-1.36423-.09315-1.36423l-.16017.4299s-.00809-.58523.32044-1.00268-.41067.2766-.41067.2766.37428-.59014.5301-.64633c.15583-.05618-.62611.36973-.62611.36973s.22401-.4952.39814-.63527-.39814.26554-.39814.26554.12949-.49116.28436-.60834c.15488-.11718-.50609.60834-.50609.60834s.34868-1.12229.54513-1.22702c.19645-.10474-.3234.20576-.3234.20576s.31843-.47999.60363-.7186c.28521-.23862-.51551.10175-.41739.10175 0 0 .28955-.32698.4559-.41928.16635-.09229-.64214.31753-.64214.31753s.58036-.64042.75433-.7347c.17397-.09429-.85403.50858-.85403.50858s.06003-.27926.08595-.47883-.47626.54696-.40808 1.21779-.2732-.51284-.2732-.51284-.13737.25697.19634.93007l-.36169-.50693s.04946.46003.16535.70838-.32895-.41292-.32895-.41292-.08511.41292 0 .41292c0 0 .50794.67863.52677.87649s-.57046-.70645-.64933-.70645c-.07886 0-.12255.29043 0 .29043.12256 0 .35471.41602.35471.41602s-.30171-.21805-.3664-.23093c-.06469-.01289.05078.12934.13425.23093 0 0-.23602.19244-.21809.3382.01794.14577.64325.17663.91577.86864 0 0-.56344-.29795-.69768-.29795-.13425 0 .21618.31111.32895.4138s-.17376-.10269-.25136 0c-.07759.10269.42903.54126.52456.54126h-.37s.12372.17464.29462.17464c.17091 0 .78157.27444.78157.36336s-.51514-.1138-.61066-.1138c-.09553 0 .67255.72495 1.08063.75255.40808.0277.66594.1372.84187.1372h.29959l-.83113.4235h.27664c.36058 0 .63637.1002.77818-.107.14181-.2071.14181-.4537.14181-.4537z" fill="#00a854"/><path d="m10.0542 5.56575c.0167-.00943.0259-.01497.0259-.01497v.02946c.1204.06638.4233.22193.6203.22193.2504 0 .5908-.25139.5908-.25139l.5696.80421s-.3836.80393-.0901 1.78632c.2935.98238-.0155 1.73986-1.3207 1.82397 0 0-.2572.04882-.3699.12672v.072c0-.0179-.0096-.0349-.0259-.0509-.0163.016-.0259.033-.0259.0509v-.072c-.11267-.0779-.36985-.12672-.36985-.12672-1.30519-.08411-1.61423-.84159-1.32073-1.82397.2935-.98239-.09007-1.78632-.09007-1.78632l.56955-.80421s.3404.25139.59082.25139c.197 0 .49995-.15555.62028-.22193v-.02946s.0093.00554.0259.01497z" fill="#e8aa00"/></g><path d="m10.0801 5.55078h.625v-1.10023l-.945.56339zm-.0259.01497-.30818.54372.30818.17469.3082-.17469zm.0259.01449h-.62496v.36899l.32308.17825zm1.2111-.02946.5101-.36122-.3685-.52029-.5129.37876zm.5696.80421.5641.26914.1579-.33104-.212-.29932zm-.0901 1.78632-.5988.17891zm-1.3207 1.82397-.0402-.6237-.0385.00248-.038.00721zm-.3699.12672-.35532-.51412-.26964.18637v.32775zm-.0259.0211.4377-.44625-.4377-.42924-.43762.42924zm-.0259-.0211h.625v-.32775l-.2696-.18637zm-.36985-.12672.11668-.61401-.03794-.00721-.03854-.00248zm-1.4108-3.61029-.51005-.36122-.21198.29932.15794.33104zm.56955-.80421.3713-.50275-.51286-.37876-.36848.52029zm1.2111.02946.3019.54724.3231-.17825v-.36899zm0-.02946.32-.53684-.945-.56339v1.10023zm.0518 0c-.32-.53684-.31999-.53685-.31998-.53685 0-.00001.00001-.00001.00002-.00002.00001 0 .00003-.00001.00004-.00002.00003-.00001.00005-.00003.00008-.00004.00005-.00003.00009-.00006.00014-.00009.00009-.00005.00017-.0001.00025-.00015.00015-.00008.00026-.00015.00034-.0002.00016-.0001.00019-.00011.00008-.00005-.00021.00012-.00093.00055-.00215.00126-.00244.00142-.00682.00395-.0129.0074l.61638 1.08745c.0106-.00598.0192-.01093.0255-.01464.0032-.00185.0058-.00339.0079-.0046.001-.00061.0019-.00113.0026-.00156.0004-.00022.0007-.00042.001-.00059.0002-.00009.0003-.00017.0004-.00025.0001-.00003.0002-.00007.0002-.00011 0-.00001.0001-.00003.0001-.00005 0-.00001 0-.00001 0-.00002s.0001-.00001.0001-.00001c0-.00001 0-.00002-.3201-.53686zm.625.02946v-.02946h-1.24996v.02946zm-.92688.54724c.07093.03912.20017.10719.34678.16713.1267.0518.3475.13256.5754.13256v-1.25c.0262 0 .0288.00407-.0005-.00383-.0255-.00687-.06-.01866-.1018-.03575-.0842-.03444-.1666-.07734-.216-.10459zm.92218.29969c.2924 0 .5588-.13194.6863-.20073.0779-.0421.1442-.08346.1909-.11424.0237-.01558.0432-.02894.0575-.03899.0072-.00504.0131-.00929.0177-.0126.0023-.00166.0043-.00309.0059-.00427.0008-.00059.0015-.00112.0022-.00159.0003-.00023.0006-.00045.0009-.00065.0001-.00011.0002-.0002.0004-.0003 0-.00004.0001-.00011.0002-.00013 0-.00007.0001-.00013-.3712-.50289-.3713-.50275-.3712-.50282-.3711-.50288 0-.00002.0001-.00008.0002-.00012.0001-.00008.0002-.00015.0003-.00022.0002-.00014.0003-.00027.0005-.00038.0003-.00023.0005-.0004.0007-.00051.0003-.00024.0003-.00025.0001-.00007-.0005.00037-.0021.00153-.0048.00336-.0052.0037-.0143.00997-.0265.01796-.0248.01636-.0594.03785-.0978.0586-.0397.02141-.0747.03726-.1015.04666-.0312.01098-.0253.00399.0091.00399zm.0808-.51517.5695.80421 1.0201-.72244-.5695-.80421zm1.0796.44299c-.5641-.26914-.5642-.26892-.5643-.2687 0 .00008-.0001.0003-.0002.00045-.0002.00031-.0003.00064-.0005.00097-.0003.00067-.0006.0014-.001.00217-.0007.00155-.0015.0033-.0024.00526-.0019.00392-.004.00865-.0065.01418-.0049.01106-.0111.02533-.0183.04265-.0144.03461-.0327.0816-.0528.13971-.0401.11587-.0878.27795-.1239.47565-.0721.39407-.1009.94422.081 1.55289l1.1977-.35783c-.1117-.37371-.0955-.71672-.0491-.97021.0231-.12608.0529-.22639.0756-.29194.0113-.03262.0206-.05611.0261-.0693.0027-.00658.0045-.01055.005-.01174.0003-.0006.0002-.0005-.0002.00031-.0001.00041-.0004.001-.0008.00177-.0002.00038-.0004.00081-.0006.00128-.0001.00024-.0002.00049-.0003.00075-.0001.00013-.0002.00034-.0002.0004-.0001.00021-.0002.00042-.5643-.26872zm-.6889 1.96523c.1234.41325.0742.63382.0095.73627-.054.08544-.2222.24968-.7716.28509l.0804 1.24742c.7558-.0487 1.3946-.3053 1.7482-.8652.3427-.54291.3012-1.19227.1312-1.76141zm-.7219 1.64506c-.1167-.61401-.1168-.614-.1168-.61399s-.0001.00002-.0002.00003c0 .00002-.0001.00004-.0002.00006-.0002.00003-.0005.00008-.0007.00012-.0005.00009-.001.00019-.0016.00031-.0012.00023-.0027.00052-.0044.00085-.0034.00067-.0078.00155-.013.00263-.0105.00216-.0247.00516-.0417.00897-.0336.00753-.0803.01869-.1326.03335-.0784.02195-.26301.0759-.41402.18027l.71072 1.02832c-.0298.0205-.044.0236-.0236.0157.0149-.0058.0369-.013.064-.0206.026-.0073.0507-.0132.0688-.0173.0089-.002.0157-.0034.0197-.0042.0019-.0004.0032-.0007.0036-.0008.0002 0 .0002 0 0 0-.0001.0001-.0003.0001-.0005.0001-.0001.0001-.0002.0001-.0004.0001 0 0-.0001 0-.0002 0 0 .0001-.0001.0001-.0001.0001-.0001 0-.0001 0-.1168-.61402zm.2551.19872v-.072h-1.24996v.072zm-1.08852.3953c-.04373-.0429-.16144-.1769-.16144-.3953h1.24996c0-.25425-.1369-.42225-.2132-.49715zm0-.89245c-.07636.0749-.21328.2429-.21328.49715h1.25c0 .2184-.1177.3524-.1614.3953zm1.03672.49715v-.072h-1.25v.072zm-.99485-.19872c-.11667.61402-.11673.61402-.11679.61402-.00002 0-.00008 0-.00012-.0001-.00008 0-.00015 0-.00022 0-.00014 0-.00027 0-.00038-.0001-.00022 0-.00039 0-.0005-.0001-.00022 0-.00022 0-.00001 0 .00042.0001.00167.0004.00365.0008.00398.0008.01076.0022.01963.0042.01818.0041.04281.01.06885.0173.02706.0076.04904.0148.06395.0206.02039.0079.00619.0048-.02357-.0157l.71076-1.02832c-.151-.10437-.3356-.15832-.41402-.18027-.05233-.01466-.09903-.02582-.1326-.03335-.017-.00381-.03119-.00681-.04171-.00897-.00527-.00108-.00966-.00196-.01306-.00263-.0017-.00033-.00316-.00062-.00436-.00085-.0006-.00012-.00114-.00022-.00161-.00031-.00023-.00004-.00045-.00009-.00066-.00012-.0001-.00002-.00019-.00004-.00029-.00006-.00004-.00001-.00011-.00002-.00013-.00003-.00007-.00001-.00013-.00002-.11681.61399zm-1.91957-2.00289c-.17004.56914-.21155 1.2185.13121 1.76141.3535.5599.99234.8165 1.74817.8652l.08039-1.24742c-.54937-.03541-.71765-.19965-.77159-.28509-.06468-.10245-.11396-.32302.00951-.73627zm.50877-1.6074c-.56409.26914-.56419.26893-.56428.26872-.00004-.00006-.00013-.00027-.00019-.0004-.00013-.00026-.00025-.00051-.00036-.00075-.00022-.00047-.00043-.0009-.00061-.00128-.00036-.00077-.00063-.00136-.00082-.00177-.00037-.00081-.00041-.00091-.00015-.00031.00054.00119.00229.00516.00502.01174.00547.01319.01478.03668.02606.0693.02268.06555.05257.16586.07562.29194.04636.25349.06259.5965-.04906.97021l1.19769.35783c.18184-.60867.15304-1.15882.08098-1.55289-.03615-.1977-.08381-.35978-.12388-.47565-.0201-.05811-.03846-.1051-.05282-.13971-.00718-.01732-.01338-.03159-.01832-.04265-.00248-.00553-.00463-.01026-.00644-.01418-.00091-.00196-.00173-.00371-.00245-.00526-.00037-.00077-.00071-.0015-.00103-.00217-.00015-.00033-.00031-.00066-.00046-.00097-.00007-.00015-.00017-.00037-.00021-.00045-.00011-.00022-.00021-.00044-.56429.2687zm.05951-1.16543-.56956.80421 1.02009.72244.56956-.80421zm1.10086-.01239c.03438 0 .04036.00699.00908-.00399-.02676-.0094-.06179-.02525-.10146-.04666-.03844-.02075-.07296-.04224-.09784-.0586-.01214-.00799-.02123-.01426-.0265-.01796-.00261-.00183-.00423-.00299-.00474-.00336-.00025-.00018-.00023-.00017.00009.00007.00016.00011.00039.00028.0007.00051.00015.00011.00033.00024.00052.00038.00009.00007.0002.00014.0003.00022.00005.00004.00014.0001.00016.00012.00009.00006.00017.00013-.37113.50288-.37129.50276-.37121.50282-.37112.50289.00004.00002.00013.00009.00019.00013.00012.0001.00026.00019.00039.0003.00028.0002.00057.00042.00089.00065.00064.00047.00137.001.00218.00159.00162.00118.00358.00261.00588.00427.0046.00331.01055.00756.01773.0126.01433.01005.03378.02341.05747.03899.04677.03078.11299.07214.19096.11424.12743.06879.39383.20073.68625.20073zm.31836-.14417c-.0494.02725-.1318.07015-.216.10459-.04183.01709-.07632.02888-.10182.03575-.02933.0079-.02671.00383-.00054.00383v1.25c.22793 0 .44873-.08076.57543-.13256.14655-.05994.27585-.12801.34675-.16713zm.92692.54724v-.02946h-1.25v.02946zm-.625-.02946c-.32004.53684-.32003.53685-.32002.53686 0 0 .00001 0 .00002.00001s.00003.00001.00004.00002c.00003.00002.00006.00004.00009.00005.00006.00004.00012.00008.00018.00011.00013.00008.00027.00016.00041.00025.0003.00017.00063.00037.00099.00059.00074.00043.00162.00095.00264.00156.00206.00121.00469.00275.00787.0046.00636.00371.01495.00866.0255.01464l.61638-1.08745c-.0061-.00345-.0104-.00598-.0129-.0074-.0012-.00071-.0019-.00114-.0021-.00126-.0001-.00006-.0001-.00005 0 .00005.0001.00005.0002.00012.0004.0002.0001.00005.0001.0001.0002.00015.0001.00003.0001.00006.0002.00009 0 .00001 0 .00003.0001.00004v.00002.00002s0 .00001-.32.53685z" fill="#e8aa00" mask="url(#b)"/><g mask="url(#c)"><path d="m8.31519 5.45435h1.73913v2.38636h-1.73913z" fill="#67baff"/><path d="m10.0543 5.45435h1.73913v2.38636h-1.73913z" fill="#fff"/><path d="m8.09778 8.06812h4.34783v2.72727h-4.34783z" fill="#c51918"/><g fill="#c9a951"><path d="m10.8967 7.67179h-.2174v-1.63419h.2174z"/><path d="m10.8086 6.92827-.106.1898-.3752-.20951.106-.18981z"/><path d="m10.8086 6.47368-.106.1898-.3752-.20951.106-.18981z"/><path d="m10.7622 6.92827.106.1898.3752-.20951-.106-.18981z"/><path d="m10.7622 6.47368.106.1898.3752-.20951-.106-.18981z"/></g><g clip-rule="evenodd" fill-rule="evenodd"><path d="m11.0807 8.56546s.1512-.17291.1512-.08645c0 .08645 0 .23183-.0756.23183s-.4279-.06917-.5621-.23183c-.1341-.16267-.418-.44586-.78347-.37918-.36542.06668-.79883.54039-.90567.54039-.10683 0-.34098.36515-.17049.65031s.4605.19668.4605.27941c0 .08274.07252.09226.34409.09226s.37087.09578.60594.09578c.2352 0-.0776-.00352.3011-.09578s.6655-.37167.4448-.37167c-.2206 0-.2919 0-.4448 0s-.49312.11017-.49312 0 .07552-.34604.28432-.22811c.2088.11794.7889.20787.9945 0 .2056-.20786.2775-.3332.2415-.58341-.0359-.25022-.3171-.1782-.3171-.1782z" fill="#fbcd17"/><path d="m9.61006 5.98096c-.13103.11461-.0465.53347-.26122.53347s-.51688-.31365-.59298-.10669c-.07609.20696 0 .13743 0 .3137s-.18225.66608-.09112.74889c.09112.0828.1845.30098.16832.19885-.01619-.10214-.08508-.25212-.05637-.41506-.02775-.16833.15358-.33023.15358-.33023s-.01968.17476-.03396.23992c0 0-.05978.13151-.03551.21886 0 0 .06139.2462.0867.26321 0 0 .01644-.58293.03513-.67901.0187-.09607.15196.10837.19629.0852 0 0 .01522.39861-.00783.44611 0 0-.04674.09428-.02936.1244 0 0 .04335.10913.08034.07734 0 0 .00131-.00227.02005-.10848 0 0-.02178-.06414.01231-.21018 0 0 .03591-.32158.05077-.25181 0 0-.00668.15183.01045.23008 0 0 .02735.19429.03284.21562 0 0 .13119.18686.13468.10794 0 0-.12576-.14996-.09882-.26407 0 0-.072-.32327.0285-.39535 0 0 .26663-.12333.28267-.33445 0 0 .03863-.24059.04557-.35088 0 0-.05849-.03243.06241-.08937 0 0 .19462-.0747.07335-.17858" fill="#d18219"/></g></g></g></svg>