<svg fill="none" height="15" viewBox="0 0 20 15" width="20" xmlns="http://www.w3.org/2000/svg" xmlns:xlink="http://www.w3.org/1999/xlink"><mask id="a" height="15" maskUnits="userSpaceOnUse" width="20" x="0" y="0"><path d="m0 0h20v15h-20z" fill="#fff"/></mask><mask id="b" height="15" maskUnits="userSpaceOnUse" width="20" x="0" y="0"><path clip-rule="evenodd" d="m0 0v15h20v-15z" fill="#fff" fill-rule="evenodd"/></mask><g clip-rule="evenodd" fill-rule="evenodd" mask="url(#a)"><path d="m0 0v15h20v-15z" fill="#e31d1c"/><g mask="url(#b)"><path d="m10 12.5c2.7614 0 5-2.2386 5-5 0-2.76142-2.2386-5-5-5-2.76142 0-5 2.23858-5 5 0 2.7614 2.23858 5 5 5z" fill="#f7fcff"/><path d="m10.8767 11.0317s-2.63524-.7189-2.63524-3.54829c0-2.82937 2.63524-3.60995 2.63524-3.60995-1.08969-.42175-4.27867.22536-4.27867 3.60995s3.27794 3.99409 4.27867 3.54829zm-.1451-4.16398-1.3074.4777 1.4052.49119.0473 1.31558.8552-1.02205 1.41.10009-1.0159-.82884.6118-1.19694-1.1951.40228-.828-1.03495z" fill="#e31d1c"/></g></g></svg>