<svg fill="none" height="15" viewBox="0 0 20 15" width="20" xmlns="http://www.w3.org/2000/svg" xmlns:xlink="http://www.w3.org/1999/xlink"><mask id="a" height="15" maskUnits="userSpaceOnUse" width="20" x="0" y="0"><path d="m0 0h20v15h-20z" fill="#fff"/></mask><mask id="b" height="15" maskUnits="userSpaceOnUse" width="20" x="0" y="0"><path clip-rule="evenodd" d="m0 0v15h20v-15z" fill="#fff" fill-rule="evenodd"/></mask><g mask="url(#a)"><path clip-rule="evenodd" d="m0 0v15h20v-15z" fill="#c51918" fill-rule="evenodd"/><g mask="url(#b)"><path clip-rule="evenodd" d="m9.98877 11.1668c.06693 0 .13353-.0018.19963-.0052l.3857 1.2298.0893-1.2849c.1291-.0233.2558-.0532.3798-.0893l.6612 1.1085-.2118-1.2711c.1194-.0521.2356-.1103.3482-.1741l.9017.9281-.5021-1.1895c.1037-.0777.2031-.1606.298-.2484l1.094.6972-.7653-1.04265c.0828-.09898.1606-.2023.2328-.30957l1.2262.42804-.9864-.83888c.0576-.11508.1094-.23354.1549-.35501l1.2916.1359-1.1543-.59038c.029-.12475.0517-.25191.0677-.38112l1.2883-.16321-1.2604-.31043c-.0006-.13059-.0081-.25958-.022-.38664l1.2149-.4532-1.2967-.01372c-.0307-.12676-.0681-.25098-.1116-.37229l1.0751-.7178-1.2637.28298c-.0594-.11599-.1248-.22846-.1958-.33701l.8787-.94382-1.1632.56412c-.0847-.09918-.1745-.19388-.2691-.2837l.6351-1.11851-.9994.81396c-.1054-.07731-.215-.14927-.3285-.21545l.3574-1.23166-.782 1.01892c-.1205-.05109-.2443-.09608-.3709-.13457l.0613-1.27844-.5236 1.16946c-.1288-.02184-.2598-.03715-.3927-.04557l-.23753-1.25765-.23744 1.25708c-.13314.00812-.2644.02315-.39342.04473l-.52294-1.16805.06115 1.27575c-.12735.03837-.25182.08329-.37302.13438l-.77973-1.01604.35606 1.22718c-.1145.06642-.22511.13871-.33143.21645l-.99519-.81048.63197 1.11296c-.09574.09054-.18664.18606-.27229.28616l-1.15685-.56103.87345.93814c-.07206.10974-.13843.22351-.19867.34088l-1.25561-.28117 1.06787.71295c-.04429.12288-.08222.24875-.11341.37724l-1.28763.01362 1.2062.44997c-.01421.12883-.02175.25964-.0223.39209l-1.25144.30821 1.27923.16205c.01615.13103.03919.25995.06875.3864l-1.14626.58626 1.28299-.13499c.04612.12304.09865.243.15717.35947l-.98005.83351 1.21892-.4255c.07315.10843.15192.21282.23588.31276l-.76111 1.03692 1.08869-.6938c.09585.0885.19639.172.30121.2501l-.50002 1.1844.89858-.9248c.11336.064.23043.1223.3508.1744l-.21128 1.2675.65988-1.1063c.12452.036.25173.0657.38125.0888l.08921 1.2832.38553-1.2294c.0632.0032.12681.0048.1908.0048zm2.81253-3.7195c0 1.55301-1.2693 2.812-2.83504 2.812-1.56573 0-2.835-1.25899-2.835-2.812 0-1.553 1.26927-2.81196 2.835-2.81196 1.56574 0 2.83504 1.25896 2.83504 2.81196zm-.8574.91599c.1183-.26594.184-.56042.184-.87026 0-.3027-.0628-.59074-.176-.85182-.4891.03478-.9039.16355-1.2403.32833.7467.32664 1.0845.86432 1.2323 1.39375zm-.241.41102c-.0611.08181-.1279.15912-.1998.23132-.04-.73785-.3556-1.30047-.9217-1.90744.7009.33577 1.0962 1.13831 1.1215 1.67612zm-.5364.50697c-.0396.02624-.0802.05119-.1216.07481-.1682-.82911-.4868-1.48327-.9303-2.00606l.1075-.08105c.0143-.01078.0289-.02155.0437-.03229.5675.65258.9254 1.21244.9007 2.04459zm-1.18187.35502c.25147 0 .49287-.04332.71717-.12292-.1629-.78889-.4467-1.52365-.8575-2.05384-.49085.58434-.74059 1.24464-.74978 1.98376.2711.12393.57254.193.89011.193zm-.41254-2.43066c.0171.01337.0334.02668.04892.03991-.52281.59464-.80882 1.26518-.85753 2.00908-.06422-.04461-.12589-.09263-.18474-.14382.19699-.78649.52361-1.43536.99335-1.90517zm-1.56099-.54996c.49125.05533.87906.17478 1.16966.31305-.7407.31474-1.0324.82185-1.17911 1.33905-.10331-.25118-.16029-.52631-.16029-.81475 0-.29711.06046-.5801.16974-.83735zm.26899 2.13682c-.0165-.02161-.0326-.04354-.04828-.06578.03704-.5431.38293-1.31378 1.08162-1.63151-.46871.45486-.81934.97264-1.03334 1.69729zm.15857-2.78393c.39002-.40607.93848-.65881 1.54597-.65881.59807 0 1.13887.24492 1.52757.63993-.6117.07096-1.1305.22434-1.55175.46295-.37555-.21548-.88321-.36113-1.52179-.44407z" fill="#ffdc17" fill-rule="evenodd"/></g></g></svg>