<svg fill="none" height="12" viewBox="0 0 16 12" width="16" xmlns="http://www.w3.org/2000/svg" xmlns:xlink="http://www.w3.org/1999/xlink"><mask id="a" height="12" maskUnits="userSpaceOnUse" width="16" x="0" y="0"><path d="m0 0h16v12h-16z" fill="#fff"/></mask><g mask="url(#a)"><path clip-rule="evenodd" d="m0 0h16v12h-16z" fill="#73be4a" fill-rule="evenodd"/><path clip-rule="evenodd" d="m0 0v8h16v-8z" fill="#af0100" fill-rule="evenodd"/><path d="m0 0h3v12h-3z" fill="#f7fcff"/><g clip-rule="evenodd" fill-rule="evenodd"><path d="m.499989 0c.276164 0 .499996.223875.499996.50001s-.223832.50001-.499996.50001c-.276101 0-.499989-.223875-.499989-.50001s.223888-.50001.499989-.50001zm2.000041 0c.2761 0 .49999.223875.49999.50001s-.22389.50001-.49999.50001c-.27616 0-.5-.223875-.5-.50001s.22384-.50001.5-.50001zm-1.500045 2.50002c0-.27618-.223832-.50001-.499996-.50001-.276101 0-.499989.22383-.499989.50001 0 .27613.223888.49996.499989.49996.276164 0 .499996-.22383.499996-.49996zm1.500045-.50001c.2761 0 .49999.22383.49999.50001 0 .27613-.22389.49996-.49999.49996-.27616 0-.5-.22383-.5-.49996 0-.27618.22384-.50001.5-.50001zm0 7c.2761 0 .49999.22384.49999.50001 0 .27612-.22389.49997-.49999.49997-.27616 0-.5-.22385-.5-.49997 0-.27617.22384-.50001.5-.50001zm-1.500045.50001c0-.27617-.223832-.50001-.499996-.50001-.276101 0-.499989.22384-.499989.50001 0 .27612.223888.49997.499989.49997.276164 0 .499996-.22385.499996-.49997zm-.499996 1.49998c.276164 0 .499996.2239.499996.5 0 .2762-.223832.5-.499996.5-.276101 0-.499989-.2238-.499989-.5 0-.2761.223888-.5.499989-.5zm2.500031.5c0-.2761-.22389-.5-.49999-.5-.27616 0-.5.2239-.5.5 0 .2762.22384.5.5.5.2761 0 .49999-.2238.49999-.5zm-1.50005-1.50001c.27617 0 .50006.22391.50006.50001s-.22389.5-.50006.5c-.27609 0-.499985-.2239-.499985-.5s.223895-.50001.499985-.50001zm.50006-8.49999c0-.27613-.22389-.49998-.50006-.49998-.27609 0-.499985.22385-.499985.49998s.223895.50001.499985.50001c.27617 0 .50006-.22388.50006-.50001zm.05496 4.51935.94503.98065v.99998l.02187.04644-1.47634-1.47755-1.326723 1.43111h-.218701v-.99998l.991157-.98584-.991157-.99197v-1.02217h.108899l1.422825 1.47647 1.42975-1.4221.03842-.05437v.99994zm-.55502-3.01937c.27617 0 .50006.2239.50006.50001 0 .27614-.22389.50003-.50006.50003-.27609 0-.499985-.22389-.499985-.50003 0-.27611.223895-.50001.499985-.50001zm.50006 5.50001c0-.27612-.22389-.50001-.50006-.50001-.27609 0-.499985.22389-.499985.50001 0 .27613.223895.50002.499985.50002.27617 0 .50006-.22389.50006-.50002z" fill="#d0181a"/><path d="m0 0h.999985v1.00002h-.999985zm.999985 2.00001h-.999985v.99997h.999985zm-.999985 2.00001h.999985v.99998h-.999985zm.999985 2.99998h-.999985v.99998h.999985zm-.999985 2.00001h.999985v.99998h-.999985zm.999985 1.99999h-.999985v1h.999985zm2.000035 0h-.99999v1h.99999zm0-11h-.99999v1.00002h.99999z" fill="#8f181a" opacity=".4"/></g></g></svg>