<svg fill="none" height="24" viewBox="0 0 32 24" width="32" xmlns="http://www.w3.org/2000/svg" xmlns:xlink="http://www.w3.org/1999/xlink"><mask id="a" height="24" maskUnits="userSpaceOnUse" width="32" x="0" y="0"><path d="m0 0h32v24h-32z" fill="#fff"/></mask><mask id="b" height="24" maskUnits="userSpaceOnUse" width="32" x="0" y="0"><path clip-rule="evenodd" d="m0 0v24h32v-24z" fill="#fff" fill-rule="evenodd"/></mask><mask id="c" height="14" maskUnits="userSpaceOnUse" width="12" x="10" y="5"><path clip-rule="evenodd" d="m16 18.2195c3.2027 0 5.799-2.7572 5.799-6.1585 0-3.40126-2.5963-6.15853-5.799-6.15853-3.2028 0-5.7991 2.75727-5.7991 6.15853 0 3.4013 2.5963 6.1585 5.7991 6.1585z" fill="#fff" fill-rule="evenodd"/></mask><g mask="url(#a)"><path clip-rule="evenodd" d="m0 0v24h32v-24z" fill="#f7fcff" fill-rule="evenodd"/><g mask="url(#b)"><path clip-rule="evenodd" d="m16 18.2195c3.2027 0 5.799-2.7572 5.799-6.1585 0-3.40126-2.5963-6.15853-5.799-6.15853-3.2028 0-5.7991 2.75727-5.7991 6.15853 0 3.4013 2.5963 6.1585 5.7991 6.1585z" fill="#3d58db" fill-rule="evenodd"/><g mask="url(#c)"><path clip-rule="evenodd" d="m22.0019 12.5328s-.3255-2.904-2.7362-3.06164c-2.4106-.15765-3.0606 2.12954-3.1997 2.73554s-.4912 2.2225-3.0294 2.2225c-2.5381 0-2.7671-4.1104-2.7671-4.1104v-4.84688h11.7324z" fill="#e31d1c" fill-rule="evenodd"/></g><g clip-rule="evenodd" fill="#272727" fill-rule="evenodd"><path d="m7.29934 2.05212.91496.82753-4.24026 4.9519-.91496-.82752zm1.50899 1.33916.91496.82753-4.08826 4.88016-.91496-.82752zm2.41707 2.18319-.915-.82753-4.09962 4.9172.91497.82756z"/><path d="m25.3637 1.7052-.9152.82443 1.5874 1.86283.9152-.82443zm2.8216 3.42664-.9152.82443 1.5875 1.86283.9151-.82443zm-6.7574.08098.9152-.82443 1.5874 1.86283-.9152.82443zm3.7368 2.60221-.9152.82443 1.5875 1.86284.9151-.82444zm-2.1692-3.98382.9152-.82443 4.4186 5.38087-.9152.82442z"/><path d="m26.0549 14.2432-.9228-.8277-1.6008 1.8701.9228.8277zm-2.6913 3.291-.9229-.8277-1.6007 1.8701.9228.8277zm4.6829-1.5013.9228.8276-1.6007 1.8701-.9229-.8276zm-1.6369 4.1949-.9228-.8276-1.6008 1.8701.9229.8276zm-2.4431-2.2497.9229.8277-1.671 1.9969-.9228-.8277zm3.6643-2.4998-.9228-.8277-1.671 1.997.9229.8276z"/><path d="m6.40657 14.8899.91521-.8253 4.08462 4.6804-.9152.8253zm.9528 4.0937.9152-.8254 1.72531 1.8956-.9152.8253zm-3.04994-2.2928-.9152.8254 4.1058 4.7433.9152-.8253zm.65119-.5386.9152-.8253 1.49567 1.7539-.9152.8253z"/></g></g></g></svg>