<svg fill="none" height="25" viewBox="0 0 32 25" width="32" xmlns="http://www.w3.org/2000/svg" xmlns:xlink="http://www.w3.org/1999/xlink"><mask id="a" height="25" maskUnits="userSpaceOnUse" width="32" x="0" y="0"><path d="m0 .88562h32v24h-32z" fill="#fff"/></mask><g clip-rule="evenodd" fill-rule="evenodd" mask="url(#a)"><path d="m0 .88562h32v23.99998h-32z" fill="#2e42a5"/><path d="m8.33663 6.92327c-.21608-.14639-.44095.17065-.23136.32619.61735.45811 1.25717.8763 1.91733 1.25606 2.2438 1.29065 4.6428 2.10038 7.0697 2.52168 1.6029.2782 2.9793.3522 4.0028.3135.0813-.0031.1376-.0062.1676-.0083.7486-.0072 1.372-.1741 1.866-.4494.3106-.173.5091-.35.6081-.476.0575-.0681.1122-.1428.16-.2189.5035-.80167.2171-1.64431-.5355-2.43623-.1659-.17458-.343-.33345-.5202-.47399-.1069-.08477-.1909-.14517-.2408-.17826-.1867-.12384-.4047.10588-.2712.2858.6525.87971.8013 1.53029.5645 1.99266-.1919.37475-.6469.64622-1.2916.81722-.5486.1455-1.1068.1939-1.4928.1924-2.8619.0719-5.7201-.58735-8.4348-1.73112-.9023-.38016-1.72277-.78743-2.44535-1.19447-.43239-.24357-.73518-.43231-.89242-.53884zm.04131 3.98903c-.12584-.0784-.21128-.1341-.2541-.1631-.09026-.0611-.21257-.0386-.27531.0499-.0628.0885-.04359.2114.04395.2763.68503.5084 1.39501.9724 2.12762 1.3938 2.4896 1.432 5.1516 2.3304 7.8446 2.7979 1.7786.3087 3.3057.3907 4.4411.3479.0388-.0015.0725-.003.0999-.0043-.1956.2826-.5767.4926-1.0961.6303-.1562.0415-.3134.0741-.4663.0994-.056-.0741-.1188-.1475-.1877-.2201-.176-.1851-.3511-.324-.4719-.4041-.1867-.1239-.4047.1058-.2712.2858.11.1483.1949.2841.2569.4082-.0721.003-.1401.0042-.2029.004h-.0074c-2.5774.0649-5.1577-.5302-7.6087-1.5628-.8147-.3433-1.5555-.711-2.2079-1.0785-.39027-.2198-.66345-.3901-.80513-.4861-.09025-.0611-.21256-.0387-.27531.0499-.0628.0885-.04359.2113.04395.2763.55864.4145 1.13759.7929 1.73499 1.1366 2.0297 1.1674 4.1997 1.8998 6.395 2.2808 1.0731.1863 2.0341.2713 2.8366.2888-.1327.1042-.3209.1882-.5543.25-.3221.0855-.6518.114-.8773.1132h-.0068c-1.7065.043-3.4165-.3514-5.0412-1.0359-.5403-.2277-1.0315-.4715-1.464-.7151-.2583-.1456-.4388-.258-.5317-.321-.0903-.0611-.2126-.0386-.2753.0499-.0628.0885-.0436.2113.0439.2763.3743.2778.7623.5313 1.1625.7615 1.3594.7819 2.8123 1.2722 4.2819 1.5273.9708.1685 1.8049.2133 2.4263.1898.0499-.0019.0837-.0037.0913-.0046.4714-.0048.8597-.1088 1.1687-.2809.1967-.1096.3241-.2231.3856-.3016.0395-.0469.0746-.0949.1054-.1438.0792-.126.1284-.2533.1509-.3809.6271-.0249 1.1468-.1725 1.5651-.4055.283-.1576.4643-.3192.551-.4297.0565-.0672.1066-.1355.1503-.2052.1646-.2621.2369-.5288.2307-.7963.3424-.0851.6483-.2065.919-.3573.3422-.1906.5605-.3852.6644-.5177.0681-.0808.1284-.1631.1809-.2468.1991-.317.2855-.6401.2757-.9646.1185-.0529.2324-.1099.3416-.1707.4247-.2367.6946-.4773.8226-.6404.0843-.1001.1588-.2018.2238-.3053.6798-1.0827.2909-2.2264-.7399-3.31106-.2293-.24138-.4745-.46123-.7197-.65571-.1477-.11713-.2634-.20034-.3314-.24548-.1867-.12384-.4047.10588-.2713.2858.9293 1.25295 1.1445 2.19365.7969 2.87245-.1485.2898-.401.5355-.742.7389-.0767-.0947-.1596-.1888-.2485-.2824-.1835-.1931-.3795-.3688-.5756-.5243-.1182-.0938-.211-.1605-.2659-.1969-.1867-.1239-.4047.1059-.2712.2858.2893.3901.4901.7404.6105 1.0538-.1166.0392-.2384.0757-.3653.1093-.7757.2058-1.563.274-2.1082.2718l-.0083.0001c-4.0083.1009-8.0186-.824-11.82711-2.4286-1.26556-.53318-2.41635-1.10441-3.43002-1.67541-.35439-.19962-.66618-.38486-.93258-.55091-.15913-.09919-.26732-.16963-.3218-.20654-.09026-.06114-.21257-.03865-.27532.04989-.06279.08847-.04359.21134.04396.2763.86153.63931 1.75446 1.22289 2.67584 1.75285 3.13103 1.80092 6.47913 2.93082 9.86643 3.51882 1.6747.2907 3.172.4216 4.4177.4464.1632.2322.2857.4455.3704.6409-.4505.0826-.878.1122-1.1985.111h-.0077c-3.1749.08-6.3523-.6529-9.3702-1.9243-1.003-.4226-1.91498-.8753-2.71823-1.3278-.28074-.1581-.52769-.3048-.73863-.4363zm15.04906 2.9167c.2255-.0023.4422-.0146.6502-.0364-.2204.211-.5351.3813-.9271.512-.0705-.0894-.1479-.1782-.2316-.2663-.0614-.0646-.1244-.1268-.1885-.1865.1647-.002.324-.006.4775-.0118.1129-.0043.1908-.0086.2195-.011zm-9.0527 5.0328c-.0534.3153.4166.5441 1.0569.6667.6441.1232 1.164.0827 1.2189-.2397.0535-.3153-.4165-.544-1.0569-.6667-.6444-.1232-1.1644-.0828-1.2189.2397z" fill="#f7fcff"/></g></svg>