<svg fill="none" height="12" viewBox="0 0 16 12" width="16" xmlns="http://www.w3.org/2000/svg" xmlns:xlink="http://www.w3.org/1999/xlink"><mask id="a" height="12" maskUnits="userSpaceOnUse" width="16" x="0" y="0"><path d="m0 0h16v12h-16z" fill="#fff"/></mask><g clip-rule="evenodd" fill-rule="evenodd" mask="url(#a)"><path d="m11 0h5v12h-5z" fill="#2e42a5"/><path d="m5 0h6v12h-6z" fill="#feca00"/><path d="m0 0h5v12h-5z" fill="#2e42a5"/><path d="m9.21711 7.63651c.3164-.65451.68139-1.84885.68139-1.84885l.2769-.82231-1.09753.39744.25974.15085s-.45268.90489-.68067 1.34694c-.228.44205-.25057.15001-.25057.15001l.03901-3.08436.25191-.0683-.62781-1.20595-.80096 1.22267.35293.00951s-.02934 3.25431-.07839 3.12643c-.02738-.07264-.10022.15186-.13572.0649-.22251-.5451-.52683-1.60157-.52683-1.60157l.17807-.16659-1.19414-.24568.35651.73413s.31438 1.30819.65956 1.94709c.07773.20213.4533.28836.4533.28836s.18338-.18614.22881 0c.04542.18614 0 .93749 0 .93749h.84375s-.05941-.70881 0-.93749.24355 0 .24355 0 .48959-.19259.56719-.39472z" fill="#000"/></g></svg>