<svg fill="none" height="24" viewBox="0 0 32 24" width="32" xmlns="http://www.w3.org/2000/svg" xmlns:xlink="http://www.w3.org/1999/xlink"><mask id="a" height="24" maskUnits="userSpaceOnUse" width="32" x="0" y="0"><path d="m0 0h32v24h-32z" fill="#fff"/></mask><g clip-rule="evenodd" fill-rule="evenodd" mask="url(#a)"><path d="m0 0h32v24h-32z" fill="#5eaa22"/><path d="m0 0 32 24h-32z" fill="#4141db"/><g fill="#fff"><path d="m6 9-1 .73205.13397-1.23205-1.13397-.5 1.13397-.5-.13397-1.23205 1 .73205 1-.73205-.13397 1.23205 1.13397.5-1.13397.5.13397 1.23205z"/><path d="m4 15-1 .7321.13397-1.2321-1.13397-.5 1.13397-.5-.13397-1.2321 1 .7321 1-.7321-.13397 1.2321 1.13397.5-1.13397.5.13397 1.2321z"/><path d="m8 21-1 .7321.13397-1.2321-1.13397-.5 1.13397-.5-.13397-1.2321 1 .7321 1-.7321-.13397 1.2321 1.13397.5-1.13397.5.13397 1.2321z"/><path d="m9 11.5-.5.366.06699-.616-.56699-.25.56699-.25-.06699-.616.5.366.5-.366-.06699.616.56699.25-.56699.25.06699.616z"/></g><path d="m21.5611 12.224c-.3738-.39 2.9902-1.3063 3.3389-2.48784.4621-1.02869.1534-1.86224-1.5928-2.59429-1.7461-.73205-3.5108-2.14753-1.4816-2.14753 2.0293 0 2.0293.28934 2.5744 1.14284.5452.8535 1.7235 1.03632 1.7485 0 0-1.7658.1666-2.00329-1.2588-3.53846-1.4255-1.53517 3.5744.63043 3.1612 3.26222-.4133 2.63179-.9108 1.78257-.595 2.22436.3159.44179 2.2163-.92961 1.979.8972-.6649 1.0506-1.9835 2.6139-7.8738 3.2415z" fill="#feca00"/><path d="m16 17c2.7614 0 5-2.2386 5-5 0-2.76142-2.2386-5-5-5s-5 2.23858-5 5c0 2.7614 2.2386 5 5 5z" fill="#feca00"/><path d="m12.9529 10.162c.5672-.1264 1.3427 1.3923 2.7424.8227 1.3998-.5696 1.6921-1.65709 2.3571-1.25909.6651.39799.7524 1.35629.3094 1.83789-.4431.4817-1.1949.5956-1.1949 1.2044 0 .6087-.1474 2.7796-.4347 2.1505-.8616-.6991-.3359-1.8125-1.3972-2.1505s-1.7058-.3267-2.4887-.1841c-.7829.1427.5259-.3918.8035-.8992.5652-.5437-.9562-1.3418-.6969-1.5226z" fill="#548650"/></g></svg>