<svg fill="none" height="12" viewBox="0 0 16 12" width="16" xmlns="http://www.w3.org/2000/svg" xmlns:xlink="http://www.w3.org/1999/xlink"><mask id="a" height="12" maskUnits="userSpaceOnUse" width="16" x="0" y="0"><path d="m0 0h16v12h-16z" fill="#fff"/></mask><mask id="b" fill="#000" height="16" maskUnits="userSpaceOnUse" width="24" x="-4" y="-2"><path d="m-4-2h24v16h-24z" fill="#fff"/><path clip-rule="evenodd" d="m8 6 8-6h-16zm0 0-8 6h16z" fill="#000" fill-rule="evenodd"/></mask><g mask="url(#a)"><rect fill="#5eaa22" height="12" rx="1" width="16"/><path clip-rule="evenodd" d="m8 6 8-6h-16zm0 0-8 6h16z" fill="#dd2c2b" fill-rule="evenodd"/><path d="m16 0 .75 1 3-2.25h-3.75zm-16 0v-1.25h-3.75l3 2.25zm0 12-.75-1-3 2.25h3.75zm16 0v1.25h3.75l-3-2.25zm-.75-13-8 6 1.5 2 8-6zm-15.25 2.25h16v-2.5h-16zm8.75 3.75-8-6-1.5 2 8 6zm-1.5 0-8 6 1.5 2 8-6zm-7.25 8.25h16v-2.5h-16zm16.75-2.25-8-6-1.5 2 8 6z" fill="#fff" mask="url(#b)"/><g clip-rule="evenodd" fill-rule="evenodd"><path d="m8 9c1.65685 0 3-1.34315 3-3s-1.34315-3-3-3-3 1.34315-3 3 1.34315 3 3 3z" fill="#fff"/><g fill="#dd2c2b"><path d="m8.08353 5.21436-.58778.30901.11226-.65451-.47553-.46352h.65716l.29389-.69098.2939.69098h.65716l-.47553.46352.11226.65451z"/><path d="m6.68104 7.21436-.58779.30901.11226-.65451-.47553-.46352h.65716l.2939-.69098.29389.69098h.65716l-.47552.46352.11225.65451z"/><path d="m9.48109 7.21436-.58779.30901.11226-.65451-.47553-.46352h.65716l.2939-.69098.29389.69098h.65712l-.47549.46352.11229.65451z"/></g></g></g></svg>