<svg fill="none" height="15" viewBox="0 0 20 15" width="20" xmlns="http://www.w3.org/2000/svg" xmlns:xlink="http://www.w3.org/1999/xlink"><mask id="a" height="15" maskUnits="userSpaceOnUse" width="20" x="0" y="0"><path d="m0 0h20v15h-20z" fill="#fff"/></mask><g mask="url(#a)"><path clip-rule="evenodd" d="m0 0h20v15h-20z" fill="#f7fcff" fill-rule="evenodd"/><g fill="#e31d1c"><path d="m.016968 3.4375h20v1.875h-20z"/><path clip-rule="evenodd" d="m0 0h20v1.875h-20z" fill-rule="evenodd"/><path d="m-.036804 6.875h20v1.875h-20z"/><path d="m.069794 10.25h20v1.875h-20z"/><path d="m.063416 13.4375h20v1.875h-20z"/></g><g clip-rule="evenodd" fill-rule="evenodd"><path d="m0 0h10v8.75h-10z" fill="#3d58db"/><path d="m5.08279 5.75818-1.82585 1.26645.58343-2.16913-1.34037-1.38564 1.81493-.07492.76786-2.14494.76787 2.14494h1.81184l-1.33728 1.46056.66973 2.0411z" fill="#f7fcff"/></g></g></svg>