<svg fill="none" height="24" viewBox="0 0 32 24" width="32" xmlns="http://www.w3.org/2000/svg" xmlns:xlink="http://www.w3.org/1999/xlink"><filter id="a" color-interpolation-filters="sRGB" filterUnits="userSpaceOnUse" height="16.4672" width="24.3197" x="3.80896" y="3.70398"><feFlood flood-opacity="0" result="BackgroundImageFix"/><feColorMatrix in="SourceAlpha" type="matrix" values="0 0 0 0 0 0 0 0 0 0 0 0 0 0 0 0 0 0 127 0"/><feOffset/><feColorMatrix type="matrix" values="0 0 0 0 0.0313726 0 0 0 0 0.368627 0 0 0 0 0 0 0 0 0.28 0"/><feBlend in2="BackgroundImageFix" mode="normal" result="effect1_dropShadow"/><feBlend in="SourceGraphic" in2="effect1_dropShadow" mode="normal" result="shape"/></filter><linearGradient id="b" gradientUnits="userSpaceOnUse" x1="32" x2="32" y1="24" y2="0"><stop offset="0" stop-color="#ffc600"/><stop offset="1" stop-color="#ffde42"/></linearGradient><mask id="c" height="24" maskUnits="userSpaceOnUse" width="32" x="0" y="0"><path d="m0 0h32v24h-32z" fill="#fff"/></mask><mask id="d" height="24" maskUnits="userSpaceOnUse" width="32" x="0" y="0"><path clip-rule="evenodd" d="m0 0v24h32v-24z" fill="#fff" fill-rule="evenodd"/></mask><mask id="e" height="11" maskUnits="userSpaceOnUse" width="10" x="11" y="7"><path clip-rule="evenodd" d="m16 17.2c2.7614 0 5-2.2386 5-5 0-2.76147-2.2386-5.00005-5-5.00005s-5 2.23858-5 5.00005c0 2.7614 2.2386 5 5 5z" fill="#fff" fill-rule="evenodd"/></mask><g mask="url(#c)"><path clip-rule="evenodd" d="m0 0v24h32v-24z" fill="#093" fill-rule="evenodd"/><g mask="url(#d)"><g clip-rule="evenodd" fill-rule="evenodd" filter="url(#a)"><path d="m15.9268 3.70404 12.2018 8.50346-12.3678 7.9638-11.95187-8.1286z" fill="#ffd221"/><path d="m15.9268 3.70404 12.2018 8.50346-12.3678 7.9638-11.95187-8.1286z" fill="url(#b)"/></g><path clip-rule="evenodd" d="m16 17.2c2.7614 0 5-2.2386 5-5 0-2.76147-2.2386-5.00005-5-5.00005s-5 2.23858-5 5.00005c0 2.7614 2.2386 5 5 5z" fill="#2e42a5" fill-rule="evenodd"/><g mask="url(#e)"><g fill="#f7fcff"><g clip-rule="evenodd" fill-rule="evenodd"><path d="m14.38 14.57-.2234.1174.0427-.2487-.1807-.1761.2497-.0363.1117-.2263.1117.2263.2497.0363-.1807.1761.0427.2487z"/><path d="m16.38 14.57-.2234.1174.0427-.2487-.1807-.1761.2497-.0363.1117-.2263.1117.2263.2497.0363-.1807.1761.0427.2487z"/><path d="m16.38 15.77-.2234.1174.0427-.2487-.1807-.1762.2497-.0363.1117-.2262.1117.2262.2497.0363-.1807.1762.0427.2487z"/><path d="m15.38 11.57-.2234.1174.0427-.2487-.1807-.1761.2497-.0363.1117-.2263.1117.2263.2497.0363-.1807.1761.0427.2487z"/><path d="m15.38 13.57-.2234.1174.0427-.2487-.1807-.1761.2497-.0363.1117-.2263.1117.2263.2497.0363-.1807.1761.0427.2487z"/><path d="m13.98 12.57-.2234.1174.0427-.2487-.1807-.1761.2497-.0363.1117-.2263.1117.2263.2497.0363-.1807.1761.0426.2487z"/><path d="m12.58 13.37-.2234.1175.0427-.2487-.1808-.1762.2498-.0363.1117-.2263.1116.2263.2498.0363-.1807.1762.0426.2487z"/><path d="m17.18 9.97002-.2233.11748.0426-.24876-.1807-.17614.2498-.03629.1116-.22629.1117.22629.2498.03629-.1808.17614.0427.24876z"/></g><path d="m9.9248 10.9971.1504-1.99429c4.7979.36178 8.5848 1.93939 11.313 4.74559l-1.434 1.3941c-2.3646-2.4322-5.6918-3.8183-10.0294-4.1454z"/></g><path d="m12.2894 10.6028.0515-.4973c3.093.3204 5.7459 1.505 7.9508 3.5515l-.3401.3664c-2.1247-1.9719-4.6761-3.1113-7.6622-3.4206z" fill="#093"/></g></g></g></svg>