<svg xmlns="http://www.w3.org/2000/svg" xmlns:xlink="http://www.w3.org/1999/xlink" width="32" height="24" viewBox="0 0 32 24">
  <defs>
    <rect id="fk---falkland-islands-a" width="32" height="24" x="0" y="0"/>
    <rect id="fk---falkland-islands-c" width="32" height="24" x="0" y="0"/>
    <path id="fk---falkland-islands-e" d="M0.0379462781,0.0326909109 C0.0379462781,5.9194717 -0.322833339,9.96398849 3.95022629,9.96398849 C8.22328593,9.96398849 8.22328593,4.9983397 7.9400373,0.0326909109 L0.0379462781,0.0326909109 Z"/>
    <rect id="fk---falkland-islands-g" width="18" height="14" x="0" y="0"/>
  </defs>
  <g fill="none" fill-rule="evenodd">
    <mask id="fk---falkland-islands-b" fill="#fff">
      <use xlink:href="#fk---falkland-islands-a"/>
    </mask>
    <g mask="url(#fk---falkland-islands-b)">
      <mask id="fk---falkland-islands-d" fill="#fff">
        <use xlink:href="#fk---falkland-islands-c"/>
      </mask>
      <use fill="#2E42A5" xlink:href="#fk---falkland-islands-c"/>
      <g mask="url(#fk---falkland-islands-d)">
        <g transform="translate(22 10)">
          <mask id="fk---falkland-islands-f" fill="#fff">
            <use xlink:href="#fk---falkland-islands-e"/>
          </mask>
          <path stroke="#F7FCFF" stroke-width=".5" d="M0.287763789,0.282690911 C0.287365086,0.547871993 0.286279289,0.827733922 0.284178699,1.27985647 C0.267114073,4.95277809 0.336161075,6.25107532 0.734601036,7.49666384 C1.21869205,9.01001159 2.17678571,9.71398849 3.95022629,9.71398849 C5.81650979,9.71398849 6.89327243,8.73354385 7.41225859,6.79578067 C7.8213716,5.26825605 7.8737905,3.39694065 7.70361302,0.282690911 L0.287763789,0.282690911 Z"/>
          <g mask="url(#fk---falkland-islands-f)">
            <g transform="translate(-1)">
              <path fill="#E1E5E8" d="M3.52188516,3.58698348 C3.25876438,3.39238772 3.07079175,3.13745219 2.95796728,2.8221769 C2.78873057,2.34926396 2.45386119,1.09033124 2.45386119,0.981012546 C2.45386119,0.871693854 2.00826331,0.981012546 2.00826331,0.981012546 C2.00826331,0.981012546 2.01447453,0.448631932 2.1826377,0.448631932 C2.35080086,0.448631932 2.35708877,-0.0449992357 2.76507424,0.0793101172 C3.1730597,0.20361947 3.49389631,0.659491142 3.90966498,0.659491142 C4.32543364,0.659491142 6.06342642,0.792073643 6.34277818,0.792073643 C6.62212994,0.792073643 7.35858186,1.3817364 7.35858186,1.82310913 C7.35858186,2.26448187 7.15775225,2.92209107 6.99978776,2.92209107 C6.84182327,2.92209107 6.64306407,3.30470649 6.34277818,3.17841724 C6.04249229,3.05212799 5.32559423,2.79205415 4.68342258,2.92209107 C4.04125093,3.05212799 3.90966498,2.97038646 3.90966498,3.17841724 C3.90966498,3.31710443 3.78040504,3.45329317 3.52188516,3.58698348 Z"/>
              <polygon fill="#49801E" points="2.6 3.279 7.756 3.279 6.868 4.426 3.225 4.426"/>
              <path stroke="#FFF" stroke-width="1.067" d="M2.53292012 8.29561809C3.12692541 8.50808722 3.5480618 8.60140896 3.79632929 8.57558331 4.20872259 8.53268473 4.57382524 8.06258213 4.84944095 8.06258213 5.12455452 8.06258213 5.65425697 8.5328409 6.06565019 8.57558331 6.31426826 8.60141392 6.68103879 8.50809218 7.16596179 8.29561809M1.55438379 6.93623905C1.75978875 6.76230944 2.08596752 6.6689877 2.53292012 6.65627383 3.12692541 6.86874296 3.5480618 6.9620647 3.79632929 6.93623905 4.20872259 6.89334047 4.57382524 6.42323787 4.84944095 6.42323787 5.12455452 6.42323787 5.65425697 6.89349664 6.06565019 6.93623905 6.31426826 6.96206965 6.68103879 6.86874791 7.16596179 6.65627383 7.43695218 6.35156441 7.74260426 6.36008591 8.08291805 6.68183836"/>
              <path fill="#FFF" fill-rule="nonzero" d="M1.4607613,5.5297506 L0.78640969,4.70329571 C1.050823,4.48754583 1.4948055,4.27491772 2.14291339,4.03989667 L2.45747285,4.02473262 C3.12940968,4.19740807 3.57863789,4.27224227 3.74313516,4.25575325 C3.79742111,4.25031169 3.88812972,4.20622458 4.05383087,4.09631502 C4.52438992,3.78419325 4.57006227,3.758757 4.84944095,3.758757 C5.10477486,3.758757 5.15744165,3.78324395 5.69115638,4.07148152 C5.79025471,4.12458817 5.82745931,4.14390794 5.88107648,4.16964721 C5.99375532,4.22373941 6.0744881,4.25131245 6.11878016,4.25574683 C6.24701089,4.26858486 6.50498769,4.2087407 6.86605912,4.06344712 C7.33560728,3.6366604 7.93043091,3.68087143 8.44210169,4.14703417 C8.78343842,4.45801239 9.05741629,4.70923704 9.26424176,4.90090378 L8.53921065,5.68327688 C8.33491948,5.4939587 8.06302524,5.24464463 7.72373441,4.93553035 C7.58883084,4.81262512 7.61783999,4.81340446 7.55788789,4.87836371 L7.37341221,5.0079815 C6.81316809,5.24452723 6.37083385,5.35298074 6.01252023,5.31710756 C5.82016591,5.29784968 5.6341593,5.23432199 5.41945253,5.13125061 C5.34755418,5.09673534 5.29623506,5.07008612 5.18428781,5.01002403 C4.92670824,4.8709158 4.82886327,4.82542366 4.84944095,4.82542366 C4.89432403,4.82542366 4.83206602,4.86009695 4.64343759,4.98521417 C4.33997326,5.18650203 4.12888248,5.28909851 3.84952342,5.31710113 C3.54069608,5.34805762 3.05902485,5.27357909 2.354606,5.09891 C1.89700851,5.27194454 1.59302412,5.42182984 1.4607613,5.5297506 Z"/>
            </g>
          </g>
        </g>
      </g>
      <g mask="url(#fk---falkland-islands-d)">
        <g transform="translate(22 17.8)">
          <path stroke="#B85F3C" d="M0.963263817,0.59371762 C1.61922906,1.22202645 1.7491638,1.74904048 1.35306802,2.17475972 C0.956972241,2.60047895 0.577328349,2.68970197 0.214136343,2.44242879"/>
          <path stroke="#B85F3C" d="M7.18548604,0.59371762 C7.84145129,1.22202645 7.97138602,1.74904048 7.57529024,2.17475972 C7.17919446,2.60047895 6.79955057,2.68970197 6.43635857,2.44242879" transform="matrix(-1 0 0 1 14.235 0)"/>
          <path stroke="#CB8B73" d="M0.320702364,1.35315835 C1.45084146,2.43313172 2.7105636,2.97311841 4.09986876,2.97311841 C5.48917392,2.97311841 6.74279987,2.56058804 7.86074659,1.7355273"/>
        </g>
      </g>
      <g mask="url(#fk---falkland-islands-d)">
        <mask id="fk---falkland-islands-h" fill="#fff">
          <use xlink:href="#fk---falkland-islands-g"/>
        </mask>
        <use fill="#2B409A" xlink:href="#fk---falkland-islands-g"/>
        <g mask="url(#fk---falkland-islands-h)">
          <g transform="translate(-3 -2)">
            <polygon fill="#F7FCFF" fill-rule="nonzero" points=".996 2.464 4.957 .727 21.09 13.575 23.179 16.156 18.944 16.737 12.363 11.2 7.067 7.47" transform="matrix(1 0 0 -1 0 17.464)"/>
            <polygon fill="#F50100" fill-rule="nonzero" points="1.538 2.075 3.556 1.067 22.429 17.225 19.596 17.225" transform="matrix(1 0 0 -1 0 18.292)"/>
            <g transform="matrix(-1 0 0 1 24 0)">
              <polygon fill="#F7FCFF" fill-rule="nonzero" points=".996 2.464 4.957 .727 21.09 13.575 23.179 16.156 18.944 16.737 12.363 11.2 7.067 7.47" transform="matrix(1 0 0 -1 0 17.464)"/>
              <polygon fill="#F50100" fill-rule="nonzero" points="1.131 2.324 3.149 1.316 11.185 8.234 13.568 9.007 23.38 16.881 20.547 16.881 10.74 9.194 8.135 8.267" transform="matrix(1 0 0 -1 0 18.198)"/>
            </g>
            <path fill="#F50100" stroke="#F7FCFF" stroke-width="1.5" d="M7.23451152,5.25 L7.23451152,-0.75 L10.7345115,-0.75 L10.7345115,5.25 L18.75,5.25 L18.75,8.75 L10.7345115,8.75 L10.7345115,14.75 L7.23451152,14.75 L7.23451152,8.75 L-0.75,8.75 L-0.75,5.25 L7.23451152,5.25 Z" transform="translate(3 2)"/>
          </g>
        </g>
      </g>
    </g>
  </g>
</svg>
