<svg fill="none" height="15" viewBox="0 0 20 15" width="20" xmlns="http://www.w3.org/2000/svg" xmlns:xlink="http://www.w3.org/1999/xlink"><mask id="a" height="15" maskUnits="userSpaceOnUse" width="20" x="0" y="0"><path d="m0 0h20v15h-20z" fill="#fff"/></mask><mask id="b" height="15" maskUnits="userSpaceOnUse" width="20" x="0" y="0"><path clip-rule="evenodd" d="m0 0v15h20v-15z" fill="#fff" fill-rule="evenodd"/></mask><g mask="url(#a)"><path clip-rule="evenodd" d="m0 0v15h20v-15z" fill="#3d58db" fill-rule="evenodd"/><g mask="url(#b)"><path clip-rule="evenodd" d="m0 15h20v-15z" fill="#579d20" fill-rule="evenodd"/><path d="m-.488746 15.4658-1.127344-1.5601 22.66309-15.12714 1.1273 1.56006z" fill="#feca00"/><g clip-rule="evenodd" fill="#f7fcff" fill-rule="evenodd"><path d="m2.2833 4.09159.85223-.59113.89251.53137-.3126-.9527.62419-.68172h-.84569l-.35841-1.00117-.3584 1.00117-.84714.03497.62563.64675zm3.53636 0 .85223-.59113.89252.53137-.31261-.9527.62419-.68172h-.84569l-.35841-1.00117-.3584 1.00117-.84714.03497.62563.64675z"/><path d="m4.15499 5.90897.85223-.59112.89251.53136-.3126-.95269.62419-.68173h-.84569l-.35841-1.00117-.3584 1.00117-.84714.03497.62563.64676zm-1.01946 1.3414-.85223.59112.27232-1.01245-.62563-.64676.84714-.03497.3584-1.00117.35841 1.00117h.84569l-.62419.68173.3126.95269zm3.53636 0-.85223.59112.27232-1.01245-.62563-.64676.84714-.03497.3584-1.00117.35841 1.00117h.84569l-.62419.68173.31261.95269z"/></g></g></g></svg>