<svg fill="none" height="15" viewBox="0 0 20 15" width="20" xmlns="http://www.w3.org/2000/svg" xmlns:xlink="http://www.w3.org/1999/xlink"><mask id="a" height="15" maskUnits="userSpaceOnUse" width="20" x="0" y="0"><path d="m0 0h20v15h-20z" fill="#fff"/></mask><mask id="b" height="15" maskUnits="userSpaceOnUse" width="20" x="0" y="0"><path clip-rule="evenodd" d="m0 0v15h20v-15z" fill="#fff" fill-rule="evenodd"/></mask><mask id="c" height="10" maskUnits="userSpaceOnUse" width="20" x="0" y="0"><path d="m0 0h20v10h-20z" fill="#fff"/></mask><g mask="url(#a)"><path clip-rule="evenodd" d="m0 0v15h20v-15z" fill="#2e42a5" fill-rule="evenodd"/><g mask="url(#b)"><path clip-rule="evenodd" d="m0 10v5h20v-5z" fill="#feca00" fill-rule="evenodd"/><g mask="url(#c)"><path d="m-1.41388 9.45574 3.9642.91706 8.45068-4.66933.8942-.52289 8.0272-4.19728 1.9017-1.325642-4.3498-.401163-7.0135 3.956255-5.06833 2.49072z" fill="#fff"/><path d="m-1.06561 10.0118 2.13434.7001 19.96187-11.220621h-2.9969z" fill="#f50100"/><path d="m21.4817 9.20687.1574.94373-4.1894.2224-6.7539-3.95579-.6367.21755-12.60935-6.377983 5.20614-1.002086 6.95998 3.844919 5.44463 2.63079z" fill="#fff"/><path d="m21.4962 9.7733-2.1344.7001-8.4999-4.80415-2.52007-.53675-10.3786-5.468428h2.996859l10.372811 5.338628 2.7552.64363z" fill="#f50100"/><path d="m8.24313-.78125v-.78125h-.78125v.78125zm0 3.75v.78125h.78125v-.78125zm-9.02438 0v-.78125h-.78125v.78125zm0 4.0625h-.78125v.78125h.78125zm9.02438 0h.78125v-.78125h-.78125zm0 4.99995h-.78125v.7813h.78125zm3.55537 0v.7813h.7812v-.7813zm0-4.99995v-.78125h-.7813v.78125zm8.9827 0v.78125h.7813v-.78125zm0-4.0625h.7813v-.78125h-.7813zm-8.9827 0h-.7813v.78125h.7813zm0-3.75h.7812v-.78125h-.7812zm-1.5625 3.75v.78125h.7812v-.78125zm0-2.1875h.7812v-.78125h-.7812zm-.43037 0v-.78125h-.78125v.78125zm0 2.1875h-.78125v.78125h.78125zm.43037 1.5625h.7812v-.78125h-.7812zm-.43037 0v-.78125h-.78125v.78125zm.43037.9375v.78125h.7812v-.78125zm-.43037 0h-.78125v.78125h.78125zm-1.5625-.9375h.78125v-.78125h-.78125zm-7.46188 0v-.78125h-.78125v.78125zm0 .9375h-.78125v.78125h.78125zm7.46188 0v.78125h.78125v-.78125zm1.5625 1.5625v-.78125h-.78125v.78125zm0 3.43755h-.78125v.7812h.78125zm.43037 0v.7812h.7812v-.7812zm0-3.43755h.7812v-.78125h-.7812zm1.5625-2.5v-.78125h-.7813v.78125zm0 .9375h-.7813v.78125h.7813zm7.4203-.9375h.7812v-.78125h-.7812zm0 .9375v.78125h.7812v-.78125zm-10.97567-5.46875h.78125v-1.5625h-.78125zm.78125 0v-.78125h-1.5625v.78125zm0 2.96875v-2.96875h-1.5625v2.96875zm-9.02438.78125h8.24313v-1.5625h-8.24313zm-.78125 0h.78125v-1.5625h-.78125zm.78125 0v-.78125h-1.5625v.78125zm0 2.5v-2.5h-1.5625v2.5zm0 .78125v-.78125h-1.5625v.78125zm0-.78125h-.78125v1.5625h.78125zm8.24313 0h-8.24313v1.5625h8.24313zm.78125 5v-4.21875h-1.5625v4.21875zm0 .7812v-.7812h-1.5625v.7812zm0-.7812h-.78125v1.5625h.78125zm1.99282 0h-1.99282v1.5625h1.99282zm.7813 0h-.7813v1.5625h.7813zm-.7813 0v.7812h1.5625v-.7812zm0-4.21875v4.21875h1.5625v-4.21875zm8.9828-.78125h-8.2015v1.5625h8.2015zm.7812 0h-.7812v1.5625h.7812zm-.7812 0v.78125h1.5625v-.78125zm0-2.5v2.5h1.5625v-2.5zm0-.78125v.78125h1.5625v-.78125zm0 .78125h.7812v-1.5625h-.7812zm-8.2015 0h8.2015v-1.5625h-8.2015zm-.7813-3.75v2.96875h1.5625v-2.96875zm0-.78125v.78125h1.5625v-.78125zm0 .78125h.7813v-1.5625h-.7813zm-1.99282 0h1.99282v-1.5625h-1.99282zm1.99282 2.96875v-2.1875h-1.56248v2.1875zm-.7812-2.96875h-.43037v1.5625h.43037zm-1.21162.78125v2.1875h1.56252v-2.1875zm.78125 2.96875h.43037v-1.5625h-.43037zm.43037 0h-.43037v1.5625h.43037zm.7812 1.71875v-.9375h-1.56248v.9375zm-1.21157.78125h.43037v-1.5625h-.43037zm-.78125-1.71875v.9375h1.56252v-.9375zm-.78125-.78125h-7.46188v1.5625h7.46188zm-8.24313.78125v.9375h1.5625v-.9375zm.78125 1.71875h7.46188v-1.5625h-7.46188zm8.24313-.78125v-.9375h-1.5625v.9375zm0 1.5625v3.43755h1.56252v-3.43755zm.78125 4.21875h.43037v-1.5625h-.43037zm1.21157-.7812v-3.43755h-1.56248v3.43755zm-.7812-4.2188h-.43037v1.5625h.43037zm.7812-1.71875v.9375h1.5625v-.9375zm8.2016-.78125h-7.4203v1.5625h7.4203zm.7812 1.71875v-.9375h-1.5625v.9375zm-8.2015.78125h7.4203v-1.5625h-7.4203z" fill="#fff"/><path clip-rule="evenodd" d="m11.0577-.833252h-2.11539v4.583332h-8.94231v2.5h8.94231v5.83332h2.11539v-5.83332h10.1923v-2.5h-10.1923z" fill="#f50100" fill-rule="evenodd"/></g><g clip-rule="evenodd" fill-rule="evenodd"><path d="m10.0313 6.625c.9492 0 1.7187-.76951 1.7187-1.71875s-.7695-1.71875-1.7187-1.71875c-.94926 0-1.71877.76951-1.71877 1.71875s.76951 1.71875 1.71877 1.71875z" fill="#2e42a5"/><g fill="#feca00"><path d="m10.0625 5.43206-.81117.56446.28617-.94589-.7875-.59704.98803-.02014.32447-.93345.3245.93345.988.02014-.7875.59704.2862.94589z"/><path d="m4.4375 5.36005-.67597.47039.23847-.78825-.65625-.49753.82336-.01678.27039-.77788.27039.77788.82336.01678-.65625.49753.23847.78825z"/><path d="m15.6875 5.36005-.676.47039.2385-.78825-.6562-.49753.8233-.01678.2704-.77788.2704.77788.8233.01678-.6562.49753.2385.78825z"/><path d="m10.0625 2.36005-.67597.47039.23847-.78825-.65625-.49753.82336-.01678.27039-.77788.2704.77788.8233.01678-.6562.49753.2385.78825z"/><path d="m10.0625 8.98505-.67597.47039.23847-.78825-.65625-.49753.82336-.01678.27039-.77788.2704.77788.8233.01678-.6562.49753.2385.78825z"/></g></g></g></g></svg>