<svg fill="none" height="15" viewBox="0 0 20 15" width="20" xmlns="http://www.w3.org/2000/svg" xmlns:xlink="http://www.w3.org/1999/xlink"><mask id="a" height="15" maskUnits="userSpaceOnUse" width="20" x="0" y="0"><path d="m0 0h20v15h-20z" fill="#fff"/></mask><g clip-rule="evenodd" fill-rule="evenodd" mask="url(#a)"><path d="m5 0h10v15h-10z" fill="#f7fcff"/><g fill="#e31d1c"><path d="m8.95558 5.25159 1.02756-1.50159.01686 8.75h-.42822l.26273-2.1654s-2.88228.5294-2.644.2624.37553-.75695.37553-.75695l-2.56604-1.74764s.40477-.00518.73407-.20511c.3293-.19992-.3293-1.38562-.3293-1.38562l1.29556.19241.49018-.5438.97748 1.04433h.43939l-.43939-2.39212zm1.04442 7.24841v-8.75l1.0444 1.50159.7876-.44909-.4394 2.39212h.4394l.9775-1.04433.4902.5438 1.2955-.19241s-.6586 1.1857-.3293 1.38562c.3293.19993.7341.20511.7341.20511l-2.566 1.74764s.1372.48995.3755.75695-2.644-.2624-2.644-.2624l.2627 2.1654z"/><path d="m15 0h5v15h-5z"/><path d="m0 0h5v15h-5z"/></g></g></svg>