<svg fill="none" height="15" viewBox="0 0 20 15" width="20" xmlns="http://www.w3.org/2000/svg" xmlns:xlink="http://www.w3.org/1999/xlink"><mask id="a" height="15" maskUnits="userSpaceOnUse" width="20" x="0" y="0"><path d="m0 0h20v15h-20z" fill="#fff"/></mask><g clip-rule="evenodd" fill-rule="evenodd" mask="url(#a)"><path d="m14 0h6v15h-6z" fill="#409100"/><path d="m0 0h6v15h-6z" fill="#409100"/><path d="m6 0h8v15h-8z" fill="#fff"/><path d="m7.93461 11.7315c-.97227.1582-1.27884-.3163-1.27884-.3163l.12245-.1006c.08223-.0675.35924-.0444.62825-.0219.13156.0111.26121.0219.36523.0219.15175 0 .32638-.0229.50831-.0467.19782-.026.40427-.053.59932-.053.37445 0-1.10763-.4897-1.42437-.1894s-1.20496-.1392-1.20496-.3898c0-.1709.32699-.1086.62526-.0517.13887.0265.27151.0517.36202.0517.28492 0-.28491-.5558-.58151-.5558-.29661 0 .2966-.12905.58151-.12905.16224 0 .31299.04185.44281.07785l.00001.0001c.09817.0272.18437.0511.25451.0511.16291 0-.81805-.4216-.98224-.4216h.81933c.2812 0 .34948.03964.41419.0772.05827.03382.11365.06596.31899.06596.43338 0 .19608-.23705.19608-.23705s-1.46368-.15196-1.74859-.36184c-.19265-.14193.32435-.09192.813-.04465.234.02264.46151.04465.60146.04465.43223 0-.91187-.30854-1.12955-.30854h.99055c.21684 0 .4549.06973.70467.14289.27563.08073.56552.16565.85691.16565.30719 0-.29276-.18326-.95184-.38457-.5326-.16267-1.1038-.33714-1.2661-.43623-.16792-.10252-.04019-.06282.19247.0095.27045.08407.68268.21221.93702.21221.47312 0-.62946-.46416-.92926-.46416s-.58682-.13493-.31674-.25966c.16583-.07658.59774.03876.97391.13922v.00001c.23651.06316.45098.12043.56345.12043.13636 0 .23719.0531.34448.1096.12196.06423.25228.13285.45261.13285.37659 0-.79709-.50211-1.28453-.50211s-.57027-.23648-.27705-.23648-.65636-.40288-.65636-.40288-.13766-.28573.20023-.28573h.45613c.15632 0-.15633-.49556-.45613-.49556s-.03834-.14971.45613-.14971c.30068 0 .47658.10377.68824.22864.13641.08049.28768.16973.49678.24559.53352.19358.13108-.32452 0-.32452s-1.47824-.42228-1.47824-.42228.13689-.15556 0-.36737c-.10331-.15984.32661-.07844.58841-.02887h.00002c.08511.01612.15245.02887.17792.02887.06197 0 .23995.04423.45851.09855l.00003.00001c.14749.03666.31346.07791.47474.11325.40026.08774-1.35969-.64629-1.56274-.64629-.20304 0 .43338-.12062.80783-.12062.1841 0 .2729.02916.36318.0588.09334.03065.18826.06182.39173.06182.40026 0-.75491-.42902-1.12936-.42902s-.15307-.36942 0-.36942c.05959 0 .21041.01982.39461.04402h.00001c.28892.03797.65996.08674.88991.08674.17507 0 .01507-.04906-.21763-.12041-.26783-.08212-.63199-.19378-.69245-.29416-.06673-.1108.06906-.09072.30585-.05572h.00001v.00001h.00001.00001c.04279.00632.08887.01314.13765.01975.16145.0846.29632.13924.31604.07472.00568-.01856.01835-.03182.03448-.04137.03813.00167.07686.00261.11603.00261.22319 0 .12006-.03402-.09476-.07472l-.01925-.00588c-.32596-.09966-1.03133-.3127-.76746-.18123.05168.02575.10976.05752.17002.09107-.17786-.02357-.32733-.0399-.377-.0399-.17838 0-.35726-.13783 0-.13783h.71189c-.22138 0-.53352 0-.53352-.17392 0-.11837.24714-.07561.47481-.03623.10684.01849.20939.03623.2801.03623.22138 0 .27647 0 .15517-.10347-.11517-.09824-.51239-.09776-.75907-.09746l-.03802.00003c-.24164 0 .51237-.12626.79709-.12626.04786 0 .06899 0 .06903-.0009.00003-.00072-.01312-.002-.03667-.00429-.12388-.01204-.53549-.05207-.82945-.18505-.26297-.11896-.0326-.08914.26902-.05009.18071.02339.38699.05009.52807.05009.37659 0-.15517-.25323-.55544-.25323-.32128 0-.16819-.08776.03046-.20164l.00001-.00001c.04884-.028.10044-.05757.14841-.08782.14443-.09103.25016.06428.31219.1554.04238.06227.06437.09457.06437-.00216 0-.0944-.02436-.1543-.04412-.18579.01057.00888.02499.01979.04412.03255.15518.10353 0-.2716 0-.2716s-.15517-.1036 0-.1036c.15518 0-.04991-.17809-.15517-.17809s.27647-.17039.27647-.17039l.08411-.72144s.20808.78611.20808.89183v.55329c0 .13173-.0931.22363-.1554.28512-.07816.07712-.10783.1064.1554.1064.4731 0 .453.15118.165.15118s.0827.19024.5998.19024-.4337.22369-.7648.22369c-.33116 0 .3311.10347.7648.10347.2928 0-.0076.10121-.2847.19459-.1333.0449-.2612.088-.3151.11716-.086.04645.1259.04484.3505.03246-.118.03477-.2352.07041-.3242.0976-.1078.03298-.1443.04413-.1435.04861.0004.00229.0105.00284.0259.00368.0453.00246.1359.00739.1541.06707.0272.08907.2739-.04896.507-.17938.0374-.02089.0743-.04159.11-.06112.0613-.00519.1007-.00892.1007-.00892s.2143.24726.2143.39826c0 .08806-.2819.11402-.5826.1417l-.0303.00279c.0151-.01985-.0488-.00946-.1427.01376-.156.01605-.3032.03591-.4042.06872-.0965.03133-.0802.04441-.0018.04721l-.0213.00651c-.0738.02258-.0992.03032-.0986.03478.0003.00232.0076.00375.0189.00592.0326.00633.098.01898.1162.07866.0272.08907.192-.0239.3476-.13065l.0147-.01008.1481-.00987c.1694-.01146.3324-.02248.4217-.02248.2791 0-.2791.13455-.4925.13455-.0909 0 .0236.02057.1981.05194.2357.04236.5809.10441.6784.16212.1166.06897-.2257.04323-.5303.02032-.139-.01046-.2701-.02032-.3462-.02032-.2429 0-.288.19845-.1219.19845h.6144c.2324 0 .4743.35549.384.35549-.0273 0-.0859.01832-.1675.04386-.1879.05876-.4979.15575-.8309.15575-.4777 0 .6144.00051.8287 0s.8256.00051.8256.21181c0 .13145-.1157.16032-.2673.19816-.0922.02298-.1976.04928-.2983.10389-.2666.14451.7972.27579.7972.27579s-.421.13095-.6259.13095.0952.19357.6259.19357c.4105 0 .29.22308.2144.36299-.0221.04094-.0404.07475-.0404.09378 0 .03679-.0777.06854-.1901.1145-.1445.05905-.3464.14156-.5146.28838-.1935.16892.0417.11926.3073.06315.1449-.03062.299-.06315.3974-.06315.2789 0 .3977.01163.3069.14689-.0908.13525-.9019.34925-1.1068.34925h1.1068c.3069 0-.0859.24245-.4809.24245-.2649 0-.4131.0997-.5108.16539-.048.03226-.0838.05632-.1151.05632h.7999c.0408 0 .0856-.06515.1266-.12485.0361-.0525.0693-.10079.0944-.09686.3618.05679.1995.51226 0 .51226-.229 0-.9257.15356-.816.30854.053.075.1359.04111.2702-.01385.1433-.05859.3451-.14113.6317-.14113.5555 0 .0534.15498-.0859.15498-.1394 0-.7291.11258-.9257.20988-.1311.06496.3253.04319.7793.02154.2261-.01079.4516-.02154.6036-.02154.4572 0-1.0838.38901-1.6494.38901-.5657 0 .3762.14939.5656.14939.0727 0 .2138.01899.3876.04241.2794.03764.6436.08664.9452.08664.4893 0-.4893.3224-.9272.3224l-.1001-.0003c-.3904-.0016-.684-.0028-.4949.2337.1051.1316.4549.0958.8199.0584.3466-.0355.7069-.0724.8848.0311.3196.1859-1.0946.1699-1.7047.1629-.0872-.0009-.158-.0018-.2049-.0018-.3752 0 .3751.1392 1.0209.1392h.0814c.577-.0004.7138-.0005.7138.1894 0 .1668-1.2569.1236-1.7815.1056-.0995-.0034-.1727-.0059-.2059-.0059-.1005 0-.1587.0607-.219.1236-.0646.0673-.1315.1371-.2553.1371-.1019 0-.1498-.0652-.1935-.1247-.0588-.0801-.1099-.1498-.2752-.0354-.288.1993.288 2.2098.288 2.2098h-1.55485v-1.8935s-.50597-.1581-1.47824 0zm1.78625-9.22121c-.00215.00045.00384.01.02443.02728-.01198-.01909-.02228-.02773-.02443-.02728zm-.54096 7.50451c-.24567-.0925.37688-.09725.66486-.09725.09286 0 .12583 0 .12789.00796.00113.00439-.00712.01119-.0199.02174-.036.0297-.10799.08915-.10799.20795 0 .1773-.23341.0633-.45396-.0444h-.00001c-.07501-.0366-.14854-.0725-.21089-.096zm.509-.72377c-.28798 0-.91053.00475-.66486.09724.06235.02347.13588.05938.21089.09601l.00001.00001c.22055.10771.45396.22169.45396.04437 0-.11882.07199-.17822.10799-.20793.01278-.01054.02102-.01735.01989-.02173-.00205-.00797-.03502-.00797-.12788-.00797zm-.51931-.41882c-.20057-.04857.30769-.05107.5428-.05107.07722 0 .10372 0 .10448.00442.0004.00231-.00623.00583-.01631.01118-.02939.0156-.08817.04681-.08817.10922 0 .09313-.19055.03326-.37062-.02331-.06124-.01925-.12128-.03811-.17218-.05044zm.50581-1.98085c-.32596-.09966-1.03133-.3127-.76746-.18123.06696.03336.14467.07684.22394.1212h.00002v.00001c.2331.13042.47977.26844.507.17938.01825-.05968.10886-.06461.15417-.06707.01532-.00084.02546-.00139.02587-.00368.0008-.00449-.03568-.01564-.14354-.04861zm-.76746-.80775c-.26387-.13147.4415.08157.76746.18123.10786.03298.14434.04413.14354.04861-.00041.00229-.01055.00284-.02587.00368-.04531.00246-.13592.00739-.15417.06707-.02723.08907-.2739-.04896-.507-.17938l-.00002-.00001c-.07927-.04436-.15698-.08784-.22394-.1212zm.76746-.60192c-.32596-.09965-1.03133-.3127-.76746-.18123.06696.03337.14467.07685.22394.1212l.00002.00001c.2331.13043.47977.26845.507.17938.01825-.05968.10886-.0646.15417-.06707.01532-.00083.02546-.00138.02587-.00367.0008-.00449-.03568-.01564-.14354-.04862zm.7053 4.27923c.288 0 .9106.00475.6649.09723-.0624.02348-.1359.05938-.2109.09602-.2206.10773-.454.22173-.454.04438 0-.11882-.072-.17823-.108-.20793-.0127-.01055-.021-.01735-.0199-.02174.0021-.00796.0351-.00796.1279-.00796zm.6649-.37265c.2457-.09249-.3769-.09724-.6649-.09724-.0928 0-.1258 0-.1279.00797-.0011.00438.0072.01118.0199.02173.036.02971.108.08911.108.20793 0 .17732.2334.06334.454-.04437v-.00001c.075-.03663.1485-.07254.2109-.09601zm.3853-1.08345v-.00001l.0001-.00001.0001-.00002.0001-.00003c.0254-.00587.0261-.00603-.0072.00204-.0662.01603-.2049.07058-.3611.132-.3169.12465-.7057.27752-.7057.19391 0-.06241-.0587-.09361-.0881-.10922-.0101-.00535-.0167-.00887-.0163-.01118.0007-.00442.0272-.00442.1044-.00442.1959 0 .9453-.17336 1.0737-.20306zm-.2692-1.90795c.2638-.13147-.4415.08157-.7675.18123v.00001.00001h-.0001v.00002c-.1078.03294-.1442.04409-.1434.04857.0004.00229.0105.00284.0259.00368.0453.00246.1359.00739.1541.06707.0272.08906.2739-.04896.507-.17938v-.00002c.0793-.04435.157-.08783.224-.12119zm-.7675.80774c.326-.09965 1.0313-.31269.7675-.18123-.067.03337-.1447.07684-.224.1212v.00001.00001c-.2331.13042-.4798.26844-.507.17938-.0182-.05969-.1088-.06461-.1541-.06708-.0154-.00083-.0255-.00138-.0259-.00367-.0008-.00449.0356-.01563.1434-.04859h.0001v-.00001-.00001zm.7675-1.43426c.2638-.13147-.4415.08158-.7675.18123v.00001.00001h-.0001c-.1078.03296-.1442.04411-.1434.04859.0004.00229.0105.00285.0259.00368.0453.00246.1359.00739.1541.06707.0272.08907.2739-.04896.507-.17938v-.00001c.0793-.04436.157-.08784.224-.1212zm-.9819-.36628c.2248-.06874.7116-.21496.534-.10986-.0451.02667-.0969.06226-.1499.09857-.1556.10675-.3204.21971-.3476.13065-.0182-.05968-.0836-.07234-.1162-.07867-.0113-.00217-.0186-.00359-.0189-.00592-.0006-.00445.0248-.01219.0986-.03477zm.1435 2.38371c-.2582 0 0-.20404 0-.20404h.1329c.0456 0 .0864-.01879.1399-.04348.1024-.04722.2515-.11599.571-.11599.4864 0-.5856.36351-.8438.36351z" fill="#409100"/></g></svg>