<svg fill="none" height="15" viewBox="0 0 20 15" width="20" xmlns="http://www.w3.org/2000/svg" xmlns:xlink="http://www.w3.org/1999/xlink"><mask id="a" height="15" maskUnits="userSpaceOnUse" width="20" x="0" y="0"><path d="m0 0h20v15h-20z" fill="#fff"/></mask><g clip-rule="evenodd" fill-rule="evenodd" mask="url(#a)"><path d="m0 0h20v15h-20z" fill="#f50100"/><path d="m10.3125 12.0293-.0044 1.4707s-.68364-1.1946-.62948-1.1946c.05415 0 .25713-.3953.34068-.5914.0836-.1961-.18147-.3351-.22584-.1956-.04438.1395-.22595.3365-.47425.4946-.2483.158-.30315-.2381-.30315-.331 0-.0716.09722-.0682.25046-.0628.04581.0016.09663.0034.15135.0034.23776 0 .26075-.5271.20659-.662-.03023-.0753-.10007.0004-.20804.1174-.08546.0925-.19481.211-.3273.3009-.29986.2036-.46613-.011-.46613-.2035 0-.108.06191-.1057.15777-.1022.0751.0028.17103.0063.27438-.0418.23529-.1095.40362-.5684.36273-.6089-.03279-.0324-.22432.0801-.43774.2056-.05278.031-.1069.0628-.16028.0934-.26927.1543-.38174-.21-.38174-.299 0-.0889.25285-.1011.38174-.1011.12888 0 .59145-.2819.85877-.63865.26732-.3568.19133-.78052 0-.91801-.13282-.09544-.22366.04155-.32212.19004-.04338.06542-.08824.13307-.13883.18406-.08068.08132-.18587.29765-.28325.49791-.10223.21025-.19585.40275-.24346.40275-.09294 0-.37568-.3015-.37568-.3015l-1.00929.3015s.41707.2268.55431.2268.19067.2474.19067.3009c0 .0534-.22769.132-.38925.0785-.16156-.0534-.06265-.2232-.06265-.2232l-.52966-.3044s-.41171.1482-.41171.3044c0 .1563-.18608.2232-.40605.2232-.21996 0-.19082-.0901 0-.3794.04255-.0645.07343-.1003.09573-.1169.01466.0004.02986.0005.04562.0002.01845.0319.0056.1167.0056.1167s.58953-.2195.2591-.1482c-.10214.022-.18977.0304-.2647.0315-.00804-.0139-.02203-.0177-.04562-.0002-.08412-.002-.15027-.0128-.20162-.0211-.03476-.0057-.06274-.0102-.08493-.0102-.08783 0-.43583-.20421-.43583-.20421s.12711-.12964.43583-.12964c.30873 0 .19082.12964.19082.12964h.73648s-.33043-.23114-.43853-.23114c-.05471 0-.13034-.04572-.20507-.09088-.07293-.04407-.14499-.08762-.19586-.08762-.10299 0-.08784-.23295.10298-.23295.19083 0 .40605.16518.40605.23295s.41171.28.41171.28l1.08103-.28s-.15889-.36541 0-.36541.6617-.32583.86562-.73333c.20393-.40749.18204-.59742.07306-.59742s-.2017.18219-.2017.2598-.26271.47839-.32401.56503c-.0613.08663-.27875-.08664-.1253-.29892.13602-.18816.12935-.4692.12608-.60707-.00042-.01767-.00078-.03299-.00078-.04547 0-.10975-.27875.10976-.27875.50075s-.61643.53878-.78908.53878c-.17266 0 0-.31548.3277-.38699.2577-.05624.21415-.39109.18379-.6246-.00825-.06343-.01552-.11939-.01552-.16025 0-.19126-.39248.27514-.54533.51874s-.78852.82796-.9746.90424c-.18609.07628-.54078-.16589-.62629-.33921-.06281-.12731.1303-.1509.39613-.18338.0961-.01174.20169-.02465.30814-.04403.40093-.073.94598-.85636 1.04947-1.00784.1035-.15148-.15285-.26437-.29308 0-.13925.26251-.82467.50976-1.04964.59091l-.0047.0017c-.21996.07935-.40632-.2798-.40632-.44113 0-.09688.10939-.0774.28362-.04638.1159.02064.26049.04638.42065.04638.40093 0 .89662-.69923.89662-.87425 0-.17501-.21954-.09863-.37681 0-.03934.02468-.08477.05957-.13483.09801-.15004.11523-.3417.26243-.53598.26243-.25909 0-.46776-.18542-.46776-.18542s-.08551-.27365.12999-.27365h.59687c.31932 0 .83788-.67658.83788-.80238 0-.0686-.24615.04103-.50182.15491-.21314.09493-.43289.19282-.52214.19282-.19631 0-.62629-.1824-.62629-.34773 0-.06956 0-.10192.01606-.11607.02209-.01948.07462-.00445.19944-.00445.09668 0 .18929.02426.29142.05101.12551.03287.2654.06951.44487.06951.21995 0 .4048-.16984.52469-.27999.05753-.05286.1001-.09197.12441-.09197.07496 0-.07496-.25627-.21954-.25627-.05987 0-.15.04394-.25562.09544-.14943.07285-.32986.16083-.49944.16083-.28944 0-.62629-.46163-.62629-.58503 0-.12339.16076-.07869.40632 0 .24557.07869.42338.13519.97503 0 .55164-.13518.21954-.33495.07931-.33495h-1.05434c-.40639 0-.40633-.58724-.40632-.69757v-.00172c0-.08308.08527-.03569.29363.0801.057.03167.12321.06847.19941.10911.27605.14724.6478.12021.91239.10097.07543-.00548.14215-.01033.19546-.01033.24032 0-.14023-.27985-.14023-.27985s-.35737 0-.96762-.25975c-.61024-.25975-.49304-.9697-.49304-.9697s.18209-.25362.30334 0c.12125.25361.89151.89219 1.15732.89219.16557 0 .1612-.05333.15755-.09788-.00221-.02698-.00416-.05074.03204-.0575.09596-.01794.87005.24343.87005.24343.31488.02264.36346.48774.36346.76308 0 .27533.23232.52037.59012.52037.26798 0 .15994-.40182.06979-.73712-.03022-.1124-.05842-.21731-.06979-.29712-.04526-.31788-1.03455-.50156-1.03455-.50156-.35005-.05542-.29311-.25555-.29311-.25555.13156-.00482.32373-.08402.32373-.08402.21109-.04747-.86906-.15302-.86906-.15302-.23939-.022-.14023-.3118-.14023-.3118 0-.13114.10342-.06131.25108.03839.1414.09548.32335.21834.4939.21834.34864 0-.1022-.25673-.22769-.25673-.01738 0-.02534 0-.02537-.00047-.00017-.00292.30706-.02405.56772-.17665.16188-.09476.30986-.03742.50035.03639.16554.06415.36319.14073.62995.14073.32543 0 .31965.20057.31242.45133-.00551.19134-.01187.41189.1274.59487.22815.29973.33425.35821.37675.36686.0425-.00865.1486-.06713.3767-.36686.1393-.18298.133-.40353.1274-.59487-.0072-.25076-.013-.45133.3125-.45133.2667 0 .4644-.07658.6299-.14073.1905-.07381.3385-.13115.5004-.03639.2606.1526.5679.17373.5677.17665 0 .00047-.008.00047-.0254.00047-.1255 0-.5763.25673-.2277.25673.1706 0 .3525-.12286.4939-.21834.1477-.0997.2511-.16953.2511-.03839 0 0 .0992.2898-.1402.3118 0 0-1.0802.10555-.8691.15302 0 0 .1922.0792.3238.08402 0 0 .0569.20013-.2932.25555 0 0-.9892.18368-1.0345.50156-.0114.07981-.0396.18472-.0698.29712-.0902.3353-.1982.73712.0698.73712.3578 0 .5901-.24504.5901-.52037 0-.27534.0486-.74044.3635-.76308 0 0 .7741-.26137.87-.24343.0362.00676.0343.03052.0321.0575-.0037.04455-.0081.09788.1575.09788.2658 0 1.0361-.63858 1.1573-.89219.1213-.25362.3034 0 .3034 0s.1172.70995-.4931.9697c-.6102.25975-.9676.25975-.9676.25975s-.3805.27985-.1402.27985c.0533 0 .12.00485.1954.01033.2646.01924.6364.04627.9124-.10097.0762-.04064.1424-.07744.1994-.10911.2084-.11579.2937-.16318.2937-.0801v.00172c0 .11033 0 .69757-.4064.69757h-1.0543c-.1402 0-.4723.19977.0793.33495.5517.13519.7295.07869.975 0 .2456-.07869.4064-.12339.4064 0 0 .1234-.3369.58503-.6263.58503-.1696 0-.35-.08798-.4995-.16083-.1056-.0515-.1957-.09544-.2556-.09544-.1446 0-.2945.25627-.2195.25627.0243 0 .0669.03911.1244.09197.1199.11015.3047.27999.5247.27999.1795 0 .3193-.03664.4449-.06951.1021-.02675.1947-.05101.2914-.05101.1248 0 .1773-.01503.1994.00445.0161.01415.0161.04651.0161.11607 0 .16533-.43.34773-.6263.34773-.0893 0-.309-.09789-.5222-.19282-.2556-.11387-.5018-.22351-.5018-.15491 0 .1258.5186.80238.8379.80238h.5969c.2155 0 .13.27365.13.27365s-.2087.18542-.4678.18542c-.1943 0-.3859-.1472-.536-.26243-.05-.03844-.0955-.07333-.1348-.09801-.1573-.09863-.3768-.17501-.3768 0 0 .17502.4957.87425.8966.87425.1602 0 .3048-.02574.4206-.04638.1743-.03102.2837-.0505.2837.04638 0 .16133-.1864.52048-.4064.44113l-.0047-.0017c-.2249-.08115-.9103-.3284-1.0496-.59091-.1402-.26437-.3966-.15148-.2931 0s.6486.93484 1.0495 1.00784c.1064.01938.212.03229.3081.04403.2659.03248.459.05607.3962.18338-.0855.17332-.4402.41549-.6263.33921s-.8218-.66064-.9746-.90424c-.1529-.2436-.5453-.71-.5453-.51874 0 .04086-.0073.09682-.0156.16025-.0303.23351-.0739.56836.1838.6246.3277.07151.5004.38699.3277.38699-.1726 0-.7891-.14779-.7891-.53878s-.2787-.6105-.2787-.50075c0 .01248-.0004.0278-.0008.04547-.0033.13787-.0099.41891.1261.60707.1534.21228-.064.38555-.1253.29892-.0613-.08664-.324-.48742-.324-.56503s-.0927-.2598-.2017-.2598-.1309.18993.073.59742c.204.4075.7068.73333.8657.73333s0 .36541 0 .36541l1.081.28s.4117-.21223.4117-.28.2152-.23295.406-.23295c.1909 0 .206.23295.103.23295-.0508 0-.1229.04355-.1958.08762-.0748.04516-.1504.09088-.2051.09088-.1081 0-.4385.23114-.4385.23114h.7364s-.1179-.12964.1909-.12964c.3087 0 .4358.12964.4358.12964s-.348.20421-.4358.20421c-.0222 0-.0502.0045-.085.0102-.0513.0083-.1175.0191-.2016.0211-.0236-.0175-.0376-.0137-.0456.0002-.0749-.0011-.1626-.0095-.2647-.0315-.3304-.0713.2591.1482.2591.1482s-.0129-.0848.0056-.1167c.0158.0003.031.0002.0456-.0002.0223.0166.0532.0524.0957.1169.1909.2893.22.3794 0 .3794-.2199 0-.406-.0669-.406-.2232 0-.1562-.4117-.3044-.4117-.3044l-.5297.3044s.0989.1698-.0626.2232c-.1616.0535-.3893-.0251-.3893-.0785 0-.0535.0535-.3009.1907-.3009s.5543-.2268.5543-.2268l-1.0093-.3015s-.2827.3015-.3757.3015c-.0476 0-.1412-.1925-.2434-.40275-.0974-.20026-.2026-.41659-.2833-.49791-.0506-.05099-.0954-.11864-.1388-.18406-.0985-.14849-.1893-.28548-.3221-.19004-.1914.13749-.2673.56121 0 .91801.2673.35675.7299.63865.8588.63865.1288 0 .3817.0122.3817.1011 0 .089-.1125.4533-.3817.299-.0534-.0306-.1076-.0624-.1603-.0934-.2135-.1255-.405-.238-.4378-.2056-.0409.0405.1275.4994.3628.6089.1033.0481.1992.0446.2743.0418.0959-.0035.1578-.0058.1578.1022 0 .1925-.1663.4071-.4661.2035-.1325-.0899-.2419-.2084-.3273-.3009-.108-.117-.1778-.1927-.2081-.1174-.0541.1349-.0311.662.2066.662.0548 0 .1056-.0018.1514-.0034.1532-.0054.2504-.0088.2504.0628 0 .0929-.0548.489-.3031.331-.2483-.1581-.4299-.3551-.4743-.4946-.0443-.1395-.3094-.0005-.2258.1956.0835.1961.2865.5914.3407.5914.0541 0-.6295 1.1946-.6295 1.1946z" fill="#1a1a1a"/></g></svg>