<svg fill="none" height="24" viewBox="0 0 32 24" width="32" xmlns="http://www.w3.org/2000/svg" xmlns:xlink="http://www.w3.org/1999/xlink"><mask id="a" height="24" maskUnits="userSpaceOnUse" width="32" x="0" y="0"><path d="m0 0h32v24h-32z" fill="#fff"/></mask><g clip-rule="evenodd" fill-rule="evenodd" mask="url(#a)"><path d="m22 0h10v24h-10z" fill="#409100"/><path d="m0 0h10v24h-10z" fill="#409100"/><path d="m10 0h12v24h-12z" fill="#fff"/><path d="m12.6954 18.7705c-1.5557.2531-2.0462-.5062-2.0462-.5062l.1959-.1609c.1316-.1081.5748-.071 1.0053-.035.2104.0177.4179.035.5843.035.2428 0 .5222-.0366.8133-.0748.3165-.0415.6468-.0848.9589-.0848.5991 0-1.7722-.7834-2.279-.3029-.5067.4805-1.9279-.2227-1.9279-.6237 0-.2736.5232-.1738 1.0004-.0828.2222.0424.4344.0828.5793.0828.4558 0-.4559-.8892-.9305-.8892-.4745 0 .4746-.2066.9305-.2066.2595 0 .5007.067.7085.1247.157.0436.2949.0819.4072.0819.2606 0-1.3089-.6747-1.5716-.6747h1.3109c.4499 0 .5592.0635.6627.1235.0933.0542.1819.1056.5104.1056.6934 0 .3137-.3793.3137-.3793s-2.3418-.2431-2.7977-.5789c-.3082-.2271.5189-.1471 1.3008-.0715.3744.0362.7384.0715.9623.0715.6916 0-1.459-.4937-1.8072-.4937h1.5848c.347 0 .7279.1116 1.1275.2286.441.1292.9048.2651 1.3711.2651.4915 0-.4685-.2933-1.523-.6153v-.0001c-.8522-.2602-1.7661-.5394-2.0257-.6979-.2687-.1641-.0643-.1005.3079.0152.4327.1345 1.0923.3395 1.4992.3395.757 0-1.0071-.7426-1.4868-.7426s-.9389-.2159-.5068-.4155c.2654-.1225.9564.062 1.5583.2228.3784.101.7216.1927.9015.1927.2182 0 .3795.0849.5512.1753.1951.1028.4036.2126.7242.2126.6025 0-1.2754-.8034-2.0553-.8034s-.9124-.3784-.4433-.3784c.4692 0-1.0501-.6446-1.0501-.6446s-.2203-.4571.3203-.4571h.7298c.2501 0-.2501-.7929-.7298-.7929s-.0613-.2396.7298-.2396c.4811 0 .7626.1661 1.1012.3659.2183.1287.4603.2715.7949.3929.8536.3097.2097-.5192 0-.5192-.2098 0-2.3652-.67569-2.3652-.67569s.219-.24888 0-.58778c-.1653-.25575.5226-.12551.9414-.04619.1362.02578.244.04619.2847.04619.0992 0 .3839.07077.7336.15768h.0001c.236.05865.5015.12466.7596.18122.6404.14037-2.1755-1.03407-2.5004-1.03407s.6934-.19299 1.2925-.19299c.2946 0 .4367.04665.5811.09408.1494.04904.3012.09891.6268.09891.6404 0-1.2079-.68644-1.807-.68644s-.2449-.59107 0-.59107c.0954 0 .3367.03171.6314.07044v.00001h.0001c.4622.06075 1.0559.13876 1.4238.13876.2801 0 .0241-.07848-.3482-.19264v-.00001h-.0001c-.4285-.13139-1.0111-.31005-1.1079-.47066-.1067-.17727.1105-.14515.4894-.08914.0685.01013.1422.02103.2203.03162.2583.13535.4741.22277.5056.11954.0091-.02969.0294-.05092.0552-.06618.061.00267.123.00416.1857.00416.3571 0 .1921-.05443-.1517-.11954l-.0308-.00942c-.5215-.15944-1.6501-.50031-1.2279-.28996.0827.0412.1756.09203.272.14572-.2845-.03772-.5237-.06385-.6032-.06385-.2854 0-.5716-.22052 0-.22052h1.1391c-.3543 0-.8537 0-.8537-.27828 0-.18939.3955-.12098.7597-.05796.171.02957.335.05796.4482.05796.3542 0 .4423 0 .2483-.16554-.1843-.15719-.8199-.15642-1.2146-.15594l-.0608.00005c-.3866 0 .8198-.20203 1.2754-.20203.0765 0 .1103 0 .1104-.00144 0-.00115-.021-.00319-.0587-.00686-.1982-.01927-.8567-.08331-1.3271-.29607-.4207-.19034-.0521-.14263.4304-.08015.2892.03742.6192.08015.845.08015.6025 0-.2483-.40518-.8888-.40518-.514 0-.2691-.14042.0488-.32263.0781-.0448.1607-.09213.2375-.14051.2311-.14566.4002.10283.4995.24863.0678.09962.103.1513.103-.00345 0-.15104-.039-.24689-.0706-.29726.0169.01419.0399.03165.0706.05208.2482.16565 0-.43457 0-.43457s-.2483-.16576 0-.16576c.2482 0-.0799-.28495-.2483-.28495s.4423-.27262.4423-.27262l.1346-1.1543s.3329 1.25778.3329 1.42692v.88528c0 .21075-.149.3578-.2487.45619-.125.12338-.1724.17023.2487.17023.757 0 .7248.2419.264.2419s.1323.30437.9597.30437c.8273 0-.6939.35792-1.2237.35792s.5298.16554 1.2237.16554c.4685 0-.0121.16193-.4555.31134-.2132.07185-.4179.14081-.5042.18746-.1376.07432.2015.07174.5608.05193-.1888.05564-.3763.11266-.5186.15616-.1726.05277-.231.07061-.2297.07779.0007.00366.0169.00455.0414.00588.0725.00394.2175.01182.2467.10731.0435.14251.4382-.07833.8112-.287.0597-.03343.1189-.06654.176-.0978.098-.0083.161-.01427.161-.01427s.3429.39562.3429.63721c0 .14091-.451.18243-.9321.22672l-.0485.00447c.0242-.03176-.0781-.01513-.2284.02202-.2495.02567-.4851.05745-.6467.10994-.1543.05014-.1283.07107-.0028.07555l-.0341.01041c-.1182.03613-.1587.04852-.1578.05564.0005.00372.0122.006.0302.00948.0522.01012.1568.03037.186.12586.0435.14251.3071-.03824.5562-.20904l.0235-.01614c.078-.00504.1578-.01043.2367-.01577l.0002-.00001v-.00001c.2711-.01833.5318-.03597.6747-.03597.4466 0-.4465.21529-.788.21529-.1453 0 .0378.03291.317.08311.3771.06777.9295.16705 1.0855.25939.1865.11035-.3612.06916-.8485.03251v-.00001c-.2224-.01672-.4323-.0325-.554-.0325-.3886 0-.4608.31752-.195.31752h.983c.3718 0 .7589.56878.6145.56878-.0437 0-.1374.02931-.2681.07018-.3005.09402-.7966.2492-1.3294.2492-.7643 0 .983.00082 1.3259 0 .3429-.00083 1.3211.00082 1.3211.3389 0 .2103-.1852.2565-.4279.31704-.1474.03678-.316.07885-.4772.16624-.4265.23119 1.2755.44129 1.2755.44129s-.6736.2095-1.0015.2095c-.3278 0 .1525.3097 1.0015.3097.6569 0 .464.3569.3431.5808-.0354.0655-.0646.1196-.0646.15 0 .0589-.1243.1097-.3042.1832-.2312.0945-.5542.2265-.8233.4614-.3096.2703.0666.1908.4916.1011.2319-.049.4783-.1011.6359-.1011.4462 0 .6363.0186.491.2351-.1453.2164-1.4431.5588-1.771.5588h1.771c.491 0-.1375.3879-.7695.3879-.4238 0-.661.1595-.8173.2646-.0767.0516-.134.0901-.1842.0901h1.28c.0652 0 .1369-.1042.2026-.1997.0577-.084.1108-.1613.1509-.155.579.0909.3192.8196 0 .8196-.3664 0-1.481.2457-1.3056.4937.0848.12.2174.0657.4324-.0222.2292-.0937.5521-.2258 1.0107-.2258.8887 0 .0855.248-.1375.248-.2231 0-1.1666.1801-1.481.3358-.2099.1039.5204.0691 1.2468.0344.3618-.0172.7225-.0344.9657-.0344.7316 0-1.7339.6224-2.639.6224s.6019.239.9051.239c.1163 0 .3419.0304.6201.0679.4471.0602 1.0297.1387 1.5123.1387.7829 0-.7829.5157-1.4835.5157-.0543 0-.1078-.0002-.1602-.0004-.6247-.0026-1.0944-.0045-.7919.3739.1681.2105.7278.1532 1.3119.0934.5545-.0568 1.131-.1158 1.4156.0498.5114.2975-1.7512.2718-2.7274.2607-.1396-.0016-.2529-.0029-.328-.0029-.6002 0 .6003.2227 1.6335.2227l.1303-.0001c.9232-.0006 1.142-.0007 1.142.303 0 .2669-2.011.1979-2.8504.1691-.1592-.0055-.2763-.0095-.3294-.0095-.1608 0-.254.0972-.3504.1977-.1033.1078-.2104.2194-.4085.2194-.1631 0-.2397-.1044-.3095-.1995-.0941-.1282-.176-.2397-.4404-.0567-.4608.3189.4608 3.5357.4608 3.5357h-2.4877v-3.0295s-.8096-.2531-2.3652 0zm2.858-14.75399c-.0035.00073.0061.016.0391.04366-.0192-.03055-.0357-.04438-.0391-.04366zm-.8656 12.00719c-.393-.148.603-.1556 1.0638-.1556.1486 0 .2013 0 .2046.0128.0018.007-.0113.0179-.0318.0347-.0576.0476-.1728.1426-.1728.3327 0 .2837-.3734.1014-.7263-.071h-.0001c-.12-.0586-.2376-.116-.3374-.1536zm.8144-1.158c-.4607 0-1.4568.0076-1.0637.1556.0997.0375.2173.095.3374.1536.3529.1723.7263.3547.7263.071 0-.1901.1152-.2852.1728-.3327.0205-.0169.0337-.0277.0319-.0348-.0033-.0127-.0561-.0127-.2047-.0127zm-.8309-.6701c-.3209-.0777.4923-.0817.8685-.0817.1236 0 .166 0 .1672.0071.0006.0036-.01.0093-.0261.0178-.047.025-.1411.0749-.1411.1748 0 .149-.3049.0532-.593-.0373-.098-.0308-.194-.061-.2755-.0807zm.8093-3.1694c-.5215-.1594-1.6501-.5003-1.2279-.29.1072.0534.2315.123.3583.194.373.2087.7677.4295.8112.287.0292-.0955.1742-.1034.2467-.1073.0245-.0014.0407-.0022.0414-.0059.0013-.0072-.0571-.025-.2297-.0778zm-1.2279-1.29238c-.4222-.21035.7064.13052 1.2279.28998.1726.0528.231.0706.2297.0778-.0007.0036-.0169.0045-.0414.0059-.0725.0039-.2175.0118-.2467.1073-.0435.1425-.4382-.0784-.8112-.28704-.1268-.07098-.2512-.14055-.3583-.19394zm1.2279-.96306c-.5215-.15945-1.6501-.50032-1.2279-.28997.1072.05339.2315.12296.3583.19394.373.20867.7677.42951.8112.287.0292-.09549.1742-.10337.2467-.10731.0245-.00133.0407-.00222.0414-.00588.0013-.00718-.0571-.02502-.2297-.07778zm1.1286 6.84674c.4607 0 1.4568.0076 1.0637.1556-.0997.0375-.2174.095-.3374.1536-.3529.1724-.7263.3547-.7263.071 0-.1901-.1152-.2851-.1728-.3327-.0205-.0168-.0337-.0277-.0319-.0347.0033-.0128.0561-.0128.2047-.0128zm1.0637-.5962c.3931-.148-.603-.1556-1.0637-.1556-.1486 0-.2014 0-.2047.0127-.0018.0071.0114.0179.0319.0348.0576.0475.1728.1426.1728.3327 0 .2837.3734.1013.7263-.071.1201-.0586.2377-.1161.3374-.1536zm.6165-1.7335h.0001c.041-.0095.0424-.0099-.0111.0031-.106.0257-.3279.113-.5778.2112-.5071.1995-1.129.444-1.129.3103 0-.0999-.0941-.1498-.1411-.1748-.0161-.0085-.0267-.0142-.0261-.0179.0012-.007.0436-.007.1672-.007.3134 0 1.5124-.2774 1.7178-.3249zm-.4307-3.0528c.4222-.2103-.7064.1306-1.2279.29-.1726.0528-.231.0706-.2297.0778.0007.0037.0169.0045.0414.0059.0725.0039.2175.0118.2467.1073.0435.1425.4382-.0783.8112-.287.1268-.071.2511-.1406.3583-.194zm-1.2279 1.2924c.5215-.1594 1.6501-.5003 1.2279-.2899-.1072.0534-.2315.1229-.3583.1939-.373.2087-.7677.4295-.8112.287-.0292-.0955-.1742-.1034-.2467-.1073-.0245-.0013-.0407-.0022-.0414-.0059-.0013-.0072.0571-.025.2297-.0778zm1.2279-2.29479c.4222-.21035-.7064.13052-1.2279.28997-.1726.05276-.231.0706-.2297.07778.0007.00367.0169.00455.0414.00588.0725.00394.2175.01182.2467.10731.0435.14251.4382-.07833.8111-.287.1269-.07098.2512-.14055.3584-.19394zm-1.571-.58605c.3597-.10999 1.1386-.34393.8544-.17578-.0721.04268-.1551.09962-.2398.15772-.2491.17079-.5127.35154-.5562.20903-.0292-.09549-.1338-.11573-.186-.12586-.018-.00347-.0297-.00575-.0302-.00947-.0009-.00712.0396-.01952.1578-.05564zm.2295 3.81394c-.4131 0 0-.3265 0-.3265h.2127c.073 0 .1382-.03.2239-.0695.1638-.0756.4024-.1856.9135-.1856.7783 0-.937.5816-1.3501.5816z" fill="#409100"/></g></svg>