<svg fill="none" height="24" viewBox="0 0 32 24" width="32" xmlns="http://www.w3.org/2000/svg" xmlns:xlink="http://www.w3.org/1999/xlink"><mask id="a" height="24" maskUnits="userSpaceOnUse" width="32" x="0" y="0"><path d="m0 0h32v24h-32z" fill="#fff"/></mask><g mask="url(#a)"><path d="m0 0h32v24h-32z" fill="#f7fcff"/><path clip-rule="evenodd" d="m0 16h32v8h-32z" fill="#c51918" fill-rule="evenodd"/><path clip-rule="evenodd" d="m17.3889 5h-3.7778v4.61538h-.9444v-2.76923h-3.77781v2.76923h-1.88889v.92312h.94444v4.6153h-.94444v.9231h17v-.9231h-.9444v-4.6153h.9444v-.92312h-1.8889v-2.76923h-3.7778v2.76923h-.9444z" fill="#db000b" fill-rule="evenodd"/><g fill="#272727"><path d="m9.83337 8.58934c0-.45297.36723-.82017.82013-.82017.453 0 .8202.3672.8202.82017v1.21059h-1.64033z"/><path d="m19.2778 8.58934c0-.45297.3672-.82017.8202-.82017s.8202.3672.8202.82017v1.21059h-1.6404z"/><path clip-rule="evenodd" d="m9.56738 13.4706c0-.5998.48632-1.0861 1.08612-1.0861s1.0861.4863 1.0861 1.0861v1.8678h-2.17222z" fill-rule="evenodd"/><path d="m19.0118 13.4706c0-.5998.4863-1.0861 1.0862-1.0861.5998 0 1.0861.4863 1.0861 1.0861v1.8678h-2.1723z"/><path clip-rule="evenodd" d="m13.8945 13.6395c0-.7687.6232-1.3918 1.3918-1.3918.7687 0 1.3919.6231 1.3919 1.3918v2.6697h-2.7837z" fill-rule="evenodd"/><path d="m14.5555 7.66624c0-.45297.3672-.82017.8202-.82017s.8202.3672.8202.82017v2.13368h-1.6404z"/></g><g fill="#de1a23"><path d="m7 8.69226h.944444v.923077h-.944444z"/><path clip-rule="evenodd" d="m8.5 6h1v1h-1zm3.8181 0h1v1h-1zm-.5681 0h-1.5v1h1.5z" fill-rule="evenodd"/><path clip-rule="evenodd" d="m18.0907 6h1v1h-1zm3.7275 0h1v1h-1zm-.614 0h-1.5v1h1.5z" fill-rule="evenodd"/><path clip-rule="evenodd" d="m13.7998 4.02271h-1v1h1zm1.5 0h-1v1h1zm.5 0h1v1h-1zm2.5 0h-1v1h1z" fill-rule="evenodd"/><path d="m22.9994 8.77466h1v.838696h-1z"/></g><path clip-rule="evenodd" d="m15.4395 18.4532 2.7128-1.7739-2.8943-1.3535-2.8944 1.6636zm-1.0592-1.6115.8875-.5948.9376.5107-.8432.5513z" fill="#e8aa00" fill-rule="evenodd"/><path clip-rule="evenodd" d="m13.4756 21.0066h1.4737v1.107-.3737h-.9158v.3737h-.5579z" fill="#e8aa00" fill-rule="evenodd"/><path clip-rule="evenodd" d="m14.8157 18.1136h1.2508v4h-1.2508z" fill="#e8aa00" fill-rule="evenodd"/></g></svg>