<svg fill="none" height="12" viewBox="0 0 16 12" width="16" xmlns="http://www.w3.org/2000/svg" xmlns:xlink="http://www.w3.org/1999/xlink"><mask id="a" height="12" maskUnits="userSpaceOnUse" width="16" x="0" y="0"><path d="m0 0h16v12h-16z" fill="#fff"/></mask><mask id="b" height="12" maskUnits="userSpaceOnUse" width="16" x="0" y="0"><path clip-rule="evenodd" d="m0 0v12h16v-12z" fill="#fff" fill-rule="evenodd"/></mask><g mask="url(#a)"><path clip-rule="evenodd" d="m0 0v12h16v-12z" fill="#f7fcff" fill-rule="evenodd"/><g mask="url(#b)"><path clip-rule="evenodd" d="m0 0v4h16v-4z" fill="#bf2714" fill-rule="evenodd"/><path clip-rule="evenodd" d="m0 8v4h16v-4z" fill="#272727" fill-rule="evenodd"/><g fill="#c09302"><path d="m6.13017 5.11011.49947.02289-.12537 2.73491-.49948-.0229z"/><path d="m6.65205 5.27991.4992.02822-.12537 2.21766-.49921-.02822z"/><path d="m7.17422 5.44592.49832.04089-.12537 1.52801-.49833-.04089z"/><path d="m9.86983 5.11011-.49947.02289.12537 2.73491.49948-.0229z"/><path d="m9.34795 5.27991-.4992.02822.12537 2.21766.49921-.02822z"/><path d="m8.82578 5.44592-.49832.04089.12537 1.52801.49833-.04089z"/><path d="m7.98667 7.66326-.48737-.11166.20629-.90035.48737.11166z"/><path d="m8.35975 7.66326.48737-.11166-.20629-.90035-.48737.11166z"/><path d="m8.23608 7.65496h-.5v-.88396h.5z"/><path d="m7.31738 5.45654.49985.01226-.0292 1.19046-.49985-.01227z"/><path d="m8.18695 5.45654.49985.01226-.02921 1.19046-.49984-.01227z"/><path d="m6.66899 7.96136.12985-.48284c.53053.14267.93788.21323 1.21566.21323.27777 0 .68513-.07056 1.21565-.21323l.12985.48284c-.56919.15307-1.01555.23039-1.3455.23039s-.77632-.07732-1.34551-.23039z"/><path d="m6.14115 5.11133c-.03333-.3303.15999-.55389.48762-.52538.10773.00938.22872.04125.38988.09593.04709.01615.04709.01615.09285.03235.22154.0788.2817.09905.29419.10172-.04909-.01112.09549-.2725.12866-.31656.00392.02798-.01272.024-.05269.016l-.45102-.09027.32106-.32937c.11222-.11513.26167-.17223.43221-.17223.01768 0 .03418-.00082.08836-.00415.04006-.00244.04006-.00244.08511-.0043.31198-.01011.53572.07811.53572.39894 0 .11478.0145.29935.03842.43938.00805.0471.0236.09119-.02226.11055.0019-.01671.11117-.05983.28109-.13089l.0204-.00853c.49372-.20607.5514-.22519.71055-.12847.10606.06446.20704.1804.3202.35325l-.41834.27385c-.07299-.11149-.13111-.17914-.15878-.19804.0629.0437-.14895.11405-.26103.16083l-.02008.00839c-.3844.16076-.43507.17994-.54498.17994-.2991 0-.4065-.30638-.4359-.74516-.09228.30379-.36761.68716-.5945.68716-.09932 0-.05157.01572-.46395-.13095-.0432-.01529-.0432-.01529-.08593-.02995-.12493-.04239-.21506-.06616-.27192-.07124.00235-.00268.01072-.01169.02012-.01973z"/></g></g></g></svg>