<svg fill="none" height="24" viewBox="0 0 32 24" width="32" xmlns="http://www.w3.org/2000/svg" xmlns:xlink="http://www.w3.org/1999/xlink"><mask id="a" height="24" maskUnits="userSpaceOnUse" width="32" x="0" y="0"><path d="m0 0h32v24h-32z" fill="#fff"/></mask><g mask="url(#a)"><g clip-rule="evenodd" fill-rule="evenodd"><path d="m22 0h10v24h-10z" fill="#58a5ff"/><path d="m0 0h12v24h-12z" fill="#58a5ff"/><path d="m10 0h12v24h-12z" fill="#fff"/><path d="m11.7684 15.7185.5218.683 2.3693-3.2119v-.5686z" fill="#6c301f"/></g><path d="m13.4043 12.1357.1732-.2386c2.2438 1.6871 3.8335 2.9822 4.7223 4.0614l-.555.4572c-.8448-1.0258-2.1384-2.6243-4.3405-4.28z" fill="#979797"/><path d="m17.0211 10.7256-.2582-.2503 1.4148-1.45915.3099.30113 1.4688-1.3677.245.26312-1.719 1.60073-.2971-.28863z" fill="#979797"/><g clip-rule="evenodd" fill-rule="evenodd"><path d="m12.5058 8.44546c-.0755-.32832-.1607-.73379-.1607-.73379-.1894.43215-.2491.82531-.173 1.17688-.0805.11081-.1535.21461-.2188.31144-.2037-.2691-.4579-.7724-.4579-.7724.0089.14655.0048.29605.0009.44123-.0091.34112-.0176.65832.1425.85696l-.0019.00396c-.032.06581-.0622.1315-.0908.19706-.2208-.22013-.5872-.61705-.5872-.61705.0287.47598.1604.85105.3998 1.11865-.0433.1395-.0791.2783-.1074.4162-.1851-.1915-.3637-.3807-.3637-.3807.0262.4343.0989.7213.2876.9624-.0038.0685-.0057.1369-.0058.2049-.1956-.2017-.3945-.4125-.3945-.4125.0276.4584.2063.76.4417 1.011.0234.1452.0553.2887.0956.4306l.0215.0749c-.2662-.1286-.5571-.2747-.5571-.2747.1737.4005.4273.6211.7157.7755.0617.1794.1267.3529.1949.5199-.3122-.0849-.7785-.2244-.7785-.2244.2766.4186.6158.585.9802.6807.0745.1556.1518.3042.2318.4454-.2959-.083-.6431-.187-.6431-.187.2685.4066.5962.5753.9488.6723.2325.3306.4815.6022.7413.8056-.2863.13-.6468.2855-.6468.2855.4071.121.7324.0747 1.0293-.04.0117.0058.0233.0116.035.0172.1281.0614.2716.1192.4335.1757-.2348.1045-.4584.2009-.4584.2009.3977.1182.7173.0768 1.0087-.0321l.0316.0086c.1429.0389.2883.0762.48.1237-.1268-.0314.3411.084.4361.1082.3042.0774.4774.1317.5605.1786.0078.0043.0135.0079.017.0102h.0001c.0036.0023.0051.0033.0043.0022l.2327-.169c-.027-.0372-.0645-.0667-.1129-.094-.1141-.0643-.2993-.1224-.6308-.2068-.0943-.024-.5475-.1357-.4448-.1103-.1863-.0462-.328-.0825-.4666-.1203-.0414-.0113-.0818-.0225-.1212-.0337.0331-.3058-.0055-.6228-.214-.976 0 0-.0907.5517-.1523.8638-.1839-.0614-.3424-.1236-.4793-.1891-.0462-.0222-.0923-.0469-.1383-.0742-.0184-.312-.11-.6223-.3811-.939 0 0 .0041.3506.0025.6545-.189-.1726-.3726-.3873-.5475-.6393l.1225.065c.0135-.3891-.0464-.7726-.3831-1.166 0 0 .0044.3792.0023.6907-.1093-.1908-.214-.397-.3133-.6172.0922-.3025.1144-.6285-.0337-1.0235 0 0-.088.2508-.1803.5038-.0271-.0719-.0536-.145-.0795-.2193.1886-.3165.3096-.667.2197-1.1496 0 0-.2144.3813-.3778.6578-.0111-.0377-.0221-.0756-.0329-.1137-.0344-.1211-.0622-.2436-.0833-.3673.2688-.2277.486-.5114.5631-.9748 0 0-.3594.3087-.6098.5134-.0035-.1029-.0023-.2067.0035-.3111.2893-.1757.5385-.4155.6889-.8415 0 0-.3544.2101-.6311.3667.0197-.1047.044-.21.0729-.3159l.0004.0101c.3437-.1828.6459-.4265.8182-.91474 0 0-.3561.21112-.633.36774.0359-.086.0748-.17232.1169-.259.0501-.10305.1211-.22601.2131-.36869.3068-.09721.5925-.26575.8354-.61994 0 0-.2454.06879-.4998.1369.1475-.20096.3206-.4258.519-.67423l-.2247-.17951c-.0818.10237-.1594.20088-.2328.29553z" fill="#5ab92d"/><path d="m19.6337 8.44546c.0755-.32832.1607-.73379.1607-.73379.1894.43215.2491.82531.173 1.17688.0806.11081.1535.21461.2188.31144.2037-.2691.4579-.7724.4579-.7724-.0088.14655-.0048.29605-.0009.44123.0091.34112.0177.65832-.1425.85696l.0019.00396c.032.06581.0623.1315.0909.19706.2207-.22013.5871-.61705.5871-.61705-.0287.47598-.1604.85105-.3998 1.11865.0434.1395.0791.2783.1074.4162.1852-.1915.3637-.3807.3637-.3807-.0262.4343-.0988.7213-.2876.9624.0038.0685.0058.1369.0059.2049.1956-.2017.3944-.4125.3944-.4125-.0276.4584-.2063.76-.4417 1.011-.0234.1452-.0553.2887-.0955.4306l-.0216.0749c.2662-.1286.5571-.2747.5571-.2747-.1737.4005-.4272.6211-.7157.7755-.0616.1794-.1267.3529-.1949.5199.3122-.0849.7785-.2244.7785-.2244-.2765.4186-.6157.585-.9802.6807-.0745.1556-.1518.3042-.2317.4454.2958-.083.6431-.187.6431-.187-.2686.4066-.5963.5753-.9488.6723-.2326.3306-.4816.6022-.7413.8056.2862.13.6467.2855.6467.2855-.4071.121-.7324.0747-1.0293-.04-.0116.0058-.0233.0116-.035.0172-.1281.0614-.2716.1192-.4335.1757.2348.1045.4584.2009.4584.2009-.3977.1182-.7173.0768-1.0086-.0321l-.0316.0086c-.143.0389-.2884.0762-.48.1237.1267-.0314-.3411.084-.4362.1082-.3041.0774-.4773.1317-.5605.1786-.0077.0043-.0134.0079-.017.0102-.0037.0023-.0051.0033-.0044.0022l-.2327-.169c.027-.0372.0645-.0667.1129-.094.1141-.0643.2993-.1224.6308-.2068.0943-.024.5475-.1357.4449-.1103.1862-.0462.3279-.0825.4666-.1203.0413-.0113.0817-.0225.1212-.0337-.0332-.3058.0054-.6228.2139-.976 0 0 .0907.5517.1523.8638.184-.0614.3424-.1236.4793-.1891.0462-.0222.0923-.0469.1383-.0742.0184-.312.1101-.6223.3811-.939 0 0-.004.3506-.0025.6545.189-.1726.3726-.3873.5476-.6393l-.1226.065c-.0135-.3891.0465-.7726.3831-1.166 0 0-.0044.3792-.0023.6907.1093-.1908.214-.397.3133-.6172-.0922-.3025-.1144-.6285.0337-1.0235 0 0 .088.2508.1804.5038.027-.0719.0535-.145.0794-.2193-.1885-.3165-.3096-.667-.2197-1.1496 0 0 .2144.3813.3778.6578.0112-.0377.0221-.0756.033-.1137.0343-.1211.0621-.2436.0832-.3673-.2687-.2277-.486-.5114-.5631-.9748 0 0 .3594.3087.6098.5134.0035-.1029.0024-.2067-.0034-.3111-.2894-.1757-.5386-.4155-.689-.8415 0 0 .3544.2101.6311.3667-.0197-.1047-.0439-.21-.0729-.3159l-.0004.0101c-.3437-.1828-.6458-.4265-.8182-.91474 0 0 .3561.21112.6331.36774-.0359-.086-.0749-.17232-.117-.259-.0501-.10305-.1211-.22601-.213-.36869-.3069-.09721-.5926-.26575-.8355-.61994 0 0 .2454.06879.4999.1369-.1476-.20096-.3207-.4258-.5191-.67423l.2247-.17951c.0818.10237.1594.20088.2328.29553z" fill="#5ab92d"/><path d="m13.4174 9.32297 1.2071 3.19923h-.8873s-.3198 1.0096.2837 1.0096h3.714s.4044-.2531.2022-1.0096-1.2238-2.84473-1.2238-2.84473.4366-.34657.4366-.60346c0-.2569-.4366-.28519-.4366-.28519h-2.7555c-.3517.057-.5404.53415-.5404.53415z" fill="#efe298"/></g><path d="m14.444 10.5008 1.8749-.1164z" fill="#c5a042"/><path d="m14.444 10.5008 1.8749-.1164" stroke="#b47d00" stroke-width=".5"/><path d="m14.9003 11.5211 1.8749-.1165z" fill="#c5a042"/><path d="m14.9003 11.5211 1.8749-.1165" stroke="#b47d00" stroke-width=".5"/><path d="m15.2566 12.5414 1.8749-.1164z" fill="#c5a042"/><path d="m15.2566 12.5414 1.8749-.1164" stroke="#b47d00" stroke-width=".5"/><path clip-rule="evenodd" d="m15.8805 7.58765s-.2888.05865-.2888.24106-.078.33794-.078.33794.0881.83197.7464 1.02503c.6584.19306 1.0443.23942 1.3215.62669.2771.38723 1.1273 1.48063.7863 2.42353-.3409.9429-.6086 1.4241-.6086 1.4241s1.2436-1.1714 1.2436-1.7268-.1838-1.0935-.7347-1.7987c-.551-.70519-.8073-1.11743-1.2177-1.43516-.4105-.31773-.9986-.61092-.9986-.61092s.2093-.22383.1046-.32907c-.1046-.10524-.276-.1777-.276-.1777z" fill="#5ab92d" fill-rule="evenodd"/></g></svg>