<svg fill="none" height="12" viewBox="0 0 16 12" width="16" xmlns="http://www.w3.org/2000/svg" xmlns:xlink="http://www.w3.org/1999/xlink"><mask id="a" height="12" maskUnits="userSpaceOnUse" width="16" x="0" y="0"><path d="m0 0h16v12h-16z" fill="#fff"/></mask><mask id="b" height="12" maskUnits="userSpaceOnUse" width="16" x="0" y="0"><path clip-rule="evenodd" d="m0 0v12h16v-12z" fill="#fff" fill-rule="evenodd"/></mask><mask id="c" height="7" maskUnits="userSpaceOnUse" width="9" x="0" y="0"><path d="m0 0h9v7h-9z" fill="#fff"/></mask><mask id="d" fill="#000" height="9" maskUnits="userSpaceOnUse" width="11" x="-1" y="-1"><path d="m-1-1h11v9h-11z" fill="#fff"/><path clip-rule="evenodd" d="m4.99226 0h-1v3h-3.99226v1h3.99226v3h1v-3h4.00774v-1h-4.00774z" fill="#000" fill-rule="evenodd"/></mask><mask id="e" height="7" maskUnits="userSpaceOnUse" width="6" x="10" y="5"><path d="m12.4643 10.9567c-.6473 0-1.1022-.1497-1.4273-.4141-.3259-.265-.5374-.65825-.672-1.17672-.1348-.51937-.1898-1.1537-.2102-1.88842-.0145-.5165-.0118-1.07712-.0089-1.67785.001-.21429.002-.43369.0023-.65801h4.6874c.0838 1.47897.1159 2.92635-.1811 4.01175-.1518.55479-.3868 1.00365-.7348 1.31375-.3456.3081-.8143.4896-1.4554.4896z" fill="#fff" stroke="#fff" stroke-width=".25"/></mask><g mask="url(#a)"><path clip-rule="evenodd" d="m0 0v12h16v-12z" fill="#2e42a5" fill-rule="evenodd"/><g mask="url(#b)"><g mask="url(#c)"><path d="m-1.00214 6.49993 1.980479.8686 8.066601-6.424139 1.04466-1.290766-2.11784-.290311-3.29017 2.768346-2.64825 1.86522z" fill="#f7fcff"/><path d="m-.731018 7.10849 1.008961.50406 9.436507-8.078859h-1.4167z" fill="#f50100"/><path d="m10.0021 6.49993-1.98044.8686-8.0665971-6.424139-1.0446529-1.290766 2.11783-.290311 3.29017 2.768346 2.64825 1.86522z" fill="#f7fcff"/><path d="m9.93457 6.93661-1.00896.50406-4.01816-3.45897-1.1913-.38647-4.90625-3.937264h1.416697l4.903493 3.843814 1.30247.46341z" fill="#f50100"/><path clip-rule="evenodd" d="m4.99226 0h-1v3h-3.99226v1h3.99226v3h1v-3h4.00774v-1h-4.00774z" fill="#f50100" fill-rule="evenodd"/><path d="m3.99226 0v-.75h-.75v.75zm1 0h.75v-.75h-.75zm-1 3v.75h.75v-.75zm-3.99226 0v-.75h-.75v.75zm0 1h-.75v.75h.75zm3.99226 0h.75v-.75h-.75zm0 3h-.75v.75h.75zm1 0v.75h.75v-.75zm0-3v-.75h-.75v.75zm4.00774 0v.75h.75v-.75zm0-1h.75v-.75h-.75zm-4.00774 0h-.75v.75h.75zm-1-2.25h1v-1.5h-1zm.75 2.25v-3h-1.5v3zm-4.74226.75h3.99226v-1.5h-3.99226zm.75.25v-1h-1.5v1zm3.24226-.75h-3.99226v1.5h3.99226zm.75 3.75v-3h-1.5v3zm.25-.75h-1v1.5h1zm-.75-2.25v3h1.5v-3zm4.75774-.75h-4.00774v1.5h4.00774zm-.75-.25v1h1.5v-1zm-3.25774.75h4.00774v-1.5h-4.00774zm-.75-3.75v3h1.5v-3z" fill="#f7fcff" mask="url(#d)"/></g><path d="m12.4643 10.9567c-.6473 0-1.1022-.1497-1.4273-.4141-.3259-.265-.5374-.65825-.672-1.17672-.1348-.51937-.1898-1.1537-.2102-1.88842-.0145-.5165-.0118-1.07712-.0089-1.67785.001-.21429.002-.43369.0023-.65801h4.6874c.0838 1.47897.1159 2.92635-.1811 4.01175-.1518.55479-.3868 1.00365-.7348 1.31375-.3456.3081-.8143.4896-1.4554.4896z" fill="#6dc2ff" stroke="#f7fcff" stroke-width=".25"/><g mask="url(#e)"><path d="m9.96625 5h5.035v4.05568h-5.035z" fill="#2ebed7"/><path d="m9.90002 9.02271h5.3v2.0773h-5.3z" fill="#a95601"/><path d="m12.8729 6.76082s-.9335.21527-.8433 0c.0903-.21528.3317-.99153.3317-.99153" stroke="#ffc6b5" stroke-width=".5"/><g clip-rule="evenodd" fill-rule="evenodd"><path d="m13.1536 6.9143s-.1703-.1061-.1703-.29934c0-.19323-.4153-.26553-.1225-.56744s.4192-.16895.4192 0 .2354.56744.2354.56744z" fill="#ffc6b5"/><path d="m12.6825 5.16492h-.4637v.46162h-.9275v.46162h.9275v4.02274h.4637v-4.02274h.9275v-.46162h-.9275z" fill="#272727"/><path d="m13.681 10.2467s-.1687-.79382-.1687-1.33717c0-.54336-.2827-.932-.2019-1.21934.0808-.28733.2753-.60507.1781-.80175-.0973-.19667.0949-.29244-.1781-.19667-.273.09576-.3463-.09577-.6099 0-.2635.09576-.2969.54787-.2969.67685s.1172.99857.1172 1.26974-.0965 1.93864.1797 1.93864c.2763 0 .5775-.434.6827-.434.1053 0 .2978.1037.2978.1037z" fill="#0c7c38"/><path d="m12.0149 8.12195c-.1684 0-.0135.39772-.442.5721-.4285.17439-.5127.41996-.3777.41996s1.2024 1.21929 1.2024 1.21929l.2617-.41141v-1.29908s-.476-.50086-.6444-.50086z" stroke="#ff9a06" stroke-width=".5"/></g><path d="m13.2716 10.1636s.2.4291 0 .4291" stroke="#979797" stroke-width=".5"/><path d="m13.2072 6.92676s-.0878.48945-.2551.59192c-.1673.10246-.8545.30084-.8545.47022s-.0682.22994-.0682.22994" stroke="#ffc6b5" stroke-width=".5"/><path clip-rule="evenodd" d="m12.874 5.91638s.1681.20318.2623.53811c.0941.33493.3669.449.3669.29225 0-.15676.2016-.83036 0-.83036s-.6292 0-.6292 0z" fill="#ff9a06" fill-rule="evenodd"/></g></g></g></svg>