<svg fill="none" height="15" viewBox="0 0 20 15" width="20" xmlns="http://www.w3.org/2000/svg" xmlns:xlink="http://www.w3.org/1999/xlink"><mask id="a" height="15" maskUnits="userSpaceOnUse" width="20" x="0" y="0"><path d="m0 0h20v15h-20z" fill="#fff"/></mask><mask id="b" height="15" maskUnits="userSpaceOnUse" width="20" x="0" y="0"><path clip-rule="evenodd" d="m0 0v15h20v-15z" fill="#fff" fill-rule="evenodd"/></mask><mask id="c" height="2" maskUnits="userSpaceOnUse" width="3" x="2" y="10"><path clip-rule="evenodd" d="m2.85001 10.62h1.26v.56s-.1575-.07-.315-.07-.315.07-.315.07-.1575-.07-.315-.07-.315.07-.315.07z" fill="#fff" fill-rule="evenodd"/></mask><mask id="d" height="2" maskUnits="userSpaceOnUse" width="2" x="9" y="10"><path clip-rule="evenodd" d="m9.70999 10.62h1.26001v.56s-.1575-.07-.315-.07-.315.07-.315.07-.1575-.07-.315-.07c-.15751 0-.31501.07-.31501.07z" fill="#fff" fill-rule="evenodd"/></mask><mask id="e" height="7" maskUnits="userSpaceOnUse" width="6" x="4" y="5"><path clip-rule="evenodd" d="m4.66998 5.79004h4.55v4.08802s-.33798 1.37194-2.275 1.37194c-1.93701 0-2.275-1.40812-2.275-1.40812z" fill="#fff" fill-rule="evenodd"/></mask><g mask="url(#a)"><path clip-rule="evenodd" d="m0 0v15h20v-15z" fill="#ffb400" fill-rule="evenodd"/><g mask="url(#b)"><path clip-rule="evenodd" d="m0 0v3.75h20v-3.75z" fill="#c51918" fill-rule="evenodd"/><path clip-rule="evenodd" d="m0 11.25v3.75h20v-3.75z" fill="#c51918" fill-rule="evenodd"/><path d="m3.13 6.41992h.7v3.64h-.7z" fill="#f1f9ff"/><g clip-rule="evenodd" fill-rule="evenodd"><path d="m4.11001 5.78992h-1.26v.35h.21v.28h.84v-.28h.21z" fill="#c88a02"/><path d="m3.90001 10.27h.21v.35h-1.26v-.35h.21v-.28001h.84z" fill="#c88a02"/><path d="m3.47999 5.85997c.15233 0 .16782-.05736.25769-.14304.06978-.06652.23231-.14902.23231-.24196 0-.21263-.21938-.385-.49-.385s-.49.17237-.49.385c0 .10354.11192.17277.19655.24196.08916.0729.15461.14304.29345.14304z" fill="#ad1619"/><path d="m2.85001 10.62h1.26v.56s-.1575-.07-.315-.07-.315.07-.315.07-.1575-.07-.315-.07-.315.07-.315.07z" fill="#005bbf"/></g><g fill="#fff" mask="url(#c)"><path d="m2.83863 11.0699-.0275-.067c.11348-.0506.22737-.0759.34144-.0759.07369 0 .11217.0103.17759.0394.05747.0256.08725.0335.1501.0335.06284 0 .09263-.0079.15009-.0335.06542-.0291.1039-.0394.1776-.0394.11406 0 .22795.0253.34144.0759l-.02751.067c-.10497-.0467-.20954-.07-.31393-.07-.06285 0-.09264.008-.1501.0335-.06542.0292-.1039.0394-.17759.0394-.0737 0-.11218-.0102-.1776-.0394-.05746-.0255-.08725-.0335-.15009-.0335-.1044 0-.20897.0233-.31394.07z"/><path d="m2.83863 10.8599-.0275-.067c.11348-.0505.22737-.0759.34144-.0759.07369 0 .11217.0103.17759.0394.05747.0256.08725.0336.1501.0336.06284 0 .09263-.008.15009-.0336.06542-.0291.1039-.0394.1776-.0394.11406 0 .22795.0254.34144.0759l-.02751.067c-.10497-.0467-.20954-.0699-.31393-.0699-.06285 0-.09264.0079-.1501.0335-.06542.0291-.1039.0394-.17759.0394-.0737 0-.11218-.0103-.1776-.0394-.05746-.0256-.08725-.0335-.15009-.0335-.1044 0-.20897.0232-.31394.0699z"/></g><path d="m9.98999 6.41992h.7v3.64h-.7z" fill="#f1f9ff"/><path clip-rule="evenodd" d="m10.97 5.78992h-1.26001v.35h.21v.28h.84001v-.28h.21z" fill="#c88a02" fill-rule="evenodd"/><path clip-rule="evenodd" d="m10.76 10.27h.21v.35h-1.26001v-.35h.21v-.28001h.84001z" fill="#c88a02" fill-rule="evenodd"/><path clip-rule="evenodd" d="m10.34 5.85997c.1523 0 .1678-.05736.2577-.14304.0698-.06652.2323-.14902.2323-.24196 0-.21263-.2194-.385-.49-.385s-.48999.17237-.48999.385c0 .10354.11192.17277.19659.24196.0891.0729.1546.14304.2934.14304z" fill="#ad1619" fill-rule="evenodd"/><path clip-rule="evenodd" d="m9.70999 10.62h1.26001v.56s-.1575-.07-.315-.07-.315.07-.315.07-.1575-.07-.315-.07c-.15751 0-.31501.07-.31501.07z" fill="#005bbf" fill-rule="evenodd"/><g fill="#fff" mask="url(#d)"><path d="m9.69861 11.0699-.0275-.067c.11349-.0506.22738-.0759.34149-.0759.0736 0 .1121.0103.1775.0394.0575.0256.0873.0335.1501.0335.0629 0 .0927-.0079.1501-.0335.0655-.0291.1039-.0394.1776-.0394.1141 0 .228.0253.3415.0759l-.0275.067c-.105-.0467-.2096-.07-.314-.07-.0628 0-.0926.008-.1501.0335-.0654.0292-.1039.0394-.1776.0394s-.1121-.0102-.1776-.0394c-.0574-.0255-.0872-.0335-.15-.0335-.10444 0-.20901.0233-.31399.07z"/><path d="m9.69861 10.8599-.0275-.067c.11349-.0505.22738-.0759.34149-.0759.0736 0 .1121.0103.1775.0394.0575.0256.0873.0336.1501.0336.0629 0 .0927-.008.1501-.0336.0655-.0291.1039-.0394.1776-.0394.1141 0 .228.0254.3415.0759l-.0275.067c-.105-.0467-.2096-.0699-.314-.0699-.0628 0-.0926.0079-.1501.0335-.0654.0291-.1039.0394-.1776.0394s-.1121-.0103-.1776-.0394c-.0574-.0256-.0872-.0335-.15-.0335-.10444 0-.20901.0232-.31399.0699z"/></g><path clip-rule="evenodd" d="m3.11747 9.79993c.1262-.15301.19678-.2922.19678-.44004 0-.09322-.02774-.17373-.07634-.2395l.00821-.0037c-.00076.00035.13845-.06033.18691-.08357.0901-.0432.16947-.08896.24686-.14524.04941-.03593.11561-.07506.21652-.12925l.09484-.05044.0256-.0136c.04904-.02616.08557-.04622.1195-.0659.10573-.06133.1756-.11202.22904-.17979.12657-.1605.10029-.37808-.07708-.49884-.0869-.05917-.20416-.09312-.37606-.11984l-.0356-.00551-.21025-.03259c-.08225-.01292-.15565-.02498-.22109-.03641.43035-.07161 1.04488-.04529 1.31519.09428l.25691-.4976c-.55084-.2844-1.80592-.25536-2.27476.06751-.34387.23682-.29773.5948.06006.74895.1495.06441.34439.10715.70505.16509-.06044.03506-.11055.06709-.15724.10104-.04734.03444-.09807.06368-.1596.09318-.02943.01411-.11658.05238-.15652.06992l-.02008.00884c-.29143.13251-.43286.31582-.3906.64674l.02288.17913.04104.01261zm-.36024-.46293-.00089.00258.00068-.00183zm7.68397.02289c0 .14784.0706.28703.1968.44004l.4298-.35453.0411-.01261.0228-.17913c.0423-.33092-.0991-.51423-.3906-.64674l-.02-.00884-.0001-.00004c-.04-.01755-.127-.05578-.1565-.06988-.0615-.0295-.1122-.05874-.1596-.09318-.0466-.03395-.0968-.06598-.1572-.10104.3607-.05794.5556-.10068.7051-.16509.3577-.15415.4039-.51213.06-.74895-.4688-.32287-1.7239-.35191-2.27474-.06751l.25691.4976c.27031-.13957.88483-.16589 1.31523-.09428-.0655.01143-.1389.02349-.2211.03641l-.21031.0326-.03558.0055c-.17189.02672-.28916.06067-.37606.11984-.17737.12076-.20365.33834-.07707.49884.05344.06777.12331.11846.22904.17979.03393.01968.07045.03974.1195.0659l.02567.01364.09476.0504c.10092.05419.16715.09332.21655.12925.0774.05628.1567.10204.2468.14524.0485.02324.1877.08392.1869.08357l.0083.0037c-.0486.06577-.0764.14628-.0764.2395z" fill="#ad1619" fill-rule="evenodd"/><path d="m3.7021 7.75.20662.04274v.30796c-.22006.17559-.77872.47153-.77872.47153v-.82223z" fill="#f1f9ff"/><path d="m10.1966 7.75-.20657.04274v.30796c.22007.17559.77867.47153.77867.47153v-.82223z" fill="#f1f9ff"/><g clip-rule="evenodd" fill-rule="evenodd"><path d="m9.235 4.50374v-.10249c-.36005-.25841-.7371-.38761-1.13115-.38761-.37776-.16717-.76013-.23206-1.14711-.19467.0001-.0012.00016-.0018.00016-.0018-.58186-.05694-1.16826.19647-1.16826.19647-.59106 0-1.13114.38761-1.13114.38761v.10249l.70602.70908s.19873.68249 1.5905.52209v.00173s.92147-.02515.98622-.04669c.02569-.00854.05233-.01632.07956-.02427.18049-.05269.38653-.11285.50918-.45286zm-2.28098-.65341c-.02009.23607-.13482 1.65915 0 1.87978z" fill="#ad1619"/><path d="m5.19606 5.09346.00046-.00216-.49669-.4673.04797-.05099.46607.4385.01193-.05486c.07625.01658.13198.02268.16447.01923v-.09513l.10331.05592c.05082.0275.1236.03489.21945.01929.0704-.01145.11791-.09321.13344-.26744l.03136-.35173.10519.33709c.04759.15254.12021.21978.22358.21978.10097 0 .14155-.03701.14603-.13031l.01271-.26461.11966.23634c.04311.08515.10257.12378.1871.12378.12091 0 .20167-.10079.20167-.25895h.00229.13771.00229c0 .15816.08076.25895.20166.25895.08454 0 .14399-.03863.1871-.12378l.11967-.23634.0127.26461c.00448.0933.04507.13031.14603.13031.10338 0 .17599-.06724.22359-.21978l.10519-.33709.03136.35173c.01553.17423.06303.25599.13344.26744.09585.0156.16863.00821.21944-.01929l.10332-.05592v.09513c.03248.00345.08822-.00265.16447-.01923l.02213.10179.51596-.48543.04797.05099-.64207.60407c-.09367.17251-.14085.28638-.14085.33368 0 .07217-.18774.115-.55415.15899-.28706.03447-.62583.0576-.90293.06106v.00045l-.03513-.00012-.03513.00012v-.00045c-.27711-.00346-.61588-.02659-.90293-.06106-.36642-.04399-.55416-.08682-.55416-.15899 0-.00894-.00169-.02028-.00506-.03393-.03695-.04706-.06292-.12403-.08021-.19347-.01622-.03247-.03475-.06793-.05558-.10628l-.14225-.13384zm3.4409.01127c-.11464.02029-.19742.01824-.24135-.01752-.0687.01999-.14929.02191-.2413.00694-.09827-.01599-.16671-.08136-.20789-.1898-.05376.06849-.12173.11077-.20316.12444.44795.06353.76174.15283.76174.15283s-.00774.06634-.02655.14434c.01991-.04083.0435-.0862.07077-.13628l.00675-.00875zm-1.10508-.10254c-.03896-.01936-.07007-.04743-.09256-.08361-.0334.0295-.07138.05107-.11357.06438.07043.00539.1393.0119.20613.01923zm-.45324-.03285c-.05453-.0252-.09987-.06555-.13373-.11725-.03362.05134-.07855.09148-.13256.11671.03199-.00095.06418-.00162.09651-.00198v-.00032l.02807.00008.02807-.00008v.00032c.03811.00042.07601.00128.11364.00252zm-1.68979.2068-.06526-.06141c.07834.00777.13633.0004.17062-.02752.06871.01999.14929.02191.24131.00694.09827-.01599.1667-.08136.20788-.1898.05221.06651.11781.1083.19612.12319-.38621.05426-.67437.12808-.75067.1486zm1.17219-.19415c-.06782.00503-.13422.01113-.19879.018.03695-.01926.0666-.04657.08826-.08141.03259.02879.06955.05003.11053.06341zm1.72209.58113c.04905.02296.08836.00006.11944-.04389-.00269.01214-.00437.02311-.00505.03294-.00411.00269-.0104.00593-.01866.0094-.02306.00969-.05827.02002-.10408.03047-.09005.02054-.21821.04096-.37011.0592-.29661.03561-.64932.05905-.92971.06089-.2804-.00184-.6331-.02528-.92972-.06089-.15189-.01824-.28006-.03866-.3701-.0592-.0384-.00876-.06935-.01743-.09194-.02572.00248-.00094.005-.00201.00754-.0032.15291-.07155 1.16409-.1387 1.34619-.15028.1821.01158 1.19328.07873 1.3462.15028zm.19284-.01282-.00107.00123.00064-.00089z" fill="#c88a02"/><path d="m6.94514 3.34187c.11598 0 .21-.09402.21-.21 0-.11597-.09402-.20999-.21-.20999s-.21.09402-.21.20999c0 .11598.09402.21.21.21z" fill="#005bbf"/><g fill="#c88a02"><path d="m6.80854 4.37293c.00448.02305.01147.04451.02032.06363-.02713-.01036-.05933-.01636-.09386-.01636-.09665 0-.175.04701-.175.105s.07835.105.175.105.175-.04701.175-.105c0 .05799.07835.105.175.105s.175-.04701.175-.105-.07835-.105-.175-.105c-.02433 0-.0475.00298-.06855.00836.00507-.02871.00485-.06162-.00177-.0957-.01844-.09487-.07954-.16281-.13647-.15175-.05692.01107-.08812.09695-.06967.19182zm.10146.15227-.00008-.00321.00016.00005zm-1.13114-.01864c-.00885-.01912-.01584-.04058-.02032-.06363-.01845-.09487.01275-.18075.06967-.19182.05693-.01106.11803.05688.13647.15175.00662.03408.00684.06699.00177.0957.02105-.00538.04422-.00836.06855-.00836.09665 0 .175.04701.175.105s-.07835.105-.175.105-.175-.04701-.175-.105l.00008-.00316-.00016-.00005.00008.00321c0 .05799-.07835.105-.175.105s-.175-.04701-.175-.105.07835-.105.175-.105c.03453 0 .06673.006.09386.01636zm2.19234.06399c-.00807.05742-.0922.09307-.18791.07962-.0957-.01345-.16675-.07091-.15868-.12833.00807-.05743.0922-.09308.18791-.07963.0342.00481.06525.01524.09067.02927-.0061-.02017-.01004-.04239-.01127-.06584-.00506-.09651.03779-.17722.0957-.18025.05791-.00304.10896.07275.11401.16926.00182.03467-.00254.06729-.01156.09501.02159-.0024.04495-.00212.06905.00126.0957.01346.16675.07091.15868.12834-.00807.05742-.0922.09307-.18791.07962s-.16676-.07091-.15869-.12833zm0 0 .00037-.00319.00015.00008zm.66652.27766c.08533.04537.17658.04065.20381-.01056l.00143-.00286c.00841.0089.01836.01537.02971.01884.05546.01696.12332-.04423.15158-.13665.02826-.09243.00621-.1811-.04925-.19806-.05546-.01695-.12332.04423-.15158.13666-.00686.02245-.01076.04468-.01193.06572-.01908-.02188-.04469-.0423-.07519-.05851-.08533-.04538-.17658-.04065-.20381.01055-.02722.0512.01989.12949.10523.17487zm-3.43471.02144c-.08534.04537-.17659.04065-.20381-.01055-.0005-.00095-.00098-.0019-.00144-.00287-.0084.0089-.01835.01537-.02971.01884-.05545.01696-.12332-.04422-.15157-.13665-.02826-.09243-.00621-.1811.04924-.19805.05546-.01696.12332.04423.15158.13665.00687.02246.01076.04469.01193.06572.01908-.02188.0447-.0423.07519-.05851.08534-.04537.17659-.04065.20381.01055s-.01988.1295-.10522.17487z"/><path d="m6.86676 2.54785h.14583v.09213h.09529v.14583h-.09529v.29167h.09529v.14583h-.33789v-.14583h.09677v-.29167h-.09677v-.14583h.09677z"/></g></g><path d="m6.84 3.33997h.28v.91h-.28z" fill="#c88a02"/><path d="m5.71286 3.49235-.00122.06999c-.62069-.01084-.97672.07974-1.0671.26027-.09344.18664-.07606.41353.05486.68305l-.06296.03058c-.13969-.28756-.15877-.53668-.0545-.74497.10734-.2144.48397-.31022 1.13092-.29892z" fill="#fff"/><path d="m5.83295 4.11309-.03589.0601c-.13517-.0807-.20282-.21844-.20282-.40825 0-.2728.14053-.43277.45137-.54225.19839-.06987.4694-.04122.81378.08364l-.02386.06581c-.3306-.11986-.58641-.14691-.76667-.08342-.28511.10041-.40462.23646-.40462.47622 0 .16657.05619.28097.16871.34815z" fill="#fff"/><path d="m4.7876 4.39833-.13209.04639c-.13705-.39021-.09791-.65522.13627-.76954.20635-.10073.50709-.14172.90372-.12565l-.00567.13989c-.37552-.01522-.6549.02286-.83664.11157-.1539.07513-.18205.26575-.06559.59734z" fill="#c88a02"/><path d="m6.33079 3.39916c-.32009 0-.45153.07795-.52663.30813-.04785.14669-.00144.27189.14906.38875l-.08587.11058c-.19484-.1513-.26354-.3366-.19628-.54275.0957-.29334.28349-.40471.65972-.40471.2466 0 .4387.06478.57245.19663l.02086.02056v.67498h-.14v-.61514c-.10446-.09073-.25451-.13703-.45331-.13703z" fill="#c88a02"/><path d="m8.15561 3.56241.00122.06999c.62069-.01083.97672.07975 1.0671.26028.09344.18664.07606.41353-.05486.68305l.06296.03058c.13969-.28756.15877-.53668.0545-.74497-.10734-.2144-.48398-.31022-1.13092-.29893z" fill="#fff"/><path d="m7.93643 4.12762.03589.0601c.13517-.08071.20282-.21844.20282-.40826 0-.2728-.14053-.43277-.45137-.54224-.19839-.06987-.4694-.04122-.81378.08364l.02386.06581c.3306-.11987.58641-.14691.76666-.08343.28512.10042.40463.23646.40463.47622 0 .16657-.05619.28098-.16871.34816z" fill="#fff"/><path d="m9.12451 4.4684.13209.04639c.13705-.39022.09791-.65522-.13627-.76954-.20635-.10073-.50709-.14172-.90372-.12565l.00567.13988c.37552-.01521.6549.02287.83664.11158.1539.07513.18205.26575.06559.59734z" fill="#c88a02"/><path d="m7.57329 3.41002c.32009 0 .45153.07796.52663.30814.04785.14669.00144.27188-.14905.38875l.08587.11057c.19483-.1513.26353-.3366.19627-.54274-.0957-.29335-.28348-.40472-.65972-.40472-.2466 0-.43869.06479-.57245.19664l-.02086.02056v.67498h.14v-.61514c.10447-.09074.25452-.13704.45331-.13704z" fill="#c88a02"/><path clip-rule="evenodd" d="m4.66998 5.79004h4.55v4.08802s-.33798 1.37194-2.275 1.37194c-1.93701 0-2.275-1.40812-2.275-1.40812z" fill="#e1e5e8" fill-rule="evenodd" opacity=".3"/><g mask="url(#e)"><path d="m4.66998 8.31006h2.31v2.73h-2.31z" fill="#ffc034"/><g fill="#ad1619"><path d="m4.94998 8.45007h.28v2.59h-.28z"/><path d="m5.92999 8.45007h.28v2.59h-.28z"/><path d="m5.43997 8.45007h.28v2.59h-.28z"/><path d="m6.41998 8.45007h.28v2.59h-.28z"/><path d="m4.66998 5.72009h2.31v2.66h-2.31z"/><path d="m6.90997 8.23999h2.31v2.66h-2.31z"/></g><path d="m6.90997 5.79004h2.45v2.59h-2.45z" fill="#f1f9ff"/><path clip-rule="evenodd" d="m5.64997 6h.21v.58074h.14v-.29037h.21v.29037h.21v.36296h-.21v.65334h.21v.36296h-1.26v-.36296h.21v-.65334h-.21v-.36296h.14v-.29037h.21v.29037h.14z" fill="#c88a02" fill-rule="evenodd"/><path d="m8.11176 6.12197.14335-.15346.30096.28114-.14335.15346z" fill="#c88a02"/><g clip-rule="evenodd" fill-rule="evenodd"><path d="m8.97498 10.0876v-1.53255h-1.75v1.51975l.00277.0118c.08859.3775.39028.5685.87223.5685.48148 0 .78313-.1861.87208-.5554zm-.875.3575c-.3867 0-.59787-.1303-.665-.3951v-1.28495h1.33v1.29715c-.06697.2561-.27816.3829-.665.3829z" fill="#ffc034"/><path d="m8.17223 8.68311h-.14583v.69479l-.57489-.62526-.10306.09475.51991.56546h-.47107v.21h.36186.12066l-.53136.57795.10306.0947.57489-.62523v.81213h.14583v-.73905l.50769.55215.10306-.0947-.53136-.57795h.5931v-.21h-.58164l.5199-.56546-.10306-.09475-.50769.55217z" fill="#ffc034"/><path d="m8.42669 10.9017s-1.48262.1165-1.48262-.8397c0 0-.01414.8397-1.56226.8397v.7549h3.04488z" fill="#f1f9ff"/><path d="m6.94498 8.87c.28995 0 .525-.25072.525-.56s-.23505-.56-.525-.56-.525.25072-.525.56.23505.56.525.56z" fill="#005bbf" stroke="#ad1619" stroke-width=".729167"/></g></g></g></g></svg>