<svg fill="none" height="24" viewBox="0 0 32 24" width="32" xmlns="http://www.w3.org/2000/svg" xmlns:xlink="http://www.w3.org/1999/xlink"><mask id="a" height="24" maskUnits="userSpaceOnUse" width="32" x="0" y="0"><path d="m0 0h32v24h-32z" fill="#fff"/></mask><mask id="b" height="24" maskUnits="userSpaceOnUse" width="32" x="0" y="0"><path clip-rule="evenodd" d="m0 0v24h32v-24z" fill="#fff" fill-rule="evenodd"/></mask><g mask="url(#a)"><path clip-rule="evenodd" d="m0 0v24h32v-24z" fill="#c51918" fill-rule="evenodd"/><g mask="url(#b)"><path clip-rule="evenodd" d="m15.9821 17.8668c.1071 0 .2137-.0028.3194-.0083l.6171 1.9677.1429-2.0557c.2065-.0374.4092-.0852.6077-.143l1.058 1.7736-.3391-2.0338c.1912-.0834.3771-.1764.5572-.2784l1.4428 1.4848-.8035-1.9031c.1659-.1243.3251-.257.4769-.3975l1.7504 1.1156-1.2245-1.6683c.1325-.1584.2569-.3237.3725-.4953l1.9619.6848-1.5782-1.3422c.0922-.1841.175-.3736.2478-.568l2.0666.2175-1.8469-.9446c.0464-.1996.0827-.4031.1082-.6098l2.0615-.2612-2.0168-.4967c-.001-.2089-.0128-.4153-.0351-.6186l1.9438-.7251-2.0747-.0219c-.0492-.2029-.109-.4016-.1786-.59572l1.7202-1.14847-2.0219.45276c-.0951-.18558-.1998-.36553-.3134-.53922l1.406-1.5101-1.8612.90258c-.1354-.15868-.2792-.3102-.4305-.45391l1.0162-1.78962-1.5991 1.30233c-.1686-.1237-.344-.23882-.5256-.34471l.5718-1.97067-1.2511 1.63028c-.1928-.08174-.3909-.15372-.5935-.21531l.0981-2.0455-.8378 1.87114c-.206-.03495-.4156-.05945-.6282-.07292l-.3801-2.01224-.3799 2.01133c-.2131.01299-.4231.03703-.6295.07157l-.8367-1.86888.0978 2.0412c-.2037.06138-.4029.13326-.5968.215l-1.2476-1.62567.5697 1.9635c-.1832.10627-.3601.22194-.5303.34632l-1.5922-1.29677 1.0111 1.78074c-.1532.14486-.2986.2977-.4357.45785l-1.85093-.89764 1.39753 1.50101c-.1153.1756-.2215.35762-.3179.54542l-2.00896-.44987 1.70856 1.14071c-.0708.19658-.1315.39798-.1814.60358l-2.06023.0218 1.92993.7199c-.0227.2062-.0348.4155-.0357.6274l-2.0023.4931 2.0468.2593c.0258.2097.0627.4159.11.6182l-1.83405.9381 2.05275-.216c.0738.1968.1579.3888.2515.5751l-1.56807 1.3336 1.95027-.6807c.1171.1734.2431.3405.3774.5004l-1.2178 1.6591 1.7419-1.1101c.1534.1415.3143.2751.482.4002l-.8 1.8949 1.4377-1.4796c.1814.1024.3687.1956.5613.2791l-.3381 2.0279 1.0558-1.77c.1993.0575.4028.105.61.142l.1428 2.0531.6168-1.967c.1011.0051.2029.0076.3053.0076zm4.5-5.9511c0 2.4848-2.0309 4.4991-4.536 4.4991-2.5052 0-4.536-2.0143-4.536-4.4991 0-2.48482 2.0308-4.49916 4.536-4.49916 2.5051 0 4.536 2.01434 4.536 4.49916zm-1.3719 1.4656c.1893-.4255.2945-.8967.2945-1.3925 0-.4843-.1004-.9451-.2815-1.3629-.7827.0557-1.4463.2617-1.9846.5254 1.1947.5226 1.7352 1.3829 1.9716 2.23zm-.3855.6576c-.0978.1309-.2047.2546-.3198.3701-.0639-1.1805-.5689-2.0807-1.4745-3.0519 1.1213.5372 1.7538 1.8213 1.7943 2.6818zm-.8583.8111c-.0634.042-.1282.082-.1945.1197-.2691-1.3265-.7789-2.3732-1.4884-3.2097l.172-.1296c.0228-.0173.0461-.0345.0699-.0517.9079 1.0441 1.4806 1.9399 1.441 3.2713zm-1.8909.5681c.4024 0 .7886-.0693 1.1474-.1967-.2607-1.2622-.7148-2.4378-1.372-3.2861-.7853.9349-1.1849 1.9914-1.1996 3.174.4337.1983.916.3088 1.4242.3088zm-.6601-3.8891c.0273.0214.0534.0427.0783.0639-.8365.9514-1.2941 2.0243-1.3721 3.2145-.1027-.0714-.2014-.1482-.2956-.2301.3152-1.2584.8378-2.2966 1.5894-3.0483zm-2.4976-.8799c.786.0885 1.4065.2796 1.8715.5009-1.1851.5036-1.6519 1.3149-1.8866 2.1425-.1653-.4019-.2565-.8421-.2565-1.3037 0-.4753.0968-.9281.2716-1.3397zm.4304 3.4189c-.0264-.0346-.0522-.0697-.0773-.1052.0593-.869.6127-2.1021 1.7306-2.6105-.7499.7278-1.3109 1.5562-1.6533 2.7157zm.2537-4.45428c.624-.64971 1.5016-1.0541 2.4736-1.0541.9568 0 1.8221.39187 2.4441 1.02389-.9788.11352-1.8089.35893-2.4828.74069-.6009-.34474-1.4132-.57778-2.4349-.71048z" fill="#ffdc17" fill-rule="evenodd"/></g></g></svg>