<svg fill="none" height="15" viewBox="0 0 20 15" width="20" xmlns="http://www.w3.org/2000/svg" xmlns:xlink="http://www.w3.org/1999/xlink"><mask id="a" height="15" maskUnits="userSpaceOnUse" width="20" x="0" y="0"><path d="m0 0h20v15h-20z" fill="#fff"/></mask><mask id="b" height="15" maskUnits="userSpaceOnUse" width="20" x="0" y="0"><path clip-rule="evenodd" d="m0 0v15h20v-15z" fill="#fff" fill-rule="evenodd"/></mask><mask id="c" height="18" maskUnits="userSpaceOnUse" width="7" x="1" y="-1"><path d="m1.25-.201904h6.25v16.4518h-6.25z" fill="#fff"/></mask><mask id="d" height="4" maskUnits="userSpaceOnUse" width="5" x="2" y="10"><path clip-rule="evenodd" d="m3.88561 10.7817-1.10723.6244v1.0347l1.10723.6496h1.19924l1.13357-.6496v-1.0347l-1.13357-.6244z" fill="#fff" fill-rule="evenodd"/></mask><g mask="url(#a)"><path clip-rule="evenodd" d="m0 0v15h20v-15z" fill="#29c470" fill-rule="evenodd"/><g mask="url(#b)"><path d="m1.25-.201904h6.25v16.4518h-6.25z" fill="#c51918"/><g mask="url(#c)"><path clip-rule="evenodd" d="m1.6221.566016-.34131.438574-.03079-.030444.33114-.425508v-.085416l.00125-.007935.0385-.118552-.02357-.041299-.19528.195259.37643-.5862563v.2003273l.07224.065206.17255-.301789-.17313-.290448-.12495.096024.05067.101792-.03484.024193-.28207-.471887.1797.122874.03166-.045902-.1722-.175406.07617-.083881-.25169-.367322.03242-.02822.27397.399846-.07107.078265.16808.171207-.07739.112211-.05154-.03524.09833.164497.16575-.12738.21116.354248-.21174.370339-.12304-.111052v-.0799719l-.12351.1923529.05235.091737-.04425.136255zm-.34131 3.577884.34131-.43857v-.09871l.04425-.13625-.05235-.09174.12351-.19235v.07997l.12304.11105.21174-.37034-.21116-.35424-.16575.12738-.09833-.1645.05154.03524.07739-.11221-.16808-.17121.07107-.07826-.27397-.39985-.03242.02822.25169.36732-.07617.08388.1722.17541-.03166.0459-.1797-.12287.28207.47188.03484-.02419-.05067-.10179.12495-.09603.17313.29045-.17255.30179-.07224-.06521v-.20032l-.37643.58625.19528-.19525.02357.04129-.0385.11856-.00125.00793v.08542l-.33114.42551zm.34131 2.42374-.34131.43857-.03079-.03044.33114-.42551v-.08542l.00125-.00793.0385-.11856-.02357-.04129-.19528.19525.37643-.58625v.20033l.07224.0652.17255-.30179-.17313-.29045-.12495.09603.05067.10179-.03484.02419-.28207-.47188.1797.12287.03166-.0459-.1722-.17541.07617-.08388-.25169-.36732.03242-.02822.27397.39985-.07107.07826.16808.17121-.07739.11221-.05154-.03524.09833.1645.16575-.12738.21116.35424-.21174.37034-.12304-.11105v-.07997l-.12351.19235.05235.09174-.04425.13625zm-.34131 3.34705.34131-.43858v-.0987l.04425-.13625-.05235-.09174.12351-.19235v.07997l.12304.11105.21174-.37034-.21116-.35425-.16575.12738-.09833-.16449.05154.03524.07739-.11222-.16808-.1712.07107-.07827-.27397-.39984-.03242.02822.25169.36732-.07617.08388.1722.17541-.03166.0459-.1797-.12288.28207.47189.03484-.02419-.05067-.10179.12495-.09603.17313.29045-.17255.30179-.07224-.06521v-.20032l-.37643.58625.19528-.19526.02357.0413-.0385.11855-.00125.00794v.08541l-.33114.42551zm0 2.58531.34131-.4386v-.0987l.04425-.1362-.05235-.0918.12351-.1923v.08l.12304.111.21174-.3703-.21116-.3543-.16575.1274-.09833-.1645.05154.0352.07739-.1122-.16808-.1712.07107-.0782-.27397-.3999-.03242.0282.25169.3674-.07617.0838.1722.1754-.03166.0459-.1797-.1228.28207.4719.03484-.0242-.05067-.1018.12495-.0961.17313.2905-.17255.3018-.07224-.0652v-.2004l-.37643.5863.19528-.1953.02357.0413-.0385.1186-.00125.0079v.0854l-.33114.4256zm6.18842 0-.34131-.4386v-.0987l-.04425-.1362.05235-.0918-.12351-.1923v.08l-.12304.111-.21174-.3703.21116-.3543.16575.1274.09833-.1645-.05154.0352-.07739-.1122.16808-.1712-.07107-.0782.27397-.3999.03242.0282-.25169.3674.07617.0838-.1722.1754.03166.0459.1797-.1228-.28207.4719-.03484-.0242.05067-.1018-.12495-.0961-.17313.2905.17255.3018.07224-.0652v-.2004l.37643.5863-.19528-.1953-.02357.0413.0385.1186.00125.0079v.0854l.33114.4256zm-.34131-3.02389.34131.43858.03079-.03045-.33114-.42551v-.08541l-.00125-.00794-.0385-.11855.02357-.0413.19528.19526-.37643-.58625v.20032l-.07224.06521-.17255-.30179.17313-.29045.12495.09603-.05067.10179.03484.02419.28207-.47189-.1797.12288-.03166-.0459.1722-.17541-.07617-.08388.25169-.36732-.03242-.02822-.27397.39984.07107.07827-.16808.1712.07739.11222.05154-.03524-.09833.16449-.16575-.12738-.21116.35425.21174.37034.12304-.11105v-.07997l.12351.19235-.05235.09174.04425.13625zm.34131-2.4699-.34131-.43857v-.09871l-.04425-.13625.05235-.09174-.12351-.19235v.07997l-.12304.11105-.21174-.37034.21116-.35424.16575.12738.09833-.1645-.05154.03524-.07739-.11221.16808-.17121-.07107-.07826.27397-.39985.03242.02822-.25169.36732.07617.08388-.1722.17541.03166.0459.1797-.12287-.28207.47188-.03484-.02419.05067-.10179-.12495-.09603-.17313.29045.17255.30179.07224-.0652v-.20033l.37643.58625-.19528-.19525-.02357.04129.0385.11856.00125.00793v.08542l.33114.42551zm-.34131-3.30088.34131.43857.03079-.03044-.33114-.42551v-.08542l-.00125-.00793-.0385-.11856.02357-.04129.19528.19525-.37643-.58625v.20032l-.07224.06521-.17255-.30179.17313-.29045.12495.09603-.05067.10179.03484.02419.28207-.47188-.1797.12287-.03166-.0459.1722-.17541-.07617-.08388.25169-.36732-.03242-.02822-.27397.39985.07107.07826-.16808.17121.07739.11221.05154-.03524-.09833.1645-.16575-.12738-.21116.35424.21174.37034.12304-.11105v-.07997l.12351.19235-.05235.09174.04425.13625zm.34131-2.70074-.34131-.438574v-.098702l-.04425-.136255.05235-.091737-.12351-.1923529v.0799719l-.12304.111052-.21174-.370339.21116-.354248.16575.12738.09833-.164497-.05154.03524-.07739-.112211.16808-.171207-.07107-.078265.27397-.399846.03242.02822-.25169.367322.07617.083881-.1722.175406.03166.045902.1797-.122874-.28207.471887-.03484-.024193.05067-.101792-.12495-.096024-.17313.290448.17255.301789.07224-.065206v-.2003273l.37643.5862563-.19528-.195259-.02357.041299.0385.118552.00125.007935v.085416l.33114.425508z" fill="#e8aa00" fill-rule="evenodd"/><path clip-rule="evenodd" d="m4.56667 9.10289h.97094v.22787h.22124v.18229h.26549v.59245h-.26549v.1823h-.22124v.1823h-.94503l-.26145.2323-.2627-.2323h-.87595v-.1823h-.22124v-.1823h-.22124v-.59245h.22124v-.18229h.22124v-.22787h.90198l.23667-.20934z" fill="#389f5d" fill-rule="evenodd"/><path d="m5.53761 9.10289h.25v-.25h-.25zm-.97094 0-.16607.18687.07104.06313h.09503zm.97094.22787h-.25v.25h.25zm.22124 0h.25v-.25h-.25zm0 .18229h-.25v.25h.25zm.26549 0h.25v-.25h-.25zm0 .59245v.25h.25v-.25zm-.26549 0v-.25001h-.25v.25001zm0 .1823v.25h.25v-.25zm-.22124 0v-.25h-.25v.25zm0 .1823v.25h.25v-.25zm-.94503 0v-.25h-.09504l-.07104.0631zm-.26145.2323-.16564.1873.16603.1469.16568-.1473zm-.2627-.2323.16564-.1873-.07094-.0627h-.0947zm-.87595 0h-.25v.25h.25zm0-.1823h.25v-.25h-.25zm-.22124 0h-.25v.25h.25zm0-.1823h.25v-.25001h-.25zm-.22124 0h-.25v.25h.25zm0-.59245v-.25h-.25v.25zm.22124 0v.25h.25v-.25zm0-.18229v-.25h-.25v.25zm.22124 0v.25h.25v-.25zm0-.22787v-.25h-.25v.25zm.90198 0v.25h.0947l.07094-.06274zm.23667-.20934.16607-.18686-.16568-.14725-.16603.14686zm1.20648-.04066h-.97094v.5h.97094zm.25.47787v-.22787h-.5v.22787zm-.02876-.25h-.22124v.5h.22124zm.25.43229v-.18229h-.5v.18229zm.01549-.25h-.26549v.5h.26549zm.25.84245v-.59245h-.5v.59245zm-.51549.25h.26549v-.50001h-.26549zm.25-.0677v-.1823h-.5v.1823zm-.47124.25h.22124v-.5h-.22124zm.25-.0677v-.1823h-.5v.1823zm-1.19503.25h.94503v-.5h-.94503zm-.09538.1692.26145-.2324-.33215-.3737-.26145.2324zm-.5944-.232.26269.2324.33127-.3745-.26269-.2324zm-.71032.0628h.87595v-.5h-.87595zm-.25-.4323v.1823h.5v-.1823zm.02876.25h.22124v-.5h-.22124zm-.25-.4323v.1823h.5v-.1823zm.02876.25h.22124v-.50001h-.22124zm-.25-.84245v.59245h.5v-.59245zm.47124-.25h-.22124v.5h.22124zm-.25.06771v.18229h.5v-.18229zm.47124-.25h-.22124v.5h.22124zm-.25.02213v.22787h.5v-.22787zm1.15198-.25h-.90198v.5h.90198zm.16564.43726.23666-.20934-.33127-.37451-.23666.20933zm-.09505-.20973.23555.20934.33215-.37374-.23555-.20933z" fill="#e8aa00"/><path clip-rule="evenodd" d="m3.32202 9.62965v-.4026h.46911zm1.97353 0v-.4026h-.4691zm-1.97353.72915v-.40258l.46911.40258zm1.97353-.40258v.40258h-.4691z" fill="#c51918" fill-rule="evenodd"/><path clip-rule="evenodd" d="m4.1532 9.26162.16193-.21206.15989.21206zm0 .1981.16193.21205.15989-.21205zm.16193.5013-.16193.21208h.32182zm-.16193.41018.16193.212.15989-.212z" fill="#e8aa00" fill-rule="evenodd"/><path clip-rule="evenodd" d="m4.15657 9.23657v.09115h-.09297v.125h.09297v.09114h.32442v-.09114h.09297v-.125h-.09297v-.09115zm.32442 1.00263v-.0912h-.32442v.0912h-.09297v.125h.09297v.0911h.32442v-.0911h.09297v-.125z" fill="#af0100" fill-rule="evenodd"/><path clip-rule="evenodd" d="m3.53375 9.71838.15414-.21301.1522.21301zm0 .19898.15414.21304.1522-.21304zm1.43733-.41199-.15414.21301h.30634zm-.15414.41199.15414.21304.1522-.21304z" fill="#af0100" fill-rule="evenodd"/><path clip-rule="evenodd" d="m3.53259 9.69214v.09297h-.0885v.1275h.0885v.09299h.30881v-.09299h.0885v-.1275h-.0885v-.09297zm1.592.09297v-.09297h-.30882v.09297h-.08849v.1275h.08849v.09299h.30882v-.09299h.0885v-.1275z" fill="#e8aa00" fill-rule="evenodd"/><g mask="url(#d)"><path d="m2.79425 11.9348h1.72566v1.1393h-1.72566z" fill="#e8aa00"/><path d="m2.61725 10.7954h1.90265v1.13932h-1.90265z" fill="#f9e8e7"/><path d="m3.05975 11.4594.57283-.3449v.3449z" fill="#e8aa00"/><path d="m0 0h1.90265v1.13932h-1.90265z" fill="#e8aa00" transform="matrix(-1 0 0 1 6.42255 10.7954)"/><path d="m5.84735 11.4594-.57282-.3449v.3449z" fill="#f9e8e7"/><path d="m6.24554 13.0742h1.72566v1.13932h-1.72566z" fill="#f9e8e7" transform="matrix(-1 0 0 -1 12.49108 26.1484)"/><path d="m5.80304 12.4102-.57282.3449v-.3449z" fill="#e8aa00"/><path d="m3.05969 12.3382.57283.3449v-.3449z" fill="#fcfcfc"/></g><g clip-rule="evenodd" fill-rule="evenodd"><path d="m3.90039 11.4791h.28761l.28761-.0912.28761.0912h.28761v.8659h-.28761l-.28761.1367-.28761-.1367h-.28761z" fill="#c51918"/><path d="m4.87386 10.9609h.15625v.1764h.06402v.125h-.06402v.0672h-.15625zm-1.56942.5469h-.15625v.3686h.15625v-.0673h.06403v-.125h-.06403zm.22124 0h-.15625v.3686h.15625zm-.22124.4557h-.15625v.3686h.15625v-.0672h.06403v-.125h-.06403zm.06499 0h.15625v.3686h-.15625zm2.21239-.4557h.15625v.1763h.06403v.125h-.06403v.0673h-.15625zm.37749 0h-.15625v.3686h.15625zm-.22124.4557h-.15625v.3686h.15625v-.0672h.06403v-.125h-.06403zm.06499 0h.15625v.3686h-.15625zm-.55171-1.0026h-.15625v.3686h.15625zm-1.28319 0h-.15625v.3686h.15625v-.0672h.06403v-.125h-.06403zm.06499 0h.15625v.3686h-.15625zm.84071 1.5495h.15625v.1763h.06402v.125h-.06402v.0673h-.15625zm.37749 0h-.15625v.3686h.15625zm-1.28319 0h-.15625v.3686h.15625v-.0673h.06403v-.125h-.06403zm.06499 0h.15625v.3686h-.15625z" fill="#c9343f"/><path d="m4.39069 11.6664h.04425v-.1239h-.22108v.1417h-.18218v.203h.1694v-.0456h-.12515v-.1119h.15025l.22617.1957-.22617.1958h-.15025v-.1119h.12515v-.0456h-.1694v.203h.18218v.1417h.22108v-.1239h-.04425v.0783h-.13258v-.1097l.23-.1991.23.1991v.1097h-.13259v-.0783h-.04424v.1239h.22107v-.1417h.18219v-.203h-.16941v.0456h.12516v.1119h-.15026l-.22617-.1958.22617-.1957h.15026v.1119h-.12516v.0456h.16941v-.203h-.18219v-.1417h-.22107v.1239h.04424v-.0783h.13259v.1097l-.23.1991-.23-.1991v-.1097h.13258z" fill="#fff"/><path d="m4.74025 3h-.77922v2.5h.77922zm-1.75325.52885h.48701v1.34615h-.48701zm2.28896 0h.48701v1.34615h-.48701z" fill="#e8aa00"/><path d="m3.96104 3.19238h-.48701v1.92308h.48701zm-.97403.52885h-.48701v.91346h.48701zm2.77598 0h.48701v.91346h-.48701zm-.53572-.52885h-.48701v1.92308h.48701z" fill="#389f5d"/><path d="m3.86365 3.4328c0 .07966-.06542.14424-.14611.14424s-.1461-.06458-.1461-.14424c0-.07965.06541-.14423.1461-.14423s.14611.06458.14611.14423zm-.97403.48077c0 .07966-.06541.14423-.1461.14423s-.14611-.06457-.14611-.14423c0-.07965.06542-.14423.14611-.14423s.1461.06458.1461.14423zm0 .52885c0 .07966-.06541.14423-.1461.14423s-.14611-.06457-.14611-.14423.06542-.14423.14611-.14423.1461.06457.1461.14423zm.82792.57692c.08069 0 .14611-.06457.14611-.14423 0-.07965-.06542-.14423-.14611-.14423s-.1461.06458-.1461.14423c0 .07966.06541.14423.1461.14423zm2.28896-.96154c.08069 0 .14611-.06457.14611-.14423 0-.07965-.06542-.14423-.14611-.14423s-.1461.06458-.1461.14423c0 .07966.06541.14423.1461.14423zm.14611.38462c0 .07966-.06542.14423-.14611.14423s-.1461-.06457-.1461-.14423.06541-.14423.1461-.14423.14611.06457.14611.14423zm-1.16883.57692c.08069 0 .1461-.06457.1461-.14423 0-.07965-.06541-.14423-.1461-.14423-.0807 0-.14611.06458-.14611.14423 0 .07966.06541.14423.14611.14423zm.1461-1.58654c0 .07966-.06541.14424-.1461.14424-.0807 0-.14611-.06458-.14611-.14424 0-.07965.06541-.14423.14611-.14423.08069 0 .1461.06458.1461.14423z" fill="#e1e5e8"/><path d="m4.49675 3.24042c0 .07966-.06541.14423-.1461.14423-.0807 0-.14611-.06457-.14611-.14423 0-.07965.06541-.14423.14611-.14423.08069 0 .1461.06458.1461.14423zm-1.12013.52885c0 .07965-.06541.14423-.1461.14423-.0807 0-.14611-.06458-.14611-.14423 0-.07966.06541-.14423.14611-.14423.08069 0 .1461.06457.1461.14423zm.97403 1.68269c.08069 0 .1461-.06457.1461-.14423s-.06541-.14423-.1461-.14423c-.0807 0-.14611.06457-.14611.14423s.06541.14423.14611.14423zm1.31493-1.68269c0 .07965-.06541.14423-.1461.14423s-.14611-.06458-.14611-.14423c0-.07966.06542-.14423.14611-.14423s.1461.06457.1461.14423zm-2.43506 1.00961c.08069 0 .1461-.06457.1461-.14423 0-.07965-.06541-.14423-.1461-.14423-.0807 0-.14611.06458-.14611.14423 0 .07966.06541.14423.14611.14423zm2.43506-.14423c0 .07966-.06541.14423-.1461.14423s-.14611-.06457-.14611-.14423c0-.07965.06542-.14423.14611-.14423s.1461.06458.1461.14423z" fill="#c51918"/><path d="m3.5041 3.99458.4741-.42817h.7698l.54028.49122h.71823v.19231h-.69876v.01004l-.55975.56929h-.7698l-.4741-.51381v-.06552h-.80928v-.19231h.80928z" fill="#c51918"/><path d="m4.38192 3.92273.23023.23333-.2417.22895-.2417-.22895.23023-.23333.01147-.01058zm.04192.56336.02697-.02496-.0276-.02615.23992-.22726.25024.2536-.11262.11877h-.06677l-.12421.07814zm-.05339.04943-.23073.21363-.15409-.09694h-.07716l-.18194-.19188.29854-.30254-.30046-.28461.19715-.19131.07145.05613.10339-.10443-.03108-.03149.05233-.05032.2526.256.25261-.256.05232.05032-.03107.03149.10338.10443.07145-.05613.19715.19131-.30045.28461.29853.30254-.18194.19188h-.07716l-.15409.09694zm.12876-.59728.00303-.0032-.06918-.06384-.00869-.0088.17995-.16604.13724.13862.07248-.05694.0974.09451-.24658.23358zm-.15455.52229-.21353.1977-.1242-.07814h-.06678l-.11261-.11877.25024-.2536zm-.5152-.58798.24658.23358.24049-.24373-.17995-.16604-.13724.13862-.07248-.05694z" fill="#e8aa00"/><path d="m2.78022 13.401c-.13064-.1658-.21881-.2777-.24203-.276-.07292.0054-.1413.7774.80646 1.3647 0 0 .1399.0778.22138 0s0-.1922 0-.1922c-.30636-.2879-.59255-.6512-.78581-.8965zm3.18956 0h.00001c.13063-.1658.2188-.2777.24202-.276.07292.0054.1413.7774-.80646 1.3647 0 0-.1399.0778-.22138 0s0-.1922 0-.1922c.30636-.2879.59255-.6512.7858-.8965zm-.06934 1.0388c-.31143.092-.67213.1113-.81006.0518-.04399-.019-.0907-.0339-.13978-.045-.13721-.0312-.27095-.0314-.42965-.014l-.05866.0067-.00399.0005c-.01494.0017-.02357.0024-.02522.0024-.0093 0-.0195.0014-.03068.004-.01118-.0026-.02138-.004-.03068-.004-.00165 0-.01028-.0007-.02522-.0024-.00022 0-.00166-.0002-.00398-.0005-.01159-.0013-.04512-.0053-.05866-.0067-.15871-.0174-.29245-.0172-.42966.014-.04908.0111-.09579.026-.13978.045-.13793.0595-.49862.0402-.81006-.0518 0 0 .56673.2276.90332.1268.03264-.0141.06706-.0251.10328-.0333.09582-.0218.19395-.0237.312-.0127-.04965.0231-.10737.0496-.17452.0768v.0276c.13255-.0538.28789-.0792.35396-.0871.06608.0079.22141.0333.35396.0871v-.0276c-.06714-.0272-.12487-.0537-.17452-.0768.11805-.011.21619-.0091.312.0127.03622.0082.07065.0192.10329.0333.33658.1008.90331-.1268.90331-.1268z" fill="#e8aa00"/><path d="m3.60252 6.23584-.78245.68954v.65673l.68405.68737h1.39673l.77011-.73342v-.55912l-.77011-.7411z" fill="#389f5d"/><path d="m3.87169 6.30884h-.17699v.13672h.17699zm0 1.78752h-.17699v.13671h.17699zm.26549 0h.17699v.13671h-.17699zm.17699-1.78752h-.17699v.13672h.17699zm.26549 1.78752h.17699v.13671h-.17699zm.17699-1.78752h-.17699v.13672h.17699z" fill="#c51918"/><path d="m4.09612 6.27344h-.18017v.13672h.18017zm0 1.82291h-.18017v.13672h.18017zm.27025-1.82291h.18016v.13672h-.18016zm.18016 1.82291h-.18016v.13672h.18016z" fill="#e8aa00"/><path d="m3.07107 6.15112h2.36252v.36508h.33828v1.50926h-.33828v.31198h-2.36252v-.31198h-.36733v-1.50926h.36733zm.13274.5018h-.36733v1.23582h.36733v.31198h2.09703v-.31198h.33829v-1.23582h-.33829v-.36508h-2.09703z" fill="#750100"/><path d="m4.00444 6h-.22124v.22786h.22124zm.35398 0h-.22123v.22786h.22123zm.13275 0h.22124v.22786h-.22124zm-.48673 2.27865h-.22124v.22786h.22124zm.13275 0h.22123v.22786h-.22123zm.57522 0h-.22124v.22786h.22124zm-2.21571-.50462v-.22124h.22787v.22124zm0-.58582v.22124h.22787v-.22124zm0-.14335v-.22123h.22787v.22123zm3.18584.50793v.22124h.22787v-.22124zm0-.14334v-.22124h.22787v.22124zm0-.58582v.22123h.22787v-.22123z" fill="#389f5d"/><path d="m3.6115 6.42798-.38158.33189v1.07391l.31668.22409h1.37289l.31622-.22409v-1.07391l-.35688-.33189z" fill="#c51918"/><path d="m4.25206 6.87305-.46043.39339h.46043z" fill="#e1e5e8"/></g><path d="m4.25206 7.62329-.46043-.3934h.46043z" fill="#e8aa00"/><path clip-rule="evenodd" d="m4.21193 6.87305.46043.39339h-.46043z" fill="#e8aa00" fill-rule="evenodd"/><path clip-rule="evenodd" d="m4.23241 7.37266c.07702 0 .13945-.06244.13945-.13946 0-.07701-.06243-.13945-.13945-.13945s-.13945.06244-.13945.13945c0 .07702.06243.13946.13945.13946z" fill="#29ae66" fill-rule="evenodd"/><path d="m4.21193 7.62329.46043-.3934h-.46043z" fill="#e1e5e8"/><g clip-rule="evenodd" fill-rule="evenodd"><path d="m3.25223 7.09375h-.39823v.1275h.39823zm0 .23242h-.39823v.1275h.39823zm1.99115-.23242h.39823v.1275h-.39823zm.39823.23242h-.39823v.1275h.39823z" fill="#c51918"/><path d="m3.20799 6.95703h-.35399v.13945h.35399zm0 .23242h-.35399v.13946h.35399zm-.35399.23243h.35399v.13945h-.35399zm2.74337-.46485h-.35399v.13945h.35399zm-.35399.23242h.35399v.13946h-.35399zm.35399.23243h-.35399v.13945h.35399z" fill="#e8aa00"/><path d="m6.24062.993963-.00135.253237h-1.84932l-.00133 1.15h-.57987c-.10123 0-.37876-.19437-.37876-.19437h-.47085l-.21736-.22207v-.22313l-.2333-.277.00135-.25324h1.84933l.00132-1.1499974h.57987c.10123 0 .37876.1943714.37876.1943714h.47085l.21737.222065v.22313z" fill="#e8aa00"/><path d="m2.50847.993963.00134.253237h1.84933l.00132 1.15h.57988c.10122 0 .37876-.19437.37876-.19437h.47084l.21737-.22207v-.22313l.23329-.277-.00134-.25324h-1.84933l-.00132-1.1499974h-.57988c-.10122 0-.37876.1943714-.37876.1943714h-.47084l-.21737.222065v.22313z" fill="#e1e5e8"/><path d="m3.75138.428315-.02025-.097809.39891-.091733c.04789-.023124.131-.089.24547-.1960484l.05363.0603594.00921-.0103594c.11447.1070484.19758.1729244.24547.1960484l.39891.091733-.02025.097808-.22122-.045698.02116.018925c-.0152.009108-.03174.022385-.04946.039751l-.09339-.013753.00868-.031585-.02345-.003819c-.01718.032406-.03683.07877-.05781.138264l-.09341-.027503.03782-.181178-.21112-.198014-.14791.138727c.0184.016681.03675.035829.05512.057492-.01569.005971-.03069.01124-.04501.01581l-.00634.001511.02415.115652-.09341.027503c-.0122-.034567-.02394-.064701-.035-.090241l-.0077.001134c-.01772-.017366-.03426-.030643-.04946-.039751l.02644-.02364c-.00434-.007417-.00849-.013846-.01244-.01927zm.01642.358123.05326-.083727-.27551-.184726.03064-.042845-.07852-.059182-.0338.047265-.10933-.073309-.05326.083726.10486.070311-.0216.030202.07852.059182.02476-.034622zm-.34091.1.05326-.083727-.27551-.184726.03064-.042845-.07851-.059182-.03381.047265-.10933-.073309-.05326.083726.10486.070311-.0216.030202.07852.059182.02476-.034622zm-.14611.300002.05326-.08373-.2755-.184725.03063-.042845-.07851-.059182-.0338.047265-.10934-.073309-.05325.083726.10486.070311-.0216.030202.07851.059187.02476-.034627zm.00456.24001-.05326-.08373-.27998.18773-.02476-.03462-.07851.05918.0216.0302-.10487.07031.05326.08373.10934-.07331.0338.04726.07851-.05918-.03064-.04284zm.09285.21627.05326.08373-.27551.18473.03064.04284-.07852.05918-.0338-.04726-.10933.07331-.05326-.08373.10486-.07031-.0216-.0302.07852-.05918.02476.03462zm.34091.1.05326.08373-.27551.18473.03064.04284-.07852.05918-.0338-.04726-.10933.07331-.05326-.08373.10486-.07031-.0216-.0302.07852-.05918.02476.03462zm.51969.47791c-.01569-.00597-.03069-.01124-.04501-.01581l-.01854-.00442.03635-.17413-.09341-.02751c-.02984.0846-.05698.14265-.07816.17177l-.33734-.06968-.02025.09781.38449.08841-.00011.00037.05561.03693.00732-.00456c.04846.0338.11464.08954.19707.16663l.03142-.03536.03142.03536c.11447-.10705.19758-.17293.24547-.19605l.01294-.00298c.01681.01435.03368.02666.05069.03696l.05561-.03693-.00562-.01906.0062-.00554.27909-.06418-.02025-.09781-.33734.06968c-.02118-.02912-.04831-.08717-.07815-.17177l-.09342.02751.03783.18117-.18447.17302-.14265-.13379c.00774-.00824.01547-.01692.02321-.02604zm1.19233-.79418.05326-.08373.27998.18773.02476-.03462.07851.05918-.0216.0302.10487.07031-.05326.08373-.10934-.07331-.0338.04726-.07851-.05918.03064-.04284zm-.1461.3.05325-.08373.27999.18773.02475-.03462.07852.05918-.0216.0302.10486.07031-.05326.08373-.10933-.07331-.0338.04726-.07852-.05918.03064-.04284zm-.34091.1.05326-.08373.27998.18773.02476-.03462.07851.05918-.0216.0302.10486.07031-.05325.08373-.10934-.07331-.0338.04726-.07851-.05918.03063-.04284zm.53571-.67374.05326.08373.27998-.18773.02476.03463.07851-.05919-.0216-.030199.10487-.070311-.05326-.083726-.10934.073309-.0338-.047265-.07851.059182.03064.042845zm-.1461-.299999.05326.083727.27998-.187725.02476.034622.07851-.059182-.0216-.030202.10487-.070311-.05326-.083726-.10934.073309-.0338-.047265-.07851.059182.03064.042845zm-.34091-.1.05326.083727.27998-.187725.02476.034622.07851-.059182-.0216-.030202.10487-.070311-.05326-.083726-.10934.073309-.0338-.047265-.07851.059182.03064.042845z" fill="#c51918"/><path d="m3.87973.720484.55158-.292505v.800001h1.36364l-.32493.23402v.30617h-.51427l-.55159.29251v-.8h-1.36363l.32492-.23402v-.306176z" fill="#c51918"/><path d="m4.95578.720484-.55158-.292505v.800001h-1.36364l.32493.23402v.30617h.51427l.55159.29251v-.8h1.36363l-.32492-.23402v-.306176z" fill="#29ae66"/><path d="m3.61182.927862.09-.177374.22896.122462.06308-.093851.16034.113591-.04932.073377.67769.362463.04178-.06216.16034.1136-.02802.04168.0732.03916-.09.17737-.0947-.05065-.07686.11436-.16034-.11359.06311-.09388-.67769-.36247-.05557.08267-.16034-.11359.04181-.0622z" fill="#29ae66"/><path d="m5.05601.87909-.10216-.170663-.21986.138135-.06947-.089223-.15202.124499.05432.069758-.65076.408854-.04601-.05909-.15203.1245.03086.03963-.07029.04417.10216.17066.09093-.05713.08465.10872.15202-.1245-.0695-.08926.65076-.40885.0612.07859.15202-.1245-.04604-.05913z" fill="#c51918"/></g></g><g clip-rule="evenodd" fill="#f7fcff" fill-rule="evenodd"><path d="m11.9209 1.25s1.4563 3.451.1624 4.91657c-1.2939 1.46558-4.5833 1.18302-4.5833 1.18302s4.2228 1.90728 6.0626-.71893c1.8398-2.6262-1.6417-5.38066-1.6417-5.38066z"/><path d="m9.27765 3.28019-.38534.27123.13594-.45451-.37409-.28689.46936-.00968.15413-.44853.15414.44853.46936.00968-.3741.28689.13594.45451zm.07454 1.25334-.38534.27123.13595-.45452-.3741-.28689.46936-.00967.15413-.44854.15414.44854.46936.00967-.3741.28689.13595.45452zm-1.55678.36803.38534-.27124.38534.27124-.13594-.45452.37409-.28689-.46936-.00967-.15413-.44854-.15414.44854-.46936.00967.3741.28689zm1.55678.94663-.38534.27123.13595-.45451-.3741-.28689.46936-.00967.15413-.44854.15414.44854.46936.00967-.3741.28689.13595.45451zm.88821-1.42648.3853-.27123.3853.27123-.1359-.45452.3741-.28688-.4694-.00968-.1541-.44854-.1541.44854-.4694.00968.3741.28688z"/></g></g></g></svg>