<svg fill="none" height="24" viewBox="0 0 32 24" width="32" xmlns="http://www.w3.org/2000/svg" xmlns:xlink="http://www.w3.org/1999/xlink"><mask id="a" height="24" maskUnits="userSpaceOnUse" width="32" x="0" y="0"><path d="m0 0h32v24h-32z" fill="#fff"/></mask><mask id="b" height="24" maskUnits="userSpaceOnUse" width="32" x="0" y="0"><path clip-rule="evenodd" d="m0 0v24h32v-24z" fill="#fff" fill-rule="evenodd"/></mask><g clip-rule="evenodd" fill-rule="evenodd" mask="url(#a)"><path d="m0 0v24h32v-24z" fill="#feca00"/><g mask="url(#b)"><path d="m0 0v14h32v-14z" fill="#3ca5d9"/><path d="m0 18v6h32v-6z" fill="#5a962a"/><path d="m24.0818 11.8656c-.0331.0008-.0664.0012-.0998.0012-.0285 0-.057-.0003-.0854-.0009l-.6045 1.9739-.1278-2.056c-.0613-.0126-.122-.0267-.1822-.042l-1.0467 1.7799.3544-2.0267c-.057-.0265-.1134-.0543-.1689-.0834l-1.4315 1.4911.8164-1.8888c-.0498-.039-.0985-.0792-.1463-.1205l-1.7381 1.1228 1.2324-1.6487c-.0397-.0498-.0783-.1006-.1157-.1523l-1.9494.6947 1.5804-1.32037c-.0273-.05818-.0533-.11714-.0779-.17683l-2.0547.23087 1.8433-.92312c-.013-.06323-.0245-.127-.0344-.19129l-2.051-.24382 2.0076-.47748c.0021-.06532.0058-.13024.011-.19471l-1.9375-.70465 2.0629-.00663c.0173-.06326.0362-.12589.0567-.18784l-1.7198-1.12676 2.0092.4642c.0317-.05732.0648-.11378.0992-.16933l-1.4112-1.48928 1.8483.91077c.0439-.04824.089-.0954.1353-.14143l-1.0268-1.77251 1.5871 1.30862c.0537-.03678.1084-.07229.164-.10649l-.5862-1.96 1.2399 1.6363c.0606-.02336.1218-.0453.1838-.06578l-.1135-2.04223.826 1.87733c.0638-.00873.128-.01597.1927-.02168l.3661-2.01576.3664 2.01709c.0644.00591.1283.01333.1917.02223l.8268-1.87921-.1138 2.04694c.061.02039.1212.0422.1808.06539l1.2432-1.64062-.5885 1.96752c.0542.03355.1074.06836.1598.10437l1.5936-1.31402-1.0321 1.78163c.0446.0447.0882.09045.1307.13722l1.8582-.91568-1.4199 1.49849c.0329.05353.0647.1079.0951.16307l2.022-.46715-1.7316 1.13453c.0194.0594.0375.11942.0541.18002l2.0773.00668-1.9515.70974c.0049.06166.0084.12373.0105.18616l2.0221.48094-2.0657.24557c-.0095.06148-.0204.12248-.0327.18299l1.8563.92967-2.0685-.23242c-.0235.05726-.0484.11385-.0745.16973l1.5908 1.32902-1.9609-.6988c-.0359.0499-.073.0989-.1112.147l1.2394 1.6581-1.7464-1.1282c-.0463.0402-.0935.0794-.1416.1175l.82 1.8972-1.4363-1.4961c-.0544.0286-.1094.056-.1652.0822l.3555 2.0329-1.0486-1.7832c-.0595.0154-.1195.0295-.1801.0422l-.128 2.0591zm-.1358-1.4508c1.4006 0 2.536-1.11887 2.536-2.49911s-1.1354-2.49915-2.536-2.49915-2.536 1.11891-2.536 2.49915 1.1354 2.49911 2.536 2.49911zm1.4587-2.42595c0 .78934-.6399 1.42923-1.4293 1.42923-.7893 0-1.4292-.63989-1.4292-1.42923 0-.78935.6399-1.42923 1.4292-1.42923.7894 0 1.4293.63988 1.4293 1.42923z" fill="#ffdc17"/></g></g></svg>