<svg width="32" height="24" viewBox="0 0 32 24" fill="none" xmlns="http://www.w3.org/2000/svg">
<mask id="mask0" mask-type="alpha" maskUnits="userSpaceOnUse" x="0" y="0" width="32" height="24">
<rect width="32" height="24" fill="white"/>
</mask>
<g mask="url(#mask0)">
<path fill-rule="evenodd" clip-rule="evenodd" d="M0 0V24H32V0H0Z" fill="#F50101"/>
<mask id="mask1" mask-type="alpha" maskUnits="userSpaceOnUse" x="0" y="0" width="32" height="24">
<path fill-rule="evenodd" clip-rule="evenodd" d="M0 0V24H32V0H0Z" fill="white"/>
</mask>
<g mask="url(#mask1)">
<path fill-rule="evenodd" clip-rule="evenodd" d="M0 0V8H32V0H0Z" fill="#F7FCFF"/>
<path fill-rule="evenodd" clip-rule="evenodd" d="M0 16V24H32V16H0Z" fill="#5EAA22"/>
<rect width="12" height="24" fill="#F50101"/>
<path fill-rule="evenodd" clip-rule="evenodd" d="M10.7704 2.0329C10.7799 1.94168 10.6632 1.90658 10.6167 1.98561C10.2538 2.60206 9.34424 4.0685 7.84698 5.98619V5.0685C7.70417 4.91329 7.24885 4.4957 7.24885 4.4957V3.57938L8.07254 2.834L6.94127 2.00004L5.74893 2.834L6.65018 3.57938V4.4957C6.65018 4.9351 6.10378 5.0685 6.10378 5.0685L6.00374 5.87679C4.6108 4.068 3.74234 2.65766 3.37458 2.02729C3.32712 1.94594 3.20773 1.98426 3.22176 2.0774C3.33277 2.81455 3.66475 4.45016 4.58185 6.19649H4.33588V6.16397C4.33588 6.11595 4.29695 6.07702 4.24893 6.07702H2.14023C2.09221 6.07702 2.05327 6.11595 2.05327 6.16397V7.49006C2.05327 7.53809 2.09221 7.57702 2.14023 7.57702H4.24893C4.29695 7.57702 4.33588 7.53809 4.33588 7.49006V6.79386H4.60145C4.69153 7.00156 4.89838 7.14794 5.14029 7.15219C5.30928 7.41291 5.49254 7.67294 5.69127 7.9297C5.23413 7.88449 2.21276 7.62725 2.21276 8.72644C2.21276 9.38254 2.94765 9.72983 3.86928 9.90934C2.94129 10.7497 2.06538 11.5404 1.66237 11.904C1.59698 11.963 1.6481 12.0651 1.73358 12.044C2.45326 11.8656 4.33971 11.3153 6.13555 10.0902L6.19148 10.0903C6.69724 10.0903 7.04901 9.87088 7.2935 9.57391C9.12002 11.0648 11.1864 11.7534 12.0834 12.0001C12.1765 12.0257 12.2268 11.9053 12.1475 11.8502C11.4189 11.3445 9.77604 10.1274 8.09616 8.3596L8.14023 8.308C8.48296 7.90354 8.78161 7.48751 9.04181 7.07036C9.15071 7.00669 9.23741 6.90984 9.28771 6.79386H9.55327L9.55327 7.49006C9.55327 7.53809 9.59221 7.57702 9.64023 7.57702H11.7489C11.797 7.57702 11.8359 7.53809 11.8359 7.49006V6.16397C11.8359 6.11595 11.797 6.07702 11.7489 6.07702H9.64023C9.61796 6.07702 9.59765 6.08539 9.58227 6.09915C10.4446 4.35365 10.6978 2.73405 10.7704 2.0329ZM9.55327 6.19649L9.55327 6.16397L9.55356 6.15685L9.53361 6.19649H9.55327ZM5.64023 6.56089C5.64023 6.82812 5.42124 7.04476 5.1511 7.04476C4.88096 7.04476 4.66197 6.82812 4.66197 6.56089C4.66197 6.29365 4.88096 6.07702 5.1511 6.07702C5.42124 6.07702 5.64023 6.29365 5.64023 6.56089ZM8.24893 6.56089C8.24893 6.82812 8.46792 7.04476 8.73806 7.04476C9.0082 7.04476 9.22719 6.82812 9.22719 6.56089C9.22719 6.29365 9.0082 6.07702 8.73806 6.07702C8.46792 6.07702 8.24893 6.29365 8.24893 6.56089Z" fill="#F7FCFF"/>
</g>
</g>
</svg>
