<svg fill="none" height="24" viewBox="0 0 32 24" width="32" xmlns="http://www.w3.org/2000/svg" xmlns:xlink="http://www.w3.org/1999/xlink"><mask id="a" height="24" maskUnits="userSpaceOnUse" width="32" x="0" y="0"><path d="m0 0h32v24h-32z" fill="#fff"/></mask><g clip-rule="evenodd" fill-rule="evenodd" mask="url(#a)"><path d="m0 0h32v24h-32z" fill="#f7fcff"/><path d="m0 0v8h32v-8z" fill="#c51918"/><path d="m0 16v8h32v-8z" fill="#409100"/><g fill="#fb0"><path d="m16.0201 8.62974-.5911.41772.2085-.7-.5739-.44182.7201-.0149.2364-.69079.2365.69079.7201.0149-.5739.44182.2085.7zm-2.4971.61276-.5912.41772.2086-.69999-.5739-.44183.7201-.0149.2364-.69078.2365.69078.7201.0149-.574.44183.2086.69999zm-2.5334 2.256.5912-.4177.5912.4177-.2085-.7.5739-.4418-.7201-.0149-.2365-.69078-.2364.69078-.7201.0149.5739.4418zm-.033 1.9653-.5912.4177.2085-.7-.5739-.4418.7201-.0149.2365-.6908.2364.6908.7201.0149-.5739.4418.2085.7zm9.4666.4177.5912-.4177.5911.4177-.2085-.7.5739-.4418-.7201-.0149-.2364-.6908-.2365.6908-.7201.0149.5739.4418zm-.1718-2.8007-.5912.4177.2085-.7-.5739-.4418.7201-.0149.2365-.69078.2364.69078.7201.0149-.5739.4418.2085.7zm-2.5043-1.42058.5911-.41772.5912.41772-.2085-.69999.5739-.44183-.7201-.0149-.2365-.69078-.2364.69078-.7201.0149.5739.44183zm-5.0797 7.09428-.1844-.6564c1.0201-.276 2.1911-.4132 3.5135-.4132 1.3223 0 2.4933.1372 3.5134.4132l-.1843.6564c-.9562-.2587-2.0659-.3888-3.3291-.3888s-2.373.1301-3.3291.3888zm1.2632-1.0526c-.407.0692-.7398-.3242-.7398-.3242l.4037-.1669c-.0128-.2799.1561-.4534.1561-.4534.1366.0629.3229.4066.3229.4066h.366s-.1019.4688-.5089.5379zm4.8095-.2562s-.3328.3935-.7398.3243c-.407-.0691-.509-.5379-.509-.5379h.366s.1864-.3437.323-.4066c0 0 .1688.1735.156.4534zm-2.7947.1316c-.4127.0118-.6875-.4241-.6875-.4241l.423-.109c.0263-.279.2177-.4273.2177-.4273.1265.0813.2632.4476.2632.4476l.3624.0509s-.1662.4501-.5788.4619z"/><path d="m15.9585 13.6985s-.469 1.0733-1.2076 1.1563c-.7387.083-1.1138-.6104-1.1138-.6104s-.0484.7211-.9256.9991c-.8773.2779-1.3392-.8327-1.3392-.8327s.4567.4086 1.1651.2305c.7083-.178.9879-.8354.9879-.8354s.5242.6854 1.2256.3427 1.0894-.7615 1.0894-1.1634v-1.2018s-.1809-.3117-.4948-.3117c-.314 0-.4016.221-.4016.221s-.1225-1.2503 1.0065-1.3276l-.0001-.003c.0106.0003.021.0007.0313.0012.0103-.0005.0207-.0009.0312-.0012l-.0001.003c1.129.0773 1.0065 1.3276 1.0065 1.3276s-.0876-.221-.4015-.221-.4949.3117-.4949.3117v1.2018c0 .4019.3881.8207 1.0894 1.1634.7014.3427 1.2256-.3427 1.2256-.3427s.2796.6574.988.8354c.7083.1781 1.165-.2305 1.165-.2305s-.4619 1.1106-1.3391.8327c-.8773-.278-.9256-.9991-.9256-.9991s-.3752.6934-1.1139.6104c-.7386-.083-1.2076-1.1563-1.2076-1.1563l-.023-1.4166zm-.0104-2.9968c-.5208 0-.6263.441-.6263.441.4586 0 .6263.1999.6263.1999s.3396-.1999.6814-.1999c0 0-.1605-.441-.6814-.441z"/></g></g></svg>