<svg fill="none" height="24" viewBox="0 0 32 24" width="32" xmlns="http://www.w3.org/2000/svg" xmlns:xlink="http://www.w3.org/1999/xlink"><mask id="a" height="24" maskUnits="userSpaceOnUse" width="32" x="0" y="0"><path d="m0 0h32v24h-32z" fill="#fff"/></mask><mask id="b" height="12" maskUnits="userSpaceOnUse" width="20" x="6" y="6"><path clip-rule="evenodd" d="m6 6h20v12h-20z" fill="#fff" fill-rule="evenodd"/><path d="m7 7h18v10h-18z" fill="none" stroke="#fff" stroke-width="2"/></mask><g mask="url(#a)"><g clip-rule="evenodd" fill-rule="evenodd"><path d="m0 0h32v22c0 1.1046-.8954 2-2 2h-28c-1.104569 0-2-.8954-2-2z" fill="#c51918"/><path d="m0 0h32v24h-32z" fill="#c51918"/><path d="m6 6h20v12h-20z" fill="#579d20"/></g><path d="m7 7h18v10h-18z" stroke="#b6eb9a" stroke-opacity=".238111" stroke-width="2"/><g mask="url(#b)"><path clip-rule="evenodd" d="m16.033 12.4625c-.017 3.0657 2.3964 4.7003 2.3964 4.7003-2.7539.3233-4.5861-2.1733-4.5861-4.6704 0-2.49712 2.4976-4.55986 4.5861-5.4913 0 0-2.3794 2.39574-2.3964 5.4614z" fill="#f9fafa" fill-rule="evenodd"/></g></g></svg>