<svg fill="none" height="15" viewBox="0 0 20 15" width="20" xmlns="http://www.w3.org/2000/svg" xmlns:xlink="http://www.w3.org/1999/xlink"><mask id="a" height="15" maskUnits="userSpaceOnUse" width="20" x="0" y="0"><path d="m0 0h20v15h-20z" fill="#fff"/></mask><mask id="b" height="15" maskUnits="userSpaceOnUse" width="20" x="0" y="0"><path clip-rule="evenodd" d="m0 0v15h20v-15z" fill="#fff" fill-rule="evenodd"/></mask><mask id="c" height="5" maskUnits="userSpaceOnUse" width="8" x="6" y="5"><path d="m6.25 5h7.5v5h-7.5z" fill="#fff"/></mask><g mask="url(#a)"><path clip-rule="evenodd" d="m0 0v15h20v-15z" fill="#2e42a5" fill-rule="evenodd"/><g mask="url(#b)"><path clip-rule="evenodd" d="m0 7.5v7.5h20v-7.5z" fill="#e31d1c" fill-rule="evenodd"/><path d="m6.25 5h7.5v5h-7.5z" fill="#fff"/><g mask="url(#c)"><path clip-rule="evenodd" d="m6.25 9.11114s1.80021-.47333 3.75-.44444c1.9498.02889 3.75.55556 3.75.55556v.77774h-7.5z" fill="#279e19" fill-rule="evenodd"/><g stroke="#026a16" stroke-width=".5"><path d="m10.046 5.56326s-.58189-.26211-.9881-.26211-.63187.40007-.63187.40007"/><path d="m10.1753 5.82603s-.53544-.19151-.90923-.19151-.58144.29231-.58144.29231"/><path d="m10.1753 6.0482s-.39609-.19151-.6726-.19151c-.27652 0-.43013.29231-.43013.29231"/><path d="m10.0125 6.27049s-.24475-.19151-.41559-.19151c-.17083 0-.26573.29231-.26573.29231"/><path d="m9.99152 6.42206s-.09785-.12091-.16615-.12091c-.06831 0-.10625.18455-.10625.18455"/><path d="m9.95398 5.56326s.58192-.26211.98812-.26211.6319.40007.6319.40007"/><path d="m9.82469 5.82603s.53541-.19151.90921-.19151.5815.29231.5815.29231"/><path d="m9.82468 6.0482s.39612-.19151.67262-.19151.4301.29231.4301.29231"/><path d="m9.98753 6.27049s.24477-.19151.41557-.19151.2657.29231.2657.29231"/><path d="m10.0085 6.42206s.0978-.12091.1661-.12091.1063.18455.1063.18455"/></g><g clip-rule="evenodd" fill-rule="evenodd"><path d="m9.92974 6.4989s-.0714.83588-.0714 1.17607.0714 1.0742.0714 1.0742h.18366s0-.79021 0-1.0742-.1078-1.17607-.1078-1.17607z" fill="#feca00"/><path d="m9.2075 7.4491s-.45262.24226-.45262.95944l.45262.86598h.8168v-1.42608z" fill="#c51918"/><path d="m8.5368 6.76624s-1.05676.31306-1.05676 1.46794l1.36913.11679s-.07479-.67096.34654-.98133z" fill="#0a328c"/></g><path d="m8.10059 6.32556 1.81279 1.66129" stroke="#ffd018" stroke-width=".5"/><path d="m7.47095 6.70178 2.52841 1.64186" stroke="#ffd018" stroke-width=".5"/><path d="m7.03571 7.33716 2.84974 1.30329" stroke="#ffd018" stroke-width=".5"/><path clip-rule="evenodd" d="m7.48737 8.2251 1.89103.21143-.10646.26391h-.29981l.20419.14911.46044.10776v-.25687h.40324v.54573h-.86368l-.33126-.39662s-.27822.27426-.54975.27426-.53922-.08907-.53922-.38818c0-.2991 0-.20809 0-.20809l-.26872-.09101z" fill="#feca00" fill-rule="evenodd"/><path clip-rule="evenodd" d="m10.5338 7.4491s.4527.24226.4527.95944l-.4527.86598h-.81679v-1.42608z" fill="#c51918" fill-rule="evenodd"/><path clip-rule="evenodd" d="m11.2045 6.76624s1.0568.31306 1.0568 1.46794l-1.3691.11679s.0747-.67096-.3466-.98133z" fill="#0a328c" fill-rule="evenodd"/><path d="m11.6407 6.32556-1.81275 1.66129" stroke="#ffd018" stroke-width=".5"/><path d="m12.2704 6.70178-2.52843 1.64186" stroke="#ffd018" stroke-width=".5"/><path d="m12.7056 7.33716-2.84972 1.30329" stroke="#ffd018" stroke-width=".5"/><path clip-rule="evenodd" d="m12.254 8.2251-1.8911.21143.1065.26391h.2998l-.2042.14911-.4604.10776v-.25687h-.40327v.54573h.86367l.3313-.39662s.2782.27426.5497.27426.5392-.08907.5392-.38818c0-.2991 0-.20809 0-.20809l.2688-.09101z" fill="#feca00" fill-rule="evenodd"/></g></g></g></svg>