<svg fill="none" height="15" viewBox="0 0 20 15" width="20" xmlns="http://www.w3.org/2000/svg"><path d="m0 0v5h20v-5z" fill="#002488"/><path d="m.00042725 5v10h19.99997275v-10z" fill="#da121a"/><g fill="#fcdd09"><path d="m3.4677.70834c-.24078.39707-.26951.71468-.10518 1.26312.07913.25593.16604.63813.20256.84532.04869.2925.04359.32031.05043.38391.06086 0 .19918.00023.26313-.00016.0092-.10126.01663-.21815.03823-.37888.02517-.18741.09984-.57936.18015-.8516.16048-.54403.14973-.8778-.09981-1.255616-.0913-.140157-.21302-.255938-.2678-.255938s-.17869.107009-.26171.249844z"/><path d="m3.99239 2.94089c-.02068.10477-.02572.14175-.03609.25983.07377.0003.10277.0008.17468.00037.01574-.07943.02708-.12137.06178-.23412.13754-.43607.54265-.61108.52439-.2028-.00608.11273-.0536.17568-.1065.23611.06539-.01632.20425-.08121.31685-.14519.6269-.37781.38003-1.30358-.2773-1.02327-.34083.14625-.54583.55112-.65781 1.10907z"/><path d="m3.25745 3.36524c.27507.00159.75048.00444.97882.00285.00026-.07625.00112-.03734.00168-.09895-.16811-.00182-.81183.00118-.9792.00118.00038.03987-.00038.05917-.0013.09492z"/><path d="m3.08429 3.85255s.13702.01542.26481.00609.19869-.0253.27421-.06203c-.0205.15246-.02168.29969-.02168.29969.01859.1962.03962.24641.08211.3419.05766.07966.09119.0801.13357-.00402.04582-.09418.07597-.19104.08554-.3388-.00333-.11074-.00951-.16149-.03571-.29687.08842.03831.14427.04824.27618.06013.13498.01217.25905.0062.25905.0062s-.18233-.09161-.26259-.20397c-.07922-.11092-.06232-.09206-.11992-.23494-.07-.00332-.42487-.00006-.53747-.00006-.06167.13027-.06787.15747-.14404.23967-.09916.10701-.25406.18701-.25406.18701z"/><path d="m2.83727 1.83158c.34084.14625.54583.55112.65781 1.10906.02068.10477.02573.14176.0361.25984-.07378.0003-.10277.0008-.17469.00037-.01574-.07944-.02708-.12137-.06177-.23413-.13755-.43607-.54266-.61108-.5244-.2028.00609.11274.05361.17568.1065.23612-.06538-.01632-.20425-.08121-.31685-.1452-.62689-.37781-.38003-1.30357.2773-1.02326z"/><path d="m9.76768.70834c-.24077.39707-.2695.71468-.10517 1.26312.07912.25593.16604.63813.20256.84532.04869.2925.04359.32031.05043.38391.06086 0 .1992.00023.2631-.00016.0092-.10126.0167-.21815.0383-.37888.0251-.18741.0998-.57936.1801-.8516.1605-.54403.1497-.8778-.0998-1.255616-.0913-.140157-.213-.255938-.2678-.255938-.05478 0-.1787.107009-.26172.249844z"/><path d="m10.9502 1.83182c-.3408.14625-.5458.55112-.6578 1.10907-.0207.10477-.0257.14175-.0361.25983.0738.0003.1028.0008.1747.00037.0157-.07943.027-.12137.0617-.23412.1376-.43607.5427-.61108.5244-.2028-.006.11273-.0536.17568-.1065.23611.0654-.01632.2043-.08121.3169-.14519.6269-.37781.38-1.30358-.2773-1.02327z"/><path d="m9.55743 3.36524c.27508.00159.75047.00444.97887.00285.0002-.07625.0011-.03734.0016-.09895-.1681-.00182-.81179.00118-.97916.00118.00038.03987-.00039.05917-.00131.09492z"/><path d="m9.63833 3.66554c-.09916.10701-.25405.18701-.25405.18701s.13702.01542.26481.00609c.12778-.00933.19869-.0253.27421-.06203-.0205.15246-.02168.29969-.02168.29969.01858.1962.03961.24641.08211.3419.05767.07966.09117.0801.13357-.00402.0458-.09418.076-.19104.0855-.3388-.0033-.11074-.0095-.16149-.0357-.29687.0884.03831.1443.04824.2762.06013.135.01217.2591.0062.2591.0062s-.1824-.09161-.2626-.20397c-.0792-.11092-.0624-.09206-.12-.23494-.0699-.00332-.42483-.00006-.53742-.00006-.06167.13027-.06787.15747-.14405.23967z"/><path d="m9.13726 1.83158c.34083.14625.54583.55112.65781 1.10906.02068.10477.02572.14176.03609.25984-.07377.0003-.10277.0008-.17468.00037-.01574-.07944-.02708-.12137-.06177-.23413-.13755-.43607-.54266-.61108-.5244-.2028.00608.11274.05361.17568.1065.23612-.06538-.01632-.20425-.08121-.31685-.1452-.62689-.37781-.38003-1.30357.2773-1.02326z"/><path d="m16.0677.70834c-.2408.39707-.2695.71468-.1052 1.26312.0791.25593.166.63813.2026.84532.0486.2925.0435.32031.0504.38391.0608 0 .1992.00023.2631-.00016.0092-.10126.0167-.21815.0382-.37888.0252-.18741.0999-.57936.1802-.8516.1605-.54403.1497-.8778-.0998-1.255616-.0913-.140157-.213-.255938-.2678-.255938s-.1787.107009-.2617.249844z"/><path d="m17.2502 1.83182c-.3409.14625-.5459.55112-.6578 1.10907-.0207.10477-.0258.14175-.0361.25983.0737.0003.1027.0008.1747.00037.0157-.07943.027-.12137.0617-.23412.1376-.43607.5427-.61108.5244-.2028-.0061.11273-.0536.17568-.1065.23611.0654-.01632.2043-.08121.3169-.14519.6269-.37781.38-1.30358-.2773-1.02327z"/><path d="m15.8574 3.36524c.2751.00159.7505.00444.9788.00285.0003-.07625.0012-.03734.0017-.09895-.1681-.00182-.8118.00118-.9792.00118.0004.03987-.0004.05917-.0013.09492z"/><path d="m15.9383 3.66554c-.0991.10701-.254.18701-.254.18701s.137.01542.2648.00609.1987-.0253.2742-.06203c-.0205.15246-.0217.29969-.0217.29969.0186.1962.0396.24641.0821.3419.0577.07966.0912.0801.1336-.00402.0458-.09418.076-.19104.0855-.3388-.0033-.11074-.0095-.16149-.0357-.29687.0884.03831.1443.04824.2762.06013.135.01217.259.0062.259.0062s-.1823-.09161-.2625-.20397c-.0793-.11092-.0624-.09206-.12-.23494-.07-.00332-.4248-.00006-.5374-.00006-.0617.13027-.0679.15747-.1441.23967z"/><path d="m15.4372 1.83158c.3409.14625.5459.55112.6579 1.10906.0206.10477.0257.14176.0361.25984-.0738.0003-.1028.0008-.1747.00037-.0158-.07944-.0271-.12137-.0618-.23413-.1376-.43607-.5427-.61108-.5244-.2028.0061.11274.0536.17568.1065.23612-.0654-.01632-.2043-.08121-.3169-.1452-.6268-.37781-.38-1.30357.2773-1.02326z"/></g><g fill="#008000"><path d="m7.11821 8.27098c.13215.06168.30088.11029.38598.11316.10056.00339.07387-.02136-.11383-.09445-.14692-.05741-.32263-.15395-.40062-.21381-.13983-.1144-.13983-.1144-.12517-.01375.00837.05751.11376.1469.25364.20885z"/><path d="m6.29622 7.08202c.08521.34125.43822.96891.55995.99328.10955.01829.10955.01219.01826-.0914-.15216-.17672-.48083-.82266-.48083-.94453 0-.06704-.03043-.11579-.06695-.11579-.0426 0-.05477.06094-.03043.15844z"/><path d="m4.07123 8.09269c-.10347.07922-.09738.08531.12781.04875.1339-.01828.32867-.05485.42605-.07922.15825-.04266.14607-.04875-.12781-.05484-.18259-.0061-.35301.03046-.42605.08531z"/><path d="m2.55918 7.45201c1.00425.18281 3.01883.85922 2.8971.975-.03043.03047-.59646-.10969-.67558-.16453-.03043-.03047-.32867-.01828-.65733.02437-.61472.06704-.71819.12188-.70602.37172.00609.12188.00609.12188.03652 0 .05478-.22547.14607-.27422.493-.27422.37735 0 1.41203.15235 1.86851.27422.60864.17063.6269.17063.42605.06094-.26172-.14625-.65733-.41437-.73037-.49359-.1339-.15235-2.56236-.82266-2.91537-.81047-.16433.01218-.17041.01218-.03651.03656z"/><path d="m6.1232 8.15275c.0487.08531.52343.32297.55995.2864.01826-.01828-.03652-.06703-.10955-.10968-.07913-.04266-.1826-.10969-.2252-.15844-.09738-.09141-.27997-.10969-.2252-.01828z"/><path d="m6.15983 8.73173c.04869.08531.52342.32297.55994.2864.01826-.01828-.03652-.06703-.10955-.10968-.07913-.04266-.18259-.10969-.2252-.15844-.09738-.09141-.27997-.10969-.22519-.01828z"/><path d="m5.4794 8.00614c.00876-.00846.1457.03703.30817.1002.16246.06317.37233.12287.46262.12875.15914.00709.72264.27552.71721.34006-.00105.06032-.85308-.20022-1.15174-.35196-.35846-.17865-.36691-.18742-.33626-.21705z"/><path d="m6.48751 8.45155c-.11354.04393-.22773.12339-.26321.18024-.04192.06718-.00644.06782.14-.00583.11483-.0575.28063-.10466.3716-.11242.17032-.00842.17032-.00842.06193-.07623-.06194-.03875-.19355-.03486-.31032.01424z"/><path d="m3.63912 6.39779c.18867.35953.95555 1.18828 1.3816 1.50515.11564.08532.32258.17063.45039.18891l.23737.03656-.17651-.195c-.28605-.31078-.72427-.90797-.86426-1.17-.15216-.28641-.17042-.21328-.0426.15235.04869.14625.24345.43875.43213.64593.18868.21329.3104.39.27997.39-.07912 0-.59038-.60328-.95556-1.12734-.39561-.57281-.41387-.5911-.30432-.27422.05478.15234.17651.37781.27998.49969.09738.12797.15824.23156.12781.23156-.06086 0-.32866-.30469-.66341-.74344-.0913-.12797-.21911-.2925-.27389-.36562-.06086-.07922-.01826.02437.0913.22547z"/><path d="m6.21813 9.45943c-.45872-.08192-.67688-.00873-.86242.27758l-.15832.2459.20361-.19326c.27661-.26892.47763-.29487.97483-.15021.23259.06887.42985.11388.43666.10377.03743-.05557-.35485-.24699-.59436-.28378z"/><path d="m6.34315 9.5874c-.42604.18891-.56603.37172-.55994.713l.00609.2925.06086-.2742c.07912-.37786.23128-.51192.72428-.67036.23128-.07312.41996-.14625.41996-.15844 0-.06703-.43214-.00609-.65125.0975z"/><path d="m6.26227 10.1106c-.07303.0975-.12781.2254-.12781.2925 0 .0792.03043.0609.11564-.0793.06695-.1096.18259-.2376.25563-.2925.13998-.09746.13998-.09746.01217-.09746-.07304 0-.18259.07316-.25563.17676z"/><path d="m12.8426 11.1036c.1977.0858 1.223.3447 1.9486.5574.7255.2127 1.5737.4576 1.7615.484.2684-.5856-.22.5098.0587-.1541-.3623-.0924-1.7906-.4288-2.3637-.5937-.4941-.1385-1.1951-.3546-1.3746-.3942s-.182.0347-.0305.1006z"/><path d="m12.968 10.9517c.2005.0788 1.2343.3017 1.9668.4889.7325.1873 1.5888.4024 1.7773.4222.2478-.5947-.2021.5171.0533-.1561-.3653-.0796-1.8044-.366-2.383-.5108-.4986-.1211-1.2067-.3126-1.3874-.3459-.1808-.0332-.1807.041-.027.1017z"/><path d="m12.6842 11.2141c.1929.096 1.2033.4083 1.9167.6587.7134.2505 1.5477.5395 1.7338.5757.2986-.5708-.2464.4976.0667-.1509-.357-.1112-1.7657-.522-2.3295-.7167-.4861-.1642-1.1748-.4167-1.3521-.4657-.1772-.0489-.1835.0251-.0356.0989z"/><path d="m12.5611 11.3389c.1876.106 1.1803.4708 1.8796.7583.6994.2875 1.5174.6198 1.7014.6657.328-.5544-.2721.4839.0745-.1472-.3507-.1297-1.736-.6138-2.2888-.8378-.477-.1895-1.1515-.4777-1.3259-.5359-.1744-.0581-.1846.0155-.0408.0969z"/><path d="m12.4451 11.4961c.1838.1125 1.1633.5118 1.8521.8235.6889.3118 1.4949.6725 1.6772.7248.3471-.5426-.2888.4741.0795-.1445-.346-.1419-1.7135-.6741-2.2582-.9173-.47-.206-1.1341-.5176-1.3064-.5818-.1723-.0643-.185.0089-.0442.0953z"/></g><path d="m10.392 13.0757c.2826.1971.438.4711.4226.7538l-.0104.2335.0927-.2298c.1015-.2404.0875-.6044-.0323-.874l-.07-.1572.2221.0968c.3174.134.5263.3696.5699.6494l.0383.2306.043-.2441c.0493-.2564-.0398-.6094-.2131-.8481l-.1011-.1393.2374.0484c.3382.065.5914.252.6923.5166l.0853.2176-.0086-.2477c-.005-.261-.1656-.5878-.3847-.7853l-.1277-.1152.2422-.0019c.3443-.0068.6309.1233.7845.3612l.1285.195-.0598-.2405c-.059-.2541-.284-.5403-.5393-.6879l-.1489-.0861.2366-.0523c.3353-.0784.6427-.0107.8423.19l.1662.164-.1085-.2228c-.1105-.2363-.3899-.4696-.6703-.5607l-.1635-.0532.2205-.1004c.3117-.1465.6264-.1443.8633.0104l.1968.1259-.1524-.1954c-.1572-.2082-.479-.378-.7722-.4088l-.1709-.018.1948-.1442c.2745-.2081.5828-.2715.8467-.1694l.2185.082-.1896-.1593c-.197-.1709-.547-.27008-.8402-.23918l-.1709.01794.1606-.18157c.2253-.26073.5137-.38689.793-.34193l.2308.03474-.2186-.11632c-.2282-.12616-.5911-.15033-.8715-.05914l-.1635.05315.1193-.21097c.1663-.30196.4222-.48538.7047-.49964l.233-.01398-.238-.06829c-.2494-.07589-.6094-.02394-.8647.12355l-.1489.08607.073-.23125c.0999-.32994.3121-.56258.5855-.63533l.225-.06221-.2469-.01726c-.2597-.02236-.6011.10334-.8202.30082l-.1278.1152.0234-.24136c.0292-.34362.1884-.6153.4408-.74342l.2072-.10764-.2452.03447c-.2587.0322-.5665.22626-.7397.46501l-.1011.1393-.0272-.24098c-.0428-.34208.0565-.64112.2767-.81885l.1803-.14845-.2327.08474c-.2463.08535-.507.33924-.6269.60884l-.07.15733-.0767-.23007c-.1129-.32571-.0778-.63886.1007-.85855l.1455-.18272-.2099.13127c-.2233.13476-.4256.43738-.4869.72605l-.0358.16843-.1228-.20901c-.1781-.2952-.2088-.60869-.0798-.86082l.1044-.20901-.1781.17208c-.1904.17835-.3255.51655-.3255.81163v.17212l-.16352-.17888c-.23543-.25155-.33058-.55194-.25681-.82535l.05865-.22622-.13844.20551c-.14919.21396-.2111.57288-.1498.86162l.03569.16835-.19709-.14095c-.28259-.19709-.438-.47104-.42261-.75387l.0104-.23349-.09276.22984c-.10145.2404-.08747.60431.03235.87392l.06993.15732-.22207-.09684c-.31733-.13396-.52628-.36955-.56992-.64935l-.03827-.23056-.04298.24405c-.04932.25624.03984.60939.21317.84814l.10101.13922-.23731-.0485c-.33821-.06498-.59148-.25189-.69231-.51658l-.08532-.21754.00863.24771c.00495.26096.16558.58775.38462.78519l.12777.11521-.24222.00196c-.34432.00684-.63091-.12332-.78447-.36115l-.12862-.19506.05988.24045c.05903.25423.28398.54048.53925.68804l.14888.08608-.2365.0523c-.33538.07835-.64273.01076-.84231-.18995l-.16631-.16401.10851.22277c.11053.23637.39002.46947.67036.56066l.16354.05322-.2205.10041c-.31177.14652-.62645.14426-.86338-.01049l-.19674-.12581.15237.19529c.15721.2082.479.37805.77215.4089l.17099.01803-.19482.1441c-.27454.2082-.58282.27153-.84669.16947l-.21858-.08205.1896.15929c.19701.17096.54705.27011.8402.23921l.17099-.0179-.16062.1815c-.2253.2608-.5137.3869-.79299.342l-.23083-.0348.21858.1164c.22822.1262.59118.1503.87152.0591l.16354-.0532-.1194.2111c-.16623.3019-.42212.4854-.70464.4995l-.23301.014.23796.0683c.2494.0759.60945.024.86473-.1235l.14891-.0862-.07296.2313c-.0999.33-.31207.5627-.5855.6354l-.22503.0622.24695.0173c.25972.0223.60112-.1034.82016-.3009l.12777-.1152-.02338.2415c-.02917.3435-.18841.6152-.44076.7433l-.20718.1077.24514-.0345c.25868-.0322.5665-.2263.73975-.4651l.10106-.1392.02729.241c.04279.3421-.05654.641-.27677.8188l-.18031.1485.23263-.0848c.24632-.0853.50712-.3393.62702-.6088l.0699-.1573.07672.23c.11292.3258.07784.6388-.10067.8586l-.14554.1827.20994-.1313c.22322-.1347.42561-.4374.4869-.7261l.03573-.1683.12282.209c.17809.2951.2088.6087.07984.8608l-.1044.209.17809-.1722c.19037-.1782.32547-.5164.32547-.8115v-.1722l.16354.1789c.23543.2516.33054.552.25684.8254l-.05872.2262.13842-.2055c.1492-.214.2111-.5729.1499-.8616l-.0358-.1683z" fill="#fcdd09"/></svg>