<svg fill="none" height="15" viewBox="0 0 20 15" width="20" xmlns="http://www.w3.org/2000/svg" xmlns:xlink="http://www.w3.org/1999/xlink"><mask id="a" height="15" maskUnits="userSpaceOnUse" width="20" x="0" y="0"><path d="m0 0h20v15h-20z" fill="#fff"/></mask><g clip-rule="evenodd" fill-rule="evenodd" mask="url(#a)"><path d="m14 0h6v15h-6z" fill="#2e42a5"/><path d="m6 0h8v15h-8z" fill="#feca00"/><path d="m0 0h6v15h-6z" fill="#2e42a5"/><path d="m11.5214 9.54561c.3955-.81814.8517-2.31107.8517-2.31107l.3462-1.02788-1.3719.4968.3246.18856s-.5658 1.13112-.8508 1.68368-.3132.1875-.3132.1875l.0487-3.85544.3149-.08537-.7847-1.50745-1.00123 1.52834.44116.01189s-.03667 4.06789-.09799 3.90803c-.03422-.0908-.12528.18983-.16965.08113-.27813-.68138-.65854-2.00196-.65854-2.00196l.22259-.20824-1.49267-.3071.44563.91767s.39298 1.63524.82445 2.43386c.09716.25267.56663.36044.56663.36044s.22922-.23267.28601 0c.05678.2327 0 1.1719 0 1.1719h1.05471s-.0743-.886 0-1.1719c.0742-.28584.3044 0 .3044 0s.612-.24073.709-.49339z" fill="#000"/></g></svg>