<svg xmlns="http://www.w3.org/2000/svg" xmlns:xlink="http://www.w3.org/1999/xlink" width="32" height="24" viewBox="0 0 32 24">
  <defs>
    <rect id="va---vatican-city-state-a" width="32" height="24" x="0" y="0"/>
  </defs>
  <g fill="none" fill-rule="evenodd">
    <mask id="va---vatican-city-state-b" fill="#fff">
      <use xlink:href="#va---vatican-city-state-a"/>
    </mask>
    <g mask="url(#va---vatican-city-state-b)">
      <rect width="32" height="24" fill="#F7FCFF"/>
      <rect width="14" height="24" fill="#FFDC17"/>
      <g transform="translate(13 2)">
        <path fill="#AF0100" fill-rule="nonzero" d="M12.1615391,10.7511473 L12.5067042,10.7736347 C12.4242636,11.9594056 12.1695191,12.8753754 11.7372037,13.5217762 C11.0400167,14.5642146 10.1199427,15.3702035 9.50427928,15.3702035 C9.36443968,15.3702035 9.33191731,15.4221401 9.37803492,15.5503477 C9.44360956,15.7326462 9.65101247,15.9119435 9.91783737,15.9807518 C10.3616237,16.0951947 11.3709181,16.1544331 12.9286036,16.1544331 L12.9286036,16.4893169 C11.3397425,16.4893169 10.3121751,16.4290059 9.82878426,16.3043499 C9.45336687,16.2075379 9.15548254,15.9500205 9.05132882,15.6604717 C8.93087861,15.3256183 9.11266172,15.0353198 9.50427928,15.0353198 C9.96153102,15.0353198 10.8098018,14.2922308 11.4468053,13.339779 C11.8427181,12.7478077 12.0827183,11.8848531 12.1615391,10.7511473 Z" transform="matrix(-1 0 0 1 21.943 0)"/>
        <path fill="#AF0100" fill-rule="nonzero" d="M8.14697955,10.7511473 L8.49214466,10.7736347 C8.40970412,11.9594056 8.1549596,12.8753754 7.72264415,13.5217762 C7.02545719,14.5642146 6.10538317,15.3702035 5.48971976,15.3702035 C5.34988016,15.3702035 5.31735779,15.4221401 5.36347541,15.5503477 C5.42905005,15.7326462 5.63645295,15.9119435 5.90327785,15.9807518 C6.34706419,16.0951947 7.35635863,16.1544331 8.91404409,16.1544331 L8.91404409,16.4893169 C7.325183,16.4893169 6.29761558,16.4290059 5.81422474,16.3043499 C5.43880735,16.2075379 5.14092302,15.9500205 5.0367693,15.6604717 C4.91631909,15.3256183 5.09810221,15.0353198 5.48971976,15.0353198 C5.9469715,15.0353198 6.79524226,14.2922308 7.43224582,13.339779 C7.82815861,12.7478077 8.06815883,11.8848531 8.14697955,10.7511473 Z"/>
        <g transform="translate(2.124 3.94)">
          <path fill="#F4B300" fill-rule="nonzero" d="M3.76519082,12.0268465 C3.52261626,11.9496934 3.33675523,11.7815697 3.27533222,11.6108128 C3.2292146,11.4826052 3.26173697,11.4306686 3.40157658,11.4306686 C4.01723998,11.4306686 4.72916784,10.2137063 4.41234829,10.5086837 C4.38790528,10.5314416 4.36353347,10.55366 4.33925796,10.5753167 C4.4682543,10.4005259 4.54054054,10.2038611 4.54054054,10 C4.54054054,9.33365046 3.7682312,8.74418605 2.76756757,8.74418605 C1.76690393,8.74418605 0.994594595,9.33365046 0.994594595,10 C0.994594595,10.6663495 1.76690393,11.255814 2.76756757,11.255814 C2.85148525,11.255814 2.93379696,11.2516683 3.01418187,11.2436794 C2.90846747,11.3600946 2.88121697,11.5335384 2.94862611,11.7209368 C3.00465278,11.8766917 3.11673752,12.023178 3.26679373,12.140367 C3.10457191,12.164284 2.93766074,12.1767442 2.76756757,12.1767442 C1.28444249,12.1767442 0.0432432432,11.2294 0.0432432432,10 C0.0432432432,8.77060003 1.28444249,7.82325581 2.76756757,7.82325581 C3.1315653,7.82325581 3.48099088,7.88031816 3.80107202,7.98460789 L12.9425113,0.858600331 L13.6593144,1.73630703 L12.7548552,2.50393339 L12.9568534,2.71263101 L12.838532,2.81994719 L13.709931,3.48848354 L14.1055334,3.18350587 L14.8059531,4.03488076 L14.6145051,4.18247181 L14.634643,4.1979216 L14.4960082,4.2738234 L13.2855702,5.20697378 L12.5851505,4.35559889 L12.919534,4.09781611 L12.1239435,3.46807078 L11.87093,3.69755107 L11.6353043,3.45411078 L11.1913704,3.83088327 L11.4865832,4.13588682 L11.3790307,4.23343563 L12.2966188,4.86782927 L12.6352631,4.60676168 L13.3356828,5.45813657 L13.2481001,5.52565579 L13.2522495,5.52852453 L13.2283225,5.54090272 L11.8152999,6.6302296 L11.1148802,5.77885471 L11.4580272,5.51431596 L10.6373487,4.90613272 L10.4006597,5.12080688 L10.0718196,4.78106066 L5.15895803,8.95067035 C5.37075855,9.25939767 5.49189189,9.61593539 5.49189189,10 C5.49189189,10.9389095 4.76795195,11.7133075 3.76519082,12.0268465 Z"/>
          <path fill="#BFBFBF" d="M0.562162162,8.78604651 C0.299453741,8.78604651 0.0864864865,8.61737239 0.0864864865,8.40930233 C0.0864864865,8.20123226 0.299453741,8.03255814 0.562162162,8.03255814 C0.824870584,8.03255814 1.03783784,8.20123226 1.03783784,8.40930233 C1.03783784,8.61737239 0.824870584,8.78604651 0.562162162,8.78604651 Z M0.735135135,12.2186047 C0.472426714,12.2186047 0.259459459,12.0499305 0.259459459,11.8418605 C0.259459459,11.6337904 0.472426714,11.4651163 0.735135135,11.4651163 C0.997843557,11.4651163 1.21081081,11.6337904 1.21081081,11.8418605 C1.21081081,12.0499305 0.997843557,12.2186047 0.735135135,12.2186047 Z M4.97297297,12.2186047 C4.71026455,12.2186047 4.4972973,12.0499305 4.4972973,11.8418605 C4.4972973,11.6337904 4.71026455,11.4651163 4.97297297,11.4651163 C5.23568139,11.4651163 5.44864865,11.6337904 5.44864865,11.8418605 C5.44864865,12.0499305 5.23568139,12.2186047 4.97297297,12.2186047 Z"/>
        </g>
        <g transform="matrix(-1 0 0 1 15.876 4.94)">
          <path fill="#BFBFBF" fill-rule="nonzero" d="M3.76519082,11.0268465 C3.52261626,10.9496934 3.33675523,10.7815697 3.27533222,10.6108128 C3.2292146,10.4826052 3.26173697,10.4306686 3.40157658,10.4306686 C4.01723998,10.4306686 4.72916784,9.21370629 4.41234829,9.50868369 C4.38790528,9.53144156 4.36353347,9.55365998 4.33925796,9.57531671 C4.4682543,9.40052586 4.54054054,9.20386106 4.54054054,9 C4.54054054,8.33365046 3.7682312,7.74418605 2.76756757,7.74418605 C1.76690393,7.74418605 0.994594595,8.33365046 0.994594595,9 C0.994594595,9.66634954 1.76690393,10.255814 2.76756757,10.255814 C2.85148525,10.255814 2.93379696,10.2516683 3.01418187,10.2436794 C2.90846747,10.3600946 2.88121697,10.5335384 2.94862611,10.7209368 C3.00465278,10.8766917 3.11673752,11.023178 3.26679373,11.140367 C3.10457191,11.164284 2.93766074,11.1767442 2.76756757,11.1767442 C1.28444249,11.1767442 0.0432432432,10.2294 0.0432432432,9 C0.0432432432,7.77060003 1.28444249,6.82325581 2.76756757,6.82325581 C3.20190085,6.82325581 3.61548629,6.90450116 3.98322698,7.05028301 L13.0650099,0.0171813389 L13.6593144,0.736307033 L12.7176805,1.46552584 L12.9568534,1.71263101 L12.838532,1.81994719 L13.709931,2.48848354 L14.1055334,2.18350587 L14.8059531,3.03488076 L14.6145051,3.18247181 L14.634643,3.1979216 L14.457522,3.30349315 L13.2855702,4.20697378 L12.5851505,3.35559889 L12.8998506,3.11299042 L12.1144583,2.47667371 L11.87093,2.69755107 L11.5521144,2.36816189 L11.0899342,2.72608287 L11.4865832,3.13588682 L11.3790307,3.23343563 L12.2966188,3.86782927 L12.6352631,3.60676168 L13.3356828,4.45813657 L13.2481001,4.52565579 L13.2522495,4.52852453 L13.2132432,4.55252767 L11.8152999,5.6302296 L11.1148802,4.77885471 L11.4221523,4.54197264 L10.6186024,3.92313537 L10.4006597,4.12080688 L9.98672764,3.69314661 L10.13975,3.55435709 L10.0799047,3.50826849 L4.83036441,7.57361016 C5.24113608,7.95181579 5.49189189,8.44741645 5.49189189,9 C5.49189189,9.93890946 4.76795195,10.7133075 3.76519082,11.0268465 Z"/>
          <path fill="#F4B300" d="M0.562162162,7.78604651 C0.299453741,7.78604651 0.0864864865,7.61737239 0.0864864865,7.40930233 C0.0864864865,7.20123226 0.299453741,7.03255814 0.562162162,7.03255814 C0.824870584,7.03255814 1.03783784,7.20123226 1.03783784,7.40930233 C1.03783784,7.61737239 0.824870584,7.78604651 0.562162162,7.78604651 Z M0.735135135,11.2186047 C0.472426714,11.2186047 0.259459459,11.0499305 0.259459459,10.8418605 C0.259459459,10.6337904 0.472426714,10.4651163 0.735135135,10.4651163 C0.997843557,10.4651163 1.21081081,10.6337904 1.21081081,10.8418605 C1.21081081,11.0499305 0.997843557,11.2186047 0.735135135,11.2186047 Z M4.97297297,11.2186047 C4.71026455,11.2186047 4.4972973,11.0499305 4.4972973,10.8418605 C4.4972973,10.6337904 4.71026455,10.4651163 4.97297297,10.4651163 C5.23568139,10.4651163 5.44864865,10.6337904 5.44864865,10.8418605 C5.44864865,11.0499305 5.23568139,11.2186047 4.97297297,11.2186047 Z"/>
        </g>
        <path fill="#AF0100" d="M9.12972973,10.4651163 L9.8690132,10.4651163 C9.93836989,10.4651163 9.99459459,10.521341 9.99459459,10.5906977 C9.99459459,10.6600544 9.93836989,10.7162791 9.8690132,10.7162791 L9.12972973,10.7162791 L9.12972973,17.8702703 C9.12972973,17.941918 9.07164775,18 9,18 L8.74054054,18 C8.66889279,18 8.61081081,17.941918 8.61081081,17.8702703 L8.61081081,10.7162791 L8.1309868,10.7162791 C8.06163011,10.7162791 8.00540541,10.6600544 8.00540541,10.5906977 C8.00540541,10.521341 8.06163011,10.4651163 8.1309868,10.4651163 L8.61081081,10.4651163 L8.61081081,9.92507857 C8.61081081,9.85343082 8.66889279,9.79534884 8.74054054,9.79534884 L9,9.79534884 C9.07164775,9.79534884 9.12972973,9.85343082 9.12972973,9.92507857 L9.12972973,10.4651163 Z"/>
        <path fill="#979797" fill-rule="nonzero" d="M6.95227955,9.32562505 L7.15682059,9.48354477 C7.00279934,9.62923757 6.83892432,9.7678927 6.66701106,9.89776504 C5.69866264,10.6293065 4.71784175,10.8497025 4.31100241,10.2672934 C3.87010614,9.63613024 4.37407473,8.47642178 5.3684141,7.88175346 C6.20213876,7.38314136 6.13460019,5.89392678 5.35501594,5.28354199 C4.90346176,4.92999226 4.45950758,5.06530293 3.96619504,5.73894182 L3.75452568,5.593689 C4.32523995,4.81435481 4.93211159,4.62938931 5.51818226,5.08826033 C6.42682186,5.79969055 6.50384043,7.49793745 5.5047841,8.09542677 C4.62157505,8.6236332 4.18224603,9.63459617 4.52593453,10.126602 C4.81382162,10.5387255 5.64367479,10.3522528 6.50738341,9.69976175 C6.66319646,9.58205236 6.81199394,9.45683093 6.95227955,9.32562505 Z M7.56246236,8.64495267 C7.90714871,8.17984237 8.14171277,7.67949903 8.21839407,7.19268107 L8.47488895,7.23054042 C8.39162965,7.75911937 8.14077577,8.29580081 7.77354406,8.79135502 L7.56246236,8.64495267 Z"/>
        <path fill="#979797" fill-rule="nonzero" d="M12.7468741,9.32562505 L12.9514152,9.48354477 C12.7973939,9.62923757 12.6335189,9.7678927 12.4616057,9.89776504 C11.4932572,10.6293065 10.5124363,10.8497025 10.105597,10.2672934 C9.66470074,9.63613024 10.1686693,8.47642178 11.1630087,7.88175346 C11.9967334,7.38314136 11.9291948,5.89392678 11.1496105,5.28354199 C10.6980564,4.92999226 10.2541022,5.06530293 9.76078964,5.73894182 L9.54912027,5.593689 C10.1198345,4.81435481 10.7267062,4.62938931 11.3127769,5.08826033 C12.2214165,5.79969055 12.298435,7.49793745 11.2993787,8.09542677 C10.4161696,8.6236332 9.97684062,9.63459617 10.3205291,10.126602 C10.6084162,10.5387255 11.4382694,10.3522528 12.301978,9.69976175 C12.4577911,9.58205236 12.6065885,9.45683093 12.7468741,9.32562505 Z M13.357057,8.64495267 C13.7017433,8.17984237 13.9363074,7.67949903 14.0129887,7.19268107 L14.2694835,7.23054042 C14.1862242,7.75911937 13.9353704,8.29580081 13.5681387,8.79135502 L13.357057,8.64495267 Z" transform="matrix(-1 0 0 1 23.819 0)"/>
        <ellipse cx="8.87" cy="17.749" fill="#AF0100" rx="1" ry="1"/>
        <ellipse cx="8.784" cy="6.907" fill="#AF0100" rx="1.816" ry="1"/>
        <path fill="#F4B300" fill-rule="nonzero" d="M10.1613715,6.1016327 C10.2581077,6.12685354 10.3509985,6.15528399 10.4400385,6.18693441 L10.6884152,5.64230581 L10.925774,5.7437407 L10.6793796,6.28402238 C10.6988736,6.29299632 10.7181493,6.30215271 10.7372061,6.31149246 L10.6064876,6.49982602 C10.5995523,6.49642702 10.5925822,6.49305413 10.5855774,6.48970736 L10.5457064,6.5771346 L10.3083476,6.4756997 L10.3471283,6.39066322 C9.96864395,6.25481423 9.50725869,6.18142791 8.9624516,6.17154145 L8.9624516,6.26119186 L8.61932599,6.26119186 L8.61932599,6.17360956 C7.97257046,6.19332094 7.41145132,6.30344437 6.93506418,6.50320201 L6.8192151,6.30811647 C6.88265209,6.28151621 6.94741202,6.25641208 7.01349315,6.2328026 L6.67591521,5.49257791 L6.87978108,5.40545616 L6.8192151,5.30346531 C7.38566674,5.06594201 8.05760076,4.94771076 8.83378378,4.94771076 C9.61220214,4.94771076 10.2470747,5.06662768 10.7372061,5.3068413 L10.6064876,5.49517486 C10.1599824,5.27634244 9.56947954,5.16573634 8.83378378,5.16573634 C8.10646831,5.16573634 7.48157681,5.27384913 6.95792839,5.48905905 L7.26080417,6.1531905 C7.33446217,6.13196246 7.40961053,6.11242108 7.48624717,6.09456456 C7.43288815,6.03418775 7.4,5.95157547 7.4,5.86046512 C7.4,5.67551394 7.53552462,5.5255814 7.7027027,5.5255814 C7.86988079,5.5255814 8.00540541,5.67551394 8.00540541,5.86046512 C8.00540541,5.91265958 7.99461214,5.96206513 7.97536013,6.00609908 C8.18086628,5.9788478 8.3955322,5.96197333 8.61932599,5.95544824 L8.61932599,5.67165831 L8.29436937,5.67165831 L8.29436937,5.46965276 L8.61932599,5.46965276 L8.61932599,5.22906977 L8.9624516,5.22906977 L8.9624516,5.46965276 L9.35844595,5.46965276 L9.35844595,5.67165831 L8.9624516,5.67165831 L8.9624516,5.95346794 C9.21736549,5.95789714 9.45622564,5.9756343 9.67898738,6.00676837 C9.65955163,5.96256599 9.64864865,5.91292418 9.64864865,5.86046512 C9.64864865,5.67551394 9.78417326,5.5255814 9.95135135,5.5255814 C10.1185294,5.5255814 10.2540541,5.67551394 10.2540541,5.86046512 C10.2540541,5.95518387 10.2185093,6.0407181 10.1613715,6.1016327 Z M10.1613715,4.67837689 C10.2581077,4.70359772 10.3509985,4.73202818 10.4400385,4.7636786 L10.6884152,4.21905 L10.925774,4.32048489 L10.6793793,4.86076735 C10.6988736,4.86974051 10.7181493,4.8788969 10.7372061,4.88823665 L10.6064876,5.07657021 C10.5995523,5.07317121 10.5925822,5.06979832 10.5855774,5.06645154 L10.5457064,5.15387878 L10.3083476,5.05244389 L10.3471283,4.96740741 C9.96864395,4.83155841 9.50725869,4.75817209 8.9624516,4.74828563 L8.9624516,4.83793605 L8.61932599,4.83793605 L8.61932599,4.75035374 C7.97257046,4.77006512 7.41145132,4.88018855 6.93506418,5.0799462 L6.8192151,4.88486066 C6.88265209,4.85826039 6.94741202,4.83315627 7.01349315,4.80954678 L6.67591521,4.0693221 L6.87978108,3.98220035 L6.8192151,3.8802095 C7.38566674,3.6426862 8.05760076,3.52445494 8.83378378,3.52445494 C9.61220214,3.52445494 10.2470747,3.64337186 10.7372061,3.88358549 L10.6064876,4.07191905 C10.1599824,3.85308662 9.56947954,3.74248052 8.83378378,3.74248052 C8.10646831,3.74248052 7.48157681,3.85059331 6.95792839,4.06580323 L7.26080417,4.72993469 C7.33446217,4.70870665 7.40961053,4.68916527 7.48624717,4.67130875 C7.43288815,4.61093194 7.4,4.52831966 7.4,4.4372093 C7.4,4.25225813 7.53552462,4.10232558 7.7027027,4.10232558 C7.86988079,4.10232558 8.00540541,4.25225813 8.00540541,4.4372093 C8.00540541,4.48940376 7.99461214,4.53880932 7.97536013,4.58284326 C8.18086628,4.55559198 8.3955322,4.53871751 8.61932599,4.53219242 L8.61932599,4.2484025 L8.29436937,4.2484025 L8.29436937,4.04639695 L8.61932599,4.04639695 L8.61932599,3.80581395 L8.9624516,3.80581395 L8.9624516,4.04639695 L9.35844595,4.04639695 L9.35844595,4.2484025 L8.9624516,4.2484025 L8.9624516,4.53021212 C9.21736549,4.53464132 9.45622564,4.55237849 9.67898738,4.58351255 C9.65955163,4.53931018 9.64864865,4.48966837 9.64864865,4.4372093 C9.64864865,4.25225813 9.78417326,4.10232558 9.95135135,4.10232558 C10.1185294,4.10232558 10.2540541,4.25225813 10.2540541,4.4372093 C10.2540541,4.53192806 10.2185093,4.61746229 10.1613715,4.67837689 Z M10.1613715,3.25512107 C10.2581077,3.28034191 10.3509985,3.30877236 10.4400385,3.34042278 L10.6884152,2.79579418 L10.925774,2.89722907 L10.6793796,3.43751075 C10.6988736,3.4464847 10.7181493,3.45564108 10.7372061,3.46498083 L10.6064876,3.65331439 C10.5995523,3.64991539 10.5925822,3.6465425 10.5855774,3.64319573 L10.5457064,3.73062297 L10.3083476,3.62918808 L10.3471283,3.5441516 C9.96864395,3.4083026 9.50725869,3.33491628 8.9624516,3.32502982 L8.9624516,3.41468023 L8.61932599,3.41468023 L8.61932599,3.32709793 C7.97257046,3.34680931 7.41145132,3.45693274 6.93506418,3.65669038 L6.8192151,3.46160484 C6.88265209,3.43500458 6.94741202,3.40990045 7.01349315,3.38629097 L6.67591521,2.64606628 L6.91327398,2.54463139 L7.26080417,3.30667887 C7.33446217,3.28545084 7.40961053,3.26590945 7.48624717,3.24805293 C7.43288815,3.18767612 7.4,3.10506384 7.4,3.01395349 C7.4,2.82900232 7.53552462,2.67906977 7.7027027,2.67906977 C7.86988079,2.67906977 8.00540541,2.82900232 8.00540541,3.01395349 C8.00540541,3.06614795 7.99461214,3.1155535 7.97536013,3.15958745 C8.18086628,3.13233617 8.3955322,3.1154617 8.61932599,3.10893661 L8.61932599,2.82514668 L8.29436937,2.82514668 L8.29436937,2.62314114 L8.61932599,2.62314114 L8.61932599,2.38255814 L8.9624516,2.38255814 L8.9624516,2.62314114 L9.35844595,2.62314114 L9.35844595,2.82514668 L8.9624516,2.82514668 L8.9624516,3.10695631 C9.21736549,3.11138551 9.45622564,3.12912267 9.67898738,3.16025674 C9.65955163,3.11605436 9.64864865,3.06641255 9.64864865,3.01395349 C9.64864865,2.82900232 9.78417326,2.67906977 9.95135135,2.67906977 C10.1185294,2.67906977 10.2540541,2.82900232 10.2540541,3.01395349 C10.2540541,3.10867224 10.2185093,3.19420647 10.1613715,3.25512107 Z M8.88603604,0.3375 L9.18547297,0.3375 L9.18547297,0.588662791 L8.88603604,0.588662791 L8.88603604,1.32165698 L8.62657658,1.32165698 L8.62657658,0.588662791 L8.38085586,0.588662791 L8.38085586,0.3375 L8.62657658,0.3375 L8.62657658,0.038372093 L8.88603604,0.038372093 L8.88603604,0.3375 Z M6.93506418,6.92180666 L6.8192151,6.72672112 C7.38566674,6.48919782 8.05760076,6.37096657 8.83378378,6.37096657 C9.61220214,6.37096657 10.2470747,6.48988349 10.7372061,6.73009711 L10.6064876,6.91843067 C10.1599824,6.69959825 9.56947954,6.58899215 8.83378378,6.58899215 C8.09585269,6.58899215 7.46335729,6.70028392 6.93506418,6.92180666 Z"/>
      </g>
    </g>
  </g>
</svg>
