<svg fill="none" height="24" viewBox="0 0 32 24" width="32" xmlns="http://www.w3.org/2000/svg" xmlns:xlink="http://www.w3.org/1999/xlink"><mask id="a" height="24" maskUnits="userSpaceOnUse" width="32" x="0" y="0"><path d="m0 0h32v24h-32z" fill="#fff"/></mask><mask id="b" height="16" maskUnits="userSpaceOnUse" width="24" x="4" y="4"><path clip-rule="evenodd" d="m4 4h24v16h-24z" fill="#fff" fill-rule="evenodd"/><path d="m5 5h22v14h-22z" fill="none" stroke="#fff" stroke-width="2"/></mask><mask id="c" height="12" maskUnits="userSpaceOnUse" width="9" x="12" y="6"><path d="m17.3316 15.2051c-.3191.3478-.6403.6454-.9196.8828-.284-.2463-.6121-.5552-.938-.9144-.9165-1.0105-1.624-2.2074-1.624-3.4059 0-1.1738.6841-2.25601 1.5741-3.14398.3459-.34502.6949-.63219.9888-.85187.289.21099.6308.48692.9695.8206.8763.86318 1.5676 1.94515 1.5676 3.17525 0 1.2539-.7138 2.4515-1.6184 3.4375zm-1.6222-7.89339c-.0004-.00024 0 .00002.0014.00077v-.00004z" fill="#fff"/><path d="m17.3316 15.2051c-.3191.3478-.6403.6454-.9196.8828-.284-.2463-.6121-.5552-.938-.9144-.9165-1.0105-1.624-2.2074-1.624-3.4059 0-1.1738.6841-2.25601 1.5741-3.14398.3459-.34502.6949-.63219.9888-.85187.289.21099.6308.48692.9695.8206.8763.86318 1.5676 1.94515 1.5676 3.17525 0 1.2539-.7138 2.4515-1.6184 3.4375zm-1.6222-7.89339c-.0004-.00024 0 .00002.0014.00077v-.00004z" fill="none" stroke="#fff" stroke-width="2.9"/></mask><g mask="url(#a)"><path clip-rule="evenodd" d="m0 0h32v24h-32z" fill="#c51918" fill-rule="evenodd"/><path clip-rule="evenodd" d="m4 4h24v16h-24z" fill="#4564f9" fill-rule="evenodd"/><path d="m5 5h22v14h-22z" stroke="#cbdaff" stroke-opacity=".1" stroke-width="2"/><g mask="url(#b)"><path d="m16.5 5 .6067-1.31699-.6208-.28597-.6157.29689zm0 0c.6067-1.31699.6071-1.31679.6075-1.31658l.0011.00046.0023.00111.0063.00293.0186.00872c.015.00708.0351.01669.06.02882.0499.02424.1191.05856.2049.10279.1714.08834.4102.2168.6941.3839.5647.3323 1.324.82694 2.0906 1.47411 1.4799 1.24941 3.2646 3.30684 3.2646 6.06674 0 2.7314-1.7548 4.906-3.2102 6.2654-.7567.7068-1.5073 1.2633-2.0664 1.6426-.281.1906-.5171.3388-.6863.4411-.0846.0513-.1527.0912-.2016.1193-.0244.0141-.044.0252-.0585.0334l-.0179.01-.0059.0033-.0022.0012-.001.0005c-.0004.0002-.0008.0005-.7-1.2698m0-14c-.6298-1.30607-.6302-1.30588-.6307-1.30567l-.0009.00046-.0023.00112-.0062.00298-.0181.00895c-.0148.00727-.0347.01719-.0593.02971-.0494.02502-.1181.0605-.2033.10615-.1703.09119-.4079.22359-.6905.39498-.5621.34089-1.318.84554-2.081 1.49795-1.4645 1.25221-3.2577 3.31008-3.2577 6.01637 0 2.677 1.7623 4.8529 3.2042 6.2153.7536.712 1.5011 1.2783 2.0579 1.666.2797.1948.5147.3468.6828.4519.0842.0526.1518.0937.2002.1225.0242.0145.0436.0259.0578.0342l.0175.0102.0058.0034.0022.0012.0009.0005c.0004.0002.0007.0004.7207-1.2582m0 0 .6992 1.2703-.7128.3924-.7064-.4041z" stroke="#c1c9f1" stroke-opacity=".1182" stroke-width="2.9"/><path d="m16.4 6.03674.6865-1.27718-.7025-.37761-.695.39111zm0 0c.6865-1.27718.687-1.27694.6875-1.27669l.001.00054.0023.00124.0056.00309.0158.00864c.0124.00685.0286.01587.0483.02705.0394.02235.093.05339.1588.09295.1313.07902.3124.19269.5266.33979.4258.29242.9963.72621 1.5717 1.29307 1.1238 1.10706 2.4324 2.89054 2.4324 5.24118 0 2.3268-1.2862 4.2043-2.3815 5.3981-.5645.6152-1.1248 1.1001-1.5436 1.4315-.2104.1666-.3881.2968-.5165.3875-.0643.0454-.1165.0811-.1546.1067-.019.0128-.0345.0231-.0463.0308l-.0148.0097-.0053.0034-.002.0013-.0009.0006c-.0004.0002-.0008.0005-.7845-1.2195m0-11.88096c-.711-1.26368-.7115-1.26344-.7119-1.26319l-.001.00054-.0021.00124-.0055.00311-.0154.00879c-.0121.00699-.028.01624-.0474.02773-.0388.02296-.0918.05491-.1569.09561-.1301.08128-.3097.19812-.5224.34864-.4228.29925-.9897.74095-1.5615 1.31145-1.11 1.10743-2.4259 2.89069-2.4259 5.19694 0 2.2816 1.2926 4.1597 2.376 5.3542.5613.6189 1.1185 1.1116 1.5347 1.4497.2091.1699.3855.3031.5128.396.0637.0465.1153.083.1529.1092.0188.0131.034.0236.0455.0314l.0145.0098.005.0034.002.0013.0009.0006c.0003.0003.0007.0005.8057-1.2055m0 0 .7837 1.22-.7989.5132-.7898-.5272z" fill="#cce0e5"/><path d="m16.4 6.03674.6865-1.27718-.7025-.37761-.695.39111zm0 0c.6865-1.27718.687-1.27694.6875-1.27669l.001.00054.0023.00124.0056.00309.0158.00864c.0124.00685.0286.01587.0483.02705.0394.02235.093.05339.1588.09295.1313.07902.3124.19269.5266.33979.4258.29242.9963.72621 1.5717 1.29307 1.1238 1.10706 2.4324 2.89054 2.4324 5.24118 0 2.3268-1.2862 4.2043-2.3815 5.3981-.5645.6152-1.1248 1.1001-1.5436 1.4315-.2104.1666-.3881.2968-.5165.3875-.0643.0454-.1165.0811-.1546.1067-.019.0128-.0345.0231-.0463.0308l-.0148.0097-.0053.0034-.002.0013-.0009.0006c-.0004.0002-.0008.0005-.7845-1.2195m0-11.88096c-.711-1.26368-.7115-1.26344-.7119-1.26319l-.001.00054-.0021.00124-.0055.00311-.0154.00879c-.0121.00699-.028.01624-.0474.02773-.0388.02296-.0918.05491-.1569.09561-.1301.08128-.3097.19812-.5224.34864-.4228.29925-.9897.74095-1.5615 1.31145-1.11 1.10743-2.4259 2.89069-2.4259 5.19694 0 2.2816 1.2926 4.1597 2.376 5.3542.5613.6189 1.1185 1.1116 1.5347 1.4497.2091.1699.3855.3031.5128.396.0637.0465.1153.083.1529.1092.0188.0131.034.0236.0455.0314l.0145.0098.005.0034.002.0013.0009.0006c.0003.0003.0007.0005.8057-1.2055m0 0 .7837 1.22-.7989.5132-.7898-.5272z" stroke="#c1c9f1" stroke-opacity=".748217" stroke-width="2.9"/><path d="m16.4 6.03674.6865-1.27718-.7025-.37761-.695.39111zm0 0c.6865-1.27718.687-1.27694.6875-1.27669l.001.00054.0023.00124.0056.00309.0158.00864c.0124.00685.0286.01587.0483.02705.0394.02235.093.05339.1588.09295.1313.07902.3124.19269.5266.33979.4258.29242.9963.72621 1.5717 1.29307 1.1238 1.10706 2.4324 2.89054 2.4324 5.24118 0 2.3268-1.2862 4.2043-2.3815 5.3981-.5645.6152-1.1248 1.1001-1.5436 1.4315-.2104.1666-.3881.2968-.5165.3875-.0643.0454-.1165.0811-.1546.1067-.019.0128-.0345.0231-.0463.0308l-.0148.0097-.0053.0034-.002.0013-.0009.0006c-.0004.0002-.0008.0005-.7845-1.2195m0-11.88096c-.711-1.26368-.7115-1.26344-.7119-1.26319l-.001.00054-.0021.00124-.0055.00311-.0154.00879c-.0121.00699-.028.01624-.0474.02773-.0388.02296-.0918.05491-.1569.09561-.1301.08128-.3097.19812-.5224.34864-.4228.29925-.9897.74095-1.5615 1.31145-1.11 1.10743-2.4259 2.89069-2.4259 5.19694 0 2.2816 1.2926 4.1597 2.376 5.3542.5613.6189 1.1185 1.1116 1.5347 1.4497.2091.1699.3855.3031.5128.396.0637.0465.1153.083.1529.1092.0188.0131.034.0236.0455.0314l.0145.0098.005.0034.002.0013.0009.0006c.0003.0003.0007.0005.8057-1.2055m0 0 .7837 1.22-.7989.5132-.7898-.5272z" stroke="#c51918" stroke-width="2.9"/><g mask="url(#c)"><path d="m12.9333 14h7.46667v1.5h-7.46667z" fill="#91cbcb"/><path clip-rule="evenodd" d="m13.6018 15.1979s5.2941.0019 5.7806-.1808c.4866-.1827-.9134 3.5075-2.7023 3.5075-1.7888 0-3.0783-3.3267-3.0783-3.3267z" fill="#fdf9a1" fill-rule="evenodd"/><path d="m18.5936 14.7551-.951.7318c-1.4989-1.9479-2.1276-3.9629-1.8593-6.01949l1.1899.15527c-.2247 1.72252.3064 3.42472 1.6204 5.13242z" fill="#a68861"/><g clip-rule="evenodd" fill-rule="evenodd"><path d="m16.3937 9.63664-.9073 1.06316c-.0341.0399-.0988.0071-.0867-.0439l.3121-1.3256h-1.4194c-.0541 0-.0696-.07405-.02-.09579l1.2128-.5317-.8609-1.13489c-.0304-.0402.011-.09512.058-.0768l1.3537.52769.309-1.24343c.0126-.05062.0846-.05058.0971.00006l.3074 1.24337 1.3419-.52248c.048-.01868.0895.03864.0568.07839l-.9297 1.12809 1.2828.5313c.0505.02093.0355.09619-.0192.09619h-1.2636l.1923 1.3562c.0071.0495-.055.0775-.0875.0394z" fill="#239e46"/><path d="m15.6 13h4.8v1.05h-4.8z" fill="#239e46"/><path d="m14.872 12.3925h-.0048c-.0139.0515-.0478.0943-.1016.1284-.0539.0341-.1235.0512-.2088.0512-.0683 0-.131-.0124-.188-.037-.0571-.0247-.1059-.0609-.1464-.1087-.0406-.0478-.0723-.1071-.0952-.178-.023-.0709-.0344-.1525-.0344-.2449 0-.0913.0112-.1725.0336-.2433.0224-.0709.0544-.1302.096-.178s.0917-.0843.1504-.1095c.0586-.0252.1237-.0378.1952-.0378.1002 0 .184.0221.2512.0662s.1189.1024.1552.1748l-.1104.0662c-.0256-.0588-.0638-.105-.1144-.1386-.0507-.0336-.1112-.0504-.1816-.0504-.0491 0-.0939.0086-.1344.0259-.0406.0174-.0755.0418-.1048.0733-.0294.0315-.052.0693-.068.1134s-.024.0934-.024.148v.178c0 .0546.008.1042.024.1488.016.0447.0386.0827.068.1142.0293.0315.0653.0559.108.0733.0426.0173.0906.026.144.026.0384 0 .0749-.005.1096-.015.0346-.01.065-.0249.0912-.0449.0261-.0199.0466-.0449.0616-.0748.0149-.0299.0224-.0654.0224-.1063v-.1087h-.2464v-.1165h.3776v.5654h-.1248zm.8352-.9387v.6804c0 .105.0197.1846.0592.2386.0394.0541.1088.0812.208.0812s.1685-.0271.208-.0812c.0394-.054.0592-.1336.0592-.2386v-.6804h.1344v.6489c0 .0798-.0072.1491-.0216.2079s-.0376.1077-.0696.1465c-.032.0389-.0739.0677-.1256.0866-.0518.0189-.115.0284-.1896.0284-.0747 0-.1374-.0095-.188-.0284-.0507-.0189-.0915-.0477-.1224-.0866-.031-.0388-.0531-.0877-.0664-.1465-.0134-.0588-.02-.1281-.02-.2079v-.6489zm1.9568 1.0994-.112-.3245h-.4512l-.112.3245h-.136l.3904-1.0994h.1712l.3904 1.0994zm-.3344-.9765h-.008l-.1888.5355h.3856zm1.8512.0504h-.008l-.0944.1843-.2672.4788-.2672-.4788-.0944-.1843h-.008v.9261h-.1312v-1.0994h.1792l.32.5922h.008l.3216-.5922h.1728v1.0994h-.1312z" fill="#c51918"/></g></g></g></g></svg>