<svg fill="none" height="12" viewBox="0 0 16 12" width="16" xmlns="http://www.w3.org/2000/svg" xmlns:xlink="http://www.w3.org/1999/xlink"><mask id="a" height="12" maskUnits="userSpaceOnUse" width="17" x="0" y="0"><path d="m0 0h17v12h-17z" fill="#fff"/></mask><g clip-rule="evenodd" fill-rule="evenodd" mask="url(#a)"><path d="m0 0h16v12h-16z" fill="#2e42a5"/><path d="m5 0h10v12z" fill="#feca00"/><g fill="#f7fcff"><path d="m3.55402 1.39691-.58778.30902.11225-.65451-.47552-.463525.65716-.095492.29389-.595491.2939.595491.65716.095492-.47553.463525.11226.65451z"/><path d="m5.29737 3.53699-.58779.30901.11226-.6545-.47553-.46353.65717-.09549.29389-.59549.29389.59549.65717.09549-.47553.46353.11226.6545z"/><path d="m6.93171 5.61926-.58779.30902.11226-.65451-.47553-.46352.65717-.0955.29389-.59549.29389.59549.65716.0955-.47552.46352.11225.65451z"/><path d="m8.53269 7.61462-.58778.30902.11225-.65451-.47553-.46352.65717-.09549.29389-.5955.29389.5955.65717.09549-.47553.46352.11226.65451z"/><path d="m10.2572 9.6684-.58776.30901.11226-.65451-.47553-.46352.65716-.09549.29387-.59549.2939.59549.6572.09549-.4755.46352.1122.65451z"/><path d="m12.1634 11.6555-.5878.309.1123-.6545-.4755-.4635.6571-.0955.2939-.5955.2939.5955.6572.0955-.4755.4635.1122.6545z"/></g></g></svg>