<svg fill="none" height="15" viewBox="0 0 20 15" width="20" xmlns="http://www.w3.org/2000/svg" xmlns:xlink="http://www.w3.org/1999/xlink"><mask id="a" height="15" maskUnits="userSpaceOnUse" width="20" x="0" y="0"><path d="m0 0h20v15h-20z" fill="#fff"/></mask><mask id="b" height="15" maskUnits="userSpaceOnUse" width="20" x="0" y="0"><path clip-rule="evenodd" d="m0 0v15h20v-15z" fill="#fff" fill-rule="evenodd"/></mask><g mask="url(#a)"><path clip-rule="evenodd" d="m0 0v15h20v-15z" fill="#feca00" fill-rule="evenodd"/><g mask="url(#b)"><g clip-rule="evenodd" fill-rule="evenodd"><path d="m0 0v5h20v-5z" fill="#5eaa22"/><path d="m0 10v5h20v-5z" fill="#e31d1c"/><path d="m10 11.25c2.0711 0 3.75-1.67893 3.75-3.75s-1.6789-3.75-3.75-3.75c-2.07107 0-3.75 1.67893-3.75 3.75s1.67893 3.75 3.75 3.75z" fill="#2b77b8"/><path d="m9.99999 8.75-1.72627.57908.53745-1.44281-1.17091-1.39754h1.625l.73473-1.48873.73471 1.48873h1.6608l-1.2067 1.39754.4283 1.44281z" stroke="#feca00" stroke-width=".9375"/></g><g stroke="#2b77b8" stroke-width=".625"><path d="m9.81005 7.52161-1.30291 2.72509"/><path d="m9.60504 7.17468h-2.5"/><path d="m10.0759 8.02344 2.4432 1.12759"/><path d="m10.6042 7.4211 1.7685-1.93575"/></g></g></g></svg>