<svg fill="none" height="12" viewBox="0 0 16 12" width="16" xmlns="http://www.w3.org/2000/svg" xmlns:xlink="http://www.w3.org/1999/xlink"><mask id="a" height="12" maskUnits="userSpaceOnUse" width="16" x="0" y="0"><path d="m0 0h16v12h-16z" fill="#fff"/></mask><mask id="b" height="12" maskUnits="userSpaceOnUse" width="16" x="0" y="0"><path clip-rule="evenodd" d="m0 0v12h16v-12z" fill="#fff" fill-rule="evenodd"/></mask><g clip-rule="evenodd" fill-rule="evenodd" mask="url(#a)"><path d="m0 0v12h16v-12z" fill="#f7fcff"/><g mask="url(#b)"><path d="m6 0h4v4h6v4h-6v4h-4v-4h-6v-4h6z" fill="#e31d1c"/><path d="m6.50275 1.52295.49724.8771v2.59992h-3.56738v-.02858l-.87963-.49867v2.98009l.83232-.45284h3.61469v2.5255l-.49724.87713h2.98009l-.47857-.87965h-.00428v-2.52298h3.60031l.8323.45284v-2.98009l-.8796.49867v.02858h-3.55301v-2.59739h.00428l.47857-.87963z" fill="#feca00"/></g></g></svg>