<svg fill="none" height="24" viewBox="0 0 32 24" width="32" xmlns="http://www.w3.org/2000/svg" xmlns:xlink="http://www.w3.org/1999/xlink"><mask id="a" height="24" maskUnits="userSpaceOnUse" width="34" x="0" y="0"><path d="m0 0h34v24h-34z" fill="#fff"/></mask><g clip-rule="evenodd" fill-rule="evenodd" mask="url(#a)"><path d="m0 0h32v24h-32z" fill="#2e42a5"/><path d="m9 0h20v24z" fill="#feca00"/><g fill="#f7fcff"><path d="m6.10805 2.79376-1.17557.61804.22451-1.30902-.95106-.92705 1.31433-.190985.58779-1.190983.58778 1.190983 1.31433.190985-.95106.92705.22452 1.30902z"/><path d="m9.59474 7.07391-1.17557.61804.22451-1.30902-.95105-.92705 1.31432-.19098.58779-1.19099.58776 1.19099 1.3144.19098-.9511.92705.2245 1.30902z"/><path d="m12.8634 11.2384-1.1756.618.2246-1.309-.9511-.92703 1.3143-.19098.5878-1.19099.5878 1.19099 1.3143.19098-.951.92703.2245 1.309z"/><path d="m16.0653 15.2292-1.1755.6181.2245-1.309-.9511-.9271 1.3143-.191.5878-1.191.5878 1.191 1.3143.191-.951.9271.2245 1.309z"/><path d="m19.5144 19.3368-1.1756.618.2246-1.309-.9511-.927 1.3143-.191.5878-1.191.5878 1.191 1.3143.191-.951.927.2245 1.309z"/><path d="m23.3269 23.311-1.1756.6181.2246-1.309-.9511-.9271 1.3143-.191.5878-1.191.5878 1.191 1.3143.191-.951.9271.2245 1.309z"/></g></g></svg>