<svg fill="none" height="15" viewBox="0 0 20 15" width="20" xmlns="http://www.w3.org/2000/svg" xmlns:xlink="http://www.w3.org/1999/xlink"><mask id="a" height="15" maskUnits="userSpaceOnUse" width="20" x="0" y="0"><path d="m0 0h20v15h-20z" fill="#fff"/></mask><g mask="url(#a)"><g clip-rule="evenodd" fill-rule="evenodd"><path d="m14 0h6v15h-6z" fill="#d9071e"/><path d="m0 0h6v15h-6z" fill="#006923"/><path d="m6 0h8v15h-8z" fill="#fff"/><path d="m8.9901 4.94592s-.42925.33291-.34897.68784c.08027.35492.92621 0 .82395-.34392-.10227-.34392-.47498-.34392-.47498-.34392z" fill="#fcca3d"/><path d="m8.33464 5.79261c-.32117 0-.45507-.26764-.38864-.55212.03551-.15203.12772-.34488.27818-.59547l.53583.32173c-.05737.09554-.10309.17847-.137.24692.11233.03319.22307.08248.3132.14183.29182.19217.39923.53457.08638.78833-.06055.04912-.15881.21656-.21304.37737.14927.00832.25598.03077.35433.08895.27624.1634.25026.46141.03989.69155-.1491.16311-.34819.29542-.53574.36319-.31204.11276-.64589.06957-.64589-.3299l-.00007-.00292c-.00062-.01627-.00166-.04408.13769-.04723m.00611-.00012-.00611.00012c-.23777-.00337-.28866-.12925-.31832-.35338-.00751-.05678-.01054-.11082-.01471-.22743l-.00278-.07589-.00335-.0739-.001-.01643c-.0047-.07215-.00795-.12211.15379-.12211h-.36255v-.625h.36255c.20562 0 .31925.06943.38437.21299.03625-.06509.07568-.12639.11718-.18133-.05227-.0181-.10529-.02975-.1403-.02975m-.16877 1.49211c.0067-.00011.0137-.00017.02103-.00017l-.0095-.00006zm.56686-.3943.00973-.01041c-.00107.00116-.00211.00265-.00312.00443zm-.27382.18547c-.00014.00006.00022-.00002.00091-.00017zm.00085-.23577.00128.00936c-.00072-.00543-.00139-.01139-.00202-.01809z" fill="#a8ac71"/><path d="m12.0415 7.75182s.5782-1.71334-.3408-2.60024c-.919-.88689-1.98095-.82755-1.98095-.82755s-.30581.22722 0 .40051c.30585.17328.17769.33943.17769.33943s-.51215-.52002-.85214-.2162c-.33998.30381.31738.25758.24779.48634-.06958.22876-.3644 1.24442.06639 1.7572s-.4073.40149-.23685.40149c.17046 0 .77481.11936.77481 0 0-.11935.21006.46406.38986.46406s.3186-.20504.3186-.20504.2521.20504.4057.20504c.1535 0 .6891-.13419.6891-.13419l-1.0122-.85282s.061-.37617-.0826-.45758c-.1436-.08142 1.1511.72152 1.2525.98053.1014.25902.1831.25902.1831.25902z" fill="#8f4620"/></g><path d="m6.91656 7.32911s.09385-.2991.19432-.31986c.08704-.01799.27008.14333.27008.14333.32515 1.80617 1.11136 2.51162 2.4159 2.51162 1.31984 0 2.11984-.53605 2.58664-2.20184 0 0 .2482-.25343.3357-.22526.0954.03067.2148.36597.2148.36597-.5355 1.91101-1.5474 2.76183-3.13714 2.76183-1.60513 0-2.50695-.96191-2.8803-3.03579z" fill="#9fab2f"/><path clip-rule="evenodd" d="m8.33392 8.53528s1.87768.39834 2.61888.39834c.7411 0-.6503.60487-1.19321.60487-.54292 0-1.42567-1.00321-1.42567-1.00321z" fill="#2fc2dc" fill-rule="evenodd"/><rect fill="#f9aa51" height=".669643" rx=".104167" width="1.25" x="9.16669" y="8.8125"/><path d="m7.60974 7.58491.51164-.35896c.6659.94914 1.66172 1.26139 3.05452.93549l.1424.60857c-1.62818.38096-2.88669-.01365-3.70856-1.1851z" fill="#259485"/><g clip-rule="evenodd" fill="#fcca3d" fill-rule="evenodd"><path d="m10.3696 7.71887s-.75852.3993-.50567.3993c.25287 0 1.24237.19965 1.04987 0-.1926-.19965-.5442-.3993-.5442-.3993z"/><path d="m9.47277 7.2427s-.14413-.41628-.44406-.41628-.21527.34148-.3595.34148c-.14424 0 .13439.2403.25858.2403.12418 0 .54498-.1655.54498-.1655z"/></g></g></svg>