<svg fill="none" height="12" viewBox="0 0 16 12" width="16" xmlns="http://www.w3.org/2000/svg" xmlns:xlink="http://www.w3.org/1999/xlink"><mask id="a" height="12" maskUnits="userSpaceOnUse" width="16" x="0" y="0"><path d="m0 0h16v12h-16z" fill="#fff"/></mask><mask id="b" height="12" maskUnits="userSpaceOnUse" width="16" x="0" y="0"><path clip-rule="evenodd" d="m0 0v12h16v-12z" fill="#fff" fill-rule="evenodd"/></mask><g clip-rule="evenodd" fill-rule="evenodd" mask="url(#a)"><path d="m0 0v12h16v-12z" fill="#ef0000"/><g mask="url(#b)"><path d="m0 0v7h9v-7z" fill="#2e42a5"/><path d="m4.36479 5.40542-.74083.92426-.17945-1.17085-1.1037.43002.43001-1.10371-1.17084-.17945.92425-.74083-.92425-.74083 1.17084-.17945-.43001-1.1037 1.1037.43001.17945-1.170841.74083.924251.74083-.924251.17945 1.170841 1.1037-.43001-.43001 1.1037 1.17084.17945-.92425.74083.92425.74083-1.17084.17945.43001 1.10371-1.1037-.43002-.17945 1.17085zm0-.40938c.79042 0 1.43117-.64076 1.43117-1.43118 0-.79041-.64075-1.43117-1.43117-1.43117s-1.43117.64076-1.43117 1.43117c0 .79042.64075 1.43118 1.43117 1.43118zm1.14494-1.43118c0 .63234-.51261 1.14494-1.14494 1.14494s-1.14494-.5126-1.14494-1.14494c0-.63233.51261-1.14494 1.14494-1.14494s1.14494.51261 1.14494 1.14494z" fill="#feffff"/></g></g></svg>