<svg fill="none" height="15" viewBox="0 0 20 15" width="20" xmlns="http://www.w3.org/2000/svg" xmlns:xlink="http://www.w3.org/1999/xlink"><mask id="a" height="15" maskUnits="userSpaceOnUse" width="20" x="0" y="0"><path d="m0 0h20v15h-20z" fill="#fff"/></mask><mask id="b" height="15" maskUnits="userSpaceOnUse" width="20" x="0" y="0"><path clip-rule="evenodd" d="m0 0v15h20v-15z" fill="#fff" fill-rule="evenodd"/></mask><g clip-rule="evenodd" fill-rule="evenodd" mask="url(#a)"><path d="m0 0v15h20v-15z" fill="#e31d1c"/><g mask="url(#b)"><path d="m0 5v5h20v-5z" fill="#272727"/><g fill="#f7fcff"><path d="m3.78307 7.44192-1.32055 1.32055.88389.88388 1.32055-1.32055 1.32054 1.32055.88389-.88388-1.32055-1.32055 1.32055-1.32055-.88389-.88388-1.32054 1.32055-1.32055-1.32055-.88389.88388z"/><path d="m9.15807 7.44192-1.32055 1.32055.88389.88388 1.32059-1.32055 1.3205 1.32055.8839-.88388-1.3206-1.32055 1.3206-1.32055-.8839-.88388-1.3205 1.32055-1.32059-1.32055-.88389.88388z"/><path d="m14.5331 7.44192-1.3206 1.32055.8839.88388 1.3206-1.32055 1.3205 1.32055.8839-.88388-1.3206-1.32055 1.3206-1.32055-.8839-.88388-1.3205 1.32055-1.3206-1.32055-.8839.88388z"/></g></g></g></svg>