<svg fill="none" height="24" viewBox="0 0 32 24" width="32" xmlns="http://www.w3.org/2000/svg" xmlns:xlink="http://www.w3.org/1999/xlink"><mask id="a" height="24" maskUnits="userSpaceOnUse" width="32" x="0" y="0"><path d="m0 0h32v24h-32z" fill="#fff"/></mask><g mask="url(#a)"><path clip-rule="evenodd" d="m0 0h32v24h-32z" fill="#feca00" fill-rule="evenodd"/><path d="m2 2h6v20h-6z" fill="#1f8a6e"/><path d="m8 2h6v20h-6z" fill="#f56800"/><path d="m14 2h16v20h-16z" fill="#b01d00"/><path d="m12 2h2v20h-2z" fill="#e8aa00"/><g clip-rule="evenodd" fill="#feca00" fill-rule="evenodd"><path d="m17.1005 6.17346s-1.2737-.0037-1.2737 2.21411v3.25213s-.6063.1081-.6063.4848c0 .3766.1285.7062.3674.7062s.4778 1.1049.2389 1.1049-.4778.4741-.2389.4741c.0571 0 .1006-.0077.1337-.0136.0348-.0062.0581-.0104.0737-.0013.0315.0184.0315.0909.0315.3101 0 .4305-.2389.6046-.2389.6046s-.225-.0627-.225.1906c0 .2534.225.3176.225.3176s.1288.0556-.1193.1756-.2481.178-.2481.178h.6063l.3037.5556.2897-.5556h.5985s-.3014-.1928-.3367-.2332-.0781-.0994 0-.1669c.0228-.0197.0561-.0348.0919-.051.087-.0392.1885-.0851.1885-.2201 0-.1906-.3821-.1906-.3821-.1906s-.2331-.4208-.1601-.6046c.0204-.0514.032-.0971.042-.1364.0257-.101.0404-.1588.1658-.1588.174 0 .2738-.2196.054-.4741 0 0 .252.2709.1779.6225-.074.3515.077.5107.1588.5107s.2119-.1209.2119-.1209.6795.6075.9781.6075.7267-.4866.7267-.4866l.6147.3452s.4499.6303.3836 1.0636-.3228.6747-.6246.6077-.7927.0705-.83.2574c-.0057.0283-.0141.0628-.0233.1006-.0517.2121-.1291.5297.1075.4513.2788-.0923.3334-.1631.3334-.1631s-.0367.1631.1879.1631c.2245 0 .2894-.1631.2894-.1631s.2328.1631.3963.1631c.1634 0 .3465-.1257.3465-.1257s.1205.1868.387.1257c.2665-.061.468-.7566.2741-.9124 0 0 .643-.0933.808-.6522 0 0-.622-.0092-.5579-.3919s.3926-.6286.3926-.6286.9457-.4578 1.3527-.6046c.4069-.1468 1.0832-.2952 1.2508-.2952.0682 0 .1169.1592.1829.375.0962.3145.2292.7492.5128.9865.4784.4001.1522 1.3141.1522 1.3141s-1.0644.1073-1.0644.3955c0 .2881.0171.4138.2165.4138.1993 0 .1953-.1631.1953-.1631s.1183.1631.3094.1631c.191 0 .3432-.1631.3432-.1631s.0508.1631.3011.1631.2485-.1631.2485-.1631.0451.1631.2657.1631.6734-.1631.6734-.1631.071.1631.3001.1631.2345-.1631.2345-.1631.1223.1631.3208.1631c.1984 0 .3147-.1631.3147-.1631s.2853.1631.4821.1631.1261-.2945 0-.5519c-.0319-.0651-.0688-.1207-.1026-.1715-.0997-.1501-.1715-.2581-.0026-.4443.0478-.0528.1026-.1061.1575-.1595.2046-.1989.4102-.3989.2596-.5741-.0447-.052-.0971-.0883-.1498-.1249-.1724-.1198-.3479-.2417-.2673-.9205.0483-.4065.14-.7369.2252-1.0437v-.0001c.1005-.362.1919-.6911.1919-1.0734 0-.7062-.4171-1.5138-.4171-1.5138s.5616-.3919.5616-1.1892c0-.79728-1.2532-.88423-1.2532-.88423s-1.2449.32042-1.7945.16021c-.124-.03615-.2278-.06215-.3142-.08379-.2963-.07423-.3876-.09709-.3876-.3025 0-.26528-.4.22608-.4.22608s-.3136-.12586-.1004-.38629c.2132-.26042.3094-.36252.3094-.36252s-.1878-.21418-.5047-.10709-.3734.28455-.3734.28455-.3613-.36985-.1362-.63839.5096 0 .5096 0 .3236.16898.3497-.05282c.026-.2218 0-.39868 0-.39868s.812.23289.5825.59512c-.2294.36223-.0843.49477-.0843.49477s.5581.03434.6589-.35064c.0382-.14561.0319-.28681.004-.39778.1608.07574.3429.16548.292.31437-.0933.27354-.296.61911-.296.61911s.5577-.03259.7239-.46961.1059.10709.1059.10709.2138-.00761.5346.17746c.3208.18506 0-.28455 0-.28455s.6658.82561 1.2956.72772c.6298-.0979.5949-.62063.5949-.62063s-.1492-.25659-.461-.25659c-.3119 0-.1339.25659-.1339.25659s.3041.17318-.178 0c-.1396-.05016-.348-.21208-.6065-.41299-.6341-.49276-1.5701-1.22008-2.5344-1.10869-1.3575.1568-1.8312.76345-1.8312.76345v-.50513s-.2281.35093-.4408.35093c-.2126 0-.8032-.35093-.8032-.35093l-.3762.35093s-.1425-.35093-.3926-.35093-.2501.35093-.2501.35093-.3146-.1547-.6611-.1547c-.142 0-.2627-.05185-.3558-.09182-.1342-.05759-.2109-.09054-.2109.09182 0 .037.0009.07233.0017.10593v.00002c.0061.24688.0098.40094-.3494.44743-.4081.05282-.7233.05282-.7233.05282s-.2443-.2973-.4344-.2973-.4103.2307-.4103.44092.2462.80975.4103.93794c.0432.03376.0352.03007-.0001.01383-.0986-.04541-.4102-.18894-.4102.11435 0 .2091.0522.26137.0903.29955.037.037.0607.06076.0109.20116-.0207.05842-.0492.126-.0789.19652-.1153.2738-.2493.5921-.0223.5921.1226 0 .2385-.027.3211-.0462.1097-.0255.1604-.0373.0892.0462-.0284.0333-.0666.0734-.1051.1139-.1309.1373-.2655.2787-.0325.1714.1225-.0564.2259-.1382.3112-.2056.1248-.0987.2107-.1666.2608-.0797.0316.055.0062.1285-.0155.1915-.0361.1048-.0623.1805.2004.0938.0921-.0304.146-.0541.176-.0711.0013.017.0153.0408.0567.0711.0881.0647.0712.126.0583.1729-.0146.053-.0241.0875.1296.0875.147 0 .3546-.1139.4776-.1815.1191-.0654.1589-.0873-.0121.08-.1078.1054-.2637.1756-.4368.2536-.3852.1736-.8554.3855-1.0686 1.1081-.2879.9755-.1589 1.1765-.1398 1.1995l-.8862-.9702s.2119-.1656.2119-.4435-.5486-.4848-.5486-.4848.0192-3.45771.1779-4.21217c.1588-.75447.2406-1.25407.2406-1.25407zm.8044 7.36474.0022.0024s-.0004-.0003-.001-.001c-.0003-.0004-.0007-.0008-.0012-.0014zm.9627-2.8239c-.01 0-.0292.0109-.0276.0327.0384-.0218.0376-.0327.0276-.0327zm6.6673-2.7906-.0118-.00553c-.1297-.06103-.2414-.11353-.1985-.18174.0604-.09588.1644.00482.2103.18727zm.5863 7.4819s-.4199.4119-.1533.5024c.0809.0275.1793.0428.2707.057.2101.0327.3837.0597.2245.2152-.2285.2232-.4219.5248-.4219.7994 0 .2747.0065.5065.08.3906.0404-.0636.2062-.1302.3849-.202.1468-.059.3022-.1215.4038-.1886.1919-.1268.1891-.264.1842-.5105-.0009-.0426-.0018-.0885-.0018-.1382 0-.3369-.9711-.9253-.9711-.9253zm-3.2582-5.51602c.0979-.07779.1042-1.03796.1042-1.03796s.3433.11431.3433.2643c0 .09341-.0259.14684-.0652.22748-.0237.04885-.0523.10768-.083.19142-.0754.20627.1299.3355.3206.45553.0145.00916.029.01825.0432.02735.1293.0824.1656-.09642.1936-.23446.0156-.07652.0286-.14051.0535-.14051.0697 0 .5901.11797.9817.317.3418.17367.6771.08837 1.4451-.10686.1122-.02853.2336-.0594.3657-.09217 1.0358-.25698 1.1718.12888 1.278.4327.1062.3038-.698.7247-1.278.801-.2549.0335-.4757.0229-.6788.013-.2591-.0125-.4895-.0236-.7253.0602-.3695.1314-1.5251.1183-1.9762.1132-.0623-.0007-.1111-.0012-.1426-.0012-.2071 0-.2462-.0654-.3249-.1966-.0199-.0333-.0425-.0709-.0709-.1127-.1406-.2065.03-.3415.1405-.3415s.0755-.2416 0-.3354c-.0756-.0939-.0223-.22603.0755-.30382z"/><path d="m14.1712 2.12227v.36103c0 .04446-.0192.1051-.0407.17307-.0681.21545-.1596.50458.2627.58584.5555.1069.9648.34983 1.0892.57917.0797.14697.0573-.09793.0308-.38599-.0148-.16143-.0308-.33642-.0308-.46357 0-.35404-.3966-1.04395-.6776-.84955-.281.19439-.6336 0-.6336 0zm0 19.38503v.361s.3526-.1944.6336 0 .6776-.4955.6776-.8496c0-.1271.016-.3021.0308-.4635.0265-.2881.0489-.533-.0308-.386-.1244.2293-.5337.4722-1.0892.5791-.4223.0813-.3308.3704-.2627.5859.0215.068.0407.1286.0407.1731zm15.6644 0v.361s-.3525-.1944-.6335 0c-.2811.1944-.6776-.4955-.6776-.8496 0-.1271-.0161-.3021-.0309-.4635-.0264-.2881-.0489-.533.0309-.386.1244.2293.5336.4722 1.0892.5791.4223.0813.3308.3704.2626.5859-.0215.068-.0407.1286-.0407.1731zm0-19.024v-.36103s-.3525.19439-.6335 0c-.2811-.1944-.6776.49551-.6776.84955 0 .12716-.0161.30214-.0309.46357-.0264.28806-.0489.53296.0309.38599.1244-.22934.5336-.47227 1.0892-.57917.4223-.08126.3308-.37039.2626-.58584-.0215-.06797-.0407-.12861-.0407-.17307z"/></g></g></svg>