<svg width="32" height="24" viewBox="0 0 32 24" fill="none" xmlns="http://www.w3.org/2000/svg">
<mask id="mask0" mask-type="alpha" maskUnits="userSpaceOnUse" x="0" y="0" width="32" height="24">
<rect width="32" height="24" fill="white"/>
</mask>
<g mask="url(#mask0)">
<path fill-rule="evenodd" clip-rule="evenodd" d="M0 0V24H32V0H0Z" fill="#F7FCFF"/>
<mask id="mask1" mask-type="alpha" maskUnits="userSpaceOnUse" x="0" y="0" width="32" height="24">
<path fill-rule="evenodd" clip-rule="evenodd" d="M0 0V24H32V0H0Z" fill="white"/>
</mask>
<g mask="url(#mask1)">
<path fill-rule="evenodd" clip-rule="evenodd" d="M0 0V24H32V0H0Z" fill="#3D58DB"/>
<path fill-rule="evenodd" clip-rule="evenodd" d="M15.049 3.53656L14.8245 4.84557L16 4.22754L17.1756 4.84557L16.9511 3.53656L17.9021 2.51401H16.5878L16 1.22754L15.4123 2.51401H14.0979L15.049 3.53656ZM15.049 20.9054L14.8245 22.2145L16 21.5964L17.1756 22.2145L16.9511 20.9054L17.9021 19.8829H16.5878L16 18.5964L15.4123 19.8829H14.0979L15.049 20.9054ZM5.67283 13.618L5.89735 12.309L4.94629 11.2865H6.26062L6.8484 9.99999L7.43619 11.2865H8.75052L7.79946 12.309L8.02397 13.618L6.8484 13L5.67283 13.618ZM7.7353 16.4501L7.51079 17.7591L8.68636 17.1411L9.86193 17.7591L9.63741 16.4501L10.5885 15.4275H9.27414L8.68636 14.1411L8.09857 15.4275H6.78424L7.7353 16.4501ZM23.325 17.1411L22.1494 17.7591L22.3739 16.4501L21.4228 15.4275H22.7372L23.325 14.1411L23.9127 15.4275H25.2271L24.276 16.4501L24.5005 17.7591L23.325 17.1411ZM7.7353 8.06016L7.51079 9.36917L8.68636 8.75114L9.86193 9.36917L9.63741 8.06016L10.5885 7.03761H9.27414L8.68636 5.75114L8.09857 7.03761H6.78424L7.7353 8.06016ZM23.325 8.75114L22.1494 9.36917L22.3739 8.06016L21.4228 7.03761H22.7372L23.325 5.75114L23.9127 7.03761H25.2271L24.276 8.06016L24.5005 9.36917L23.325 8.75114ZM10.6562 19.7819L10.4317 21.0909L11.6072 20.4729L12.7828 21.0909L12.5583 19.7819L13.5094 18.7594H12.195L11.6072 17.4729L11.0195 18.7594H9.70513L10.6562 19.7819ZM19.3239 21.0909L19.5484 19.7819L18.5973 18.7594H19.9117L20.4995 17.4729L21.0872 18.7594H22.4016L21.4505 19.7819L21.675 21.0909L20.4995 20.4729L19.3239 21.0909ZM10.4317 5.98414L11.6072 5.36611L12.7828 5.98414L12.5583 4.67512L13.5094 3.65258H12.195L11.6072 2.36611L11.0195 3.65258H9.70513L10.6562 4.67512L10.4317 5.98414ZM19.3239 5.98414L19.5484 4.67512L18.5973 3.65258H19.9117L20.4995 2.36611L21.0872 3.65258H22.4016L21.4505 4.67512L21.675 5.98414L20.4995 5.36611L19.3239 5.98414ZM24.1241 12.1908L23.8996 13.4998L25.0752 12.8818L26.2508 13.4998L26.0263 12.1908L26.9773 11.1682H25.663L25.0752 9.88175L24.4874 11.1682H23.1731L24.1241 12.1908Z" fill="#FFD018"/>
</g>
</g>
</svg>
