<svg fill="none" height="15" viewBox="0 0 20 15" width="20" xmlns="http://www.w3.org/2000/svg" xmlns:xlink="http://www.w3.org/1999/xlink"><filter id="a" color-interpolation-filters="sRGB" filterUnits="userSpaceOnUse" height="8.717" width="8.11145" x="4.95944" y="2.51678"><feFlood flood-opacity="0" result="BackgroundImageFix"/><feColorMatrix in="SourceAlpha" type="matrix" values="0 0 0 0 0 0 0 0 0 0 0 0 0 0 0 0 0 0 127 0"/><feOffset/><feColorMatrix type="matrix" values="0 0 0 0 0 0 0 0 0 0 0 0 0 0 0 0 0 0 0.2 0"/><feBlend in2="BackgroundImageFix" mode="normal" result="effect1_dropShadow"/><feBlend in="SourceGraphic" in2="effect1_dropShadow" mode="normal" result="shape"/></filter><mask id="b" height="15" maskUnits="userSpaceOnUse" width="20" x="0" y="0"><path d="m0 0h20v15h-20z" fill="#fff"/></mask><mask id="c" height="15" maskUnits="userSpaceOnUse" width="20" x="0" y="0"><path clip-rule="evenodd" d="m0 0v15h20v-15z" fill="#fff" fill-rule="evenodd"/></mask><g clip-rule="evenodd" fill-rule="evenodd" mask="url(#b)"><path d="m0 0v15h20v-15z" fill="#1d1d1d"/><g mask="url(#c)"><path d="m0 0v7.5h20v-7.5z" fill="#f50100"/><g filter="url(#a)"><path d="m9.71872 8.37008c.48448-.59876.63628-1.37279.63628-1.8558 0-2.57375-3.2112-3.9975-3.2112-3.9975 2.20775 0 4.6667 1.78978 4.6667 3.9975 0 .93481-.3209 1.80217-.8585 2.49161.9839.49079 1.8166.87379 1.8166.87379.3089.20262.3953.74282.1928 1.05192-.2027.3089-.6176.3951-.9264.1927 0 0-.79-.4673-1.2715-.7829-.2206-.1446-.4757-.3014-.7473-.46204-.63171.42524-1.38909.67434-2.20331.67434 0 0-2.93569-.3596-2.85168-1.86495 0 0 .7107.54365 2.8014.54365.33271 0 .62518-.0466.88179-.12849-.90556-.49415-1.67353-.88583-1.67353-.88583-.30912-.20253-1.11297-1.22946-.91038-1.53855.20266-.30893 1.42787.04029 1.73676.24277 0 0 .42962.59002 1.03594.95076.26789.15937.57033.32797.88553.49702zm-1.48097-2.24357-.63115.42055.20167-.7203-.46332-.46012.62737-.02488.26543-.71226.26542.71226h.62631l-.46226.485.2315.67778z" fill="#fcff01"/><path d="m9.71872 8.37008c.48448-.59876.63628-1.37279.63628-1.8558 0-2.57375-3.2112-3.9975-3.2112-3.9975 2.20775 0 4.6667 1.78978 4.6667 3.9975 0 .93481-.3209 1.80217-.8585 2.49161.9839.49079 1.8166.87379 1.8166.87379.3089.20262.3953.74282.1928 1.05192-.2027.3089-.6176.3951-.9264.1927 0 0-.79-.4673-1.2715-.7829-.2206-.1446-.4757-.3014-.7473-.46204-.63171.42524-1.38909.67434-2.20331.67434 0 0-2.93569-.3596-2.85168-1.86495 0 0 .7107.54365 2.8014.54365.33271 0 .62518-.0466.88179-.12849-.90556-.49415-1.67353-.88583-1.67353-.88583-.30912-.20253-1.11297-1.22946-.91038-1.53855.20266-.30893 1.42787.04029 1.73676.24277 0 0 .42962.59002 1.03594.95076.26789.15937.57033.32797.88553.49702zm-1.48097-2.24357-.63115.42055.20167-.7203-.46332-.46012.62737-.02488.26543-.71226.26542.71226h.62631l-.46226.485.2315.67778z" fill="#ffea42"/></g></g></g></svg>