<svg fill="none" height="15" viewBox="0 0 20 15" width="20" xmlns="http://www.w3.org/2000/svg" xmlns:xlink="http://www.w3.org/1999/xlink"><mask id="a" height="15" maskUnits="userSpaceOnUse" width="20" x="0" y="0"><path d="m0 0h20v15h-20z" fill="#fff"/></mask><mask id="b" height="9" maskUnits="userSpaceOnUse" width="14" x="3" y="3"><path clip-rule="evenodd" d="m3 3h14v9h-14z" fill="#fff" fill-rule="evenodd"/><path d="m3.625 3.625h12.75v7.75h-12.75z" fill="none" stroke="#fff" stroke-width="1.25"/></mask><g mask="url(#a)"><g clip-rule="evenodd" fill-rule="evenodd"><path d="m0 0h20v13.75c0 .6904-.5596 1.25-1.25 1.25h-17.5c-.690356 0-1.25-.5596-1.25-1.25z" fill="#c51918"/><path d="m0 0h20v15h-20z" fill="#c51918"/><path d="m3 3h14v9h-14z" fill="#579d20"/></g><path d="m3.625 3.625h12.75v7.75h-12.75z" stroke="#b6eb9a" stroke-opacity=".238111" stroke-width="1.25"/><g mask="url(#b)"><path clip-rule="evenodd" d="m10.0206 7.78901c-.0106 1.91605 1.4978 2.93759 1.4978 2.93759-1.7212.2021-2.86636-1.35821-2.86636-2.91892s1.56096-2.84992 2.86636-3.43207c0 0-1.4872 1.49734-1.4978 3.4134z" fill="#f9fafa" fill-rule="evenodd"/></g></g></svg>