<svg fill="none" height="24" viewBox="0 0 32 24" width="32" xmlns="http://www.w3.org/2000/svg" xmlns:xlink="http://www.w3.org/1999/xlink"><mask id="a" height="24" maskUnits="userSpaceOnUse" width="32" x="0" y="0"><path d="m0 0h32v24h-32z" fill="#fff"/></mask><mask id="b" height="24" maskUnits="userSpaceOnUse" width="32" x="0" y="0"><path clip-rule="evenodd" d="m0 0v24h32v-24z" fill="#fff" fill-rule="evenodd"/></mask><g clip-rule="evenodd" fill-rule="evenodd" mask="url(#a)"><path d="m0 0v24h32v-24z" fill="#ef0000"/><g mask="url(#b)"><path d="m0 0v14h18v-14z" fill="#2e42a5"/><path d="m8.72958 10.8108-1.48166 1.8486-.3589-2.3417-2.20741.86.86003-2.20741-2.34169-.3589 1.84851-1.48166-1.84851-1.48166 2.34169-.3589-.86003-2.20741 2.20741.86002.3589-2.34168 1.48166 1.84851 1.48162-1.84851.3589 2.34168 2.2074-.86002-.86 2.20741 2.3417.3589-1.8485 1.48166 1.8485 1.48166-2.3417.3589.86 2.20741-2.2074-.86-.3589 2.3417zm0-.81873c1.58082 0 2.86232-1.28151 2.86232-2.86234s-1.2815-2.86235-2.86232-2.86235c-1.58083 0-2.86235 1.28152-2.86235 2.86235s1.28152 2.86234 2.86235 2.86234zm2.28992-2.86234c0 1.26466-1.02526 2.28987-2.28992 2.28987s-2.28988-1.02521-2.28988-2.28987c0-1.26467 1.02522-2.28988 2.28988-2.28988s2.28992 1.02521 2.28992 2.28988z" fill="#feffff"/></g></g></svg>