<svg fill="none" height="12" viewBox="0 0 16 12" width="16" xmlns="http://www.w3.org/2000/svg" xmlns:xlink="http://www.w3.org/1999/xlink"><mask id="a" height="12" maskUnits="userSpaceOnUse" width="16" x="0" y="0"><path d="m0 0h16v12h-16z" fill="#fff"/></mask><mask id="b" height="12" maskUnits="userSpaceOnUse" width="16" x="0" y="0"><path clip-rule="evenodd" d="m0 0v12h16v-12z" fill="#fff" fill-rule="evenodd"/></mask><g mask="url(#a)"><path clip-rule="evenodd" d="m0 0v12h16v-12z" fill="#e31d1c" fill-rule="evenodd"/><g mask="url(#b)"><g clip-rule="evenodd" fill-rule="evenodd"><path d="m3.04676 2.07048c-.00385-.04626.05151-.06869.08282-.03442.22456.24583.81809.85782 1.16133.85782.4295 0 2.1163-1.42133 2.61487-1.18979.49858.23154 1.50803 2.65235 1.50803 2.65235l-.65782.82513-.85021-.46381-.2353-1.54621s-1.56191.78265-2.37957.47711l-.45964.16765s-.44265-.8765-.61696-1.14459c-.11533-.17738-.15435-.44229-.16755-.60124z" fill="#f7fcff"/><path d="m4.00001 4.13757-.58779.30902.11226-.65451-.47553-.46352.65716-.0955.2939-.59549.29389.59549.65716.0955-.47553.46352.11226.65451z" fill="#feca00"/><path d="m6.56569 1.76829c.00752-.09395.08596-.16636.18021-.16636.10552 0 .18861.09001.1802.1952l-.11058 1.38206c-.00751.09395-.08595.16636-.1802.16636-.10553 0-.18862-.09001-.1802-.1952z" fill="#feca00"/><path d="m12.6101 2.5517c.0412.02126.0309.08009-.0147.08848-.3275.06017-1.161.23921-1.3429.53029-.2276.36424.0839 2.54791-.3767 2.84803-.4605.30012-3.04844-.12665-3.04844-.12665l-.35116-.99512.84388-.47523 1.48095.59002s.13919-1.67866.83157-2.21017l.0812-.5095s.9779.0891 1.2976.08334c.2115-.00381.4569.10348.5987.17651z" fill="#f7fcff"/><path d="m10.2526 2.42817.0494-.66223.4956.44204.645-.15764-.2672.60791.3492.5648-.6607-.06633-.4292.5067-.1411-.6489-.61457-.25164z" fill="#feca00"/><path d="m10.9767 5.59911c.0805.05865.1038.16853.0542.25486-.059.10261-.1951.12941-.2887.05683l-.96188-.7465c-.06099-.04734-.08418-.12881-.05724-.20117.04082-.10964.17501-.15002.26956-.08112z" fill="#feca00"/><path d="m7.43125 10.4918c-.03904.0251-.08483-.0133-.06927-.057.11163-.3137.37334-1.12504.2122-1.42811-.20164-.37923-2.2485-1.20131-2.27813-1.75023-.02964-.54891 1.63391-2.57671 1.63391-2.57671l1.03737.19344-.01037.96844-1.34561.98592s1.51597.95119 1.63007 1.81659l.36301.33533s-.5661.80232-.72097 1.08213c-.10248.1851-.31806.3439-.45221.4302z" fill="#f7fcff"/><g fill="#feca00"><path d="m8.94607 8.45716.5488.37391-.6306.20815-.18602.63748-.39284-.53541-.66376.02008.38782-.53906-.22421-.62507.63252.20225.52519-.40639z"/><path d="m5.55181 7.47812c-.11154.04278-.23572-.01945-.26822-.1344-.02844-.10059.02412-.20635.12148-.24443l1.00904-.39466c.09277-.03628.19822-.00124.25082.08335.06856.11025.0197.25566-.10151.30215z"/></g></g><g fill="#feca00"><path d="m6.83129 4.88244c-.06223-.02174-.09547-.09104-.07424-.15479.02122-.06374.12092-.17022.18315-.14848l.86789.30327c.04478.01565.07626.05698.0802.10528l.07761.95192c.00547.06712-.09229.12142-.15781.12702-.06552.00561-.12307-.04426-.12854-.11138l-.07187-.81862z"/><path d="m8.34029 4.38368c.05187-.04138.1445.00658.1849.05973.04039.05314.03108.12976-.02079.17114l-.60121.61621c-.05188.04138-.16855-.03934-.20894-.09248s-.05188-.1979 0-.23928z"/></g></g></g></svg>