<svg fill="none" height="15" viewBox="0 0 20 15" width="20" xmlns="http://www.w3.org/2000/svg" xmlns:xlink="http://www.w3.org/1999/xlink"><mask id="a" height="15" maskUnits="userSpaceOnUse" width="20" x="0" y="0"><path d="m0 0h20v15h-20z" fill="#fff"/></mask><g clip-rule="evenodd" fill-rule="evenodd" mask="url(#a)"><path d="m0 0h20v15h-20z" fill="#f7fcff"/><path d="m0 0v5h20v-5z" fill="#272727"/><path d="m0 10v5h20v-5z" fill="#5eaa22"/><g fill="#e31d1c"><path d="m0 0 10 7.5-10 7.5z"/><path d="m13.555 9.67322s-1.4218-.85923-1.4218-2.27911 1.4218-2.16685 1.4218-2.16685c-.6364-.40376-2.843.17248-2.843 2.21311s2.1859 2.41765 2.843 2.23285zm1.1503-2.60285-.8274-.77527.2857.98977-.8007.37929.9835.32011.4271 1.0714.1867-.99178.9714.21451-.735-.71777.2487-.76581z"/></g></g></svg>