<svg fill="none" height="15" viewBox="0 0 20 15" width="20" xmlns="http://www.w3.org/2000/svg" xmlns:xlink="http://www.w3.org/1999/xlink"><mask id="a" height="15" maskUnits="userSpaceOnUse" width="20" x="0" y="0"><path d="m0 0h20v15h-20z" fill="#fff"/></mask><g mask="url(#a)"><path clip-rule="evenodd" d="m0 0v15h20v-15z" fill="#c51918" fill-rule="evenodd"/><path clip-rule="evenodd" d="m0 0v15l20-15z" fill="#5eaa22" fill-rule="evenodd"/><path d="m.397446 17.47.452105.5043.563359-.376 22.66309-15.12715.7495-.50028-.6015-.67099-3.3255-3.70978-.4521-.50435-.5634.37603-22.66304 15.12722-.7495.5002.60149.671z" fill="#272727" stroke="#ffd018" stroke-width="1.5625"/><g clip-rule="evenodd" fill="#f7fcff" fill-rule="evenodd"><path d="m7.5554 10.5739-.68039 1.1841-.43451-1.3339-1.3513-.42958 1.12603-.6879-.13568-1.39526 1.11135.85444 1.1511-.63806-.32283 1.42125.92353 1.06291z"/><path d="m13.8054 6.47815-.6804 1.18416-.4345-1.33395-1.3513-.42954 1.126-.6879-.1356-1.39526 1.1113.85444 1.1511-.63806-.3228 1.42125.9235 1.06288z"/></g></g></svg>