<svg fill="none" height="24" viewBox="0 0 32 24" width="32" xmlns="http://www.w3.org/2000/svg" xmlns:xlink="http://www.w3.org/1999/xlink"><mask id="a" height="24" maskUnits="userSpaceOnUse" width="32" x="0" y="0"><path d="m0 0h32v24h-32z" fill="#fff"/></mask><mask id="b" height="24" maskUnits="userSpaceOnUse" width="32" x="0" y="0"><path clip-rule="evenodd" d="m0 0v24h32v-24z" fill="#fff" fill-rule="evenodd"/></mask><g mask="url(#a)"><path clip-rule="evenodd" d="m0 0v24h32v-24z" fill="#feca00" fill-rule="evenodd"/><g mask="url(#b)"><path d="m0 0h32v4h-32z" fill="#272727"/><path d="m0 8h32v4h-32z" fill="#d74800"/><path d="m0 12h32v4h-32z" fill="#272727"/><path d="m0 20h32v4h-32z" fill="#d74800"/><g clip-rule="evenodd" fill-rule="evenodd"><path d="m16 18c3.3137 0 6-2.6863 6-6 0-3.31371-2.6863-6-6-6s-6 2.68629-6 6c0 3.3137 2.6863 6 6 6z" fill="#f7fcff"/><path d="m13.6796 8.32864-1.058.34715 1.058.09058s.1711.41835 0 .74493c-.0434.08291-.1554.18913-.2984.32471-.4202.39849-1.1079 1.05069-1.1079 2.11019 0 1.4201 2.7406 2.064 2.7406 2.064v.6747s.3181.1975-1.4968.1975c-1.5738 0-1.4754.5975-1.4215.9245.0083.0501.0155.0939.0155.1281 0 .2583.7564-.2582 1.1105-.7724.1864-.2706.967-.2563 1.7681-.1821.0632.0059.6474 1.2432.1403 1.8824-.2131.2685-.9488.3035-1.4084.3254-.2344.0111-.3969.0188-.3819.0524.0113.0251.15.0169.3514.0048.2515-.015.6009-.0358.9229-.0048.0489.0047-.1407.1692-.3323.3355-.1973.1713-.3969.3445-.3407.3472.0633.0029.4328-.2018.7686-.3878.2778-.1539.5324-.2949.5712-.2949.2534 0 .4822.0312.6828.0587.3354.0458.5923.0809.754-.0587.0498-.043-.2389-.1122-.5333-.1827-.3032-.0726-.6125-.1467-.5637-.1951.2787-.2766.1623-.8565.0705-1.3131-.0411-.2049-.0773-.385-.0705-.5018.0238-.4148.4625-.1972.8074-.0262.151.0749.2839.1408.3562.1408.653 0-.1578-.8259-.6029-1.2792-.039-.0397-.0752-.0766-.1073-.1098-.2263-.2337-.0676-.2023.2913-.1313.2738.0541.6641.1313 1.0887.1313.981 0 1.697-.3187 1.4482-1.1816-.1641-.5693-1.0625-.763-2.0012-.9654-.4841-.1044-.9789-.2111-1.3892-.3728-1.0094-.3979-.958-.978-.9144-1.46846.0084-.0954.0166-.18741.0166-.27404 0-.53201.8978-1.18266.8978-1.18266s-.4097-.68655-1.0892-.68655-.743.68655-.743.68655zm1.8482 6.24786v-.5018s.4196-.0138.5667.3391c.1472.353-.5667.1627-.5667.1627z" fill="#272727"/><path d="m13.0769 6.71104 1.0136 1.20194.5249-.12346-.2518-1.21335z" fill="#d74800"/><path d="m14.3928 6.42052.0653 1.80705.8655-.21296.3686-1.18352z" fill="#ffd018"/><g fill="#d74800"><path d="m13.577 9.43867c.1912 0 .3461-.1511.3461-.3375 0-.18639-.1549-.3375-.3461-.3375s-.3462.15111-.3462.3375c0 .1864.155.3375.3462.3375z"/><path d="m15.7765 6.75901-1.0077 1.20689.2127.49548 1.1512-.4586z"/><path d="m18.1187 15.893s1.7724-.7918 1.7724-1.8991-2.878-2.3135-2.878-2.3135-1.6929.3875-.9298.906c.763.5185 1.7854.7177 1.7854 1.4075s.28 1.3475-.2878 1.3475.5378.5516.5378.5516z"/></g><path d="m15.5616 11.478s-.6269.1101-.5971.212c.0823.2814.9394.6481 1.313.9019.763.5185 1.4865.4603 2.0247.1228.5382-.3374-2.7406-1.2367-2.7406-1.2367z" fill="#fffdff"/></g></g></g></svg>