<svg fill="none" height="24" viewBox="0 0 32 24" width="32" xmlns="http://www.w3.org/2000/svg" xmlns:xlink="http://www.w3.org/1999/xlink"><mask id="a" height="24" maskUnits="userSpaceOnUse" width="32" x="0" y="0"><path d="m0 0h32v24h-32z" fill="#fff"/></mask><mask id="b" height="24" maskUnits="userSpaceOnUse" width="32" x="0" y="0"><path clip-rule="evenodd" d="m0 0v24h32v-24z" fill="#fff" fill-rule="evenodd"/></mask><mask id="c" height="16" maskUnits="userSpaceOnUse" width="32" x="0" y="0"><path d="m0 0h32v16h-32z" fill="#fff"/></mask><g mask="url(#a)"><path clip-rule="evenodd" d="m0 0v24h32v-24z" fill="#2e42a5" fill-rule="evenodd"/><g mask="url(#b)"><path clip-rule="evenodd" d="m0 16v8h32v-8z" fill="#feca00" fill-rule="evenodd"/><g mask="url(#c)"><path d="m-2.26221 15.1294 6.34272 1.4673 13.52109-7.47095 1.4307-.83662 12.8436-6.71565 3.0427-2.121032-6.9597-.641858-11.2216 6.33001-8.10935 3.98515z" fill="#fff"/><path d="m-1.70496 16.0188 3.41495 1.1201 31.93891-17.953h-4.7949z" fill="#f50100"/><path d="m34.3707 14.7308.2519 1.51-6.7032.3559-10.8061-6.3294-1.0189.3481-20.17486-10.204754 8.32983-1.603336 11.13593 6.15188 8.7115 4.20926z" fill="#fff"/><path d="m34.3938 15.6369-3.4149 1.1202-13.6-7.68664-4.0321-.85881-16.60573-8.749477h4.79498l16.59645 8.541807 4.4084 1.0298z" fill="#f50100"/><path d="m13.189-1.25v-1.25h-1.25v1.25zm0 6v1.25h1.25v-1.25zm-14.439 0v-1.25h-1.25v1.25zm0 6.5h-1.25v1.25h1.25zm14.439 0h1.25v-1.25h-1.25zm0 8h-1.25v1.25h1.25zm5.6885 0v1.25h1.25v-1.25zm0-8v-1.25h-1.25v1.25zm14.3725 0v1.25h1.25v-1.25zm0-6.5h1.25v-1.25h-1.25zm-14.3725 0h-1.25v1.25h1.25zm0-6h1.25v-1.25h-1.25zm-2.5 6v1.25h1.25v-1.25zm0-3.5h1.25v-1.25h-1.25zm-.6885 0v-1.25h-1.25v1.25zm0 3.5h-1.25v1.25h1.25zm.6885 2.5h1.25v-1.25h-1.25zm-.6885 0v-1.25h-1.25v1.25zm.6885 1.5v1.25h1.25v-1.25zm-.6885 0h-1.25v1.25h1.25zm-2.5-1.5h1.25v-1.25h-1.25zm-11.939 0v-1.25h-1.25v1.25zm0 1.5h-1.25v1.25h1.25zm11.939 0v1.25h1.25v-1.25zm2.5 2.5v-1.25h-1.25v1.25zm0 5.5h-1.25v1.25h1.25zm.6885 0v1.25h1.25v-1.25zm0-5.5h1.25v-1.25h-1.25zm2.5-4v-1.25h-1.25v1.25zm0 1.5h-1.25v1.25h1.25zm11.8725-1.5h1.25v-1.25h-1.25zm0 1.5v1.25h1.25v-1.25zm-17.561-8.75h1.25v-2.5h-1.25zm1.25 0v-1.25h-2.5v1.25zm0 4.75v-4.75h-2.5v4.75zm-14.439 1.25h13.189v-2.5h-13.189zm-1.25 0h1.25v-2.5h-1.25zm1.25 0v-1.25h-2.5v1.25zm0 4v-4h-2.5v4zm0 1.25v-1.25h-2.5v1.25zm0-1.25h-1.25v2.5h1.25zm13.189 0h-13.189v2.5h13.189zm1.25 8v-6.75h-2.5v6.75zm0 1.25v-1.25h-2.5v1.25zm0-1.25h-1.25v2.5h1.25zm3.1885 0h-3.1885v2.5h3.1885zm1.25 0h-1.25v2.5h1.25zm-1.25 0v1.25h2.5v-1.25zm0-6.75v6.75h2.5v-6.75zm14.3725-1.25h-13.1225v2.5h13.1225zm1.25 0h-1.25v2.5h1.25zm-1.25 0v1.25h2.5v-1.25zm0-4v4h2.5v-4zm0-1.25v1.25h2.5v-1.25zm0 1.25h1.25v-2.5h-1.25zm-13.1225 0h13.1225v-2.5h-13.1225zm-1.25-6v4.75h2.5v-4.75zm0-1.25v1.25h2.5v-1.25zm0 1.25h1.25v-2.5h-1.25zm-3.1885 0h3.1885v-2.5h-3.1885zm3.1885 4.75v-3.5h-2.5v3.5zm-1.25-4.75h-.6885v2.5h.6885zm-1.9385 1.25v3.5h2.5v-3.5zm1.25 4.75h.6885v-2.5h-.6885zm.6885 0h-.6885v2.5h.6885zm1.25 2.75v-1.5h-2.5v1.5zm-1.9385 1.25h.6885v-2.5h-.6885zm-1.25-2.75v1.5h2.5v-1.5zm-1.25-1.25h-11.939v2.5h11.939zm-13.189 1.25v1.5h2.5v-1.5zm1.25 2.75h11.939v-2.5h-11.939zm13.189-1.25v-1.5h-2.5v1.5zm0 2.5v5.5h2.5v-5.5zm1.25 6.75h.6885v-2.5h-.6885zm1.9385-1.25v-5.5h-2.5v5.5zm-1.25-6.75h-.6885v2.5h.6885zm1.25-2.75v1.5h2.5v-1.5zm13.1225-1.25h-11.8725v2.5h11.8725zm1.25 2.75v-1.5h-2.5v1.5zm-13.1225 1.25h11.8725v-2.5h-11.8725z" fill="#fff"/><path clip-rule="evenodd" d="m17.6923-1.33337h-3.3846v7.33333h-14.3077v4h14.3077v9.33334h3.3846v-9.33334h16.3077v-4h-16.3077z" fill="#f50100" fill-rule="evenodd"/></g><g clip-rule="evenodd" fill-rule="evenodd"><path d="m16.05 10.6c1.5188 0 2.75-1.23124 2.75-2.75002 0-1.51879-1.2312-2.75-2.75-2.75-1.5187 0-2.75 1.23121-2.75 2.75 0 1.51878 1.2313 2.75002 2.75 2.75002z" fill="#2e42a5"/><g fill="#feca00"><path d="m16.1 8.69127-1.2979.90314.4579-1.51343-1.26-.95527 1.5809-.03221.5191-1.49352.5191 1.49352 1.5809.03221-1.26.95527.4579 1.51343z"/><path d="m7.09998 8.57608-1.08156.75262.38156-1.2612-1.05-.79605 1.31737-.02685.43263-1.2446.43262 1.2446 1.31738.02685-1.05.79605.38156 1.2612z"/><path d="m25.1 8.57608-1.0816.75262.3816-1.2612-1.05-.79605 1.3174-.02685.4326-1.2446.4326 1.2446 1.3174.02685-1.05.79605.3815 1.2612z"/><path d="m16.1 3.77603-1.0816.75262.3816-1.2612-1.05-.79605 1.3174-.02685.4326-1.2446.4326 1.2446 1.3174.02685-1.05.79605.3815 1.2612z"/><path d="m16.1 14.376-1.0816.7526.3816-1.2612-1.05-.796 1.3174-.0269.4326-1.2446.4326 1.2446 1.3174.0269-1.05.796.3815 1.2612z"/></g></g></g></g></svg>