<svg fill="none" height="12" viewBox="0 0 16 12" width="16" xmlns="http://www.w3.org/2000/svg" xmlns:xlink="http://www.w3.org/1999/xlink"><mask id="a" height="12" maskUnits="userSpaceOnUse" width="16" x="0" y="0"><path d="m0 0h16v12h-16z" fill="#fff"/></mask><g mask="url(#a)"><path clip-rule="evenodd" d="m0 8h16v4h-16z" fill="#14dc5a" fill-rule="evenodd"/><path clip-rule="evenodd" d="m0 0h16v5h-16z" fill="#0099b5" fill-rule="evenodd"/><g fill="#f7fcff"><path d="m-1 4.625h-.375v.375 3 .375h.375 18 .375v-.375-3-.375h-.375z" stroke="#c51918" stroke-width=".75"/><path clip-rule="evenodd" d="m8.36368 1.20037-.49135.27874.14033-.566511-.47066-.416298h.61475l.20619-.5360959.24176.5360959h.52407l-.41177.416298.19799.566511zm-2.51891 1.53718.49134-.27874.55131.27874-.19799-.56651.41177-.4163h-.52406l-.24177-.53609-.20618.53609h-.61476l.47067.4163zm-1.3565 1.03895-.49134.27875.14033-.56652-.47067-.41629h.61475l.20619-.5361.24177.5361h.52406l-.41177.41629.19799.56652zm1.87614.00218-.49135.27874.14033-.56651-.47067-.4163h.61476l.20619-.5361.24176.5361h.52407l-.41177.4163.19799.56651zm2 0-.49135.27874.14033-.56651-.47067-.4163h.61476l.20619-.5361.24176.5361h.52407l-.41177.4163.19799.56651zm-.51964-1.04113.49134-.27874.55131.27874-.19799-.56651.41177-.4163h-.52406l-.24177-.53609-.20618.53609h-.61476l.47067.4163zm2.02829 1.31987.49134-.27874.5513.27874-.198-.56651.4118-.4163h-.5241l-.2417-.5361-.2062.5361h-.61478l.47068.4163zm.46304-1.59861-.49133.27874.14033-.56651-.47067-.4163h.61477l.2062-.53609.2417.53609h.5241l-.4118.4163.198.56651zm-.46377-.9797.49137-.27874.5513.27874-.198-.566511.4118-.416298h-.5241l-.2418-.5360959-.2061.5360959h-.6148l.4707.416298zm2.49207 2.29957-.4913.27874.1403-.56651-.4707-.4163h.6148l.2062-.5361.2417.5361h.5241l-.4118.4163.198.56651zm-.5196-1.04113.4913-.27874.5513.27874-.198-.56651.4118-.4163h-.5241l-.2417-.53609-.2062.53609h-.6148l.4707.4163zm.5189-1.53718-.4914.27874.1404-.566511-.4707-.416298h.6148l.2061-.5360959.2418.5360959h.5241l-.4118.416298.198.566511zm-9.42125 2.91985s-1.20792-.32761-1.18518-1.53936c.02275-1.21174 1.24273-1.52634 1.24273-1.52634-.49849-.188773-1.97243.06453-1.99964 1.51406-.027205 1.44953 1.4776 1.73509 1.94209 1.55164z" fill-rule="evenodd"/></g></g></svg>