<svg fill="none" height="15" viewBox="0 0 20 15" width="20" xmlns="http://www.w3.org/2000/svg" xmlns:xlink="http://www.w3.org/1999/xlink"><mask id="a" height="15" maskUnits="userSpaceOnUse" width="20" x="0" y="0"><path d="m0 0h20v15h-20z" fill="#fff"/></mask><g mask="url(#a)"><path clip-rule="evenodd" d="m0 0h20v15h-20z" fill="#f7fcff" fill-rule="evenodd"/><g fill="#e31d1c"><path d="m.016968 3.125h20v1.8125h-20z"/><path d="m.016968 6.375h20v1.8125h-20z"/><path d="m.069763 9.5h20v1.5625h-20z"/><path d="m.069763 12.625h20v1.6875h-20z"/><path clip-rule="evenodd" d="m0 0h20v1.5625h-20z" fill-rule="evenodd"/></g><g clip-rule="evenodd" fill-rule="evenodd"><path d="m0 0h10v8.5h-10z" fill="#3d58db"/><path d="m2.24597 3.87641c0 .86014.40514 1.67352 1.22936 1.67352 1.23661 0 1.47719-.26364 2.05422-.62737.13643.30642-.32373 1.61774-2.0711 1.61774-1.39766-.02814-2.527176-1.15098-2.527176-2.66389 0-1.73657 1.277236-2.67441 2.492106-2.6638 1.07252 0 2.21003.6086 2.17518 1.38499-.50535-.49365-1.05406-.49365-1.96749-.49365s-1.3851.91221-1.3851 1.77246z" fill="#feca00"/><path d="m6.875 4.5625-.57941.84573.02836-1.02478-.96586.34365.62529-.8124-.98338-.2897.98338-.2897-.62529-.8124.96586.34365-.02836-1.02478.57941.84573.57941-.84573-.02836 1.02478.96586-.34365-.62529.8124.98338.2897-.98338.2897.62529.8124-.96586-.34365.02836 1.02478z" fill="#feca00"/></g></g></svg>