<svg fill="none" height="24" viewBox="0 0 32 24" width="32" xmlns="http://www.w3.org/2000/svg" xmlns:xlink="http://www.w3.org/1999/xlink"><mask id="a" height="24" maskUnits="userSpaceOnUse" width="32" x="0" y="0"><rect fill="#fff" height="24" rx="2" width="32"/></mask><mask id="b" height="24" maskUnits="userSpaceOnUse" width="32" x="0" y="0"><path clip-rule="evenodd" d="m0 0v24h32v-24z" fill="#fff" fill-rule="evenodd"/></mask><g clip-rule="evenodd" fill-rule="evenodd" mask="url(#a)"><path d="m0 0v24h32v-24z" fill="#2e42a5"/><g mask="url(#b)"><path d="m0 8v4h32v-4z" fill="#feca00"/><path d="m8.82963 19.5796-1.54509 2.0053-.07132-2.5305-2.42868.7142 1.42968-2.0892-2.38459-.8498 2.38459-.8498-1.42968-2.0891 2.42868.7141.07132-2.5305 1.54509 2.0053 1.54507-2.0053.0713 2.5305 2.4287-.7141-1.4297 2.0891 2.3846.8498-2.3846.8498 1.4297 2.0892-2.4287-.7142-.0713 2.5305z" fill="#f7fcff"/></g></g></svg>