<svg fill="none" height="12" viewBox="0 0 16 12" width="16" xmlns="http://www.w3.org/2000/svg" xmlns:xlink="http://www.w3.org/1999/xlink"><mask id="a" height="12" maskUnits="userSpaceOnUse" width="16" x="0" y="0"><path d="m0 0h16v12h-16z" fill="#fff"/></mask><mask id="b" height="12" maskUnits="userSpaceOnUse" width="16" x="0" y="0"><path clip-rule="evenodd" d="m0 0v12h16v-12z" fill="#fff" fill-rule="evenodd"/></mask><mask id="c" height="5" maskUnits="userSpaceOnUse" width="4" x="6" y="4"><path clip-rule="evenodd" d="m6.17176 4.00635s.4653.32128.93059.32128c.4653 0 .93059-.32128.93059-.32128s.46529.32128.93059.32128c.46529 0 .93059-.32128.93059-.32128v1.45044c0 1.4997-1.86118 2.66201-1.86118 2.66201s-1.95129-1.06722-1.86118-2.67982z" fill="#fff" fill-rule="evenodd"/></mask><g mask="url(#a)"><path clip-rule="evenodd" d="m0 0v12h16v-12z" fill="#f7fcff" fill-rule="evenodd"/><g mask="url(#b)"><path clip-rule="evenodd" d="m8.57363 2.9635c0 .09225.42119 1.38903.42119 1.38903h-2.044l.57455-1.12112s.08393-.21392-.12153-.26791c-.20546-.054-.45302.17883-.45302.17883s.0604-.37249.14111-.45318c.08071-.08068.55245-.28754.94565-.28754s.53605.46963.53605.56189zm-7.18501-.52874c.15682-.06729 1.75047.40761 2.94425.76335h.00002l.00001.00001c.68648.20456 1.24073.36972 1.31349.36972.19929 0 1.01945.84328 1.01945.84328v1.88587s-2.5886-.53731-5.03022-3.18549c-.35809-.3546-.494-.57075-.247-.67674zm5.03329 3.98119s-.27151.18707-.57188.68801c-.14777.24642-.15966.46351-.16826.62049-.00889.16212-.01425.26013-.16216.26013-.17265 0-.29791.03734-.39986.06774-.06996.02086-.12894.03844-.18472.03844-.13707 0-.40025.51742-.26866.63716.13159.11975.68295.3106.68295 0 0-.31059.1483-.48704.41777-.48704.26946 0 .75112-.17842.75112-.5699s.52516-.36352.52516-.36352zm5.35879-3.21784c1.1937-.35574 2.7874-.83064 2.9442-.76335.247.10599.1111.32214-.247.67674-.9587 1.71571-5.03022 3.18549-5.03022 3.18549v-1.88587s.82012-.84328 1.01942-.84328c.0728 0 .627-.16514 1.3134-.3697h.0001v-.00003zm-2.08908 3.21784s.2715.18707.57188.68801c.1478.24642.1597.46351.1683.62049.0088.16212.0142.26013.1621.26013.1727 0 .2979.03734.3999.06774.0699.02086.1289.03844.1847.03844.1371 0 .4002.51742.2687.63716-.1316.11975-.683.3106-.683 0 0-.31059-.1483-.48704-.4178-.48704-.2694 0-.75109-.17842-.75109-.5699s-.52516-.36352-.52516-.36352zm-3.4374 2.08553c0-.17098.82103-1.08282.82103-1.08282l.91733-.38712s.00472.08736.01174.23243c.00703-.14507.01174-.23243.01174-.23243l.91733.38712s.82103.91184.82103 1.08282c0 .17097-1.57469 1.56422-1.73836 1.56422-.00412 0-.00803-.0019-.01174-.0056-.00371.0037-.00762.0056-.01174.0056-.16367 0-1.73836-1.39325-1.73836-1.56422z" fill="#e8aa00" fill-rule="evenodd"/><path d="m3.12326 5.49624.94882-.31582c.64128 1.92657 1.25947 3.1719 1.81508 3.71009l-.69575.71828c-.70318-.68113-1.37939-2.04333-2.06815-4.11255z" fill="#46a000"/><g clip-rule="evenodd" fill-rule="evenodd"><path d="m14.3458 5.16919h-1.0686s.2265 0 .2514.21886c0 0 .0052 1.84696 0 1.99207-.0052.14512-.2514.19448-.2514.19448s1.2964.00396 1.0686 0c-.2277-.00395-.278-.19448-.278-.19448v-1.99207c0-.16864.278-.21886.278-.21886zm-12.06313 2.25734c-.12096-.3123-.86781-2.22456-.86781-2.22456h.73936c-.12844 0-.17613.1635-.17613.1635l.51789 1.47663s.5008-1.20558.5008-1.41936c0-.21379-.21023-.22077-.21023-.22077h.96393l-.23287.07777s-.77129 1.76824-.77129 2.14679c-.03676.0839.3551.13972.3551.13972h-1.03509zm8.85063-.69831.5728-1.05545.0169 1.17432-.1775-.05759-.1258.78417.6335-1.21481-.2109-.07925.7841-.84882-.267 1.14725-.152-.13381-.8983 1.67612 1.0027-1.14883-.1933-.09653.9902-.64828-.4311 1.05643-.2405-.17313-1.0174 1.28087-.422-.16228.422-1.50038zm-.3308 2.00166h-.3167v.24094h-.2494l-.70621.81922h.38979l.13542.46126.181-.1628v.1628l.354-.1628.3385.2931.2525-1.12652-.17-.12479.0873-.07635-.0873-.32406z" fill="#0093e1"/><path d="m6.17176 4.00635s.4653.32128.93059.32128c.4653 0 .93059-.32128.93059-.32128s.46529.32128.93059.32128c.46529 0 .93059-.32128.93059-.32128v1.45044c0 1.4997-1.86118 2.66201-1.86118 2.66201s-1.95129-1.06722-1.86118-2.67982z" fill="#f7fcff"/><g mask="url(#c)"><path d="m6.04001 3.90991h3.92v1.51004h-3.92z" fill="#2e42a5"/><path d="m6.79764 5.41992h-.32941v3.05221h.32941zm.56 0h-.32941v3.05221h.32941zm.23059 0h.32941v3.05221h-.32941zm.88941 0h-.32941v3.05221h.32941zm.23059 0h.32941v3.05221h-.32941zm.88941 0h-.32941v3.05221h.32941z" fill="#af0100"/></g></g></g></g></svg>