<svg fill="none" height="12" viewBox="0 0 16 12" width="16" xmlns="http://www.w3.org/2000/svg" xmlns:xlink="http://www.w3.org/1999/xlink"><mask id="a" height="12" maskUnits="userSpaceOnUse" width="16" x="0" y="0"><path d="m0 0h16v12h-16z" fill="#fff"/></mask><mask id="b" height="12" maskUnits="userSpaceOnUse" width="16" x="0" y="0"><path clip-rule="evenodd" d="m0 0v12h16v-12z" fill="#fff" fill-rule="evenodd"/></mask><g clip-rule="evenodd" fill-rule="evenodd" mask="url(#a)"><path d="m0 0v12h16v-12z" fill="#2e42a5"/><g mask="url(#b)"><g fill="#f7fcff"><path d="m1.64724 5.03169-.44278.27399.1719-.45995-.37636-.34821h.4565l.19074-.49752.14556.49752h.4572l-.3295.34821.16133.45995z"/><path d="m3.64724 3.03169-.44278.27399.1719-.45995-.37636-.34821h.4565l.19074-.49752.14556.49752h.4572l-.3295.34821.16133.45995z"/><path d="m5.64724 5.03169-.44278.27399.1719-.45995-.37636-.34821h.4565l.19074-.49752.14556.49752h.4572l-.3295.34821.16133.45995z"/><path d="m3.64724 7.03169-.44278.27399.1719-.45995-.37636-.34821h.4565l.19074-.49752.14556.49752h.4572l-.3295.34821.16133.45995z"/></g><path d="m12.421 2.73145c-2.0417 1.00858-8.75039 5.54105-8.75039 5.54105h11.17559c-.1116-.02495-.2158-.04568-.3139-.06523-.8204-.16336-1.2254-.24399-2.1113-2.00884-.992-1.97605 0-3.46698 0-3.46698zm-9.11315 6.25101-.15282.37997.15282.41749 11.37685.21999.3153-.57987-.3153-.4175z" fill="#feca00"/></g></g></svg>