<svg fill="none" height="15" viewBox="0 0 20 15" width="20" xmlns="http://www.w3.org/2000/svg" xmlns:xlink="http://www.w3.org/1999/xlink"><mask id="a" height="15" maskUnits="userSpaceOnUse" width="20" x="0" y="0"><path d="m0 0h20v15h-20z" fill="#fff"/></mask><mask id="b" height="15" maskUnits="userSpaceOnUse" width="20" x="0" y="0"><path clip-rule="evenodd" d="m0 0v15h20v-15z" fill="#fff" fill-rule="evenodd"/></mask><mask id="c" height="9" maskUnits="userSpaceOnUse" width="11" x="0" y="0"><path d="m0 0h11v9h-11z" fill="#fff"/></mask><mask id="d" fill="#000" height="11" maskUnits="userSpaceOnUse" width="13" x="-1" y="-1"><path d="m-1-1h13v11h-13z" fill="#fff"/><path clip-rule="evenodd" d="m6 0h-1v4h-5v1h5v4h1v-4h5v-1h-5z" fill="#000" fill-rule="evenodd"/></mask><mask id="e" height="7" maskUnits="userSpaceOnUse" width="6" x="13" y="6"><path d="m16.2189 12.2274c-.6282 0-1.0521-.148-1.349-.3947-.2992-.2486-.5015-.6237-.6328-1.1406-.1317-.5184-.1865-1.1568-.207-1.9065-.0144-.5266-.0117-1.09732-.0089-1.71116.0009-.18095.0017-.36564.0022-.55405h4.4526c.079 1.47436.1006 2.89051-.1839 3.95271-.1487.555-.3753.9901-.7003 1.2861-.3199.2912-.7575.4682-1.3729.4682z" fill="#fff" stroke="#fff" stroke-width=".5"/></mask><g mask="url(#a)"><path clip-rule="evenodd" d="m0 0v15h20v-15z" fill="#2e42a5" fill-rule="evenodd"/><g mask="url(#b)"><path d="m0 0h11v9h-11z" fill="#2e42a5"/><g mask="url(#c)"><path d="m-1.25269 8.12482 2.4756 1.08575 10.08329-8.03017 1.3058-1.61346-2.64732-.362889-4.11271 3.460429-3.31032 2.33152z" fill="#f7fcff"/><path d="m-.913757 8.88555 1.261201.63007 11.795656-10.098567h-1.7709z" fill="#f50100"/><path d="m12.5026 8.12493-2.1971 1.3957-10.3617172-8.34013-1.3058228-1.613454 2.6473-.36289 4.11271 3.460434 3.31031 2.33152z" fill="#f7fcff"/><path d="m12.4182 8.67082-1.2612.63008-5.02275-4.32372-1.48913-.48308-6.13281-4.921582h1.770875l6.129365 4.804762 1.62809.57927z" fill="#f50100"/><path clip-rule="evenodd" d="m6 0h-1v4h-5v1h5v4h1v-4h5v-1h-5z" fill="#f50100" fill-rule="evenodd"/><path d="m5 0v-.9375h-.9375v.9375zm1 0h.9375v-.9375h-.9375zm-1 4v.9375h.9375v-.9375zm-5 0v-.9375h-.9375v.9375zm0 1h-.9375v.9375h.9375zm5 0h.9375v-.9375h-.9375zm0 4h-.9375v.9375h.9375zm1 0v.9375h.9375v-.9375zm0-4v-.9375h-.9375v.9375zm5 0v.9375h.9375v-.9375zm0-1h.9375v-.9375h-.9375zm-5 0h-.9375v.9375h.9375zm-1-3.0625h1v-1.875h-1zm.9375 3.0625v-4h-1.875v4zm-5.9375.9375h5v-1.875h-5zm.9375.0625v-1h-1.875v1zm4.0625-.9375h-5v1.875h5zm.9375 4.9375v-4h-1.875v4zm.0625-.9375h-1v1.875h1zm-.9375-3.0625v4h1.875v-4zm5.9375-.9375h-5v1.875h5zm-.9375-.0625v1h1.875v-1zm-4.0625.9375h5v-1.875h-5zm-.9375-4.9375v4h1.875v-4z" fill="#f7fcff" mask="url(#d)"/></g><path d="m16.2189 12.2274c-.6282 0-1.0521-.148-1.349-.3947-.2992-.2486-.5015-.6237-.6328-1.1406-.1317-.5184-.1865-1.1568-.207-1.9065-.0144-.5266-.0117-1.09732-.0089-1.71116.0009-.18095.0017-.36564.0022-.55405h4.4526c.079 1.47436.1006 2.89051-.1839 3.95271-.1487.555-.3753.9901-.7003 1.2861-.3199.2912-.7575.4682-1.3729.4682z" fill="#6dc2ff" stroke="#f7fcff" stroke-width=".5"/><g mask="url(#e)"><path clip-rule="evenodd" d="m15.3261 8.49183s-.2466-.18243-.3524-.478-.3151-1.08241-.3151-1.15073c0-.06833-.2785 0-.2785 0s.0039-.33274.109-.33274.109-.30852.364-.23083c.255.0777.4555.36262.7154.36262s1.3461.08286 1.5207.08286.6349.36854.6349.6444-.1255.68686-.2243.68686c-.0987 0-.2229.23914-.4106.16021s-.6357-.24148-1.0371-.16021c-.4014.08128-.4836.03019-.4836.16021s-.2424.25535-.2424.25535z" fill="#e1e5e8" fill-rule="evenodd"/><path clip-rule="evenodd" d="m14.7499 8.29919h3.2223l-.555.71722h-2.2767z" fill="#49801e" fill-rule="evenodd"/><path d="m14.708 11.4347s.5569.1992.7896.175c.2578-.0268.486-.3206.6582-.3206.172 0 .503.2939.7602.3206.233.0242.6877-.175.6877-.175" stroke="#fff" stroke-width=".666667"/><path d="m14.0964 10.5852c.1926-.1631.6116-.175.6116-.175s.5569.1992.7897.175c.2577-.0269.4859-.3207.6581-.3207.172 0 .5031.2939.7602.3207.2331.0242.6877-.175.6877-.175s.254-.2857.5731.016" stroke="#fff" stroke-width=".666667"/><path d="m14.0379 9.70611-.4214-.51653c.1652-.13484.4427-.26774.8478-.41462l.1966-.00948c.4199.10792.7007.15469.8035.14439.0339-.00341.0906-.03096.1942-.09965.2941-.19508.3226-.21098.4972-.21098.1596 0 .1926.01531.5261.19546.062.03319.0852.04526.1187.06135.0704.03381.1209.05104.1486.05381.0801.00803.2414-.02938.467-.12019.2935-.26674.6653-.23911.9851.05225.2133.19436.3845.35137.5138.47116l-.4531.48899c-.1277-.11833-.2977-.27415-.5097-.46734-.0843-.07682-.0662-.07633-.1037-.03573l-.1153.08101c-.3501.14784-.6266.21562-.8505.1932-.1202-.01203-.2365-.05174-.3707-.11616-.0449-.02157-.077-.03823-.147-.07576-.161-.08695-.2221-.11538-.2093-.11538.0281 0-.0108.02167-.1287.09987-.1897.1258-.3216.18993-.4962.20743-.193.01935-.4941-.0272-.9343-.13637-.286.10815-.476.20182-.5587.26927z" fill="#fff"/></g><g stroke-width=".625"><path d="m14.3521 11.4961s.6149.589.2436.9881c-.3714.3992-.7118.1673-.7118.1673" stroke="#b85f3c"/><path d="m18.1562 11.4961s-.615.589-.2436.9881c.3713.3992.7118.1673.7118.1673" stroke="#b85f3c"/><path d="m13.9504 11.9707s1.0595 1.0125 2.362 1.0125 2.3506-.7735 2.3506-.7735" stroke="#cb8b73"/></g></g></g></svg>