<svg fill="none" height="15" viewBox="0 0 20 15" width="20" xmlns="http://www.w3.org/2000/svg" xmlns:xlink="http://www.w3.org/1999/xlink"><mask id="a" height="15" maskUnits="userSpaceOnUse" width="20" x="0" y="0"><path d="m0 0h20v15h-20z" fill="#fff"/></mask><mask id="b" height="15" maskUnits="userSpaceOnUse" width="20" x="0" y="0"><path clip-rule="evenodd" d="m0 0v15h20v-15z" fill="#fff" fill-rule="evenodd"/></mask><mask id="c" height="5" maskUnits="userSpaceOnUse" width="4" x="13" y="9"><path clip-rule="evenodd" d="m13.8589 9.6377h3.0244v1.8601s-.2465 1.5199-1.5636 2.2687c0 0-1.2758-.7591-1.4608-2.2687z" fill="#fff" fill-rule="evenodd"/></mask><mask id="d" height="9" maskUnits="userSpaceOnUse" width="11" x="0" y="0"><path d="m0 0h11v9h-11z" fill="#fff"/></mask><mask id="e" fill="#000" height="11" maskUnits="userSpaceOnUse" width="13" x="-1" y="-1"><path d="m-1-1h13v11h-13z" fill="#fff"/><path clip-rule="evenodd" d="m6 0h-1v4h-5v1h5v4h1v-4h5v-1h-5z" fill="#000" fill-rule="evenodd"/></mask><g mask="url(#a)"><path clip-rule="evenodd" d="m0 0v15h20v-15z" fill="#2e42a5" fill-rule="evenodd"/><g mask="url(#b)"><g clip-rule="evenodd" fill-rule="evenodd"><path d="m12.9427 7.03169s.0576.64283-.0687 1.00708c-.1262.36425-.1904.57569-.1904.34286s-.0887-.41735-.16-.41735c-.0714 0-.015.23089-.0867.23089s-.3187.0397-.3187-.09559c0-.1353-.0325.36294.1278.4075.1602.04456-.0778.18282-.1841.14 0 0 .4372.14304.6086.26493 0 0 .5139.64588.9946.56708 0 0-.6545-.22746-.5392-.66204.1153-.43459.5392-.49745.5392-.49745s.1989.06697.193.2424c-.006.17542.1454-.05492.1454-.05492s.0244-.22164-.0025-.27573.4556-.15878.4861-.38702c0 0-.493.02269-.5269-.03594-.0338-.05864.1526-.15056.0943-.26486s-.9286.65164-.9286.65164.3005-.52133.3005-.80129c0-.27995-.0763-.47127-.3005-.47127s-.1832.10908-.1832.10908z" fill="#5eaa22"/><path d="m17.4736 7.18464c-.0005.00092.0007.00173.0014.00098.0319-.03163.232-.2174.3996-.07092.1827.15965-.0921.31523-.0921.31523s.1285.12541.2754.12541c.1468 0 .1829-.12541.1829-.12541s.0112.27909.4902.38477c0 0 .171-.24704 0-.38229 0 0 .202-.04217.1873-.2068 0 0-.166.05693-.2844-.0739-.1183-.13083-.3491-.19116-.5168-.16099-.4263-.1548-.618.14908-.6435.19392z" fill="#5eaa22"/><path d="m14.5688 8.59257s.4954.93801.1858 1.13237c-.3096.19437 1.4722.05611 1.6401 0 .1679-.0561-.0339-.35185-.2201-.43395-.1862-.08211-.9516-.35528-1.1553-.5613-.2036-.20603-.0792-.27913.0848-.48251s.7711-.2847.7711-.4748c0-.19009.3851-.97406.6543-1.03321.2692-.05914.1238-.15229.0619-.15229s-.434.38611-.5751.31645-.1583-.06476 0-.23315.2775-.36219.0682-.22275c-.2093.13945-.5543.36014-.7202.36014-.1658 0-.7563-.07528-.683.09576.0733.17103.1044.46792.4228.66849.3184.20056.18.34734-.0848.54061-.2647.19327-.4505.48014-.4505.48014z" fill="#96877d"/></g><path d="m17.8559 7.35205-.9439 1.90575s-.0276.53833.6473.17961c.6748-.35871.6483-.61313.8428-.61313.1946 0 .2564-.10877.2564-.10877l-.1296-.10259s-.015-.18713.0671-.22916c0 0-.1611-.08931-.1841-.01475-.023.07457-.1365-.15597-.0723-.15597 0 0-.142.23145-.1719.32175 0 0-.2055-.08409-.1957-.47373.0099-.38963-.1161-.70901-.1161-.70901z" fill="#ffd018"/><path d="m13.3629 7.05025s-.4806.11264-.4288.22986c.0518.11723.1282-.00316-.1071.1381 0 0-.4134.32179-.5035.28692s.0638.08105.0638-.28692c0-.36796-.2401-.06843 0-.31408.2401-.24564.3242-.05388.4397-.19523.1154-.14134.0116-.06618.3248-.06618s.2111.20753.2111.20753z" fill="#ffd018"/><path d="m14.8295 8.94434s-1.3458 1.06466-1.6147 1.14406c-.269.0795.5532-.0218.754-.16237.2009-.14055.8607-.98169.8607-.98169z" fill="#ffd018"/><path clip-rule="evenodd" d="m17.4977 10.812s.1292.8388-.2081.7563c-.3372-.0826-.4772-.1253-.4772-.1253s.1238.3907.3005.3907c0 0 .3011.5908.1853.7773 0 0 .5187-.4236.4348-.7604-.0838-.3368.1341.0554.1341.0554s.1909.0928.3289-.0108c.138-.1037-.0018-.0576-.1398-.2549-.1379-.1973-.1039-.7513-.5236-1.0385s-.5174-.278-.5174-.278-.3091-.50874-.1239-.47509c0 0 1.3272.45799 1.3616.57539.0345.1174.3865.0959.2105-.2398-.176-.33559-1.1247-.53786-1.2376-.63251s-.0078-.45364-.2106-.53185c-.2028-.0782-.7567-.63314-.7563-.90057.0003-.26742-.2604-.39331-.487-.39331s-.6534-.0659-.8337-.0659-.3483.3036-.1741.3036c.1741 0 .0253.56842-.2663.69264-.2916.12423-.5171.30277-.8501.30277s.4714.28906.5996.17491c.1283-.11414.0862-.28423.5168-.47768.4305-.19345.8415-.30799.7895-.15399-.0521.15399.0807.41157.2835.31835.2029-.09323.2679-.32871.2679-.16436 0 .16436.311 1.0085.5487 1.33796.2376.32944.844.81764.844.81764z" fill="#5eaa22" fill-rule="evenodd"/><g fill="#ffd018"><path d="m14.6665 7.72949s-.1578.25308 0 .25308.4116 0 .2569-.12654c-.1546-.12654-.2569-.12654-.2569-.12654z"/><path d="m15.1937 7.72346s.0008.16826.1101.16826c.1094 0 .2067.16826.2067 0s.152-.11246-.0824-.16826-.2344 0-.2344 0z"/><path d="m15.8673 7.76196s-.1055.07991-.0528.22244c.0528.14253.172.42458 0 .42458-.1719 0-.3134.10169-.1791.10169.1344 0 .3733.10169.3733 0s.0972.16767.0972 0c0-.16768 0-.2478 0-.34613 0-.09834.0973-.12661 0-.26459-.0972-.13799-.2386-.13799-.2386-.13799z"/><path d="m16.1108 8.74316s.2198.69613.3392.78587c.1195.08975.1731.84577.2256.92797.0524.0822.7668.497.7668.7196 0 .2227.22-.171.11-.3915-.11-.2204-.4563-.6898-.7054-.79218-.2491-.10236-.2175-.35022-.2698-.52442-.0524-.17419.3099.14075 0-.25437-.3099-.39513-.3017-.1831-.2144-.1831.0872 0 .1745-.04669.0872-.10809-.0872-.0614-.3392-.17978-.3392-.17978z"/><path d="m13.7815 10.1787s-.7136 1.2688-.841 1.3343c-.1273.0656-.2223.0789-.2873 0-.0651-.0788-.0718.2117 0 .2913.0717.0795.2873.0795.407-.0618 0 0 .0189.357.2053.6261s.264.1948.264.3469c0 .1522.0441.3537.101.3537.0568 0 .1009.479 0 .479-.101 0 .2339.0393.3798-.0805.146-.1198.2084-.2111.1772-.2111s-.406-.1986-.406-.3391-.252-.2505-.252-.4591-.1309-.4566-.1309-.5554c0-.0987.1119.0381.2319-.0554.1199-.0935.151-.3346.151-.3346s-.1888.1276-.252.0638c-.0631-.0638-.2619-.1897-.1309-.4056.1309-.216.3829-.9925.3829-.9925z"/></g><path clip-rule="evenodd" d="m15.0183 6.17725s-.2555.11442-.1703.28442c.0851.17001.1158.24529.1703.20765.0546-.03764.4374-.10881.3517-.30044-.0858-.19163-.2654-.19163-.2654-.19163z" fill="#5eaa22" fill-rule="evenodd"/><path d="m15.9048 6.08543s-.3375-.15035-.225 0 .2564.22962.36.22962c.1035 0 .3187-.03108.2111-.09174s-.3461-.13788-.3461-.13788z" fill="#ffd018"/><path clip-rule="evenodd" d="m12.5727 9.99232c.0016-.0088-.0089-.01497-.0153-.00877-.0699.06695-.2819.29255-.1922.48885.1068.2334.2135.3145.2135.3145s.065.3573.1994.4546c0 0 .1804-.0093.1893-.2875 0 0 .3065-.0905.3966.1021 0 0-.0594.0217-.0594.1854s.1386.341.1386.341.0635-.5646.3489-.9285c.2853-.364.3669-.4358.3669-.4358v-.40961s-.5903.48431-.7158.88691c0 0-.2973.01-.4181-.0415-.1208-.0516.1509-.1362 0-.3194-.1509-.1833-.0817.258-.247.1378-.2595-.0726-.2232-.3839-.2054-.48008z" fill="#5eaa22" fill-rule="evenodd"/><path clip-rule="evenodd" d="m13.8589 9.6377h3.0244v1.8601s-.2465 1.5199-1.5636 2.2687c0 0-1.2758-.7591-1.4608-2.2687z" fill="#5eaa22" fill-rule="evenodd"/><g mask="url(#c)"><path clip-rule="evenodd" d="m15.2968 9.53711-1.3214 2.76039 1.792-1.6382 1.2333 2.0578v-3.17999l-1.2333 1.01779z" fill="#58a5ff" fill-rule="evenodd"/><g fill="#ffd018"><path d="m15.2551 11.5271c0-.0545.0442-.0986.0986-.0986.0545 0 .0986.0441.0986.0986v1.7737c0 .0545-.0441.0986-.0986.0986-.0544 0-.0986-.0441-.0986-.0986z"/><path d="m14.9129 11.9648c-.0539 0-.0975-.0437-.0975-.0975 0-.0539.0436-.0975.0975-.0975h.8896c.0538 0 .0975.0436.0975.0975 0 .0538-.0437.0975-.0975.0975z"/><path d="m15.4979 13.4387-.086.0703c-.1268-.155-.2423-.2295-.3445-.2295-.1504 0-.2727-.1264-.3725-.3659l.1026-.0428c.0844.2027.1762.2975.2699.2975.142 0 .2847.0921.4305.2704z"/><path clip-rule="evenodd" d="m14.5953 12.5319c-.0005-.0005-.0015-.0001-.0015.0007v.5407c0 .0006.0007.001.0013.0008l.4039-.1674c.0006-.0003.0008-.0011.0003-.0015z" fill-rule="evenodd"/><path d="m15.3189 13.4387.086.0703c.1268-.155.2424-.2295.3445-.2295.1504 0 .2727-.1264.3725-.3659l-.1026-.0428c-.0844.2027-.1762.2975-.2699.2975-.142 0-.2847.0921-.4305.2704z"/><path clip-rule="evenodd" d="m16.2215 12.5319c.0006-.0005.0015-.0001.0015.0007v.5407c0 .0006-.0006.001-.0012.0008l-.404-.1674c-.0006-.0003-.0007-.0011-.0002-.0015z" fill-rule="evenodd"/></g><path d="m15.1549 10.7322h.394366v.591529h-.394366z" fill="#fff"/></g><path d="m0 0h11v9h-11z" fill="#2e42a5"/><g mask="url(#d)"><path d="m-1.25269 8.12494 2.4756 1.08575 10.08329-8.03017 1.3058-1.613458-2.64732-.362889-4.11271 3.460427-3.31032 2.33153z" fill="#f7fcff"/><path d="m-.913757 8.88555 1.261201.63007 11.795656-10.098567h-1.7709z" fill="#f50100"/><path d="m12.5026 8.1248-2.1971 1.39571-10.3617172-8.34013-1.3058228-1.613456 2.6473-.36289 4.11271 3.460436 3.31031 2.33152z" fill="#f7fcff"/><path d="m12.4182 8.6707-1.2612.63008-5.02275-4.32372-1.48913-.48308-6.13281-4.921584h1.770875l6.129365 4.804764 1.62809.57926z" fill="#f50100"/><path clip-rule="evenodd" d="m6 0h-1v4h-5v1h5v4h1v-4h5v-1h-5z" fill="#f50100" fill-rule="evenodd"/><path d="m5 0v-.9375h-.9375v.9375zm1 0h.9375v-.9375h-.9375zm-1 4v.9375h.9375v-.9375zm-5 0v-.9375h-.9375v.9375zm0 1h-.9375v.9375h.9375zm5 0h.9375v-.9375h-.9375zm0 4h-.9375v.9375h.9375zm1 0v.9375h.9375v-.9375zm0-4v-.9375h-.9375v.9375zm5 0v.9375h.9375v-.9375zm0-1h.9375v-.9375h-.9375zm-5 0h-.9375v.9375h.9375zm-1-3.0625h1v-1.875h-1zm.9375 3.0625v-4h-1.875v4zm-5.9375.9375h5v-1.875h-5zm.9375.0625v-1h-1.875v1zm4.0625-.9375h-5v1.875h5zm.9375 4.9375v-4h-1.875v4zm.0625-.9375h-1v1.875h1zm-.9375-3.0625v4h1.875v-4zm5.9375-.9375h-5v1.875h5zm-.9375-.0625v1h1.875v-1zm-4.0625.9375h5v-1.875h-5zm-.9375-4.9375v4h1.875v-4z" fill="#f7fcff" mask="url(#e)"/></g></g></g></svg>