<svg fill="none" height="24" viewBox="0 0 32 24" width="32" xmlns="http://www.w3.org/2000/svg" xmlns:xlink="http://www.w3.org/1999/xlink"><mask id="a" height="24" maskUnits="userSpaceOnUse" width="32" x="0" y="0"><path d="m0 0h32v24h-32z" fill="#fff"/></mask><mask id="b" height="24" maskUnits="userSpaceOnUse" width="32" x="0" y="0"><path clip-rule="evenodd" d="m0 0v24h32v-24z" fill="#fff" fill-rule="evenodd"/></mask><mask id="c" height="12" maskUnits="userSpaceOnUse" width="10" x="20" y="10"><path clip-rule="evenodd" d="m20 10h9.6552v8.3333s-.8097 3.6667-4.8276 3.6667-4.8276-3.6667-4.8276-3.6667z" fill="#fff" fill-rule="evenodd"/></mask><mask id="d" height="14" maskUnits="userSpaceOnUse" width="18" x="0" y="0"><path d="m0 0h18v14h-18z" fill="#fff"/></mask><mask id="e" fill="#000" height="18" maskUnits="userSpaceOnUse" width="22" x="-2" y="-2"><path d="m-2-2h22v18h-22z" fill="#fff"/><path clip-rule="evenodd" d="m9.98451 0h-2v6h-7.98451v2h7.98451v6h2v-6h8.01549v-2h-8.01549z" fill="#000" fill-rule="evenodd"/></mask><g mask="url(#a)"><path clip-rule="evenodd" d="m0 0v24h32v-24z" fill="#67bfe5" fill-rule="evenodd"/><g mask="url(#b)"><path clip-rule="evenodd" d="m20 10h9.6552v8.3333s-.8097 3.6667-4.8276 3.6667-4.8276-3.6667-4.8276-3.6667z" fill="#f7fcff" fill-rule="evenodd"/><g mask="url(#c)"><path d="m20 10h9.65517v3h-9.65517z" fill="#c3352c"/><path d="m24.1379 12.6666h1.37931v9.33333h-1.37931z" fill="#c3352c"/><path d="m20 16.3334h9.65517v1.33333h-9.65517z" fill="#c3352c"/><path clip-rule="evenodd" d="m22.5405 20.7371c.5805.8207 1.0536 1.141 1.3881.6574.235-.3399.2592-.6798-.0756-.7463-.1942-.2469-.3313-.4394-.4096-.5737l.0113-.0105c.0939-.0914.0974-.2131.0788-.2585-.007-.0621.0395-.1465.3413-.3772.2732-.2089.3945-.4056.2154-.6223-.0942-.1139-.1788-.1367-.4457-.1779l-.082-.0127c-.079-.0127-.1364-.0253-.1726-.0362l-.1855-.3556c-.3876-.0118-.6905.0565-1.0218.1964-.1427.0602-.2389.1012-.3031.1285-.0977.0416-.1212.0517-.122.0502-.0002-.0005.0018-.0021.0045-.0043.0077-.0061.0205-.0162.002-.0162-.0699 0-.1456-.0079-.3555-.0346l-.0412-.0052c-.6035-.0758-.7547-.0734-.8525.2076-.1488.4275.7321 1.2111 1.1999 1.3052.2342.0471.5146.2714.8258.6859zm.6562-.5885c.0568 0 .1006-.0023.1391-.0127l.0117-.0257c-.0314.0214-.0786.0384-.1508.0384zm-2.2026-1.1804c-.0124-.0145-.0157-.0332-.0071-.0579-.0018.0051.0038.0161.0156.0317.0116.0153.029.0351.0512.0582-.0268-.0077-.0476-.0178-.0597-.032zm.8192.5928c-.1676-.0337-.594-.3884-.7595-.5608.0434.0124.1026.0185.1662.025.0278.0028.0564.0057.085.0093l.0405.0052c.2358.0299.3181.0385.4185.0385.0578 0 .0458.0199.0386.032-.0022.0038-.004.0067-.0032.0082.0034.0057.049-.0137.2769-.1104.0774-.0329.1759-.0747.3008-.1274.177-.0748.3387-.1232.5161-.145.0196.0838.0683.1595.1477.2211.1064.0826.2267.1173.4336.1509-.2572.2116-.3862.3886-.427.5612-.2312.0732-.2102.3338-.0714.5943.0967.1816.2795.439.5515.7794l.1953.094c-.0576 0-.0898-.0264-.1143-.0465-.0308-.0253-.0494-.0406-.0913.0201-.0028.0041-.1847-.1191-.5728-.6675-.382-.509-.7526-.8054-1.1312-.8816zm1.2194.2996c.0035-.0029.0032-.0068.0028-.0107v-.0001zm.1599-.2119-.015.0002.007.0005c.0027-.0004.0053-.0006.008-.0007zm.0041-.0001c-.0014 0-.0027 0-.0041.0001z" fill="#979797" fill-rule="evenodd"/><path d="m21.6551 16.1102s-.4771-.6601-.4771-.8954" stroke="#964c36"/><g stroke="#2a8e51"><path d="m21.3588 15.5429s-.61-.2606-.61 0"/><path d="m21.3489 15.2688s-.4291-.5458-.7516-.5458c-.3226 0-.3149.2729-.3149.2729"/><path d="m21.104 14.722s-.1914-.8928-.4981-.8928c-.3066 0-.3066.4464-.3066.4464"/><path d="m21.1814 14.7202s-.0854-.7651.3095-.7651"/></g><path d="m22.2612 15.9812s-.2225-.7834-.1421-1.0045" stroke="#964c36"/><path d="m22.1768 15.3467s-.4841-.4535-.5732-.2087" stroke="#2a8e51"/><path d="m22.2612 15.0858s-.2165-.6596-.5196-.7699-.3892.1487-.3892.1487" stroke="#2a8e51"/><path d="m22.2182 14.4882s.1254-.9044-.1627-1.0093c-.2882-.1049-.4408.3146-.4408.3146" stroke="#2a8e51"/><path d="m22.2914 14.513s.1814-.7482.5524-.6132" stroke="#2a8e51"/><g stroke-width=".7"><path d="m22.7522 16.2601s.3164-.7504.2634-.9797" stroke="#964c36"/><g stroke="#2a8e51"><path d="m22.9132 15.6406s.5358-.3911.5944-.1372"/><path d="m22.8613 15.3715s.2953-.6283.6096-.7009.3681.1951.3681.1951"/><path d="m22.9768 14.7834s-.0143-.9129.2845-.9819.3992.366.3992.366"/><path d="m22.901 14.7992s-.0889-.7647-.4736-.6759"/><path d="m26.698 15.8018s.242-1.1134.9306-1.1134c.6887 0 .9968 1.1764.9968 1.1764"/><path d="m26.1294 15.0417s.3708-.6577 1.5947-.6039c1.2238.0538 1.4469.6039 1.4469.6039"/><path d="m25.8821 14.2054s.6723-.8328 1.6144-.1269l.3192.1269s.3201-.9437 1.8664 0"/></g></g><path d="m27.7384 16.037s.0492-1.0393.214-1.3247" stroke="#964c36"/><path d="m29.0987 18.3139s-.6181-.2907-.8031 0c-.1849.2907-2.4128 2.9619-2.4128 2.9619" stroke="#964c36"/><path clip-rule="evenodd" d="m26.9644 18.5952 1.3808.9652s.6355-.4533.3177-.7093c-.3177-.2559-1.1836-.7072-1.1836-.7072z" fill="#fff203" fill-rule="evenodd"/><path clip-rule="evenodd" d="m26.9166 18.6445s-.3199.3349-.3199.5909c0 .2559-.2976.942-.2976.942s.8324.5124 1.0052.186c.1729-.3264 1.2954-.1309 1.0975-.6295-.198-.4985-1.4852-1.0894-1.4852-1.0894z" fill="#00a651" fill-rule="evenodd"/><path clip-rule="evenodd" d="m21.0562 11.1823s.7373-.3783 1.1023 0c.3649.3784.664-.0313.664-.2595 0-.2283.5795-1.01173.5795-.3761 0 .6356-.1804.9945.329.9945s2.8031-.878 3.3531-.6184c.5501.2595.971.195.8311-.1775-.1398-.3724-.4991-.6052-1.1911-.4019-.6919.2033-.5286.4019-1.1267.4019-.598 0-1.2636-.1986-1.2636-.1986s.187-.334.8697-.0964c.6828.2376 1.6245-.2942 1.8806-.2942.2562 0 .9611-.016 1.0309.1873.0699.2033.4955.3898.1711.5794-.3244.1895-.8594.3082-.4913.551s1.2145.196 1.2553.4486.442.6297.281.6297c-.1611 0-.452.3557-.723.2474-.2709-.1083-.3028-.2034-.043-.2911.2598-.0878.2573-.4567.043-.4567s-.1097.1292-.5976 0c-.4879-.1293-1.1337-.273-1.0949 0 .0389.2729.3565.692-.2296.7478-.5861.0559-.8604.2801-.9745.0995-.1141-.1805-.5218-.4211-.2012-.4983.3206-.0771.627.2623.7425.2068.1155-.0554.3773-.0862.158-.321-.2192-.2348-.5806-.3731-.2456-.5488.3351-.1758.0707-.1794-.5678.1847-.6384.3641-.9935.6735-1.554.6297-.5605-.0437-.7705.0153-.9506-.0437-.1802-.059-1.0576.6521-1.3103.4716-.2526-.1805-1.0683-.2497-.9214-.4716.1468-.2219.3439-.3362.5635-.2219.2196.1142.4377.2285.5858.1142.1481-.1142.5757-.5063.4681-.5846-.1075-.0784-.0035-.3423-.6125-.3423s-.8231.2941-.9676.1088c-.1446-.1853.1578-.4003.1578-.4003z" fill="#ffd100" fill-rule="evenodd"/></g><path d="m0 0h18v14h-18z" fill="#2b409a"/><g mask="url(#d)"><path d="m-2.00427 12.9997 3.96095 1.7372 16.13322-12.84824 2.0893-2.581531-4.2357-.580619-6.58033 5.53669-5.2965 3.73043z" fill="#f7fcff"/><path d="m-1.46204 14.217 2.017925 1.0081 18.873015-16.157717h-2.8334z" fill="#f50100"/><path d="m20.0042 12.9997-3.961 1.7372-16.1331963-12.84824-2.0893137-2.581531 4.23567-.580619 6.58034 5.53669 5.2965 3.73043z" fill="#f7fcff"/><path d="m19.8689 13.8733-2.0179 1.0082-8.03635-6.91799-2.3826-.77292-9.8125-7.874537h2.8334l9.80695 7.687627 2.605.92682z" fill="#f50100"/><path clip-rule="evenodd" d="m9.98451 0h-2v6h-7.98451v2h7.98451v6h2v-6h8.01549v-2h-8.01549z" fill="#f50100" fill-rule="evenodd"/><path d="m7.98451 0v-1.5h-1.5v1.5zm2 0h1.49999v-1.5h-1.49999zm-2 6v1.5h1.5v-1.5zm-7.98451 0v-1.5h-1.5v1.5zm0 2h-1.5v1.5h1.5zm7.98451 0h1.5v-1.5h-1.5zm0 6h-1.5v1.5h1.5zm2 0v1.5h1.49999v-1.5zm0-6v-1.5h-1.5v1.5zm8.01549 0v1.5h1.5v-1.5zm0-2h1.5v-1.5h-1.5zm-8.01549 0h-1.5v1.5h1.5zm-2-4.5h2v-3h-2zm1.5 4.5v-6h-3v6zm-9.48451 1.5h7.98451v-3h-7.98451zm1.5.5v-2h-3v2zm6.48451-1.5h-7.98451v3h7.98451zm1.5 7.5v-6h-3v6zm.5-1.5h-2v3h2zm-1.5-4.5v6h2.99999v-6zm9.51549-1.5h-8.01549v3h8.01549zm-1.5-.5v2h3v-2zm-6.51549 1.5h8.01549v-3h-8.01549zm-1.5-7.5v6h2.99999v-6z" fill="#f7fcff" mask="url(#e)"/></g></g></g></svg>