<svg fill="none" height="15" viewBox="0 0 20 15" width="20" xmlns="http://www.w3.org/2000/svg" xmlns:xlink="http://www.w3.org/1999/xlink"><mask id="a" height="15" maskUnits="userSpaceOnUse" width="20" x="0" y="0"><path d="m0 0h20v15h-20z" fill="#fff"/></mask><g mask="url(#a)"><g clip-rule="evenodd" fill-rule="evenodd"><path d="m14 0h6v15h-6z" fill="#67bd38"/><path d="m6 0h8v15h-8z" fill="#d51700"/><path d="m0 0h6v15h-6z" fill="#272727"/><g fill="#f7fcff"><path d="m7.70481 4.98553.21625.13572c-.36038.60656-.60246 1.16237-.72764 1.6676.05297.04886.08616.09167.12007.15039.09777.16935.18001.33375.24665.49326l-.28741.12237c-.04511-.10799-.09827-.21903-.1595-.33308-.02928.24647-.02727.47936.00584.69869.05256.0054.0967.01645.14775.03503.18376.06688.35243.13996.50601.21931l-.14151.27848c-.13094-.06765-.27475-.13081-.43144-.1894l.0031.00945c.1336.40372.33803.77514.6139 1.11445.04311-.00928.08328-.0128.13022-.0128.19556 0 .37905.01098.55051.03302l-.03773.31009c-.11672-.01501-.24016-.02451-.37033-.02848.24791.24806.53892.47687.8733.68637l-.13191.2224c-.41467-.2599-.76758-.5497-1.0583-.86912-.03789.01482-.08403.03443-.14275.06009l-.02208.00957c.25377.26606.55378.51076.90033.73416l-.13465.2206c-.40047-.2582-.74328-.545-1.02805-.8602-.13593.0349-.25055.03415-.38465-.00519l.08346-.30049c.02017.00591.03989.01029.0597.0131-.26442-.35188-.46366-.7356-.59728-1.15098-.02359-.07336-.04381-.14805-.06064-.22407-.10357-.01975-.19093-.05862-.2816-.12535l.1812-.25383c.01565.01152.03139.02168.04763.03058-.03246-.38281.01228-.79604.13356-1.23965-.07595-.08743-.12241-.17804-.15103-.2959l.26547-.06854c.14308-.40521.34544-.83397.60665-1.28625l.21789.13293c-.28483.49318-.49587.95391-.63375 1.38225.03864.03507.08592.07264.14381.11558.13846-.5038.38181-1.04789.72895-1.63216zm-.80598 1.96352c-.02807-.02186-.0618-.04712-.10281-.07734-.01969-.01451-.03854-.02865-.05659-.0425-.09652.39742-.12497.76464-.08596 1.10172.04653.00037.09925-.00163.16009-.00547l.04955-.00301c-.04132-.30413-.02928-.62861.03572-.9734zm-.07182 1.28734c.0371-.00234.06953-.00421.09817-.00556.01148.04257.02412.08469.03792.12637.13406.40514.33405.77924.59949 1.12216l-.05169.02243c-.04434.01938-.08427.03593-.12078.04971-.29046-.35892-.50455-.75327-.64287-1.1833-.01338-.04157-.02554-.08369-.03649-.12634.03649-.001.07513-.00287.11625-.00547z"/><path d="m12.0869 4.98553-.2163.13572c.3604.60656.6025 1.16237.7277 1.6676-.053.04886-.0862.09167-.1201.15039-.0978.16935-.18.33375-.2467.49326l.2875.12237c.0451-.10799.0982-.21903.1595-.33308.0292.24647.0272.47936-.0059.69869-.0525.0054-.0967.01645-.1477.03503-.1838.06688-.3525.13996-.506.21931l.1415.27848c.1309-.06765.2747-.13081.4314-.1894l-.0031.00945c-.1336.40372-.338.77514-.6139 1.11445-.0431-.00928-.0833-.0128-.1302-.0128-.1956 0-.3791.01098-.5505.03302l.0377.31009c.1167-.01501.2402-.02451.3703-.02848-.2479.24806-.5389.47687-.8733.68637l.1319.2224c.4147-.2599.7676-.5497 1.0583-.86912.0379.01482.0841.03443.1428.06009l.0221.00957c-.2538.26606-.5538.51076-.9003.73416l.1346.2206c.4005-.2582.7433-.545 1.028-.8602.136.0349.2506.03415.3847-.00519l-.0835-.30049c-.0201.00591-.0399.01029-.0597.0131.2645-.35188.4637-.7356.5973-1.15098.0236-.07336.0438-.14805.0607-.22407.1035-.01975.1909-.05862.2816-.12535l-.1812-.25383c-.0157.01152-.0314.02168-.0477.03058.0325-.38281-.0122-.79604-.1335-1.23965.0759-.08743.1224-.17804.151-.2959l-.2655-.06854c-.1431-.40521-.3454-.83397-.6066-1.28625l-.2179.13293c.2848.49318.4959.95391.6337 1.38225-.0386.03507-.0859.07264-.1438.11558-.1384-.5038-.3818-1.04789-.7289-1.63216zm.806 1.96352c.028-.02186.0618-.04712.1028-.07734.0197-.01451.0385-.02865.0566-.0425.0965.39742.1249.76464.0859 1.10172-.0465.00037-.0992-.00163-.1601-.00547l-.0495-.00301c.0413-.30413.0293-.62861-.0357-.9734zm.0718 1.28734c-.0371-.00234-.0696-.00421-.0982-.00556-.0115.04257-.0241.08469-.0379.12637-.1341.40514-.3341.77924-.5995 1.12216l.0517.02243c.0443.01938.0843.03593.1208.04971.2904-.35892.5045-.75327.6428-1.1833.0134-.04157.0256-.08369.0365-.12634-.0365-.001-.0751-.00287-.1162-.00547z"/><path d="m8.80811 10.165-.6977.6904s.60166.3685 1.73559.3685c1.1339 0 1.7942-.3685 1.7942-.3685l-.5303-.6904s-.7227.2801-1.23458.2801c-.51185 0-1.06721-.2801-1.06721-.2801z"/></g></g><path d="m8.82269 10.6056s.5907.1394 1.04353.1394c.45278 0 1.04348-.1394 1.04348-.1394" stroke="#c00001" stroke-width=".5"/><g clip-rule="evenodd" fill="#f7fcff" fill-rule="evenodd"><path d="m10.4574 5.91142c0 .27326-.2495.49479-.55739.49479-.30786 0-.55743-.22153-.55743-.49479 0-.27327.24957-.49479.55743-.49479.30789 0 .55739.22152.55739.49479zm-.55739.49479h-.60012l-.16529.12669h-.03222v-.99044h-.30405v.99044h-.26656v.16892h.26656v1.78601c-.03606.28529-.11939.44661-.23619.50265l-.62073.29783h3.73589l-.2685-.26828c-.2358-.23562-.3485-.41682-.3485-.52229v-1.79592h.1066v-.16892h-.1066v-.99044h-.3041v.99044h-.0982l-.196-.12669zm-.79763.29561h1.65382v1.79592c0 .14484.0685.30201.2023.47807h-1.98153c.0612-.12319.10212-.27676.12541-.46835zm.84831.79814h-.65879v1.30208h1.3176z"/><path d="m10.631 3.8476.0012.00189-.0003-.00072zm.9633.33851.0005.0058-.0003-.00422zm.187.02306.001-.00286-.0005.00141zm-.7573.38354.0036-.00003-.0018.00022z"/><path d="m8.02053 6.66754-.12453.08962.12839.18847c-.11.03946-.28685.13944-.28685.37435 0 .34096-.11974.62028-.11974.62028l.35764.22968s.0373-.39765.13464-.6238c.04881-.11339.1248-.16993.18845-.19812l.55593.81603.12454-.08962z"/><path d="m11.8195 6.66754.1245.08962-.1284.18847c.11.03946.2869.13944.2869.37435 0 .34096.1197.62028.1197.62028l-.3576.22968s-.0373-.39765-.1347-.6238c-.0488-.11339-.1248-.16993-.1884-.19812l-.5559.81603-.1246-.08962z"/></g></g></svg>