<svg fill="none" height="15" viewBox="0 0 20 15" width="20" xmlns="http://www.w3.org/2000/svg" xmlns:xlink="http://www.w3.org/1999/xlink"><mask id="a" height="15" maskUnits="userSpaceOnUse" width="20" x="0" y="0"><path d="m0 0h20v15h-20z" fill="#fff"/></mask><g clip-rule="evenodd" fill-rule="evenodd" mask="url(#a)"><path d="m6 0h8v15h-8z" fill="#4c67e8"/><path d="m13 0h7v15h-7z" fill="#c51918"/><path d="m0 0h8v15h-8z" fill="#c51918"/><path d="m3.75867 4.3027c-.63334 0-.55021-.61709-.55021-.61709l.30029-.6485v.26123.38727c0 .08341.11381-.08341.11381-.28423s.13611-.50153.13611-.50153.00546-.10056.00923-.19984c.02178.05108.06545.09531.13175.16246.01156.01171.02381.02411.03675.03738.07824.08018.06769.29259.05856.47637-.00827.16643-.01538.30939.0457.30939.12852 0 .11897-.57423.11897-.57423l.21571.57423s.01667.61709-.61667.61709zm0-1.7623c.01612-.09423.01408.03164.00923.15961-.01819-.04266-.02112-.09008-.00923-.15961zm.95287 2.88703c0 .50168-.41973.90838-.9375.90838s-.9375-.4067-.9375-.90838.41973-.90838.9375-.90838.9375.4067.9375.90838zm-2.35577 1.7003h-1.10577v5.35707h1.10577zm3.89423 0h-1.10577v5.35707h1.10577zm-3.60577.04658 1.07795.6674 1.21493-.6674zm1.07795 5.32579-1.07795-.6674h2.29288zm-1.07795-4.4407h2.25962v.41925h-2.25962zm2.25962 3.1211h-2.25962v.4192h2.25962zm-1.10577-.2329c.63725 0 1.15384-.5006 1.15384-1.11803 0-.61746-.51659-1.11801-1.15384-1.11801s-1.15385.50055-1.15385 1.11801c0 .61743.5166 1.11803 1.15385 1.11803zm-1.29608-5.18742s.03885 1.16709 1.18917 1.16709 1.33598-1.16709 1.33598-1.16709-.44525.71492-1.26258.71492c-.81732 0-1.26257-.71492-1.26257-.71492z" fill="#f8d000"/></g></svg>