<svg fill="none" height="24" viewBox="0 0 32 24" width="32" xmlns="http://www.w3.org/2000/svg" xmlns:xlink="http://www.w3.org/1999/xlink"><mask id="a" height="24" maskUnits="userSpaceOnUse" width="32" x="0" y="0"><path d="m0 0h32v24h-32z" fill="#fff"/></mask><mask id="b" height="24" maskUnits="userSpaceOnUse" width="32" x="0" y="0"><path clip-rule="evenodd" d="m0 0v24h32v-24z" fill="#fff" fill-rule="evenodd"/></mask><mask id="c" height="14" maskUnits="userSpaceOnUse" width="18" x="0" y="0"><path d="m0 0h18v14h-18z" fill="#fff"/></mask><mask id="d" fill="#000" height="18" maskUnits="userSpaceOnUse" width="22" x="-2" y="-2"><path d="m-2-2h22v18h-22z" fill="#fff"/><path clip-rule="evenodd" d="m9.98451 0h-2v6h-7.98451v2h7.98451v6h2v-6h8.01549v-2h-8.01549z" fill="#000" fill-rule="evenodd"/></mask><g mask="url(#a)"><path clip-rule="evenodd" d="m0 0v24h32v-24z" fill="#2e42a5" fill-rule="evenodd"/><g mask="url(#b)"><path d="m0 0h18v14h-18z" fill="#2b409a"/><g mask="url(#c)"><path d="m-2.00427 12.9997 3.96095 1.7372 16.13322-12.84824 2.0893-2.581531-4.2357-.580619-6.58033 5.53669-5.2965 3.73043z" fill="#f7fcff"/><path d="m-1.46204 14.217 2.017925 1.0081 18.873015-16.157717h-2.8334z" fill="#f50100"/><path d="m20.0043 12.9997-3.961 1.7372-16.1331743-12.84824-2.0893157-2.581531 4.23567-.580619 6.58035 5.53669 5.29647 3.73043z" fill="#f7fcff"/><path d="m19.8691 13.8733-2.0179 1.0082-8.03631-6.91799-2.3826-.77292-9.81249-7.874537h2.833394l9.807006 7.687627 2.6049.92682z" fill="#f50100"/><path clip-rule="evenodd" d="m9.98451 0h-2v6h-7.98451v2h7.98451v6h2v-6h8.01549v-2h-8.01549z" fill="#f50100" fill-rule="evenodd"/><path d="m7.98451 0v-1.5h-1.5v1.5zm2 0h1.49999v-1.5h-1.49999zm-2 6v1.5h1.5v-1.5zm-7.98451 0v-1.5h-1.5v1.5zm0 2h-1.5v1.5h1.5zm7.98451 0h1.5v-1.5h-1.5zm0 6h-1.5v1.5h1.5zm2 0v1.5h1.49999v-1.5zm0-6v-1.5h-1.5v1.5zm8.01549 0v1.5h1.5v-1.5zm0-2h1.5v-1.5h-1.5zm-8.01549 0h-1.5v1.5h1.5zm-2-4.5h2v-3h-2zm1.5 4.5v-6h-3v6zm-9.48451 1.5h7.98451v-3h-7.98451zm1.5.5v-2h-3v2zm6.48451-1.5h-7.98451v3h7.98451zm1.5 7.5v-6h-3v6zm.5-1.5h-2v3h2zm-1.5-4.5v6h2.99999v-6zm9.51549-1.5h-8.01549v3h8.01549zm-1.5-.5v2h3v-2zm-6.51549 1.5h8.01549v-3h-8.01549zm-1.5-7.5v6h2.99999v-6z" fill="#f7fcff" mask="url(#d)"/></g><path clip-rule="evenodd" d="m23.667 13.8551.7259-.5089.7024.5089-.2184-.9056.564-.574h-.7178l-.3312-.739-.2824.739h-.8421l.6447.574zm2.8128 1.2583.7259-.5089.7023.5089-.2183-.9056.564-.5739h-.7179l-.3311-.7391-.2825.7391h-.8421l.6448.5739zm1.5649 1.872-.7258.5089.245-.9056-.6447-.5739h.8421l.2824-.7391.3312.7391h.7179l-.5641.5739.2184.9056zm-1.7226 2.7838.7259-.5089.7023.5089-.2183-.9056.564-.5739h-.7179l-.3311-.7391-.2825.7391h-.842l.6447.5739zm-1.8224.7372-.7258.5089.245-.9056-.6447-.5739h.8421l.2824-.7391.3312.7391h.7179l-.5641.5739.2184.9056zm-3.0996-.6977.7259-.5089.7024.5089-.2184-.9056.564-.5739h-.7178l-.3312-.7391-.2824.7391h-.8421l.6447.5739zm-.5404-2.8068-.7259.5089.245-.9056-.6447-.574h.8421l.2824-.739.3312.739h.7179l-.5641.574.2184.9056zm.1873-1.8421.7258-.5089.7024.5089-.2184-.9056.5641-.5739h-.7179l-.3312-.7391-.2824.7391h-.8421l.6447.5739z" fill="#fff" fill-rule="evenodd"/></g></g></svg>