<svg fill="none" height="12" viewBox="0 0 16 12" width="16" xmlns="http://www.w3.org/2000/svg" xmlns:xlink="http://www.w3.org/1999/xlink"><mask id="a" height="12" maskUnits="userSpaceOnUse" width="16" x="0" y="0"><path d="m0 0h16v12h-16z" fill="#fff"/></mask><mask id="b" height="12" maskUnits="userSpaceOnUse" width="16" x="0" y="0"><path clip-rule="evenodd" d="m0 0v12h16v-12z" fill="#fff" fill-rule="evenodd"/></mask><g mask="url(#a)"><path clip-rule="evenodd" d="m0 0v12h16v-12z" fill="#0168b4" fill-rule="evenodd"/><g mask="url(#b)"><path clip-rule="evenodd" d="m0 0v2h16v-2z" fill="#e93c43" fill-rule="evenodd"/><path clip-rule="evenodd" d="m0 10v2h16v-2z" fill="#e93c43" fill-rule="evenodd"/><path d="m8 9c-1.65685 0-3-1.34315-3-3s1.34315-3 3-3 3 1.34315 3 3-1.34315 3-3 3z" fill="#f7fcff"/><g clip-rule="evenodd" fill-rule="evenodd"><path d="m4.5 6c0 1.933 1.567 3.5 3.5 3.5s3.5-1.567 3.5-3.5-1.567-3.5-3.5-3.5-3.5 1.567-3.5 3.5zm6.5 0c0 1.65685-1.34315 3-3 3s-3-1.34315-3-3 1.34315-3 3-3 3 1.34315 3 3z" fill="#fff"/><path d="m5 6c0 1.65685 1.34315 3 3 3s3-1.34315 3-3-1.34315-3-3-3-3 1.34315-3 3zm5.3 0c0 1.27026-1.02974 2.3-2.3 2.3s-2.3-1.02974-2.3-2.3 1.02974-2.3 2.3-2.3 2.3 1.02974 2.3 2.3z" fill="#5b8c39"/><path d="m6.5 7.00001 1.46954-.18763 1.53046.18763v.5l-1.53046-.18763-1.46954.18763z" fill="#5b8c39"/><path d="m7.00002 5h2s.14142 3-1 3c-1.14141 0-1-3-1-3z" fill="#769df1"/></g><path d="m8 5h1v1h-1z" fill="#feca00"/><path d="m7 5h1v1h-1z" fill="#f6f7f8" opacity=".6"/><rect fill="#5b8c39" height="1" opacity=".66" rx=".5" width="2" x="7" y="4"/><g clip-rule="evenodd" fill-rule="evenodd"><path d="m6.90002 6.40002c.27615 0 .5-.44771.5-1 0-.55228-.22385-1-.5-1-.27614 0-.5.44772-.5 1 0 .55229.22386 1 .5 1z" fill="#e9ad35"/><path d="m9.09998 6.40002c.27614 0 .5-.44771.5-1 0-.55228-.22386-1-.5-1-.27615 0-.5.44772-.5 1 0 .55229.22385 1 .5 1z" fill="#5c2216"/></g></g></g></svg>