<svg fill="none" height="15" viewBox="0 0 20 15" width="20" xmlns="http://www.w3.org/2000/svg" xmlns:xlink="http://www.w3.org/1999/xlink"><mask id="a" height="15" maskUnits="userSpaceOnUse" width="20" x="0" y="0"><path d="m0 0h20v15h-20z" fill="#fff"/></mask><mask id="b" height="15" maskUnits="userSpaceOnUse" width="20" x="0" y="0"><path clip-rule="evenodd" d="m0 0v15h20v-15z" fill="#fff" fill-rule="evenodd"/></mask><mask id="c" height="9" maskUnits="userSpaceOnUse" width="11" x="0" y="0"><path d="m0 0h11v9h-11z" fill="#fff"/></mask><mask id="d" fill="#000" height="11" maskUnits="userSpaceOnUse" width="13" x="-1" y="-1"><path d="m-1-1h13v11h-13z" fill="#fff"/><path clip-rule="evenodd" d="m6 0h-1v4h-5v1h5v4h1v-4h5v-1h-5z" fill="#000" fill-rule="evenodd"/></mask><g mask="url(#a)"><path clip-rule="evenodd" d="m0 0v15h20v-15z" fill="#2e42a5" fill-rule="evenodd"/><g mask="url(#b)"><path d="m0 0h11v9h-11z" fill="#2e42a5"/><g mask="url(#c)"><path d="m-1.25269 8.12482 2.4756 1.08575 10.08329-8.03017 1.3058-1.61346-2.64732-.362889-4.11271 3.460429-3.31032 2.33152z" fill="#f7fcff"/><path d="m-.913757 8.88555 1.261201.63007 11.795656-10.098567h-1.7709z" fill="#f50100"/><path d="m12.5026 8.12493-2.1971 1.3957-10.3617172-8.34013-1.3058228-1.613454 2.6473-.36289 4.11271 3.460434 3.31031 2.33152z" fill="#f7fcff"/><path d="m12.4182 8.67082-1.2612.63008-5.02275-4.32372-1.48913-.48308-6.13281-4.921582h1.770875l6.129365 4.804762 1.62809.57927z" fill="#f50100"/><path clip-rule="evenodd" d="m6 0h-1v4h-5v1h5v4h1v-4h5v-1h-5z" fill="#f50100" fill-rule="evenodd"/><path d="m5 0v-.9375h-.9375v.9375zm1 0h.9375v-.9375h-.9375zm-1 4v.9375h.9375v-.9375zm-5 0v-.9375h-.9375v.9375zm0 1h-.9375v.9375h.9375zm5 0h.9375v-.9375h-.9375zm0 4h-.9375v.9375h.9375zm1 0v.9375h.9375v-.9375zm0-4v-.9375h-.9375v.9375zm5 0v.9375h.9375v-.9375zm0-1h.9375v-.9375h-.9375zm-5 0h-.9375v.9375h.9375zm-1-3.0625h1v-1.875h-1zm.9375 3.0625v-4h-1.875v4zm-5.9375.9375h5v-1.875h-5zm.9375.0625v-1h-1.875v1zm4.0625-.9375h-5v1.875h5zm.9375 4.9375v-4h-1.875v4zm.0625-.9375h-1v1.875h1zm-.9375-3.0625v4h1.875v-4zm5.9375-.9375h-5v1.875h5zm-.9375-.0625v1h1.875v-1zm-4.0625.9375h5v-1.875h-5zm-.9375-4.9375v4h1.875v-4z" fill="#f7fcff" mask="url(#d)"/></g><path clip-rule="evenodd" d="m14.9068 9.28445.6624-.46142.6409.46142-.1993-.82113.5148-.52037h-.6551l-.3022-.67012-.2578.67012h-.7684l.5883.52037zm1.758.78645.6624-.46142.3912.28168-.1255.32634h-.7684l.5883.5203-.109.4002-.0761-.1688-.2577.6701h-.7685l.5883.5204-.2236.8211.6624-.4614.6409.4614-.1992-.8211.5147-.5204h-.6551l-.109-.2417.4307-.3001.6409.4615-.1993-.8212.5147-.5203h-.655l-.3022-.67016-.0059.01534-.076-.31291.5147-.52037h-.6551l-.3022-.67012-.2577.67012h-.7684l.5883.52037zm-1.0288 3.2273-.6624.4614.2236-.8211-.535-.4732.1311.5402-.6409-.4615-.6624.4615.2236-.8212-.5883-.5203h.7684l.052-.1352-.5848-.421-.6624.4615.2236-.8212-.5883-.5203h.7684l.2578-.67016.0355.07874.0974-.35758-.5884-.52037h.7685l.2577-.67012.3022.67012h.6551l-.5147.52037.1993.8211-.641-.46139-.4072.28369.1378.3056h.6551l-.5147.5203.1715.7069.1774-.4612.3022.6702h.655l-.5147.5203.0568.2338h.7265l.2577-.6701.3022.6701h.6551l-.5147.5204.1993.8211z" fill="#fff" fill-rule="evenodd"/></g></g></svg>