<svg fill="none" height="12" viewBox="0 0 16 12" width="16" xmlns="http://www.w3.org/2000/svg" xmlns:xlink="http://www.w3.org/1999/xlink"><mask id="a" height="12" maskUnits="userSpaceOnUse" width="16" x="0" y="0"><path d="m0 0h16v12h-16z" fill="#fff"/></mask><g mask="url(#a)"><path clip-rule="evenodd" d="m0 0h16v12h-16z" fill="#f7fcff" fill-rule="evenodd"/><g fill="#e31d1c"><path d="m.01358 2.5h16v1.45h-16z"/><path d="m.01358 5.09998h16v1.45h-16z"/><path d="m.055832 7.59998h16v1.25h-16z"/><path d="m.055832 10.1h16v1.35h-16z"/><path clip-rule="evenodd" d="m0 0h16v1.25h-16z" fill-rule="evenodd"/></g><g clip-rule="evenodd" fill-rule="evenodd"><path d="m0 0h8v6h-8z" fill="#3d58db"/><path d="m1.79677 3.10108c0 .68811.32411 1.33882.98348 1.33882.98929 0 1.18176-.21091 1.64338-.5019.10914.24514-.25898 1.29419-1.65688 1.29419-1.11813-.02251-2.02174-.92078-2.02174-2.13111 0-1.38926 1.02179-2.139532 1.99368-2.131038.85802 0 1.76803.486878 1.74015 1.107988-.40428-.39492-.84325-.39492-1.57399-.39492-.73075 0-1.10808.72977-1.10808 1.41797z" fill="#feca00"/><path d="m5.5 3.65002-.46353.67659.02269-.81982-.77269.27491.50024-.64991-.78671-.23177.78671-.23176-.50024-.64991.77269.27491-.02269-.81982.46353.67658.46353-.67658-.02269.81982.77269-.27491-.50024.64991.78671.23176-.78671.23177.50024.64991-.77269-.27491.02269.81982z" fill="#feca00"/></g></g></svg>