<svg fill="none" height="15" viewBox="0 0 20 15" width="20" xmlns="http://www.w3.org/2000/svg" xmlns:xlink="http://www.w3.org/1999/xlink"><mask id="a" height="15" maskUnits="userSpaceOnUse" width="20" x="0" y="0"><path d="m0 0h20v15h-20z" fill="#fff"/></mask><mask id="b" height="15" maskUnits="userSpaceOnUse" width="20" x="0" y="0"><path clip-rule="evenodd" d="m0 0v15h20v-15z" fill="#fff" fill-rule="evenodd"/></mask><g mask="url(#a)"><path clip-rule="evenodd" d="m0 0v15h20v-15z" fill="#f7fcff" fill-rule="evenodd"/><g mask="url(#b)"><g clip-rule="evenodd" fill-rule="evenodd"><path d="m0 7.5v7.5h20v-7.5z" fill="#56c6f5"/><path d="m6.40886 5.6427c-.00464-.05281-.01569-.09847-.03479-.13406-.16054-.29923-.10868-.67364-.10868-.67364s-.1917.43847-.30419.85129c-.11824-.19225-.15957-.38484-.15957-.38484s-.07653 1.21099.15743 1.49791c.23397.28693.38995.41301.38995.41301s.01771-.50285-.05041-.89611c.048-.16406.0913-.34378.10681-.49851.03071-.02275.11163-.0835.21291-.16613-.04268.23548-.04479.36343-.04479.36343s.8816-.64012.90401-.97896c.02241-.33883.26481-.62886.26481-.62886s-.20043.13716-.42931.32108c.06051-.28442.24786-.50858.24786-.50858s-1.00138.68525-1.08344 1.04627c-.0357.15703-.05649.28369-.0686.3767zm.04288 2.08151c-.09601-.18129-.51385-.94124-.80529-1.00737-.33116-.07514-.57971-.35993-.57971-.35993s.52017 1.09625.86391 1.23378c.27603.11044.4578.15454.51869.16762-.01003.14778-.01178.24988-.01178.24988s.16237-.11775.41103-.39204c.24865-.27429.23561-1.48762.23561-1.48762s-.09855.36492-.36325.57762c-.17757.14269-.24443.67987-.26921 1.01806zm-.78213-.11469c.37832-.00223.96033.92545.96033.92545s-.22548.01236-.61937-.04987c-.39389-.06224-1.00782-1.1193-1.00782-1.1193s.28854.24594.66686.24372zm1.84416 2.16055s.22449-1.18217-.11261-1.45775c-.33711-.27558-.39658-.68742-.39658-.68742s-.29946 1.31094 0 1.65042c.29946.33949.50919.49475.50919.49475zm-1.3602-.31916c.22014.26101.92152 0 .92152 0s.15454.14035-.40169-.36803c-.55624-.50838-1.68806-.18728-1.38346-.18728s.64349.29431.86363.55531zm.51983 1.38769c.40807.3456 1.28985-.4761 1.28985-.4761s-.227-.2749-.64771-.47754c-.42071-.20261-1.97259 0-1.97259 0l.69063.30744s-.76876.3006-.5647.2839c.20405-.0168.79644.0167 1.20452.3623z" fill="#006923"/><path d="m12.0084 10.1227s-.3508-.58963 0-.87447c.3509-.28485.4897-.09539.4897-.42288s.0355-.22998.2079-.39256.0503-.55746.2812-.36002c.2308.19744.274-.18118.274.60536 0 .78653 0-.71338 0-1.15515s-.274-.33719-.274-.63345c0-.29627-.274-.73874 0-.73874s.435.3292.435.3292.2692.45885.2692 0c0-.45884-.4793-.32243-.7042-.82877-.225-.50634-.1894.05679-.4891-.59566-.2996-.65245-.6563-.85949-.3281-.85949h.536c.2812 0 .7162-.23352.7162 0v.493c0 .36649.2692.36649.2692.36649s.1464-.73298.3302-.36649c.1839.36649.0587.96215.1933.96215.1345 0 .0231-.61557.317-.14409.2938.47148 0 .79098 0 .97286s-.317.62749-.317.62749.0619.21795.317 0 .4971-.4359.4971-.21795.4972.28565 0 .63345c-.4971.3478-.1801.696-.4971.696s-.6905.45915-.8405.45915c-.1499 0-.7106.35153-.4302.35153.2803 0 .5672-.70307.7604-.35153.1933.35154.1907-.05709.3505.14722s.3196 1.31285.1598.86788c-.1598-.445-.4102-.445-.8405-.445-.4302 0-1.2665.03213-.9854.23856.2812.20644.5969-.20643.7162 0 .1193.20644.0846.41287.2692.20644.1846-.20644.3662 0 .5235 0 .1572 0-.1573.23109 0 .42947.1572.1983.5077.4626.1572.4626s-.5307-.2802-.6807 0c-.1499.2802-.1562.7668-.4302.3834s-.7631-.1888-.7631-.3834c0-.1947.107-.2261-.1913-.2261-.2984 0-.2984-.2365-.2984-.2365z" fill="#093"/><path d="m13.4476 5.90625c0 .08629-.0677.15625-.1512.15625s-.1512-.06996-.1512-.15625.0677-.15625.1512-.15625.1512.06996.1512.15625zm-6.9859.34375c.08351 0 .15121-.06996.15121-.15625s-.0677-.15625-.15121-.15625c-.08352 0-.15121.06996-.15121.15625s.06769.15625.15121.15625zm.15121.65625c0 .08629-.0677.15625-.15121.15625-.08352 0-.15121-.06996-.15121-.15625s.06769-.15625.15121-.15625c.08351 0 .15121.06996.15121.15625zm.09072 1.59375c.08351 0 .15121-.06996.15121-.15625s-.0677-.15625-.15121-.15625-.15121.06996-.15121.15625.0677.15625.15121.15625zm1.20968 1.5625c.08351 0 .15121-.06996.15121-.15625s-.0677-.15625-.15121-.15625-.15121.06996-.15121.15625.0677.15625.15121.15625zm5.80649-2.375c.0835 0 .1512-.06996.1512-.15625s-.0677-.15625-.1512-.15625c-.0836 0-.1512.06996-.1512.15625s.0676.15625.1512.15625zm-.3327 1.09375c0 .08629-.0677.15625-.1512.15625s-.1512-.06996-.1512-.15625.0677-.15625.1512-.15625.1512.06996.1512.15625zm-1.4214 1.53125c.0835 0 .1512-.07.1512-.1563 0-.0862-.0677-.1562-.1512-.1562s-.1512.07-.1512.1562c0 .0863.0677.1563.1512.1563zm-3.8407.0313c0 .0862-.0677.1562-.15121.1562s-.15121-.07-.15121-.1562c0-.0863.0677-.1563.15121-.1563s.15121.07.15121.1563z" fill="#c51918"/><path d="m11.2736 12.3873c0-.1281-1.93783-1.4636-2.45795-1.7581-.52012-.2946-3.06-1.91586-2.36832-4.3792h-.10468s-.46809 3.03528 2.75694 4.922c1.46841.9851 1.54151 1.2153 1.54151 1.2153s.6325.128.6325 0z" fill="#feca00"/><path d="m8.70271 12.3873c0-.1281 1.93779-1.4636 2.45799-1.7581.5201-.2946 3.06-1.91586 2.3683-4.3792h.1047s.4681 3.03528-2.757 4.922c-1.4684.9851-1.54148 1.2153-1.54148 1.2153s-.63251.128-.63251 0z" fill="#feca00"/><path d="m10.0302 10.5535c1.3529 0 2.4496-1.75112 2.4496-3.45975s-1.0967-2.59375-2.4496-2.59375c-1.35285 0-2.44957.88512-2.44957 2.59375s1.09672 3.45975 2.44957 3.45975z" fill="#56c6f5"/><path d="m8.94577 5.9616s.37725-.33274.18862-.33274c-.03658 0-.08112-.00714-.12915-.01485-.19961-.03202-.45954-.07372-.45954.34759v.72401l-.0001.0017h-.05566c-.03452 0-.0625.02798-.0625.0625s.02798.0625.0625.0625h.0489c-.00836.15464-.02316.42966-.03768.70453l-.07152.00626c-.03698.00323-.06433.03583-.06109.0728l.00462.05289c.00324.03697.03583.06433.07281.06109l.04523-.00396c-.01679.32116-.03095.60221-.03095.63661 0 .08447.57393.05177.57393.05177s-.01786-.33881-.03752-.7326l.03846-.00336c.03697-.00324.06432-.03583.06109-.07281l-.00463-.05289c-.00323-.03697-.03583-.06432-.07281-.06109l-.03139.00275c-.01158-.23584-.02292-.47532-.03084-.66199h.07371c.03452 0 .0625-.02798.0625-.0625s-.02798-.0625-.0625-.0625h-.07879c-.00358-.09328-.0057-.1634-.0057-.19871z" fill="#fff"/><path d="m8.66937 6.87476h.20162v.26881h-.20162z" fill="#000"/><path d="m8.60889 7.81226h.33602v.625h-.33602z" fill="#000"/><path d="m10.2159 5.9616s.3773-.33274.1886-.33274c-.0365 0-.0811-.00714-.1291-.01485-.1996-.03202-.45956-.07372-.45956.34759v.72401l-.0001.0017h-.05566c-.03451 0-.0625.02798-.0625.0625s.02799.0625.0625.0625h.0489c-.00836.15464-.02316.42966-.03768.70453l-.07152.00626c-.03698.00323-.06433.03583-.06109.0728l.00462.05289c.00324.03697.03584.06433.07281.06109l.04524-.00396c-.0168.32116-.03096.60221-.03096.63661 0 .08447.5739.05177.5739.05177s-.0178-.33881-.0375-.7326l.0385-.00336c.0369-.00324.0643-.03583.0611-.07281l-.0047-.05289c-.0032-.03697-.0358-.06432-.0728-.06109l-.0314.00275c-.0116-.23584-.0229-.47532-.0308-.66199h.0737c.0345 0 .0625-.02798.0625-.0625s-.028-.0625-.0625-.0625h-.0788c-.0036-.09328-.0057-.1634-.0057-.19871z" fill="#fff"/><path d="m9.93951 6.87476h.20159v.26881h-.20159z" fill="#000"/><path d="m9.87903 7.81226h.33597v.625h-.33597z" fill="#000"/><path d="m11.4256 5.9616s.3772-.33274.1886-.33274c-.0366 0-.0811-.00714-.1292-.01485-.1996-.03202-.4595-.07372-.4595.34759v.72401l-.0001.0017h-.0557c-.0345 0-.0625.02798-.0625.0625s.028.0625.0625.0625h.0489c-.0083.15464-.0231.42966-.0376.70453l-.0716.00626c-.0369.00323-.0643.03583-.0611.0728l.0047.05289c.0032.03697.0358.06433.0728.06109l.0452-.00396c-.0168.32116-.0309.60221-.0309.63661 0 .08447.5739.05177.5739.05177s-.0179-.33881-.0375-.7326l.0384-.00336c.037-.00324.0643-.03583.0611-.07281l-.0046-.05289c-.0032-.03697-.0358-.06432-.0728-.06109l-.0314.00275c-.0116-.23584-.0229-.47532-.0308-.66199h.0737c.0345 0 .0625-.02798.0625-.0625s-.028-.0625-.0625-.0625h-.0788c-.0036-.09328-.0057-.1634-.0057-.19871z" fill="#fff"/><path d="m11.1492 6.87476h.2016v.26881h-.2016z" fill="#000"/><path d="m11.0887 7.81226h.336v.625h-.336z" fill="#000"/><path d="m11.5726 4h-3.20564v.47852l-.0215.00193s-1.57056 1.22045-1.13469 3.0487c.43588 1.82824 2.16723 3.18405 2.16723 3.18405l.08729-.3155s-1.64977-2.24323-1.64977-3.1396c0-.89636.31126-1.73768.64082-1.86849.19823-.07868.23242-.06272.28643-.03749.03579.01671.08029.03749.18697.03749.26768 0 .53555-.19161.53555-.19161s.18623.19161.35923.19161c.17299 0 .17542-.19161.17542-.19161v-.6355h.01936v.6355s.0024.19161.1754.19161.3593-.19161.3593-.19161.2678.19161.5355.19161c.1067 0 .1512-.02078.187-.03749.054-.02523.0882-.04119.2864.03749.3296.13081.6408.97213.6408 1.86849 0 .89637-1.6497 3.1396-1.6497 3.1396l.0872.3155s1.7314-1.35581 2.1673-3.18405c.4358-1.82825-1.1347-3.0487-1.1347-3.0487l-.1012-.00905z" fill="#e8aa00"/></g><path d="m8.36696 4v-.3125h-.3125v.3125zm3.20564 0h.3125v-.3125h-.3125zm-3.20564.47852.02783.31126.28467-.02545v-.28581zm-.0215.00193-.02783-.31126-.09144.00817-.07248.05633zm-1.13469 3.0487.30398-.07248zm2.16723 3.18405-.19267.246.36892.2889.12494-.4516zm.08729-.3155.30118.0833.04046-.1462-.0899-.1223zm-1.00895-5.00809.11529.29045zm.28643-.03749.13223-.28315zm.72252-.15412.22409-.21781-.18732-.19272-.21858.15636zm.53465 0 .31246.00395v-.00395zm0-.6355v-.3125h-.3125v.3125zm.01936 0h.3125v-.3125h-.3125zm0 .6355h-.31252l.00005.00395zm.5347 0 .1818-.25417-.2186-.15636-.1873.19272zm.7225.15412-.1323-.28315zm.2864.03749-.1153.29045zm-1.0089 5.00809-.2518-.1852-.0899.1223.0405.1462zm.0872.3155-.3011.0833.1249.4516.3689-.2889zm2.1673-3.18405.304.07247zm-1.1347-3.0487.1917-.24676-.0724-.05633-.0915-.00817zm-.1012-.00905h-.3125v.28581l.2847.02545zm-3.20564-.1589h3.20564v-.625h-3.20564zm.3125.16602v-.47852h-.625v.47852zm-.30617.31318.0215-.00192-.05566-.62251-.0215.00192zm-.85854 2.66497c-.19236-.80684.05478-1.48241.36388-1.9702.15461-.244.3223-.43656.45119-.56779.06422-.06539.11818-.11491.15513-.14735.01846-.0162.03262-.02808.04163-.0355.0045-.00371.00771-.00629.00952-.00774.0009-.00072.00145-.00116.00164-.00131.0001-.00007.0001-.00007.00001 0-.00004.00003-.00011.00008-.0002.00015-.00005.00004-.00013.00011-.00015.00012-.0001.00008-.00019.00015-.19194-.2466-.19175-.24676-.19186-.24667-.19198-.24658-.00004.00003-.00017.00013-.00026.0002-.00019.00015-.0004.00031-.00063.00049-.00047.00037-.00104.00081-.00169.00133-.00132.00104-.00301.00238-.00507.00402-.00411.00329-.00966.00778-.01656.01346-.01379.01135-.03294.02747-.05658.04821-.04723.04146-.11257.10156-.18878.17916-.15197.15474-.34967.38155-.53321.6712-.36721.57949-.68742 1.42828-.44391 2.44968zm1.86325 3.25653c.19267-.246.19273-.246.19278-.2459h.00007c.00003 0 .00004 0 .00002 0-.00004 0-.00018-.0001-.00042-.0003-.00049-.0004-.00138-.0011-.00267-.0021-.00259-.0021-.00675-.0054-.01242-.01-.01132-.0092-.02861-.0234-.05114-.0424-.04506-.038-.11098-.0951-.19191-.1696-.16209-.1492-.38324-.36706-.61739-.63972-.47209-.54976-.97864-1.30121-1.18017-2.14651l-.60796.14495c.23435.98295.81142 1.82352 1.31397 2.40878.25318.2948.49211.5302.66827.6923.08819.0812.16094.1443.21226.1876.02567.0216.046.0383.06025.0499.00713.0058.01273.0103.01673.0135.002.0015.00359.0028.00477.0037.00059.0005.00108.0009.00146.0012.00019.0001.00036.0003.0005.0004.00007 0 .00015.0001.00018.0001.00008.0001.00015.0001.19282-.2459zm-.2139-.3988-.08729.3155.60238.1666.08728-.3155zm-1.66108-3.0563c0 .29756.13019.65967.28635.99927.16196.35222.37524.72843.5846 1.06998.21001.34261.41952.6559.57627.88325.07847.1138.14395.2064.18996.2707.023.0322.04116.0573.05365.0745.00624.0086.01107.0153.01439.0198.00166.0023.00294.004.00382.0052.00045.0006.00079.0011.00104.0014.00012.0002.00022.0003.00029.0004.00004.0001.00008.0001.00009.0002.00003 0 .00006 0 .25181-.1851.25174-.1852.25175-.1851.25176-.1851-.00001 0-.00001 0-.00002-.0001-.00003 0-.00008-.0001-.00016-.0002-.00015-.0002-.0004-.0005-.00075-.001-.0007-.001-.00179-.0024-.00325-.0044-.00293-.0041-.00736-.0101-.0132-.0182-.01168-.0161-.02897-.04-.05107-.0709-.04422-.0618-.10762-.1515-.18382-.26201-.15259-.22129-.35552-.52482-.55795-.85507-.20308-.33131-.40224-.68396-.54961-1.00446-.15318-.3331-.2292-.58753-.2292-.73816zm.83803-2.15895c-.16673.06618-.29182.20255-.38244.33605-.09484.13974-.17552.31133-.2411.49799-.13133.3738-.21449.84341-.21449 1.32491h.625c0-.41485.07247-.81409.17916-1.11774.05343-.15207.11236-.27136.16857-.35417.06043-.08904.09783-.1069.09588-.10613zm.53395-.03018c-.03732-.01743-.11973-.0571-.24229-.04887-.09216.00619-.18898.0383-.29166.07905l.23058.58091c.04417-.01753.07318-.02735.0918-.0327.019-.00546.02052-.00429.01114-.00366-.00536.00036-.01358.0005-.02391-.0005-.01057-.00102-.02083-.00299-.03026-.00557-.00905-.00249-.01528-.00499-.0172-.00578-.00082-.00034-.00054-.00027.00735.00342zm.05474.00814c-.01658 0-.02765-.00081-.03442-.00157-.00657-.00074-.00934-.00145-.00936-.00146-.00008-.00002.00014.00004.00054.00017s.00062.00022.00048.00017c-.00094-.00038-.00244-.001-.01198-.00545l-.26445.5663c.02029.00947.06313.02988.12283.0449.05846.01472.1225.02194.19636.02194zm.53555.12089c-.18181-.25417-.18176-.25421-.1817-.25425.00002-.00001.00007-.00005.00011-.00008.00007-.00005.00014-.00009.0002-.00014.00012-.00009.00023-.00017.00033-.00024.00019-.00013.00032-.00022.00039-.00027.00014-.0001.00005-.00003-.00028.00019-.00065.00045-.00221.00152-.00461.00313-.00482.00322-.01293.00851-.02384.01519-.02204.01352-.05417.03192-.09253.05022-.08279.03948-.16737.06536-.23362.06536v.625c.20143 0 .38462-.06993.50269-.12625.06206-.0296.11363-.05911.15018-.08152.01839-.01127.03329-.02095.04417-.02821.00544-.00364.0099-.00668.0133-.00904.0017-.00118.00315-.00218.00432-.00301.00058-.00041.0011-.00078.00155-.0011.00023-.00016.00043-.0003.00063-.00044.00009-.00007.00018-.00013.00027-.0002.00004-.00003.0001-.00007.00013-.00009.00006-.00004.00012-.00008-.18169-.25425zm.35923-.12089c.01261 0 .01169.00294-.0057-.00454-.01623-.00697-.03664-.01865-.05915-.03447-.02188-.01537-.04104-.03132-.0547-.04349-.00666-.00593-.01157-.01057-.01436-.01327-.00139-.00133-.00222-.00216-.00245-.00239-.00011-.00011-.00007-.00007.00013.00013.0001.0001.00024.00025.00042.00043.00009.00009.00019.0002.0003.00031.00006.00006.00012.00012.00018.00018.00003.00003.00007.00008.00009.00009.00005.00005.0001.0001-.22399.21791s-.22404.21786-.22399.21791c.00001.00002.00007.00007.0001.00011.00007.00007.00015.00015.00023.00023.00015.00016.00032.00033.0005.00052.00036.00037.00077.00078.00123.00125.00091.00092.00202.00204.00332.00333.00258.00258.00592.00587.00996.00977.00807.00779.01906.01812.03257.03015.02666.02376.06487.05571.11117.08824.07956.05589.23668.1526.42414.1526zm.17542.12089c-.31248-.00395-.31248-.00409-.31248-.00423 0-.00004.00001-.00018.00001-.00027 0-.00018 0-.00035.00001-.00053 0-.00035.00001-.00069.00001-.00102.00002-.00067.00003-.0013.00005-.0019.00003-.0012.00007-.00228.00011-.00324.00008-.00192.00018-.00344.00027-.00461.00017-.00225.00036-.00363.00051-.00457.00006-.00034.00078-.00584.00521-.01538.00461-.00993.01769-.03353.04676-.0548.03263-.02387.06568-.03034.08412-.03034v.625c.10493 0 .20318-.03043.28488-.09023.0782-.05719.1243-.12869.1512-.18653.0266-.05743.0388-.11083.0447-.1471.0031-.0189.0048-.03526.0058-.04798.0005-.00642.0008-.01205.001-.01677.0001-.00237.0002-.00452.0002-.00645 0-.00096.0001-.00187.0001-.00272 0-.00043 0-.00084 0-.00123 0-.0002 0-.0004 0-.00059 0-.00009 0-.00023 0-.00028 0-.00014 0-.00028-.31246-.00423zm-.3125-.6355v.6355h.62496v-.6355zm.33186-.3125h-.01936v.625h.01936zm-.31249.3125v.6355h.62499v-.6355zm.31249.6355c-.31247.00395-.31246.00409-.31246.00423v.00028c0 .00019.00001.00039.00001.00059.00001.00039.00001.0008.00002.00123.00002.00085.00004.00176.00007.00272.00005.00193.00012.00408.00022.00645.00021.00472.00052.01035.00102.01677.00098.01272.0027.02908.00579.04798.00591.03627.01806.08967.04471.1471.02685.05784.07297.12934.15115.18653.08174.0598.17997.09023.28487.09023v-.625c.0185 0 .0515.00647.0841.03034.0291.02127.0422.04487.0468.0548.0044.00954.0052.01504.0052.01538.0002.00094.0004.00232.0005.00457.0001.00117.0002.00269.0003.00461 0 .00096.0001.00204.0001.00324 0 .0006 0 .00123.0001.0019v.00102.00053.00027c0 .00014 0 .00028-.3125.00423zm.1754.50411c.1875 0 .3446-.09671.4242-.1526.0463-.03253.0845-.06448.1111-.08824.0135-.01203.0245-.02236.0326-.03015.004-.0039.0074-.00719.01-.00977.0013-.00129.0024-.00241.0033-.00333.0004-.00047.0009-.00088.0012-.00125.0002-.00019.0004-.00036.0005-.00052.0001-.00008.0002-.00016.0002-.00023.0001-.00004.0001-.00009.0001-.00011.0001-.00005.0001-.0001-.2239-.21791-.2241-.21781-.2241-.21786-.224-.21791 0-.00001 0-.00006.0001-.00009 0-.00006.0001-.00012.0001-.00018.0001-.00011.0002-.00022.0003-.00031.0002-.00018.0004-.00033.0005-.00043.0002-.0002.0002-.00024.0001-.00013-.0002.00023-.0011.00106-.0025.00239-.0028.0027-.0077.00734-.0143.01327-.0137.01217-.0328.02812-.0547.04349-.0225.01582-.0429.0275-.0592.03447-.0174.00748-.0183.00454-.0057.00454zm.3593-.50411c-.1819.25417-.1818.25421-.1817.25425 0 .00002.0001.00006.0001.00009.0001.00007.0002.00013.0003.0002.0002.00014.0004.00028.0006.00044.0004.00032.001.00069.0015.0011.0012.00083.0027.00183.0044.00301.0034.00236.0078.0054.0133.00904.0108.00726.0257.01694.0441.02821.0366.02241.0882.05192.1502.08152.1181.05632.3013.12625.5027.12625v-.625c-.0662 0-.1508-.02588-.2336-.06536-.0384-.0183-.0705-.0367-.0925-.05022-.011-.00668-.0191-.01197-.0239-.01519-.0024-.00161-.0039-.00268-.0046-.00313-.0003-.00022-.0004-.00029-.0003-.00019.0001.00005.0002.00014.0004.00027.0001.00007.0002.00015.0003.00024.0001.00005.0002.00009.0002.00014.0001.00003.0001.00007.0002.00008 0 .00004.0001.00008-.1817.25425zm.5355.50411c.0739 0 .1379-.00722.1964-.02194.0597-.01502.1025-.03543.1228-.0449l-.2645-.5663c-.0095.00445-.011.00507-.0119.00545-.0002.00005 0-.00004.0004-.00017s.0007-.00019.0006-.00016c0 0-.0028.00071-.0094.00145-.0067.00076-.0178.00157-.0344.00157zm.3192-.06684c.0079-.00369.0082-.00376.0073-.00342-.0019.00079-.0081.00329-.0172.00578-.0094.00258-.0196.00455-.0302.00557-.0103.001-.0186.00086-.0239.0005-.0094-.00063-.0079-.0018.0111.00366.0186.00535.0476.01517.0918.0327l.2306-.58091c-.1027-.04075-.1995-.07286-.2917-.07905-.1225-.00823-.2049.03144-.2423.04887zm.0389.04479c-.0019-.00077.0355.01709.0959.10613.0562.08281.1151.2021.1686.35417.1067.30365.1791.70289.1791 1.11774h.625c0-.4815-.0831-.95111-.2145-1.32491-.0655-.18666-.1462-.35825-.2411-.49799-.0906-.1335-.2157-.26987-.3824-.33605zm.4436 1.57804c0 .15063-.076.40506-.2292.73816-.1473.3205-.3465.67315-.5496 1.00446-.2024.33025-.4053.63378-.5579.85507-.0762.11051-.1396.20021-.1839.26201-.0221.0309-.0393.0548-.051.0709-.0059.0081-.0103.0141-.0132.0182-.0015.002-.0026.0034-.0033.0044-.0003.0005-.0006.0008-.0007.001-.0001.0001-.0002.0002-.0002.0002v.0001s0-.0001.2518.1851c.2517.1851.2517.1851.2518.1851 0-.0001 0-.0001.0001-.0002 0-.0001.0001-.0002.0002-.0004.0003-.0003.0006-.0008.0011-.0014.0009-.0012.0021-.0029.0038-.0052.0033-.0045.0082-.0112.0144-.0198.0125-.0172.0306-.0423.0536-.0745.0461-.0643.1115-.1569.19-.2707.1567-.22735.3663-.54064.5763-.88325.2093-.34155.4226-.71776.5846-1.06998.1561-.3396.2863-.70171.2863-.99927zm-1.6384 3.2229.0873.3155.6023-.1666-.0873-.3155zm.3884.2322c.1927.246.1928.246.1929.2459 0 0 .0001-.0001.0001-.0001.0002-.0001.0004-.0003.0005-.0004.0004-.0003.0009-.0007.0015-.0012.0012-.0009.0028-.0022.0048-.0037.004-.0032.0096-.0077.0167-.0135.0143-.0116.0346-.0283.0603-.0499.0513-.0433.124-.1064.2122-.1876.1762-.1621.4151-.3975.6683-.6923.5025-.58526 1.0796-1.42583 1.314-2.40878l-.608-.14495c-.2015.8453-.7081 1.59675-1.1802 2.14651-.2341.27266-.4553.49052-.6174.63972-.0809.0745-.1468.1316-.1919.1696-.0225.019-.0398.0332-.0511.0424-.0057.0046-.0098.0079-.0124.01-.0013.001-.0022.0017-.0027.0021-.0002.0002-.0004.0003-.0004.0003h.0001c0-.0001.0001-.0001.1927.2459zm2.4713-3.11158c.2435-1.0214-.0767-1.87019-.444-2.44968-.1835-.28965-.3812-.51646-.5332-.6712-.0762-.0776-.1415-.1377-.1887-.17916-.0237-.02074-.0428-.03686-.0566-.04821-.0069-.00568-.0125-.01017-.0166-.01346-.002-.00164-.0037-.00298-.0051-.00402-.0006-.00052-.0012-.00096-.0016-.00133-.0003-.00018-.0005-.00034-.0007-.00049-.0001-.00007-.0002-.00017-.0002-.0002-.0002-.00009-.0003-.00018-.192.24658-.1918.24675-.1919.24668-.192.2466 0-.00001-.0001-.00008-.0001-.00012-.0001-.00007-.0002-.00012-.0002-.00015-.0001-.00007-.0001-.00007 0 0 .0002.00015.0007.00059.0016.00131.0019.00145.0051.00403.0096.00774.009.00742.0231.0193.0416.0355.0369.03244.0909.08196.1551.14735.1289.13123.2966.32379.4512.56779.3091.48779.5563 1.16336.3639 1.9702zm-1.4109-3.43243-.1012-.00905-.0556.62252.1012.00904zm-.4415-.16919v.4714h.625v-.4714z" fill="#ffd018"/><g clip-rule="evenodd" fill-rule="evenodd"><path d="m8.1897 8.61555s.19655-.52776.54026-.35184c.34372.17592.3137.78835.62642.57009.31272-.21825.13543-.57009.59884-.57009.46338 0 .39518.57009.67308.57009s.3019-.57009.6126-.57009.6257.35184.6257.35184l-1.8384 2.50155z" fill="#8fc753"/><path d="m4.95555 11.5357-.19773-.2664s.82003 0 .93129.1928c.03135.0543.04503.0958.05545.1274.02653.0805.03185.0967.25429.0967.30974 0 0-.3073-.12897-.4169-.12898-.1097-.05044-.3007.12897-.3007.06914 0 .18948-.0159.33742-.0353.23592-.0311.542-.0714.82244-.0714.45629 0 .07802.4074.07802.4074s.59077 0 .44412-.1696c-.14664-.1696.49244-.3758.76857-.3758.25743 0 1.41627.0578 1.57218.0656.163-.0078 1.3744-.0656 1.6318-.0656.2761 0 .9152.2062.7686.3758-.1467.1696.4441.1696.4441.1696s-.3783-.4074.078-.4074c.2805 0 .5865.0403.8225.0714.1479.0194.2682.0353.3374.0353.1794 0 .2579.191.1289.3007-.1289.1096-.4387.4169-.1289.4169.2224 0 .2277-.0162.2543-.0967.0104-.0316.0241-.0731.0554-.1274.1073-.186.8741-.1926.9283-.1928-.0124-.0227-.0194-.0488-.0194-.0767 0-.0863.0677-.1562.1512-.1562s.1512.0699.1512.1562-.0677.1563-.1512.1563c-.0556 0-.1043-.0311-.1305-.0773l-.196.2641.2041.2527c.0275-.0391.0721-.0645.1224-.0645.0835 0 .1512.0699.1512.1562s-.0677.1563-.1512.1563-.1512-.07-.1512-.1563c0-.0178.0029-.0349.0082-.0509-.1156-.0562-.3154-.143-.445-.143h-.3608c.0907 0 .5905.3297.4392.4726l-.0257.0243c-.1484.1411-.3421.3252-.5248.2248-.1934-.1062-.3097-.2491-.3097-.2491l-.1516-.4726s-.8932-.2306-.8932-.071-.0025.2378-.3193.2378c-.1772 0-.3485-.0301-.4993-.0566-.1187-.0209-.2247-.0395-.3111-.0395-.1235 0-.3144.0381-.4556.0663-.0829.0166-.1487.0298-.1738.0298-.0676 0-.4293-.0164-.1814-.1668.2479-.1505.305-.3073.305-.3073s-.9922.1473-1.3848.1564v.0004l-.0177-.0001-.0178.0001v-.0004c-.38919-.0091-1.32428-.1564-1.32428-.1564s.05711.1568.305.3073c.24788.1504-.11379.1668-.18143.1668-.02503 0-.09085-.0132-.17379-.0298-.14123-.0282-.33207-.0663-.45561-.0663-.08635 0-.19237.0186-.31105.0395-.15083.0265-.32209.0566-.49935.0566-.31675 0-.31929-.0782-.31929-.2378s-.89322.071-.89322.071l-.15153.4726s-.11633.1429-.30974.2491c-.1827.1004-.37635-.0837-.52482-.2248l-.02563-.0243c-.15136-.1429.34843-.4726.43919-.4726h-.36087c-.19149 0-.53615.1896-.53615.1896zm-.42934-.1868c.08351 0 .15121-.07.15121-.1563s-.0677-.1562-.15121-.1562-.15121.0699-.15121.1562.0677.1563.15121.1563zm0 .6875c.08351 0 .15121-.07.15121-.1563s-.0677-.1562-.15121-.1562-.15121.0699-.15121.1562.0677.1563.15121.1563z" fill="#fff"/><path d="m9.93399 1.26831h.12501v.13398h.1535v.125h-.1535v.22753c.1724.02912.3039.18372.3039.37007 0 .2071-.1625.375-.36291.375-.20043 0-.36291-.1679-.36291-.375 0-.18382.12799-.33675.29691-.36882v-.22878h-.1411v-.125h.1411z" fill="#ffd018"/><path d="m8.59173 3.26601c-.17497 0-.54394.1871-.54394.1871l.28689.63622 1.73042-.06492 1.7304.06492.2869-.63622s-.369-.1871-.5439-.1871c-.0769 0-.0866-.04521-.0976-.09593-.0139-.06477-.0299-.13853-.19-.13853-.1132 0-.1933.01879-.2581.03401-.0985.02313-.1618.03799-.253-.03401-.0038-.003-.0076-.00601-.0114-.00902-.1477-.11668-.3012-.23786-.5493-.23786-.0495 0-.0865.04681-.114.12223-.0275-.07542-.0645-.12223-.11399-.12223-.24818 0-.40159.12118-.5493.23786-.00381.00301-.00762.00602-.01143.00902-.09125.072-.15452.05714-.25302.03401-.0648-.01522-.14484-.03401-.25811-.03401-.16011 0-.17602.07376-.18999.13853-.01094.05072-.0207.09593-.09753.09593z" fill="#e31d1c"/><path d="m9.75503 2.23022-.12146.04214c-.32097.11135-.59893.14808-.83371.1119-.4834-.0745-1.11414.17701-1.03511.54534.03464.16141.13573.46626.24087.72464.14588.35851.24798.53936.36741.53936.01546 0 .17764.00885.23167.0118.00972.00053.01595.00087.01718.00094.17566.00889.33049.01359.47943.0129.43069-.00201.69766-.0443.793-.17352l.02805-.03802-.01331-.0458c-.1131-.38892-.16546-.92246-.15589-1.59929zm-1.81313.65879c-.03875-.18061.45461-.37734.83119-.31931.23459.03616.5004.00894.79755-.08046-.00157.60161.04749 1.09028.14801 1.46696-.08612.04506-.31242.07411-.61816.07554-.14518.00068-.29703-.00394-.46973-.01268.00154.00008-.1779-.00986-.23935-.01239-.00204-.00207-.00444-.00467-.00712-.0078-.0162-.01887-.03644-.04939-.05926-.08979-.04497-.07966-.09749-.19319-.15215-.32752-.10126-.24886-.19905-.54373-.23098-.69255z" fill="#ffd018"/><path d="m10.2842 2.23022.1215.04214c.3209.11135.5989.14808.8337.1119.4834-.0745 1.1141.17701 1.0351.54534-.0346.16141-.1357.46626-.2409.72464-.1459.35851-.248.53936-.3674.53936-.0154 0-.1776.00885-.2317.0118-.0097.00053-.0159.00087-.0171.00094-.1757.00889-.3305.01359-.4795.0129-.4307-.00201-.6976-.0443-.793-.17352l-.028-.03802.0133-.0458c.1131-.38892.1655-.92246.1559-1.59929zm1.8131.65879c.0388-.18061-.4546-.37734-.8311-.31931-.2346.03616-.5004.00894-.7976-.08046.0016.60161-.0475 1.09028-.148 1.46696.0861.04506.3124.07411.6182.07554.1451.00068.297-.00394.4697-.01268-.0016.00008.1779-.00986.2393-.01239.0021-.00207.0045-.00467.0072-.0078.0162-.01887.0364-.04939.0592-.08979.045-.07966.0975-.19319.1522-.32752.1012-.24886.199-.54373.2309-.69255z" fill="#ffd018"/><path d="m11.9471 4.04423c-.0002-.03469.0198-.09734.0634-.21367.0602-.16028.1014-.20885.1889-.26228.0442-.02705.0615-.05049.0824-.13119.0167-.06455.0336-.11493.053-.16136.0039-.00943.0124-.02817.0205-.04624v-.00001-.00008c.0083-.01857.0164-.03641.0188-.04263.0135-.03397.0191-.06418.0191-.11315 0-.05582-.0146-.10054-.0531-.18186-.023-.04856-.026-.05501-.0342-.07549-.0166-.04156-.0251-.07749-.0251-.11417v-.24072c0-.14056-.0056-.14912-.0746-.1398-.0069.00093-.0136.00201-.0207.00327.0026-.00046-.0331.0065-.0416.0075-.0164.00195-.0299.00063-.0436-.00552-.0247-.01118-.0429-.0331-.0864-.09824-.0205-.03067-.0426-.02767-.121.01051-.0111.00543-.0177.00857-.0249.01187-.0801.03681-.1358.03788-.1831-.01995-.0728-.08886-.1208-.0832-.209.00257-.0436.04237-.0656.0584-.0935.0625l-.0023.00034c-.0294.00436-.0312.00462-.114-.0461-.0056.01173-.0179.01626-.0378.0209-.0265.00618-.0659.00828-.0923.00415-.022-.00343-.0376-.01022-.0479-.03167-.035-.00106-.0764-.00163-.1242-.00163v-.0625c.0613 0 .1123.00091.1536.00264l.0115-.01005c.0227-.01998.058-.05102.0747-.04609.0022.00066.0088.00651.0179.01458.0139.01234.0336.02985.0525.04184l.0023.00147c.0822.0504.0853.05203.0975.05024.0108-.00159.0263-.01288.0605-.04613.1108-.10768.198-.11796.2967.00257.025.03057.054.03001.1124.0032.0066-.00305.0129-.00604.0236-.01128.1046-.05096.1512-.0573.1965.0105.0359.05375.0511.07205.0609.07648l.0022.00112c.0021.001.005.00048.0321-.00443l.0163-.00296c.0079-.00141.0154-.00262.0232-.00367.1143-.01544.1429.02863.1429.20177v.24072c0 .02736.0068.0557.0206.09032.0075.01868.0103.02487.0326.07185.0423.08937.0593.14128.0593.20935 0 .05699-.0071.09527-.0236.13689-.003.00762-.0121.02788-.0211.04775v.00003c-.0077.01719-.0153.03407-.0187.0422-.0182.04364-.0342.09112-.0501.15273-.0249.09657-.0522.13351-.1101.16886-.076.04647-.108.08421-.1632.23109-.0286.0763-.0464.12984-.0549.16332-.0018.00693-.0031.01273-.0039.01739.0087.00703.0077.012.0048.02585-.0021.00475-.0027.00621-.0036.00753l-.0013.00195c-.0035.00423-.0035.00423-.0077.00771-.0017.0013-.0036.00247-.0055.00349.0012-.00018.0021-.00054.0032-.00131-.0037.00426-.0085.01032-.0146.01827-.0593.07745-.1338.07745-.2051.00254l.0431-.04384c.0468.04918.0789.04918.1145.00253zm-3.92416 0c.0002-.03469-.0198-.09734-.06349-.21367-.06018-.16028-.10133-.20885-.1888-.26228-.04428-.02705-.06158-.05049-.08243-.13119-.01669-.06455-.03363-.11493-.05302-.16136-.00395-.00945-.01238-.02824-.02051-.04633v-.00001l-.00001-.00001c-.00834-.01857-.01634-.0364-.01881-.04261-.0135-.03397-.01909-.06418-.01909-.11315 0-.05582.01461-.10054.05315-.18186.02301-.04856.02599-.05501.03417-.07549.0166-.04156.02514-.07749.02514-.11417v-.24072c0-.14056.00556-.14912.07457-.1398.00692.00093.01362.00201.02066.00327-.00258-.00046.03317.0065.04164.0075.01642.00195.02992.00063.04355-.00552.02478-.01118.04295-.0331.08648-.09824.02051-.03067.04258-.02767.12095.01051.01114.00543.01771.00857.02488.01187.08017.03681.13581.03788.18316-.01995.07274-.08886.1208-.0832.20901.00257.04357.04237.06557.0584.09345.0625l.00233.00034c.02937.00436.03116.00462.11395-.0461.00565.01173.01792.01626.03778.0209.02652.00618.06595.00828.09237.00415.02199-.00343.03758-.01022.04789-.03167.03498-.00106.07637-.00163.12421-.00163v-.0625c-.06129 0-.11235.00091-.15358.00264l-.01158-.01005c-.02269-.01998-.05792-.05102-.07462-.04609-.00223.00066-.00883.00651-.01793.01458-.01449.01285-.03531.03131-.05485.04331-.08213.0504-.08528.05203-.09745.05024-.01083-.00159-.02632-.01288-.06052-.04613-.11074-.10768-.19796-.11796-.29664.00257-.02502.03057-.05403.03001-.11242.0032-.00665-.00305-.0129-.00604-.02365-.01128-.10461-.05096-.15118-.0573-.19651.0105-.03592.05375-.05108.07205-.06091.07648l-.00214.00112c-.00215.001-.005.00048-.03208-.00443l-.01639-.00296c-.00784-.00141-.01538-.00262-.0232-.00367-.11427-.01544-.1429.02863-.1429.20177v.24072c0 .02736-.00673.0557-.02056.09032-.00746.01868-.01031.02487-.03258.07185-.04236.08937-.05931.14128-.05931.20935 0 .05699.00708.09527.02362.13689.00303.00762.01212.02788.02104.04774.00772.0172.01531.0341.01871.04224.01822.04364.03419.09112.05011.15273.02495.09657.05222.13351.11009.16886.07607.04647.10804.08421.16319.23109.02866.0763.04643.12984.05494.16332.00176.00693.00305.01273.00392.01739-.00876.00703-.00772.012-.00482.02585.00207.00475.00271.00621.00355.00753l.00139.00195c.00348.00423.00348.00423.00767.00771.00172.0013.00354.00247.00544.00349-.00111-.00018-.00203-.00054-.00313-.00131.00364.00426.0085.01032.01459.01827.05926.07745.13378.07745.20512.00254l-.04311-.04384c-.04683.04918-.07888.04918-.11457.00253zm.72642-1.8354-.00117-.00056.00049.00021z" fill="#5e5e5e"/></g><path d="m8.60876 11.1781.03797-.3102c.67161.0822 1.12004.1233 1.34599.1235.34078.0153.74688-.0094 1.21778-.0744l.0427.3095c-.4884.0675-.9131.0933-1.2675.0772-.23587 0-.69273-.0418-1.37694-.1256z" fill="#272727"/></g></g></svg>