<svg fill="none" height="12" viewBox="0 0 16 12" width="16" xmlns="http://www.w3.org/2000/svg" xmlns:xlink="http://www.w3.org/1999/xlink"><mask id="a" height="12" maskUnits="userSpaceOnUse" width="16" x="0" y="0"><path d="m0 0h16v12h-16z" fill="#fff"/></mask><g mask="url(#a)"><path clip-rule="evenodd" d="m0 0h16v12h-16z" fill="#f7fcff" fill-rule="evenodd"/><path clip-rule="evenodd" d="m0 0h7v12h-7z" fill="#ffdc17" fill-rule="evenodd"/><path d="m11.3908 6.37549-.1726.01124c.0412.59289.1686 1.05087.3848 1.37407.3486.52122.8086.92422 1.1164.92422.07 0 .0862.02596.0632.09007-.0328.09115-.1365.1808-.2699.2152-.2219.05722-.7266.08684-1.5054.08684v.16744c.7944 0 1.3082-.03015 1.5499-.09248.1877-.04841.3366-.17717.3887-.32194.0602-.16743-.0307-.31258-.2265-.31258-.2286 0-.6527-.37154-.9712-.84777-.198-.29598-.318-.72746-.3574-1.29431z" fill="#af0100"/><path d="m10.5735 6.37549.1726.01124c-.0412.59289-.1686 1.05087-.3848 1.37407-.3486.52122-.80861.92422-1.11644.92422-.06992 0-.08618.02596-.06312.09007.03279.09115.13649.1808.2699.2152.22189.05722.72656.08684 1.50536.08684v.16744c-.7944 0-1.30819-.03015-1.54989-.09248-.18771-.04841-.33665-.17717-.38873-.32194-.06022-.16743.03067-.31258.22648-.31258.22863 0 .65276-.37154.97124-.84777.198-.29598.318-.72746.3574-1.29431z" fill="#af0100"/><g clip-rule="evenodd" fill-rule="evenodd"><path d="m14.0334 3.39917-4.57068 3.563c-.16004-.05214-.33476-.08067-.51676-.08067-.74156 0-1.36216.47367-1.36216 1.08837s.6206 1.08837 1.36216 1.08837c.08505 0 .16851-.00623.24962-.01819-.07503-.05859-.13107-.13183-.15909-.20971-.0337-.0937-.02008-.18042.03278-.23863-.04019.00399-.08135.00607-.12331.00607-.50033 0-.88648-.29474-.88648-.62791 0-.33318.38615-.62791.88648-.62791.50034 0 .88649.29473.88649.62791 0 .10193-.03614.20026-.10064.28766.01214-.01083.02432-.02194.03654-.03332.15841-.14749-.19755.46099-.50538.46099-.06992 0-.08618.02597-.06312.09008.03071.08537.12364.16944.24492.20801.50139-.15677.86333-.54397.86333-1.01342 0-.19203-.0605-.3703-.1664-.52466l2.4564-2.08481.1644.16987.1184-.10733.4103.30409-.1716.13227.3502.42568.7065-.54466.012-.00619-.0021-.00143.0438-.03376-.3502-.42569-.1693.13053-.4588-.31719.0538-.04878-.1476-.1525.2219-.18838.1178.12172.1266-.11475.3977.31488-.1671.12889.3502.42569.6052-.46658.0693-.03795-.0101-.00772.0958-.0738-.3503-.42569-.1978.15249-.4357-.33427.0592-.05365-.101-.10435.4522-.38382z" fill="#f4b300"/><path d="m11.6919 7.96968c0-.27629.1254-.52409.3307-.71319l-2.62473-2.03268-.02992.02305.07651.06939-.20697.21383-.10897-.09883-.40178.30942.15364.11844-.35021.42569-.69897-.53886-.0195-.012.00207-.00143-.04379-.03376.35021-.42569.16932.13054.45879-.3172-.05377-.04878.19832-.2049-.23109-.17896-.1594.1647-.12177-.11044-.39269.31816.15735.1213-.35021.42569-.58598-.45174-.08856-.05279.01007-.00772-.09573-.0738.35021-.42569.1978.15249.4357-.33427-.05916-.05365.11959-.12356-.47082-.36461.29716-.35956 4.54088 3.51655c.1839-.07289.3907-.11351.6078-.11351.7416 0 1.3622.47367 1.3622 1.08837s-.6206 1.08837-1.3622 1.08837c-.085 0-.1685-.00623-.2496-.01819.0751-.05859.1311-.13183.1591-.20971.0337-.0937.0201-.18042-.0328-.23863.0402.00399.0814.00607.1233.00607.5004 0 .8865-.29473.8865-.62791 0-.33317-.3861-.62791-.8865-.62791-.5003 0-.8864.29474-.8864.62791 0 .10193.0361.20026.1006.28766-.0121-.01083-.0243-.02194-.0366-.03332-.1584-.14749.1976.46099.5054.46099.07 0 .0862.02597.0632.09008-.0308.08538-.1237.16944-.245.20801-.5014-.15677-.8633-.54396-.8633-1.01342z" fill="#bfbfbf"/><path d="m10.8703 5.89771c-.0359 0-.0649.02904-.0649.06486v.27002h-.2399c-.0347 0-.0628.02811-.0628.06279s.0281.06279.0628.06279h.2399v3.577c0 .03582.029.06483.0649.06483h.1297c.0358 0 .0648-.02901.0648-.06483v-3.577h.3697c.0347 0 .0628-.02811.0628-.06279s-.0281-.06279-.0628-.06279h-.3697v-.27002c0-.03582-.029-.06486-.0648-.06486z" fill="#af0100"/><path d="m10.9351 10.0082c.1433 0 .2595-.05804.2595-.12969s-.1162-.12973-.2595-.12973-.2594.05808-.2594.12973.1161.12969.2594.12969z" fill="#af0100"/><path d="m10 2.9c0-.49706.4029-.9.9-.9s.9.40294.9.9v1.62174h-1.8z" fill="#f4b300"/><path d="m10.8919 4.60959c.5015 0 .9081-.06776.9081-.15135s-.4066-.15136-.9081-.15136c-.5016 0-.90814.06777-.90814.15136s.40654.15135.90814.15135z" fill="#af0100"/></g></g></svg>