<svg fill="none" height="15" viewBox="0 0 20 15" width="20" xmlns="http://www.w3.org/2000/svg" xmlns:xlink="http://www.w3.org/1999/xlink"><mask id="a" height="15" maskUnits="userSpaceOnUse" width="20" x="0" y="0"><path d="m0 0h20v15h-20z" fill="#fff"/></mask><mask id="b" height="15" maskUnits="userSpaceOnUse" width="20" x="0" y="0"><path clip-rule="evenodd" d="m0 0v15h20v-15z" fill="#fff" fill-rule="evenodd"/></mask><mask id="c" height="11" maskUnits="userSpaceOnUse" width="10" x="5" y="3"><path clip-rule="evenodd" d="m10 13.75c2.7614 0 5-2.2386 5-5 0-2.76142-2.2386-5-5-5-2.76142 0-5 2.23858-5 5 0 2.7614 2.23858 5 5 5z" fill="#fff" fill-rule="evenodd"/></mask><g mask="url(#a)"><path clip-rule="evenodd" d="m0 0v15h20v-15z" fill="#1c9975" fill-rule="evenodd"/><g mask="url(#b)"><g clip-rule="evenodd" fill="#feca00" fill-rule="evenodd"><path d="m10.0135 4.28358-1.0211.61642.23291-1.20288-.85031-.90025 1.15136-.04867.48714-1.1232.4871 1.1232h1.1494l-.8483.94892.2554 1.20288z"/><path d="m7.11412 4.74029-.63135.38115.144-.74377-.52576-.55664.71191-.0301.3012-.69449.30119.69449h.7107l-.52455.58674.15792.74377z"/><path d="m12.8631 4.74029-.6313.38115.144-.74377-.5258-.55664.7119-.0301.3012-.69449.3012.69449h.7107l-.5245.58674.1579.74377z"/><path d="m5.47906 6.00664-.50664.30586.11556-.59685-.4219-.44669.57128-.02415.2417-.55731.2417.55731h.57032l-.42094.47084.12673.59685z"/><path d="m14.7255 6.00664-.5066.30586.1155-.59685-.4219-.44669.5713-.02415.2417-.55731.2417.55731h.5703l-.4209.47084.1267.59685z"/></g><g fill="#f7fcff"><g mask="url(#c)"><path clip-rule="evenodd" d="m7.92554 13.1649h4.14896v.6702h-4.14896z" fill-rule="evenodd"/><path clip-rule="evenodd" d="m6.22339 12.1625h7.97871v.6143h-7.97871z" fill-rule="evenodd"/><path d="m7.88765 11.8879h-2.44045v-.625h2.43605c.86295-.0121 1.49352-.2586 1.91425-.7328l.2096-.2363.2341.2122c.5619.5095 1.1231.7569 1.6909.7569h2.6902v.625h-2.6902c-.6523 0-1.282-.2454-1.8842-.7259-.53329.4727-1.25742.7132-2.16025.7259z"/></g><path clip-rule="evenodd" d="m10.0217 4.75488s-1.06799 1.055-1.06799 2.50287c0 .30984.04891.60255.12579.87128-.34407-.76258-.36791-1.58949-.07096-2.49149l-.40419-.13307c-.30209.91759-.30339 1.7803-.00348 2.57982-.62039-.37379-1.33416-.62494-2.06678-.70592l-.04675.42295c.64026.07078 1.26518.28427 1.81384.6003-.13546-.05462-.2775-.10213-.42568-.13995-1.35184-.34502-2.67811.1442-2.67811.1442s.76505 1.71643 2.24686 1.96953c.07388.0126.14691.0224.219.0297h-.01119c-.7065 0-1.36351-.2888-1.97874-.87568l-.29371.30792c.69104.65916 1.4511.99326 2.27245.99326.80328 0 1.5493-.3196 2.23098-.95022.10934-.06604.17336-.11329.18356-.12097l.0268.02281c-.014.02414-.0211.0373-.0211.0373s.0672.04069.1884.098c.6731.52168 1.5152.91308 2.1815.91308.8213 0 1.5814-.3341 2.2724-.99326l-.2937-.30792c-.6152.58688-1.2722.87568-1.9787.87568-.2581 0-.5111-.0414-.7591-.1249.3474.0187.7301-.0126 1.1262-.1337 1.4597-.44627 2.0682-1.79605 2.0682-1.79605s-.7767-.41906-1.7631-.42377c.221-.057.4516-.09878.6921-.12536l-.0468-.42295c-.9251.10226-1.7255.41452-2.3969.93557.3926-.86322.4229-1.80335.0917-2.80947l-.4042.13307c.2707.82215.2748 1.58192.0129 2.28745.0449-.20862.0714-.43161.0714-.66724 0-1.52635-1.1129-2.50287-1.1129-2.50287zm.4698 4.46727-.0158.02282.0193-.02303zm-1.03222-.09967.04182-.03847c.03804.06318.07598.12266.11306.17818-.04809-.04529-.09976-.0921-.15488-.13971z" fill-rule="evenodd"/></g></g></g></svg>