<svg fill="none" height="12" viewBox="0 0 16 12" width="16" xmlns="http://www.w3.org/2000/svg" xmlns:xlink="http://www.w3.org/1999/xlink"><mask id="a" height="12" maskUnits="userSpaceOnUse" width="16" x="0" y="0"><path d="m0 0h16v12h-16z" fill="#fff"/></mask><mask id="b" height="12" maskUnits="userSpaceOnUse" width="16" x="0" y="0"><path clip-rule="evenodd" d="m0 0v12h16v-12z" fill="#fff" fill-rule="evenodd"/></mask><mask id="c" height="7" maskUnits="userSpaceOnUse" width="9" x="0" y="0"><path d="m0 0h9v7h-9z" fill="#fff"/></mask><mask id="d" fill="#000" height="9" maskUnits="userSpaceOnUse" width="11" x="-1" y="-1"><path d="m-1-1h11v9h-11z" fill="#fff"/><path clip-rule="evenodd" d="m4.99226 0h-1v3h-3.99226v1h3.99226v3h1v-3h4.00774v-1h-4.00774z" fill="#000" fill-rule="evenodd"/></mask><g mask="url(#a)"><path clip-rule="evenodd" d="m0 0v12h16v-12z" fill="#2e42a5" fill-rule="evenodd"/><g mask="url(#b)"><g clip-rule="evenodd" fill-rule="evenodd"><path d="m10.5233 5.01636s.4431 5.96564 2.441 5.96564c1.998 0 2.4894-5.96564 2.4894-5.96564z" fill="#feca00" stroke="#f7fcff" stroke-width=".25"/><path d="m12.9556 5.31091.0732-.08263.347.22103c.0502-.07813.1397-.11448.265-.10848l-.1266-.19272.1031-.0549.2402.28917.0238.00745-.0609-.37576.1207-.01407.0789.48693c.002-.0001.0039-.00015.0058-.00015.034 0 .0723.01641.1116.04246l.0858-.52924.1208.01407-.0609.37576.0237-.00745.2402-.28917.1031.0549-.1266.19272c.1253-.006.2148.03035.2651.10848l.3469-.22103.0733.08263-.3807.24252c.0052.02741.0078.05745.0078.09012v.05624l.5254-.11515.0387.09772-.5641.19988v.06824l.5348-.04331.0161.10238-.5509.08017v.11791l.5523.09124-.0223.10162-.53-.07924v1.14907h-.0813v-1.16122l-.3555-.05315c-.0399.28116-.0848.63514-.0785.76312.0062.12645.1006.18064.1669.21868.0516.02959.0861.04941.0488.08587-.0851.08333-.2977.16316-.5105.16316s-.4227-.07983-.4681-.16316c-.0082-.01487-.0071-.01367.0002-.00531.0335.0385.1995.22887.2125-.29924.0071-.28978-.0354-.55137-.0843-.75129l-.2764.04132v1.16122h-.0813v-1.14907l-.53.07924-.0222-.10162.5522-.09124v-.11791l-.5509-.08017.0161-.10238.5348.04331v-.06824l-.5641-.19988.0388-.09772.5253.11515v-.05624c0-.03267.0027-.06271.0079-.09012zm.6953.82574c.0017.00555.0033.01118.0049.01689l-.2461.04066v-.09265zm.0052-.37949c-.0038.00408-.0074.0081-.0109.01205l-.2355-.05161v-.07405c0-.01478.0006-.02886.0017-.04224zm.1565-.15475c-.0274.02352-.0543.04889-.0799.07432l-.2907-.18523c.0408-.0709.1212-.09668.2464-.07813zm.5346.12808.3752-.23899c-.0409-.0709-.1213-.09668-.2465-.07813l-.174.26502c.0159.01755.0311.03511.0453.0521zm.1265.04868.2792-.17786c.0012.01338.0017.02746.0017.04224v.07405zm.1125.19153.1684-.05967v.04603zm-.1297.17424.2981-.04339v.09265zm-1.0468-.23391v.04603l.1684.01364z" fill="#cf6900"/><path d="m12.439 7.92139s-.6568 1.10005-.6568 1.76683c0 0 .4476.35498 1.2174.35498s1.166-.35498 1.166-.35498c-.2168-.79041-.5857-1.76683-.5857-1.76683z" fill="#00a727"/><path d="m12.471 7.61761c0-.30294.2456-.54852.5485-.54852s.5485.24558.5485.54852v.37524h-1.097z" fill="#e31d1c"/><path d="m10.7596 6.4168s.8669.1786.8669.46022.3491.38317.4349.30703c.0857-.07613.6898-.12939.6898-.49647s.0504-.46702-.0963-.70012-.4527-1.02108-.5231-.70537c-.0704.3157-.1764.54958-.3722.36139s-.4473-.5866-.5355-.36139c-.0883.22521.2797.45126 0 .45126-.2798 0-.0826.01476-.0826.20545 0 .19068.0332.37042-.1744.37042-.2075 0-.2075.10758-.2075.10758z" fill="#ff927f"/></g><g mask="url(#c)"><path d="m-1.00214 6.49981 1.980479.8686 8.066601-6.424141 1.04466-1.290766-2.11784-.290311-3.29017 2.768348-2.64825 1.86521z" fill="#f7fcff"/><path d="m-.731018 7.10849 1.008961.50406 9.436507-8.078859h-1.4167z" fill="#f50100"/><path d="m10.0021 6.49981-1.98044.8686-8.0665971-6.424141-1.0446529-1.290766 2.11783-.290311 3.29017 2.768348 2.64825 1.86521z" fill="#f7fcff"/><path d="m9.93457 6.93661-1.00896.50406-4.01816-3.45897-1.1913-.38647-4.90625-3.937264h1.416697l4.903493 3.843814 1.30247.46341z" fill="#f50100"/><path clip-rule="evenodd" d="m4.99226 0h-1v3h-3.99226v1h3.99226v3h1v-3h4.00774v-1h-4.00774z" fill="#f50100" fill-rule="evenodd"/><path d="m3.99226 0v-.75h-.75v.75zm1 0h.75v-.75h-.75zm-1 3v.75h.75v-.75zm-3.99226 0v-.75h-.75v.75zm0 1h-.75v.75h.75zm3.99226 0h.75v-.75h-.75zm0 3h-.75v.75h.75zm1 0v.75h.75v-.75zm0-3v-.75h-.75v.75zm4.00774 0v.75h.75v-.75zm0-1h.75v-.75h-.75zm-4.00774 0h-.75v.75h.75zm-1-2.25h1v-1.5h-1zm.75 2.25v-3h-1.5v3zm-4.74226.75h3.99226v-1.5h-3.99226zm.75.25v-1h-1.5v1zm3.24226-.75h-3.99226v1.5h3.99226zm.75 3.75v-3h-1.5v3zm.25-.75h-1v1.5h1zm-.75-2.25v3h1.5v-3zm4.75774-.75h-4.00774v1.5h4.00774zm-.75-.25v1h1.5v-1zm-3.25774.75h4.00774v-1.5h-4.00774zm-.75-3.75v3h1.5v-3z" fill="#f7fcff" mask="url(#d)"/></g></g></g></svg>