<svg fill="none" height="24" viewBox="0 0 32 24" width="32" xmlns="http://www.w3.org/2000/svg" xmlns:xlink="http://www.w3.org/1999/xlink"><mask id="a" height="24" maskUnits="userSpaceOnUse" width="32" x="0" y="0"><path d="m0 0h32v24h-32z" fill="#fff"/></mask><mask id="b" height="12" maskUnits="userSpaceOnUse" width="20" x="6" y="6"><path clip-rule="evenodd" d="m6 6h20v12h-20z" fill="#fff" fill-rule="evenodd"/></mask><g clip-rule="evenodd" fill-rule="evenodd" mask="url(#a)"><path d="m0 0h32v24h-32z" fill="#c51918"/><path d="m6 6h20v12h-20z" fill="#feca00"/><g mask="url(#b)"><path d="m6 6 10 6-10 6z" fill="#23875f"/><path d="m26 6-10 6 10 6z" fill="#23875f"/><path d="m16 16c2.2091 0 4-1.7909 4-4 0-2.20914-1.7909-4-4-4s-4 1.79086-4 4c0 2.2091 1.7909 4 4 4z" fill="#c51918"/><path d="m15.9295 13.3132-2.071 1.4365.6618-2.4603-1.5203-1.5716 2.0585-.085.871-2.43285.8709 2.43285h2.055l-1.5168 1.6566.7597 2.315z" fill="#feca00"/></g><path d="m8.77679 4.44207 1.13176-.7018 1.18525.63085-.4151-1.13107.8289-.80937h-1.1231l-.47595-1.18861-.47596 1.18861-1.12499.04152.83083.76785zm6.00001 0 1.1318-.7018 1.1852.63085-.4151-1.13107.8289-.80937h-1.1231l-.4759-1.18861-.476 1.18861-1.125.04152.8308.76785zm7.1318-.7018-1.1318.7018.3616-1.20202-.8308-.76785 1.125-.04152.476-1.18861.4759 1.18861h1.1231l-.8289.80937.4151 1.13107zm-13.13277 18.42693 1.13177-.7018 1.1853.6308-.4152-1.131.8289-.8094h-1.123l-.476-1.1886-.47597 1.1886-1.12499.0415.83083.7679zm7.13177-.7018-1.1318.7018.3617-1.202-.8309-.7679 1.125-.0415.476-1.1886.476 1.1886h1.123l-.8289.8094.4152 1.131zm4.8682.7018 1.1318-.7018 1.1853.6308-.4152-1.131.8289-.8094h-1.123l-.476-1.1886-.476 1.1886-1.125.0415.8309.7679z" fill="#feca00"/><path d="m8.63486 12.772s.53857.4794.83189.6427c.10114-.3833-.12453-1.2518-.12453-1.2518-.06331-.2076-.75781-.5798-.75781-.5798s-.19507.6554.05045 1.1889z" fill="#c51918"/><path d="m9.19579 13.9302s-1.38323-.6461-1.5238-1.5599c-.14056-.9138.15754-2.37054.15754-2.37054s2.24617.51114 2.39907 1.60634c.1528 1.0952-.35456 1.7833-.35456 1.7833s-.51955-1.3351-1.00983-1.4832c0 0 0 1.3231.33158 2.024z" fill="#feca00"/></g></svg>