<svg fill="none" height="12" viewBox="0 0 16 12" width="16" xmlns="http://www.w3.org/2000/svg" xmlns:xlink="http://www.w3.org/1999/xlink"><mask id="a" height="12" maskUnits="userSpaceOnUse" width="16" x="0" y="0"><path d="m0 0h16v12h-16z" fill="#fff"/></mask><mask id="b" height="12" maskUnits="userSpaceOnUse" width="16" x="0" y="0"><path clip-rule="evenodd" d="m0 0v12h16v-12z" fill="#fff" fill-rule="evenodd"/></mask><mask id="c" height="12" maskUnits="userSpaceOnUse" width="9" x="0" y="0"><path clip-rule="evenodd" d="m0 0v12l9-6z" fill="#fff" fill-rule="evenodd"/></mask><g mask="url(#a)"><path clip-rule="evenodd" d="m0 0v12h16v-12z" fill="#ef0000" fill-rule="evenodd"/><g mask="url(#b)"><path d="m0 4h-1v1 2 1h1 16 1v-1-2-1h-1z" fill="#ef0000" stroke="#f7fcff" stroke-width="2"/></g><path clip-rule="evenodd" d="m0 0v12l9-6z" fill="#3d58db" fill-rule="evenodd"/><g mask="url(#c)"><path clip-rule="evenodd" d="m3.34388 7.10835-1.83596.969.89383-1.94697-1.13899-1.04006 1.40624-.0519.67488-1.76034.51503 1.76034h1.40385l-.9357 1.09196.74427 1.94697z" fill="#f7fcff" fill-rule="evenodd"/></g></g></svg>