<svg fill="none" height="24" viewBox="0 0 32 24" width="32" xmlns="http://www.w3.org/2000/svg" xmlns:xlink="http://www.w3.org/1999/xlink"><mask id="a" height="24" maskUnits="userSpaceOnUse" width="22" x="0" y="0"><path d="m11.6159 12.3201 9.3166 11.1799h-20.4325v-22.657729l19.5392 10.657729h-8.0392-1.0675z" fill="#fff" stroke="#fff"/></mask><path d="m0 0h32v24h-32z" fill="#fff"/><path d="m11.6159 12.3201 9.3166 11.1799h-20.4325v-22.657729l19.5392 10.657729h-8.0392-1.0675z" fill="#c51918" stroke="#4857a1"/><g clip-rule="evenodd" fill-rule="evenodd" mask="url(#a)"><path d="m5.82963 20.0102-1.22517 1.5901-.05655-2.0065-1.92581.5662 1.13366-1.6565-1.89085-.6739 1.89085-.6738-1.13366-1.6566 1.92581.5663.05655-2.0065 1.22517 1.59 1.22517-1.59.05655 2.0065 1.92581-.5663-1.13366 1.6566 1.89085.6738-1.89085.6739 1.13366 1.6565-1.92581-.5662-.05655 2.0065z" fill="#f7fcff"/><path d="m5.80005 8.1388-.63984.83041-.02953-1.0479-1.00574.29573.59204-.86513-.98748-.35191.98748-.35191-.59204-.86513 1.00574.29573.02953-1.0479.63984.83041.63983-.83041.02954 1.0479 1.00574-.29573-.59204.86513.98748.35191-.98748.35191.59204.86513-1.00574-.29573-.02954 1.0479z" fill="#f7fcff"/><path d="m5.66606 7.89414c2.22631.00889 3.41332-1.2541 3.41332-1.2541.23482 1.44116-1.5782 2.4-3.39162 2.4-1.81343 0-2.91137-1.30702-3.58778-2.4 0 0 1.33976 1.24521 3.56608 1.2541z" fill="#f9fafa"/></g></svg>