<svg fill="none" height="12" viewBox="0 0 16 12" width="16" xmlns="http://www.w3.org/2000/svg" xmlns:xlink="http://www.w3.org/1999/xlink"><mask id="a" height="12" maskUnits="userSpaceOnUse" width="16" x="0" y="0"><path d="m0 0h16v12h-16z" fill="#fff"/></mask><mask id="b" height="12" maskUnits="userSpaceOnUse" width="16" x="0" y="0"><path clip-rule="evenodd" d="m0 0v12h16v-12z" fill="#fff" fill-rule="evenodd"/></mask><mask id="c" height="8" maskUnits="userSpaceOnUse" width="16" x="0" y="0"><path d="m0 0h16v8h-16z" fill="#fff"/></mask><g mask="url(#a)"><path clip-rule="evenodd" d="m0 0v12h16v-12z" fill="#2e42a5" fill-rule="evenodd"/><g mask="url(#b)"><path clip-rule="evenodd" d="m0 8v4h16v-4z" fill="#feca00" fill-rule="evenodd"/><g mask="url(#c)"><path d="m-1.1311 7.56481 3.17136.73365 6.76053-3.73546.71538-.41831 6.42183-3.35783 1.5213-1.060514-3.4798-.32093-5.61084 3.165004-4.05469 1.99258z" fill="#fff"/><path d="m-.852478 8.00951 1.707472.56007 15.969506-8.976508h-2.3975z" fill="#f50100"/><path d="m17.1854 7.36539.1259.75501-3.3516.17794-5.40305-3.16467-.50943.17404-10.08745-5.102387 4.16492-.801668 5.56798 3.075935 4.35573 2.10463z" fill="#fff"/><path d="m17.1969 7.81859-1.7075.56007-6.79994-3.84331-2.01605-.4294-8.30288-4.374741h2.397493l8.298217 4.270901 2.20416.5149z" fill="#f50100"/><path d="m6.5945-.625v-.625h-.625v.625zm0 3v.625h.625v-.625zm-7.2195 0v-.625h-.625v.625zm0 3.25h-.625v.625h.625zm7.2195 0h.625v-.625h-.625zm0 4h-.625v.625h.625zm2.84427 0v.625h.62503v-.625zm0-4v-.625h-.625v.625zm7.18623 0v.625h.625v-.625zm0-3.25h.625v-.625h-.625zm-7.18623 0h-.625v.625h.625zm0-3h.62503v-.625h-.62503zm-1.25 3v.625h.625v-.625zm0-1.75h.625v-.625h-.625zm-.34427 0v-.625h-.625v.625zm0 1.75h-.625v.625h.625zm.34427 1.25h.625v-.625h-.625zm-.34427 0v-.625h-.625v.625zm.34427.75v.625h.625v-.625zm-.34427 0h-.625v.625h.625zm-1.25-.75h.625v-.625h-.625zm-5.9695 0v-.625h-.625v.625zm0 .75h-.625v.625h.625zm5.9695 0v.625h.625v-.625zm1.25 1.25v-.625h-.625v.625zm0 2.75h-.625v.625h.625zm.34427 0v.625h.625v-.625zm0-2.75h.625v-.625h-.625zm1.25-2v-.625h-.625v.625zm0 .75h-.625v.625h.625zm5.93623-.75h.625v-.625h-.625zm0 .75v.625h.625v-.625zm-8.7805-4.375h.625v-1.25h-.625zm.625 0v-.625h-1.25v.625zm0 2.375v-2.375h-1.25v2.375zm-7.2195.625h6.5945v-1.25h-6.5945zm-.625 0h.625v-1.25h-.625zm.625 0v-.625h-1.25v.625zm0 2v-2h-1.25v2zm0 .625v-.625h-1.25v.625zm0-.625h-.625v1.25h.625zm6.5945 0h-6.5945v1.25h6.5945zm.625 4v-3.375h-1.25v3.375zm0 .625v-.625h-1.25v.625zm0-.625h-.625v1.25h.625zm1.59427 0h-1.59427v1.25h1.59427zm.625 0h-.625v1.25h.625zm-.625 0v.625h1.25003v-.625zm0-3.375v3.375h1.25003v-3.375zm7.18623-.625h-6.56123v1.25h6.56123zm.625 0h-.625v1.25h.625zm-.625 0v.625h1.25v-.625zm0-2v2h1.25v-2zm0-.625v.625h1.25v-.625zm0 .625h.625v-1.25h-.625zm-6.56123 0h6.56123v-1.25h-6.56123zm-.625-3v2.375h1.25003v-2.375zm0-.625v.625h1.25003v-.625zm0 .625h.625v-1.25h-.625zm-1.59427 0h1.59427v-1.25h-1.59427zm1.59427 2.375v-1.75h-1.25v1.75zm-.625-2.375h-.34427v1.25h.34427zm-.96927.625v1.75h1.25v-1.75zm.625 2.375h.34427v-1.25h-.34427zm.34427 0h-.34427v1.25h.34427zm.625 1.375v-.75h-1.25v.75zm-.96927.625h.34427v-1.25h-.34427zm-.625-1.375v.75h1.25v-.75zm-.625-.625h-5.9695v1.25h5.9695zm-6.5945.625v.75h1.25v-.75zm.625 1.375h5.9695v-1.25h-5.9695zm6.5945-.625v-.75h-1.25v.75zm0 1.25v2.75h1.25v-2.75zm.625 3.375h.34427v-1.25h-.34427zm.96927-.625v-2.75h-1.25v2.75zm-.625-3.375h-.34427v1.25h.34427zm.625-1.375v.75h1.25003v-.75zm6.56123-.625h-5.93623v1.25h5.93623zm.625 1.375v-.75h-1.25v.75zm-6.56123.625h5.93623v-1.25h-5.93623z" fill="#fff"/><path clip-rule="evenodd" d="m8.84615-.666626h-1.6923v3.666666h-7.15385v2h7.15385v4.66667h1.6923v-4.66667h8.15385v-2h-8.15385z" fill="#f50100" fill-rule="evenodd"/></g><g clip-rule="evenodd" fill-rule="evenodd"><path d="m8.02502 5.29993c.7594 0 1.375-.61561 1.375-1.375s-.6156-1.375-1.375-1.375c-.75939 0-1.375.61561-1.375 1.375s.61561 1.375 1.375 1.375z" fill="#2e42a5"/><g fill="#feca00"><path d="m8.05 4.34558-.64894.45157.22894-.75672-.63-.47763.79043-.01611.25957-.74676.25957.74676.79043.01611-.63.47763.22894.75672z"/><path d="m3.54999 4.28804-.54078.37631.19078-.6306-.525-.39803.65869-.01342.21631-.6223.21631.6223.65869.01342-.525.39803.19078.6306z"/><path d="m12.55 4.28804-.5408.37631.1908-.6306-.525-.39803.6587-.01342.2163-.6223.2163.6223.6587.01342-.525.39803.1908.6306z"/><path d="m8.04999 1.88802-.54078.3763.19078-.63059-.525-.39803.65869-.01342.21631-.622304.21631.622304.65869.01342-.525.39803.19078.63059z"/><path d="m8.04999 7.18807-.54078.3763.19078-.63059-.525-.39803.65869-.01342.21631-.62231.21631.62231.65869.01342-.525.39803.19078.63059z"/></g></g></g></g></svg>