<svg xmlns="http://www.w3.org/2000/svg" xmlns:xlink="http://www.w3.org/1999/xlink" width="20" height="15" viewBox="0 0 20 15">
  <defs>
    <rect id="al---albania-a" width="20" height="15" x="0" y="0"/>
  </defs>
  <g fill="none" fill-rule="evenodd">
    <mask id="al---albania-b" fill="#fff">
      <use xlink:href="#al---albania-a"/>
    </mask>
    <g mask="url(#al---albania-b)">
      <polygon fill="#F50100" points="0 0 20 0 20 15 0 15"/>
      <path fill="#1A1A1A" d="M4.71162915,1.63977422 C4.78075204,1.61323137 4.89829079,1.49094316 5.0642454,1.27290958 C5.38605842,0.850106965 4.93033888,0.226712015 5.50406775,0.226712015 C6.07779661,0.226712015 6.33181525,-0.127525508 6.63436659,0.0495932532 C6.93691794,0.226712015 7.30221693,0.226712015 7.17672163,0.226712015 C7.05122632,0.226712015 6.60038529,0.483436799 6.94903008,0.483436799 C7.29767488,0.483436799 7.69401125,-0.0300127695 7.69401125,0.226712015 C7.76011512,0.419912838 7.71337133,0.523843949 7.55377988,0.538505346 C6.83368193,0.608873218 6.54399447,0.659880527 6.68471751,0.691527273 C6.81283063,0.744328809 6.92074308,0.772335837 7.00845486,0.775548358 C7.04640857,0.908970491 6.94870489,0.994153551 6.71534382,1.03109754 C6.05581688,1.15354926 5.71096488,1.32073703 5.68078781,1.53266087 C5.63552221,1.85054662 5.32298507,2.56690454 5.68078781,2.56690454 C6.03859055,2.56690454 6.27091369,2.32186441 6.27091369,2.04652746 C6.27091369,1.77119052 6.3194861,1.30609469 6.63436659,1.28345227 C7.15042615,1.10920085 7.44044547,1.0280559 7.50442457,1.04001741 C7.60039323,1.05795968 7.42819994,1.19539746 7.69401125,1.19539746 C7.95982255,1.19539746 8.73008136,0.556817342 8.85133183,0.303205298 C8.9725823,0.0495932532 9.15466713,0.303205298 9.15466713,0.303205298 C9.15466713,0.303205298 9.27187436,1.0131583 8.66162527,1.27290958 C8.25479254,1.4460771 7.93225454,1.53266087 7.69401125,1.53266087 C7.44031256,1.71922629 7.39356877,1.81250901 7.55377988,1.81250901 C7.79409654,1.81250901 8.30688981,1.91108896 8.66162527,1.72187491 C9.01636073,1.53266087 9.15466713,1.42685536 9.15466713,1.53266087 C9.15466713,1.63846638 9.15689788,2.231948 8.74834561,2.231948 C8.33979335,2.231948 7.83424261,2.231948 7.69401125,2.231948 C7.55377988,2.231948 7.22167722,2.43172236 7.7733227,2.56690454 C8.32496817,2.70208673 8.5027774,2.64559421 8.74834561,2.56690454 C8.99391383,2.48821488 9.15466713,2.44351299 9.15466713,2.56690454 C9.15466713,2.69029609 8.81782413,3.15192505 8.52838453,3.15192505 C8.23894494,3.15192505 7.91790307,2.89565818 7.7733227,2.89565818 C7.62874232,2.89565818 7.47881744,3.15192505 7.55377988,3.15192505 C7.62874232,3.15192505 7.87737781,3.52389393 8.20288117,3.52389393 C8.52838453,3.52389393 8.72366796,3.40337315 8.93916754,3.40337315 C9.15466713,3.40337315 9.15466713,3.35856874 9.15466713,3.52389393 C9.15466713,3.68921913 8.72469039,3.87161512 8.52838453,3.87161512 C8.33207868,3.87161512 7.50442457,3.39809299 7.50442457,3.52389393 C7.50442457,3.64969487 8.02298061,4.32627222 8.34230294,4.32627222 C8.66162527,4.32627222 8.72366796,4.32627222 8.93916754,4.32627222 C9.08283393,4.32627222 9.12616312,4.4174873 9.06915511,4.59991747 C8.93004316,4.72353116 8.77412315,4.785338 8.60139507,4.785338 C8.34230294,4.785338 8.08785821,4.52353466 7.93059045,4.42490344 C7.7733227,4.32627222 7.55377988,4.24988942 7.55377988,4.42490344 C7.55377988,4.59991747 8.04947075,5.29915334 8.45040129,5.29915334 C8.85133183,5.29915334 9.15466713,5.1378267 9.15466713,5.29915334 C9.15466713,5.46047997 8.96830669,5.81963294 8.74834561,5.74027685 C8.52838453,5.66092076 7.83424261,5.41203585 7.69401125,5.14766932 C7.55377988,4.8833028 7.29742972,4.9961853 7.40092715,5.14766932 C7.50442457,5.29915334 8.04947075,6.08251282 8.45040129,6.15551223 C8.85133183,6.22851163 9.24017915,6.20959536 9.15466713,6.38291768 C9.06915511,6.55624 8.71446612,6.79840938 8.52838453,6.7221291 C8.34230294,6.64584882 7.70663262,6.06149474 7.55377988,5.81788998 C7.40092715,5.57428523 7.00845486,5.10788875 7.00845486,5.29915334 C7.00845486,5.49041793 6.84901868,6.01248671 7.17672163,6.08399947 C7.50442457,6.15551223 7.6770752,6.47098859 7.50442457,6.47098859 C7.33177395,6.47098859 6.71534382,6.32319555 6.71534382,5.93220787 C6.71534382,5.54122019 6.43659323,5.32170933 6.43659323,5.43146476 C6.43659323,5.54122019 6.40843003,5.87171679 6.56188693,6.08399947 C6.71534382,6.29628215 6.49789234,6.46955321 6.43659323,6.38291768 C6.37529413,6.29628215 6.11257704,5.89550311 6.11257704,5.81788998 C6.11257704,5.74027685 6.01986156,5.55808592 5.91088021,5.55808592 C5.80189886,5.55808592 5.78000964,5.74801766 5.98393721,6.15551223 C6.18786479,6.5630068 6.69066617,6.88883841 6.84956052,6.88883841 C6.95549008,6.88883841 6.95549008,7.01064079 6.84956052,7.25424555 L7.93059045,7.53424748 C8.20506545,7.39275987 8.34230294,7.29942589 8.34230294,7.25424555 C8.34230294,7.18647503 8.55752368,7.02130363 8.74834561,7.02130363 C8.93916754,7.02130363 8.95431804,7.25424555 8.85133183,7.25424555 C8.74834561,7.25424555 8.55849964,7.4327455 8.45040129,7.4327455 C8.37833573,7.4327455 8.23215974,7.50979473 8.01187335,7.66389319 L8.74834561,7.66389319 C8.66974272,7.57746272 8.73335003,7.53424748 8.93916754,7.53424748 C9.24789382,7.53424748 9.375,7.66389319 9.375,7.66389319 C9.375,7.66389319 9.02700326,7.86807622 8.93916754,7.86807622 C8.85133183,7.86807622 8.67273254,7.93938392 8.34230294,7.86807622 C8.12201655,7.82053775 8.20838059,7.8699388 8.60139507,8.01627937 C8.57214748,7.82339142 8.62113099,7.82339142 8.74834561,8.01627937 C8.93916754,8.30561128 8.96830669,8.39573273 8.74834561,8.39573273 C8.52838453,8.39573273 8.34230294,8.32878244 8.34230294,8.1725309 C8.34230294,8.06836321 8.20506545,7.96687832 7.93059045,7.86807622 L7.40092715,8.1725309 C7.46686836,8.28568681 7.44598608,8.36008742 7.3382803,8.39573273 C7.17672163,8.4492007 6.94903008,8.37064991 6.94903008,8.31718194 C6.94903008,8.26371398 7.00245606,8.01627937 7.13969592,8.01627937 C7.23118916,8.01627937 7.41596094,7.94069867 7.69401125,7.78953727 L6.68471751,7.48799625 C6.49622879,7.68902359 6.37100155,7.78953727 6.3090358,7.78953727 C6.21608717,7.78953727 5.94771586,7.05554773 5.78232692,6.88883841 C5.61693798,6.7221291 5.51271713,6.37725187 5.32138318,6.51474328 C5.13004923,6.65223468 5.05406142,7.07595373 5.32138318,7.4327455 C5.58870494,7.78953727 6.05126499,8.07142011 6.1801504,8.07142011 C6.3090358,8.07142011 6.56188693,8.08356642 6.56188693,8.1725309 C6.56188693,8.26149538 6.44942058,8.62583139 6.1801504,8.47150667 C5.91088021,8.31718194 5.6230254,8.13202879 5.58213472,8.1725309 C5.54124405,8.21303302 5.70957174,8.67188568 5.94486107,8.7813833 C6.1801504,8.89088092 6.37700501,8.73285147 6.37700501,8.92538112 C6.37700501,9.11791076 6.21074193,9.33248348 5.91088021,9.1289323 C5.61101849,8.92538112 5.4296973,8.57572506 5.37554024,8.71062316 C5.32138318,8.84552126 5.34436844,9.37256392 5.58213472,9.37256392 C5.819901,9.37256392 5.98393721,9.33905936 5.98393721,9.43197836 C5.98393721,9.52489735 5.92908651,9.92102449 5.68078781,9.76297189 C5.43248912,9.6049193 5.25091603,9.40789768 5.20654083,9.26841499 C5.16216563,9.1289323 4.8971496,9.26790559 4.9806975,9.46402418 C5.0642454,9.66014277 5.26722612,10.0554363 5.32138318,10.0554363 C5.35748789,10.0554363 5.14764678,10.4536242 4.69185986,11.25 L4.6875,9.77928507 L4.68314014,11.25 C4.22735322,10.4536242 4.01751211,10.0554363 4.05361682,10.0554363 C4.10777388,10.0554363 4.3107546,9.66014277 4.3943025,9.46402418 C4.4778504,9.26790559 4.21283437,9.1289323 4.16845917,9.26841499 C4.12408397,9.40789768 3.94251088,9.6049193 3.69421219,9.76297189 C3.44591349,9.92102449 3.39106279,9.52489735 3.39106279,9.43197836 C3.39106279,9.33905936 3.555099,9.37256392 3.79286528,9.37256392 C4.03063156,9.37256392 4.05361682,8.84552126 3.99945976,8.71062316 C3.9453027,8.57572506 3.76398151,8.92538112 3.46411979,9.1289323 C3.16425807,9.33248348 2.99799499,9.11791076 2.99799499,8.92538112 C2.99799499,8.73285147 3.1948496,8.89088092 3.43013893,8.7813833 C3.66542826,8.67188568 3.83375595,8.21303302 3.79286528,8.1725309 C3.7519746,8.13202879 3.46411979,8.31718194 3.1948496,8.47150667 C2.92557942,8.62583139 2.81311307,8.26149538 2.81311307,8.1725309 C2.81311307,8.08356642 3.0659642,8.07142011 3.1948496,8.07142011 C3.32373501,8.07142011 3.78629506,7.78953727 4.05361682,7.4327455 C4.32093858,7.07595373 4.24495077,6.65223468 4.05361682,6.51474328 C3.86228287,6.37725187 3.75806202,6.7221291 3.59267308,6.88883841 C3.42728414,7.05554773 3.15891283,7.78953727 3.0659642,7.78953727 C3.00399845,7.78953727 2.87877121,7.68902359 2.69028249,7.48799625 L1.68098875,7.78953727 C1.95903906,7.94069867 2.14381084,8.01627937 2.23530408,8.01627937 C2.37254394,8.01627937 2.42596992,8.26371398 2.42596992,8.31718194 C2.42596992,8.37064991 2.19827837,8.4492007 2.0367197,8.39573273 C1.92901392,8.36008742 1.90813164,8.28568681 1.97407285,8.1725309 L1.44440955,7.86807622 C1.16993455,7.96687832 1.03269706,8.06836321 1.03269706,8.1725309 C1.03269706,8.32878244 0.846615467,8.39573273 0.626654386,8.39573273 C0.406693306,8.39573273 0.435832456,8.30561128 0.626654386,8.01627937 C0.753869006,7.82339142 0.802852522,7.82339142 0.773604933,8.01627937 C1.16661941,7.8699388 1.25298345,7.82053775 1.03269706,7.86807622 C0.70226746,7.93938392 0.523668171,7.86807622 0.435832456,7.86807622 C0.34799674,7.86807622 0,7.66389319 0,7.66389319 C0,7.66389319 0.127106181,7.53424748 0.435832456,7.53424748 C0.641649972,7.53424748 0.705257282,7.57746272 0.626654386,7.66389319 L1.36312665,7.66389319 C1.14284026,7.50979473 0.996664275,7.4327455 0.924598711,7.4327455 C0.816500364,7.4327455 0.626654386,7.25424555 0.523668171,7.25424555 C0.420681957,7.25424555 0.435832456,7.02130363 0.626654386,7.02130363 C0.817476317,7.02130363 1.03269706,7.18647503 1.03269706,7.25424555 C1.03269706,7.29942589 1.16993455,7.39275987 1.44440955,7.53424748 L2.52543948,7.25424555 C2.41950992,7.01064079 2.41950992,6.88883841 2.52543948,6.88883841 C2.68433383,6.88883841 3.18713521,6.5630068 3.39106279,6.15551223 C3.59499036,5.74801766 3.57310114,5.55808592 3.46411979,5.55808592 C3.35513844,5.55808592 3.26242296,5.74027685 3.26242296,5.81788998 C3.26242296,5.89550311 2.99970587,6.29628215 2.93840677,6.38291768 C2.87710766,6.46955321 2.65965618,6.29628215 2.81311307,6.08399947 C2.96656997,5.87171679 2.93840677,5.54122019 2.93840677,5.43146476 C2.93840677,5.32170933 2.65965618,5.54122019 2.65965618,5.93220787 C2.65965618,6.32319555 2.04322605,6.47098859 1.87057543,6.47098859 C1.6979248,6.47098859 1.87057543,6.15551223 2.19827837,6.08399947 C2.52598132,6.01248671 2.36654514,5.49041793 2.36654514,5.29915334 C2.36654514,5.10788875 1.97407285,5.57428523 1.82122012,5.81788998 C1.66836738,6.06149474 1.03269706,6.64584882 0.846615467,6.7221291 C0.660533876,6.79840938 0.305844891,6.55624 0.220332872,6.38291768 C0.134820852,6.20959536 0.523668171,6.22851163 0.924598711,6.15551223 C1.32552925,6.08251282 1.87057543,5.29915334 1.97407285,5.14766932 C2.07757028,4.9961853 1.82122012,4.8833028 1.68098875,5.14766932 C1.54075739,5.41203585 0.846615467,5.66092076 0.626654386,5.74027685 C0.406693306,5.81963294 0.220332872,5.46047997 0.220332872,5.29915334 C0.220332872,5.1378267 0.523668171,5.29915334 0.924598711,5.29915334 C1.32552925,5.29915334 1.82122012,4.59991747 1.82122012,4.42490344 C1.82122012,4.24988942 1.6016773,4.32627222 1.44440955,4.42490344 C1.28714179,4.52353466 1.03269706,4.785338 0.773604933,4.785338 C0.60087685,4.785338 0.444956836,4.72353116 0.305844891,4.59991747 C0.248836878,4.4174873 0.292166067,4.32627222 0.435832456,4.32627222 C0.65133204,4.32627222 0.713374728,4.32627222 1.03269706,4.32627222 C1.35201939,4.32627222 1.87057543,3.64969487 1.87057543,3.52389393 C1.87057543,3.39809299 1.04292132,3.87161512 0.846615467,3.87161512 C0.650309613,3.87161512 0.220332872,3.68921913 0.220332872,3.52389393 C0.220332872,3.35856874 0.220332872,3.40337315 0.435832456,3.40337315 C0.65133204,3.40337315 0.846615467,3.52389393 1.17211883,3.52389393 C1.49762219,3.52389393 1.74625768,3.15192505 1.82122012,3.15192505 C1.89618256,3.15192505 1.74625768,2.89565818 1.6016773,2.89565818 C1.45709693,2.89565818 1.13605506,3.15192505 0.846615467,3.15192505 C0.55717587,3.15192505 0.220332872,2.69029609 0.220332872,2.56690454 C0.220332872,2.44351299 0.381086174,2.48821488 0.626654386,2.56690454 C0.872222599,2.64559421 1.05003183,2.70208673 1.6016773,2.56690454 C2.15332278,2.43172236 1.82122012,2.231948 1.68098875,2.231948 C1.54075739,2.231948 1.03520665,2.231948 0.626654386,2.231948 C0.218102124,2.231948 0.220332872,1.63846638 0.220332872,1.53266087 C0.220332872,1.42685536 0.358639269,1.53266087 0.713374728,1.72187491 C1.06811019,1.91108896 1.58090346,1.81250901 1.82122012,1.81250901 C1.98143123,1.81250901 1.93468744,1.71922629 1.68098875,1.53266087 C1.44274546,1.53266087 1.12020746,1.4460771 0.713374728,1.27290958 C0.103125637,1.0131583 0.220332872,0.303205298 0.220332872,0.303205298 C0.220332872,0.303205298 0.402417705,0.0495932532 0.523668171,0.303205298 C0.644918638,0.556817342 1.41517745,1.19539746 1.68098875,1.19539746 C1.94680006,1.19539746 1.77460677,1.05795968 1.87057543,1.04001741 C1.93455453,1.0280559 2.22457385,1.10920085 2.74063341,1.28345227 C3.0555139,1.30609469 3.10408631,1.77119052 3.10408631,2.04652746 C3.10408631,2.32186441 3.33640945,2.56690454 3.69421219,2.56690454 C4.05201493,2.56690454 3.73947779,1.85054662 3.69421219,1.53266087 C3.66403512,1.32073703 3.31918312,1.15354926 2.65965618,1.03109754 C2.42629511,0.994153551 2.32859143,0.908970491 2.36654514,0.775548358 C2.45425692,0.772335837 2.56216937,0.744328809 2.69028249,0.691527273 C2.83100553,0.659880527 2.54131807,0.608873218 1.82122012,0.538505346 C1.66162867,0.523843949 1.61488488,0.419912838 1.68098875,0.226712015 C1.68098875,-0.0300127695 2.07732512,0.483436799 2.42596992,0.483436799 C2.77461471,0.483436799 2.32377368,0.226712015 2.19827837,0.226712015 C2.07278307,0.226712015 2.43808206,0.226712015 2.74063341,0.0495932532 C3.04318475,-0.127525508 3.29720339,0.226712015 3.87093225,0.226712015 C4.44466112,0.226712015 3.98894158,0.850106965 4.3107546,1.27290958 C4.47670921,1.49094316 4.59424796,1.61323137 4.66337085,1.63977422 L4.66336697,1.63846638 C4.66508371,1.63970935 4.66688628,1.64078258 4.66877468,1.64168607 C4.67551275,1.64385862 4.68175452,1.64504972 4.6875,1.64525936 C4.69324548,1.64504972 4.69948725,1.64385862 4.70622532,1.64168607 C4.70811372,1.64078258 4.70991629,1.63970935 4.71163303,1.63846638 L4.71162915,1.63977422 Z" transform="translate(5.625 2.25)"/>
    </g>
  </g>
</svg>
