<svg xmlns="http://www.w3.org/2000/svg" xmlns:xlink="http://www.w3.org/1999/xlink" width="20" height="15" viewBox="0 0 20 15">
  <defs>
    <rect id="a" width="20" height="15"/>
    <rect id="c" width="20" height="15"/>
    <rect id="e" width="20" height="15"/>
  </defs>
  <g fill="none" fill-rule="evenodd">
    <mask id="b" fill="white">
      <use xlink:href="#a"/>
    </mask>
    <use fill="#FFFFFF" xlink:href="#a"/>
    <g mask="url(#b)">
      <mask id="d" fill="white">
        <use xlink:href="#c"/>
      </mask>
      <g mask="url(#d)">
        <mask id="f" fill="white">
          <use xlink:href="#e"/>
        </mask>
        <use fill="#AF0100" xlink:href="#e"/>
        <rect width="20" height="5" fill="#3CA5D9" mask="url(#f)"/>
        <rect width="20" height="5" y="10" fill="#73BE4A" mask="url(#f)"/>
        <g fill="#F7FCFF" mask="url(#f)">
          <path d="M1.73418391,3.73950822 C1.72544625,4.71071458 2.38424149,5.37255811 3.2261009,5.56667166 C4.06796031,5.7607852 4.9560518,5.2961853 4.9560518,5.2961853 C4.84756172,5.59745174 4.32462751,6.3059312 3.22381081,6.3088179 C1.85064701,6.31241878 0.290380746,5.38041298 0.305130022,3.74100572 C0.319356602,2.15969692 1.76644744,1.12418007 3.12286249,1.1206231 C3.851557,1.11871223 4.73994259,1.51661636 4.99513851,2.08406062 C4.99513851,2.08406062 4.18064502,1.64332544 3.25471872,1.85232155 C2.32879242,2.06131765 1.74236307,2.83038076 1.73418391,3.73950822 Z M4.49584258,4.12667453 L3.76111102,4.63794577 L4.02031432,3.78118302 L3.30702194,3.24040328 L4.20194996,3.22216603 L4.49584258,2.37667453 L4.78973521,3.22216603 L5.68466323,3.24040328 L4.97137084,3.78118302 L5.23057415,4.63794577 L4.49584258,4.12667453 Z" transform="translate(7.5 3.75)"/>
        </g>
      </g>
    </g>
  </g>
</svg>
