<svg width="20" height="15" viewBox="0 0 20 15" fill="none" xmlns="http://www.w3.org/2000/svg">
<g clip-path="url(#clip0_270_61036)">
<rect width="20" height="15" fill="white"/>
<path fill-rule="evenodd" clip-rule="evenodd" d="M0 0V15H20V0H0Z" fill="#AF0100"/>
<mask id="mask0_270_61036" style="mask-type:luminance" maskUnits="userSpaceOnUse" x="0" y="0" width="20" height="15">
<path fill-rule="evenodd" clip-rule="evenodd" d="M0 0V15H20V0H0Z" fill="white"/>
</mask>
<g mask="url(#mask0_270_61036)">
<path fill-rule="evenodd" clip-rule="evenodd" d="M13.7547 7.5C13.7547 11.1792 14.1029 12.4571 16.1999 12.4571C18.2968 12.4571 18.8705 10.6035 18.6935 7.5H13.7547Z" fill="#F7FCFF"/>
<path fill-rule="evenodd" clip-rule="evenodd" d="M16.3125 9.625C16.8993 9.625 17.375 9.06536 17.375 8.375C17.375 7.68464 16.8993 7.125 16.3125 7.125C15.7257 7.125 15.25 7.68464 15.25 8.375C15.25 9.06536 15.7257 9.625 16.3125 9.625Z" fill="#AF0100"/>
<path fill-rule="evenodd" clip-rule="evenodd" d="M14.2458 11.4462C14.6194 12.2795 15.2729 12.6962 16.2063 12.6962C17.1335 12.6962 17.7891 12.2851 18.1731 11.4629L14.2458 11.4462Z" fill="#5EAA22"/>
<path d="M14.762 9.39417L14.4131 8.524C15.0534 8.26729 15.6708 8.13727 16.2639 8.13727C16.857 8.13727 17.4743 8.26729 18.1146 8.524L17.7658 9.39417C17.2319 9.18012 16.7317 9.07477 16.2639 9.07477C15.7961 9.07477 15.2959 9.18012 14.762 9.39417Z" fill="#82B2CB"/>
<path fill-rule="evenodd" clip-rule="evenodd" d="M15.625 10C15.9702 10 16.25 9.72018 16.25 9.375C16.25 9.02982 15.9702 8.75 15.625 8.75C15.2798 8.75 15 9.02982 15 9.375C15 9.72018 15.2798 10 15.625 10Z" fill="#FECA00"/>
<path fill-rule="evenodd" clip-rule="evenodd" d="M16 11C16.3452 11 16.625 10.7202 16.625 10.375C16.625 10.0298 16.3452 9.75 16 9.75C15.6548 9.75 15.375 10.0298 15.375 10.375C15.375 10.7202 15.6548 11 16 11Z" fill="#8A4E22"/>
<path fill-rule="evenodd" clip-rule="evenodd" d="M15 10.5C15.3452 10.5 15.625 10.2202 15.625 9.875C15.625 9.52982 15.3452 9.25 15 9.25C14.6548 9.25 14.375 9.52982 14.375 9.875C14.375 10.2202 14.6548 10.5 15 10.5Z" fill="#AF0100"/>
<path fill-rule="evenodd" clip-rule="evenodd" d="M17.125 10.5C17.4702 10.5 17.75 10.2202 17.75 9.875C17.75 9.52982 17.4702 9.25 17.125 9.25C16.7798 9.25 16.5 9.52982 16.5 9.875C16.5 10.2202 16.7798 10.5 17.125 10.5Z" fill="#AF0100"/>
<path fill-rule="evenodd" clip-rule="evenodd" d="M16.6875 11.875C16.9291 11.875 17.125 11.5952 17.125 11.25C17.125 10.9048 16.9291 10.625 16.6875 10.625C16.4459 10.625 16.25 10.9048 16.25 11.25C16.25 11.5952 16.4459 11.875 16.6875 11.875Z" fill="#AF0100"/>
<path fill-rule="evenodd" clip-rule="evenodd" d="M15.1875 11.875C15.4291 11.875 15.625 11.5952 15.625 11.25C15.625 10.9048 15.4291 10.625 15.1875 10.625C14.9459 10.625 14.75 10.9048 14.75 11.25C14.75 11.5952 14.9459 11.875 15.1875 11.875Z" fill="#AF0100"/>
</g>
<g clip-path="url(#clip1_270_61036)">
<rect width="11" height="9" fill="#2E42A5"/>
<path d="M-1.25267 8.12488L1.22292 9.21063L11.3062 1.18046L12.612 -0.432999L9.9647 -0.795888L5.85198 2.66454L2.54167 4.99607L-1.25267 8.12488Z" fill="#F7FCFF"/>
<path d="M-0.913757 8.88561L0.347444 9.51569L12.1431 -0.582886H10.3722L-0.913757 8.88561Z" fill="#F50100"/>
<path d="M12.5027 8.12487L10.3056 9.52057L-0.0561714 1.18044L-1.36199 -0.433015L1.2853 -0.795905L5.39802 2.66453L8.70833 4.99605L12.5027 8.12487Z" fill="#F7FCFF"/>
<path d="M12.4182 8.67082L11.157 9.3009L6.13429 4.97718L4.64517 4.4941L-1.48764 -0.427482H0.283231L6.4126 4.37728L8.04069 4.95655L12.4182 8.67082Z" fill="#F50100"/>
<path fill-rule="evenodd" clip-rule="evenodd" d="M6 0H5V4H0V5H5V9H6V5H11V4H6V0Z" fill="#F50100"/>
<path fill-rule="evenodd" clip-rule="evenodd" d="M4.0625 0H6.9375V3.0625L11 3V5.875L6.9375 5.9375V9H4.0625V5.9375L0 5.875V3L4.0625 3.0625V0ZM5 4H0V5H5V9H6V5H11V4H6V0H5V4Z" fill="#F7FCFF"/>
</g>
</g>
<defs>
<clipPath id="clip0_270_61036">
<rect width="20" height="15" fill="white"/>
</clipPath>
<clipPath id="clip1_270_61036">
<rect width="11" height="9" fill="white"/>
</clipPath>
</defs>
</svg>
