<svg xmlns="http://www.w3.org/2000/svg" xmlns:xlink="http://www.w3.org/1999/xlink" width="20" height="15" viewBox="0 0 20 15">
  <defs>
    <rect id="a" width="20" height="15"/>
    <rect id="c" width="20" height="15"/>
  </defs>
  <g fill="none" fill-rule="evenodd">
    <mask id="b" fill="white">
      <use xlink:href="#a"/>
    </mask>
    <use fill="#FFFFFF" xlink:href="#a"/>
    <g mask="url(#b)">
      <mask id="d" fill="white">
        <use xlink:href="#c"/>
      </mask>
      <g mask="url(#d)">
        <polygon fill="#F7FCFF" points="5 0 15 0 15 15 5 15"/>
        <path fill="#E31D1C" d="M9.98314408,3.75 L10,12.5 L9.57178042,12.5 L9.83451467,10.3346215 C7.91299406,10.6875704 7.03166059,10.7750302 7.19051427,10.5970009 C7.34936795,10.4189716 7.47454401,10.1666555 7.56604245,9.84005254 L5,8.0924114 C5.26984828,8.0889562 5.5145385,8.02058639 5.73407066,7.88730198 C5.95360281,7.75401756 5.84383673,7.29214345 5.40477242,6.50167963 L6.70033262,6.69409118 L7.19051427,6.15028559 L8.16799321,7.19462037 L8.607378,7.19462037 L8.16799321,4.8024977 L8.95558484,5.25158757 L9.98314408,3.75 Z M10,3.75 L11.0444152,5.25158757 L11.8320068,4.8024977 L11.392622,7.19462037 L11.8320068,7.19462037 L12.8094857,6.15028559 L13.2996674,6.69409118 L14.5952276,6.50167963 C14.1561633,7.29214345 14.0463972,7.75401756 14.2659293,7.88730198 C14.4854615,8.02058639 14.7301517,8.0889562 15,8.0924114 L12.4339576,9.84005254 C12.525456,10.1666555 12.650632,10.4189716 12.8094857,10.5970009 C12.9683394,10.7750302 12.0870059,10.6875704 10.1654853,10.3346215 L10.4282196,12.5 L10,12.5 L10,3.75 Z"/>
        <rect width="5" height="15" x="15" fill="#E31D1C"/>
        <rect width="5" height="15" fill="#E31D1C"/>
      </g>
    </g>
  </g>
</svg>
