<svg xmlns="http://www.w3.org/2000/svg" xmlns:xlink="http://www.w3.org/1999/xlink" width="20" height="15" viewBox="0 0 20 15">
  <defs>
    <rect id="a" width="20" height="15"/>
    <rect id="c" width="20" height="15"/>
    <rect id="e" width="20" height="15"/>
    <path id="h" d="M5.11868194,6.32065722 L5.35609177,6.32065722 L4.84138099,6.84102925 L5.04064651,7.6621553 L4.39972878,7.20074154 L3.86868194,7.57065722 L4.10609177,7.57065722 L3.59138099,8.09102925 L3.76844235,8.82065722 L4.10609177,8.82065722 L3.59138099,9.34102925 L3.76844235,10.0706572 L4.10609177,10.0706572 L3.59138099,10.5910292 L3.76844235,11.3206572 L4.14107254,11.3206572 L4.39880303,10.650537 L4.70101288,11.3206572 L5.35609177,11.3206572 L4.84138099,11.8410292 L5.01844235,12.5706572 L5.39107254,12.5706572 L5.64880303,11.900537 L5.95101288,12.5706572 L6.64107254,12.5706572 L6.89880303,11.900537 L7.20101288,12.5706572 L7.89107254,12.5706572 L8.14880303,11.900537 L8.45101288,12.5706572 L8.76224782,12.5706572 L8.96096203,11.8410292 L8.37262678,11.3206572 L9.14107254,11.3206572 L9.39880303,10.650537 L9.70101288,11.3206572 L10.0122478,11.3206572 L10.210962,10.5910292 L9.62262678,10.0706572 L10.0122478,10.0706572 L10.210962,9.34102925 L9.62262678,8.82065722 L10.0122478,8.82065722 L10.210962,8.09102925 L9.62262678,7.57065722 L9.9135529,7.57065722 L9.39972878,7.20074154 L8.73732831,7.6621553 L8.96096203,6.84102925 L8.37262678,6.32065722 L8.6635529,6.32065722 L8.14972878,5.95074154 L7.5329368,6.38038542 L7.54064651,6.4121553 L7.51442684,6.39327906 L7.48732831,6.4121553 L7.49606876,6.3800626 L6.89972878,5.95074154 L6.2829368,6.38038542 L6.29064651,6.4121553 L6.26442684,6.39327906 L6.23732831,6.4121553 L6.24606876,6.3800626 L5.64972878,5.95074154 L5.11868194,6.32065722 Z M5.01224782,6.32065722 L5.21096203,5.59102925 L4.62262678,5.07065722 L5.39107254,5.07065722 L5.64880303,4.40053702 L5.95101288,5.07065722 L6.60609177,5.07065722 L6.64107254,5.07065722 L6.89880303,4.40053702 L7.20101288,5.07065722 L7.85609177,5.07065722 L7.89107254,5.07065722 L8.14880303,4.40053702 L8.45101288,5.07065722 L9.10609177,5.07065722 L8.59138099,5.59102925 L8.76844235,6.32065722 L9.14107254,6.32065722 L9.39880303,5.65053702 L9.70101288,6.32065722 L10.3560918,6.32065722 L9.84138099,6.84102925 L10.0184424,7.57065722 L10.3910725,7.57065722 L10.648803,6.90053702 L10.9510129,7.57065722 L11.6060918,7.57065722 L11.091381,8.09102925 L11.2684424,8.82065722 L11.6060918,8.82065722 L11.091381,9.34102925 L11.2684424,10.0706572 L11.6060918,10.0706572 L11.091381,10.5910292 L11.2906465,11.4121553 L10.6497288,10.9507415 L10.1186819,11.3206572 L10.3560918,11.3206572 L9.84138099,11.8410292 L10.0406465,12.6621553 L9.39972878,12.2007415 L8.86868194,12.5706572 L9.10609177,12.5706572 L8.59138099,13.0910292 L8.79064651,13.9121553 L8.14972878,13.4507415 L7.5329368,13.8803854 L7.54064651,13.9121553 L7.51442684,13.8932791 L7.48732831,13.9121553 L7.49606876,13.8800626 L6.89972878,13.4507415 L6.2829368,13.8803854 L6.29064651,13.9121553 L6.26442684,13.8932791 L6.23732831,13.9121553 L6.24606876,13.8800626 L5.64972878,13.4507415 L4.98732831,13.9121553 L5.21096203,13.0910292 L4.62262678,12.5706572 L4.9135529,12.5706572 L4.39972878,12.2007415 L3.73732831,12.6621553 L3.96096203,11.8410292 L3.37262678,11.3206572 L3.6635529,11.3206572 L3.14972878,10.9507415 L2.48732831,11.4121553 L2.71096203,10.5910292 L2.12262678,10.0706572 L2.51224782,10.0706572 L2.71096203,9.34102925 L2.12262678,8.82065722 L2.51224782,8.82065722 L2.71096203,8.09102925 L2.12262678,7.57065722 L2.89107254,7.57065722 L3.14880303,6.90053702 L3.45101288,7.57065722 L3.76224782,7.57065722 L3.96096203,6.84102925 L3.37262678,6.32065722 L4.14107254,6.32065722 L4.39880303,5.65053702 L4.70101288,6.32065722 L5.01224782,6.32065722 Z M3.6635529,8.82065722 L3.34883196,8.59408123 L3.45101288,8.82065722 L3.6635529,8.82065722 Z M2.99075265,8.56148086 L2.61868194,8.82065722 L2.89107254,8.82065722 L2.99075265,8.56148086 Z M2.61868194,10.0706572 L2.89107254,10.0706572 L2.99075265,9.81148086 L2.61868194,10.0706572 Z M3.34883196,9.84408123 L3.45101288,10.0706572 L3.6635529,10.0706572 L3.34883196,9.84408123 Z M6.26383739,12.916676 L6.09138099,13.0910292 L6.26552356,13.8086296 L6.46096203,13.0910292 L6.26383739,12.916676 Z M7.51552356,13.8086296 L7.71096203,13.0910292 L7.51383739,12.916676 L7.34138099,13.0910292 L7.51552356,13.8086296 Z M10.1186819,10.0706572 L10.3910725,10.0706572 L10.4907526,9.81148086 L10.1186819,10.0706572 Z M10.848832,9.84408123 L10.9510129,10.0706572 L11.1635529,10.0706572 L10.848832,9.84408123 Z M11.1635529,8.82065722 L10.848832,8.59408123 L10.9510129,8.82065722 L11.1635529,8.82065722 Z M10.4907526,8.56148086 L10.1186819,8.82065722 L10.3910725,8.82065722 L10.4907526,8.56148086 Z M7.51552356,6.30862955 L7.71096203,5.59102925 L7.51383739,5.41667602 L7.34138099,5.59102925 L7.51552356,6.30862955 Z M6.26383739,5.41667602 L6.09138099,5.59102925 L6.26552356,6.30862955 L6.46096203,5.59102925 L6.26383739,5.41667602 Z"/>
    <filter id="g" width="194.9%" height="194.6%" x="-47.5%" y="-47.3%" filterUnits="objectBoundingBox">
      <feOffset in="SourceAlpha" result="shadowOffsetOuter1"/>
      <feGaussianBlur in="shadowOffsetOuter1" result="shadowBlurOuter1" stdDeviation="1.5"/>
      <feColorMatrix in="shadowBlurOuter1" values="0 0 0 0 0 0 0 0 0 0 0 0 0 0 0 0 0 0 0.24 0"/>
    </filter>
  </defs>
  <g fill="none" fill-rule="evenodd">
    <mask id="b" fill="white">
      <use xlink:href="#a"/>
    </mask>
    <use fill="#FFFFFF" xlink:href="#a"/>
    <g mask="url(#b)">
      <mask id="d" fill="white">
        <use xlink:href="#c"/>
      </mask>
      <g mask="url(#d)">
        <mask id="f" fill="white">
          <use xlink:href="#e"/>
        </mask>
        <use fill="#4141DB" xlink:href="#e"/>
        <rect width="21.25" height="2.5" x="-.625" y="8.125" fill="#F90000" stroke="#F7FCFF" stroke-width="1.25" mask="url(#f)"/>
        <g mask="url(#f)">
          <use fill="black" filter="url(#g)" xlink:href="#h"/>
          <use fill="#FFDE00" xlink:href="#h"/>
        </g>
      </g>
    </g>
  </g>
</svg>
