<svg xmlns="http://www.w3.org/2000/svg" xmlns:xlink="http://www.w3.org/1999/xlink" width="20" height="15" viewBox="0 0 20 15">
  <defs>
    <rect id="a" width="20" height="15"/>
    <rect id="c" width="20" height="15"/>
  </defs>
  <g fill="none" fill-rule="evenodd">
    <mask id="b" fill="white">
      <use xlink:href="#a"/>
    </mask>
    <use fill="#FFFFFF" xlink:href="#a"/>
    <g mask="url(#b)">
      <mask id="d" fill="white">
        <use xlink:href="#c"/>
      </mask>
      <g mask="url(#d)">
        <polygon fill="#5EAA22" points="0 0 20 0 20 15 0 15"/>
        <polygon fill="#4141DB" points="0 0 20 15 0 15"/>
        <g fill="#FFFFFF" transform="translate(1.25 3.75)">
          <polygon points="2.5 1.875 1.875 2.333 1.959 1.563 1.25 1.25 1.959 .938 1.875 .167 2.5 .625 3.125 .167 3.041 .938 3.75 1.25 3.041 1.563 3.125 2.333"/>
          <polygon points="1.25 5.625 .625 6.083 .709 5.313 0 5 .709 4.688 .625 3.917 1.25 4.375 1.875 3.917 1.791 4.688 2.5 5 1.791 5.313 1.875 6.083"/>
          <polygon points="3.75 9.375 3.125 9.833 3.209 9.063 2.5 8.75 3.209 8.438 3.125 7.667 3.75 8.125 4.375 7.667 4.291 8.438 5 8.75 4.291 9.063 4.375 9.833"/>
          <polygon points="4.375 3.438 4.063 3.666 4.104 3.281 3.75 3.125 4.104 2.969 4.063 2.584 4.375 2.813 4.688 2.584 4.646 2.969 5 3.125 4.646 3.281 4.688 3.666"/>
        </g>
        <path fill="#FECA00" d="M0.975678064,6.38995097 C0.742046483,6.146216 2.84456484,5.57352561 3.06250479,4.8350661 C3.3512962,4.19213664 3.15836338,3.67116752 2.06702072,3.21363548 C0.975678064,2.75610344 -0.127276945,1.8714301 1.1410069,1.8714301 C2.40929075,1.8714301 2.40929075,2.05226358 2.75001459,2.58570092 C3.09073842,3.11913825 3.82717711,3.23340688 3.8427926,2.58570092 C3.8427926,1.48207818 3.94695709,1.33364493 3.05602937,0.374163912 C2.16510165,-0.585317102 5.29007975,0.768182846 5.03180192,2.41305344 C4.7735241,4.05792404 4.46254082,3.52716178 4.65994192,3.80328036 C4.85734302,4.07939893 6.0451276,3.22227184 5.89681108,4.36402948 C5.481269,5.02068369 4.65712501,5.99771576 0.975678064,6.38995097 Z" transform="translate(12.5 1.25)"/>
        <g transform="translate(6.25 3.75)">
          <circle cx="3.75" cy="3.75" r="3.125" fill="#FECA00"/>
          <path fill="#548650" d="M1.84560455,2.60127425 C2.20006954,2.52224107 2.68477502,3.47143002 3.559602,3.11542694 C4.43442897,2.75942386 4.61712565,2.07975513 5.03278953,2.32850781 C5.44845341,2.57726048 5.50300956,3.17618968 5.22611459,3.47721496 C4.94921962,3.77824025 4.47934244,3.84944918 4.47934244,4.22992384 C4.47934244,4.61039849 4.38720125,5.96719722 4.20763309,5.57398737 C3.66914286,5.13707828 3.99767975,4.44117841 3.3343918,4.22992384 C2.67110384,4.01866926 2.26825402,4.02574437 1.7789629,4.11489081 C1.28967178,4.20403724 2.10767122,3.87000863 2.28115378,3.55287706 C2.63437594,3.21306351 1.68352178,2.71426798 1.84560455,2.60127425 Z"/>
        </g>
      </g>
    </g>
  </g>
</svg>
