<svg xmlns="http://www.w3.org/2000/svg" xmlns:xlink="http://www.w3.org/1999/xlink" width="20" height="15" viewBox="0 0 20 15">
  <defs>
    <rect id="a" width="20" height="15"/>
    <rect id="c" width="20" height="15"/>
    <rect id="e" width="20" height="15"/>
  </defs>
  <g fill="none" fill-rule="evenodd">
    <mask id="b" fill="white">
      <use xlink:href="#a"/>
    </mask>
    <use fill="#FFFFFF" xlink:href="#a"/>
    <g mask="url(#b)">
      <mask id="d" fill="white">
        <use xlink:href="#c"/>
      </mask>
      <g mask="url(#d)">
        <mask id="f" fill="white">
          <use xlink:href="#e"/>
        </mask>
        <use fill="#279E19" xlink:href="#e"/>
        <g mask="url(#f)">
          <polygon fill="#F7FCFF" points="10 0 11.25 0 11.25 8.75 20 8.75 20 10 11.25 10 11.25 15 10 15 10 10 0 10 0 8.75 10 8.75"/>
          <polygon fill="#272727" points="8.75 0 10 0 10 7.5 20 7.5 20 8.75 10 8.75 10 15 8.75 15 8.75 8.75 0 8.75 0 7.5 8.75 7.5"/>
          <polygon fill="#FECA00" points="7.5 0 8.75 0 8.75 6.25 20 6.25 20 7.5 8.75 7.5 8.75 15 7.5 15 7.5 7.5 0 7.5 0 6.25 7.5 6.25"/>
          <circle cx="10" cy="7.5" r="5" fill="#C51918"/>
          <g transform="translate(4.5 2.25)">
            <path fill="#804BFF" d="M4.70372682,3.00809295 C4.86203425,2.49437242 5.12506851,2.37020972 5.4928296,2.63560486 C6.35787173,3.06166568 6.64319383,3.55114717 6.97715681,4.10546743 C7.3111198,4.6597877 6.1583448,4.25381665 5.94328965,3.94183424 C5.72823451,3.62985183 4.53532722,3.52869389 4.70372682,3.26839342 C4.81599321,3.09485977 4.81599321,3.00809295 4.70372682,3.00809295 Z"/>
            <path fill="#A95601" d="M4.50821578,6.95340174 C4.11667786,7.48902406 4.11667786,7.75683523 4.50821578,7.75683523 C5.09552267,7.75683523 7.4765866,7.58398437 7.1911936,7.35511848 C7.0009316,7.20254123 6.20067308,7.20254123 4.79041805,7.35511848 L4.50821578,6.95340174 Z"/>
            <path fill="#804BFF" d="M5.38630445,6.92811226 C5.32539698,6.8594131 4.25529731,4.43115001 4.75283835,3.92646332 C5.25037939,3.42177662 5.54194113,3.71833686 5.54194113,4.47511117 C5.54194113,5.23188548 5.57184655,7.11510471 5.38630445,6.92811226 Z"/>
            <path fill="#279E19" d="M5.32334073,6.5340375 C5.28216851,6.92753451 5.36276396,7.35396299 5.5651271,7.81332295 C5.8686718,8.50236289 6.48178814,8.48908516 6.48178814,7.92511665 C6.48178814,7.36114813 6.92927018,7.89040885 7.10107322,8.26680041 C7.27287626,8.64319197 6.8279468,4.92449189 6.19653695,4.0925388 C5.5651271,3.26058571 4.95591054,3.20717054 5.13962563,3.74478871 C5.26210237,4.10320083 5.32334073,5.03295042 5.32334073,6.5340375 Z"/>
            <path fill="#FECA00" d="M4.95459949 2.5C4.77653316 2.61418346 4.6875 2.82852693 4.6875 3.14303041 4.6875 3.45753389 4.89830084 3.40884573 5.31990252 2.99696592L4.95459949 2.5zM5.56251526 2.03125L5.01146658 2.32095343 5.11670752 1.70735172 4.67089977 1.27279657 5.28699092 1.18327328 5.56251526.625 5.8380396 1.18327328 6.45413074 1.27279657 6.008323 1.70735172 6.11356393 2.32095343 5.56251526 2.03125zM5.56251526 9.40624237L5.01146658 9.6959458 5.11670752 9.08234409 4.67089977 8.64778894 5.28699092 8.55826565 5.56251526 7.99999237 5.8380396 8.55826565 6.45413074 8.64778894 6.008323 9.08234409 6.11356393 9.6959458 5.56251526 9.40624237zM9.0625 5.90623856L8.51145133 6.19594199 8.61669226 5.58234027 8.17088452 5.14778512 8.78697566 5.05826184 9.0625 4.49998856 9.33802434 5.05826184 9.95411548 5.14778512 9.50830774 5.58234027 9.61354867 6.19594199 9.0625 5.90623856zM1.93756104 5.90623856L1.38651236 6.19594199 1.49175329 5.58234027 1.04594555 5.14778512 1.6620367 5.05826184 1.93756104 4.49998856 2.21308537 5.05826184 2.82917652 5.14778512 2.38336878 5.58234027 2.48860971 6.19594199 1.93756104 5.90623856zM3.29246149 3.18873906L3.11806612 3.78637521 2.74978448 3.28442765 2.12750759 3.30324753 2.4910828 2.79788055 2.28088989 2.21187572 2.87387337 2.40148931 3.36624391 2.02049853 3.36915264 2.64305315 3.88364727 2.99359273 3.29246149 3.18873906zM8.59758703 8.06488444L8.42319166 8.6625206 8.05491002 8.16057304 7.43263313 8.17939292 7.79620834 7.67402594 7.58601543 7.08802111 8.17899891 7.2776347 8.67136945 6.89664391 8.67427818 7.51919853 9.18877281 7.86973811 8.59758703 8.06488444zM8.51118868 3.11589917L8.33679332 3.71353533 7.96851167 3.21158777 7.34623478 3.23040765 7.70980999 2.72504067 7.49961709 2.13903584 8.09260057 2.32864942 8.5849711 1.94765864 8.58787983 2.57021326 9.10237446 2.92075284 8.51118868 3.11589917zM3.43786875 8.24115134L3.26347338 8.8387875 2.89519174 8.33683994 2.27291485 8.35565982 2.63649006 7.85029284 2.42629715 7.26428801 3.01928063 7.4539016 3.51165117 7.07291081 3.5145599 7.69546544 4.02905453 8.04600501 3.43786875 8.24115134z"/>
          </g>
        </g>
      </g>
    </g>
  </g>
</svg>
