<svg xmlns="http://www.w3.org/2000/svg" xmlns:xlink="http://www.w3.org/1999/xlink" width="20" height="15" viewBox="0 0 20 15">
  <defs>
    <rect id="a" width="20" height="15"/>
    <rect id="c" width="20" height="15"/>
  </defs>
  <g fill="none" fill-rule="evenodd">
    <mask id="b" fill="white">
      <use xlink:href="#a"/>
    </mask>
    <use fill="#FFFFFF" xlink:href="#a"/>
    <g mask="url(#b)">
      <mask id="d" fill="white">
        <use xlink:href="#c"/>
      </mask>
      <g mask="url(#d)">
        <polygon fill="#F7FCFF" points="10 0 20 0 20 15 10 15"/>
        <polygon fill="#36A400" points="0 0 10 0 10 15 0 15"/>
        <path fill="#FF0000" d="M1.86741962,3.630425 C1.86741962,4.62414437 2.21236652,5.95967389 3.75,6.24868459 C5.28763348,6.53769529 6.77565,5.1003125 6.77565,5.1003125 C6.77565,5.1003125 5.67690658,7.4489785 3.45168,7.4489785 C1.22645342,7.4489785 0.02573,5.93506604 0.02573,3.630425 C0.02573,1.32578396 1.69956801,0.0110713199 3.45168,0.0110713199 C5.20379199,0.0110713199 6.87763,1.878875 6.87763,1.878875 C6.87763,1.878875 5.06206,0.958403321 3.75,1.18848148 C2.43794,1.41855964 1.86741962,2.63670563 1.86741962,3.630425 Z M3.21097,2.839825 L4.33477,2.8479625 L5.0182,1.7319625 L5.64592,2.8385875 L6.70999,2.839825 L5.67101,3.630425 L6.35068,4.9112 L5.06206,4.1911625 L3.92254,4.8791125 L4.30551,3.6198 L3.21097,2.839825 Z" transform="translate(6.25 3.75)"/>
      </g>
    </g>
  </g>
</svg>
