<svg width="20" height="15" viewBox="0 0 20 15" fill="none" xmlns="http://www.w3.org/2000/svg">
<g clip-path="url(#clip0_270_60994)">
<rect width="20" height="15" fill="white"/>
<path fill-rule="evenodd" clip-rule="evenodd" d="M0 0H20V15H0V0Z" fill="#F7FCFF"/>
<path fill-rule="evenodd" clip-rule="evenodd" d="M0 0V5H20V0H0Z" fill="#272727"/>
<path fill-rule="evenodd" clip-rule="evenodd" d="M0 10V15H20V10H0Z" fill="#5EAA22"/>
<path fill-rule="evenodd" clip-rule="evenodd" d="M0 0L10 7.5L0 15V0Z" fill="#E31D1C"/>
<path fill-rule="evenodd" clip-rule="evenodd" d="M13.555 9.67319C13.555 9.67319 12.1332 8.81396 12.1332 7.39408C12.1332 5.9742 13.555 5.22723 13.555 5.22723C12.9186 4.82347 10.712 5.39971 10.712 7.44034C10.712 9.48097 12.8979 9.85799 13.555 9.67319ZM14.7053 7.07034L13.8779 6.29507L14.1636 7.28484L13.3629 7.66413L14.3464 7.98424L14.7735 9.05564L14.9602 8.06386L15.9316 8.27837L15.1966 7.5606L15.4453 6.79479L14.7053 7.07034Z" fill="#E31D1C"/>
</g>
<defs>
<clipPath id="clip0_270_60994">
<rect width="20" height="15" fill="white"/>
</clipPath>
</defs>
</svg>
