<svg xmlns="http://www.w3.org/2000/svg" xmlns:xlink="http://www.w3.org/1999/xlink" width="20" height="15" viewBox="0 0 20 15">
  <defs>
    <rect id="a" width="20" height="15"/>
    <rect id="c" width="20" height="15"/>
  </defs>
  <g fill="none" fill-rule="evenodd">
    <mask id="b" fill="white">
      <use xlink:href="#a"/>
    </mask>
    <use fill="#FFFFFF" xlink:href="#a"/>
    <g mask="url(#b)">
      <mask id="d" fill="white">
        <use xlink:href="#c"/>
      </mask>
      <g mask="url(#d)">
        <polygon fill="#F7FCFF" points="0 0 20 0 20 15 0 15"/>
        <rect width="20" height="5" fill="#272727"/>
        <rect width="20" height="5" y="10" fill="#5EAA22"/>
        <polygon fill="#E31D1C" points="0 0 10 7.5 0 15"/>
        <path fill="#E31D1C" d="M3.41130724,4.14624692 C3.98882405,5.44337091 5.63710969,5.65005271 5.63710969,5.65005271 C5.11200857,6.08613099 2.96175076,6.63078144 2.13175237,4.76657454 C1.30175399,2.90236764 3.08318294,1.47845063 3.82877401,1.58846426 C3.82877401,1.58846426 2.83379043,2.84912293 3.41130724,4.14624692 Z M4.55809173,2.43264321 L5.6293609,2.80432203 L6.19324692,2.25164123 L6.27760264,3.05236843 L7.24098825,3.40913769 L6.26632959,3.60827198 L6.49908777,4.59027841 L5.67315581,3.78521762 L4.64452044,3.89279114 L5.22171588,3.22061999 L4.55809173,2.43264321 Z" transform="rotate(24 .132 26.287)"/>
      </g>
    </g>
  </g>
</svg>
