<svg xmlns="http://www.w3.org/2000/svg" xmlns:xlink="http://www.w3.org/1999/xlink" width="20" height="15" viewBox="0 0 20 15">
  <defs>
    <rect id="a" width="20" height="15"/>
    <rect id="c" width="21.25" height="15"/>
  </defs>
  <g fill="none" fill-rule="evenodd">
    <mask id="b" fill="white">
      <use xlink:href="#a"/>
    </mask>
    <use fill="#FFFFFF" xlink:href="#a"/>
    <g mask="url(#b)">
      <mask id="d" fill="white">
        <use xlink:href="#c"/>
      </mask>
      <g mask="url(#d)">
        <rect width="20.25" height="7.5" fill="#43B764"/>
        <rect width="20.25" height="7.5" y="7.5" fill="#B4D7F4"/>
        <polygon fill="#BE0027" points="0 0 20.875 7.5 0 15"/>
        <path fill="#F3E294" fill-rule="nonzero" d="M5.88580214,11.3682109 C6.02766581,11.4055153 6.14579054,11.4768152 6.24017632,11.5821104 C6.39039442,11.5701908 6.53838343,11.5466053 6.68418451,11.511303 C6.98429891,11.3461535 7.64860269,10.8143849 7.81679377,10.6052736 C8.01710183,10.3562313 8.02276044,9.72799166 8.12939089,9.38336871 C8.23602133,9.03874577 8.42470375,9.80220104 8.42470375,9.92105482 C8.42470375,10.0399086 8.58004073,9.4802183 8.58004073,9.08756418 C8.58004073,8.69491006 8.42470375,8.5829339 8.42470375,8.19334963 C8.42470375,7.80376537 8.81088678,8.19210034 8.88030815,8.42109262 C8.94972952,8.6500849 8.58004073,8.13679483 8.58004073,7.57549035 C8.58004073,7.01418586 8.42470375,7.31846213 8.65009276,7.19601997 C8.87548177,7.07357781 8.87504516,7.46197803 9.01204443,7.31846213 C9.14904369,7.17494624 8.43814137,6.99305148 7.98986864,6.54374887 C7.54159591,6.09444626 8.12939089,5.94023945 8.22963504,6.09689818 C8.32987918,6.25355691 8.9272446,6.42970562 8.58004073,5.90821336 C8.23283686,5.3867211 7.75266026,5.73382238 7.46281554,5.51895932 C7.17297081,5.30409626 7.90726956,5.07861643 7.75266026,5.07861643 C7.59805097,5.07861643 7.34001305,4.94502961 7.02254734,4.94502961 C6.70508162,4.94502961 6.07766963,4.66097174 6.29466598,4.66097174 C6.45668672,4.66097174 6.78254717,4.54026366 7.03239088,4.52725954 C6.6514798,4.35115858 6.21576203,4.20266852 5.72467137,4.08171892 L5.80823999,3.75 C6.29372361,3.86956865 6.7305814,4.01648839 7.11835718,4.19070247 C7.0515144,4.08787672 6.97920258,3.97625209 6.91905625,3.87129862 C6.71132578,3.50881546 7.35975763,4.07175072 7.61648571,4.44445076 C7.61672201,4.44479381 7.61695876,4.44513723 7.61719594,4.44548101 C8.03484188,4.68783264 8.37941531,4.97061021 8.65009276,5.29371128 C8.65009276,5.12303399 8.65009276,4.87851225 8.65009276,4.56014607 C8.89256745,4.64319477 9.03058502,5.42658782 9.10311415,6.01680041 C9.15599148,6.13539826 9.20155685,6.25794887 9.23978489,6.38444909 C9.33416001,6.13251006 9.512312,5.86549622 9.67255842,6.09689818 C9.82061127,6.31069214 9.73024397,7.10605964 9.40145652,8.48300066 C9.39625165,8.53694739 9.39028613,8.59052487 9.38355975,8.64373255 C9.93414734,8.29321099 9.99083236,7.08824913 9.99083236,7.98913034 C9.99083236,8.47755168 9.7327507,8.96273416 9.21658737,9.44467777 C9.16945031,9.60338481 9.11443058,9.75823731 9.0515213,9.90921744 C9.70387249,9.70325367 10.099746,9.06846487 9.99083236,9.80220104 C9.92614225,10.2380092 9.49718742,10.4973862 8.70396785,10.580332 C8.67269116,10.6301435 8.64039976,10.6794541 8.60709334,10.728263 L8.58742951,10.7521245 C8.51548854,10.8249159 8.4427996,10.894367 8.36936827,10.9604711 C8.6089356,10.8586737 8.8009941,10.7427457 9.06079846,10.7427457 C9.3360098,10.7427457 8.18980527,11.056303 7.97945513,11.2834725 C7.79148424,11.4864734 7.85771907,11.5371045 7.54462308,11.5455801 C7.18573582,11.7362678 6.81183776,11.8568765 6.42345682,11.9067547 C6.43432986,11.9380857 6.44429977,11.9707101 6.45336654,12.0046278 L4.8083422,12.0046278 C4.81936612,11.9633886 4.83172517,11.9240614 4.84541934,11.8866461 C4.50566111,11.8282249 4.17722772,11.7147865 3.86048194,11.5467787 C3.85202817,11.5469267 3.84333603,11.5470007 3.83440551,11.5470007 C3.37290622,11.5470007 3.48089502,11.5106421 3.27054487,11.2834725 C3.06019473,11.056303 1.9139902,10.7427457 2.18920154,10.7427457 C2.46441288,10.7427457 2.66360515,10.872831 2.92377762,10.9784053 C2.98388881,11.0027976 3.05962532,11.03095 3.15098714,11.0628625 C3.03739177,10.9671245 2.92552865,10.863537 2.81541775,10.7521245 L2.79575391,10.728263 C2.76544841,10.6838518 2.73598325,10.6390252 2.70735822,10.5937839 C1.81647394,10.5290297 1.336671,10.2651688 1.26794941,9.80220104 C1.15685582,9.05377907 1.57095841,9.72921263 2.24673735,9.92105482 C2.29169692,9.93381808 2.33292167,9.94491307 2.37041161,9.9543398 C2.32353547,9.84515063 2.28082871,9.73391427 2.2422887,9.62063757 C1.59272918,9.08087773 1.26794941,8.53704199 1.26794941,7.98913034 C1.26794941,7.07503193 1.32630993,8.32902127 1.89977604,8.65859939 C1.53650355,7.17352323 1.43198598,6.31962283 1.58622335,6.09689818 C1.8175794,5.7628112 2.08625815,6.46763159 2.08625815,6.66606918 C2.08625815,6.86450677 2.19667246,4.70126364 2.60868901,4.56014607 C2.60868901,4.92779363 2.60868901,5.19696588 2.60868901,5.36766282 C2.60868901,5.40531288 2.62548675,5.41998726 2.65495843,5.41644382 C2.88112231,5.11772787 3.16677692,4.85141947 3.51132866,4.61759244 C3.56248199,4.5543287 3.60723869,4.49534463 3.64229606,4.44445076 C3.89902414,4.07175072 4.54745599,3.50881546 4.33972552,3.87129862 C4.25974611,4.0108602 4.15825534,4.16221793 4.07671721,4.28899712 C4.51414483,4.0711271 5.02035984,3.89143009 5.59460727,3.75 L5.67817589,4.08171892 C5.17556344,4.20550619 4.73095264,4.35814138 4.3437365,4.53969998 C4.57075288,4.57391219 4.82651825,4.66097174 4.96411579,4.66097174 C5.18111215,4.66097174 4.55370015,4.94502961 4.23623444,4.94502961 C3.91876872,4.94502961 3.66073081,5.07861643 3.50612151,5.07861643 C3.35151221,5.07861643 4.08581096,5.30409626 3.79596624,5.51895932 C3.55644126,5.69652015 3.18693454,5.49030342 2.86990627,5.70765879 C2.75766996,5.86847721 2.6640974,6.03891432 2.58907295,6.2189845 C2.66483611,6.3182326 2.96119716,6.20308787 3.02914674,6.09689818 C3.12939089,5.94023945 3.71718586,6.09444626 3.26891313,6.54374887 C2.97779604,6.83553479 2.57591601,7.01454257 2.36743644,7.14350095 C2.36016876,7.20503109 2.35374291,7.26612141 2.34815863,7.32677258 C2.40670348,7.26533175 2.45561526,7.11286294 2.60868901,7.19601997 C2.83407803,7.31846213 2.67874105,7.01418586 2.67874105,7.57549035 C2.67874105,8.13679483 2.30905225,8.6500849 2.37847362,8.42109262 C2.44789499,8.19210034 2.83407803,7.80376537 2.83407803,8.19334963 C2.83407803,8.5829339 2.67874105,8.69491006 2.67874105,9.08756418 C2.67874105,9.4802183 2.83407803,10.0399086 2.83407803,9.92105482 C2.83407803,9.80220104 3.02276044,9.03874577 3.12939089,9.38336871 C3.23602133,9.72799166 3.24167994,10.3562313 3.441988,10.6052736 C3.58789619,10.7866807 4.10716952,11.2109136 4.43813815,11.4279609 C4.63260497,11.4966429 4.83106963,11.5435909 5.03363564,11.5689328 C5.12394205,11.4729811 5.23508379,11.4068667 5.36706086,11.3705895 C5.37429462,10.9686604 5.36921137,10.5302979 5.34393714,10.1148192 C5.3052859,10.0674125 5.24221093,10.0437091 5.15471223,10.0437091 C4.90482441,10.0437091 4.35595413,9.83011406 4.35595413,9.52264852 C4.62889445,9.64595451 4.80345272,9.67678101 4.87962897,9.61512801 C4.99389334,9.52264852 4.14055869,8.97429499 4.24825641,8.71047901 C4.51586919,8.94740175 4.67824049,9.06586313 4.7353703,9.06586313 C4.82106501,9.06586313 4.59111162,8.51333651 4.7353703,8.61190776 C4.87962897,8.71047901 5.28031106,9.39041798 5.28031106,9.61512801 C5.28031106,9.72845779 5.30102287,9.88698671 5.34244648,10.0907148 C5.342127,10.0856322 5.34180446,10.0805532 5.34147885,10.0754779 C5.32487068,9.81660777 5.30092902,9.58409752 5.26906785,9.38508732 C5.08897803,8.2602162 5.08254684,7.10720323 5.33306056,6.49352915 C5.20820701,6.41616656 5.11712116,6.31751038 5.11712116,6.20484129 C5.39006147,6.31575926 5.56461975,6.34348875 5.64079599,6.28802976 C5.75506036,6.20484129 4.90172572,5.71157849 5.00942344,5.47426696 C5.27703622,5.6873871 5.43940751,5.79394716 5.49653732,5.79394716 C5.58223204,5.79394716 5.35227865,5.29693053 5.49653732,5.38559874 C5.64079599,5.47426696 6.04147809,6.08589538 6.04147809,6.28802976 C6.04147809,6.28961454 6.04148309,6.29120914 6.0414931,6.29281356 C6.19672338,6.10041107 6.37768804,5.920863 6.47284823,5.87588432 C6.66044118,5.7872161 6.36141144,6.28423273 6.47284823,6.28423273 C6.54713943,6.28423273 6.7582859,6.17767267 7.10628764,5.96455253 C7.24633699,6.20186406 6.13666671,6.69512686 6.28525528,6.77831533 C6.38431433,6.83377432 6.61130867,6.80604483 6.9662383,6.69512686 C6.9662383,6.97170266 6.25249131,7.1638387 5.92753897,7.1638387 C5.82094151,7.1638387 5.74221989,7.18255282 5.6913741,7.21998106 C5.66847825,7.41557788 5.65794625,7.63831165 5.65910534,7.87744208 C5.82152577,7.66829509 6.02434242,7.46280267 6.1271023,7.41423189 C6.31469525,7.32556368 6.01566551,7.82258031 6.1271023,7.82258031 C6.2013935,7.82258031 6.41253997,7.71602024 6.76054172,7.50290011 C6.90059106,7.74021164 5.79092078,8.23347443 5.93950935,8.31666291 C6.0385684,8.3721219 6.26556274,8.3443924 6.62049237,8.23347443 C6.62049237,8.47935595 6.05637731,8.65849989 5.70284104,8.69523416 C5.72258154,8.89724312 5.74884018,9.1021105 5.78130864,9.30491392 C5.81597397,9.52143936 5.84149787,9.76931558 5.85905744,10.0430151 C5.86680691,10.1638054 5.87287577,10.2863272 5.87744841,10.4093166 C5.89527665,10.2960614 5.90419077,10.2022594 5.90419077,10.1279105 C5.90419077,9.9032005 6.30487286,9.22326153 6.44913153,9.12469029 C6.59339021,9.02611904 6.36343682,9.57864565 6.44913153,9.57864565 C6.50626134,9.57864565 6.66863264,9.46018428 6.93624541,9.22326153 C7.04394313,9.48707752 6.19060849,10.035431 6.30487286,10.1279105 C6.3810491,10.1895635 6.55560738,10.158737 6.82854769,10.035431 C6.82854769,10.3428966 6.27967741,10.5564916 6.02978959,10.5564916 C5.96918228,10.5564916 5.92029312,10.5678641 5.88312209,10.5906092 C5.88987285,10.8546647 5.89016021,11.1180185 5.88580214,11.3682109 Z M5.70110298,7.14386512 C5.7342747,7.02275501 5.75436931,6.92138581 5.76138682,6.83975752 C5.73676539,6.92944413 5.71671838,7.03157337 5.70110298,7.14386512 Z M8.63571244,9.992671 C8.65517738,9.95240506 8.67400719,9.91181462 8.69220169,9.87089922 C8.60117815,9.9437373 8.5823484,9.9843279 8.63571244,9.992671 Z"/>
      </g>
    </g>
  </g>
</svg>
