<svg xmlns="http://www.w3.org/2000/svg" xmlns:xlink="http://www.w3.org/1999/xlink" width="20" height="15" viewBox="0 0 20 15">
  <defs>
    <rect id="a" width="20" height="15"/>
    <rect id="c" width="20" height="15"/>
    <rect id="e" width="20" height="15"/>
  </defs>
  <g fill="none" fill-rule="evenodd">
    <mask id="b" fill="white">
      <use xlink:href="#a"/>
    </mask>
    <use fill="#FFFFFF" xlink:href="#a"/>
    <g mask="url(#b)">
      <mask id="d" fill="white">
        <use xlink:href="#c"/>
      </mask>
      <g mask="url(#d)">
        <mask id="f" fill="white">
          <use xlink:href="#e"/>
        </mask>
        <use fill="#F7FCFF" xlink:href="#e"/>
        <rect width="20" height="15" fill="#3D58DB" mask="url(#f)"/>
        <path fill="#FFD018" d="M10,2.64222051 L9.26526843,3.02849176 L9.40558968,2.21035613 L8.81117935,1.57126708 L9.63263422,1.57126708 L10,0.767220513 L10.3673658,1.57126708 L11.1888206,1.57126708 L10.5944103,2.21035613 L10.7347316,3.02849176 L10,2.64222051 Z M10,13.4977715 L9.26526843,13.8840428 L9.40558968,13.0659071 L8.81117935,12.4268181 L9.63263422,12.4268181 L10,11.6227715 L10.3673658,12.4268181 L11.1888206,12.4268181 L10.5944103,13.0659071 L10.7347316,13.8840428 L10,13.4977715 Z M4.21772933,8.125 L3.48299777,8.51127124 L3.62331901,7.69313562 L3.02890869,7.05404657 L3.85036355,7.05404657 L4.21772933,6.25 L4.58509512,7.05404657 L5.40654998,7.05404657 L4.81213966,7.69313562 L4.9524609,8.51127124 L4.21772933,8.125 Z M5.42895069,10.71318 L4.69421913,11.0994513 L4.83454037,10.2813156 L4.24013005,9.64222659 L5.06158491,9.64222659 L5.42895069,8.83818003 L5.79631647,9.64222659 L6.61777134,9.64222659 L6.02336101,10.2813156 L6.16368226,11.0994513 L5.42895069,10.71318 Z M14.5780769,10.71318 L13.8433453,11.0994513 L13.9836666,10.2813156 L13.3892562,9.64222659 L14.2107111,9.64222659 L14.5780769,8.83818003 L14.9454427,9.64222659 L15.7668975,9.64222659 L15.1724872,10.2813156 L15.3128085,11.0994513 L14.5780769,10.71318 Z M5.42895069,5.46947054 L4.69421913,5.85574178 L4.83454037,5.03760616 L4.24013005,4.39851711 L5.06158491,4.39851711 L5.42895069,3.59447054 L5.79631647,4.39851711 L6.61777134,4.39851711 L6.02336101,5.03760616 L6.16368226,5.85574178 L5.42895069,5.46947054 Z M14.5780769,5.46947054 L13.8433453,5.85574178 L13.9836666,5.03760616 L13.3892563,4.39851711 L14.2107111,4.39851711 L14.5780769,3.59447054 L14.9454427,4.39851711 L15.7668975,4.39851711 L15.1724872,5.03760616 L15.3128085,5.85574178 L14.5780769,5.46947054 Z M7.25450693,12.7955669 L6.51977537,13.1818382 L6.66009661,12.3637025 L6.06568629,11.7246135 L6.88714115,11.7246135 L7.25450693,10.9205669 L7.62187272,11.7246135 L8.44332758,11.7246135 L7.84891726,12.3637025 L7.9892385,13.1818382 L7.25450693,12.7955669 Z M12.8121413,12.7955669 L12.0774098,13.1818382 L12.217731,12.3637025 L11.6233207,11.7246135 L12.4447756,11.7246135 L12.8121413,10.9205669 L13.1795071,11.7246135 L14.000962,11.7246135 L13.4065517,12.3637025 L13.5468729,13.1818382 L12.8121413,12.7955669 Z M7.25450693,3.35382539 L6.51977537,3.74009663 L6.66009661,2.92196101 L6.06568629,2.28287196 L6.88714115,2.28287196 L7.25450693,1.47882539 L7.62187272,2.28287196 L8.44332758,2.28287196 L7.84891726,2.92196101 L7.9892385,3.74009663 L7.25450693,3.35382539 Z M12.8121413,3.35382539 L12.0774098,3.74009663 L12.217731,2.92196101 L11.6233207,2.28287196 L12.4447756,2.28287196 L12.8121413,1.47882539 L13.1795071,2.28287196 L14.000962,2.28287196 L13.4065517,2.92196101 L13.5468729,3.74009663 L12.8121413,3.35382539 Z M15.7344767,8.05110403 L14.9997451,8.43737527 L15.1400664,7.61923965 L14.5456561,6.9801506 L15.3671109,6.9801506 L15.7344767,6.17610403 L16.1018425,6.9801506 L16.9232974,6.9801506 L16.328887,7.61923965 L16.4692083,8.43737527 L15.7344767,8.05110403 Z" mask="url(#f)"/>
      </g>
    </g>
  </g>
</svg>
