<svg width="20" height="15" viewBox="0 0 20 15" fill="none" xmlns="http://www.w3.org/2000/svg">
<g clip-path="url(#clip0_270_60969)">
<rect width="20" height="15" fill="white"/>
<path fill-rule="evenodd" clip-rule="evenodd" d="M0 0V15H20V0H0Z" fill="#2E42A5"/>
<g clip-path="url(#clip1_270_60969)">
<rect width="11" height="9" fill="#2E42A5"/>
<path d="M-1.25267 8.12488L1.22293 9.21063L11.3062 1.18046L12.612 -0.432999L9.9647 -0.795888L5.85199 2.66454L2.54167 4.99607L-1.25267 8.12488Z" fill="#F7FCFF"/>
<path d="M-0.913754 8.88561L0.347447 9.51569L12.1431 -0.582886H10.3722L-0.913754 8.88561Z" fill="#F50100"/>
<path d="M12.5027 8.1249L10.3056 9.5206L-0.0561752 1.18047L-1.36199 -0.432984L1.2853 -0.795875L5.39801 2.66456L8.70833 4.99608L12.5027 8.1249Z" fill="#F7FCFF"/>
<path d="M12.4182 8.67082L11.157 9.3009L6.13429 4.97718L4.64517 4.4941L-1.48764 -0.427482H0.283229L6.41259 4.37728L8.04069 4.95655L12.4182 8.67082Z" fill="#F50100"/>
<path fill-rule="evenodd" clip-rule="evenodd" d="M6 0H5V4H0V5H5V9H6V5H11V4H6V0Z" fill="#F50100"/>
<path fill-rule="evenodd" clip-rule="evenodd" d="M4.0625 0H6.9375V3.0625L11 3V5.875L6.9375 5.9375V9H4.0625V5.9375L0 5.875V3L4.0625 3.0625V0ZM5 4H0V5H5V9H6V5H11V4H6V0H5V4Z" fill="#F7FCFF"/>
</g>
<path d="M14.352 11.4961C14.352 11.4961 14.967 12.0851 14.5957 12.4842C14.2243 12.8833 13.8838 12.6515 13.8838 12.6515" stroke="#B85F3C" stroke-width="0.625"/>
<path d="M18.1562 11.4961C18.1562 11.4961 17.5412 12.0851 17.9125 12.4842C18.2839 12.8833 18.6244 12.6515 18.6244 12.6515" stroke="#B85F3C" stroke-width="0.625"/>
<path d="M13.9504 11.9707C13.9504 11.9707 15.0099 12.9832 16.3124 12.9832C17.6149 12.9832 18.663 12.2097 18.663 12.2097" stroke="#CB8B73" stroke-width="0.625"/>
</g>
<defs>
<clipPath id="clip0_270_60969">
<rect width="20" height="15" fill="white"/>
</clipPath>
<clipPath id="clip1_270_60969">
<rect width="11" height="9" fill="white"/>
</clipPath>
</defs>
</svg>
