<svg xmlns="http://www.w3.org/2000/svg" xmlns:xlink="http://www.w3.org/1999/xlink" width="20" height="15" viewBox="0 0 20 15">
  <defs>
    <rect id="a" width="20" height="15"/>
    <rect id="c" width="20" height="15"/>
    <rect id="e" width="20" height="15"/>
  </defs>
  <g fill="none" fill-rule="evenodd">
    <mask id="b" fill="white">
      <use xlink:href="#a"/>
    </mask>
    <use fill="#FFFFFF" xlink:href="#a"/>
    <g mask="url(#b)">
      <mask id="d" fill="white">
        <use xlink:href="#c"/>
      </mask>
      <g mask="url(#d)">
        <mask id="f" fill="white">
          <use xlink:href="#e"/>
        </mask>
        <use fill="#F7FCFF" xlink:href="#e"/>
        <g fill="#E31D1C" mask="url(#f)">
          <polygon points="8.75 0 11.25 0 11.25 6.25 20 6.25 20 8.75 11.25 8.75 11.25 15 8.75 15 8.75 8.75 0 8.75 0 6.25 8.75 6.25"/>
        </g>
        <g fill="#E31D1C" mask="url(#f)">
          <path d="M2.49917677 9.51371932L3.87499809 9.375 3.87499809 10.625C2.95778388 10.5675684 2.49917677 10.547143 2.49917677 10.5637238 2.49917677 10.5803045 2.54111721 11.0173966 2.62499809 11.875L1.37499809 11.875 1.47513535 10.625.124998093 10.625.124998093 9.375 1.47513535 9.51371932 1.37499809 8.125 2.62499809 8.125 2.49917677 9.51371932zM2.49917677 2.01371932L3.87499809 1.875 3.87499809 3.125C2.95778388 3.06756838 2.49917677 3.04714297 2.49917677 3.06372376 2.49917677 3.08030454 2.54111721 3.51739662 2.62499809 4.375L1.37499809 4.375 1.47513535 3.125.124998093 3.125.124998093 1.875 1.47513535 2.01371932 1.37499809.625 2.62499809.625 2.49917677 2.01371932zM11.2491768 2.01371932L12.6249981 1.875 12.6249981 3.125C11.7077839 3.06756838 11.2491768 3.04714297 11.2491768 3.06372376 11.2491768 3.08030454 11.2911172 3.51739662 11.3749981 4.375L10.1249981 4.375 10.2251353 3.125 8.87499809 3.125 8.87499809 1.875 10.2251353 2.01371932 10.1249981.625 11.3749981.625 11.2491768 2.01371932zM11.2491768 9.51371932L12.6249981 9.375 12.6249981 10.625C11.7077839 10.5675684 11.2491768 10.547143 11.2491768 10.5637238 11.2491768 10.5803045 11.2911172 11.0173966 11.3749981 11.875L10.1249981 11.875 10.2251353 10.625 8.87499809 10.625 8.87499809 9.375 10.2251353 9.51371932 10.1249981 8.125 11.3749981 8.125 11.2491768 9.51371932z" transform="translate(3.75 1.25)"/>
        </g>
      </g>
    </g>
  </g>
</svg>
