<svg width="20" height="15" viewBox="0 0 20 15" fill="none" xmlns="http://www.w3.org/2000/svg">
<g clip-path="url(#clip0_270_61011)">
<rect width="20" height="15" fill="white"/>
<path fill-rule="evenodd" clip-rule="evenodd" d="M0 0V15.36H20.48V0H0Z" fill="#F7FCFF"/>
<mask id="mask0_270_61011" style="mask-type:luminance" maskUnits="userSpaceOnUse" x="0" y="0" width="21" height="16">
<path fill-rule="evenodd" clip-rule="evenodd" d="M0 0V15.36H20.48V0H0Z" fill="white"/>
</mask>
<g mask="url(#mask0_270_61011)">
<path fill-rule="evenodd" clip-rule="evenodd" d="M0 0V5.12H20.48V0H0Z" fill="#009D00"/>
<path fill-rule="evenodd" clip-rule="evenodd" d="M0 5.12V10.24H20.48V5.12H0Z" fill="white"/>
<path fill-rule="evenodd" clip-rule="evenodd" d="M0 10.24V15.36H20.48V10.24H0Z" fill="#F80000"/>
</g>
<path fill-rule="evenodd" clip-rule="evenodd" d="M0 0V15.36L5.12 7.77725L0 0Z" fill="#0075D5"/>
<mask id="mask1_270_61011" style="mask-type:luminance" maskUnits="userSpaceOnUse" x="0" y="0" width="6" height="16">
<path fill-rule="evenodd" clip-rule="evenodd" d="M0 0V15.36L5.12 7.77725L0 0Z" fill="white"/>
</mask>
<g mask="url(#mask1_270_61011)">
</g>
<path d="M9.32582 5.68896L9.31557 5.69128L9.30784 5.68415L9.18152 5.56745L9.16573 5.7387L9.16477 5.74917L9.15559 5.75431L9.00557 5.83839L9.16356 5.90632L9.17322 5.91048L9.17527 5.92079L9.20888 6.08945L9.32231 5.96018L9.32924 5.95228L9.33969 5.95351L9.51048 5.97368L9.42259 5.82585L9.41722 5.81681L9.42162 5.80726L9.49357 5.65106L9.32582 5.68896Z" fill="#FFD500" stroke="black" stroke-width="0.04"/>
<path d="M9.96582 5.68896L9.95557 5.69128L9.94784 5.68415L9.82152 5.56745L9.80573 5.7387L9.80477 5.74917L9.79559 5.75431L9.64557 5.83839L9.80356 5.90632L9.81322 5.91048L9.81527 5.92079L9.84888 6.08945L9.96231 5.96018L9.96924 5.95228L9.97969 5.95351L10.1505 5.97368L10.0626 5.82585L10.0572 5.81681L10.0616 5.80726L10.1336 5.65106L9.96582 5.68896Z" fill="#FFD500" stroke="black" stroke-width="0.04"/>
<path d="M10.6058 5.68896L10.5956 5.69128L10.5878 5.68415L10.4615 5.56745L10.4457 5.7387L10.4448 5.74917L10.4356 5.75431L10.2856 5.83839L10.4436 5.90632L10.4532 5.91048L10.4553 5.92079L10.4889 6.08945L10.6023 5.96018L10.6092 5.95228L10.6197 5.95351L10.7905 5.97368L10.7026 5.82585L10.6972 5.81681L10.7016 5.80726L10.7736 5.65106L10.6058 5.68896Z" fill="#FFD500" stroke="black" stroke-width="0.04"/>
<path d="M11.2458 5.68896L11.2356 5.69128L11.2278 5.68415L11.1015 5.56745L11.0857 5.7387L11.0848 5.74917L11.0756 5.75431L10.9256 5.83839L11.0836 5.90632L11.0932 5.91048L11.0953 5.92079L11.1289 6.08945L11.2423 5.96018L11.2492 5.95228L11.2597 5.95351L11.4305 5.97368L11.3426 5.82585L11.3372 5.81681L11.3416 5.80726L11.4136 5.65106L11.2458 5.68896Z" fill="#FFD500" stroke="black" stroke-width="0.04"/>
<path d="M11.8858 5.68896L11.8756 5.69128L11.8678 5.68415L11.7415 5.56745L11.7257 5.7387L11.7248 5.74917L11.7156 5.75431L11.5656 5.83839L11.7236 5.90632L11.7332 5.91048L11.7353 5.92079L11.7689 6.08945L11.8823 5.96018L11.8892 5.95228L11.8997 5.95351L12.0705 5.97368L11.9826 5.82585L11.9772 5.81681L11.9816 5.80726L12.0536 5.65106L11.8858 5.68896Z" fill="#FFD500" stroke="black" stroke-width="0.04"/>
<path d="M12.5258 5.68896L12.5156 5.69128L12.5078 5.68415L12.3815 5.56745L12.3657 5.7387L12.3648 5.74917L12.3556 5.75431L12.2056 5.83839L12.3636 5.90632L12.3732 5.91048L12.3753 5.92079L12.4089 6.08945L12.5223 5.96018L12.5292 5.95228L12.5397 5.95351L12.7105 5.97368L12.6226 5.82585L12.6172 5.81681L12.6216 5.80726L12.6936 5.65106L12.5258 5.68896Z" fill="#FFD500" stroke="black" stroke-width="0.04"/>
<path d="M9.64 6.43999H12.12V8.31999C12.12 9.00483 11.5648 9.55999 10.88 9.55999C10.1952 9.55999 9.64 9.00483 9.64 8.31999V6.43999Z" stroke="#373737" stroke-width="0.08"/>
<path fill-rule="evenodd" clip-rule="evenodd" d="M10.7049 7.65428C10.7049 7.65428 10.5758 9.16806 10.4469 9.2598C10.318 9.35154 11.0645 9.39735 11.1358 9.32858C11.2071 9.2598 10.8103 8.02626 10.9468 7.65428C11.0833 7.2823 11.3032 7.25216 11.3032 7.25216C11.3032 7.25216 11.026 7.19357 10.9468 7.30519C10.8676 7.41681 10.6314 7.25216 10.6314 7.25216L10.7049 7.65428Z" fill="#6F3E1D"/>
<path fill-rule="evenodd" clip-rule="evenodd" d="M10.6767 7.56875H10.5773C10.5773 7.56875 10.5101 7.83162 10.3558 7.70018C10.2016 7.56875 9.984 7.61508 9.984 7.61508C9.984 7.61508 10.0035 7.45777 10.2403 7.39524C10.4771 7.3327 10.5773 6.82491 10.5773 6.82491C10.5773 6.82491 10.9125 6.70016 11.1163 6.9558C11.3202 7.21143 11.6074 7.10237 11.6074 7.10237C11.6074 7.10237 11.8173 7.22173 11.7124 7.39524C11.6074 7.56875 11.4284 7.69568 11.2724 7.56875C11.1163 7.44182 10.6767 7.56875 10.6767 7.56875Z" fill="#009D29"/>
</g>
<defs>
<clipPath id="clip0_270_61011">
<rect width="20" height="15" fill="white"/>
</clipPath>
</defs>
</svg>
