<svg xmlns="http://www.w3.org/2000/svg" xmlns:xlink="http://www.w3.org/1999/xlink" width="20" height="15" viewBox="0 0 20 15">
  <defs>
    <rect id="a" width="20" height="15"/>
    <rect id="c" width="20" height="15"/>
    <rect id="e" width="20" height="15"/>
    <rect id="g" width="20" height="10"/>
    <path id="i" d="M0.120451905,0.127892495 L4.44100239,0.127892495 L4.44100239,2.81473578 C4.20618393,4.2783519 3.46158799,5.37068626 2.20721459,6.09173887 C0.992190966,5.36074937 0.296603406,4.26841501 0.120451905,2.81473578 L0.120451905,0.127892495 Z"/>
  </defs>
  <g fill="none" fill-rule="evenodd">
    <mask id="b" fill="white">
      <use xlink:href="#a"/>
    </mask>
    <use fill="#FFFFFF" xlink:href="#a"/>
    <g mask="url(#b)">
      <mask id="d" fill="white">
        <use xlink:href="#c"/>
      </mask>
      <g mask="url(#d)">
        <mask id="f" fill="white">
          <use xlink:href="#e"/>
        </mask>
        <use fill="#2E42A5" xlink:href="#e"/>
        <g mask="url(#f)">
          <mask id="h" fill="white">
            <use xlink:href="#g"/>
          </mask>
          <g mask="url(#h)">
            <g transform="translate(-3.75 -1.25)">
              <g transform="translate(1.25)">
                <polygon fill="#FFFFFF" fill-rule="nonzero" points="1.086 1.424 5.05 .507 13.501 5.176 14.395 5.699 22.422 9.896 24.324 11.222 19.974 11.623 12.961 7.667 7.892 5.176" transform="matrix(1 0 0 -1 0 12.13)"/>
                <polygon fill="#F50100" fill-rule="nonzero" points="1.434 1.441 3.569 .741 23.531 11.962 20.534 11.962" transform="matrix(1 0 0 -1 0 12.703)"/>
              </g>
              <g transform="matrix(-1 0 0 1 26.25 0)">
                <polygon fill="#FFFFFF" fill-rule="nonzero" points="1.018 1.671 .861 .727 5.05 .505 11.804 4.46 12.441 4.243 25.05 10.621 19.844 11.623 12.884 7.778 7.439 5.147" transform="matrix(1 0 0 -1 0 12.128)"/>
                <polygon fill="#F50100" fill-rule="nonzero" points="1.004 1.614 3.138 .914 11.638 5.718 14.158 6.255 24.537 11.723 21.54 11.723 11.167 6.385 8.412 5.741" transform="matrix(1 0 0 -1 0 12.637)"/>
              </g>
              <path fill="#F50100" stroke="#FFFFFF" stroke-width=".938" d="M13.7379808,4.11458333 L23.7379808,4.11458333 L23.7379808,7.55208333 L13.7379808,7.55208333 L13.7379808,13.3854167 L10.3004808,13.3854167 L10.3004808,7.55208333 L0.300480769,7.55208333 L0.300480769,4.11458333 L10.7692308,4.11458333 L10.3004808,4.58333333 L10.3004808,-0.46875 L13.7379808,-0.46875 L13.7379808,4.11458333 Z" transform="translate(1.73 .417)"/>
            </g>
          </g>
        </g>
        <g mask="url(#f)">
          <g transform="translate(8.75 2.5)">
            <path fill="#5EAA22" d="M1.34672723 1.49022149C1.40159101 2.10924015 1.36888738 2.59412986 1.24861634 2.9448906 1.06820979 3.47103171.976537961 3.77644827.976537961 3.44013599.976537961 3.10382371.849846698 2.83729808.747951452 2.83729808.646056206 2.83729808.72648793 3.17081204.624084337 3.17081204.521680744 3.17081204.168888223 3.22814903.168888223 3.03272356.168888223 2.83729808.122459236 3.55698009.351384642 3.62134143.580310049 3.68570277.240226192 3.88541139.0884000155 3.82356282.504754686 3.96130866.794568715 4.08887013.957842103 4.20624725 1.44728571 4.82819748 1.9209141 5.10123348 2.37872726 5.02535525 1.75534374 4.80632491 1.49857224 4.48756399 1.60841275 4.0690725 1.77317352 3.44133527 2.37872726 3.35053266 2.37872726 3.35053266 2.56817108 3.41502726 2.66005002 3.53173811 2.65436406 3.70066521 2.64583514 3.95405587 2.86216485 3.62134143 2.86216485 3.62134143 2.88539817 3.40790773 2.88421203 3.27514937 2.85860642 3.22306637 2.82019801 3.14494187 3.50945948 2.99371841 3.55295136 2.66403073 3.0834274 2.68588427 2.83254895 2.66858037 2.80031601 2.61211905 2.75196661 2.52742706 3.01828373 2.39464967 2.93497137 2.22954884 2.8794298 2.11948162 2.4372436 2.43323602 1.60841275 3.17081204 1.8946307 2.66878977 2.03773967 2.28298341 2.03773967 2.01339296 2.03773967 1.60900728 1.92867109 1.33265899 1.60841275 1.33265899 1.39490719 1.33265899 1.30767868 1.38517982 1.34672723 1.49022149zM8.39224128 1.61014946C8.39224128 1.61014946 8.39224128 1.61014946 8.39224128 1.61014946 8.56624643 1.76388569 8.52239683 1.91566119 8.26069248 2.06547596 8.38303456 2.18624152 8.51415032 2.2466243 8.65403976 2.2466243 8.79392921 2.2466243 8.88102592 2.18624152 8.9153299 2.06547596 8.92602401 2.33422882 9.15948688 2.51948897 9.61571851 2.62125642 9.77850238 2.3833618 9.77850238 2.19929631 9.61571851 2.06905996 9.80802414 2.02844597 9.89719189 1.9288723 9.88322177 1.77033895 9.72514482 1.82516316 9.58973635 1.78958453 9.47699638 1.66360306 9.30788642 1.47463085 8.97830839 1.3874832 8.73870771 1.43105703 8.6571779 1.40112851 8.58015448 1.38010263 8.50763745 1.36797938L8.50764376 1.36794161C8.43163099 1.35523395 8.35970888 1.40655288 8.34700122 1.48256565 8.33906285 1.53005023 8.35616222 1.57827305 8.39224128 1.61014946z"/>
            <path fill="#96877D" d="M3.6697581,3.74486723 C4.14154138,4.64813421 4.22999368,5.19334958 3.93511501,5.38051335 C3.49279701,5.66125901 6.03825775,5.46155039 6.27808437,5.38051335 C6.51791098,5.29947631 6.22967848,4.87228652 5.96370025,4.75368986 C5.69772203,4.63509319 4.60421207,4.24051238 4.31332486,3.9429197 C4.02243766,3.64532702 4.20007654,3.53973331 4.43436783,3.2459669 C4.66865912,2.95220049 5.53601134,2.8347282 5.53601134,2.56015026 C5.53601134,2.28557233 6.08615529,1.1531668 6.47069123,1.0677324 C6.85522717,0.982298004 6.64748287,0.847750249 6.55908705,0.847750249 C6.47069123,0.847750249 5.93907368,1.4054724 5.73754251,1.30484712 C5.53601134,1.20422185 5.51138477,1.21130331 5.73754251,0.968077974 C5.96370025,0.724852639 6.13393987,0.444906503 5.8349756,0.646328376 C5.53601134,0.847750249 5.04308461,1.1665302 4.80613862,1.1665302 C4.56919264,1.1665302 3.72567622,1.05779551 3.83039562,1.30484712 C3.93511501,1.55189873 3.97951061,1.98072687 4.43436783,2.27043857 C4.88922505,2.56015026 4.69153471,2.77215446 4.31332486,3.05132101 C4.06118496,3.23743204 3.84666271,3.46861412 3.6697581,3.74486723 Z"/>
            <path fill="#FFD018" fill-rule="nonzero" d="M8.36552484 1.95314344L7.01705083 4.70589C6.99084274 5.22428338 7.29908904 5.31076477 7.94178973 4.96533416 8.90584076 4.44718824 8.86788422 4.07969469 9.14583683 4.07969469 9.42378944 4.07969469 9.51207229 3.92258906 9.51207229 3.92258906 9.38863821 3.82379126 9.32692118 3.77439236 9.32692118 3.77439236 9.31264982 3.59419583 9.34460034 3.4838621 9.42277275 3.44339117 9.2694027 3.35738569 9.18175999 3.35028519 9.1598446 3.42208968 9.12697152 3.52979642 8.96475248 3.19679643 9.05653728 3.19679643 8.92131709 3.41967209 8.83943564 3.57458856 8.81089292 3.66154585 8.61519832 3.58056592 8.5220391 3.35247435 8.53141527 2.97727115 8.54079144 2.60206794 8.48549463 2.26069204 8.36552484 1.95314344zM1.94697157 1.51723384C1.94697157 1.51723384 1.26030831 1.67993611 1.33435746 1.84926297 1.40840662 2.01858984 1.51753168 1.84469429 1.18134515 2.04874316.787621312 2.35861418.547851179 2.49675977.462034746 2.46317994.333310098 2.41281019.553198232 2.58025248.553198232 2.04874316.553198232 1.51723384.210233744 1.94988825.553198232 1.5950728.896162719 1.24025735 1.01641493 1.51723384 1.18134515 1.31307075 1.34627537 1.10890767 1.19800762 1.21747103 1.64540908 1.21747103 2.09281055 1.21747103 1.94697157 1.51723384 1.94697157 1.51723384zM4.04220669 4.25301916C2.76049553 5.27823193 1.99155544 5.82910105 1.73538643 5.90562652 1.3511329 6.02041471 2.5256959 5.87404548 2.8126293 5.67102457 3.00391823 5.5356773 3.41377736 5.06300882 4.04220669 4.25301916z"/>
            <path fill="#5EAA22" d="M7.85378929,6.95077018 C7.97680916,7.75851358 7.87773806,8.12263772 7.556576,8.04314261 C7.23541393,7.96364751 7.00818301,7.90334087 6.87488324,7.86222271 C6.99270668,8.23845387 7.135778,8.42656945 7.3040972,8.42656945 C7.59087998,8.9954468 7.67910635,9.3696982 7.56877631,9.54932364 C8.06277622,9.1413782 8.26984272,8.77523621 8.18997582,8.4508977 C8.07017548,7.96438992 8.38150952,8.53096389 8.38150952,8.53096389 C8.56330931,8.62031974 8.71991771,8.61510383 8.85133472,8.51531614 C9.04846022,8.36563462 8.84884947,8.43216609 8.65172396,8.1471944 C8.45459846,7.86222271 8.50326094,7.06190342 7.90367907,6.64712399 C7.50395782,6.37060437 7.25757407,6.23676095 7.16452782,6.24559374 C6.87013867,5.75567849 6.81113282,5.52692065 6.98751025,5.55932024 C8.25148576,6.00035057 8.89989123,6.27738417 8.93272665,6.39042104 C8.98197978,6.55997634 9.48479103,6.52890928 9.23338541,6.04411476 C8.98197978,5.55932024 7.62672782,5.26715287 7.46541251,5.13043499 C7.3040972,4.99371711 7.4541724,4.47517143 7.16452782,4.36221071 C6.87488324,4.24924999 6.08355708,3.44767432 6.08406542,3.06139205 C6.08457377,2.67510979 5.71212518,2.49327615 5.3883649,2.49327615 C5.06460461,2.49327615 4.45498411,2.39807619 4.19742184,2.39807619 C3.93985958,2.39807619 3.69980703,2.83661278 3.94861444,2.83661278 C4.19742184,2.83661278 3.98487649,3.65766247 3.56825824,3.83709755 C3.15163998,4.01653263 2.82957418,4.27443486 2.35381827,4.27443486 C1.87806237,4.27443486 3.02726452,4.69195551 3.21043873,4.52708311 C3.39361295,4.36221071 3.33351509,4.11652971 3.94861444,3.83709755 C4.56371379,3.55766539 5.1507976,3.39222191 5.07646603,3.61465973 C5.00213447,3.83709755 5.19176075,4.20915979 5.48156177,4.07449781 C5.77136278,3.93983584 5.86429026,3.59969729 5.86429026,3.83709755 C5.86429026,4.07449781 6.30858516,5.29382257 6.6480477,5.76970815 C6.87435607,6.08696521 7.27626993,6.48065255 7.85378929,6.95077018 Z"/>
            <path fill="#FFD018" fill-rule="nonzero" d="M3.80927099 2.49841592C3.65898869 2.74212103 3.65898869 2.86397359 3.80927099 2.86397359 4.03469446 2.86397359 4.3972281 2.86397359 4.1763537 2.68119475 4.02910411 2.5593422 3.9067432 2.49841592 3.80927099 2.49841592zM4.56247117 2.4896317C4.56318662 2.65166246 4.61562162 2.73267785 4.71977619 2.73267785 4.87600804 2.73267785 5.01501258 2.97572399 5.01501258 2.73267785 5.01501258 2.4896317 5.23213305 2.57023287 4.89730211 2.4896317 4.67408148 2.43589759 4.56247117 2.43589759 4.56247117 2.4896317zM5.52465826 2.54530204C5.42426923 2.6222463 5.39917197 2.72934388 5.44936649 2.86659477 5.52465826 3.07247111 5.69501085 3.47988354 5.44936649 3.47988354 5.20372213 3.47988354 5.00161276 3.62676674 5.19349871 3.62676674 5.38538466 3.62676674 5.72675427 3.77364995 5.72675427 3.62676674 5.72675427 3.47988354 5.86564585 3.86896412 5.86564585 3.62676674 5.86564585 3.38456936 5.86564585 3.26883851 5.86564585 3.12679544 5.86564585 2.98475237 6.00453743 2.94391975 5.86564585 2.7446109 5.77305146 2.61173833 5.65938893 2.54530204 5.52465826 2.54530204zM5.87264973 3.96262215C6.08190024 4.63296237 6.24342266 5.01134462 6.35721698 5.0977689 6.52790846 5.22740532 6.60449935 6.31937799 6.67939574 6.43810668 6.75429214 6.55683537 7.77493909 7.15607543 7.77493909 7.4776537 7.77493909 7.79923198 8.08921024 7.23054499 7.93207466 6.91210769 7.77493909 6.59367038 7.28020265 5.91568564 6.92436118 5.76782758 6.56851971 5.61996952 6.61364959 5.26195599 6.53886616 5.0103357 6.46408273 4.75871541 6.98157954 5.21364216 6.53886616 4.64289926 6.09615278 4.07215636 6.10790123 4.37842954 6.23255911 4.37842954 6.35721698 4.37842954 6.48187486 4.31098434 6.35721698 4.22229475 6.27411173 4.16316836 6.11258931 4.07661083 5.87264973 3.96262215zM2.54506955 6.03623378C1.86539136 7.2580142 1.4649084 7.90046641 1.34362067 7.9635904 1.16168908 8.05827638 1.02607351 8.07752196.93310257 7.9635904.84013163 7.84965883.830586011 8.2693496.93310257 8.38425201 1.03561913 8.49915442 1.34362067 8.49915442 1.51453808 8.29510556 1.53257497 8.63882291 1.63034696 8.94024187 1.80785406 9.19936241 2.07411469 9.58804324 2.18504721 9.48073626 2.18504721 9.70054709 2.18504721 9.92035792 2.24796922 10.2113831 2.32924819 10.2113831 2.41052716 10.2113831 2.47344917 10.9032533 2.32924819 10.9032533 2.18504721 10.9032533 2.66340134 10.9600192 2.8719364 10.7869802 3.08047146 10.6139413 3.16960156 10.4821348 3.12503651 10.4821348 3.08047146 10.4821348 2.54506955 10.1952785 2.54506955 9.9923147 2.54506955 9.78935089 2.18504721 9.63041779 2.18504721 9.32911305 2.18504721 9.02780832 1.99799797 8.66956635 1.99799797 8.52690918 1.99799797 8.38425201 2.1579354 8.58196251 2.32924819 8.44687188 2.44345672 8.35681146 2.51539717 8.19571764 2.54506955 7.9635904 2.36519018 8.08641186 2.24518273 8.11711723 2.18504721 8.0557065 2.09484394 7.9635904 1.81094873 7.78175676 1.99799797 7.46977272 2.12269747 7.26178337 2.30505466 6.78393705 2.54506955 6.03623378z"/>
            <path fill="#5EAA22" d="M4.31185631,0.256334055 C4.06847126,0.366515493 3.98734292,0.503461808 4.06847126,0.667172998 C4.19016378,0.912739784 4.23390983,1.02147447 4.31185631,0.967107128 C4.38980278,0.912739784 4.93672721,0.809944385 4.81421569,0.53313922 C4.69170416,0.256334055 4.43503631,0.256334055 4.43503631,0.256334055 C4.43503631,0.256334055 4.39397631,0.256334055 4.31185631,0.256334055 Z"/>
            <path fill="#FFD018" fill-rule="nonzero" d="M5.57826058,0.123553224 C5.2568161,-0.0212314108 5.14966794,-0.0212314108 5.2568161,0.123553224 C5.41753834,0.340730176 5.62316453,0.455221121 5.77109338,0.455221121 C5.91902224,0.455221121 6.22640246,0.410331295 6.07271235,0.322712115 C5.97025227,0.264299328 5.80543502,0.197913031 5.57826058,0.123553224 Z"/>
            <path fill="#5EAA22" d="M0.521737227,6.46032191 C0.521737227,6.46032191 0.521737227,6.46032191 0.521737227,6.46032191 C0.623387714,6.68510118 0.725038201,6.83651499 0.826688688,6.91456335 C0.888594004,7.2586995 0.983523019,7.4775966 1.11147573,7.57125463 C1.28333453,7.56230762 1.37351898,7.42389552 1.38202908,7.15601832 C1.67389532,7.06887067 1.86271783,7.11804113 1.94849661,7.30352972 C1.89190069,7.32439338 1.86360273,7.41363501 1.86360273,7.57125463 C1.86360273,7.72887424 1.9296313,7.89306133 2.06168844,8.06381591 C2.12216286,7.52018054 2.28827922,7.07311574 2.56003753,6.7226215 C2.83179585,6.37212726 3.0065541,6.1622914 3.0843123,6.0931139 L3.0843123,5.50152638 C2.52204333,5.96787484 2.18116872,6.39492309 2.06168844,6.78267115 C1.77852058,6.79228442 1.57941817,6.77226787 1.46438122,6.7226215 C1.2918258,6.64815194 1.67992017,6.52599675 1.46438122,6.26129859 C1.24884227,5.99660044 1.34763096,6.63398902 1.11147573,6.46032191 C0.993643887,6.42696907 0.907833398,6.36748363 0.854044267,6.28186558 L0.853999741,6.28189356 C0.798468847,6.19350309 0.681797529,6.16686514 0.593407058,6.22239603 C0.513415807,6.27265015 0.482812072,6.37424689 0.521737227,6.46032191 Z"/>
            <g transform="translate(2.535 5.127)">
              <mask id="j" fill="white">
                <use xlink:href="#i"/>
              </mask>
              <use fill="#5EAA22" xlink:href="#i"/>
              <g mask="url(#j)">
                <g transform="translate(.282 -.142)">
                  <polygon fill="#58A5FF" points="1.893 .125 .005 4.112 2.565 1.746 4.327 4.718 4.327 .125 2.565 1.595"/>
                  <path fill="#FFD018" fill-rule="nonzero" d="M1.97415627,2.85725798 L1.97415627,2.85725798 C2.05194285,2.85725798 2.11500134,2.92031647 2.11500134,2.99810305 L2.11500134,5.56333148 C2.11500134,5.64111806 2.05194285,5.70417655 1.97415627,5.70417655 L1.97415627,5.70417655 C1.89636968,5.70417655 1.8333112,5.64111806 1.8333112,5.56333148 L1.8333112,2.99810305 C1.8333112,2.92031647 1.89636968,2.85725798 1.97415627,2.85725798 Z"/>
                  <path fill="#FFD018" fill-rule="nonzero" d="M1.20514087,3.49103066 L1.20514087,3.49103066 C1.20514087,3.41324408 1.26819935,3.35018559 1.34598594,3.35018559 L2.61373615,3.35018559 C2.69152274,3.35018559 2.75458122,3.41324408 2.75458122,3.49103066 L2.75458122,3.49103066 C2.75458122,3.56881725 2.69152274,3.63187573 2.61373615,3.63187573 L1.34598594,3.63187573 C1.26819935,3.63187573 1.20514087,3.56881725 1.20514087,3.49103066 Z"/>
                  <g transform="translate(.845 4.415)">
                    <path fill="#FFD018" fill-rule="nonzero" d="M1.18467345,1.19434588 L1.07564459,1.28449646 C0.914970829,1.08584788 0.768462223,0.990301815 0.638983265,0.990301815 C0.448314065,0.990301815 0.293272535,0.828410552 0.166840461,0.521348725 L0.296867826,0.466617678 C0.403823312,0.726377294 0.520201196,0.847896752 0.638983265,0.847896752 C0.818955576,0.847896752 0.999897474,0.965898606 1.18467345,1.19434588 Z"/>
                    <path fill="#FFD018" d="M0.0386259629,0.0337906587 L0.0386259629,0.72578254 C0.0386259629,0.726560405 0.0392565478,0.72719099 0.0400344136,0.72719099 C0.0402213227,0.72719099 0.0404063624,0.727153788 0.0405787484,0.727081552 L0.551911561,0.512813982 C0.552628986,0.512513354 0.552966866,0.511688059 0.552666239,0.510970634 C0.552589282,0.510786982 0.552474257,0.510621735 0.552328754,0.510485796 L0.0409959418,0.0327614857 C0.0404275453,0.0322304484 0.0395362781,0.032260734 0.0390052407,0.0328291305 C0.0387615264,0.0330899904 0.0386259629,0.0334336648 0.0386259629,0.0337906587 Z"/>
                  </g>
                  <g transform="matrix(-1 0 0 1 3.099 4.415)">
                    <path fill="#FFD018" fill-rule="nonzero" d="M1.18467345,1.19434588 L1.07564459,1.28449646 C0.914970829,1.08584788 0.768462223,0.990301815 0.638983265,0.990301815 C0.448314065,0.990301815 0.293272535,0.828410552 0.166840461,0.521348725 L0.296867826,0.466617678 C0.403823312,0.726377294 0.520201196,0.847896752 0.638983265,0.847896752 C0.818955576,0.847896752 0.999897474,0.965898606 1.18467345,1.19434588 Z"/>
                    <path fill="#FFD018" d="M0.0386259629,0.0337906587 L0.0386259629,0.72578254 C0.0386259629,0.726560405 0.0392565478,0.72719099 0.0400344136,0.72719099 C0.0402213227,0.72719099 0.0404063624,0.727153788 0.0405787484,0.727081552 L0.551911561,0.512813982 C0.552628986,0.512513354 0.552966866,0.511688059 0.552666239,0.510970634 C0.552589282,0.510786982 0.552474257,0.510621735 0.552328754,0.510485796 L0.0409959418,0.0327614857 C0.0404275453,0.0322304484 0.0395362781,0.032260734 0.0390052407,0.0328291305 C0.0387615264,0.0330899904 0.0386259629,0.0334336648 0.0386259629,0.0337906587 Z"/>
                  </g>
                  <rect width="1" height="1" x="1.69" y="1.851" fill="#FFFFFF"/>
                </g>
              </g>
            </g>
          </g>
        </g>
      </g>
    </g>
  </g>
</svg>
