<svg xmlns="http://www.w3.org/2000/svg" xmlns:xlink="http://www.w3.org/1999/xlink" width="20" height="15" viewBox="0 0 20 15">
  <defs>
    <rect id="a" width="20" height="15"/>
    <rect id="c" width="20" height="15"/>
  </defs>
  <g fill="none" fill-rule="evenodd">
    <mask id="b" fill="white">
      <use xlink:href="#a"/>
    </mask>
    <use fill="#FFFFFF" xlink:href="#a"/>
    <g mask="url(#b)">
      <mask id="d" fill="white">
        <use xlink:href="#c"/>
      </mask>
      <g mask="url(#d)">
        <rect width="6" height="15" x="14" fill="#58A5FF"/>
        <rect width="6" height="15" fill="#58A5FF"/>
        <rect width="8" height="15" x="6" fill="#FFFFFF"/>
        <g transform="translate(5.375 4.75)">
          <polygon fill="#C6C6C6" fill-rule="nonzero" points="2.603 5.898 2.149 5.469 6.953 .389 7.408 .818"/>
          <path fill="#5AB92D" d="M2.7404866,0.315897493 C1.71511307,0.934719548 1.2024263,2.01979236 1.2024263,3.57111594 C1.2024263,5.12243951 2.45061311,6.00303899 4.94698672,6.21291439 C3.45307881,5.30171969 2.608363,4.51995613 2.41283929,3.86762371 C2.21731558,3.21529128 2.32653135,2.03138254 2.7404866,0.315897493 Z"/>
          <path fill="#5AB92D" d="M5.8654866,0.315897493 C4.84011307,0.934719548 4.3274263,2.01979236 4.3274263,3.57111594 C4.3274263,5.12243951 5.57561311,6.00303899 8.07198672,6.21291439 C6.50206738,5.31257512 5.60709706,4.43197564 5.38707577,3.57111594 C5.16705447,2.71025624 5.32652475,1.62518342 5.8654866,0.315897493 Z" transform="matrix(-1 0 0 1 12.4 0)"/>
          <path fill="#5AB92D" fill-rule="nonzero" d="M3.8797894,-0.000273952006 L4.5022308,0.0562212528 C4.4817616,0.281742631 4.60495675,0.511278691 4.9095594,0.757641861 C5.8899757,1.55060432 6.41693735,2.53974969 6.00396953,3.66378519 C5.70430751,4.47941954 5.29729284,5.16810163 4.78230376,5.72745548 L4.322504,5.30412442 C4.77979476,4.80743943 5.14493751,4.189606 5.41731053,3.44824814 C5.71391825,2.64092712 5.31244722,1.88733678 4.51652251,1.24359145 C4.0630281,0.876804353 3.83820268,0.457911745 3.8797894,-0.000273952006 Z"/>
          <path fill="#EFE298" d="M3.48365113,1.38058244 L4.1394405,3.23443375 L3.65738456,3.23443375 C3.54156227,3.62446256 3.59294936,3.81947696 3.81154582,3.81947696 C4.03014228,3.81947696 4.7026923,3.81947696 5.82919588,3.81947696 C5.9756489,3.72168059 6.01226216,3.52666619 5.93903565,3.23443375 C5.86580914,2.94220132 5.64419974,2.39272569 5.27420747,1.58600686 C5.43230733,1.45212242 5.51135727,1.33555909 5.51135727,1.23631689 C5.51135727,1.13707468 5.43230733,1.08198832 5.27420747,1.0710578 L3.77726049,1.0710578 C3.64987972,1.09307748 3.55200993,1.19625236 3.48365113,1.38058244 Z"/>
        </g>
      </g>
    </g>
  </g>
</svg>
