<svg width="20" height="15" viewBox="0 0 20 15" fill="none" xmlns="http://www.w3.org/2000/svg">
<g clip-path="url(#clip0_270_61031)">
<rect width="20" height="15" fill="white"/>
<path fill-rule="evenodd" clip-rule="evenodd" d="M0 0V15H20V0H0Z" fill="#2E42A5"/>
<mask id="mask0_270_61031" style="mask-type:luminance" maskUnits="userSpaceOnUse" x="0" y="0" width="20" height="15">
<path fill-rule="evenodd" clip-rule="evenodd" d="M0 0V15H20V0H0Z" fill="white"/>
</mask>
<g mask="url(#mask0_270_61031)">
<path fill-rule="evenodd" clip-rule="evenodd" d="M0 7.5V15H20V7.5H0Z" fill="#E31D1C"/>
<rect x="6.25" y="5" width="7.5" height="5" fill="white"/>
<mask id="mask1_270_61031" style="mask-type:luminance" maskUnits="userSpaceOnUse" x="6" y="5" width="8" height="5">
<rect x="6.25" y="5" width="7.5" height="5" fill="white"/>
</mask>
<g mask="url(#mask1_270_61031)">
<path fill-rule="evenodd" clip-rule="evenodd" d="M6.25 9.11111C6.25 9.11111 8.05021 8.63778 10 8.66667C11.9498 8.69556 13.75 9.22223 13.75 9.22223V10H6.25V9.11111Z" fill="#279E19"/>
<path d="M10.046 5.56323C10.046 5.56323 9.4641 5.30112 9.05788 5.30112C8.65167 5.30112 8.42601 5.70119 8.42601 5.70119" stroke="#026A16" stroke-width="0.5"/>
<path d="M10.1753 5.82596C10.1753 5.82596 9.63986 5.63445 9.26607 5.63445C8.89228 5.63445 8.68463 5.92676 8.68463 5.92676" stroke="#026A16" stroke-width="0.5"/>
<path d="M10.1753 6.04819C10.1753 6.04819 9.7792 5.85667 9.50268 5.85667C9.22617 5.85667 9.07256 6.14899 9.07256 6.14899" stroke="#026A16" stroke-width="0.5"/>
<path d="M10.0125 6.2704C10.0125 6.2704 9.76775 6.07889 9.59691 6.07889C9.42608 6.07889 9.33118 6.3712 9.33118 6.3712" stroke="#026A16" stroke-width="0.5"/>
<path d="M9.99152 6.42203C9.99152 6.42203 9.89367 6.30112 9.82537 6.30112C9.75706 6.30112 9.71912 6.48567 9.71912 6.48567" stroke="#026A16" stroke-width="0.5"/>
<path d="M9.954 5.56323C9.954 5.56323 10.5359 5.30112 10.9421 5.30112C11.3483 5.30112 11.574 5.70119 11.574 5.70119" stroke="#026A16" stroke-width="0.5"/>
<path d="M9.82469 5.82596C9.82469 5.82596 10.3601 5.63445 10.7339 5.63445C11.1077 5.63445 11.3154 5.92676 11.3154 5.92676" stroke="#026A16" stroke-width="0.5"/>
<path d="M9.82469 6.04819C9.82469 6.04819 10.2208 5.85667 10.4973 5.85667C10.7738 5.85667 10.9274 6.14899 10.9274 6.14899" stroke="#026A16" stroke-width="0.5"/>
<path d="M9.98753 6.2704C9.98753 6.2704 10.2323 6.07889 10.4031 6.07889C10.5739 6.07889 10.6688 6.3712 10.6688 6.3712" stroke="#026A16" stroke-width="0.5"/>
<path d="M10.0085 6.42203C10.0085 6.42203 10.1063 6.30112 10.1746 6.30112C10.2429 6.30112 10.2809 6.48567 10.2809 6.48567" stroke="#026A16" stroke-width="0.5"/>
<path fill-rule="evenodd" clip-rule="evenodd" d="M9.92974 6.49889C9.92974 6.49889 9.85834 7.33477 9.85834 7.67495C9.85834 8.01514 9.92974 8.74916 9.92974 8.74916H10.1134C10.1134 8.74916 10.1134 7.95895 10.1134 7.67495C10.1134 7.39096 10.0056 6.49889 10.0056 6.49889H9.92974Z" fill="#FECA00"/>
<path fill-rule="evenodd" clip-rule="evenodd" d="M9.20752 7.44905C9.20752 7.44905 8.7549 7.69131 8.7549 8.4085L9.20752 9.27447H10.0243V7.84839L9.20752 7.44905Z" fill="#C51918"/>
<path fill-rule="evenodd" clip-rule="evenodd" d="M8.53684 6.76622C8.53684 6.76622 7.48009 7.07928 7.48009 8.23416L8.84922 8.35096C8.84922 8.35096 8.77443 7.68 9.19575 7.36962L8.53684 6.76622Z" fill="#0A328C"/>
<path d="M8.10057 6.32556L9.91336 7.98685" stroke="#FFD018" stroke-width="0.5"/>
<path d="M7.47096 6.70172L9.99938 8.34358" stroke="#FFD018" stroke-width="0.5"/>
<path d="M7.03572 7.33722L9.88547 8.64052" stroke="#FFD018" stroke-width="0.5"/>
<path fill-rule="evenodd" clip-rule="evenodd" d="M7.48737 8.22513L9.3784 8.43656L9.27194 8.70047H8.97213L9.17632 8.84958L9.63676 8.95734V8.70047H10.04V9.2462H9.17632L8.84506 8.84958C8.84506 8.84958 8.56684 9.12384 8.29531 9.12384C8.02378 9.12384 7.75609 9.03477 7.75609 8.73566C7.75609 8.43656 7.75609 8.52757 7.75609 8.52757L7.48737 8.43656V8.22513Z" fill="#FECA00"/>
<path fill-rule="evenodd" clip-rule="evenodd" d="M10.5339 7.44905C10.5339 7.44905 10.9865 7.69131 10.9865 8.4085L10.5339 9.27447H9.71704V7.84839L10.5339 7.44905Z" fill="#C51918"/>
<path fill-rule="evenodd" clip-rule="evenodd" d="M11.2045 6.76622C11.2045 6.76622 12.2613 7.07928 12.2613 8.23416L10.8922 8.35096C10.8922 8.35096 10.9669 7.68 10.5456 7.36962L11.2045 6.76622Z" fill="#0A328C"/>
<path d="M11.6408 6.32556L9.82801 7.98685" stroke="#FFD018" stroke-width="0.5"/>
<path d="M12.2704 6.70172L9.742 8.34358" stroke="#FFD018" stroke-width="0.5"/>
<path d="M12.7057 7.33722L9.85591 8.64052" stroke="#FFD018" stroke-width="0.5"/>
<path fill-rule="evenodd" clip-rule="evenodd" d="M12.254 8.22513L10.363 8.43656L10.4694 8.70047H10.7692L10.5651 8.84958L10.1046 8.95734V8.70047H9.70137V9.2462H10.5651L10.8963 8.84958C10.8963 8.84958 11.1745 9.12384 11.4461 9.12384C11.7176 9.12384 11.9853 9.03477 11.9853 8.73566C11.9853 8.43656 11.9853 8.52757 11.9853 8.52757L12.254 8.43656V8.22513Z" fill="#FECA00"/>
</g>
</g>
</g>
<defs>
<clipPath id="clip0_270_61031">
<rect width="20" height="15" fill="white"/>
</clipPath>
</defs>
</svg>
