<svg xmlns="http://www.w3.org/2000/svg" xmlns:xlink="http://www.w3.org/1999/xlink" width="20" height="15" viewBox="0 0 20 15">
  <defs>
    <rect id="im---isle-of-man-a" width="20" height="15" x="0" y="0"/>
    <rect id="im---isle-of-man-c" width="20" height="15" x="0" y="0"/>
  </defs>
  <g fill="none" fill-rule="evenodd">
    <mask id="im---isle-of-man-b" fill="#fff">
      <use xlink:href="#im---isle-of-man-a"/>
    </mask>
    <g mask="url(#im---isle-of-man-b)">
      <mask id="im---isle-of-man-d" fill="#fff">
        <use xlink:href="#im---isle-of-man-c"/>
      </mask>
      <use fill="#E31D1C" xlink:href="#im---isle-of-man-c"/>
      <g mask="url(#im---isle-of-man-d)">
        <g transform="translate(3.75 .75)">
          <g transform="translate(0 1.317)">
            <path fill="#F7FCFF" d="M0.133112105,0.448361346 C0.776839523,1.18297348 1.27035034,1.55027955 1.61364457,1.55027955 C2.15052488,1.55027955 4.25901949,-0.226372643 4.88224065,0.0630472416 C5.29772142,0.255993831 5.92606577,1.36114044 6.7672737,3.37848708 L5.94500149,4.40990237 L4.88224065,3.83013646 L4.68138141,1.55027955 C3.31760796,2.25172951 2.29502902,2.47514856 1.61364457,2.22053671 L1.03909372,2.70332837 C0.670223947,1.97290976 0.413160287,1.49599725 0.267902744,1.27259082 C0.137170956,1.07152504 0.0652684725,0.802985067 0.0521952932,0.466970898 L0.090116549,0.46549551 C0.0895894276,0.45194714 0.100145235,0.4405367 0.113693605,0.440009578 C0.121094903,0.439721619 0.128230586,0.442790628 0.133112105,0.448361346 Z"/>
            <polygon fill="#FECA00" points="1.414 3.011 1.064 3.223 1.131 2.774 .848 2.456 1.239 2.39 1.414 1.982 1.589 2.39 1.98 2.456 1.697 2.774 1.764 3.223"/>
            <path fill="#FECA00" d="M4.60961392,0.0762195122 C4.73481445,0.0762195122 4.83630952,0.177714589 4.83630952,0.302915112 L4.83630952,1.37391416 C4.83630952,1.49911468 4.73481445,1.60060976 4.60961392,1.60060976 C4.4844134,1.60060976 4.38291832,1.49911468 4.38291832,1.37391416 L4.38291832,0.302915112 C4.38291832,0.177714589 4.4844134,0.0762195122 4.60961392,0.0762195122 Z"/>
          </g>
          <g transform="rotate(122 5.504 4.793)">
            <path fill="#F7FCFF" d="M0.133112105,0.448361346 C0.776839523,1.18297348 1.27035034,1.55027955 1.61364457,1.55027955 C2.15052488,1.55027955 4.25901949,-0.226372643 4.88224065,0.0630472416 C5.29772142,0.255993831 5.92606577,1.36114044 6.7672737,3.37848708 L5.94500149,4.40990237 L4.88224065,3.83013646 L4.68138141,1.55027955 C3.31760796,2.25172951 2.29502902,2.47514856 1.61364457,2.22053671 L1.03909372,2.70332837 C0.670223947,1.97290976 0.413160287,1.49599725 0.267902744,1.27259082 C0.137170956,1.07152504 0.0652684725,0.802985067 0.0521952932,0.466970898 L0.090116549,0.46549551 C0.0895894276,0.45194714 0.100145235,0.4405367 0.113693605,0.440009578 C0.121094903,0.439721619 0.128230586,0.442790628 0.133112105,0.448361346 Z"/>
            <polygon fill="#FECA00" points="1.414 3.011 1.064 3.223 1.131 2.774 .848 2.456 1.239 2.39 1.414 1.982 1.589 2.39 1.98 2.456 1.697 2.774 1.764 3.223"/>
            <path fill="#FECA00" d="M4.63574042,0.00650704271 C4.76447942,0.00180041857 4.87265848,0.102348526 4.8773651,0.231087526 C4.87755514,0.236285651 4.87757125,0.241488679 4.87741341,0.246687881 L4.84318896,1.3740078 C4.83915697,1.5068176 4.74438447,1.61944752 4.6142185,1.64612182 C4.51380414,1.66669925 4.41572092,1.60197864 4.39514348,1.50156429 C4.39267282,1.4895079 4.39140749,1.47723566 4.39136616,1.4649288 L4.38733667,0.26502557 C4.38686968,0.125963552 4.49677046,0.0115877049 4.63574042,0.00650704271 Z"/>
          </g>
          <g transform="rotate(-118 6.282 4.921)">
            <path fill="#F7FCFF" d="M0.133112105,0.698361346 C0.776839523,1.43297348 1.27035034,1.80027955 1.61364457,1.80027955 C2.15052488,1.80027955 4.25901949,0.0236273572 4.88224065,0.313047242 C5.29772142,0.505993831 5.92606577,1.61114044 6.7672737,3.62848708 L5.94500149,4.65990237 L4.88224065,4.08013646 L4.68138141,1.80027955 C3.31760796,2.50172951 2.29502902,2.72514856 1.61364457,2.47053671 L1.03909372,2.95332837 C0.670223947,2.22290976 0.413160287,1.74599725 0.267902744,1.52259082 C0.137170956,1.32152504 0.0652684725,1.05298507 0.0521952932,0.716970898 L0.090116549,0.71549551 C0.0895894276,0.70194714 0.100145235,0.6905367 0.113693605,0.690009578 C0.121094903,0.689721619 0.128230586,0.692790628 0.133112105,0.698361346 Z"/>
            <polygon fill="#FECA00" points="1.414 3.261 1.064 3.473 1.131 3.024 .848 2.706 1.239 2.64 1.414 2.232 1.589 2.64 1.98 2.706 1.697 3.024 1.764 3.473"/>
            <path fill="#FECA00" d="M4.76992276,0.24303952 C4.91084594,0.27354588 5.00556256,0.406082578 4.98878314,0.549290234 L4.86701244,1.58856897 C4.84921461,1.74046849 4.72566817,1.85810169 4.57307895,1.86843407 C4.45320097,1.87655146 4.34944022,1.78595159 4.34132284,1.6660736 C4.34038302,1.65219442 4.34077657,1.63825709 4.34249807,1.62445305 L4.49002384,0.441500462 C4.50591398,0.314083555 4.62208729,0.223673243 4.7495042,0.239563379 C4.75635864,0.240418196 4.76317159,0.24157806 4.76992276,0.24303952 Z"/>
          </g>
          <path fill="#FECA00" fill-rule="nonzero" d="M4.7891171,5.35308151 C4.71133279,5.32590111 4.66978559,5.23927243 4.69631884,5.15959094 C4.72285209,5.07990945 4.84746878,4.94681234 4.92525309,4.97399274 L6.01012152,5.35308151 C6.06609531,5.37264059 6.10545002,5.42429769 6.11037208,5.48467067 L6.20738248,6.67457965 C6.21422246,6.75847731 6.09202163,6.82634631 6.01012152,6.83335311 C5.92822142,6.84035991 5.85628337,6.77802755 5.8494434,6.69412988 L5.75961479,5.67084529 L4.7891171,5.35308151 Z"/>
          <path fill="#FECA00" fill-rule="nonzero" d="M6.67535318,4.72971424 C6.74019841,4.67799006 6.85598596,4.73793978 6.90647862,4.8043666 C6.95697128,4.87079341 6.94533622,4.96657373 6.88049099,5.01829791 L6.12898228,5.78855918 C6.06413705,5.84028337 5.91829981,5.73938989 5.86780715,5.67296307 C5.81731449,5.60653625 5.80296192,5.42558237 5.86780715,5.37385819 L6.67535318,4.72971424 Z"/>
        </g>
      </g>
    </g>
  </g>
</svg>
