<svg xmlns="http://www.w3.org/2000/svg" xmlns:xlink="http://www.w3.org/1999/xlink" width="20" height="15" viewBox="0 0 20 15">
  <defs>
    <rect id="a" width="20" height="15"/>
    <rect id="c" width="20" height="15"/>
    <path id="f" d="M2.43457651,1.0705679 C2.37918398,1.04155961 2.34217673,0.989028177 2.34217673,0.929039601 C2.34217673,0.837668962 2.42803122,0.763598425 2.53393809,0.763598425 C2.63984497,0.763598425 2.72569946,0.837668962 2.72569946,0.929039601 C2.72569946,1.00183793 2.67119996,1.06365435 2.59548101,1.08577664 C2.64807269,1.16730391 2.73989927,1.20806754 2.87096074,1.20806754 C3.11985791,1.20806754 3.08696296,0.796661008 3.22493899,0.796661008 C3.36291503,0.796661008 3.93369007,0.491747859 3.67585405,0.633510537 C3.50396338,0.728018989 3.35365836,1.08720138 3.22493899,1.7110577 C2.71970429,1.53528453 2.26849015,1.44734694 1.87129657,1.44724493 C1.47393512,1.44724484 1.02249035,1.53518246 0.516962261,1.7110577 C0.388242896,1.08720138 0.237937876,0.728018989 0.0660472013,0.633510537 C-0.191788811,0.491747859 0.378986226,0.796661008 0.516962261,0.796661008 C0.654938297,0.796661008 0.622043348,1.20806754 0.870940515,1.20806754 C1.00200198,1.20806754 1.09382856,1.16730391 1.14642025,1.08577664 C1.0707013,1.06365435 1.0162018,1.00183793 1.0162018,0.929039601 C1.0162018,0.837668962 1.10205628,0.763598425 1.20796316,0.763598425 C1.31387004,0.763598425 1.39972452,0.837668962 1.39972452,0.929039601 C1.39972452,0.989028177 1.36271728,1.04155961 1.30732474,1.0705679 C1.37828855,1.09546603 1.45011391,1.10791509 1.52280081,1.10791509 C1.6974857,1.10791509 1.77527351,1.00848242 1.77527351,0.852084183 C1.77527351,0.747818693 1.66167735,0.674960811 1.43448502,0.633510537 C1.43448502,0.443351122 1.54808118,0.395651317 1.77527351,0.490411122 C1.7302694,0.271737764 1.76216177,0.108381761 1.87095063,0.000343112923 C1.97973948,0.108381761 2.01163185,0.271737764 1.96662774,0.490411122 C2.19382007,0.395651317 2.30741623,0.443351122 2.30741623,0.633510537 C2.08022391,0.674960811 1.96662774,0.747818693 1.96662774,0.852084183 C1.96662774,1.00848242 2.04441556,1.10791509 2.21910045,1.10791509 C2.29178735,1.10791509 2.3636127,1.09546603 2.43457651,1.0705679 Z"/>
    <filter id="e" width="100%" height="100%" x="0%" y="0%" filterUnits="objectBoundingBox">
      <feOffset in="SourceAlpha" result="shadowOffsetOuter1"/>
      <feColorMatrix in="shadowOffsetOuter1" values="0 0 0 0 0.03137255 0 0 0 0 0.36862746 0 0 0 0 0 0 0 0 0.28 0"/>
    </filter>
  </defs>
  <g fill="none" fill-rule="evenodd">
    <mask id="b" fill="white">
      <use xlink:href="#a"/>
    </mask>
    <use fill="#FFFFFF" xlink:href="#a"/>
    <g mask="url(#b)">
      <mask id="d" fill="white">
        <use xlink:href="#c"/>
      </mask>
      <g mask="url(#d)">
        <g transform="translate(-2.5)">
          <polygon fill="#F7FCFF" points="2.5 0 22.5 0 22.5 15 2.5 15"/>
          <path fill="#F7FCFF" stroke="#E31D1C" stroke-width="1.688" d="M-0.468765259,0.00379178338 L12.3417354,7.74999619 L-0.468765259,15.4962006 L-0.468765259,0.00379178338 Z"/>
          <path fill="#F7FCFF" stroke="#E31D1C" stroke-width="1.688" d="M13.1437531,0.0342607368 L26.4293553,7.74999619 L13.1437531,15.4657316 L13.1437531,0.0342607368 Z" transform="matrix(-1 0 0 1 38.737 0)"/>
          <g transform="translate(10.5 1.25)">
            <path fill="#E31D1C" d="M0.546654546,1.68938023 C0.18888887,3.27200835 0.627660343,4.36724158 1.86296897,4.97507991 C3.0488822,4.32869328 3.50865664,3.23346006 3.24229231,1.68938023 C2.73297683,1.5190091 2.27583107,1.43382353 1.87085504,1.43382353 C1.465879,1.43382353 1.02447884,1.5190091 0.546654546,1.68938023 Z"/>
            <path fill="#FFD100" d="M.738993837 2.18659165C.871113157 2.12810059.969873417 2.12810059 1.03527462 2.18659165 1.13337642 2.27432823 1.21375114 2.17932225 1.21375114 2.1263972 1.21375114 2.07347216 1.36952367 1.89178523 1.36952367 2.03918844 1.36952367 2.18659165 1.32103716 2.26981784 1.45795382 2.26981784 1.59487048 2.26981784 2.21141876 2.06620276 2.35926412 2.1263972 2.50710949 2.18659165 2.62024467 2.17162101 2.58266122 2.08525194 2.54507776 1.99888287 2.44848956 1.9449022 2.26249634 1.99204532 2.07650312 2.03918844 2.12039752 2.08525194 1.95964808 2.08525194 1.79889863 2.08525194 1.61998598 2.03918844 1.61998598 2.03918844 1.61998598 2.03918844 1.67024759 1.96173372 1.85376616 2.01682829 2.03728473 2.07192285 2.2904182 1.94859727 2.35926412 1.94859727 2.42811004 1.94859727 2.61758329 1.9449022 2.63636342 1.99204532 2.65514356 2.03918844 2.7695497 2.08244812 2.68234422 2.1263972 2.59513873 2.17034629 2.45134091 2.19787572 2.55028017 2.25418398 2.64921942 2.31049224 2.87674152 2.29964039 2.88770424 2.35821183 2.89866695 2.41678327 3.00650004 2.50424776 2.96322176 2.50424776 2.91994347 2.50424776 2.84173107 2.58673611 2.76890079 2.56161979 2.69607051 2.53650346 2.68750494 2.51444993 2.75734261 2.49410271 2.82718029 2.47375549 2.82650084 2.38819007 2.76890079 2.38819007 2.71130074 2.38819007 2.73940987 2.41816831 2.60826193 2.38819007 2.47711398 2.35821183 2.30353514 2.32488522 2.31397109 2.38819007 2.32440705 2.45149491 2.40979559 2.54866896 2.25225621 2.56161979 2.09471683 2.57457062 2.0209749 2.62656669 1.99031149 2.58469425 1.95964808 2.54282181 1.8500483 2.48702759 1.93623081 2.46913631 2.02241331 2.45124504 2.10477107 2.52994952 2.13581173 2.51709864 2.1668524 2.50424776 2.2372092 2.49709411 2.1782808 2.44264209 2.1193524 2.38819007 2.02219955 2.35613247 2.11226786 2.31537557 2.20233617 2.27461867 2.13126047 2.27378157 1.95964808 2.35821183 1.78803569 2.44264209 1.69258527 2.51439282 1.5419243 2.50424776 1.39126333 2.49410271 1.33483132 2.50778889 1.28640758 2.49410271 1.23798384 2.48041653 1.00214045 2.64532183.934226595 2.60347081.866312739 2.56161979.647066107 2.54556333.686534929 2.49410271.726003751 2.44264209.778992743 2.41614786.838012754 2.44264209.897032766 2.46913631.95567697 2.49563054.995475794 2.46913631 1.03527462 2.44264209 1.15021342 2.35172927 1.1213027 2.33355242 1.09239198 2.31537557 1.12035606 2.25418398.956663513 2.25418398.792970966 2.25418398.735424355 2.3223809.69656627 2.27941176.670660879 2.25076568.684803402 2.21982564.738993837 2.18659165zM.902539398 2.96664824C1.0186937 2.91522512 1.10551998 2.91522512 1.16301824 2.96664824 1.24926563 3.04378292 1.31992804 2.96025726 1.31992804 2.91372757 1.31992804 2.86719787 1.45687734 2.7074656 1.45687734 2.83705692 1.45687734 2.96664824 1.41424984 3.03981756 1.53462178 3.03981756 1.65499373 3.03981756 2.19703961 2.86080689 2.32701966 2.91372757 2.45699971 2.96664824 2.55646387 2.95348662 2.52342192 2.87755421 2.49037997 2.8016218 2.40546328 2.75416404 2.24194509 2.79561048 2.0784269 2.83705692 2.11701719 2.87755421 1.97569237 2.87755421 1.83436754 2.87755421 1.67707432 2.83705692 1.67707432 2.83705692 1.67707432 2.83705692 1.72126243 2.76896167 1.882605 2.81739872 2.04394757 2.86583578 2.26649294 2.7574126 2.32701966 2.7574126 2.38754638 2.7574126 2.55412408 2.75416404 2.57063487 2.79561048 2.58714565 2.83705692 2.6877272 2.8750892 2.61105944 2.91372757 2.53439168 2.95236594 2.40797009 2.97656877 2.49495373 3.02607286 2.58193737 3.07557695 2.78196619 3.06603641 2.79160419 3.1175302 2.80124219 3.16902399 2.89604497 3.24591947 2.85799634 3.24591947 2.8199477 3.24591947 2.75118633 3.3184401 2.6871567 3.29635878 2.62312708 3.27427746 2.61559655 3.25488883 2.67699519 3.23700032 2.73839383 3.21911181 2.73779649 3.14388594 2.6871567 3.14388594 2.63651692 3.14388594 2.6612294 3.17024167 2.5459291 3.14388594 2.43062879 3.1175302 2.27802485 3.08823071 2.28719974 3.14388594 2.29637464 3.19954116 2.37144501 3.2849729 2.23294236 3.29635878 2.0944397 3.30774465 2.02960859 3.35345763 2.00265048 3.31664497 1.97569237 3.27983231 1.8793364 3.23078014 1.95510479 3.21505081 2.03087318 3.19932148 2.10327901 3.26851547 2.13056878 3.25721747 2.15785856 3.24591947 2.21971359 3.23963024 2.16790598 3.19175809 2.11609836 3.14388594 2.03068525 3.11570211 2.1098699 3.07987019 2.18905454 3.04403827 2.12656748 3.04330232 1.97569237 3.1175302 1.82481726 3.19175809 1.74090086 3.25483861 1.60844545 3.24591947 1.47599003 3.23700032 1.42637714 3.24903269 1.38380482 3.23700032 1.34123251 3.22496794 1.13388793 3.36994644 1.07418064 3.33315261 1.01447335 3.29635878.82172002 3.28224255.856419513 3.23700032.891119006 3.19175809.937704921 3.16846537.989593079 3.19175809 1.04148124 3.21505081 1.093039 3.23834353 1.12802862 3.21505081 1.16301824 3.19175809 1.26406808 3.11183099 1.23865087 3.09585059 1.21323366 3.07987019 1.23781862 3.02607286 1.09390633 3.02607286.949994045 3.02607286.899401244 3.08602901.865238688 3.04825217.84246365 3.02306762.85489722 2.99586631.902539398 2.96664824zM1.13386696 3.75843092C1.22194651 3.71943688 1.28778668 3.71943688 1.33138748 3.75843092 1.39678868 3.81692197 1.45037183 3.75358465 1.45037183 3.71830129 1.45037183 3.68301793 1.55422018 3.5618933 1.55422018 3.66016211 1.55422018 3.75843092 1.52189584 3.81391505 1.61317362 3.81391505 1.70445139 3.81391505 2.11548357 3.67817166 2.21404715 3.71830129 2.31261073 3.75843092 2.38803418 3.74845049 2.36297854 3.69087111 2.33792291 3.63329173 2.27353077 3.59730462 2.14953529 3.62873337 2.02553982 3.66016211 2.05480275 3.69087111 1.94763645 3.69087111 1.84047015 3.69087111 1.72119506 3.66016211 1.72119506 3.66016211 1.72119506 3.66016211 1.7547028 3.60852563 1.87704851 3.64525534 1.99939422 3.68198505 2.16814987 3.599768 2.21404715 3.599768 2.25994443 3.599768 2.38625992 3.59730462 2.39878002 3.62873337 2.41130011 3.66016211 2.48757087 3.6890019 2.42943388 3.71830129 2.37129689 3.74760068 2.27543168 3.76595363 2.34139118 3.80349247 2.40735068 3.84103131 2.55903208 3.83379674 2.56634056 3.87284437 2.57364903 3.911892 2.64553776 3.97020166 2.61668557 3.97020166 2.58783338 3.97020166 2.53569178 4.02519389 2.48713826 4.00844968 2.43858474 3.99170546 2.43287436 3.97700311 2.47943281 3.96343829 2.52599126 3.94987348 2.5255383 3.89282986 2.48713826 3.89282986 2.44873823 3.89282986 2.46747765 3.91281536 2.38004568 3.89282986 2.29261372 3.87284437 2.17689449 3.85062663 2.1838518 3.89282986 2.1908091 3.9350331 2.24773479 3.99981579 2.14270854 4.00844968 2.03768229 4.01708356 1.988521 4.05174761 1.96807873 4.02383265 1.94763645 3.99591769 1.87456994 3.95872154 1.93202494 3.94679403 1.98947994 3.93486651 2.04438512 3.98733616 2.06507889 3.97876891 2.08577267 3.97020166 2.1326772 3.96543256 2.0933916 3.92913121 2.054106 3.89282986 1.98933743 3.87145813 2.04938297 3.84428687 2.10942851 3.8171156 2.06204471 3.81655753 1.94763645 3.87284437 1.83322819 3.92913121 1.76959458 3.97696503 1.66915393 3.97020166 1.56871329 3.96343829 1.53109195 3.97256242 1.49880945 3.96343829 1.46652696 3.95431417 1.30929804 4.06425104 1.26402213 4.03635036 1.21874623 4.00844968 1.07258181 3.99774537 1.09889435 3.96343829 1.1252069 3.92913121 1.1605329 3.9114684 1.19987957 3.92913121 1.23922625 3.94679403 1.27832238 3.96445684 1.30485493 3.94679403 1.33138748 3.92913121 1.40801335 3.86852267 1.38873954 3.85640477 1.36946572 3.84428687 1.38810844 3.80349247 1.27898008 3.80349247 1.16985171 3.80349247 1.1314873 3.84895709 1.10558191 3.820311 1.08831165 3.8012136 1.09774 3.78058691 1.13386696 3.75843092z"/>
            <use fill="black" filter="url(#e)" xlink:href="#f"/>
            <use fill="#FECA00" xlink:href="#f"/>
          </g>
        </g>
      </g>
    </g>
  </g>
</svg>
