<svg xmlns="http://www.w3.org/2000/svg" xmlns:xlink="http://www.w3.org/1999/xlink" width="20" height="15" viewBox="0 0 20 15">
  <defs>
    <rect id="kn---kenia-a" width="20" height="15" x="0" y="0"/>
    <path id="kn---kenia-c" d="M3,11.3684211 C3.59803072,11.3684211 6,9.10628084 6,6.31578947 C6,3.52529811 3.59803072,1.26315789 3,1.26315789 C2.40196928,1.26315789 0,3.52529811 0,6.31578947 C0,9.10628084 2.40196928,11.3684211 3,11.3684211 Z"/>
  </defs>
  <g fill="none" fill-rule="evenodd">
    <mask id="kn---kenia-b" fill="#fff">
      <use xlink:href="#kn---kenia-a"/>
    </mask>
    <g mask="url(#kn---kenia-b)">
      <g transform="translate(0 -.1)">
        <rect width="20" height="5" y=".1" fill="#272727"/>
        <rect width="20" height="5" y="10.1" fill="#4E8B1D"/>
        <rect width="21.25" height="6.25" x="-.625" y="4.475" fill="#E31D1C" fill-rule="nonzero" stroke="#F7FCFF" stroke-width="1.25"/>
      </g>
    </g>
    <g transform="translate(7 1.2)">
      <path fill="#FFF" fill-rule="nonzero" d="M4.81173646,1.21829843 C4.92592305,0.971859284 5.23290973,0.702749021 5.73269652,0.410967643 C5.74987103,0.400940962 5.77061305,0.400366619 5.7882646,0.409428972 C5.81813655,0.424765315 5.83054162,0.462688409 5.81581178,0.494050266 L0.637038943,11.6709533 L0.367400729,11.5325203 L4.93244972,1.68016502 C4.72572856,1.64471918 4.68549081,1.49076365 4.81173646,1.21829843 Z"/>
      <path fill="#FFF" fill-rule="nonzero" d="M1.18276207,1.21829843 C1.30900773,1.49076365 1.26876998,1.64471918 1.06204882,1.68016502 L5.62709781,11.5325203 L5.35745959,11.6709533 L0.178686757,0.494050266 C0.163956913,0.462688409 0.176361983,0.424765315 0.206233938,0.409428972 C0.223885486,0.400366619 0.244627503,0.400940962 0.261802014,0.410967643 C0.761588801,0.702749021 1.06857549,0.971859284 1.18276207,1.21829843 Z"/>
      <mask id="kn---kenia-d" fill="#fff">
        <use xlink:href="#kn---kenia-c"/>
      </mask>
      <use fill="#E31D1C" xlink:href="#kn---kenia-c"/>
      <ellipse cx="-2.7" cy="6.316" fill="#272727" fill-rule="nonzero" mask="url(#kn---kenia-d)" rx="4.2" ry="4.421"/>
      <ellipse cx="8.7" cy="6.316" fill="#272727" fill-rule="nonzero" mask="url(#kn---kenia-d)" rx="4.2" ry="4.421"/>
      <path fill="#F7FCFF" fill-rule="nonzero" d="M2.82,5.58301213 C2.57657358,5.3013328 2.4,4.46347871 2.4,3.47368421 C2.4,2.48388971 2.57657358,1.64603563 2.82,1.36435629 L2.82,5.58301213 Z M3.12,1.30737643 C3.39386884,1.51219068 3.6,2.40425019 3.6,3.47368421 C3.6,4.54311823 3.39386884,5.43517774 3.12,5.63999199 L3.12,1.30737643 Z M2.82,11.2672227 C2.57657358,10.9855433 2.4,10.1476892 2.4,9.15789474 C2.4,8.16810024 2.57657358,7.33024615 2.82,7.04856682 L2.82,11.2672227 Z M3.12,6.99158696 C3.39386884,7.19640121 3.6,8.08846071 3.6,9.15789474 C3.6,10.2273288 3.39386884,11.1193883 3.12,11.3242025 L3.12,6.99158696 Z" mask="url(#kn---kenia-d)"/>
      <ellipse cx="3" cy="6.316" fill="#F7FCFF" fill-rule="nonzero" mask="url(#kn---kenia-d)" rx="1" ry="1" transform="matrix(1 0 0 -1 0 12.632)"/>
    </g>
  </g>
</svg>
