<svg xmlns="http://www.w3.org/2000/svg" xmlns:xlink="http://www.w3.org/1999/xlink" width="20" height="15" viewBox="0 0 20 15">
  <defs>
    <rect id="a" width="20" height="15"/>
    <rect id="c" width="20" height="15"/>
  </defs>
  <g fill="none" fill-rule="evenodd">
    <mask id="b" fill="white">
      <use xlink:href="#a"/>
    </mask>
    <use fill="#FFFFFF" xlink:href="#a"/>
    <g mask="url(#b)">
      <mask id="d" fill="white">
        <use xlink:href="#c"/>
      </mask>
      <g mask="url(#d)">
        <path fill="#FECA00" d="M0,0 L20,0 L20,13.75 C20,14.4403559 19.4403559,15 18.75,15 L1.25,15 C0.559644063,15 8.45442189e-17,14.4403559 0,13.75 L0,0 Z"/>
        <rect width="3.75" height="12.5" x="1.25" y="1.25" fill="#1F8A6E"/>
        <rect width="3.75" height="12.5" x="5" y="1.25" fill="#F56800"/>
        <rect width="10" height="12.5" x="8.75" y="1.25" fill="#B01D00"/>
        <rect width="1.25" height="12.5" x="7.5" y="1.25" fill="#E8AA00"/>
        <path fill="#FECA00" d="M1.93778805 2.60842635C1.90371336 2.8165932 1.85359695 3.07785655 1.78743884 3.39221639 1.72128072 3.70657622 1.68420919 4.58412169 1.67622426 6.0248528 1.9048174 6.11105546 2.01911396 6.21204584 2.01911396 6.32782395 2.01911396 6.44360205 1.97496798 6.53599403 1.88667601 6.60499988L2.4419099 7.21290212C2.37044562 7.14850244 2.39910808 6.8981045 2.52789729 6.46170832 2.7210811 5.80711404 3.25148425 5.82310074 3.46878883 5.61060895 3.68609341 5.39811716 3.35874278 5.67410287 3.17784016 5.67410287 2.99693754 5.67410287 3.17784016 5.59756598 3.06038856 5.51133742 2.94293697 5.42510887 3.17784016 5.42456541 2.91497336 5.51133742 2.65210657 5.59810943 2.85204016 5.42456541 2.7993834 5.33303815 2.74672665 5.24151089 2.63041437 5.42456541 2.4419099 5.51133742 2.25340544 5.59810943 2.4498799 5.42456541 2.52789729 5.33303815 2.60591468 5.24151089 2.4498799 5.33303815 2.27148485 5.33303815 2.0930898 5.33303815 2.27148485 5.01842168 2.33471348 4.84012241 2.3979421 4.66182314 2.27148485 4.78450862 2.27148485 4.5271816 2.27148485 4.26985458 2.63041437 4.5271816 2.52789729 4.44706694 2.42538021 4.36695228 2.27148485 3.99224352 2.27148485 3.8608577 2.27148485 3.72947188 2.40910009 3.58527958 2.52789729 3.58527958 2.60709542 3.58527958 2.69759079 3.64721861 2.7993834 3.77109668 2.9307279 3.77109668 3.08142818 3.76009167 3.25148425 3.73808165 3.50656835 3.70506662 3.46878883 3.58527958 3.46878883 3.39221639 3.46878883 3.19915319 3.60639751 3.39221639 3.82296943 3.39221639 3.9673507 3.39221639 4.10508111 3.42444642 4.23616065 3.48890649 4.23616065 3.34268629 4.28826722 3.2695762 4.39248038 3.2695762 4.49669353 3.2695762 4.57847583 3.34268629 4.63782727 3.48890649L4.87297966 3.2695762C5.11904586 3.41579639 5.28638623 3.48890649 5.37500076 3.48890649 5.4636153 3.48890649 5.55544735 3.41579639 5.65049691 3.2695762L5.65049691 3.58527958C5.84785759 3.33251157 6.22935467 3.17345974 6.79498814 3.1081241 7.64343835 3.01012064 8.45673202 3.95093574 8.7580421 4.05917432 8.95891548 4.13133336 8.99600548 4.13133336 8.86931208 4.05917432 8.79513209 3.9522642 8.82301231 3.89880913 8.95295275 3.89880913 9.08289318 3.89880913 9.17894637 3.9522642 9.24111233 4.05917432 9.25566495 4.27697991 9.13173153 4.40627745 8.86931208 4.44706694 8.60689263 4.48785643 8.33696072 4.33624862 8.05951635 3.99224352 8.19317611 4.18791498 8.19317611 4.24719544 8.05951635 4.17008489 7.92585658 4.09297434 7.81449805 4.05600415 7.72544074 4.05917432 7.75053146 3.83246206 7.72845163 3.8101518 7.65920123 3.99224352 7.58995083 4.17433525 7.43915558 4.27217098 7.20681548 4.28575071 7.29123838 4.14176473 7.35290253 4.0127842 7.39180791 3.89880913 7.45016598 3.72784654 7.01726244 3.68165267 7.07787867 3.58527958 7.13849491 3.48890649 7.26986699 3.71032004 7.20681548 3.95093574 7.16478113 4.11134621 7.02750536 4.18439593 6.79498814 4.17008489 6.79498814 4.17008489 6.70426304 4.08725294 6.84767866 3.8608577 6.94328908 3.70992754 6.82192377 3.58594381 6.48358274 3.48890649 6.48358274 3.48890649 6.49987695 3.59945476 6.48358274 3.73808165 6.47271993 3.83049958 6.39986828 3.84150459 6.26502778 3.77109668 6.26502778 3.77109668 6.08725262 3.60325896 5.94653793 3.77109668 5.85272815 3.88298849 5.88109542 4.01598456 6.03163977 4.17008489 6.05519553 4.09614451 6.13299153 4.03686405 6.26502778 3.99224352 6.39706402 3.947623 6.50220891 3.96993326 6.58046245 4.05917432 6.54037633 4.10171494 6.47592269 4.17724041 6.38710153 4.28575071 6.29828036 4.39426101 6.31919422 4.47473797 6.4498431 4.5271816 6.61653406 4.32244917 6.69987954 4.27534954 6.69987954 4.38588271 6.69987954 4.55168246 6.79498814 4.5271816 7.13849491 4.6273136 7.36749942 4.69406827 7.74133645 4.66069094 8.26000599 4.5271816 8.78218823 4.56341208 9.04327935 4.747629 9.04327935 5.07983235 9.04327935 5.57813738 8.69228964 5.82310074 8.69228964 5.82310074 8.69228964 5.82310074 8.95295275 6.32782395 8.95295275 6.76921238 8.95295275 7.2106008 8.7580421 7.53861418 8.69228964 8.09245626 8.62653719 8.64629834 8.83357994 8.60698616 8.95295275 8.74583752 9.07232555 8.88468888 8.83357994 9.0485048 8.69228964 9.204298 8.55099935 9.3600912 8.67922771 9.42835157 8.7580421 9.5892094 8.83685649 9.75006722 8.88104568 9.93415658 8.7580421 9.93415658 8.67603971 9.93415658 8.57560302 9.90016832 8.45673202 9.83219181 8.40826265 9.90016832 8.3426873 9.93415658 8.26000599 9.93415658 8.17732467 9.93415658 8.11049479 9.90016832 8.05951635 9.83219181 8.05727294 9.90016832 8.00841983 9.93415658 7.912957 9.93415658 7.81749418 9.93415658 7.75498876 9.90016832 7.72544074 9.83219181 7.53675849 9.90016832 7.39645707 9.93415658 7.30453647 9.93415658 7.21261586 9.93415658 7.15726868 9.90016832 7.13849491 9.83219181 7.13923287 9.90016832 7.08745743 9.93415658 6.98316857 9.93415658 6.87887972 9.93415658 6.81615291 9.90016832 6.79498814 9.83219181 6.73158241 9.90016832 6.66007384 9.93415658 6.58046245 9.93415658 6.50085106 9.93415658 6.43639742 9.90016832 6.38710153 9.83219181 6.38878408 9.90016832 6.34809283 9.93415658 6.26502778 9.93415658 6.14043019 9.93415658 6.12971498 9.85560262 6.12971498 9.67548815 6.12971498 9.55541184 6.3514727 9.47303298 6.79498814 9.42835157 6.93089131 9.04749387 6.89918844 8.7737054 6.69987954 8.60698616 6.40091618 8.3569073 6.36978893 7.75609112 6.26502778 7.75609112 6.16026662 7.75609112 5.73759124 7.84880155 5.48325986 7.94055859 5.3137056 8.00172994 5.03189474 8.12770122 4.63782727 8.31847243 4.50097326 8.42092656 4.41919096 8.55188285 4.39248038 8.71134131 4.36576979 8.87079976 4.48198956 8.95244627 4.74113968 8.95628085 4.67239133 9.18914397 4.50406499 9.32500736 4.23616065 9.363871 4.35732231 9.46126416 4.23144272 9.89600009 4.06485456 9.93415658 3.95379578 9.95959423 3.87316741 9.93340958 3.82296943 9.85560262 3.74668407 9.90797192 3.67449344 9.93415658 3.60639751 9.93415658 3.53830159 9.93415658 3.45575001 9.90016832 3.35874278 9.83219181 3.33170111 9.90016832 3.27140024 9.93415658 3.17784016 9.93415658 3.08428008 9.93415658 3.04512955 9.90016832 3.06038856 9.83219181 3.03764124 9.86170308 2.96819177 9.89569133 2.85204016 9.93415658 2.67781275 9.99185444 2.77601286 9.70602442 2.7993834 9.5892094 2.82275395 9.47239438 3.12955077 9.38647505 3.31818028 9.42835157 3.50680978 9.47022809 3.66708789 9.31932024 3.7085414 9.0485048 3.73617707 8.86796118 3.65625954 8.64638265 3.46878883 8.38376922L3.0846209 8.16800729C2.90624522 8.37077152 2.75484304 8.47215363 2.63041437 8.47215363 2.5059857 8.47215363 2.30221889 8.34558784 2.01911396 8.09245626 1.96489669 8.14282362 1.9207507 8.16800729 1.88667601 8.16800729 1.83556397 8.16800729 1.74116516 8.06850761 1.78743884 7.84880155 1.81828796 7.70233084 1.78121643 7.57265948 1.67622426 7.45978746 1.81362845 7.61881346 1.75121449 7.75609112 1.64246843 7.75609112 1.53372237 7.75609112 1.55821762 7.82568954 1.51260124 7.94055859 1.48219031 8.01713795 1.51555177 8.14310923 1.61268559 8.31847243 1.77186821 8.31847243 1.85145952 8.35818084 1.85145952 8.43759766 1.85145952 8.55672289 1.72501027 8.56476602 1.67622426 8.60698616 1.62743825 8.64920629 1.65413909 8.68609289 1.67622426 8.71134131 1.6909477 8.72817359 1.76109829 8.77674816 1.88667601 8.85706502L1.51260124 8.85706502 1.33150873 9.204298 1.1417183 8.85706502.762761634 8.85706502C.762761634 8.83290223.81445292 8.7958264.91783549 8.74583752 1.02121806 8.69584864 1.04607139 8.65925088.992395467 8.63604425.898645077 8.60932176.851769882 8.5431729.851769882 8.43759766.851769882 8.27923479.992395467 8.31847243.992395467 8.31847243.992395467 8.31847243 1.1417183 8.20965884 1.1417183 7.94055859 1.1417183 7.67145833 1.1417183 7.75609112.992395467 7.75609112.843072634 7.75609112.992395467 7.45978746 1.1417183 7.45978746 1.29104113 7.45978746 1.1417183 6.76921238.992395467 6.76921238.843072634 6.76921238.762761634 6.56323111.762761634 6.32782395.762761634 6.17088584.889080523 6.06989546 1.1417183 6.0248528 1.1417183 5.59386567 1.1417183 4.91632924 1.1417183 3.99224352 1.1417183 3.06815781 1.40707488 2.60688541 1.93778805 2.60842635zM7.57575328 8.37851752C7.40078162 8.55013295 7.36884459 8.65480067 7.47994221 8.6925207 7.64658863 8.74910073 7.93221072 8.72314344 7.78939968 8.86264959 7.64658863 9.00215573 7.52573476 9.19062625 7.52573476 9.36228742 7.52573476 9.53394859 7.52981606 9.67885203 7.57575328 9.60640031 7.62169051 9.53394859 7.92794003 9.45527627 8.06864927 9.36228742 8.20935851 9.26929857 8.18263873 9.16743621 8.18263873 8.95685054 8.18263873 8.81646009 7.98034358 8.62368242 7.57575328 8.37851752zM5.60446001 4.28227398C5.60185138 4.68234407 5.58015508 4.89858622 5.53937109 4.93100044 5.4781951 4.97962176 5.44492395 5.0622277 5.49214752 5.12086602 5.53937109 5.17950434 5.56121646 5.3305369 5.49214752 5.3305369 5.42307858 5.3305369 5.31649016 5.41490381 5.40431884 5.54393556 5.49214752 5.67296731 5.48941964 5.73723162 5.6517283 5.73723162 5.81403695 5.73723162 6.71316294 5.76071897 6.97600056 5.66727272 7.23883817 5.57382647 7.49098787 5.66919379 7.85352714 5.62151013 8.2160664 5.57382647 8.71864411 5.3107316 8.65228069 5.12086602 8.58591727 4.93100044 8.50092826 4.68983856 7.85352714 4.85045279 7.20612601 5.01106702 6.96660951 5.09923113 6.72181613 4.97484196 6.47702275 4.85045279 6.15180173 4.77672036 6.10820042 4.77672036 6.06459912 4.77672036 6.0794012 5.09113361 5.95378472 5.01106702 5.82816824 4.93100044 5.67567547 4.84802859 5.72643187 4.70927714 5.77718826 4.5705257 5.81906787 4.54120654 5.81906787 4.44746298 5.81906787 4.38496728 5.74753192 4.32990428 5.60446001 4.28227398zM.107002015 12.4177166C.107002015 12.3445296.107002015 12.2693134.107002015 12.192068.107002015 12.0762-.101481023 11.7845603.245733701 11.7177508.592948426 11.6509412.848720516 11.4991105.926490446 11.3557718 1.00426038 11.212433.926490446 11.6654695.926490446 11.8867442.926490446 12.1080189.678628417 12.5392118.502993567 12.4177166.385903667 12.3367198.253906483 12.3367198.107002015 12.4177166zM9.89727279 12.4177166C9.75036832 12.3367198 9.61837114 12.3367198 9.50128124 12.4177166 9.32564639 12.5392118 9.07778436 12.1080189 9.07778436 11.8867442 9.07778436 11.6654695 9.00001443 11.212433 9.07778436 11.3557718 9.15555429 11.4991105 9.41132638 11.6509412 9.7585411 11.7177508 10.1057558 11.7845603 9.89727279 12.0762 9.89727279 12.192068 9.89727279 12.2693134 9.89727279 12.3445296 9.89727279 12.4177166zM.107002015.0764523488C.253906483.157449152.385903667.157449152.502993567.0764523488.678628417-.0450428559.926490446.38615002.926490446.60742476.926490446.8286995 1.00426038 1.28173593.926490446 1.13839717.848720516.995058407.592948426.843227769.245733701.776418195-.101481023.709608621.107002015.417968974.107002015.302100916.107002015.224855544.107002015.149639355.107002015.0764523488zM9.89727279.0764523488C9.89727279.149639355 9.89727279.224855544 9.89727279.302100916 9.89727279.417968974 10.1057558.709608621 9.7585411.776418195 9.41132638.843227769 9.15555429.995058407 9.07778436 1.13839717 9.00001443 1.28173593 9.07778436.8286995 9.07778436.60742476 9.07778436.38615002 9.32564639-.0450428559 9.50128124.0764523488 9.61837114.157449152 9.75036832.157449152 9.89727279.0764523488z" transform="translate(8.75 1.25)"/>
      </g>
    </g>
  </g>
</svg>
