<svg xmlns="http://www.w3.org/2000/svg" xmlns:xlink="http://www.w3.org/1999/xlink" width="20" height="15" viewBox="0 0 20 15">
  <defs>
    <rect id="a" width="20" height="15"/>
    <rect id="c" width="20" height="15"/>
  </defs>
  <g fill="none" fill-rule="evenodd">
    <mask id="b" fill="white">
      <use xlink:href="#a"/>
    </mask>
    <use fill="#FFFFFF" xlink:href="#a"/>
    <g mask="url(#b)">
      <mask id="d" fill="white">
        <use xlink:href="#c"/>
      </mask>
      <g mask="url(#d)">
        <g transform="translate(-1.25)">
          <polygon fill="#F7FCFF" points="1.25 0 21.25 0 21.25 15 1.25 15"/>
          <rect width="20" height="1.875" x="1.267" y="3.438" fill="#E31D1C"/>
          <rect width="20" height="1.875" x="1.25" fill="#E31D1C"/>
          <rect width="20" height="1.875" x="1.213" y="6.875" fill="#E31D1C"/>
          <rect width="20" height="1.875" x="1.32" y="10.25" fill="#E31D1C"/>
          <rect width="20" height="1.875" x="1.313" y="13.438" fill="#E31D1C"/>
          <polygon fill="#3D58DB" points="1.25 0 11.25 0 11.25 8.75 1.25 8.75"/>
          <polygon fill="#F7FCFF" points="6.333 5.758 4.507 7.025 5.09 4.856 3.75 3.47 5.565 3.395 6.333 1.25 7.101 3.395 8.913 3.395 7.575 4.856 8.245 6.897"/>
        </g>
      </g>
    </g>
  </g>
</svg>
