<svg xmlns="http://www.w3.org/2000/svg" xmlns:xlink="http://www.w3.org/1999/xlink" width="20" height="15" viewBox="0 0 20 15">
  <defs>
    <rect id="a" width="20" height="15"/>
    <rect id="c" width="20" height="15"/>
  </defs>
  <g fill="none" fill-rule="evenodd">
    <mask id="b" fill="white">
      <use xlink:href="#a"/>
    </mask>
    <use fill="#FFFFFF" xlink:href="#a"/>
    <g mask="url(#b)">
      <mask id="d" fill="white">
        <use xlink:href="#c"/>
      </mask>
      <g mask="url(#d)">
        <rect width="8" height="15" x="6" fill="#4C67E8"/>
        <rect width="7" height="15" x="13" fill="#C51918"/>
        <rect width="8" height="15" fill="#C51918"/>
        <path fill="#F8D000" d="M1.25,7.12766761 L2.35576923,7.12766761 L2.35576923,12.4847638 L1.25,12.4847638 L1.25,7.12766761 Z M5.14423077,7.12766761 L6.25,7.12766761 L6.25,12.4847638 L5.14423077,12.4847638 L5.14423077,7.12766761 Z M2.64423077,7.17425106 L4.9371099,7.17425106 L3.72218384,7.84165548 L2.64423077,7.17425106 Z M2.64423077,11.8325956 L4.9371099,11.8325956 L3.72218384,12.5 L2.64423077,11.8325956 Z M2.64423077,8.05933651 L4.90384615,8.05933651 L4.90384615,8.47858752 L2.64423077,8.47858752 L2.64423077,8.05933651 Z M2.64423077,11.1804273 L4.90384615,11.1804273 L4.90384615,11.5996783 L2.64423077,11.5996783 L2.64423077,11.1804273 Z M3.79807692,10.9475101 C3.16082529,10.9475101 2.64423077,10.4469633 2.64423077,9.82950743 C2.64423077,9.2120516 3.16082529,8.71150475 3.79807692,8.71150475 C4.43532856,8.71150475 4.95192308,9.2120516 4.95192308,9.82950743 C4.95192308,10.4469633 4.43532856,10.9475101 3.79807692,10.9475101 Z M3.77403846,6.33574904 C3.25627151,6.33574904 2.83653846,5.92905473 2.83653846,5.42737186 C2.83653846,4.925689 3.25627151,4.51899468 3.77403846,4.51899468 C4.29180541,4.51899468 4.71153846,4.925689 4.71153846,5.42737186 C4.71153846,5.92905473 4.29180541,6.33574904 3.77403846,6.33574904 Z M2.50200202,5.76012376 C2.79883526,6.23673436 3.21969251,6.47503966 3.76457378,6.47503966 C4.30945506,6.47503966 4.73031231,6.23673436 5.02714554,5.76012376 C4.90337198,6.53818262 4.45804576,6.92721205 3.69116686,6.92721205 C2.92428796,6.92721205 2.52789968,6.53818262 2.50200202,5.76012376 Z M3.20846156,3.68554943 C3.40865284,3.25321556 3.50874848,3.03704863 3.50874848,3.03704863 C3.50874848,3.03704863 3.50874848,3.11131686 3.50874848,3.29827761 C3.50874848,3.48523835 3.50874848,3.6021379 3.50874848,3.68554943 C3.50874848,3.76896096 3.62256458,3.6021379 3.62256458,3.40131885 C3.62256458,3.26743947 3.66793278,3.1002622 3.75866918,2.89978702 C3.77774982,2.54860223 3.77774982,2.4287858 3.75866918,2.54033774 C3.73004824,2.70766564 3.78729013,2.74698742 3.93639829,2.89978702 C4.08550645,3.05258662 3.91214145,3.68554943 4.04066217,3.68554943 C4.12634265,3.68554943 4.16599882,3.49413858 4.15963068,3.11131686 L4.37533708,3.68554943 C4.38645238,4.09694161 4.18089642,4.30263769 3.75866918,4.30263769 C3.33644195,4.30263769 3.15303941,4.09694161 3.20846156,3.68554943 Z"/>
      </g>
    </g>
  </g>
</svg>
