<svg xmlns="http://www.w3.org/2000/svg" xmlns:xlink="http://www.w3.org/1999/xlink" width="20" height="15" viewBox="0 0 20 15">
  <defs>
    <rect id="a" width="20" height="15"/>
    <rect id="c" width="20" height="15"/>
    <rect id="e" width="20" height="15"/>
    <circle id="g" cx="5" cy="5" r="5"/>
  </defs>
  <g fill="none" fill-rule="evenodd">
    <mask id="b" fill="white">
      <use xlink:href="#a"/>
    </mask>
    <use fill="#FFFFFF" xlink:href="#a"/>
    <g mask="url(#b)">
      <mask id="d" fill="white">
        <use xlink:href="#c"/>
      </mask>
      <g mask="url(#d)">
        <mask id="f" fill="white">
          <use xlink:href="#e"/>
        </mask>
        <use fill="#1C9975" xlink:href="#e"/>
        <g fill="#FECA00" mask="url(#f)">
          <g transform="translate(3.75 1.25)">
            <polygon points="6.263 3.034 5.242 3.65 5.475 2.447 4.625 1.547 5.776 1.498 6.263 .375 6.751 1.498 7.9 1.498 7.052 2.447 7.307 3.65"/>
            <polygon points="3.364 3.49 2.733 3.871 2.877 3.128 2.351 2.571 3.063 2.541 3.364 1.846 3.665 2.541 4.376 2.541 3.851 3.128 4.009 3.871"/>
            <polygon points="9.113 3.49 8.482 3.871 8.626 3.128 8.1 2.571 8.812 2.541 9.113 1.846 9.414 2.541 10.125 2.541 9.6 3.128 9.758 3.871"/>
            <polygon points="1.729 4.757 1.222 5.062 1.338 4.466 .916 4.019 1.487 3.995 1.729 3.438 1.971 3.995 2.541 3.995 2.12 4.466 2.247 5.062"/>
            <polygon points="10.975 4.757 10.469 5.062 10.584 4.466 10.163 4.019 10.734 3.995 10.975 3.438 11.217 3.995 11.788 3.995 11.367 4.466 11.493 5.062"/>
          </g>
        </g>
        <g mask="url(#f)">
          <g transform="translate(5 3.75)">
            <mask id="h" fill="white">
              <use xlink:href="#g"/>
            </mask>
            <rect width="4.149" height="1" x="2.926" y="9.415" fill="#F7FCFF" mask="url(#h)"/>
            <rect width="7.979" height="1" x="1.223" y="8.412" fill="#F7FCFF" mask="url(#h)"/>
            <path fill="#F7FCFF" fill-rule="nonzero" d="M2.88767069,8.13786637 L0.447226357,8.13786637 L0.447226357,7.51286637 L2.88327652,7.51289727 C3.74621718,7.50076198 4.3767891,7.25429021 4.7975195,6.7800955 L5.00716573,6.54380848 L5.2411807,6.75598787 C5.80309456,7.26547039 6.36436576,7.51286637 6.93216592,7.51286637 L9.6223257,7.51286637 L9.6223257,8.13786637 L6.93216592,8.13786637 C6.2798573,8.13786637 5.65010231,7.89249039 5.04792249,7.41202473 C4.51463091,7.88473297 3.79049975,8.12519718 2.88767069,8.13786637 Z" mask="url(#h)"/>
            <path fill="#F7FCFF" d="M6.36277669,4.56392595 C7.03419057,4.04288298 7.83461788,3.73061967 8.75974146,3.62835454 L8.80649587,4.05131014 C8.60031825,4.07410145 8.4013285,4.10806386 8.20946453,4.15321488 C8.77364285,4.15577958 9.32963903,4.30485458 9.87745308,4.60043988 C9.47180635,5.5002935 8.78243333,6.09897347 7.80933402,6.39647979 C7.4573264,6.50409932 7.11327028,6.55852695 6.77716566,6.55976268 C6.99503713,6.62344487 7.21663552,6.65510462 7.44219018,6.65510462 C8.1486901,6.65510462 8.8056968,6.3662556 9.4209298,5.77940795 L9.7146392,6.08732384 C9.02359764,6.74648244 8.26354146,7.08063654 7.44219018,7.08063654 C6.78780673,7.08063654 5.96380561,6.70304595 5.29693606,6.19532045 C5.22160466,6.15648759 5.14673714,6.11455156 5.07233351,6.06951236 C5.07911654,6.05684075 5.08594481,6.04423073 5.09281833,6.03168231 C5.08404767,6.02427606 5.07531406,6.01684964 5.06661838,6.00940371 C4.99343422,6.06511032 4.91920384,6.11735856 4.84392725,6.16614842 C4.17286126,6.77311911 3.44000454,7.08063654 2.65206096,7.08063654 C1.83070968,7.08063654 1.07065351,6.74648244 0.379611939,6.08732384 L0.673321344,5.77940795 C1.2875285,6.36527709 1.94337018,6.65414054 2.64852732,6.65510221 C2.58098302,6.64699356 2.51289191,6.63707739 2.444254,6.62535369 C1.45638244,6.45662033 0.707427846,5.80012291 0.1973902,4.65586144 C1.08156887,4.32970954 1.97427321,4.2816413 2.87550325,4.51165672 C3.01026487,4.54605111 3.141217,4.58645718 3.26835963,4.63287494 C2.72766012,4.32713866 2.11486849,4.12067845 1.48734018,4.05131014 L1.53409459,3.62835454 C2.26671488,3.70933995 2.98048086,3.96048751 3.60086967,4.33427944 C3.30096253,3.53475176 3.30226785,2.6720511 3.60435022,1.75445952 L4.00854217,1.88752445 C3.72531941,2.74782893 3.73391632,3.53982541 4.03384206,4.27285022 C3.98042428,4.02716282 3.95371539,3.77212419 3.95371539,3.50773432 C3.95371539,2.54249242 4.309706,1.70820464 5.0216872,1.00487097 C5.76362188,1.6558846 6.13458921,2.49017239 6.13458921,3.50773432 C6.13458921,3.71301114 6.1194921,3.91108636 6.08929788,4.10195997 C6.3245356,3.41708892 6.31167231,2.68138908 6.05032237,1.88752445 L6.45451432,1.75445952 C6.78574196,2.76058141 6.75535407,3.70070954 6.36277669,4.56392595 Z M4.4786048,5.35469233 L4.47886795,5.35445023 C4.47909739,5.35481348 4.4793269,5.35517669 4.47955649,5.35553989 Z"/>
          </g>
        </g>
      </g>
    </g>
  </g>
</svg>
