<svg xmlns="http://www.w3.org/2000/svg" xmlns:xlink="http://www.w3.org/1999/xlink" width="20" height="15" viewBox="0 0 20 15">
  <defs>
    <rect id="a" width="20" height="15"/>
    <rect id="c" width="20" height="15"/>
  </defs>
  <g fill="none" fill-rule="evenodd">
    <mask id="b" fill="white">
      <use xlink:href="#a"/>
    </mask>
    <use fill="#FFFFFF" xlink:href="#a"/>
    <g mask="url(#b)">
      <mask id="d" fill="white">
        <use xlink:href="#c"/>
      </mask>
      <g mask="url(#d)">
        <polygon fill="#2993EC" points="0 0 21.25 0 21.25 15 0 15"/>
        <g transform="translate(3.75 1.25)">
          <path fill="#F1F9FF" fill-rule="nonzero" d="M6.25,11.9791667 C2.87166243,11.9791667 0.132978723,9.29753887 0.132978723,5.98958333 C0.132978723,2.6816278 2.87166243,0 6.25,0 C9.62833757,0 12.3670213,2.6816278 12.3670213,5.98958333 C12.3670213,9.29753887 9.62833757,11.9791667 6.25,11.9791667 Z M6.25,10.6770833 C8.89391636,10.6770833 11.037234,8.5784181 11.037234,5.98958333 C11.037234,3.40074857 8.89391636,1.30208333 6.25,1.30208333 C3.60608364,1.30208333 1.46276596,3.40074857 1.46276596,5.98958333 C1.46276596,8.5784181 3.60608364,10.6770833 6.25,10.6770833 Z"/>
          <path fill="#E31D1C" fill-rule="nonzero" d="M6.25,11.4583333 C3.16543092,11.4583333 0.664893617,9.00989056 0.664893617,5.98958333 C0.664893617,2.96927611 3.16543092,0.520833333 6.25,0.520833333 C9.33456908,0.520833333 11.8351064,2.96927611 11.8351064,5.98958333 C11.8351064,9.00989056 9.33456908,11.4583333 6.25,11.4583333 Z M6.25,11.1979167 C9.18768484,11.1979167 11.5691489,8.86606641 11.5691489,5.98958333 C11.5691489,3.11310026 9.18768484,0.78125 6.25,0.78125 C3.31231516,0.78125 0.930851064,3.11310026 0.930851064,5.98958333 C0.930851064,8.86606641 3.31231516,11.1979167 6.25,11.1979167 Z"/>
          <path fill="#FDDA33" d="M6.25,0.130208333 C6.1825772,0.269379488 6.14886579,0.467143938 6.14886579,0.723501682 C6.14886579,0.979859426 6.04959847,1.23647665 5.85106383,1.49335336 C5.81418881,1.21053916 5.79575129,0.95392193 5.79575129,0.723501682 C5.79575129,0.493081434 5.94716753,0.295316984 6.25,0.130208333 Z M7.64765574,0.341846974 C7.55065428,0.46228435 7.47331957,0.647396694 7.41565163,0.897184006 C7.35798368,1.14697132 7.20353426,1.37468117 6.95230336,1.58031357 C6.9799928,1.2964528 7.01975415,1.04226512 7.07158743,0.817750527 C7.12342071,0.593235935 7.31544348,0.434601417 7.64765574,0.341846974 Z M8.96758904,0.872206685 C8.8443325,0.965599779 8.72451224,1.12650454 8.60812826,1.35492096 C8.49174428,1.58333738 8.28679467,1.76691859 7.99327942,1.90566457 C8.08881849,1.63693435 8.18889233,1.39991628 8.29350094,1.19461033 C8.39810954,0.989304388 8.62280558,0.881836506 8.96758904,0.872206685 Z M10.1194871,1.67749736 C9.97838071,1.7407701 9.82543574,1.87059719 9.66065216,2.06697862 C9.49586858,2.26336004 9.25487502,2.39613244 8.9376715,2.4652958 C9.09121306,2.22494475 9.24203948,2.01651314 9.39015076,1.84000099 C9.53826204,1.66348884 9.78137414,1.60932096 10.1194871,1.67749736 Z M11.052158,2.7212764 C10.9004349,2.75118544 10.7222052,2.84327994 10.5174688,2.99755988 C10.3127324,3.15183982 10.0480482,3.22699751 9.72341619,3.22303296 C9.92708972,3.02338142 10.1209374,2.85422047 10.3049592,2.7155501 C10.488981,2.57687973 10.7380472,2.5787885 11.052158,2.7212764 Z M11.7166121,3.96015346 C11.5621601,3.95246894 11.3669449,3.99871016 11.1309664,4.09887711 C10.8949878,4.19904406 10.6199836,4.20793634 10.3059537,4.12555397 C10.5518773,3.98110602 10.7808906,3.86386586 10.9929935,3.7738335 C11.2050965,3.68380113 11.4463027,3.74590779 11.7166121,3.96015346 Z M12.0721241,5.30338526 C11.9233594,5.26115358 11.7227456,5.26229576 11.4702825,5.30681182 C11.2178194,5.35132787 10.9478631,5.29812976 10.6604138,5.14721748 C10.9325281,5.0617925 11.1820451,4.99907398 11.4089648,4.95906192 C11.6358844,4.91904986 11.8569375,5.03382431 12.0721241,5.30338526 Z M0.0525066301,4.85603761 C0.177855615,4.94660293 0.366761655,5.01414362 0.619224749,5.05865967 C0.871687842,5.10317573 1.10716889,5.24549607 1.32566788,5.4856207 C1.04074698,5.47282533 0.784826706,5.44642162 0.557907059,5.40640957 C0.330987413,5.36639751 0.162520603,5.18294019 0.0525066301,4.85603761 Z M0.506628343,3.54201532 C0.608391878,3.65845684 0.777262919,3.76676107 1.01324147,3.86692802 C1.24922001,3.96709497 1.44665058,4.15873936 1.60553318,4.44186119 C1.33079311,4.36530052 1.0873716,4.282004 0.87526864,4.19197163 C0.663165683,4.10193927 0.540285584,3.88528716 0.506628343,3.54201532 Z M1.26696699,2.35849725 C1.33753796,2.49609879 1.47519164,2.64203953 1.67992804,2.79631947 C1.88466444,2.95059941 2.0298675,3.18431392 2.11553723,3.497463 C1.86747982,3.35671086 1.65144022,3.21699961 1.46741843,3.07832925 C1.28339664,2.93965888 1.21657949,2.69971488 1.26696699,2.35849725 Z M2.27423892,1.38551192 C2.31204755,1.53546175 2.41334366,1.70862738 2.57812724,1.90500881 C2.74291082,2.10139023 2.83181801,2.36177824 2.84484882,2.68617282 C2.63481145,2.49322738 2.45573712,2.30849858 2.30762584,2.13198643 C2.15951456,1.95547428 2.14838559,1.70664944 2.27423892,1.38551192 Z M3.48290081,0.665982088 C3.48600904,0.820593808 3.54575514,1.01210788 3.66213912,1.2405243 C3.7785231,1.46894072 3.80657705,1.74265477 3.74630098,2.06166643 C3.58505013,1.82641804 3.4521204,1.60614087 3.3475118,1.40083493 C3.24290319,1.19552899 3.28803286,0.950578038 3.48290081,0.665982088 Z M4.8407019,0.239663249 C4.80631383,0.390434287 4.81795377,0.590713462 4.87562172,0.840500773 C4.93328966,1.09028809 4.89429287,1.36265852 4.75863135,1.65761207 C4.65908207,1.39034145 4.5833908,1.14444884 4.53155752,0.919934252 C4.47972424,0.69541966 4.58277237,0.468662659 4.8407019,0.239663249 Z"/>
          <path fill="#A7A7A7" d="M7.21533483,4.11198976 C7.28881226,4.16912055 7.33979994,4.25442211 7.35154799,4.35302181 L8.21798534,11.6258112 C8.23464116,11.7656011 8.16804,11.902222 8.04765842,11.9752077 C7.47060207,12.3250692 6.89354571,12.5 6.31648936,12.5 C5.73939884,12.5 5.16230831,12.3250485 4.58521779,11.9751456 L4.58524698,11.9750974 C4.46485323,11.9021 4.39824629,11.7654627 4.41490406,11.6256564 L5.28143073,4.35302181 C5.29317878,4.25442211 5.34416647,4.16912055 5.41764389,4.11198976 C5.33797114,4.06209172 5.27861473,3.98144786 5.25737239,3.88438218 L5.01558555,2.77955062 C4.97319324,2.58584132 5.0958599,2.39444314 5.2895692,2.35205083 C5.31478249,2.34653303 5.34051726,2.34375 5.36632727,2.34375 L7.26665146,2.34375 C7.46494518,2.34375 7.62569401,2.50449883 7.62569401,2.70279255 C7.62569401,2.72860256 7.62291098,2.75433732 7.61739318,2.77955062 L7.37560633,3.88438218 C7.35436399,3.98144786 7.29500758,4.06209172 7.21533483,4.11198976 Z"/>
          <path fill="#73BE4A" fill-rule="nonzero" d="M0.324548007,6.25800622 C0.356782504,6.15485918 0.468310009,6.09682881 0.573651662,6.12839176 C0.678993314,6.1599547 0.738258374,6.26915872 0.706023877,6.37230575 C0.650252315,6.55076894 0.650252315,6.81436257 0.711778443,7.15922831 C0.73537888,7.29151329 0.763436313,7.39364617 0.797943658,7.48387392 C0.811689573,7.51981592 0.8259074,7.55271465 0.844901694,7.59354051 C0.836443602,7.5753609 0.882804072,7.67383198 0.894080343,7.69935418 C0.953696381,7.8342864 0.98006165,7.95253934 0.98006165,8.12578682 C0.98006165,8.23365493 0.890756746,8.32109932 0.780593565,8.32109932 C0.670430384,8.32109932 0.58112548,8.23365493 0.58112548,8.12578682 C0.58112548,8.00739459 0.56647064,7.94166501 0.527938661,7.85445349 C0.518859398,7.8339039 0.475554117,7.74192214 0.481862289,7.75548076 C0.459352966,7.70709979 0.441723112,7.66630594 0.424344189,7.62086457 C0.381048075,7.50765647 0.346575236,7.38217064 0.318793442,7.22644835 C0.247414233,6.8263542 0.247414233,6.50482626 0.324548007,6.25800622 Z"/>
          <polygon fill="#F7FCFF" points="6.383 8.862 3.811 10.614 4.719 7.678 2.222 5.825 5.354 5.762 6.383 2.865 7.412 5.762 10.544 5.825 8.047 7.678 8.955 10.614"/>
          <path fill="#73BE4A" fill-rule="nonzero" d="M11.6277395,6.51842288 C11.659974,6.41527585 11.7715015,6.35724548 11.8768432,6.38880842 C11.9821848,6.42037137 12.0414499,6.52957538 12.0092154,6.63272242 C11.9534438,6.81118561 11.9534438,7.07477924 12.0149699,7.41964498 C12.0385704,7.55192996 12.0666278,7.65406284 12.1011351,7.74429059 C12.1148811,7.78023259 12.1290989,7.81313132 12.1480932,7.85395718 C12.1396351,7.83577757 12.1859956,7.93424865 12.1972718,7.95977085 C12.2568879,8.09470306 12.2832531,8.21295601 12.2832531,8.38620348 C12.2832531,8.4940716 12.1939482,8.58151598 12.0837851,8.58151598 C11.9736219,8.58151598 11.884317,8.4940716 11.884317,8.38620348 C11.884317,8.26781125 11.8696621,8.20208168 11.8311302,8.11487016 C11.8220509,8.09432057 11.7787456,8.0023388 11.7850538,8.01589743 C11.7625445,7.96751645 11.7449146,7.92672261 11.7275357,7.88128124 C11.6842396,7.76807314 11.6497667,7.64258731 11.6219849,7.48686502 C11.5506057,7.08677087 11.5506057,6.76524293 11.6277395,6.51842288 Z" transform="matrix(-1 0 0 1 23.852 0)"/>
          <path stroke="#73BE4A" stroke-linecap="round" stroke-linejoin="round" stroke-width=".625" d="M6.28804003.717257454C6.77319984.933396307 6.91101493 1.21162336 6.70148529 1.55193861M6.81995492.717257454C7.30511473.933396307 7.44292982 1.21162336 7.23340018 1.55193861"/>
          <path fill="#73BE4A" fill-rule="nonzero" d="M2.03739825,2.72296355 C2.09016058,2.63163791 2.20098123,2.60413855 2.28492309,2.66154201 C2.36886496,2.71894547 2.39414097,2.83951423 2.34137864,2.93083987 C2.24014742,3.10605969 2.18745017,3.34646204 2.18745017,3.65471155 C2.18745017,3.76257966 2.10707576,3.85002405 2.0079289,3.85002405 C1.90878203,3.85002405 1.82840762,3.76257966 1.82840762,3.65471155 C1.82840762,3.27799596 1.8966834,2.96652508 2.03739825,2.72296355 Z"/>
          <path fill="#73BE4A" fill-rule="nonzero" d="M1.75531915,4.5078355 C1.75531915,4.61570361 1.67494474,4.703148 1.57579787,4.703148 C1.47665101,4.703148 1.3962766,4.61570361 1.3962766,4.5078355 L1.3962766,3.9514799 C1.3962766,3.55781444 1.45802606,3.2477946 1.5882302,3.02140008 C1.64082083,2.92995728 1.75158958,2.90221152 1.83563913,2.95942818 C1.91968867,3.01664483 1.94519116,3.13715713 1.89260053,3.22859992 C1.80331468,3.38384711 1.75531915,3.62481387 1.75531915,3.9514799 L1.75531915,4.5078355 Z"/>
          <path fill="#73BE4A" fill-rule="nonzero" d="M11.0638298,4.24741883 C11.0638298,4.35528695 10.9834554,4.44273133 10.8843085,4.44273133 C10.7851616,4.44273133 10.7047872,4.35528695 10.7047872,4.24741883 L10.7047872,3.69106324 C10.7047872,3.29739778 10.7665367,2.98737793 10.8967408,2.76098341 C10.9493315,2.66954062 11.0601002,2.64179485 11.1441498,2.69901151 C11.2281993,2.75622817 11.2537018,2.87674046 11.2011112,2.96818326 C11.1118253,3.12343045 11.0638298,3.3643972 11.0638298,3.69106324 L11.0638298,4.24741883 Z" transform="matrix(-1 0 0 1 21.991 0)"/>
          <path fill="#73BE4A" fill-rule="nonzero" d="M11.5957447,5.15887716 C11.5957447,5.26674528 11.5153703,5.35418966 11.4162234,5.35418966 C11.3170765,5.35418966 11.2367021,5.26674528 11.2367021,5.15887716 L11.2367021,4.60252157 C11.2367021,4.20885611 11.2984516,3.89883627 11.4286557,3.67244174 C11.4812464,3.58099895 11.5920151,3.55325319 11.6760647,3.61046984 C11.7601142,3.6676865 11.7856167,3.7881988 11.7330261,3.87964159 C11.6437402,4.03488878 11.5957447,4.27585554 11.5957447,4.60252157 L11.5957447,5.15887716 Z" transform="matrix(-1 0 0 1 23.055 0)"/>
        </g>
      </g>
    </g>
  </g>
</svg>
