<svg xmlns="http://www.w3.org/2000/svg" xmlns:xlink="http://www.w3.org/1999/xlink" width="20" height="15" viewBox="0 0 20 15">
  <defs>
    <rect id="a" width="20" height="15"/>
    <rect id="c" width="20" height="15"/>
    <rect id="e" width="20" height="15"/>
    <path id="g" d="M0.654175243,0.0204318193 C0.654175243,4.44060783 0.372799276,7.47749281 3.70540519,7.47749281 C7.03801111,7.47749281 7.03801111,3.74896231 6.81710241,0.0204318193 L0.654175243,0.0204318193 Z"/>
    <rect id="i" width="11" height="9"/>
  </defs>
  <g fill="none" fill-rule="evenodd">
    <mask id="b" fill="white">
      <use xlink:href="#a"/>
    </mask>
    <use fill="#FFFFFF" xlink:href="#a"/>
    <g mask="url(#b)">
      <mask id="d" fill="white">
        <use xlink:href="#c"/>
      </mask>
      <g mask="url(#d)">
        <mask id="f" fill="white">
          <use xlink:href="#e"/>
        </mask>
        <use fill="#2E42A5" xlink:href="#e"/>
        <g mask="url(#f)">
          <g transform="translate(12.5 6.25)">
            <mask id="h" fill="white">
              <use xlink:href="#g"/>
            </mask>
            <path stroke="#F7FCFF" stroke-width=".5" d="M0.90391909,0.270431818 C0.903538444,0.452237502 0.902705529,0.652715639 0.901236061,0.957218739 C0.887970923,3.70602002 0.941669603,4.67811701 1.24904344,5.60323112 C1.61809531,6.71397981 2.34400786,7.22749281 3.70540519,7.22749281 C5.13656083,7.22749281 5.95526168,6.50978937 6.3529678,5.08015856 C6.66673287,3.95226993 6.70939089,2.56640891 6.58108803,0.270431819 L0.90391909,0.270431819 Z"/>
            <g mask="url(#h)">
              <g transform="translate(.5)">
                <rect width="6.294" height="4.986" x=".083" fill="#2EBED7"/>
                <rect width="6.625" height="2.554" y="4.946" fill="#A95601"/>
                <g transform="translate(1.532 .203)">
                  <path stroke="#FFC6B5" stroke-width=".625" d="M2.18402299,1.96218383 C1.40609682,2.13863774 1.05473926,2.13863774 1.12995031,1.96218383 C1.20516136,1.78572993 1.34336674,1.37936452 1.54456646,0.743087593"/>
                  <path fill="#FFC6B5" d="M2.53502133,2.1509137 C2.39309483,2.06394423 2.32213159,1.94126544 2.32213159,1.78287733 C2.32213159,1.54529516 1.80296178,1.45640583 2.16899155,1.08520169 C2.53502133,0.713997553 2.69298151,0.877473284 2.69298151,1.08520169 C2.69298151,1.2929301 2.98721121,1.78287733 2.98721121,1.78287733 C2.98721121,1.78287733 2.83648125,1.90555612 2.53502133,2.1509137 Z"/>
                  <path fill="#272727" d="M1.94609382,0.567567568 L3.10546886,0.567567568 L3.10546886,1.13513514 L1.94609382,1.13513514 L1.94609382,6.08108108 L1.3664063,6.08108108 L1.3664063,1.13513514 L0.207031257,1.13513514 L0.207031257,0.567567568 L1.3664063,0.567567568 L1.3664063,0 L1.94609382,0 L1.94609382,0.567567568 Z"/>
                  <path fill="#0C7C38" d="M3.19424966,6.24806719 C3.05366598,5.5974208 2.98337414,5.04941062 2.98337414,4.60403668 C2.98337414,3.93597576 2.62998385,3.45814114 2.73096993,3.1048552 C2.83195601,2.75156925 3.07511503,2.36090676 2.95353552,2.11909366 C2.83195601,1.87728057 3.07216383,1.75953849 2.73096993,1.87728057 C2.38977602,1.99502265 2.2980592,1.75953849 1.96863481,1.87728057 C1.63921042,1.99502265 1.59749878,2.55089423 1.59749878,2.70947586 C1.59749878,2.86805748 1.74397737,3.93722961 1.74397737,4.27063314 C1.74397737,4.60403668 1.62329413,6.65419378 1.96863481,6.65419378 C2.31397548,6.65419378 2.69049639,6.12065259 2.82201595,6.12065259 C2.90969566,6.12065259 3.03377356,6.16312412 3.19424966,6.24806719 Z"/>
                  <path stroke="#FF9A06" stroke-width=".625" d="M1.11159475,3.63564987 C0.901085121,3.63564987 1.09470275,4.12464968 0.55903747,4.33905729 C0.0233721863,4.5534649 -0.0817606631,4.85540288 0.0869763405,4.85540288 C0.199467676,4.85540288 0.700454568,5.35509024 1.58993702,6.35446495 L1.91710508,5.84868749 L1.91710508,4.25146722 C1.52043794,3.84092232 1.2519345,3.63564987 1.11159475,3.63564987 Z"/>
                  <path stroke="#979797" stroke-width=".625" d="M2.68242975,6.14590862 C2.84909642,6.50355421 2.84909642,6.68237701 2.68242975,6.68237701"/>
                  <path stroke="#FFC6B5" stroke-width=".625" d="M2.60199315,2.16620244 C2.52877417,2.56739325 2.42246234,2.80998254 2.28305765,2.89397029 C2.0739506,3.01995193 1.21489814,3.26385477 1.21489814,3.47211257 C1.21489814,3.6109511 1.18648056,3.70518855 1.1296454,3.75482491"/>
                  <path fill="#FF9A06" d="M2.18536459,0.923880198 C2.32550107,1.09042275 2.43480102,1.31096027 2.51326444,1.58549277 C2.63095956,1.99729151 2.97190954,2.13754311 2.97190954,1.94480912 C2.97190954,1.75207512 3.22394786,0.923880198 2.97190954,0.923880198 C2.80388399,0.923880198 2.54170234,0.923880198 2.18536459,0.923880198 Z"/>
                </g>
              </g>
            </g>
          </g>
        </g>
        <g mask="url(#f)">
          <mask id="j" fill="white">
            <use xlink:href="#i"/>
          </mask>
          <g mask="url(#j)">
            <g transform="translate(-2.5 -1.25)">
              <polygon fill="#FFFFFF" fill-rule="nonzero" points="1.247 1.54 3.723 .454 13.806 8.484 15.112 10.098 12.465 10.461 8.352 7 5.042 4.669" transform="matrix(1 0 0 -1 0 10.915)"/>
              <polygon fill="#F50100" fill-rule="nonzero" points="1.586 1.297 2.847 .667 14.643 10.766 12.872 10.766" transform="matrix(1 0 0 -1 0 11.433)"/>
              <g transform="matrix(-1 0 0 1 15.25 0)">
                <polygon fill="#FFFFFF" fill-rule="nonzero" points=".247 1.85 2.444 .454 12.806 8.794 14.112 10.408 11.465 10.771 7.352 7.31 4.042 4.979" transform="matrix(1 0 0 -1 0 11.225)"/>
                <polygon fill="#F50100" fill-rule="nonzero" points=".332 1.453 1.593 .823 6.616 5.146 8.105 5.629 14.238 10.551 12.467 10.551 6.337 5.746 4.709 5.167" transform="matrix(1 0 0 -1 0 11.373)"/>
              </g>
              <path fill="#F50100" stroke="#F7FCFF" stroke-width=".938" d="M4.53125,3.53125 L4.53125,-0.46875 L6.46875,-0.46875 L6.46875,3.53125 L11.46875,3.53125 L11.46875,5.46875 L6.46875,5.46875 L6.46875,9.46875 L4.53125,9.46875 L4.53125,5.46875 L-0.46875,5.46875 L-0.46875,3.53125 L4.53125,3.53125 Z" transform="translate(2.5 1.25)"/>
            </g>
          </g>
        </g>
      </g>
    </g>
  </g>
</svg>
