<svg xmlns="http://www.w3.org/2000/svg" xmlns:xlink="http://www.w3.org/1999/xlink" width="20" height="15" viewBox="0 0 20 15">
  <defs>
    <rect id="a" width="20" height="15"/>
    <rect id="c" width="20" height="15"/>
    <rect id="e" width="14" height="9" x="3" y="3"/>
  </defs>
  <g fill="none" fill-rule="evenodd">
    <mask id="b" fill="white">
      <use xlink:href="#a"/>
    </mask>
    <use fill="#FFFFFF" xlink:href="#a"/>
    <g mask="url(#b)">
      <mask id="d" fill="white">
        <use xlink:href="#c"/>
      </mask>
      <g mask="url(#d)">
        <path fill="#C51918" d="M0,0 L20,0 L20,13.75 C20,14.4403559 19.4403559,15 18.75,15 L1.25,15 C0.559644063,15 8.45442189e-17,14.4403559 0,13.75 L0,0 Z"/>
        <polygon fill="#C51918" points="0 0 20 0 20 15 0 15"/>
        <mask id="f" fill="white">
          <use xlink:href="#e"/>
        </mask>
        <rect width="12.75" height="7.75" x="3.625" y="3.625" stroke="#B6EB9A" stroke-opacity=".238" stroke-width="1.25"/>
        <path fill="#F9FAFA" d="M10.0206194,7.78905467 C10.0099981,9.70511282 11.5184149,10.7266956 11.5184149,10.7266956 C9.79720842,10.9287927 8.65204832,9.36843532 8.65204832,7.80772957 C8.65204832,6.24702382 10.213044,4.95781212 11.5184149,4.37565948 C11.5184149,4.37565948 10.0312408,5.87299652 10.0206194,7.78905467 Z" mask="url(#f)"/>
      </g>
    </g>
  </g>
</svg>
