<svg xmlns="http://www.w3.org/2000/svg" xmlns:xlink="http://www.w3.org/1999/xlink" width="20" height="15" viewBox="0 0 20 15">
  <defs>
    <rect id="a" width="20" height="15"/>
    <rect id="c" width="20" height="15"/>
    <rect id="e" width="20" height="15"/>
  </defs>
  <g fill="none" fill-rule="evenodd">
    <mask id="b" fill="white">
      <use xlink:href="#a"/>
    </mask>
    <use fill="#FFFFFF" xlink:href="#a"/>
    <g mask="url(#b)">
      <mask id="d" fill="white">
        <use xlink:href="#c"/>
      </mask>
      <g mask="url(#d)">
        <mask id="f" fill="white">
          <use xlink:href="#e"/>
        </mask>
        <use fill="#E11C1B" xlink:href="#e"/>
        <rect width="20" height="6" fill="#272727" mask="url(#f)"/>
        <rect width="20" height="5" y="10" fill="#5EAA22" mask="url(#f)"/>
        <g fill="#E11C1B" mask="url(#f)">
          <path d="M15.4260067,7.6660989 L15.4260067,7.66480996 L15.4309642,7.66565742 L15.4260067,7.6660989 Z M15.032333,5.27925579 L14.9679662,5.27925579 L15.0666203,5.26414739 L15.032333,5.27925579 Z M13.1903107,5.27925579 L11.9622391,5.27925579 C11.1159283,4.10612922 9.56910343,3.32073779 7.80114245,3.32073779 C6.03318147,3.32073779 4.48635656,4.10612922 3.64004579,5.27925579 L2.47351459,5.27925579 C2.5062385,5.21635519 2.54040332,5.15413504 2.57597292,5.09262668 L1.14506892,4.14543231 L2.83280625,4.69445359 C2.92719572,4.56246112 3.02839691,4.43448743 3.13598629,4.31089833 L1.8957294,3.13007452 L3.47624929,3.95484012 C3.59219471,3.84412997 3.71371908,3.7378608 3.8404394,3.63636339 L2.8373817,2.25070846 L4.25396771,3.33439535 C4.38574726,3.24679672 4.52195433,3.16392209 4.66224919,3.08606489 L3.93976037,1.53559767 L5.13641055,2.84916875 C5.27902668,2.78540388 5.42505579,2.72654106 5.5741989,2.67283849 L5.16743403,1.00772642 L6.09402101,2.51019662 C6.24319523,2.47032879 6.3949119,2.43545848 6.54890879,2.40581222 L6.48094425,0.684060898 L7.09727602,2.32368927 C7.24945903,2.30728293 7.40345118,2.29590683 7.55902238,2.28975969 L7.83807373,0.575004 L8.11720667,2.29026101 C8.27259336,2.29668187 8.42639694,2.30831966 8.57838774,2.32497605 L9.19520321,0.684060898 L9.12714528,2.40817827 C9.28058365,2.43801595 9.43174786,2.47304204 9.58037789,2.51303194 L10.5087134,1.00772642 L10.1009496,2.6769277 C10.2492111,2.73062926 10.3943812,2.78943459 10.5361654,2.85308922 L11.7363871,1.53559767 L11.0113622,3.09150741 C11.1505431,3.1690832 11.2856822,3.25160375 11.4164463,3.3387814 L12.8387658,2.25070846 L11.8311806,3.64261774 C11.956675,3.74349695 12.0770486,3.84906517 12.1919275,3.95899949 L13.7804181,3.13007452 L12.5334185,4.31731788 C12.6398105,4.43993354 12.7399227,4.56684822 12.8333431,4.69770598 L14.5310785,4.14543231 L13.0912596,5.09852795 C13.1256051,5.15811395 13.1586331,5.21836603 13.1903107,5.27925574 Z M0.708181224,5.27925579 L0.643814462,5.27925579 L0.609527133,5.26414739 L0.708181224,5.27925579 Z M0.251030767,7.66465783 L0.251030767,7.66617815 L0.245183289,7.66565742 L0.251030767,7.66465783 Z M4.34979419,5.27925579 C5.1516046,4.45226596 6.41059467,3.91941565 7.82625686,3.91941565 C9.24191904,3.91941565 10.5009091,4.45226596 11.3027195,5.27925579 L4.34979419,5.27925579 Z" transform="translate(2.25 1)"/>
        </g>
      </g>
    </g>
  </g>
</svg>
