<svg xmlns="http://www.w3.org/2000/svg" xmlns:xlink="http://www.w3.org/1999/xlink" width="20" height="15" viewBox="0 0 20 15">
  <defs>
    <rect id="a" width="20" height="15"/>
    <rect id="c" width="20" height="15"/>
  </defs>
  <g fill="none" fill-rule="evenodd">
    <mask id="b" fill="white">
      <use xlink:href="#a"/>
    </mask>
    <use fill="#FFFFFF" xlink:href="#a"/>
    <g mask="url(#b)">
      <mask id="d" fill="white">
        <use xlink:href="#c"/>
      </mask>
      <g mask="url(#d)">
        <rect width="6" height="15" x="14" fill="#D9071E"/>
        <rect width="6" height="15" fill="#006923"/>
        <rect width="8" height="15" x="6" fill="#FFFFFF"/>
        <g transform="translate(6.875 4.125)">
          <path fill="#FCCA3D" d="M2.1150721,0.820865509 C1.82891,1.04280645 1.71258675,1.27208519 1.76610233,1.50870173 C1.8463757,1.86362655 2.69231765,1.50870173 2.59005299,1.16478362 C2.52187655,0.93550488 2.36354958,0.820865509 2.1150721,0.820865509 Z"/>
          <path fill="#A8AC71" fill-rule="nonzero" d="M1.45961808,1.66755032 C1.13844662,1.66755032 1.00454808,1.39990253 1.07097984,1.11542833 C1.10648208,0.96340058 1.19869148,0.770544714 1.34915135,0.519956422 L1.88498356,0.841684323 C1.82761858,0.937224709 1.78189408,1.02015796 1.74798113,1.08861054 C1.86032018,1.12179493 1.97106063,1.17108783 2.06118741,1.23043762 C2.35300515,1.42260384 2.46042019,1.76500674 2.14756329,2.01877044 C2.08701296,2.06788388 1.98875701,2.2353243 1.93452104,2.39613438 C2.08380078,2.4044555 2.19050157,2.42690882 2.288853,2.48508414 C2.56509909,2.64848497 2.53911291,2.94649674 2.32874249,3.17663383 C2.17964105,3.33974503 1.9805572,3.47205564 1.79300724,3.53982891 C1.48097044,3.65258689 1.14711808,3.60940031 1.14711808,3.20992935 C1.14711808,3.19433787 1.13660813,3.16312395 1.28473147,3.15977721 C1.04696288,3.15640859 0.99607209,3.03052842 0.966418338,2.80639364 C0.958906461,2.7496159 0.955878487,2.69557312 0.951704489,2.57896402 C0.949049868,2.5033993 0.949049868,2.5033993 0.945580006,2.42918119 C0.941271483,2.34829355 0.924605328,2.29063398 1.0983621,2.29063398 L0.735815551,2.29063398 L0.735815551,1.66563398 L1.0983621,1.66563398 C1.30398297,1.66563398 1.41761732,1.73507147 1.48273753,1.87862298 C1.51898148,1.81353211 1.55841586,1.75223632 1.59992009,1.69729299 C1.54764154,1.67919948 1.49462555,1.66755032 1.45961808,1.66755032 Z M1.85770898,2.76535831 C1.86100027,2.76190905 1.86424304,2.75843815 1.86743393,2.75494744 C1.8663703,2.75611101 1.86532514,2.75759665 1.86431492,2.75937981 L1.85770898,2.76535831 Z M1.58388435,2.95082834 C1.58350284,2.95098051 1.58696683,2.9501055 1.59089664,2.94947706 L1.58388435,2.95082834 Z M1.58473429,2.71505751 C1.58517478,2.71814451 1.58560186,2.72126499 1.58601907,2.72441847 C1.58480645,2.71525295 1.58373089,2.70461381 1.58272103,2.69139991 L1.58473429,2.71505751 Z M1.28473147,3.15977721 C1.29324426,3.15958487 1.30228099,3.15948457 1.31187378,3.15948457 C1.30867618,3.15948457 1.30550975,3.15946601 1.30237414,3.15942893 L1.28473147,3.15977721 Z"/>
          <path fill="#8F4620" d="M5.16654427,3.62680147 C5.5519597,2.48457445 5.43833803,1.61782853 4.82567928,1.02656372 C4.21302052,0.435298902 3.55271397,0.159449068 2.84475962,0.199014216 C2.64088419,0.350490104 2.64088419,0.483990214 2.84475962,0.599514546 C3.04863505,0.715038879 3.10786355,0.828184877 3.02244511,0.938952542 C2.68101227,0.592268925 2.39696671,0.520199883 2.17030843,0.722745417 C1.83032103,1.02656372 2.48768508,0.980324486 2.41809762,1.209087 C2.34851016,1.43784952 2.05369265,2.45350862 2.48448447,2.96628842 C2.91527629,3.47906823 2.077181,3.36778433 2.24763931,3.36778433 C2.41809762,3.36778433 3.02244511,3.4871435 3.02244511,3.36778433 C3.02244511,3.24842517 3.23254969,3.83183595 3.41235172,3.83183595 C3.53221974,3.83183595 3.63841572,3.76349112 3.73093968,3.62680147 C3.89897293,3.76349112 4.03418212,3.83183595 4.13656723,3.83183595 C4.23895235,3.83183595 4.46865636,3.78710853 4.82567928,3.69765369 L3.81351208,2.84482747 C3.85418837,2.59405155 3.82666424,2.44152477 3.73093968,2.38724714 C3.58735283,2.30583069 4.88205132,3.1087672 4.98343839,3.36778433 C5.05102977,3.54046242 5.11206507,3.62680147 5.16654427,3.62680147 Z"/>
          <path fill="#9FAB2F" fill-rule="nonzero" d="M0.0415412312,3.20411022 C0.10410308,3.00471213 0.168874281,2.89809208 0.235854833,2.88425006 C0.293884961,2.87225772 0.38391317,2.92003555 0.50593946,3.02758357 C0.831087157,4.83374479 1.61729664,5.53920299 2.92183238,5.53920299 C4.24171738,5.53920299 5.04166575,5.00315123 5.50849335,3.33736379 C5.67392524,3.16840553 5.78583051,3.09331687 5.84420915,3.11209781 C5.9077672,3.13254501 5.97936358,3.25453662 6.05899832,3.47807265 C5.52344983,5.38907782 4.51161187,6.23992646 2.92183238,6.23992646 C1.31670363,6.23992646 0.414883711,5.27798838 0.0415412312,3.20411022 Z"/>
          <path fill="#2FC2DC" d="M1.45889536,4.41026883 C2.71071255,4.67583099 3.58367041,4.80861207 4.07776892,4.80861207 C4.8189167,4.80861207 3.42747718,5.41348316 2.88456076,5.41348316 C2.52261647,5.41348316 2.04739467,5.07907839 1.45889536,4.41026883 Z"/>
          <rect width="1.25" height="1" x="2.292" y="4.688" fill="#F9AA51" rx=".104"/>
          <path fill="#259485" fill-rule="nonzero" d="M0.734702522,3.45992826 L1.24634184,3.10097116 C1.91224163,4.05011106 2.90805815,4.36235703 4.30081948,4.03646303 L4.44321768,4.64502507 C2.81508471,5.02599397 1.55657029,4.63137705 0.734702522,3.45992826 Z"/>
          <path fill="#FCCA3D" d="M3.49458675 3.59390919C2.98889033 3.86010797 2.82032485 3.99320737 2.98889033 3.99320737 3.24173854 3.99320737 4.23129497 4.19285646 4.03874213 3.99320737 3.91037356 3.86010797 3.72898844 3.72700858 3.49458675 3.59390919zM2.59774478 3.11763894C2.50165764 2.84011506 2.35363802 2.70135311 2.15368591 2.70135311 1.85375775 2.70135311 1.93841906 3.04283758 1.7941851 3.04283758 1.64995115 3.04283758 1.92857627 3.28314147 2.05276344 3.28314147 2.13555489 3.28314147 2.31721533 3.22797396 2.59774478 3.11763894z"/>
        </g>
      </g>
    </g>
  </g>
</svg>
