<svg xmlns="http://www.w3.org/2000/svg" xmlns:xlink="http://www.w3.org/1999/xlink" width="20" height="15" viewBox="0 0 20 15">
  <defs>
    <rect id="a" width="20" height="15"/>
    <rect id="c" width="20" height="15"/>
  </defs>
  <g fill="none" fill-rule="evenodd">
    <mask id="b" fill="white">
      <use xlink:href="#a"/>
    </mask>
    <use fill="#FFFFFF" xlink:href="#a"/>
    <g mask="url(#b)">
      <mask id="d" fill="white">
        <use xlink:href="#c"/>
      </mask>
      <g mask="url(#d)">
        <polygon fill="#F7FCFF" points="0 0 20 0 20 15 0 15"/>
        <rect width="20" height="1.813" x=".017" y="3.125" fill="#E31D1C"/>
        <rect width="20" height="1.813" x=".017" y="6.375" fill="#E31D1C"/>
        <rect width="20" height="1.563" x=".07" y="9.5" fill="#E31D1C"/>
        <rect width="20" height="1.688" x=".07" y="12.625" fill="#E31D1C"/>
        <rect width="20" height="1.563" fill="#E31D1C"/>
        <polygon fill="#3D58DB" points="0 0 10 0 10 8.5 0 8.5"/>
        <path fill="#FECA00" d="M2.24596682,3.87638825 C2.24596682,4.73652735 2.65110629,5.54991016 3.47532206,5.54991016 C4.71193665,5.54991016 4.95251861,5.28627234 5.52954949,4.92253736 C5.66597379,5.22895921 5.20581251,6.54027358 3.45844748,6.54027358 C2.06078685,6.51213574 0.931268972,5.38929919 0.931268972,3.87638755 C0.931268972,2.13981666 2.20850355,1.2019749 3.42337291,1.21259209 C4.49589027,1.21259209 5.63340915,1.82118868 5.59854988,2.59757986 C5.09320922,2.10392729 4.54449385,2.10392729 3.63106425,2.10392729 C2.71763464,2.10392729 2.24596682,3.0161409 2.24596682,3.87638825 Z"/>
        <polygon fill="#FECA00" points="6.875 4.562 6.296 5.408 6.324 4.383 5.358 4.727 5.983 3.915 5 3.625 5.983 3.335 5.358 2.523 6.324 2.867 6.296 1.842 6.875 2.687 7.454 1.842 7.426 2.867 8.392 2.523 7.767 3.335 8.75 3.625 7.767 3.915 8.392 4.727 7.426 4.383 7.454 5.408"/>
      </g>
    </g>
  </g>
</svg>
