<svg xmlns="http://www.w3.org/2000/svg" xmlns:xlink="http://www.w3.org/1999/xlink" width="20" height="15" viewBox="0 0 20 15">
  <defs>
    <rect id="na---namibia-a" width="20" height="15" x="0" y="0"/>
    <rect id="na---namibia-c" width="20" height="15" x="0" y="0"/>
  </defs>
  <g fill="none" fill-rule="evenodd">
    <mask id="na---namibia-b" fill="#fff">
      <use xlink:href="#na---namibia-a"/>
    </mask>
    <g mask="url(#na---namibia-b)">
      <mask id="na---namibia-d" fill="#fff">
        <use xlink:href="#na---namibia-c"/>
      </mask>
      <use fill="#093" xlink:href="#na---namibia-c"/>
      <polygon fill="#3195F9" points="0 0 0 15 20 0" mask="url(#na---namibia-d)"/>
      <g mask="url(#na---namibia-d)">
        <g transform="translate(-2.5 -1.5)">
          <path fill="#E31D1C" fill-rule="nonzero" stroke="#F7FCFF" stroke-width="1.25" d="M2.19881187,19.0342611 L-0.201678394,14.6851078 L22.9803983,-0.760441011 L24.9748053,3.53110334 L2.19881187,19.0342611 Z"/>
          <path fill="#FECA00" d="M6.39353347,7.27797757 L5.58472395,8.28704404 L5.3888076,7.00876208 L4.18382477,7.47823453 L4.65329722,6.2732517 L3.37501526,6.07733535 L4.38408174,5.26852584 L3.37501526,4.45971632 L4.65329722,4.26379997 L4.18382477,3.05881715 L5.3888076,3.52828959 L5.58472395,2.25000763 L6.39353347,3.25907411 L7.20234298,2.25000763 L7.39825933,3.52828959 L8.60324216,3.05881715 L8.13376971,4.26379997 L9.41205167,4.45971632 L8.4029852,5.26852584 L9.41205167,6.07733535 L8.13376971,6.2732517 L8.60324216,7.47823453 L7.39825933,7.00876208 L7.20234298,8.28704404 L6.39353347,7.27797757 Z M6.39353347,6.83102584 C7.25647839,6.83102584 7.95603347,6.13147076 7.95603347,5.26852584 C7.95603347,4.40558091 7.25647839,3.70602584 6.39353347,3.70602584 C5.53058854,3.70602584 4.83103347,4.40558091 4.83103347,5.26852584 C4.83103347,6.13147076 5.53058854,6.83102584 6.39353347,6.83102584 Z M6.39353347,6.51852584 C5.70317753,6.51852584 5.14353347,5.95888177 5.14353347,5.26852584 C5.14353347,4.5781699 5.70317753,4.01852584 6.39353347,4.01852584 C7.0838894,4.01852584 7.64353347,4.5781699 7.64353347,5.26852584 C7.64353347,5.95888177 7.0838894,6.51852584 6.39353347,6.51852584 Z"/>
        </g>
      </g>
    </g>
  </g>
</svg>
