<svg xmlns="http://www.w3.org/2000/svg" xmlns:xlink="http://www.w3.org/1999/xlink" width="20" height="15" viewBox="0 0 20 15">
  <defs>
    <rect id="a" width="20" height="15"/>
    <rect id="c" width="20" height="15"/>
  </defs>
  <g fill="none" fill-rule="evenodd">
    <mask id="b" fill="white">
      <use xlink:href="#a"/>
    </mask>
    <use fill="#FFFFFF" xlink:href="#a"/>
    <g mask="url(#b)">
      <mask id="d" fill="white">
        <use xlink:href="#c"/>
      </mask>
      <g mask="url(#d)">
        <rect width="6" height="15" x="14" fill="#409100"/>
        <rect width="6" height="15" fill="#409100"/>
        <rect width="8" height="15" x="6" fill="#FFFFFF"/>
        <path fill="#409100" d="M4.45576726,3.60314146 C4.34203085,3.63672241 4.22999417,3.67079473 4.14422689,3.69701642 C3.81827402,3.79667021 4.14422689,3.69701642 4.18071932,3.81637778 C4.21227528,3.91959267 4.5385344,3.71784015 4.79683944,3.57636097 C4.82955192,3.57341019 4.86340477,3.5702754 4.898398,3.5669566 C5.04125862,3.73180049 5.11268893,3.86455334 5.11268893,3.96521516 C5.11268893,4.0562365 4.81156125,4.08090574 4.49981646,4.10970886 C4.51492367,4.08985778 4.45098333,4.10024881 4.357057,4.1234685 C4.20113733,4.13951444 4.05387363,4.15937794 3.95288296,4.19218593 C3.85642928,4.22352003 3.87270281,4.23660063 3.95111488,4.23940283 C3.94378473,4.24163771 3.93667257,4.24380968 3.92980482,4.24590936 C3.70496555,4.31464962 3.92980482,4.24590936 3.96629725,4.36527073 C3.99438753,4.45714989 4.16879397,4.33403271 4.32862217,4.22453409 C4.54491717,4.21056597 4.78303472,4.19218593 4.898398,4.19218593 C5.17749388,4.19218593 4.61930211,4.32673708 4.40585768,4.32673708 C4.19241324,4.32673708 5.11268893,4.44035092 5.28243445,4.54079865 C5.45217996,4.64124638 4.64870081,4.54079865 4.40585768,4.54079865 C4.16301454,4.54079865 4.11786261,4.73925357 4.28402916,4.73925357 C4.4501957,4.73925357 4.66602048,4.73925357 4.898398,4.73925357 C5.13077552,4.73925357 5.37267566,5.09473836 5.28243445,5.09473836 C5.19219323,5.09473836 4.76175797,5.29434932 4.28402916,5.29434932 C3.80630034,5.29434932 4.898398,5.29486312 5.11268893,5.29434932 C5.32697986,5.29383552 5.93834493,5.29486312 5.93834493,5.50616302 C5.93834493,5.71746292 5.63924515,5.66370668 5.37267566,5.80821269 C5.10610618,5.9527187 6.16989161,6.08399439 6.16989161,6.08399439 C6.16989161,6.08399439 5.74885115,6.21494894 5.54395502,6.21494894 C5.33905889,6.21494894 5.63924515,6.40852277 6.16989161,6.40852277 C6.70053808,6.40852277 6.34391911,6.78121983 6.34391911,6.86529021 C6.34391911,6.9493606 5.93834493,7.00709878 5.63924515,7.26817297 C5.34014537,7.52924716 6.06501496,7.26817297 6.34391911,7.26817297 C6.62282327,7.26817297 6.74163235,7.27979767 6.65081594,7.4150553 C6.55999953,7.55031292 5.74885115,7.76431027 5.54395502,7.76431027 C5.33905889,7.76431027 6.34391911,7.76431027 6.65081594,7.76431027 C6.95771276,7.76431027 6.56485671,8.00675924 6.16989161,8.00675924 C5.77492652,8.00675924 5.63924515,8.22846357 5.54395502,8.22846357 C5.4486649,8.22846357 5.74885115,8.22846357 6.34391911,8.22846357 C6.42053597,8.22846357 6.51138033,7.99836632 6.56485671,8.00675924 C6.92672078,8.06355242 6.76436377,8.51901699 6.56485671,8.51901699 C6.33586643,8.51901699 5.63924515,8.67257871 5.74885115,8.82755337 C5.85845716,8.98252804 6.09537231,8.67257871 6.65081594,8.67257871 C7.20625957,8.67257871 6.70424487,8.82755337 6.56485671,8.82755337 C6.42546854,8.82755337 5.83576904,8.94013961 5.63924515,9.03744032 C5.44272125,9.13474104 6.56485671,9.03744032 7.02207035,9.03744032 C7.47928398,9.03744032 5.93834493,9.4264505 5.37267566,9.4264505 C4.8070064,9.4264505 5.74885115,9.5758376 5.93834493,9.5758376 C6.1278387,9.5758376 6.78183187,9.70492964 7.27112843,9.70492964 C7.76042499,9.70492964 6.78183187,10.0272744 6.34391911,10.0272744 C5.90600636,10.0272744 5.54395502,10.0043461 5.74885115,10.2607319 C5.95374729,10.5171176 7.08828132,10.137677 7.45359208,10.3501971 C7.81890284,10.5627173 5.91910795,10.5113374 5.54395502,10.5113374 C5.16880209,10.5113374 5.91910795,10.6505127 6.56485671,10.6505127 C7.21060546,10.6505127 7.36009144,10.6413928 7.36009144,10.8398477 C7.36009144,11.0383026 5.58089512,10.939589 5.37267566,10.939589 C5.1644562,10.939589 5.13767782,11.2002778 4.898398,11.2002778 C4.65911817,11.2002778 4.71765993,10.8408753 4.42966486,11.0401652 C4.23766815,11.1730251 4.33366651,11.9096329 4.71765993,13.2499886 L3.16285235,13.2499886 L3.16285235,11.356537 C2.82553427,11.2510797 2.33278655,11.2510797 1.68460921,11.356537 C1.03643187,11.4619943 0.610150769,11.356537 0.405765919,11.0401652 C0.405765919,11.0401652 0.44658324,11.0066398 0.528217881,10.939589 C0.650669842,10.8390128 1.20496309,10.939589 1.52170209,10.939589 C1.83844108,10.939589 2.25488001,10.8398477 2.62932992,10.8398477 C3.00377984,10.8398477 1.52170209,10.3501971 1.20496309,10.6505127 C0.88822409,10.9508283 0,10.5113374 0,10.2607319 C9.20709792e-18,10.0101263 0.702373201,10.2607319 0.987284915,10.2607319 C1.27219663,10.2607319 0.702373201,9.70492964 0.405765919,9.70492964 C0.109158638,9.70492964 0.702373201,9.5758376 0.987284915,9.5758376 C1.27219663,9.5758376 1.52170209,9.70492964 1.68460921,9.70492964 C1.84751633,9.70492964 0.866558529,9.28329321 0.702373201,9.28329321 C0.538187873,9.28329321 0.987284915,9.28329321 1.52170209,9.28329321 C2.05611926,9.28329321 1.82150488,9.4264505 2.25488001,9.4264505 C2.68825514,9.4264505 2.45095653,9.18939642 2.45095653,9.18939642 C2.45095653,9.18939642 0.987284915,9.03744032 0.702373201,8.82755337 C0.417461488,8.61766642 1.68460921,8.82755337 2.11683396,8.82755337 C2.5490587,8.82755337 1.20496309,8.51901699 0.987284915,8.51901699 C0.769606741,8.51901699 1.52170209,8.51901699 1.97782925,8.51901699 C2.43395641,8.51901699 2.98396768,8.82755337 3.53941131,8.82755337 C4.09485494,8.82755337 1.68460921,8.22846357 1.3214714,8.00675924 C0.95833359,7.78505491 1.97782925,8.22846357 2.45095653,8.22846357 C2.92408381,8.22846357 1.82150488,7.76431027 1.52170209,7.76431027 C1.22189929,7.76431027 0.934878543,7.62937377 1.20496309,7.50464902 C1.47504763,7.37992428 2.45095653,7.76431027 2.74232317,7.76431027 C3.03368982,7.76431027 3.16285235,8.00675924 3.53941131,8.00675924 C3.91597026,8.00675924 2.74232317,7.50464902 2.25488001,7.50464902 C1.76743684,7.50464902 1.68460921,7.26817297 1.97782925,7.26817297 C2.27104929,7.26817297 1.3214714,6.86529021 1.3214714,6.86529021 C1.3214714,6.86529021 1.18380881,6.57955366 1.52170209,6.57955366 C1.85959536,6.57955366 1.82150488,6.57955366 1.97782925,6.57955366 C2.13415362,6.57955366 1.82150488,6.08399439 1.52170209,6.08399439 C1.22189929,6.08399439 1.48335596,5.93428616 1.97782925,5.93428616 C2.47230254,5.93428616 2.62932992,6.21494894 3.16285235,6.40852277 C3.69637478,6.6020966 3.29393219,6.08399439 3.16285235,6.08399439 C3.03177251,6.08399439 1.68460921,5.66171571 1.68460921,5.66171571 C1.68460921,5.66171571 1.82150488,5.50616302 1.68460921,5.29434932 C1.54771354,5.08253563 2.34716635,5.29434932 2.45095653,5.29434932 C2.55474671,5.29434932 2.98396768,5.41843182 3.38423732,5.50616302 C3.78450696,5.59389423 2.02454761,4.85986792 1.82150488,4.85986792 C1.61846214,4.85986792 2.25488001,4.73925357 2.62932992,4.73925357 C3.00377984,4.73925357 2.98396768,4.85986792 3.38423732,4.85986792 C3.78450696,4.85986792 2.62932992,4.43084563 2.25488001,4.43084563 C1.88043009,4.43084563 2.10181506,4.06142405 2.25488001,4.06142405 C2.40794496,4.06142405 3.16285235,4.19218593 3.53941131,4.19218593 C3.91597026,4.19218593 2.74232317,3.96521516 2.62932992,3.77761425 C2.55053618,3.64679423 2.75408324,3.69842403 3.07286255,3.74166166 C3.23430826,3.82625539 3.36917917,3.88089483 3.38890401,3.81637778 C3.39457812,3.7978186 3.40725032,3.78455439 3.42338191,3.77501265 C3.46150643,3.77668125 3.50024051,3.77761425 3.53941131,3.77761425 C3.76261423,3.77761425 3.65947035,3.74359717 3.44464454,3.70290228 C3.43849752,3.70102182 3.4320842,3.69906107 3.42539644,3.69701642 C3.09944357,3.59736262 2.39407392,3.38431984 2.65793689,3.51578713 C2.70961836,3.54153695 2.76769682,3.57331042 2.82795791,3.6068632 C2.65010358,3.58329116 2.50062666,3.5669566 2.45095653,3.5669566 C2.27258314,3.5669566 2.09369846,3.42912998 2.45095653,3.42912998 C2.8082146,3.42912998 3.38423732,3.42912998 3.16285235,3.42912998 C2.94146739,3.42912998 2.62932992,3.42912998 2.62932992,3.25520896 C2.62932992,3.08128795 3.16285235,3.25520896 3.38423732,3.25520896 C3.60562228,3.25520896 3.66071288,3.25520896 3.53941131,3.15174266 C3.41810973,3.04827636 2.98396768,3.0543135 2.74232317,3.0543135 C2.50067867,3.0543135 3.25469132,2.92804736 3.53941131,2.92804736 C3.82413129,2.92804736 3.16285235,2.92804736 2.74232317,2.73781323 C2.321794,2.54757909 3.16285235,2.73781323 3.53941131,2.73781323 C3.91597026,2.73781323 3.38423732,2.48457447 2.98396768,2.48457447 C2.58369803,2.48457447 2.91973792,2.34835347 3.16285235,2.19511288 C3.40596679,2.04187228 3.53941131,2.58662783 3.53941131,2.34835347 C3.53941131,2.11007912 3.38423732,2.09158235 3.53941131,2.19511288 C3.64286063,2.26413323 3.64286063,2.17359754 3.53941131,1.9235058 C3.43596198,1.85444264 3.43596198,1.81991105 3.53941131,1.81991105 C3.69458529,1.81991105 3.48949743,1.64181542 3.38423732,1.64181542 C3.31406391,1.64181542 3.40622243,1.58501921 3.66071288,1.47142678 L3.74481872,0.749988556 C3.88352821,1.27406368 3.95288296,1.57133931 3.95288296,1.64181542 C3.95288296,1.7475296 3.95288296,1.8982012 3.95288296,2.19511288 C3.95288296,2.49202456 3.47978308,2.58662783 3.95288296,2.58662783 C4.42598284,2.58662783 4.40585768,2.73781323 4.11786261,2.73781323 C3.82986755,2.73781323 4.20056242,2.92804736 4.71765993,2.92804736 C5.23475743,2.92804736 4.28402916,3.15174266 3.95288296,3.15174266 C3.62173676,3.15174266 4.28402916,3.25520896 4.71765993,3.25520896 C5.1512907,3.25520896 4.28402916,3.4771702 4.11786261,3.5669566 C4.03807883,3.61006695 4.15071371,3.62212857 4.45576726,3.60314146 Z M3.59475755,9.54253463 C3.30677814,9.54253463 2.68422879,9.54728727 2.92989964,9.63977112 C3.17557048,9.73225497 3.59475755,10.0177988 3.59475755,9.78016674 C3.59475755,9.54253463 3.88273695,9.54253463 3.59475755,9.54253463 Z M3.43889569,8.91601746 C3.15091629,8.91601746 2.52836694,8.92077011 2.77403779,9.01325395 C3.01970863,9.1057378 3.43889569,9.39128167 3.43889569,9.15364957 C3.43889569,8.91601746 3.7268751,8.91601746 3.43889569,8.91601746 Z M3.46239206,8.44612959 C3.22727949,8.44612959 2.71901682,8.44862589 2.91958778,8.49720262 C3.12015874,8.54577935 3.46239206,8.69575999 3.46239206,8.57094479 C3.46239206,8.44612959 3.69750464,8.44612959 3.46239206,8.44612959 Z M3.42539644,6.51634367 C3.09944357,6.41668987 2.39407392,6.20364709 2.65793689,6.33511438 C2.92179986,6.46658167 3.35241157,6.7550664 3.38890401,6.63570503 C3.42539644,6.51634367 3.75134931,6.61599746 3.42539644,6.51634367 Z M3.42539644,5.8898265 C3.09944357,5.7901727 2.39407392,5.57712993 2.65793689,5.70859722 C2.92179986,5.8400645 3.35241157,6.12854924 3.38890401,6.00918787 C3.42539644,5.8898265 3.75134931,5.98948029 3.42539644,5.8898265 Z M3.42539644,5.10668004 C3.09944357,5.00702625 2.39407392,4.79398347 2.65793689,4.92545076 C2.92179986,5.05691805 3.35241157,5.34540278 3.38890401,5.22604141 C3.42539644,5.10668004 3.75134931,5.20633383 3.42539644,5.10668004 Z M4.13072764,9.38590534 C3.84274823,9.38590534 4.13072764,9.38590534 4.13072764,9.62353744 C4.13072764,9.86116955 4.5499147,9.57562567 4.79558555,9.48314183 C5.04125639,9.39065798 4.41870704,9.38590534 4.13072764,9.38590534 Z M4.13072764,8.91601746 C3.84274823,8.91601746 4.13072764,8.91601746 4.13072764,9.15364957 C4.13072764,9.39128167 4.5499147,9.1057378 4.79558555,9.01325395 C5.04125639,8.92077011 4.41870704,8.91601746 4.13072764,8.91601746 Z M4.10723127,8.13287101 C3.87211869,8.13287101 4.10723127,8.13287101 4.10723127,8.2576862 C4.10723127,8.3825014 4.97340786,7.98035104 5.17397882,7.93177431 C5.37454978,7.88319758 4.34234384,8.13287101 4.10723127,8.13287101 Z M4.14422689,6.20308508 C3.81827402,6.30273888 4.14422689,6.20308508 4.18071932,6.32244645 C4.21721176,6.44180782 4.64782347,6.15332309 4.91168644,6.0218558 C5.17554941,5.89038851 4.47017977,6.10343129 4.14422689,6.20308508 Z M4.14422689,6.82960225 C3.81827402,6.92925604 4.14422689,6.82960225 4.18071932,6.94896362 C4.21721176,7.06832499 4.64782347,6.77984025 4.91168644,6.64837297 C5.17554941,6.51690568 4.47017977,6.72994846 4.14422689,6.82960225 Z M4.14422689,5.57656792 C3.81827402,5.67622171 4.14422689,5.57656792 4.18071932,5.69592928 C4.21721176,5.81529065 4.64782347,5.52680592 4.91168644,5.39533863 C5.17554941,5.26387134 4.47017977,5.47691412 4.14422689,5.57656792 Z M3.92980482,5.02905582 C3.70496555,5.09779608 3.92980482,5.02905582 3.96629725,5.14841719 C4.00278968,5.26777856 4.28621895,5.02429201 4.46382345,4.91919659 C4.64142795,4.81410116 4.15464409,4.96031555 3.92980482,5.02905582 Z M4.07325328,7.20873046 C3.90112179,7.34475879 3.90112179,7.41277295 4.07325328,7.41277295 C4.33145053,7.41277295 5.40351234,7.04926005 4.91705978,7.04926005 C4.43060722,7.04926005 4.33911976,7.20873046 4.20618652,7.20873046 L4.07325328,7.20873046 Z" transform="translate(6.25 .375)"/>
      </g>
    </g>
  </g>
</svg>
