<svg xmlns="http://www.w3.org/2000/svg" xmlns:xlink="http://www.w3.org/1999/xlink" width="20" height="15" viewBox="0 0 20 15">
  <defs>
    <rect id="a" width="20" height="15" rx="1.5"/>
    <path id="c" d="M1.59000431e-14,1.28584538 L-9.32587341e-14,13.75 C-9.89992027e-14,14.4403559 0.559644063,15 1.25,15 L13.75,15 L7.5,7.61538462 L15,7.61538462 L1.86467292,0.1974166 C1.26355031,-0.14205788 0.501045703,0.0700498419 0.161571224,0.671172456 C0.0556560429,0.858721194 1.60326069e-14,1.07045607 1.44328993e-14,1.28584538 Z"/>
  </defs>
  <g fill="none" fill-rule="evenodd">
    <mask id="b" fill="white">
      <use xlink:href="#a"/>
    </mask>
    <use fill="#FFFFFF" xlink:href="#a"/>
    <g mask="url(#b)">
      <g transform="translate(0 -1)">
        <g transform="translate(0 1)">
          <mask id="d" fill="white">
            <use xlink:href="#c"/>
          </mask>
          <use fill="#C51918" xlink:href="#c"/>
          <polygon fill="#F7FCFF" points="3.644 12.545 2.878 13.523 2.842 12.288 1.639 12.637 2.347 11.618 1.166 11.203 2.347 10.788 1.639 9.769 2.842 10.117 2.878 8.882 3.644 9.861 4.409 8.882 4.445 10.117 5.648 9.769 4.94 10.788 6.121 11.203 4.94 11.618 5.648 12.637 4.445 12.288 4.409 13.523" mask="url(#d)"/>
          <polygon fill="#F7FCFF" points="3.625 5.239 3.225 5.75 3.207 5.105 2.578 5.287 2.948 4.755 2.331 4.538 2.948 4.322 2.578 3.79 3.207 3.972 3.225 3.327 3.625 3.838 4.025 3.327 4.043 3.972 4.672 3.79 4.302 4.322 4.919 4.538 4.302 4.755 4.672 5.287 4.043 5.105 4.025 5.75" mask="url(#d)"/>
          <path fill="#F9FAFA" d="M3.46617251,5.09604779 C3.46061424,6.46608905 4.24998477,7.19655258 4.24998477,7.19655258 C3.34925915,7.3410583 2.74998471,6.22535415 2.74998471,5.10940093 C2.74998471,3.99344771 3.5668703,3.31779347 4.24998477,2.90153621 C4.24998477,2.90153621 3.47173078,3.72600654 3.46617251,5.09604779 Z" mask="url(#d)" transform="rotate(-90 3.5 5.055)"/>
        </g>
        <path stroke="#000000" stroke-opacity=".1" d="M12.6717818,15.5881548 L6.42178182,8.20353943 L13.1255557,8.20353943 L0.5,0.9519382 L0.5,15.5881548 L12.6717818,15.5881548 Z"/>
      </g>
    </g>
  </g>
</svg>
