<svg xmlns="http://www.w3.org/2000/svg" xmlns:xlink="http://www.w3.org/1999/xlink" width="20" height="15" viewBox="0 0 20 15">
  <defs>
    <rect id="a" width="20" height="15"/>
    <rect id="c" width="20" height="15"/>
    <rect id="e" width="20" height="15"/>
    <rect id="g" width="11.25" height="8.75"/>
  </defs>
  <g fill="none" fill-rule="evenodd">
    <mask id="b" fill="white">
      <use xlink:href="#a"/>
    </mask>
    <use fill="#FFFFFF" xlink:href="#a"/>
    <g mask="url(#b)">
      <mask id="d" fill="white">
        <use xlink:href="#c"/>
      </mask>
      <g mask="url(#d)">
        <mask id="f" fill="white">
          <use xlink:href="#e"/>
        </mask>
        <use fill="#2E42A5" xlink:href="#e"/>
        <g mask="url(#f)">
          <mask id="h" fill="white">
            <use xlink:href="#g"/>
          </mask>
          <g mask="url(#h)">
            <g transform="translate(-2.5 -1.25)">
              <polygon fill="#FFFFFF" fill-rule="nonzero" points="1.247 1.54 3.723 .454 13.806 8.484 15.112 10.098 12.465 10.461 8.352 7 5.042 4.669" transform="matrix(1 0 0 -1 0 10.915)"/>
              <polygon fill="#F50100" fill-rule="nonzero" points="1.586 1.297 2.847 .667 14.643 10.766 12.872 10.766" transform="matrix(1 0 0 -1 0 11.433)"/>
              <g transform="matrix(-1 0 0 1 16.25 0)">
                <polygon fill="#FFFFFF" fill-rule="nonzero" points="1.247 1.54 3.723 .454 13.806 8.484 15.112 10.098 12.465 10.461 8.352 7 5.042 4.669" transform="matrix(1 0 0 -1 0 10.915)"/>
                <polygon fill="#F50100" fill-rule="nonzero" points="1.332 1.453 2.593 .823 7.616 5.146 9.105 5.629 15.238 10.551 13.467 10.551 7.337 5.746 5.709 5.167" transform="matrix(1 0 0 -1 0 11.373)"/>
              </g>
              <path fill="#F50100" stroke="#F7FCFF" stroke-width=".938" d="M4.5215697,3.28125 L4.5215697,-0.46875 L6.7090697,-0.46875 L6.7090697,3.28125 L11.71875,3.28125 L11.71875,5.46875 L6.7090697,5.46875 L6.7090697,9.21875 L4.5215697,9.21875 L4.5215697,5.46875 L-0.46875,5.46875 L-0.46875,3.28125 L4.5215697,3.28125 Z" transform="translate(2.5 1.25)"/>
            </g>
          </g>
        </g>
        <g fill="#F50100" stroke="#F7FCFF" stroke-width=".5" mask="url(#f)">
          <g transform="translate(11.25 2.5)">
            <polygon points="4.283 10.313 3.181 10.892 3.392 9.665 2.5 8.796 3.732 8.617 4.283 7.5 4.834 8.617 6.066 8.796 5.175 9.665 5.385 10.892"/>
            <polygon points="2 6.169 1.15 6.615 1.313 5.669 .625 4.999 1.575 4.861 2 4 2.425 4.861 3.375 4.999 2.688 5.669 2.85 6.615"/>
            <polygon points="6.373 6.166 5.525 6.612 5.687 5.667 5 4.998 5.949 4.86 6.373 4 6.798 4.86 7.747 4.998 7.06 5.667 7.222 6.612"/>
            <polygon points="4.5 2.669 3.65 3.115 3.813 2.169 3.125 1.499 4.075 1.361 4.5 .5 4.925 1.361 5.875 1.499 5.188 2.169 5.35 3.115"/>
          </g>
        </g>
      </g>
    </g>
  </g>
</svg>
