<svg xmlns="http://www.w3.org/2000/svg" xmlns:xlink="http://www.w3.org/1999/xlink" width="20" height="15" viewBox="0 0 20 15">
  <defs>
    <rect id="a" width="20" height="15"/>
    <rect id="c" width="20" height="15"/>
    <rect id="e" width="20" height="15"/>
  </defs>
  <g fill="none" fill-rule="evenodd">
    <mask id="b" fill="white">
      <use xlink:href="#a"/>
    </mask>
    <use fill="#FFFFFF" xlink:href="#a"/>
    <g mask="url(#b)">
      <mask id="d" fill="white">
        <use xlink:href="#c"/>
      </mask>
      <g mask="url(#d)">
        <mask id="f" fill="white">
          <use xlink:href="#e"/>
        </mask>
        <use fill="#F50101" xlink:href="#e"/>
        <rect width="20" height="5" fill="#F7FCFF" mask="url(#f)"/>
        <rect width="20" height="5" y="10" fill="#5EAA22" mask="url(#f)"/>
        <rect width="7.5" height="15" fill="#F50101" mask="url(#f)"/>
        <g fill="#F7FCFF" mask="url(#f)">
          <path d="M5.67953213,4.4005535 C5.50380671,4.67019233 5.30650018,4.93416528 5.08761255,5.19247236 C5.07695579,5.2050483 5.06626485,5.21757793 5.05553972,5.23006126 C5.85793479,6.09324704 6.70158419,6.81932854 7.58648792,7.40830575 L7.58639657,7.40844299 C7.61130764,7.42502339 7.61806099,7.45865887 7.6014806,7.48356994 C7.588902,7.50246855 7.5658756,7.51152185 7.54379411,7.50625058 C6.40782671,7.23507355 5.41904535,6.74144313 4.57745004,6.02535931 C4.41181007,6.20771456 4.18388655,6.30132796 3.89367946,6.30619951 C3.09060475,6.89204937 2.15630031,7.30012401 1.09076614,7.53042344 C1.07158731,7.53456866 1.05165622,7.52813855 1.03851587,7.51356661 C1.01825683,7.49110044 1.02004606,7.45646482 1.04251224,7.43620578 L1.04279852,7.43652325 C1.56235808,6.96800655 2.02117668,6.55366597 2.41925432,6.19350151 C1.84277073,6.08136267 1.38294572,5.86429659 1.38294572,5.45399761 C1.38294572,4.96284855 2.10682355,4.79668035 3.55457921,4.95549301 C3.42835038,4.7956337 3.3096136,4.63366104 3.19836888,4.46957504 C3.05334879,4.4616129 2.93039126,4.37184028 2.87587449,4.2461367 L2.70989516,4.2461367 L2.70989516,4.6812602 C2.70989516,4.71127568 2.68556281,4.73560803 2.65554733,4.73560803 L1.33761255,4.73560803 C1.30759707,4.73560803 1.28326472,4.71127568 1.28326472,4.6812602 L1.28326472,3.85245586 C1.28326472,3.82244038 1.30759707,3.79810803 1.33761255,3.79810803 L2.65554733,3.79810803 C2.68556281,3.79810803 2.70989516,3.82244038 2.70989516,3.85245586 L2.70989516,3.87277948 L2.83193258,3.87277948 C2.38588321,3.06465356 2.11087623,2.20828026 2.00691166,1.3036596 L2.00774906,1.30356336 C2.0043752,1.27420665 2.02543847,1.24767328 2.05479519,1.24429942 C2.07617668,1.24184213 2.09694924,1.25243523 2.10751614,1.27118482 C2.51128649,1.98762252 3.0593542,2.78980315 3.75171927,3.67772668 L3.81483209,3.16778537 C4.04249633,3.11220326 4.15632845,2.99287049 4.15632845,2.80978707 C4.15632845,2.62670364 4.15632845,2.43580381 4.15632845,2.23708758 L3.59304733,1.77121912 L4.33826276,1.25 L5.04530569,1.77121912 L4.53050167,2.23708758 L4.53050167,2.80978707 C4.72021562,2.98377933 4.84482629,3.1031121 4.90433369,3.16778537 L4.90433369,3.74526177 C5.64403857,2.80800723 6.22141607,1.97461419 6.63646619,1.24508267 C6.64674405,1.22701733 6.66644662,1.21641952 6.68718501,1.21780153 C6.7170558,1.21979214 6.73965715,1.2456209 6.73766655,1.27549169 L6.73780825,1.27550113 C6.67868679,2.16267154 6.44320467,3.0035405 6.0313619,3.79810803 L7.34304733,3.79810803 C7.37306281,3.79810803 7.39739516,3.82244038 7.39739516,3.85245586 L7.39739516,4.6812602 C7.39739516,4.71127568 7.37306281,4.73560803 7.34304733,4.73560803 L6.02511255,4.73560803 C5.99509707,4.73560803 5.97076472,4.71127568 5.97076472,4.6812602 L5.97076472,4.2461367 L5.80478539,4.2461367 C5.77786321,4.30821327 5.73425033,4.36152731 5.67953213,4.4005535 Z M3.21940603,4.40294674 C3.38824308,4.40294674 3.52511255,4.26754898 3.52511255,4.10052739 C3.52511255,3.93350579 3.38824308,3.79810803 3.21940603,3.79810803 C3.05056898,3.79810803 2.9136995,3.93350579 2.9136995,4.10052739 C2.9136995,4.26754898 3.05056898,4.40294674 3.21940603,4.40294674 Z M5.46125385,4.40294674 C5.6300909,4.40294674 5.76696037,4.26754898 5.76696037,4.10052739 C5.76696037,3.93350579 5.6300909,3.79810803 5.46125385,3.79810803 C5.2924168,3.79810803 5.15554733,3.93350579 5.15554733,4.10052739 C5.15554733,4.26754898 5.2924168,4.40294674 5.46125385,4.40294674 Z"/>
        </g>
      </g>
    </g>
  </g>
</svg>
