<svg xmlns="http://www.w3.org/2000/svg" xmlns:xlink="http://www.w3.org/1999/xlink" width="20" height="15" viewBox="0 0 20 15">
  <defs>
    <rect id="a" width="20" height="15"/>
    <rect id="c" width="20" height="15"/>
    <rect id="e" width="20" height="15"/>
    <polygon id="g" points="0 0 0 15 11.25 7.5"/>
  </defs>
  <g fill="none" fill-rule="evenodd">
    <mask id="b" fill="white">
      <use xlink:href="#a"/>
    </mask>
    <use fill="#FFFFFF" xlink:href="#a"/>
    <g mask="url(#b)">
      <mask id="d" fill="white">
        <use xlink:href="#c"/>
      </mask>
      <g mask="url(#d)">
        <mask id="f" fill="white">
          <use xlink:href="#e"/>
        </mask>
        <use fill="#BF2714" xlink:href="#e"/>
        <rect width="20" height="8.75" y="-1.25" fill="#3D58DB" mask="url(#f)"/>
        <mask id="h" fill="white">
          <use xlink:href="#g"/>
        </mask>
        <use fill="#F7FCFF" xlink:href="#g"/>
        <polygon fill="#FECA00" points="8.342 7.175 9.196 7.192 9.451 6.505 9.719 7.202 10.49 7.175 9.854 7.686 10.136 8.313 9.478 7.993 8.779 8.41 9.015 7.68" mask="url(#h)"/>
        <polygon fill="#FECA00" points=".842 10.925 1.642 10.979 1.951 10.255 2.164 10.99 2.99 10.925 2.299 11.474 2.636 12.063 1.925 11.813 1.279 12.16 1.461 11.467" mask="url(#h)"/>
        <polygon fill="#FECA00" points=".842 3.425 1.706 3.429 1.951 2.755 2.228 3.439 2.99 3.425 2.364 3.923 2.636 4.563 1.99 4.263 1.279 4.66 1.525 3.917" mask="url(#h)"/>
        <path fill="#FECA00" d="M5.07593775,9.08302212 C5.93888267,9.08302212 6.63843775,8.38346704 6.63843775,7.52052212 C6.63843775,6.6575772 5.93888267,5.95802212 5.07593775,5.95802212 C4.21299283,5.95802212 3.51343775,6.6575772 3.51343775,7.52052212 C3.51343775,8.38346704 4.21299283,9.08302212 5.07593775,9.08302212 Z" mask="url(#h)"/>
        <path fill="#FECA00" d="M4.88392491,6.16715227 L4.73014795,5.17170476 C4.70389983,5.04272401 4.78718108,4.91688614 4.91616183,4.89063802 C4.92771981,4.88828592 4.93943646,4.88679507 4.95121518,4.88617778 C5.08265926,4.87928909 5.19480012,4.98026117 5.20168881,5.11170524 C5.20230611,5.12348397 5.20204816,5.13529227 5.20091708,5.1470328 L5.16015207,6.15267582 C5.15274591,6.22955148 5.084422,6.28586765 5.00754634,6.2784615 C4.94635165,6.27256604 4.89618466,6.22739548 4.88392491,6.16715227 Z M4.66320904,6.10038426 L4.50330664,5.67385404 C4.48764219,5.63207005 4.50881627,5.58549889 4.55060026,5.56983445 C4.55383956,5.56862006 4.55715351,5.56761497 4.56052165,5.56682538 C4.61094048,5.55500569 4.66192364,5.58415127 4.67731973,5.63359541 L4.81119271,6.06352505 C4.8226568,6.10034168 4.80210451,6.13948093 4.76528788,6.15094503 C4.72018337,6.16219275 4.67805246,6.13997822 4.66320904,6.10038426 Z M5.29402382,6.16147539 C5.25206639,6.15322371 5.22753552,6.11644716 5.23508842,6.07863389 L5.32328815,5.63706592 C5.33343158,5.58628331 5.38108891,5.5519682 5.43246703,5.55845293 C5.43589925,5.55888613 5.43930011,5.55953932 5.44264861,5.56040845 C5.48584108,5.57161947 5.51176717,5.61572222 5.50055615,5.65891469 L5.38611427,6.09982268 C5.37549085,6.1407513 5.33591279,6.16724802 5.29402382,6.16147539 Z M5.85645206,6.36852245 L6.49951026,5.55029283 C6.5721532,5.44052944 6.72002274,5.41043736 6.82978613,5.4830803 C6.83962205,5.48958984 6.84896115,5.49682058 6.85772646,5.5047129 C6.9555425,5.59278685 6.96344002,5.74348046 6.87536606,5.8412965 C6.86747374,5.85006181 6.85894161,5.85822914 6.84984001,5.86573116 L6.06201055,6.55360815 C6.00241431,6.60273051 5.91428046,6.59423976 5.8651581,6.53464351 C5.82605564,6.48720362 5.82252263,6.41978979 5.85645206,6.36852245 Z M6.40174238,7.19859322 L7.43666687,7.04529784 C7.56564762,7.01904971 7.69148549,7.10233096 7.71773361,7.23131171 C7.72008571,7.2428697 7.72157655,7.25458634 7.72219385,7.26636507 C7.72908254,7.39780914 7.62811046,7.50995 7.49666638,7.51683869 C7.48488766,7.51745599 7.47307936,7.51719804 7.46133883,7.51606696 L6.41621884,7.47482037 C6.33934317,7.46741422 6.283027,7.39909031 6.29043315,7.32221464 C6.29632861,7.26101996 6.34149917,7.21085297 6.40174238,7.19859322 Z M6.2003722,8.17112037 L7.05767274,8.81815014 C7.16743613,8.89079307 7.1975282,9.03866262 7.12488527,9.14842601 C7.11837572,9.15826192 7.11114499,9.16760103 7.10325267,9.17636634 C7.01517871,9.27418237 6.8644851,9.28207989 6.76666906,9.19400594 C6.75790376,9.18611362 6.74973643,9.17758149 6.74223441,9.16847989 L6.0152865,8.37667886 C5.96616414,8.31708262 5.9746549,8.22894877 6.03425114,8.17982641 C6.08169103,8.14072395 6.14910486,8.13719094 6.2003722,8.17112037 Z M5.37030143,8.71641069 L5.50546161,9.7626717 C5.53170974,9.89165245 5.44842849,10.0174903 5.31944774,10.0437384 C5.30788975,10.0460905 5.2961731,10.0475814 5.28439438,10.0481987 C5.15295031,10.0550874 5.04080945,9.95411529 5.03392075,9.82267122 C5.03330346,9.81089249 5.03356141,9.7990842 5.03469249,9.78734367 L5.09407428,8.73088714 C5.10148043,8.65401148 5.16980434,8.59769531 5.24668001,8.60510146 C5.30787469,8.61099692 5.35804168,8.65616748 5.37030143,8.71641069 Z M4.39777428,8.51504051 L3.76957454,9.39868595 C3.6969316,9.50844935 3.54906206,9.53854142 3.43929867,9.46589848 C3.42946275,9.45938894 3.42012365,9.4521582 3.41135834,9.44426588 C3.3135423,9.35619193 3.30564478,9.20549832 3.39371874,9.10768228 C3.40161106,9.09891697 3.41014319,9.09074964 3.41924479,9.08324763 L4.19221579,8.32995481 C4.25181203,8.28083245 4.33994588,8.2893232 4.38906824,8.34891945 C4.4281707,8.39635934 4.43170371,8.46377317 4.39777428,8.51504051 Z M3.85248396,7.68496974 L2.81156854,7.84445265 C2.68258779,7.87070077 2.55674992,7.78741953 2.5305018,7.65843878 C2.5281497,7.64688079 2.52665885,7.63516414 2.52604156,7.62338542 C2.51915287,7.49194135 2.62012495,7.37980049 2.75156902,7.37291179 C2.76334775,7.3722945 2.77515605,7.37255245 2.78689657,7.37368352 L3.83800751,7.40874259 C3.91488317,7.41614874 3.97119934,7.48447265 3.96379319,7.56134832 C3.95789773,7.622543 3.91272717,7.67270999 3.85248396,7.68496974 Z M4.05385415,6.71244259 L3.11786473,6.0879031 C3.00810134,6.01526016 2.97800926,5.86739061 3.0506522,5.75762722 C3.05716174,5.74779131 3.06439248,5.7384522 3.0722848,5.72968689 C3.16035876,5.63187086 3.31105237,5.62397334 3.4088684,5.71204729 C3.41763371,5.71993961 3.42580104,5.72847174 3.43330306,5.73757334 L4.23893984,6.5068841 C4.28806221,6.56648034 4.27957145,6.65461419 4.2199752,6.70373655 C4.17253531,6.74283901 4.10512148,6.74637202 4.05385415,6.71244259 Z M5.74759449,6.16524065 L5.93612882,5.75057017 C5.95459813,5.70994799 6.00250124,5.69198954 6.04312342,5.71045885 C6.04627265,5.71189068 6.04932668,5.71352329 6.05226664,5.7153466 C6.09627592,5.74264031 6.11171742,5.79929988 6.08764181,5.84514885 L5.87829814,6.24381751 C5.86037119,6.27795714 5.81816289,6.2911001 5.78402326,6.27317315 C5.74417621,6.24923279 5.73009321,6.20373369 5.74759449,6.16524065 Z M6.4685104,6.97787734 L6.89504061,6.81797495 C6.9368246,6.8023105 6.98339576,6.82348457 6.99906021,6.86526856 C7.00027459,6.86850787 7.00127968,6.87182182 7.00206928,6.87518996 C7.01388896,6.92560879 6.98474339,6.97659194 6.93529924,6.99198803 L6.50536961,7.12586102 C6.46855298,7.13732511 6.42941372,7.11677282 6.41794963,7.07995619 C6.4067019,7.03485168 6.42891643,6.99272077 6.4685104,6.97787734 Z M6.40365401,8.06226279 L6.81832448,8.25079713 C6.85894666,8.26926644 6.87690511,8.31716955 6.85843581,8.35779173 C6.85700397,8.36094096 6.85537136,8.36399499 6.85354806,8.36693495 C6.82625434,8.41094422 6.76959477,8.42638573 6.7237458,8.40231012 L6.32507714,8.19296645 C6.29093752,8.1750395 6.27779455,8.1328312 6.2957215,8.09869157 C6.31966186,8.05884452 6.36516096,8.04476152 6.40365401,8.06226279 Z M5.59101731,8.78317871 L5.7509197,9.20970892 C5.76658415,9.25149291 5.74541008,9.29806407 5.70362609,9.31372851 C5.70038679,9.3149429 5.69707283,9.31594799 5.69370469,9.31673759 C5.64328587,9.32855727 5.59230271,9.29941169 5.57690662,9.24996755 L5.44303363,8.82003791 C5.43156954,8.78322128 5.45212184,8.74408203 5.48893847,8.73261794 C5.53404298,8.72137021 5.57617388,8.74358474 5.59101731,8.78317871 Z M4.50663186,8.71832232 L4.31809752,9.13299279 C4.29962822,9.17361497 4.2517251,9.19157342 4.21110292,9.17310411 C4.20795369,9.17167228 4.20489966,9.17003967 4.2019597,9.16821636 C4.15795043,9.14092265 4.14250893,9.08426308 4.16658454,9.03841411 L4.3759282,8.63974545 C4.39385515,8.60560583 4.43606346,8.59246286 4.47020308,8.61038981 C4.51005013,8.63433017 4.52413313,8.67982927 4.50663186,8.71832232 Z M3.78571595,7.90568562 L3.35918574,8.06558801 C3.31740175,8.08125246 3.27083059,8.06007839 3.25516614,8.0182944 C3.25395175,8.01505509 3.25294666,8.01174114 3.25215707,8.008373 C3.24033738,7.95795418 3.26948296,7.90697102 3.3189271,7.89157493 L3.74885674,7.75770194 C3.78567337,7.74623785 3.82481263,7.76679014 3.83627672,7.80360678 C3.84752444,7.84871129 3.82530991,7.89084219 3.78571595,7.90568562 Z M3.85057234,6.82130017 L3.43590186,6.63276583 C3.39527968,6.61429652 3.37732123,6.56639341 3.39579054,6.52577123 C3.39722237,6.522622 3.39885498,6.51956797 3.40067829,6.51662801 C3.427972,6.47261874 3.48463158,6.45717723 3.53048055,6.48125285 L3.9291492,6.69059651 C3.96328883,6.70852346 3.97643179,6.75073176 3.95850484,6.78487139 C3.93456448,6.82471844 3.88906538,6.83880144 3.85057234,6.82130017 Z M6.15044994,6.65449202 C6.12661638,6.61898881 6.13527538,6.57563792 6.16735411,6.55424061 L6.54195644,6.30437153 C6.58503766,6.27563529 6.64300092,6.28506966 6.67474534,6.32598488 C6.67686597,6.32871814 6.67880887,6.33158479 6.68056204,6.3345671 C6.70317635,6.37303618 6.69032351,6.42255404 6.65185443,6.44516835 L6.25916277,6.67601474 C6.22270998,6.69744376 6.17598805,6.68819386 6.15044994,6.65449202 Z M6.40741926,7.60869213 C6.41567094,7.5667347 6.45244749,7.54220383 6.49026076,7.54975673 L6.93182873,7.63795646 C6.98261135,7.64809989 7.01692645,7.69575722 7.01044172,7.74713534 C7.01000852,7.75056756 7.00935533,7.75396842 7.0084862,7.75731692 C6.99727518,7.80050939 6.95317244,7.82643548 6.90997996,7.81522446 L6.46907198,7.70078257 C6.42814335,7.69015916 6.40164663,7.6505811 6.40741926,7.60869213 Z M5.91440264,8.46511825 C5.94990584,8.44128469 5.99325673,8.44994369 6.01465404,8.48202242 L6.26452312,8.85662475 C6.29325937,8.89970597 6.28382499,8.95766923 6.24290978,8.98941365 C6.24017651,8.99153428 6.23730987,8.99347718 6.23432755,8.99523035 C6.19585847,9.01784466 6.14634061,9.00499182 6.12372631,8.96652274 L5.89287991,8.57383108 C5.87145089,8.53737828 5.8807008,8.49065636 5.91440264,8.46511825 Z M4.96020252,8.72208757 C5.00215995,8.73033925 5.02669082,8.7671158 5.01913792,8.80492907 L4.93093819,9.24649704 C4.92079476,9.29727966 4.87313744,9.33159476 4.82175932,9.32511003 C4.81832709,9.32467683 4.81492623,9.32402364 4.81157774,9.32315451 C4.76838526,9.31194349 4.74245917,9.26784074 4.75367019,9.22464827 L4.86811208,8.78374028 C4.87873549,8.74281166 4.91831355,8.71631494 4.96020252,8.72208757 Z M4.1037764,8.22907095 C4.12760996,8.26457415 4.11895096,8.30792504 4.08687224,8.32932235 L3.7122699,8.57919143 C3.66918868,8.60792768 3.61122542,8.5984933 3.579481,8.55757808 C3.57736037,8.55484482 3.57541747,8.55197818 3.5736643,8.54899586 C3.55105,8.51052678 3.56390283,8.46100892 3.60237191,8.43839461 L3.99506357,8.20754822 C4.03151637,8.1861192 4.07823829,8.19536911 4.1037764,8.22907095 Z M3.84680708,7.27487083 C3.8385554,7.31682826 3.80177885,7.34135913 3.76396558,7.33380623 L3.32239761,7.2456065 C3.271615,7.23546307 3.23729989,7.18780574 3.24378462,7.13642762 C3.24421783,7.1329954 3.24487101,7.12959454 3.24574014,7.12624605 C3.25695116,7.08305357 3.30105391,7.05712748 3.34424638,7.0683385 L3.78515437,7.18278039 C3.82608299,7.1934038 3.85257971,7.23298186 3.84680708,7.27487083 Z M4.33982371,6.41844471 C4.3043205,6.44227827 4.26096961,6.43361927 4.2395723,6.40154054 L3.98970322,6.02693821 C3.96096698,5.98385699 3.97040135,5.92589373 4.01131657,5.89414931 C4.01404984,5.89202868 4.01691648,5.89008578 4.01989879,5.88833261 C4.05836787,5.86571831 4.10788574,5.87857114 4.13050004,5.91704022 L4.36134643,6.30973188 C4.38277545,6.34618468 4.37352555,6.3929066 4.33982371,6.41844471 Z" mask="url(#h)" transform="rotate(4 5.124 7.467)"/>
      </g>
    </g>
  </g>
</svg>
