<svg xmlns="http://www.w3.org/2000/svg" xmlns:xlink="http://www.w3.org/1999/xlink" width="20" height="15" viewBox="0 0 20 15">
  <defs>
    <rect id="rw---rwanda-a" width="20" height="15" x="0" y="0"/>
    <rect id="rw---rwanda-c" width="20" height="15" x="0" y="0"/>
  </defs>
  <g fill="none" fill-rule="evenodd">
    <mask id="rw---rwanda-b" fill="#fff">
      <use xlink:href="#rw---rwanda-a"/>
    </mask>
    <g mask="url(#rw---rwanda-b)">
      <mask id="rw---rwanda-d" fill="#fff">
        <use xlink:href="#rw---rwanda-c"/>
      </mask>
      <use fill="#FECA00" xlink:href="#rw---rwanda-c"/>
      <rect width="20" height="8.75" fill="#3CA5D9" mask="url(#rw---rwanda-d)"/>
      <rect width="20" height="3.75" y="11.25" fill="#5A962A" mask="url(#rw---rwanda-d)"/>
      <g fill="#FFDC17" mask="url(#rw---rwanda-d)">
        <path d="M3.93535369,6.16619854 L3.55755378,7.39985558 L3.47765334,6.11486111 C3.43937824,6.10696941 3.40142592,6.0982092 3.36381846,6.08860229 L2.70961744,7.20106815 L2.93112713,5.93436741 C2.89546604,5.91780624 2.86026766,5.90043355 2.82555637,5.88227342 L1.93088296,6.81420998 L2.4410828,5.63371002 C2.41000702,5.60930343 2.3795356,5.58417821 2.34969431,5.5583598 L1.26333212,6.2601367 L2.03363209,5.22967688 C2.00877636,5.19855108 1.9846661,5.16681742 1.9613279,5.13450221 L0.742952757,5.56871852 L1.73069474,4.74345614 C1.7135816,4.70709068 1.69734228,4.67024274 1.68200343,4.63293863 L0.397798656,4.77723 L1.54983091,4.20027909 C1.54170685,4.16076478 1.53454227,4.12090624 1.52836223,4.08072824 L0.246477165,3.92834047 L1.50124363,3.62991219 C1.50253946,3.58908812 1.50484292,3.54851498 1.50813025,3.50821625 L0.297146065,3.0678138 L1.58646151,3.0636677 C1.59731007,3.02413062 1.60913226,2.98498909 1.62190108,2.94626979 L0.547073783,2.2420412 L1.8028053,2.53216914 C1.82260416,2.49634235 1.84327939,2.46105594 1.86480255,2.42633801 L0.98278665,1.49554027 L2.13797652,2.06476904 C2.1654345,2.03462007 2.19363661,2.00514556 2.2225543,1.97637375 L1.58079527,0.868555096 L2.57272451,1.68644452 C2.60630414,1.66345476 2.64048406,1.64126021 2.67523637,1.61988845 L2.30886085,0.394886591 L3.0837987,1.41757392 C3.12165075,1.40297283 3.15995343,1.38926072 3.19868045,1.37646358 L3.12773319,0.100070352 L3.64398145,1.27339967 C3.68383238,1.26794439 3.72398492,1.26342118 3.76441579,1.25985302 L3.99326665,2.84217094e-14 L4.22226741,1.26067824 C4.26247479,1.26437393 4.3024046,1.26901441 4.34203385,1.27457698 L4.85880012,0.100070352 L4.78768933,1.37940542 C4.82577823,1.39215006 4.86345335,1.4057808 4.90068953,1.42027281 L5.67767245,0.394886591 L5.30989236,1.62458474 C5.34372234,1.64555671 5.37700535,1.66731022 5.40971545,1.68981966 L6.40573803,0.868555096 L5.76067765,1.98207261 C5.78857732,2.01001207 5.81580478,2.03860817 5.84233411,2.06783531 L7.00374665,1.49554027 L6.11627713,2.43209326 C6.13689154,2.46555104 6.15671985,2.49953345 6.17573672,2.53401547 L7.43945952,2.2420412 L6.35721796,2.95112762 C6.36937404,2.98825269 6.38066039,3.02576419 6.39105326,3.0636387 L7.68938724,3.0678138 L6.46965005,3.51139948 C6.47274333,3.54994046 6.47493676,3.58873167 6.4762096,3.62775262 L7.74005614,3.92834047 L6.44899241,4.08181938 C6.44306459,4.12024128 6.43623636,4.15837073 6.42852964,4.19618608 L7.58873464,4.77723 L6.29591697,4.6319709 C6.28122038,4.66775693 6.26569525,4.70312355 6.2493651,4.73804753 L7.24358054,5.56871852 L6.01803731,5.13194757 C5.9955808,5.16312578 5.9724063,5.1937643 5.94853766,5.22383958 L6.72320118,6.2601367 L5.63167565,5.55502434 C5.60275785,5.58014717 5.57324513,5.6046177 5.54316105,5.62841267 L6.05565034,6.81420998 L5.15795775,5.87912849 C5.12400845,5.89700752 5.08959034,5.9141322 5.05472635,5.93047987 L5.27691586,7.20106815 L4.62153113,6.0865894 C4.58435239,6.09621518 4.54683424,6.10501282 4.5089981,6.11296118 L4.42897952,7.39985558 L4.05111783,6.16599681 C4.03039419,6.16650021 4.00960771,6.16675339 3.98876136,6.16675339 C3.97091431,6.16675339 3.95311113,6.16656782 3.93535369,6.16619854 Z M3.96626023,5.25927186 C4.84163574,5.25927186 5.5512678,4.55995513 5.5512678,3.69730422 C5.5512678,2.83465332 4.84163574,2.13533658 3.96626023,2.13533658 C3.09088473,2.13533658 2.38125267,2.83465332 2.38125267,3.69730422 C2.38125267,4.55995513 3.09088473,5.25927186 3.96626023,5.25927186 Z M3.98462543,4.63629997 C3.49128602,4.63629997 3.0913554,4.23636936 3.0913554,3.74302995 C3.0913554,3.24969054 3.49128602,2.84975993 3.98462543,2.84975993 C4.47796484,2.84975993 4.87789545,3.24969054 4.87789545,3.74302995 C4.87789545,4.23636936 4.47796484,4.63629997 3.98462543,4.63629997 Z" transform="translate(11 1.25)"/>
      </g>
    </g>
  </g>
</svg>
