<svg width="20" height="15" viewBox="0 0 20 15" fill="none" xmlns="http://www.w3.org/2000/svg">
<g clip-path="url(#clip0_270_60844)">
<rect width="20" height="15" fill="white"/>
<path fill-rule="evenodd" clip-rule="evenodd" d="M0 0V15H20V0H0Z" fill="#F7FCFF"/>
<mask id="mask0_270_60844" style="mask-type:luminance" maskUnits="userSpaceOnUse" x="0" y="0" width="20" height="15">
<path fill-rule="evenodd" clip-rule="evenodd" d="M0 0V15H20V0H0Z" fill="white"/>
</mask>
<g mask="url(#mask0_270_60844)">
<path fill-rule="evenodd" clip-rule="evenodd" d="M0 7.5V15H20V7.5H0Z" fill="#56C6F5"/>
<path fill-rule="evenodd" clip-rule="evenodd" d="M6.40885 5.64283C6.40421 5.59001 6.39317 5.54435 6.37407 5.50876C6.21352 5.20954 6.26539 4.83512 6.26539 4.83512C6.26539 4.83512 6.07368 5.27359 5.9612 5.68641C5.84295 5.49417 5.80162 5.30157 5.80162 5.30157C5.80162 5.30157 5.72509 6.51256 5.95906 6.79949C6.19302 7.08642 6.349 7.2125 6.349 7.2125C6.349 7.2125 6.36671 6.70965 6.29859 6.31639C6.3466 6.15233 6.3899 5.9726 6.4054 5.81787C6.43611 5.79513 6.51704 5.73437 6.61831 5.65174C6.57564 5.88722 6.57352 6.01517 6.57352 6.01517C6.57352 6.01517 7.45512 5.37505 7.47754 5.03622C7.49995 4.69738 7.74234 4.40735 7.74234 4.40735C7.74234 4.40735 7.54191 4.54451 7.31303 4.72843C7.37355 4.44401 7.56089 4.21985 7.56089 4.21985C7.56089 4.21985 6.55951 4.9051 6.47745 5.26612C6.44175 5.42315 6.42096 5.54982 6.40885 5.64283ZM6.45173 7.72433C6.35572 7.54304 5.93788 6.78309 5.64644 6.71696C5.31528 6.64182 5.06674 6.35703 5.06674 6.35703C5.06674 6.35703 5.5869 7.45329 5.93064 7.59081C6.20668 7.70125 6.38844 7.74535 6.44933 7.75844C6.4393 7.90622 6.43755 8.00831 6.43755 8.00831C6.43755 8.00831 6.59992 7.89056 6.84858 7.61627C7.09724 7.34198 7.08419 6.12865 7.08419 6.12865C7.08419 6.12865 6.98564 6.49357 6.72094 6.70627C6.54337 6.84896 6.47651 7.38614 6.45173 7.72433ZM5.6696 7.60964C6.04792 7.60741 6.62993 8.5351 6.62993 8.5351C6.62993 8.5351 6.40445 8.54745 6.01056 8.48522C5.61667 8.42299 5.00274 7.36592 5.00274 7.36592C5.00274 7.36592 5.29128 7.61186 5.6696 7.60964ZM7.51376 9.7702C7.51376 9.7702 7.73825 8.58802 7.40115 8.31244C7.06404 8.03686 7.00457 7.62502 7.00457 7.62502C7.00457 7.62502 6.70511 8.93596 7.00457 9.27544C7.30403 9.61493 7.51376 9.7702 7.51376 9.7702ZM6.15356 9.45104C6.37371 9.71204 7.07508 9.45104 7.07508 9.45104C7.07508 9.45104 7.22962 9.59138 6.67339 9.083C6.11715 8.57463 4.98533 8.89572 5.28993 8.89572C5.59453 8.89572 5.93342 9.19003 6.15356 9.45104ZM6.67339 10.8388C7.08146 11.1844 7.96324 10.3626 7.96324 10.3626C7.96324 10.3626 7.73624 10.0877 7.31553 9.88508C6.89483 9.68247 5.34294 9.88508 5.34294 9.88508L6.03357 10.1925C6.03357 10.1925 5.26481 10.4931 5.46887 10.4764C5.67292 10.4596 6.26532 10.4931 6.67339 10.8388Z" fill="#006923"/>
<path fill-rule="evenodd" clip-rule="evenodd" d="M12.0084 10.1227C12.0084 10.1227 11.6576 9.53313 12.0084 9.24829C12.3593 8.96344 12.4981 9.1529 12.4981 8.82541C12.4981 8.49793 12.5336 8.59543 12.706 8.43285C12.8784 8.27027 12.7563 7.87539 12.9871 8.07283C13.218 8.27027 13.2611 7.89165 13.2611 8.67819C13.2611 9.46473 13.2611 7.96481 13.2611 7.52304C13.2611 7.08127 12.9871 7.18585 12.9871 6.88959C12.9871 6.59333 12.7132 6.15085 12.9871 6.15085C13.2611 6.15085 13.4222 6.48005 13.4222 6.48005C13.4222 6.48005 13.6914 6.9389 13.6914 6.48005C13.6914 6.02121 13.2121 6.15762 12.9871 5.65128C12.7622 5.14494 12.7977 5.70807 12.4981 5.05562C12.1985 4.40317 11.8418 4.19613 12.17 4.19613C12.4981 4.19613 12.4249 4.19613 12.706 4.19613C12.9871 4.19613 13.4222 3.96262 13.4222 4.19613C13.4222 4.42965 13.4222 4.32264 13.4222 4.68913C13.4222 5.05562 13.6914 5.05562 13.6914 5.05562C13.6914 5.05562 13.8378 4.32264 14.0216 4.68913C14.2055 5.05562 14.0803 5.65128 14.2148 5.65128C14.3494 5.65128 14.238 5.03571 14.5319 5.50719C14.8257 5.97867 14.5319 6.29817 14.5319 6.48005C14.5319 6.66194 14.2148 7.10754 14.2148 7.10754C14.2148 7.10754 14.2767 7.32549 14.5319 7.10754C14.787 6.88959 15.029 6.67164 15.029 6.88959C15.029 7.10754 15.5262 7.17524 15.029 7.52304C14.5319 7.87084 14.8489 8.21904 14.5319 8.21904C14.2148 8.21904 13.8413 8.67819 13.6914 8.67819C13.5415 8.67819 12.9808 9.02973 13.2611 9.02973C13.5415 9.02973 13.8284 8.32665 14.0216 8.67819C14.2148 9.02973 14.2123 8.6211 14.3721 8.82541C14.5319 9.02973 14.6916 10.1383 14.5319 9.69329C14.3721 9.24829 14.1217 9.24829 13.6914 9.24829C13.2611 9.24829 12.4249 9.28042 12.706 9.48685C12.9871 9.69329 13.3029 9.28042 13.4222 9.48685C13.5415 9.69329 13.5068 9.89972 13.6914 9.69329C13.876 9.48685 14.0576 9.69329 14.2148 9.69329C14.3721 9.69329 14.0576 9.92438 14.2148 10.1227C14.3721 10.3211 14.7225 10.5853 14.3721 10.5853C14.0216 10.5853 13.8413 10.3051 13.6914 10.5853C13.5415 10.8655 13.5351 11.3522 13.2611 10.9687C12.9871 10.5853 12.4981 10.7799 12.4981 10.5853C12.4981 10.3907 12.6051 10.3593 12.3068 10.3593C12.0084 10.3593 12.0084 10.1227 12.0084 10.1227Z" fill="#009933"/>
<path fill-rule="evenodd" clip-rule="evenodd" d="M13.4476 5.90625C13.4476 5.99254 13.3799 6.0625 13.2964 6.0625C13.2129 6.0625 13.1452 5.99254 13.1452 5.90625C13.1452 5.81996 13.2129 5.75 13.2964 5.75C13.3799 5.75 13.4476 5.81996 13.4476 5.90625ZM6.46169 6.25C6.5452 6.25 6.6129 6.18004 6.6129 6.09375C6.6129 6.00746 6.5452 5.9375 6.46169 5.9375C6.37818 5.9375 6.31048 6.00746 6.31048 6.09375C6.31048 6.18004 6.37818 6.25 6.46169 6.25ZM6.6129 6.90625C6.6129 6.99254 6.5452 7.0625 6.46169 7.0625C6.37818 7.0625 6.31048 6.99254 6.31048 6.90625C6.31048 6.81996 6.37818 6.75 6.46169 6.75C6.5452 6.75 6.6129 6.81996 6.6129 6.90625ZM6.70363 8.5C6.78714 8.5 6.85484 8.43004 6.85484 8.34375C6.85484 8.25746 6.78714 8.1875 6.70363 8.1875C6.62012 8.1875 6.55242 8.25746 6.55242 8.34375C6.55242 8.43004 6.62012 8.5 6.70363 8.5ZM7.9133 10.0625C7.99682 10.0625 8.06451 9.99254 8.06451 9.90625C8.06451 9.81996 7.99682 9.75 7.9133 9.75C7.82979 9.75 7.76209 9.81996 7.76209 9.90625C7.76209 9.99254 7.82979 10.0625 7.9133 10.0625ZM13.7198 7.6875C13.8033 7.6875 13.871 7.61754 13.871 7.53125C13.871 7.44496 13.8033 7.375 13.7198 7.375C13.6362 7.375 13.5685 7.44496 13.5685 7.53125C13.5685 7.61754 13.6362 7.6875 13.7198 7.6875ZM13.3871 8.78125C13.3871 8.86754 13.3194 8.9375 13.2359 8.9375C13.1524 8.9375 13.0847 8.86754 13.0847 8.78125C13.0847 8.69496 13.1524 8.625 13.2359 8.625C13.3194 8.625 13.3871 8.69496 13.3871 8.78125ZM11.9657 10.3125C12.0492 10.3125 12.1169 10.2425 12.1169 10.1562C12.1169 10.07 12.0492 10 11.9657 10C11.8822 10 11.8145 10.07 11.8145 10.1562C11.8145 10.2425 11.8822 10.3125 11.9657 10.3125ZM8.125 10.3438C8.125 10.43 8.0573 10.5 7.97379 10.5C7.89028 10.5 7.82258 10.43 7.82258 10.3438C7.82258 10.2575 7.89028 10.1875 7.97379 10.1875C8.0573 10.1875 8.125 10.2575 8.125 10.3438Z" fill="#C51918"/>
<path fill-rule="evenodd" clip-rule="evenodd" d="M11.2736 12.3874C11.2736 12.2594 9.33578 10.9239 8.81566 10.6294C8.29554 10.3348 5.75566 8.71353 6.44734 6.25018H6.34267C6.34267 6.25018 5.87458 9.28547 9.0996 11.1722C10.568 12.1573 10.6411 12.3874 10.6411 12.3874C10.6411 12.3874 11.2736 12.5155 11.2736 12.3874Z" fill="#FECA00"/>
<path fill-rule="evenodd" clip-rule="evenodd" d="M8.70269 12.3874C8.70269 12.2594 10.6405 10.9239 11.1606 10.6294C11.6808 10.3348 14.2206 8.71353 13.529 6.25018H13.6336C13.6336 6.25018 14.1017 9.28547 10.8767 11.1722C9.40828 12.1573 9.33519 12.3874 9.33519 12.3874C9.33519 12.3874 8.70269 12.5155 8.70269 12.3874Z" fill="#FECA00"/>
<path fill-rule="evenodd" clip-rule="evenodd" d="M10.0302 10.5535C11.3831 10.5535 12.4798 8.80238 12.4798 7.09375C12.4798 5.38512 11.3831 4.5 10.0302 4.5C8.67737 4.5 7.58065 5.38512 7.58065 7.09375C7.58065 8.80238 8.67737 10.5535 10.0302 10.5535Z" fill="#56C6F5"/>
<path fill-rule="evenodd" clip-rule="evenodd" d="M8.94574 5.96179C8.94574 5.96179 9.323 5.62905 9.13437 5.62905C9.09779 5.62905 9.05325 5.6219 9.00522 5.6142C8.80561 5.58217 8.54567 5.54048 8.54567 5.96179V6.68579L8.54558 6.68749H8.48992C8.4554 6.68749 8.42742 6.71547 8.42742 6.74999C8.42742 6.78451 8.4554 6.81249 8.48992 6.81249H8.53881C8.53046 6.96714 8.51565 7.24215 8.50113 7.51702L8.42961 7.52328C8.39264 7.52651 8.36529 7.55911 8.36852 7.59608L8.37315 7.64897C8.37639 7.68595 8.40898 7.7133 8.44596 7.71006L8.49119 7.70611C8.4744 8.02726 8.46024 8.30832 8.46024 8.34271C8.46024 8.42719 9.03416 8.39448 9.03416 8.39448C9.03416 8.39448 9.01631 8.05568 8.99664 7.66189L9.0351 7.65852C9.07208 7.65529 9.09943 7.62269 9.09619 7.58572L9.09157 7.53283C9.08833 7.49585 9.05574 7.4685 9.01876 7.47173L8.98736 7.47448C8.97578 7.23864 8.96444 6.99916 8.95653 6.81249H9.03024C9.06476 6.81249 9.09274 6.78451 9.09274 6.74999C9.09274 6.71547 9.06476 6.68749 9.03024 6.68749H8.95145C8.94786 6.59421 8.94574 6.5241 8.94574 6.48878V5.96179Z" fill="white"/>
<path fill-rule="evenodd" clip-rule="evenodd" d="M8.66935 6.875H8.87097V7.14382H8.66935V6.875Z" fill="black"/>
<path fill-rule="evenodd" clip-rule="evenodd" d="M8.60887 7.8125H8.94489V8.4375H8.60887V7.8125Z" fill="black"/>
<path fill-rule="evenodd" clip-rule="evenodd" d="M10.2159 5.96179C10.2159 5.96179 10.5932 5.62905 10.4045 5.62905C10.3679 5.62905 10.3234 5.6219 10.2754 5.6142C10.0758 5.58217 9.81583 5.54048 9.81583 5.96179V6.68579L9.81574 6.68749H9.76008C9.72556 6.68749 9.69758 6.71547 9.69758 6.74999C9.69758 6.78451 9.72556 6.81249 9.76008 6.81249H9.80897C9.80062 6.96714 9.78582 7.24215 9.77129 7.51702L9.69978 7.52328C9.6628 7.52651 9.63545 7.55911 9.63868 7.59608L9.64331 7.64897C9.64655 7.68595 9.67914 7.7133 9.71612 7.71006L9.76135 7.70611C9.74456 8.02726 9.7304 8.30832 9.7304 8.34271C9.7304 8.42719 10.3043 8.39448 10.3043 8.39448C10.3043 8.39448 10.2865 8.05568 10.2668 7.66189L10.3053 7.65852C10.3422 7.65529 10.3696 7.62269 10.3664 7.58572L10.3617 7.53283C10.3585 7.49585 10.3259 7.4685 10.2889 7.47173L10.2575 7.47448C10.2459 7.23864 10.2346 6.99916 10.2267 6.81249H10.3004C10.3349 6.81249 10.3629 6.78451 10.3629 6.74999C10.3629 6.71547 10.3349 6.68749 10.3004 6.68749H10.2216C10.218 6.59421 10.2159 6.5241 10.2159 6.48878V5.96179Z" fill="white"/>
<path fill-rule="evenodd" clip-rule="evenodd" d="M9.93951 6.875H10.1411V7.14382H9.93951V6.875Z" fill="black"/>
<path fill-rule="evenodd" clip-rule="evenodd" d="M9.87903 7.8125H10.2151V8.4375H9.87903V7.8125Z" fill="black"/>
<path fill-rule="evenodd" clip-rule="evenodd" d="M11.4256 5.96179C11.4256 5.96179 11.8028 5.62905 11.6142 5.62905C11.5776 5.62905 11.5331 5.6219 11.4851 5.6142C11.2854 5.58217 11.0255 5.54048 11.0255 5.96179V6.68579L11.0254 6.68749H10.9698C10.9352 6.68749 10.9073 6.71547 10.9073 6.74999C10.9073 6.78451 10.9352 6.81249 10.9698 6.81249H11.0187C11.0103 6.96714 10.9955 7.24215 10.981 7.51702L10.9095 7.52328C10.8725 7.52651 10.8451 7.55911 10.8484 7.59608L10.853 7.64897C10.8562 7.68595 10.8888 7.7133 10.9258 7.71006L10.971 7.70611C10.9542 8.02726 10.9401 8.30832 10.9401 8.34271C10.9401 8.42719 11.514 8.39448 11.514 8.39448C11.514 8.39448 11.4961 8.05568 11.4765 7.66189L11.5149 7.65852C11.5519 7.65529 11.5793 7.62269 11.576 7.58572L11.5714 7.53283C11.5682 7.49585 11.5356 7.4685 11.4986 7.47173L11.4672 7.47448C11.4556 7.23864 11.4443 6.99916 11.4364 6.81249H11.5101C11.5446 6.81249 11.5726 6.78451 11.5726 6.74999C11.5726 6.71547 11.5446 6.68749 11.5101 6.68749H11.4313C11.4277 6.59421 11.4256 6.5241 11.4256 6.48878V5.96179Z" fill="white"/>
<path fill-rule="evenodd" clip-rule="evenodd" d="M11.1492 6.875H11.3508V7.14382H11.1492V6.875Z" fill="black"/>
<path fill-rule="evenodd" clip-rule="evenodd" d="M11.0887 7.8125H11.4247V8.4375H11.0887V7.8125Z" fill="black"/>
<path fill-rule="evenodd" clip-rule="evenodd" d="M11.5726 4H8.36694V4.47852L8.34543 4.48045C8.34543 4.48045 6.77487 5.7009 7.21075 7.52915C7.64663 9.35739 9.37798 10.7132 9.37798 10.7132L9.46526 10.3977C9.46526 10.3977 7.8155 8.15447 7.8155 7.2581C7.8155 6.36174 8.12675 5.52042 8.45632 5.38961C8.65455 5.31093 8.68874 5.32689 8.74275 5.35212C8.77854 5.36883 8.82303 5.38961 8.92972 5.38961C9.1974 5.38961 9.46526 5.198 9.46526 5.198C9.46526 5.198 9.6515 5.38961 9.82449 5.38961C9.99749 5.38961 9.99991 5.198 9.99991 5.198V4.5625H10.0193V5.198C10.0193 5.198 10.0217 5.38961 10.1947 5.38961C10.3677 5.38961 10.5539 5.198 10.5539 5.198C10.5539 5.198 10.8218 5.38961 11.0895 5.38961C11.1962 5.38961 11.2407 5.36883 11.2764 5.35212C11.3305 5.32689 11.3647 5.31093 11.5629 5.38961C11.8924 5.52042 12.2037 6.36174 12.2037 7.2581C12.2037 8.15447 10.5539 10.3977 10.5539 10.3977L10.6412 10.7132C10.6412 10.7132 12.3726 9.35739 12.8084 7.52915C13.2443 5.7009 11.6738 4.48045 11.6738 4.48045L11.5726 4.4714V4Z" fill="#E8AA00"/>
<path d="M8.36694 4V3.6875H8.05444V4H8.36694ZM11.5726 4H11.8851V3.6875H11.5726V4ZM8.36694 4.47852L8.39477 4.78978L8.67944 4.76433V4.47852H8.36694ZM8.34543 4.48045L8.3176 4.16919L8.22617 4.17736L8.15368 4.23369L8.34543 4.48045ZM7.21075 7.52915L7.51473 7.45667L7.21075 7.52915ZM9.37798 10.7132L9.18531 10.9592L9.55423 11.2481L9.67917 10.7965L9.37798 10.7132ZM9.46526 10.3977L9.76645 10.481L9.80691 10.3348L9.71701 10.2125L9.46526 10.3977ZM8.45632 5.38961L8.57161 5.68006L8.45632 5.38961ZM8.74275 5.35212L8.87498 5.06897L8.87498 5.06897L8.74275 5.35212ZM9.46526 5.198L9.68935 4.98019L9.50204 4.78747L9.28345 4.94383L9.46526 5.198ZM9.99991 5.198L10.3124 5.20195V5.198H9.99991ZM9.99991 4.5625V4.25H9.68741V4.5625H9.99991ZM10.0193 4.5625H10.3318V4.25H10.0193V4.5625ZM10.0193 5.198H9.70676L9.70681 5.20195L10.0193 5.198ZM10.5539 5.198L10.7357 4.94383L10.5172 4.78747L10.3298 4.98019L10.5539 5.198ZM11.2764 5.35212L11.1442 5.06897L11.1442 5.06897L11.2764 5.35212ZM11.5629 5.38961L11.4476 5.68006L11.5629 5.38961ZM10.5539 10.3977L10.3022 10.2125L10.2123 10.3348L10.2527 10.481L10.5539 10.3977ZM10.6412 10.7132L10.34 10.7965L10.465 11.2481L10.8339 10.9592L10.6412 10.7132ZM12.8084 7.52915L13.1124 7.60162L12.8084 7.52915ZM11.6738 4.48045L11.8655 4.23369L11.793 4.17736L11.7016 4.16919L11.6738 4.48045ZM11.5726 4.4714H11.2601V4.75721L11.5448 4.78266L11.5726 4.4714ZM8.36694 4.3125H11.5726V3.6875H8.36694V4.3125ZM8.67944 4.47852V4H8.05444V4.47852H8.67944ZM8.37326 4.7917L8.39477 4.78978L8.33911 4.16727L8.3176 4.16919L8.37326 4.7917ZM7.51473 7.45667C7.32237 6.64983 7.5695 5.97426 7.8786 5.48647C8.03322 5.24247 8.20091 5.04991 8.3298 4.91868C8.39402 4.85329 8.44798 4.80377 8.48493 4.77133C8.50339 4.75513 8.51755 4.74325 8.52656 4.73583C8.53106 4.73212 8.53427 4.72954 8.53607 4.72809C8.53698 4.72737 8.53753 4.72693 8.53772 4.72678C8.53782 4.72671 8.53782 4.72671 8.53773 4.72678C8.53769 4.72681 8.53762 4.72686 8.53753 4.72693C8.53748 4.72697 8.5374 4.72704 8.53737 4.72705C8.53728 4.72713 8.53718 4.7272 8.34543 4.48045C8.15368 4.23369 8.15357 4.23378 8.15346 4.23387C8.15341 4.2339 8.15329 4.234 8.1532 4.23407C8.15301 4.23422 8.1528 4.23438 8.15257 4.23456C8.1521 4.23493 8.15153 4.23537 8.15087 4.23589C8.14956 4.23693 8.14786 4.23827 8.14581 4.23991C8.1417 4.2432 8.13614 4.24769 8.12925 4.25337C8.11546 4.26472 8.0963 4.28084 8.07267 4.30158C8.02544 4.34304 7.9601 4.40314 7.88389 4.48074C7.73192 4.63548 7.53421 4.86229 7.35067 5.15194C6.98346 5.73143 6.66326 6.58022 6.90677 7.60162L7.51473 7.45667ZM9.37798 10.7132C9.57065 10.4672 9.57071 10.4672 9.57076 10.4673C9.57077 10.4673 9.57081 10.4673 9.57083 10.4673C9.57086 10.4673 9.57087 10.4673 9.57085 10.4673C9.57081 10.4673 9.57067 10.4672 9.57043 10.467C9.56994 10.4666 9.56904 10.4659 9.56775 10.4649C9.56517 10.4628 9.561 10.4595 9.55534 10.4549C9.54402 10.4457 9.52673 10.4315 9.5042 10.4125C9.45914 10.3745 9.39322 10.3174 9.31228 10.2429C9.1502 10.0937 8.92905 9.87584 8.6949 9.60318C8.2228 9.05342 7.71626 8.30197 7.51473 7.45667L6.90677 7.60162C7.14112 8.58457 7.71819 9.42514 8.22074 10.0104C8.47392 10.3052 8.71284 10.5406 8.88901 10.7027C8.9772 10.7839 9.04995 10.847 9.10127 10.8903C9.12694 10.9119 9.14727 10.9286 9.16152 10.9402C9.16864 10.946 9.17425 10.9505 9.17825 10.9537C9.18024 10.9552 9.18184 10.9565 9.18302 10.9574C9.18361 10.9579 9.1841 10.9583 9.18448 10.9586C9.18467 10.9587 9.18484 10.9589 9.18497 10.959C9.18504 10.959 9.18513 10.9591 9.18516 10.9591C9.18524 10.9592 9.18531 10.9592 9.37798 10.7132ZM9.16408 10.3144L9.07679 10.6299L9.67917 10.7965L9.76645 10.481L9.16408 10.3144ZM7.503 7.2581C7.503 7.55566 7.63319 7.91777 7.78935 8.25737C7.95131 8.60959 8.16459 8.9858 8.37395 9.32735C8.58396 9.66996 8.79347 9.98325 8.95022 10.2106C9.02869 10.3244 9.09417 10.417 9.14017 10.4813C9.16318 10.5135 9.18134 10.5386 9.19383 10.5558C9.20007 10.5644 9.2049 10.5711 9.20822 10.5756C9.20987 10.5779 9.21115 10.5796 9.21204 10.5808C9.21248 10.5814 9.21283 10.5819 9.21308 10.5822C9.2132 10.5824 9.2133 10.5825 9.21337 10.5826C9.21341 10.5827 9.21344 10.5827 9.21346 10.5828C9.21349 10.5828 9.21352 10.5828 9.46526 10.3977C9.71701 10.2125 9.71702 10.2126 9.71703 10.2126C9.71702 10.2126 9.71702 10.2126 9.717 10.2125C9.71698 10.2125 9.71693 10.2124 9.71685 10.2123C9.7167 10.2121 9.71644 10.2118 9.71609 10.2113C9.7154 10.2103 9.71431 10.2089 9.71284 10.2069C9.70992 10.2028 9.70548 10.1968 9.69965 10.1887C9.68797 10.1726 9.67068 10.1487 9.64858 10.1178C9.60436 10.056 9.54095 9.9663 9.46476 9.85579C9.31217 9.6345 9.10924 9.33097 8.90681 9.00072C8.70373 8.66941 8.50457 8.31676 8.35719 7.99626C8.20402 7.66316 8.128 7.40873 8.128 7.2581H7.503ZM8.34103 5.09915C8.1743 5.16533 8.0492 5.3017 7.95859 5.4352C7.86374 5.57494 7.78307 5.74653 7.71749 5.93319C7.58615 6.30699 7.503 6.7766 7.503 7.2581H8.128C8.128 6.84325 8.20047 6.44401 8.30715 6.14036C8.36058 5.98829 8.41952 5.869 8.47572 5.78619C8.53616 5.69715 8.57356 5.67929 8.57161 5.68006L8.34103 5.09915ZM8.87498 5.06897C8.83765 5.05154 8.75524 5.01187 8.63268 5.0201C8.54053 5.02629 8.44371 5.0584 8.34103 5.09915L8.57161 5.68006C8.61577 5.66253 8.64479 5.65271 8.66341 5.64736C8.68241 5.6419 8.68393 5.64307 8.67455 5.6437C8.66919 5.64406 8.66096 5.6442 8.65064 5.6432C8.64007 5.64218 8.6298 5.64021 8.62038 5.63763C8.61132 5.63514 8.6051 5.63264 8.60317 5.63185C8.60236 5.63151 8.60263 5.63158 8.61053 5.63527L8.87498 5.06897ZM8.92972 5.07711C8.91314 5.07711 8.90207 5.0763 8.8953 5.07554C8.88872 5.0748 8.88596 5.07409 8.88594 5.07408C8.88586 5.07406 8.88607 5.07412 8.88648 5.07425C8.88688 5.07438 8.8871 5.07447 8.88696 5.07442C8.88602 5.07404 8.88451 5.07342 8.87498 5.06897L8.61053 5.63527C8.63081 5.64474 8.67366 5.66515 8.73336 5.68017C8.79182 5.69489 8.85586 5.70211 8.92972 5.70211V5.07711ZM9.46526 5.198C9.28345 4.94383 9.28351 4.94379 9.28357 4.94375C9.28358 4.94374 9.28364 4.9437 9.28368 4.94367C9.28375 4.94362 9.28381 4.94358 9.28388 4.94353C9.284 4.94344 9.28411 4.94336 9.28421 4.94329C9.2844 4.94316 9.28453 4.94307 9.2846 4.94302C9.28474 4.94292 9.28464 4.94299 9.28432 4.94321C9.28367 4.94366 9.28211 4.94473 9.27971 4.94634C9.27489 4.94956 9.26677 4.95485 9.25587 4.96153C9.23383 4.97505 9.2017 4.99345 9.16333 5.01175C9.08055 5.05123 8.99597 5.07711 8.92972 5.07711V5.70211C9.13114 5.70211 9.31434 5.63218 9.43241 5.57586C9.49447 5.54626 9.54603 5.51675 9.58258 5.49434C9.60097 5.48307 9.61588 5.47339 9.62675 5.46613C9.6322 5.46249 9.63666 5.45945 9.64006 5.45709C9.64176 5.45591 9.6432 5.45491 9.64437 5.45408C9.64496 5.45367 9.64548 5.4533 9.64593 5.45298C9.64615 5.45282 9.64636 5.45268 9.64655 5.45254C9.64665 5.45247 9.64674 5.45241 9.64683 5.45234C9.64687 5.45231 9.64693 5.45227 9.64695 5.45225C9.64701 5.45221 9.64707 5.45217 9.46526 5.198ZM9.82449 5.07711C9.83711 5.07711 9.83619 5.08005 9.8188 5.07257C9.80257 5.0656 9.78216 5.05392 9.75965 5.0381C9.73777 5.02273 9.7186 5.00678 9.70494 4.99461C9.69829 4.98868 9.69338 4.98404 9.69058 4.98134C9.6892 4.98001 9.68837 4.97918 9.68814 4.97895C9.68803 4.97884 9.68807 4.97888 9.68827 4.97908C9.68837 4.97918 9.68851 4.97933 9.68869 4.97951C9.68878 4.9796 9.68888 4.97971 9.68899 4.97982C9.68905 4.97988 9.6891 4.97994 9.68916 4.98C9.68919 4.98003 9.68924 4.98008 9.68926 4.98009C9.6893 4.98014 9.68935 4.98019 9.46526 5.198C9.24117 5.41581 9.24122 5.41586 9.24127 5.41591C9.24129 5.41593 9.24134 5.41598 9.24138 5.41602C9.24145 5.41609 9.24153 5.41617 9.2416 5.41625C9.24176 5.41641 9.24193 5.41658 9.24211 5.41677C9.24247 5.41714 9.24288 5.41755 9.24334 5.41802C9.24425 5.41894 9.24536 5.42006 9.24665 5.42135C9.24924 5.42393 9.25258 5.42722 9.25662 5.43112C9.26469 5.43891 9.27568 5.44924 9.28919 5.46127C9.31585 5.48503 9.35406 5.51698 9.40036 5.54951C9.47991 5.6054 9.63704 5.70211 9.82449 5.70211V5.07711ZM9.99991 5.198C9.68744 5.19405 9.68744 5.19391 9.68744 5.19377C9.68744 5.19373 9.68744 5.19359 9.68744 5.1935C9.68745 5.19332 9.68745 5.19315 9.68745 5.19297C9.68746 5.19262 9.68746 5.19228 9.68747 5.19195C9.68748 5.19128 9.6875 5.19065 9.68752 5.19005C9.68755 5.18885 9.68759 5.18777 9.68763 5.18681C9.68771 5.18489 9.68781 5.18337 9.6879 5.1822C9.68807 5.17995 9.68825 5.17857 9.68841 5.17763C9.68846 5.17729 9.68919 5.17179 9.69361 5.16225C9.69823 5.15232 9.71131 5.12872 9.74038 5.10745C9.77301 5.08358 9.80606 5.07711 9.82449 5.07711V5.70211C9.92943 5.70211 10.0277 5.67168 10.1094 5.61188C10.1876 5.55469 10.2337 5.48319 10.2605 5.42535C10.2872 5.36792 10.2993 5.31452 10.3053 5.27825C10.3083 5.25935 10.3101 5.24299 10.311 5.23027C10.3115 5.22385 10.3119 5.21822 10.3121 5.2135C10.3122 5.21113 10.3122 5.20898 10.3123 5.20705C10.3123 5.20609 10.3123 5.20518 10.3123 5.20433C10.3124 5.2039 10.3124 5.20349 10.3124 5.2031C10.3124 5.2029 10.3124 5.2027 10.3124 5.20251C10.3124 5.20242 10.3124 5.20228 10.3124 5.20223C10.3124 5.20209 10.3124 5.20195 9.99991 5.198ZM9.68741 4.5625V5.198H10.3124V4.5625H9.68741ZM10.0193 4.25H9.99991V4.875H10.0193V4.25ZM9.70679 4.5625V5.198H10.3318V4.5625H9.70679ZM10.0193 5.198C9.70681 5.20195 9.70681 5.20209 9.70682 5.20223C9.70682 5.20228 9.70682 5.20242 9.70682 5.20251C9.70682 5.2027 9.70682 5.2029 9.70683 5.2031C9.70683 5.20349 9.70684 5.2039 9.70685 5.20433C9.70687 5.20518 9.70689 5.20609 9.70691 5.20705C9.70697 5.20898 9.70704 5.21113 9.70714 5.2135C9.70734 5.21822 9.70766 5.22385 9.70815 5.23027C9.70914 5.24299 9.71086 5.25935 9.71394 5.27825C9.71986 5.31452 9.732 5.36792 9.75866 5.42535C9.7855 5.48319 9.83163 5.55469 9.9098 5.61188C9.99155 5.67168 10.0898 5.70211 10.1947 5.70211V5.07711C10.2131 5.07711 10.2462 5.08358 10.2788 5.10745C10.3079 5.12872 10.321 5.15232 10.3256 5.16225C10.33 5.17179 10.3307 5.17729 10.3308 5.17763C10.3309 5.17857 10.3311 5.17995 10.3313 5.1822C10.3314 5.18337 10.3315 5.18489 10.3316 5.18681C10.3316 5.18777 10.3317 5.18885 10.3317 5.19005C10.3317 5.19065 10.3317 5.19128 10.3317 5.19195C10.3317 5.19228 10.3317 5.19262 10.3317 5.19297C10.3317 5.19315 10.3318 5.19332 10.3318 5.1935C10.3318 5.19359 10.3318 5.19373 10.3318 5.19377C10.3318 5.19391 10.3318 5.19405 10.0193 5.198ZM10.1947 5.70211C10.3822 5.70211 10.5393 5.6054 10.6188 5.54951C10.6651 5.51698 10.7033 5.48503 10.73 5.46127C10.7435 5.44924 10.7545 5.43891 10.7626 5.43112C10.7666 5.42722 10.77 5.42393 10.7725 5.42135C10.7738 5.42006 10.7749 5.41894 10.7759 5.41802C10.7763 5.41755 10.7767 5.41714 10.7771 5.41677C10.7773 5.41658 10.7774 5.41641 10.7776 5.41625C10.7777 5.41617 10.7777 5.41609 10.7778 5.41602C10.7779 5.41598 10.7779 5.41593 10.7779 5.41591C10.778 5.41586 10.778 5.41581 10.5539 5.198C10.3298 4.98019 10.3299 4.98014 10.3299 4.98009C10.33 4.98008 10.33 4.98003 10.33 4.98C10.3301 4.97994 10.3302 4.97988 10.3302 4.97982C10.3303 4.97971 10.3304 4.9796 10.3305 4.97951C10.3307 4.97933 10.3308 4.97918 10.3309 4.97908C10.3311 4.97888 10.3312 4.97884 10.3311 4.97895C10.3308 4.97918 10.33 4.98001 10.3286 4.98134C10.3258 4.98404 10.3209 4.98868 10.3143 4.99461C10.3006 5.00678 10.2814 5.02273 10.2596 5.0381C10.237 5.05392 10.2166 5.0656 10.2004 5.07257C10.183 5.08005 10.1821 5.07711 10.1947 5.07711V5.70211ZM10.5539 5.198C10.3721 5.45217 10.3722 5.45221 10.3722 5.45225C10.3723 5.45227 10.3723 5.45231 10.3724 5.45234C10.3725 5.45241 10.3726 5.45247 10.3726 5.45254C10.3728 5.45268 10.373 5.45282 10.3733 5.45298C10.3737 5.4533 10.3742 5.45367 10.3748 5.45408C10.376 5.45491 10.3774 5.45591 10.3791 5.45709C10.3825 5.45945 10.387 5.46249 10.3924 5.46613C10.4033 5.47339 10.4182 5.48307 10.4366 5.49434C10.4732 5.51675 10.5247 5.54626 10.5868 5.57586C10.7049 5.63218 10.8881 5.70211 11.0895 5.70211V5.07711C11.0232 5.07711 10.9386 5.05123 10.8559 5.01175C10.8175 4.99345 10.7854 4.97505 10.7633 4.96153C10.7524 4.95485 10.7443 4.94956 10.7395 4.94634C10.7371 4.94473 10.7355 4.94366 10.7349 4.94321C10.7346 4.94299 10.7345 4.94292 10.7346 4.94302C10.7347 4.94307 10.7348 4.94316 10.735 4.94329C10.7351 4.94336 10.7352 4.94344 10.7353 4.94353C10.7354 4.94358 10.7355 4.94362 10.7355 4.94367C10.7356 4.9437 10.7356 4.94374 10.7356 4.94375C10.7357 4.94379 10.7357 4.94383 10.5539 5.198ZM11.0895 5.70211C11.1633 5.70211 11.2274 5.69489 11.2858 5.68017C11.3455 5.66515 11.3884 5.64474 11.4087 5.63527L11.1442 5.06897C11.1347 5.07342 11.1332 5.07404 11.1322 5.07442C11.1321 5.07447 11.1323 5.07438 11.1327 5.07425C11.1331 5.07412 11.1333 5.07406 11.1333 5.07409C11.1332 5.07409 11.1305 5.0748 11.1239 5.07554C11.1171 5.0763 11.1061 5.07711 11.0895 5.07711V5.70211ZM11.4087 5.63527C11.4166 5.63158 11.4168 5.63151 11.416 5.63185C11.4141 5.63264 11.4079 5.63514 11.3988 5.63763C11.3894 5.64021 11.3791 5.64218 11.3686 5.6432C11.3582 5.6442 11.35 5.64406 11.3447 5.6437C11.3353 5.64307 11.3368 5.6419 11.3558 5.64736C11.3744 5.65271 11.4034 5.66253 11.4476 5.68006L11.6782 5.09915C11.5755 5.0584 11.4787 5.02629 11.3865 5.0201C11.264 5.01187 11.1815 5.05154 11.1442 5.06897L11.4087 5.63527ZM11.4476 5.68006C11.4456 5.67929 11.483 5.69715 11.5435 5.78619C11.5997 5.869 11.6586 5.98829 11.712 6.14036C11.8187 6.44401 11.8912 6.84325 11.8912 7.2581H12.5162C12.5162 6.7766 12.433 6.30699 12.3017 5.93319C12.2361 5.74653 12.1555 5.57494 12.0606 5.4352C11.97 5.3017 11.8449 5.16533 11.6782 5.09915L11.4476 5.68006ZM11.8912 7.2581C11.8912 7.40873 11.8152 7.66316 11.662 7.99626C11.5146 8.31676 11.3155 8.66941 11.1124 9.00072C10.91 9.33097 10.707 9.6345 10.5544 9.85579C10.4782 9.9663 10.4148 10.056 10.3706 10.1178C10.3485 10.1487 10.3312 10.1726 10.3196 10.1887C10.3137 10.1968 10.3093 10.2028 10.3064 10.2069C10.3049 10.2089 10.3038 10.2103 10.3031 10.2113C10.3028 10.2118 10.3025 10.2121 10.3023 10.2123C10.3023 10.2124 10.3022 10.2125 10.3022 10.2125C10.3022 10.2126 10.3022 10.2126 10.3022 10.2126C10.3022 10.2126 10.3022 10.2125 10.5539 10.3977C10.8057 10.5828 10.8057 10.5828 10.8057 10.5828C10.8058 10.5827 10.8058 10.5827 10.8058 10.5826C10.8059 10.5825 10.806 10.5824 10.8061 10.5822C10.8064 10.5819 10.8067 10.5814 10.8072 10.5808C10.808 10.5796 10.8093 10.5779 10.811 10.5756C10.8143 10.5711 10.8191 10.5644 10.8254 10.5558C10.8379 10.5386 10.856 10.5135 10.879 10.4813C10.925 10.417 10.9905 10.3244 11.069 10.2106C11.2257 9.98325 11.4352 9.66996 11.6452 9.32735C11.8546 8.9858 12.0679 8.60959 12.2298 8.25737C12.386 7.91777 12.5162 7.55566 12.5162 7.2581H11.8912ZM10.2527 10.481L10.34 10.7965L10.9424 10.6299L10.8551 10.3144L10.2527 10.481ZM10.6412 10.7132C10.8339 10.9592 10.834 10.9592 10.834 10.9591C10.8341 10.9591 10.8342 10.959 10.8342 10.959C10.8344 10.9589 10.8345 10.9587 10.8347 10.9586C10.8351 10.9583 10.8356 10.9579 10.8362 10.9574C10.8374 10.9565 10.839 10.9552 10.841 10.9537C10.8449 10.9505 10.8506 10.946 10.8577 10.9402C10.8719 10.9286 10.8923 10.9119 10.9179 10.8903C10.9693 10.847 11.042 10.7839 11.1302 10.7027C11.3064 10.5406 11.5453 10.3052 11.7985 10.0104C12.301 9.42514 12.8781 8.58457 13.1124 7.60162L12.5045 7.45667C12.3029 8.30197 11.7964 9.05342 11.3243 9.60318C11.0902 9.87584 10.869 10.0937 10.7069 10.2429C10.626 10.3174 10.5601 10.3745 10.515 10.4125C10.4925 10.4315 10.4752 10.4457 10.4639 10.4549C10.4582 10.4595 10.454 10.4628 10.4514 10.4649C10.4502 10.4659 10.4493 10.4666 10.4488 10.467C10.4485 10.4672 10.4484 10.4673 10.4484 10.4673C10.4483 10.4673 10.4483 10.4673 10.4484 10.4673C10.4484 10.4673 10.4484 10.4673 10.4484 10.4673C10.4485 10.4672 10.4485 10.4672 10.6412 10.7132ZM13.1124 7.60162C13.3559 6.58022 13.0357 5.73143 12.6685 5.15194C12.485 4.86229 12.2873 4.63548 12.1353 4.48074C12.0591 4.40314 11.9938 4.34304 11.9465 4.30158C11.9229 4.28084 11.9037 4.26472 11.89 4.25337C11.8831 4.24769 11.8775 4.2432 11.8734 4.23991C11.8713 4.23827 11.8696 4.23693 11.8683 4.23589C11.8677 4.23537 11.8671 4.23493 11.8666 4.23456C11.8664 4.23438 11.8662 4.23422 11.866 4.23407C11.8659 4.234 11.8658 4.2339 11.8657 4.23387C11.8656 4.23378 11.8655 4.23369 11.6738 4.48045C11.482 4.7272 11.4819 4.72713 11.4818 4.72705C11.4818 4.72704 11.4817 4.72697 11.4817 4.72693C11.4816 4.72686 11.4815 4.72681 11.4815 4.72678C11.4814 4.72671 11.4814 4.72671 11.4815 4.72678C11.4817 4.72693 11.4822 4.72737 11.4831 4.72809C11.4849 4.72954 11.4881 4.73212 11.4926 4.73583C11.5016 4.74325 11.5158 4.75513 11.5343 4.77133C11.5712 4.80377 11.6252 4.85329 11.6894 4.91868C11.8183 5.04991 11.986 5.24247 12.1406 5.48647C12.4497 5.97426 12.6968 6.64983 12.5045 7.45667L13.1124 7.60162ZM11.7016 4.16919L11.6004 4.16014L11.5448 4.78266L11.6459 4.7917L11.7016 4.16919ZM11.2601 4V4.4714H11.8851V4H11.2601Z" fill="#FFD018"/>
<path fill-rule="evenodd" clip-rule="evenodd" d="M8.18969 8.61555C8.18969 8.61555 8.38624 8.08779 8.72996 8.26371C9.07367 8.43963 9.04365 9.05206 9.35637 8.8338C9.66909 8.61555 9.4918 8.26371 9.95521 8.26371C10.4186 8.26371 10.3504 8.8338 10.6283 8.8338C10.9062 8.8338 10.9302 8.26371 11.2409 8.26371C11.5516 8.26371 11.8666 8.61555 11.8666 8.61555L10.0282 11.1171L8.18969 8.61555Z" fill="#8FC753"/>
<path fill-rule="evenodd" clip-rule="evenodd" d="M4.95555 11.5359L4.75782 11.2694C4.75782 11.2694 5.57785 11.2694 5.68911 11.4623C5.72046 11.5166 5.73414 11.5581 5.74456 11.5897C5.77109 11.6702 5.77641 11.6863 5.99885 11.6863C6.30859 11.6863 5.99885 11.3791 5.86988 11.2694C5.7409 11.1598 5.81944 10.9688 5.99885 10.9688C6.06799 10.9688 6.18833 10.9529 6.33627 10.9334C6.57219 10.9024 6.87827 10.862 7.15871 10.862C7.615 10.862 7.23673 11.2694 7.23673 11.2694C7.23673 11.2694 7.8275 11.2694 7.68085 11.0999C7.53421 10.9303 8.17329 10.7241 8.44942 10.7241C8.70685 10.7241 9.86569 10.7818 10.0216 10.7897C10.1846 10.7818 11.396 10.7241 11.6534 10.7241C11.9295 10.7241 12.5686 10.9303 12.422 11.0999C12.2753 11.2694 12.8661 11.2694 12.8661 11.2694C12.8661 11.2694 12.4878 10.862 12.9441 10.862C13.2246 10.862 13.5306 10.9024 13.7666 10.9334C13.9145 10.9529 14.0348 10.9688 14.104 10.9688C14.2834 10.9688 14.3619 11.1598 14.2329 11.2694C14.104 11.3791 13.7942 11.6863 14.104 11.6863C14.3264 11.6863 14.3317 11.6702 14.3583 11.5897C14.3687 11.5581 14.3824 11.5166 14.4137 11.4623C14.521 11.2763 15.2878 11.2697 15.342 11.2694C15.3296 11.2468 15.3226 11.2207 15.3226 11.1928C15.3226 11.1065 15.3903 11.0366 15.4738 11.0366C15.5573 11.0366 15.625 11.1065 15.625 11.1928C15.625 11.2791 15.5573 11.3491 15.4738 11.3491C15.4182 11.3491 15.3695 11.318 15.3433 11.2718L15.1473 11.5359L15.3514 11.7886C15.3789 11.7495 15.4235 11.7241 15.4738 11.7241C15.5573 11.7241 15.625 11.794 15.625 11.8803C15.625 11.9666 15.5573 12.0366 15.4738 12.0366C15.3903 12.0366 15.3226 11.9666 15.3226 11.8803C15.3226 11.8625 15.3255 11.8453 15.3308 11.8294C15.2152 11.7732 15.0154 11.6863 14.8858 11.6863H14.525C14.6157 11.6863 15.1155 12.0161 14.9642 12.159L14.9385 12.1833C14.7901 12.3244 14.5964 12.5085 14.4137 12.4081C14.2203 12.3019 14.104 12.159 14.104 12.159L13.9524 11.6863C13.9524 11.6863 13.0592 11.4558 13.0592 11.6154C13.0592 11.775 13.0567 11.8531 12.7399 11.8531C12.5627 11.8531 12.3914 11.8231 12.2406 11.7966C12.1219 11.7757 12.0159 11.7571 11.9295 11.7571C11.806 11.7571 11.6151 11.7952 11.4739 11.8234C11.391 11.84 11.3252 11.8531 11.3001 11.8531C11.2325 11.8531 10.8708 11.8368 11.1187 11.6863C11.3666 11.5359 11.4237 11.3791 11.4237 11.3791C11.4237 11.3791 10.4315 11.5264 10.0389 11.5354V11.5359L10.0212 11.5358L10.0034 11.5359V11.5354C9.61421 11.5263 8.67912 11.3791 8.67912 11.3791C8.67912 11.3791 8.73623 11.5359 8.98412 11.6863C9.232 11.8368 8.87033 11.8531 8.80269 11.8531C8.77766 11.8531 8.71184 11.84 8.6289 11.8234C8.48767 11.7952 8.29683 11.7571 8.17329 11.7571C8.08694 11.7571 7.98092 11.7757 7.86224 11.7966C7.71141 11.8231 7.54015 11.8531 7.36289 11.8531C7.04614 11.8531 7.0436 11.775 7.0436 11.6154C7.0436 11.4558 6.15038 11.6863 6.15038 11.6863L5.99885 12.159C5.99885 12.159 5.88252 12.3019 5.68911 12.4081C5.50641 12.5085 5.31276 12.3244 5.16429 12.1833L5.13866 12.159C4.9873 12.0161 5.48709 11.6863 5.57785 11.6863H5.21698C5.02549 11.6863 4.68083 11.876 4.68083 11.876L4.95555 11.5359ZM4.52621 11.3491C4.60972 11.3491 4.67742 11.2791 4.67742 11.1928C4.67742 11.1065 4.60972 11.0366 4.52621 11.0366C4.4427 11.0366 4.375 11.1065 4.375 11.1928C4.375 11.2791 4.4427 11.3491 4.52621 11.3491ZM4.52621 12.0366C4.60972 12.0366 4.67742 11.9666 4.67742 11.8803C4.67742 11.794 4.60972 11.7241 4.52621 11.7241C4.4427 11.7241 4.375 11.794 4.375 11.8803C4.375 11.9666 4.4427 12.0366 4.52621 12.0366Z" fill="white"/>
<path fill-rule="evenodd" clip-rule="evenodd" d="M9.934 1.26843H10.059V1.40241H10.2125V1.52741H10.059V1.75494C10.2314 1.78406 10.3629 1.93866 10.3629 2.12501C10.3629 2.33211 10.2004 2.50001 10 2.50001C9.79957 2.50001 9.6371 2.33211 9.6371 2.12501C9.6371 1.94119 9.76508 1.78827 9.934 1.75619V1.52741H9.7929V1.40241H9.934V1.26843Z" fill="#FFD018"/>
<path fill-rule="evenodd" clip-rule="evenodd" d="M8.59176 3.26619C8.41679 3.26619 8.04782 3.4533 8.04782 3.4533L8.33471 4.08952L10.0651 4.02459L11.7955 4.08952L12.0824 3.4533C12.0824 3.4533 11.7134 3.26619 11.5385 3.26619C11.4616 3.26619 11.4519 3.22098 11.441 3.17027C11.427 3.10549 11.4111 3.03173 11.251 3.03173C11.1377 3.03173 11.0576 3.05053 10.9929 3.06574C10.8944 3.08887 10.8311 3.10373 10.7398 3.03173C10.736 3.02873 10.7322 3.02572 10.7284 3.02271C10.5807 2.90604 10.4273 2.78485 10.1791 2.78485C10.1296 2.78485 10.0926 2.83167 10.0651 2.90708C10.0376 2.83167 10.0007 2.78485 9.95113 2.78485C9.70296 2.78485 9.54954 2.90604 9.40184 3.02271C9.39803 3.02572 9.39422 3.02873 9.39041 3.03173C9.29916 3.10373 9.23588 3.08887 9.13738 3.06574C9.07259 3.05053 8.99255 3.03173 8.87927 3.03173C8.71917 3.03173 8.70326 3.10549 8.68928 3.17027C8.67834 3.22098 8.66859 3.26619 8.59176 3.26619Z" fill="#E31D1C"/>
<path fill-rule="evenodd" clip-rule="evenodd" d="M9.75503 2.23029L9.63357 2.27242C9.3126 2.38377 9.03464 2.4205 8.79986 2.38432C8.31646 2.30982 7.68572 2.56133 7.76475 2.92966C7.79939 3.09107 7.90048 3.39593 8.00562 3.6543C8.1515 4.01281 8.2536 4.19366 8.37303 4.19366C8.38849 4.19366 8.55067 4.20251 8.6047 4.20546C8.61442 4.206 8.62065 4.20633 8.62188 4.2064C8.79754 4.21529 8.95237 4.21999 9.10131 4.2193C9.532 4.21729 9.79897 4.175 9.89431 4.04578L9.92236 4.00776L9.90905 3.96196C9.79595 3.57304 9.74359 3.0395 9.75316 2.36267L9.75503 2.23029ZM7.9419 2.88907C7.90315 2.70846 8.39651 2.51173 8.77309 2.56977C9.00768 2.60592 9.27349 2.5787 9.57064 2.4893C9.56907 3.09091 9.61813 3.57958 9.71865 3.95626C9.63253 4.00132 9.40623 4.03037 9.10049 4.0318C8.95531 4.03248 8.80346 4.02787 8.63076 4.01912C8.6323 4.0192 8.45286 4.00926 8.39141 4.00673C8.38937 4.00466 8.38697 4.00206 8.38429 3.99893C8.36809 3.98006 8.34785 3.94954 8.32503 3.90914C8.28006 3.82948 8.22754 3.71595 8.17288 3.58163C8.07162 3.33276 7.97383 3.03789 7.9419 2.88907Z" fill="#FFD018"/>
<path fill-rule="evenodd" clip-rule="evenodd" d="M10.2842 2.23029L10.4057 2.27242C10.7266 2.38377 11.0046 2.4205 11.2394 2.38432C11.7228 2.30982 12.3535 2.56133 12.2745 2.92966C12.2398 3.09107 12.1387 3.39593 12.0336 3.6543C11.8877 4.01281 11.7856 4.19366 11.6662 4.19366C11.6507 4.19366 11.4886 4.20251 11.4345 4.20546C11.4248 4.206 11.4186 4.20633 11.4173 4.2064C11.2417 4.21529 11.0869 4.21999 10.9379 4.2193C10.5072 4.21729 10.2403 4.175 10.1449 4.04578L10.1169 4.00776L10.1302 3.96196C10.2433 3.57304 10.2956 3.0395 10.2861 2.36267L10.2842 2.23029ZM12.0973 2.88907C12.1361 2.70846 11.6427 2.51173 11.2661 2.56977C11.0316 2.60592 10.7657 2.5787 10.4686 2.4893C10.4702 3.09091 10.4211 3.57958 10.3206 3.95626C10.4067 4.00132 10.633 4.03037 10.9387 4.0318C11.0839 4.03248 11.2358 4.02787 11.4085 4.01912C11.4069 4.0192 11.5864 4.00926 11.6478 4.00673C11.6499 4.00466 11.6523 4.00206 11.6549 3.99893C11.6711 3.98006 11.6914 3.94954 11.7142 3.90914C11.7592 3.82948 11.8117 3.71595 11.8663 3.58163C11.9676 3.33276 12.0654 3.03789 12.0973 2.88907Z" fill="#FFD018"/>
<path fill-rule="evenodd" clip-rule="evenodd" d="M11.947 4.04441C11.9468 4.00972 11.9668 3.94708 12.0105 3.83074C12.0707 3.67046 12.1118 3.6219 12.1993 3.56846C12.2436 3.54142 12.2609 3.51798 12.2818 3.43728C12.2984 3.37272 12.3154 3.32234 12.3348 3.27591C12.3387 3.26648 12.3471 3.24774 12.3552 3.22968L12.3552 3.22967L12.3553 3.22959C12.3636 3.21101 12.3716 3.19317 12.3741 3.18695C12.3876 3.15298 12.3932 3.12278 12.3932 3.07381C12.3932 3.01798 12.3786 2.97326 12.34 2.89195C12.317 2.84338 12.3141 2.83693 12.3059 2.81645C12.2893 2.77489 12.2807 2.73897 12.2807 2.70228V2.46156C12.2807 2.321 12.2752 2.31244 12.2062 2.32176C12.1992 2.3227 12.1925 2.32377 12.1855 2.32504C12.1881 2.32457 12.1523 2.33153 12.1439 2.33254C12.1274 2.33448 12.1139 2.33316 12.1003 2.32701C12.0755 2.31583 12.0574 2.29391 12.0138 2.22878C11.9933 2.1981 11.9713 2.20111 11.8929 2.23928C11.8817 2.24471 11.8752 2.24786 11.868 2.25115C11.7878 2.28796 11.7322 2.28903 11.6848 2.2312C11.6121 2.14234 11.564 2.14801 11.4758 2.23378C11.4323 2.27614 11.4103 2.29218 11.3824 2.29627L11.3801 2.29662C11.3507 2.30097 11.3489 2.30124 11.2661 2.25051C11.2605 2.26225 11.2482 2.26678 11.2283 2.27141C11.2018 2.2776 11.1624 2.27969 11.136 2.27557C11.114 2.27213 11.0984 2.26534 11.0881 2.24389C11.0531 2.24283 11.0117 2.24227 10.9639 2.24227V2.17977C11.0251 2.17977 11.0762 2.18068 11.1174 2.1824L11.129 2.17235C11.1517 2.15237 11.1869 2.12133 11.2036 2.12626C11.2059 2.12692 11.2125 2.13278 11.2216 2.14084L11.2216 2.14084L11.2216 2.14085C11.2355 2.15318 11.2552 2.17069 11.2741 2.18268L11.2764 2.18415C11.3585 2.23455 11.3617 2.23618 11.3739 2.23439C11.3847 2.2328 11.4002 2.22151 11.4344 2.18826C11.5451 2.08058 11.6323 2.0703 11.731 2.19084C11.756 2.2214 11.7851 2.22084 11.8434 2.19403C11.8501 2.19098 11.8563 2.18799 11.8671 2.18275C11.9717 2.13179 12.0183 2.12545 12.0636 2.19326C12.0995 2.247 12.1147 2.2653 12.1245 2.26974L12.1266 2.27085C12.1288 2.27185 12.1316 2.27133 12.1587 2.26643L12.1751 2.26346C12.183 2.26205 12.1905 2.26085 12.1983 2.25979C12.3126 2.24435 12.3412 2.28843 12.3412 2.46156V2.70228C12.3412 2.72965 12.348 2.75799 12.3618 2.7926C12.3692 2.81128 12.3721 2.81747 12.3944 2.86446C12.4367 2.95383 12.4537 3.00573 12.4537 3.07381C12.4537 3.1308 12.4466 3.16907 12.4301 3.21069C12.427 3.21831 12.4179 3.23858 12.409 3.25844L12.409 3.25848C12.4013 3.27566 12.3937 3.29254 12.3903 3.30068C12.3721 3.34431 12.3561 3.3918 12.3402 3.4534C12.3152 3.54998 12.288 3.58692 12.2301 3.62227C12.154 3.66873 12.1221 3.70648 12.0669 3.85335C12.0383 3.92965 12.0205 3.98319 12.012 4.01668C12.0102 4.0236 12.0089 4.0294 12.0081 4.03406C12.0168 4.04109 12.0158 4.04606 12.0129 4.05991L12.0129 4.05991C12.0108 4.06466 12.0102 4.06612 12.0093 4.06744L12.0079 4.06939C12.0044 4.07362 12.0044 4.07362 12.0003 4.0771C11.9985 4.0784 11.9967 4.07957 11.9948 4.08059C11.9959 4.08042 11.9968 4.08005 11.998 4.07929C11.9943 4.08354 11.9894 4.0896 11.9834 4.09755C11.9241 4.175 11.8496 4.175 11.7782 4.10009L11.8214 4.05625C11.8682 4.10543 11.9002 4.10543 11.9359 4.05879L11.947 4.04441ZM8.02291 4.04441C8.02311 4.00972 8.00311 3.94708 7.95943 3.83074C7.89924 3.67046 7.8581 3.6219 7.77062 3.56846C7.72634 3.54142 7.70904 3.51798 7.68819 3.43728C7.67151 3.37272 7.65457 3.32234 7.63517 3.27591C7.63123 3.26646 7.62279 3.24768 7.61467 3.22959L7.61466 3.22958L7.61466 3.22957L7.61466 3.22957L7.61465 3.22956C7.60632 3.21099 7.59831 3.19317 7.59584 3.18695C7.58234 3.15298 7.57675 3.12278 7.57675 3.07381C7.57675 3.01798 7.59136 2.97326 7.6299 2.89195C7.65292 2.84338 7.65589 2.83693 7.66407 2.81645C7.68067 2.77489 7.68921 2.73897 7.68921 2.70228V2.46156C7.68921 2.321 7.69477 2.31244 7.76378 2.32176C7.7707 2.3227 7.7774 2.32377 7.78444 2.32504C7.78186 2.32457 7.81762 2.33153 7.82608 2.33254C7.8425 2.33448 7.85601 2.33316 7.86964 2.32701C7.89441 2.31583 7.91258 2.29391 7.95611 2.22878C7.97662 2.1981 7.99869 2.20111 8.07706 2.23928C8.0882 2.24471 8.09477 2.24786 8.10194 2.25115C8.18211 2.28796 8.23776 2.28903 8.2851 2.2312C8.35785 2.14234 8.4059 2.14801 8.49412 2.23378C8.53769 2.27614 8.55969 2.29218 8.58757 2.29627L8.58989 2.29662C8.61926 2.30097 8.62105 2.30124 8.70384 2.25051C8.70949 2.26225 8.72176 2.26678 8.74163 2.27141C8.76814 2.2776 8.80757 2.27969 8.83399 2.27557C8.85598 2.27213 8.87158 2.26534 8.88188 2.24389C8.91687 2.24283 8.95825 2.24227 9.0061 2.24227V2.17977C8.9448 2.17977 8.89374 2.18068 8.85251 2.1824L8.84093 2.17235C8.81825 2.15237 8.78301 2.12133 8.76631 2.12626C8.76408 2.12692 8.75748 2.13278 8.74839 2.14084L8.74838 2.14084L8.74838 2.14084L8.74838 2.14085L8.74838 2.14085C8.73389 2.1537 8.71307 2.17215 8.69353 2.18415C8.6114 2.23455 8.60825 2.23618 8.59608 2.23439C8.58526 2.2328 8.56976 2.22151 8.53556 2.18826C8.42482 2.08058 8.3376 2.0703 8.23892 2.19084C8.2139 2.2214 8.18489 2.22084 8.1265 2.19403C8.11985 2.19098 8.11361 2.18799 8.10285 2.18275C7.99824 2.13179 7.95167 2.12545 7.90635 2.19326C7.87042 2.247 7.85526 2.2653 7.84543 2.26974L7.8433 2.27085C7.84115 2.27185 7.8383 2.27133 7.81121 2.26643L7.79482 2.26346C7.78698 2.26205 7.77944 2.26085 7.77162 2.25979C7.65736 2.24435 7.62873 2.28843 7.62873 2.46156V2.70228C7.62873 2.72965 7.62199 2.75799 7.60816 2.7926C7.6007 2.81128 7.59785 2.81747 7.57558 2.86446C7.53323 2.95383 7.51627 3.00573 7.51627 3.07381C7.51627 3.1308 7.52335 3.16907 7.53989 3.21069C7.54292 3.21831 7.55201 3.23857 7.56093 3.25844L7.56093 3.25844C7.56865 3.27563 7.57624 3.29253 7.57964 3.30068C7.59786 3.34431 7.61384 3.3918 7.62975 3.4534C7.65471 3.54998 7.68197 3.58692 7.73984 3.62227C7.81591 3.66873 7.84789 3.70648 7.90304 3.85335C7.93169 3.92965 7.94947 3.98319 7.95797 4.01668C7.95973 4.0236 7.96102 4.0294 7.96189 4.03406C7.95314 4.04109 7.95418 4.04606 7.95707 4.05991C7.95914 4.06466 7.95978 4.06612 7.96063 4.06744L7.96202 4.06939L7.96202 4.06939C7.9655 4.07362 7.9655 4.07362 7.96968 4.0771C7.9714 4.0784 7.97323 4.07957 7.97512 4.08059C7.97401 4.08042 7.9731 4.08005 7.97199 4.07929C7.97563 4.08354 7.9805 4.0896 7.98658 4.09755C8.04584 4.175 8.12037 4.175 8.19171 4.10009L8.14859 4.05625C8.10176 4.10543 8.06972 4.10543 8.03402 4.05879L8.02291 4.04441ZM8.74933 2.20901L8.74816 2.20845L8.74865 2.20866L8.74933 2.20901Z" fill="#5E5E5E"/>
<path d="M8.60874 11.1782L8.64671 10.868C9.31831 10.9502 9.76674 10.9913 9.99269 10.9915C10.3334 11.0068 10.7396 10.9821 11.2104 10.917L11.2532 11.2266C10.7647 11.2941 10.3401 11.3199 9.98567 11.3038C9.74981 11.3038 9.29294 11.2619 8.60874 11.1782Z" fill="#272727"/>
</g>
</g>
<defs>
<clipPath id="clip0_270_60844">
<rect width="20" height="15" fill="white"/>
</clipPath>
</defs>
</svg>
