<svg xmlns="http://www.w3.org/2000/svg" xmlns:xlink="http://www.w3.org/1999/xlink" width="20" height="15" viewBox="0 0 20 15">
  <defs>
    <rect id="a" width="20" height="15"/>
    <rect id="c" width="20" height="15"/>
    <rect id="e" width="20" height="15"/>
    <rect id="g" width="6.25" height="16.452" y="1.048"/>
    <polygon id="i" points="1.136 .032 .028 .656 .028 1.691 1.136 2.34 2.335 2.34 3.468 1.691 3.468 .656 2.335 .032"/>
  </defs>
  <g fill="none" fill-rule="evenodd">
    <mask id="b" fill="white">
      <use xlink:href="#a"/>
    </mask>
    <use fill="#FFFFFF" xlink:href="#a"/>
    <g mask="url(#b)">
      <mask id="d" fill="white">
        <use xlink:href="#c"/>
      </mask>
      <g mask="url(#d)">
        <mask id="f" fill="white">
          <use xlink:href="#e"/>
        </mask>
        <use fill="#29C470" xlink:href="#e"/>
        <g mask="url(#f)">
          <g transform="translate(1.25 -1.25)">
            <mask id="h" fill="white">
              <use xlink:href="#g"/>
            </mask>
            <use fill="#C51918" xlink:href="#g"/>
            <path fill="#E8AA00" d="M0.372095976,13.3114265 L0.030790773,13.75 L0,13.7195565 L0.331138006,13.2940477 L0.331138006,13.208632 L0.332385985,13.2006971 L0.370887229,13.0821448 L0.34732357,13.0408467 L0.152039294,13.2361052 L0.528469204,12.649849 L0.528469204,12.8501763 L0.600710095,12.915382 L0.77325809,12.6135932 L0.60012813,12.3231453 L0.475180227,12.419169 L0.525850045,12.5209609 L0.491006372,12.5451538 L0.208942467,12.073267 L0.388642745,12.1961407 L0.420297963,12.1502388 L0.248097683,11.974833 L0.324266864,11.8909521 L0.0725831959,11.5236291 L0.104999113,11.4954102 L0.378967118,11.8952564 L0.307897618,11.9735214 L0.475975192,12.1447277 L0.398590745,12.2569397 L0.347052834,12.2216996 L0.445378436,12.3861962 L0.61112721,12.2588166 L0.822287014,12.6130645 L0.610545245,12.9834037 L0.487511234,12.8723513 L0.487511234,12.7923793 L0.364003235,12.984732 L0.41634626,13.0764695 L0.372095976,13.2127241 L0.372095976,13.3114265 Z M0.372095976,10.7261133 L0.030790773,11.1646869 L0,11.1342434 L0.331138006,10.7087346 L0.331138006,10.6233188 L0.332385985,10.6153839 L0.370887229,10.4968317 L0.34732357,10.4555335 L0.152039294,10.650792 L0.528469204,10.0645358 L0.528469204,10.2648631 L0.600710095,10.3300689 L0.77325809,10.0282801 L0.60012813,9.73783219 L0.475180227,9.83385588 L0.525850045,9.93564771 L0.491006372,9.95984063 L0.208942467,9.48795381 L0.388642745,9.61082759 L0.420297963,9.56492567 L0.248097683,9.38951988 L0.324266864,9.30563891 L0.0725831959,8.9383159 L0.104999113,8.9100971 L0.378967118,9.30994327 L0.307897618,9.38820824 L0.475975192,9.55941458 L0.398590745,9.67162656 L0.347052834,9.63638644 L0.445378436,9.80088305 L0.61112721,9.6735035 L0.822287014,10.0277513 L0.610545245,10.3980906 L0.487511234,10.2870382 L0.487511234,10.2070661 L0.364003235,10.3994189 L0.41634626,10.4911564 L0.372095976,10.6274109 L0.372095976,10.7261133 Z M0.372095976,7.81763603 L0.030790773,8.25620956 L0,8.22576607 L0.331138006,7.80025727 L0.331138006,7.71484152 L0.332385985,7.70690664 L0.370887229,7.58835438 L0.34732357,7.54705623 L0.152039294,7.74231473 L0.528469204,7.15605854 L0.528469204,7.35638583 L0.600710095,7.42159156 L0.77325809,7.11980277 L0.60012813,6.8293549 L0.475180227,6.92537859 L0.525850045,7.02717042 L0.491006372,7.05136334 L0.208942467,6.57947652 L0.388642745,6.7023503 L0.420297963,6.65644838 L0.248097683,6.48104259 L0.324266864,6.39716162 L0.0725831959,6.02983861 L0.104999113,6.00161981 L0.378967118,6.40146598 L0.307897618,6.47973095 L0.475975192,6.65093729 L0.398590745,6.76314927 L0.347052834,6.72790915 L0.445378436,6.89240576 L0.61112721,6.76502621 L0.822287014,7.11927405 L0.610545245,7.48961329 L0.487511234,7.37856091 L0.487511234,7.29858885 L0.364003235,7.49094161 L0.41634626,7.58267906 L0.372095976,7.71893365 L0.372095976,7.81763603 Z M0.372095976,4.95532504 L0.030790773,5.39389857 L0,5.36345508 L0.331138006,4.93794629 L0.331138006,4.85253054 L0.332385985,4.84459566 L0.370887229,4.7260434 L0.34732357,4.68474525 L0.152039294,4.88000375 L0.528469204,4.29374755 L0.528469204,4.49407485 L0.600710095,4.55928058 L0.77325809,4.25749178 L0.60012813,3.96704391 L0.475180227,4.0630676 L0.525850045,4.16485943 L0.491006372,4.18905236 L0.208942467,3.71716554 L0.388642745,3.84003931 L0.420297963,3.7941374 L0.248097683,3.6187316 L0.324266864,3.53485063 L0.0725831959,3.16752763 L0.104999113,3.13930882 L0.378967118,3.53915499 L0.307897618,3.61741996 L0.475975192,3.78862631 L0.398590745,3.90083828 L0.347052834,3.86559817 L0.445378436,4.03009478 L0.61112721,3.90271522 L0.822287014,4.25696306 L0.610545245,4.6273023 L0.487511234,4.51624992 L0.487511234,4.43627787 L0.364003235,4.62863062 L0.41634626,4.72036807 L0.372095976,4.85662266 L0.372095976,4.95532504 Z M0.372095976,1.81601622 L0.030790773,2.25458975 L0,2.22414626 L0.331138006,1.79863746 L0.331138006,1.71322172 L0.332385985,1.70528684 L0.370887229,1.58673457 L0.34732357,1.54543642 L0.152039294,1.74069492 L0.528469204,1.15443873 L0.528469204,1.35476602 L0.600710095,1.41997175 L0.77325809,1.11818296 L0.60012813,0.827735092 L0.475180227,0.923758779 L0.525850045,1.02555061 L0.491006372,1.04974353 L0.208942467,0.577856713 L0.388642745,0.700730492 L0.420297963,0.654828574 L0.248097683,0.479422778 L0.324266864,0.395541808 L0.0725831959,0.0282188048 L0.104999113,0 L0.378967118,0.399846168 L0.307897618,0.478111137 L0.475975192,0.649317484 L0.398590745,0.761529457 L0.347052834,0.726289345 L0.445378436,0.890785954 L0.61112721,0.763406398 L0.822287014,1.11765424 L0.610545245,1.48799348 L0.487511234,1.3769411 L0.487511234,1.29696905 L0.364003235,1.4893218 L0.41634626,1.58105925 L0.372095976,1.71731384 L0.372095976,1.81601622 Z M5.87790402,13.3114265 L5.87790402,13.2127241 L5.83365374,13.0764695 L5.88599677,12.984732 L5.76248877,12.7923793 L5.76248877,12.8723513 L5.63945475,12.9834037 L5.42771299,12.6130645 L5.63887279,12.2588166 L5.80462156,12.3861962 L5.90294717,12.2216996 L5.85140925,12.2569397 L5.77402481,12.1447277 L5.94210238,11.9735214 L5.87103288,11.8952564 L6.14500089,11.4954102 L6.1774168,11.5236291 L5.92573314,11.8909521 L6.00190232,11.974833 L5.82970204,12.1502388 L5.86135726,12.1961407 L6.04105753,12.073267 L5.75899363,12.5451538 L5.72414996,12.5209609 L5.77481977,12.419169 L5.64987187,12.3231453 L5.47674191,12.6135932 L5.64928991,12.915382 L5.7215308,12.8501763 L5.7215308,12.649849 L6.09796071,13.2361052 L5.90267643,13.0408467 L5.87911277,13.0821448 L5.91761401,13.2006971 L5.91886199,13.208632 L5.91886199,13.2940477 L6.25,13.7195565 L6.21920923,13.75 L5.87790402,13.3114265 Z M5.87790402,10.7261133 L5.87790402,10.6274109 L5.83365374,10.4911564 L5.88599677,10.3994189 L5.76248877,10.2070661 L5.76248877,10.2870382 L5.63945475,10.3980906 L5.42771299,10.0277513 L5.63887279,9.6735035 L5.80462156,9.80088305 L5.90294717,9.63638644 L5.85140925,9.67162656 L5.77402481,9.55941458 L5.94210238,9.38820824 L5.87103288,9.30994327 L6.14500089,8.9100971 L6.1774168,8.9383159 L5.92573314,9.30563891 L6.00190232,9.38951988 L5.82970204,9.56492567 L5.86135726,9.61082759 L6.04105753,9.48795381 L5.75899363,9.95984063 L5.72414996,9.93564771 L5.77481977,9.83385588 L5.64987187,9.73783219 L5.47674191,10.0282801 L5.64928991,10.3300689 L5.7215308,10.2648631 L5.7215308,10.0645358 L6.09796071,10.650792 L5.90267643,10.4555335 L5.87911277,10.4968317 L5.91761401,10.6153839 L5.91886199,10.6233188 L5.91886199,10.7087346 L6.25,11.1342434 L6.21920923,11.1646869 L5.87790402,10.7261133 Z M5.87790402,7.81763603 L5.87790402,7.71893365 L5.83365374,7.58267906 L5.88599677,7.49094161 L5.76248877,7.29858885 L5.76248877,7.37856091 L5.63945475,7.48961329 L5.42771299,7.11927405 L5.63887279,6.76502621 L5.80462156,6.89240576 L5.90294717,6.72790915 L5.85140925,6.76314927 L5.77402481,6.65093729 L5.94210238,6.47973095 L5.87103288,6.40146598 L6.14500089,6.00161981 L6.1774168,6.02983861 L5.92573314,6.39716162 L6.00190232,6.48104259 L5.82970204,6.65644838 L5.86135726,6.7023503 L6.04105753,6.57947652 L5.75899363,7.05136334 L5.72414996,7.02717042 L5.77481977,6.92537859 L5.64987187,6.8293549 L5.47674191,7.11980277 L5.64928991,7.42159156 L5.7215308,7.35638583 L5.7215308,7.15605854 L6.09796071,7.74231473 L5.90267643,7.54705623 L5.87911277,7.58835438 L5.91761401,7.70690664 L5.91886199,7.71484152 L5.91886199,7.80025727 L6.25,8.22576607 L6.21920923,8.25620956 L5.87790402,7.81763603 Z M5.87790402,4.95532504 L5.87790402,4.85662266 L5.83365374,4.72036807 L5.88599677,4.62863062 L5.76248877,4.43627787 L5.76248877,4.51624992 L5.63945475,4.6273023 L5.42771299,4.25696306 L5.63887279,3.90271522 L5.80462156,4.03009478 L5.90294717,3.86559817 L5.85140925,3.90083828 L5.77402481,3.78862631 L5.94210238,3.61741996 L5.87103288,3.53915499 L6.14500089,3.13930882 L6.1774168,3.16752763 L5.92573314,3.53485063 L6.00190232,3.6187316 L5.82970204,3.7941374 L5.86135726,3.84003931 L6.04105753,3.71716554 L5.75899363,4.18905236 L5.72414996,4.16485943 L5.77481977,4.0630676 L5.64987187,3.96704391 L5.47674191,4.25749178 L5.64928991,4.55928058 L5.7215308,4.49407485 L5.7215308,4.29374755 L6.09796071,4.88000375 L5.90267643,4.68474525 L5.87911277,4.7260434 L5.91761401,4.84459566 L5.91886199,4.85253054 L5.91886199,4.93794629 L6.25,5.36345508 L6.21920923,5.39389857 L5.87790402,4.95532504 Z M5.87790402,1.81601622 L5.87790402,1.71731384 L5.83365374,1.58105925 L5.88599677,1.4893218 L5.76248877,1.29696905 L5.76248877,1.3769411 L5.63945475,1.48799348 L5.42771299,1.11765424 L5.63887279,0.763406398 L5.80462156,0.890785954 L5.90294717,0.726289345 L5.85140925,0.761529457 L5.77402481,0.649317484 L5.94210238,0.478111137 L5.87103288,0.399846168 L6.14500089,0 L6.1774168,0.0282188048 L5.92573314,0.395541808 L6.00190232,0.479422778 L5.82970204,0.654828574 L5.86135726,0.700730492 L6.04105753,0.577856713 L5.75899363,1.04974353 L5.72414996,1.02555061 L5.77481977,0.923758779 L5.64987187,0.827735092 L5.47674191,1.11818296 L5.64928991,1.41997175 L5.7215308,1.35476602 L5.7215308,1.15443873 L6.09796071,1.74069492 L5.90267643,1.54543642 L5.87911277,1.58673457 L5.91761401,1.70528684 L5.91886199,1.71322172 L5.91886199,1.79863746 L6.25,2.22414626 L6.21920923,2.25458975 L5.87790402,1.81601622 Z" mask="url(#h)"/>
            <g mask="url(#h)">
              <g transform="translate(1.5 10.125)">
                <path fill="#389F5D" stroke="#E8AA00" stroke-width=".5" d="M1.81667295,0.227864583 L2.78761062,0.227864583 L2.78761062,0.455729167 L3.00884956,0.455729167 L3.00884956,0.638020833 L3.27433628,0.638020833 L3.27433628,1.23046875 L3.00884956,1.23046875 L3.00884956,1.41276042 L2.78761062,1.41276042 L2.78761062,1.59505208 L1.84257911,1.59505208 C1.6682787,1.74995845 1.58112849,1.82741164 1.58112849,1.82741164 C1.58112849,1.82741164 1.49356339,1.74995845 1.31843318,1.59505208 L0.442477876,1.59505208 L0.442477876,1.41276042 L0.221238938,1.41276042 L0.221238938,1.23046875 L0,1.23046875 L0,0.638020833 L0.221238938,0.638020833 L0.221238938,0.455729167 L0.442477876,0.455729167 L0.442477876,0.227864583 L1.34446267,0.227864583 L1.58112849,0.0185286629 L1.81667295,0.227864583 Z"/>
                <path fill="#C51918" d="M0.572017024,0.351982311 L1.0411244,0.351982311 L0.572017024,0.754577633 L0.572017024,0.351982311 Z M2.54554918,0.351982311 L2.54554918,0.754577633 L2.0764418,0.351982311 L2.54554918,0.351982311 Z M0.572017024,1.4837443 L0.572017024,1.08114898 L1.0411244,1.4837443 L0.572017024,1.4837443 Z M2.54554918,1.4837443 L2.0764418,1.4837443 L2.54554918,1.08114898 L2.54554918,1.4837443 Z"/>
                <path fill="#E8AA00" d="M1.56512075,0.174567424 L1.72501417,0.386623463 L1.40319137,0.386623463 L1.56512075,0.174567424 Z M1.56512075,0.796779713 L1.40319137,0.584723674 L1.72501417,0.584723674 L1.56512075,0.796779713 Z M1.56512075,1.08602576 L1.72501417,1.2980818 L1.40319137,1.2980818 L1.56512075,1.08602576 Z M1.56512075,1.70823805 L1.40319137,1.49618201 L1.72501417,1.49618201 L1.56512075,1.70823805 Z"/>
                <path fill="#AF0100" d="M1.4065378 1.36409016L1.4065378 1.27294433 1.73096473 1.27294433 1.73096473 1.36409016 1.82393348 1.36409016 1.82393348 1.48909016 1.73096473 1.48909016 1.73096473 1.58023599 1.4065378 1.58023599 1.4065378 1.48909016 1.31356906 1.48909016 1.31356906 1.36409016 1.4065378 1.36409016zM1.4065378.452631828L1.4065378.361485994 1.73096473.361485994 1.73096473.452631828 1.82393348.452631828 1.82393348.577631828 1.73096473.577631828 1.73096473.668777661 1.4065378.668777661 1.4065378.577631828 1.31356906.577631828 1.31356906.452631828 1.4065378.452631828zM.937860524.63029659L1.09006071.843302709.783722346.843302709.937860524.63029659zM.937860524 1.25529659L.783722346 1.04229047 1.09006071 1.04229047.937860524 1.25529659zM2.22104636.63029659L2.37324655.843302709 2.06690819.843302709 2.22104636.63029659zM2.22104636 1.25529659L2.06690819 1.04229047 2.37324655 1.04229047 2.22104636 1.25529659z"/>
                <path fill="#E8AA00" d="M2.06578145,0.910183909 L2.06578145,0.817215161 L2.37459864,0.817215161 L2.37459864,0.910183909 L2.46309421,0.910183909 L2.46309421,1.03768391 L2.37459864,1.03768391 L2.37459864,1.13065266 L2.06578145,1.13065266 L2.06578145,1.03768391 L1.97728587,1.03768391 L1.97728587,0.910183909 L2.06578145,0.910183909 Z M0.782595605,0.910183909 L0.782595605,0.817215161 L1.0914128,0.817215161 L1.0914128,0.910183909 L1.17990837,0.910183909 L1.17990837,1.03768391 L1.0914128,1.03768391 L1.0914128,1.13065266 L0.782595605,1.13065266 L0.782595605,1.03768391 L0.69410003,1.03768391 L0.69410003,0.910183909 L0.782595605,0.910183909 Z"/>
              </g>
            </g>
            <g mask="url(#h)">
              <g transform="translate(1.5 12)">
                <mask id="j" fill="white">
                  <use xlink:href="#i"/>
                </mask>
                <rect width="1.726" height="1.139" x=".044" y="1.185" fill="#E8AA00" fill-rule="nonzero" mask="url(#j)"/>
                <g mask="url(#j)">
                  <g transform="translate(-.133 .046)">
                    <rect width="1.903" height="1.139" fill="#F9E8E7"/>
                    <polygon fill="#E8AA00" fill-rule="nonzero" points=".442 .664 1.015 .319 1.015 .664"/>
                  </g>
                </g>
                <g mask="url(#j)">
                  <g transform="matrix(-1 0 0 1 3.673 .046)">
                    <rect width="1.903" height="1.139" fill="#E8AA00"/>
                    <polygon fill="#F9E8E7" fill-rule="nonzero" points=".575 .664 1.148 .319 1.148 .664"/>
                  </g>
                </g>
                <g mask="url(#j)">
                  <g transform="rotate(180 1.748 1.162)">
                    <rect width="1.726" height="1.139" fill="#F9E8E7"/>
                    <polygon fill="#E8AA00" fill-rule="nonzero" points=".442 .664 1.015 .319 1.015 .664"/>
                  </g>
                </g>
                <polygon fill="#FCFCFC" fill-rule="nonzero" points=".31 1.94 .883 1.595 .883 1.94" mask="url(#j)" transform="matrix(1 0 0 -1 0 3.528)"/>
                <polygon fill="#C51918" points="1.15 .729 1.438 .729 1.726 .638 2.013 .729 2.301 .729 2.301 1.595 2.013 1.595 1.726 1.732 1.438 1.595 1.15 1.595"/>
                <path fill="#C9343F" fill-rule="nonzero" d="M1.2181969,1.93680138 L1.28222468,1.93680138 L1.28222468,2.06180138 L1.2181969,2.06180138 L1.2181969,2.12907468 L1.0619469,2.12907468 L1.0619469,1.76047246 L1.2181969,1.76047246 L1.2181969,1.93680138 Z M2.28014381,1.93680138 L2.34417159,1.93680138 L2.34417159,2.06180138 L2.28014381,2.06180138 L2.28014381,2.12907468 L2.12389381,2.12907468 L2.12389381,1.76047246 L2.28014381,1.76047246 L2.28014381,1.93680138 Z M1.2181969,0.387322212 L1.28222468,0.387322212 L1.28222468,0.512322212 L1.2181969,0.512322212 L1.2181969,0.579595516 L1.0619469,0.579595516 L1.0619469,0.21099329 L1.2181969,0.21099329 L1.2181969,0.387322212 Z M2.28014381,0.387322212 L2.34417159,0.387322212 L2.34417159,0.512322212 L2.28014381,0.512322212 L2.28014381,0.579595516 L2.12389381,0.579595516 L2.12389381,0.21099329 L2.28014381,0.21099329 L2.28014381,0.387322212 Z M2.98810841,1.38992638 L3.05213619,1.38992638 L3.05213619,1.51492638 L2.98810841,1.51492638 L2.98810841,1.58219968 L2.83185841,1.58219968 L2.83185841,1.21359746 L2.98810841,1.21359746 L2.98810841,1.38992638 Z M2.98810841,0.934197212 L3.05213619,0.934197212 L3.05213619,1.05919721 L2.98810841,1.05919721 L2.98810841,1.12647052 L2.83185841,1.12647052 L2.83185841,0.75786829 L2.98810841,0.75786829 L2.98810841,0.934197212 Z M0.554480088,1.38992638 L0.618507869,1.38992638 L0.618507869,1.51492638 L0.554480088,1.51492638 L0.554480088,1.58219968 L0.398230088,1.58219968 L0.398230088,1.21359746 L0.554480088,1.21359746 L0.554480088,1.38992638 Z M0.554480088,0.934197212 L0.618507869,0.934197212 L0.618507869,1.05919721 L0.554480088,1.05919721 L0.554480088,1.12647052 L0.398230088,1.12647052 L0.398230088,0.75786829 L0.554480088,0.75786829 L0.554480088,0.934197212 Z M0.619469027,0.75786829 L0.775719027,0.75786829 L0.775719027,1.12647052 L0.619469027,1.12647052 L0.619469027,0.75786829 Z M0.619469027,1.21359746 L0.775719027,1.21359746 L0.775719027,1.58219968 L0.619469027,1.58219968 L0.619469027,1.21359746 Z M3.05309735,0.75786829 L3.20934735,0.75786829 L3.20934735,1.12647052 L3.05309735,1.12647052 L3.05309735,0.75786829 Z M3.05309735,1.21359746 L3.20934735,1.21359746 L3.20934735,1.58219968 L3.05309735,1.58219968 L3.05309735,1.21359746 Z M2.34513274,0.21099329 L2.50138274,0.21099329 L2.50138274,0.579595516 L2.34513274,0.579595516 L2.34513274,0.21099329 Z M1.28318584,0.21099329 L1.43943584,0.21099329 L1.43943584,0.579595516 L1.28318584,0.579595516 L1.28318584,0.21099329 Z M2.34513274,1.76047246 L2.50138274,1.76047246 L2.50138274,2.12907468 L2.34513274,2.12907468 L2.34513274,1.76047246 Z M1.28318584,1.76047246 L1.43943584,1.76047246 L1.43943584,2.12907468 L1.28318584,2.12907468 L1.28318584,1.76047246 Z"/>
                <path fill="#FFFFFF" fill-rule="nonzero" d="M1.70235243,1.17546713 L1.47618355,0.979752895 L1.32592402,0.979752895 L1.32592402,1.09166138 L1.45108028,1.09166138 L1.45108028,1.1372343 L1.28167624,1.1372343 L1.28167624,0.934179978 L1.46386054,0.934179978 L1.46386054,0.792501863 L1.68493822,0.792501863 L1.68493822,0.916415579 L1.64069043,0.916415579 L1.64069043,0.83807478 L1.50810833,0.83807478 L1.50810833,0.947855874 L1.73810616,1.14688347 L1.96810399,0.947855874 L1.96810399,0.83807478 L1.83552189,0.83807478 L1.83552189,0.916415579 L1.7912741,0.916415579 L1.7912741,0.792501863 L2.01235177,0.792501863 L2.01235177,0.934179978 L2.19453608,0.934179978 L2.19453608,1.1372343 L2.02513204,1.1372343 L2.02513204,1.09166138 L2.1502883,1.09166138 L2.1502883,0.979752895 L2.00002877,0.979752895 L1.77385989,1.17546713 L2.00002877,1.37118136 L2.1502883,1.37118136 L2.1502883,1.25927287 L2.02513204,1.25927287 L2.02513204,1.21369995 L2.19453608,1.21369995 L2.19453608,1.41675427 L2.01235177,1.41675427 L2.01235177,1.55843239 L1.7912741,1.55843239 L1.7912741,1.43451867 L1.83552189,1.43451867 L1.83552189,1.51285947 L1.96810399,1.51285947 L1.96810399,1.40307838 L1.73810616,1.20405079 L1.50810833,1.40307838 L1.50810833,1.51285947 L1.64069043,1.51285947 L1.64069043,1.43451867 L1.68493822,1.43451867 L1.68493822,1.55843239 L1.46386054,1.55843239 L1.46386054,1.41675427 L1.28167624,1.41675427 L1.28167624,1.21369995 L1.45108028,1.21369995 L1.45108028,1.25927287 L1.32592402,1.25927287 L1.32592402,1.37118136 L1.47618355,1.37118136 L1.70235243,1.17546713 Z"/>
              </g>
            </g>
            <g mask="url(#h)">
              <g transform="translate(1.25 4.25)">
                <path fill="#E8AA00" fill-rule="nonzero" d="M0.487012987,0.528846154 L0.974025974,0.528846154 L0.974025974,1.875 L0.487012987,1.875 L0.487012987,0.528846154 Z M2.77597403,0.528846154 L3.26298701,0.528846154 L3.26298701,1.875 L2.77597403,1.875 L2.77597403,0.528846154 Z M1.46103896,0 L2.24025974,0 L2.24025974,2.5 L1.46103896,2.5 L1.46103896,0 Z"/>
                <path fill="#389F5D" d="M0,0.721153846 L0.487012987,0.721153846 L0.487012987,1.63461538 L0,1.63461538 L0,0.721153846 Z M0.974025974,0.192307692 L1.46103896,0.192307692 L1.46103896,2.11538462 L0.974025974,2.11538462 L0.974025974,0.192307692 Z M3.26298701,0.721153846 L3.75,0.721153846 L3.75,1.63461538 L3.26298701,1.63461538 L3.26298701,0.721153846 Z M2.24025974,0.192307692 L2.72727273,0.192307692 L2.72727273,2.11538462 L2.24025974,2.11538462 L2.24025974,0.192307692 Z"/>
                <path fill="#E1E5E8" d="M0.243506494,1.05769231 C0.16281554,1.05769231 0.0974025974,0.993117993 0.0974025974,0.913461538 C0.0974025974,0.833805084 0.16281554,0.769230769 0.243506494,0.769230769 C0.324197447,0.769230769 0.38961039,0.833805084 0.38961039,0.913461538 C0.38961039,0.993117993 0.324197447,1.05769231 0.243506494,1.05769231 Z M0.243506494,1.58653846 C0.16281554,1.58653846 0.0974025974,1.52196415 0.0974025974,1.44230769 C0.0974025974,1.36265124 0.16281554,1.29807692 0.243506494,1.29807692 C0.324197447,1.29807692 0.38961039,1.36265124 0.38961039,1.44230769 C0.38961039,1.52196415 0.324197447,1.58653846 0.243506494,1.58653846 Z M1.21753247,2.01923077 C1.13684151,2.01923077 1.07142857,1.95465645 1.07142857,1.875 C1.07142857,1.79534355 1.13684151,1.73076923 1.21753247,1.73076923 C1.29822342,1.73076923 1.36363636,1.79534355 1.36363636,1.875 C1.36363636,1.95465645 1.29822342,2.01923077 1.21753247,2.01923077 Z M1.21753247,0.576923077 C1.13684151,0.576923077 1.07142857,0.512348762 1.07142857,0.432692308 C1.07142857,0.353035853 1.13684151,0.288461538 1.21753247,0.288461538 C1.29822342,0.288461538 1.36363636,0.353035853 1.36363636,0.432692308 C1.36363636,0.512348762 1.29822342,0.576923077 1.21753247,0.576923077 Z M3.50649351,1.05769231 C3.42580255,1.05769231 3.36038961,0.993117993 3.36038961,0.913461538 C3.36038961,0.833805084 3.42580255,0.769230769 3.50649351,0.769230769 C3.58718446,0.769230769 3.6525974,0.833805084 3.6525974,0.913461538 C3.6525974,0.993117993 3.58718446,1.05769231 3.50649351,1.05769231 Z M3.50649351,1.58653846 C3.42580255,1.58653846 3.36038961,1.52196415 3.36038961,1.44230769 C3.36038961,1.36265124 3.42580255,1.29807692 3.50649351,1.29807692 C3.58718446,1.29807692 3.6525974,1.36265124 3.6525974,1.44230769 C3.6525974,1.52196415 3.58718446,1.58653846 3.50649351,1.58653846 Z M2.48376623,2.01923077 C2.40307528,2.01923077 2.33766234,1.95465645 2.33766234,1.875 C2.33766234,1.79534355 2.40307528,1.73076923 2.48376623,1.73076923 C2.56445719,1.73076923 2.62987013,1.79534355 2.62987013,1.875 C2.62987013,1.95465645 2.56445719,2.01923077 2.48376623,2.01923077 Z M2.48376623,0.576923077 C2.40307528,0.576923077 2.33766234,0.512348762 2.33766234,0.432692308 C2.33766234,0.353035853 2.40307528,0.288461538 2.48376623,0.288461538 C2.56445719,0.288461538 2.62987013,0.353035853 2.62987013,0.432692308 C2.62987013,0.512348762 2.56445719,0.576923077 2.48376623,0.576923077 Z"/>
                <path fill="#C51918" d="M0.730519481,0.913461538 C0.649828527,0.913461538 0.584415584,0.848887224 0.584415584,0.769230769 C0.584415584,0.689574315 0.649828527,0.625 0.730519481,0.625 C0.811210434,0.625 0.876623377,0.689574315 0.876623377,0.769230769 C0.876623377,0.848887224 0.811210434,0.913461538 0.730519481,0.913461538 Z M1.85064935,0.384615385 C1.7699584,0.384615385 1.70454545,0.32004107 1.70454545,0.240384615 C1.70454545,0.160728161 1.7699584,0.0961538462 1.85064935,0.0961538462 C1.9313403,0.0961538462 1.99675325,0.160728161 1.99675325,0.240384615 C1.99675325,0.32004107 1.9313403,0.384615385 1.85064935,0.384615385 Z M1.85064935,2.45192308 C1.7699584,2.45192308 1.70454545,2.38734876 1.70454545,2.30769231 C1.70454545,2.22803585 1.7699584,2.16346154 1.85064935,2.16346154 C1.9313403,2.16346154 1.99675325,2.22803585 1.99675325,2.30769231 C1.99675325,2.38734876 1.9313403,2.45192308 1.85064935,2.45192308 Z M3.01948052,0.913461538 C2.93878957,0.913461538 2.87337662,0.848887224 2.87337662,0.769230769 C2.87337662,0.689574315 2.93878957,0.625 3.01948052,0.625 C3.10017147,0.625 3.16558442,0.689574315 3.16558442,0.769230769 C3.16558442,0.848887224 3.10017147,0.913461538 3.01948052,0.913461538 Z M0.730519481,1.77884615 C0.649828527,1.77884615 0.584415584,1.71427184 0.584415584,1.63461538 C0.584415584,1.55495893 0.649828527,1.49038462 0.730519481,1.49038462 C0.811210434,1.49038462 0.876623377,1.55495893 0.876623377,1.63461538 C0.876623377,1.71427184 0.811210434,1.77884615 0.730519481,1.77884615 Z M3.01948052,1.77884615 C2.93878957,1.77884615 2.87337662,1.71427184 2.87337662,1.63461538 C2.87337662,1.55495893 2.93878957,1.49038462 3.01948052,1.49038462 C3.10017147,1.49038462 3.16558442,1.55495893 3.16558442,1.63461538 C3.16558442,1.71427184 3.10017147,1.77884615 3.01948052,1.77884615 Z"/>
                <path fill="#C51918" d="M2.78825738,1.05769231 L3.50649351,1.05769231 L3.50649351,1.25 L2.80773002,1.25 L2.80773002,1.26003705 L2.24798386,1.82932766 L1.47818572,1.82932766 L1.00407817,1.31552273 L1.00407817,1.25 L0.194805195,1.25 L0.194805195,1.05769231 L1.00407817,1.05769231 L1.00407817,0.99464302 L1.47818572,0.566465994 L2.24798386,0.566465994 L2.78825738,1.05769231 Z"/>
                <path fill="#E8AA00" fill-rule="nonzero" d="M1.59657377,0.633654998 L1.56549707,0.602160536 L1.6178262,0.551841015 L1.87043019,0.807840744 L2.12303418,0.551841015 L2.17536331,0.602160536 L2.14428661,0.633654998 L2.27072608,0.761369075 L2.22185994,0.758357368 L2.3191219,0.6819507 L2.5162724,0.873261331 L2.21581631,1.15786987 L2.51434747,1.46041417 L2.33241184,1.65229034 L2.25525322,1.65229034 L2.10116095,1.74923153 L1.87043019,1.53560603 L1.63969943,1.74923153 L1.48560716,1.65229034 L1.40844854,1.65229034 L1.22651291,1.46041417 L1.52504407,1.15786987 L1.22458798,0.873261331 L1.42173848,0.6819507 L1.51900044,0.758357368 L1.4701343,0.761369075 L1.59657377,0.633654998 Z M1.87043019,1.38509309 L2.11212995,1.15614178 L1.88190049,0.922817351 L1.87043019,0.912233727 L1.85895989,0.922817351 L1.62873043,1.15614178 L1.87043019,1.38509309 Z M1.92318553,1.43506584 L1.95078433,1.46120895 L1.92382354,1.486171 L2.10974979,1.65831358 L2.23395456,1.58017495 L2.30072958,1.58017495 L2.41334522,1.46140626 L2.16310441,1.20780148 L1.92318553,1.43506584 Z M1.99918404,0.938325421 L2.16484185,1.10621017 L2.41142029,0.872637505 L2.31401952,0.778121882 L2.2415372,0.835062258 L2.10430046,0.696442073 L1.92434826,0.862483629 L1.9330347,0.871286839 L2.00221745,0.935121632 L1.99918404,0.938325421 Z M1.84464293,1.46061149 L1.57775597,1.20780148 L1.32751516,1.46140626 L1.4401308,1.58017495 L1.50690582,1.58017495 L1.63111059,1.65831358 L1.84464293,1.46061149 Z M1.57601853,1.10621017 L1.81651212,0.862483629 L1.63655992,0.696442073 L1.49932318,0.835062258 L1.42684086,0.778121882 L1.32944009,0.872637505 L1.57601853,1.10621017 Z"/>
              </g>
            </g>
            <path fill="#E8AA00" fill-rule="nonzero" d="M3.15240206,15.696193 C3.16358372,15.6936116 3.17378105,15.6922362 3.18308342,15.6922362 C3.18473091,15.6922362 3.1933598,15.6915015 3.20830465,15.6898051 C3.20962617,15.6896551 3.2546847,15.6843333 3.27094635,15.6825521 C3.42965403,15.665168 3.56339383,15.6654448 3.70059941,15.6965806 C3.74967995,15.7077183 3.79639034,15.7226449 3.84038365,15.741618 C3.87596763,15.7569643 3.92637955,15.7670689 3.98694794,15.7720345 C3.96760331,15.7657537 3.94994305,15.7549871 3.93396716,15.7397346 C3.87964689,15.6878741 3.87964689,15.6237964 3.93396716,15.5475017 C4.44743885,15.0649402 4.90422792,14.3708049 4.96181308,14.3750191 C5.03472727,14.3803551 5.10310872,15.1523649 4.15534684,15.7397346 C4.12191874,15.7583223 4.09099217,15.7702478 4.06256713,15.7755113 C4.23102057,15.7778789 4.45084889,15.7487844 4.65044354,15.6898051 C4.27262181,15.841547 3.97151563,15.883798 3.74712501,15.8165579 C3.71448628,15.8024818 3.68006219,15.7914813 3.64384015,15.7832616 C3.54802545,15.7615185 3.4498923,15.7595535 3.33184076,15.7706205 C3.38148931,15.7937355 3.43921675,15.8201861 3.50636022,15.8474359 L3.50636022,15.875 C3.37380924,15.8212049 3.21847717,15.7957694 3.15240206,15.7879074 C3.08632696,15.7957694 2.93099489,15.8212049 2.79844391,15.875 L2.79844391,15.8474359 C2.86558738,15.8201861 2.92331482,15.7937355 2.97296337,15.7706205 C2.85491183,15.7595535 2.75677868,15.7615185 2.66096398,15.7832616 C2.62474194,15.7914813 2.59031785,15.8024818 2.55767912,15.8165579 C2.3332885,15.883798 2.03218232,15.841547 1.65436059,15.6898051 C1.83228484,15.7423809 2.02628766,15.7712089 2.18564385,15.7751718 C2.15771148,15.7697454 2.12738125,15.757933 2.09465316,15.7397346 C1.14689128,15.1523649 1.21527273,14.3803551 1.28818692,14.3750191 C1.34577208,14.3708049 1.80256115,15.0649402 2.31603284,15.5475017 C2.37035311,15.6237964 2.37035311,15.6878741 2.31603284,15.7397346 C2.29674445,15.7581496 2.27500078,15.7700257 2.25080184,15.7753628 C2.34136107,15.7734938 2.41639531,15.7623298 2.46442048,15.741618 C2.50841379,15.7226449 2.55512418,15.7077183 2.60420472,15.6965806 C2.7414103,15.6654448 2.8751501,15.665168 3.03385778,15.6825521 C3.05011943,15.6843333 3.09517796,15.6896551 3.09649948,15.6898051 C3.11144433,15.6915015 3.12007322,15.6922362 3.12172071,15.6922362 C3.13102308,15.6922362 3.14122041,15.6936116 3.15240206,15.696193 Z" mask="url(#h)"/>
            <g mask="url(#h)">
              <g transform="translate(1.25 7.25)">
                <polygon fill="#389F5D" points="1.102 .236 .32 .925 .32 1.582 1.004 2.27 2.401 2.27 3.171 1.536 3.171 .977 2.401 .236"/>
                <path fill="#C51918" d="M1.19469027,2.09635417 L1.37168142,2.09635417 L1.37168142,2.23307292 L1.19469027,2.23307292 L1.19469027,2.09635417 Z M1.19469027,0.308836583 L1.37168142,0.308836583 L1.37168142,0.445555333 L1.19469027,0.445555333 L1.19469027,0.308836583 Z M1.63716814,2.09635417 L1.81415929,2.09635417 L1.81415929,2.23307292 L1.63716814,2.23307292 L1.63716814,2.09635417 Z M1.63716814,0.308836583 L1.81415929,0.308836583 L1.81415929,0.445555333 L1.63716814,0.445555333 L1.63716814,0.308836583 Z M2.07964602,2.09635417 L2.25663717,2.09635417 L2.25663717,2.23307292 L2.07964602,2.23307292 L2.07964602,2.09635417 Z M2.07964602,0.308836583 L2.25663717,0.308836583 L2.25663717,0.445555333 L2.07964602,0.445555333 L2.07964602,0.308836583 Z"/>
                <path fill="#E8AA00" fill-rule="nonzero" d="M1.4159292,0.2734375 L1.59609502,0.2734375 L1.59609502,0.41015625 L1.4159292,0.41015625 L1.4159292,0.2734375 Z M1.4159292,2.09635417 L1.59609502,2.09635417 L1.59609502,2.23307292 L1.4159292,2.23307292 L1.4159292,2.09635417 Z M1.86634374,0.2734375 L2.04650956,0.2734375 L2.04650956,0.41015625 L1.86634374,0.41015625 L1.86634374,0.2734375 Z M1.86634374,2.09635417 L2.04650956,2.09635417 L2.04650956,2.23307292 L1.86634374,2.23307292 L1.86634374,2.09635417 Z"/>
                <path fill="#750100" d="M0.571073996,0.151201872 L2.93359338,0.151201872 L2.93359338,0.516280725 L3.27187424,0.516280725 L3.27187424,2.02553675 L2.93359338,2.02553675 L2.93359338,2.33752227 L0.571073996,2.33752227 L0.571073996,2.02553675 L0.203740453,2.02553675 L0.203740453,0.516280725 L0.571073996,0.516280725 L0.571073996,0.151201872 Z M0.703817359,0.652999475 L0.336483816,0.652999475 L0.336483816,1.888818 L0.703817359,1.888818 L0.703817359,2.20080352 L2.80085002,2.20080352 L2.80085002,1.888818 L3.13913088,1.888818 L3.13913088,0.652999475 L2.80085002,0.652999475 L2.80085002,0.287920622 L0.703817359,0.287920622 L0.703817359,0.652999475 Z"/>
                <path fill="#389F5D" d="M1.28318584,0 L1.50442478,0 L1.50442478,0.227864583 L1.28318584,0.227864583 L1.28318584,0 Z M1.63716814,0 L1.85840708,0 L1.85840708,0.227864583 L1.63716814,0.227864583 L1.63716814,0 Z M1.99115044,0 L2.21238938,0 L2.21238938,0.227864583 L1.99115044,0.227864583 L1.99115044,0 Z M1.28318584,2.27864583 L1.50442478,2.27864583 L1.50442478,2.50651042 L1.28318584,2.50651042 L1.28318584,2.27864583 Z M1.63716814,2.27864583 L1.85840708,2.27864583 L1.85840708,2.50651042 L1.63716814,2.50651042 L1.63716814,2.27864583 Z M1.99115044,2.27864583 L2.21238938,2.27864583 L2.21238938,2.50651042 L1.99115044,2.50651042 L1.99115044,2.27864583 Z M-0.00331282264,1.77403093 L-0.00331282264,1.55279199 L0.224551761,1.55279199 L0.224551761,1.77403093 L-0.00331282264,1.77403093 Z M-0.00331282264,1.40944759 L-0.00331282264,1.18820866 L0.224551761,1.18820866 L0.224551761,1.40944759 L-0.00331282264,1.40944759 Z M-0.00331282264,1.04486426 L-0.00331282264,0.823625323 L0.224551761,0.823625323 L0.224551761,1.04486426 L-0.00331282264,1.04486426 Z M3.18252789,1.77403093 L3.18252789,1.55279199 L3.41039247,1.55279199 L3.41039247,1.77403093 L3.18252789,1.77403093 Z M3.18252789,1.40944759 L3.18252789,1.18820866 L3.41039247,1.18820866 L3.41039247,1.40944759 L3.18252789,1.40944759 Z M3.18252789,1.04486426 L3.18252789,0.823625323 L3.41039247,0.823625323 L3.41039247,1.04486426 L3.18252789,1.04486426 Z"/>
                <polygon fill="#C51918" points="1.111 .428 .73 .76 .73 1.834 1.047 2.058 2.419 2.058 2.736 1.834 2.736 .76 2.379 .428"/>
                <polygon fill="#E1E5E8" points="1.752 .873 1.292 1.266 1.752 1.266"/>
                <polygon fill="#E8AA00" fill-rule="nonzero" points="1.752 1.238 1.292 1.631 1.752 1.631" transform="matrix(1 0 0 -1 0 2.86)"/>
                <polygon fill="#E8AA00" points="2.195 .873 1.734 1.266 2.195 1.266" transform="matrix(-1 0 0 1 3.906 0)"/>
                <circle cx="1.732" cy="1.233" r="1" fill="#29AE66"/>
                <polygon fill="#E1E5E8" fill-rule="nonzero" points="2.195 1.238 1.734 1.631 2.195 1.631" transform="rotate(180 1.953 1.43)"/>
                <path fill="#C51918" d="M0.353982301,1.09375 L0.752212389,1.09375 L0.752212389,1.22125 L0.353982301,1.22125 L0.353982301,1.09375 Z M0.353982301,1.32617187 L0.752212389,1.32617187 L0.752212389,1.45367187 L0.353982301,1.45367187 L0.353982301,1.32617187 Z M2.74336283,1.09375 L3.14159292,1.09375 L3.14159292,1.22125 L2.74336283,1.22125 L2.74336283,1.09375 Z M2.74336283,1.32617187 L3.14159292,1.32617187 L3.14159292,1.45367187 L2.74336283,1.45367187 L2.74336283,1.32617187 Z"/>
                <path fill="#E8AA00" fill-rule="nonzero" d="M0.353982301,0.95703125 L0.707964602,0.95703125 L0.707964602,1.09648437 L0.353982301,1.09648437 L0.353982301,0.95703125 Z M0.353982301,1.18945312 L0.707964602,1.18945312 L0.707964602,1.32890624 L0.353982301,1.32890624 L0.353982301,1.18945312 Z M0.353982301,1.42187499 L0.707964602,1.42187499 L0.707964602,1.56132811 L0.353982301,1.56132811 L0.353982301,1.42187499 Z M2.74336283,0.95703125 L3.09734513,0.95703125 L3.09734513,1.09648437 L2.74336283,1.09648437 L2.74336283,0.95703125 Z M2.74336283,1.18945312 L3.09734513,1.18945312 L3.09734513,1.32890624 L2.74336283,1.32890624 L2.74336283,1.18945312 Z M2.74336283,1.42187499 L3.09734513,1.42187499 L3.09734513,1.56132811 L2.74336283,1.56132811 L2.74336283,1.42187499 Z"/>
              </g>
            </g>
            <g mask="url(#h)">
              <g transform="translate(1.25 1.25)">
                <path fill="#E8AA00" fill-rule="nonzero" d="M1.85915418,1.22739252 L1.86047608,0.0773925244 C2.17957854,0.0773925244 2.37287071,0.0773925244 2.44035259,0.0773925244 C2.50783448,0.0773925244 2.63408759,0.14218305 2.81911193,0.271764103 L3.28995682,0.271764103 L3.50732343,0.49382939 L3.50732343,0.716959179 L3.74061547,0.993962796 L3.7392708,1.24719806 L1.88994335,1.24719806 L1.88862145,2.39719806 C1.56951899,2.39719806 1.37622682,2.39719806 1.30874493,2.39719806 C1.24126305,2.39719806 1.11500994,2.33240753 0.929985597,2.20282648 L0.459140709,2.20282648 L0.241774096,1.98076119 L0.241774096,1.7576314 L0.00848206225,1.48062779 L0.00982673162,1.22739252 L1.85915418,1.22739252 Z"/>
                <path fill="#E1E5E8" d="M1.85915418,1.22739252 L1.86047608,0.0773925244 C2.17957854,0.0773925244 2.37287071,0.0773925244 2.44035259,0.0773925244 C2.50783448,0.0773925244 2.63408759,0.14218305 2.81911193,0.271764103 L3.28995682,0.271764103 L3.50732343,0.49382939 L3.50732343,0.716959179 L3.74061547,0.993962796 L3.7392708,1.24719806 L1.88994335,1.24719806 L1.88862145,2.39719806 C1.56951899,2.39719806 1.37622682,2.39719806 1.30874493,2.39719806 C1.24126305,2.39719806 1.11500994,2.33240753 0.929985597,2.20282648 L0.459140709,2.20282648 L0.241774096,1.98076119 L0.241774096,1.7576314 L0.00848206225,1.48062779 L0.00982673162,1.22739252 L1.85915418,1.22739252 Z" transform="matrix(-1 0 0 1 3.75 0)"/>
                <path fill="#C51918" d="M2.22822974,0.44598895 L2.20478005,0.442170562 C2.18760118,0.47457591 2.16795303,0.520940423 2.14696835,0.580433918 L2.05355719,0.55293109 L2.09137963,0.371753157 L1.88025841,0.173739589 L1.73234849,0.312466381 C1.75075504,0.329147379 1.76909965,0.348295576 1.7874737,0.369958393 C1.77178047,0.375928854 1.75677859,0.381197999 1.74245931,0.385768366 L1.73612604,0.387278959 L1.76026942,0.50293109 L1.66685826,0.530433918 C1.65466592,0.495867526 1.64292476,0.465733139 1.63185695,0.440193583 L1.62415616,0.441327539 C1.6064372,0.423961573 1.58989966,0.41068443 1.5746965,0.401576033 L1.60113842,0.377936484 C1.59680041,0.370519024 1.59264817,0.364090363 1.58870277,0.358665935 L1.25136237,0.4283496 L1.23111154,0.330540842 L1.63002559,0.238808215 C1.67791421,0.215684198 1.76102369,0.149807739 1.87549608,0.0427597045 L1.92912602,0.103119207 L1.93833052,0.0927597045 C2.05280291,0.199807739 2.1359124,0.265684198 2.18380101,0.288808215 L2.58271506,0.380540842 L2.56246423,0.4783496 L2.34123693,0.432651162 L2.36240527,0.451576033 C2.34720211,0.46068443 2.33066456,0.473961573 2.31294561,0.491327539 L2.2195463,0.477574333 L2.22822974,0.44598895 Z M2.76829724,0.568019961 L2.73765755,0.525175167 L2.81617093,0.46599325 L2.84997149,0.513258014 L2.95930765,0.439948976 L3.0125672,0.523675429 L2.90770281,0.593986181 L2.92930137,0.624188363 L2.85078798,0.68337028 L2.82602856,0.648748128 L2.54604793,0.836472956 L2.49278838,0.752746503 L2.76829724,0.568019961 Z M3.10920633,0.668019961 L3.07856664,0.625175167 L3.15708002,0.56599325 L3.19088058,0.613258014 L3.30021674,0.539948976 L3.35347629,0.623675429 L3.2486119,0.693986181 L3.27021046,0.724188363 L3.19169707,0.78337028 L3.16693765,0.748748128 L2.88695702,0.936472956 L2.83369747,0.852746503 L3.10920633,0.668019961 Z M3.25531023,0.968019961 L3.22467053,0.925175167 L3.30318392,0.86599325 L3.33698448,0.913258014 L3.44632063,0.839948976 L3.49958018,0.923675429 L3.3947158,0.993986181 L3.41631435,1.02418836 L3.33780097,1.08337028 L3.31304155,1.04874813 L3.03306092,1.23647296 L2.97980137,1.1527465 L3.25531023,0.968019961 Z M0.987798041,0.598748128 L0.963038621,0.63337028 L0.884525235,0.574188363 L0.906123791,0.543986181 L0.801259407,0.473675429 L0.854518957,0.389948976 L0.963855111,0.463258014 L0.997655671,0.41599325 L1.07616906,0.475175167 L1.04552936,0.518019961 L1.32103822,0.702746503 L1.26777867,0.786472956 L0.987798041,0.598748128 Z M0.64688895,0.698748128 L0.62212953,0.73337028 L0.543616145,0.674188363 L0.565214701,0.643986181 L0.460350316,0.573675429 L0.513609866,0.489948976 L0.62294602,0.563258014 L0.65674658,0.51599325 L0.735259966,0.575175167 L0.70462027,0.618019961 L0.980129131,0.802746503 L0.92686958,0.886472956 L0.64688895,0.698748128 Z M0.500785054,0.998748128 L0.476025634,1.03337028 L0.397512248,0.974188363 L0.419110804,0.943986181 L0.31424642,0.873675429 L0.36750597,0.789948976 L0.476842124,0.863258014 L0.510642684,0.81599325 L0.58915607,0.875175167 L0.558516374,0.918019961 L0.834025235,1.1027465 L0.780765684,1.18647296 L0.500785054,0.998748128 Z M2.25492162,2.26287069 L2.24872003,2.26841502 L2.25433921,2.2874752 L2.19873256,2.32440595 C2.18172459,2.31410593 2.16485187,2.30179845 2.14804515,2.28744757 L2.13509971,2.29042445 C2.0872111,2.31354846 2.00410161,2.37942492 1.88962922,2.48647296 L1.858212,2.45111345 L1.82679478,2.48647296 C1.74435638,2.40938127 1.67818371,2.3536424 1.62971773,2.3198468 C1.627282,2.32140794 1.62484369,2.32292762 1.62240259,2.32440595 L1.56679594,2.2874752 L1.18241025,2.19869182 L1.20266107,2.10088306 L1.54000147,2.17056673 C1.56117938,2.14144975 1.58831689,2.08339806 1.61815696,1.99879874 L1.71156812,2.02630157 L1.67521684,2.20043226 L1.69375801,2.20485464 C1.70807729,2.20942501 1.72307917,2.21469415 1.7387724,2.22066462 C1.73103352,2.22978867 1.72329987,2.23846665 1.71556461,2.24670207 L1.858212,2.38049307 L2.04267833,2.2074795 L2.00485589,2.02630157 L2.09826705,1.99879874 C2.12810711,2.08339806 2.15524463,2.14144975 2.17642253,2.17056673 L2.51376293,2.10088306 L2.53401376,2.19869182 L2.25492162,2.26287069 Z M2.77732726,1.93048453 L2.80208668,1.89586238 L2.88060007,1.9550443 L2.85900151,1.98524648 L2.9638659,2.05555723 L2.91060635,2.13928368 L2.80127019,2.06597465 L2.76746963,2.11323941 L2.68895625,2.05405749 L2.71959594,2.0112127 L2.44408708,1.82648616 L2.49734663,1.7427597 L2.77732726,1.93048453 Z M3.11823635,1.83048453 L3.14299577,1.79586238 L3.22150916,1.8550443 L3.1999106,1.88524648 L3.30477499,1.95555723 L3.25151544,2.03928368 L3.14217928,1.96597465 L3.10837872,2.01323941 L3.02986534,1.95405749 L3.06050503,1.9112127 L2.78499617,1.72648616 L2.83825572,1.6427597 L3.11823635,1.83048453 Z M3.26434025,1.53048453 L3.28909967,1.49586238 L3.36761306,1.5550443 L3.3460145,1.58524648 L3.45087888,1.65555723 L3.39761933,1.73928368 L3.28828318,1.66597465 L3.25448262,1.71323941 L3.17596923,1.65405749 L3.20660893,1.6112127 L2.93110007,1.42648616 L2.98435962,1.3427597 L3.26434025,1.53048453 Z M0.996828062,2.0112127 L1.02746776,2.05405749 L0.948954372,2.11323941 L0.915153813,2.06597465 L0.805817658,2.13928368 L0.752558108,2.05555723 L0.857422493,1.98524648 L0.835823937,1.9550443 L0.914337323,1.89586238 L0.939096742,1.93048453 L1.21907737,1.7427597 L1.27233692,1.82648616 L0.996828062,2.0112127 Z M0.655918971,1.9112127 L0.686558667,1.95405749 L0.608045282,2.01323941 L0.574244722,1.96597465 L0.464908568,2.03928368 L0.411649017,1.95555723 L0.516513402,1.88524648 L0.494914846,1.8550443 L0.573428232,1.79586238 L0.598187651,1.83048453 L0.878168282,1.6427597 L0.931427832,1.72648616 L0.655918971,1.9112127 Z M0.509815075,1.6112127 L0.540454771,1.65405749 L0.461941385,1.71323941 L0.428140826,1.66597465 L0.318804671,1.73928368 L0.265545121,1.65555723 L0.370409506,1.58524648 L0.34881095,1.5550443 L0.427324335,1.49586238 L0.452083755,1.53048453 L0.732064386,1.3427597 L0.785323936,1.42648616 L0.509815075,1.6112127 Z"/>
                <path fill="#C51918" d="M1.9041861,1.26079339 L0.540549737,1.26079339 L0.865477253,1.02677437 L0.865477253,0.720597652 L1.37975,0.720597652 L1.93133635,0.428092153 L1.93133635,1.22809215 L3.29497271,1.22809215 L2.9700452,1.46211117 L2.9700452,1.76828789 L2.45577246,1.76828789 L1.9041861,2.06079339 L1.9041861,1.26079339 Z"/>
                <path fill="#29AE66" fill-rule="nonzero" d="M1.9041861,1.26079339 L0.540549737,1.26079339 L0.865477253,1.02677437 L0.865477253,0.720597652 L1.37975,0.720597652 L1.93133635,0.428092153 L1.93133635,1.22809215 L3.29497271,1.22809215 L2.9700452,1.46211117 L2.9700452,1.76828789 L2.45577246,1.76828789 L1.9041861,2.06079339 L1.9041861,1.26079339 Z" transform="matrix(-1 0 0 1 3.836 0)"/>
                <path fill="#29AE66" fill-rule="nonzero" d="M2.17106374,1.4944923 L1.49337327,1.13202443 L1.43780716,1.214696 L1.27747095,1.10110489 L1.31927595,1.03890717 L1.11180303,0.927938713 L1.20180817,0.750565476 L1.43076913,0.873026975 L1.49384931,0.779175925 L1.65418553,0.89276703 L1.60486645,0.966144238 L2.28255692,1.3286121 L2.32433655,1.26645213 L2.48467277,1.38004324 L2.45665423,1.42172937 L2.52985949,1.46088375 L2.43985435,1.63825699 L2.34516105,1.58760956 L2.2682944,1.7019722 L2.10795819,1.5883811 L2.17106374,1.4944923 Z"/>
                <path fill="#C51918" d="M2.21976504,1.4944923 L1.54207456,1.13202443 L1.48650846,1.214696 L1.32617225,1.10110489 L1.36797725,1.03890717 L1.16050433,0.927938713 L1.25050947,0.750565476 L1.47947043,0.873026975 L1.54255061,0.779175925 L1.70288682,0.89276703 L1.65356775,0.966144238 L2.33125822,1.3286121 L2.37303785,1.26645213 L2.53337406,1.38004324 L2.50535553,1.42172937 L2.57856079,1.46088375 L2.48855565,1.63825699 L2.39386235,1.58760956 L2.3169957,1.7019722 L2.15665949,1.5883811 L2.21976504,1.4944923 Z" transform="scale(-1 1) rotate(4 0 -52.31)"/>
              </g>
            </g>
          </g>
        </g>
        <g fill="#F7FCFF" mask="url(#f)">
          <g transform="translate(7.5 1.25)">
            <path d="M4.42085997,0 C5.39177506,2.30066659 5.4459277,3.93952475 4.58331791,4.91657446 C3.72070811,5.89362417 2.19293548,6.28796134 0,6.09958597 C2.81516663,7.37110961 4.83603025,7.13146874 6.06259084,5.38066336 C7.28915144,3.62985798 6.74190782,1.83630353 4.42085997,0 Z"/>
            <path d="M1.77767447,2.0302948 L1.39233262,2.30152711 L1.52827599,1.84700959 L1.15417826,1.56012286 L1.62353773,1.5504479 L1.77767447,1.10190984 L1.93181121,1.5504479 L2.40117068,1.56012286 L2.02707296,1.84700959 L2.16301632,2.30152711 L1.77767447,2.0302948 Z M1.85221626,3.28362854 L1.46687441,3.55486084 L1.60281777,3.10034333 L1.22872005,2.8134566 L1.69807952,2.80378163 L1.85221626,2.35524357 L2.006353,2.80378163 L2.47571247,2.8134566 L2.10161474,3.10034333 L2.23755811,3.55486084 L1.85221626,3.28362854 Z M0.680769967,3.38042804 L0.295428117,3.65166035 L0.431371482,3.19714283 L0.057273756,2.9102561 L0.526633227,2.90058113 L0.680769967,2.45204308 L0.834906707,2.90058113 L1.30426618,2.9102561 L0.930168451,3.19714283 L1.06611182,3.65166035 L0.680769967,3.38042804 Z M1.85221626,4.59829534 L1.46687441,4.86952764 L1.60281777,4.41501013 L1.22872005,4.1281234 L1.69807952,4.11844843 L1.85221626,3.66991037 L2.006353,4.11844843 L2.47571247,4.1281234 L2.10161474,4.41501013 L2.23755811,4.86952764 L1.85221626,4.59829534 Z M3.12571796,2.90058113 L2.74037611,3.17181344 L2.87631947,2.71729592 L2.50222175,2.43040919 L2.97158122,2.42073423 L3.12571796,1.97219617 L3.2798547,2.42073423 L3.74921417,2.43040919 L3.37511644,2.71729592 L3.51105981,3.17181344 L3.12571796,2.90058113 Z"/>
          </g>
        </g>
      </g>
    </g>
  </g>
</svg>
