<svg width="20" height="15" viewBox="0 0 20 15" fill="none" xmlns="http://www.w3.org/2000/svg">
<g clip-path="url(#clip0_270_60958)">
<rect width="20" height="15" fill="white"/>
<path fill-rule="evenodd" clip-rule="evenodd" d="M0 0V15H20V0H0Z" fill="#00B4FF"/>
<g clip-path="url(#clip1_270_60958)">
<rect width="11" height="9" fill="#2E42A5"/>
<path d="M-1.25267 8.12488L1.22292 9.21063L11.3062 1.18046L12.612 -0.432999L9.9647 -0.795888L5.85198 2.66454L2.54167 4.99607L-1.25267 8.12488Z" fill="#F7FCFF"/>
<path d="M-0.913757 8.88561L0.347444 9.51569L12.1431 -0.582886H10.3722L-0.913757 8.88561Z" fill="#F50100"/>
<path d="M12.5027 8.12487L10.3056 9.52057L-0.0561714 1.18044L-1.36199 -0.433015L1.2853 -0.795905L5.39802 2.66453L8.70833 4.99605L12.5027 8.12487Z" fill="#F7FCFF"/>
<path d="M12.4182 8.67082L11.157 9.3009L6.13429 4.97718L4.64517 4.4941L-1.48764 -0.427482H0.283231L6.4126 4.37728L8.04069 4.95655L12.4182 8.67082Z" fill="#F50100"/>
<path fill-rule="evenodd" clip-rule="evenodd" d="M6 0H5V4H0V5H5V9H6V5H11V4H6V0Z" fill="#F50100"/>
<path fill-rule="evenodd" clip-rule="evenodd" d="M4.0625 0H6.9375V3.0625L11 3V5.875L6.9375 5.9375V9H4.0625V5.9375L0 5.875V3L4.0625 3.0625V0ZM5 4H0V5H5V9H6V5H11V4H6V0H5V4Z" fill="#F7FCFF"/>
</g>
<path fill-rule="evenodd" clip-rule="evenodd" d="M16.7854 6.67806L17.1649 5.97466L17.9975 5.94978L17.3529 5.41142L17.5751 4.68479L17.0194 5.01869L16.3169 4.59265L16.3849 5.39994L15.7555 5.77814L16.5726 5.88028L16.7854 6.67806ZM14.6649 7.22466L14.2854 7.92806L14.0726 7.13028L13.2555 7.02814L13.8849 6.64994L13.8169 5.84265L14.5194 6.26869L15.0751 5.93479L14.8529 6.66142L15.4975 7.19978L14.6649 7.22466ZM13.0354 9.17806L13.4149 8.47466L14.2475 8.44978L13.6029 7.91142L13.8251 7.18479L13.2694 7.51869L12.5669 7.09265L12.6349 7.89994L12.0055 8.27814L12.8226 8.38028L13.0354 9.17806ZM10.5354 11.6781L10.9149 10.9747L11.7475 10.9498L11.1029 10.4114L11.3251 9.68479L10.7694 10.0187L10.0669 9.59265L10.1349 10.3999L9.5055 10.7781L10.3226 10.8803L10.5354 11.6781ZM8.10884 13.5848L7.42127 13.9923L7.64969 13.1988L7.00192 12.6904H7.73624L8.09372 11.9634L8.47648 12.6904H9.12477L8.56003 13.1988L8.8353 13.9923L8.10884 13.5848ZM10.9149 13.4747L10.5354 14.1781L10.3226 13.3803L9.5055 13.2781L10.1349 12.8999L10.0669 12.0927L10.7694 12.5187L11.3251 12.1848L11.1029 12.9114L11.7475 13.4498L10.9149 13.4747ZM13.4149 12.2247L13.0354 12.9281L12.8226 12.1303L12.0055 12.0281L12.6349 11.6499L12.5669 10.8427L13.2694 11.2687L13.8251 10.9348L13.6029 11.6614L14.2475 12.1998L13.4149 12.2247ZM15.9149 10.9747L15.5354 11.6781L15.3226 10.8803L14.5055 10.7781L15.1349 10.3999L15.0669 9.59265L15.7694 10.0187L16.3251 9.68479L16.1029 10.4114L16.7475 10.9498L15.9149 10.9747ZM16.7854 10.4281L17.1649 9.72466L17.9975 9.69978L17.3529 9.16142L17.5751 8.43479L17.0194 8.76869L16.3169 8.34265L16.3849 9.14994L15.7555 9.52814L16.5726 9.63028L16.7854 10.4281Z" fill="#FFD018"/>
</g>
<defs>
<clipPath id="clip0_270_60958">
<rect width="20" height="15" fill="white"/>
</clipPath>
<clipPath id="clip1_270_60958">
<rect width="11" height="9" fill="white"/>
</clipPath>
</defs>
</svg>
