<svg xmlns="http://www.w3.org/2000/svg" xmlns:xlink="http://www.w3.org/1999/xlink" width="20" height="15" viewBox="0 0 20 15">
  <defs>
    <rect id="union-of-south-american-nations-a" width="20" height="15" x="0" y="0"/>
  </defs>
  <g fill="none" fill-rule="evenodd">
    <mask id="union-of-south-american-nations-b" fill="#fff">
      <use xlink:href="#union-of-south-american-nations-a"/>
    </mask>
    <g fill="#2E42A5" mask="url(#union-of-south-american-nations-b)">
      <rect width="20" height="15"/>
    </g>
    <path fill="#F7FCFF" d="M0.877265,1.74674991 C0.671254995,1.58663112 0.902947468,1.27473793 1.11573822,1.4257288 C1.25529012,1.52475125 1.52443357,1.7004666 1.90895469,1.92733482 C2.55173281,2.3065752 3.28161399,2.68604952 4.08430981,3.04026272 C6.49878246,4.10571997 9.04044613,4.71970905 11.5857,4.65271135 C11.926931,4.65410549 12.4216006,4.60921962 12.9070999,4.47435451 C12.9619011,4.45913147 13.0153657,4.4429693 13.0673972,4.42585316 C12.9908655,4.23649851 12.8729674,4.02743759 12.7109411,3.79862181 C12.5815199,3.61585134 12.8043802,3.39100654 12.9882908,3.51880241 C13.1281049,3.61595649 13.3316956,3.78507048 13.5359748,4.01022903 C13.5772403,4.05571228 13.6168373,4.10188102 13.654587,4.14870869 C14.303854,3.70832091 14.3460201,3.00473187 13.54243,1.86987508 C13.4130096,1.68710328 13.6358728,1.46225967 13.8197824,1.59005807 C13.8647046,1.62127445 13.9400085,1.677985 14.0356903,1.75746563 C14.1941848,1.88912341 14.3525947,2.03791793 14.5009504,2.20144084 C15.1740146,2.9433162 15.4300759,3.73200397 14.9797353,4.48331 C14.9368271,4.55489416 14.8876202,4.6252489 14.8362388,4.6889356 C14.7467563,4.80828711 14.5681173,4.97508212 14.2888578,5.13805341 C14.2291148,5.17291847 14.1666998,5.20616759 14.1015811,5.23761259 C14.1009011,5.51876879 14.0036367,5.7897519 13.8046044,6.03703727 C13.7304407,6.13593812 13.5846326,6.27205886 13.3579083,6.4043564 C13.1948244,6.49951869 13.0101067,6.57843973 12.8031317,6.63653058 C12.7978732,6.86569489 12.71619,7.08664641 12.5542702,7.28780676 C12.4910877,7.37205387 12.3688118,7.48619498 12.1797401,7.59651313 C11.9134583,7.75188129 11.5858363,7.85218634 11.2038057,7.87444333 C11.1772545,7.98728443 11.1239365,8.09516894 11.0442405,8.19413859 C10.9970845,8.25702391 10.9091433,8.33911974 10.7749967,8.41739124 C10.5670781,8.53870701 10.3068266,8.61170889 10.0060318,8.61447316 C9.99198898,8.61550994 9.99198898,8.61550994 9.93730052,8.61807524 C9.53633102,8.63393816 8.99980131,8.6037573 8.3758816,8.49032636 C7.43173886,8.31867767 6.49826064,7.98870956 5.62474909,7.46248136 C5.36751985,7.30751916 5.11822245,7.13686301 4.87769437,6.94990948 C4.67168745,6.78978797 4.90338294,6.47789891 5.11617162,6.6288914 C5.17369907,6.66971224 5.28683204,6.74357479 5.44939506,6.83948943 C5.72224298,7.00047382 6.03232324,7.16169216 6.37338583,7.31219976 C7.39788292,7.76430036 8.4753745,8.0245979 9.55555125,7.99623509 C9.69241878,7.99678817 9.89583234,7.9783262 10.0926172,7.92366447 C10.139985,7.91050692 10.1838732,7.89591693 10.2241279,7.87996831 C8.04855207,7.79396983 5.61960021,7.09578502 3.43926578,5.4011133 C3.2332579,5.24099303 3.46495149,4.92910259 3.67774108,5.08009376 C3.76630422,5.14293637 3.93846703,5.25533699 4.18501255,5.40080056 C4.59783131,5.64436652 5.06675197,5.88816642 5.58248303,6.11575016 C7.13290013,6.79992404 8.76438466,7.19404764 10.3988948,7.15106995 C10.4037164,7.1510894 10.4085607,7.15108506 10.4136203,7.15105581 C10.3828503,7.09663788 10.3461932,7.03920526 10.3034129,6.97879107 C10.2304579,6.87576434 10.2694419,6.75936744 10.3502891,6.70030146 C9.94640034,6.66182194 9.50996171,6.6027863 9.04698009,6.51860885 C7.32416305,6.20537319 5.62111807,5.6033389 4.02819853,4.64365978 C3.55944406,4.36125137 3.10516244,4.05026773 2.66686146,3.70960076 C2.46085277,3.54948166 2.69254447,3.23759001 2.90533491,3.38857986 C3.01519092,3.46653046 3.22785217,3.60536996 3.53201446,3.78482635 C4.0408611,4.08504694 4.61875358,4.38550147 5.25431317,4.66596283 C7.16554423,5.50935579 9.17708597,5.99529058 11.1918658,5.94227768 C11.1916776,5.94227642 11.1916776,5.94227642 11.1922921,5.94227948 C11.3619071,5.94297238 11.5970855,5.92762971 11.8535278,5.88446069 C11.8078216,5.7864847 11.748959,5.68211804 11.676369,5.57137933 C8.16981586,5.48471399 4.30539775,4.41122473 0.877265,1.74674991 Z M10.8931936,6.97900912 C10.9272446,7.01654025 10.9593152,7.05489189 10.9891273,7.09406117 C11.3474622,7.02900114 11.6293695,6.91601022 11.7980998,6.75489755 C11.4527782,6.76489064 11.0551688,6.75645501 10.6140215,6.72291089 C10.691772,6.78071485 10.7922223,6.86771794 10.8931936,6.97900912 Z M12.376673,5.96725928 C12.7649188,5.84591559 13.1372438,5.64050175 13.2956043,5.29281299 C12.9612036,5.5 12.5379617,5.5 11.9041475,5.5 C11.9986551,5.57088489 12.1739764,5.66768122 12.376673,5.96725928 Z M2.80229918,1.15791076 C2.59628997,0.997789914 2.82798646,0.685898153 3.04077579,0.836892132 C3.13924628,0.90676618 3.33025281,1.03147186 3.60360741,1.19275624 C4.06110797,1.46269023 4.58073384,1.73285816 5.15222253,1.98505204 C6.87050594,2.74331828 8.67881566,3.18017106 10.4902525,3.13253692 C10.7290604,3.13350854 11.0778953,3.1018509 11.4188432,3.00713369 C12.3195403,2.75691503 12.5648343,2.25522945 11.8415514,1.23386766 C11.7121225,1.05109849 11.9349836,0.826245365 12.1188972,0.954042918 C12.2459134,1.0423037 12.430307,1.19547206 12.615389,1.39947384 C13.1114048,1.94619428 13.3022604,2.53419884 12.9640974,3.09811986 C12.9321159,3.15145234 12.8955103,3.20378406 12.8584311,3.24969893 C12.7901484,3.34077243 12.656936,3.46515048 12.4503566,3.58570477 C12.1246178,3.77579736 11.7147322,3.89078198 11.2296596,3.89547425 C11.2085973,3.89703849 11.1729079,3.89910185 11.1202109,3.90118631 C10.4633127,3.92717025 9.58160326,3.87756071 8.55537776,3.69096528 C7.00193084,3.4085068 5.46627264,2.86562083 4.02983066,2.00018075 C3.60715371,1.74552267 3.19752275,1.46509863 2.80229918,1.15791076 Z M8.35984519,9.94297682 C8.31518027,10.219179 7.94978063,10.2489831 7.49667581,10.1582073 C7.05049793,10.0687174 6.72476031,9.90264679 6.76745031,9.63902569 C6.81203989,9.36270155 7.17740648,9.33292788 7.6306337,9.42371929 C8.07685882,9.51320988 8.40255418,9.6792383 8.35984519,9.94297682 Z" transform="translate(2 2)"/>
  </g>
</svg>
