<svg width="20" height="15" viewBox="0 0 20 15" fill="none" xmlns="http://www.w3.org/2000/svg">
<g clip-path="url(#clip0_270_60787)">
<rect width="20" height="15" fill="white"/>
<path fill-rule="evenodd" clip-rule="evenodd" d="M0 0H20V15H0V0Z" fill="#E31D1C"/>
<path fill-rule="evenodd" clip-rule="evenodd" d="M0 1.25V2.5H20V1.25H0ZM0 3.75V5H20V3.75H0ZM0 7.5V6.25H20V7.5H0ZM0 8.75V10H20V8.75H0ZM0 12.5V11.25H20V12.5H0ZM0 15V13.75H20V15H0Z" fill="#F7FCFF"/>
<rect width="11.25" height="8.75" fill="#2E42A5"/>
<path fill-rule="evenodd" clip-rule="evenodd" d="M1.30002 2.71725L1.96242 2.25583L2.47624 2.62575H2.18532L2.77365 3.14612L2.57494 3.87575H2.2637L1.96149 3.20563L1.70376 3.87575H0.935318L1.52365 4.39612L1.30002 5.21725L1.96242 4.75583L2.47624 5.12575H2.18532L2.77365 5.64612L2.57494 6.37575H2.2637L1.96149 5.70563L1.70376 6.37575H0.935318L1.52365 6.89612L1.30002 7.71725L1.96242 7.25583L2.60334 7.71725L2.40407 6.89612L2.91878 6.37575H2.68137L3.21242 6.00583L3.72624 6.37575H3.43532L4.02365 6.89612L3.80002 7.71725L4.46242 7.25583L5.10334 7.71725L4.90407 6.89612L5.41878 6.37575H5.18137L5.71242 6.00583L6.22624 6.37575H5.93532L6.52365 6.89612L6.30002 7.71725L6.96242 7.25583L7.60334 7.71725L7.40407 6.89612L7.91878 6.37575H7.68137L8.21242 6.00583L8.72624 6.37575H8.43532L9.02365 6.89612L8.80002 7.71725L9.46242 7.25583L10.1033 7.71725L9.90407 6.89612L10.4188 6.37575H9.7637L9.46149 5.70563L9.20376 6.37575H8.83113L8.65407 5.64612L9.16878 5.12575H8.93137L9.46242 4.75583L10.1033 5.21725L9.90407 4.39612L10.4188 3.87575H9.7637L9.46149 3.20563L9.20376 3.87575H8.83113L8.65407 3.14612L9.16878 2.62575H8.93137L9.46242 2.25583L10.1033 2.71725L9.90407 1.89612L10.4188 1.37575H9.7637L9.46149 0.705627L9.20376 1.37575H8.43532L9.02365 1.89612L8.82494 2.62575H8.5137L8.21149 1.95563L7.95376 2.62575H7.58113L7.40407 1.89612L7.91878 1.37575H7.2637L6.96149 0.705627L6.70376 1.37575H5.93532L6.52365 1.89612L6.32494 2.62575H6.0137L5.71149 1.95563L5.45376 2.62575H5.08113L4.90407 1.89612L5.41878 1.37575H4.7637L4.46149 0.705627L4.20376 1.37575H3.43532L4.02365 1.89612L3.82494 2.62575H3.5137L3.21149 1.95563L2.95376 2.62575H2.58113L2.40407 1.89612L2.91878 1.37575H2.2637L1.96149 0.705627L1.70376 1.37575H0.935318L1.52365 1.89612L1.30002 2.71725ZM8.82494 5.12575L9.02365 4.39612L8.43532 3.87575H8.72624L8.21242 3.50583L7.68137 3.87575H7.91878L7.40407 4.39612L7.58113 5.12575H7.95376L8.21149 4.45563L8.5137 5.12575H8.82494ZM7.47624 5.12575L6.96242 4.75583L6.43137 5.12575H6.66878L6.15407 5.64612L6.33113 6.37575H6.70376L6.96149 5.70563L7.2637 6.37575H7.57494L7.77365 5.64612L7.18532 5.12575H7.47624ZM5.27365 5.64612L5.07494 6.37575H4.7637L4.46149 5.70563L4.20376 6.37575H3.83113L3.65407 5.64612L4.16878 5.12575H3.93137L4.46242 4.75583L4.97624 5.12575H4.68532L5.27365 5.64612ZM5.45376 5.12575H5.08113L4.90407 4.39612L5.41878 3.87575H5.18137L5.71242 3.50583L6.22624 3.87575H5.93532L6.52365 4.39612L6.32494 5.12575H6.0137L5.71149 4.45563L5.45376 5.12575ZM3.82494 5.12575L4.02365 4.39612L3.43532 3.87575H3.72624L3.21242 3.50583L2.68137 3.87575H2.91878L2.40407 4.39612L2.58113 5.12575H2.95376L3.21149 4.45563L3.5137 5.12575H3.82494ZM7.77365 3.14612L7.57494 3.87575H7.2637L6.96149 3.20563L6.70376 3.87575H6.33113L6.15407 3.14612L6.66878 2.62575H6.43137L6.96242 2.25583L7.47624 2.62575H7.18532L7.77365 3.14612ZM4.97624 2.62575L4.46242 2.25583L3.93137 2.62575H4.16878L3.65407 3.14612L3.83113 3.87575H4.20376L4.46149 3.20563L4.7637 3.87575H5.07494L5.27365 3.14612L4.68532 2.62575H4.97624Z" fill="#F7FCFF"/>
</g>
<defs>
<clipPath id="clip0_270_60787">
<rect width="20" height="15" fill="white"/>
</clipPath>
</defs>
</svg>
