<svg xmlns="http://www.w3.org/2000/svg" xmlns:xlink="http://www.w3.org/1999/xlink" width="20" height="15" viewBox="0 0 20 15">
  <defs>
    <rect id="a" width="20" height="15"/>
    <rect id="c" width="20" height="15"/>
    <rect id="e" width="20" height="15"/>
  </defs>
  <g fill="none" fill-rule="evenodd">
    <mask id="b" fill="white">
      <use xlink:href="#a"/>
    </mask>
    <use fill="#FFFFFF" xlink:href="#a"/>
    <g mask="url(#b)">
      <mask id="d" fill="white">
        <use xlink:href="#c"/>
      </mask>
      <g mask="url(#d)">
        <mask id="f" fill="white">
          <use xlink:href="#e"/>
        </mask>
        <use fill="#F7FCFF" xlink:href="#e"/>
        <rect width="20" height="1.25" y="2.5" fill="#2E42A5" mask="url(#f)"/>
        <rect width="20" height="1.25" y="5" fill="#2E42A5" mask="url(#f)"/>
        <rect width="20" height="1.25" y="7.5" fill="#2E42A5" mask="url(#f)"/>
        <rect width="20" height="1.25" y="10" fill="#2E42A5" mask="url(#f)"/>
        <rect width="20" height="1.25" y="12.5" fill="#2E42A5" mask="url(#f)"/>
        <rect width="10" height="8.75" fill="#F7FCFF" mask="url(#f)"/>
        <path fill="#FFD018" stroke="#F19900" stroke-opacity=".98" stroke-width=".5" d="M5.76719542,6.89822635 C5.34140616,7.78102211 4.94139826,8.31291773 4.56717172,8.49391322 C4.72870066,8.08901169 4.83919376,7.47349062 4.89865101,6.64735001 C3.92701963,7.03257435 3.27068772,7.19008228 2.92965528,7.11987378 C3.33973345,6.83331685 3.82937269,6.42465894 4.39857302,5.89390005 C3.14097799,5.48276 2.52760713,5.18970106 2.55846044,5.01472322 C3.12615921,5.11655782 3.80036649,5.11196928 4.58108228,5.00095759 C3.69883381,3.94294244 3.30244481,3.37459588 3.39191528,3.2959179 C3.52639463,3.42663192 4.12229162,3.76813898 5.17960625,4.32043909 C5.25631399,3.37910552 5.40844013,2.74975042 5.63598467,2.43237378 C5.66327883,2.65640515 5.8366133,3.27558072 6.15598807,4.28990048 C6.7980215,3.64749505 7.29721288,3.32629233 7.65356222,3.32629233 C7.4970383,3.52036063 7.2334649,4.04363264 6.86284202,4.89610836 C7.78650917,4.88157241 8.4239124,4.96074295 8.77505172,5.13361995 C8.34968231,5.19412344 7.7643808,5.41144014 7.01914718,5.78557007 C7.98975116,6.52183197 8.43080679,6.96659987 8.34231406,7.11987378 C7.82119328,6.86495004 7.25939521,6.69479979 6.65691983,6.60942302 C6.82344831,7.63403178 6.83940757,8.26219518 6.70479762,8.49391322 C6.57351367,8.15282535 6.26097961,7.62092973 5.76719542,6.89822635 Z" mask="url(#f)"/>
        <path fill="#FFD018" stroke="#F19900" stroke-opacity=".98" stroke-width=".5" d="M5.68346044,6.18237378 C6.02863841,6.18237378 6.30846044,5.90255175 6.30846044,5.55737378 C6.30846044,5.21219581 6.02863841,4.93237378 5.68346044,4.93237378 C5.33828247,4.93237378 5.05846044,5.21219581 5.05846044,5.55737378 C5.05846044,5.90255175 5.33828247,6.18237378 5.68346044,6.18237378 Z" mask="url(#f)"/>
      </g>
    </g>
  </g>
</svg>
