<svg xmlns="http://www.w3.org/2000/svg" xmlns:xlink="http://www.w3.org/1999/xlink" width="20" height="15" viewBox="0 0 20 15">
  <defs>
    <rect id="a" width="20" height="15"/>
    <rect id="c" width="20" height="15"/>
  </defs>
  <g fill="none" fill-rule="evenodd">
    <mask id="b" fill="white">
      <use xlink:href="#a"/>
    </mask>
    <use fill="#FFFFFF" xlink:href="#a"/>
    <g mask="url(#b)">
      <mask id="d" fill="white">
        <use xlink:href="#c"/>
      </mask>
      <g mask="url(#d)">
        <g transform="translate(-1.25 -1.25)">
          <polygon fill="#14DC5A" points="1.25 11.25 21.25 11.25 21.25 16.25 1.25 16.25"/>
          <polygon fill="#0099B5" points="1.25 1.25 21.25 1.25 21.25 7.5 1.25 7.5"/>
          <path fill="#F7FCFF" stroke="#C51918" stroke-width=".938" d="M-0.46875,7.03125 L22.96875,7.03125 L22.96875,11.71875 L-0.46875,11.71875 L-0.46875,7.03125 Z"/>
          <path fill="#F7FCFF" d="M4.36033731,5.97073808 L3.74615794,6.31916526 L3.92157057,5.61102579 L3.33323531,5.09065377 L4.10168108,5.09065377 L4.35941156,4.42053356 L4.66162142,5.09065377 L5.31670031,5.09065377 L4.80198953,5.61102579 L5.04947614,6.31916526 L4.36033731,5.97073808 Z M6.70550713,5.97345641 L6.09132776,6.32188358 L6.26674038,5.61374411 L5.67840513,5.09337209 L6.4468509,5.09337209 L6.70458138,4.42325188 L7.00679123,5.09337209 L7.66187012,5.09337209 L7.14715934,5.61374411 L7.39464596,6.32188358 L6.70550713,5.97345641 Z M6.67013763,4.32362017 L6.05595826,4.67204735 L6.23137088,3.96390787 L5.64303563,3.44353585 L6.41148139,3.44353585 L6.66921188,2.77341565 L6.97142173,3.44353585 L7.62650062,3.44353585 L7.11178984,3.96390787 L7.35927646,4.67204735 L6.67013763,4.32362017 Z M9.20550713,5.97345641 L8.59132776,6.32188358 L8.76674038,5.61374411 L8.17840513,5.09337209 L8.9468509,5.09337209 L9.20458138,4.42325188 L9.50679123,5.09337209 L10.1618701,5.09337209 L9.64715934,5.61374411 L9.89464596,6.32188358 L9.20550713,5.97345641 Z M9.17013763,4.32362017 L8.55595826,4.67204735 L8.73137088,3.96390787 L8.14303563,3.44353585 L8.91148139,3.44353585 L9.16921188,2.77341565 L9.47142173,3.44353585 L10.1265006,3.44353585 L9.61178984,3.96390787 L9.85927646,4.67204735 L9.17013763,4.32362017 Z M9.20459584,2.7505691 L8.59041647,3.09899627 L8.76582909,2.3908568 L8.17749384,1.87048478 L8.94593961,1.87048478 L9.20367009,1.20036457 L9.50587995,1.87048478 L10.1609588,1.87048478 L9.64624805,2.3908568 L9.89373467,3.09899627 L9.20459584,2.7505691 Z M11.7055071,5.97345641 L11.0913278,6.32188358 L11.2667404,5.61374411 L10.6784051,5.09337209 L11.4468509,5.09337209 L11.7045814,4.42325188 L12.0067912,5.09337209 L12.6618701,5.09337209 L12.1471593,5.61374411 L12.394646,6.32188358 L11.7055071,5.97345641 Z M11.6701376,4.32362017 L11.0559583,4.67204735 L11.2313709,3.96390787 L10.6430356,3.44353585 L11.4114814,3.44353585 L11.6692119,2.77341565 L11.9714217,3.44353585 L12.6265006,3.44353585 L12.1117898,3.96390787 L12.3592765,4.67204735 L11.6701376,4.32362017 Z M11.7045958,2.7505691 L11.0904165,3.09899627 L11.2658291,2.3908568 L10.6774938,1.87048478 L11.4459396,1.87048478 L11.7036701,1.20036457 L12.0058799,1.87048478 L12.6609588,1.87048478 L12.1462481,2.3908568 L12.3937347,3.09899627 L11.7045958,2.7505691 Z M14.2055071,5.97345641 L13.5913278,6.32188358 L13.7667404,5.61374411 L13.1784051,5.09337209 L13.9468509,5.09337209 L14.2045814,4.42325188 L14.5067912,5.09337209 L15.1618701,5.09337209 L14.6471593,5.61374411 L14.894646,6.32188358 L14.2055071,5.97345641 Z M14.1701376,4.32362017 L13.5559583,4.67204735 L13.7313709,3.96390787 L13.1430356,3.44353585 L13.9114814,3.44353585 L14.1692119,2.77341565 L14.4714217,3.44353585 L15.1265006,3.44353585 L14.6117898,3.96390787 L14.8592765,4.67204735 L14.1701376,4.32362017 Z M14.2045958,2.7505691 L13.5904165,3.09899627 L13.7658291,2.3908568 L13.1774938,1.87048478 L13.9459396,1.87048478 L14.2036701,1.20036457 L14.5058799,1.87048478 L15.1609588,1.87048478 L14.6462481,2.3908568 L14.8937347,3.09899627 L14.2045958,2.7505691 Z M0.946593294,4.47618817 C0.918160943,5.99086632 2.42806622,6.40038573 2.42806622,6.40038573 C1.84745566,6.62969401 -0.0335564843,6.2727443 0.000455327766,4.46083122 C0.0344671398,2.64891814 1.87689296,2.33229188 2.5,2.56825353 C2.5,2.56825353 0.975025645,2.96151002 0.946593294,4.47618817 Z" transform="translate(2.5)"/>
        </g>
      </g>
    </g>
  </g>
</svg>
