<svg width="20" height="15" viewBox="0 0 20 15" fill="none" xmlns="http://www.w3.org/2000/svg">
<g clip-path="url(#clip0_270_60783)">
<rect width="20" height="15" fill="white"/>
<path fill-rule="evenodd" clip-rule="evenodd" d="M0 0V15H20V0H0Z" fill="#2E42A5"/>
<mask id="mask0_270_60783" style="mask-type:luminance" maskUnits="userSpaceOnUse" x="0" y="0" width="20" height="15">
<path fill-rule="evenodd" clip-rule="evenodd" d="M0 0V15H20V0H0Z" fill="white"/>
</mask>
<g mask="url(#mask0_270_60783)">
<path fill-rule="evenodd" clip-rule="evenodd" d="M0 0V5H20V0H0Z" fill="#FECA00"/>
<path fill-rule="evenodd" clip-rule="evenodd" d="M0 10V15H20V10H0Z" fill="#E31D1C"/>
<path fill-rule="evenodd" clip-rule="evenodd" d="M7.96049 7.41212L8.57467 7.06369L9.26381 7.41212L9.01632 6.70398L9.53103 6.18361H8.87595L8.57374 5.51349L8.31601 6.18361H7.54757L8.12538 6.69467H7.47735L7.17514 6.02455L6.91741 6.69467H6.14897L6.7373 7.21505L6.62485 7.669H6.1345L5.83229 6.99888L5.57456 7.669H4.80611L5.39445 8.18938L5.28564 8.62865H5.07096L4.76875 7.95853L4.51101 8.62865H3.74257L4.3309 9.14903L4.15549 9.85717L4.76967 9.50874L5.45881 9.85717L5.21132 9.14903L5.72603 8.62865H5.69296L5.83322 8.54909L6.52235 8.89752L6.27487 8.18938L6.56982 7.89118L6.56189 7.92318L7.17607 7.57476L7.86521 7.92318L7.61772 7.21505L8.12914 6.698L8.1359 6.70398L7.96049 7.41212Z" fill="#F7FCFF"/>
<path fill-rule="evenodd" clip-rule="evenodd" d="M12.0143 7.38472L11.4001 7.03629L10.711 7.38472L10.9585 6.67658L10.4438 6.1562H11.0989L11.4011 5.48608L11.6588 6.1562H12.4272L11.8494 6.66727H12.5005L12.8027 5.99715L13.0604 6.66727H13.8289L13.2406 7.18764L13.353 7.6416H13.8434L14.1456 6.97148L14.4033 7.6416H15.1717L14.5834 8.16197L14.6922 8.60125H14.9069L15.2091 7.93113L15.4668 8.60125H16.2353L15.647 9.12162L15.8224 9.82976L15.2082 9.48133L14.519 9.82976L14.7665 9.12162L14.2518 8.60125H14.2849L14.1446 8.52168L13.4555 8.87011L13.703 8.16197L13.408 7.86378L13.416 7.89578L12.8018 7.54735L12.1127 7.89578L12.3601 7.18764L11.8473 6.66915L11.8389 6.67658L12.0143 7.38472Z" fill="#F7FCFF"/>
<path fill-rule="evenodd" clip-rule="evenodd" d="M9.89557 6.5842L9.28139 6.93263L9.4568 6.22449L8.86847 5.70412H9.63692L9.89465 5.034L10.1969 5.70412H10.8519L10.3372 6.22449L10.5847 6.93263L9.89557 6.5842Z" fill="#F7FCFF"/>
</g>
</g>
<defs>
<clipPath id="clip0_270_60783">
<rect width="20" height="15" fill="white"/>
</clipPath>
</defs>
</svg>
