<svg xmlns="http://www.w3.org/2000/svg" xmlns:xlink="http://www.w3.org/1999/xlink" width="20" height="15" viewBox="0 0 20 15">
  <defs>
    <rect id="a" width="20" height="15"/>
    <rect id="c" width="20" height="15"/>
    <rect id="e" width="20" height="15"/>
    <rect id="g" width="11.25" height="8.75"/>
  </defs>
  <g fill="none" fill-rule="evenodd">
    <mask id="b" fill="white">
      <use xlink:href="#a"/>
    </mask>
    <use fill="#FFFFFF" xlink:href="#a"/>
    <g mask="url(#b)">
      <mask id="d" fill="white">
        <use xlink:href="#c"/>
      </mask>
      <g mask="url(#d)">
        <mask id="f" fill="white">
          <use xlink:href="#e"/>
        </mask>
        <use fill="#2E42A5" xlink:href="#e"/>
        <g mask="url(#f)">
          <g transform="translate(12 6.25)">
            <path fill="#3B7E05" stroke="#F7FCFF" stroke-width=".5" d="M0.654175243,0.0204318193 L0.654175243,4.10114801 C0.613863732,6.35204454 1.63094038,7.47749281 3.70540519,7.47749281 C5.77987,7.47749281 6.81710241,6.35204454 6.81710241,4.10114801 L6.81710241,0.0204318193 L0.654175243,0.0204318193 Z"/>
            <g transform="translate(.5 .375)">
              <path fill="#FFD018" fill-rule="nonzero" stroke="#FFFFFF" stroke-width=".5" d="M0.157076076,5.81645225 C0.154104754,5.81279705 0.151134471,5.80913589 0.148165228,5.80546878 L0.643899771,5.30777543 C1.41862782,6.26458963 2.23349705,6.73028638 3.09995071,6.73028638 C3.96633364,6.73028638 4.78052695,6.26466642 5.55404463,5.3079728 L5.83621587,5.59085205 L5.84817906,5.57309137 C6.02068837,5.71913081 6.13441914,5.85577949 6.18901848,6.01406525 C6.27795124,6.27188505 6.18295753,6.51962195 5.97449219,6.65069395 C5.92279392,6.68319909 5.8817529,6.70661628 5.84524952,6.7236096 C5.7606443,6.76299564 5.69282003,6.78012843 5.59211841,6.75173332 C5.48961951,6.72283142 5.40345814,6.64393618 5.35888358,6.53539331 C4.65581077,7.15726008 3.90122394,7.47352963 3.09995071,7.47352963 C2.30555599,7.47352963 1.55672904,7.16266799 0.858146256,6.55133314 C0.811474411,6.65807394 0.7243814,6.73469073 0.622010497,6.76163702 C0.520828661,6.78827032 0.453313727,6.76995645 0.369408767,6.72909984 C0.333207521,6.71147203 0.292581443,6.68734215 0.241458339,6.6539397 C0.0353122683,6.51924944 -0.0553433639,6.2698924 0.0380754261,6.01366396 C0.0634855429,5.94396926 0.104287266,5.87930249 0.157076076,5.81645225 Z"/>
              <path fill="#F50100" fill-rule="nonzero" d="M1.2919298,0.563167926 L1.22239595,0.537677731 C1.26399403,0.442543149 1.251693,0.368803006 1.22239595,0.342421978 L1.21934419,0.339673966 L1.21676,0.336384738 C1.16613611,0.271949226 1.19531938,0.176368896 1.26005192,0.0439235966 L1.2919298,0.109317425 C1.24534862,0.204624323 1.27704521,0.247103743 1.2919298,0.27064597 C1.35814882,0.334209906 1.3487514,0.433217246 1.2919298,0.563167926 Z M1.2919298,1.50911387 L1.22239595,1.48362368 C1.26399403,1.3884891 1.251693,1.31474895 1.22239595,1.28836792 L1.21934419,1.28561991 L1.21676,1.28233068 C1.16613611,1.21789517 1.19531938,1.12231484 1.26005192,0.989869543 L1.2919298,1.05526337 C1.24534862,1.15057027 1.27704521,1.19304969 1.2919298,1.21659192 C1.35814882,1.28015585 1.3487514,1.37916319 1.2919298,1.50911387 Z M1.2919298,2.35370847 L1.22239595,2.32821827 C1.26399403,2.23308369 1.251693,2.15934355 1.22239595,2.13296252 L1.21934419,2.13021451 L1.21676,2.12692528 C1.16613611,2.06248977 1.19531938,1.96690944 1.26005192,1.83446414 L1.2919298,1.89985797 C1.24534862,1.99516486 1.27704521,2.03764428 1.2919298,2.06118651 C1.35814882,2.12475045 1.3487514,2.22375779 1.2919298,2.35370847 Z M1.77736669,3.36722198 L1.70783284,3.34173179 C1.74943093,3.2465972 1.7371299,3.17285706 1.70783284,3.14647603 L1.70478108,3.14372802 L1.70219689,3.14043879 C1.651573,3.07600328 1.68075627,2.98042295 1.74548881,2.84797765 L1.77736669,2.91337148 C1.73078551,3.00867838 1.7624821,3.0511578 1.77736669,3.07470002 C1.84358572,3.13826396 1.83418829,3.2372713 1.77736669,3.36722198 Z M1.20091038,4.17803279 L1.13137653,4.1525426 C1.17297462,4.05740801 1.16067359,3.98366787 1.13137653,3.95728684 L1.12832477,3.95453883 L1.12574058,3.9512496 C1.07511669,3.88681409 1.10429996,3.79123376 1.1690325,3.65878846 L1.20091038,3.72418229 C1.1543292,3.81948919 1.18602579,3.86196861 1.20091038,3.88551084 C1.26712941,3.94907477 1.25773198,4.04808211 1.20091038,4.17803279 Z M1.20091038,5.12397874 L1.13137653,5.09848854 C1.17297462,5.00335396 1.16067359,4.92961382 1.13137653,4.90323279 L1.12832477,4.90048478 L1.12574058,4.89719555 C1.07511669,4.83276004 1.10429996,4.73717971 1.1690325,4.60473441 L1.20091038,4.67012824 C1.1543292,4.76543513 1.18602579,4.80791455 1.20091038,4.83145678 C1.26712941,4.89502072 1.25773198,4.99402806 1.20091038,5.12397874 Z M4.20455115,5.12397874 L4.13501731,5.09848854 C4.17661539,5.00335396 4.16431436,4.92961382 4.13501731,4.90323279 L4.13196554,4.90048478 L4.12938136,4.89719555 C4.07875747,4.83276004 4.10794074,4.73717971 4.17267328,4.60473441 L4.20455115,4.67012824 C4.15796998,4.76543513 4.18966657,4.80791455 4.20455115,4.83145678 C4.27077018,4.89502072 4.26137276,4.99402806 4.20455115,5.12397874 Z M4.20455115,4.21181657 L4.13501731,4.18632638 C4.17661539,4.0911918 4.16431436,4.01745166 4.13501731,3.99107063 L4.13196554,3.98832261 L4.12938136,3.98503339 C4.07875747,3.92059787 4.10794074,3.82501754 4.17267328,3.69257225 L4.20455115,3.75796607 C4.15796998,3.85327297 4.18966657,3.89575239 4.20455115,3.91929462 C4.27077018,3.98285855 4.26137276,4.08186589 4.20455115,4.21181657 Z M4.20455115,3.29965441 L4.13501731,3.27416422 C4.17661539,3.17902964 4.16431436,3.10528949 4.13501731,3.07890846 L4.13196554,3.07616045 L4.12938136,3.07287122 C4.07875747,3.00843571 4.10794074,2.91285538 4.17267328,2.78041008 L4.20455115,2.84580391 C4.15796998,2.94111081 4.18966657,2.98359023 4.20455115,3.00713246 C4.27077018,3.07069639 4.26137276,3.16970373 4.20455115,3.29965441 Z M4.17421135,2.42127603 L4.1046775,2.39578584 C4.14627559,2.30065126 4.13397456,2.22691111 4.1046775,2.20053009 L4.10162574,2.19778207 L4.09904155,2.19449285 C4.04841766,2.13005733 4.07760093,2.034477 4.14233347,1.9020317 L4.17421135,1.96742553 C4.12763017,2.06273243 4.15932676,2.10521185 4.17421135,2.12875408 C4.24043038,2.19231801 4.23103295,2.29132535 4.17421135,2.42127603 Z M4.17421135,1.47533009 L4.1046775,1.44983989 C4.14627559,1.35470531 4.13397456,1.28096517 4.1046775,1.25458414 L4.10162574,1.25183613 L4.09904155,1.2485469 C4.04841766,1.18411139 4.07760093,1.08853106 4.14233347,0.956085759 L4.17421135,1.02147959 C4.12763017,1.11678648 4.15932676,1.1592659 4.17421135,1.18280813 C4.24043038,1.24637207 4.23103295,1.34537941 4.17421135,1.47533009 Z M4.17421135,0.59695171 L4.1046775,0.571461515 C4.14627559,0.476326933 4.13397456,0.40258679 4.1046775,0.376205762 L4.10162574,0.37345775 L4.09904155,0.370168521 C4.04841766,0.305733009 4.07760093,0.21015268 4.14233347,0.0777073804 L4.17421135,0.143101209 C4.12763017,0.238408107 4.15932676,0.280887526 4.17421135,0.304429754 C4.24043038,0.36799369 4.23103295,0.46700103 4.17421135,0.59695171 Z"/>
              <path fill="#FFD018" d="M4.52869538,1.07587674 L4.29232057,1.44189644 L4.26768833,1.42217259 L4.50417519,1.05597937 C4.49549206,1.04437582 4.49029126,1.02960127 4.49029126,1.01351351 C4.49029126,0.976196976 4.51827347,0.945945946 4.55279126,0.945945946 C4.58730906,0.945945946 4.61529126,0.976196976 4.61529126,1.01351351 C4.61529126,1.02545825 4.61242423,1.03667906 4.60739354,1.04641555 L4.85895041,1.42193466 L4.83463117,1.44213437 L4.58589949,1.07083264 C4.57629947,1.07732708 4.56495088,1.08108108 4.55279126,1.08108108 C4.54425095,1.08108108 4.53611071,1.07922925 4.52869538,1.07587674 Z M4.51664427,1.37269499 C4.50069667,1.36045158 4.49029126,1.34032326 4.49029126,1.31756757 C4.49029126,1.28025103 4.51827347,1.25 4.55279126,1.25 C4.58730906,1.25 4.61529126,1.28025103 4.61529126,1.31756757 C4.61529126,1.33515532 4.60907542,1.35117358 4.59888909,1.36319492 L4.68013577,1.44396357 L4.86148582,1.44396357 C5.03964167,1.28231582 5.12871959,1.24190388 5.12871959,1.32272776 C5.12871959,1.40355163 5.08612455,1.48636845 5.00093448,1.57117822 C4.94960463,1.60661257 4.9239397,1.60661257 4.9239397,1.57117822 C4.9239397,1.5180267 4.90639301,1.68374616 4.75738745,1.68486183 L4.75738745,1.75895356 L4.32452628,1.75895356 L4.3855158,1.68486183 C4.31421578,1.6355627 4.26464146,1.59766816 4.23679283,1.57117822 C4.14550552,1.55346105 4.08520108,1.51105616 4.05587953,1.44396357 L4.45739814,1.44396357 L4.51664427,1.37269499 Z M4.52869538,2.02182269 L4.29232057,2.38784239 L4.26768833,2.36811854 L4.50417519,2.00192532 C4.49549206,1.99032177 4.49029126,1.97554721 4.49029126,1.95945946 C4.49029126,1.92214292 4.51827347,1.89189189 4.55279126,1.89189189 C4.58730906,1.89189189 4.61529126,1.92214292 4.61529126,1.95945946 C4.61529126,1.9714042 4.61242423,1.98262501 4.60739354,1.99236149 L4.85895041,2.36788061 L4.83463117,2.38808032 L4.58589949,2.01677859 C4.57629947,2.02327303 4.56495088,2.02702703 4.55279126,2.02702703 C4.54425095,2.02702703 4.53611071,2.02517519 4.52869538,2.02182269 Z M4.51664427,2.31864094 C4.50069667,2.30639753 4.49029126,2.2862692 4.49029126,2.26351351 C4.49029126,2.22619698 4.51827347,2.19594595 4.55279126,2.19594595 C4.58730906,2.19594595 4.61529126,2.22619698 4.61529126,2.26351351 C4.61529126,2.28110127 4.60907542,2.29711953 4.59888909,2.30914086 L4.68013577,2.38990952 L4.86148582,2.38990952 C5.03964167,2.22826176 5.12871959,2.18784983 5.12871959,2.2686737 C5.12871959,2.34949758 5.08612455,2.4323144 5.00093448,2.51712417 C4.94960463,2.55255851 4.9239397,2.55255851 4.9239397,2.51712417 C4.9239397,2.46397264 4.90639301,2.62969211 4.75738745,2.63080777 L4.75738745,2.70489951 L4.32452628,2.70489951 L4.3855158,2.63080777 C4.31421578,2.58150864 4.26464146,2.54361411 4.23679283,2.51712417 C4.14550552,2.49940699 4.08520108,2.45700211 4.05587953,2.38990952 L4.45739814,2.38990952 L4.51664427,2.31864094 Z M4.55903518,2.90020107 L4.32266038,3.26622077 L4.29802813,3.24649692 L4.534515,2.88030369 C4.52583187,2.86870014 4.52063107,2.85392559 4.52063107,2.83783784 C4.52063107,2.8005213 4.54861327,2.77027027 4.58313107,2.77027027 C4.61764886,2.77027027 4.64563107,2.8005213 4.64563107,2.83783784 C4.64563107,2.84978257 4.64276404,2.86100339 4.63773335,2.87073987 L4.88929021,3.24625899 L4.86497097,3.2664587 L4.61623929,2.89515696 C4.60663928,2.90165141 4.59529069,2.90540541 4.58313107,2.90540541 C4.57459075,2.90540541 4.56645051,2.90355357 4.55903518,2.90020107 Z M4.54698407,3.19701932 C4.53103648,3.18477591 4.52063107,3.16464758 4.52063107,3.14189189 C4.52063107,3.10457535 4.54861327,3.07432432 4.58313107,3.07432432 C4.61764886,3.07432432 4.64563107,3.10457535 4.64563107,3.14189189 C4.64563107,3.15947965 4.63941522,3.1754979 4.6292289,3.18751924 L4.71047558,3.2682879 L4.89182563,3.2682879 C5.06998148,3.10664014 5.1590594,3.0662282 5.1590594,3.14705208 C5.1590594,3.22787596 5.11646436,3.31069278 5.03127428,3.39550254 C4.97994443,3.43093689 4.95427951,3.43093689 4.95427951,3.39550254 C4.95427951,3.34235102 4.93673282,3.50807048 4.78772726,3.50918615 L4.78772726,3.58327788 L4.35486609,3.58327788 L4.41585561,3.50918615 C4.34455559,3.45988702 4.29498127,3.42199248 4.26713264,3.39550254 C4.17584532,3.37778537 4.11554089,3.33538049 4.08621933,3.2682879 L4.48773795,3.2682879 L4.54698407,3.19701932 Z M4.55903518,3.81236323 L4.32266038,4.17838293 L4.29802813,4.15865908 L4.534515,3.79246586 C4.52583187,3.78086231 4.52063107,3.76608775 4.52063107,3.75 C4.52063107,3.71268346 4.54861327,3.68243243 4.58313107,3.68243243 C4.61764886,3.68243243 4.64563107,3.71268346 4.64563107,3.75 C4.64563107,3.76194474 4.64276404,3.77316555 4.63773335,3.78290203 L4.88929021,4.15842115 L4.86497097,4.17862086 L4.61623929,3.80731913 C4.60663928,3.81381357 4.59529069,3.81756757 4.58313107,3.81756757 C4.57459075,3.81756757 4.56645051,3.81571573 4.55903518,3.81236323 Z M4.54698407,4.10918148 C4.53103648,4.09693807 4.52063107,4.07680974 4.52063107,4.05405405 C4.52063107,4.01673752 4.54861327,3.98648649 4.58313107,3.98648649 C4.61764886,3.98648649 4.64563107,4.01673752 4.64563107,4.05405405 C4.64563107,4.07164181 4.63941522,4.08766007 4.6292289,4.0996814 L4.71047558,4.18045006 L4.89182563,4.18045006 C5.06998148,4.0188023 5.1590594,3.97839037 5.1590594,4.05921424 C5.1590594,4.14003812 5.11646436,4.22285494 5.03127428,4.30766471 C4.97994443,4.34309905 4.95427951,4.34309905 4.95427951,4.30766471 C4.95427951,4.25451318 4.93673282,4.42023265 4.78772726,4.42134831 L4.78772726,4.49544005 L4.35486609,4.49544005 L4.41585561,4.42134831 C4.34455559,4.37204918 4.29498127,4.33415465 4.26713264,4.30766471 C4.17584532,4.28994753 4.11554089,4.24754265 4.08621933,4.18045006 L4.48773795,4.18045006 L4.54698407,4.10918148 Z M4.55903518,4.72452539 L4.32266038,5.09054509 L4.29802813,5.07082124 L4.534515,4.70462802 C4.52583187,4.69302447 4.52063107,4.67824992 4.52063107,4.66216216 C4.52063107,4.62484563 4.54861327,4.59459459 4.58313107,4.59459459 C4.61764886,4.59459459 4.64563107,4.62484563 4.64563107,4.66216216 C4.64563107,4.6741069 4.64276404,4.68532771 4.63773335,4.6950642 L4.88929021,5.07058331 L4.86497097,5.09078302 L4.61623929,4.71948129 C4.60663928,4.72597573 4.59529069,4.72972973 4.58313107,4.72972973 C4.57459075,4.72972973 4.56645051,4.7278779 4.55903518,4.72452539 Z M4.54698407,5.02134364 C4.53103648,5.00910023 4.52063107,4.98897191 4.52063107,4.96621622 C4.52063107,4.92889968 4.54861327,4.89864865 4.58313107,4.89864865 C4.61764886,4.89864865 4.64563107,4.92889968 4.64563107,4.96621622 C4.64563107,4.98380397 4.63941522,4.99982223 4.6292289,5.01184357 L4.71047558,5.09261222 L4.89182563,5.09261222 C5.06998148,4.93096447 5.1590594,4.89055253 5.1590594,4.97137641 C5.1590594,5.05220028 5.11646436,5.1350171 5.03127428,5.21982687 C4.97994443,5.25526122 4.95427951,5.25526122 4.95427951,5.21982687 C4.95427951,5.16667535 4.93673282,5.33239481 4.78772726,5.33351048 L4.78772726,5.40760221 L4.35486609,5.40760221 L4.41585561,5.33351048 C4.34455559,5.28421134 4.29498127,5.24631681 4.26713264,5.21982687 C4.17584532,5.20210969 4.11554089,5.15970481 4.08621933,5.09261222 L4.48773795,5.09261222 L4.54698407,5.02134364 Z M1.55539441,4.72452539 L1.3190196,5.09054509 L1.29438735,5.07082124 L1.53087422,4.70462802 C1.52219109,4.69302447 1.51699029,4.67824992 1.51699029,4.66216216 C1.51699029,4.62484563 1.54497249,4.59459459 1.57949029,4.59459459 C1.61400809,4.59459459 1.64199029,4.62484563 1.64199029,4.66216216 C1.64199029,4.6741069 1.63912326,4.68532771 1.63409257,4.6950642 L1.88564944,5.07058331 L1.8613302,5.09078302 L1.61259851,4.71948129 C1.6029985,4.72597573 1.59164991,4.72972973 1.57949029,4.72972973 C1.57094997,4.72972973 1.56280974,4.7278779 1.55539441,4.72452539 Z M1.5433433,5.02134364 C1.5273957,5.00910023 1.51699029,4.98897191 1.51699029,4.96621622 C1.51699029,4.92889968 1.54497249,4.89864865 1.57949029,4.89864865 C1.61400809,4.89864865 1.64199029,4.92889968 1.64199029,4.96621622 C1.64199029,4.98380397 1.63577445,4.99982223 1.62558812,5.01184357 L1.7068348,5.09261222 L1.88818485,5.09261222 C2.0663407,4.93096447 2.15541862,4.89055253 2.15541862,4.97137641 C2.15541862,5.05220028 2.11282358,5.1350171 2.02763351,5.21982687 C1.97630366,5.25526122 1.95063873,5.25526122 1.95063873,5.21982687 C1.95063873,5.16667535 1.93309204,5.33239481 1.78408648,5.33351048 L1.78408648,5.40760221 L1.35122531,5.40760221 L1.41221483,5.33351048 C1.34091481,5.28421134 1.29134049,5.24631681 1.26349186,5.21982687 C1.17220455,5.20210969 1.11190011,5.15970481 1.08257855,5.09261222 L1.48409717,5.09261222 L1.5433433,5.02134364 Z M1.55539441,3.77857945 L1.3190196,4.14459915 L1.29438735,4.12487529 L1.53087422,3.75868207 C1.52219109,3.74707852 1.51699029,3.73230397 1.51699029,3.71621622 C1.51699029,3.67889968 1.54497249,3.64864865 1.57949029,3.64864865 C1.61400809,3.64864865 1.64199029,3.67889968 1.64199029,3.71621622 C1.64199029,3.72816095 1.63912326,3.73938177 1.63409257,3.74911825 L1.88564944,4.12463737 L1.8613302,4.14483708 L1.61259851,3.77353534 C1.6029985,3.78002978 1.59164991,3.78378378 1.57949029,3.78378378 C1.57094997,3.78378378 1.56280974,3.78193195 1.55539441,3.77857945 Z M1.5433433,4.0753977 C1.5273957,4.06315428 1.51699029,4.04302596 1.51699029,4.02027027 C1.51699029,3.98295373 1.54497249,3.9527027 1.57949029,3.9527027 C1.61400809,3.9527027 1.64199029,3.98295373 1.64199029,4.02027027 C1.64199029,4.03785803 1.63577445,4.05387628 1.62558812,4.06589762 L1.7068348,4.14666628 L1.88818485,4.14666628 C2.0663407,3.98501852 2.15541862,3.94460658 2.15541862,4.02543046 C2.15541862,4.10625434 2.11282358,4.18907116 2.02763351,4.27388092 C1.97630366,4.30931527 1.95063873,4.30931527 1.95063873,4.27388092 C1.95063873,4.2207294 1.93309204,4.38644886 1.78408648,4.38756453 L1.78408648,4.46165626 L1.35122531,4.46165626 L1.41221483,4.38756453 C1.34091481,4.3382654 1.29134049,4.30037086 1.26349186,4.27388092 C1.17220455,4.25616375 1.11190011,4.21375887 1.08257855,4.14666628 L1.48409717,4.14666628 L1.5433433,4.0753977 Z M2.13185072,2.96776864 L1.89547591,3.33378833 L1.87084367,3.31406448 L2.10733053,2.94787126 C2.0986474,2.93626771 2.0934466,2.92149316 2.0934466,2.90540541 C2.0934466,2.86808887 2.12142881,2.83783784 2.1559466,2.83783784 C2.1904644,2.83783784 2.2184466,2.86808887 2.2184466,2.90540541 C2.2184466,2.91735014 2.21557957,2.92857095 2.21054888,2.93830744 L2.46210575,3.31382655 L2.43778651,3.33402626 L2.18905482,2.96272453 C2.17945481,2.96921897 2.16810622,2.97297297 2.1559466,2.97297297 C2.14740629,2.97297297 2.13926605,2.97112114 2.13185072,2.96776864 Z M2.11979961,3.26458689 C2.10385201,3.25234347 2.0934466,3.23221515 2.0934466,3.20945946 C2.0934466,3.17214292 2.12142881,3.14189189 2.1559466,3.14189189 C2.1904644,3.14189189 2.2184466,3.17214292 2.2184466,3.20945946 C2.2184466,3.22704722 2.21223076,3.24306547 2.20204443,3.25508681 L2.28329111,3.33585546 L2.46464116,3.33585546 C2.64279701,3.17420771 2.73187493,3.13379577 2.73187493,3.21461965 C2.73187493,3.29544353 2.68927989,3.37826035 2.60408982,3.46307011 C2.55275997,3.49850446 2.52709504,3.49850446 2.52709504,3.46307011 C2.52709504,3.40991859 2.50954835,3.57563805 2.36054279,3.57675372 L2.36054279,3.65084545 L1.92768162,3.65084545 L1.98867114,3.57675372 C1.91737112,3.52745459 1.8677968,3.48956005 1.83994817,3.46307011 C1.74866086,3.44535294 1.68835642,3.40294806 1.65903487,3.33585546 L2.06055348,3.33585546 L2.11979961,3.26458689 Z M1.64641383,1.95425512 L1.41003902,2.32027482 L1.38540677,2.30055097 L1.62189364,1.93435775 C1.61321051,1.9227542 1.60800971,1.90797965 1.60800971,1.89189189 C1.60800971,1.85457535 1.63599191,1.82432432 1.67050971,1.82432432 C1.70502751,1.82432432 1.73300971,1.85457535 1.73300971,1.89189189 C1.73300971,1.90383663 1.73014268,1.91505744 1.72511199,1.92479393 L1.97666886,2.30031304 L1.95234961,2.32051275 L1.70361793,1.94921102 C1.69401792,1.95570546 1.68266933,1.95945946 1.67050971,1.95945946 C1.66196939,1.95945946 1.65382916,1.95760763 1.64641383,1.95425512 Z M1.63436271,2.25107337 C1.61841512,2.23882996 1.60800971,2.21870164 1.60800971,2.19594595 C1.60800971,2.15862941 1.63599191,2.12837838 1.67050971,2.12837838 C1.70502751,2.12837838 1.73300971,2.15862941 1.73300971,2.19594595 C1.73300971,2.2135337 1.72679386,2.22955196 1.71660754,2.2415733 L1.79785422,2.32234195 L1.97920427,2.32234195 C2.15736012,2.1606942 2.24643804,2.12028226 2.24643804,2.20110613 C2.24643804,2.28193001 2.203843,2.36474683 2.11865292,2.4495566 C2.06732308,2.48499094 2.04165815,2.48499094 2.04165815,2.4495566 C2.04165815,2.39640508 2.02411146,2.56212454 1.8751059,2.56324021 L1.8751059,2.63733194 L1.44224473,2.63733194 L1.50323425,2.56324021 C1.43193423,2.51394107 1.38235991,2.47604654 1.35451128,2.4495566 C1.26322396,2.43183942 1.20291953,2.38943454 1.17359797,2.32234195 L1.57511659,2.32234195 L1.63436271,2.25107337 Z M1.64641383,1.10966053 L1.41003902,1.47568023 L1.38540677,1.45595638 L1.62189364,1.08976315 C1.61321051,1.0781596 1.60800971,1.06338505 1.60800971,1.0472973 C1.60800971,1.00998076 1.63599191,0.97972973 1.67050971,0.97972973 C1.70502751,0.97972973 1.73300971,1.00998076 1.73300971,1.0472973 C1.73300971,1.05924203 1.73014268,1.07046285 1.72511199,1.08019933 L1.97666886,1.45571845 L1.95234961,1.47591816 L1.70361793,1.10461642 C1.69401792,1.11111087 1.68266933,1.11486486 1.67050971,1.11486486 C1.66196939,1.11486486 1.65382916,1.11301303 1.64641383,1.10966053 Z M1.63436271,1.40647878 C1.61841512,1.39423537 1.60800971,1.37410704 1.60800971,1.35135135 C1.60800971,1.31403481 1.63599191,1.28378378 1.67050971,1.28378378 C1.70502751,1.28378378 1.73300971,1.31403481 1.73300971,1.35135135 C1.73300971,1.36893911 1.72679386,1.38495736 1.71660754,1.3969787 L1.79785422,1.47774736 L1.97920427,1.47774736 C2.15736012,1.3160996 2.24643804,1.27568766 2.24643804,1.35651154 C2.24643804,1.43733542 2.203843,1.52015224 2.11865292,1.604962 C2.06732308,1.64039635 2.04165815,1.64039635 2.04165815,1.604962 C2.04165815,1.55181048 2.02411146,1.71752994 1.8751059,1.71864561 L1.8751059,1.79273734 L1.44224473,1.79273734 L1.50323425,1.71864561 C1.43193423,1.66934648 1.38235991,1.63145194 1.35451128,1.604962 C1.26322396,1.58724483 1.20291953,1.54483995 1.17359797,1.47774736 L1.57511659,1.47774736 L1.63436271,1.40647878 Z M1.64641383,0.163714581 L1.41003902,0.529734281 L1.38540677,0.51001043 L1.62189364,0.143817207 C1.61321051,0.132213658 1.60800971,0.117439106 1.60800971,0.101351351 C1.60800971,0.0640348142 1.63599191,0.0337837838 1.67050971,0.0337837838 C1.70502751,0.0337837838 1.73300971,0.0640348142 1.73300971,0.101351351 C1.73300971,0.113296088 1.73014268,0.1245169 1.72511199,0.134253385 L1.97666886,0.5097725 L1.95234961,0.52997221 L1.70361793,0.158670478 C1.69401792,0.16516492 1.68266933,0.168918919 1.67050971,0.168918919 C1.66196939,0.168918919 1.65382916,0.167067085 1.64641383,0.163714581 Z M1.63436271,0.460532832 C1.61841512,0.448289419 1.60800971,0.428161096 1.60800971,0.405405405 C1.60800971,0.368088868 1.63599191,0.337837838 1.67050971,0.337837838 C1.70502751,0.337837838 1.73300971,0.368088868 1.73300971,0.405405405 C1.73300971,0.422993162 1.72679386,0.439011417 1.71660754,0.451032756 L1.79785422,0.53180141 L1.97920427,0.53180141 C2.15736012,0.370153656 2.24643804,0.329741717 2.24643804,0.410565594 C2.24643804,0.491389472 2.203843,0.574206292 2.11865292,0.659016057 C2.06732308,0.694450404 2.04165815,0.694450404 2.04165815,0.659016057 C2.04165815,0.605864536 2.02411146,0.771583998 1.8751059,0.772699665 L1.8751059,0.846791398 L1.44224473,0.846791398 L1.50323425,0.772699665 C1.43193423,0.723400533 1.38235991,0.685505997 1.35451128,0.659016057 C1.26322396,0.641298883 1.20291953,0.598894001 1.17359797,0.53180141 L1.57511659,0.53180141 L1.63436271,0.460532832 Z"/>
              <path fill="#FFC6B5" d="M2.89987035,1.24102176 C2.89987035,1.24102176 2.82979381,1.46882555 2.68964073,1.92443315 C2.45485188,2.2281919 2.31580475,2.4544996 2.27249933,2.60335625 C2.20754121,2.82664122 2.17194997,2.97499917 2.18974559,2.97499917 C2.20754121,2.97499917 2.35144169,2.91143028 2.35144169,2.75739327 C2.35144169,2.65470192 2.53425124,2.43824099 2.89987035,2.10801046 L3.06356812,1.24102176 C2.95443627,1.24102176 2.89987035,1.24102176 2.89987035,1.24102176 Z"/>
              <path fill="#FFD018" d="M4.52869538,0.197498365 L4.29232057,0.563518065 L4.26768833,0.543794213 L4.50417519,0.177600991 C4.49549206,0.165997442 4.49029126,0.151222889 4.49029126,0.135135135 C4.49029126,0.097818598 4.51827347,0.0675675676 4.55279126,0.0675675676 C4.58730906,0.0675675676 4.61529126,0.097818598 4.61529126,0.135135135 C4.61529126,0.147079872 4.61242423,0.158300684 4.60739354,0.168037169 L4.85895041,0.543556284 L4.83463117,0.563755994 L4.58589949,0.192454262 C4.57629947,0.198948704 4.56495088,0.202702703 4.55279126,0.202702703 C4.54425095,0.202702703 4.53611071,0.200850869 4.52869538,0.197498365 Z M4.51664427,0.494316616 C4.50069667,0.482073203 4.49029126,0.461944879 4.49029126,0.439189189 C4.49029126,0.401872652 4.51827347,0.371621622 4.55279126,0.371621622 C4.58730906,0.371621622 4.61529126,0.401872652 4.61529126,0.439189189 C4.61529126,0.456776946 4.60907542,0.472795201 4.59888909,0.48481654 L4.68013577,0.565585194 L4.86148582,0.565585194 C5.03964167,0.40393744 5.12871959,0.363525501 5.12871959,0.444349378 C5.12871959,0.525173255 5.08612455,0.607990076 5.00093448,0.692799841 C4.94960463,0.728234188 4.9239397,0.728234188 4.9239397,0.692799841 C4.9239397,0.63964832 4.90639301,0.805367782 4.75738745,0.806483449 L4.75738745,0.880575182 L4.32452628,0.880575182 L4.3855158,0.806483449 C4.31421578,0.757184317 4.26464146,0.719289781 4.23679283,0.692799841 C4.14550552,0.675082667 4.08520108,0.632677785 4.05587953,0.565585194 L4.45739814,0.565585194 L4.51664427,0.494316616 Z"/>
              <path fill="#FFC6B5" d="M3.59683348,1.30849882 C3.5731791,1.21476371 3.58903704,1.16789616 3.64440728,1.16789616 C3.72746265,1.16789616 3.8564192,1.84013262 3.90303331,2.10964396 C3.94964741,2.3791553 3.8564192,2.30546706 3.64440728,2.65608607 C3.43239537,3.00670507 3.59683348,3.11477746 3.50081197,3.24899881 C3.40479047,3.38322016 3.36963085,3.23678576 3.33105082,3.11477746 C3.29247079,2.99276915 3.49664057,2.59050202 3.59683348,2.37659056 C3.69702638,2.1626791 3.68759388,2.08802687 3.64440728,1.9984442 C3.61561622,1.93872241 3.5879311,1.83686563 3.56135192,1.69287384 L3.59683348,1.30849882 Z M3.42290803,1.00253155 C3.42290803,1.04194914 3.25586501,1.09980844 3.13538126,1.09980844 C3.01489751,1.09980844 3.06214227,1.00253155 3.13538126,0.948580424 C3.20862024,0.894629304 3.12945852,0.801779639 3.06214227,0.801779639 C2.99482602,0.801779639 2.99863741,0.701663213 2.99863741,0.627535213 C2.99863741,0.553407214 2.99863741,0.52494047 2.99863741,0.34473701 C2.99863741,0.16453355 3.07615392,0.304037042 3.22032861,0.304037042 C3.36450329,0.304037042 3.28975621,0.357438575 3.38328604,0.52494047 C3.47681587,0.692442365 3.38328604,0.64569694 3.38328604,0.801779639 C3.38328604,0.957862338 3.42290803,0.963113946 3.42290803,1.00253155 Z"/>
              <path fill="#FFD018" d="M3.59526699,5.65797941 C3.50310782,5.65797941 3.42839806,5.57875052 3.42839806,5.48101673 C3.42839806,5.38328294 3.50310782,5.30405405 3.59526699,5.30405405 C3.68742616,5.30405405 3.76213592,5.38328294 3.76213592,5.48101673 C3.76213592,5.57875052 3.68742616,5.65797941 3.59526699,5.65797941 Z M2.67087076,5.56259111 C2.63317336,5.5176651 2.66330643,5.43031803 2.73817486,5.36749596 C2.81304328,5.30467389 2.90429591,5.29016627 2.94199331,5.33509228 C2.97969071,5.38001829 2.94955764,5.46736537 2.87468922,5.53018744 C2.79982079,5.59300951 2.70856816,5.60751713 2.67087076,5.56259111 Z"/>
              <path fill="#A95601" d="M3.09441569,0.115406581 C2.97873044,0.138896335 2.9401687,0.179606481 2.97873044,0.237537019 C3.03657306,0.324432825 2.90335269,0.301960824 3.09441569,0.313196825 C3.28547868,0.324432825 3.33779615,0.393986109 3.31163741,0.44537249 C3.28547868,0.496758872 3.26494105,0.624354646 3.31163741,0.701235756 C3.35833378,0.778116867 3.37314061,0.911910761 3.45562016,0.845013814 C3.5380997,0.778116867 3.69653282,0.686213713 3.64799931,0.565793101 C3.5994658,0.44537249 3.66757724,0.305288879 3.5615987,0.237537019 C3.45562016,0.169785159 3.43194363,0.211217909 3.37130347,0.115406581 C3.31066331,0.0195952533 3.22131573,-0.0067849211 3.15786571,0.0543108301 C3.11556569,0.095041331 3.09441569,0.115406581 3.09441569,0.115406581 Z"/>
              <path fill="#F7FCFF" d="M3.06000351,0.985952338 C2.82748138,1.26591601 2.73025898,1.45521819 2.76833631,1.55385887 C2.8254523,1.7018199 2.91078353,1.70960571 2.86811792,1.91997539 C2.8254523,2.13034507 2.89408471,2.45557842 2.76833631,2.86932581 C2.64258791,3.2830732 2.55994384,4.25382698 2.60126587,4.25382698 C2.64258791,4.25382698 2.6999781,4.7900712 2.65062199,5.03063763 C2.60126587,5.27120406 2.257007,5.47247502 2.60126587,5.47247502 C2.94552475,5.47247502 2.98635322,5.52016695 3.12391967,5.47247502 C3.26148612,5.42478308 3.45668954,5.60968856 3.45668954,5.47247502 C3.45668954,5.33526147 3.47141411,5.30717147 3.57626843,5.30717147 C3.68112275,5.30717147 3.67583067,5.30717147 3.768675,5.30717147 C3.86151933,5.30717147 3.98320957,5.39357875 3.98320957,5.18858281 C3.98320957,4.98358688 4.00585854,4.54309292 3.88726677,4.2010361 C3.768675,3.85897928 3.80895507,4.07740956 3.69261175,3.62000054 C3.62369606,3.34905539 3.57047227,3.24151793 3.52856356,3.14687588 C3.49972208,3.08174343 3.41739615,3.19608261 3.39784609,3.09410688 C3.3912171,3.05952918 3.44754887,2.8566492 3.44814293,2.83060043 C3.45184661,2.66819843 3.57626843,2.6405589 3.57626843,2.36120213 C3.57626843,2.03703741 3.49855998,1.68090506 3.57626843,1.50271675 C3.65397689,1.32452844 3.84473826,1.43166737 3.768675,1.25836428 C3.69261175,1.08506119 3.66785144,0.985952338 3.52471871,0.985952338 C3.4292969,0.985952338 3.27439183,0.985952338 3.06000351,0.985952338 Z"/>
              <path fill="#272727" fill-rule="nonzero" d="M0.616741606,5.96591415 L0.675140934,5.88817486 C1.51016697,6.66595749 2.28214017,7.05352305 2.99065817,7.05352305 C3.69990585,7.05352305 4.56342769,6.64215595 5.57952789,5.81718541 L5.63315235,5.8990794 C4.60291163,6.73553061 3.7226455,7.1548744 2.99065817,7.1548744 C2.25794117,7.1548744 1.46676976,6.75767047 0.616741606,5.96591415 Z"/>
            </g>
          </g>
        </g>
        <g mask="url(#f)">
          <mask id="h" fill="white">
            <use xlink:href="#g"/>
          </mask>
          <use fill="#2B409A" xlink:href="#g"/>
          <g mask="url(#h)">
            <g transform="translate(-2.5 -1.25)">
              <polygon fill="#FFFFFF" fill-rule="nonzero" points="1.247 1.54 3.723 .454 13.806 8.484 15.112 10.098 12.465 10.461 8.352 7 5.042 4.669" transform="matrix(1 0 0 -1 0 10.915)"/>
              <polygon fill="#F50100" fill-rule="nonzero" points="1.586 1.297 2.847 .667 14.643 10.766 12.872 10.766" transform="matrix(1 0 0 -1 0 11.433)"/>
              <g transform="matrix(-1 0 0 1 16.25 0)">
                <polygon fill="#FFFFFF" fill-rule="nonzero" points="1.247 1.54 3.723 .454 13.806 8.484 15.112 10.098 12.465 10.461 8.352 7 5.042 4.669" transform="matrix(1 0 0 -1 0 10.915)"/>
                <polygon fill="#F50100" fill-rule="nonzero" points="1.332 1.453 2.593 .823 7.616 5.146 9.105 5.629 15.238 10.551 13.467 10.551 7.337 5.746 5.709 5.167" transform="matrix(1 0 0 -1 0 11.373)"/>
              </g>
              <path fill="#F50100" stroke="#F7FCFF" stroke-width=".938" d="M4.5215697,3.28125 L4.5215697,-0.46875 L6.7090697,-0.46875 L6.7090697,3.28125 L11.71875,3.28125 L11.71875,5.46875 L6.7090697,5.46875 L6.7090697,9.21875 L4.5215697,9.21875 L4.5215697,5.46875 L-0.46875,5.46875 L-0.46875,3.28125 L4.5215697,3.28125 Z" transform="translate(2.5 1.25)"/>
            </g>
          </g>
        </g>
      </g>
    </g>
  </g>
</svg>
