<svg width="20" height="15" viewBox="0 0 20 15" fill="none" xmlns="http://www.w3.org/2000/svg">
<g clip-path="url(#clip0_270_60782)">
<rect width="20" height="15" fill="white"/>
<path fill-rule="evenodd" clip-rule="evenodd" d="M0 0V15H20V0H0Z" fill="#F7FCFF"/>
<mask id="mask0_270_60782" style="mask-type:luminance" maskUnits="userSpaceOnUse" x="0" y="0" width="20" height="15">
<path fill-rule="evenodd" clip-rule="evenodd" d="M0 0V15H20V0H0Z" fill="white"/>
</mask>
<g mask="url(#mask0_270_60782)">
<path fill-rule="evenodd" clip-rule="evenodd" d="M11.0016 5.13427C11.1528 5.22033 11.2435 5.44067 11.2435 5.44067H8.68852L8.8649 5.13427C8.8649 5.13427 8.68852 5.05421 8.77725 5.05421C8.86597 5.05421 9.11906 4.69913 9.11906 4.69913H9.01347C9.01347 4.69913 8.95915 4.6108 9.11906 4.6108C9.27897 4.6108 9.4067 4.03926 9.4067 4.03926C9.4067 4.03926 9.51161 3.77186 9.25479 3.70437C8.99797 3.63688 8.68852 3.92792 8.68852 3.92792C8.68852 3.92792 8.76402 3.46229 8.8649 3.36144C8.91179 3.31457 8.9993 3.30712 9.07955 3.30028C9.17199 3.29241 9.25479 3.28536 9.25479 3.21984C9.25479 3.09744 9.55547 3.00201 10.047 3.00201C10.5385 3.00201 10.717 3.58905 10.717 3.70437C10.717 3.81969 10.8851 4.43262 10.8851 4.43262C10.8851 4.43262 10.717 4.43262 10.717 4.51169C10.717 4.59076 11.2435 4.93246 11.2435 4.93246C11.2435 4.93246 10.8503 5.04821 11.0016 5.13427ZM1.73576 3.04345C1.93179 2.95934 3.92385 3.55296 5.41608 3.99764C6.2742 4.25335 6.96703 4.4598 7.05798 4.4598C7.30709 4.4598 7.77575 5.06299 7.54142 5.31688C7.30709 5.57077 7.22782 5.71914 7.38462 5.71914C7.54142 5.71914 8.33229 5.51389 8.33229 5.51389V7.87124C8.33229 7.87124 7.57434 8.05114 7.38462 7.87124C7.29275 7.78412 7.15263 7.77889 7.03253 7.77441C6.90462 7.76964 6.79942 7.76571 6.79942 7.66461C6.79942 7.46857 6.36268 7.43775 6.36268 7.43775C6.36268 7.43775 5.95851 7.30447 5.95851 7.17908C5.95851 7.05368 5.69403 6.69925 5.69403 6.69925C5.69403 6.69925 4.68604 6.12857 3.829 5.50232C3.65587 5.37581 3.48476 5.25661 3.32093 5.14249L3.32093 5.14249C2.67382 4.69172 2.14037 4.32012 2.04451 3.88937C1.59691 3.44613 1.42701 3.17593 1.73576 3.04345ZM8.02737 8.01994C8.02737 8.01994 7.688 8.25378 7.31252 8.87994C7.12782 9.18798 7.11295 9.45934 7.1022 9.65556C7.0911 9.85821 7.08439 9.98072 6.8995 9.98072C6.68369 9.98072 6.52711 10.0274 6.39968 10.0654C6.31223 10.0915 6.23851 10.1135 6.16878 10.1135C5.99744 10.1135 5.66846 10.7602 5.83295 10.9099C5.99744 11.0596 6.68665 11.2982 6.68665 10.9099C6.68665 10.5217 6.87202 10.3011 7.20885 10.3011C7.54568 10.3011 8.14775 10.0781 8.14775 9.58873C8.14775 9.09938 8.80421 9.13432 8.80421 9.13432L8.02737 8.01994ZM14.7258 3.99763C16.218 3.55296 18.2101 2.95934 18.4061 3.04345C18.7149 3.17593 18.545 3.44613 18.0974 3.88937C18.0015 4.32012 17.4681 4.69172 16.821 5.14249L16.8209 5.14251C16.6571 5.25662 16.486 5.37581 16.3129 5.50232C15.4559 6.12857 14.4479 6.69925 14.4479 6.69925C14.4479 6.69925 14.1834 7.05368 14.1834 7.17908C14.1834 7.30447 13.7792 7.43775 13.7792 7.43775C13.7792 7.43775 13.3425 7.46857 13.3425 7.66461C13.3425 7.76571 13.2373 7.76964 13.1094 7.77441C12.9893 7.77889 12.8491 7.78412 12.7573 7.87124C12.5676 8.05114 11.8096 7.87124 11.8096 7.87124V5.51389C11.8096 5.51389 12.6005 5.71914 12.7573 5.71914C12.9141 5.71914 12.8348 5.57077 12.6005 5.31688C12.3661 5.06299 12.8348 4.4598 13.0839 4.4598C13.1749 4.4598 13.8677 4.25335 14.7258 3.99764L14.7258 3.99763ZM12.1145 8.01994C12.1145 8.01994 12.4539 8.25378 12.8294 8.87994C13.0141 9.18798 13.0289 9.45934 13.0397 9.65556C13.0508 9.85821 13.0575 9.98072 13.2424 9.98072C13.4582 9.98072 13.6148 10.0274 13.7422 10.0654C13.8297 10.0915 13.9034 10.1135 13.9731 10.1135C14.1444 10.1135 14.4734 10.7602 14.3089 10.9099C14.1444 11.0596 13.4552 11.2982 13.4552 10.9099C13.4552 10.5217 13.2699 10.3011 12.933 10.3011C12.5962 10.3011 11.9941 10.0781 11.9941 9.58873C11.9941 9.09938 11.3377 9.13432 11.3377 9.13432L12.1145 8.01994ZM8.46312 9.65147C8.46312 9.43587 8.84406 9.27332 8.84406 9.27332L9.99072 8.78942C9.99072 8.78942 9.99661 8.89862 10.0054 9.07995C10.0142 8.89862 10.0201 8.78942 10.0201 8.78942L11.1667 9.27332C11.1667 9.27332 11.5477 9.43587 11.5477 9.65147C11.5477 9.7595 11.7097 9.95051 11.8714 10.1411C12.0324 10.3309 12.193 10.5202 12.193 10.6268C12.193 10.8149 11.758 11.2379 11.4953 11.4933L11.4953 11.4933C11.4595 11.5281 11.4268 11.5598 11.399 11.5874C11.3388 11.6469 11.2738 11.7207 11.2062 11.7973C11.013 12.0163 10.7992 12.2588 10.6198 12.2588C10.4937 12.2588 10.3917 12.3466 10.294 12.4307C10.2042 12.508 10.1181 12.5822 10.0201 12.5822C10.0149 12.5822 10.01 12.5798 10.0054 12.5751C10.0008 12.5798 9.99587 12.5822 9.99072 12.5822C9.89273 12.5822 9.80656 12.508 9.71677 12.4307C9.6191 12.3466 9.51713 12.2588 9.39099 12.2588C9.21161 12.2588 8.99779 12.0163 8.80457 11.7973C8.73702 11.7207 8.67198 11.6469 8.61182 11.5874C8.58397 11.5599 8.5514 11.5282 8.51562 11.4934L8.51556 11.4933L8.5155 11.4933C8.25282 11.2379 7.81777 10.8149 7.81777 10.6268C7.81777 10.5202 7.9784 10.3309 8.13939 10.1411C8.30108 9.95051 8.46312 9.7595 8.46312 9.65147Z" fill="#E8AA00"/>
<path fill-rule="evenodd" clip-rule="evenodd" d="M4.3814 6.67076C4.4064 6.95993 4.48861 7.13043 4.48861 7.13043C4.48861 7.13043 4.63331 7.35803 4.71537 7.36072C4.75752 7.46545 4.80344 7.57283 4.85254 7.68218C5.07777 8.28224 5.38467 9.07069 5.69897 9.78886C5.6788 9.77354 5.64964 9.75674 5.60979 9.73811C5.34687 9.61517 5.1581 9.60112 5.1581 9.60112C5.1581 9.60112 4.80568 9.61617 4.84206 9.71615C4.87845 9.81612 5.31539 10.0333 5.4928 9.96869C5.51257 9.96149 5.53266 9.95456 5.55238 9.94776C5.63399 9.9196 5.7093 9.89362 5.73017 9.85986C5.77195 9.95454 5.81381 10.0478 5.85559 10.1391C5.59332 10.0167 5.40516 10.0027 5.40516 10.0027C5.40516 10.0027 5.05274 10.0178 5.08912 10.1178C5.12551 10.2177 5.56245 10.4349 5.73986 10.3703C5.75963 10.3631 5.77972 10.3562 5.79944 10.3494C5.84858 10.3324 5.89543 10.3162 5.9295 10.2987C6.2462 10.9739 6.55194 11.513 6.77018 11.6491H7.21051C7.21051 11.6491 6.82995 11.1112 6.35031 10.3582C6.49482 10.2557 6.69616 10.0292 6.69616 9.88667C6.69616 9.86562 6.69652 9.84438 6.69687 9.82352C6.69967 9.65726 6.70205 9.5157 6.5195 9.69787C6.31404 9.90289 6.23628 10.0755 6.23628 10.0755C6.23628 10.0755 6.22693 10.105 6.21654 10.1466C6.178 10.0852 6.13901 10.0226 6.09971 9.95911C6.24444 9.85778 6.4491 9.62872 6.4491 9.48506C6.4491 9.46402 6.44946 9.44277 6.44981 9.42192C6.45261 9.25565 6.45499 9.11409 6.27244 9.29626C6.06699 9.50128 5.98922 9.67386 5.98922 9.67386C5.98922 9.67386 5.97968 9.70403 5.96916 9.7463C5.91369 9.65509 5.85789 9.56231 5.80213 9.46839C5.94355 9.39375 6.20204 9.12442 6.20204 8.96297C6.20204 8.94193 6.2024 8.92068 6.20275 8.89983C6.20555 8.73356 6.20793 8.59201 6.02538 8.77417C5.81993 8.97919 5.74216 9.15177 5.74216 9.15177C5.74216 9.15177 5.71891 9.22527 5.70502 9.30355C5.63207 9.17874 5.55954 9.05236 5.48824 8.92534C5.49042 8.92567 5.49271 8.92584 5.4951 8.92584C5.60149 8.92584 5.95498 8.58952 5.95498 8.40072C5.95498 8.37968 5.95534 8.35844 5.95569 8.33759V8.33759V8.33759V8.33759V8.33759V8.33758V8.33758V8.33758V8.33758V8.33758C5.95849 8.17132 5.96087 8.02976 5.77832 8.21192C5.57287 8.41694 5.4951 8.58952 5.4951 8.58952C5.4951 8.58952 5.44278 8.75491 5.44822 8.85373C5.34986 8.67701 5.25418 8.4994 5.16334 8.32337L5.16569 8.32343C5.27208 8.32343 5.62557 7.98711 5.62557 7.79831C5.62557 7.77727 5.62593 7.75603 5.62628 7.73518V7.73518V7.73518V7.73518V7.73518V7.73517V7.73517V7.73517V7.73517C5.62908 7.56891 5.63146 7.42735 5.44891 7.60952C5.24346 7.81453 5.16569 7.98711 5.16569 7.98711C5.16569 7.98711 5.11859 8.13601 5.11841 8.23566C5.02294 8.04785 4.93343 7.86234 4.85254 7.68218C4.80908 7.5664 4.76867 7.45763 4.73182 7.35773C4.73706 7.35544 4.7419 7.35179 4.74625 7.34661C4.81463 7.26511 4.78422 6.77814 4.63959 6.65679C4.62347 6.64326 4.60742 6.62933 4.59167 6.61565C4.46611 6.50664 4.3592 6.41382 4.3814 6.67076ZM4.87024 7.41051C4.87024 7.41051 4.88429 7.22174 5.00723 6.95882C5.11647 6.7252 5.16264 6.85903 5.21688 7.01623L5.21688 7.01624C5.22369 7.03595 5.23061 7.05604 5.23781 7.07581C5.30238 7.25322 5.08524 7.69016 4.98526 7.72654C4.88529 7.76293 4.87024 7.41051 4.87024 7.41051ZM5.36273 9.21602C5.09981 9.09308 4.91104 9.07903 4.91104 9.07903C4.91104 9.07903 4.55862 9.09409 4.595 9.19406C4.63139 9.29403 5.06833 9.51118 5.24574 9.4466C5.26552 9.43941 5.2856 9.43248 5.30532 9.42567C5.46251 9.37144 5.59635 9.32526 5.36273 9.21602ZM4.66398 8.51678C4.66398 8.51678 4.85275 8.53083 5.11567 8.65377C5.34929 8.76301 5.21545 8.80919 5.05826 8.86342C5.03854 8.87023 5.01846 8.87716 4.99868 8.88435C4.82127 8.94893 4.38433 8.73178 4.34795 8.63181C4.31156 8.53184 4.66398 8.51678 4.66398 8.51678ZM4.90979 8.09152C4.64687 7.96858 4.4581 7.95453 4.4581 7.95453C4.4581 7.95453 4.10568 7.96959 4.14206 8.06956C4.17845 8.16953 4.61539 8.38668 4.7928 8.32211C4.81257 8.31491 4.83266 8.30798 4.85238 8.30117C5.00957 8.24694 5.14341 8.20076 4.90979 8.09152ZM4.35936 7.27801C4.35936 7.27801 4.53194 7.35577 4.73696 7.56122C4.91912 7.74378 4.77756 7.74139 4.6113 7.73859H4.6113C4.59045 7.73824 4.5692 7.73789 4.54816 7.73789C4.35936 7.73789 4.02304 7.38439 4.02304 7.27801C4.02304 7.17162 4.35936 7.27801 4.35936 7.27801Z" fill="#46A000"/>
<path fill-rule="evenodd" clip-rule="evenodd" d="M17.9323 6.46161H16.5965C16.5965 6.46161 16.8797 6.46161 16.9108 6.73518C16.9108 6.73518 16.9173 9.04388 16.9108 9.22527C16.9043 9.40667 16.5965 9.46838 16.5965 9.46838C16.5965 9.46838 18.217 9.47332 17.9323 9.46838C17.6476 9.46343 17.5848 9.22527 17.5848 9.22527V6.73518C17.5848 6.52438 17.9323 6.46161 17.9323 6.46161ZM2.85332 9.28328C2.70212 8.89291 1.76855 6.50259 1.76855 6.50259H2.69276C2.53221 6.50259 2.4726 6.70696 2.4726 6.70696L3.11995 8.55274C3.11995 8.55274 3.74596 7.04578 3.74596 6.77854C3.74596 6.51131 3.48318 6.50259 3.48318 6.50259H4.68809L4.39699 6.5998C4.39699 6.5998 3.43288 8.8101 3.43288 9.28328C3.38694 9.38816 3.87676 9.45793 3.87676 9.45793H2.58289L2.85332 9.28328ZM13.9166 8.41039L14.6326 7.09108L14.6537 8.55898L14.4319 8.487L14.2746 9.46721L15.0665 7.94869L14.8028 7.84963L15.783 6.78861L15.4492 8.22267L15.2593 8.05541L14.1364 10.1506L15.3897 8.71452L15.1481 8.59386L16.3858 7.78351L15.847 9.10405L15.5464 8.88764L14.2746 10.4887L13.7471 10.2859L14.2746 8.41039H13.9166ZM13.5031 10.9125H13.1072V11.2136H12.7955L11.9127 12.2377H12.4L12.5692 12.8143L12.7955 12.6108V12.8143L13.238 12.6108L13.6611 12.9771L13.9768 11.569L13.7643 11.413L13.8734 11.3175L13.7643 10.9125H13.5031Z" fill="#0093E1"/>
<path fill-rule="evenodd" clip-rule="evenodd" d="M7.71472 5.00806C7.71472 5.00806 8.29634 5.40966 8.87796 5.40966C9.45957 5.40966 10.0412 5.00806 10.0412 5.00806C10.0412 5.00806 10.6228 5.40966 11.2044 5.40966C11.786 5.40966 12.3677 5.00806 12.3677 5.00806V6.82111C12.3677 8.69574 10.0412 10.1486 10.0412 10.1486C10.0412 10.1486 7.60208 8.8146 7.71472 6.79885V5.00806Z" fill="#F7FCFF"/>
<mask id="mask1_270_60782" style="mask-type:luminance" maskUnits="userSpaceOnUse" x="7" y="5" width="6" height="6">
<path fill-rule="evenodd" clip-rule="evenodd" d="M7.71472 5.00806C7.71472 5.00806 8.29634 5.40966 8.87796 5.40966C9.45957 5.40966 10.0412 5.00806 10.0412 5.00806C10.0412 5.00806 10.6228 5.40966 11.2044 5.40966C11.786 5.40966 12.3677 5.00806 12.3677 5.00806V6.82111C12.3677 8.69574 10.0412 10.1486 10.0412 10.1486C10.0412 10.1486 7.60208 8.8146 7.71472 6.79885V5.00806Z" fill="white"/>
</mask>
<g mask="url(#mask1_270_60782)">
<path fill-rule="evenodd" clip-rule="evenodd" d="M7.55002 4.88757H12.45V6.77512H7.55002V4.88757Z" fill="#2E42A5"/>
<path fill-rule="evenodd" clip-rule="evenodd" d="M8.49706 6.77515H8.0853V10.5904H8.49706V6.77515ZM9.19706 6.77515H8.7853V10.5904H9.19706V6.77515ZM9.4853 6.77515H9.89706V10.5904H9.4853V6.77515ZM10.5971 6.77515H10.1853V10.5904H10.5971V6.77515ZM10.8853 6.77515H11.2971V10.5904H10.8853V6.77515ZM11.9971 6.77515H11.5853V10.5904H11.9971V6.77515Z" fill="#AF0100"/>
</g>
</g>
</g>
<defs>
<clipPath id="clip0_270_60782">
<rect width="20" height="15" fill="white"/>
</clipPath>
</defs>
</svg>
