<svg width="20" height="15" viewBox="0 0 20 15" fill="none" xmlns="http://www.w3.org/2000/svg">
<g clip-path="url(#clip0_270_60781)">
<rect width="20" height="15" fill="white"/>
<path fill-rule="evenodd" clip-rule="evenodd" d="M0 0H20V15H0V0Z" fill="#F7FCFF"/>
<path fill-rule="evenodd" clip-rule="evenodd" d="M0 0V5H20V0H0Z" fill="#C51918"/>
<path fill-rule="evenodd" clip-rule="evenodd" d="M0 10V15H20V10H0Z" fill="#5EAA22"/>
<path fill-rule="evenodd" clip-rule="evenodd" d="M0 -1.25L10.4185 7.5L0 16.25V-1.25Z" fill="#272727"/>
<mask id="path-5-outside-1_270_60781" maskUnits="userSpaceOnUse" x="-2" y="-5.09686" width="24" height="25" fill="black">
<rect fill="white" x="-2" y="-5.09686" width="24" height="25"/>
<path fill-rule="evenodd" clip-rule="evenodd" d="M0 -2.09686L10.8802 6.24998H20V8.74998H10.7309L0 16.7572V13.9626L8.75 7.49998L0 0.959045V-2.09686Z"/>
</mask>
<path fill-rule="evenodd" clip-rule="evenodd" d="M0 -2.09686L10.8802 6.24998H20V8.74998H10.7309L0 16.7572V13.9626L8.75 7.49998L0 0.959045V-2.09686Z" fill="#FFD018"/>
<path d="M10.8802 6.24998L10.1193 7.24175L10.4559 7.49998H10.8802V6.24998ZM0 -2.09686L0.760848 -3.08863L-1.25 -4.63128V-2.09686H0ZM20 6.24998H21.25V4.99998H20V6.24998ZM20 8.74998V9.99998H21.25V8.74998H20ZM10.7309 8.74998V7.49998H10.3159L9.98331 7.74815L10.7309 8.74998ZM0 16.7572H-1.25V19.2495L0.747551 17.759L0 16.7572ZM0 13.9626L-0.742634 12.9571L-1.25 13.3318V13.9626H0ZM8.75 7.49998L9.49263 8.50546L10.8458 7.50602L9.49842 6.4988L8.75 7.49998ZM0 0.959045H-1.25V1.58528L-0.74842 1.96023L0 0.959045ZM11.641 5.25821L0.760848 -3.08863L-0.760848 -1.10509L10.1193 7.24175L11.641 5.25821ZM20 4.99998H10.8802V7.49998H20V4.99998ZM21.25 8.74998V6.24998H18.75V8.74998H21.25ZM10.7309 9.99998H20V7.49998H10.7309V9.99998ZM0.747551 17.759L11.4784 9.75181L9.98331 7.74815L-0.747551 15.7553L0.747551 17.759ZM-1.25 13.9626V16.7572H1.25V13.9626H-1.25ZM8.00737 6.4945L-0.742634 12.9571L0.742634 14.9681L9.49263 8.50546L8.00737 6.4945ZM-0.74842 1.96023L8.00158 8.50116L9.49842 6.4988L0.74842 -0.0421386L-0.74842 1.96023ZM-1.25 -2.09686V0.959045H1.25V-2.09686H-1.25Z" fill="#272727" mask="url(#path-5-outside-1_270_60781)"/>
<path d="M3.04606 10.48L3.04731 9.49232C3.92751 9.29814 4.51061 9.04556 4.79443 8.74181C5.49333 7.88046 5.02873 5.86241 3.59287 5.87561C2.88151 5.87561 2.14589 6.21459 2.14589 7.01243C2.14589 8.00333 2.3498 8.42692 3.04731 8.42692C3.74047 8.42692 3.9946 8.46397 4.45119 7.84166L4.94668 7.99475C4.4574 8.66163 3.79787 9.18842 3.04606 9.18842C1.80759 9.18842 1.13362 8.25463 1.13362 7.17468C1.13362 5.84149 2.21592 4.90778 3.52089 4.90778C4.49458 4.90778 6.03467 6.1004 6.03467 7.17468C6.03467 8.24896 6.03467 8.74181 5.19019 9.49232C4.85005 9.79461 4.00726 10.3345 3.04606 10.48Z" fill="#FFD018"/>
<path fill-rule="evenodd" clip-rule="evenodd" d="M3.11965 6.17492C3.07197 6.16233 3.02312 6.19077 3.01053 6.23845L2.97639 6.36771C2.97469 6.3655 2.97297 6.36328 2.97126 6.36106C2.94112 6.32204 2.88505 6.31483 2.84602 6.34497C2.80699 6.37511 2.79979 6.43119 2.82993 6.47021C2.85062 6.497 2.87103 6.52347 2.89116 6.54962L2.78827 6.64464C2.75204 6.67809 2.74979 6.73458 2.78324 6.77081C2.81669 6.80703 2.87318 6.80928 2.90941 6.77583L3.00033 6.69187C3.05462 6.76283 3.10664 6.83118 3.15634 6.89682L2.98518 6.98871C2.94173 7.01203 2.92542 7.06616 2.94874 7.10961C2.97207 7.15305 3.0262 7.16937 3.06964 7.14604L3.26513 7.04109C3.31203 7.10357 3.35649 7.16318 3.39848 7.21984L3.16375 7.34585C3.1203 7.36918 3.10399 7.42331 3.12731 7.46675C3.15064 7.5102 3.20477 7.52651 3.24821 7.50319L3.50542 7.3651C3.57383 7.45869 3.6338 7.54214 3.685 7.61489L3.52089 7.703C3.47745 7.72632 3.46113 7.78045 3.48446 7.82389C3.50778 7.86734 3.56191 7.88365 3.60536 7.86033L3.78699 7.76282C3.86254 7.87539 3.90165 7.94292 3.90165 7.96069C3.90165 8.01001 3.94163 8.04998 3.99094 8.04998C4.04025 8.04998 4.08022 8.01001 4.08022 7.96069C4.08022 7.9155 4.03321 7.82045 3.93497 7.66812C3.93639 7.66565 3.9377 7.66311 3.93888 7.6605L4.07101 7.36959C4.0914 7.3247 4.07153 7.27177 4.02663 7.25138C3.98174 7.23099 3.92881 7.25085 3.90842 7.29575L3.81816 7.49449C3.76177 7.41333 3.69594 7.32145 3.62037 7.21831L3.71386 7.01245C3.73425 6.96755 3.71439 6.91463 3.66949 6.89424C3.62459 6.87384 3.57167 6.89371 3.55127 6.93861L3.49886 7.05401C3.46998 7.01527 3.43996 6.97522 3.4088 6.93382L3.53529 6.65531C3.55568 6.61041 3.53582 6.55748 3.49092 6.53709C3.44602 6.5167 3.39309 6.53657 3.3727 6.58146L3.28624 6.77183C3.23179 6.70019 3.17437 6.62505 3.11392 6.54632L3.18318 6.28404C3.19577 6.23636 3.16733 6.18751 3.11965 6.17492Z" fill="#FFD018"/>
<path fill-rule="evenodd" clip-rule="evenodd" d="M3.72012 6.17492C3.7678 6.16233 3.81665 6.19077 3.82924 6.23845L3.86337 6.36771C3.86508 6.3655 3.86679 6.36328 3.86851 6.36106C3.89865 6.32204 3.95472 6.31483 3.99375 6.34497C4.03277 6.37511 4.03998 6.43119 4.00984 6.47021C3.98915 6.497 3.96874 6.52347 3.94861 6.54962L4.0515 6.64464C4.08773 6.67809 4.08998 6.73458 4.05653 6.77081C4.02307 6.80703 3.96659 6.80928 3.93036 6.77583L3.83944 6.69187C3.78515 6.76283 3.73313 6.83118 3.68343 6.89682L3.85459 6.98871C3.89804 7.01203 3.91435 7.06616 3.89102 7.10961C3.8677 7.15305 3.81357 7.16937 3.77013 7.14604L3.57464 7.04109C3.52774 7.10357 3.48327 7.16318 3.44129 7.21984L3.67602 7.34585C3.71946 7.36918 3.73578 7.42331 3.71245 7.46675C3.68913 7.5102 3.635 7.52651 3.59155 7.50319L3.33435 7.3651C3.26594 7.45869 3.20597 7.54214 3.15476 7.61489L3.31888 7.703C3.36232 7.72632 3.37863 7.78045 3.35531 7.82389C3.33199 7.86734 3.27786 7.88365 3.23441 7.86033L3.05277 7.76282C2.97723 7.87539 2.93812 7.94292 2.93812 7.96069C2.93812 8.01001 2.89814 8.04998 2.84883 8.04998C2.79952 8.04998 2.75955 8.01001 2.75955 7.96069C2.75955 7.9155 2.80656 7.82045 2.9048 7.66812C2.90338 7.66565 2.90207 7.66311 2.90088 7.6605L2.76876 7.36959C2.74837 7.3247 2.76824 7.27177 2.81313 7.25138C2.85803 7.23099 2.91096 7.25085 2.93135 7.29575L3.02161 7.49449C3.078 7.41333 3.14382 7.32145 3.2194 7.21831L3.12591 7.01245C3.10551 6.96755 3.12538 6.91463 3.17028 6.89424C3.21518 6.87384 3.2681 6.89371 3.28849 6.93861L3.34091 7.05401C3.36979 7.01527 3.39981 6.97522 3.43097 6.93382L3.30448 6.65531C3.28409 6.61041 3.30395 6.55748 3.34885 6.53709C3.39375 6.5167 3.44667 6.53657 3.46706 6.58146L3.55352 6.77183C3.60798 6.70019 3.6654 6.62505 3.72584 6.54632L3.65659 6.28404C3.644 6.23636 3.67244 6.18751 3.72012 6.17492Z" fill="#FFD018"/>
</g>
<defs>
<clipPath id="clip0_270_60781">
<rect width="20" height="15" fill="white"/>
</clipPath>
</defs>
</svg>
