<svg fill="none" height="15" viewBox="0 0 20 15" width="20" xmlns="http://www.w3.org/2000/svg"><path clip-rule="evenodd" d="m0 0h20v15h-20z" fill="#2e42a5" fill-rule="evenodd"/><path d="m9.59026 11.9852c.07177-.0727.18957 0 .18957 0s.34017-.2429.34017-.2827c0-.0397-.16403-.5213-.0259-.6882.1381-.1668 1.2588-.7519 1.3631-.7188.1042.0332.3637.546.4482.546s.3292.0114.3292-.0697-.0802-.4136.1757-.5721.4398-.33838.5809-.1902c.1411.1482.2021.0531.2021.0531s.0414-.20762-.0361-.26909c-.0775-.06148-.2374-.19758-.077-.28309.1605-.08552.2921-.06193.2921-.06193l.1091-.16808-.1091-.21305.5295-.60672-.0771-.14155s.1195-.07819.1395-.20225c.0199-.12407.0962-.20763-.0624-.27784-.1587-.07022-.2127.04281-.2664.07021s-.0738.10321-.0738.10321l-.0802-.17342s-.5144-.20108-.6964-.20108c-.1821 0-.3274.00295-.2439-.2536.0834-.25655.1854-.31572.1283-.3922-.057-.07647-.0834.07648-.2591-.04563-.1757-.1221-.5271-.16078-.5271-.35835 0-.19758-.3958-.89055-.552-.89055-.1561 0-.1893.05898-.1893.05898s-.7895-.19779-.7895-.26835c0-.07055.1252-.22411.1252-.22411s-.1373-.30827-.2664-.25673c-.129.05154-.37076.29308-.49585.29308s-.33529.01673-.33529.01673.46038.45686.33529.65719-.22538.34541-.22538.34541l-.15645-.00737-.33215.26023.14361.30078s-.23045.26319-.32171.26319c-.09127 0-.22185-.07815-.37007 0-.14821.07814-.30032.05913-.30032.05913s-.21614.13866-.21614.18857c0 .0499-.05135.16071-.05135.16071h-.22727l-.29582-.13122s-.40588.15628-.35706.32584.53276.30152.53276.30152l-.1388.20052s.06499.39514.20057.46517c.13559.07004.38751.50204.38751.50204l-.10189.123s.1757.07015.1757.21169c0 .14155.2102.17398.2102.17398l.18191-.04463.02348.08887.14521.05013.04573.06856s.72688.746.6659.8913c-.06097.1452.1043.4467.1043.4467l.10189.3528-.20619.2014s.18497.2853.25674.2125z" fill="#e8ab02"/><g clip-rule="evenodd" fill="#f7fcff" fill-rule="evenodd"><path d="m15.7794 4.59699-.5503.31219.1572-.63449-.5272-.46625h.6886l.2309-.60043.2708.60043h.5869l-.4612.46625.2218.63449z"/><path d="m13.5334 3.94025-.5503.31219.1572-.63449-.5271-.46625h.6885l.2309-.60043.2708.60043h.5869l-.4611.46625.2217.63449z"/><path d="m11.0585 3.44977-.5503.3122.1572-.6345-.5272-.46625h.6886l.2309-.60043.2708.60043h.5869l-.4612.46625.2218.6345z"/><path d="m3.95733 4.59699-.5503.31219.15717-.63449-.52715-.46625h.68853l.23092-.60043.27078.60043h.58695l-.46118.46625.22175.63449z"/><path d="m6.2033 3.94025-.5503.31219.15717-.63449-.52715-.46625h.68853l.23092-.60043.27078.60043h.58695l-.46118.46625.22175.63449z"/><path d="m8.67529 3.44977-.55031.3122.15717-.6345-.52715-.46625h.68853l.23093-.60043.27078.60043h.58695l-.46118.46625.22175.6345z"/></g></svg>