<svg xmlns="http://www.w3.org/2000/svg" xmlns:xlink="http://www.w3.org/1999/xlink" width="20" height="15" viewBox="0 0 20 15">
  <defs>
    <rect id="xk---kosovo-a" width="20" height="15" x="0" y="0"/>
  </defs>
  <g fill="none" fill-rule="evenodd">
    <mask id="xk---kosovo-b" fill="#fff">
      <use xlink:href="#xk---kosovo-a"/>
    </mask>
    <g mask="url(#xk---kosovo-b)">
      <rect width="20" height="15" fill="#2E42A5"/>
      <path fill="#E8AB02" fill-rule="nonzero" d="M9.59025555,11.9852175 C9.63810199,11.9367208 9.70129343,11.9367208 9.77982987,11.9852175 C10.0066217,11.8232433 10.1200177,11.7290073 10.1200177,11.7025096 C10.1200177,11.6627631 9.95596669,11.1811777 10.0940937,11.0143177 C10.2322206,10.8474577 11.3529323,10.2623849 11.4571843,10.2955423 C11.5614363,10.3286997 11.8209093,10.8415334 11.9054071,10.8415334 C11.9899049,10.8415334 12.2346033,10.852903 12.2346033,10.7717771 C12.2346033,10.6906512 12.1543743,10.3582048 12.4103048,10.1997056 C12.6662353,10.0412064 12.8500559,9.86132421 12.9911627,10.0095066 C13.085234,10.1082948 13.1526264,10.1259878 13.1933398,10.0625854 C13.2209319,9.92418361 13.2088975,9.83449026 13.1572368,9.79350535 C13.0797456,9.73202798 12.9197589,9.59593426 13.0802169,9.51041842 C13.1871889,9.45340785 13.2845334,9.4327661 13.3722505,9.44849315 L13.4813619,9.28041028 L13.3722505,9.06736204 L13.9017619,8.46063771 L13.824742,8.31909425 C13.9044132,8.26696416 13.950883,8.19954504 13.9641515,8.11683689 C13.9840542,7.99277467 14.0603751,7.90920796 13.9017619,7.83899564 C13.7431487,7.76878332 13.6891451,7.8818092 13.6354016,7.90920796 C13.5995726,7.9274738 13.574969,7.96187672 13.5615909,8.01241674 L13.4813619,7.83899564 C13.1384768,7.70494276 12.9063476,7.63791632 12.7849742,7.63791632 C12.6029141,7.63791632 12.4576399,7.64086514 12.5410781,7.38431761 C12.6245162,7.12777008 12.7264693,7.06859666 12.6694445,6.99212425 C12.6124197,6.91565185 12.5860063,7.06859666 12.4103048,6.94649084 C12.2346033,6.82438501 11.8832003,6.7857067 11.8832003,6.58813561 C11.8832003,6.39056452 11.4873911,5.69759131 11.3312248,5.69759131 C11.2271139,5.69759131 11.1640004,5.71725012 11.1418844,5.75656775 C10.6155821,5.62470617 10.352431,5.53525856 10.352431,5.48822493 C10.352431,5.4411913 10.3941501,5.3664878 10.4775883,5.26411444 C10.3860345,5.05860005 10.2972477,4.97302277 10.211228,5.00738261 C10.0821984,5.05892236 9.84044269,5.30046168 9.71534912,5.30046168 C9.63195341,5.30046168 9.52018889,5.30603887 9.38005558,5.31719324 C9.68698032,5.62176381 9.79874484,5.84082621 9.71534912,5.97438044 C9.63195341,6.10793466 9.5568268,6.22307211 9.4899693,6.31979279 L9.33352276,6.31242074 L9.00137471,6.57265429 L9.14498462,6.87343416 C8.99134996,7.04888908 8.88411053,7.13661654 8.82326634,7.13661654 C8.73200004,7.13661654 8.60141648,7.05847275 8.45320175,7.13661654 C8.35439193,7.1887124 8.25428632,7.20842433 8.15288494,7.19575233 C8.00878559,7.28819152 7.93673592,7.35104662 7.93673592,7.38431761 C7.93673592,7.4175886 7.9196204,7.47115887 7.88538936,7.54502842 L7.65811613,7.54502842 L7.3622963,7.41380583 C7.09171477,7.51799755 6.97269641,7.6266125 7.0052412,7.73965068 C7.03778599,7.85268887 7.21537153,7.95319456 7.5379978,8.04116775 L7.39920164,8.24168766 C7.44252529,8.50511578 7.50938279,8.66017468 7.59977413,8.70686437 C7.69016547,8.75355405 7.81933415,8.92089971 7.98728019,9.20890135 L7.88538936,9.33189851 C8.0025237,9.37866564 8.06109086,9.44923036 8.06109086,9.54359267 C8.06109086,9.63795498 8.13115752,9.69594848 8.27129084,9.71757318 L8.45320175,9.67293541 L8.47667707,9.76180551 L8.62189155,9.81193549 L8.66762208,9.8804956 C9.15220523,10.3778636 9.37417212,10.6749575 9.33352276,10.7717771 C9.2928734,10.8685968 9.3276393,11.0175123 9.43782046,11.2185237 L9.53971405,11.5713312 L9.33352276,11.772729 C9.45683151,11.9628846 9.54240911,12.0337141 9.59025555,11.9852175 Z"/>
      <polygon fill="#F7FCFF" points="15.779 4.597 15.229 4.909 15.386 4.275 14.859 3.808 15.548 3.808 15.779 3.208 16.049 3.808 16.636 3.808 16.175 4.275 16.397 4.909"/>
      <polygon fill="#F7FCFF" points="13.533 3.94 12.983 4.253 13.14 3.618 12.613 3.152 13.302 3.152 13.533 2.551 13.803 3.152 14.39 3.152 13.929 3.618 14.151 4.253"/>
      <polygon fill="#F7FCFF" points="11.059 3.45 10.508 3.762 10.665 3.127 10.138 2.661 10.827 2.661 11.058 2.061 11.328 2.661 11.915 2.661 11.454 3.127 11.676 3.762"/>
      <polygon fill="#F7FCFF" points="3.957 4.597 3.407 4.909 3.564 4.275 3.037 3.808 3.726 3.808 3.956 3.208 4.227 3.808 4.814 3.808 4.353 4.275 4.575 4.909"/>
      <polygon fill="#F7FCFF" points="6.203 3.94 5.653 4.253 5.81 3.618 5.283 3.152 5.972 3.152 6.202 2.551 6.473 3.152 7.06 3.152 6.599 3.618 6.821 4.253"/>
      <polygon fill="#F7FCFF" points="8.675 3.45 8.125 3.762 8.282 3.127 7.755 2.661 8.444 2.661 8.674 2.061 8.945 2.661 9.532 2.661 9.071 3.127 9.293 3.762"/>
    </g>
  </g>
</svg>
