<svg xmlns="http://www.w3.org/2000/svg" xmlns:xlink="http://www.w3.org/1999/xlink" width="32" height="24" viewBox="0 0 32 24">
  <defs>
    <rect id="af---afghanistan-a" width="32" height="24" x="0" y="0"/>
  </defs>
  <g fill="none" fill-rule="evenodd">
    <mask id="af---afghanistan-b" fill="#fff">
      <use xlink:href="#af---afghanistan-a"/>
    </mask>
    <g mask="url(#af---afghanistan-b)">
      <polygon fill="#67BD38" points="22 0 32 0 32 24 22 24"/>
      <polygon fill="#D51700" points="10 0 22 0 22 24 10 24"/>
      <polygon fill="#272727" points="0 0 10 0 10 24 0 24"/>
      <g transform="translate(10 6)">
        <path fill="#F7FCFF" fill-rule="nonzero" d="M0.943116424,4.92673821 C0.788691053,5.56259986 0.743161096,6.15015503 0.805588553,6.68949354 C0.880027496,6.69007636 0.964373776,6.68687896 1.06171779,6.68073943 C1.08939382,6.67899389 1.11578409,6.67738157 1.14099858,6.67591594 C1.07489209,6.18931784 1.09415287,5.67014583 1.19815204,5.11847037 C1.15323968,5.08350643 1.09928453,5.0430924 1.03366518,4.99472936 C1.00216369,4.971512 0.971999894,4.94888774 0.943116424,4.92673821 Z M1.09130879,4.40337831 C1.15314092,4.45948791 1.22877668,4.51959957 1.32140647,4.58829913 C1.54294638,3.78222975 1.93230681,2.91168219 2.48772892,1.97685355 L2.83372538,2.19400426 C2.25711641,3.16449243 1.86979462,4.05379268 1.66950272,4.86215797 C1.7542597,4.94033753 1.80736179,5.00883044 1.86160566,5.10278358 C2.01804763,5.37374901 2.14962454,5.63678298 2.25625513,5.8920048 L1.79640212,6.08778501 C1.72421571,5.91500581 1.63915975,5.73734902 1.54120231,5.55486151 C1.49434236,5.94921244 1.49756081,6.3218353 1.55054324,6.67276531 C1.63463972,6.68140045 1.70525732,6.69908084 1.78694399,6.72881236 C2.08095871,6.83582497 2.35082745,6.95274466 2.59656464,7.0797151 L2.3701419,7.52527926 C2.16064339,7.41703305 1.930538,7.31598035 1.67983707,7.22223383 C1.68148008,7.2272804 1.68313487,7.23232183 1.68480143,7.23735811 C1.89855185,7.88330276 2.2256528,8.47757971 2.6670312,9.02048199 C2.73600689,9.00562905 2.80027962,9 2.87539693,9 C3.18828087,9 3.48186342,9.01756803 3.7562073,9.05283415 L3.69583143,9.54896864 C3.5090929,9.52496393 3.31157876,9.50976114 3.10331405,9.50341218 C3.49996883,9.90030612 3.96558328,10.2663289 4.50059028,10.6016175 L4.28953183,10.9573651 C3.62605928,10.5415672 3.06139959,10.0779881 2.59625809,9.5668507 C2.53562967,9.59055812 2.46179819,9.62192763 2.36784899,9.66299038 C2.35594805,9.66819197 2.34417736,9.67329862 2.33253213,9.67830998 C2.73856019,10.1040246 3.21857848,10.4955303 3.77304684,10.8530073 L3.55761582,11.2059753 C2.91686091,10.7928676 2.36836633,10.3339943 1.91273929,9.82959349 C1.69524223,9.88543162 1.51185114,9.88424363 1.2972973,9.82129666 L1.43083374,9.34050191 C1.4630923,9.3499661 1.4946607,9.35697597 1.52634956,9.36146306 C1.10327367,8.79846237 0.78448575,8.18451618 0.570706275,7.51990687 C0.532950579,7.4025299 0.500609626,7.28302541 0.473674022,7.16139429 C0.307971006,7.12979142 0.168191239,7.06760433 0.0231154015,6.9608369 L0.313040103,6.55470978 C0.338073155,6.57313266 0.363269378,6.58938239 0.389249244,6.60362724 C0.337312831,5.9911378 0.408888335,5.32995965 0.602945487,4.62019147 C0.481415581,4.48030131 0.407081059,4.33531965 0.361292069,4.14675753 L0.786039407,4.03708563 C1.01497204,3.38875818 1.33875689,2.70273693 1.75668943,1.97908935 L2.10530541,2.19176845 C1.6495753,2.98086226 1.3119236,3.7180323 1.09130879,4.40337831 Z M0.897240576,7.18696772 C0.91476499,7.25521871 0.934226362,7.32260273 0.95562243,7.38912 C1.17693992,8.07716388 1.51947824,8.70812916 1.98421617,9.28239948 C2.04263406,9.26034274 2.10651842,9.23387724 2.17746532,9.20286819 C2.20649881,9.19017841 2.2340144,9.17822618 2.26017313,9.16697427 C1.83547153,8.61830393 1.51548963,8.01973942 1.30098673,7.37152078 C1.27891713,7.3048274 1.25869257,7.23743179 1.24031106,7.16933419 C1.19449909,7.17148951 1.14261313,7.17448377 1.08324887,7.1782279 C1.01744631,7.1823781 0.955634908,7.18537716 0.897240576,7.18696772 Z"/>
        <path fill="#F7FCFF" fill-rule="nonzero" d="M8.40257588,4.92673821 C8.24815051,5.56259986 8.20262056,6.15015503 8.26504801,6.68949354 C8.33948696,6.69007636 8.42383324,6.68687896 8.52117725,6.68073943 C8.54885328,6.67899389 8.57524355,6.67738157 8.60045804,6.67591594 C8.53435155,6.18931784 8.55361233,5.67014583 8.6576115,5.11847037 C8.61269914,5.08350643 8.55874399,5.0430924 8.49312464,4.99472936 C8.46162315,4.971512 8.43145935,4.94888774 8.40257588,4.92673821 Z M8.55076825,4.40337831 C8.61260038,4.45948791 8.68823614,4.51959957 8.78086593,4.58829913 C9.00240584,3.78222975 9.39176627,2.91168219 9.94718838,1.97685355 L10.2931848,2.19400426 C9.71657587,3.16449243 9.32925407,4.05379268 9.12896218,4.86215797 C9.21371916,4.94033753 9.26682125,5.00883044 9.32106512,5.10278358 C9.47750709,5.37374901 9.609084,5.63678298 9.71571459,5.8920048 L9.25586158,6.08778501 C9.18367517,5.91500581 9.09861921,5.73734902 9.00066177,5.55486151 C8.95380182,5.94921244 8.95702027,6.3218353 9.0100027,6.67276531 C9.09409918,6.68140045 9.16471678,6.69908084 9.24640344,6.72881236 C9.54041817,6.83582497 9.81028691,6.95274466 10.0560241,7.0797151 L9.82960136,7.52527926 C9.62010285,7.41703305 9.38999746,7.31598035 9.13929653,7.22223383 C9.14093954,7.2272804 9.14259433,7.23232183 9.14426089,7.23735811 C9.35801131,7.88330276 9.68511226,8.47757971 10.1264907,9.02048199 C10.1954663,9.00562905 10.2597391,9 10.3348564,9 C10.6477403,9 10.9413229,9.01756803 11.2156668,9.05283415 L11.1552909,9.54896864 C10.9685524,9.52496393 10.7710382,9.50976114 10.5627735,9.50341218 C10.9594283,9.90030612 11.4250427,10.2663289 11.9600497,10.6016175 L11.7489913,10.9573651 C11.0855187,10.5415672 10.5208591,10.0779881 10.0557176,9.5668507 C9.99508913,9.59055812 9.92125765,9.62192763 9.82730845,9.66299038 C9.81540751,9.66819197 9.80363682,9.67329862 9.79199159,9.67830998 C10.1980196,10.1040246 10.6780379,10.4955303 11.2325063,10.8530073 L11.0170753,11.2059753 C10.3763204,10.7928676 9.82782579,10.3339943 9.37219875,9.82959349 C9.15470169,9.88543162 8.9713106,9.88424363 8.75675676,9.82129666 L8.8902932,9.34050191 C8.92255176,9.3499661 8.95412016,9.35697597 8.98580902,9.36146306 C8.56273313,8.79846237 8.24394521,8.18451618 8.03016573,7.51990687 C7.99241004,7.4025299 7.96006909,7.28302541 7.93313348,7.16139429 C7.76743047,7.12979142 7.6276507,7.06760433 7.48257486,6.9608369 L7.77249956,6.55470978 C7.79753261,6.57313266 7.82272884,6.58938239 7.8487087,6.60362724 C7.79677229,5.9911378 7.86834779,5.32995965 8.06240495,4.62019147 C7.94087504,4.48030131 7.86654052,4.33531965 7.82075153,4.14675753 L8.24549887,4.03708563 C8.4744315,3.38875818 8.79821635,2.70273693 9.21614889,1.97908935 L9.56476487,2.19176845 C9.10903476,2.98086226 8.77138306,3.7180323 8.55076825,4.40337831 Z M8.35670004,7.18696772 C8.37422445,7.25521871 8.39368582,7.32260273 8.41508189,7.38912 C8.63639938,8.07716388 8.9789377,8.70812916 9.44367563,9.28239948 C9.50209352,9.26034274 9.56597788,9.23387724 9.63692478,9.20286819 C9.66595827,9.19017841 9.69347386,9.17822618 9.71963259,9.16697427 C9.29493099,8.61830393 8.97494909,8.01973942 8.76044619,7.37152078 C8.73837659,7.3048274 8.71815203,7.23743179 8.69977052,7.16933419 C8.65395854,7.17148951 8.60207259,7.17448377 8.54270833,7.1782279 C8.47690577,7.1823781 8.41509437,7.18537716 8.35670004,7.18696772 Z" transform="matrix(-1 0 0 1 19.446 0)"/>
        <path fill="#F7FCFF" d="M4.25304988,10.2640999 L3.13672804,11.3686988 C3.77849249,11.7617308 4.70414104,11.9582469 5.91367367,11.9582469 C7.1232063,11.9582469 8.08012952,11.7617308 8.78444333,11.3686988 L7.93585721,10.2640999 C7.16498763,10.5628445 6.50656379,10.7122169 5.96058568,10.7122169 C5.41460757,10.7122169 4.84542897,10.5628445 4.25304988,10.2640999 Z"/>
        <path stroke="#C00001" stroke-width=".5" d="M4.27635258,10.968986 C4.9064248,11.11766 5.46297089,11.1919969 5.94599083,11.1919969 C6.42901078,11.1919969 6.98555686,11.11766 7.61562909,10.968986"/>
        <path fill="#F7FCFF" fill-rule="nonzero" d="M4.72379555 4.4527027L4.77534714 4.4527027 5.03980514 4.25 6.89925484 4.25 7.2127354 4.4527027 7.3699163 4.4527027 7.3699163 2.86800455 7.85640279 2.86800455 7.85640279 4.4527027 8.02702703 4.4527027 8.02702703 4.72297297 7.85640279 4.72297297 7.85640279 7.59644617C7.85640279 7.76519482 8.03675032 8.05512237 8.41403894 8.43211137L8.8436308 8.86136207 2.86623472 8.86136207 3.85940155 8.38483145C4.04628588 8.29516263 4.17961612 8.03706477 4.23730907 7.58058945L4.23730907 4.72297297 3.81081081 4.72297297 3.81081081 4.4527027 4.23730907 4.4527027 4.23730907 2.86800455 4.72379555 2.86800455 4.72379555 4.4527027zM4.72379555 4.72297297L4.72379555 7.61200433C4.68652951 7.91853875 4.62105797 8.16425128 4.52313127 8.36136207L7.6935086 8.36136207C7.47948083 8.0796723 7.3699163 7.82819654 7.3699163 7.59644617L7.3699163 4.72297297 4.72379555 4.72297297zM6 4.25C5.50742171 4.25 5.10810811 3.89555876 5.10810811 3.45833333 5.10810811 3.02110791 5.50742171 2.66666667 6 2.66666667 6.49257829 2.66666667 6.89189189 3.02110791 6.89189189 3.45833333 6.89189189 3.89555876 6.49257829 4.25 6 4.25zM5.02702703 6L6.08108108 6 7.13513514 8.08333333 5.02702703 8.08333333 5.02702703 6zM6.48146323.394547627C6.48044361.391099717 6.47956293.38859821 6.47886806.387078215 6.47914476.387683485 6.47942843.388291652 6.47971908.388902592L6.48146323.394547627zM6.24271609.716275587C5.8881513 1.09783294 5.51754948 1.09783294 5.21508221.859758669 5.14143654.801791611 5.08872186.743469397 5.05765392.700351917L5.05162061.691378931C5.04190133.675861849 5.01999144.647040472 4.99098733.61882271 4.91426391.54417938 4.87599012.539219724 4.81093557.620817194 4.79656874.638837398 4.78188087.660611403 4.76702708.686302874 4.59979741.975547259 4.4658292 1.13980403 4.30730695 1.20960146 4.09194775 1.30442424 3.88944459 1.20212656 3.70871591.939794507 3.61746608.80734316 3.49655226.776319372 3.43269068.829417178 3.34449909.9027442 3.33863437 1.11718715 3.49543158 1.44064957 3.66882128 1.79834123 3.70178714 2.04352777 3.50793466 2.17239902 3.34762609 2.27897061 3.10376622 2.21861923 2.73010882 2.02896006L2.87372018 1.73008687C3.02412854 1.8064304 3.14531964 1.85561335 3.23479188 1.87775628 3.26977846 1.8864149 3.29552153 1.8900113 3.31166026 1.89149544 3.31134157 1.88808195 3.31092069 1.88435901 3.31037898 1.88033001 3.30163142 1.81526924 3.26686805 1.71663529 3.2051397 1.58929372 2.98823944 1.1418426 2.99863969.761558307 3.22870927.570266623 3.45192232.384675802 3.78202188.469371988 3.97340563.747170139 4.07574053.895711722 4.13202507.924144749 4.17959238.903200834 4.25370191.870570365 4.35512258.746219732 4.48821287.516023617 4.51110943.47642119 4.53503025.440959822 4.56007322.409548605 4.76549224.151892967 5.0162214.18438336 5.21394352.37674492 5.26174066.423246205 5.29739339.46921083 5.32030237.504631809 5.32371163.508997051 5.33021318.516856012 5.33955365.527190073 5.36039412.550247458 5.38486062.573537766 5.41227635.595116895 5.59109479.735866235 5.77603309.735866235 6.0081757.486050905 6.31139391.159749097 6.48844544.0389578952 6.65770202.122533129 6.75082409.16851479 6.78972001.253597234 6.80573415.367741107 6.81417419.427899152 6.81564473.478444523 6.81564473.601163246 6.81564473.691239301 6.79017261.787903154 6.74158186.917188765 6.7451109.916043858 6.74948176.912743475 6.75390146.909394974 6.99790991.724526467 7.04419015.573492539 6.98856499.441803076 6.9451474.39973945 6.91551925.366164703 6.8972818.337178888 6.88921382.324356005 6.88246016.311329462 6.87694599.295835897 6.86117816.251531847 6.85761539.205366244 6.88872263.15041858 6.93246092.0731594892 7.0048173.0563970533 7.06757975.07093582 7.08900491.0758989056 7.10563609.0836793717 7.1216411.0936000792 7.16829391.122517821 7.21866852.180810875 7.25737784.25027867 7.33550931.347544211 7.37989004.46817421 7.401964.611393274 7.40858257.654335481 7.41255264.689791886 7.4156175.735397686 7.43488959.681615055 7.45126965.618757787 7.46430179.549436466 7.46924803.523126144 7.4723324.504398578 7.47808188.467413247 7.48062166.451075354 7.48170678.444315909 7.48306789.436787767 7.48449582.429038613 7.48449582.429038613 7.48689798.418486288 7.49195199.397938143 7.49669952.383950633 7.51113545.362011077 7.52418465.343026504 7.52418465.343026504 7.55597681.316254233 7.60685595.28847102 7.60685595.28847102 7.68247555.292559845 7.78204444.351643662 7.78204444.351643662 7.79492712.388258143 7.80317724.407433694 7.80590313.420274801 7.8082307.437325588 7.80966019.447797448 7.81052875.458895169 7.81145463.475200261 7.81211298.486793993 7.81279787.501177502 7.81377836.523504047 7.81417704.532582202 7.81618006.579129423 7.81681635.593680163 7.81804119.62168978 7.81851498.650293916 7.81828993.679664612 7.81779566.744170444 7.81459654.803935022 7.80785591.879990199 7.88986425.799933877 8.01384364.819916283 8.15347609.896519121 8.29132996.972146216 8.37657526 1.08113799 8.41363725 1.21398354 8.42434635 1.25236937 8.43057424 1.28726229 8.43358294 1.32459924 8.4856079 1.26679208 8.53648575 1.17251724 8.58192358 1.04905587 8.62665782.927506252 8.70962284.604914087 8.70408324.621417788 8.71172543.598650022 8.7189399.581952818 8.73385534.561530595 8.76120248.524086887 8.79870725.49556077 8.85979514.493126672 8.93356509.490187247 8.9821866.529735561 9.00954837.579638719 9.0306117.618054612 9.03324555.639548065 9.03615355.701642724 9.03866848.755344064 9.03924629.83472733 9.03924629 1.04355089 9.03924629 1.4562289 9.10000723 1.75565974 9.17881199 1.87945609 9.17882154 1.87947108 9.24298509 1.87949354 9.37130265 1.87952347 9.37130265 2.20665371 9.09251499 2.35273338 8.90741262 2.06195148 8.82684236 1.93538166 8.76751474 1.73140562 8.73734346 1.46772487 8.68170584 1.54931206 8.61804805 1.61362854 8.54358762 1.65863551 8.38688976 1.7533502 8.30274101 1.78261793 8.20232717 1.71809598 8.13817973 1.67687738 8.11432608 1.61731263 8.108554 1.54816725 8.10620365 1.52001172 8.10661499 1.50547622 8.10955444 1.4485298 8.11320977 1.3777146 8.11173761 1.34120822 8.10187587 1.30585965 8.09689614 1.28801027 8.08968256 1.27171973 8.07927232 1.25655364 8.09142251 1.34852846 8.09189286 1.4140967 8.07303466 1.48078274 8.03768645 1.60578041 7.93666702 1.68163831 7.80034656 1.68163831 7.61179598 1.68163831 7.4917925 1.5705533 7.4600603 1.39041736 7.44990817 1.33278619 7.44680268 1.2855896 7.45084333 1.21040584 7.33456537 1.27602199 7.21486056 1.26866841 7.14365652 1.13888134 7.12517976 1.10520287 7.11498328 1.07604399 7.10864797 1.03409769 7.06212546 1.08291139 7.00811084 1.13090976 6.94634328 1.17770681 6.81483411 1.27734231 6.71759626 1.34197361 6.64488638 1.37728219 6.51779747 1.43899772 6.40233487 1.44513946 6.33239313 1.31424469 6.2910319 1.23683784 6.30068157 1.16963052 6.33557912 1.06437645 6.34482314 1.03649567 6.3561169 1.00621696 6.37140777.967547063 6.37953121.947003277 6.4085566.875093117 6.41144611.867869691 6.42235049.840610049 6.43108557.818253946 6.43904426.797078214 6.47401384.704034511 6.49132041.638358028 6.49132041.601163246 6.49132041.546298664 6.4909807.508429479 6.48989324.479336974 6.42779247.527367702 6.34552863.605636068 6.24271609.716275587zM8.05581057 1.08296237C8.05612659 1.08087758 8.05635041 1.07897109 8.05649879 1.07723808 8.05644044 1.07791955 8.05638768 1.07866149 8.05634093 1.07946313L8.05581057 1.08296237zM9.01015018.734686004C9.01067551.733175183 9.01119273.731656832 9.01170698.730124775 9.0115005.730739908 9.01126174.731488987 9.01099196.73236684L9.01015018.734686004zM8.71179108.707084489C8.71145816.703200451 8.71114583.700089608 8.71086419.697791293 8.71096791.698637763 8.71107268.69948033 8.71117879.70031947L8.71179108.707084489zM7.79840437 1.34835531C7.80025296 1.34832248 7.80216843 1.34830498 7.80415325 1.34830498 7.80333318 1.34830498 7.80239197 1.34842324 7.80134055 1.3486542L7.79840437 1.34835531zM7.17150681.159200697C7.17087939.158179862 7.1702518.157171063 7.16962397.156173226 7.16984491.156524367 7.17031996.157155448 7.17104386.158055078L7.17150681.159200697z"/>
        <path fill="#F7FCFF" fill-rule="nonzero" d="M3.43139219,5.74763395 C3.3058289,5.79957628 3.20742123,5.90831377 3.13616919,6.0738464 C3.03233516,6.31507344 2.96052335,6.64776793 2.92073374,7.07192987 L2.34851082,6.70444084 C2.47623326,6.40650323 2.54009448,6.07569156 2.54009448,5.71200584 C2.54009448,5.39451302 2.69151849,5.19255908 2.99436649,5.106144 L2.79362734,4.81148823 L2.99288212,4.66809643 L4.52643075,6.91912204 L4.32717598,7.06251383 L3.43139219,5.74763395 Z"/>
        <path fill="#F7FCFF" fill-rule="nonzero" d="M8.62058138,5.74763395 C8.49501808,5.79957628 8.39661042,5.90831377 8.32535838,6.0738464 C8.22152435,6.31507344 8.14971254,6.64776793 8.10992293,7.07192987 L7.53770001,6.70444084 C7.66542245,6.40650323 7.72928367,6.07569156 7.72928367,5.71200584 C7.72928367,5.39451302 7.88070768,5.19255908 8.18355568,5.106144 L7.98281653,4.81148823 L8.18207131,4.66809643 L9.71561994,6.91912204 L9.51636517,7.06251383 L8.62058138,5.74763395 Z" transform="matrix(-1 0 0 1 17.253 0)"/>
      </g>
    </g>
  </g>
</svg>
