<svg xmlns="http://www.w3.org/2000/svg" xmlns:xlink="http://www.w3.org/1999/xlink" width="32" height="24" viewBox="0 0 32 24">
  <defs>
    <rect id="a" width="32" height="24"/>
    <rect id="c" width="32" height="24"/>
  </defs>
  <g fill="none" fill-rule="evenodd">
    <mask id="b" fill="white">
      <use xlink:href="#a"/>
    </mask>
    <g mask="url(#b)">
      <mask id="d" fill="white">
        <use xlink:href="#c"/>
      </mask>
      <g mask="url(#d)">
        <polygon fill="#F50100" points="0 0 32 0 32 24 0 24"/>
        <path fill="#1A1A1A" d="M7.53860664,4.22363876 C7.64920326,4.1811702 7.83726526,3.98550906 8.10279264,3.63665533 C8.61769348,2.96017114 7.88854222,1.96273922 8.80650839,1.96273922 C9.72447457,1.96273922 10.1309044,1.39595919 10.6149865,1.67934921 C11.0990687,1.96273922 11.6835471,1.96273922 11.4827546,1.96273922 C11.2819621,1.96273922 10.5606165,2.37349888 11.1184481,2.37349888 C11.6762798,2.37349888 12.310418,1.55197957 12.310418,1.96273922 C12.4161842,2.27186054 12.3413941,2.43815032 12.0860478,2.46160855 C10.9338911,2.57419715 10.4703911,2.65580884 10.695548,2.70644364 C10.900529,2.79092609 11.0731889,2.83573734 11.2135278,2.84087737 C11.2742537,3.05435279 11.1179278,3.19064568 10.7445501,3.24975606 C9.68930701,3.44567881 9.13754381,3.71317925 9.0892605,4.05225739 C9.01683554,4.56087459 8.51677612,5.70704727 9.0892605,5.70704727 C9.66174488,5.70704727 10.0334619,5.31498305 10.0334619,4.87444394 C10.0334619,4.43390484 10.1111778,3.68975151 10.6149865,3.65352363 C11.4406818,3.37472136 11.9047128,3.24488943 12.0070793,3.26402786 C12.1606292,3.29273549 11.8851199,3.51263594 12.310418,3.51263594 C12.7357161,3.51263594 13.9681302,2.49090775 14.1621309,2.08512848 C14.3561317,1.67934921 14.6474674,2.08512848 14.6474674,2.08512848 C14.6474674,2.08512848 14.834999,3.22105328 13.8586004,3.63665533 C13.2076681,3.91372337 12.6916073,4.05225739 12.310418,4.05225739 C11.9045001,4.35076207 11.82971,4.50001441 12.0860478,4.50001441 C12.4705545,4.50001441 13.2910237,4.65774234 13.8586004,4.35499986 C14.4261772,4.05225739 14.6474674,3.88296857 14.6474674,4.05225739 C14.6474674,4.2215462 14.6510366,5.17111681 13.997353,5.17111681 C13.3436694,5.17111681 12.5347882,5.17111681 12.310418,5.17111681 C12.0860478,5.17111681 11.5546836,5.49075577 12.4373163,5.70704727 C13.3199491,5.92333876 13.6044438,5.83295074 13.997353,5.70704727 C14.3902621,5.5811438 14.6474674,5.50962079 14.6474674,5.70704727 C14.6474674,5.90447375 14.1085186,6.64308009 13.6454153,6.64308009 C13.1823119,6.64308009 12.6686449,6.23305309 12.4373163,6.23305309 C12.2059877,6.23305309 11.9661079,6.64308009 12.0860478,6.64308009 C12.2059877,6.64308009 12.6038045,7.23823029 13.1246099,7.23823029 C13.6454153,7.23823029 13.9578687,7.04539703 14.3026681,7.04539703 C14.6474674,7.04539703 14.6474674,6.97370998 14.6474674,7.23823029 C14.6474674,7.50275061 13.9595046,7.79458418 13.6454153,7.79458418 C13.3313259,7.79458418 12.0070793,7.03694879 12.0070793,7.23823029 C12.0070793,7.4395118 12.836769,8.52203556 13.3476847,8.52203556 C13.8586004,8.52203556 13.9578687,8.52203556 14.3026681,8.52203556 C14.5325343,8.52203556 14.601861,8.66797969 14.5106482,8.95986794 C14.2880691,9.15764985 14.038597,9.25654081 13.7622321,9.25654081 C13.3476847,9.25654081 12.9405731,8.83765546 12.6889447,8.67984551 C12.4373163,8.52203556 12.0860478,8.39982307 12.0860478,8.67984551 C12.0860478,8.95986794 12.8791532,10.0786453 13.5206421,10.0786453 C14.1621309,10.0786453 14.6474674,9.82052273 14.6474674,10.0786453 C14.6474674,10.336768 14.3492907,10.9114127 13.997353,10.784443 C13.6454153,10.6574732 12.5347882,10.2592574 12.310418,9.83627091 C12.0860478,9.41328447 11.6758875,9.59389648 11.8414834,9.83627091 C12.0070793,10.0786453 12.8791532,11.3320205 13.5206421,11.4488196 C14.1621309,11.5656186 14.7842866,11.5353526 14.6474674,11.8126683 C14.5106482,12.089984 13.9431458,12.477455 13.6454153,12.3554066 C13.3476847,12.2333581 12.3306122,11.2983916 12.0860478,10.908624 C11.8414834,10.5188564 11.2135278,9.77262199 11.2135278,10.0786453 C11.2135278,10.3846687 10.9584299,11.2199787 11.4827546,11.3343992 C12.0070793,11.4488196 12.2833203,11.9535817 12.0070793,11.9535817 C11.7308383,11.9535817 10.7445501,11.7171129 10.7445501,11.0915326 C10.7445501,10.4659523 10.2985492,10.1147349 10.2985492,10.2903436 C10.2985492,10.4659523 10.2534881,10.9947469 10.4990191,11.3343992 C10.7445501,11.6740514 10.3966277,11.9512851 10.2985492,11.8126683 C10.2004706,11.6740514 9.78012326,11.032805 9.78012326,10.908624 C9.78012326,10.784443 9.63177849,10.4929375 9.45740833,10.4929375 C9.28303817,10.4929375 9.24801542,10.7968283 9.57429954,11.4488196 C9.90058367,12.1008109 10.7050659,12.6221415 10.9592968,12.6221415 C11.1287841,12.6221415 11.1287841,12.8170253 10.9592968,13.2067929 L12.6889447,13.654796 C13.1281047,13.4284158 13.3476847,13.2790814 13.3476847,13.2067929 C13.3476847,13.0983601 13.6920379,12.8340858 13.997353,12.8340858 C14.3026681,12.8340858 14.3269089,13.2067929 14.1621309,13.2067929 C13.997353,13.2067929 13.6935994,13.4923928 13.5206421,13.4923928 C13.4053372,13.4923928 13.1714556,13.6156716 12.8189974,13.8622291 L13.997353,13.8622291 C13.8715883,13.7239403 13.97336,13.654796 14.3026681,13.654796 C14.7966301,13.654796 15,13.8622291 15,13.8622291 C15,13.8622291 14.4432052,14.188922 14.3026681,14.188922 C14.1621309,14.188922 13.8763721,14.3030143 13.3476847,14.188922 C12.9952265,14.1128604 13.1334089,14.1919021 13.7622321,14.426047 C13.715436,14.1174263 13.7938096,14.1174263 13.997353,14.426047 C14.3026681,14.888978 14.3492907,15.0331724 13.997353,15.0331724 C13.6454153,15.0331724 13.3476847,14.9260519 13.3476847,14.6760494 C13.3476847,14.5093811 13.1281047,14.3470053 12.6889447,14.188922 L11.8414834,14.6760494 C11.9469894,14.8570989 11.9135777,14.9761399 11.7412485,15.0331724 C11.4827546,15.1187211 11.1184481,14.9930399 11.1184481,14.9074911 C11.1184481,14.8219424 11.2039297,14.426047 11.4235135,14.426047 C11.5699027,14.426047 11.8655375,14.3051179 12.310418,14.0632596 L10.695548,13.580794 C10.3939661,13.9024378 10.1936025,14.0632596 10.0944573,14.0632596 C9.94573948,14.0632596 9.51634537,12.8888764 9.25172307,12.6221415 C8.98710077,12.3554066 8.82034741,11.803603 8.51421309,12.0235892 C8.20807877,12.2435755 8.08649828,12.921526 8.51421309,13.4923928 C8.9419279,14.0632596 9.68202399,14.5142722 9.88824063,14.5142722 C10.0944573,14.5142722 10.4990191,14.5337063 10.4990191,14.6760494 C10.4990191,14.8183926 10.3190729,15.4013302 9.88824063,15.1544107 C9.45740833,14.9074911 8.99684064,14.6112461 8.93141556,14.6760494 C8.86599047,14.7408528 9.13531478,15.4750171 9.51177771,15.6502133 C9.88824063,15.8254095 10.203208,15.5725624 10.203208,15.8806098 C10.203208,16.1886572 9.93718708,16.5319736 9.45740833,16.2062917 C8.97762958,15.8806098 8.68751568,15.3211601 8.60086438,15.5369971 C8.51421309,15.752834 8.55098951,16.5961023 8.93141556,16.5961023 C9.3118416,16.5961023 9.57429954,16.542495 9.57429954,16.6911654 C9.57429954,16.8398358 9.48653841,17.4736392 9.0892605,17.220755 C8.69198258,16.9678709 8.40146565,16.6526363 8.33046533,16.429464 C8.25946501,16.2062917 7.83543936,16.4286489 7.969116,16.7424387 C8.10279264,17.0562284 8.4275618,17.6886982 8.51421309,17.6886982 C8.57198062,17.6886982 8.23623485,18.3257988 7.50697577,19.6 L7.5,17.2468561 L7.49302423,19.6 C6.76376515,18.3257988 6.42801938,17.6886982 6.48578691,17.6886982 C6.5724382,17.6886982 6.89720736,17.0562284 7.030884,16.7424387 C7.16456064,16.4286489 6.74053499,16.2062917 6.66953467,16.429464 C6.59853435,16.6526363 6.30801742,16.9678709 5.9107395,17.220755 C5.51346159,17.4736392 5.42570046,16.8398358 5.42570046,16.6911654 C5.42570046,16.542495 5.6881584,16.5961023 6.06858444,16.5961023 C6.44901049,16.5961023 6.48578691,15.752834 6.39913562,15.5369971 C6.31248432,15.3211601 6.02237042,15.8806098 5.54259167,16.2062917 C5.06281292,16.5319736 4.79679199,16.1886572 4.79679199,15.8806098 C4.79679199,15.5725624 5.11175937,15.8254095 5.48822229,15.6502133 C5.86468522,15.4750171 6.13400953,14.7408528 6.06858444,14.6760494 C6.00315936,14.6112461 5.54259167,14.9074911 5.11175937,15.1544107 C4.68092706,15.4013302 4.50098091,14.8183926 4.50098091,14.6760494 C4.50098091,14.5337063 4.90554272,14.5142722 5.11175937,14.5142722 C5.31797601,14.5142722 6.0580721,14.0632596 6.48578691,13.4923928 C6.91350172,12.921526 6.79192123,12.2435755 6.48578691,12.0235892 C6.17965259,11.803603 6.01289923,12.3554066 5.74827693,12.6221415 C5.48365463,12.8888764 5.05426052,14.0632596 4.90554272,14.0632596 C4.80639752,14.0632596 4.60603394,13.9024378 4.30445199,13.580794 L2.689582,14.0632596 C3.1344625,14.3051179 3.43009734,14.426047 3.57648653,14.426047 C3.79607031,14.426047 3.88155187,14.8219424 3.88155187,14.9074911 C3.88155187,14.9930399 3.5172454,15.1187211 3.25875152,15.0331724 C3.08642228,14.9761399 3.05301062,14.8570989 3.15851657,14.6760494 L2.31105527,14.188922 C1.87189529,14.3470053 1.65231529,14.5093811 1.65231529,14.6760494 C1.65231529,14.9260519 1.35458475,15.0331724 1.00264702,15.0331724 C0.650709289,15.0331724 0.697331929,14.888978 1.00264702,14.426047 C1.20619041,14.1174263 1.28456404,14.1174263 1.23776789,14.426047 C1.86659106,14.1919021 2.00477353,14.1128604 1.65231529,14.188922 C1.12362794,14.3030143 0.837869074,14.188922 0.697331929,14.188922 C0.556794784,14.188922 0,13.8622291 0,13.8622291 C0,13.8622291 0.20336989,13.654796 0.697331929,13.654796 C1.02663996,13.654796 1.12841165,13.7239403 1.00264702,13.8622291 L2.18100265,13.8622291 C1.82854441,13.6156716 1.59466284,13.4923928 1.47935794,13.4923928 C1.30640058,13.4923928 1.00264702,13.2067929 0.837869074,13.2067929 C0.673091131,13.2067929 0.697331929,12.8340858 1.00264702,12.8340858 C1.30796211,12.8340858 1.65231529,13.0983601 1.65231529,13.2067929 C1.65231529,13.2790814 1.87189529,13.4284158 2.31105527,13.654796 L4.04070317,13.2067929 C3.87121587,12.8170253 3.87121587,12.6221415 4.04070317,12.6221415 C4.29493413,12.6221415 5.09941633,12.1008109 5.42570046,11.4488196 C5.75198458,10.7968283 5.71696183,10.4929375 5.54259167,10.4929375 C5.36822151,10.4929375 5.21987674,10.784443 5.21987674,10.908624 C5.21987674,11.032805 4.7995294,11.6740514 4.70145083,11.8126683 C4.60337226,11.9512851 4.25544988,11.6740514 4.50098091,11.3343992 C4.74651195,10.9947469 4.70145083,10.4659523 4.70145083,10.2903436 C4.70145083,10.1147349 4.25544988,10.4659523 4.25544988,11.0915326 C4.25544988,11.7171129 3.26916168,11.9535817 2.99292068,11.9535817 C2.71667968,11.9535817 2.99292068,11.4488196 3.5172454,11.3343992 C4.04157011,11.2199787 3.78647222,10.3846687 3.78647222,10.0786453 C3.78647222,9.77262199 3.15851657,10.5188564 2.91395219,10.908624 C2.66938781,11.2983916 1.65231529,12.2333581 1.35458475,12.3554066 C1.0568542,12.477455 0.489351826,12.089984 0.352532595,11.8126683 C0.215713364,11.5353526 0.837869074,11.5656186 1.47935794,11.4488196 C2.1208468,11.3320205 2.99292068,10.0786453 3.15851657,9.83627091 C3.32411245,9.59389648 2.91395219,9.41328447 2.689582,9.83627091 C2.46521182,10.2592574 1.35458475,10.6574732 1.00264702,10.784443 C0.650709289,10.9114127 0.352532595,10.336768 0.352532595,10.0786453 C0.352532595,9.82052273 0.837869074,10.0786453 1.47935794,10.0786453 C2.1208468,10.0786453 2.91395219,8.95986794 2.91395219,8.67984551 C2.91395219,8.39982307 2.56268369,8.52203556 2.31105527,8.67984551 C2.05942686,8.83765546 1.65231529,9.25654081 1.23776789,9.25654081 C0.96140296,9.25654081 0.711930938,9.15764985 0.489351826,8.95986794 C0.398139005,8.66797969 0.467465706,8.52203556 0.697331929,8.52203556 C1.04213126,8.52203556 1.14139956,8.52203556 1.65231529,8.52203556 C2.16323102,8.52203556 2.99292068,7.4395118 2.99292068,7.23823029 C2.99292068,7.03694879 1.66867411,7.79458418 1.35458475,7.79458418 C1.04049538,7.79458418 0.352532595,7.50275061 0.352532595,7.23823029 C0.352532595,6.97370998 0.352532595,7.04539703 0.697331929,7.04539703 C1.04213126,7.04539703 1.35458475,7.23823029 1.87539012,7.23823029 C2.3961955,7.23823029 2.79401229,6.64308009 2.91395219,6.64308009 C3.03389209,6.64308009 2.79401229,6.23305309 2.56268369,6.23305309 C2.33135508,6.23305309 1.8176881,6.64308009 1.35458475,6.64308009 C0.891481393,6.64308009 0.352532595,5.90447375 0.352532595,5.70704727 C0.352532595,5.50962079 0.609737878,5.5811438 1.00264702,5.70704727 C1.39555616,5.83295074 1.68005093,5.92333876 2.56268369,5.70704727 C3.44531644,5.49075577 2.91395219,5.17111681 2.689582,5.17111681 C2.46521182,5.17111681 1.65633064,5.17111681 1.00264702,5.17111681 C0.348963398,5.17111681 0.352532595,4.2215462 0.352532595,4.05225739 C0.352532595,3.88296857 0.57382283,4.05225739 1.14139956,4.35499986 C1.7089763,4.65774234 2.52944554,4.50001441 2.91395219,4.50001441 C3.17028996,4.50001441 3.0954999,4.35076207 2.689582,4.05225739 C2.30839274,4.05225739 1.79233193,3.91372337 1.14139956,3.63665533 C0.165001018,3.22105328 0.352532595,2.08512848 0.352532595,2.08512848 C0.352532595,2.08512848 0.643868327,1.67934921 0.837869074,2.08512848 C1.03186982,2.49090775 2.26428392,3.51263594 2.689582,3.51263594 C3.11488009,3.51263594 2.83937084,3.29273549 2.99292068,3.26402786 C3.09528724,3.24488943 3.55931817,3.37472136 4.38501345,3.65352363 C4.88882224,3.68975151 4.96653809,4.43390484 4.96653809,4.87444394 C4.96653809,5.31498305 5.33825512,5.70704727 5.9107395,5.70704727 C6.48322388,5.70704727 5.98316446,4.56087459 5.9107395,4.05225739 C5.86245619,3.71317925 5.31069299,3.44567881 4.25544988,3.24975606 C3.88207218,3.19064568 3.7257463,3.05435279 3.78647222,2.84087737 C3.92681108,2.83573734 4.099471,2.79092609 4.30445199,2.70644364 C4.52960885,2.65580884 4.06610892,2.57419715 2.91395219,2.46160855 C2.65860586,2.43815032 2.5838158,2.27186054 2.689582,1.96273922 C2.689582,1.55197957 3.3237202,2.37349888 3.88155187,2.37349888 C4.43938354,2.37349888 3.71803788,1.96273922 3.5172454,1.96273922 C3.31645291,1.96273922 3.9009313,1.96273922 4.38501345,1.67934921 C4.8690956,1.39595919 5.27552543,1.96273922 6.19349161,1.96273922 C7.11145778,1.96273922 6.38230652,2.96017114 6.89720736,3.63665533 C7.16273474,3.98550906 7.35079674,4.1811702 7.46139336,4.22363876 L7.46138716,4.2215462 C7.46413394,4.22353496 7.46701805,4.22525213 7.47003949,4.22669772 C7.4808204,4.2301738 7.49080724,4.23207955 7.5,4.23241498 C7.50919276,4.23207955 7.5191796,4.2301738 7.52996051,4.22669772 C7.53298195,4.22525213 7.53586606,4.22353496 7.53861284,4.2215462 L7.53860664,4.22363876 Z" transform="translate(9 2)"/>
      </g>
    </g>
  </g>
</svg>
