<svg width="32" height="24" viewBox="0 0 32 24" fill="none" xmlns="http://www.w3.org/2000/svg">
<g clip-path="url(#clip0_270_67491)">
<rect width="32" height="24" fill="white"/>
<path fill-rule="evenodd" clip-rule="evenodd" d="M0 0H32V24H0V0Z" fill="#2E42A5"/>
<path fill-rule="evenodd" clip-rule="evenodd" d="M9 0H29V24L9 0Z" fill="#FECA00"/>
<path fill-rule="evenodd" clip-rule="evenodd" d="M6.10805 2.79376L4.93248 3.4118L5.15699 2.10278L4.20593 1.17573L5.52026 0.984745L6.10805 -0.206238L6.69583 0.984745L8.01016 1.17573L7.0591 2.10278L7.28362 3.4118L6.10805 2.79376Z" fill="#F7FCFF"/>
<path fill-rule="evenodd" clip-rule="evenodd" d="M9.59474 7.07391L8.41917 7.69195L8.64368 6.38293L7.69263 5.45588L9.00695 5.2649L9.59474 4.07391L10.1825 5.2649L11.4969 5.45588L10.5458 6.38293L10.7703 7.69195L9.59474 7.07391Z" fill="#F7FCFF"/>
<path fill-rule="evenodd" clip-rule="evenodd" d="M12.8634 11.2384L11.6878 11.8564L11.9124 10.5474L10.9613 9.62037L12.2756 9.42939L12.8634 8.2384L13.4512 9.42939L14.7655 9.62037L13.8145 10.5474L14.039 11.8564L12.8634 11.2384Z" fill="#F7FCFF"/>
<path fill-rule="evenodd" clip-rule="evenodd" d="M16.0653 15.2292L14.8898 15.8473L15.1143 14.5383L14.1632 13.6112L15.4775 13.4202L16.0653 12.2292L16.6531 13.4202L17.9674 13.6112L17.0164 14.5383L17.2409 15.8473L16.0653 15.2292Z" fill="#F7FCFF"/>
<path fill-rule="evenodd" clip-rule="evenodd" d="M19.5144 19.3368L18.3388 19.9548L18.5634 18.6458L17.6123 17.7188L18.9266 17.5278L19.5144 16.3368L20.1022 17.5278L21.4165 17.7188L20.4655 18.6458L20.69 19.9548L19.5144 19.3368Z" fill="#F7FCFF"/>
<path fill-rule="evenodd" clip-rule="evenodd" d="M23.3269 23.311L22.1513 23.9291L22.3759 22.6201L21.4248 21.693L22.7391 21.502L23.3269 20.311L23.9147 21.502L25.229 21.693L24.278 22.6201L24.5025 23.9291L23.3269 23.311Z" fill="#F7FCFF"/>
</g>
<defs>
<clipPath id="clip0_270_67491">
<rect width="32" height="24" fill="white"/>
</clipPath>
</defs>
</svg>
