<svg width="32" height="24" viewBox="0 0 32 24" fill="none" xmlns="http://www.w3.org/2000/svg">
<g clip-path="url(#clip0_270_67362)">
<rect width="32" height="24" fill="white"/>
<path fill-rule="evenodd" clip-rule="evenodd" d="M0 0V24H32V0H0Z" fill="#0168B4"/>
<mask id="mask0_270_67362" style="mask-type:luminance" maskUnits="userSpaceOnUse" x="0" y="0" width="32" height="24">
<path fill-rule="evenodd" clip-rule="evenodd" d="M0 0V24H32V0H0Z" fill="white"/>
</mask>
<g mask="url(#mask0_270_67362)">
<path fill-rule="evenodd" clip-rule="evenodd" d="M0 0V3H32V0H0Z" fill="#E93C43"/>
<path fill-rule="evenodd" clip-rule="evenodd" d="M0 21V24H32V21H0Z" fill="#E93C43"/>
<path d="M16 18C12.6863 18 10 15.3137 10 12C10 8.68629 12.6863 6 16 6C19.3137 6 22 8.68629 22 12C22 15.3137 19.3137 18 16 18Z" fill="#F7FCFF"/>
<path d="M16 20C11.5817 20 8 16.4183 8 12C8 7.58172 11.5817 4 16 4C20.4183 4 24 7.58172 24 12C24 16.4183 20.4183 20 16 20Z" fill="white"/>
<path fill-rule="evenodd" clip-rule="evenodd" d="M16 19C19.866 19 23 15.866 23 12C23 8.13401 19.866 5 16 5C12.134 5 9 8.13401 9 12C9 15.866 12.134 19 16 19Z" stroke="#9C4C17" stroke-width="0.5"/>
<path fill-rule="evenodd" clip-rule="evenodd" d="M15.5729 4.08282L15.4176 4.41772C15.6738 4.5568 15.7709 4.87158 15.7709 5.06228C15.7709 5.251 15.6708 5.39496 15.4176 5.52716L15.5729 5.87333C15.679 5.81793 15.7839 5.77133 15.883 5.72726C16.2387 5.56927 16.5209 5.4439 16.5209 5.06228C16.5209 4.59597 16.0934 4.36457 15.6318 4.11475L15.5729 4.08282ZM17.8133 4.29268L17.5718 4.57181C17.7796 4.7761 17.7863 5.10547 17.7337 5.28877C17.6817 5.47019 17.5457 5.58096 17.266 5.63827L17.3198 6.01382C17.437 5.98981 17.5507 5.97392 17.6582 5.95891C18.0436 5.90507 18.3495 5.86234 18.4546 5.4955C18.5832 5.04726 18.236 4.70698 17.8611 4.3396L17.8133 4.29268ZM19.6082 5.32238L19.9207 5.12606L19.9528 5.18491C20.2038 5.64583 20.4364 6.07276 20.1824 6.46384C19.9745 6.78389 19.6696 6.73533 19.2852 6.67413C19.1781 6.65706 19.0647 6.63901 18.9456 6.6277L19.0039 6.25283C19.2882 6.27982 19.4506 6.21363 19.5534 6.05536C19.6573 5.89543 19.7472 5.57852 19.6082 5.32238ZM21.6917 6.5151L21.3371 6.61765C21.4001 6.9022 21.2263 7.18204 21.0824 7.30714C20.94 7.43096 20.7656 7.44982 20.4998 7.34551L20.3404 7.68978C20.4518 7.73349 20.5558 7.78208 20.6541 7.82803L20.6541 7.82804C21.0066 7.9928 21.2864 8.12354 21.5744 7.87318C21.9264 7.56725 21.8205 7.09277 21.7062 6.5805L21.6917 6.5151ZM22.6314 8.3462L23.0005 8.34536L22.9964 8.41224C22.9651 8.93616 22.9361 9.42144 22.5135 9.61851C22.1676 9.77979 21.9347 9.577 21.6412 9.32144C21.5593 9.25016 21.4728 9.17479 21.3777 9.10206L21.6259 8.81507C21.8526 8.98861 22.0254 9.01854 22.1965 8.93878C22.3693 8.85819 22.6135 8.6371 22.6314 8.3462ZM23.7511 10.4835L23.3978 10.3764C23.2958 10.6494 22.9976 10.7894 22.8087 10.8159C22.6218 10.8422 22.4653 10.7631 22.2992 10.5308L21.978 10.7327C22.0476 10.83 22.1084 10.9274 22.1658 11.0195C22.3718 11.3497 22.5352 11.6118 22.9131 11.5586C23.3749 11.4937 23.5445 11.0382 23.7277 10.5463L23.7511 10.4835ZM23.5514 12.531L23.8614 12.7313L23.8216 12.7852C23.51 13.2076 23.2213 13.5987 22.7596 13.5338C22.3816 13.4807 22.2968 13.1838 22.1898 12.8096C22.16 12.7053 22.1284 12.5949 22.0883 12.4822L22.4527 12.3766C22.5484 12.6457 22.6771 12.7649 22.8639 12.7911C23.0528 12.8177 23.378 12.7653 23.5514 12.531ZM23.3355 14.9361L23.0976 14.6538C22.8633 14.8272 22.537 14.7822 22.3641 14.7016C22.1931 14.6219 22.105 14.4703 22.0921 14.185L21.7128 14.1794C21.7182 14.2989 21.7161 14.4137 21.7141 14.5222C21.707 14.9113 21.7013 15.2201 22.0472 15.3814C22.4698 15.5784 22.8602 15.2887 23.2817 14.976L23.3355 14.9361ZM22.0609 16.5496L22.2118 16.8865L22.1491 16.91C21.6577 17.0945 21.2025 17.2654 20.8506 16.9594C20.5626 16.7091 20.6531 16.4138 20.7672 16.0417C20.7991 15.938 20.8327 15.8282 20.8605 15.7118L21.2236 15.8218C21.1573 16.0996 21.2002 16.2696 21.3427 16.3934C21.4866 16.5185 21.7879 16.6517 22.0609 16.5496ZM20.5857 18.4421L20.5334 18.0767C20.2429 18.0995 19.99 17.8885 19.8861 17.7285C19.7833 17.5702 19.7889 17.395 19.9292 17.1462L19.6105 16.9405C19.5517 17.0447 19.4891 17.1409 19.4299 17.2319C19.2177 17.5581 19.0493 17.8169 19.2571 18.137C19.5111 18.5281 19.9957 18.4893 20.5189 18.4474L20.5857 18.4421ZM18.6323 19.124L18.5754 19.4887L18.51 19.4743C17.9974 19.3614 17.5226 19.2568 17.3941 18.8086C17.2889 18.4417 17.5256 18.2434 17.824 17.9935C17.9072 17.9238 17.9952 17.8501 18.0819 17.7676L18.3265 18.0576C18.1196 18.2544 18.063 18.4204 18.115 18.6018C18.1676 18.7851 18.3478 19.0609 18.6323 19.124ZM16.3657 19.9171L16.5209 19.5822C16.2648 19.4432 16.1676 19.1284 16.1676 18.9377C16.1676 18.749 16.2678 18.605 16.5209 18.4728L16.3657 18.1266C16.2596 18.182 16.1547 18.2286 16.0555 18.2727C15.6999 18.4307 15.4176 18.5561 15.4176 18.9377C15.4176 19.404 15.8452 19.6354 16.3068 19.8852L16.3657 19.9171ZM14.3668 19.4281L14.1253 19.7073L14.0774 19.6604C13.7026 19.293 13.3554 18.9527 13.4839 18.5044C13.5891 18.1376 13.895 18.0949 14.2804 18.041L14.2804 18.041C14.3879 18.026 14.5016 18.0101 14.6188 17.9861L14.6726 18.3617C14.3928 18.419 14.2569 18.5298 14.2049 18.7112C14.1523 18.8945 14.1589 19.2239 14.3668 19.4281ZM12.0178 18.8739L12.3304 18.6776C12.1914 18.4214 12.2813 18.1045 12.3852 17.9446C12.488 17.7863 12.6504 17.7201 12.9347 17.7471L12.993 17.3722C12.8739 17.3609 12.7605 17.3429 12.6533 17.3258C12.269 17.2646 11.964 17.2161 11.7562 17.5361C11.5022 17.9272 11.7347 18.3541 11.9858 18.815L12.0178 18.8739ZM10.6015 17.3823L10.2469 17.4849L10.2323 17.4195C10.1181 16.9072 10.0122 16.4327 10.3641 16.1268C10.6521 15.8764 10.9319 16.0072 11.2845 16.1719C11.3828 16.2179 11.4868 16.2665 11.5982 16.3102L11.4388 16.6544C11.173 16.5501 10.9986 16.569 10.8562 16.6928C10.7123 16.8179 10.5384 17.0978 10.6015 17.3823ZM8.93809 15.6546L9.30721 15.6538C9.32502 15.3628 9.56925 15.1418 9.74208 15.0612C9.91312 14.9814 10.0859 15.0113 10.3127 15.1849L10.5608 14.8979C10.4658 14.8252 10.3792 14.7498 10.2974 14.6785C10.0039 14.423 9.77098 14.2202 9.42512 14.3814C9.0025 14.5785 8.97347 15.0638 8.94213 15.5877L8.93809 15.6546ZM8.54072 13.6236L8.18749 13.5164L8.2109 13.4537C8.39405 12.9618 8.5637 12.5062 9.02546 12.4413C9.40337 12.3882 9.56681 12.6502 9.77276 12.9804C9.83019 13.0725 9.89094 13.1699 9.96057 13.2673L9.63937 13.4691C9.47323 13.2369 9.31673 13.1577 9.12984 13.184C8.94101 13.2105 8.64281 13.3506 8.54072 13.6236ZM8.07715 11.2686L8.38718 11.4689C8.56055 11.2347 8.88579 11.1823 9.07463 11.2088C9.26152 11.2351 9.39014 11.3543 9.48582 11.6233L9.85023 11.5178C9.81013 11.405 9.77858 11.2947 9.74875 11.1903L9.74875 11.1903C9.64179 10.8161 9.55692 10.5192 9.17901 10.4661C8.71724 10.4012 8.42859 10.7924 8.11696 11.2147L8.07715 11.2686ZM8.84095 9.34611L8.60304 9.06389L8.65686 9.02399C9.07836 8.71123 9.46877 8.42153 9.89138 8.6186C10.2373 8.77988 10.2316 9.08865 10.2245 9.47775C10.2225 9.58627 10.2204 9.70103 10.2258 9.82059L9.84644 9.81498C9.8336 9.5297 9.74546 9.37809 9.57442 9.29833C9.40159 9.21774 9.07524 9.17276 8.84095 9.34611ZM9.72676 7.11344L9.87767 7.45031C10.1507 7.34826 10.452 7.48145 10.5959 7.60655C10.7383 7.73037 10.7813 7.9004 10.715 8.17817L11.0781 8.28812C11.1059 8.17171 11.1395 8.06197 11.1713 7.9582C11.2854 7.58614 11.376 7.29089 11.0879 7.04052C10.736 6.7346 10.2809 6.90546 9.7895 7.08992L9.72676 7.11344ZM11.4051 5.92326L11.3529 5.55786L11.4197 5.55254C11.9429 5.51066 12.4275 5.47187 12.6815 5.86295C12.8893 6.183 12.7209 6.44186 12.5087 6.76807C12.4495 6.85904 12.3869 6.95526 12.3281 7.0595L12.0094 6.85372C12.1497 6.60499 12.1552 6.4297 12.0525 6.27143C11.9486 6.1115 11.6957 5.90042 11.4051 5.92326ZM13.3632 4.51121L13.3063 4.87591C13.5908 4.93901 13.771 5.21482 13.8235 5.39813C13.8755 5.57954 13.8189 5.74553 13.6121 5.94238L13.8567 6.23235C13.9434 6.14985 14.0314 6.07614 14.1146 6.00645C14.4129 5.75655 14.6497 5.55824 14.5445 5.1914C14.4159 4.74316 13.9412 4.63857 13.4286 4.52565C13.4068 4.52086 13.385 4.51605 13.3632 4.51121Z" fill="#5B8C39"/>
<path fill-rule="evenodd" clip-rule="evenodd" d="M12.2788 13.9869C12.2788 13.9869 11.179 13.9628 11.179 14.4682C11.179 14.9735 11.179 15.5332 11.7289 15.2533C12.2788 14.9735 12.9511 14.8629 13.3067 15.0581C13.6623 15.2533 14.4909 15.65 15.659 15.65C16.827 15.65 16.7491 15.2533 17.8248 15.2533C18.9006 15.2533 20.8212 15.1677 20.3764 14.8179C19.9316 14.4682 19.4081 14.2468 19.0084 14.2468C18.6087 14.2468 18.3023 14.2468 17.4619 13.8349C16.6216 13.4231 15.6834 13.3858 14.7381 13.5186C13.7928 13.6514 13.668 13.9869 13.109 13.9869C12.5499 13.9869 12.2788 13.9869 12.2788 13.9869Z" fill="#247805"/>
<path d="M16.1 15.65C16.1706 15.8899 16.1707 15.8898 16.1708 15.8898L16.171 15.8897L16.1717 15.8895L16.1736 15.8889L16.1796 15.8871L16.2 15.8807C16.2172 15.8751 16.2414 15.8669 16.2717 15.856C16.3323 15.8342 16.4173 15.8014 16.5187 15.7561C16.7208 15.6657 16.9915 15.5241 17.2637 15.319C17.8085 14.9084 18.3764 14.2278 18.3764 13.1918V13.1838V13.1759V13.1679V13.16V13.152V13.1441V13.1362V13.1282V13.1203V13.1124V13.1045V13.0966V13.0887V13.0808V13.0729V13.065V13.0572V13.0493V13.0414V13.0336V13.0257V13.0179V13.01V13.0022V12.9944V12.9866V12.9787V12.9709V12.9631V12.9553V12.9475V12.9398V12.932V12.9242V12.9165V12.9087V12.9009V12.8932V12.8855V12.8777V12.87V12.8623V12.8546V12.8469V12.8392V12.8315V12.8238V12.8161V12.8085V12.8008V12.7932V12.7855V12.7779V12.7703V12.7626V12.755V12.7474V12.7398V12.7322V12.7246V12.7171V12.7095V12.7019V12.6944V12.6868V12.6793V12.6718V12.6642V12.6567V12.6492V12.6417V12.6342V12.6267V12.6193V12.6118V12.6043V12.5969V12.5894V12.582V12.5746V12.5672V12.5598V12.5524V12.545V12.5376V12.5302V12.5228V12.5155V12.5081V12.5008V12.4935V12.4862V12.4788V12.4715V12.4642V12.457V12.4497V12.4424V12.4352V12.4279V12.4207V12.4134V12.4062V12.399V12.3918V12.3846V12.3774V12.3703V12.3631V12.3559V12.3488V12.3417V12.3345V12.3274V12.3203V12.3132V12.3061V12.2991V12.292V12.2849V12.2779V12.2709V12.2638V12.2568V12.2498V12.2428V12.2358V12.2289V12.2219V12.2149V12.208V12.2011V12.1941V12.1872V12.1803V12.1734V12.1666V12.1597V12.1528V12.146V12.1392V12.1323V12.1255V12.1187V12.1119V12.1051V12.0984V12.0916V12.0849V12.0781V12.0714V12.0647V12.058V12.0513V12.0446V12.0379V12.0313V12.0246V12.018V12.0114V12.0048V11.9982V11.9916V11.985V11.9785V11.9719V11.9654V11.9588V11.9523V11.9458V11.9393V11.9329V11.9264V11.9199V11.9135V11.9071V11.9006V11.8942V11.8878V11.8815V11.8751V11.8687V11.8624V11.8561V11.8497V11.8434V11.8372V11.8309V11.8246V11.8184V11.8121V11.8059V11.7997V11.7935V11.7873V11.7811V11.7749V11.7688V11.7627V11.7565V11.7504V11.7443V11.7382V11.7322V11.7261V11.7201V11.714V11.708V11.702V11.696V11.6901V11.6841V11.6782V11.6722V11.6663V11.6604V11.6545V11.6486V11.6428V11.6369V11.6311V11.6253V11.6194V11.6137V11.6079V11.6021V11.5964V11.5906V11.5849V11.5792V11.5735V11.5678V11.5622V11.5565V11.5509V11.5453V11.5397V11.5341V11.5285V11.5229V11.5174V11.5119V11.5063V11.5008V11.4954V11.4899V11.4844V11.479V11.4736V11.4682V11.4628V11.4574V11.452V11.4467V11.4414V11.436V11.4307V11.4255V11.4202V11.4149V11.4097V11.4045V11.3993V11.3941V11.3889V11.3837V11.3786V11.3735V11.3684V11.3633V11.3582V11.3531V11.3481V11.343V11.338V11.333V11.3281V11.3231V11.3181V11.3132V11.3083V11.3034V11.2985V11.2936V11.2888V11.284V11.2792V11.2744V11.2696V11.2648V11.2601V11.2553V11.2506V11.2459V11.2412V11.2366V11.2319V11.2273V11.2227V11.2181V11.2135V11.209V11.2044V11.1999V11.1954V11.1909V11.1864V11.182V11.1775V11.1731V11.1687V11.1643V11.16V11.1556V11.1513V11.147V11.1427V11.1384V11.1342V11.1299V11.1257V11.1215V11.1173V11.1132V11.109V11.1049V11.1008V11.0967V11.0926V11.0885V11.0845V11.0805V11.0765V11.0725V11.0685V11.0646V11.0607V11.0568V11.0529V11.049V11.0452V11.0413V11.0375V11.0337V11.03V11.0262V11.0225V11.0188V11.0151V11.0114V11.0077V11.0041V11.0005V10.9969V10.9933V10.9897V10.9862V10.9827V10.9792V10.9757V10.9722V10.9688V10.9654V10.962V10.9586V10.9552V10.9519V10.9485V10.9452V10.942V10.9387V10.9355V10.9322V10.929V10.9259V10.9227V10.9196V10.9164V10.9133V10.9103V10.9072V10.9042V10.9011V10.8982V10.8952V10.8922V10.8893V10.8864V10.8835V10.8806V10.8778V10.8749V10.8721V10.8693V10.8666V10.8638V10.8611V10.8584V10.8557V10.8531V10.8504V10.8478V10.8452V10.8426V10.8401V10.8376V10.8351V10.8326V10.8301V10.8277V10.8252V10.8228V10.8205V10.8181V10.8158V10.8135V10.8112V10.8089V10.8066V10.8044V10.8022V10.8V10.7979V10.7958V10.7936V10.7915V10.7895V10.7874V10.7854V10.7834V10.7814V10.7795V10.7775V10.7756V10.7738V10.7719V10.77V10.7682V10.7664V10.7647V10.7629V10.7612V10.7595V10.7578V10.7561V10.7545V10.7529V10.7513V10.7498V10.7482V10.7467V10.7452V10.7437V10.7423V10.7409V10.7395V10.7381V10.7367V10.7354V10.7341V10.7328V10.7316V10.7303V10.7291V10.7279V10.7268V10.7256V10.7245V10.7234V10.7224V10.7213V10.7203V10.7193V10.7184V10.7174V10.7165V10.7156V10.7147V10.7139V10.7131V10.7123V10.7115V10.7107V10.71V10.7093V10.7087V10.708V10.7074V10.7068V10.7062V10.7057V10.7051V10.7046V10.7042V10.7037V10.7033V10.7029V10.7025V10.7022V10.7019V10.7016V10.7013V10.7011V10.7008V10.7006V10.7005V10.7003V10.7002V10.7001V10.7001V10.7L18.1264 10.7H18.3764V10.45H18.1264H14.0737H13.8237V10.7H14.0737L13.8237 10.7V10.7001V10.7002V10.7003V10.7004V10.7006V10.7008V10.701V10.7013V10.7015V10.7019V10.7022V10.7026V10.703V10.7034V10.7039V10.7044V10.7049V10.7055V10.7061V10.7067V10.7074V10.708V10.7087V10.7095V10.7102V10.711V10.7118V10.7127V10.7136V10.7145V10.7154V10.7164V10.7174V10.7184V10.7195V10.7205V10.7216V10.7228V10.7239V10.7251V10.7263V10.7276V10.7289V10.7302V10.7315V10.7329V10.7343V10.7357V10.7371V10.7386V10.7401V10.7416V10.7431V10.7447V10.7463V10.748V10.7496V10.7513V10.753V10.7548V10.7565V10.7583V10.7601V10.762V10.7638V10.7657V10.7677V10.7696V10.7716V10.7736V10.7756V10.7777V10.7797V10.7819V10.784V10.7861V10.7883V10.7905V10.7928V10.795V10.7973V10.7996V10.8019V10.8043V10.8067V10.8091V10.8115V10.814V10.8165V10.819V10.8215V10.8241V10.8266V10.8292V10.8319V10.8345V10.8372V10.8399V10.8426V10.8454V10.8481V10.8509V10.8538V10.8566V10.8595V10.8624V10.8653V10.8682V10.8712V10.8742V10.8772V10.8802V10.8832V10.8863V10.8894V10.8925V10.8957V10.8989V10.902V10.9053V10.9085V10.9118V10.915V10.9183V10.9217V10.925V10.9284V10.9318V10.9352V10.9386V10.9421V10.9455V10.949V10.9526V10.9561V10.9597V10.9632V10.9669V10.9705V10.9741V10.9778V10.9815V10.9852V10.9889V10.9927V10.9965V11.0003V11.0041V11.0079V11.0118V11.0156V11.0195V11.0234V11.0274V11.0313V11.0353V11.0393V11.0433V11.0474V11.0514V11.0555V11.0596V11.0637V11.0678V11.072V11.0762V11.0804V11.0846V11.0888V11.0931V11.0973V11.1016V11.1059V11.1102V11.1146V11.119V11.1233V11.1277V11.1322V11.1366V11.141V11.1455V11.15V11.1545V11.159V11.1636V11.1682V11.1727V11.1773V11.182V11.1866V11.1912V11.1959V11.2006V11.2053V11.21V11.2148V11.2195V11.2243V11.2291V11.2339V11.2387V11.2435V11.2484V11.2533V11.2582V11.2631V11.268V11.2729V11.2779V11.2829V11.2878V11.2929V11.2979V11.3029V11.308V11.313V11.3181V11.3232V11.3283V11.3335V11.3386V11.3438V11.3489V11.3541V11.3593V11.3646V11.3698V11.375V11.3803V11.3856V11.3909V11.3962V11.4015V11.4069V11.4122V11.4176V11.423V11.4284V11.4338V11.4392V11.4446V11.4501V11.4556V11.4611V11.4665V11.4721V11.4776V11.4831V11.4887V11.4942V11.4998V11.5054V11.511V11.5166V11.5222V11.5279V11.5335V11.5392V11.5449V11.5506V11.5563V11.562V11.5678V11.5735V11.5793V11.585V11.5908V11.5966V11.6024V11.6082V11.6141V11.6199V11.6257V11.6316V11.6375V11.6434V11.6493V11.6552V11.6611V11.667V11.673V11.679V11.6849V11.6909V11.6969V11.7029V11.7089V11.7149V11.721V11.727V11.7331V11.7391V11.7452V11.7513V11.7574V11.7635V11.7696V11.7757V11.7819V11.788V11.7942V11.8004V11.8065V11.8127V11.8189V11.8251V11.8313V11.8376V11.8438V11.85V11.8563V11.8626V11.8688V11.8751V11.8814V11.8877V11.894V11.9003V11.9066V11.913V11.9193V11.9257V11.932V11.9384V11.9448V11.9511V11.9575V11.9639V11.9703V11.9768V11.9832V11.9896V11.996V12.0025V12.0089V12.0154V12.0219V12.0284V12.0348V12.0413V12.0478V12.0543V12.0608V12.0674V12.0739V12.0804V12.087V12.0935V12.1001V12.1066V12.1132V12.1197V12.1263V12.1329V12.1395V12.1461V12.1527V12.1593V12.1659V12.1725V12.1792V12.1858V12.1924V12.1991V12.2057V12.2124V12.219V12.2257V12.2324V12.239V12.2457V12.2524V12.2591V12.2658V12.2725V12.2792V12.2859V12.2926V12.2993V12.3061V12.3128V12.3195V12.3262V12.333V12.3397V12.3465V12.3532V12.36V12.3667V12.3735V12.3803V12.387V12.3938V12.4006V12.4074V12.4142V12.4209V12.4277V12.4345V12.4413V12.4481V12.4549V12.4617V12.4685V12.4753V12.4822V12.489V12.4958V12.5026V12.5094V12.5163V12.5231V12.5299V12.5368V12.5436V12.5504V12.5573V12.5641V12.5709V12.5778V12.5846V12.5915V12.5983V12.6052V12.612V12.6189V12.6257V12.6326V12.6394V12.6463V12.6531V12.66V12.6669V12.6737V12.6806V12.6874V12.6943V12.7012V12.708V12.7149V12.7218V12.7286V12.7561V12.8109V12.8384V12.8521V12.8658V12.8932V12.9205V12.9479V12.9752V13.0297V13.0839V13.111V13.138V13.1918C13.8237 14.2017 14.3934 14.8817 14.9347 15.297C15.2059 15.505 15.4757 15.6517 15.6771 15.7463C15.7782 15.7938 15.8629 15.8286 15.9232 15.8518C15.9533 15.8634 15.9774 15.8722 15.9945 15.8781L16.0147 15.8851L16.0206 15.8871L16.0225 15.8877L16.0231 15.8879L16.0234 15.888C16.0235 15.888 16.0236 15.888 16.1 15.65ZM16.1 15.65L16.1706 15.8899L16.0968 15.9116L16.0236 15.888L16.1 15.65Z" fill="white" stroke="#565656" stroke-width="0.5"/>
<mask id="mask1_270_67362" style="mask-type:luminance" maskUnits="userSpaceOnUse" x="13" y="10" width="6" height="7">
<path d="M16.1 15.65C16.1706 15.8899 16.1707 15.8898 16.1708 15.8898L16.171 15.8897L16.1717 15.8895L16.1736 15.8889L16.1796 15.8871L16.2 15.8807C16.2172 15.8751 16.2414 15.8669 16.2717 15.856C16.3323 15.8342 16.4173 15.8014 16.5187 15.7561C16.7208 15.6657 16.9915 15.5241 17.2637 15.319C17.8085 14.9084 18.3764 14.2278 18.3764 13.1918V13.1838V13.1759V13.1679V13.16V13.152V13.1441V13.1362V13.1282V13.1203V13.1124V13.1045V13.0966V13.0887V13.0808V13.0729V13.065V13.0572V13.0493V13.0414V13.0336V13.0257V13.0179V13.01V13.0022V12.9944V12.9866V12.9787V12.9709V12.9631V12.9553V12.9475V12.9398V12.932V12.9242V12.9165V12.9087V12.9009V12.8932V12.8855V12.8777V12.87V12.8623V12.8546V12.8469V12.8392V12.8315V12.8238V12.8161V12.8085V12.8008V12.7932V12.7855V12.7779V12.7703V12.7626V12.755V12.7474V12.7398V12.7322V12.7246V12.7171V12.7095V12.7019V12.6944V12.6868V12.6793V12.6718V12.6642V12.6567V12.6492V12.6417V12.6342V12.6267V12.6193V12.6118V12.6043V12.5969V12.5894V12.582V12.5746V12.5672V12.5598V12.5524V12.545V12.5376V12.5302V12.5228V12.5155V12.5081V12.5008V12.4935V12.4862V12.4788V12.4715V12.4642V12.457V12.4497V12.4424V12.4352V12.4279V12.4207V12.4134V12.4062V12.399V12.3918V12.3846V12.3774V12.3703V12.3631V12.3559V12.3488V12.3417V12.3345V12.3274V12.3203V12.3132V12.3061V12.2991V12.292V12.2849V12.2779V12.2709V12.2638V12.2568V12.2498V12.2428V12.2358V12.2289V12.2219V12.2149V12.208V12.2011V12.1941V12.1872V12.1803V12.1734V12.1666V12.1597V12.1528V12.146V12.1392V12.1323V12.1255V12.1187V12.1119V12.1051V12.0984V12.0916V12.0849V12.0781V12.0714V12.0647V12.058V12.0513V12.0446V12.0379V12.0313V12.0246V12.018V12.0114V12.0048V11.9982V11.9916V11.985V11.9785V11.9719V11.9654V11.9588V11.9523V11.9458V11.9393V11.9329V11.9264V11.9199V11.9135V11.9071V11.9006V11.8942V11.8878V11.8815V11.8751V11.8687V11.8624V11.8561V11.8497V11.8434V11.8372V11.8309V11.8246V11.8184V11.8121V11.8059V11.7997V11.7935V11.7873V11.7811V11.7749V11.7688V11.7627V11.7565V11.7504V11.7443V11.7382V11.7322V11.7261V11.7201V11.714V11.708V11.702V11.696V11.6901V11.6841V11.6782V11.6722V11.6663V11.6604V11.6545V11.6486V11.6428V11.6369V11.6311V11.6253V11.6194V11.6137V11.6079V11.6021V11.5964V11.5906V11.5849V11.5792V11.5735V11.5678V11.5622V11.5565V11.5509V11.5453V11.5397V11.5341V11.5285V11.5229V11.5174V11.5119V11.5063V11.5008V11.4954V11.4899V11.4844V11.479V11.4736V11.4682V11.4628V11.4574V11.452V11.4467V11.4414V11.436V11.4307V11.4255V11.4202V11.4149V11.4097V11.4045V11.3993V11.3941V11.3889V11.3837V11.3786V11.3735V11.3684V11.3633V11.3582V11.3531V11.3481V11.343V11.338V11.333V11.3281V11.3231V11.3181V11.3132V11.3083V11.3034V11.2985V11.2936V11.2888V11.284V11.2792V11.2744V11.2696V11.2648V11.2601V11.2553V11.2506V11.2459V11.2412V11.2366V11.2319V11.2273V11.2227V11.2181V11.2135V11.209V11.2044V11.1999V11.1954V11.1909V11.1864V11.182V11.1775V11.1731V11.1687V11.1643V11.16V11.1556V11.1513V11.147V11.1427V11.1384V11.1342V11.1299V11.1257V11.1215V11.1173V11.1132V11.109V11.1049V11.1008V11.0967V11.0926V11.0885V11.0845V11.0805V11.0765V11.0725V11.0685V11.0646V11.0607V11.0568V11.0529V11.049V11.0452V11.0413V11.0375V11.0337V11.03V11.0262V11.0225V11.0188V11.0151V11.0114V11.0077V11.0041V11.0005V10.9969V10.9933V10.9897V10.9862V10.9827V10.9792V10.9757V10.9722V10.9688V10.9654V10.962V10.9586V10.9552V10.9519V10.9485V10.9452V10.942V10.9387V10.9355V10.9322V10.929V10.9259V10.9227V10.9196V10.9164V10.9133V10.9103V10.9072V10.9042V10.9011V10.8982V10.8952V10.8922V10.8893V10.8864V10.8835V10.8806V10.8778V10.8749V10.8721V10.8693V10.8666V10.8638V10.8611V10.8584V10.8557V10.8531V10.8504V10.8478V10.8452V10.8426V10.8401V10.8376V10.8351V10.8326V10.8301V10.8277V10.8252V10.8228V10.8205V10.8181V10.8158V10.8135V10.8112V10.8089V10.8066V10.8044V10.8022V10.8V10.7979V10.7958V10.7936V10.7915V10.7895V10.7874V10.7854V10.7834V10.7814V10.7795V10.7775V10.7756V10.7738V10.7719V10.77V10.7682V10.7664V10.7647V10.7629V10.7612V10.7595V10.7578V10.7561V10.7545V10.7529V10.7513V10.7498V10.7482V10.7467V10.7452V10.7437V10.7423V10.7409V10.7395V10.7381V10.7367V10.7354V10.7341V10.7328V10.7316V10.7303V10.7291V10.7279V10.7268V10.7256V10.7245V10.7234V10.7224V10.7213V10.7203V10.7193V10.7184V10.7174V10.7165V10.7156V10.7147V10.7139V10.7131V10.7123V10.7115V10.7107V10.71V10.7093V10.7087V10.708V10.7074V10.7068V10.7062V10.7057V10.7051V10.7046V10.7042V10.7037V10.7033V10.7029V10.7025V10.7022V10.7019V10.7016V10.7013V10.7011V10.7008V10.7006V10.7005V10.7003V10.7002V10.7001V10.7001V10.7L18.1264 10.7H18.3764V10.45H18.1264H14.0737H13.8237V10.7H14.0737L13.8237 10.7V10.7001V10.7002V10.7003V10.7004V10.7006V10.7008V10.701V10.7013V10.7015V10.7019V10.7022V10.7026V10.703V10.7034V10.7039V10.7044V10.7049V10.7055V10.7061V10.7067V10.7074V10.708V10.7087V10.7095V10.7102V10.711V10.7118V10.7127V10.7136V10.7145V10.7154V10.7164V10.7174V10.7184V10.7195V10.7205V10.7216V10.7228V10.7239V10.7251V10.7263V10.7276V10.7289V10.7302V10.7315V10.7329V10.7343V10.7357V10.7371V10.7386V10.7401V10.7416V10.7431V10.7447V10.7463V10.748V10.7496V10.7513V10.753V10.7548V10.7565V10.7583V10.7601V10.762V10.7638V10.7657V10.7677V10.7696V10.7716V10.7736V10.7756V10.7777V10.7797V10.7819V10.784V10.7861V10.7883V10.7905V10.7928V10.795V10.7973V10.7996V10.8019V10.8043V10.8067V10.8091V10.8115V10.814V10.8165V10.819V10.8215V10.8241V10.8266V10.8292V10.8319V10.8345V10.8372V10.8399V10.8426V10.8454V10.8481V10.8509V10.8538V10.8566V10.8595V10.8624V10.8653V10.8682V10.8712V10.8742V10.8772V10.8802V10.8832V10.8863V10.8894V10.8925V10.8957V10.8989V10.902V10.9053V10.9085V10.9118V10.915V10.9183V10.9217V10.925V10.9284V10.9318V10.9352V10.9386V10.9421V10.9455V10.949V10.9526V10.9561V10.9597V10.9632V10.9669V10.9705V10.9741V10.9778V10.9815V10.9852V10.9889V10.9927V10.9965V11.0003V11.0041V11.0079V11.0118V11.0156V11.0195V11.0234V11.0274V11.0313V11.0353V11.0393V11.0433V11.0474V11.0514V11.0555V11.0596V11.0637V11.0678V11.072V11.0762V11.0804V11.0846V11.0888V11.0931V11.0973V11.1016V11.1059V11.1102V11.1146V11.119V11.1233V11.1277V11.1322V11.1366V11.141V11.1455V11.15V11.1545V11.159V11.1636V11.1682V11.1727V11.1773V11.182V11.1866V11.1912V11.1959V11.2006V11.2053V11.21V11.2148V11.2195V11.2243V11.2291V11.2339V11.2387V11.2435V11.2484V11.2533V11.2582V11.2631V11.268V11.2729V11.2779V11.2829V11.2878V11.2929V11.2979V11.3029V11.308V11.313V11.3181V11.3232V11.3283V11.3335V11.3386V11.3438V11.3489V11.3541V11.3593V11.3646V11.3698V11.375V11.3803V11.3856V11.3909V11.3962V11.4015V11.4069V11.4122V11.4176V11.423V11.4284V11.4338V11.4392V11.4446V11.4501V11.4556V11.4611V11.4665V11.4721V11.4776V11.4831V11.4887V11.4942V11.4998V11.5054V11.511V11.5166V11.5222V11.5279V11.5335V11.5392V11.5449V11.5506V11.5563V11.562V11.5678V11.5735V11.5793V11.585V11.5908V11.5966V11.6024V11.6082V11.6141V11.6199V11.6257V11.6316V11.6375V11.6434V11.6493V11.6552V11.6611V11.667V11.673V11.679V11.6849V11.6909V11.6969V11.7029V11.7089V11.7149V11.721V11.727V11.7331V11.7391V11.7452V11.7513V11.7574V11.7635V11.7696V11.7757V11.7819V11.788V11.7942V11.8004V11.8065V11.8127V11.8189V11.8251V11.8313V11.8376V11.8438V11.85V11.8563V11.8626V11.8688V11.8751V11.8814V11.8877V11.894V11.9003V11.9066V11.913V11.9193V11.9257V11.932V11.9384V11.9448V11.9511V11.9575V11.9639V11.9703V11.9768V11.9832V11.9896V11.996V12.0025V12.0089V12.0154V12.0219V12.0284V12.0348V12.0413V12.0478V12.0543V12.0608V12.0674V12.0739V12.0804V12.087V12.0935V12.1001V12.1066V12.1132V12.1197V12.1263V12.1329V12.1395V12.1461V12.1527V12.1593V12.1659V12.1725V12.1792V12.1858V12.1924V12.1991V12.2057V12.2124V12.219V12.2257V12.2324V12.239V12.2457V12.2524V12.2591V12.2658V12.2725V12.2792V12.2859V12.2926V12.2993V12.3061V12.3128V12.3195V12.3262V12.333V12.3397V12.3465V12.3532V12.36V12.3667V12.3735V12.3803V12.387V12.3938V12.4006V12.4074V12.4142V12.4209V12.4277V12.4345V12.4413V12.4481V12.4549V12.4617V12.4685V12.4753V12.4822V12.489V12.4958V12.5026V12.5094V12.5163V12.5231V12.5299V12.5368V12.5436V12.5504V12.5573V12.5641V12.5709V12.5778V12.5846V12.5915V12.5983V12.6052V12.612V12.6189V12.6257V12.6326V12.6394V12.6463V12.6531V12.66V12.6669V12.6737V12.6806V12.6874V12.6943V12.7012V12.708V12.7149V12.7218V12.7286V12.7561V12.8109V12.8384V12.8521V12.8658V12.8932V12.9205V12.9479V12.9752V13.0297V13.0839V13.111V13.138V13.1918C13.8237 14.2017 14.3934 14.8817 14.9347 15.297C15.2059 15.505 15.4757 15.6517 15.6771 15.7463C15.7782 15.7938 15.8629 15.8286 15.9232 15.8518C15.9533 15.8634 15.9774 15.8722 15.9945 15.8781L16.0147 15.8851L16.0206 15.8871L16.0225 15.8877L16.0231 15.8879L16.0234 15.888C16.0235 15.888 16.0236 15.888 16.1 15.65ZM16.1 15.65L16.1706 15.8899L16.0968 15.9116L16.0236 15.888L16.1 15.65Z" fill="white" stroke="white" stroke-width="0.5"/>
</mask>
<g mask="url(#mask1_270_67362)">
<path opacity="0.4" fill-rule="evenodd" clip-rule="evenodd" d="M14.1968 13.9089L16.1301 12.4847L18.163 14.0704V16.3272H14.1968V13.9089Z" fill="#84CEFF"/>
<path fill-rule="evenodd" clip-rule="evenodd" d="M14.2579 14.4125H17.85V14.9125H14.2579V14.4125Z" fill="#006AC9"/>
<path fill-rule="evenodd" clip-rule="evenodd" d="M14.4421 14.9075H17.7579V15.1726H14.4421V14.9075Z" fill="#59C800"/>
<path fill-rule="evenodd" clip-rule="evenodd" d="M14.4421 15.2375H17.7579V15.7375H14.4421V15.2375Z" fill="#FFD800"/>
<path fill-rule="evenodd" clip-rule="evenodd" d="M18.7265 14.5107L16.1362 12.5326L16.1362 9.86237H18.7265V14.5107Z" fill="#F7D85D"/>
<path fill-rule="evenodd" clip-rule="evenodd" d="M15.5474 13.4225C15.5474 13.4225 15.6292 13.8474 15.6919 13.8474C15.7545 13.8474 15.8677 13.4225 15.8677 13.4225C15.8677 13.4225 15.8811 13.8474 15.9441 13.8474C16.0072 13.8474 15.9994 13.4913 16.1 13.4225C16.1364 13.3976 16.1824 13.8452 16.2384 13.8474C16.2854 13.8492 16.4004 13.4225 16.4004 13.4225C16.4004 13.4225 16.4352 13.8474 16.4895 13.8474C16.5439 13.8474 16.6526 13.4225 16.6526 13.4225V14.495H15.5474V13.4225Z" fill="#F5F6F6"/>
<path fill-rule="evenodd" clip-rule="evenodd" d="M16.1001 14.84C16.6596 14.84 17.1132 14.7443 17.1132 14.6263C17.1132 14.5082 16.6596 14.4125 16.1001 14.4125C15.5405 14.4125 15.0869 14.5082 15.0869 14.6263C15.0869 14.7443 15.5405 14.84 16.1001 14.84Z" fill="#892E2E"/>
<path d="M14.2894 11.1042L14.4977 10.9415L15.8985 12.381L15.6902 12.5436L14.2894 11.1042Z" fill="#A46031"/>
<path d="M14.5147 12.7674L14.2935 12.6191L15.6557 10.988L15.877 11.1363L14.5147 12.7674Z" fill="#892E2E"/>
<path d="M16.4078 11.3182L16.6161 11.189L18.0169 12.332L17.8086 12.4611L16.4078 11.3182Z" fill="#A46031"/>
<path d="M16.701 12.486L16.4418 12.3099L17.7741 11.2355L18.0582 11.4695L16.701 12.486Z" fill="#F5F6F6"/>
</g>
<path fill-rule="evenodd" clip-rule="evenodd" d="M14.567 16.5347L15.2174 16.7385V17.2999H14.567V16.5347Z" fill="#6699FF"/>
<path fill-rule="evenodd" clip-rule="evenodd" d="M14.1024 15.3869L14.4683 15.5907V16.1521H14.1024V15.3869Z" fill="#6699FF"/>
<path fill-rule="evenodd" clip-rule="evenodd" d="M17.5403 16.5347L16.8899 16.7385V17.2999H17.5403V16.5347Z" fill="#6699FF"/>
<path fill-rule="evenodd" clip-rule="evenodd" d="M18.0049 15.3869L17.639 15.5907V16.1521H18.0049V15.3869Z" fill="#6699FF"/>
<path d="M13.7479 16.5761C13.6288 16.5761 13.5297 16.5789 13.4164 16.5843C13.1418 16.5975 13.1245 16.5972 13.0487 16.566C13.0032 16.5473 12.9577 16.5171 12.8923 16.4634C12.7372 16.336 12.5701 16.0435 12.3887 15.5846L12.3892 15.5653C12.6131 15.0812 13.0736 15.0212 13.7584 15.3801C13.9388 15.4746 14.4648 15.7605 14.4605 15.7582C14.6997 15.8862 14.8675 15.9682 15.0324 16.0346C15.3742 16.1722 15.6965 16.2347 16.1098 16.2347C16.3581 16.2347 16.6456 16.1642 16.981 16.031C17.1748 15.954 17.3765 15.86 17.6225 15.7351C17.6549 15.7187 18.1696 15.451 18.2969 15.3897C18.5196 15.2825 18.6665 15.2306 18.7678 15.2306C18.7954 15.2306 18.8167 15.2305 18.8702 15.2302C18.9627 15.2296 19.0067 15.2296 19.0601 15.2302C19.5538 15.2362 19.7974 15.3185 19.7974 15.5756C19.7974 15.8185 19.6394 16.1482 19.3244 16.5668L19.3091 16.5759C18.6859 16.6599 18.3245 16.6599 18.2133 16.5711C18.183 16.5469 18.0999 16.5579 17.9472 16.6068C17.878 16.629 17.5075 16.7615 17.393 16.7994C16.9165 16.9574 16.5081 17.0423 16.0922 17.0423C15.4588 17.0423 14.7655 16.7966 14.0123 16.3058C14.1488 16.4793 14.0624 16.5761 13.7479 16.5761Z" fill="white"/>
<path fill-rule="evenodd" clip-rule="evenodd" d="M13.4164 16.5843C13.5297 16.5789 13.6288 16.5761 13.7479 16.5761C14.0624 16.5761 14.1488 16.4793 14.0123 16.3058C14.7655 16.7966 15.4588 17.0423 16.0922 17.0423C16.5081 17.0423 16.9165 16.9574 17.393 16.7994C17.4513 16.7801 17.5756 16.7364 17.6929 16.6952C17.8064 16.6553 17.9132 16.6177 17.9472 16.6068C18.0999 16.5579 18.183 16.5469 18.2133 16.5711C18.3245 16.6599 18.6859 16.6599 19.3091 16.5759L19.3244 16.5668C19.6394 16.1482 19.7974 15.8185 19.7974 15.5756C19.7974 15.3185 19.5538 15.2362 19.0601 15.2302C19.0067 15.2296 18.9627 15.2296 18.8702 15.2302C18.8167 15.2305 18.7954 15.2306 18.7678 15.2306C18.6665 15.2306 18.5196 15.2825 18.2969 15.3897C18.1962 15.4382 17.8534 15.6156 17.6983 15.6959C17.6572 15.7172 17.6293 15.7317 17.6225 15.7351C17.3765 15.86 17.1748 15.954 16.981 16.031C16.6456 16.1642 16.3581 16.2347 16.1098 16.2347C15.6965 16.2347 15.3742 16.1722 15.0324 16.0346C14.8675 15.9682 14.6997 15.8862 14.4605 15.7582C14.4648 15.7605 13.9388 15.4746 13.7584 15.3801C13.0736 15.0212 12.6131 15.0812 12.3892 15.5653L12.3887 15.5846C12.5701 16.0435 12.7372 16.336 12.8923 16.4634C12.9577 16.5171 13.0032 16.5473 13.0487 16.566C13.1245 16.5972 13.1418 16.5975 13.4164 16.5843ZM13.066 16.5216C13.0255 16.505 12.9834 16.477 12.9213 16.426C12.7753 16.3061 12.6127 16.0225 12.4356 15.5764C12.6477 15.13 13.0776 15.077 13.7374 15.4227C13.9174 15.5171 14.4431 15.8028 14.439 15.8006C14.6797 15.9294 14.8487 16.012 15.0154 16.0792C15.3626 16.219 15.6907 16.2825 16.1098 16.2825C16.3647 16.2825 16.6574 16.2107 16.9978 16.0756C17.1931 15.998 17.3959 15.9034 17.643 15.778C17.65 15.7745 17.6784 15.7598 17.7201 15.7382C17.8759 15.6575 18.2167 15.4811 18.3166 15.4331C18.5331 15.3288 18.6757 15.2784 18.7678 15.2784C18.7955 15.2784 18.8169 15.2783 18.8704 15.278C18.9627 15.2774 19.0065 15.2774 19.0595 15.278C19.5271 15.2837 19.751 15.3593 19.751 15.5756C19.751 15.8037 19.5988 16.1225 19.2936 16.5298C18.6921 16.6103 18.3377 16.6099 18.2418 16.5333C18.1936 16.4948 18.1032 16.5067 17.9334 16.5612C17.8988 16.5723 17.7907 16.6103 17.6766 16.6504C17.5597 16.6915 17.4363 16.7348 17.3788 16.7539C16.9065 16.9105 16.5025 16.9945 16.0922 16.9945C15.3923 16.9945 14.6153 16.6887 13.7612 16.0764L13.7342 16.1154C14.1241 16.4082 14.1241 16.5283 13.7479 16.5283C13.6281 16.5283 13.5282 16.5311 13.4143 16.5365C13.1493 16.5492 13.1325 16.5489 13.066 16.5216Z" fill="#666666"/>
<path d="M13.0283 15.8085L12.9612 15.7424C13.1127 15.5793 13.3134 15.5381 13.5552 15.618C13.6492 15.6491 14.2617 16.0032 14.4254 16.0863C15.0232 16.3898 15.5924 16.5593 16.1969 16.5593C17.0659 16.5593 17.9054 16.2849 18.713 15.7378C19.0182 15.4904 19.2091 15.4904 19.2091 15.7754H19.1162C19.1162 15.6054 19.0265 15.6054 18.7673 15.8154C17.9418 16.3748 17.0847 16.655 16.1969 16.655C15.5761 16.655 14.9939 16.4815 14.3843 16.1721C14.2128 16.085 13.6103 15.7367 13.5268 15.7091C13.3173 15.6399 13.1539 15.6733 13.0283 15.8085Z" fill="#565757"/>
<path fill-rule="evenodd" clip-rule="evenodd" d="M16.4904 6.9436L16.3094 6.9445C16.3138 7.68703 16.1475 8.15608 15.8237 8.35753C15.7982 8.37342 15.7662 8.39235 15.7312 8.41268C15.7006 8.3302 15.6608 8.23059 15.61 8.10593L15.5939 8.06637C15.4017 7.59341 15.3588 7.37526 15.4575 7.31698L15.3596 7.17735C15.142 7.30587 15.189 7.54516 15.4244 8.12439L15.4405 8.16413C15.499 8.30748 15.5421 8.41638 15.5731 8.50277L15.5536 8.51377L15.5536 8.51377L15.5536 8.51377C15.5438 8.51926 15.5343 8.52466 15.5249 8.52993C15.4309 8.48212 15.3221 8.45807 15.1981 8.45807C14.6224 8.45807 14.2236 8.30726 13.9918 8.0089L13.8445 8.10529C14.114 8.45225 14.5685 8.62411 15.1981 8.62411C15.2495 8.62411 15.2977 8.63028 15.3427 8.64269C15.251 8.72084 15.2388 8.80271 15.2388 9.08426C15.2388 9.26052 15.2768 9.49438 15.3528 9.78668C15.2943 9.71173 15.2397 9.6763 15.1843 9.6763V9.84234C15.1763 9.84234 15.1711 9.84115 15.1689 9.84067L15.1681 9.8405L15.1673 9.83977L15.1664 9.83924L15.1684 9.84075L15.1681 9.8405C15.1736 9.84457 15.1813 9.85198 15.1904 9.86265C15.2157 9.89213 15.2466 9.93964 15.2818 10.0043C15.3554 10.1393 15.4457 10.3444 15.5522 10.6187L15.6079 10.6004L15.6123 10.6128L15.6423 10.6039V10.6089H15.6994L15.7003 10.6549L15.8812 10.6512C15.8807 10.6336 15.8804 10.6163 15.8802 10.5991L15.9141 10.6029C15.9508 10.3317 15.9723 10.0856 15.9781 9.86487C16.0415 9.68925 16.1352 9.56219 16.2579 9.48308C16.5666 9.28393 16.7479 9.09244 16.7974 8.90241L16.6215 8.86376C16.5844 9.00595 16.4299 9.16917 16.1538 9.34724C16.0856 9.39123 16.0253 9.44547 15.9726 9.50988C15.9553 9.23707 15.9057 9.01645 15.8232 8.84904V8.8C15.8232 8.73261 15.8133 8.66681 15.7869 8.5768C15.8383 8.54731 15.8872 8.51862 15.9252 8.49497C16.311 8.25497 16.495 7.73589 16.4904 6.9436ZM15.513 8.73189C15.5624 8.77317 15.6055 8.8264 15.6423 8.89168V10.1391C15.4938 9.66876 15.4197 9.31634 15.4197 9.08426C15.4197 8.82429 15.4271 8.7914 15.4874 8.74755C15.4911 8.74484 15.5 8.73943 15.513 8.73189Z" fill="#984800"/>
<path fill-rule="evenodd" clip-rule="evenodd" d="M16.9833 7.08529C16.8465 7.12546 16.6709 7.1354 16.4846 7.10588C16.2785 7.07324 16.0999 6.99882 15.9809 6.90614C15.9882 6.9292 15.9918 6.95285 15.9914 6.9769C15.9874 7.20611 15.6197 7.38557 15.1701 7.37772C14.7205 7.36987 14.3593 7.17769 14.3633 6.94848C14.3673 6.71926 14.735 6.53981 15.1846 6.54766C15.455 6.55238 15.6934 6.62377 15.8396 6.72979C15.8268 6.69463 15.8226 6.65898 15.8282 6.62369C15.8605 6.4199 16.2067 6.30539 16.6014 6.36791C16.9962 6.43043 17.2901 6.64632 17.2578 6.8501C17.2519 6.88708 17.2357 6.92112 17.2108 6.9517C17.4052 6.89572 17.6729 6.90892 17.9463 7.00304C18.4186 7.16569 18.729 7.50841 18.6394 7.76853C18.5498 8.02864 18.0943 8.10765 17.6219 7.94499C17.5651 7.92542 17.5106 7.90325 17.4589 7.87893C17.3315 8.07672 16.9739 8.18125 16.5779 8.11852C16.1091 8.04427 15.764 7.76382 15.807 7.4921C15.85 7.22039 16.2649 7.06031 16.7337 7.13456C16.8016 7.14532 16.867 7.1604 16.9289 7.17916C16.9408 7.14463 16.9592 7.11329 16.9833 7.08529ZM14.2733 6.98398C14.3733 7.16444 14.171 7.46781 13.8215 7.66157C13.4719 7.85534 13.1074 7.86613 13.0074 7.68568C12.9074 7.50522 13.1096 7.20185 13.4592 7.00808C13.8088 6.81432 14.1733 6.80352 14.2733 6.98398ZM15.3666 8.11812C15.3622 8.37026 14.9132 8.56688 14.3638 8.55729C13.8143 8.5477 13.3724 8.33553 13.3768 8.08339C13.3812 7.83126 13.8302 7.63463 14.3797 7.64422C14.9292 7.65382 15.371 7.86599 15.3666 8.11812ZM14.7335 9.88176C15.2294 9.82088 15.6088 9.58706 15.5808 9.35952C15.5529 9.13198 15.1282 8.99688 14.6324 9.05776C14.1365 9.11865 13.7572 9.35247 13.7851 9.58001C13.813 9.80755 14.2377 9.94265 14.7335 9.88176ZM16.5625 10.1855C17.0006 10.2866 17.4018 10.1694 17.4585 9.92373C17.5152 9.67802 17.2061 9.39684 16.768 9.29569C16.3298 9.19454 15.9287 9.31174 15.872 9.55745C15.8152 9.80316 16.1244 10.0843 16.5625 10.1855ZM16.949 9.25273C17.6111 9.38142 18.1868 9.28507 18.2349 9.03753C18.2831 8.78999 17.7854 8.48499 17.1233 8.3563C16.4612 8.2276 15.8855 8.32395 15.8374 8.57149C15.7893 8.81903 16.287 9.12403 16.949 9.25273Z" fill="#247805"/>
<path fill-rule="evenodd" clip-rule="evenodd" d="M12.2451 10.9393C12.2451 10.9393 11.9323 13.9094 11.9323 14.312C11.9323 14.7145 12.5081 14.312 12.5081 14.312C12.5081 14.312 12.5926 12.8936 12.7887 12.3666C12.9848 11.8397 13.0774 12.4186 13.0774 12.7262C13.0774 13.0339 13.0774 14.473 13.0774 14.473C13.0774 14.473 13.7939 14.5706 13.7939 14.312C13.7939 14.0533 13.4958 10.9393 13.4958 10.9393H12.4119H12.2451Z" fill="white"/>
<path fill-rule="evenodd" clip-rule="evenodd" d="M12.2052 10.8975L12.2013 10.9351C11.9924 12.9177 11.8882 14.0414 11.8882 14.3119C11.8882 14.6304 12.1267 14.6304 12.5342 14.3455L12.5508 14.3339L12.552 14.3143C12.6082 13.3724 12.7013 12.727 12.8302 12.3805C12.9079 12.1717 12.9305 12.1624 12.9654 12.2485C13.0063 12.3491 13.0333 12.5543 13.0333 12.7262V14.5092L13.0711 14.5143C13.5737 14.5828 13.838 14.5234 13.838 14.3119C13.838 14.201 13.7862 13.5892 13.6984 12.6305L13.6887 12.525C13.6561 12.1702 13.6212 11.7961 13.5862 11.4261L13.5525 11.0698L13.543 10.9705L13.5396 10.9355L13.536 10.8975H12.2052ZM12.4652 14.2899C12.1171 14.5301 11.9763 14.5268 11.9763 14.3119C11.9763 14.0474 12.0793 12.9352 12.285 10.981H13.4555L13.4647 11.0773L13.4985 11.4336C13.5334 11.8035 13.5684 12.1775 13.601 12.5322L13.6106 12.6377C13.6978 13.5894 13.7499 14.205 13.7499 14.3119C13.7499 14.4416 13.5483 14.4905 13.1214 14.4366V12.7262C13.1214 12.5449 13.0932 12.3306 13.0477 12.2184C12.9724 12.0332 12.8467 12.0852 12.7472 12.3527C12.6156 12.7063 12.522 13.3512 12.4652 14.2899Z" fill="#979797"/>
<path fill-rule="evenodd" clip-rule="evenodd" d="M11.2067 9.91763C11.2067 9.91763 11.4524 10.8022 11.5612 10.8022C11.6699 10.8022 12.3302 10.2594 12.3302 10.2594V10.9961H13.5605V10.6698L13.7183 10.9961L13.9334 10.8955L14.3056 10.4569H13.9334C13.9334 10.4569 13.8253 9.75246 13.8253 9.64106C13.8253 9.52967 13.8297 9.30929 13.5605 9.22953C13.2912 9.14977 13.1592 9.00854 13.1592 9.00854C13.1592 9.00854 13.7389 8.17828 13.2975 8.17828C12.856 8.17828 12.6562 8.28472 12.6562 8.28472C12.6562 8.28472 12.6562 8.77769 12.6562 8.89311C12.6562 9.00854 12.0229 8.87187 12.0229 9.22953C12.0229 9.58719 11.7276 9.91763 11.7276 9.91763L11.6525 9.67809L11.2067 9.91763Z" fill="#FF863B"/>
<path fill-rule="evenodd" clip-rule="evenodd" d="M13.0668 8.38292C13.3101 8.38292 13.5073 8.28601 13.5073 8.16647C13.5073 8.04692 13.3101 7.95001 13.0668 7.95001C12.8236 7.95001 12.6263 8.04692 12.6263 8.16647C12.6263 8.28601 12.8236 8.38292 13.0668 8.38292Z" fill="black"/>
<path d="M10.8471 10.2599L10.6483 10.0948C11.0314 9.68007 11.4576 9.37835 11.9265 9.19106C12.3706 9.01371 12.9509 8.73065 13.6664 8.34216L13.7977 8.55967C13.0737 8.95277 12.4846 9.24013 12.0291 9.42204C11.5985 9.59401 11.2047 9.87282 10.8471 10.2599Z" fill="#740000"/>
<path fill-rule="evenodd" clip-rule="evenodd" d="M13.6578 8.43313L13.8248 9.21732L14.5661 8.82522L13.9823 8.17639L13.6578 8.43313Z" fill="#F9FCFF" stroke="#6C6C6C" stroke-width="0.5"/>
<path fill-rule="evenodd" clip-rule="evenodd" d="M19.8592 11.3069C19.8592 11.3069 20.1696 14.4069 20.1696 14.827C20.1696 15.2471 19.5984 14.827 19.5984 14.827C19.5984 14.827 19.5145 13.3466 19.32 12.7967C19.1255 12.2467 19.0337 12.8509 19.0337 13.172C19.0337 13.4931 19.0337 14.9951 19.0337 14.9951C19.0337 14.9951 18.3229 15.097 18.3229 14.827C18.3229 14.5571 18.6187 11.3069 18.6187 11.3069H19.6937H19.8592Z" fill="white"/>
<path fill-rule="evenodd" clip-rule="evenodd" d="M19.8988 11.2634L19.9027 11.3026C20.1099 13.3719 20.2133 14.5447 20.2133 14.827C20.2133 15.1594 19.9766 15.1594 19.5725 14.8621L19.556 14.85L19.5548 14.8295C19.4991 13.8465 19.4067 13.1728 19.2788 12.8112C19.2018 12.5933 19.1794 12.5836 19.1447 12.6734C19.1042 12.7784 19.0774 12.9926 19.0774 13.172V15.0329L19.0399 15.0383C18.5414 15.1097 18.2792 15.0477 18.2792 14.827C18.2792 14.7113 18.3306 14.0727 18.4177 13.0721L18.4273 12.962C18.4596 12.5917 18.4943 12.2013 18.5289 11.8151L18.5624 11.4432L18.5718 11.3396L18.5752 11.303L18.5788 11.2634H19.8988ZM19.6409 14.804C19.9862 15.0548 20.1259 15.0513 20.1259 14.827C20.1259 14.551 20.0237 13.3902 19.8197 11.3506H18.6586L18.6495 11.4511L18.616 11.8229C18.5813 12.209 18.5467 12.5994 18.5143 12.9696L18.5047 13.0797C18.4183 14.0729 18.3666 14.7154 18.3666 14.827C18.3666 14.9623 18.5666 15.0134 18.99 14.9572V13.172C18.99 12.9828 19.018 12.7591 19.0632 12.6421C19.1378 12.4487 19.2625 12.5031 19.3612 12.7822C19.4918 13.1513 19.5846 13.8243 19.6409 14.804Z" fill="#979797"/>
<path fill-rule="evenodd" clip-rule="evenodd" d="M20.9109 10.178C20.9109 10.178 20.6671 11.1011 20.5592 11.1011C20.4514 11.1011 19.7964 10.5346 19.7964 10.5346V11.3036H18.5761V10.963L18.4196 11.3036L18.2062 11.1986L17.837 10.7408H18.2062C18.2062 10.7408 18.3134 10.0056 18.3134 9.88931C18.3134 9.77305 18.3091 9.54305 18.5761 9.4598C18.8432 9.37655 18.9742 9.22915 18.9742 9.22915C18.9742 9.22915 18.3991 8.36261 18.837 8.36261C19.2749 8.36261 19.4731 8.47369 19.4731 8.47369C19.4731 8.47369 19.4731 8.9882 19.4731 9.10868C19.4731 9.22915 20.1012 9.0865 20.1012 9.4598C20.1012 9.83309 20.3941 10.178 20.3941 10.178L20.4687 9.92796L20.9109 10.178Z" fill="#824028"/>
<path fill-rule="evenodd" clip-rule="evenodd" d="M19.0657 8.57616C18.8244 8.57616 18.6288 8.47501 18.6288 8.35024C18.6288 8.22547 18.8244 8.12433 19.0657 8.12433C19.3071 8.12433 19.5027 8.22547 19.5027 8.35024C19.5027 8.47501 19.3071 8.57616 19.0657 8.57616Z" fill="black"/>
<path d="M21.5252 10.3456L18.8526 8.95253C18.8526 8.95253 18.8031 8.48455 18.2869 8.34366C17.7707 8.20276 17.359 7.98474 17.359 7.98474L17.124 8.34366C17.124 8.34366 16.7054 8.23318 18.2869 8.95253C19.8684 9.67187 18.2273 8.56263 18.6769 8.95253L21.5252 10.3456Z" fill="#BA611F"/>
</g>
</g>
<defs>
<clipPath id="clip0_270_67362">
<rect width="32" height="24" fill="white"/>
</clipPath>
</defs>
</svg>
