<svg width="32" height="24" viewBox="0 0 32 24" fill="none" xmlns="http://www.w3.org/2000/svg">
<g clip-path="url(#clip0_270_67445)">
<rect width="32" height="24" fill="white"/>
<path fill-rule="evenodd" clip-rule="evenodd" d="M0 0V24H32V0H0Z" fill="#3195F9"/>
<mask id="mask0_270_67445" style="mask-type:luminance" maskUnits="userSpaceOnUse" x="0" y="0" width="32" height="24">
<path fill-rule="evenodd" clip-rule="evenodd" d="M0 0V24H32V0H0Z" fill="white"/>
</mask>
<g mask="url(#mask0_270_67445)">
<path d="M-1.82168 25.4392L-1.12772 26.4789L-0.0880487 25.7849L36.1729 1.58147L37.2126 0.887505L36.5186 -0.152167L34.2979 -3.47912L33.604 -4.51879L32.5643 -3.82483L-3.69665 20.3786L-4.73632 21.0726L-4.04236 22.1123L-1.82168 25.4392Z" fill="#E31D1C" stroke="#FECA00" stroke-width="2.5"/>
<path fill-rule="evenodd" clip-rule="evenodd" d="M4.93065 8.60629L1.44503 11.024L2.55881 6.88304L0 4.23781L3.46478 4.09478L4.93065 0L6.39653 4.09478H9.85541L7.3025 6.88304L8.58104 10.7796L4.93065 8.60629Z" fill="#FECA00"/>
</g>
</g>
<defs>
<clipPath id="clip0_270_67445">
<rect width="32" height="24" fill="white"/>
</clipPath>
</defs>
</svg>
