<svg xmlns="http://www.w3.org/2000/svg" xmlns:xlink="http://www.w3.org/1999/xlink" width="32" height="24" viewBox="0 0 32 24">
  <defs>
    <rect id="cx---christmas-island-a" width="32" height="24" x="0" y="0"/>
  </defs>
  <g fill="none" fill-rule="evenodd">
    <mask id="cx---christmas-island-b" fill="#fff">
      <use xlink:href="#cx---christmas-island-a"/>
    </mask>
    <g mask="url(#cx---christmas-island-b)">
      <polygon fill="#5EAA22" points="0 0 32 0 32 24 0 24"/>
      <polygon fill="#4141DB" points="0 0 32 24 0 24"/>
      <g fill="#FFF" transform="translate(2 6)">
        <polygon points="4 3 3 3.732 3.134 2.5 2 2 3.134 1.5 3 .268 4 1 5 .268 4.866 1.5 6 2 4.866 2.5 5 3.732"/>
        <polygon points="2 9 1 9.732 1.134 8.5 0 8 1.134 7.5 1 6.268 2 7 3 6.268 2.866 7.5 4 8 2.866 8.5 3 9.732"/>
        <polygon points="6 15 5 15.732 5.134 14.5 4 14 5.134 13.5 5 12.268 6 13 7 12.268 6.866 13.5 8 14 6.866 14.5 7 15.732"/>
        <polygon points="7 5.5 6.5 5.866 6.567 5.25 6 5 6.567 4.75 6.5 4.134 7 4.5 7.5 4.134 7.433 4.75 8 5 7.433 5.25 7.5 5.866"/>
      </g>
      <path fill="#FECA00" d="M1.5610849,10.2239216 C1.18727437,9.8339456 4.55130374,8.91764098 4.90000767,7.73610576 C5.36207392,6.70741862 5.0533814,5.87386802 3.30723315,5.14181676 C1.5610849,4.4097655 -0.203643113,2.99428816 1.82561105,2.99428816 C3.85486521,2.99428816 3.85486521,3.28362173 4.40002334,4.13712146 C4.94518148,4.9906212 6.12348337,5.17345101 6.14846815,4.13712146 C6.14846815,2.37132509 6.31513134,2.13383188 4.88964699,0.598662259 C3.46416264,-0.936507363 8.4641276,1.22909255 8.05088308,3.8608855 C7.63763856,6.49267846 7.14006532,5.64345884 7.45590707,6.08524857 C7.77174883,6.52703829 9.67220417,5.15563495 9.43489773,6.98244717 C8.7700304,8.03309391 7.45140002,9.59634522 1.5610849,10.2239216 Z" transform="translate(20 2)"/>
      <g transform="translate(11 7)">
        <circle cx="5" cy="5" r="5" fill="#FECA00"/>
        <path fill="#548650" d="M1.95296727,3.1620388 C2.52011126,3.03558571 3.29564004,4.55428802 4.69536319,3.9846831 C6.09508635,3.41507817 6.38740104,2.3276082 7.05246325,2.72561249 C7.71752546,3.12361677 7.8048153,4.08190348 7.36178335,4.56354394 C6.91875139,5.04518439 6.1669479,5.1591187 6.1669479,5.76787814 C6.1669479,6.37663758 6.01952201,8.54751556 5.73221294,7.91837979 C4.87062858,7.21932525 5.39628761,6.10588546 4.33502688,5.76787814 C3.27376615,5.42987082 2.62920642,5.441191 1.84634064,5.58382529 C1.06347486,5.72645959 2.37227395,5.19201381 2.64984605,4.6846033 C3.2150015,4.14090161 1.69363484,3.34282877 1.95296727,3.1620388 Z"/>
      </g>
    </g>
  </g>
</svg>
