<svg width="32" height="24" viewBox="0 0 32 24" fill="none" xmlns="http://www.w3.org/2000/svg">
<g clip-path="url(#clip0_270_67440)">
<rect width="32" height="24" fill="white"/>
<path fill-rule="evenodd" clip-rule="evenodd" d="M0 0V24H32V0H0Z" fill="#F7FCFF"/>
<mask id="mask0_270_67440" style="mask-type:luminance" maskUnits="userSpaceOnUse" x="0" y="0" width="32" height="24">
<path fill-rule="evenodd" clip-rule="evenodd" d="M0 0V24H32V0H0Z" fill="white"/>
</mask>
<g mask="url(#mask0_270_67440)">
<path fill-rule="evenodd" clip-rule="evenodd" d="M7.59966 14.3208C7.17155 14.0232 7.3641 13.3704 7.3641 13.3704C7.3641 13.3704 7.99963 13.7315 8.22243 13.8991C8.44522 14.0667 8.60592 14.7583 8.60592 14.7583C8.60592 14.7583 8.02776 14.6183 7.59966 14.3208ZM8.74381 15.2542C8.72222 15.0656 8.77508 14.897 8.77508 14.897C8.77508 14.897 9.31154 15.1837 9.4996 15.3167C9.68766 15.4498 9.82331 15.9987 9.82331 15.9987C9.82331 15.9987 9.33528 15.8876 8.97391 15.6514C8.84252 15.5655 8.78039 15.4424 8.75452 15.3204C8.64662 15.3535 8.37147 15.4252 8.08761 15.3979C7.72305 15.3628 7.46002 14.8513 7.46002 14.8513C7.46002 14.8513 7.95745 14.8493 8.1541 14.8761C8.30729 14.8969 8.6152 15.1454 8.74381 15.2542ZM10.4354 16.2301C10.4354 16.2301 10.474 16.7675 10.863 16.8773C11.252 16.9871 11.7063 16.94 11.7063 16.94C11.7063 16.94 11.4028 16.4663 11.1969 16.3996C10.991 16.333 10.4354 16.2301 10.4354 16.2301ZM12.7413 17.6687C12.3392 17.6281 12.2078 17.1056 12.2078 17.1056C12.2078 17.1056 12.7728 17.1104 12.9872 17.1403C13.2016 17.1701 13.5827 17.584 13.5827 17.584C13.5827 17.584 13.1435 17.7093 12.7413 17.6687ZM13.4554 16.7013C13.4554 16.7013 13.4009 17.3282 13.8049 17.5384C14.2089 17.7485 14.7122 17.7922 14.7122 17.7922C14.7122 17.7922 14.4667 17.1814 14.2544 17.0604C14.0421 16.9393 13.4554 16.7013 13.4554 16.7013ZM13.738 18.3021C13.2917 18.3931 12.9395 17.8715 12.9395 17.8715C12.9395 17.8715 13.5453 17.6873 13.7865 17.6478C14.0277 17.6083 14.6027 17.9284 14.6027 17.9284C14.6027 17.9284 14.1842 18.2112 13.738 18.3021ZM10.5114 17.1768C10.5114 17.1768 10.7228 17.6724 11.1264 17.6495C11.5299 17.6266 11.9441 17.4342 11.9441 17.4342C11.9441 17.4342 11.503 17.0851 11.2866 17.0891C11.0702 17.0931 10.5114 17.1768 10.5114 17.1768ZM11.683 16.6094C11.322 16.4274 11.3867 15.8925 11.3867 15.8925C11.3867 15.8925 11.9125 16.0994 12.1019 16.2042C12.2913 16.3089 12.4988 16.8318 12.4988 16.8318C12.4988 16.8318 12.0439 16.7914 11.683 16.6094ZM9.64967 14.6529C9.64967 14.6529 9.65055 15.3137 9.92219 15.5719C10.1938 15.8302 10.5197 15.9203 10.5197 15.9203C10.5197 15.9203 10.327 15.2506 10.1837 15.1036C10.0403 14.9566 9.64967 14.6529 9.64967 14.6529ZM8.65364 16.1128C8.65364 16.1128 9.0594 16.6411 9.47728 16.6139C9.89516 16.5868 10.2618 16.3784 10.2618 16.3784C10.2618 16.3784 9.66733 16.0081 9.44023 16.0138C9.21313 16.0196 8.65364 16.1128 8.65364 16.1128ZM8.75142 15.9926C8.52919 16.013 8.32114 15.7361 8.32114 15.7361C8.32114 15.7361 8.61948 15.6784 8.74013 15.6722C8.86079 15.6659 9.17125 15.8556 9.17125 15.8556C9.17125 15.8556 8.97366 15.9723 8.75142 15.9926ZM8.93643 13.8545C8.93643 13.8545 8.69987 14.1074 8.7585 14.3228C8.81713 14.5381 8.96628 14.7124 8.96628 14.7124C8.96628 14.7124 9.09922 14.3737 9.07212 14.256C9.04501 14.1383 8.93643 13.8545 8.93643 13.8545ZM10.8953 16.0833C10.7577 16.0317 10.7896 15.8655 10.7896 15.8655C10.7896 15.8655 10.9907 15.9228 11.0628 15.9527C11.1349 15.9827 11.2086 16.1417 11.2086 16.1417C11.2086 16.1417 11.0329 16.135 10.8953 16.0833ZM10.1809 16.7242C10.1809 16.7242 10.149 16.8904 10.2866 16.9421C10.4242 16.9937 10.5999 17.0005 10.5999 17.0005C10.5999 17.0005 10.5262 16.8414 10.4541 16.8115C10.382 16.7815 10.1809 16.7242 10.1809 16.7242ZM12.8228 16.9421C12.6853 16.8904 12.7171 16.7242 12.7171 16.7242C12.7171 16.7242 12.9183 16.7815 12.9903 16.8115C13.0624 16.8414 13.1362 17.0005 13.1362 17.0005C13.1362 17.0005 12.9604 16.9937 12.8228 16.9421ZM12.2099 17.7738C12.2099 17.7738 12.178 17.94 12.3156 17.9917C12.4531 18.0433 12.6289 18.05 12.6289 18.05C12.6289 18.05 12.5552 17.891 12.4831 17.8611C12.411 17.8311 12.2099 17.7738 12.2099 17.7738ZM14.9307 18.9121L14.485 18.5409C14.7626 18.3804 15.0486 18.2526 15.2933 18.1567C15.226 18.1104 15.1651 18.0756 15.116 18.0587V17.9371C15.116 17.9371 15.2824 17.9803 15.5318 18.068C15.7811 17.9803 15.9476 17.9371 15.9476 17.9371V18.0587C15.8984 18.0756 15.8376 18.1104 15.7703 18.1567C16.0149 18.2526 16.3009 18.3804 16.5786 18.5409L16.1329 18.9121C16.1329 18.9121 15.8269 18.5931 15.5318 18.3425C15.2366 18.5931 14.9307 18.9121 14.9307 18.9121ZM23.6994 13.3704C23.6994 13.3704 23.892 14.0232 23.4639 14.3208C23.0358 14.6183 22.4576 14.7583 22.4576 14.7583C22.4576 14.7583 22.6183 14.0667 22.8411 13.8991C23.0639 13.7315 23.6994 13.3704 23.6994 13.3704ZM22.3197 15.2542C22.3413 15.0656 22.2885 14.897 22.2885 14.897C22.2885 14.897 21.752 15.1837 21.5639 15.3167C21.3759 15.4498 21.2402 15.9987 21.2402 15.9987C21.2402 15.9987 21.7283 15.8876 22.0896 15.6514C22.221 15.5655 22.2832 15.4424 22.309 15.3204C22.4169 15.3535 22.6921 15.4252 22.9759 15.3979C23.3405 15.3628 23.6035 14.8513 23.6035 14.8513C23.6035 14.8513 23.1061 14.8493 22.9094 14.8761C22.7563 14.8969 22.4483 15.1454 22.3197 15.2542ZM20.6281 16.2301C20.6281 16.2301 20.5895 16.7675 20.2005 16.8773C19.8115 16.9871 19.3573 16.94 19.3573 16.94C19.3573 16.94 19.6607 16.4663 19.8666 16.3996C20.0725 16.333 20.6281 16.2301 20.6281 16.2301ZM18.3222 17.6687C18.7244 17.6281 18.8557 17.1056 18.8557 17.1056C18.8557 17.1056 18.2907 17.1104 18.0763 17.1403C17.862 17.1701 17.4809 17.584 17.4809 17.584C17.4809 17.584 17.9201 17.7093 18.3222 17.6687ZM17.6081 16.7013C17.6081 16.7013 17.6626 17.3282 17.2586 17.5384C16.8546 17.7485 16.3514 17.7922 16.3514 17.7922C16.3514 17.7922 16.5968 17.1814 16.8091 17.0604C17.0214 16.9393 17.6081 16.7013 17.6081 16.7013ZM17.3256 18.3021C17.7718 18.3931 18.124 17.8715 18.124 17.8715C18.124 17.8715 17.5183 17.6873 17.2771 17.6478C17.0359 17.6083 16.4608 17.9284 16.4608 17.9284C16.4608 17.9284 16.8794 18.2112 17.3256 18.3021ZM20.5522 17.1768C20.5522 17.1768 20.3407 17.6724 19.9371 17.6495C19.5336 17.6266 19.1194 17.4342 19.1194 17.4342C19.1194 17.4342 19.5606 17.0851 19.777 17.0891C19.9934 17.0931 20.5522 17.1768 20.5522 17.1768ZM19.3806 16.6094C19.7415 16.4274 19.6769 15.8925 19.6769 15.8925C19.6769 15.8925 19.1511 16.0994 18.9617 16.2042C18.7723 16.3089 18.5648 16.8318 18.5648 16.8318C18.5648 16.8318 19.0197 16.7914 19.3806 16.6094ZM21.4139 14.6529C21.4139 14.6529 21.413 15.3137 21.1414 15.5719C20.8697 15.8302 20.5438 15.9203 20.5438 15.9203C20.5438 15.9203 20.7365 15.2506 20.8799 15.1036C21.0232 14.9566 21.4139 14.6529 21.4139 14.6529ZM22.4099 16.1128C22.4099 16.1128 22.0041 16.6411 21.5863 16.6139C21.1684 16.5868 20.8017 16.3784 20.8017 16.3784C20.8017 16.3784 21.3962 16.0081 21.6233 16.0138C21.8504 16.0196 22.4099 16.1128 22.4099 16.1128ZM22.3121 15.9926C22.5344 16.013 22.7424 15.7361 22.7424 15.7361C22.7424 15.7361 22.4441 15.6784 22.3234 15.6722C22.2028 15.6659 21.8923 15.8556 21.8923 15.8556C21.8923 15.8556 22.0899 15.9723 22.3121 15.9926ZM22.1271 13.8545C22.1271 13.8545 22.3637 14.1074 22.305 14.3228C22.2464 14.5381 22.0973 14.7124 22.0973 14.7124C22.0973 14.7124 21.9643 14.3737 21.9914 14.256C22.0185 14.1383 22.1271 13.8545 22.1271 13.8545ZM20.1683 16.0833C20.3058 16.0317 20.2739 15.8655 20.2739 15.8655C20.2739 15.8655 20.0728 15.9228 20.0007 15.9527C19.9287 15.9827 19.8549 16.1417 19.8549 16.1417C19.8549 16.1417 20.0307 16.135 20.1683 16.0833ZM20.8826 16.7242C20.8826 16.7242 20.9145 16.8904 20.7769 16.9421C20.6394 16.9937 20.4636 17.0005 20.4636 17.0005C20.4636 17.0005 20.5373 16.8414 20.6094 16.8115C20.6815 16.7815 20.8826 16.7242 20.8826 16.7242ZM18.2407 16.9421C18.3783 16.8904 18.3464 16.7242 18.3464 16.7242C18.3464 16.7242 18.1453 16.7815 18.0732 16.8115C18.0011 16.8414 17.9274 17.0005 17.9274 17.0005C17.9274 17.0005 18.1032 16.9937 18.2407 16.9421ZM18.8537 17.7738C18.8537 17.7738 18.8855 17.94 18.748 17.9917C18.6104 18.0433 18.4346 18.05 18.4346 18.05C18.4346 18.05 18.5084 17.891 18.5804 17.8611C18.6525 17.8311 18.8537 17.7738 18.8537 17.7738Z" fill="#006B49"/>
<path fill-rule="evenodd" clip-rule="evenodd" d="M27.806 3.01703C27.806 3.01703 28.1522 3.46188 27.806 3.46188C27.4599 3.46188 26.5796 3.94323 26.5796 3.94323C26.5796 3.94323 26.1609 4.56814 25.6538 4.70952C25.1466 4.85091 24.9756 5.37594 24.2333 5.59477C23.4909 5.81359 23.4151 5.87334 23.4151 6.09481C23.4151 6.31628 23.5416 6.69135 23.0347 6.69135C22.5278 6.69135 22.1695 5.98161 21.8952 6.69135C21.6209 7.4011 21.343 7.60916 21.723 8.04334C22.103 8.47752 22.6064 8.89328 22.8205 9.14403C23.0347 9.39478 24.4633 10.1286 23.4151 10.1286C22.3669 10.1286 22.8939 9.46438 22.087 9.70701C21.28 9.94964 21.7433 10.3076 21.1266 10.1286C20.5099 9.94964 20.0988 9.78637 19.9074 9.86801C19.7161 9.94964 19.4087 9.41439 19.4087 10.1286C19.4087 10.8428 19.9842 10.5533 18.7502 11.3422C17.5162 12.1311 17.7613 11.9131 17.1949 11.9131C16.6285 11.9131 16.4295 12.2702 16.0519 12.2702C15.6742 12.2702 15.7203 12.2702 15.295 12.2702C14.8696 12.2702 15.3253 11.8185 14.6 12.2702C13.8747 12.722 13.6148 12.812 13.6148 12.9856C13.6148 13.1591 13.6148 13.6194 13.6148 13.6194C13.6148 13.6194 12.9503 13.9996 12.9503 13.6194C12.9503 13.2392 12.7454 13.1419 12.4699 12.9856C12.1943 12.8292 11.6437 12.9418 11.0557 12.9856C10.4677 13.0293 9.80295 12.3925 9.2925 12.3925C8.78205 12.3925 8.68708 11.9131 8.54744 11.9131C8.40781 11.9131 8.69312 11.5035 8.09876 11.1359C7.50441 10.7683 7.29637 10.7226 7.29637 10.1286C7.29637 9.53462 7.02344 9.37216 7.02344 9.01122C7.02344 8.65029 7.31428 9.14403 7.93086 9.14403C8.54744 9.14403 8.58789 8.76206 9.2925 8.4027C9.99711 8.04334 10.2362 7.84668 10.8237 8.04334C11.4113 8.24 11.9895 8.97282 12.4699 8.26946C12.9503 7.5661 12.9503 6.76177 12.9503 6.35568C12.9503 5.94959 12.6662 5.83393 13.433 6.09481C14.1999 6.35568 14.6461 6.35568 15.9205 6.35568C17.1949 6.35568 18.7187 6.77244 19.1883 6.35568C19.6579 5.93892 20.1599 5.59477 21.3783 5.59477C22.5967 5.59477 22.9948 4.99594 23.8141 4.70952C24.6334 4.42311 23.4252 5.02859 25.2629 4.24524C27.1007 3.46188 27.806 3.01703 27.806 3.01703Z" fill="#F57A01"/>
</g>
</g>
<defs>
<clipPath id="clip0_270_67440">
<rect width="32" height="24" fill="white"/>
</clipPath>
</defs>
</svg>
