<svg xmlns="http://www.w3.org/2000/svg" xmlns:xlink="http://www.w3.org/1999/xlink" width="32" height="24" viewBox="0 0 32 24">
  <defs>
    <rect id="de---germany-a" width="32" height="24" x="0" y="0"/>
  </defs>
  <g fill="none" fill-rule="evenodd">
    <mask id="de---germany-b" fill="#fff">
      <use xlink:href="#de---germany-a"/>
    </mask>
    <g mask="url(#de---germany-b)">
      <path fill="#FFD018" d="M0,16 L32,16 L32,22 C32,23.1045695 31.1045695,24 30,24 L2,24 C0.8954305,24 1.3527075e-16,23.1045695 0,22 L0,16 Z"/>
      <polygon fill="#E31D1C" points="0 8 32 8 32 16 0 16"/>
      <path fill="#272727" d="M2,0 L30,0 C31.1045695,-2.02906125e-16 32,0.8954305 32,2 L32,8 L0,8 L0,2 C-1.3527075e-16,0.8954305 0.8954305,2.02906125e-16 2,0 Z"/>
    </g>
  </g>
</svg>
