<svg fill="none" height="24" viewBox="0 0 32 24" width="32" xmlns="http://www.w3.org/2000/svg" xmlns:xlink="http://www.w3.org/1999/xlink"><mask id="a" height="24" maskUnits="userSpaceOnUse" width="32" x="0" y="0"><path d="m0 0h32v24h-32z" fill="#fff"/></mask><g clip-rule="evenodd" fill-rule="evenodd" mask="url(#a)"><path d="m16 0h16v24h-16z" fill="#f7fcff"/><path d="m0 0h16v24h-16z" fill="#36a400"/><path d="m16.0001 15.9979c-2.4602-.4624-3.0121-2.5993-3.0121-4.1892 0-1.59.9128-3.53902 3.0121-3.90714 2.0993-.36813 5.0042 1.10463 5.0042 1.10463s-2.6781-2.98849-5.4815-2.98849-5.4815 2.10354-5.4815 5.791c0 3.6874 1.9211 6.1097 5.4815 6.1097 3.5603 0 5.3183-3.7579 5.3183-3.7579s-2.3808 2.2998-4.841 1.8374zm.9356-5.4412-1.7981-.013 1.7513 1.248-.6127 2.0149 1.8232-1.1008 2.0618 1.1521-1.0875-2.0492 1.6624-1.265-1.7025-.002-1.0044-1.77057z" fill="#f00"/></g></svg>