<svg width="32" height="24" fill="none" xmlns="http://www.w3.org/2000/svg">
  <mask id="a" maskUnits="userSpaceOnUse" x="0" y="0" width="32" height="24">
    <path fill="#fff" d="M0 0h32v24H0z"/>
  </mask>
  <g mask="url(#a)">
    <path fill-rule="evenodd" clip-rule="evenodd" d="M0 0v24h32V0H0z" fill="#F7FCFF"/>
    <mask id="b" maskUnits="userSpaceOnUse" x="0" y="0" width="32" height="24">
      <path fill-rule="evenodd" clip-rule="evenodd" d="M0 0v24h32V0H0z" fill="#fff"/>
    </mask>
    <g mask="url(#b)">
      <path fill-rule="evenodd" clip-rule="evenodd" d="M0 0v8h32V0H0z" fill="#BF2714"/>
      <path fill-rule="evenodd" clip-rule="evenodd" d="M0 16v8h32v-8H0z" fill="#272727"/>
      <path d="M12.26 10.22l1 .046-.252 5.47-.998-.046.25-5.47zm1.044.34l.998.056-.25 4.436-.999-.057.251-4.435z" fill="#C09302"/>
      <path d="M14.348 10.892l.997.082-.25 3.056-.997-.082.25-3.056zm5.392-.672l-1 .046.251 5.47 1-.046-.251-5.47zm-1.044.34l-.998.056.25 4.436.999-.057-.251-4.435z" fill="#C09302"/>
      <path d="M17.651 10.892l-.996.082.25 3.056.997-.082-.25-3.056zm-1.678 4.435l-.975-.224.413-1.8.975.223-.413 1.8z" fill="#C09302"/>
      <path d="M16.72 15.327l.974-.224-.412-1.8-.975.223.413 1.8z" fill="#C09302"/>
      <path d="M16.472 15.31h-1v-1.768h1v1.768zm-1.837-4.397l1 .025-.059 2.38-1-.024.059-2.38zm1.739 0l1 .025-.059 2.38-1-.024.059-2.38z" fill="#C09302"/>
      <path d="M13.338 15.923l.26-.966c1.06.285 1.875.427 2.43.427.556 0 1.371-.142 2.432-.427l.26.966c-1.139.306-2.031.46-2.691.46-.66 0-1.553-.154-2.691-.46zm-1.056-5.7c-.066-.66.32-1.108.975-1.051.216.019.458.082.78.192l.186.065c.443.157.563.198.588.203-.098-.022.191-.545.258-.633.007.056-.026.048-.106.032l-.902-.18.642-.66a1.17 1.17 0 01.865-.344c.035 0 .068-.002.176-.008l.17-.009c.625-.02 1.072.156 1.072.798 0 .23.03.599.077.879.016.094.047.182-.045.221.004-.033.223-.12.563-.262l.04-.017c.988-.412 1.103-.45 1.422-.257.212.13.414.36.64.707l-.837.547c-.146-.223-.262-.358-.317-.396.125.088-.298.228-.522.322l-.04.017c-.77.321-.87.36-1.09.36-.599 0-.813-.613-.872-1.49-.185.607-.735 1.374-1.19 1.374-.198 0-.102.031-.927-.262l-.172-.06a2.692 2.692 0 00-.544-.143.449.449 0 01.04-.04l-.93.095z" fill="#C09302"/>
    </g>
  </g>
</svg>
