<svg width="32" height="24" viewBox="0 0 32 24" fill="none" xmlns="http://www.w3.org/2000/svg">
<g clip-path="url(#clip0_270_67548)">
<rect width="32" height="24" fill="white"/>
<path fill-rule="evenodd" clip-rule="evenodd" d="M0 0V24H32V0H0Z" fill="#2E42A5"/>
<mask id="mask0_270_67548" style="mask-type:luminance" maskUnits="userSpaceOnUse" x="0" y="0" width="32" height="24">
<path fill-rule="evenodd" clip-rule="evenodd" d="M0 0V24H32V0H0Z" fill="white"/>
</mask>
<g mask="url(#mask0_270_67548)">
</g>
<g clip-path="url(#clip1_270_67548)">
<rect width="18" height="14" fill="#2E42A5"/>
<path d="M-2.00427 12.9998L1.95668 14.737L18.0899 1.88875L20.1792 -0.69278L15.9435 -1.2734L9.36317 4.26329L4.06667 7.99372L-2.00427 12.9998Z" fill="#F7FCFF"/>
<path d="M-1.46204 14.2169L0.555885 15.2251L19.4289 -0.932648H16.5955L-1.46204 14.2169Z" fill="#F50100"/>
<path d="M20.0043 12.9998L16.0433 14.737L-0.0898743 1.88875L-2.17919 -0.69278L2.05648 -1.2734L8.63683 4.26329L13.9333 7.99372L20.0043 12.9998Z" fill="#F7FCFF"/>
<path d="M19.8691 13.8733L17.8512 14.8815L9.81489 7.96351L7.43229 7.19059L-2.3802 -0.683947H0.453194L10.2602 7.00368L12.8651 7.9305L19.8691 13.8733Z" fill="#F50100"/>
<path fill-rule="evenodd" clip-rule="evenodd" d="M9.98451 0H7.98451V6H0V8H7.98451V14H9.98451V8H18V6H9.98451V0Z" fill="#F50100"/>
<path fill-rule="evenodd" clip-rule="evenodd" d="M6.48451 0H11.4845V4.5H18V9.5H11.4845L11.5 14H6.5L6.48451 9.5H0V4.5H6.48451V0ZM7.98451 6H0V8H7.98451V14H9.98451V8H18V6H9.98451V0H7.98451V6Z" fill="#F7FCFF"/>
</g>
<path d="M22.9632 18.3937C22.9632 18.3937 23.9472 19.3362 23.353 19.9747C22.7589 20.6133 22.2141 20.2424 22.2141 20.2424" stroke="#B85F3C"/>
<path d="M29.0498 18.3937C29.0498 18.3937 28.0659 19.3362 28.66 19.9747C29.2542 20.6133 29.799 20.2424 29.799 20.2424" stroke="#B85F3C"/>
<path d="M22.3207 19.1531C22.3207 19.1531 24.0159 20.7731 26.0998 20.7731C28.1838 20.7731 29.8607 19.5355 29.8607 19.5355" stroke="#CB8B73"/>
</g>
<defs>
<clipPath id="clip0_270_67548">
<rect width="32" height="24" fill="white"/>
</clipPath>
<clipPath id="clip1_270_67548">
<rect width="18" height="14" fill="white"/>
</clipPath>
</defs>
</svg>
