<svg xmlns="http://www.w3.org/2000/svg" xmlns:xlink="http://www.w3.org/1999/xlink" width="32" height="24" viewBox="0 0 32 24">
  <defs>
    <rect id="a" width="32" height="24"/>
    <rect id="c" width="32" height="24"/>
    <rect id="e" width="32" height="24"/>
    <path id="g" d="M0.0379462781,0.0326909109 C0.0379462781,5.9194717 -0.322833339,9.96398849 3.95022629,9.96398849 C8.22328593,9.96398849 8.22328593,4.9983397 7.9400373,0.0326909109 L0.0379462781,0.0326909109 Z"/>
    <rect id="i" width="18" height="14"/>
  </defs>
  <g fill="none" fill-rule="evenodd">
    <mask id="b" fill="white">
      <use xlink:href="#a"/>
    </mask>
    <g mask="url(#b)">
      <mask id="d" fill="white">
        <use xlink:href="#c"/>
      </mask>
      <g mask="url(#d)">
        <mask id="f" fill="white">
          <use xlink:href="#e"/>
        </mask>
        <use fill="#2E42A5" xlink:href="#e"/>
        <g mask="url(#f)">
          <g transform="translate(22 10)">
            <mask id="h" fill="white">
              <use xlink:href="#g"/>
            </mask>
            <path stroke="#F7FCFF" stroke-width=".5" d="M0.287763789,0.282690911 C0.287365086,0.547871993 0.286279289,0.827733922 0.284178699,1.27985647 C0.267114073,4.95277809 0.336161075,6.25107532 0.734601036,7.49666384 C1.21869205,9.01001159 2.17678571,9.71398849 3.95022629,9.71398849 C5.81650979,9.71398849 6.89327243,8.73354385 7.41225859,6.79578067 C7.8213716,5.26825605 7.8737905,3.39694065 7.70361302,0.282690911 L0.287763789,0.282690911 Z"/>
            <g mask="url(#h)">
              <g transform="translate(-2)">
                <path fill="#E1E5E8" d="M4.52188516,3.58698348 C4.25876438,3.39238772 4.07079175,3.13745219 3.95796728,2.8221769 C3.78873057,2.34926396 3.45386119,1.09033124 3.45386119,0.981012546 C3.45386119,0.871693854 3.00826331,0.981012546 3.00826331,0.981012546 C3.00826331,0.981012546 3.01447453,0.448631932 3.1826377,0.448631932 C3.35080086,0.448631932 3.35708877,-0.0449992357 3.76507424,0.0793101172 C4.1730597,0.20361947 4.49389631,0.659491142 4.90966498,0.659491142 C5.32543364,0.659491142 7.06342642,0.792073643 7.34277818,0.792073643 C7.62212994,0.792073643 8.35858186,1.3817364 8.35858186,1.82310913 C8.35858186,2.26448187 8.15775225,2.92209107 7.99978776,2.92209107 C7.84182327,2.92209107 7.64306407,3.30470649 7.34277818,3.17841724 C7.04249229,3.05212799 6.32559423,2.79205415 5.68342258,2.92209107 C5.04125093,3.05212799 4.90966498,2.97038646 4.90966498,3.17841724 C4.90966498,3.31710443 4.78040504,3.45329317 4.52188516,3.58698348 Z"/>
                <polygon fill="#49801E" points="3.6 3.279 8.756 3.279 7.868 4.426 4.225 4.426"/>
                <path stroke="#FFFFFF" stroke-width="1.067" d="M3.53292012 8.29561809C4.12692541 8.50808722 4.5480618 8.60140896 4.79632929 8.57558331 5.20872259 8.53268473 5.57382524 8.06258213 5.84944095 8.06258213 6.12455452 8.06258213 6.65425697 8.5328409 7.06565019 8.57558331 7.31426826 8.60141392 7.68103879 8.50809218 8.16596179 8.29561809M2.55438379 6.93623905C2.75978875 6.76230944 3.08596752 6.6689877 3.53292012 6.65627383 4.12692541 6.86874296 4.5480618 6.9620647 4.79632929 6.93623905 5.20872259 6.89334047 5.57382524 6.42323787 5.84944095 6.42323787 6.12455452 6.42323787 6.65425697 6.89349664 7.06565019 6.93623905 7.31426826 6.96206965 7.68103879 6.86874791 8.16596179 6.65627383 8.43695218 6.35156441 8.74260426 6.36008591 9.08291805 6.68183836"/>
                <path fill="#FFFFFF" fill-rule="nonzero" d="M2.4607613,5.5297506 L1.78640969,4.70329571 C2.050823,4.48754583 2.4948055,4.27491772 3.14291339,4.03989667 L3.45747285,4.02473262 C4.12940968,4.19740807 4.57863789,4.27224227 4.74313516,4.25575325 C4.79742111,4.25031169 4.88812972,4.20622458 5.05383087,4.09631502 C5.52438992,3.78419325 5.57006227,3.758757 5.84944095,3.758757 C6.10477486,3.758757 6.15744165,3.78324395 6.69115638,4.07148152 C6.79025471,4.12458817 6.82745931,4.14390794 6.88107648,4.16964721 C6.99375532,4.22373941 7.0744881,4.25131245 7.11878016,4.25574683 C7.24701089,4.26858486 7.50498769,4.2087407 7.86605912,4.06344712 C8.33560728,3.6366604 8.93043091,3.68087143 9.44210169,4.14703417 C9.78343842,4.45801239 10.0574163,4.70923704 10.2642418,4.90090378 L9.53921065,5.68327688 C9.33491948,5.4939587 9.06302524,5.24464463 8.72373441,4.93553035 C8.58883084,4.81262512 8.61783999,4.81340446 8.55788789,4.87836371 L8.37341221,5.0079815 C7.81316809,5.24452723 7.37083385,5.35298074 7.01252023,5.31710756 C6.82016591,5.29784968 6.6341593,5.23432199 6.41945253,5.13125061 C6.34755418,5.09673534 6.29623506,5.07008612 6.18428781,5.01002403 C5.92670824,4.8709158 5.82886327,4.82542366 5.84944095,4.82542366 C5.89432403,4.82542366 5.83206602,4.86009695 5.64343759,4.98521417 C5.33997326,5.18650203 5.12888248,5.28909851 4.84952342,5.31710113 C4.54069608,5.34805762 4.05902485,5.27357909 3.354606,5.09891 C2.89700851,5.27194454 2.59302412,5.42182984 2.4607613,5.5297506 Z"/>
              </g>
            </g>
          </g>
        </g>
        <g mask="url(#f)">
          <g transform="translate(22 16.8)">
            <path stroke="#B85F3C" d="M0.963263817,1.59371762 C1.61922906,2.22202645 1.7491638,2.74904048 1.35306802,3.17475972 C0.956972241,3.60047895 0.577328349,3.68970197 0.214136343,3.44242879"/>
            <path stroke="#B85F3C" d="M7.18548604,1.59371762 C7.84145129,2.22202645 7.97138602,2.74904048 7.57529024,3.17475972 C7.17919446,3.60047895 6.79955057,3.68970197 6.43635857,3.44242879" transform="matrix(-1 0 0 1 14.235 0)"/>
            <path stroke="#CB8B73" d="M0.320702364,2.35315835 C1.45084146,3.43313172 2.7105636,3.97311841 4.09986876,3.97311841 C5.48917392,3.97311841 6.74279987,3.56058804 7.86074659,2.7355273"/>
          </g>
        </g>
        <g mask="url(#f)">
          <mask id="j" fill="white">
            <use xlink:href="#i"/>
          </mask>
          <use fill="#2B409A" xlink:href="#i"/>
          <g mask="url(#j)">
            <g transform="translate(-4 -2)">
              <polygon fill="#FFFFFF" fill-rule="nonzero" points="1.996 2.464 5.957 .727 22.09 13.575 24.179 16.156 19.944 16.737 13.363 11.2 8.067 7.47" transform="matrix(1 0 0 -1 0 17.464)"/>
              <polygon fill="#F50100" fill-rule="nonzero" points="2.538 2.075 4.556 1.067 23.429 17.225 20.596 17.225" transform="matrix(1 0 0 -1 0 18.292)"/>
              <g transform="matrix(-1 0 0 1 26 0)">
                <polygon fill="#FFFFFF" fill-rule="nonzero" points="1.996 2.464 5.957 .727 22.09 13.575 24.179 16.156 19.944 16.737 13.363 11.2 8.067 7.47" transform="matrix(1 0 0 -1 0 17.464)"/>
                <polygon fill="#F50100" fill-rule="nonzero" points="2.131 2.324 4.149 1.316 12.185 8.234 14.568 9.007 24.38 16.881 21.547 16.881 11.74 9.194 9.135 8.267" transform="matrix(1 0 0 -1 0 18.198)"/>
              </g>
              <path fill="#F50100" stroke="#F7FCFF" stroke-width="1.5" d="M7.25,5.25 L7.25,-0.75 L10.75,-0.75 L10.75,5.25 L18.75,5.25 L18.75,8.75 L10.75,8.75 L10.75,14.75 L7.25,14.75 L7.25,8.75 L-0.75,8.75 L-0.75,5.25 L7.25,5.25 Z" transform="translate(4 2)"/>
            </g>
          </g>
        </g>
      </g>
    </g>
  </g>
</svg>
