<svg width="32" height="24" viewBox="0 0 32 24" fill="none" xmlns="http://www.w3.org/2000/svg">
<g clip-path="url(#clip0_270_67391)">
<rect width="32" height="24" fill="white"/>
<path fill-rule="evenodd" clip-rule="evenodd" d="M0 0.100006H32V24.1H0V0.100006Z" fill="#2B409A"/>
<g clip-path="url(#clip1_270_67391)">
<rect width="18" height="14" fill="#2E42A5"/>
<path d="M-2.00427 12.9998L1.95668 14.737L18.0899 1.88875L20.1792 -0.69278L15.9435 -1.2734L9.36317 4.26329L4.06667 7.99372L-2.00427 12.9998Z" fill="#F7FCFF"/>
<path d="M-1.46204 14.217L0.555885 15.2251L19.4289 -0.932632H16.5955L-1.46204 14.217Z" fill="#F50100"/>
<path d="M20.0043 12.9998L16.0433 14.737L-0.0898743 1.88875L-2.17919 -0.69278L2.05648 -1.2734L8.63683 4.26329L13.9333 7.99372L20.0043 12.9998Z" fill="#F7FCFF"/>
<path d="M19.8691 13.8733L17.8512 14.8815L9.81489 7.96351L7.43229 7.19059L-2.3802 -0.683947H0.453194L10.2602 7.00368L12.8651 7.9305L19.8691 13.8733Z" fill="#F50100"/>
<path fill-rule="evenodd" clip-rule="evenodd" d="M9.98451 0H7.98451V6H0V8H7.98451V14H9.98451V8H18V6H9.98451V0Z" fill="#F50100"/>
<path fill-rule="evenodd" clip-rule="evenodd" d="M6.48451 0H11.4845V4.5H18V9.5H11.4845L11.5 14H6.5L6.48451 9.5H0V4.5H6.48451V0ZM7.98451 6H0V8H7.98451V14H9.98451V8H18V6H9.98451V0H7.98451V6Z" fill="#F7FCFF"/>
</g>
<path d="M24.3181 18.5514C24.2566 18.5514 24.0336 18.4313 24.0336 18.4313C24.0336 18.4313 23.8721 18.687 23.7875 18.7017C23.7029 18.7168 23.2646 18.5442 23.2646 18.5442C23.2646 18.5442 22.9571 18.7844 22.8879 18.7693C22.8187 18.7546 22.1113 18.6043 22.1113 18.6043L21.7268 18.3637C21.7268 18.3637 21.5115 18.7093 21.5038 18.7017C21.4961 18.6942 20.8579 18.5741 20.8579 18.5741C20.8579 18.5741 21.0502 18.3112 21.0502 18.3037C21.0502 18.2961 20.9579 18.2659 20.9579 18.2659L20.8195 18.3788L20.2505 18.4313L20.3889 18.0405L20.6119 17.71L23.3415 15.1176L24.6871 17.5446L24.4873 18.2735C24.4873 18.2735 24.3795 18.5514 24.3181 18.5514Z" fill="#6A4C2D"/>
<path d="M21.7105 18.0609C21.8055 18.1759 23.058 19.4561 23.261 20.0618C23.4641 20.6675 21.614 19.8939 21.614 19.8939C21.614 19.8939 23.9436 18.3807 25.1073 18.3807C26.271 18.3807 28.5582 19.8939 28.5582 19.8939C28.5582 19.8939 27.0234 20.9747 27.0392 20.2932C27.0549 19.6116 27.7596 18.2691 28.6006 18.0609" stroke="#FFBB00" stroke-width="0.5" stroke-linecap="round" stroke-linejoin="round"/>
<path d="M29.5418 18.16L29.1592 18.0175L28.8204 17.5689L27.4175 17.4657L26.1385 17.1167L25.5992 17.4764L25.8896 17.8556L26.5992 18.1167L29.5418 18.16Z" fill="#F7FCFF"/>
<path d="M23.9389 9.86611C23.9519 9.89888 24.2379 9.84078 24.2988 10.0121C24.6067 9.55748 24.968 9.99108 24.968 9.99108L25.2721 9.63106L25.6154 9.95618L25.9304 9.93165L26.2596 10.7042L23.662 10.6555C23.662 10.6555 23.9259 9.83335 23.9389 9.86611Z" fill="#656263"/>
<path d="M26.6315 13.1539C26.6106 12.9093 26.3938 12.8807 26.2728 12.8889C26.1515 12.8971 26.043 12.9989 26.043 12.9989L25.6424 12.7502C25.6424 12.7502 25.8429 11.5145 26.0556 11.4372C26.2576 11.2947 26.2934 11.2331 26.2934 11.2007C26.2934 11.168 26.2184 11.0356 26.2184 11.0356L24.912 10.8847L23.6768 11.0274C23.6768 11.0274 23.5809 11.2208 23.5935 11.2781C23.606 11.335 23.6102 11.3963 23.8312 11.5636C24.0761 11.7475 24.2444 12.8034 24.2444 12.8034C24.2444 12.8034 23.8982 12.9703 23.8773 12.9499C23.8563 12.9298 23.7521 12.9093 23.6977 12.9175C23.6437 12.9257 23.4641 13.0153 23.4641 13.2476C23.4641 13.4803 23.6437 13.6149 23.6437 13.6149C23.6437 13.6149 24.8245 14.4803 24.9999 14.7982C25.1711 14.4149 26.2934 13.5495 26.4269 13.4841C26.4813 13.4517 26.6524 13.3986 26.6315 13.1539Z" fill="#656263"/>
<path d="M27.8101 12.0015C27.9082 11.9377 28.5617 11.9056 28.7187 12.0015C28.8754 12.0974 28.9343 12.57 28.9343 12.57C28.9343 12.57 29.0324 12.7361 29.0389 12.8574C29.0453 12.9788 29.0585 13.0618 29.0585 13.0618C29.0585 13.0618 29.5814 13.7262 29.5878 14.3264C29.6467 14.7352 29.6335 15.8272 29.4704 16.2423C29.4636 16.7598 29.2416 17.0981 29.2416 17.0981C29.2416 17.0981 29.2937 17.1874 29.2873 17.2833C29.2805 17.3792 29.2284 17.4685 29.2284 17.4685L28.7384 17.6792L28.1959 17.5899L27.5813 15.7951L27.7251 12.7615L27.7644 12.6084L27.6991 12.1996C27.6991 12.1996 27.7123 12.0654 27.8101 12.0015Z" fill="black"/>
<path d="M24.2621 13.5941C24.2621 13.5941 24.9233 13.5941 24.9948 13.8039C25.1199 13.5243 25.6917 13.542 25.6917 13.542C26.0373 13.5303 26.3828 13.5187 26.7281 13.507C26.7342 14.3221 26.74 15.1371 26.7461 15.9521C26.5437 16.9007 25.8407 17.5704 25.0662 17.8556C24.1427 17.5645 23.5591 16.802 23.3686 15.9345C23.3325 15.1603 23.2968 14.3859 23.2611 13.6118C23.5948 13.6058 23.9284 13.6001 24.2621 13.5941Z" fill="#F7FCFF"/>
<path d="M23.6176 13.6026L25.0755 17.3991L26.3924 13.5199C25.9838 13.5457 25.1073 13.457 24.9986 13.8212C24.83 13.4954 23.9078 13.6268 23.6176 13.6026V13.6026Z" fill="#006B00"/>
<path fill-rule="evenodd" clip-rule="evenodd" d="M25.3075 14.198C25.3075 14.198 25.4401 14.5439 25.3075 14.7152C25.1749 14.8864 25.3185 15.0267 25.3985 15.0267C25.4784 15.0267 25.753 15.2986 25.5302 15.2986C25.3075 15.2986 25.1817 15.214 25.1817 15.453C25.1817 15.6919 25.4894 16.7681 25.3985 17.0262C25.3075 17.2843 25.3301 17.4817 25.4606 17.4161C25.5911 17.3505 25.6727 17.1819 25.6015 16.8573C25.5302 16.5326 25.4606 16.6093 25.4606 16.3287C25.4606 16.0481 25.5302 15.7358 25.5302 15.7358C25.5302 15.7358 25.6473 15.8235 25.564 16.1438C25.4808 16.4642 25.6671 16.906 25.6671 17.0262C25.6671 17.1464 25.6727 17.4771 25.6015 17.5099C25.5302 17.5427 25.4649 17.7424 25.3985 17.5901C25.332 17.4379 25.2904 17.1869 25.2054 17.3596C25.1203 17.5323 25.1367 17.9295 25.0482 17.9486C24.9597 17.9677 24.8275 18.156 24.8275 18.0804C24.8275 18.0049 24.7028 17.8683 24.7408 17.7412C24.7787 17.6141 24.8121 17.5991 24.8428 17.721C24.8736 17.8429 25.0029 17.8418 25.0029 17.7412C25.0029 17.6407 24.9576 17.6897 25.0029 17.4608C25.0482 17.2319 25.0985 16.9289 25.0029 16.9471C24.9072 16.9654 24.7604 17.1144 24.7408 16.8394C24.7212 16.5644 24.6426 16.4357 24.7059 16.3822C24.7692 16.3287 24.8535 16.1374 24.8805 16.2878C24.9076 16.4382 24.7886 16.582 24.8081 16.6362C24.8275 16.6903 24.8383 16.8132 24.9206 16.7103C25.0029 16.6074 25.0513 16.4378 25.1129 16.5951C25.1745 16.7523 25.1757 16.6282 25.0482 16.3287C24.9206 16.0291 24.8122 15.8625 24.8275 15.5995C24.8428 15.3365 24.8221 15.238 24.8428 15.1535C24.8635 15.069 24.6143 14.6573 24.6775 14.5388C24.7408 14.4202 24.7651 14.0375 24.8428 14.1064C24.9206 14.1753 24.9606 14.2678 24.9206 14.3708C24.8805 14.4739 24.8405 14.5762 24.8805 14.6457C24.9206 14.7152 25.058 14.9158 25.0854 14.8653C25.1129 14.8149 25.2054 14.8637 25.2054 14.5779C25.2054 14.2922 25.1023 14.1918 25.1672 14.1239C25.2322 14.0561 25.3075 14.198 25.3075 14.198Z" fill="#FFD100"/>
<path d="M26.4008 13.5206L26.5974 13.5159L26.2463 13.9504L26.6675 14.4308L25.839 15.4509L26.6209 16.3703C26.535 16.5762 26.4352 16.7636 26.3023 16.9331L25.8531 16.4479L26.6675 15.4556L25.9983 14.7145L26.4008 13.5206Z" fill="#1E5AA6"/>
<path d="M23.3814 13.6121L23.7746 14.0281L23.3582 14.5359L24.2241 15.4556L23.5078 16.3932C23.5938 16.5992 23.717 16.8277 23.8496 16.9969L24.2756 16.4709L23.4004 15.5194L24.0416 14.7236L23.5921 13.6073L23.3814 13.6121Z" fill="#1E5AA6"/>
<path d="M24.5658 16.0775L24.257 16.48L25.3616 17.7289C25.5566 17.6327 25.7097 17.523 25.8767 17.3906L25.3008 16.741L25.535 16.0684L25.8719 16.4479L24.8188 17.761C24.6424 17.6877 24.4474 17.5733 24.2711 17.4315L24.8281 16.741L24.5658 16.0775Z" fill="#1E5AA6"/>
<path d="M28.3855 12.8511C28.3855 12.915 28.455 16.6832 28.5313 16.6473C28.7208 16.5576 28.7645 16.7532 28.7645 16.7532C28.7645 16.7532 28.8298 17.373 28.6664 17.456C28.3723 17.6091 28.2436 17.6429 28.2436 17.6429L27.9607 17.4368C27.9607 17.4368 27.6731 17.0343 27.6078 16.8554C27.5424 16.6768 27.4639 15.8785 27.49 15.7059C27.5161 15.5336 27.5357 14.5242 27.5228 14.4733C27.5096 14.422 27.4575 13.5791 27.49 13.4514C27.5228 13.3237 27.7252 12.7615 27.7188 12.7615C27.7188 12.7615 28.3855 12.7873 28.3855 12.8511Z" fill="url(#paint0_linear_270_67391)"/>
<path d="M27.7319 12.2059C27.869 12.2059 27.9735 12.321 28.0063 12.4232C28.0128 12.4679 27.9932 12.4999 27.9996 12.5829C28.0063 12.6659 27.0063 12.6018 26.9999 12.5955C26.9999 12.5955 27.4639 12.155 27.7319 12.2059Z" fill="#FF7000"/>
<path d="M28.8298 17.6666C28.8298 17.6666 29.1436 17.5962 29.2285 17.4877C29.2809 17.4494 29.5554 17.8902 28.8298 17.6666Z" fill="white" stroke="black" stroke-width="0.5" stroke-linejoin="round"/>
<path d="M28.309 12.4604C28.309 12.488 28.2866 12.5104 28.259 12.5104C28.2314 12.5104 28.209 12.488 28.209 12.4604C28.209 12.4327 28.2314 12.4104 28.259 12.4104C28.2866 12.4104 28.309 12.4327 28.309 12.4604Z" fill="black"/>
<path d="M25.8207 11.9088C25.8207 11.9088 26.3413 12.4594 26.6782 12.4534C26.7393 12.615 26.525 12.7653 26.4395 12.837C26.268 12.7832 26.1129 12.8467 25.7148 12.3682C25.7396 12.0629 25.8268 11.9207 25.8207 11.9088Z" fill="#F7FCFF"/>
<path d="M27.8906 9.13803C27.9395 9.49114 27.8876 9.57312 27.8646 9.7214C27.8416 9.86967 28.769 9.92442 29.0078 9.63106C28.9833 9.7628 28.705 10.2989 27.4433 10.2929C27.9211 10.736 27.2905 11.0891 27.0209 10.9812C27.517 10.6102 26.8802 10.3888 26.525 10.6281C26.5923 10.4247 27.0884 9.40152 27.8906 9.13803Z" fill="#F7FCFF"/>
<path fill-rule="evenodd" clip-rule="evenodd" d="M27.0503 11.6167C26.9557 11.2278 26.9099 10.781 27.119 10.6102C26.8433 10.4247 26.5434 10.6162 26.5434 10.6162C26.5414 10.6208 26.5357 10.6286 26.5277 10.6397C26.4636 10.7283 26.2494 11.0244 26.5434 11.5564C25.7596 11.3529 26.0875 12.0644 26.1454 12.1182C26.1759 12.0044 26.5923 11.8968 26.6966 12.4773C26.7316 12.5949 26.5205 12.7645 26.4527 12.819C26.4377 12.831 26.4297 12.8374 26.433 12.8364C26.433 12.8364 27.0963 12.971 27.1822 12.0947C27.2957 12.0271 27.8459 11.6602 27.8292 10.9036C27.3236 10.9139 27.1002 11.4709 27.0503 11.6167Z" fill="#0000FF"/>
<path d="M24.0877 12.0644C24.0877 12.0644 23.5796 12.4952 23.2916 12.3575C23.0773 12.4833 22.8263 12.2619 22.8263 12.2619C22.8263 12.2619 23.1201 13.3209 24.1736 12.5549C24.1552 12.3216 24.0999 12.0824 24.0877 12.0644Z" fill="#F7FCFF"/>
<path d="M23.2854 12.3396C23.3282 12.1182 23.5059 12.0104 23.6468 12.2198C23.8366 12.2559 24.0265 11.496 23.3527 11.6214C23.5425 10.6281 22.9732 10.2571 22.9732 10.2571C22.9732 10.2571 22.7711 11.3582 22.8629 11.5617C22.9548 11.7651 22.7283 11.1847 21.9995 11.023C21.9873 11.855 22.814 12.244 22.814 12.244C22.814 12.244 23.0467 12.4534 23.2854 12.3396Z" fill="#0000FF"/>
<path d="M22.5965 11.1389C22.3822 11.2046 21.861 10.8904 22.1917 10.4832C21.1078 10.4593 20.5177 9.54356 20.879 9.71817C21.2402 9.89278 21.4983 9.52071 21.7678 9.71817C21.4371 9.41915 21.8832 9.17986 21.8832 9.17986C21.8832 9.17986 22.8079 9.44932 22.9732 10.2511C22.9181 10.4068 22.8936 10.6819 22.8813 10.6699C22.8813 10.664 22.3087 10.66 22.5965 11.1389Z" fill="#F7FCFF"/>
<path d="M24.3271 7.43125C24.3319 7.4038 25.0246 7.16586 25.0713 6.77252C25.1179 6.37918 25.062 6.64442 25.062 6.64442C25.062 6.64442 25.2541 6.46605 25.1839 6.36996C25.1134 6.27391 25.1369 6.4935 25.0246 6.48891C24.9123 6.48432 24.9732 6.25104 24.9732 6.25104C24.9732 6.25104 24.9638 6.22359 24.931 6.20987C24.884 6.21444 24.7766 6.1138 24.7766 6.1138C24.7766 6.1138 24.7064 6.02232 24.6453 6.3105C24.6781 6.61701 24.8795 6.55751 24.8795 6.75882C24.8795 6.96009 24.7016 7.1156 24.6501 7.12019C24.5986 7.12475 24.6173 6.95094 24.6173 6.95094C24.6173 6.95094 24.5893 6.86859 24.5706 6.86859C24.552 6.86859 24.6736 6.85029 24.6549 6.62157C24.6128 6.3471 24.58 6.68562 24.505 6.67188C24.43 6.65817 24.4863 6.4203 24.5143 6.39285C24.5423 6.3654 24.4815 6.25105 24.3177 6.54381C24.3036 6.68562 24.2849 6.50721 24.2521 6.51636C24.1961 6.63072 24.2054 6.71307 24.2849 6.81828C24.402 6.92349 24.477 7.0287 24.4722 7.08359C24.4677 7.13849 24.4065 7.262 24.3226 7.262C24.2382 7.262 24.3271 7.11104 24.3226 7.0607C24.3177 7.0104 24.1774 6.82743 24.1774 6.82743C24.1774 6.82743 24.079 6.67188 24.0883 6.66732C24.0976 6.66273 23.8637 6.89145 24.004 7.0104C23.8965 6.99669 23.8872 7.03785 23.8872 7.03785C23.8872 7.09274 24.0323 7.1156 24.051 7.21166C24.0696 7.30775 23.901 7.36262 23.901 7.36262C23.901 7.36262 23.9715 7.45868 24.1678 7.27115C24.1726 7.39007 24.0931 7.47242 24.0931 7.47242C24.1585 7.50138 24.2099 7.49833 24.2193 7.57307C24.2193 7.57306 24.3226 7.45867 24.3271 7.43125Z" fill="#CDAD56"/>
<path d="M23.577 7.57306C23.577 7.57306 23.4895 7.44612 23.4857 7.42112C23.4815 7.39616 23.0551 7.45269 22.8535 6.94451C22.7222 6.70309 22.8535 6.84462 22.8535 6.84462L22.8614 6.72806C22.8614 6.72806 22.7218 6.56116 22.7814 6.47374C22.841 6.38633 22.8165 6.58612 22.8932 6.58653C22.9885 6.58238 22.9369 6.37008 22.9369 6.37008C22.9369 6.37008 22.9448 6.34511 22.9727 6.33263C23.0123 6.33678 23.0288 6.46202 23.0645 6.47035C23.1002 6.47868 23.1742 6.32298 23.1974 6.29095C23.2302 6.28637 23.2289 6.16197 23.2807 6.42419C23.253 6.70309 23.0165 6.64898 23.0165 6.83213C23.0165 7.01526 23.1674 7.15678 23.2112 7.16096C23.255 7.16511 23.2392 7.00696 23.2392 7.00696C23.2392 7.00696 23.263 6.93203 23.2788 6.93203C23.2949 6.93203 23.1398 6.96111 23.1558 6.75299C23.1916 6.55814 23.2707 6.76554 23.3344 6.75302C23.3981 6.74054 23.327 6.54698 23.3454 6.51742C23.3495 6.48786 23.4432 6.36093 23.4795 6.64105C23.4914 6.7701 23.5635 6.53 23.5912 6.53833C23.6391 6.64237 23.5703 6.78135 23.5027 6.8771C23.4033 6.97281 23.3582 7.0777 23.3624 7.12767C23.3663 7.1776 23.3898 7.23967 23.4615 7.23967C23.533 7.23967 23.4857 7.15263 23.4895 7.10685C23.4934 7.06107 23.6128 6.91285 23.6128 6.91285C23.6362 6.87628 23.6166 6.80792 23.6414 6.77632C23.6803 6.77673 23.6964 6.72391 23.736 6.86958C23.7759 7.01526 23.8235 6.77384 23.8235 6.77384C23.8235 6.77384 23.8792 6.95284 23.7598 7.06107C23.8512 7.04859 23.8592 7.08604 23.8592 7.08604C23.8592 7.136 23.8158 7.15678 23.7997 7.24419C23.7836 7.33161 23.8473 7.38157 23.8473 7.38157C23.8473 7.38157 23.7878 7.46898 23.6208 7.29831C23.6166 7.40653 23.6845 7.48146 23.6845 7.48146C23.6285 7.50784 23.5851 7.50505 23.577 7.57306Z" fill="#CDAD56"/>
<path d="M24.6755 7.47453C24.5732 7.77346 24.2041 7.66005 24.2041 7.66005C24.2041 7.66005 24.2164 7.80965 24.1797 7.88144C24.2099 7.90371 24.4281 8.07155 24.6572 8.11484C24.9867 8.1771 25.6614 8.00678 25.8879 8.25844C26.1144 8.51011 26.1025 8.71323 26.1025 8.71323C26.1025 8.71323 25.8078 8.7469 25.8897 8.8507C25.9429 8.9181 26.0895 8.96818 26.1025 9.03784C26.1439 9.25957 25.9642 9.65852 26.0288 9.80839C25.9268 9.81751 25.9188 9.9219 25.9188 9.9219C25.913 10.0404 25.6186 9.97001 25.6186 9.97001C25.6186 9.97001 25.8023 9.50906 25.8145 9.40152C25.8268 9.29367 25.6858 9.10218 25.5758 9.10218C25.4654 9.10218 25.386 9.44334 25.386 9.44334C25.386 9.44334 25.3309 9.70054 25.3493 9.72444C25.3676 9.74834 25.2756 9.6408 25.2756 9.6408C25.2756 9.6408 25.2467 9.74528 25.1993 9.80839C25.146 9.87939 25.0735 9.90996 25.0735 9.90996C25.0735 9.90996 25.0185 9.75431 25.0369 9.69457C25.0552 9.63483 25.3371 9.40152 25.3126 9.23393C25.3017 9.15997 25.292 9.03087 25.1993 8.98803C25.082 8.9338 24.8669 8.97336 24.737 8.9466C24.6655 9.06823 24.6327 9.73639 24.6816 9.77852C24.7309 9.82034 24.5594 9.90996 24.5594 9.90996L24.3573 9.91593C24.3541 9.82537 24.4763 9.57792 24.4763 9.36851C24.4763 9.1591 24.4918 8.93466 24.4918 8.93466C24.4918 8.93466 24.356 8.96884 24.2836 9.10218C24.2229 9.21399 24.223 9.42532 24.2286 9.45529C24.2408 9.52101 24.3019 9.70652 24.2836 9.7606C24.2653 9.81437 23.947 9.88606 23.947 9.88606L23.9345 9.71249C23.9345 9.71249 24.0693 9.62885 24.0693 9.41944C24.0693 9.21003 24.0815 8.9107 24.0754 8.89277C24.0718 8.882 23.9651 8.42374 23.8249 8.11484C23.7313 7.90883 23.5869 7.81443 23.5796 7.79768C23.5613 7.75579 23.5613 7.70791 23.5613 7.70791C23.5613 7.70791 23.3589 7.85154 23.1201 7.54635C23.3389 7.36389 23.5735 7.49846 23.5735 7.49846C23.5735 7.49846 23.6346 7.3309 23.9162 7.34288C24.198 7.35486 24.253 7.51044 24.2408 7.49249C24.2408 7.49249 24.449 7.31295 24.6755 7.47453Z" fill="#923F00"/>
<path d="M25.7814 10.5879C25.7863 10.5879 26.3014 10.603 26.3066 10.8721C26.3117 11.141 26.1486 11.0715 26.1434 11.0715C26.1383 11.0715 25.766 11.0265 25.766 11.0265L25.7814 10.5879Z" fill="#0000FF"/>
<path d="M25.2814 10.513C25.2814 10.513 25.9239 10.5083 25.8882 10.7822C25.8525 11.0564 25.6894 11.0017 25.6894 11.0017L25.3782 10.9765L25.2814 10.513Z" fill="#F7FCFF"/>
<path d="M24.9195 10.4832L25.2917 10.513C25.2917 10.513 25.516 10.5429 25.506 10.7523C25.4957 10.9617 25.2763 10.9668 25.2763 10.9668L24.9143 10.9466L24.9195 10.4832Z" fill="#0000FF"/>
<path d="M24.0474 10.5879C24.0422 10.5879 23.5271 10.603 23.522 10.8721C23.5171 11.141 23.6803 11.0715 23.6854 11.0715C23.6906 11.0715 24.0628 11.0265 24.0628 11.0265L24.0474 10.5879Z" fill="#F7FCFF"/>
<path d="M24.5471 10.513C24.5471 10.513 23.9046 10.5083 23.9403 10.7822C23.976 11.0564 24.1391 11.0017 24.1391 11.0017L24.4503 10.9765L24.5471 10.513Z" fill="#0000FF"/>
<path d="M24.9094 10.4832L24.5371 10.513C24.5371 10.513 24.3126 10.5429 24.3229 10.7523C24.3331 10.9617 24.5523 10.9668 24.5523 10.9668L24.9143 10.9466L24.9094 10.4832Z" fill="#F7FCFF"/>
<path d="M26.2869 13.1646C26.3854 13.1967 26.3104 13.4951 26.2634 13.5228L25.9063 13.5089C25.9063 13.5089 26.174 13.1234 26.2869 13.1646Z" fill="#5E0043"/>
<path d="M24.0712 13.5778C23.9869 13.463 23.8647 13.1464 23.7521 13.2335C23.6533 13.2656 23.7286 13.564 23.7755 13.5916L24.0712 13.5778Z" fill="#5E0043"/>
<path d="M23.6278 11.3636L24.9162 12.1874L26.0764 11.4249C26.0764 11.4249 26.3184 11.2944 26.2975 11.2007C26.2769 11.1067 26.1932 11.1435 26.1514 11.1598C26.1099 11.1762 24.9371 11.9877 24.9371 11.9877L23.6893 11.2167C23.6893 11.2167 23.5976 11.1884 23.5808 11.2453C23.5641 11.3026 23.6153 11.335 23.6278 11.3636Z" fill="#B4B6B9"/>
<path d="M27.9469 17.4274C27.9469 17.4274 27.3838 17.5974 27.5407 17.6022C27.6568 17.6058 28.2162 17.6022 28.2162 17.6022L27.9469 17.4274Z" fill="#FF7000"/>
<path d="M28.175 17.6135L27.675 17.6276C27.675 17.6276 27.5492 17.7393 27.5411 17.766C27.5334 17.793 27.6238 17.8006 27.6238 17.8006C27.6238 17.8006 28.1396 17.9317 28.5299 17.8468C28.7268 17.7795 28.7612 17.6987 28.6232 17.6497C28.4855 17.6006 28.1788 17.6154 28.175 17.6135Z" fill="#FF7000"/>
<path d="M22.3907 12.9898C22.3907 12.9898 22.3256 13.1898 22.3907 13.2898C22.4558 13.3898 22.8651 14.1988 22.8651 14.1988C22.8651 14.1988 23.1442 13.8623 23.2466 13.8532C23.3489 13.8444 23.3022 14.7261 23.3022 14.7261C23.3022 14.7261 23.1349 14.8805 23.0326 14.8714C22.9302 14.8622 23.2836 15.2169 23.2742 15.5169C23.2649 15.8168 22.8093 17.3076 22.6419 17.3346C22.4744 17.362 22.3299 17.0539 22.3299 16.7877C22.3299 16.5214 22.5023 16.0986 22.493 15.9804C22.4837 15.8621 21.661 17.2473 21.6112 17.4636C21.6018 17.5046 21.6559 17.6528 21.6559 17.6528C21.6559 17.6528 21.3335 17.6792 21.4047 18.0892C20.456 17.7619 19.9909 17.1985 20.0002 16.6259C20.0038 16.4064 19.7945 15.89 20.0002 15.3199C20.3314 14.4021 21.1386 13.3545 21.1443 13.2536C21.1536 13.0898 21.2187 13.0172 21.228 12.9263C21.2373 12.8354 21.2001 12.3716 21.2931 12.2899C21.3861 12.2081 21.8698 12.0082 21.9907 12.0173C22.1117 12.0264 22.214 12.1081 22.214 12.1081C22.214 12.1081 22.6698 12.1081 22.6977 12.2808C22.7256 12.4537 22.6047 12.5172 22.6047 12.5172C22.6047 12.5172 22.6698 12.7628 22.3907 12.9898Z" fill="#8A9396"/>
<path d="M22.662 18.1455C22.8157 18.2518 23.1707 18.3147 23.1707 18.3147C23.1707 18.3147 22.2987 18.5496 21.4128 18.0936C21.3318 17.7386 21.6028 17.6594 21.6699 17.6566C21.8264 17.6157 22.5083 18.0389 22.662 18.1455Z" fill="#2B2B2B"/>
<path d="M23.7292 18.1079C24.6833 18.6122 24.7854 18.2727 25.4427 17.7934C25.4883 17.7601 25.7053 18.5632 26.6264 18.1079C27.9299 17.4636 25.5089 16.3898 25.1667 16.413C24.8246 16.4369 22.7752 17.6036 23.7292 18.1079Z" fill="#00713D"/>
</g>
<defs>
<linearGradient id="paint0_linear_270_67391" x1="28.2754" y1="15.6071" x2="29.0179" y2="15.599" gradientUnits="userSpaceOnUse">
<stop stop-color="#D5DFFF"/>
<stop offset="1" stop-color="white"/>
</linearGradient>
<clipPath id="clip0_270_67391">
<rect width="32" height="24" fill="white"/>
</clipPath>
<clipPath id="clip1_270_67391">
<rect width="18" height="14" fill="white"/>
</clipPath>
</defs>
</svg>
