<svg xmlns="http://www.w3.org/2000/svg" xmlns:xlink="http://www.w3.org/1999/xlink" width="32" height="24" viewBox="0 0 32 24">
  <defs>
    <rect id="a" width="32" height="24"/>
    <rect id="c" width="32" height="24"/>
    <rect id="e" width="32" height="24"/>
    <rect id="g" width="32" height="16"/>
    <path id="i" d="M0.192723048,0.204627991 L7.10560383,0.204627991 L7.10560383,4.50357725 C6.72989429,6.84536304 5.53854079,8.59309802 3.53154334,9.7467822 C1.58750555,8.577199 0.47456545,6.82946401 0.192723048,4.50357725 L0.192723048,0.204627991 Z"/>
  </defs>
  <g fill="none" fill-rule="evenodd">
    <mask id="b" fill="white">
      <use xlink:href="#a"/>
    </mask>
    <g mask="url(#b)">
      <mask id="d" fill="white">
        <use xlink:href="#c"/>
      </mask>
      <g mask="url(#d)">
        <mask id="f" fill="white">
          <use xlink:href="#e"/>
        </mask>
        <use fill="#2E42A5" xlink:href="#e"/>
        <g mask="url(#f)">
          <mask id="h" fill="white">
            <use xlink:href="#g"/>
          </mask>
          <g mask="url(#h)">
            <g transform="translate(-6 -2)">
              <g transform="translate(2)">
                <polygon fill="#FFFFFF" fill-rule="nonzero" points="1.738 2.278 8.081 .811 21.602 8.282 23.032 9.118 35.876 15.834 38.919 17.955 31.959 18.597 20.737 12.267 12.628 8.282" transform="matrix(1 0 0 -1 0 19.407)"/>
                <polygon fill="#F50100" fill-rule="nonzero" points="2.295 2.306 5.71 1.186 37.649 19.139 32.854 19.139" transform="matrix(1 0 0 -1 0 20.325)"/>
              </g>
              <g transform="matrix(-1 0 0 1 42 0)">
                <polygon fill="#FFFFFF" fill-rule="nonzero" points="1.629 2.673 1.377 1.163 8.081 .807 18.887 7.137 19.906 6.789 40.08 16.993 31.751 18.597 20.615 12.445 11.903 8.236" transform="matrix(1 0 0 -1 0 19.404)"/>
                <polygon fill="#F50100" fill-rule="nonzero" points="1.606 2.582 5.021 1.462 18.621 9.149 22.653 10.008 39.259 18.757 34.464 18.757 17.867 10.215 13.459 9.186" transform="matrix(1 0 0 -1 0 20.22)"/>
              </g>
              <path fill="#F50100" stroke="#FFFFFF" stroke-width="1.5" d="M21.9807692,6.58333333 L37.9807692,6.58333333 L37.9807692,12.0833333 L21.9807692,12.0833333 L21.9807692,21.4166667 L16.4807692,21.4166667 L16.4807692,12.0833333 L0.480769231,12.0833333 L0.480769231,6.58333333 L17.2307692,6.58333333 L16.4807692,7.33333333 L16.4807692,-0.75 L21.9807692,-0.75 L21.9807692,6.58333333 Z" transform="translate(2.77 .667)"/>
            </g>
          </g>
        </g>
        <g mask="url(#f)">
          <g transform="translate(14 4)">
            <path fill="#5EAA22" d="M2.15476357 2.38435438C2.24254561 3.37478424 2.1902198 4.15060777 1.99778615 4.71182496 1.70913567 5.55365074 1.56246074 6.04231722 1.56246074 5.50421758 1.56246074 4.96611793 1.35975472 4.53967693 1.19672232 4.53967693 1.03368993 4.53967693 1.16238069 5.07329927.998534939 5.07329927.834689191 5.07329927.270221157 5.16503845.270221157 4.85235769.270221157 4.53967693.195934777 5.69116814.562215428 5.79414629.928496078 5.89712444.384361907 6.21665822.141440025 6.11770052.807607498 6.33809385 1.27130994 6.54219221 1.53254737 6.7299956 2.31565714 7.72511597 3.07346256 8.16197357 3.80596361 8.0405684 2.80854998 7.69011985 2.39771558 7.18010238 2.5734604 6.510516 2.83707764 5.50613643 3.80596361 5.36085226 3.80596361 5.36085226 4.10907373 5.46404361 4.25608002 5.65078097 4.2469825 5.92106434 4.23333622 6.32648939 4.57946376 5.79414629 4.57946376 5.79414629 4.61663707 5.45265236 4.61473924 5.24023899 4.57377027 5.15690619 4.51231682 5.03190699 5.61513517 4.78994946 5.68472217 4.26244916 4.93348384 4.29741483 4.53207832 4.2697286 4.48050562 4.17939048 4.40314657 4.0438833 4.82925396 3.83143948 4.6959542 3.56727815 4.60708768 3.39117059 3.89958975 3.89317763 2.5734604 5.07329927 3.03140912 4.27006364 3.26038348 3.65277346 3.26038348 3.22142874 3.26038348 2.57441166 3.08587375 2.13225438 2.5734604 2.13225438 2.2318515 2.13225438 2.09228589 2.21628771 2.15476357 2.38435438zM13.427586 2.57623913C13.427586 2.57623913 13.427586 2.57623913 13.427586 2.57623913 13.7059943 2.8222171 13.6358349 3.0650579 13.217108 3.30476154 13.4128553 3.49798643 13.6226405 3.59459888 13.8464636 3.59459888 14.0702867 3.59459888 14.2096415 3.49798643 14.2645278 3.30476154 14.2816384 3.73476612 14.655179 4.03118236 15.3851496 4.19401027 15.6456038 3.81337888 15.6456038 3.5188741 15.3851496 3.31049594 15.6928386 3.24551355 15.835507 3.08619568 15.8131548 2.83254232 15.5602317 2.92026106 15.3435782 2.86333526 15.1631942 2.6617649 14.8926183 2.35940937 14.3652934 2.21997312 13.9819323 2.28969124 13.851476 2.24180244 13.7282308 2.20815974 13.6121968 2.18876315L13.6121953 2.18877215C13.4905954 2.16844513 13.3755408 2.25054308 13.3552138 2.37214305 13.3425158 2.44810447 13.3698703 2.52524635 13.427586 2.57623913z"/>
            <path fill="#96877D" d="M5.87161296,5.99178758 C6.6264662,7.43701474 6.76798989,8.30935933 6.29618402,8.60882137 C5.58847522,9.05801441 9.6612124,8.73848063 10.044935,8.60882137 C10.4286576,8.4791621 9.96748556,7.79565843 9.5419204,7.60590377 C9.11635525,7.41614911 7.36673931,6.78481981 6.90131978,6.30867152 C6.43590025,5.83252324 6.72012247,5.66357329 7.09498853,5.19354704 C7.46985459,4.72352079 8.85761814,4.53556511 8.85761814,4.09624042 C8.85761814,3.65691573 9.73784847,1.84506688 10.353106,1.70837184 C10.9683635,1.57167681 10.6359726,1.3564004 10.4945393,1.3564004 C10.353106,1.3564004 9.5025179,2.24875583 9.18006802,2.08775539 C8.85761814,1.92675496 8.81821563,1.93808529 9.18006802,1.54892476 C9.5419204,1.15976422 9.81430379,0.711850405 9.33596096,1.0341254 C8.85761814,1.3564004 8.06893537,1.86644832 7.6898218,1.86644832 C7.31070822,1.86644832 5.96108196,1.69247282 6.12863299,2.08775539 C6.29618402,2.48303797 6.36721698,3.16916299 7.09498853,3.63270171 C7.82276007,4.09624042 7.50645554,4.43544713 6.90131978,4.88211362 C6.49789594,5.17989127 6.15466033,5.54978259 5.87161296,5.99178758 Z"/>
            <path fill="#FFD018" fill-rule="nonzero" d="M13.3848397 3.1250295L11.2272813 7.52942399C11.1853484 8.35885341 11.6785425 8.49722363 12.7068636 7.94453466 14.2493452 7.11550119 14.1886148 6.52751151 14.6333389 6.52751151 15.0780631 6.52751151 15.2193157 6.27614249 15.2193157 6.27614249 15.0218211 6.11806601 14.9230739 6.03902777 14.9230739 6.03902777 14.9002397 5.75071333 14.9513605 5.57417936 15.0764364 5.50942588 14.8310443 5.3718171 14.690816 5.36045631 14.6557514 5.47534349 14.6031544 5.64767427 14.343604 5.11487429 14.4904597 5.11487429 14.2741073 5.47147534 14.143097 5.7193417 14.0974287 5.85847337 13.7843173 5.72890548 13.6352626 5.36395897 13.6502644 4.76363384 13.6652663 4.16330871 13.5767914 3.61710726 13.3848397 3.1250295zM3.11515451 2.42757414C3.11515451 2.42757414 2.0164933 2.68789778 2.13497194 2.95882076 2.25345058 3.22974374 2.42805069 2.95151086 1.89015223 3.27798905 1.2601941 3.77378268.876561886 3.99481563.739255594 3.9410879.533296156 3.86049631.885117171 4.12840396.885117171 3.27798905.885117171 2.42757414.336373991 3.1198212.885117171 2.55211648 1.43386035 1.98441175 1.62626388 2.42757414 1.89015223 2.10091321 2.15404059 1.77425227 1.91681219 1.94795365 2.63265453 1.94795365 3.34849688 1.94795365 3.11515451 2.42757414 3.11515451 2.42757414zM6.46753071 6.80483065C4.41679285 8.44517109 3.18648871 9.32656168 2.77661828 9.44900242 2.16181264 9.63266354 4.04111344 9.39847277 4.50020688 9.07363932 4.80626917 8.85708368 5.46204378 8.10081412 6.46753071 6.80483065z"/>
            <path fill="#5EAA22" d="M12.5660629,11.1212323 C12.7628947,12.4136217 12.6043809,12.9962204 12.0905216,12.8690282 C11.5766623,12.741836 11.2130928,12.6453454 10.9998132,12.5795563 C11.1883307,13.1815262 11.4172448,13.4825111 11.6865555,13.4825111 C12.145408,14.3927149 12.2865702,14.9915171 12.1100421,15.2789178 C12.9004419,14.6262051 13.2317484,14.0403779 13.1039613,13.5214363 C12.9122808,12.7430239 13.4104152,13.6495422 13.4104152,13.6495422 C13.7012949,13.7925116 13.9518683,13.7841661 14.1621355,13.6245058 C14.4775364,13.3850154 14.1581591,13.4914657 13.8427583,13.035511 C13.5273575,12.5795563 13.6052175,11.2990455 12.6458865,10.6353984 C12.0063325,10.192967 11.6121185,9.97881752 11.4632445,9.99294999 C10.9922219,9.20908558 10.8978125,8.84307304 11.1800164,8.89491238 C13.2023772,9.60056091 14.239826,10.0438147 14.2923626,10.2246737 C14.3711677,10.4959621 15.1756656,10.4462549 14.7734166,9.67058362 C14.3711677,8.89491238 12.2027645,8.4274446 11.94466,8.20869599 C11.6865555,7.98994738 11.9266758,7.16027429 11.4632445,6.97953714 C10.9998132,6.79879999 9.73369132,5.5162789 9.73450468,4.89822728 C9.73531803,4.28017566 9.13940029,3.98924184 8.62138384,3.98924184 C8.10336738,3.98924184 7.12797457,3.8369219 6.71587495,3.8369219 C6.30377533,3.8369219 5.91969125,4.53858045 6.3177831,4.53858045 C6.71587495,4.53858045 6.37580239,5.85225995 5.70921318,6.13935608 C5.04262397,6.42645221 4.52731869,6.83909578 3.76610924,6.83909578 C3.00489978,6.83909578 4.84362323,7.50712881 5.13670197,7.24333298 C5.42978072,6.97953714 5.33362414,6.58644754 6.3177831,6.13935608 C7.30194207,5.69226463 8.24127616,5.42755505 8.12234565,5.78345557 C8.00341515,6.13935608 8.30681721,6.73465566 8.77049883,6.5191965 C9.23418046,6.30373735 9.38286441,5.75951566 9.38286441,6.13935608 C9.38286441,6.5191965 10.0937363,8.47011611 10.6368763,9.23153305 C10.9989697,9.73914434 11.6420319,10.3690441 12.5660629,11.1212323 Z"/>
            <path fill="#FFD018" fill-rule="nonzero" d="M6.09483359 3.99746547C5.8543819 4.38739365 5.8543819 4.58235774 6.09483359 4.58235774 6.45551113 4.58235774 7.03556495 4.58235774 6.68216592 4.2899116 6.44656657 4.09494751 6.25078913 3.99746547 6.09483359 3.99746547zM7.29995387 3.98341072C7.30109859 4.24265994 7.3849946 4.37228455 7.5516419 4.37228455 7.80161286 4.37228455 8.02402013 4.76115838 8.02402013 4.37228455 8.02402013 3.98341072 8.37141288 4.1123726 7.83568337 3.98341072 7.47853037 3.89743614 7.29995387 3.89743614 7.29995387 3.98341072zM8.83945322 4.07248327C8.67883076 4.19559408 8.63867515 4.3669502 8.71898638 4.58655163 8.83945322 4.91595378 9.11201735 5.56781366 8.71898638 5.56781366 8.3259554 5.56781366 8.00258042 5.80282679 8.30959794 5.80282679 8.61661545 5.80282679 9.16280683 6.03783991 9.16280683 5.80282679 9.16280683 5.56781366 9.38503335 6.1903426 9.38503335 5.80282679 9.38503335 5.41531098 9.38503335 5.23014162 9.38503335 5.00287271 9.38503335 4.77560379 9.60725988 4.71027161 9.38503335 4.39137744 9.23688234 4.17878132 9.05502229 4.07248327 8.83945322 4.07248327zM9.39623957 6.34019545C9.73104039 7.41273979 9.98947626 8.01815139 10.1715472 8.15643024 10.4446535 8.36384851 10.567199 10.1110048 10.6870332 10.3009707 10.8068674 10.4909366 12.4399025 11.4497207 12.4399025 11.9642459 12.4399025 12.4787712 12.9427364 11.568872 12.6913195 11.0593723 12.4399025 10.5498726 11.6483242 9.46509702 11.0789779 9.22852413 10.5096315 8.99195124 10.5818393 8.41912959 10.4621859 8.01653712 10.3425324 7.61394465 11.1705273 8.34182745 10.4621859 7.42863882 9.75384444 6.51545018 9.77264197 7.00548727 9.97209457 7.00548727 10.1715472 7.00548727 10.3709998 6.89757494 10.1715472 6.7556716 10.0385788 6.66106938 9.7801429 6.52257733 9.39623957 6.34019545zM4.07211128 9.65797405C2.98462617 11.6128227 2.34385343 12.6407463 2.14979307 12.7417446 1.85870253 12.8932422 1.64171762 12.9240351 1.49296411 12.7417446 1.34421061 12.5594541 1.32893762 13.2309594 1.49296411 13.4148032 1.65699061 13.5986471 2.14979307 13.5986471 2.42326093 13.2721689 2.45211996 13.8221167 2.60855514 14.304387 2.89256649 14.7189799 3.31858351 15.3408692 3.49607554 15.169178 3.49607554 15.5208753 3.49607554 15.8725727 3.59675075 16.338213 3.7267971 16.338213 3.85684345 16.338213 3.95751867 17.4452052 3.7267971 17.4452052 3.49607554 17.4452052 4.26144214 17.5360307 4.59509824 17.2591684 4.92875433 16.9823061 5.07136249 16.7714156 5.00005841 16.7714156 4.92875433 16.7714156 4.07211128 16.3124456 4.07211128 15.9877035 4.07211128 15.6629614 3.49607554 15.4086685 3.49607554 14.9265809 3.49607554 14.4444933 3.19679675 13.8713062 3.19679675 13.6430547 3.19679675 13.4148032 3.45269663 13.73114 3.7267971 13.514995 3.90953075 13.3708983 4.02463548 13.1131482 4.07211128 12.7417446 3.78430428 12.938259 3.59229237 12.9873876 3.49607554 12.8891304 3.3517503 12.7417446 2.89751797 12.4508108 3.19679675 11.9516364 3.39631594 11.6188534 3.68808745 10.8542993 4.07211128 9.65797405z"/>
            <path fill="#5EAA22" d="M6.89897009,0.410134488 C6.50955402,0.586424789 6.37974867,0.805538892 6.50955402,1.0674768 C6.70426206,1.46038365 6.77425573,1.63435916 6.89897009,1.54737141 C7.02368445,1.46038365 7.89876354,1.29591102 7.7027451,0.853022752 C7.50672666,0.410134488 7.09605809,0.410134488 7.09605809,0.410134488 C7.09605809,0.410134488 7.03036209,0.410134488 6.89897009,0.410134488 Z"/>
            <path fill="#FFD018" fill-rule="nonzero" d="M8.92521693,0.197685159 C8.41090576,-0.0339702573 8.2394687,-0.0339702573 8.41090576,0.197685159 C8.66806135,0.545168282 8.99706325,0.728353794 9.23374941,0.728353794 C9.47043558,0.728353794 9.96224394,0.656530071 9.71633976,0.516339383 C9.55240364,0.422878925 9.28869603,0.31666085 8.92521693,0.197685159 Z"/>
            <path fill="#5EAA22" d="M1.26720583,9.2106982 C0.822611373,9.61559454 0.678469283,9.99086682 0.834779563,10.3365151 C0.997420342,10.6961619 1.16006112,10.938424 1.3227019,11.0633014 C1.42175041,11.6139192 1.57363683,11.9641546 1.77836117,12.1140074 C2.05333525,12.0996922 2.19763037,11.8782328 2.21124652,11.4496293 C2.67823251,11.3101931 2.98034853,11.3888658 3.11759457,11.6856476 C3.0270411,11.7190294 2.98176437,11.861816 2.98176437,12.1140074 C2.98176437,12.3661988 3.08741008,12.6288981 3.29870151,12.9021055 C3.39546057,12.0322889 3.66124676,11.3169852 4.09606005,10.7561944 C4.53087335,10.1954036 4.81048656,9.85966623 4.93489968,9.74898224 L4.93489968,8.80244221 C4.03526934,9.54859974 3.48986995,10.231877 3.29870151,10.8522738 C2.84563292,10.8676551 2.52706907,10.8356286 2.34300995,10.7561944 C2.06692128,10.6370431 2.68787227,10.4415948 2.34300995,10.0180778 C1.99814764,9.59456071 2.15620953,10.6143824 1.77836117,10.3365151 C1.32679955,10.2086985 1.16915746,9.84101445 1.30543489,9.23346292 L1.30698061,9.23380964 C1.30989609,9.22081186 1.30172277,9.20791162 1.28872499,9.20499614 C1.2810513,9.20327488 1.27302031,9.2054029 1.26720583,9.2106982 Z"/>
            <g transform="translate(4.056 8.203)">
              <mask id="j" fill="white">
                <use xlink:href="#i"/>
              </mask>
              <use fill="#5EAA22" xlink:href="#i"/>
              <g mask="url(#j)">
                <g transform="translate(.45 -.228)">
                  <polygon fill="#58A5FF" points="3.029 .2 .008 6.58 4.104 2.794 6.923 7.55 6.923 .2 4.104 2.552"/>
                  <path fill="#FFD018" fill-rule="nonzero" d="M3.15865003,4.57161277 L3.15865003,4.57161277 C3.28310856,4.57161277 3.38400214,4.67250635 3.38400214,4.79696489 L3.38400214,8.90133037 C3.38400214,9.0257889 3.28310856,9.12668248 3.15865003,9.12668248 L3.15865003,9.12668248 C3.03419149,9.12668248 2.93329791,9.0257889 2.93329791,8.90133037 L2.93329791,4.79696489 C2.93329791,4.67250635 3.03419149,4.57161277 3.15865003,4.57161277 Z"/>
                  <path fill="#FFD018" fill-rule="nonzero" d="M1.92822539,5.58564906 L1.92822539,5.58564906 C1.92822539,5.46119052 2.02911897,5.36029695 2.1535775,5.36029695 L4.18197784,5.36029695 C4.30643638,5.36029695 4.40732995,5.46119052 4.40732995,5.58564906 L4.40732995,5.58564906 C4.40732995,5.71010759 4.30643638,5.81100117 4.18197784,5.81100117 L2.1535775,5.81100117 C2.02911897,5.81100117 1.92822539,5.71010759 1.92822539,5.58564906 Z"/>
                  <g transform="translate(1.352 7.063)">
                    <path fill="#FFD018" fill-rule="nonzero" d="M1.89547751,1.9109534 L1.72103135,2.05519433 C1.46395333,1.73735661 1.22953956,1.5844829 1.02237322,1.5844829 C0.717302504,1.5844829 0.469236055,1.32545688 0.266944737,0.83415796 L0.474988522,0.746588285 C0.646117299,1.16220367 0.832321914,1.3566348 1.02237322,1.3566348 C1.31032892,1.3566348 1.59983596,1.54543777 1.89547751,1.9109534 Z"/>
                    <path fill="#FFD018" d="M0.0618015407,0.0540650539 L0.0618015407,1.16125206 C0.0618015407,1.16249665 0.0628104765,1.16350558 0.0640550618,1.16350558 C0.0643541163,1.16350558 0.0646501798,1.16344606 0.0649259974,1.16333048 L0.883058498,0.82050237 C0.884206377,0.820021366 0.884746986,0.818700895 0.884265982,0.817553015 C0.88414285,0.817259172 0.883958812,0.816994777 0.883726007,0.816777274 L0.065593507,0.0524183772 C0.0646840725,0.0515687174 0.0632580449,0.0516171743 0.0624083852,0.0525266087 C0.0620184422,0.0529439847 0.0618015407,0.0534938637 0.0618015407,0.0540650539 Z"/>
                  </g>
                  <g transform="matrix(-1 0 0 1 4.958 7.063)">
                    <path fill="#FFD018" fill-rule="nonzero" d="M1.89547751,1.9109534 L1.72103135,2.05519433 C1.46395333,1.73735661 1.22953956,1.5844829 1.02237322,1.5844829 C0.717302504,1.5844829 0.469236055,1.32545688 0.266944737,0.83415796 L0.474988522,0.746588285 C0.646117299,1.16220367 0.832321914,1.3566348 1.02237322,1.3566348 C1.31032892,1.3566348 1.59983596,1.54543777 1.89547751,1.9109534 Z"/>
                    <path fill="#FFD018" d="M0.0618015407,0.0540650539 L0.0618015407,1.16125206 C0.0618015407,1.16249665 0.0628104765,1.16350558 0.0640550618,1.16350558 C0.0643541163,1.16350558 0.0646501798,1.16344606 0.0649259974,1.16333048 L0.883058498,0.82050237 C0.884206377,0.820021366 0.884746986,0.818700895 0.884265982,0.817553015 C0.88414285,0.817259172 0.883958812,0.816994777 0.883726007,0.816777274 L0.065593507,0.0524183772 C0.0646840725,0.0515687174 0.0632580449,0.0516171743 0.0624083852,0.0525266087 C0.0620184422,0.0529439847 0.0618015407,0.0534938637 0.0618015407,0.0540650539 Z"/>
                  </g>
                  <rect width="1" height="1.367" x="2.704" y="2.962" fill="#FFFFFF"/>
                </g>
              </g>
            </g>
          </g>
        </g>
      </g>
    </g>
  </g>
</svg>
