<svg xmlns="http://www.w3.org/2000/svg" xmlns:xlink="http://www.w3.org/1999/xlink" width="32" height="24" viewBox="0 0 32 24">
  <defs>
    <rect id="a" width="32" height="24"/>
    <rect id="c" width="32" height="24"/>
    <rect id="e" width="32" height="24"/>
    <rect id="g" width="14" height="10"/>
  </defs>
  <g fill="none" fill-rule="evenodd">
    <mask id="b" fill="white">
      <use xlink:href="#a"/>
    </mask>
    <g mask="url(#b)">
      <mask id="d" fill="white">
        <use xlink:href="#c"/>
      </mask>
      <g mask="url(#d)">
        <mask id="f" fill="white">
          <use xlink:href="#e"/>
        </mask>
        <use fill="#F7FCFF" xlink:href="#e"/>
        <g fill="#2E42A5" fill-rule="nonzero" mask="url(#f)">
          <path d="M1.98144672,4.70851241 L0.494302,3.29148759 C2.08726355,1.78566851 3.74953459,1 5.46935627,1 C6.70044687,1 7.35543717,1.37149555 8.32866958,2.29148759 C8.94224289,2.87149555 9.16881132,3 9.70083818,3 C10.232865,3 10.4594335,2.87149555 11.0730068,2.29148759 C12.0462392,1.37149555 12.7012295,1 13.9323201,1 C15.1634107,1 15.818401,1.37149555 16.7916334,2.29148759 C17.4052067,2.87149555 17.6317751,3 18.163802,3 C18.6958289,3 18.9223973,2.87149555 19.5359706,2.29148759 C20.509203,1.37149555 21.1641933,1 22.3952839,1 C23.6263745,1 24.2813648,1.37149555 25.2545972,2.29148759 C25.8681705,2.87149555 26.094739,3 26.6267658,3 C27.1587927,3 27.3853611,2.87149555 27.9989344,2.29148759 C28.9721668,1.37149555 29.6271571,1 30.8582477,1 C32.5780694,1 34.2403405,1.78566851 35.833302,3.29148759 L34.3461573,4.70851241 C33.1181309,3.54766483 31.959414,3 30.8582477,3 C30.3262209,3 30.0996524,3.12850445 29.4860791,3.70851241 C28.5128467,4.62850445 27.8578564,5 26.6267658,5 C25.3956752,5 24.7406849,4.62850445 23.7674525,3.70851241 C23.1538792,3.12850445 22.9273108,3 22.3952839,3 C21.8632571,3 21.6366886,3.12850445 21.0231153,3.70851241 C20.0498829,4.62850445 19.3948926,5 18.163802,5 C16.9327114,5 16.2777211,4.62850445 15.3044887,3.70851241 C14.6909154,3.12850445 14.4643469,3 13.9323201,3 C13.4002932,3 13.1737248,3.12850445 12.5601515,3.70851241 C11.5869191,4.62850445 10.9319288,5 9.70083818,5 C8.46974758,5 7.81475728,4.62850445 6.84152487,3.70851241 C6.22795156,3.12850445 6.00138313,3 5.46935627,3 C4.36819001,3 3.20947311,3.54766483 1.98144672,4.70851241 Z M1.98144672,8.70851241 L0.494302,7.29148759 C2.08726355,5.78566851 3.74953459,5 5.46935627,5 C6.70044687,5 7.35543717,5.37149555 8.32866958,6.29148759 C8.94224289,6.87149555 9.16881132,7 9.70083818,7 C10.232865,7 10.4594335,6.87149555 11.0730068,6.29148759 C12.0462392,5.37149555 12.7012295,5 13.9323201,5 C15.1634107,5 15.818401,5.37149555 16.7916334,6.29148759 C17.4052067,6.87149555 17.6317751,7 18.163802,7 C18.6958289,7 18.9223973,6.87149555 19.5359706,6.29148759 C20.509203,5.37149555 21.1641933,5 22.3952839,5 C23.6263745,5 24.2813648,5.37149555 25.2545972,6.29148759 C25.8681705,6.87149555 26.094739,7 26.6267658,7 C27.1587927,7 27.3853611,6.87149555 27.9989344,6.29148759 C28.9721668,5.37149555 29.6271571,5 30.8582477,5 C32.5780694,5 34.2403405,5.78566851 35.833302,7.29148759 L34.3461573,8.70851241 C33.1181309,7.54766483 31.959414,7 30.8582477,7 C30.3262209,7 30.0996524,7.12850445 29.4860791,7.70851241 C28.5128467,8.62850445 27.8578564,9 26.6267658,9 C25.3956752,9 24.7406849,8.62850445 23.7674525,7.70851241 C23.1538792,7.12850445 22.9273108,7 22.3952839,7 C21.8632571,7 21.6366886,7.12850445 21.0231153,7.70851241 C20.0498829,8.62850445 19.3948926,9 18.163802,9 C16.9327114,9 16.2777211,8.62850445 15.3044887,7.70851241 C14.6909154,7.12850445 14.4643469,7 13.9323201,7 C13.4002932,7 13.1737248,7.12850445 12.5601515,7.70851241 C11.5869191,8.62850445 10.9319288,9 9.70083818,9 C8.46974758,9 7.81475728,8.62850445 6.84152487,7.70851241 C6.22795156,7.12850445 6.00138313,7 5.46935627,7 C4.36819001,7 3.20947311,7.54766483 1.98144672,8.70851241 Z M1.98144672,12.7085124 L0.494302,11.2914876 C2.08726355,9.78566851 3.74953459,9 5.46935627,9 C6.70044687,9 7.35543717,9.37149555 8.32866958,10.2914876 C8.94224289,10.8714956 9.16881132,11 9.70083818,11 C10.232865,11 10.4594335,10.8714956 11.0730068,10.2914876 C12.0462392,9.37149555 12.7012295,9 13.9323201,9 C15.1634107,9 15.818401,9.37149555 16.7916334,10.2914876 C17.4052067,10.8714956 17.6317751,11 18.163802,11 C18.6958289,11 18.9223973,10.8714956 19.5359706,10.2914876 C20.509203,9.37149555 21.1641933,9 22.3952839,9 C23.6263745,9 24.2813648,9.37149555 25.2545972,10.2914876 C25.8681705,10.8714956 26.094739,11 26.6267658,11 C27.1587927,11 27.3853611,10.8714956 27.9989344,10.2914876 C28.9721668,9.37149555 29.6271571,9 30.8582477,9 C32.5780694,9 34.2403405,9.78566851 35.833302,11.2914876 L34.3461573,12.7085124 C33.1181309,11.5476648 31.959414,11 30.8582477,11 C30.3262209,11 30.0996524,11.1285044 29.4860791,11.7085124 C28.5128467,12.6285044 27.8578564,13 26.6267658,13 C25.3956752,13 24.7406849,12.6285044 23.7674525,11.7085124 C23.1538792,11.1285044 22.9273108,11 22.3952839,11 C21.8632571,11 21.6366886,11.1285044 21.0231153,11.7085124 C20.0498829,12.6285044 19.3948926,13 18.163802,13 C16.9327114,13 16.2777211,12.6285044 15.3044887,11.7085124 C14.6909154,11.1285044 14.4643469,11 13.9323201,11 C13.4002932,11 13.1737248,11.1285044 12.5601515,11.7085124 C11.5869191,12.6285044 10.9319288,13 9.70083818,13 C8.46974758,13 7.81475728,12.6285044 6.84152487,11.7085124 C6.22795156,11.1285044 6.00138313,11 5.46935627,11 C4.36819001,11 3.20947311,11.5476648 1.98144672,12.7085124 Z M1.98144672,16.7085124 L0.494302,15.2914876 C2.08726355,13.7856685 3.74953459,13 5.46935627,13 C6.70044687,13 7.35543717,13.3714956 8.32866958,14.2914876 C8.94224289,14.8714956 9.16881132,15 9.70083818,15 C10.232865,15 10.4594335,14.8714956 11.0730068,14.2914876 C12.0462392,13.3714956 12.7012295,13 13.9323201,13 C15.1634107,13 15.818401,13.3714956 16.7916334,14.2914876 C17.4052067,14.8714956 17.6317751,15 18.163802,15 C18.6958289,15 18.9223973,14.8714956 19.5359706,14.2914876 C20.509203,13.3714956 21.1641933,13 22.3952839,13 C23.6263745,13 24.2813648,13.3714956 25.2545972,14.2914876 C25.8681705,14.8714956 26.094739,15 26.6267658,15 C27.1587927,15 27.3853611,14.8714956 27.9989344,14.2914876 C28.9721668,13.3714956 29.6271571,13 30.8582477,13 C32.5780694,13 34.2403405,13.7856685 35.833302,15.2914876 L34.3461573,16.7085124 C33.1181309,15.5476648 31.959414,15 30.8582477,15 C30.3262209,15 30.0996524,15.1285044 29.4860791,15.7085124 C28.5128467,16.6285044 27.8578564,17 26.6267658,17 C25.3956752,17 24.7406849,16.6285044 23.7674525,15.7085124 C23.1538792,15.1285044 22.9273108,15 22.3952839,15 C21.8632571,15 21.6366886,15.1285044 21.0231153,15.7085124 C20.0498829,16.6285044 19.3948926,17 18.163802,17 C16.9327114,17 16.2777211,16.6285044 15.3044887,15.7085124 C14.6909154,15.1285044 14.4643469,15 13.9323201,15 C13.4002932,15 13.1737248,15.1285044 12.5601515,15.7085124 C11.5869191,16.6285044 10.9319288,17 9.70083818,17 C8.46974758,17 7.81475728,16.6285044 6.84152487,15.7085124 C6.22795156,15.1285044 6.00138313,15 5.46935627,15 C4.36819001,15 3.20947311,15.5476648 1.98144672,16.7085124 Z M1.98144672,20.7085124 L0.494302,19.2914876 C2.08726355,17.7856685 3.74953459,17 5.46935627,17 C6.70044687,17 7.35543717,17.3714956 8.32866958,18.2914876 C8.94224289,18.8714956 9.16881132,19 9.70083818,19 C10.232865,19 10.4594335,18.8714956 11.0730068,18.2914876 C12.0462392,17.3714956 12.7012295,17 13.9323201,17 C15.1634107,17 15.818401,17.3714956 16.7916334,18.2914876 C17.4052067,18.8714956 17.6317751,19 18.163802,19 C18.6958289,19 18.9223973,18.8714956 19.5359706,18.2914876 C20.509203,17.3714956 21.1641933,17 22.3952839,17 C23.6263745,17 24.2813648,17.3714956 25.2545972,18.2914876 C25.8681705,18.8714956 26.094739,19 26.6267658,19 C27.1587927,19 27.3853611,18.8714956 27.9989344,18.2914876 C28.9721668,17.3714956 29.6271571,17 30.8582477,17 C32.5780694,17 34.2403405,17.7856685 35.833302,19.2914876 L34.3461573,20.7085124 C33.1181309,19.5476648 31.959414,19 30.8582477,19 C30.3262209,19 30.0996524,19.1285044 29.4860791,19.7085124 C28.5128467,20.6285044 27.8578564,21 26.6267658,21 C25.3956752,21 24.7406849,20.6285044 23.7674525,19.7085124 C23.1538792,19.1285044 22.9273108,19 22.3952839,19 C21.8632571,19 21.6366886,19.1285044 21.0231153,19.7085124 C20.0498829,20.6285044 19.3948926,21 18.163802,21 C16.9327114,21 16.2777211,20.6285044 15.3044887,19.7085124 C14.6909154,19.1285044 14.4643469,19 13.9323201,19 C13.4002932,19 13.1737248,19.1285044 12.5601515,19.7085124 C11.5869191,20.6285044 10.9319288,21 9.70083818,21 C8.46974758,21 7.81475728,20.6285044 6.84152487,19.7085124 C6.22795156,19.1285044 6.00138313,19 5.46935627,19 C4.36819001,19 3.20947311,19.5476648 1.98144672,20.7085124 Z M1.98144672,24.7085124 L0.494302,23.2914876 C2.08726355,21.7856685 3.74953459,21 5.46935627,21 C6.70044687,21 7.35543717,21.3714956 8.32866958,22.2914876 C8.94224289,22.8714956 9.16881132,23 9.70083818,23 C10.232865,23 10.4594335,22.8714956 11.0730068,22.2914876 C12.0462392,21.3714956 12.7012295,21 13.9323201,21 C15.1634107,21 15.818401,21.3714956 16.7916334,22.2914876 C17.4052067,22.8714956 17.6317751,23 18.163802,23 C18.6958289,23 18.9223973,22.8714956 19.5359706,22.2914876 C20.509203,21.3714956 21.1641933,21 22.3952839,21 C23.6263745,21 24.2813648,21.3714956 25.2545972,22.2914876 C25.8681705,22.8714956 26.094739,23 26.6267658,23 C27.1587927,23 27.3853611,22.8714956 27.9989344,22.2914876 C28.9721668,21.3714956 29.6271571,21 30.8582477,21 C32.5780694,21 34.2403405,21.7856685 35.833302,23.2914876 L34.3461573,24.7085124 C33.1181309,23.5476648 31.959414,23 30.8582477,23 C30.3262209,23 30.0996524,23.1285044 29.4860791,23.7085124 C28.5128467,24.6285044 27.8578564,25 26.6267658,25 C25.3956752,25 24.7406849,24.6285044 23.7674525,23.7085124 C23.1538792,23.1285044 22.9273108,23 22.3952839,23 C21.8632571,23 21.6366886,23.1285044 21.0231153,23.7085124 C20.0498829,24.6285044 19.3948926,25 18.163802,25 C16.9327114,25 16.2777211,24.6285044 15.3044887,23.7085124 C14.6909154,23.1285044 14.4643469,23 13.9323201,23 C13.4002932,23 13.1737248,23.1285044 12.5601515,23.7085124 C11.5869191,24.6285044 10.9319288,25 9.70083818,25 C8.46974758,25 7.81475728,24.6285044 6.84152487,23.7085124 C6.22795156,23.1285044 6.00138313,23 5.46935627,23 C4.36819001,23 3.20947311,23.5476648 1.98144672,24.7085124 Z" transform="translate(-2)"/>
        </g>
        <g mask="url(#f)">
          <mask id="h" fill="white">
            <use xlink:href="#g"/>
          </mask>
          <rect width="14" height="12" fill="#2E42A5" mask="url(#h)"/>
          <g mask="url(#h)">
            <g transform="translate(-4 -2)">
              <polygon fill="#FFFFFF" fill-rule="nonzero" points="1.842 2.19 5.498 .646 20.391 12.067 22.319 14.361 18.409 14.877 12.335 9.956 7.446 6.64" transform="matrix(1 0 0 -1 0 15.523)"/>
              <polygon fill="#F50100" fill-rule="nonzero" points="2.343 1.845 4.205 .949 21.627 15.311 19.011 15.311" transform="matrix(1 0 0 -1 0 16.26)"/>
              <g transform="matrix(-1 0 0 1 24 0)">
                <polygon fill="#FFFFFF" fill-rule="nonzero" points="1.842 2.19 5.498 .646 20.391 12.067 22.319 14.361 18.409 14.877 12.335 9.956 7.446 6.64" transform="matrix(1 0 0 -1 0 15.523)"/>
                <polygon fill="#F50100" fill-rule="nonzero" points="1.967 2.066 3.83 1.17 11.248 7.319 13.447 8.006 22.505 15.006 19.889 15.006 10.837 8.172 8.432 7.348" transform="matrix(1 0 0 -1 0 16.176)"/>
              </g>
              <path fill="#F50100" stroke="#F7FCFF" d="M5.5,3.5 L5.5,-0.5 L8.5,-0.5 L8.5,3.5 L14.5154885,3.5 L14.5154885,6.5 L8.5,6.5 L8.5,10.5 L5.5,10.5 L5.5,6.5 L-0.484511519,6.5 L-0.484511519,3.5 L5.5,3.5 Z" transform="translate(4 2)"/>
            </g>
          </g>
        </g>
        <g mask="url(#f)">
          <g transform="translate(15 2)">
            <rect width="1" height="12.621" x="5.4" y="7.379" fill="#D86D00" rx=".5"/>
            <path fill="#449A01" fill-rule="nonzero" stroke="#FFFFFF" stroke-width=".35" d="M6.02285692,4.8934297 L6.04047248,4.81492165 C5.99210984,4.80407009 5.94245951,4.79854982 5.89221581,4.79854982 C5.79693211,4.79854982 5.70411665,4.81840915 5.61863747,4.85633943 L5.6896172,5.01629842 L5.71081781,5.01946317 L5.7159985,5.09469559 L6.04564687,5.07199519 L6.03362441,4.89740865 L6.02285692,4.8934297 Z M5.086305,3.70485679 C5.13773645,2.73972224 5.18542711,1.52213408 5.22935797,0.0522909756 L5.24462337,-0.458460166 L5.54568056,-0.0455869083 C6.24917288,0.919190454 6.64054119,2.06807758 6.74789215,3.35352444 C7.50159569,2.44284924 8.63139778,1.58249357 10.1363647,0.769756405 L10.2949673,1.08163849 C9.60710388,1.41030867 9.22663888,1.88409486 8.70943386,2.90001978 C8.68885987,2.94043242 8.43700953,3.44272158 8.3574465,3.59639327 C8.29688821,3.71335833 8.23879339,3.82247225 8.18142749,3.92645693 C9.00280028,3.66675565 9.91626077,3.49038933 10.9217474,3.39702501 L10.9856992,3.73962879 C10.1593285,3.97411906 9.46144878,4.34146886 8.19148455,5.13770089 C7.7086583,5.44041944 7.49213936,5.57594719 7.32601536,5.67638412 C9.1976889,6.4109046 10.3040058,7.34705257 10.6287632,8.49689725 L10.7904201,9.06926417 L10.3445378,8.67565804 C10.0105278,8.38080813 10.2058626,8.46700694 7.04546318,7.07272863 C7.17888632,7.51069962 7.33450872,7.92935727 7.54364853,8.43588222 C7.60088661,8.57450965 7.83521849,9.13175673 7.78650733,9.01551933 L7.92471543,9.34531957 L7.57948935,9.25210673 C6.16656591,8.87061003 5.29247513,8.17644049 4.98190481,7.17188926 C4.0411881,7.88376521 2.99605524,8.41362669 2.06929839,8.74475771 L1.40057911,8.98369168 L1.88170359,8.46139467 C2.77438597,7.49232043 3.52049423,6.70936744 4.12037235,6.11224102 C3.29050665,6.02911403 2.08459463,5.94861561 0.503885582,5.87093323 L-0.729084636,5.81034014 L0.472146008,5.5258546 C0.489706809,5.52169571 0.854740789,5.43476121 0.972155902,5.40713265 C1.18192695,5.35777212 1.36562144,5.31569204 1.54854553,5.27546234 C2.44646065,5.07798776 3.228189,4.94818326 3.97753724,4.89099255 C4.0556187,4.88503333 4.13289051,4.87993019 4.20935167,4.87569934 C3.19031598,4.23697958 2.36444061,3.44005254 1.7332212,2.48557158 L2.04980102,2.35009679 C2.06498924,2.41663744 2.36609705,2.59415682 2.95422384,2.84367583 C3.19775626,2.94699703 4.44655246,3.44406467 5.086305,3.70485679 Z"/>
            <g transform="translate(2.3 11.262)">
              <path fill="#F50100" d="M3.65237075,1.35119019 C4.2184679,1.28536419 4.77782382,1.39960658 5.3304385,1.69391738 C5.90686892,1.69391738 6.45843519,1.92137887 6.9851373,2.37630186 L6.9851373,2.55673811 L5.95233399,3.80508578 C5.74585406,4.49399409 5.37779927,4.53033519 5.09109498,4.64509521 C4.99637659,4.68300843 3.64840023,4.72728851 3.64840023,4.72728851 L3.64840023,4.72423879 C2.29115576,4.91277756 1.51559569,4.60639331 1.32172002,3.80508578 L0.288916701,2.55673811 L0.288916701,2.37630186 C0.815618818,1.92137887 1.36718509,1.69391738 1.9436155,1.69391738 C2.51549094,1.39649474 3.08515477,1.28119533 3.65260699,1.34801915 C3.6525282,1.34907641 3.65244945,1.35013342 3.65237075,1.35119019 Z M3.64840022,1.40477675 C3.50585957,3.33858073 3.50585957,4.4422859 3.64840022,4.71589225 L3.64840023,1.40477671 Z"/>
              <path fill="#FECA00" fill-rule="nonzero" d="M3.70032972,2.11003236 C3.73220228,2.14786737 3.75659108,2.19831185 3.76781097,2.25603317 C3.77923248,2.31479174 3.77517642,2.37167072 3.75909599,2.41920784 C3.78452524,2.41309614 3.81172739,2.40978667 3.84,2.40978667 C3.9813849,2.40978667 4.096,2.49254879 4.096,2.59464104 C4.096,2.69673329 3.9813849,2.77949541 3.84,2.77949541 C3.80449229,2.77949541 3.77067301,2.77427541 3.73993365,2.76484017 C3.75043145,3.02089142 3.8656434,3.18199602 4.03416299,3.18199602 C4.15782657,3.18199602 4.2447981,3.11398179 4.30786223,2.96408025 L4.48291572,2.54798336 L4.50150206,3.01383685 C4.5080555,3.17809402 4.56742349,3.24325874 4.71512259,3.24325874 C4.86634562,3.24325874 4.97256895,3.12487712 5.04219798,2.8563333 L5.06335476,2.77473627 C5.01107648,2.80943388 4.93652632,2.82581321 4.85715886,2.81465884 C4.71714991,2.79498187 4.61516849,2.69707384 4.62937699,2.59597515 C4.64358548,2.49487646 4.76860342,2.42887111 4.90861237,2.44854808 C4.94433644,2.45356878 4.97758476,2.46368265 5.0070589,2.47764316 C4.99719237,2.44894169 4.9909442,2.41741523 4.98920168,2.38416606 C4.98180217,2.24297493 5.05845238,2.12418547 5.16040471,2.11884237 C5.26235705,2.11349928 5.35100424,2.22362587 5.35840375,2.364817 C5.36173804,2.42843908 5.34800612,2.48751253 5.32258315,2.53370712 C5.35202906,2.52978512 5.38343296,2.52977899 5.41562962,2.53430394 C5.55563857,2.55398091 5.65761999,2.65188894 5.64341149,2.75298763 C5.629203,2.85408632 5.50418506,2.92009167 5.36417611,2.90041469 C5.31768152,2.89388031 5.27538058,2.87871867 5.24013572,2.8576779 L5.24194488,2.88209854 C5.26466865,3.18883226 5.33416055,3.33277457 5.4371484,3.35294336 C5.57736561,3.38040301 5.68382889,3.36738338 5.75816839,3.31896688 L5.90930533,3.22053306 L5.90930533,3.38799893 C5.95682497,3.3940749 6.03835284,3.38334489 6.14989502,3.35415715 L6.18227158,3.53336058 L6.54781306,3.11946988 C6.51718632,3.13046629 6.4854234,3.13231026 6.45510901,3.12304222 C6.44124088,3.11880231 6.42842188,3.11246489 6.41675224,3.10432387 C6.41471198,3.10975027 6.41231387,3.11507305 6.40954872,3.12027354 C6.36161931,3.21041564 6.22156572,3.22968173 6.09673026,3.16330554 C5.97189481,3.09692935 5.90955014,2.9700462 5.95747955,2.8799041 C6.00540896,2.78976199 6.14546255,2.77049591 6.270298,2.8368721 C6.29649459,2.85080107 6.3199393,2.86739457 6.34019057,2.88575391 C6.34256904,2.86550735 6.34685683,2.84486109 6.35317905,2.82418201 C6.394516,2.68897497 6.50717202,2.6035653 6.60480332,2.63341418 C6.70243463,2.66326307 6.74807022,2.79706734 6.70673328,2.93227439 C6.70555275,2.93613572 6.70431405,2.93995644 6.7030192,2.94373502 L6.93705045,2.67874906 L7.00721804,2.76850528 L6.06797043,3.83198473 C5.93093564,4.13570395 5.86192813,4.3361726 5.86192813,4.41944588 C5.86192813,4.54649036 5.58728772,4.62189433 5.051278,4.69934662 C4.63136062,4.76002381 4.13578889,4.80075121 3.73041804,4.80683658 C3.71348273,4.80762863 3.69634892,4.80756042 3.67903033,4.80742522 C3.66171174,4.80756042 3.64457792,4.80762863 3.62764262,4.80762863 C3.22227177,4.80075121 2.72670004,4.76002381 2.30678265,4.69934662 C1.77077294,4.62189433 1.49613253,4.54649036 1.49613253,4.41944588 C1.49613253,4.41187254 1.49556176,4.40332986 1.49442096,4.39382833 C1.43766618,4.32775419 1.39288544,4.19382913 1.36007874,3.99205315 C1.33915184,3.94239861 1.31582017,3.8890117 1.29009023,3.83198473 L1.08199782,3.59636848 C1.08025294,3.59591642 1.0785039,3.595461 1.07675069,3.59500223 L1.07743686,3.59120426 L0.702557032,3.16674005 C0.616117397,3.16636299 0.52727589,3.08675143 0.491589167,2.97002542 C0.485837381,2.95121218 0.481769474,2.93242609 0.479291219,2.91394344 L0.350842618,2.76850528 L0.421010203,2.67874906 L0.496795804,2.76455863 C0.516523312,2.71872671 0.549810562,2.68452826 0.593519122,2.67116522 C0.691150426,2.64131633 0.803806448,2.726726 0.845143391,2.86193305 C0.851465619,2.88261212 0.855753403,2.90325839 0.858131877,2.92350494 C0.87838314,2.9051456 0.90182785,2.88855211 0.928024442,2.87462313 C1.0528599,2.80824694 1.19291349,2.82751303 1.24084289,2.91765513 C1.2887723,3.00779724 1.22642763,3.13468038 1.10159218,3.20105657 C1.03866842,3.23451373 0.971878186,3.24621175 0.914968265,3.23804168 L1.10281537,3.45073483 L1.12026399,3.35415715 C1.23180617,3.38334489 1.31333405,3.3940749 1.36085369,3.38799893 L1.36085369,3.22053306 L1.51199063,3.31896688 C1.58633012,3.36738338 1.69279341,3.38040301 1.83301061,3.35294336 C1.93599847,3.33277457 2.00549037,3.18883226 2.02821414,2.88209854 L2.03627004,2.7733571 C2.00363884,2.84834236 1.90661565,2.90273166 1.792,2.90273166 C1.6506151,2.90273166 1.536,2.81996954 1.536,2.71787729 C1.536,2.61578504 1.6506151,2.53302292 1.792,2.53302292 C1.83309022,2.53302292 1.87191936,2.54001333 1.90633105,2.55243705 C1.88926166,2.52235681 1.87624922,2.48764825 1.86889482,2.44981317 C1.84191731,2.31102592 1.90128927,2.18272486 2.00150579,2.16324474 C2.10172232,2.14376462 2.20483346,2.24048216 2.23181097,2.37926942 C2.24323248,2.43802798 2.23917642,2.49490697 2.22309599,2.54244408 C2.24852524,2.53633238 2.27572739,2.53302292 2.304,2.53302292 C2.4453849,2.53302292 2.56,2.61578504 2.56,2.71787729 C2.56,2.81996954 2.4453849,2.90273166 2.304,2.90273166 C2.28155434,2.90273166 2.25978337,2.90064577 2.23903858,2.89672781 C2.30867757,3.13678453 2.41162029,3.24325874 2.55503642,3.24325874 C2.70273553,3.24325874 2.76210352,3.17809402 2.76865695,3.01383685 L2.78724329,2.54798336 L2.96229678,2.96408025 C3.02536092,3.11398179 3.11233245,3.18199602 3.23599603,3.18199602 C3.41286137,3.18199602 3.53100833,3.00453922 3.53100833,2.72610758 L3.66003194,2.72610758 C3.61308765,2.69259762 3.584,2.64607218 3.584,2.59464104 C3.584,2.57715768 3.58736129,2.5602412 3.5936427,2.54421019 C3.58662937,2.54341678 3.57965598,2.54209708 3.5727502,2.54027704 C3.5800637,2.55746537 3.584,2.57572127 3.584,2.59464104 C3.584,2.69673329 3.4693849,2.77949541 3.328,2.77949541 C3.1866151,2.77949541 3.072,2.69673329 3.072,2.59464104 C3.072,2.49254879 3.1866151,2.40978667 3.328,2.40978667 C3.36909022,2.40978667 3.40791936,2.41677708 3.44233105,2.4292008 C3.42526166,2.39912056 3.41224922,2.364412 3.40489482,2.32657693 C3.38342722,2.21613568 3.41663893,2.11233464 3.4816,2.06472477 L3.4816,1.93637481 L3.39984442,1.93637481 L3.39984442,0.853409121 C3.247031,0.693668705 3.02752758,0.61215459 2.7367245,0.61215459 C2.26847943,0.61215459 2.07619309,0.749402369 1.96634051,1.15463673 C1.89633365,1.41288452 1.9642306,1.63329736 2.18438009,1.83904002 L2.05876905,2.03370961 C1.78512048,1.77796889 1.68156914,1.46704868 1.76081409,1.12145047 C1.23071889,1.09956115 0.83482865,1.16707247 0.575182188,1.31960694 C0.350041206,1.45187048 0.308859887,1.78745558 0.479225359,2.37123071 L0.285996554,2.4529049 C0.085511537,1.765922 0.142764563,1.29936912 0.485342761,1.09811476 C0.787209081,0.920777402 1.22714854,0.848606499 1.80734971,0.876903086 L1.80417655,0.971138324 C1.95280717,0.534425523 2.22614034,0.365682098 2.7367245,0.365682098 C3.04403198,0.365682098 3.29348305,0.448457007 3.4816,0.616487275 L3.4816,0.507961165 L3.8912,0.507961165 L3.8912,0.570561918 C4.06782995,0.446142145 4.28961082,0.384724919 4.55431992,0.384724919 C5.07555193,0.384724919 5.34953439,0.560579767 5.49600493,1.01785363 L5.49540844,1.00013933 C6.07560961,0.971842745 6.51554907,1.04401365 6.81741539,1.22135101 C7.15999359,1.42260537 7.21724661,1.88915824 7.0167616,2.57614115 L6.82353279,2.49446695 C6.99389826,1.91069182 6.95271695,1.57510673 6.72757596,1.44284319 C6.46903312,1.29095706 6.07540224,1.22337284 5.54869626,1.24441244 C5.58675488,1.54850611 5.47820854,1.82291339 5.23227536,2.05275243 L5.10666433,1.85808284 C5.32681382,1.65234018 5.39471077,1.43192734 5.32470391,1.17367955 C5.21485133,0.76844519 5.02256499,0.631197411 4.55431992,0.631197411 C4.26351683,0.631197411 4.04401342,0.712711526 3.8912,0.872451942 L3.8912,1.95541764 L3.8912,2.11003236 L3.70032972,2.11003236 Z M2.0367502,2.66351329 C2.03926237,2.66941745 2.04137607,2.67544757 2.04306862,2.68158729 L2.04427582,2.66529206 C2.0417593,2.66476554 2.03925032,2.6641722 2.0367502,2.66351329 Z M3.82862265,3.37533004 C3.74977724,3.33089572 3.68417971,3.26030096 3.63507951,3.17006264 C3.58624858,3.25980608 3.52110077,3.33012082 3.44283237,3.37459663 C3.48920115,3.37329068 3.53570391,3.37239644 3.58234064,3.37191392 C3.59603952,3.37148979 3.60972691,3.37152507 3.62340282,3.37159564 C3.63707873,3.37152507 3.65076612,3.37148979 3.66446499,3.37148979 C3.7193699,3.37248199 3.77408912,3.37362069 3.82862265,3.37533004 Z M4.20284982,3.3962527 C4.29473309,3.40368284 4.38607226,3.41278504 4.47686733,3.4235593 C4.42769955,3.39014488 4.38791692,3.34441292 4.35832697,3.28713483 C4.31229571,3.33605495 4.26031665,3.37259397 4.20284982,3.3962527 Z M4.83085596,3.47450454 C5.0147099,3.50568112 5.1962611,3.54393419 5.37550955,3.58926377 C5.2470555,3.5520481 5.1562858,3.43999074 5.10014394,3.26207737 C5.02772243,3.3731163 4.93766902,3.44502467 4.83085596,3.47450454 Z M5.3964095,3.59458383 C5.5722484,3.63963606 5.7458669,3.69151178 5.91726499,3.75021097 C5.90913639,3.83402565 5.89966392,3.91022527 5.88884757,3.97880982 C5.91568456,3.91366876 5.94671296,3.84226349 5.98194621,3.76440288 L5.99182692,3.74899487 L6.11030545,3.61484549 C5.94259938,3.65057191 5.8214992,3.64696209 5.75724803,3.58399948 C5.65674067,3.61919605 5.5388541,3.62257546 5.40425491,3.59621602 C5.40162517,3.59570102 5.39901004,3.59515694 5.3964095,3.59458383 Z M3.06357159,3.39469252 C3.0075867,3.37100052 2.95686329,3.33499216 2.91183205,3.28713483 C2.88319834,3.3425619 2.84502008,3.38717704 2.79802903,3.42028123 C2.88603331,3.41018468 2.9745475,3.40165511 3.06357159,3.39469252 Z M2.43068228,3.47202227 C2.32763681,3.44111053 2.24047993,3.3701163 2.17001508,3.26207737 C2.12075834,3.41817179 2.04484636,3.52357261 1.94021485,3.57221128 C2.10184395,3.5330989 2.26533309,3.49970256 2.43068228,3.47202227 Z M1.80592648,3.60613548 C1.69601064,3.62082311 1.59820302,3.61386781 1.51291099,3.58399948 C1.46274356,3.6331608 1.37791807,3.6461376 1.26331039,3.63245811 L1.35858639,3.74033602 C1.50606076,3.69056571 1.65517411,3.64583218 1.80592648,3.60613548 Z M5.68919608,4.4380379 C5.65952165,4.44676965 5.62735452,4.44137646 5.59269467,4.42185834 C5.43061471,4.33058566 4.7741841,4.24236628 3.62340282,4.1572002 C2.47262154,4.24236628 1.81619093,4.33058566 1.65411097,4.42185834 C1.65045914,4.42391481 1.64683498,4.42581447 1.64323849,4.42755734 C1.67627069,4.44212409 1.72149873,4.45736876 1.77758166,4.47276663 C1.90929917,4.50893036 2.09678958,4.5448817 2.31898982,4.57698917 C2.7528977,4.63968796 3.26885229,4.68094582 3.67903033,4.68418647 C4.08920837,4.68094582 4.60516296,4.63968796 5.03907083,4.57698917 C5.26127108,4.5448817 5.44876149,4.50893036 5.580479,4.47276663 C5.62322352,4.46103089 5.65966247,4.44938415 5.68920214,4.43805871 Z M5.70777373,4.4305978 C5.71694753,4.42672448 5.72527626,4.42289595 5.73273518,4.41912189 C5.74481918,4.41300765 5.75402997,4.40731197 5.76003208,4.40257834 C5.76040715,4.39604578 5.76099161,4.38922629 5.76178563,4.38211772 C5.7448728,4.40459709 5.72684467,4.42075662 5.70770124,4.43059631 Z M5.88836579,4.40144162 L5.88936102,4.39987504 C5.88958702,4.39967702 5.88980941,4.39948011 5.89002818,4.39928433 C5.8896079,4.39966046 5.88903068,4.40037209 5.88836579,4.40144162 Z"/>
              <g fill="#FFFFFF" fill-rule="nonzero" transform="translate(0 .138)">
                <path d="M1.83276173,0.638009077 L1.83097426,0.761226546 C0.922996034,0.742149199 0.402170153,0.901615594 0.269961013,1.21944395 C0.133276589,1.54803081 0.158693085,1.94746997 0.350216464,2.42196045 L0.25810893,2.47580806 C0.0537634258,1.96955135 0.0258565794,1.53097448 0.178394352,1.16427646 C0.33540741,0.786819939 0.886375071,0.618124738 1.83276173,0.638009077 Z"/>
                <path d="M2.00843922,1.73078867 L1.95594304,1.83659843 C1.75820955,1.69450984 1.65924536,1.45202576 1.65924536,1.11785646 C1.65924536,0.637586845 1.86481658,0.355953466 2.31953984,0.163222129 C2.60975368,0.0402169872 3.00619683,0.090650174 3.5099845,0.310470708 L3.47508137,0.426327248 C2.9914555,0.215304021 2.61724177,0.167698733 2.35355538,0.279460402 C1.93647053,0.456238954 1.76164536,0.695750125 1.76164536,1.11785646 C1.76164536,1.41110622 1.84384502,1.61251353 2.00843922,1.73078867 Z"/>
                <path d="M7.15756173,0.761245323 L7.15577426,0.884462792 C6.24779603,0.865385445 5.72697015,1.02485184 5.59476101,1.3426802 C5.45807659,1.67126706 5.48349309,2.07070622 5.67501646,2.5451967 L5.58290893,2.59904431 C5.37856343,2.0927876 5.35065658,1.65421073 5.50319435,1.28751271 C5.66020741,0.910056185 6.21117507,0.741360984 7.15756173,0.761245323 Z" transform="matrix(-1 0 0 1 12.564 0)"/>
                <path d="M3.93319386,1.75641241 L3.88069768,1.86222218 C3.68296418,1.72013359 3.584,1.4776495 3.584,1.1434802 C3.584,0.66321059 3.78957122,0.381577211 4.24429448,0.188845874 C4.53450831,0.0658407318 4.93095147,0.116273919 5.43473913,0.336094453 L5.39983601,0.451950992 C4.91621013,0.240927766 4.54199641,0.193322477 4.27831002,0.305084146 C3.86122517,0.481862698 3.6864,0.72137387 3.6864,1.1434802 C3.6864,1.43672996 3.76859966,1.63813727 3.93319386,1.75641241 Z" transform="matrix(-1 0 0 1 9.019 0)"/>
              </g>
            </g>
          </g>
        </g>
      </g>
    </g>
  </g>
</svg>
