<svg xmlns="http://www.w3.org/2000/svg" xmlns:xlink="http://www.w3.org/1999/xlink" width="32" height="24" viewBox="0 0 32 24">
  <defs>
    <rect id="a" width="32" height="24"/>
    <rect id="c" width="32" height="24"/>
    <rect id="e" width="32" height="24"/>
    <ellipse id="g" cx="5.799" cy="6.159" rx="5.799" ry="6.159"/>
  </defs>
  <g fill="none" fill-rule="evenodd">
    <mask id="b" fill="white">
      <use xlink:href="#a"/>
    </mask>
    <g mask="url(#b)">
      <mask id="d" fill="white">
        <use xlink:href="#c"/>
      </mask>
      <g mask="url(#d)">
        <mask id="f" fill="white">
          <use xlink:href="#e"/>
        </mask>
        <use fill="#F7FCFF" xlink:href="#e"/>
        <g mask="url(#f)">
          <g transform="translate(2)">
            <g transform="translate(8.201 5.902)">
              <mask id="h" fill="white">
                <use xlink:href="#g"/>
              </mask>
              <use fill="#3D58DB" xlink:href="#g"/>
              <path fill="#E31D1C" d="M11.8009535,6.63029745 C11.5839447,4.69433073 10.6718857,3.67379921 9.0647764,3.56870292 C6.65411249,3.41105847 6.00411424,5.69828871 5.86500402,6.30425817 C5.7258938,6.91022763 5.37380812,8.52673409 2.83565946,8.52673409 C1.14356035,8.52673409 0.221193932,7.15659082 0.0685602025,4.41630427 L0.0685602025,-0.430531845 L11.8009535,-0.430531845 L11.8009535,6.63029745 Z" mask="url(#h)"/>
            </g>
            <path fill="#272727" fill-rule="nonzero" d="M5.29935288,2.05217182 L6.21431499,2.87969783 L1.97405903,7.83160229 L1.05909693,7.00407627 L5.29935288,2.05217182 Z M6.80834311,3.39132961 L7.72330522,4.21885563 L3.63504478,9.09902239 L2.72008267,8.27149637 L6.80834311,3.39132961 Z M8.31042255,4.74698696 L9.22538466,5.57451298 L5.12576121,10.4917138 L4.2107991,9.66418776 L8.31042255,4.74698696 Z"/>
            <path fill="#272727" fill-rule="nonzero" d="M23.8370226,1.7051873 L24.7521747,2.52961623 L23.1647648,4.39245063 L22.2496127,3.5680217 L23.8370226,1.7051873 Z M21.0154122,5.13182554 L21.9305643,5.95625447 L20.3431544,7.81908887 L19.4280023,6.99465994 L21.0154122,5.13182554 Z M26.8576237,4.38837523 L27.7727758,5.21280416 L26.1853659,7.07563855 L25.2702138,6.25120962 L26.8576237,4.38837523 Z M24.0360134,7.81501347 L24.9511654,8.6394424 L23.3637556,10.5022768 L22.4486035,9.67784787 L24.0360134,7.81501347 Z M25.290046,3.00676857 L26.205198,3.8311975 L21.7866088,9.21206147 L20.8714567,8.38763254 L25.290046,3.00676857 Z" transform="matrix(-1 0 0 1 47.2 0)"/>
            <path fill="#272727" fill-rule="nonzero" d="M23.1320612,13.4154688 L24.0549211,14.2431141 L22.4541414,16.1132162 L21.5312815,15.2855708 L23.1320612,13.4154688 Z M20.4407558,16.7064816 L21.3636157,17.534127 L19.762836,19.404229 L18.8399761,18.5765837 L20.4407558,16.7064816 Z M26.0464936,16.0328374 L26.9693535,16.8604827 L25.3685738,18.7305848 L24.4457139,17.9029394 L26.0464936,16.0328374 Z M23.4867977,19.4001377 L24.4096576,20.227783 L22.8088779,22.0978851 L21.886018,21.2702397 L23.4867977,19.4001377 Z M21.966527,17.9780476 L22.8893869,18.8056929 L21.2184478,20.8026361 L20.2955879,19.9749908 L21.966527,17.9780476 Z M24.7079648,14.6505901 L25.6308246,15.4782354 L23.9598855,17.4751786 L23.0370256,16.6475333 L24.7079648,14.6505901 Z"/>
            <path fill="#272727" fill-rule="nonzero" d="M5.47881612,14.0645434 L6.39402203,14.8898821 L2.3094267,19.5702881 L1.39422079,18.7449494 L5.47881612,14.0645434 Z M4.52601923,18.1582084 L5.44122514,18.983547 L3.71591789,20.8790968 L2.80071198,20.0537582 L4.52601923,18.1582084 Z M8.4911584,16.6907951 L9.40636431,17.5161338 L5.30056427,22.2595051 L4.38535835,21.4341665 L8.4911584,16.6907951 Z M6.92477033,15.326857 L7.83997625,16.1521956 L6.34430638,17.9060657 L5.42910046,17.0807271 L6.92477033,15.326857 Z" transform="matrix(-1 0 0 1 10.8 0)"/>
          </g>
        </g>
      </g>
    </g>
  </g>
</svg>
