<svg width="32" height="24" fill="none" xmlns="http://www.w3.org/2000/svg">
  <mask id="a" maskUnits="userSpaceOnUse" x="0" y="0" width="32" height="24">
    <path fill="#fff" d="M0 0h32v24H0z"/>
  </mask>
  <g mask="url(#a)">
    <path fill-rule="evenodd" clip-rule="evenodd" d="M0 0v24h32V0H0z" fill="#4EC7EE"/>
    <mask id="b" maskUnits="userSpaceOnUse" x="0" y="0" width="32" height="24">
      <path fill-rule="evenodd" clip-rule="evenodd" d="M0 0v24h32V0H0z" fill="#fff"/>
    </mask>
    <g mask="url(#b)">
      <path d="M4.09 23.237c-.063.47.238.805.743 1.02.678.29 1.364.019 1.994-.68l-.817-.737c-.28.31-.482.43-.638.428.305-.218.697-.488 1.174-.808l.23-.332c.183-.79-.389-1.217-1.26-1.217-.515 0-.925.102-1.186.32-.428.36-.355.932.096 1.23.035.024.072.046.108.065-.252.213-.407.433-.444.711z" fill="#FFE402"/>
      <path d="M4.565 22.495s.125-.276.062-.42" stroke="#FFE402" stroke-width="1.1"/>
      <path d="M8.57 23.237c.063.47-.238.805-.743 1.02-.68.29-1.364.019-1.994-.68l.816-.737c.28.31.482.43.639.428a50.965 50.965 0 00-1.175-.808l-.229-.332c-.184-.79.388-1.217 1.26-1.217.514 0 .925.102 1.185.32.429.36.355.932-.095 1.23a1.139 1.139 0 01-.11.065c.254.213.408.433.445.711z" fill="#FFE402"/>
      <path d="M8.596 22.27l-1.003.452c-.14-.312-.183-.596-.066-.866l1.01.438c.034-.079.033-.082.059-.025zM4.09.763c-.063-.47.238-.805.743-1.02.678-.29 1.364-.019 1.994.68l-.817.737C5.73.85 5.528.73 5.372.732c.305.218.697.488 1.174.808l.23.332c.183.79-.389 1.217-1.26 1.217-.515 0-.925-.102-1.186-.32-.428-.36-.355-.933.096-1.23.035-.024.072-.046.108-.065-.252-.213-.407-.433-.444-.711z" fill="#FFE402"/>
      <path d="M8.57.763c.063-.47-.238-.805-.743-1.02-.68-.29-1.364-.019-1.994.68l.816.737c.28-.31.482-.43.639-.428-.306.218-.698.488-1.175.808l-.229.332c-.184.79.388 1.217 1.26 1.217.514 0 .925-.102 1.185-.32.429-.36.355-.933-.095-1.23a1.163 1.163 0 00-.11-.065c.254-.213.408-.433.445-.711z" fill="#FFE402"/>
      <path fill-rule="evenodd" clip-rule="evenodd" d="M5.094 20.063c-.631.018-1.024.148-1.024.757 0 .67.652.88 1.345.88.628 0 1.336-.39 1.336-1.088 0-.424-.54-1.281-1.9-3.139-.047-.044-.073-.066-.094-.066a.875.875 0 01.42-.1c.066 0 .152.034.238.077v.728h1.44v-.55c0-.621-.919-1.355-1.679-1.355-.663 0-1.195.316-1.465.77-.267.448-.063.879.32 1.221a45.92 45.92 0 011.29 1.864 5.374 5.374 0 00-.227.001zm.067.507a.986.986 0 01-.057-.014c.014.014.066.076.066.264 0 .102-.005.173-.011.224a.529.529 0 01-.102-.669l.003-.006-.02-.04.008-.005c.032-.016.058-.03.012.045l.101.201zm-.057-.014l-.019-.006.008.004.011.002zm.547.056c0-.018-.007-.03-.018-.036l.007.007a.099.099 0 01.01.03z" fill="#FFE402"/>
      <path fill-rule="evenodd" clip-rule="evenodd" d="M7.566 20.063c.63.018 1.023.148 1.023.757 0 .67-.651.88-1.345.88-.628 0-1.335-.39-1.335-1.088 0-.424.54-1.281 1.9-3.139.046-.044.072-.066.093-.066a.875.875 0 00-.42-.1.597.597 0 00-.238.077v.728h-1.44v-.55c0-.621.92-1.355 1.679-1.355.663 0 1.196.316 1.466.77.266.448.062.879-.32 1.221a45.912 45.912 0 00-1.29 1.864c.102-.001.158-.001.227.001zm-.068.507l.057-.014c-.013.014-.066.076-.066.264 0 .102.005.173.012.224a.529.529 0 00.101-.669l-.003-.006.02-.04-.008-.005c-.032-.016-.058-.03-.012.045l-.101.201zm.057-.014l.02-.006a.033.033 0 00-.009.004l-.011.002zm-.546.056c0-.018.006-.03.017-.036l-.006.007a.099.099 0 00-.011.03z" fill="#FFE402"/>
      <path fill-rule="evenodd" clip-rule="evenodd" d="M5.094 13.355c-.631-.018-1.024-.149-1.024-.757 0-.67.652-.88 1.345-.88.628 0 1.336.39 1.336 1.087 0 .425-.54 1.282-1.9 3.14-.047.044-.073.066-.094.066.083.046.228.1.42.1a.597.597 0 00.238-.077v-.729h1.44v.55c0 .622-.919 1.356-1.679 1.356-.663 0-1.195-.316-1.465-.77-.267-.448-.063-.88.32-1.222a45.92 45.92 0 001.29-1.863l-.227-.001zm.067-.508a.986.986 0 00-.057.015c.014-.014.066-.077.066-.264a1.77 1.77 0 00-.011-.224.529.529 0 00-.102.669l.003.005-.02.041.008.005c.032.016.058.03.012-.046l.101-.2zm-.057.015l-.019.006a.039.039 0 00.008-.004l.011-.002zm.547-.057c0 .02-.007.03-.018.036l.007-.007a.1.1 0 00.01-.029z" fill="#FFE402"/>
      <path fill-rule="evenodd" clip-rule="evenodd" d="M7.566 13.355c.63-.018 1.023-.149 1.023-.757 0-.67-.651-.88-1.345-.88-.628 0-1.335.39-1.335 1.087 0 .425.54 1.282 1.9 3.14.046.044.072.066.093.066a.875.875 0 01-.42.1.597.597 0 01-.238-.077v-.729h-1.44v.55c0 .622.92 1.356 1.679 1.356.663 0 1.196-.316 1.466-.77.266-.448.062-.88-.32-1.222a45.912 45.912 0 01-1.29-1.863l.227-.001zm-.068-.508l.057.015c-.013-.014-.066-.077-.066-.264 0-.102.005-.174.012-.224a.53.53 0 01.101.669l-.003.005.02.041-.008.005c-.032.016-.058.03-.012-.046l-.101-.2zm.057.015l.02.006a.039.039 0 01-.009-.004l-.011-.002zm-.546-.057c0 .02.006.03.017.036l-.006-.007a.1.1 0 01-.011-.029z" fill="#FFE402"/>
      <path fill-rule="evenodd" clip-rule="evenodd" d="M5.094 10.645c-.631.018-1.024.149-1.024.757 0 .67.652.88 1.345.88.628 0 1.336-.39 1.336-1.087 0-.425-.54-1.282-1.9-3.14-.047-.044-.073-.066-.094-.066a.875.875 0 01.42-.1c.066 0 .152.034.238.077v.729h1.44v-.55c0-.622-.919-1.356-1.679-1.356-.663 0-1.195.316-1.465.77-.267.448-.063.88.32 1.222.57.785 1.012 1.436 1.29 1.863l-.227.001zm.067.508a.986.986 0 01-.057-.015c.014.014.066.077.066.264 0 .102-.005.174-.011.224a.529.529 0 01-.102-.669l.003-.005-.02-.041.008-.005c.032-.016.058-.03.012.046l.101.2zm-.057-.015l-.019-.006.008.004.011.002zm.547.057c0-.02-.007-.03-.018-.036l.007.007a.1.1 0 01.01.029z" fill="#FFE402"/>
      <path fill-rule="evenodd" clip-rule="evenodd" d="M7.566 10.645c.63.018 1.023.149 1.023.757 0 .67-.651.88-1.345.88-.628 0-1.335-.39-1.335-1.087 0-.425.54-1.282 1.9-3.14.046-.044.072-.066.093-.066a.875.875 0 00-.42-.1.597.597 0 00-.238.077v.729h-1.44v-.55c0-.622.92-1.356 1.679-1.356.663 0 1.196.316 1.466.77.266.448.062.88-.32 1.222a45.92 45.92 0 00-1.29 1.863l.227.001zm-.068.508l.057-.015c-.013.014-.066.077-.066.264 0 .102.005.174.012.224a.529.529 0 00.101-.669l-.003-.005.02-.041-.008-.005c-.032-.016-.058-.03-.012.046l-.101.2zm.057-.015l.02-.006a.039.039 0 00-.009.004l-.011.002zm-.546.057c0-.02.006-.03.017-.036l-.006.007a.1.1 0 00-.011.029z" fill="#FFE402"/>
      <path fill-rule="evenodd" clip-rule="evenodd" d="M5.094 3.937c-.631-.018-1.024-.148-1.024-.757 0-.67.652-.88 1.345-.88.628 0 1.336.39 1.336 1.088 0 .424-.54 1.281-1.9 3.139-.047.044-.073.066-.094.066.083.046.228.1.42.1a.597.597 0 00.238-.077v-.728h1.44v.55c0 .621-.919 1.355-1.679 1.355-.663 0-1.195-.316-1.465-.77-.267-.448-.063-.879.32-1.221a45.906 45.906 0 001.29-1.864 5.374 5.374 0 01-.227-.001zm.067-.507a.932.932 0 00-.057.014c.014-.014.066-.076.066-.264a1.77 1.77 0 00-.011-.224.529.529 0 00-.102.669l.003.006-.02.04.008.005c.032.016.058.03.012-.045l.101-.201zm-.057.014l-.019.006a.035.035 0 00.008-.004l.011-.002zm.547-.056c0 .018-.007.03-.018.036l.007-.007a.098.098 0 00.01-.03z" fill="#FFE402"/>
      <path fill-rule="evenodd" clip-rule="evenodd" d="M7.566 3.937c.63-.018 1.023-.148 1.023-.757 0-.67-.651-.88-1.345-.88-.628 0-1.335.39-1.335 1.088 0 .424.54 1.281 1.9 3.139.046.044.072.066.093.066a.875.875 0 01-.42.1.597.597 0 01-.238-.077v-.728h-1.44v.55c0 .621.92 1.355 1.679 1.355.663 0 1.196-.316 1.466-.77.266-.448.062-.879-.32-1.221a45.898 45.898 0 01-1.29-1.864c.102.001.158.001.227-.001zm-.068-.507l.057.014c-.013-.014-.066-.076-.066-.264 0-.102.005-.173.012-.224a.53.53 0 01.101.669l-.003.006.02.04-.008.005c-.032.016-.058.03-.012-.045l-.101-.201zm.057.014l.02.006a.035.035 0 01-.009-.004l-.011-.002zm-.546-.056c0 .018.006.03.017.036l-.006-.007a.098.098 0 01-.011-.03zm11.978-.603l.41 1.528s.004.347-.388.347-.412-.347-.412-.347l.39-1.528zM22.45 8.62c0 1.988-1.517 3.6-3.39 3.6-1.872 0-3.39-1.612-3.39-3.6s1.518-3.6 3.39-3.6c1.873 0 3.39 1.612 3.39 3.6zm-1.869-4l.055-1.58-.82 1.347s-.082.338.293.452c.375.115.472-.218.472-.218zm1.56-.832l-.515 1.496s-.19.29-.515.071c-.326-.22-.148-.518-.148-.518l1.178-1.049zm.296 2.456l.93-1.28-1.433.659s-.258.233-.01.538c.246.305.513.083.513.083zm1.774.234l-1.28.93s-.322.128-.462-.238.176-.509.176-.509l1.566-.183zm-1.123 2.204l1.495-.515-1.551-.282s-.345.044-.317.435c.027.391.373.362.373.362zm1.372 1.214l-1.58.055s-.34-.073-.251-.455c.088-.382.43-.323.43-.323l1.401.723zM22.326 11.1l1.527.41-1.128-1.102s-.31-.156-.506.183a.35.35 0 00.107.51zm.49 1.767l-1.341-.838s-.24-.251.046-.518c.287-.268.538-.027.538-.027l.757 1.383zm-2.413-.214l1.038 1.193-.32-1.544s-.17-.303-.522-.131c-.353.172-.196.482-.196.482zm-.555 1.709l-.643-1.445s-.06-.342.328-.403a.38.38 0 01.461.278l-.146 1.57zm-1.85-1.57l.166 1.573.624-1.448s.035-.346-.352-.407c-.387-.062-.437.282-.437.282zm-1.428 1.063l.302-1.553s.148-.314.5-.142c.353.172.218.493.218.493l-1.02 1.202zm-.636-2.371l-.743 1.396 1.327-.851s.223-.268-.064-.535c-.287-.268-.52-.01-.52-.01zm-1.785.043l1.119-1.119s.298-.178.494.162c.196.34-.095.53-.095.53l-1.518.427zm.785-2.355l-1.397.742 1.576.036s.334-.097.246-.48c-.088-.381-.425-.298-.425-.298zm-1.525-.986l1.552-.302s.347.02.32.41c-.028.392-.376.387-.376.387l-1.496-.495zm1.94-1.526l-1.574-.165 1.287.911s.33.106.471-.26a.35.35 0 00-.185-.486zm-.735-1.682l1.445.644s.273.214.026.519c-.247.305-.529.102-.529.102l-.942-1.265zm2.416-.142L15.836 3.8l.531 1.485s.21.277.536.057c.325-.219.127-.504.127-.504zm.308-1.791l.838 1.34s.106.331-.269.446c-.375.115-.495-.211-.495-.211l-.074-1.575z" fill="#FFE402"/>
      <path fill-rule="evenodd" clip-rule="evenodd" d="M12.22 10.672a5.405 5.405 0 01-.037-.154l.07.141-.032.013zm.097.33a6.578 6.578 0 01-.096-.33l-.429.171.064.159h-.046l-.018.009a1.927 1.927 0 01-.039-.372v-.987l.43.866a2.923 2.923 0 01-.082-.637v-1.23l.498 1.247-.472.148.185.593h-.009l-.05.02.177.355.17.543c-.16-.292-.24-.486-.24-.555h-.043zm.547 1.387c-.238-.528-.42-.989-.547-1.387h-.461l.468 1.173-.173-.185a3.94 3.94 0 01-.36-.98l-.38.19-.076-.08v.118l-.018.009.018.035v.134a1.373 1.373 0 01-.075-.414V8.658l.493.994V7.778l.348.873V6.283l1.391 4.443-.098.032c-.129-.385-.193-.68-.193-.877h-.55l-.052.017.396.99-.095.031a1.062 1.062 0 01-.047-.28h-.54l.117.375.614 1.236-.026.01c-.173-.272-.313-.51-.418-.703l.24.77.178-.067.025.039-.179.09zm.19-.072l-.19.072-.231.116-.309-.33.147.368a.537.537 0 01-.033-.03 8.358 8.358 0 01-.287-.523l-.74-.79-.076.038v.044l.61 1.228h-.06l-.005.004c-.271-.448-.452-.807-.546-1.098v.803L9.15 10.663l2.782 3.311a8.837 8.837 0 003.28 2.436l-2.519-.053 2.561.723-1.325.975 2.288-.703.624.176c.84.237 1.307.474 1.338.547l.118.278.298.05c.654.109 1.86-.06 3.414-.405a34.893 34.893 0 001.468-.358 8.65 8.65 0 00.382-.11c.032-.01.032-.01.071-.026.026-.01.026-.01.085-.042.05-.007.087-.012.112-.032.068-.056.043-.227-.051-.87-.434-.116-.494-.132-.51-.112a.04.04 0 00-.006.012c-.149.03-.38.027-.69-.013 2.586-1.271 4.285-2.545 5.099-3.856l1.488-2.398-.902.658.325-1.044-1.285.825a3 3 0 00.384-.656l.968-2.34-1.528 1.426.829-2.732-1.966 2.634-8.05 5.924-.125-.029c-1.982-.46-3.373-1.86-4.201-4.267l-.414.134.006.017-.098.032-.005-.017-.4.13.007.017-.098.032-.005-.018-.04.013c.134.435.28.842.439 1.222l-.254.096.019.039-.02.01.012.018zm.02-.007l-.02.007.04.06-.394.199-.067-.072-.13.065a1.159 1.159 0 01-.032-.026l.014.036.019-.01c.022.017.051.038.087.061l-.064.032-.09-.148-.002-.004h-.49l.11.223-.072-.051-.103-.168-.057.054-.489-.349v.291c0 .52.367.914.996 1.238l-.296.32 3.291 2.345-.112-.003c.108.047.217.093.327.136l.286.113-.572.42.963.273.768-.236 2.734 1.076-.882-.628c.108 0 .212-.002.314-.004a1.095 1.095 0 00-.165-.224 1.543 1.543 0 01-.21-.018l-.03.181-.921-.656c.352-.122.695-.249 1.027-.382 1.364-.015 2.181-.088 2.303-.178l.21-.156.254.065c.245.063.47.115.675.157l.174.293c.137-.065.27-.13.402-.195a6.271 6.271 0 01-.1-.013l5.056-3.689-.424-.392c.536-.276.885-.638 1.03-1.103l.123-.399-.544.398-.105-.163-.525-.163c-.049.156-.207.312-.487.456.281-.251.515-.5.701-.746l-.794.51 1.045-.975-.652-.452c.057-.128.104-.255.142-.38l.083-.274-.368.343-.547-.277.253-.513-.475.35-1.125 1.507-.384-.32c-1.027 2.085-2.877 3.74-5.567 4.962l-.974-.226-.278.205.028-.248c-1.834 0-3.186-1.36-4.071-4.236l-.413.134L13.89 12l-.393.15-.024-.062.393-.15a13.079 13.079 0 01-.467-1.162l-.398.13.471 1.182-.033.013.025-.013c-.293-.477-.477-.866-.56-1.15l-.04.012c.145.42.306.815.484 1.185l-.051.02.006.014-.241.12.01.022zm.25-.095l-.25.095.03.063-.01.005.038.058-.367.21-.065-.07-.11.054a2.3 2.3 0 00.098.06l-.385.22-.248-.177.124.248.124-.071.058.041-.15.086a20.31 20.31 0 01-.228-.355l-.16-.114-.34.318.706.753.401-.376.056-.11 1.793 1.278.662.707a7.666 7.666 0 01-2.327-1.871l-.444.48.01.006 2.806 1.432-.045-.047c.27.142.55.27.842.385l-.484.893-.134-.003.098.07.036-.067.678.014-.311.229 1.16.457.04-.013c.272-.083.538-.17.799-.26l-.2-.142.324-.239c.323.002.624.002.903-.001.406-.163.797-.335 1.173-.516h2.028l.24.404.136.027.127.213.214-.155a8.103 8.103 0 01-.341-.058l-.256-.431h.617l-.716-.166-.078-.13c2.128-1.011 3.632-2.004 4.512-2.958.34-.094.638-.207.895-.338l-.184-.171.985-.633-.194-.3-1.66 1.21-.207-.484c.28-.2.53-.4.751-.596-.157.08-.352.156-.588.226l.495-.462-1.505.967c.938-.866 1.573-1.658 1.898-2.394l-.066-.046.122-.164-.199-.1-1.265 1.18.718-1.458-.22-.11c-.135.443-.47.965-1.006 1.555l-.121-.101-.679.909.17.152-5.005 3.682-.437-.101c-.418.19-.857.37-1.316.538l.064-.56-.842.62c-1.614-.577-2.856-1.747-3.717-3.485l.112-.056-.009-.023-.12.046-.024-.05.086-.044-.09.034.004.01-.05.024.02.047zm.016.04l-.236.117.06.12-.353.202-.046-.048-.078.044.066.037-.392.224.285.203.194-.38a3.006 3.006 0 01-.087-.047l.058-.033 1.628 1.737 2.243 1.598-.545.401.765.016.289.574.434-.32-.347-.246c.233.004.457.007.671.008l.703-.517h1.373c.295-.142.581-.29.857-.442l1.053.244.118.198h.12l-.1-.166-.138-.032-.027-.046 3.88-2.831.489-.119c.079-.019.156-.039.231-.06a4.28 4.28 0 00.111-.124l.6-.385-.185-.171c-.114.184-.252.37-.415.556l-.175.113-.094-.22-.562.41-1.992.484c.223-.222.434-.451.633-.687l.638-.41.217.286c.312-.191.598-.38.859-.568l-.067-.156.23-.214c-.09.027-.187.053-.289.077l.059.137-.705.658-.212-.28.132-.084.005-.003-.005.003-.26-.234.058-.085.27.245 1.769-2.369-.166-.114c-.178.432-.65.937-1.417 1.494.075-.136.146-.273.215-.413l.026-.051-.234.217-.274-.23c-.212.234-.456.478-.732.732l.185.167-.084.06.063.057-.089.083.289.38c-.152.21-.312.415-.481.615l-1.332.856.699-.17c-.812.808-1.784 1.524-2.914 2.15l-1.239-.288-.99.73h-.67c-.26 0-.512-.02-.756-.06l.201-.069c.14.043.284.08.43.115l.032-.279c-.152.056-.306.11-.462.164a6.593 6.593 0 01-.316-.104l-.16.118c-1.548-.362-2.754-1.572-3.612-3.576zm0 0l.055-.028-.017-.033-.055.02.017.04zm3.37 3.794l-.028-.02.27-.2c.09.022.182.04.275.055-.17.057-.342.112-.516.165zm8.266-4.091l.055-.079-.31-.28.089-.056.279.251c.163-.241.315-.49.456-.744-.22.16-.466.325-.735.493l-.026-.023.446-.415.363-.268-.04-.034-.323.302-.5.367.054.048-.074.07.01.008-.012.008.268.352zm0 0l.183.24-.092.06-.157-.206.066-.094zm-8.265 4.091l.567.405-.276-.006-.1-.002-.199-.394.008-.003zm2.035 1.45l-.011.066h.102l-.091-.066zm3.064-.333l-.16-.215-.239.05-.065.256.19.048a1.06 1.06 0 00.274-.139z" fill="#FFE402"/>
    </g>
  </g>
</svg>
