<svg width="32" height="24" viewBox="0 0 32 24" fill="none" xmlns="http://www.w3.org/2000/svg">
<g clip-path="url(#clip0_270_67520)">
<rect width="32" height="24" fill="white"/>
<path fill-rule="evenodd" clip-rule="evenodd" d="M32 0H0V6H32V0ZM32 18H0V24H32V18Z" fill="#F50101"/>
<path fill-rule="evenodd" clip-rule="evenodd" d="M0 6H32V18H0V6Z" fill="#F7FCFF"/>
<path fill-rule="evenodd" clip-rule="evenodd" d="M21.5149 12.5132C21.5894 13.3806 18.3886 12.1534 18.3886 12.5006C18.3886 12.8479 21.8175 13.4577 21.8118 14.2351C21.8061 15.0125 17.746 14.0133 18.6565 14.3629C19.5669 14.7125 21.5217 15.5494 21.2996 16.0708C20.8251 17.1844 17.6735 15.2983 17.4114 15.6701C16.9883 16.2699 19.737 17.6688 19.7138 17.8025C19.669 18.0588 17.8365 17.3996 17.4114 17.9319C17.0672 17.8348 16.9082 17.3714 16.8013 17.31L16.125 8.58658C16.125 8.58658 16.7322 16.8 15.9563 17.0362C15.1804 17.2724 13.0249 17.9906 12.9622 17.6319C12.9389 17.4983 15.5575 16.2699 15.1345 15.6701C14.8229 15.2282 11.6628 16.7955 11.4611 15.8879C10.563 15.2405 14.3699 14.6802 14.3699 14.0181C14.3699 13.3559 10.8873 14.8018 11.3039 13.8801C11.7205 12.9583 14.5086 12.6283 14.5606 12.5006C14.6557 12.2672 11.4611 12.8641 11.4611 12.5006C11.4611 11.8129 13.3733 11.6776 14.5606 11.0588C14.6308 10.3525 11.6803 11.754 11.4611 11.1879C11.242 10.6218 15.2323 9.15513 15.1345 9.04088C14.9801 8.86044 11.7642 9.67462 12.2945 9.24707C13.3238 8.41727 15.333 7.28888 15.7952 6.9879C15.7952 6.9879 15.8509 6.87434 15.9104 6.91287C15.9701 6.87434 16.0356 6.83213 16.0356 6.83213C16.0356 6.83213 16.0356 7.54215 16.0258 6.9879C16.0159 6.43364 20.7354 8.8589 20.789 9.47371C20.8513 10.1919 17.8728 8.93224 17.9429 9.63845C18.5483 10.0136 20.2704 10.7395 20.982 11.0588C21.3047 11.2035 18.6042 10.7523 18.6612 10.9738C18.8066 11.5385 21.4371 11.6086 21.5149 12.5132Z" fill="#52AB0B"/>
</g>
<defs>
<clipPath id="clip0_270_67520">
<rect width="32" height="24" fill="white"/>
</clipPath>
</defs>
</svg>
