<svg xmlns="http://www.w3.org/2000/svg" xmlns:xlink="http://www.w3.org/1999/xlink" width="32" height="24" viewBox="0 0 32 24">
  <defs>
    <rect id="li---liechtenstein-a" width="32" height="24" x="0" y="0"/>
    <rect id="li---liechtenstein-c" width="32" height="24" x="0" y="0"/>
  </defs>
  <g fill="none" fill-rule="evenodd">
    <mask id="li---liechtenstein-b" fill="#fff">
      <use xlink:href="#li---liechtenstein-a"/>
    </mask>
    <g mask="url(#li---liechtenstein-b)">
      <mask id="li---liechtenstein-d" fill="#fff">
        <use xlink:href="#li---liechtenstein-c"/>
      </mask>
      <use fill="#E31D1C" xlink:href="#li---liechtenstein-c"/>
      <rect width="32" height="12" fill="#2E42A5" mask="url(#li---liechtenstein-d)"/>
      <g mask="url(#li---liechtenstein-d)">
        <g transform="translate(4)">
          <path fill="#000" d="M0.798452857,11.0531734 C1.60289515,11.553903 2.9371736,11.8042679 4.80128821,11.8042679 C6.66540282,11.8042679 8.092193,11.553903 9.08165875,11.0531734 C7.61976726,10.2033546 6.23526067,9.77844525 4.92813898,9.77844525 C3.6210173,9.77844525 2.24445525,10.2033546 0.798452857,11.0531734 Z"/>
          <path fill="#FFD83D" stroke="#000" stroke-width=".5" d="M0.654558784,6.86793894 C-0.226905032,5.35310017 -0.109877071,4.20403252 1.05073073,3.54672845 C1.94887844,3.03806727 2.66140975,3.0781009 3.84469673,3.47030107 C4.50756767,3.69000948 4.68065389,3.73623783 4.94107156,3.73623783 C5.20253815,3.73623783 5.4079061,3.68429317 6.16224044,3.45281033 C6.46552779,3.35974044 6.65991976,3.30449502 6.86493323,3.25668602 C7.73687994,3.05334866 8.39323935,3.11479238 8.92330771,3.5755894 C9.73020705,4.27704008 9.89084249,5.37272269 9.43425879,6.81753642 L9.37906093,6.99220456 L0.726867238,6.99220456 L0.654558784,6.86793894 Z"/>
          <path fill="#FFD83D" stroke="#000" stroke-width=".5" d="M-0.113836008,6.90599943 C1.01613939,6.3105072 2.71064272,6.0175797 4.97518936,6.0175797 C7.23973599,6.0175797 8.93423932,6.3105072 10.0642147,6.90599943 L10.258911,7.00860356 L8.91433502,10.6039356 L8.68904618,10.5344162 C7.48627992,10.1632681 6.25491871,9.97775205 4.99413267,9.97775205 C3.73269337,9.97775205 2.47719139,10.1634644 1.22692432,10.5351652 L1.00125975,10.6022546 L-0.306797698,7.00768942 L-0.113836008,6.90599943 Z"/>
          <ellipse cx="4.874" cy="3.17" fill="#FFD83D" stroke="#000" stroke-width=".5" rx="1" ry="1.095"/>
          <path fill="#FFD83D" stroke="#000" stroke-width=".5" d="M4.86290205,2.60283019 L4.8739353,2.81798902 L4.88483934,2.60283019 L4.86290205,2.60283019 Z M4.89005145,0.25 L4.8739714,0.0213955388 L4.85814854,0.25 L4.89005145,0.25 Z M5.33266679,0.635436669 L5.8802521,0.556835041 L5.8802521,1.76717569 L5.3166106,1.68729184 L5.3891988,3.10283019 L4.35885814,3.10283019 L4.43053464,1.68850806 L3.86764706,1.76604117 L3.86764706,0.558961637 L4.41579484,0.63354833 L4.35364603,-0.25 L5.3939523,-0.25 L5.33266679,0.635436669 Z"/>
        </g>
      </g>
    </g>
  </g>
</svg>
