<svg width="32" height="24" fill="none" xmlns="http://www.w3.org/2000/svg">
  <mask id="a" maskUnits="userSpaceOnUse" x="0" y="0" width="32" height="24">
    <path fill="#fff" d="M0 0h32v24H0z"/>
  </mask>
  <g mask="url(#a)">
    <path fill-rule="evenodd" clip-rule="evenodd" d="M0 0h32v24H0V0z" fill="#FECA00"/>
    <path fill="#1F8A6E" d="M2 2h6v20H2z"/>
    <path fill="#F56800" d="M8 2h6v20H8z"/>
    <path fill="#B01D00" d="M14 2h16v20H14z"/>
    <path fill="#E8AA00" d="M12 2h2v20h-2z"/>
    <path fill-rule="evenodd" clip-rule="evenodd" d="M17.1 6.173s-1.273-.003-1.273 2.215v3.252s-.607.108-.607.484c0 .377.129.707.368.707s.478 1.105.239 1.105c-.24 0-.478.474-.24.474.058 0 .101-.008.135-.014s.058-.01.073-.001c.032.018.032.09.032.31 0 .43-.24.605-.24.605s-.224-.063-.224.19c0 .254.225.318.225.318s.129.055-.12.175c-.248.12-.248.178-.248.178h.607l.304.556.29-.556h.598s-.302-.192-.337-.233c-.035-.04-.078-.1 0-.167a.39.39 0 01.092-.05c.087-.04.188-.086.188-.22 0-.191-.382-.191-.382-.191s-.233-.421-.16-.605c.02-.052.032-.097.042-.136.026-.102.04-.16.166-.16.174 0 .274-.219.054-.473 0 0 .252.27.178.622-.074.352.077.51.159.51s.212-.12.212-.12.68.607.978.607c.298 0 .726-.486.726-.486l.615.345s.45.63.384 1.064c-.067.433-.323.674-.625.607-.302-.067-.793.07-.83.258l-.023.1c-.052.212-.13.53.107.452.28-.093.334-.163.334-.163s-.037.163.188.163c.224 0 .289-.163.289-.163s.233.163.396.163c.164 0 .347-.126.347-.126s.12.187.387.126c.266-.061.468-.757.274-.913 0 0 .643-.093.808-.652 0 0-.622-.01-.558-.392.064-.383.393-.628.393-.628s.945-.458 1.352-.605c.407-.147 1.084-.295 1.251-.295.068 0 .117.159.183.375.096.314.23.749.513.986.478.4.152 1.314.152 1.314s-1.064.108-1.064.396c0 .288.017.414.216.414.2 0 .195-.163.195-.163s.119.163.31.163c.19 0 .343-.163.343-.163s.05.163.301.163c.25 0 .249-.163.249-.163s.045.163.265.163c.22 0 .674-.163.674-.163s.07.163.3.163c.229 0 .234-.163.234-.163s.123.163.321.163a.417.417 0 00.315-.163s.285.163.482.163.126-.295 0-.552a1.483 1.483 0 00-.103-.172c-.1-.15-.171-.258-.002-.444.047-.053.102-.106.157-.16.205-.198.41-.398.26-.574a.754.754 0 00-.15-.125c-.172-.12-.348-.241-.267-.92a6.64 6.64 0 01.225-1.044c.1-.362.192-.691.192-1.073 0-.707-.417-1.514-.417-1.514s.561-.392.561-1.19c0-.797-1.253-.884-1.253-.884s-1.245.32-1.794.16a8.033 8.033 0 00-.315-.083c-.296-.074-.387-.097-.387-.303 0-.265-.4.226-.4.226s-.314-.125-.1-.386c.213-.26.309-.362.309-.362s-.188-.214-.505-.107-.373.284-.373.284-.362-.37-.136-.638c.225-.269.51 0 .51 0s.323.169.349-.053c.026-.222 0-.399 0-.399s.812.233.582.595c-.23.363-.084.495-.084.495s.558.034.659-.35a.811.811 0 00.004-.398c.16.075.343.165.292.314-.093.274-.296.62-.296.62s.558-.033.724-.47c.166-.437.106.107.106.107s.213-.008.534.177c.321.185 0-.284 0-.284s.666.825 1.296.727c.63-.098.595-.62.595-.62s-.15-.257-.461-.257c-.312 0-.134.257-.134.257s.304.173-.178 0c-.14-.05-.348-.212-.607-.413-.634-.493-1.57-1.22-2.534-1.109-1.357.157-1.831.763-1.831.763v-.505s-.228.351-.441.351-.803-.35-.803-.35l-.376.35s-.143-.35-.393-.35-.25.35-.25.35-.315-.154-.661-.154a.888.888 0 01-.356-.092c-.134-.058-.21-.09-.21.092v.105c.007.247.01.401-.349.448-.408.053-.723.053-.723.053s-.244-.298-.434-.298-.41.231-.41.441.246.81.41.938c.043.034.035.03 0 .014-.099-.045-.41-.189-.41.114 0 .21.052.262.09.3.037.037.06.06.01.201-.02.059-.049.126-.078.197-.116.273-.25.592-.023.592.123 0 .239-.027.322-.046.11-.026.16-.038.089.046a3.063 3.063 0 01-.105.114c-.131.137-.266.278-.033.171.123-.056.226-.138.311-.205.125-.1.211-.167.261-.08.032.055.006.128-.015.191-.037.105-.063.18.2.094.092-.03.146-.054.176-.071.001.017.015.04.057.071.088.065.07.126.058.173-.015.053-.024.088.13.088.147 0 .354-.114.477-.182.12-.065.16-.087-.012.08-.108.105-.264.176-.437.254-.385.173-.855.385-1.068 1.108-.288.975-.16 1.176-.14 1.2l-.886-.971s.212-.166.212-.444c0-.277-.549-.484-.549-.484s.02-3.458.178-4.212c.159-.755.24-1.255.24-1.255zm.805 7.365l.002.003v-.001l-.002-.002zm.963-2.824a.03.03 0 00-.028.033c.038-.022.038-.033.028-.033zm6.667-2.79l-.012-.006c-.13-.06-.241-.113-.198-.182.06-.095.164.005.21.188zm.586 7.482s-.42.412-.153.502c.08.027.18.043.27.057.21.033.384.06.225.215-.228.223-.422.525-.422.8 0 .274.007.506.08.39.04-.063.206-.13.385-.202.147-.059.302-.121.404-.188.192-.127.189-.264.184-.51l-.002-.139c0-.337-.97-.925-.97-.925zM22.863 9.89c.098-.078.104-1.038.104-1.038s.344.114.344.264a.46.46 0 01-.066.227c-.023.05-.052.108-.083.192-.075.206.13.335.32.455l.044.028c.13.082.166-.097.194-.235.015-.076.028-.14.053-.14.07 0 .59.118.982.317.342.173.677.088 1.445-.107.112-.029.234-.06.366-.092 1.036-.257 1.172.129 1.278.432.106.304-.698.725-1.278.801a3.629 3.629 0 01-.68.014c-.258-.013-.489-.024-.724.06-.37.131-1.525.118-1.977.113l-.142-.001c-.207 0-.246-.066-.325-.197a2.205 2.205 0 00-.071-.113c-.14-.206.03-.341.14-.341.111 0 .076-.242 0-.336-.075-.093-.022-.226.076-.303zm-8.692-7.768v.361c0 .045-.019.105-.04.173-.069.216-.16.505.262.586.556.107.965.35 1.09.58.08.146.057-.099.03-.387a5.742 5.742 0 01-.03-.463c0-.354-.397-1.044-.678-.85-.281.195-.634 0-.634 0zm0 19.385v.361s.353-.194.634 0c.28.195.677-.495.677-.85 0-.126.016-.301.031-.463.027-.288.05-.533-.03-.386-.125.23-.534.473-1.09.58-.422.08-.33.37-.263.585a.657.657 0 01.041.173zm15.665 0v.361s-.353-.194-.634 0c-.281.195-.678-.495-.678-.85 0-.126-.016-.301-.03-.463-.027-.288-.05-.533.03-.386.125.23.534.473 1.09.58.422.08.33.37.262.585-.021.068-.04.129-.04.173zm0-19.024v-.36s-.353.194-.634 0c-.281-.195-.678.495-.678.849 0 .127-.016.302-.03.463-.027.288-.05.533.03.386.125-.229.534-.472 1.09-.579.422-.081.33-.37.262-.586-.021-.068-.04-.128-.04-.173z" fill="#FECA00"/>
  </g>
</svg>
