<svg xmlns="http://www.w3.org/2000/svg" xmlns:xlink="http://www.w3.org/1999/xlink" width="32" height="24" viewBox="0 0 32 24">
  <defs>
    <rect id="ly---libya-a" width="32" height="24" x="0" y="0"/>
  </defs>
  <g fill="none" fill-rule="evenodd">
    <mask id="ly---libya-b" fill="#fff">
      <use xlink:href="#ly---libya-a"/>
    </mask>
    <g mask="url(#ly---libya-b)">
      <path fill="#55BA07" d="M0,18 L32,18 L32,22 C32,23.1045695 31.1045695,24 30,24 L2,24 C0.8954305,24 1.3527075e-16,23.1045695 0,22 L0,18 Z"/>
      <polygon fill="#1D1D1D" points="0 6 32 6 32 18 0 18"/>
      <path fill="#E11C1B" d="M2,0 L30,0 C31.1045695,-2.02906125e-16 32,0.8954305 32,2 L32,6 L0,6 L0,2 C-1.3527075e-16,0.8954305 0.8954305,2.02906125e-16 2,0 Z"/>
      <path fill="#FFF" d="M2.55972428,5.31135023 C2.54051695,6.75777739 3.00545436,7.69549762 4.79753754,8.06589808 C6.58962072,8.43629855 7.09682517,7.41453459 7.84727918,6.87605977 C7.76682147,7.53378452 7.32930002,9.46443772 4.53351597,9.46443772 C2.29725896,9.41941719 0.540008545,7.59937627 0.540008545,5.17871766 C0.540008545,2.40020423 2.53360568,0.923159845 4.47739666,0.940147341 C5.76848775,0.940147341 7.45006385,1.15862072 7.95767981,3.15612778 C7.35076861,2.42026789 6.19293819,1.89294921 4.77929701,2.06231157 C3.36565583,2.23167392 2.55972428,3.78083784 2.55972428,5.31135023 Z M7.93912584,4.70777702 L9.26303538,4.29118682 L9.4870266,3.02871247 L10.3473663,4.0009074 L11.5649322,3.74395514 L10.6928577,4.92097549 L11.6779444,6.07277679 L10.2200939,5.77261678 L9.21530973,6.84186261 L9.42170241,5.28791281 L7.93912584,4.70777702 Z" transform="translate(11 7)"/>
    </g>
  </g>
</svg>
