<svg xmlns="http://www.w3.org/2000/svg" xmlns:xlink="http://www.w3.org/1999/xlink" width="32" height="24" viewBox="0 0 32 24">
  <defs>
    <rect id="a" width="32" height="24"/>
    <rect id="c" width="32" height="24"/>
  </defs>
  <g fill="none" fill-rule="evenodd">
    <mask id="b" fill="white">
      <use xlink:href="#a"/>
    </mask>
    <g mask="url(#b)">
      <mask id="d" fill="white">
        <use xlink:href="#c"/>
      </mask>
      <g mask="url(#d)">
        <path fill="#55BA07" d="M0,18 L32,18 L32,22 C32,23.1045695 31.1045695,24 30,24 L2,24 C0.8954305,24 1.3527075e-16,23.1045695 0,22 L0,18 Z"/>
        <polygon fill="#1D1D1D" points="0 6 32 6 32 18 0 18"/>
        <path fill="#E11C1B" d="M2,0 L30,0 C31.1045695,-2.02906125e-16 32,0.8954305 32,2 L32,6 L0,6 L0,2 C-1.3527075e-16,0.8954305 0.8954305,2.02906125e-16 2,0 Z"/>
        <path fill="#FFFFFF" d="M3.55972428,6.31135023 C3.54051695,7.75777739 4.00545436,8.69549762 5.79753754,9.06589808 C7.58962072,9.43629855 8.09682517,8.41453459 8.84727918,7.87605977 C8.76682147,8.53378452 8.32930002,10.4644377 5.53351597,10.4644377 C3.29725896,10.4194172 1.54000854,8.59937627 1.54000854,6.17871766 C1.54000854,3.40020423 3.53360568,1.92315985 5.47739666,1.94014734 C6.76848775,1.94014734 8.45006385,2.15862072 8.95767981,4.15612778 C8.35076861,3.42026789 7.19293819,2.89294921 5.77929701,3.06231157 C4.36565583,3.23167392 3.55972428,4.78083784 3.55972428,6.31135023 Z M8.93912584,5.70777702 L10.2630354,5.29118682 L10.4870266,4.02871247 L11.3473663,5.0009074 L12.5649322,4.74395514 L11.6928577,5.92097549 L12.6779444,7.07277679 L11.2200939,6.77261678 L10.2153097,7.84186261 L10.4217024,6.28791281 L8.93912584,5.70777702 Z" transform="translate(10 6)"/>
      </g>
    </g>
  </g>
</svg>
