<svg xmlns="http://www.w3.org/2000/svg" xmlns:xlink="http://www.w3.org/1999/xlink" width="32" height="24" viewBox="0 0 32 24">
  <defs>
    <rect id="ma---morocco-a" width="32" height="24" x="0" y="0"/>
  </defs>
  <g fill="none" fill-rule="evenodd">
    <mask id="ma---morocco-b" fill="#fff">
      <use xlink:href="#ma---morocco-a"/>
    </mask>
    <g mask="url(#ma---morocco-b)">
      <path fill="#C51918" d="M0,0 L32,0 L32,22 C32,23.1045695 31.1045695,24 30,24 L2,24 C0.8954305,24 1.3527075e-16,23.1045695 0,22 L0,0 Z"/>
      <polygon fill="#E31D1C" points="0 0 32 0 32 24 0 24"/>
      <g fill="#579D20" fill-rule="nonzero" transform="translate(6 2.5)">
        <path d="M10.1657986,0.200591316 L16.4819034,17.1261541 L10.126519,13.3209968 L3.79514346,17.1261541 L9.89172776,0.200591316 L10.1657986,0.200591316 Z M10.1437046,3.08365865 L9.46658763,5.72201387 L7.43672794,11.3979558 L6.28132229,14.1925996 L8.78066546,12.379797 L10.1250588,11.5718165 L11.4914772,12.3899318 L14.0502748,14.1925996 L12.8650205,11.4540597 L10.8463692,5.79758393 L10.1437046,3.08365865 Z"/>
        <path d="M10.1584908,13.2970548 L6.66254335,10.9731262 L0.385264442,5.73643643 L19.6164029,5.73643643 L13.4206452,10.9731262 L10.1584908,13.2970548 Z M4.35748514,7.51913319 L6.73509249,8.97409465 L10.1432872,11.388837 L13.5397274,8.81187429 L15.5806975,7.51913319 L13.0219184,7.51913319 L7.25817414,7.51913319 L4.35748514,7.51913319 Z"/>
      </g>
    </g>
  </g>
</svg>
