<svg xmlns="http://www.w3.org/2000/svg" xmlns:xlink="http://www.w3.org/1999/xlink" width="32" height="24" viewBox="0 0 32 24">
  <defs>
    <rect id="a" width="32" height="24"/>
    <rect id="c" width="32" height="24"/>
    <rect id="e" width="32" height="24"/>
  </defs>
  <g fill="none" fill-rule="evenodd">
    <mask id="b" fill="white">
      <use xlink:href="#a"/>
    </mask>
    <g mask="url(#b)">
      <mask id="d" fill="white">
        <use xlink:href="#c"/>
      </mask>
      <g mask="url(#d)">
        <mask id="f" fill="white">
          <use xlink:href="#e"/>
        </mask>
        <use fill="#E11C1B" xlink:href="#e"/>
        <rect width="32" height="10" fill="#272727" mask="url(#f)"/>
        <rect width="32" height="8" y="16" fill="#5EAA22" mask="url(#f)"/>
        <g fill="#E11C1B" mask="url(#f)">
          <path d="M26.2816106,11.9457579 L26.2816106,11.9436956 L26.2895427,11.9450516 L26.2816106,11.9457579 Z M25.6517328,8.12680896 L25.548746,8.12680896 L25.7065925,8.10263553 L25.6517328,8.12680896 Z M22.7044971,8.12680896 L20.7395826,8.12680896 C19.3854853,6.24980645 16.9105655,4.99318017 14.0818279,4.99318017 C11.2530903,4.99318017 8.7781705,6.24980645 7.42407327,8.12680896 L5.55762334,8.12680896 C5.60998159,8.02616801 5.66464531,7.92661576 5.72155667,7.8282024 L3.43211028,6.3126914 L6.13249,7.19112545 C6.28351315,6.9799375 6.44543506,6.77517959 6.61757806,6.57743703 L4.63316703,4.68811894 L7.16199886,6.00774389 C7.34751153,5.83060765 7.54195052,5.66057698 7.74470304,5.49818113 L6.13981073,3.28113324 L8.40634834,5.01503227 C8.61719562,4.87487446 8.83512693,4.74227505 9.05959871,4.61770352 L7.90361659,2.13695598 L9.81825687,4.2386697 C10.0464427,4.13664591 10.2800893,4.0424654 10.5187182,3.95654129 L9.86789445,1.29236197 L11.3504336,3.69631429 C11.5891124,3.63252576 11.831859,3.57673328 12.0782541,3.52929925 L11.9695108,0.774497141 L12.9556416,3.39790253 C13.1991344,3.37165239 13.4455219,3.35345063 13.6944358,3.34361521 L14.140918,0.600006104 L14.5875307,3.34441733 C14.8361494,3.35469069 15.0822351,3.37331117 15.3254204,3.39996139 L16.3123251,0.774497141 L16.2034324,3.53308494 C16.4489338,3.58082523 16.6907966,3.63686696 16.9286046,3.70085081 L18.4139415,1.29236197 L17.7615194,3.96308402 C17.9987377,4.04900653 18.2310099,4.14309505 18.4578646,4.24494245 L20.3782194,2.13695598 L19.2181794,4.62641156 C19.440869,4.75053283 19.6570915,4.8825657 19.8663142,5.02204995 L22.1420252,3.28113324 L20.529889,5.5081881 C20.7306801,5.66959482 20.9232778,5.83850397 21.1070839,6.01439888 L23.6486689,4.68811894 L21.6534696,6.58770831 C21.8236968,6.78389337 21.9838764,6.98695685 22.133349,7.19632927 L24.8497257,6.3126914 L22.5460154,7.83764442 C22.6009682,7.93298202 22.653813,8.02938535 22.7044971,8.12680889 Z M2.73308996,8.12680896 L2.63010314,8.12680896 L2.57524341,8.10263553 L2.73308996,8.12680896 Z M2.00164923,11.9434522 L2.00164923,11.9458847 L1.99229326,11.9450516 L2.00164923,11.9434522 Z M8.5596707,8.12680896 C9.84256735,6.80362524 11.8569515,5.95106474 14.122011,5.95106474 C16.3870705,5.95106474 18.4014546,6.80362524 19.6843512,8.12680896 L8.5596707,8.12680896 Z" transform="translate(2)"/>
        </g>
      </g>
    </g>
  </g>
</svg>
