<svg xmlns="http://www.w3.org/2000/svg" xmlns:xlink="http://www.w3.org/1999/xlink" width="32" height="24" viewBox="0 0 32 24">
  <defs>
    <rect id="na---namibia-a" width="32" height="24" x="0" y="0"/>
    <rect id="na---namibia-c" width="32" height="24" x="0" y="0"/>
  </defs>
  <g fill="none" fill-rule="evenodd">
    <mask id="na---namibia-b" fill="#fff">
      <use xlink:href="#na---namibia-a"/>
    </mask>
    <g mask="url(#na---namibia-b)">
      <mask id="na---namibia-d" fill="#fff">
        <use xlink:href="#na---namibia-c"/>
      </mask>
      <use fill="#093" xlink:href="#na---namibia-c"/>
      <polygon fill="#3195F9" points="0 0 0 24 32 0" mask="url(#na---namibia-d)"/>
      <g mask="url(#na---namibia-d)">
        <g transform="translate(-4 -3)">
          <path fill="#E31D1C" fill-rule="nonzero" stroke="#F7FCFF" stroke-width="2" d="M3.518099,31.0548177 L-0.32268543,24.0961725 L36.7686373,-0.616705617 L39.9596885,6.24976535 L3.518099,31.0548177 Z"/>
          <path fill="#FECA00" d="M10.2296535,12.2447641 L8.93555832,13.8592705 L8.62209216,11.8140193 L6.69411964,12.5651752 L7.44527555,10.6372027 L5.40002441,10.3237366 L7.01453078,9.02964134 L5.40002441,7.73554611 L7.44527555,7.42207995 L6.69411964,5.49410743 L8.62209216,6.24526335 L8.93555832,4.20001221 L10.2296535,5.81451857 L11.5237488,4.20001221 L11.8372149,6.24526335 L13.7651875,5.49410743 L13.0140315,7.42207995 L15.0592827,7.73554611 L13.4447763,9.02964134 L15.0592827,10.3237366 L13.0140315,10.6372027 L13.7651875,12.5651752 L11.8372149,11.8140193 L11.5237488,13.8592705 L10.2296535,12.2447641 Z M10.2296535,11.5296413 C11.6103654,11.5296413 12.7296535,10.4103532 12.7296535,9.02964134 C12.7296535,7.64892946 11.6103654,6.52964134 10.2296535,6.52964134 C8.84894167,6.52964134 7.72965355,7.64892946 7.72965355,9.02964134 C7.72965355,10.4103532 8.84894167,11.5296413 10.2296535,11.5296413 Z M10.2296535,11.0296413 C9.12508405,11.0296413 8.22965355,10.1342108 8.22965355,9.02964134 C8.22965355,7.92507184 9.12508405,7.02964134 10.2296535,7.02964134 C11.334223,7.02964134 12.2296535,7.92507184 12.2296535,9.02964134 C12.2296535,10.1342108 11.334223,11.0296413 10.2296535,11.0296413 Z"/>
        </g>
      </g>
    </g>
  </g>
</svg>
