<svg xmlns="http://www.w3.org/2000/svg" xmlns:xlink="http://www.w3.org/1999/xlink" width="32" height="24" viewBox="0 0 32 24">
  <defs>
    <rect id="a" width="32" height="24"/>
    <rect id="c" width="32" height="24"/>
    <rect id="e" width="32" height="24"/>
  </defs>
  <g fill="none" fill-rule="evenodd">
    <mask id="b" fill="white">
      <use xlink:href="#a"/>
    </mask>
    <g mask="url(#b)">
      <mask id="d" fill="white">
        <use xlink:href="#c"/>
      </mask>
      <g mask="url(#d)">
        <mask id="f" fill="white">
          <use xlink:href="#e"/>
        </mask>
        <use fill="#009933" xlink:href="#e"/>
        <polygon fill="#3195F9" points="0 0 0 24 32 0" mask="url(#f)"/>
        <g mask="url(#f)">
          <g transform="translate(-4 -4)">
            <path fill="#E31D1C" fill-rule="nonzero" stroke="#F7FCFF" stroke-width="2" d="M3.518099,32.0548177 L-0.32268543,25.0961725 L36.7686373,0.383294383 L39.9596885,7.24976535 L3.518099,32.0548177 Z"/>
            <path fill="#FECA00" d="M10.2296535,13.2447641 L8.93555832,14.8592705 L8.62209216,12.8140193 L6.69411964,13.5651752 L7.44527555,11.6372027 L5.40002441,11.3237366 L7.01453078,10.0296413 L5.40002441,8.73554611 L7.44527555,8.42207995 L6.69411964,6.49410743 L8.62209216,7.24526335 L8.93555832,5.20001221 L10.2296535,6.81451857 L11.5237488,5.20001221 L11.8372149,7.24526335 L13.7651875,6.49410743 L13.0140315,8.42207995 L15.0592827,8.73554611 L13.4447763,10.0296413 L15.0592827,11.3237366 L13.0140315,11.6372027 L13.7651875,13.5651752 L11.8372149,12.8140193 L11.5237488,14.8592705 L10.2296535,13.2447641 Z M10.2296535,12.5296413 C11.6103654,12.5296413 12.7296535,11.4103532 12.7296535,10.0296413 C12.7296535,8.64892946 11.6103654,7.52964134 10.2296535,7.52964134 C8.84894167,7.52964134 7.72965355,8.64892946 7.72965355,10.0296413 C7.72965355,11.4103532 8.84894167,12.5296413 10.2296535,12.5296413 Z M10.2296535,12.0296413 C9.12508405,12.0296413 8.22965355,11.1342108 8.22965355,10.0296413 C8.22965355,8.92507184 9.12508405,8.02964134 10.2296535,8.02964134 C11.334223,8.02964134 12.2296535,8.92507184 12.2296535,10.0296413 C12.2296535,11.1342108 11.334223,12.0296413 10.2296535,12.0296413 Z"/>
          </g>
        </g>
      </g>
    </g>
  </g>
</svg>
