<svg xmlns="http://www.w3.org/2000/svg" xmlns:xlink="http://www.w3.org/1999/xlink" width="32" height="24" viewBox="0 0 32 24">
  <defs>
    <rect id="a" width="32" height="24"/>
    <rect id="c" width="32" height="24"/>
    <rect id="e" width="32" height="24"/>
  </defs>
  <g fill="none" fill-rule="evenodd">
    <mask id="b" fill="white">
      <use xlink:href="#a"/>
    </mask>
    <g mask="url(#b)">
      <mask id="d" fill="white">
        <use xlink:href="#c"/>
      </mask>
      <g mask="url(#d)">
        <mask id="f" fill="white">
          <use xlink:href="#e"/>
        </mask>
        <use fill="#F50101" xlink:href="#e"/>
        <rect width="32" height="8" fill="#F7FCFF" mask="url(#f)"/>
        <rect width="32" height="8" y="16" fill="#5EAA22" mask="url(#f)"/>
        <rect width="12" height="24" fill="#F50101" mask="url(#f)"/>
        <g fill="#F7FCFF" mask="url(#f)">
          <path d="M9.0872514,7.04088561 C8.80609074,7.47230772 8.4904003,7.89466444 8.14018008,8.30795578 C8.12312926,8.32807727 8.10602375,8.34812469 8.08886356,8.36809801 C9.37269566,9.74919527 10.7225347,10.9109257 12.1383807,11.8532892 L12.1382345,11.8535088 C12.1780922,11.8800374 12.1888976,11.9338542 12.162369,11.9737119 C12.1422432,12.0039497 12.105401,12.018435 12.0700706,12.0100009 C10.2525227,11.5761177 8.67047257,10.786309 7.32392007,9.64057489 C7.05889612,9.9323433 6.69421847,10.0821247 6.22988714,10.0899192 C4.94466968,11.0274963 3.44938727,11.6805012 1.74403991,12.0489338 C1.71359808,12.0555106 1.68196356,12.0453032 1.66110677,12.0221742 C1.62894825,11.9865121 1.63178846,11.9315326 1.6674452,11.8993682 C2.49916513,11.1493594 3.23361903,10.4861041 3.87080692,9.90960241 C2.94843317,9.73018027 2.21271315,9.38287455 2.21271315,8.72639618 C2.21271315,7.94055768 3.37091767,7.67468856 5.68732673,7.92878882 C5.4853606,7.67301392 5.29538176,7.41385767 5.1173902,7.15132007 C4.88535807,7.13858065 4.68862602,6.99494445 4.60139918,6.79381873 L4.33583225,6.79381873 L4.33583225,7.49001633 C4.33583225,7.53804109 4.29690049,7.57697285 4.24887573,7.57697285 L2.14018008,7.57697285 C2.09215532,7.57697285 2.05322356,7.53804109 2.05322356,7.49001633 L2.05322356,6.16392937 C2.05322356,6.11590461 2.09215532,6.07697285 2.14018008,6.07697285 L4.24887573,6.07697285 C4.29690049,6.07697285 4.33583225,6.11590461 4.33583225,6.16392937 L4.33583225,6.19644716 L4.53109213,6.19644716 C3.81787569,4.90428372 3.37797246,3.53502452 3.21138244,2.08866955 L3.21163803,2.08864012 C3.20615916,2.04107193 3.2402793,1.9980688 3.28784748,1.99258993 C3.32249667,1.98859906 3.35616381,2.00575973 3.37329224,2.03614246 C4.01920422,3.18187306 4.89569042,4.46461314 6.00275083,5.88436269 L6.10373135,5.06845659 C6.46799413,4.97952521 6.65012552,4.78859279 6.65012552,4.49565931 C6.65012552,4.20272583 6.65012552,3.8972861 6.65012552,3.57934013 L5.74887573,2.83395059 L6.94122041,2 L8.0724891,2.83395059 L7.24880268,3.57934013 L7.24880268,4.49565931 C7.55234499,4.77404692 7.75172207,4.96497935 7.8469339,5.06845659 L7.8469339,5.99241884 C9.03046172,4.49281156 9.95426572,3.15938271 10.6183459,1.99213227 C10.6347905,1.96322772 10.6663146,1.94627123 10.699496,1.94848245 C10.7472893,1.95166742 10.7834514,1.99299344 10.7802665,2.0407867 L10.7804932,2.04080181 C10.6858989,3.46027446 10.3091275,4.8056648 9.65017903,6.07697285 L11.7488757,6.07697285 C11.7969005,6.07697285 11.8358323,6.11590461 11.8358323,6.16392937 L11.8358323,7.49001633 C11.8358323,7.53804109 11.7969005,7.57697285 11.7488757,7.57697285 L9.64018008,7.57697285 C9.59215532,7.57697285 9.55322356,7.53804109 9.55322356,7.49001633 L9.55322356,6.79381873 L9.28765662,6.79381873 C9.24458114,6.89314123 9.17480052,6.9784437 9.0872514,7.04088561 Z M5.15104964,7.04471478 C5.42118892,7.04471478 5.64018008,6.82807837 5.64018008,6.56084382 C5.64018008,6.29360926 5.42118892,6.07697285 5.15104964,6.07697285 C4.88091036,6.07697285 4.66191921,6.29360926 4.66191921,6.56084382 C4.66191921,6.82807837 4.88091036,7.04471478 5.15104964,7.04471478 Z M8.73800616,7.04471478 C9.00814544,7.04471478 9.2271366,6.82807837 9.2271366,6.56084382 C9.2271366,6.29360926 9.00814544,6.07697285 8.73800616,6.07697285 C8.46786688,6.07697285 8.24887573,6.29360926 8.24887573,6.56084382 C8.24887573,6.82807837 8.46786688,7.04471478 8.73800616,7.04471478 Z"/>
        </g>
      </g>
    </g>
  </g>
</svg>
