<svg xmlns="http://www.w3.org/2000/svg" xmlns:xlink="http://www.w3.org/1999/xlink" width="32" height="24" viewBox="0 0 32 24">
  <defs>
    <rect id="a" width="32" height="24"/>
    <rect id="c" width="32" height="24"/>
  </defs>
  <g fill="none" fill-rule="evenodd">
    <mask id="b" fill="white">
      <use xlink:href="#a"/>
    </mask>
    <g mask="url(#b)">
      <mask id="d" fill="white">
        <use xlink:href="#c"/>
      </mask>
      <g mask="url(#d)">
        <rect width="32" height="24" fill="#E11C1B" rx="2"/>
        <polygon fill="#1D1D1D" points="0 0 32 24 0 24"/>
        <g transform="translate(2 2)">
          <polygon fill="#EEEEF6" points="5.083 16.268 6.415 16.268 7.049 14.775 7.793 16.258 9.158 16.333 7.991 17.602 8.59 19.131 7.108 18.28 5.739 19.139 6.256 17.654"/>
          <polygon fill="#EEEEF6" points="1.083 12.268 2.415 12.268 3.049 10.775 3.793 12.258 5.158 12.333 3.991 13.602 4.59 15.131 3.108 14.28 1.739 15.139 2.256 13.654"/>
          <polygon fill="#EEEEF6" points="5.083 10.268 6.415 10.268 7.049 8.775 7.793 10.258 9.158 10.333 7.991 11.602 8.59 13.131 7.108 12.28 5.739 13.139 6.256 11.654"/>
          <polygon fill="#EEEEF6" points="7.711 14.564 8.627 14.534 8.957 13.59 9.328 14.529 10.171 14.61 9.412 15.146 10.024 16.096 8.962 15.699 8.042 16.109 8.528 15.172"/>
          <polygon fill="#EEEEF6" points="9.711 12.564 10.627 12.534 10.957 11.59 11.328 12.529 12.171 12.61 11.412 13.146 12.024 14.096 10.962 13.699 10.042 14.109 10.528 13.172"/>
          <path fill="#FBCD17" d="M19.0838982,0 C17.0247064,0.410797649 16.2840734,2.04741276 16.8619991,4.90984534 L16.4213473,4.90984534 C16.4453723,4.76047983 16.3161619,4.64200776 16.0337162,4.55442913 C15.6100476,4.42306118 15.6948807,4.4723773 15.4762531,4.55442913 C15.3305014,4.60913035 14.8142399,4.60913035 13.9274685,4.55442913 L13.9274685,4.71878787 L14.8687518,5.12530578 C14.8532874,5.35096957 14.9767263,5.52632524 15.2390683,5.65137279 C15.5014104,5.77642034 15.7278254,5.8690723 15.9183133,5.92932867 C15.9571399,6.17834676 15.8536391,6.3028558 15.6078108,6.3028558 C15.2390683,6.3028558 13.7559796,5.82211025 13.2285064,7.00323062 C12.8768576,7.79064419 12.4673555,8.47321876 12,9.05095433 L12.7909199,9.05095433 L12.5786713,9.31471056 L13.4692536,9.31471056 L13.2285064,9.45135024 C13.9630089,9.44318757 14.3588969,9.39764101 14.4161703,9.31471056 C14.4734437,9.23178012 14.4734437,9.34418687 14.4161703,9.65193082 C15.1276972,9.32701125 15.5029568,9.12668575 15.5419491,9.05095433 L16.0400952,9.39268106 L16.1820085,8.81440698 L16.7165235,9.05095433 L16.8619991,8.49997418 C17.8700553,10.1858487 18.7563573,10.9804052 19.5209049,10.8836435 L19.5209049,10.4639463 L20.567484,10.8836435 L20.7003671,10.6970075 C21.5432307,11.0406899 22.0943699,11.2284596 22.3537848,11.2603167 L22.0761717,10.6970075 L22.3537848,10.6970075 L22.0761717,9.65193082 L22.3537848,9.65193082 C21.983634,9.0935816 21.7985586,8.81440698 21.7985586,8.81440698 C21.9022803,8.66322755 21.9541412,8.58763784 21.9541412,8.58763784 C21.8854904,8.38895621 21.8511651,8.2896154 21.8511651,8.2896154 C23.2081638,8.72189674 23.8560659,9.28191818 23.7948711,9.96967971 C23.7336764,10.6574413 23.4008886,11.1400874 22.7965077,11.4176181 C22.2169803,11.5951562 21.6654821,11.6648223 21.1420131,11.6266165 C21.5575629,12.1174536 22.2049402,12.279715 23.0841451,12.1134006 C23.96335,11.9470863 24.5486489,11.4376847 24.8400419,10.585196 C25.243165,11.4225497 25.2787883,12.0613636 24.9469117,12.5016376 C24.6150352,12.9419115 23.7102589,13.3166007 22.2325828,13.6257051 C22.7672083,13.9391743 23.2879711,14.0557474 23.7948711,13.9754244 C24.5552213,13.8549401 25.7376659,13.1931687 25.9668977,12.1134006 C26.1961294,11.0336326 25.1760606,9.04117613 24.713952,8.81440698 L24.5314448,8.12313096 C24.8084228,8.23412058 24.9469117,8.2896154 24.9469117,8.2896154 C24.3786512,6.8999777 24.094521,6.20515886 24.094521,6.20515886 C24.370063,6.26552859 24.507834,6.29571346 24.507834,6.29571346 C23.7038523,5.29561647 23.3018614,4.79556797 23.3018614,4.79556797 C23.5232228,4.72737568 23.6339036,4.69327953 23.6339036,4.69327953 C22.5231749,3.89486848 21.9678106,3.49566295 21.9678106,3.49566295 L22.466371,3.36395489 C21.6453784,2.94788552 20.7666154,2.9917882 19.8300819,3.49566295 C19.8389187,3.3215827 19.843337,3.23454258 19.843337,3.23454258 C19.5972326,3.27614951 19.4741804,3.29695298 19.4741804,3.29695298 C19.488761,3.10547037 19.4960514,3.00972907 19.4960514,3.00972907 C19.7406646,2.63912123 19.8629713,2.45381731 19.8629713,2.45381731 C19.4957476,2.31233105 19.3121358,2.24158792 19.3121358,2.24158792 C19.6089966,1.79564544 19.7351417,1.57573521 19.6905711,1.58185721 C19.359744,1.67680492 19.2037195,1.70438227 19.2224977,1.66458926 C19.3894024,1.23480207 19.4509009,1.02566202 19.4069932,1.03716912 C19.023311,1.16765845 18.8598581,1.20025244 18.9166344,1.13495109 L19.1378302,0.741102313 L19.0838982,0 Z"/>
        </g>
      </g>
    </g>
  </g>
</svg>
