<svg xmlns="http://www.w3.org/2000/svg" xmlns:xlink="http://www.w3.org/1999/xlink" width="32" height="24" viewBox="0 0 32 24">
  <defs>
    <rect id="pk---pakistan-a" width="32" height="24" x="0" y="0"/>
  </defs>
  <g fill="none" fill-rule="evenodd">
    <mask id="pk---pakistan-b" fill="#fff">
      <use xlink:href="#pk---pakistan-a"/>
    </mask>
    <g mask="url(#pk---pakistan-b)">
      <polygon fill="#2F8D00" points="8 0 32 0 32 24 8 24"/>
      <polygon fill="#F7FCFF" points="0 0 8 0 8 24 0 24"/>
      <path fill="#F1F9FF" d="M6.34512993,9.88078356 C7.17223978,14.0665837 11.1533171,16.4010878 11.1533171,16.4010878 C9.63142663,16.9594996 4.16115956,16.0887535 3.24407101,10.3867402 C2.32698245,4.68472694 9.15021366,1.96788063 10.6478631,3.08503454 C10.6478631,3.08503454 5.51802007,5.69498346 6.34512993,9.88078356 Z M9.70581945,7.486404 L12.2027119,8.34332011 L13.6414977,6.71028321 L13.7097713,8.92629255 L15.9514644,9.75963285 L13.5903649,10.4763716 L13.9829399,13.1725592 L12.1441331,11.0678501 L9.66934243,11.5385697 L11.1597963,9.57053538 L9.70581945,7.486404 Z" transform="rotate(-45 15.47 2.242)"/>
    </g>
  </g>
</svg>
