<svg xmlns="http://www.w3.org/2000/svg" xmlns:xlink="http://www.w3.org/1999/xlink" width="32" height="24" viewBox="0 0 32 24">
  <defs>
    <rect id="a" width="32" height="24"/>
    <rect id="c" width="32" height="24"/>
  </defs>
  <g fill="none" fill-rule="evenodd">
    <mask id="b" fill="white">
      <use xlink:href="#a"/>
    </mask>
    <g mask="url(#b)">
      <mask id="d" fill="white">
        <use xlink:href="#c"/>
      </mask>
      <g mask="url(#d)">
        <polygon fill="#2F8D00" points="8 0 32 0 32 24 8 24"/>
        <polygon fill="#F7FCFF" points="0 0 8 0 8 24 0 24"/>
        <path fill="#F1F9FF" d="M7.34512993,9.88078356 C8.17223978,14.0665837 12.1533171,16.4010878 12.1533171,16.4010878 C10.6314266,16.9594996 5.16115956,16.0887535 4.24407101,10.3867402 C3.32698245,4.68472694 10.1502137,1.96788063 11.6478631,3.08503454 C11.6478631,3.08503454 6.51802007,5.69498346 7.34512993,9.88078356 Z M10.7058194,7.486404 L13.2027119,8.34332011 L14.6414977,6.71028321 L14.7097713,8.92629255 L16.9514644,9.75963285 L14.5903649,10.4763716 L14.9829399,13.1725592 L13.1441331,11.0678501 L10.6693424,11.5385697 L12.1597963,9.57053538 L10.7058194,7.486404 Z" transform="rotate(-45 15.97 3.45)"/>
      </g>
    </g>
  </g>
</svg>
