<svg xmlns="http://www.w3.org/2000/svg" xmlns:xlink="http://www.w3.org/1999/xlink" width="32" height="24" viewBox="0 0 32 24">
  <defs>
    <rect id="pn---pitcairn-islands-a" width="32" height="24" x="0" y="0"/>
    <rect id="pn---pitcairn-islands-c" width="32" height="24" x="0" y="0"/>
    <rect id="pn---pitcairn-islands-e" width="18" height="14" x="0" y="0"/>
    <path id="pn---pitcairn-islands-g" d="M0.144542286,0.15077852 L5.32920287,0.15077852 L5.32920287,3.31842534 C5.04742072,5.04395171 4.15390559,6.33175643 2.6486575,7.18183952 C1.19062916,6.32004137 0.355924087,5.03223664 0.144542286,3.31842534 L0.144542286,0.15077852 Z"/>
  </defs>
  <g fill="none" fill-rule="evenodd">
    <mask id="pn---pitcairn-islands-b" fill="#fff">
      <use xlink:href="#pn---pitcairn-islands-a"/>
    </mask>
    <g mask="url(#pn---pitcairn-islands-b)">
      <mask id="pn---pitcairn-islands-d" fill="#fff">
        <use xlink:href="#pn---pitcairn-islands-c"/>
      </mask>
      <use fill="#2E42A5" xlink:href="#pn---pitcairn-islands-c"/>
      <g mask="url(#pn---pitcairn-islands-d)">
        <mask id="pn---pitcairn-islands-f" fill="#fff">
          <use xlink:href="#pn---pitcairn-islands-e"/>
        </mask>
        <use fill="#2B409A" xlink:href="#pn---pitcairn-islands-e"/>
        <g mask="url(#pn---pitcairn-islands-f)">
          <g transform="translate(-3 -2)">
            <polygon fill="#F7FCFF" fill-rule="nonzero" points=".996 2.464 4.957 .727 21.09 13.575 23.179 16.156 18.944 16.737 12.363 11.2 7.067 7.47" transform="matrix(1 0 0 -1 0 17.464)"/>
            <polygon fill="#F50100" fill-rule="nonzero" points="1.538 2.075 3.556 1.067 22.429 17.225 19.596 17.225" transform="matrix(1 0 0 -1 0 18.292)"/>
            <g transform="matrix(-1 0 0 1 24 0)">
              <polygon fill="#F7FCFF" fill-rule="nonzero" points=".996 2.464 4.957 .727 21.09 13.575 23.179 16.156 18.944 16.737 12.363 11.2 7.067 7.47" transform="matrix(1 0 0 -1 0 17.464)"/>
              <polygon fill="#F50100" fill-rule="nonzero" points="1.131 2.324 3.149 1.316 11.185 8.234 13.568 9.007 23.38 16.881 20.547 16.881 10.74 9.194 8.135 8.267" transform="matrix(1 0 0 -1 0 18.198)"/>
            </g>
            <path fill="#F50100" stroke="#F7FCFF" stroke-width="1.5" d="M7.23451152,5.25 L7.23451152,-0.75 L10.7345115,-0.75 L10.7345115,5.25 L18.75,5.25 L18.75,8.75 L10.7345115,8.75 L10.7345115,14.75 L7.23451152,14.75 L7.23451152,8.75 L-0.75,8.75 L-0.75,5.25 L7.23451152,5.25 Z" transform="translate(3 2)"/>
          </g>
        </g>
      </g>
      <g mask="url(#pn---pitcairn-islands-d)">
        <g transform="translate(19 9)">
          <path fill="#5EAA22" d="M1.61607268 1.7568927C1.68190921 2.48668313 1.64266485 3.05834257 1.49833961 3.47187102 1.28185175 4.09216371 1.17184555 4.45223374 1.17184555 4.05573927 1.17184555 3.65924479 1.01981604 3.34502511.897541742 3.34502511.775267447 3.34502511.871785516 3.73822051.748901204 3.73822051.626016893 3.73822051.202665867 3.8058178.202665867 3.57542146.202665867 3.34502511.146951083 4.19349232.421661571 4.26937095.696372059 4.34524958.28827143 4.58069553.106080019 4.50777933.605705623 4.67017442.953482458 4.82056268 1.14941052 4.95894413 1.73674286 5.69219072 2.30509692 6.01408579 2.85447271 5.92462935 2.10641248 5.6664041 1.79828668 5.29060176 1.9300953 4.79722232 2.12780823 4.05715316 2.85447271 3.95010167 2.85447271 3.95010167 3.0818053 4.0261374 3.19206002 4.16373335 3.18523688 4.36288951 3.17500217 4.66162376 3.43459782 4.26937095 3.43459782 4.26937095 3.4624778 4.01774384 3.46105443 3.86122873 3.43032771 3.79982561 3.38423762 3.70772094 4.21135138 3.52943645 4.26354163 3.14075201 3.70011288 3.16651619 3.39905874 3.14611581 3.36037922 3.07955088 3.30235993 2.97970348 3.62194047 2.82316593 3.52196565 2.62852074 3.45531576 2.49875728 2.92469231 2.8686572 1.9300953 3.73822051 2.27355684 3.14636268 2.44528761 2.69151729 2.44528761 2.37368433 2.44528761 1.8969349 2.31440531 1.57113481 1.9300953 1.57113481 1.67388863 1.57113481 1.56921442 1.63305411 1.61607268 1.7568927zM10.0706895 1.89828146C10.0706895 1.89828146 10.0706895 1.89828146 10.0706895 1.89828146 10.2794957 2.07952839 10.2268762 2.25846372 9.91283098 2.43508745 10.0596415 2.57746369 10.2169804 2.64865181 10.3848477 2.64865181 10.552715 2.64865181 10.6572311 2.57746369 10.6983959 2.43508745 10.7112288 2.75193293 10.9913843 2.9703449 11.5388622 3.09032336 11.7342029 2.80985812 11.7342029 2.5928546 11.5388622 2.4393128 11.769629 2.39143104 11.8766303 2.27403892 11.8598661 2.08713645 11.6701738 2.15177131 11.5076836 2.10982598 11.3723957 1.96130045 11.1694637 1.73851217 10.7739701 1.63576967 10.4864492 1.68714092 10.3868161 1.65120853 10.292791 1.62616108 10.2043742 1.61199856L10.2043794 1.61196587C10.1147791 1.59761378 10.030509 1.65861455 10.0161569 1.7482149 10.0071732 1.80430042 10.0277947 1.86104809 10.0706895 1.89828146z"/>
          <path fill="#96877D" d="M4.40370972,4.41500137 C4.96984965,5.4799056 5.07599242,6.12268582 4.72213802,6.34334206 C4.19135641,6.67432641 7.2459093,6.43888046 7.53370124,6.34334206 C7.82149318,6.24780365 7.47561417,5.74416937 7.1564403,5.60435015 C6.83726643,5.46453092 5.52505448,4.99934091 5.17598984,4.64849481 C4.82692519,4.2976487 5.04009185,4.17315927 5.3212414,3.82682413 C5.60239094,3.480489 6.6432136,3.34199535 6.6432136,3.01828242 C6.6432136,2.69456949 7.30338635,1.35952296 7.76482948,1.25880031 C8.22627261,1.15807765 7.97697945,0.999452925 7.87090446,0.999452925 C7.76482948,0.999452925 7.12688842,1.65697798 6.88505101,1.53834608 C6.6432136,1.41971418 6.61366172,1.42806285 6.88505101,1.14131298 C7.1564403,0.854563111 7.36072784,0.524521351 7.00197072,0.761987138 C6.6432136,0.999452925 6.05170153,1.37527771 5.76736635,1.37527771 C5.48303116,1.37527771 4.47081147,1.24708524 4.59647474,1.53834608 C4.72213802,1.82960692 4.77541274,2.33517273 5.3212414,2.67672757 C5.86707006,3.01828242 5.62984166,3.2682242 5.17598984,3.59734687 C4.87342196,3.81676199 4.61599525,4.08931349 4.40370972,4.41500137 Z"/>
          <path fill="#FFD018" fill-rule="nonzero" d="M10.0386298 2.30265331L8.420461 5.54799663C8.38901129 6.15915515 8.75890685 6.26111215 9.53014768 5.85386764 10.6870089 5.24300087 10.6414611 4.80974532 10.9750042 4.80974532 11.3085473 4.80974532 11.4144868 4.62452605 11.4144868 4.62452605 11.2663659 4.50804864 11.1923054 4.44980994 11.1923054 4.44980994 11.1751798 4.23736772 11.2135204 4.10729006 11.3073273 4.05957696 11.1232832 3.95818102 11.018112 3.94980991 10.9918135 4.03446363 10.9523658 4.1614442 10.757703 3.76885474 10.8678447 3.76885474 10.7055805 4.03161341 10.6073228 4.21425178 10.5730715 4.31676985 10.338238 4.22129877 10.2264469 3.95239082 10.2376983 3.51004599 10.2489497 3.06770116 10.1825936 2.66523693 10.0386298 2.30265331zM2.33636588 1.78873884C2.33636588 1.78873884 1.51236998 1.98055626 1.60122896 2.18018372 1.69008794 2.37981118 1.82103802 2.17479748 1.41761418 2.41536035.945145575 2.78068197.657421415 2.94354836.554441696 2.90395951.399972117 2.84457623.663837878 3.04198187.663837878 2.41536035.663837878 1.78873884.252280493 2.29881562.663837878 1.88050688 1.07539526 1.46219813 1.21969791 1.78873884 1.41761418 1.54804131 1.61553044 1.30734378 1.43760914 1.43533427 1.9744909 1.43533427 2.51137266 1.43533427 2.33636588 1.78873884 2.33636588 1.78873884zM4.85064803 5.01408574C3.31259464 6.22275765 2.38986653 6.87220335 2.08246371 6.96242284 1.62135948 7.09775208 3.03083508 6.92519047 3.37515516 6.6858395 3.60470188 6.52627218 4.09653283 5.96902093 4.85064803 5.01408574z"/>
          <path fill="#5EAA22" d="M9.42454715,8.19459221 C9.57217099,9.14687916 9.45328568,9.57616237 9.06789119,9.48244182 C8.68249671,9.38872127 8.40981961,9.31762292 8.24985989,9.26914678 C8.39124802,9.71270351 8.5629336,9.93448188 8.76491664,9.93448188 C9.10905597,10.6051583 9.21492762,11.046381 9.08253158,11.25815 C9.67533146,10.7772038 9.92381126,10.3455416 9.82797099,9.9631636 C9.68421058,9.38959653 10.0578114,10.0575574 10.0578114,10.0575574 C10.2759712,10.1629033 10.4639013,10.156754 10.6216017,10.0391096 C10.8581523,9.86264292 10.6186194,9.94108002 10.3820688,9.6051134 C10.1455181,9.26914678 10.2039131,8.32561246 9.48441488,7.83660934 C9.00474939,7.51060726 8.70908889,7.35281291 8.59743339,7.36322631 C8.24416641,6.785642 8.17335938,6.51594856 8.3850123,6.55414597 C9.90178291,7.07409752 10.6798695,7.40070555 10.719272,7.53397006 C10.7783757,7.73386684 11.3817492,7.69724042 11.0800625,7.12569319 C10.7783757,6.55414597 9.15207339,6.20969602 8.95849501,6.04851283 C8.76491664,5.88732965 8.94500688,5.27599159 8.59743339,5.14281684 C8.24985989,5.00964209 7.30026849,4.06462656 7.30087851,3.6092201 C7.30148852,3.15381364 6.85455022,2.93944135 6.46603788,2.93944135 C6.07752554,2.93944135 5.34598093,2.82720561 5.03690621,2.82720561 C4.7278315,2.82720561 4.43976844,3.34421717 4.73833733,3.34421717 C5.03690621,3.34421717 4.78185179,4.31219155 4.28190988,4.52373606 C3.78196797,4.73528057 3.39548902,5.03933373 2.82458193,5.03933373 C2.25367484,5.03933373 3.63271742,5.5315686 3.85252648,5.33719272 C4.07233554,5.14281684 4.0002181,4.85317187 4.73833733,4.52373606 C5.47645655,4.19430025 6.18095712,3.99925109 6.09175924,4.26149358 C6.00256136,4.52373606 6.2301129,4.96237785 6.57787412,4.80361847 C6.92563534,4.6448591 7.03714831,4.24385365 7.03714831,4.52373606 C7.03714831,4.80361847 7.57030219,6.24113818 7.97765725,6.80218225 C8.24922728,7.17621162 8.73152392,7.64034827 9.42454715,8.19459221 Z"/>
          <path fill="#FFD018" fill-rule="nonzero" d="M4.57112519 2.94550087C4.39078642 3.23281637 4.39078642 3.37647412 4.57112519 3.37647412 4.84163335 3.37647412 5.27667372 3.37647412 5.01162444 3.1609875 4.83492493 3.01732975 4.68809185 2.94550087 4.57112519 2.94550087zM5.4749654 2.93514474C5.47582394 3.12617048 5.53874595 3.22168335 5.66373143 3.22168335 5.85120964 3.22168335 6.0180151 3.50822197 6.0180151 3.22168335 6.0180151 2.93514474 6.27855966 3.03016928 5.87676253 2.93514474 5.60889778 2.87179505 5.4749654 2.87179505 5.4749654 2.93514474zM6.62958991 3.00077714C6.50912307 3.09149038 6.47900636 3.21775278 6.53923978 3.37956436 6.62958991 3.62228173 6.83401302 4.10259954 6.53923978 4.10259954 6.24446655 4.10259954 6.00193532 4.27576711 6.23219845 4.27576711 6.46246159 4.27576711 6.87210512 4.44893467 6.87210512 4.27576711 6.87210512 4.10259954 7.03877502 4.56130507 7.03877502 4.27576711 7.03877502 3.99022914 7.03877502 3.85378856 7.03877502 3.68632726 7.03877502 3.51886595 7.20544491 3.47072645 7.03877502 3.23575179 6.92766175 3.07910203 6.79126672 3.00077714 6.62958991 3.00077714zM7.04717968 4.67172296C7.29828029 5.4620188 7.49210719 5.90811155 7.62866038 6.01000123 7.83349016 6.16283574 7.92539922 7.45021406 8.01527489 7.59018893 8.10515057 7.7301638 9.32992691 8.4366363 9.32992691 8.81576016 9.32992691 9.19488401 9.70705228 8.52443198 9.5184896 8.14901117 9.32992691 7.77359035 8.73624318 6.97428201 8.30923341 6.79996515 7.88222365 6.62564828 7.9363795 6.20356917 7.84663939 5.90692209 7.75689927 5.61027501 8.37789545 6.1466097 7.84663939 5.47373386 7.31538333 4.80085803 7.32948148 5.16193799 7.47907093 5.16193799 7.62866038 5.16193799 7.77824983 5.08242364 7.62866038 4.97786329 7.52893408 4.90815639 7.33510718 4.80610961 7.04717968 4.67172296zM3.05408346 7.11640193C2.23846963 8.55681674 1.75789007 9.31423408 1.6123448 9.38865394 1.39402689 9.50028373 1.23128821 9.52297326 1.11972308 9.38865394 1.00815796 9.25433462.996703214 9.74912795 1.11972308 9.88459185 1.24274295 10.0200557 1.6123448 10.0200557 1.8174457 9.77949287 1.83908997 10.1847175 1.95641636 10.5400746 2.16942487 10.8455641 2.48893763 11.3037983 2.62205665 11.1772891 2.62205665 11.4364345 2.62205665 11.6955799 2.69756307 12.0386833 2.79509783 12.0386833 2.89263259 12.0386833 2.968139 12.8543617 2.79509783 12.8543617 2.62205665 12.8543617 3.1960816 12.9212857 3.44632368 12.717282 3.69656575 12.5132782 3.80352187 12.3578852 3.75004381 12.3578852 3.69656575 12.3578852 3.05408346 12.0196968 3.05408346 11.7804131 3.05408346 11.5411295 2.62205665 11.3537557 2.62205665 10.9985333 2.62205665 10.6433109 2.39759756 10.2209624 2.39759756 10.0527771 2.39759756 9.88459185 2.58952247 10.1176821 2.79509783 9.95841738 2.93214806 9.85224088 3.01847661 9.66231974 3.05408346 9.38865394 2.83822821 9.53345398 2.69421927 9.569654 2.62205665 9.49725397 2.51381272 9.38865394 2.17313847 9.17428165 2.39759756 8.80646889 2.54723696 8.56126039 2.76606559 7.99790474 3.05408346 7.11640193z"/>
          <path fill="#5EAA22" d="M5.17422757,0.302204359 C4.88216552,0.432102476 4.7848115,0.593554973 4.88216552,0.786561851 C5.02819654,1.07607217 5.0806918,1.20426464 5.17422757,1.1401684 C5.26776334,1.07607217 5.92407265,0.954881802 5.77705882,0.628543081 C5.63004499,0.302204359 5.32204357,0.302204359 5.32204357,0.302204359 C5.32204357,0.302204359 5.27277157,0.302204359 5.17422757,0.302204359 Z"/>
          <path fill="#FFD018" fill-rule="nonzero" d="M6.6939127,0.145662748 C6.30817932,-0.0250307159 6.17960153,-0.0250307159 6.30817932,0.145662748 C6.50104601,0.401702945 6.74779744,0.536681743 6.92531206,0.536681743 C7.10282668,0.536681743 7.47168296,0.483759 7.28725482,0.380460598 C7.16430273,0.311594997 6.96652202,0.233329047 6.6939127,0.145662748 Z"/>
          <path fill="#5EAA22" d="M0.626084673,7.61637951 C0.626084673,7.61637951 0.626084673,7.61637951 0.626084673,7.61637951 C0.748065257,7.88138244 0.870045841,8.05989136 0.992026425,8.15190627 C1.0663128,8.55762468 1.18022762,8.81569283 1.33377088,8.92611072 C1.54000144,8.91556267 1.64822277,8.75238208 1.65843489,8.43656897 C2.00867438,8.33382647 2.2352614,8.39179586 2.33819593,8.61047714 C2.27028083,8.6350743 2.23632328,8.74028549 2.23632328,8.92611072 C2.23632328,9.11193594 2.31555756,9.30550389 2.47402613,9.50681455 C2.54659543,8.86589706 2.74593507,8.33883119 3.07204504,7.92561693 C3.39815502,7.51240267 3.60786492,7.26501723 3.70117476,7.1834606 L3.70117476,6.48601005 C3.026452,7.03581034 2.61740246,7.53927775 2.47402613,7.9964123 C2.13422469,8.00774584 1.8953018,7.98414738 1.75725747,7.92561693 C1.55019096,7.83782124 2.0159042,7.69380669 1.75725747,7.3817415 C1.49861073,7.06967631 1.61715715,7.8211239 1.33377088,7.61637951 C1.19065067,7.57657941 1.0868977,7.50521536 1.02251199,7.40228737 L1.02258371,7.40224251 C0.956456276,7.29653018 0.817152625,7.26444028 0.711440296,7.33056772 C0.615145042,7.39080438 0.578591992,7.51320162 0.626084673,7.61637951 Z"/>
          <g transform="translate(3.042 6.044)">
            <mask id="pn---pitcairn-islands-h" fill="#fff">
              <use xlink:href="#pn---pitcairn-islands-g"/>
            </mask>
            <use fill="#5EAA22" xlink:href="#pn---pitcairn-islands-g"/>
            <g mask="url(#pn---pitcairn-islands-h)">
              <g transform="translate(.338 -.168)">
                <polygon fill="#58A5FF" points="2.271 .148 .006 4.848 3.078 2.059 5.192 5.563 5.192 .148 3.078 1.881"/>
                <path fill="#FFD018" fill-rule="nonzero" d="M2.36898752,3.36855678 C2.46233142,3.36855678 2.5380016,3.44422696 2.5380016,3.53757086 L2.5380016,6.55590985 C2.5380016,6.64925375 2.46233142,6.72492393 2.36898752,6.72492393 C2.27564362,6.72492393 2.19997344,6.64925375 2.19997344,6.55590985 L2.19997344,3.53757086 C2.19997344,3.44422696 2.27564362,3.36855678 2.36898752,3.36855678 Z"/>
                <path fill="#FFD018" fill-rule="nonzero" d="M1.44616904,4.11574141 C1.44616904,4.02403512 1.52051168,3.94969249 1.61221797,3.94969249 L3.13944854,3.94969249 C3.23115483,3.94969249 3.30549747,4.02403512 3.30549747,4.11574141 C3.30549747,4.2074477 3.23115483,4.28179034 3.13944854,4.28179034 L1.61221797,4.28179034 C1.52051168,4.28179034 1.44616904,4.2074477 1.44616904,4.11574141 Z"/>
                <g transform="translate(1.014 5.205)">
                  <path fill="#FFD018" fill-rule="nonzero" d="M1.42160814,1.40807093 L1.29077351,1.51435372 C1.09796499,1.28015751 0.922154668,1.16751372 0.766779918,1.16751372 C0.537976878,1.16751372 0.351927041,0.97665244 0.200208553,0.614642707 L0.356241391,0.550117684 C0.484587974,0.856360599 0.624241436,0.999625644 0.766779918,0.999625644 C0.982746691,0.999625644 1.19987697,1.13874362 1.42160814,1.40807093 Z"/>
                  <path fill="#FFD018" d="M0.0463511555,0.039705343 L0.0463511555,0.855732974 C0.0463511555,0.856629076 0.0470775893,0.85735551 0.0479736907,0.85735551 C0.0481855859,0.85735551 0.0483954293,0.857314005 0.0485913696,0.857233339 L0.6623454,0.604559481 C0.663174028,0.604218347 0.66356922,0.603270066 0.663228085,0.602441438 C0.663137615,0.602221683 0.662999976,0.602024483 0.662824897,0.601863782 L0.0490708669,0.0385100084 C0.0484107018,0.0379040547 0.0473843097,0.0379480017 0.0467783561,0.0386081669 C0.0465036018,0.0389075019 0.0463511555,0.0392990287 0.0463511555,0.039705343 Z"/>
                </g>
                <g transform="matrix(-1 0 0 1 3.718 5.205)">
                  <path fill="#FFD018" fill-rule="nonzero" d="M1.42160814,1.40807093 L1.29077351,1.51435372 C1.09796499,1.28015751 0.922154668,1.16751372 0.766779918,1.16751372 C0.537976878,1.16751372 0.351927041,0.97665244 0.200208553,0.614642707 L0.356241391,0.550117684 C0.484587974,0.856360599 0.624241436,0.999625644 0.766779918,0.999625644 C0.982746691,0.999625644 1.19987697,1.13874362 1.42160814,1.40807093 Z"/>
                  <path fill="#FFD018" d="M0.0463511555,0.039705343 L0.0463511555,0.855732974 C0.0463511555,0.856629076 0.0470775893,0.85735551 0.0479736907,0.85735551 C0.0481855859,0.85735551 0.0483954293,0.857314005 0.0485913696,0.857233339 L0.6623454,0.604559481 C0.663174028,0.604218347 0.66356922,0.603270066 0.663228085,0.602441438 C0.663137615,0.602221683 0.662999976,0.602024483 0.662824897,0.601863782 L0.0490708669,0.0385100084 C0.0484107018,0.0379040547 0.0473843097,0.0379480017 0.0467783561,0.0386081669 C0.0465036018,0.0389075019 0.0463511555,0.0392990287 0.0463511555,0.039705343 Z"/>
                </g>
                <rect width="1" height="1.007" x="2.028" y="2.183" fill="#FFF"/>
              </g>
            </g>
          </g>
        </g>
      </g>
    </g>
  </g>
</svg>
