<svg width="32" height="24" fill="none" xmlns="http://www.w3.org/2000/svg">
  <mask id="a" maskUnits="userSpaceOnUse" x="0" y="0" width="32" height="24">
    <path fill="#fff" d="M0 0h32v24H0z"/>
  </mask>
  <g mask="url(#a)">
    <path fill-rule="evenodd" clip-rule="evenodd" d="M0 0v24h32V0H0z" fill="#F7FCFF"/>
    <mask id="b" maskUnits="userSpaceOnUse" x="0" y="0" width="32" height="24">
      <path fill-rule="evenodd" clip-rule="evenodd" d="M0 0v24h32V0H0z" fill="#fff"/>
    </mask>
    <g mask="url(#b)">
      <path d="M19.825 12a3.825 3.825 0 11-7.65 0 3.825 3.825 0 017.65 0z" stroke="#272727" stroke-width=".35"/>
      <path fill-rule="evenodd" clip-rule="evenodd" d="M13 12a3 3 0 106 0 3 3 0 00-6 0zm5.65 0a2.65 2.65 0 11-5.3 0 2.65 2.65 0 015.3 0z" fill="#272727"/>
      <path fill-rule="evenodd" clip-rule="evenodd" d="M0 0v8h32V0H0z" fill="#F05234"/>
      <path fill-rule="evenodd" clip-rule="evenodd" d="M0 16v8h32v-8H0z" fill="#3D58DB"/>
      <path d="M14.617 10.002l.284.411c-.66.457-.958.993-.714 1.904.241.9.808 1.348 1.75 1.381l-.017.5c-1.162-.04-1.947-.517-2.245-1.631-.296-1.106.1-1.982.942-2.565z" fill="#73BE4A"/>
      <path fill-rule="evenodd" clip-rule="evenodd" d="M16 12.315l-.882.599.297-1.024-.842-.654 1.066-.034L16 10.2l.361 1.003 1.066.034-.842.653.297 1.024-.882-.599z" fill="#FBCD17"/>
      <path d="M17.168 10.176s1.126.78.72 2.291c-.404 1.512-1.983 1.567-1.983 1.567" stroke="#73BE4A" stroke-width=".5"/>
      <path d="M14.564 9.044l.467.718-.467-.718z" fill="#F7FCFF"/>
    </g>
  </g>
</svg>
