<svg xmlns="http://www.w3.org/2000/svg" xmlns:xlink="http://www.w3.org/1999/xlink" width="32" height="24" viewBox="0 0 32 24">
  <defs>
    <rect id="a" width="32" height="24"/>
    <rect id="c" width="32" height="24"/>
    <rect id="e" width="32" height="24"/>
  </defs>
  <g fill="none" fill-rule="evenodd">
    <mask id="b" fill="white">
      <use xlink:href="#a"/>
    </mask>
    <g mask="url(#b)">
      <mask id="d" fill="white">
        <use xlink:href="#c"/>
      </mask>
      <g mask="url(#d)">
        <mask id="f" fill="white">
          <use xlink:href="#e"/>
        </mask>
        <use fill="#4857A1" xlink:href="#e"/>
        <rect width="32" height="8" fill="#C51918" mask="url(#f)"/>
        <rect width="32" height="8" y="16" fill="#F7FCFF" mask="url(#f)"/>
        <g mask="url(#f)">
          <g transform="translate(6 2)">
            <g transform="translate(.58)">
              <path fill="#F6C540" fill-rule="nonzero" d="M4.80097279,4.27517586 C4.80153555,4.24765577 4.80431572,4.21878394 4.80952151,4.18926043 C4.83731955,4.03160991 4.92375482,3.91507629 5.00258008,3.92897531 C5.08140534,3.94287433 5.12277107,4.08194271 5.09497303,4.23959323 C5.09081453,4.26317726 5.08534378,4.28584112 5.07878256,4.3072858 C5.358432,4.34372607 5.68875961,4.3976614 6.0697654,4.4690918 C6.52103316,3.5976308 7.32134558,2.76437008 6.89256915,2.33358793 C6.83380476,2.27454865 6.72746546,2.21962891 6.59029764,2.16876602 C6.13696941,2.05596899 5.64340314,1.96896482 5.16375118,1.92545635 L5.14927114,1.84663922 C5.05356724,1.83109014 4.96170378,1.8166127 4.87610295,1.80319783 L4.76294808,1.34973383 C4.85941339,1.37935875 4.96417877,1.40976108 5.07475276,1.44102384 L5.0736875,1.43522544 C6.39373516,1.55496488 8.43426941,2.23825725 8.81411621,2.96399495 C8.98287148,3.28641982 8.76476657,3.55417032 8.53563097,3.94284328 C8.09237054,4.69472708 7.83984216,5.29400714 7.39040093,5.56527733 L7.39742467,6.76626475 L1.5018895,6.71557005 L1.4942482,5.50245905 C1.10098693,5.20796044 0.853820663,4.64123263 0.442096989,3.94284328 C0.212961391,3.55417032 -0.00514351844,3.28641982 0.163611746,2.96399495 C0.449200786,2.41834673 1.74307224,1.88767485 2.92866016,1.60701464 C3.16193862,1.52405947 3.40573808,1.44654405 3.6474437,1.37231517 L3.75533677,1.45040368 C3.84907279,1.43760773 3.93988893,1.42717803 4.02702941,1.41927366 L4.16285714,1.72216721 L4.64288675,1.72216721 C4.83612346,2.29586408 4.93274182,2.7420154 4.93274182,3.06062117 C4.93274182,3.37922693 4.83612346,3.6702651 4.64288675,3.93373568 L4.64288675,4.26150286 C4.69297412,4.2651602 4.74566947,4.26971787 4.80097279,4.27517586 Z M3.93866901,4.28081736 C3.99642106,4.27375631 4.05147535,4.267923 4.10383185,4.26331744 L4.10383185,3.89845832 C3.93652879,3.71146932 3.83991043,3.42325967 3.81397678,3.03382935 C3.79087266,2.68688846 3.82669441,2.30201675 3.92144203,1.87921424 C3.54763783,1.92670206 3.15367084,2.00034158 2.77217783,2.09073821 C2.51857037,2.16214453 2.31646526,2.24301897 2.22631798,2.33358793 C1.80198988,2.75990095 2.58138065,3.58038485 3.03496583,4.44198173 C3.26681818,4.39138201 3.47665088,4.35080333 3.66446394,4.32024569 C3.65683335,4.29125804 3.65132591,4.25991917 3.64845094,4.2270581 C3.63449883,4.06758473 3.68782776,3.9326508 3.76756445,3.92567475 C3.84730114,3.91869869 3.92325091,4.04232219 3.93720303,4.20179556 C3.93958512,4.22902306 3.94000598,4.25553522 3.93866901,4.28081736 Z M6.8678478,4.62863653 C6.8668882,4.58407302 6.87287255,4.53416163 6.88661422,4.48287705 C6.92804663,4.3282492 7.02430955,4.21969235 7.10162348,4.24040856 C7.17893741,4.26112476 7.20802513,4.40326921 7.16659272,4.55789706 C7.15423666,4.60401048 7.13700419,4.64602651 7.11685213,4.6817384 C7.20461913,4.70068552 7.29419413,4.72025679 7.3855771,4.74045221 L7.38658221,4.9123156 C7.97068399,4.46212848 8.38394388,3.46463703 8.42119887,3.13786944 C8.44365867,2.94087205 8.1312535,2.71374626 7.64143877,2.50796546 C7.96002441,3.11219259 7.25436344,3.7100808 6.72659562,4.59913302 C6.77310143,4.6087679 6.82018549,4.6186024 6.8678478,4.62863653 Z M2.27566907,4.6232503 C2.31402714,4.61343217 2.35195918,4.60380792 2.38946519,4.59437755 C1.85331724,3.69334009 1.1362281,3.09152297 1.49400689,2.47814126 C0.920504695,2.7002103 0.53412804,2.94138741 0.556529087,3.13786944 C0.591728401,3.44660645 0.962582561,4.35409022 1.4960509,4.83299902 C1.68125026,4.78104909 1.85881603,4.73257317 2.02874819,4.68757127 C2.00718033,4.65330747 1.98814907,4.61282815 1.97362811,4.56813725 C1.92415989,4.41588971 1.94576848,4.27241773 2.02189225,4.24768362 C2.09801602,4.22294951 2.19982845,4.32631957 2.24929667,4.47856711 C2.2657165,4.52910213 2.27430541,4.57867031 2.27566907,4.6232503 Z"/>
              <g transform="translate(0 .87)">
                <path fill="#2E42A5" d="M1.66666667,5.50724638 C1.54660476,5.50724638 1.44927536,5.40991697 1.44927536,5.28985507 C1.44927536,5.16979317 1.54660476,5.07246377 1.66666667,5.07246377 C1.78672857,5.07246377 1.88405797,5.16979317 1.88405797,5.28985507 C1.88405797,5.40991697 1.78672857,5.50724638 1.66666667,5.50724638 Z M7.46376812,5.50724638 C7.34370621,5.50724638 7.24637681,5.40991697 7.24637681,5.28985507 C7.24637681,5.16979317 7.34370621,5.07246377 7.46376812,5.07246377 C7.58383002,5.07246377 7.68115942,5.16979317 7.68115942,5.28985507 C7.68115942,5.40991697 7.58383002,5.50724638 7.46376812,5.50724638 Z M4.42028986,5.36231884 C4.14014542,5.36231884 3.91304348,5.2325463 3.91304348,5.07246377 C3.91304348,4.91238123 4.14014542,4.7826087 4.42028986,4.7826087 C4.70043429,4.7826087 4.92753623,4.91238123 4.92753623,5.07246377 C4.92753623,5.2325463 4.70043429,5.36231884 4.42028986,5.36231884 Z M4.42028986,1.27281414 C4.06010415,1.27281414 3.76811594,0.987884991 3.76811594,0.636407071 C3.76811594,0.284929151 4.06010415,0 4.42028986,0 C4.78047556,0 5.07246377,0.284929151 5.07246377,0.636407071 C5.07246377,0.987884991 4.78047556,1.27281414 4.42028986,1.27281414 Z"/>
                <path fill="#C5363C" d="M6.01449275,5.36231884 C5.81438958,5.36231884 5.65217391,5.26498944 5.65217391,5.14492754 C5.65217391,5.02486563 5.81438958,4.92753623 6.01449275,4.92753623 C6.21459592,4.92753623 6.37681159,5.02486563 6.37681159,5.14492754 C6.37681159,5.26498944 6.21459592,5.36231884 6.01449275,5.36231884 Z M2.97101449,5.36231884 C2.77091132,5.36231884 2.60869565,5.26498944 2.60869565,5.14492754 C2.60869565,5.02486563 2.77091132,4.92753623 2.97101449,4.92753623 C3.17111766,4.92753623 3.33333333,5.02486563 3.33333333,5.14492754 C3.33333333,5.26498944 3.17111766,5.36231884 2.97101449,5.36231884 Z"/>
                <path fill="#F7FCFF" d="M3.42290348,3.60900189 C3.34677971,3.633736 3.24496728,3.53036594 3.19549906,3.3781184 C3.14603083,3.22587087 3.16763942,3.08239889 3.24376319,3.05766478 C3.31988696,3.03293067 3.42169939,3.13630072 3.47116761,3.28854826 C3.52063584,3.4407958 3.49902725,3.58426778 3.42290348,3.60900189 Z M5.50724638,3.62318841 C5.42720511,3.62318841 5.36231884,3.49341587 5.36231884,3.33333333 C5.36231884,3.1732508 5.42720511,3.04347826 5.50724638,3.04347826 C5.58728764,3.04347826 5.65217391,3.1732508 5.65217391,3.33333333 C5.65217391,3.49341587 5.58728764,3.62318841 5.50724638,3.62318841 Z M1.76624993,4.07438305 C1.69012616,4.09911716 1.58831373,3.99574711 1.53884551,3.84349957 C1.48937728,3.69125203 1.51098587,3.54778005 1.58710964,3.52304594 C1.66323341,3.49831183 1.76504584,3.60168189 1.81451406,3.75392943 C1.86398229,3.90617696 1.8423737,4.04964894 1.76624993,4.07438305 Z M7.2243548,4.04668285 C7.15647595,4.00426744 7.17021824,3.8598296 7.25504906,3.72407191 C7.33987988,3.58831422 7.46367552,3.51264535 7.53155437,3.55506076 C7.59943322,3.59747617 7.58569092,3.74191401 7.5008601,3.8776717 C7.41602928,4.01342939 7.29223364,4.08909826 7.2243548,4.04668285 Z"/>
                <path fill="#FFFFFF" fill-rule="nonzero" d="M0.579710145,3.23333333 C0.604522938,3.23333333 0.624637681,3.21321859 0.624637681,3.1884058 C0.624637681,3.163593 0.604522938,3.14347826 0.579710145,3.14347826 C0.554897352,3.14347826 0.534782609,3.163593 0.534782609,3.1884058 C0.534782609,3.21321859 0.554897352,3.23333333 0.579710145,3.23333333 Z M0.579710145,3.43333333 C0.444440402,3.43333333 0.334782609,3.32367554 0.334782609,3.1884058 C0.334782609,3.05313605 0.444440402,2.94347826 0.579710145,2.94347826 C0.714979888,2.94347826 0.824637681,3.05313605 0.824637681,3.1884058 C0.824637681,3.32367554 0.714979888,3.43333333 0.579710145,3.43333333 Z M0.434782609,2.79855072 C0.459595402,2.79855072 0.479710145,2.77843598 0.479710145,2.75362319 C0.479710145,2.7288104 0.459595402,2.70869565 0.434782609,2.70869565 C0.409969816,2.70869565 0.389855072,2.7288104 0.389855072,2.75362319 C0.389855072,2.77843598 0.409969816,2.79855072 0.434782609,2.79855072 Z M0.434782609,2.99855072 C0.299512866,2.99855072 0.189855072,2.88889293 0.189855072,2.75362319 C0.189855072,2.61835345 0.299512866,2.50869565 0.434782609,2.50869565 C0.570052352,2.50869565 0.679710145,2.61835345 0.679710145,2.75362319 C0.679710145,2.88889293 0.570052352,2.99855072 0.434782609,2.99855072 Z M0.289855072,2.50869565 C0.314667866,2.50869565 0.334782609,2.48858091 0.334782609,2.46376812 C0.334782609,2.43895532 0.314667866,2.41884058 0.289855072,2.41884058 C0.265042279,2.41884058 0.244927536,2.43895532 0.244927536,2.46376812 C0.244927536,2.48858091 0.265042279,2.50869565 0.289855072,2.50869565 Z M0.289855072,2.70869565 C0.154585329,2.70869565 0.0449275362,2.59903786 0.0449275362,2.46376812 C0.0449275362,2.32849837 0.154585329,2.21884058 0.289855072,2.21884058 C0.425124816,2.21884058 0.534782609,2.32849837 0.534782609,2.46376812 C0.534782609,2.59903786 0.425124816,2.70869565 0.289855072,2.70869565 Z M0.144927536,2.21884058 C0.169740329,2.21884058 0.189855072,2.19872584 0.189855072,2.17391304 C0.189855072,2.14910025 0.169740329,2.12898551 0.144927536,2.12898551 C0.120114743,2.12898551 0.1,2.14910025 0.1,2.17391304 C0.1,2.19872584 0.120114743,2.21884058 0.144927536,2.21884058 Z M0.144927536,2.41884058 C0.00965779316,2.41884058 -0.1,2.30918279 -0.1,2.17391304 C-0.1,2.0386433 0.00965779316,1.92898551 0.144927536,1.92898551 C0.280197279,1.92898551 0.389855072,2.0386433 0.389855072,2.17391304 C0.389855072,2.30918279 0.280197279,2.41884058 0.144927536,2.41884058 Z M0.434782609,1.92898551 C0.459595402,1.92898551 0.479710145,1.90887076 0.479710145,1.88405797 C0.479710145,1.85924518 0.459595402,1.83913043 0.434782609,1.83913043 C0.409969816,1.83913043 0.389855072,1.85924518 0.389855072,1.88405797 C0.389855072,1.90887076 0.409969816,1.92898551 0.434782609,1.92898551 Z M0.434782609,2.12898551 C0.299512866,2.12898551 0.189855072,2.01932771 0.189855072,1.88405797 C0.189855072,1.74878823 0.299512866,1.63913043 0.434782609,1.63913043 C0.570052352,1.63913043 0.679710145,1.74878823 0.679710145,1.88405797 C0.679710145,2.01932771 0.570052352,2.12898551 0.434782609,2.12898551 Z M0.724637681,1.69203942 C0.749450474,1.69203942 0.769565217,1.67192468 0.769565217,1.64711188 C0.769565217,1.62229909 0.749450474,1.60218435 0.724637681,1.60218435 C0.699824888,1.60218435 0.679710145,1.62229909 0.679710145,1.64711188 C0.679710145,1.67192468 0.699824888,1.69203942 0.724637681,1.69203942 Z M0.724637681,1.89203942 C0.589367938,1.89203942 0.479710145,1.78238163 0.479710145,1.64711188 C0.479710145,1.51184214 0.589367938,1.40218435 0.724637681,1.40218435 C0.859907424,1.40218435 0.969565217,1.51184214 0.969565217,1.64711188 C0.969565217,1.78238163 0.859907424,1.89203942 0.724637681,1.89203942 Z M1.01449275,1.4942029 C1.03930555,1.4942029 1.05942029,1.47408816 1.05942029,1.44927536 C1.05942029,1.42446257 1.03930555,1.40434783 1.01449275,1.40434783 C0.989679961,1.40434783 0.969565217,1.42446257 0.969565217,1.44927536 C0.969565217,1.47408816 0.989679961,1.4942029 1.01449275,1.4942029 Z M1.01449275,1.6942029 C0.879223011,1.6942029 0.769565217,1.58454511 0.769565217,1.44927536 C0.769565217,1.31400562 0.879223011,1.20434783 1.01449275,1.20434783 C1.1497625,1.20434783 1.25942029,1.31400562 1.25942029,1.44927536 C1.25942029,1.58454511 1.1497625,1.6942029 1.01449275,1.6942029 Z M1.35674632,1.35161116 C1.38155911,1.35161116 1.40167385,1.33149642 1.40167385,1.30668363 C1.40167385,1.28187083 1.38155911,1.26175609 1.35674632,1.26175609 C1.33193352,1.26175609 1.31181878,1.28187083 1.31181878,1.30668363 C1.31181878,1.33149642 1.33193352,1.35161116 1.35674632,1.35161116 Z M1.35674632,1.55161116 C1.22147657,1.55161116 1.11181878,1.44195337 1.11181878,1.30668363 C1.11181878,1.17141388 1.22147657,1.06175609 1.35674632,1.06175609 C1.49201606,1.06175609 1.60167385,1.17141388 1.60167385,1.30668363 C1.60167385,1.44195337 1.49201606,1.55161116 1.35674632,1.55161116 Z M1.73913043,1.20434783 C1.76394323,1.20434783 1.78405797,1.18423308 1.78405797,1.15942029 C1.78405797,1.1346075 1.76394323,1.11449275 1.73913043,1.11449275 C1.71431764,1.11449275 1.6942029,1.1346075 1.6942029,1.15942029 C1.6942029,1.18423308 1.71431764,1.20434783 1.73913043,1.20434783 Z M1.73913043,1.40434783 C1.60386069,1.40434783 1.4942029,1.29469003 1.4942029,1.15942029 C1.4942029,1.02415055 1.60386069,0.914492754 1.73913043,0.914492754 C1.87440018,0.914492754 1.98405797,1.02415055 1.98405797,1.15942029 C1.98405797,1.29469003 1.87440018,1.40434783 1.73913043,1.40434783 Z M2.17391304,1.09037036 C2.19872584,1.09037036 2.21884058,1.07025562 2.21884058,1.04544283 C2.21884058,1.02063003 2.19872584,1.00051529 2.17391304,1.00051529 C2.14910025,1.00051529 2.12898551,1.02063003 2.12898551,1.04544283 C2.12898551,1.07025562 2.14910025,1.09037036 2.17391304,1.09037036 Z M2.17391304,1.29037036 C2.0386433,1.29037036 1.92898551,1.18071257 1.92898551,1.04544283 C1.92898551,0.910173082 2.0386433,0.800515289 2.17391304,0.800515289 C2.30918279,0.800515289 2.41884058,0.910173082 2.41884058,1.04544283 C2.41884058,1.18071257 2.30918279,1.29037036 2.17391304,1.29037036 Z M2.60869565,0.914492754 C2.63350845,0.914492754 2.65362319,0.89437801 2.65362319,0.869565217 C2.65362319,0.844752424 2.63350845,0.824637681 2.60869565,0.824637681 C2.58388286,0.824637681 2.56376812,0.844752424 2.56376812,0.869565217 C2.56376812,0.89437801 2.58388286,0.914492754 2.60869565,0.914492754 Z M2.60869565,1.11449275 C2.47342591,1.11449275 2.36376812,1.00483496 2.36376812,0.869565217 C2.36376812,0.734295474 2.47342591,0.624637681 2.60869565,0.624637681 C2.7439654,0.624637681 2.85362319,0.734295474 2.85362319,0.869565217 C2.85362319,1.00483496 2.7439654,1.11449275 2.60869565,1.11449275 Z M2.97016112,0.858254036 C2.99497391,0.858254036 3.01508865,0.838139293 3.01508865,0.8133265 C3.01508865,0.788513707 2.99497391,0.768398963 2.97016112,0.768398963 C2.94534832,0.768398963 2.92523358,0.788513707 2.92523358,0.8133265 C2.92523358,0.838139293 2.94534832,0.858254036 2.97016112,0.858254036 Z M2.97016112,1.05825404 C2.83489137,1.05825404 2.72523358,0.948596243 2.72523358,0.8133265 C2.72523358,0.678056757 2.83489137,0.568398963 2.97016112,0.568398963 C3.10543086,0.568398963 3.21508865,0.678056757 3.21508865,0.8133265 C3.21508865,0.948596243 3.10543086,1.05825404 2.97016112,1.05825404 Z M3.33333333,0.769565217 C3.35814613,0.769565217 3.37826087,0.749450474 3.37826087,0.724637681 C3.37826087,0.699824888 3.35814613,0.679710145 3.33333333,0.679710145 C3.30852054,0.679710145 3.2884058,0.699824888 3.2884058,0.724637681 C3.2884058,0.749450474 3.30852054,0.769565217 3.33333333,0.769565217 Z M3.33333333,0.969565217 C3.19806359,0.969565217 3.0884058,0.859907424 3.0884058,0.724637681 C3.0884058,0.589367938 3.19806359,0.479710145 3.33333333,0.479710145 C3.46860308,0.479710145 3.57826087,0.589367938 3.57826087,0.724637681 C3.57826087,0.859907424 3.46860308,0.969565217 3.33333333,0.969565217 Z M1.73913043,1.4942029 C1.76394323,1.4942029 1.78405797,1.47408816 1.78405797,1.44927536 C1.78405797,1.42446257 1.76394323,1.40434783 1.73913043,1.40434783 C1.71431764,1.40434783 1.6942029,1.42446257 1.6942029,1.44927536 C1.6942029,1.47408816 1.71431764,1.4942029 1.73913043,1.4942029 Z M1.73913043,1.6942029 C1.60386069,1.6942029 1.4942029,1.58454511 1.4942029,1.44927536 C1.4942029,1.31400562 1.60386069,1.20434783 1.73913043,1.20434783 C1.87440018,1.20434783 1.98405797,1.31400562 1.98405797,1.44927536 C1.98405797,1.58454511 1.87440018,1.6942029 1.73913043,1.6942029 Z M1.73913043,1.78405797 C1.76394323,1.78405797 1.78405797,1.76394323 1.78405797,1.73913043 C1.78405797,1.71431764 1.76394323,1.6942029 1.73913043,1.6942029 C1.71431764,1.6942029 1.6942029,1.71431764 1.6942029,1.73913043 C1.6942029,1.76394323 1.71431764,1.78405797 1.73913043,1.78405797 Z M1.73913043,1.98405797 C1.60386069,1.98405797 1.4942029,1.87440018 1.4942029,1.73913043 C1.4942029,1.60386069 1.60386069,1.4942029 1.73913043,1.4942029 C1.87440018,1.4942029 1.98405797,1.60386069 1.98405797,1.73913043 C1.98405797,1.87440018 1.87440018,1.98405797 1.73913043,1.98405797 Z M1.88405797,2.21884058 C1.90887076,2.21884058 1.92898551,2.19872584 1.92898551,2.17391304 C1.92898551,2.14910025 1.90887076,2.12898551 1.88405797,2.12898551 C1.85924518,2.12898551 1.83913043,2.14910025 1.83913043,2.17391304 C1.83913043,2.19872584 1.85924518,2.21884058 1.88405797,2.21884058 Z M1.88405797,2.41884058 C1.74878823,2.41884058 1.63913043,2.30918279 1.63913043,2.17391304 C1.63913043,2.0386433 1.74878823,1.92898551 1.88405797,1.92898551 C2.01932771,1.92898551 2.12898551,2.0386433 2.12898551,2.17391304 C2.12898551,2.30918279 2.01932771,2.41884058 1.88405797,2.41884058 Z M2.02898551,2.50869565 C2.0537983,2.50869565 2.07391304,2.48858091 2.07391304,2.46376812 C2.07391304,2.43895532 2.0537983,2.41884058 2.02898551,2.41884058 C2.00417271,2.41884058 1.98405797,2.43895532 1.98405797,2.46376812 C1.98405797,2.48858091 2.00417271,2.50869565 2.02898551,2.50869565 Z M2.02898551,2.70869565 C1.89371576,2.70869565 1.78405797,2.59903786 1.78405797,2.46376812 C1.78405797,2.32849837 1.89371576,2.21884058 2.02898551,2.21884058 C2.16425525,2.21884058 2.27391304,2.32849837 2.27391304,2.46376812 C2.27391304,2.59903786 2.16425525,2.70869565 2.02898551,2.70869565 Z M2.17391304,2.79855072 C2.19872584,2.79855072 2.21884058,2.77843598 2.21884058,2.75362319 C2.21884058,2.7288104 2.19872584,2.70869565 2.17391304,2.70869565 C2.14910025,2.70869565 2.12898551,2.7288104 2.12898551,2.75362319 C2.12898551,2.77843598 2.14910025,2.79855072 2.17391304,2.79855072 Z M2.17391304,2.99855072 C2.0386433,2.99855072 1.92898551,2.88889293 1.92898551,2.75362319 C1.92898551,2.61835345 2.0386433,2.50869565 2.17391304,2.50869565 C2.30918279,2.50869565 2.41884058,2.61835345 2.41884058,2.75362319 C2.41884058,2.88889293 2.30918279,2.99855072 2.17391304,2.99855072 Z M8.55072464,3.23333333 C8.57553743,3.23333333 8.59565217,3.21321859 8.59565217,3.1884058 C8.59565217,3.163593 8.57553743,3.14347826 8.55072464,3.14347826 C8.52591184,3.14347826 8.5057971,3.163593 8.5057971,3.1884058 C8.5057971,3.21321859 8.52591184,3.23333333 8.55072464,3.23333333 Z M8.55072464,3.43333333 C8.41545489,3.43333333 8.3057971,3.32367554 8.3057971,3.1884058 C8.3057971,3.05313605 8.41545489,2.94347826 8.55072464,2.94347826 C8.68599438,2.94347826 8.79565217,3.05313605 8.79565217,3.1884058 C8.79565217,3.32367554 8.68599438,3.43333333 8.55072464,3.43333333 Z M8.69565217,2.79855072 C8.72046497,2.79855072 8.74057971,2.77843598 8.74057971,2.75362319 C8.74057971,2.7288104 8.72046497,2.70869565 8.69565217,2.70869565 C8.67083938,2.70869565 8.65072464,2.7288104 8.65072464,2.75362319 C8.65072464,2.77843598 8.67083938,2.79855072 8.69565217,2.79855072 Z M8.69565217,2.99855072 C8.56038243,2.99855072 8.45072464,2.88889293 8.45072464,2.75362319 C8.45072464,2.61835345 8.56038243,2.50869565 8.69565217,2.50869565 C8.83092192,2.50869565 8.94057971,2.61835345 8.94057971,2.75362319 C8.94057971,2.88889293 8.83092192,2.99855072 8.69565217,2.99855072 Z M8.84057971,2.50869565 C8.8653925,2.50869565 8.88550725,2.48858091 8.88550725,2.46376812 C8.88550725,2.43895532 8.8653925,2.41884058 8.84057971,2.41884058 C8.81576692,2.41884058 8.79565217,2.43895532 8.79565217,2.46376812 C8.79565217,2.48858091 8.81576692,2.50869565 8.84057971,2.50869565 Z M8.84057971,2.70869565 C8.70530997,2.70869565 8.59565217,2.59903786 8.59565217,2.46376812 C8.59565217,2.32849837 8.70530997,2.21884058 8.84057971,2.21884058 C8.97584945,2.21884058 9.08550725,2.32849837 9.08550725,2.46376812 C9.08550725,2.59903786 8.97584945,2.70869565 8.84057971,2.70869565 Z M8.98550725,2.21884058 C9.01032004,2.21884058 9.03043478,2.19872584 9.03043478,2.17391304 C9.03043478,2.14910025 9.01032004,2.12898551 8.98550725,2.12898551 C8.96069445,2.12898551 8.94057971,2.14910025 8.94057971,2.17391304 C8.94057971,2.19872584 8.96069445,2.21884058 8.98550725,2.21884058 Z M8.98550725,2.41884058 C8.8502375,2.41884058 8.74057971,2.30918279 8.74057971,2.17391304 C8.74057971,2.0386433 8.8502375,1.92898551 8.98550725,1.92898551 C9.12077699,1.92898551 9.23043478,2.0386433 9.23043478,2.17391304 C9.23043478,2.30918279 9.12077699,2.41884058 8.98550725,2.41884058 Z M8.69565217,1.92898551 C8.72046497,1.92898551 8.74057971,1.90887076 8.74057971,1.88405797 C8.74057971,1.85924518 8.72046497,1.83913043 8.69565217,1.83913043 C8.67083938,1.83913043 8.65072464,1.85924518 8.65072464,1.88405797 C8.65072464,1.90887076 8.67083938,1.92898551 8.69565217,1.92898551 Z M8.69565217,2.12898551 C8.56038243,2.12898551 8.45072464,2.01932771 8.45072464,1.88405797 C8.45072464,1.74878823 8.56038243,1.63913043 8.69565217,1.63913043 C8.83092192,1.63913043 8.94057971,1.74878823 8.94057971,1.88405797 C8.94057971,2.01932771 8.83092192,2.12898551 8.69565217,2.12898551 Z M8.4057971,1.69203942 C8.43060989,1.69203942 8.45072464,1.67192468 8.45072464,1.64711188 C8.45072464,1.62229909 8.43060989,1.60218435 8.4057971,1.60218435 C8.38098431,1.60218435 8.36086957,1.62229909 8.36086957,1.64711188 C8.36086957,1.67192468 8.38098431,1.69203942 8.4057971,1.69203942 Z M8.4057971,1.89203942 C8.27052736,1.89203942 8.16086957,1.78238163 8.16086957,1.64711188 C8.16086957,1.51184214 8.27052736,1.40218435 8.4057971,1.40218435 C8.54106684,1.40218435 8.65072464,1.51184214 8.65072464,1.64711188 C8.65072464,1.78238163 8.54106684,1.89203942 8.4057971,1.89203942 Z M8.11594203,1.4942029 C8.14075482,1.4942029 8.16086957,1.47408816 8.16086957,1.44927536 C8.16086957,1.42446257 8.14075482,1.40434783 8.11594203,1.40434783 C8.09112924,1.40434783 8.07101449,1.42446257 8.07101449,1.44927536 C8.07101449,1.47408816 8.09112924,1.4942029 8.11594203,1.4942029 Z M8.11594203,1.6942029 C7.98067229,1.6942029 7.87101449,1.58454511 7.87101449,1.44927536 C7.87101449,1.31400562 7.98067229,1.20434783 8.11594203,1.20434783 C8.25121177,1.20434783 8.36086957,1.31400562 8.36086957,1.44927536 C8.36086957,1.58454511 8.25121177,1.6942029 8.11594203,1.6942029 Z M7.77368847,1.35161116 C7.79850126,1.35161116 7.818616,1.33149642 7.818616,1.30668363 C7.818616,1.28187083 7.79850126,1.26175609 7.77368847,1.26175609 C7.74887567,1.26175609 7.72876093,1.28187083 7.72876093,1.30668363 C7.72876093,1.33149642 7.74887567,1.35161116 7.77368847,1.35161116 Z M7.77368847,1.55161116 C7.63841872,1.55161116 7.52876093,1.44195337 7.52876093,1.30668363 C7.52876093,1.17141388 7.63841872,1.06175609 7.77368847,1.06175609 C7.90895821,1.06175609 8.018616,1.17141388 8.018616,1.30668363 C8.018616,1.44195337 7.90895821,1.55161116 7.77368847,1.55161116 Z M7.39130435,1.20434783 C7.41611714,1.20434783 7.43623188,1.18423308 7.43623188,1.15942029 C7.43623188,1.1346075 7.41611714,1.11449275 7.39130435,1.11449275 C7.36649155,1.11449275 7.34637681,1.1346075 7.34637681,1.15942029 C7.34637681,1.18423308 7.36649155,1.20434783 7.39130435,1.20434783 Z M7.39130435,1.40434783 C7.2560346,1.40434783 7.14637681,1.29469003 7.14637681,1.15942029 C7.14637681,1.02415055 7.2560346,0.914492754 7.39130435,0.914492754 C7.52657409,0.914492754 7.63623188,1.02415055 7.63623188,1.15942029 C7.63623188,1.29469003 7.52657409,1.40434783 7.39130435,1.40434783 Z M6.95652174,1.09037036 C6.98133453,1.09037036 7.00144928,1.07025562 7.00144928,1.04544283 C7.00144928,1.02063003 6.98133453,1.00051529 6.95652174,1.00051529 C6.93170895,1.00051529 6.9115942,1.02063003 6.9115942,1.04544283 C6.9115942,1.07025562 6.93170895,1.09037036 6.95652174,1.09037036 Z M6.95652174,1.29037036 C6.821252,1.29037036 6.7115942,1.18071257 6.7115942,1.04544283 C6.7115942,0.910173082 6.821252,0.800515289 6.95652174,0.800515289 C7.09179148,0.800515289 7.20144928,0.910173082 7.20144928,1.04544283 C7.20144928,1.18071257 7.09179148,1.29037036 6.95652174,1.29037036 Z M6.52173913,0.914492754 C6.54655192,0.914492754 6.56666667,0.89437801 6.56666667,0.869565217 C6.56666667,0.844752424 6.54655192,0.824637681 6.52173913,0.824637681 C6.49692634,0.824637681 6.47681159,0.844752424 6.47681159,0.869565217 C6.47681159,0.89437801 6.49692634,0.914492754 6.52173913,0.914492754 Z M6.52173913,1.11449275 C6.38646939,1.11449275 6.27681159,1.00483496 6.27681159,0.869565217 C6.27681159,0.734295474 6.38646939,0.624637681 6.52173913,0.624637681 C6.65700887,0.624637681 6.76666667,0.734295474 6.76666667,0.869565217 C6.76666667,1.00483496 6.65700887,1.11449275 6.52173913,1.11449275 Z M6.16027367,0.858254036 C6.18508646,0.858254036 6.2052012,0.838139293 6.2052012,0.8133265 C6.2052012,0.788513707 6.18508646,0.768398963 6.16027367,0.768398963 C6.13546087,0.768398963 6.11534613,0.788513707 6.11534613,0.8133265 C6.11534613,0.838139293 6.13546087,0.858254036 6.16027367,0.858254036 Z M6.16027367,1.05825404 C6.02500392,1.05825404 5.91534613,0.948596243 5.91534613,0.8133265 C5.91534613,0.678056757 6.02500392,0.568398963 6.16027367,0.568398963 C6.29554341,0.568398963 6.4052012,0.678056757 6.4052012,0.8133265 C6.4052012,0.948596243 6.29554341,1.05825404 6.16027367,1.05825404 Z M5.79710145,0.769565217 C5.82191424,0.769565217 5.84202899,0.749450474 5.84202899,0.724637681 C5.84202899,0.699824888 5.82191424,0.679710145 5.79710145,0.679710145 C5.77228866,0.679710145 5.75217391,0.699824888 5.75217391,0.724637681 C5.75217391,0.749450474 5.77228866,0.769565217 5.79710145,0.769565217 Z M5.79710145,0.969565217 C5.66183171,0.969565217 5.55217391,0.859907424 5.55217391,0.724637681 C5.55217391,0.589367938 5.66183171,0.479710145 5.79710145,0.479710145 C5.93237119,0.479710145 6.04202899,0.589367938 6.04202899,0.724637681 C6.04202899,0.859907424 5.93237119,0.969565217 5.79710145,0.969565217 Z M7.39130435,1.4942029 C7.41611714,1.4942029 7.43623188,1.47408816 7.43623188,1.44927536 C7.43623188,1.42446257 7.41611714,1.40434783 7.39130435,1.40434783 C7.36649155,1.40434783 7.34637681,1.42446257 7.34637681,1.44927536 C7.34637681,1.47408816 7.36649155,1.4942029 7.39130435,1.4942029 Z M7.39130435,1.6942029 C7.2560346,1.6942029 7.14637681,1.58454511 7.14637681,1.44927536 C7.14637681,1.31400562 7.2560346,1.20434783 7.39130435,1.20434783 C7.52657409,1.20434783 7.63623188,1.31400562 7.63623188,1.44927536 C7.63623188,1.58454511 7.52657409,1.6942029 7.39130435,1.6942029 Z M7.39130435,1.78405797 C7.41611714,1.78405797 7.43623188,1.76394323 7.43623188,1.73913043 C7.43623188,1.71431764 7.41611714,1.6942029 7.39130435,1.6942029 C7.36649155,1.6942029 7.34637681,1.71431764 7.34637681,1.73913043 C7.34637681,1.76394323 7.36649155,1.78405797 7.39130435,1.78405797 Z M7.39130435,1.98405797 C7.2560346,1.98405797 7.14637681,1.87440018 7.14637681,1.73913043 C7.14637681,1.60386069 7.2560346,1.4942029 7.39130435,1.4942029 C7.52657409,1.4942029 7.63623188,1.60386069 7.63623188,1.73913043 C7.63623188,1.87440018 7.52657409,1.98405797 7.39130435,1.98405797 Z M7.24637681,2.21884058 C7.2711896,2.21884058 7.29130435,2.19872584 7.29130435,2.17391304 C7.29130435,2.14910025 7.2711896,2.12898551 7.24637681,2.12898551 C7.22156402,2.12898551 7.20144928,2.14910025 7.20144928,2.17391304 C7.20144928,2.19872584 7.22156402,2.21884058 7.24637681,2.21884058 Z M7.24637681,2.41884058 C7.11110707,2.41884058 7.00144928,2.30918279 7.00144928,2.17391304 C7.00144928,2.0386433 7.11110707,1.92898551 7.24637681,1.92898551 C7.38164655,1.92898551 7.49130435,2.0386433 7.49130435,2.17391304 C7.49130435,2.30918279 7.38164655,2.41884058 7.24637681,2.41884058 Z M7.10144928,2.50869565 C7.12626207,2.50869565 7.14637681,2.48858091 7.14637681,2.46376812 C7.14637681,2.43895532 7.12626207,2.41884058 7.10144928,2.41884058 C7.07663648,2.41884058 7.05652174,2.43895532 7.05652174,2.46376812 C7.05652174,2.48858091 7.07663648,2.50869565 7.10144928,2.50869565 Z M7.10144928,2.70869565 C6.96617953,2.70869565 6.85652174,2.59903786 6.85652174,2.46376812 C6.85652174,2.32849837 6.96617953,2.21884058 7.10144928,2.21884058 C7.23671902,2.21884058 7.34637681,2.32849837 7.34637681,2.46376812 C7.34637681,2.59903786 7.23671902,2.70869565 7.10144928,2.70869565 Z M6.95652174,2.79855072 C6.98133453,2.79855072 7.00144928,2.77843598 7.00144928,2.75362319 C7.00144928,2.7288104 6.98133453,2.70869565 6.95652174,2.70869565 C6.93170895,2.70869565 6.9115942,2.7288104 6.9115942,2.75362319 C6.9115942,2.77843598 6.93170895,2.79855072 6.95652174,2.79855072 Z M6.95652174,2.99855072 C6.821252,2.99855072 6.7115942,2.88889293 6.7115942,2.75362319 C6.7115942,2.61835345 6.821252,2.50869565 6.95652174,2.50869565 C7.09179148,2.50869565 7.20144928,2.61835345 7.20144928,2.75362319 C7.20144928,2.88889293 7.09179148,2.99855072 6.95652174,2.99855072 Z"/>
              </g>
              <path fill="#F6C540" fill-rule="nonzero" d="M4.55344705,0.539740376 L4.92753623,0.633235464 L4.88025712,0.842389184 L4.50180156,0.747802818 L4.40571733,1.13489409 L4.19641142,1.08633275 L4.29337209,0.695710609 L3.91304348,0.600656118 L3.96032259,0.391502398 L4.34501758,0.487648167 L4.43008808,0.144927536 L4.63939399,0.193488878 L4.55344705,0.539740376 Z" transform="rotate(-14 4.42 .652)"/>
            </g>
            <g transform="translate(0 6.667)">
              <path fill="#C51918" d="M-0.215252491,0.0674708699 L10.1847475,0.0674708699 L10.1847475,8.90092654 C9.97507794,11.8343423 8.2417446,13.3010501 4.98474751,13.3010501 C1.72775042,13.3010501 -0.00558291801,11.8343423 -0.215252491,8.90092654 L-0.215252491,0.0674708699 Z"/>
              <g transform="translate(0 .29)">
                <g fill="#E8AA00" transform="translate(2.174)">
                  <path d="M0.74968525,0.0832982173 C0.654320611,0.0832982173 0.50751914,0.151791268 0.312928078,0.229348786 C0.118337015,0.306906304 -0.0860157816,0.474357599 0.113456148,0.642077073 C0.312928078,0.809796547 0.598485634,1.17789976 0.598485634,1.04027003 C0.598485634,0.902640298 0.939609988,0.769194167 0.939609988,0.835917232 C0.939609988,0.902640298 0.834000892,1.04027003 1.11103034,1.04027003 C1.38805979,1.04027003 1.53078493,1.12211842 1.23519746,1.12211842 C0.939609988,1.12211842 0.907491719,1.25733454 0.715389907,1.25733454 C0.523288096,1.25733454 0.113456148,1.12109934 0.113456148,1.04027003 C0.113456148,0.959440721 0.350795026,1.43765845 0.598485634,1.43765845 C0.846176242,1.43765845 0.98686322,1.670331 1.11103034,1.55399472 C1.23519746,1.43765845 1.22050122,1.43765845 1.4210995,1.43765845 C1.55483169,1.43765845 1.59729345,1.28104161 1.54848478,0.967807922 C1.07952818,0.378134785 0.813261675,0.0832982173 0.74968525,0.0832982173 Z"/>
                  <path d="M4.66272873,0.0832982173 C4.56736409,0.0832982173 4.42056262,0.151791268 4.22597156,0.229348786 C4.03138049,0.306906304 3.8270277,0.474357599 4.02649963,0.642077073 C4.22597156,0.809796547 4.51152911,1.17789976 4.51152911,1.04027003 C4.51152911,0.902640298 4.85265347,0.769194167 4.85265347,0.835917232 C4.85265347,0.902640298 4.74704437,1.04027003 5.02407382,1.04027003 C5.30110327,1.04027003 5.44382841,1.12211842 5.14824094,1.12211842 C4.85265347,1.12211842 4.8205352,1.25733454 4.62843339,1.25733454 C4.43633157,1.25733454 4.02649963,1.12109934 4.02649963,1.04027003 C4.02649963,0.959440721 4.2638385,1.43765845 4.51152911,1.43765845 C4.75921972,1.43765845 4.8999067,1.670331 5.02407382,1.55399472 C5.14824094,1.43765845 5.1335447,1.43765845 5.33414298,1.43765845 C5.46787517,1.43765845 5.51033693,1.28104161 5.46152826,0.967807922 C4.99257166,0.378134785 4.72630515,0.0832982173 4.66272873,0.0832982173 Z" transform="matrix(-1 0 0 1 9.426 0)"/>
                </g>
                <path fill="#F7FCFF" d="M4.71342186,11.8324842 C4.70601632,12.3463342 4.70231356,12.6032593 4.70231356,12.6032593 C4.70231356,12.6032593 4.65458058,12.5445816 4.55911461,12.4272262 C4.53268999,12.5445816 4.45500732,12.6032593 4.32606661,12.6032593 C4.19712589,12.6032593 4.09384102,12.5445816 4.01621199,12.4272262 C3.94941741,12.4892293 3.85314096,12.5202309 3.72738264,12.5202309 C3.53874516,12.5202309 3.49347646,12.3374934 3.21784154,12.3374934 C2.94220663,12.3374934 2.91211689,12.0354159 3.09404988,11.7879935 C3.27598287,11.5405711 3.49347646,11.058277 3.31374254,10.9150692 C3.13400863,10.7718613 3.72738264,10.2351804 3.72738264,9.93508756 C3.72738264,9.63499467 3.92385096,9.23025813 4.01621199,8.97339579 C4.10857301,8.71653344 3.82746724,8.60852548 3.72738264,8.26095006 C3.62729804,7.91337465 3.59232743,8.09097788 3.49347646,8.39333453 C3.39462549,8.69569118 3.43313607,8.97339579 3.31374254,8.97339579 C3.19434902,8.97339579 3.09404988,8.75595583 3.09404988,8.9008708 C3.09404988,9.04578577 2.99316074,8.97339579 2.70921226,9.23025813 C2.42526378,9.48712048 2.70921226,8.75595583 2.70921226,8.9008708 C2.70921226,9.04578577 2.61229218,8.97339579 2.48943446,8.97339579 C2.36657673,8.97339579 2.48943446,8.60852548 2.30592389,8.75595583 C2.18358352,8.85424273 2.03428574,8.85424273 1.85803056,8.75595583 C2.04702371,8.45244812 2.19632149,8.23078881 2.30592389,8.09097788 C2.4703275,7.88126149 2.73270479,7.43254352 2.82915721,7.01171621 C2.82915721,7.10597883 2.50133335,7.62523462 2.48943446,7.67658484 C2.39695384,8.07568929 2.14152028,7.01221728 2.14152028,7.67658484 C2.14152028,8.42643231 1.85803056,8.11759345 1.85803056,8.39333453 C1.85803056,8.66907561 1.45244432,8.4376125 1.45244432,8.60852548 C1.45244432,8.77943846 1.1667407,9.08285327 1.1667407,9.35859435 C1.1667407,9.63433543 0.827128646,8.67405688 0.827128646,8.9008708 C0.827128646,9.12768472 0.266126725,9.44504709 0.266126725,9.08285327 C0.266126725,8.72065945 0.818383746,7.94324893 0.512865731,7.13152299 C0.207347715,6.31979704 0.0757314395,5.16115318 0.0757314395,3.12392363 C0.0757314395,1.08669408 1.50059662,0.183202033 1.85803056,0.183202033 C2.2154645,0.183202033 1.69995819,0.578715029 1.50059662,1.04363375 C1.3676889,1.35357956 1.81054243,2.08424873 2.82915721,3.23564124 C2.86243718,3.23564124 2.91946501,3.23564124 3.00024068,3.23564124 C3.12140419,3.23564124 3.41817165,2.73318009 3.72738264,2.39940385 C4.03659363,2.06562762 3.72738264,1.8016317 3.62713713,1.54868477 C3.52689163,1.29573784 3.59554559,1.34143563 3.49347646,1.04363375 C3.39140733,0.745831862 2.93754031,0.328199758 2.82915721,0.183202033 C2.72077411,0.0382043069 2.82915721,0.0590547884 3.09404988,0.0590547884 C3.35894255,0.0590547884 3.86495873,0.183202033 4.01621199,0.328199758 C4.16746524,0.473197484 4.32606661,0.504125526 4.55911461,0.504125526 C4.79216262,0.504125526 4.64841839,0.661064183 4.43618112,0.76704873 C4.63488357,0.805038203 4.76274289,1.03425999 4.81975909,1.45471409 C4.92543996,1.03425999 5.07763163,0.805038203 5.27633407,0.76704873 C5.0640968,0.661064183 4.92035257,0.504125526 5.15340058,0.504125526 C5.38644859,0.504125526 5.54504996,0.473197484 5.69630321,0.328199758 C5.84755646,0.183202033 6.35357265,0.0590547884 6.61846532,0.0590547884 C6.88335799,0.0590547884 6.99174109,0.0382043069 6.88335799,0.183202033 C6.77497489,0.328199758 6.32110786,0.745831862 6.21903874,1.04363375 C6.11696961,1.34143563 6.18562357,1.29573784 6.08537806,1.54868477 C5.98513255,1.8016317 5.67592156,2.06562762 5.98513255,2.39940385 C6.29434355,2.73318009 6.59111101,3.23564124 6.71227451,3.23564124 C6.79305019,3.23564124 6.85007801,3.23564124 6.88335799,3.23564124 C7.90197276,2.08424873 8.34482629,1.35357956 8.21191857,1.04363375 C8.012557,0.578715029 7.4970507,0.183202033 7.85448464,0.183202033 C8.21191857,0.183202033 9.63678375,1.08669408 9.63678375,3.12392363 C9.63678375,5.16115318 9.50516748,6.31979704 9.19964946,7.13152299 C8.89413145,7.94324893 9.44638847,8.72065945 9.44638847,9.08285327 C9.44638847,9.44504709 8.88538655,9.12768472 8.88538655,8.9008708 C8.88538655,8.67405688 8.54577449,9.63433543 8.54577449,9.35859435 C8.54577449,9.08285327 8.26007087,8.77943846 8.26007087,8.60852548 C8.26007087,8.4376125 7.85448464,8.66907561 7.85448464,8.39333453 C7.85448464,8.11759345 7.57099491,8.42643231 7.57099491,7.67658484 C7.57099491,7.01221728 7.31556136,8.07568929 7.22308074,7.67658484 C7.21118185,7.62523462 6.88335799,7.10597883 6.88335799,7.01171621 C6.97981041,7.43254352 7.24218769,7.88126149 7.4065913,8.09097788 C7.51619371,8.23078881 7.66549149,8.45244812 7.85448464,8.75595583 C7.67822946,8.85424273 7.52893168,8.85424273 7.4065913,8.75595583 C7.22308074,8.60852548 7.34593846,8.97339579 7.22308074,8.97339579 C7.10022301,8.97339579 7.00330293,9.04578577 7.00330293,8.9008708 C7.00330293,8.75595583 7.28725141,9.48712048 7.00330293,9.23025813 C6.71935445,8.97339579 6.61846532,9.04578577 6.61846532,8.9008708 C6.61846532,8.75595583 6.51816618,8.97339579 6.39877265,8.97339579 C6.27937913,8.97339579 6.31788971,8.69569118 6.21903874,8.39333453 C6.12018776,8.09097788 6.08521715,7.91337465 5.98513255,8.26095006 C5.88504796,8.60852548 5.60394218,8.71653344 5.69630321,8.97339579 C5.78866424,9.23025813 5.98513255,9.63499467 5.98513255,9.93508756 C5.98513255,10.2351804 6.57850657,10.7718613 6.39877265,10.9150692 C6.21903874,11.058277 6.43653233,11.5405711 6.61846532,11.7879935 C6.80039831,12.0354159 6.77030856,12.3374934 6.49467365,12.3374934 C6.21903874,12.3374934 6.17377003,12.5202309 5.98513255,12.5202309 C5.85937424,12.5202309 5.76309779,12.4892293 5.69630321,12.4272262 C5.61867418,12.5445816 5.5153893,12.6032593 5.38644859,12.6032593 C5.25750787,12.6032593 5.1798252,12.5445816 5.15340058,12.4272262 C4.86008148,12.5445816 4.71342193,12.6032593 4.71342193,12.6032593 L4.71342193,11.832479 Z"/>
                <path fill="#E8AA00" d="M2.54825423 9.80650546C2.79609285 10.0038268 2.92001216 10.1489176 2.92001216 10.2417777 2.92001216 10.3823037 2.79284143 10.6332661 2.79284143 10.71195 2.79284143 10.7906339 2.90665682 10.3992527 3.09593793 10.5556013 3.28521904 10.71195 3.27272187 10.9469289 3.27272187 11.0824668 3.27272187 11.2180048 3.2718637 10.9229536 3.09593793 10.9229536 2.97865409 10.9229536 2.87762192 10.9761247 2.79284143 11.0824668 2.79284143 11.2638277 2.79284143 11.3545081 2.79284143 11.3545081 2.79284143 11.3545081 2.81515397 11.5791353 2.92001216 11.4668217 3.02487036 11.3545081 3.04718289 11.6054169 2.92001216 11.6054169 2.79284143 11.6054169 2.65855402 11.8698166 2.54162775 11.8698166L2.54162775 11.8472205C2.42857273 11.8383514 2.357036 11.6054169 2.23228512 11.6054169 2.10511439 11.6054169 2.12742692 11.3545081 2.23228512 11.4668217 2.33714331 11.5791353 2.35945585 11.3545081 2.35945585 11.3545081 2.35945585 11.3545081 2.35945585 11.2638277 2.35945585 11.0824668 2.27467536 10.9761247 2.17364319 10.9229536 2.05635935 10.9229536 1.88043358 10.9229536 1.87957541 11.2180048 1.87957541 11.0824668 1.87957541 10.9469289 1.86707824 10.71195 2.05635935 10.5556013 2.24564046 10.3992527 2.35945585 10.7906339 2.35945585 10.71195 2.35945585 10.6332661 2.18872392 10.3859109 2.18872392 10.2453848 2.18872392 10.1517007 2.30856735 9.99620575 2.54825423 9.7788998L2.54825423 9.80650546zM7.33086293 9.80650546C7.57870155 10.0038268 7.70262086 10.1489176 7.70262086 10.2417777 7.70262086 10.3823037 7.57545013 10.6332661 7.57545013 10.71195 7.57545013 10.7906339 7.68926552 10.3992527 7.87854663 10.5556013 8.06782774 10.71195 8.05533057 10.9469289 8.05533057 11.0824668 8.05533057 11.2180048 8.05447239 10.9229536 7.87854663 10.9229536 7.76126278 10.9229536 7.66023062 10.9761247 7.57545013 11.0824668 7.57545013 11.2638277 7.57545013 11.3545081 7.57545013 11.3545081 7.57545013 11.3545081 7.59776267 11.5791353 7.70262086 11.4668217 7.80747905 11.3545081 7.82979159 11.6054169 7.70262086 11.6054169 7.57545013 11.6054169 7.44116272 11.8698166 7.32423645 11.8698166L7.32423645 11.8472205C7.21118142 11.8383514 7.1396447 11.6054169 7.01489381 11.6054169 6.88772308 11.6054169 6.91003562 11.3545081 7.01489381 11.4668217 7.11975201 11.5791353 7.14206454 11.3545081 7.14206454 11.3545081 7.14206454 11.3545081 7.14206454 11.2638277 7.14206454 11.0824668 7.05728406 10.9761247 6.95625189 10.9229536 6.83896805 10.9229536 6.66304228 10.9229536 6.6621841 11.2180048 6.6621841 11.0824668 6.6621841 10.9469289 6.64968694 10.71195 6.83896805 10.5556013 7.02824915 10.3992527 7.14206454 10.7906339 7.14206454 10.71195 7.14206454 10.6332661 6.97133261 10.3859109 6.97133261 10.2453848 6.97133261 10.1517007 7.09117605 9.99620575 7.33086293 9.7788998L7.33086293 9.80650546z"/>
                <path fill="#E8AA00" d="M2.21592617,8.79323278 C2.39517736,8.60743801 2.48480296,8.58305155 2.48480296,8.72007341 C2.48480296,8.92560619 2.21592617,9.23127722 2.30313815,9.23127722 C2.39035013,9.23127722 2.38101748,9.23127722 2.74692162,9.23127722 C3.11282576,9.23127722 2.68266581,9.4027512 2.48480296,9.47918237 C2.2869401,9.55561353 2.21592617,9.55164447 2.01988693,9.63660375 C1.8238477,9.72156302 1.7397466,10.2808246 1.83065946,10.4603976 C1.92157232,10.6399706 1.7397466,10.5641831 1.6646027,10.4603976 C1.5894588,10.3566121 1.55084095,10.6968247 1.41285409,10.8645978 C1.27486724,11.0323709 1.29934219,10.8319872 1.29934219,10.4603976 C1.29934219,10.0888081 1.41285409,10.2808246 1.55084095,10.1700665 C1.6888278,10.0593083 1.6646027,10.0203686 1.7397466,9.80287505 C1.81489051,9.58538146 1.41285409,9.92918761 1.29934219,10.0920262 C1.18583029,10.2548648 1.12888729,10.1794527 0.929898079,10.2808246 C0.730908873,10.3821965 0.929898079,10.0107142 0.929898079,9.80287505 C0.929898079,9.59503592 1.12888729,9.80287505 1.29934219,9.80287505 C1.4697971,9.80287505 1.55346911,9.72708752 1.6646027,9.63660375 C1.7757363,9.54611998 1.41285409,9.61370122 1.12888729,9.63660375 C0.844920477,9.65950628 1.01652007,9.61370122 0.707040895,9.47918237 C0.397561725,9.34466352 0.905976466,9.4027512 1.12888729,9.47918237 C1.35179811,9.55561353 1.51018493,9.4027512 1.83065946,9.4027512 C2.04430915,9.4027512 2.17273138,9.1995784 2.21592617,8.79323278 Z M7.66028965,8.79323278 C7.70348443,9.1995784 7.83190667,9.4027512 8.04555636,9.4027512 C8.36603089,9.4027512 8.52441771,9.55561353 8.74732853,9.47918237 C8.97023935,9.4027512 9.47865409,9.34466352 9.16917492,9.47918237 C8.85969575,9.61370122 9.03129534,9.65950628 8.74732853,9.63660375 C8.46336172,9.61370122 8.10047952,9.54611998 8.21161312,9.63660375 C8.32274671,9.72708752 8.40641872,9.80287505 8.57687363,9.80287505 C8.74732853,9.80287505 8.94631774,9.59503592 8.94631774,9.80287505 C8.94631774,10.0107142 9.14530695,10.3821965 8.94631774,10.2808246 C8.74732853,10.1794527 8.69038553,10.2548648 8.57687363,10.0920262 C8.46336172,9.92918761 8.06132531,9.58538146 8.13646921,9.80287505 C8.21161312,10.0203686 8.18738802,10.0593083 8.32537487,10.1700665 C8.46336172,10.2808246 8.57687363,10.0888081 8.57687363,10.4603976 C8.57687363,10.8319872 8.60134858,11.0323709 8.46336172,10.8645978 C8.32537487,10.6968247 8.28675702,10.3566121 8.21161312,10.4603976 C8.13646921,10.5641831 7.9546435,10.6399706 8.04555636,10.4603976 C8.13646921,10.2808246 8.05236812,9.72156302 7.85632888,9.63660375 C7.66028965,9.55164447 7.58927571,9.55561353 7.39141286,9.47918237 C7.19355001,9.4027512 6.76339005,9.23127722 7.1292942,9.23127722 C7.49519834,9.23127722 7.48586569,9.23127722 7.57307767,9.23127722 C7.66028965,9.23127722 7.39141286,8.92560619 7.39141286,8.72007341 C7.39141286,8.58305155 7.48103846,8.60743801 7.66028965,8.79323278 Z"/>
              </g>
              <g transform="translate(3.043 3.623)">
                <path fill="#C51918" d="M0.0035120678,0.0513292676 L3.87902643,0.0513292676 L3.87902643,3.5856569 C3.60166448,4.75933712 2.95574542,5.34617724 1.94126925,5.34617724 C0.926793077,5.34617724 0.280874017,4.75933712 0.0035120678,3.5856569 L0.0035120678,0.0513292676 Z"/>
                <path fill="#F7FCFF" d="M2.46376812,2.02898551 L3.91304348,2.02898551 L3.91304348,2.75362319 L2.46376812,2.75362319 L2.46376812,5.36231884 L1.44927536,5.36231884 L1.44927536,2.75362319 L0,2.75362319 L0,2.02898551 L1.44927536,2.02898551 L1.44927536,0 L2.46376812,0 L2.46376812,2.02898551 Z"/>
                <path fill="#F7FCFF" fill-rule="nonzero" d="M3.29502193,1.01898809 C3.19774234,1.01898809 3.15133609,0.936933298 3.20278781,0.864692715 C3.2298362,0.826715528 3.28587812,0.815716764 3.32796095,0.840126287 C3.33173794,0.842317073 3.33527411,0.844718624 3.33856272,0.847302917 C3.35405647,0.84342438 3.37299358,0.838157746 3.39482436,0.831477145 C3.41441342,0.825482545 3.43568596,0.82571897 3.45510549,0.832147113 C3.47863204,0.839934734 3.49198367,0.815836669 3.48063966,0.66592395 C3.46981046,0.624126546 3.41250219,0.598267939 3.27898551,0.598267939 C3.03501497,0.598267939 2.93478261,0.624371417 2.93478261,0.647313538 L2.93478261,1.00581941 L3.05317996,1.1126658 C3.110242,1.16416081 3.06982834,1.25220926 2.98913043,1.25220926 L2.93478261,1.25220926 L2.93478261,1.52671031 C3.00922694,1.5847536 3.07576875,1.61187699 3.13405797,1.61187699 C3.35230068,1.61187699 3.47492419,1.53055565 3.47830108,1.43447854 C3.47737068,1.40630974 3.47610104,1.38553426 3.47517497,1.37140318 C3.46955378,1.37312698 3.46328312,1.37517496 3.45637156,1.37756903 C3.43640002,1.38448687 3.41435986,1.38480262 3.39415506,1.37846033 C3.36214735,1.36841311 3.36792301,1.36320093 3.36954368,1.43026076 C3.37063447,1.47539526 3.33097445,1.51278199 3.28096055,1.51376636 C3.23094666,1.51475073 3.18951812,1.47895998 3.18842733,1.43382548 C3.18460054,1.27548085 3.27340995,1.18443961 3.42083232,1.21541124 C3.5078227,1.18933837 3.56867883,1.19236151 3.61614724,1.24600475 C3.65101692,1.28541038 3.65568573,1.31775715 3.65937904,1.43450966 C3.65266877,1.63510514 3.4411766,1.77536232 3.13405797,1.77536232 C3.01566798,1.77536232 2.89837451,1.72243722 2.78168047,1.62197819 C2.76376203,1.60655265 2.75362319,1.58517923 2.75362319,1.56283139 L2.75362319,1.1704666 C2.75362319,1.14402264 2.76753751,1.12051148 2.78911942,1.10557043 L2.78015337,1.09747912 C2.76316638,1.0821494 2.75362319,1.06135783 2.75362319,1.03967833 L2.75362319,0.647313538 C2.75362319,0.479785731 2.92642656,0.434782609 3.27898551,0.434782609 C3.48676138,0.434782609 3.62268983,0.496116178 3.65916767,0.641212819 C3.67972449,0.889085468 3.60627842,1.03697227 3.42472649,0.994700029 C3.36855821,1.01081437 3.32697426,1.01898809 3.29502193,1.01898809 Z M3.5041648,1.3639717 C3.50555549,1.36412055 3.50685324,1.36416791 3.50803699,1.36411547 C3.50763088,1.36413346 3.50720264,1.36416102 3.50675232,1.36419826 L3.5041648,1.3639717 Z M3.29502193,3.62768374 C3.19774234,3.62768374 3.15133609,3.54562895 3.20278781,3.47338837 C3.2298362,3.43541118 3.28587812,3.42441242 3.32796095,3.44882194 C3.33173794,3.45101272 3.33527411,3.45341428 3.33856272,3.45599857 C3.35405647,3.45212003 3.37299358,3.4468534 3.39482436,3.4401728 C3.41441342,3.4341782 3.43568596,3.43441462 3.45510549,3.44084276 C3.47863204,3.44863039 3.49198367,3.42453232 3.48063966,3.2746196 C3.46981046,3.2328222 3.41250219,3.20696359 3.27898551,3.20696359 C3.03501497,3.20696359 2.93478261,3.23306707 2.93478261,3.25600919 L2.93478261,3.61451506 L3.05317996,3.72136146 C3.110242,3.77285646 3.06982834,3.86090491 2.98913043,3.86090491 L2.93478261,3.86090491 L2.93478261,4.13540596 C3.00922694,4.19344925 3.07576875,4.22057264 3.13405797,4.22057264 C3.35230068,4.22057264 3.47492419,4.1392513 3.47830108,4.0431742 C3.47737068,4.0150054 3.47610104,3.99422991 3.47517497,3.98009883 C3.46955378,3.98182263 3.46328312,3.98387062 3.45637156,3.98626468 C3.43640002,3.99318252 3.41435986,3.99349827 3.39415506,3.98715598 C3.36214735,3.97710877 3.36792301,3.97189658 3.36954368,4.03895642 C3.37063447,4.08409091 3.33097445,4.12147764 3.28096055,4.12246201 C3.23094666,4.12344638 3.18951812,4.08765563 3.18842733,4.04252114 C3.18460054,3.8841765 3.27340995,3.79313527 3.42083232,3.82410689 C3.5078227,3.79803403 3.56867883,3.80105717 3.61614724,3.8547004 C3.65101692,3.89410603 3.65568573,3.9264528 3.65937904,4.04320531 C3.65266877,4.24380079 3.4411766,4.38405797 3.13405797,4.38405797 C3.01566798,4.38405797 2.89837451,4.33113287 2.78168047,4.23067385 C2.76376203,4.2152483 2.75362319,4.19387488 2.75362319,4.17152704 L2.75362319,3.77916225 C2.75362319,3.75271829 2.76753751,3.72920713 2.78911942,3.71426609 L2.78015337,3.70617478 C2.76316638,3.69084505 2.75362319,3.67005349 2.75362319,3.64837398 L2.75362319,3.25600919 C2.75362319,3.08848138 2.92642656,3.04347826 3.27898551,3.04347826 C3.48676138,3.04347826 3.62268983,3.10481183 3.65916767,3.24990847 C3.67972449,3.49778112 3.60627842,3.64566792 3.42472649,3.60339568 C3.36855821,3.61951002 3.32697426,3.62768374 3.29502193,3.62768374 Z M0.657354161,1.01898809 C0.625401837,1.01898809 0.583817884,1.01081437 0.527649605,0.994700029 C0.346097671,1.03697227 0.272651609,0.889085468 0.293208427,0.641212819 C0.329686266,0.496116178 0.465614717,0.434782609 0.673390588,0.434782609 C1.02594953,0.434782609 1.19875291,0.479785731 1.19875291,0.647313538 L1.19875291,1.03967833 C1.19875291,1.06135783 1.18920971,1.0821494 1.17222272,1.09747912 L1.16325668,1.10557043 C1.18483858,1.12051148 1.19875291,1.14402264 1.19875291,1.1704666 L1.19875291,1.56283139 C1.19875291,1.58517923 1.18861407,1.60655265 1.17069562,1.62197819 C1.05400159,1.72243722 0.936708119,1.77536232 0.818318124,1.77536232 C0.51119949,1.77536232 0.299707321,1.63510514 0.292997051,1.43450966 C0.296690366,1.31775715 0.301359172,1.28541038 0.336228854,1.24600475 C0.383697265,1.19236151 0.444553392,1.18933837 0.53154377,1.21541124 C0.678966147,1.18443961 0.76777556,1.27548085 0.763948763,1.43382548 C0.762857974,1.47895998 0.721429439,1.51475073 0.67141554,1.51376636 C0.621401641,1.51278199 0.581741624,1.47539526 0.582832413,1.43026076 C0.584453083,1.36320093 0.590228746,1.36841311 0.558221039,1.37846033 C0.538016239,1.38480262 0.51597608,1.38448687 0.496004536,1.37756903 C0.489092973,1.37517496 0.482822315,1.37312698 0.477201125,1.37140318 C0.476275055,1.38553426 0.475005411,1.40630974 0.474075014,1.43447854 C0.477451906,1.53055565 0.600075413,1.61187699 0.818318124,1.61187699 C0.876607344,1.61187699 0.943149153,1.5847536 1.01759349,1.52671031 L1.01759349,1.25220926 L0.96324566,1.25220926 C0.882547757,1.25220926 0.842134099,1.16416081 0.899196133,1.1126658 L1.01759349,1.00581941 L1.01759349,0.647313538 C1.01759349,0.624371417 0.917361129,0.598267939 0.673390588,0.598267939 C0.539873902,0.598267939 0.482565639,0.624126546 0.471736438,0.66592395 C0.460392428,0.815836669 0.473744059,0.839934734 0.4972706,0.832147113 C0.516690134,0.82571897 0.537962671,0.825482545 0.557551739,0.831477145 C0.579382516,0.838157746 0.59831963,0.84342438 0.613813376,0.847302917 C0.617101983,0.844718624 0.620638157,0.842317073 0.624415144,0.840126287 C0.666497973,0.815716764 0.722539899,0.826715528 0.74958829,0.864692715 C0.801040008,0.936933298 0.754633759,1.01898809 0.657354161,1.01898809 Z M0.657354161,3.62768374 C0.625401837,3.62768374 0.583817884,3.61951002 0.527649605,3.60339568 C0.346097671,3.64566792 0.272651609,3.49778112 0.293208427,3.24990847 C0.329686266,3.10481183 0.465614717,3.04347826 0.673390588,3.04347826 C1.02594953,3.04347826 1.19875291,3.08848138 1.19875291,3.25600919 L1.19875291,3.64837398 C1.19875291,3.67005349 1.18920971,3.69084505 1.17222272,3.70617478 L1.16325668,3.71426609 C1.18483858,3.72920713 1.19875291,3.75271829 1.19875291,3.77916225 L1.19875291,4.17152704 C1.19875291,4.19387488 1.18861407,4.2152483 1.17069562,4.23067385 C1.05400159,4.33113287 0.936708119,4.38405797 0.818318124,4.38405797 C0.51119949,4.38405797 0.299707321,4.24380079 0.292997051,4.04320531 C0.296690366,3.9264528 0.301359172,3.89410603 0.336228854,3.8547004 C0.383697265,3.80105717 0.444553392,3.79803403 0.53154377,3.82410689 C0.678966147,3.79313527 0.76777556,3.8841765 0.763948763,4.04252114 C0.762857974,4.08765563 0.721429439,4.12344638 0.67141554,4.12246201 C0.621401641,4.12147764 0.581741624,4.08409091 0.582832413,4.03895642 C0.584453083,3.97189658 0.590228746,3.97710877 0.558221039,3.98715598 C0.538016239,3.99349827 0.51597608,3.99318252 0.496004536,3.98626468 C0.489092973,3.98387062 0.482822315,3.98182263 0.477201125,3.98009883 C0.476275055,3.99422991 0.475005411,4.0150054 0.474075014,4.0431742 C0.477451906,4.1392513 0.600075413,4.22057264 0.818318124,4.22057264 C0.876607344,4.22057264 0.943149153,4.19344925 1.01759349,4.13540596 L1.01759349,3.86090491 L0.96324566,3.86090491 C0.882547757,3.86090491 0.842134099,3.77285646 0.899196133,3.72136146 L1.01759349,3.61451506 L1.01759349,3.25600919 C1.01759349,3.23306707 0.917361129,3.20696359 0.673390588,3.20696359 C0.539873902,3.20696359 0.482565639,3.2328222 0.471736438,3.2746196 C0.460392428,3.42453232 0.473744059,3.44863039 0.4972706,3.44084276 C0.516690134,3.43441462 0.537962671,3.4341782 0.557551739,3.4401728 C0.579382516,3.4468534 0.59831963,3.45212003 0.613813376,3.45599857 C0.617101983,3.45341428 0.620638157,3.45101272 0.624415144,3.44882194 C0.666497973,3.42441242 0.722539899,3.43541118 0.74958829,3.47338837 C0.801040008,3.54562895 0.754633759,3.62768374 0.657354161,3.62768374 Z"/>
              </g>
            </g>
          </g>
        </g>
      </g>
    </g>
  </g>
</svg>
