<svg xmlns="http://www.w3.org/2000/svg" xmlns:xlink="http://www.w3.org/1999/xlink" width="32" height="24" viewBox="0 0 32 24">
  <defs>
    <rect id="a" width="32" height="24"/>
    <rect id="c" width="32" height="24"/>
  </defs>
  <g fill="none" fill-rule="evenodd">
    <mask id="b" fill="white">
      <use xlink:href="#a"/>
    </mask>
    <g mask="url(#b)">
      <mask id="d" fill="white">
        <use xlink:href="#c"/>
      </mask>
      <g mask="url(#d)">
        <rect width="32" height="24" fill="#67BD23"/>
        <path fill="#FFFFFF" stroke="#FFFFFF" stroke-width=".5" d="M14.3310566 5.15284045C14.3106757 4.52041392 14.2311198 3.11621902 14.136737 3.04455969 14.0270327 2.96126766 13.3808318 1.74983272 13.2803123 1.57239811 13.1797928 1.39496351 12.6268904.548495689 12.6817577.809535927 12.7366249 1.07057617 12.4698722 1.07104657 12.308745 1.07104657 12.1476177 1.07104657 12.4698722 1.80220384 12.588006 2.03839501 12.7061398 2.27458618 13.0464316 2.13819436 13.2803123 2.04888122 13.514193 1.95956808 13.3337595 2.51206771 13.2118491 2.69367319 13.0899386 2.87527867 12.9111367 2.80186502 12.8202552 2.69367319 12.7293738 2.58548136 12.6961694 2.43670974 12.588006 2.56951914 12.4798426 2.70232854 12.2637272 3.13484499 11.9320462 3.19590282 11.6003652 3.25696064 11.3924981 2.69458263 11.1897068 2.62430498 10.9869155 2.55402732 10.8368463 3.0479152 10.3741908 3.19590282 9.9115354 3.34389043 9.70508829 2.71233236 9.66097695 2.56951914 9.61686561 2.42670592 9.70508829 1.96524423 9.66097695 1.80220384 9.61686561 1.63916345 9.44957487 1.89633954 9.40878699 2.04888122 9.36799911 2.2014229 9.21533158 2.88067258 8.85736504 2.92997043 8.4993985 2.97926827 8.36522148 2.57914665 8.15475601 2.13819436 7.94429054 1.69724208 8.17227868 1.1427965 8.29222628.858582892 8.41217387.574369284 8.60200269.988820772 8.49102943 1.34140071 8.38005618 1.69398065 8.60200269 2.04888122 8.74324961 2.296029 8.88449653 2.54317678 9.02090934 2.13819436 9.02090934 1.80220384 9.02090934 1.46621332 9.40878699.809535927 9.75406396.604630003 10.0993409.399724078 10.1743302 1.07104657 10.0609399 1.49321424 9.94754959 1.91538191 10.1294938 2.36596169 10.3741908 2.52454897 10.6188879 2.68313625 10.8486899 2.1951754 10.9266098 2.03839501 11.0045298 1.88161463 10.9490583 1.42227802 10.8486899 1.14395845 10.7483215.865638881 10.704059.244241437 11.1251108.120181468 11.5461626-.00387850132 11.4482415 1.07104657 11.3840988 1.42227802 11.3199561 1.77350948 11.4046136 2.04888122 11.5496674 2.296029 11.6947212 2.54317678 11.9951617 2.37041481 12.1555638 2.13819436 12.3159659 1.90597392 11.9951617 1.39897758 11.7817957 1.18689023 11.5684298.974802873 11.6103658.604630003 11.9951617.244241437 12.3799576-.116147129 12.4516234.405306149 12.5357371.604630003 12.6198508.803953856 12.6817577.597887613 12.7443293.4892881 12.806901.380688587 12.588006.314425009 12.8202552.120181468 13.0525044-.0740620734 13.5293903.4892881 13.6190934.752554895 13.7087966 1.01582169 13.8524605.747725462 13.8524605.4892881 13.8524605.230850738 14.136737.405306149 14.2710953.678859008 14.4054536.952411868 14.6197259 1.07104657 14.7051086 1.34140071 14.7904912 1.61175485 14.7051086 1.57239811 14.5278474 1.89380626 14.3505863 2.21521441 14.9949744 3.29412219 15.3241175 3.8275236 15.6532606 4.36092502 15.8902533 5.04645357 16.1644083 5.31730947 16.4385633 5.58816538 15.9917698 2.34520141 15.8902533 1.93827467 15.7887368 1.53134794 15.8872924.693127786 16.0971536.405306149 16.3070148.117484512 16.3749946.693127786 16.6061864.988820772 16.8373782 1.28451376 16.7118119 1.45404566 16.6061864 1.57239811 16.5005609 1.69075057 16.4730064 1.45404566 16.3749946 1.68482354 16.2769829 1.91560143 16.5134317 2.46637626 16.5134317 2.56951914 16.5134317 2.67266202 16.9588052 6.16227201 16.4232754 7.17839717 15.8877456 8.19452233 14.9762724 8.08369626 14.7678917 8.08369626 14.5595109 8.08369626 14.5328326 7.75601612 14.7051086 7.71286483 14.8773845 7.66971353 15.1963155 7.41265601 15.7942961 7.01498046 16.3922766 6.61730491 16.314115 5.89329771 16.314115 5.61874133 16.314115 5.34418495 16.2472833 5.46372909 16.1644083 5.61874133 16.0815334 5.77375357 16.0663361 6.38182304 15.9419482 6.24898228 15.8175603 6.11614152 14.8412797 4.1541375 14.7678917 4.09038272 14.6945037 4.02662794 14.6596074 4.2743402 14.7678917 4.52797949 14.876176 4.78161878 14.8412797 6.05395474 14.8412797 6.38182304 14.8412797 6.70969133 14.7095499 6.9251342 14.6197259 7.07704181 14.5299019 7.22894941 14.2206089 7.31973647 14.2710953 7.17839717 14.3215816 7.03705787 14.3361142 5.7702099 14.3361142 5.3908172 14.3361142 5.35456907 14.3352956 5.30459022 14.3337192 5.24376263 14.2220939 5.33144662 13.9629951 5.48434063 13.8925837 5.73819139 13.759585 6.21768505 13.2241157 6.21066042 12.6772257 6.29890732 12.1303357 6.38715423 11.8100451 6.46662035 11.6555044 6.70900141 11.5009636 6.95138248 12.1080384 7.17864805 12.3378101 7.35489098 12.5675818 7.53113391 12.3627965 7.80249157 11.5365246 7.73566351 10.7102528 7.66883546 9.97456023 6.65920181 9.97456023 6.65920181 9.97456023 6.65920181 8.78391664 7.96336812 8.24832643 8.11925844 7.89126629 8.22318532 7.54178968 7.95319704 7.19989659 7.30929361 6.90672739 7.38202779 6.69954509 7.47034787 6.57834969 7.57425384 6.39655659 7.7301128 5.72854173 7.92071859 5.47006741 7.96336812 5.2977512 7.99180115 5.39929792 7.83893183 5.77470757 7.50476019 6.34499266 7.08152628 6.75759481 6.81627335 7.01251404 6.70900141 7.39489288 6.5480935 7.48356875 6.11792904 7.59466286 5.87742957 7.70575696 5.6369301 7.7674222 5.91208232 7.7674222 6.11792904 7.7674222 6.32377576 8.07372408 5.91208232 8.5012113 5.50496742 8.92869851 5.09785253 8.55514194 4.64169067 8.33594484 4.38547987 8.11674774 4.12926906 7.96921647 3.87387361 8.33594484 3.4640304 8.70267322 3.05418719 8.90072105 3.47274847 9.03946027 3.84176102 9.1781995 4.21077358 9.01450413 4.14821047 8.90072105 4.14821047 8.78693796 4.14821047 8.97126898 4.34204633 9.15463317 5.34315007 9.33799735 6.34425381 8.13176373 6.70900141 7.88295765 6.86990932 7.63415157 7.03081724 7.76527706 7.15490857 7.98459501 7.35489098 8.20391296 7.55487339 9.02078849 6.93209611 9.5969853 6.29890732 10.1731821 5.66571854 9.58674301 4.38547987 9.47317142 4.29491233 9.35959982 4.20434479 9.04399226 3.62221 9.31122842 3.21048519 9.57846458 2.79876039 9.76584713 3.25225665 9.92836418 3.62221 10.0908812 3.99216335 10.1632419 4.17649715 10.1632419 4.38547987 10.1632419 4.59446258 10.0302432 5.73819139 10.4444971 5.13940447 10.8587509 4.54061755 11.5365246 4.51107647 11.7576554 4.47391493 11.9787861 4.43675339 12.0448927 4.51107647 12.0448927 4.09743871 12.0448927 3.68380095 12.2139056 3.2563648 12.7514597 3.16165775 13.2890137 3.06695069 13.3838833 3.38171053 13.4339164 4.09743871 13.4839496 4.81316689 12.6772257 4.83370766 12.2139056 4.99684213 11.7505855 5.1599766 12.2237853 5.13940447 12.5135606 5.23081873 12.8033358 5.32223299 13.2596767 5.13940447 14.0457347 5.13940447 14.1894543 5.13940447 14.2799461 5.14339232 14.3310566 5.15284045zM5.10386644 1.22109489C5.0965886 1.12765905 5.09089948 1.02938073 5.08679907.926259903 5.04092026.78997309 5.21416225.570715284 5.60652504.268486484 5.85092416.213172488 5.9954874.584067582 6.04021474 1.38117176 6.12736649 1.66521156 6.02533561 1.75128253 5.73412211 1.63938467 5.59159193 1.62687272 5.66836248 2.20529801 5.96443374 3.37466053 5.9859518 3.77500538 6.09402789 3.86906905 6.288662 3.65685154 6.4382809 3.59772794 6.51839789 3.76040188 6.52901299 4.14487337 6.62951458 4.29804197 6.77515731 4.11437784 6.9659412 3.59388099 7.09972741 3.40321391 7.27162002 3.52517734 7.48161904 3.9597713 7.58147292 4.0946762 7.73488807 3.96972483 7.94186448 3.58491721 8.22096957 3.40620183 7.94186448 3.95495327 7.94186448 4.26560429 7.94186448 4.57625531 7.89096598 4.59569551 7.55286613 4.75065686 7.32746623 4.85396443 7.17977244 4.81949123 7.10978477 4.64723725 7.05562978 4.58239923 6.83996338 4.66163532 6.46278558 4.8849455 6.32025541 4.93794385 6.20509059 4.90586099 6.11729114 4.78869691 6.00971883 4.64897398 6.03071513 5.35515181 6.03071513 6.13550493 6.03071513 6.91585805 4.8461782 7.89425469 3.74891896 8.08417479 2.65165973 8.27409489 2.13425469 7.41525267 2.08713445 6.88364446 2.04001421 6.35203625 2.16313135 5.84093269 2.39193168 5.84093269 2.54446523 5.84093269 2.62073201 6.01047887 2.62073201 6.34957121 2.70622852 7.04601961 3.10067835 7.40974368 3.80408149 7.44074342 4.50748462 7.47174316 5.09394177 6.87658548 5.56345293 5.65527039 5.60386227 5.44962632 5.61821964 5.21854753 5.60652504 4.96203401 5.47892797 4.69177603 5.45361366 5.42322052 5.08793255 6.24357451 4.72225143 7.0639285 3.94376897 7.01345121 3.48692396 7.00420731 3.03007895 6.99496341 2.66110536 6.23433061 2.62073201 5.84093269 2.59381644 5.57866741 2.62452826 5.34478744 2.71286746 5.13929277 2.95539545 4.88569248 3.07237742 4.98033506 3.06381337 5.42322052 3.05096731 6.0875487 3.3798914 6.19679478 3.96994688 6.24357451 4.56000237 6.29035424 4.99568915 5.38534855 5.08793255 5.04197973 5.14942815 4.81306718 4.99324228 4.87650461 4.61937495 5.232292 4.46700332 5.3762167 4.13505663 5.24187204 3.96994688 4.8849455 3.80483714 4.52801896 4.13505663 4.10638514 4.40660521 3.81567853 4.58763761 3.62187413 4.78076041 3.60422668 4.98597364 3.7627362 5.25153099 3.80863823 5.43819478 3.92227282 5.54596501 4.10363998 5.67809598 4.20257771 5.67253655 3.9781844 5.52928671 3.43046006 5.4379249 3.19968006 5.33650574 2.71557989 5.22502923 1.97815955 5.1911453 1.85879844 5.16315249 1.72148086 5.14105081 1.56620682 5.11492889 1.60935531 5.0972228 1.69262876 5.08793255 1.81602717 5.26292205 2.57712369 5.22529742 3.07611764 4.97505865 3.31300904 4.5997005 3.66834614 4.5997005 3.66834614 4.17108885 3.31300904 3.7424772 2.95767194 3.72022844 3.31300904 3.72022844 3.73892196 3.72022844 4.16483488 3.72022844 4.9678221 3.72022844 5.45695069 3.72022844 5.94607928 3.15281322 5.52325048 3.17391366 5.87084019 3.18798062 6.10256666 3.21912889 5.80156063 3.26735846 4.9678221 3.27692782 4.8102918 3.17668877 4.41611842 2.96664132 3.78530195 2.78233544 3.62846694 2.58152241 3.35259027 2.36420224 2.95767194 2.31415449 2.66456229 2.23578142 2.59548139 2.12908306 2.75042922 2.12908306 3.05895364 2.03108374 3.71583767 1.52941003 3.52245086 1.19496089 3.39352632 1.12164666 2.72984501 1.30946735 1.53140694 1.44386145 1.54509017 1.51717568 1.70431605 1.52941003 2.00908459 1.54164438 2.31385313 1.6288681 2.57966657 1.79108118 2.80652491 1.87571409 3.02796764 1.93294566 2.78433956 1.96277588 2.07564066 1.9636035 1.78555031 2.14236894 1.51114658 2.4990722 1.25242947 2.69723268 1.14590988 2.79383006 1.31896686 2.78886436 1.77160043 2.88353663 2.07140154 2.87984834 2.33394694 2.77779947 2.55923662 2.76488143 2.85451849 2.86590478 2.92729318 3.0808695 2.7775607 3.23214363 2.76994149 3.17573968 2.33949328 2.91165765 1.48621607 2.78362878 1.18368848 2.754986.898789651 2.82572933.631519595 2.83875532.470134196 2.94533809.36828324 3.14547766.325966726 3.28286221.339561794 3.35218419.650773049 3.35344361 1.25960049 3.35344361 1.83289028 3.51115877 2.34612274 3.65019856 2.45256763 3.78923834 2.55901253 3.62688132 2.1302637 3.51115877 2.00998097 3.39543622 1.88969824 3.51115877 1.53140694 3.51115877 1.18570533 3.51115877.84000371 3.72022844 1.00631767 3.94895058 1.18570533 4.17767272 1.36509298 4.09392762 1.69070231 4.09392762 2.00998097 4.09392762 2.32925963 4.25358589 2.54573493 4.51790181 2.75042922 4.78221774 2.95512351 4.72246733 2.54573493 4.72246733 2.34612274 4.72246733 2.14651055 4.51790181 1.81602717 4.37702687 1.53140694 4.23615194 1.24678672 4.35473517 1.18570533 4.51790181.912422067 4.68106845.639138808 4.97505865.931974313 5.08793255 1.18570533 5.0933446 1.19787117 5.09865993 1.20966512 5.10386644 1.22109489zM2.81164184 4.05517954C2.88195337 4.05517954 2.96279003 4.10390142 3.05415184 4.20134519 3.19119454 4.34751083 2.71648379 4.64395292 2.40369824 4.7360347 2.0909127 4.82811648 1.6777875 5.06663013 1.34362783 5.21968668 1.00946816 5.37274323 1.51122043 4.81939785 1.99251615 4.39681163 2.31337996 4.11508747 2.58642186 4.00121011 2.81164184 4.05517954zM1.40251464 6.16693419C1.43975744 6.55786706 1.44137669 6.85890069 1.40737239 7.07003507 1.3733681 7.28116945 1.44693612 7.34850985 1.62807646 7.27205628 1.79404981 7.08796263 1.94280511 7.4281381 1.94280511 7.4281381 1.94280511 7.4281381 1.84349097 7.92327493 1.62807646 7.97470462 1.41266195 8.02613431 1.08789394 7.92327493 1.01087151 7.4281381.959523229 7.09804689 1.09007094 6.67764558 1.40251464 6.16693419zM4.59542416 4.30162336C4.38526082 4.36768832 4.33271999 4.44962142 4.43780166 4.54742266 4.59542416 4.69412451 4.8370697 4.71209376 4.8370697 4.54742266 4.8370697 4.43764192 4.75652119 4.35570882 4.59542416 4.30162336zM3.83027674.228401735C3.83027674.1930785 3.88612068.175416882 3.99780856.175416882 4.16534039.175416882 4.11234698.305968361 4.15801337.354137247 4.20367977.402306133 4.15801337.228401735 4.23617313.228401735 4.31433288.228401735 4.33024491.309292516 4.33024491.439436316 4.33024491.569580116 4.437653.465621876 4.437653.354137247 4.437653.242652619 4.53745813.228401735 4.6258693.228401735 4.71428047.228401735 4.53745813.784156128 4.15801337.784156128 3.9050502.784156128 3.79580466.598904663 3.83027674.228401735zM10.9135011 3.5525357C10.9122683 3.51723398 10.9674619 3.4976342 11.0790817 3.49373635 11.2465115 3.48788957 11.1981065 3.62021097 11.2454262 3.66675677 11.2927458 3.71330258 11.2410381 3.54109786 11.3191502 3.53837012 11.3972624 3.53564239 11.4159877 3.61592857 11.4205297 3.74599309 11.4250717 3.87605761 11.5287862 3.76841421 11.5248955 3.65699749 11.5210047 3.54558078 11.6202517 3.52785543 11.708609 3.52476992 11.7969663 3.52168442 11.6396472 4.08327127 11.2604336 4.0965137 11.0076246 4.10534199 10.8919804 3.92401599 10.9135011 3.5525357zM14.9969099 2.21090037C14.9956771 2.17559865 15.0508707 2.15599887 15.1624905 2.15210102 15.3299203 2.14625424 15.2815153 2.27857563 15.328835 2.32512144 15.3761546 2.37166725 15.3244469 2.19946253 15.402559 2.19673479 15.4806712 2.19400705 15.4993965 2.27429324 15.5039385 2.40435776 15.5084804 2.53442228 15.612195 2.42677888 15.6083043 2.31536216 15.6044135 2.20394545 15.7036605 2.18622009 15.7920178 2.18313459 15.8803751 2.18004908 15.723056 2.74163594 15.3438424 2.75487837 15.0910334 2.76370665 14.9753892 2.58238065 14.9969099 2.21090037zM1.66090223.239223845C1.70367924.181859672 1.83470906.110836202 2.02711699.239223845 2.21952491.367611487 2.15380113.936951411 2.02711699 1.19893245 1.90043285 1.46091349 1.96977225.878653261 1.85547554.594093059 1.74117883.309532857 1.61812523.296588018 1.66090223.239223845zM6.63312914 5.29086714C6.78773032 5.14981008 6.97556606 5.35591481 7.16364352 5.59164757 7.35172098 5.82738033 7.17690713 6.00788821 7.08366906 6.17767099 6.99043098 6.34745377 6.73709292 6.31703461 6.83184165 6.17767099 6.92659039 6.03830736 6.80591869 5.68365767 6.63312914 5.59164757 6.46033958 5.49963747 6.47852796 5.43192421 6.63312914 5.29086714zM19.3314707 4.78310583C19.4860719 4.64204877 19.6565132 4.84859873 19.7344153 5.15339055 19.8123174 5.45818237 19.6878955 5.65535325 19.5946574 5.82513603 19.5014193 5.99491881 19.236722 5.84167079 19.3314707 5.70230717 19.4262194 5.56294354 19.5042603 5.17589635 19.3314707 5.08388626 19.1586811 4.99187616 19.1768695 4.92416289 19.3314707 4.78310583zM21.5292606 1.23456588C21.6838618 1.09350882 21.8543031 1.30005878 21.9322052 1.6048506 22.0101072 1.90964242 21.8856854 2.1068133 21.7924473 2.27659608 21.6992092 2.44637886 21.4345118 2.29313085 21.5292606 2.15376722 21.6240093 2.0144036 21.7020501 1.62735641 21.5292606 1.53534631 21.356471 1.44333621 21.3746594 1.37562295 21.5292606 1.23456588zM14.9668708.415528287C15.1214719.274471224 15.3093077.480575955 15.4973851.716308712 15.6854626.95204147 15.5906232 1.36110292 15.4973851 1.5308857 15.4041471 1.70066848 15.150809 1.67024933 15.2455577 1.5308857 15.3403065 1.39152207 15.1396603.808318811 14.9668708.716308712 14.7940812.624298614 14.8122696.55658535 14.9668708.415528287zM12.7189502 3.83426599C12.5056749 3.93104281 12.3829487 3.98723984 12.4949492 4.06466756 12.6069497 4.14209528 12.8724939 4.16051141 12.8724939 4.06466756 12.8724939 3.96882371 12.9322255 3.73748918 12.7189502 3.83426599zM11.0623579 5.70642375C10.9427336 5.73343513 10.8072373 5.74694081 10.6558689 5.74694081 10.4288164 5.74694081 10.2730671 5.67076749 10.3739189 5.92152166 10.4747707 6.17227584 10.6858102 6.72521451 10.9040103 6.79376736 11.1222104 6.86232022 11.1555658 6.72317611 11.1992239 6.52338186 11.2428821 6.32358761 11.2371113 6.23841398 11.5278534 6.10055563 11.8185955 5.96269728 11.8630392 5.74694081 11.6175868 5.74694081 11.4539518 5.74694081 11.2688755 5.73343513 11.0623579 5.70642375zM7.95181364.847387389C7.86670292.847387389 7.76110763.761367041 7.76110763.704793689 7.76110763.648220336 7.70131562.543634896 7.6273838.704793689 7.55345199.865952481 7.89894046.940212846 7.95181364.98969885 8.00468682 1.03918485 7.95181364 1.39076127 7.70131562 1.56772548 7.45081759 1.74468969 7.12949982 2.24321884 6.97559345 2.29515092 6.82168708 2.347083 6.48468863 2.29515092 6.28446545 2.29515092 6.08424227 2.29515092 6.4305465 2.10460786 6.53269748 2.04201339 6.63484846 1.97941893 7.27944806 1.43504153 7.48976247 1.18726655 7.70007687.939491567 7.34630998.707239765 7.27944806.485650346 7.21258615.264060927 7.76295064.171988108 7.95181364.246436634 8.14067664.320885159 8.03692435.847387389 7.95181364.847387389zM7.61155206 2.67454362L7.80929776 2.60304293C7.96545995 2.63461195 7.99554227 2.70018561 7.89954472 2.79976391 7.75554839 2.94913136 7.59034236 3.11527638 7.45773643 3.03220387 7.32513049 2.94913136 7.084059 2.75909005 7.13623728 2.60304293 7.18841555 2.44699581 7.30392079 2.18768037 7.45773643 2.18768037 7.61155206 2.18768037 7.41785494 2.3993914 7.45773643 2.53696751 7.48432408 2.62868492 7.53559596 2.67454362 7.61155206 2.67454362zM9.05154557.0450116635C9.14278957.0450116635 9.05154557.28773769 8.88529349.391162811 8.7190414.494587932 8.95652491.526637803 9.09689565.602905205 9.23726639.679172608 9.05154557.876301265 8.83819474.940275566 8.6248439 1.00424987 8.6248439.800159302 8.6248439.526637803 8.6248439.253116303 8.96030157.0450116635 9.05154557.0450116635zM10.4389378.0729847404C10.5688548-.124802475 10.6747522.121498586 10.7160839.312857011 10.7574156.504215437 10.5695195.751551377 10.3748857.962729292 10.180252 1.17390721 10.2032443.819320232 10.2032443.686918516 10.2032443.5545168 10.3090209.270771956 10.4389378.0729847404zM17.0462111 6.08707477C17.2245318 5.72124937 17.1644876 6.08707477 17.1644876 6.52322848 17.1644876 6.95938219 17.3267103 7.03540553 17.528531 7.29802186 17.7303517 7.56063818 17.9004422 7.29802186 17.9004422 7.13894419 17.9004422 6.97986652 18.2590506 6.2434196 18.5185861 5.96307345 18.7781217 5.6827273 18.9933488 5.85132182 18.9933488 5.96307345 18.9933488 6.07482508 19.2452753 6.43919985 19.5369552 6.52322848 19.7314084 6.57924757 19.8635547 6.35527868 19.9333941 5.85132182 19.9333941 4.87446216 19.9333941 4.11387055 19.9333941 3.569547 19.9333941 2.75306167 19.6823551 2.75080515 19.5369552 2.59338579 19.3915552 2.43596643 18.8775568 1.99175371 18.713419 1.75181007 18.5492811 1.51186643 18.5869122 1.02198598 18.5869122.574872017 18.5869122.127758053 19.2045385.77398333 19.3505596 1.02198598 19.4965807 1.26998863 19.3505596 1.38910082 19.3505596 1.63387987 19.3505596 1.87865891 19.5369552 1.82079521 19.5369552 1.63387987 19.5369552 1.44696453 19.4251489.67861836 19.6823551.574872017 19.9395614.471125674 19.9333941.67861836 20.1627599 1.20836406 20.3921257 1.73810975 20.1627599 1.82079521 20.1627599 2.30884895 20.1627599 2.7969027 20.6432682 3.20560204 20.7611824 3.40444472 20.8790966 3.6032874 20.6432682 2.11494913 20.439791 1.82079521 20.2363139 1.52664129 20.3476544.840443313 20.6432682.471394308 20.9388819.102345303 21.0959284.840443313 21.2920035 1.20836406 21.4880786 1.5762848 21.205043 1.82079521 21.0959284 1.99175371 20.9868137 2.16271221 21.2920035 2.43328009 21.2920035 3.06242027 21.2920035 3.69156044 21.5435677 4.32268382 21.9143919 4.82986896 22.2852161 5.33705411 22.3517305 5.93239548 22.4348606 6.52322848 22.5179906 7.11406149 22.5240986 5.59483034 22.4348606 4.82986896 22.3456226 4.06490758 22.0541498 1.37443342 22.1722711.67861836 22.2903923-.0171967022 22.4254916.827387714 22.6973983 1.20836406 22.969305 1.5893404 23 1.59782922 22.8573434 1.82079521 22.7146869 2.0437612 22.6010172 1.78044643 22.6010172 1.99175371 22.6010172 2.20306099 23 5.02430605 23 6.2434196 23 7.46253315 22.3517305 7.9379611 21.7906803 8.14658205 21.2296301 8.355203 20.925165 8.14658205 20.925165 7.9379611 20.925165 7.72934016 20.6432682 8.14658205 20.439791 8.14658205 20.2363139 8.14658205 20.3053647 7.9070145 20.439791 7.66927366 20.5742174 7.43153282 20.439791 7.5520419 20.439791 7.41509243 20.439791 7.27814296 20.439791 7.13894419 20.6432682 7.13894419 20.8467453 7.13894419 21.0265153 7.13894419 20.8306472 7.41509243 20.6347792 7.69124068 20.7820425 7.51771051 21.0265153 7.66927366 21.2709881 7.8208368 21.1070055 7.70177834 21.2920035 7.80772748 21.4770015 7.91367662 21.922208 7.54016829 22.3517305 7.13894419 22.781253 6.73772008 22.3023494 6.77047896 22.1722711 6.61843227 22.0421927 6.46638559 21.6635006 5.75477486 21.5435677 5.66376176 21.4236347 5.57274865 21.6635006 6.34727339 21.5435677 6.52322848 21.4236347 6.69918357 21.1510551 6.92402999 21.0265153 6.92402999 20.9434888 6.92402999 20.9434888 6.17296593 21.0265153 4.6708378 20.5613114 4.02493488 20.3657366 3.82317305 20.439791 4.0655523 20.5508727 4.42912118 20.3287094 6.77047896 20.0126496 7.13894419 19.6965897 7.50740942 19.0392101 7.03540553 18.8775568 6.77047896 18.7159036 6.50555238 18.5211742 6.76301094 18.4477755 7.03540553 18.3743767 7.30780012 18.2137069 7.90277009 17.8222814 8.14658205 17.4308558 8.39039402 17.1718379 7.55870402 16.977885 7.29802186 16.7839321 7.03733969 16.8678904 6.45290017 17.0462111 6.08707477zM19.1318126 4.03525042C19.1318126 4.03525042 19.553105 3.71928344 19.6360797 3.86595745 19.7190545 4.01263146 19.553105 4.24328037 19.3329087 4.48319715 19.1127124 4.72311392 18.5162568 5.00797312 18.3679064 4.93114388 18.2195561 4.85431463 18.258533 4.752395 18.3679064 4.61367255 18.4772799 4.47495009 19.1318126 4.03525042 19.1318126 4.03525042zM18.1935197 2.59338579C18.3368664 2.59338579 18.4854547 2.65671171 18.6392846 2.78336356 18.8700294 2.97334132 18.6392846 2.49538821 18.7450457 2.25474612 18.8508067 2.01410404 19.2110088 2.29530981 19.3039736 2.59338579 19.3969385 2.89146177 19.2110088 2.77954896 19.0345515 2.85659311 18.8580942 2.93363726 19.0345515 3.41852112 19.0345515 3.7149853 19.0345515 4.01144947 18.3194571 3.34760182 18.0546935 3.03625534 17.8781845 2.82869102 17.9244599 2.68106784 18.1935197 2.59338579zM3.78350613 11.6410856C5.01111121 11.9372489 9.12049152 11.9541217 9.93369957 11.8556514 10.7469076 11.7571812 16.9150113 11.8556514 17.1133914 11.8556514 17.0279972 11.7832619 16.9853001 11.71174 16.9853001 11.6410856 16.9853001 11.535104 17.0760561 11.3961506 17.2460382 11.3961506 17.4160203 11.3961506 17.6202213 11.4265198 17.6202213 11.6410856 17.6202213 11.8556514 17.3089519 11.9425752 17.4645866 11.9425752 17.6202213 11.9425752 18.2804267 12.1297449 18.6238758 12.03616 18.967325 11.9425752 20.0175634 13.112226 20.0175634 14.0053994 20.0175634 14.8985727 19.6939661 13.5970489 19.5203137 13.5970489 19.3466613 13.5970489 19.6180996 14.8885367 19.0346735 14.8885367 18.4512474 14.8885367 18.7528972 14.6764527 18.2033367 14.8885367 17.6537763 15.1006208 16.6450755 15.1561098 16.5094976 15.1006208 16.3739198 15.0451317 16.0663219 14.4551781 16.1247475 14.1805035 16.183173 13.9058289 16.2457902 13.7691843 15.873053 13.7691843 15.5003157 13.7691843 12.3782654 13.4914253 10.4389378 13.5970489 8.49961024 13.7026724 6.39292496 13.8356962 5.90581592 13.7691843 5.41870688 13.7026724 4.02164032 13.413869 3.84367261 13.1256172 3.66570489 12.8373655 3.50847334 11.5830816 3.78350613 11.6410856zM17.2339698 13.3741091C16.8130731 13.8928632 16.793855 13.7176945 17.0139124 13.7176945 17.2339698 13.7176945 17.5275121 13.9538298 17.5932241 13.9538298 17.658936 13.9538298 17.7622333 13.7820371 17.9031161 13.7820371 18.0439989 13.7820371 18.1087599 13.9538298 18.2453386 13.9538298 18.3819173 13.9538298 18.8506933 13.7176945 18.6483026 13.5459018 18.4459119 13.3741091 18.1346686 13.3741091 17.8990465 13.3741091 17.6634245 13.3741091 17.6548664 12.855355 17.2339698 13.3741091z" transform="translate(4 4)"/>
      </g>
    </g>
  </g>
</svg>
