<svg width="32" height="24" viewBox="0 0 32 24" fill="none" xmlns="http://www.w3.org/2000/svg">
<g clip-path="url(#clip0_270_67381)">
<rect width="32" height="24" fill="white"/>
<path fill-rule="evenodd" clip-rule="evenodd" d="M0 0V24H32V0H0Z" fill="#3D58DB"/>
<mask id="mask0_270_67381" style="mask-type:luminance" maskUnits="userSpaceOnUse" x="0" y="0" width="32" height="24">
<path fill-rule="evenodd" clip-rule="evenodd" d="M0 0V24H32V0H0Z" fill="white"/>
</mask>
<g mask="url(#mask0_270_67381)">
<path fill-rule="evenodd" clip-rule="evenodd" d="M0 0V8H32V0H0Z" fill="#F7FCFF"/>
<path fill-rule="evenodd" clip-rule="evenodd" d="M0 16V24H32V16H0Z" fill="#E31D1C"/>
<path d="M15.6039 6.03033L16.1011 5.97744L16.0535 5.53033H15.6039H6.34483H5.87741L5.84596 5.99669L6.34483 6.03033L5.84595 5.99679L5.84594 5.997L5.84589 5.9978L5.84568 6.00087L5.84489 6.01279L5.84183 6.05905L5.8305 6.23524C5.82084 6.38762 5.8073 6.60687 5.79171 6.87482C5.76054 7.41057 5.72116 8.14179 5.68834 8.92296C5.62366 10.4626 5.58077 12.2649 5.69278 13.1067C5.91136 14.7491 6.91149 18.4363 10.7798 20.1072L10.9816 20.1944L11.1822 20.1047C14.8564 18.4618 16.0853 15.1531 16.3687 13.1094C16.5118 12.078 16.4391 10.2731 16.3387 8.77332C16.2878 8.0133 16.2284 7.31495 16.1818 6.80676C16.1585 6.55256 16.1384 6.34569 16.1241 6.20217C16.1169 6.1304 16.1112 6.07445 16.1073 6.03634L16.1027 5.99277L16.1015 5.98148L16.1012 5.97854L16.1011 5.97776L16.1011 5.97754C16.1011 5.97748 16.1011 5.97744 15.6039 6.03033Z" fill="#E31D1C" stroke="white"/>
<mask id="mask1_270_67381" style="mask-type:luminance" maskUnits="userSpaceOnUse" x="5" y="5" width="12" height="16">
<path d="M15.6039 6.03033L16.1011 5.97744L16.0535 5.53033H15.6039H6.34483H5.87741L5.84596 5.99669L6.34483 6.03033L5.84595 5.99679L5.84594 5.997L5.84589 5.9978L5.84568 6.00087L5.84489 6.01279L5.84183 6.05905L5.8305 6.23524C5.82084 6.38762 5.8073 6.60687 5.79171 6.87482C5.76054 7.41057 5.72116 8.14179 5.68834 8.92296C5.62366 10.4626 5.58077 12.2649 5.69278 13.1067C5.91136 14.7491 6.91149 18.4363 10.7798 20.1072L10.9816 20.1944L11.1822 20.1047C14.8564 18.4618 16.0853 15.1531 16.3687 13.1094C16.5118 12.078 16.4391 10.2731 16.3387 8.77332C16.2878 8.0133 16.2284 7.31495 16.1818 6.80676C16.1585 6.55256 16.1384 6.34569 16.1241 6.20217C16.1169 6.1304 16.1112 6.07445 16.1073 6.03634L16.1027 5.99277L16.1015 5.98148L16.1012 5.97854L16.1011 5.97776L16.1011 5.97754C16.1011 5.97748 16.1011 5.97744 15.6039 6.03033Z" fill="white" stroke="white"/>
</mask>
<g mask="url(#mask1_270_67381)">
<path fill-rule="evenodd" clip-rule="evenodd" d="M10.2571 6.58972C10.2571 6.58972 10.4636 6.90434 10.556 7.38543C10.6485 7.86651 10.6644 8.70943 10.6644 8.70943L8.70555 8.46824V9.95353L10.7082 9.69849L10.6756 11.1082C10.6756 11.1082 10.0765 11.1703 9.58514 11.1082C9.09376 11.0461 8.12573 10.7859 8.12573 10.7859V12.4863C8.12573 12.4863 9.10923 12.1717 9.58514 12.0995C10.061 12.0273 10.6756 12.0995 10.6756 12.0995V14.1878H11.4887V12.0995C11.4887 12.0995 12.3774 12.0222 12.9076 12.1058C13.4378 12.1895 13.9407 12.4863 13.9407 12.4863V10.7859C13.9407 10.7859 13.4312 11.0398 12.9506 11.1029C12.4701 11.1661 11.4887 11.1082 11.4887 11.1082L11.5212 9.69849C11.5212 9.69849 12.1865 9.62961 12.5597 9.68028C12.9329 9.73094 13.4 9.95353 13.4 9.95353V8.46824C13.4 8.46824 12.9447 8.71598 12.5865 8.76092C12.2283 8.80586 11.4775 8.70943 11.4775 8.70943C11.4775 8.70943 11.4908 7.83956 11.5678 7.416C11.6448 6.99244 11.8629 6.58972 11.8629 6.58972H10.2571Z" fill="#F7FCFF"/>
<path fill-rule="evenodd" clip-rule="evenodd" d="M6.89734 16.2452C6.89734 16.2452 7.33683 15.302 8.05197 15.1226C8.7671 14.9433 9.51698 15.6839 9.51698 15.6839C9.51698 15.6839 9.97488 14.1875 11.091 14.1875C12.2071 14.1875 12.5988 15.6839 12.5988 15.6839C12.5988 15.6839 13.075 15.1226 13.7598 15.1226C14.4445 15.1226 15.079 16.2452 15.079 16.2452C15.079 16.2452 13.0336 19.9587 10.9882 19.9587C8.94275 19.9587 6.89734 16.2452 6.89734 16.2452Z" fill="#2E42A5"/>
</g>
</g>
</g>
<defs>
<clipPath id="clip0_270_67381">
<rect width="32" height="24" fill="white"/>
</clipPath>
</defs>
</svg>
