<svg width="32" height="24" viewBox="0 0 32 24" fill="none" xmlns="http://www.w3.org/2000/svg">
<g clip-path="url(#clip0_270_67527)">
<rect width="32" height="24" fill="white"/>
<path fill-rule="evenodd" clip-rule="evenodd" d="M0 0V24H32V0H0Z" fill="#F7FCFF"/>
<mask id="mask0_270_67527" style="mask-type:luminance" maskUnits="userSpaceOnUse" x="0" y="0" width="32" height="24">
<path fill-rule="evenodd" clip-rule="evenodd" d="M0 0V24H32V0H0Z" fill="white"/>
</mask>
<g mask="url(#mask0_270_67527)">
<path fill-rule="evenodd" clip-rule="evenodd" d="M0 12V24H32V12H0Z" fill="#56C6F5"/>
<path fill-rule="evenodd" clip-rule="evenodd" d="M10.2542 9.02848C10.2468 8.94397 10.2291 8.87092 10.1985 8.81396C9.94164 8.33521 10.0246 7.73614 10.0246 7.73614C10.0246 7.73614 9.7179 8.4377 9.53793 9.09821C9.34874 8.79062 9.2826 8.48247 9.2826 8.48247C9.2826 8.48247 9.16016 10.42 9.5345 10.8791C9.90884 11.3382 10.1584 11.5399 10.1584 11.5399C10.1584 11.5399 10.1867 10.7354 10.0778 10.1062C10.1546 9.84367 10.2238 9.55612 10.2487 9.30854C10.2978 9.27216 10.4273 9.17494 10.5893 9.04273C10.521 9.41951 10.5176 9.62423 10.5176 9.62423C10.5176 9.62423 11.9282 8.60003 11.9641 8.0579C11.9999 7.51577 12.3878 7.05171 12.3878 7.05171C12.3878 7.05171 12.0671 7.27116 11.7009 7.56544C11.7977 7.11037 12.0974 6.75171 12.0974 6.75171C12.0974 6.75171 10.4952 7.84811 10.3639 8.42574C10.3068 8.67699 10.2735 8.87966 10.2542 9.02848ZM10.3228 12.3589C10.1692 12.0688 9.50063 10.8529 9.03431 10.7471C8.50447 10.6269 8.10679 10.1712 8.10679 10.1712C8.10679 10.1712 8.93906 11.9252 9.48903 12.1453C9.9307 12.322 10.2215 12.3925 10.3189 12.4134C10.3029 12.6499 10.3001 12.8132 10.3001 12.8132C10.3001 12.8132 10.5599 12.6249 10.9577 12.186C11.3556 11.7471 11.3347 9.8058 11.3347 9.8058C11.3347 9.8058 11.177 10.3897 10.7535 10.73C10.4694 10.9583 10.3624 11.8178 10.3228 12.3589ZM9.07138 12.1754C9.67669 12.1718 10.6079 13.6561 10.6079 13.6561C10.6079 13.6561 10.2471 13.6759 9.61691 13.5763C8.98668 13.4767 8.00439 11.7854 8.00439 11.7854C8.00439 11.7854 8.46606 12.1789 9.07138 12.1754ZM12.022 15.6323C12.022 15.6323 12.3812 13.7408 11.8418 13.2999C11.3025 12.8589 11.2073 12.2 11.2073 12.2C11.2073 12.2 10.7282 14.2975 11.2073 14.8407C11.6865 15.3838 12.022 15.6323 12.022 15.6323ZM9.84571 15.1216C10.1979 15.5392 11.3201 15.1216 11.3201 15.1216C11.3201 15.1216 11.5674 15.3462 10.6774 14.5328C9.78746 13.7194 7.97654 14.2331 8.4639 14.2331C8.95126 14.2331 9.49348 14.704 9.84571 15.1216ZM10.6774 17.342C11.3304 17.8949 12.7412 16.5801 12.7412 16.5801C12.7412 16.5801 12.378 16.1403 11.7049 15.8161C11.0317 15.4919 8.54871 15.8161 8.54871 15.8161L9.65372 16.3079C9.65372 16.3079 8.42371 16.789 8.7502 16.7622C9.07669 16.7353 10.0245 16.789 10.6774 17.342Z" fill="#006923"/>
<path fill-rule="evenodd" clip-rule="evenodd" d="M19.2134 16.1964C19.2134 16.1964 18.6521 15.253 19.2134 14.7973C19.7748 14.3415 19.997 14.6447 19.997 14.1207C19.997 13.5967 20.0538 13.7527 20.3296 13.4926C20.6054 13.2325 20.41 12.6007 20.7794 12.9166C21.1488 13.2325 21.2178 12.6267 21.2178 13.8851C21.2178 15.1436 21.2178 12.7437 21.2178 12.0369C21.2178 11.3301 20.7794 11.4974 20.7794 11.0234C20.7794 10.5494 20.341 9.8414 20.7794 9.8414C21.2178 9.8414 21.4755 10.3681 21.4755 10.3681C21.4755 10.3681 21.9062 11.1023 21.9062 10.3681C21.9062 9.63397 21.1393 9.85223 20.7794 9.04209C20.4195 8.23195 20.4763 9.13295 19.997 8.08903C19.5176 7.04511 18.9468 6.71385 19.4719 6.71385C19.997 6.71385 19.8798 6.71385 20.3296 6.71385C20.7794 6.71385 21.4755 6.34022 21.4755 6.71385C21.4755 7.08747 21.4755 6.91626 21.4755 7.50264C21.4755 8.08903 21.9062 8.08903 21.9062 8.08903C21.9062 8.08903 22.1404 6.91626 22.4346 7.50264C22.7287 8.08903 22.5284 9.04209 22.7437 9.04209C22.959 9.04209 22.7808 8.05718 23.251 8.81154C23.7211 9.56591 23.251 10.0771 23.251 10.3681C23.251 10.6591 22.7437 11.3721 22.7437 11.3721C22.7437 11.3721 22.8428 11.7208 23.251 11.3721C23.6591 11.0234 24.0464 10.6747 24.0464 11.0234C24.0464 11.3721 24.8418 11.4804 24.0464 12.0369C23.251 12.5934 23.7582 13.1505 23.251 13.1505C22.7437 13.1505 22.1461 13.8851 21.9062 13.8851C21.6663 13.8851 20.7693 14.4476 21.2178 14.4476C21.6663 14.4476 22.1254 13.3227 22.4346 13.8851C22.7437 14.4476 22.7397 13.7938 22.9953 14.1207C23.251 14.4476 23.5066 16.2213 23.251 15.5093C22.9953 14.7973 22.5946 14.7973 21.9062 14.7973C21.2178 14.7973 19.8798 14.8487 20.3296 15.179C20.7794 15.5093 21.2846 14.8487 21.4755 15.179C21.6663 15.5093 21.6108 15.8396 21.9062 15.5093C22.2016 15.179 22.4921 15.5093 22.7437 15.5093C22.9953 15.5093 22.4921 15.879 22.7437 16.1964C22.9953 16.5138 23.556 16.9365 22.9953 16.9365C22.4346 16.9365 22.1461 16.4882 21.9062 16.9365C21.6663 17.3849 21.6562 18.1635 21.2178 17.55C20.7794 16.9365 19.997 17.2479 19.997 16.9365C19.997 16.6252 20.1681 16.5749 19.6908 16.5749C19.2134 16.5749 19.2134 16.1964 19.2134 16.1964Z" fill="#009933"/>
<path fill-rule="evenodd" clip-rule="evenodd" d="M21.5162 9.45001C21.5162 9.58808 21.4078 9.70001 21.2742 9.70001C21.1406 9.70001 21.0323 9.58808 21.0323 9.45001C21.0323 9.31194 21.1406 9.20001 21.2742 9.20001C21.4078 9.20001 21.5162 9.31194 21.5162 9.45001ZM10.3387 10C10.4724 10 10.5807 9.88808 10.5807 9.75001C10.5807 9.61194 10.4724 9.50001 10.3387 9.50001C10.2051 9.50001 10.0968 9.61194 10.0968 9.75001C10.0968 9.88808 10.2051 10 10.3387 10ZM10.5807 11.05C10.5807 11.1881 10.4724 11.3 10.3387 11.3C10.2051 11.3 10.0968 11.1881 10.0968 11.05C10.0968 10.9119 10.2051 10.8 10.3387 10.8C10.4724 10.8 10.5807 10.9119 10.5807 11.05ZM10.7258 13.6C10.8595 13.6 10.9678 13.4881 10.9678 13.35C10.9678 13.2119 10.8595 13.1 10.7258 13.1C10.5922 13.1 10.4839 13.2119 10.4839 13.35C10.4839 13.4881 10.5922 13.6 10.7258 13.6ZM12.6613 16.1C12.7949 16.1 12.9033 15.9881 12.9033 15.85C12.9033 15.7119 12.7949 15.6 12.6613 15.6C12.5277 15.6 12.4194 15.7119 12.4194 15.85C12.4194 15.9881 12.5277 16.1 12.6613 16.1ZM21.9516 12.3C22.0853 12.3 22.1936 12.1881 22.1936 12.05C22.1936 11.9119 22.0853 11.8 21.9516 11.8C21.818 11.8 21.7097 11.9119 21.7097 12.05C21.7097 12.1881 21.818 12.3 21.9516 12.3ZM21.4194 14.05C21.4194 14.1881 21.3111 14.3 21.1774 14.3C21.0438 14.3 20.9355 14.1881 20.9355 14.05C20.9355 13.9119 21.0438 13.8 21.1774 13.8C21.3111 13.8 21.4194 13.9119 21.4194 14.05ZM19.1452 16.5C19.2788 16.5 19.3871 16.3881 19.3871 16.25C19.3871 16.1119 19.2788 16 19.1452 16C19.0116 16 18.9033 16.1119 18.9033 16.25C18.9033 16.3881 19.0116 16.5 19.1452 16.5ZM13 16.55C13 16.6881 12.8917 16.8 12.7581 16.8C12.6245 16.8 12.5162 16.6881 12.5162 16.55C12.5162 16.4119 12.6245 16.3 12.7581 16.3C12.8917 16.3 13 16.4119 13 16.55Z" fill="#C51918"/>
<path fill-rule="evenodd" clip-rule="evenodd" d="M18.0378 19.8199C18.0378 19.615 14.9373 17.4782 14.1051 17.0069C13.2729 16.5356 9.20906 13.9416 10.3157 10.0002H10.1483C10.1483 10.0002 9.39933 14.8567 14.5594 17.8755C16.9088 19.4516 17.0258 19.8199 17.0258 19.8199C17.0258 19.8199 18.0378 20.0247 18.0378 19.8199Z" fill="#FECA00"/>
<path fill-rule="evenodd" clip-rule="evenodd" d="M13.9244 19.8199C13.9244 19.615 17.0249 17.4782 17.8571 17.0069C18.6893 16.5356 22.7531 13.9416 21.6464 10.0002H21.8139C21.8139 10.0002 22.5628 14.8567 17.4028 17.8755C15.0533 19.4516 14.9364 19.8199 14.9364 19.8199C14.9364 19.8199 13.9244 20.0247 13.9244 19.8199Z" fill="#FECA00"/>
<path fill-rule="evenodd" clip-rule="evenodd" d="M16.0484 16.8857C18.213 16.8857 19.9677 14.0838 19.9677 11.35C19.9677 8.6162 18.213 7.20001 16.0484 7.20001C13.8838 7.20001 12.129 8.6162 12.129 11.35C12.129 14.0838 13.8838 16.8857 16.0484 16.8857Z" fill="#56C6F5"/>
<path fill-rule="evenodd" clip-rule="evenodd" d="M14.3132 9.53886C14.3132 9.53886 14.9169 9.00647 14.6151 9.00647C14.5565 9.00647 14.4853 8.99504 14.4084 8.98272C14.089 8.93148 13.6731 8.86476 13.6731 9.53886V10.6973L13.673 10.7H13.5839C13.5287 10.7 13.4839 10.7448 13.4839 10.8C13.4839 10.8552 13.5287 10.9 13.5839 10.9H13.6622C13.6488 11.1474 13.6251 11.5874 13.6019 12.0272L13.4874 12.0372C13.4283 12.0424 13.3845 12.0946 13.3897 12.1537L13.3971 12.2384C13.4023 12.2975 13.4544 12.3413 13.5136 12.3361L13.586 12.3298C13.5591 12.8436 13.5364 13.2933 13.5364 13.3483C13.5364 13.4835 14.4547 13.4312 14.4547 13.4312C14.4547 13.4312 14.4262 12.8891 14.3947 12.259L14.4562 12.2536C14.5154 12.2485 14.5591 12.1963 14.554 12.1371L14.5466 12.0525C14.5414 11.9934 14.4892 11.9496 14.4301 11.9548L14.3798 11.9592C14.3613 11.5818 14.3432 11.1987 14.3305 10.9H14.4484C14.5037 10.9 14.5484 10.8552 14.5484 10.8C14.5484 10.7448 14.5037 10.7 14.4484 10.7H14.3224C14.3166 10.5507 14.3132 10.4386 14.3132 10.382V9.53886Z" fill="white"/>
<path fill-rule="evenodd" clip-rule="evenodd" d="M13.871 11H14.1936V11.4301H13.871V11Z" fill="black"/>
<path fill-rule="evenodd" clip-rule="evenodd" d="M13.7743 12.5H14.3119V13.5H13.7743V12.5Z" fill="black"/>
<path fill-rule="evenodd" clip-rule="evenodd" d="M16.3455 9.53886C16.3455 9.53886 16.9491 9.00647 16.6473 9.00647C16.5887 9.00647 16.5175 8.99504 16.4406 8.98272C16.1213 8.93148 15.7054 8.86476 15.7054 9.53886V10.6973L15.7052 10.7H15.6162C15.5609 10.7 15.5162 10.7448 15.5162 10.8C15.5162 10.8552 15.5609 10.9 15.6162 10.9H15.6944C15.681 11.1474 15.6573 11.5874 15.6341 12.0272L15.5197 12.0372C15.4605 12.0424 15.4167 12.0946 15.4219 12.1537L15.4293 12.2384C15.4345 12.2975 15.4867 12.3413 15.5458 12.3361L15.6182 12.3298C15.5913 12.8436 15.5687 13.2933 15.5687 13.3483C15.5687 13.4835 16.4869 13.4312 16.4869 13.4312C16.4869 13.4312 16.4584 12.8891 16.4269 12.259L16.4885 12.2536C16.5476 12.2485 16.5914 12.1963 16.5862 12.1371L16.5788 12.0525C16.5736 11.9934 16.5215 11.9496 16.4623 11.9548L16.4121 11.9592C16.3935 11.5818 16.3754 11.1987 16.3627 10.9H16.4807C16.5359 10.9 16.5807 10.8552 16.5807 10.8C16.5807 10.7448 16.5359 10.7 16.4807 10.7H16.3546C16.3489 10.5507 16.3455 10.4386 16.3455 10.382V9.53886Z" fill="white"/>
<path fill-rule="evenodd" clip-rule="evenodd" d="M15.9032 11H16.2258V11.4301H15.9032V11Z" fill="black"/>
<path fill-rule="evenodd" clip-rule="evenodd" d="M15.8065 12.5H16.3442V13.5H15.8065V12.5Z" fill="black"/>
<path fill-rule="evenodd" clip-rule="evenodd" d="M18.2809 9.53886C18.2809 9.53886 18.8845 9.00647 18.5827 9.00647C18.5242 9.00647 18.4529 8.99504 18.3761 8.98272C18.0567 8.93148 17.6408 8.86476 17.6408 9.53886V10.6973L17.6406 10.7H17.5516C17.4964 10.7 17.4516 10.7448 17.4516 10.8C17.4516 10.8552 17.4964 10.9 17.5516 10.9H17.6298C17.6164 11.1474 17.5928 11.5874 17.5695 12.0272L17.4551 12.0372C17.3959 12.0424 17.3522 12.0946 17.3573 12.1537L17.3648 12.2384C17.3699 12.2975 17.4221 12.3413 17.4812 12.3361L17.5536 12.3298C17.5268 12.8436 17.5041 13.2933 17.5041 13.3483C17.5041 13.4835 18.4224 13.4312 18.4224 13.4312C18.4224 13.4312 18.3938 12.8891 18.3623 12.259L18.4239 12.2536C18.483 12.2485 18.5268 12.1963 18.5216 12.1371L18.5142 12.0525C18.509 11.9934 18.4569 11.9496 18.3977 11.9548L18.3475 11.9592C18.329 11.5818 18.3108 11.1987 18.2982 10.9H18.4161C18.4713 10.9 18.5161 10.8552 18.5161 10.8C18.5161 10.7448 18.4713 10.7 18.4161 10.7H18.29C18.2843 10.5507 18.2809 10.4386 18.2809 10.382V9.53886Z" fill="white"/>
<path fill-rule="evenodd" clip-rule="evenodd" d="M17.8386 11H18.1612V11.4301H17.8386V11Z" fill="black"/>
<path fill-rule="evenodd" clip-rule="evenodd" d="M17.7419 12.5H18.2796V13.5H17.7419V12.5Z" fill="black"/>
<path fill-rule="evenodd" clip-rule="evenodd" d="M18.5161 6.40002H13.3871V7.16566L13.3527 7.16874C13.3527 7.16874 10.8398 9.12146 11.5372 12.0467C12.2346 14.9719 15.0048 17.1412 15.0048 17.1412L15.1444 16.6363C15.1444 16.6363 12.5048 13.0472 12.5048 11.613C12.5048 10.1788 13.0028 8.8327 13.5301 8.6234C13.8473 8.49751 13.902 8.52305 13.9884 8.56341C14.0457 8.59015 14.1169 8.6234 14.2876 8.6234C14.7159 8.6234 15.1444 8.31682 15.1444 8.31682C15.1444 8.31682 15.4424 8.6234 15.7192 8.6234C15.996 8.6234 15.9999 8.31682 15.9999 8.31682V7.30002H16.0309V8.31682C16.0309 8.31682 16.0347 8.6234 16.3115 8.6234C16.5883 8.6234 16.8863 8.31682 16.8863 8.31682C16.8863 8.31682 17.3149 8.6234 17.7432 8.6234C17.9139 8.6234 17.9851 8.59015 18.0423 8.56341C18.1288 8.52305 18.1835 8.49751 18.5006 8.6234C19.0279 8.8327 19.5259 10.1788 19.5259 11.613C19.5259 13.0472 16.8863 16.6363 16.8863 16.6363L17.026 17.1412C17.026 17.1412 19.7961 14.9719 20.4935 12.0467C21.1909 9.12146 18.678 7.16874 18.678 7.16874L18.5161 7.15426V6.40002Z" fill="#E8AA00"/>
<path d="M13.3871 6.40002V5.90002H12.8871V6.40002H13.3871ZM18.5161 6.40002H19.0161V5.90002H18.5161V6.40002ZM13.3871 7.16566L13.4316 7.66368L13.8871 7.62295V7.16566H13.3871ZM13.3527 7.16874L13.3082 6.67072L13.1619 6.6838L13.0459 6.77393L13.3527 7.16874ZM11.5372 12.0467L11.0508 12.1626L11.5372 12.0467ZM15.0048 17.1412L14.6965 17.5348L15.2868 17.9971L15.4867 17.2745L15.0048 17.1412ZM15.1444 16.6363L15.6263 16.7696L15.6911 16.5357L15.5472 16.3401L15.1444 16.6363ZM13.5301 8.6234L13.3457 8.15867L13.3457 8.15867L13.5301 8.6234ZM13.9884 8.56341L13.7769 9.01645L13.7769 9.01645L13.9884 8.56341ZM15.1444 8.31682L15.503 7.96833L15.2033 7.65998L14.8535 7.91016L15.1444 8.31682ZM15.9999 8.31682L16.4999 8.32315V8.31682H15.9999ZM15.9999 7.30002V6.80002H15.4999V7.30002H15.9999ZM16.0309 7.30002H16.5309V6.80002H16.0309V7.30002ZM16.0309 8.31682H15.5308L15.5309 8.32315L16.0309 8.31682ZM16.8863 8.31682L17.1772 7.91016L16.8275 7.65998L16.5278 7.96833L16.8863 8.31682ZM18.0423 8.56341L18.2539 9.01645L18.2539 9.01645L18.0423 8.56341ZM18.5006 8.6234L18.3162 9.08813L18.5006 8.6234ZM16.8863 16.6363L16.4835 16.3401L16.3397 16.5357L16.4044 16.7696L16.8863 16.6363ZM17.026 17.1412L16.5441 17.2745L16.744 17.9971L17.3342 17.5348L17.026 17.1412ZM18.678 7.16874L18.9848 6.77393L18.8689 6.6838L18.7226 6.67072L18.678 7.16874ZM18.5161 7.15426H18.0161V7.61155L18.4716 7.65228L18.5161 7.15426ZM13.3871 6.90002H18.5161V5.90002H13.3871V6.90002ZM13.8871 7.16566V6.40002H12.8871V7.16566H13.8871ZM13.3972 7.66675L13.4316 7.66368L13.3426 6.66765L13.3082 6.67072L13.3972 7.66675ZM12.0236 11.9307C11.7158 10.6397 12.1112 9.55885 12.6058 8.77838C12.8532 8.38798 13.1215 8.07988 13.3277 7.86991C13.4304 7.76529 13.5168 7.68605 13.5759 7.63416C13.6054 7.60824 13.6281 7.58922 13.6425 7.57735C13.6497 7.57142 13.6548 7.56728 13.6577 7.56497C13.6592 7.56381 13.6601 7.56312 13.6604 7.56288C13.6605 7.56276 13.6605 7.56275 13.6604 7.56286C13.6603 7.56292 13.6602 7.56301 13.6601 7.56312C13.66 7.56318 13.6598 7.56328 13.6598 7.56331C13.6597 7.56343 13.6595 7.56355 13.3527 7.16874C13.0459 6.77393 13.0457 6.77407 13.0455 6.77421C13.0455 6.77427 13.0453 6.77442 13.0451 6.77454C13.0448 6.77477 13.0445 6.77503 13.0441 6.77533C13.0434 6.77591 13.0425 6.77662 13.0414 6.77745C13.0393 6.77911 13.0366 6.78126 13.0333 6.78389C13.0267 6.78914 13.0178 6.79633 13.0068 6.80541C12.9847 6.82358 12.9541 6.84937 12.9163 6.88256C12.8407 6.94888 12.7362 7.04505 12.6142 7.16921C12.3711 7.41679 12.0548 7.77969 11.7611 8.24312C11.1736 9.17031 10.6612 10.5284 11.0508 12.1626L12.0236 11.9307ZM15.0048 17.1412C15.3131 16.7475 15.3131 16.7476 15.3132 16.7476C15.3132 16.7476 15.3133 16.7477 15.3133 16.7477C15.3134 16.7478 15.3134 16.7478 15.3134 16.7477C15.3133 16.7477 15.3131 16.7475 15.3127 16.7472C15.3119 16.7466 15.3105 16.7455 15.3084 16.7438C15.3043 16.7405 15.2976 16.7352 15.2886 16.7278C15.2704 16.7131 15.2428 16.6904 15.2067 16.66C15.1346 16.5992 15.0292 16.5078 14.8997 16.3886C14.6403 16.1499 14.2865 15.8014 13.9119 15.3651C13.1565 14.4855 12.346 13.2832 12.0236 11.9307L11.0508 12.1626C11.4258 13.7353 12.3491 15.0803 13.1532 16.0166C13.5583 16.4883 13.9406 16.8649 14.2224 17.1244C14.3635 17.2543 14.4799 17.3552 14.562 17.4244C14.6031 17.4591 14.6356 17.4858 14.6584 17.5043C14.6698 17.5136 14.6788 17.5208 14.6852 17.5259C14.6884 17.5284 14.691 17.5304 14.6928 17.5319C14.6938 17.5327 14.6946 17.5333 14.6952 17.5338C14.6955 17.534 14.6957 17.5342 14.696 17.5344C14.6961 17.5345 14.6962 17.5346 14.6963 17.5346C14.6964 17.5347 14.6965 17.5348 15.0048 17.1412ZM14.6625 16.503L14.5229 17.0078L15.4867 17.2745L15.6263 16.7696L14.6625 16.503ZM12.0048 11.613C12.0048 12.0891 12.2131 12.6685 12.463 13.2118C12.7221 13.7754 13.0634 14.3773 13.3983 14.9238C13.7343 15.472 14.0696 15.9732 14.3204 16.3369C14.4459 16.519 14.5507 16.6672 14.6243 16.7701C14.6611 16.8216 14.6901 16.8618 14.7101 16.8894C14.7201 16.9031 14.7279 16.9137 14.7332 16.921C14.7358 16.9246 14.7379 16.9274 14.7393 16.9294C14.74 16.9303 14.7405 16.9311 14.7409 16.9316C14.7411 16.9319 14.7413 16.9321 14.7414 16.9323C14.7415 16.9323 14.7415 16.9324 14.7416 16.9325C14.7416 16.9325 14.7416 16.9326 15.1444 16.6363C15.5472 16.3401 15.5472 16.3401 15.5473 16.3401C15.5472 16.3401 15.5472 16.3401 15.5472 16.3401C15.5472 16.34 15.5471 16.3399 15.547 16.3397C15.5467 16.3394 15.5463 16.3389 15.5458 16.3381C15.5446 16.3366 15.5429 16.3342 15.5406 16.331C15.5359 16.3246 15.5288 16.3149 15.5194 16.302C15.5008 16.2762 15.4731 16.2379 15.4377 16.1885C15.367 16.0896 15.2655 15.9461 15.1436 15.7693C14.8995 15.4152 14.5748 14.9296 14.2509 14.4012C13.926 13.8711 13.6073 13.3068 13.3715 12.794C13.1264 12.2611 13.0048 11.854 13.0048 11.613H12.0048ZM13.3457 8.15867C13.0789 8.26456 12.8787 8.48274 12.7338 8.69634C12.582 8.91993 12.4529 9.19447 12.348 9.49312C12.1379 10.0912 12.0048 10.8426 12.0048 11.613H13.0048C13.0048 10.9492 13.1208 10.3104 13.2915 9.82461C13.3769 9.58129 13.4712 9.39043 13.5612 9.25793C13.6579 9.11546 13.7177 9.08689 13.7146 9.08813L13.3457 8.15867ZM14.2 8.11037C14.1403 8.08249 14.0084 8.01902 13.8123 8.03218C13.6649 8.04208 13.5099 8.09346 13.3457 8.15867L13.7146 9.08813C13.7853 9.06008 13.8317 9.04436 13.8615 9.03579C13.8919 9.02706 13.8943 9.02893 13.8793 9.02994C13.8707 9.03051 13.8576 9.03075 13.841 9.02915C13.8241 9.02752 13.8077 9.02437 13.7926 9.02023C13.7781 9.01625 13.7682 9.01225 13.7651 9.01098C13.7638 9.01044 13.7642 9.01055 13.7769 9.01645L14.2 8.11037ZM14.2876 8.1234C14.261 8.1234 14.2433 8.1221 14.2325 8.12089C14.222 8.11971 14.2175 8.11857 14.2175 8.11856C14.2174 8.11853 14.2177 8.11861 14.2184 8.11882C14.219 8.11903 14.2194 8.11917 14.2192 8.11909C14.2176 8.11849 14.2152 8.1175 14.2 8.11037L13.7769 9.01645C13.8093 9.03161 13.8779 9.06426 13.9734 9.0883C14.0669 9.11185 14.1694 9.1234 14.2876 9.1234V8.1234ZM15.1444 8.31682C14.8535 7.91016 14.8536 7.91009 14.8537 7.91003C14.8537 7.91001 14.8538 7.90994 14.8539 7.9099C14.854 7.90982 14.8541 7.90974 14.8542 7.90967C14.8544 7.90953 14.8546 7.9094 14.8547 7.9093C14.855 7.90908 14.8553 7.90893 14.8554 7.90885C14.8556 7.90869 14.8554 7.9088 14.8549 7.90916C14.8539 7.90988 14.8514 7.9116 14.8475 7.91416C14.8398 7.91931 14.8269 7.92778 14.8094 7.93848C14.7741 7.9601 14.7227 7.98954 14.6613 8.01882C14.5289 8.082 14.3936 8.1234 14.2876 8.1234V9.1234C14.6098 9.1234 14.903 9.01151 15.0919 8.9214C15.1912 8.87404 15.2737 8.82683 15.3321 8.79097C15.3616 8.77293 15.3854 8.75745 15.4028 8.74583C15.4115 8.74002 15.4187 8.73514 15.4241 8.73137C15.4268 8.72949 15.4291 8.72787 15.431 8.72656C15.4319 8.7259 15.4328 8.72531 15.4335 8.7248C15.4339 8.72454 15.4342 8.72431 15.4345 8.72409C15.4346 8.72398 15.4348 8.72388 15.4349 8.72378C15.435 8.72373 15.4351 8.72366 15.4351 8.72363C15.4352 8.72356 15.4353 8.72349 15.1444 8.31682ZM15.7192 8.1234C15.7394 8.1234 15.7379 8.1281 15.7101 8.11614C15.6841 8.10498 15.6515 8.08629 15.6154 8.06098C15.5804 8.03639 15.5498 8.01087 15.5279 7.9914C15.5173 7.98191 15.5094 7.97448 15.5049 7.97017C15.5027 7.96803 15.5014 7.96672 15.501 7.96635C15.5009 7.96617 15.5009 7.96623 15.5012 7.96656C15.5014 7.96672 15.5016 7.96695 15.5019 7.96724C15.5021 7.96739 15.5022 7.96755 15.5024 7.96774C15.5025 7.96783 15.5026 7.96792 15.5027 7.96802C15.5027 7.96807 15.5028 7.96815 15.5028 7.96817C15.5029 7.96825 15.503 7.96833 15.1444 8.31682C14.7859 8.66532 14.786 8.6654 14.786 8.66548C14.7861 8.66551 14.7862 8.6656 14.7862 8.66566C14.7863 8.66577 14.7865 8.6659 14.7866 8.66602C14.7868 8.66628 14.7871 8.66656 14.7874 8.66685C14.788 8.66744 14.7886 8.66811 14.7894 8.66885C14.7908 8.67033 14.7926 8.67212 14.7947 8.67418C14.7988 8.67831 14.8041 8.68358 14.8106 8.68982C14.8235 8.70228 14.8411 8.7188 14.8627 8.73805C14.9054 8.77606 14.9665 8.82719 15.0406 8.87924C15.1679 8.96866 15.4193 9.1234 15.7192 9.1234V8.1234ZM15.9999 8.31682C15.4999 8.3105 15.4999 8.31028 15.4999 8.31006C15.4999 8.30999 15.4999 8.30977 15.4999 8.30963C15.4999 8.30934 15.4999 8.30906 15.4999 8.30878C15.4999 8.30822 15.5 8.30767 15.5 8.30714C15.5 8.30608 15.5 8.30506 15.5 8.3041C15.5001 8.30218 15.5002 8.30046 15.5002 8.29892C15.5003 8.29584 15.5005 8.29342 15.5006 8.29154C15.5009 8.28795 15.5012 8.28573 15.5015 8.28423C15.5016 8.28369 15.5027 8.27489 15.5098 8.25963C15.5172 8.24373 15.5381 8.20598 15.5846 8.17195C15.6368 8.13376 15.6897 8.1234 15.7192 8.1234V9.1234C15.8871 9.1234 16.0443 9.07472 16.175 8.97904C16.3001 8.88753 16.3739 8.77313 16.4169 8.68059C16.4595 8.58869 16.479 8.50325 16.4884 8.44523C16.4934 8.41498 16.4961 8.38882 16.4977 8.36845C16.4985 8.35819 16.499 8.34918 16.4993 8.34162C16.4995 8.33783 16.4996 8.33439 16.4997 8.3313C16.4997 8.32976 16.4997 8.32831 16.4998 8.32695C16.4998 8.32627 16.4998 8.32561 16.4998 8.32498C16.4998 8.32466 16.4998 8.32435 16.4998 8.32405C16.4998 8.32389 16.4998 8.32367 16.4998 8.32359C16.4998 8.32337 16.4998 8.32315 15.9999 8.31682ZM15.4999 7.30002V8.31682H16.4999V7.30002H15.4999ZM16.0309 6.80002H15.9999V7.80002H16.0309V6.80002ZM15.5309 7.30002V8.31682H16.5309V7.30002H15.5309ZM16.0309 8.31682C15.5309 8.32315 15.5309 8.32337 15.5309 8.32359C15.5309 8.32367 15.5309 8.32389 15.5309 8.32405C15.5309 8.32435 15.5309 8.32466 15.5309 8.32498C15.5309 8.32561 15.531 8.32627 15.531 8.32695C15.531 8.32831 15.531 8.32976 15.5311 8.3313C15.5312 8.33439 15.5313 8.33783 15.5314 8.34162C15.5318 8.34918 15.5323 8.35819 15.5331 8.36845C15.5346 8.38882 15.5374 8.41498 15.5423 8.44523C15.5518 8.50325 15.5712 8.58869 15.6139 8.68059C15.6568 8.77313 15.7306 8.88753 15.8557 8.97904C15.9865 9.07472 16.1436 9.1234 16.3115 9.1234V8.1234C16.341 8.1234 16.3939 8.13376 16.4461 8.17195C16.4926 8.20598 16.5136 8.24373 16.5209 8.25963C16.528 8.27489 16.5292 8.28369 16.5293 8.28423C16.5295 8.28573 16.5298 8.28795 16.5301 8.29154C16.5302 8.29342 16.5304 8.29584 16.5305 8.29892C16.5306 8.30046 16.5307 8.30218 16.5307 8.3041C16.5307 8.30506 16.5308 8.30608 16.5308 8.30714C16.5308 8.30767 16.5308 8.30822 16.5308 8.30878C16.5308 8.30906 16.5308 8.30934 16.5308 8.30963C16.5308 8.30977 16.5308 8.30999 16.5308 8.31006C16.5308 8.31028 16.5308 8.3105 16.0309 8.31682ZM16.3115 9.1234C16.6115 9.1234 16.8629 8.96866 16.9902 8.87924C17.0642 8.82719 17.1254 8.77606 17.168 8.73805C17.1896 8.7188 17.2072 8.70228 17.2201 8.68982C17.2266 8.68358 17.232 8.67831 17.2361 8.67418C17.2382 8.67212 17.2399 8.67033 17.2414 8.66885C17.2421 8.66811 17.2428 8.66744 17.2434 8.66685C17.2436 8.66656 17.2439 8.66628 17.2442 8.66602C17.2443 8.6659 17.2444 8.66577 17.2445 8.66566C17.2446 8.6656 17.2447 8.66551 17.2447 8.66548C17.2448 8.6654 17.2449 8.66532 16.8863 8.31682C16.5278 7.96833 16.5278 7.96825 16.5279 7.96817C16.5279 7.96815 16.528 7.96807 16.5281 7.96802C16.5282 7.96792 16.5283 7.96783 16.5283 7.96774C16.5285 7.96755 16.5287 7.96739 16.5288 7.96724C16.5291 7.96695 16.5293 7.96672 16.5295 7.96656C16.5298 7.96623 16.5299 7.96617 16.5297 7.96635C16.5293 7.96672 16.528 7.96803 16.5258 7.97017C16.5213 7.97448 16.5135 7.98191 16.5028 7.9914C16.481 8.01087 16.4503 8.03639 16.4153 8.06098C16.3793 8.08629 16.3466 8.10498 16.3207 8.11614C16.2928 8.1281 16.2914 8.1234 16.3115 8.1234V9.1234ZM16.8863 8.31682C16.5954 8.72349 16.5955 8.72356 16.5956 8.72363C16.5956 8.72366 16.5957 8.72373 16.5958 8.72378C16.5959 8.72388 16.5961 8.72398 16.5962 8.72409C16.5966 8.72431 16.5969 8.72454 16.5972 8.7248C16.598 8.72531 16.5988 8.7259 16.5997 8.72656C16.6016 8.72787 16.6039 8.72949 16.6066 8.73137C16.6121 8.73514 16.6192 8.74002 16.6279 8.74583C16.6453 8.75745 16.6692 8.77293 16.6986 8.79097C16.7571 8.82683 16.8396 8.87404 16.9389 8.9214C17.1278 9.01151 17.4209 9.1234 17.7432 9.1234V8.1234C17.6372 8.1234 17.5018 8.082 17.3694 8.01882C17.308 7.98954 17.2566 7.9601 17.2213 7.93848C17.2039 7.92778 17.1909 7.91931 17.1832 7.91416C17.1794 7.9116 17.1769 7.90988 17.1758 7.90916C17.1753 7.9088 17.1751 7.90869 17.1754 7.90885C17.1755 7.90893 17.1757 7.90908 17.176 7.9093C17.1762 7.9094 17.1763 7.90953 17.1765 7.90967C17.1766 7.90974 17.1767 7.90982 17.1769 7.9099C17.1769 7.90994 17.177 7.91001 17.177 7.91003C17.1771 7.91009 17.1772 7.91016 16.8863 8.31682ZM17.7432 9.1234C17.8614 9.1234 17.9638 9.11185 18.0574 9.0883C18.1529 9.06426 18.2214 9.03161 18.2539 9.01645L17.8308 8.11037C17.8155 8.1175 17.8131 8.11849 17.8116 8.11909C17.8114 8.11917 17.8117 8.11903 17.8124 8.11882C17.813 8.11861 17.8134 8.11853 17.8132 8.11856C17.8132 8.11857 17.8088 8.11971 17.7983 8.12089C17.7874 8.1221 17.7697 8.1234 17.7432 8.1234V9.1234ZM18.2539 9.01645C18.2665 9.01055 18.267 9.01044 18.2657 9.01098C18.2626 9.01225 18.2526 9.01625 18.2381 9.02023C18.223 9.02437 18.2066 9.02752 18.1897 9.02915C18.1732 9.03075 18.16 9.03051 18.1515 9.02994C18.1364 9.02893 18.1389 9.02706 18.1693 9.03579C18.1991 9.04436 18.2455 9.06008 18.3162 9.08813L18.6851 8.15867C18.5208 8.09346 18.3659 8.04208 18.2184 8.03218C18.0223 8.01902 17.8905 8.08249 17.8308 8.11037L18.2539 9.01645ZM18.3162 9.08813C18.313 9.08689 18.3729 9.11546 18.4696 9.25793C18.5595 9.39043 18.6538 9.58129 18.7393 9.82461C18.91 10.3104 19.0259 10.9492 19.0259 11.613H20.0259C20.0259 10.8426 19.8929 10.0912 19.6827 9.49312C19.5778 9.19447 19.4487 8.91993 19.297 8.69634C19.152 8.48274 18.9519 8.26456 18.6851 8.15867L18.3162 9.08813ZM19.0259 11.613C19.0259 11.854 18.9043 12.2611 18.6592 12.794C18.4234 13.3068 18.1048 13.8711 17.7798 14.4012C17.4559 14.9296 17.1313 15.4152 16.8871 15.7693C16.7652 15.9461 16.6638 16.0896 16.593 16.1885C16.5576 16.2379 16.53 16.2762 16.5113 16.302C16.502 16.3149 16.4949 16.3246 16.4902 16.331C16.4878 16.3342 16.4861 16.3366 16.485 16.3381C16.4844 16.3389 16.484 16.3394 16.4838 16.3397C16.4836 16.3399 16.4836 16.34 16.4835 16.3401C16.4835 16.3401 16.4835 16.3401 16.4835 16.3401C16.4835 16.3401 16.4835 16.3401 16.8863 16.6363C17.2891 16.9326 17.2891 16.9325 17.2892 16.9325C17.2892 16.9324 17.2893 16.9323 17.2893 16.9323C17.2895 16.9321 17.2896 16.9319 17.2898 16.9316C17.2902 16.9311 17.2908 16.9303 17.2915 16.9294C17.2929 16.9274 17.2949 16.9246 17.2976 16.921C17.3029 16.9137 17.3106 16.9031 17.3206 16.8894C17.3406 16.8618 17.3696 16.8216 17.4065 16.7701C17.4801 16.6672 17.5848 16.519 17.7104 16.3369C17.9612 15.9732 18.2964 15.472 18.6324 14.9238C18.9674 14.3773 19.3086 13.7754 19.5678 13.2118C19.8176 12.6685 20.0259 12.0891 20.0259 11.613H19.0259ZM16.4044 16.7696L16.5441 17.2745L17.5079 17.0078L17.3682 16.503L16.4044 16.7696ZM17.026 17.1412C17.3342 17.5348 17.3343 17.5347 17.3345 17.5346C17.3345 17.5346 17.3347 17.5345 17.3348 17.5344C17.335 17.5342 17.3353 17.534 17.3356 17.5338C17.3362 17.5333 17.337 17.5327 17.3379 17.5319C17.3398 17.5304 17.3423 17.5284 17.3455 17.5259C17.3519 17.5208 17.3609 17.5136 17.3723 17.5043C17.3951 17.4858 17.4276 17.4591 17.4687 17.4244C17.5508 17.3552 17.6672 17.2543 17.8083 17.1244C18.0902 16.8649 18.4725 16.4883 18.8775 16.0166C19.6816 15.0803 20.6049 13.7353 20.9799 12.1626L20.0072 11.9307C19.6847 13.2832 18.8742 14.4855 18.1189 15.3651C17.7443 15.8014 17.3904 16.1499 17.1311 16.3886C17.0016 16.5078 16.8961 16.5992 16.824 16.66C16.788 16.6904 16.7603 16.7131 16.7422 16.7278C16.7331 16.7352 16.7265 16.7405 16.7223 16.7438C16.7203 16.7455 16.7188 16.7466 16.718 16.7472C16.7177 16.7475 16.7174 16.7477 16.7174 16.7477C16.7173 16.7478 16.7174 16.7478 16.7174 16.7477C16.7174 16.7477 16.7175 16.7476 16.7175 16.7476C16.7176 16.7476 16.7177 16.7475 17.026 17.1412ZM20.9799 12.1626C21.3695 10.5284 20.8572 9.17031 20.2697 8.24312C19.976 7.77969 19.6597 7.41679 19.4165 7.16921C19.2946 7.04505 19.19 6.94888 19.1145 6.88256C19.0766 6.84937 19.046 6.82358 19.0239 6.80541C19.0129 6.79633 19.004 6.78914 18.9974 6.78389C18.9942 6.78126 18.9914 6.77911 18.9893 6.77745C18.9883 6.77662 18.9874 6.77591 18.9866 6.77533C18.9863 6.77503 18.9859 6.77477 18.9856 6.77454C18.9855 6.77442 18.9853 6.77427 18.9852 6.77421C18.985 6.77407 18.9848 6.77393 18.678 7.16874C18.3712 7.56355 18.3711 7.56343 18.3709 7.56331C18.3709 7.56328 18.3708 7.56318 18.3707 7.56312C18.3705 7.56301 18.3704 7.56292 18.3704 7.56286C18.3702 7.56275 18.3702 7.56276 18.3704 7.56288C18.3707 7.56312 18.3716 7.56381 18.373 7.56497C18.3759 7.56728 18.381 7.57142 18.3882 7.57735C18.4027 7.58922 18.4253 7.60824 18.4548 7.63416C18.514 7.68605 18.6003 7.76529 18.7031 7.86991C18.9093 8.07988 19.1776 8.38798 19.425 8.77838C19.9195 9.55885 20.3149 10.6397 20.0072 11.9307L20.9799 12.1626ZM18.7226 6.67072L18.5607 6.65625L18.4716 7.65228L18.6335 7.66675L18.7226 6.67072ZM18.0161 6.40002V7.15426H19.0161V6.40002H18.0161Z" fill="#FFD018"/>
<path fill-rule="evenodd" clip-rule="evenodd" d="M13.1035 13.7849C13.1035 13.7849 13.418 12.9405 13.9679 13.222C14.5179 13.5035 14.4699 14.4833 14.9702 14.1341C15.4706 13.7849 15.1869 13.222 15.9283 13.222C16.6698 13.222 16.5606 14.1341 17.0052 14.1341C17.4499 14.1341 17.4884 13.222 17.9854 13.222C18.4825 13.222 18.9866 13.7849 18.9866 13.7849L16.0451 17.7874L13.1035 13.7849Z" fill="#8FC753"/>
<path fill-rule="evenodd" clip-rule="evenodd" d="M7.92888 18.4574L7.6125 18.031C7.6125 18.031 8.92457 18.031 9.10257 18.3396C9.15274 18.4265 9.17463 18.4929 9.19129 18.5435C9.23375 18.6723 9.24225 18.6981 9.59816 18.6981C10.0937 18.6981 9.59816 18.2064 9.3918 18.031C9.18545 17.8557 9.31111 17.55 9.59816 17.55C9.70878 17.55 9.90134 17.5246 10.138 17.4935C10.5155 17.4437 11.0052 17.3792 11.4539 17.3792C12.184 17.3792 11.5788 18.031 11.5788 18.031C11.5788 18.031 12.524 18.031 12.2894 17.7598C12.0547 17.4885 13.0773 17.1584 13.5191 17.1584C13.931 17.1584 15.7851 17.2509 16.0345 17.2634C16.2953 17.2509 18.2336 17.1584 18.6454 17.1584C19.0872 17.1584 20.1098 17.4885 19.8751 17.7598C19.6405 18.031 20.5857 18.031 20.5857 18.031C20.5857 18.031 19.9805 17.3792 20.7106 17.3792C21.1593 17.3792 21.649 17.4437 22.0265 17.4935C22.2632 17.5246 22.4557 17.55 22.5664 17.55C22.8534 17.55 22.9791 17.8557 22.7727 18.031C22.5664 18.2064 22.0708 18.6981 22.5664 18.6981C22.9223 18.6981 22.9308 18.6723 22.9732 18.5435C22.9899 18.4929 23.0118 18.4265 23.0619 18.3396C23.2336 18.042 24.4605 18.0314 24.5472 18.0311C24.5274 17.9948 24.5161 17.953 24.5161 17.9084C24.5161 17.7704 24.6244 17.6584 24.7581 17.6584C24.8917 17.6584 25 17.7704 25 17.9084C25 18.0465 24.8917 18.1584 24.7581 18.1584C24.669 18.1584 24.5913 18.1088 24.5492 18.0348L24.2356 18.4574L24.5622 18.8617C24.6062 18.7991 24.6775 18.7584 24.7581 18.7584C24.8917 18.7584 25 18.8704 25 19.0084C25 19.1465 24.8917 19.2584 24.7581 19.2584C24.6244 19.2584 24.5161 19.1465 24.5161 19.0084C24.5161 18.9799 24.5208 18.9525 24.5293 18.927C24.3443 18.8371 24.0247 18.6981 23.8174 18.6981H23.2399C23.3852 18.6981 24.1848 19.2257 23.9427 19.4543L23.9016 19.4932C23.6641 19.719 23.3543 20.0136 23.0619 19.8529C22.7525 19.6829 22.5664 19.4543 22.5664 19.4543L22.3239 18.6981C22.3239 18.6981 20.8947 18.3292 20.8947 18.5846C20.8947 18.8399 20.8907 18.965 20.3839 18.965C20.1003 18.965 19.8262 18.9168 19.5849 18.8745C19.395 18.8411 19.2254 18.8113 19.0872 18.8113C18.8896 18.8113 18.5842 18.8723 18.3583 18.9174C18.2256 18.9439 18.1202 18.965 18.0802 18.965C17.972 18.965 17.3933 18.9389 17.7899 18.6981C18.1865 18.4574 18.2779 18.2064 18.2779 18.2064C18.2779 18.2064 16.6904 18.4422 16.0623 18.4567V18.4574L16.0339 18.4572L16.0055 18.4574V18.4567C15.3827 18.4421 13.8866 18.2064 13.8866 18.2064C13.8866 18.2064 13.978 18.4574 14.3746 18.6981C14.7712 18.9389 14.1925 18.965 14.0843 18.965C14.0443 18.965 13.9389 18.9439 13.8062 18.9174C13.5803 18.8723 13.2749 18.8113 13.0773 18.8113C12.9391 18.8113 12.7695 18.8411 12.5796 18.8745C12.3383 18.9168 12.0642 18.965 11.7806 18.965C11.2738 18.965 11.2698 18.8399 11.2698 18.5846C11.2698 18.3292 9.84061 18.6981 9.84061 18.6981L9.59816 19.4543C9.59816 19.4543 9.41203 19.6829 9.10257 19.8529C8.81025 20.0136 8.50041 19.719 8.26287 19.4932L8.22186 19.4543C7.97969 19.2257 8.77935 18.6981 8.92457 18.6981H8.34716C8.04078 18.6981 7.48932 19.0016 7.48932 19.0016L7.92888 18.4574ZM7.24194 18.1584C7.37555 18.1584 7.48387 18.0465 7.48387 17.9084C7.48387 17.7704 7.37555 17.6584 7.24194 17.6584C7.10832 17.6584 7 17.7704 7 17.9084C7 18.0465 7.10832 18.1584 7.24194 18.1584ZM7.24194 19.2584C7.37555 19.2584 7.48387 19.1465 7.48387 19.0084C7.48387 18.8704 7.37555 18.7584 7.24194 18.7584C7.10832 18.7584 7 18.8704 7 19.0084C7 19.1465 7.10832 19.2584 7.24194 19.2584Z" fill="white"/>
<path fill-rule="evenodd" clip-rule="evenodd" d="M15.8944 2.02948H16.0944V2.24384H16.34V2.44384H16.0944V2.80789C16.3701 2.85448 16.5806 3.10184 16.5806 3.4C16.5806 3.73137 16.3206 4 16 4C15.6793 4 15.4193 3.73137 15.4193 3.4C15.4193 3.10589 15.6241 2.86121 15.8944 2.8099V2.44384H15.6686V2.24384H15.8944V2.02948Z" fill="#FFD018"/>
<path fill-rule="evenodd" clip-rule="evenodd" d="M13.7468 5.22583C13.4668 5.22583 12.8765 5.5252 12.8765 5.5252L13.3355 6.54315L16.1041 6.43927L18.8728 6.54315L19.3318 5.5252C19.3318 5.5252 18.7415 5.22583 18.4615 5.22583C18.3386 5.22583 18.323 5.15349 18.3055 5.07235C18.2831 4.96871 18.2577 4.8507 18.0015 4.8507C17.8203 4.8507 17.6922 4.88077 17.5885 4.90512C17.4309 4.94212 17.3297 4.9659 17.1837 4.8507C17.1776 4.84589 17.1715 4.84108 17.1654 4.83626C16.9291 4.64958 16.6836 4.45569 16.2865 4.45569C16.2073 4.45569 16.1481 4.53059 16.1041 4.65126C16.0602 4.53059 16.001 4.45569 15.9218 4.45569C15.5247 4.45569 15.2792 4.64958 15.0429 4.83626C15.0368 4.84108 15.0307 4.84589 15.0246 4.8507C14.8786 4.9659 14.7774 4.94212 14.6198 4.90512C14.5161 4.88077 14.388 4.8507 14.2068 4.8507C13.9506 4.8507 13.9252 4.96871 13.9028 5.07235C13.8853 5.15349 13.8697 5.22583 13.7468 5.22583Z" fill="#E31D1C"/>
<path fill-rule="evenodd" clip-rule="evenodd" d="M15.6081 3.56848L15.4138 3.6359C14.9002 3.81406 14.4555 3.87282 14.0798 3.81493C13.3064 3.69574 12.2972 4.09816 12.4237 4.68748C12.4791 4.94574 12.6408 5.43351 12.809 5.8469C13.0424 6.42053 13.2058 6.70988 13.3969 6.70988C13.4216 6.70988 13.6811 6.72404 13.7676 6.72877C13.7831 6.72962 13.7931 6.73016 13.7951 6.73026C14.0761 6.74449 14.3238 6.75201 14.5621 6.7509C15.2513 6.74768 15.6784 6.68003 15.8309 6.47328L15.8758 6.41243L15.8545 6.33916C15.6736 5.71689 15.5898 4.86322 15.6051 3.78029L15.6081 3.56848ZM12.7071 4.62254C12.6451 4.33357 13.4345 4.01879 14.037 4.11165C14.4123 4.16949 14.8376 4.12595 15.3131 3.98291C15.3106 4.94548 15.3891 5.72736 15.5499 6.33005C15.4121 6.40214 15.05 6.44862 14.5608 6.4509C14.3285 6.45199 14.0856 6.44461 13.8093 6.43062C13.8117 6.43074 13.5246 6.41483 13.4263 6.4108C13.423 6.40748 13.4192 6.40331 13.4149 6.39832C13.389 6.36812 13.3566 6.3193 13.3201 6.25465C13.2481 6.1272 13.1641 5.94555 13.0767 5.73062C12.9146 5.33243 12.7582 4.86065 12.7071 4.62254Z" fill="#FFD018"/>
<path fill-rule="evenodd" clip-rule="evenodd" d="M16.4548 3.56848L16.6491 3.6359C17.1627 3.81406 17.6074 3.87282 17.983 3.81493C18.7565 3.69574 19.7657 4.09816 19.6392 4.68748C19.5838 4.94574 19.422 5.43351 19.2538 5.8469C19.0204 6.42053 18.8571 6.70988 18.666 6.70988C18.6412 6.70988 18.3818 6.72404 18.2953 6.72877C18.2797 6.72962 18.2698 6.73016 18.2678 6.73026C17.9868 6.74449 17.739 6.75201 17.5007 6.7509C16.8116 6.74768 16.3845 6.68003 16.2319 6.47328L16.187 6.41243L16.2083 6.33916C16.3893 5.71689 16.4731 4.86322 16.4578 3.78029L16.4548 3.56848ZM19.3558 4.62254C19.4178 4.33357 18.6284 4.01879 18.0259 4.11165C17.6505 4.16949 17.2252 4.12595 16.7498 3.98291C16.7523 4.94548 16.6738 5.72736 16.513 6.33005C16.6508 6.40214 17.0129 6.44862 17.502 6.4509C17.7343 6.45199 17.9773 6.44461 18.2536 6.43062C18.2511 6.43074 18.5382 6.41483 18.6366 6.4108C18.6398 6.40748 18.6437 6.40331 18.648 6.39832C18.6739 6.36812 18.7063 6.3193 18.7428 6.25465C18.8147 6.1272 18.8988 5.94555 18.9862 5.73062C19.1482 5.33243 19.3047 4.86065 19.3558 4.62254Z" fill="#FFD018"/>
<path fill-rule="evenodd" clip-rule="evenodd" d="M12.8366 6.47108C12.8369 6.41558 12.8049 6.31535 12.7351 6.12921C12.6388 5.87277 12.5729 5.79506 12.433 5.70957C12.3621 5.66629 12.3344 5.62879 12.3011 5.49967C12.2744 5.39637 12.2473 5.31577 12.2162 5.24148C12.2099 5.22637 12.1964 5.19631 12.1834 5.16737L12.1834 5.16736C12.1701 5.13764 12.1573 5.1091 12.1533 5.09914C12.1317 5.04479 12.1228 4.99647 12.1228 4.91812C12.1228 4.82879 12.1461 4.75724 12.2078 4.62714C12.2446 4.54944 12.2494 4.53911 12.2625 4.50634C12.289 4.43986 12.3027 4.38237 12.3027 4.32367V3.93853C12.3027 3.71363 12.3116 3.69993 12.422 3.71485C12.4331 3.71634 12.4438 3.71805 12.4551 3.72008C12.4509 3.71934 12.5082 3.73048 12.5217 3.73208C12.548 3.73519 12.5696 3.73309 12.5914 3.72324C12.631 3.70536 12.6601 3.67028 12.7298 3.56607C12.7626 3.51699 12.7979 3.52179 12.9233 3.58288C12.9411 3.59156 12.9516 3.5966 12.9631 3.60186C13.0913 3.66076 13.1804 3.66247 13.2561 3.56995C13.3725 3.42777 13.4494 3.43683 13.5906 3.57407C13.6603 3.64185 13.6955 3.66751 13.7401 3.67406L13.7438 3.67461C13.7908 3.68158 13.7937 3.682 13.9261 3.60084C13.9352 3.61962 13.9548 3.62687 13.9866 3.63428C14.029 3.64418 14.0921 3.64754 14.1344 3.64093C14.1695 3.63543 14.1945 3.62457 14.211 3.59025C14.267 3.58856 14.3332 3.58765 14.4097 3.58765V3.48765C14.3117 3.48765 14.23 3.48911 14.164 3.49187C14.1588 3.48755 14.1525 3.48201 14.1455 3.47579L14.1455 3.47578C14.1092 3.44381 14.0528 3.39416 14.0261 3.40205C14.0225 3.4031 14.0119 3.41247 13.9974 3.42538L13.9974 3.42538C13.9742 3.44594 13.9409 3.47547 13.9096 3.49466C13.7782 3.57531 13.7732 3.57792 13.7537 3.57505C13.7364 3.57251 13.7116 3.55444 13.6569 3.50124C13.4797 3.32896 13.3401 3.3125 13.1822 3.50536C13.1422 3.55427 13.0958 3.55337 13.0024 3.51048C12.9917 3.5056 12.9817 3.50081 12.9645 3.49243C12.7972 3.41089 12.7226 3.40074 12.6501 3.50924C12.5926 3.59523 12.5684 3.62451 12.5527 3.6316L12.5505 3.63274L12.5492 3.63339C12.5458 3.63498 12.5412 3.63416 12.4979 3.62631L12.4717 3.62157C12.4591 3.61931 12.4471 3.61738 12.4346 3.61569C12.2517 3.59099 12.2059 3.66151 12.2059 3.93853V4.32367C12.2059 4.36746 12.1952 4.4128 12.173 4.46819C12.1611 4.49808 12.1565 4.50797 12.1209 4.58315C12.0531 4.72615 12.026 4.8092 12.026 4.91812C12.026 5.0093 12.0373 5.07054 12.0638 5.13713C12.0686 5.14932 12.0832 5.18174 12.0975 5.21352C12.1098 5.24104 12.122 5.26808 12.1274 5.28111C12.1566 5.35092 12.1821 5.4269 12.2076 5.52546C12.2475 5.67999 12.2911 5.73909 12.3837 5.79565C12.5054 5.86999 12.5566 5.93039 12.6448 6.16538C12.6907 6.28747 12.7191 6.37313 12.7327 6.42671C12.7355 6.43778 12.7376 6.44706 12.739 6.45453C12.725 6.46577 12.7267 6.47372 12.7313 6.49588C12.7346 6.50348 12.7356 6.50582 12.737 6.50793L12.7392 6.51105L12.7392 6.51105C12.7448 6.51782 12.7448 6.51782 12.7515 6.52338C12.7542 6.52547 12.7571 6.52734 12.7602 6.52897C12.7584 6.52869 12.7569 6.52811 12.7552 6.52688C12.761 6.53369 12.7688 6.54339 12.7785 6.55611C12.8733 6.68002 12.9926 6.68002 13.1067 6.56017L13.0377 6.49003C12.9628 6.56872 12.9115 6.56872 12.8544 6.49408L12.8366 6.47108ZM13.9989 3.53444L13.997 3.53355L13.9978 3.53389L13.9989 3.53444ZM19.1152 6.47108C19.1149 6.41558 19.1469 6.31535 19.2168 6.12921C19.3131 5.87277 19.3789 5.79506 19.5189 5.70957C19.5897 5.66629 19.6174 5.62879 19.6508 5.49967C19.6775 5.39637 19.7046 5.31577 19.7356 5.24148C19.7419 5.22637 19.7554 5.19631 19.7684 5.16737C19.7818 5.13764 19.7946 5.1091 19.7985 5.09914C19.8201 5.04479 19.8291 4.99647 19.8291 4.91812C19.8291 4.82879 19.8057 4.75724 19.744 4.62714C19.7072 4.54944 19.7025 4.53911 19.6894 4.50634C19.6628 4.43986 19.6491 4.38237 19.6491 4.32367V3.93853C19.6491 3.71363 19.6402 3.69993 19.5298 3.71485C19.5188 3.71634 19.508 3.71805 19.4968 3.72008C19.5009 3.71934 19.4437 3.73048 19.4302 3.73208C19.4039 3.73519 19.3823 3.73309 19.3605 3.72324C19.3208 3.70536 19.2918 3.67028 19.2221 3.56607C19.1893 3.51699 19.154 3.52179 19.0286 3.58288C19.0108 3.59156 19.0003 3.5966 18.9888 3.60186C18.8605 3.66076 18.7715 3.66247 18.6957 3.56995C18.5793 3.42777 18.5024 3.43683 18.3613 3.57407C18.2916 3.64185 18.2564 3.66751 18.2118 3.67406L18.2081 3.67461C18.1611 3.68158 18.1582 3.682 18.0257 3.60084C18.0167 3.61962 17.9971 3.62687 17.9653 3.63428C17.9229 3.64418 17.8598 3.64754 17.8175 3.64093C17.7823 3.63543 17.7574 3.62457 17.7409 3.59025C17.6849 3.58856 17.6187 3.58765 17.5421 3.58765V3.48765C17.6402 3.48765 17.7219 3.48911 17.7879 3.49187C17.793 3.48755 17.7993 3.482 17.8064 3.47578C17.8427 3.44381 17.8991 3.39416 17.9258 3.40205C17.9294 3.4031 17.9399 3.41247 17.9545 3.42537L17.9545 3.42538L17.9545 3.42538C17.9767 3.44512 18.0083 3.47313 18.0385 3.49231L18.0422 3.49466C18.1736 3.57531 18.1787 3.57792 18.1982 3.57505C18.2155 3.57251 18.2403 3.55444 18.295 3.50124C18.4722 3.32896 18.6117 3.3125 18.7696 3.50536C18.8096 3.55427 18.8561 3.55337 18.9495 3.51048C18.9601 3.5056 18.9701 3.50081 18.9873 3.49243C19.1547 3.41089 19.2292 3.40074 19.3017 3.50924C19.3592 3.59523 19.3835 3.62451 19.3992 3.6316L19.4014 3.63274L19.4026 3.63339C19.406 3.63498 19.4106 3.63416 19.4539 3.62631L19.4802 3.62157C19.4927 3.61931 19.5048 3.61738 19.5173 3.61569C19.7001 3.59099 19.7459 3.66151 19.7459 3.93853V4.32367C19.7459 4.36746 19.7567 4.4128 19.7788 4.46819C19.7908 4.49808 19.7953 4.50797 19.831 4.58315C19.8987 4.72615 19.9259 4.8092 19.9259 4.91812C19.9259 5.0093 19.9145 5.07054 19.8881 5.13713C19.8832 5.14932 19.8687 5.18174 19.8544 5.21352C19.842 5.24103 19.8299 5.26807 19.8245 5.28111C19.7953 5.35092 19.7697 5.4269 19.7443 5.52546C19.7044 5.67999 19.6607 5.73909 19.5681 5.79565C19.4464 5.86999 19.3953 5.93039 19.307 6.16538C19.2612 6.28747 19.2327 6.37313 19.2191 6.42671C19.2163 6.43778 19.2142 6.44706 19.2129 6.45453C19.2269 6.46577 19.2252 6.47372 19.2206 6.49588C19.2173 6.50348 19.2162 6.50582 19.2149 6.50793L19.2127 6.51105C19.2071 6.51782 19.2071 6.51782 19.2004 6.52338C19.1976 6.52547 19.1947 6.52734 19.1917 6.52897C19.1935 6.52869 19.1949 6.52811 19.1967 6.52688C19.1909 6.53369 19.1831 6.54339 19.1734 6.55611C19.0785 6.68002 18.9593 6.68002 18.8452 6.56017L18.9141 6.49003C18.9891 6.56872 19.0403 6.56872 19.0974 6.49408L19.1152 6.47108Z" fill="#5E5E5E"/>
<path d="M13.7739 17.885L13.8347 17.3887C14.9092 17.5203 15.6267 17.586 15.9882 17.5863C16.5334 17.6108 17.1833 17.5713 17.9366 17.4672L18.0051 17.9625C17.2235 18.0705 16.5441 18.1118 15.977 18.086C15.5996 18.086 14.8687 18.019 13.7739 17.885Z" fill="#272727"/>
</g>
</g>
<defs>
<clipPath id="clip0_270_67527">
<rect width="32" height="24" fill="white"/>
</clipPath>
</defs>
</svg>
