<svg width="32" height="24" viewBox="0 0 32 24" fill="none" xmlns="http://www.w3.org/2000/svg">
<g clip-path="url(#clip0_270_67493)">
<rect width="32" height="24" fill="white"/>
<path fill-rule="evenodd" clip-rule="evenodd" d="M0 0H32V24H0V0Z" fill="#F7FCFF"/>
<path fill-rule="evenodd" clip-rule="evenodd" d="M9.0012 13.2471L7.75408 14L8.03854 12.5308L7 11.4313L8.40624 11.3718L9.0012 10L9.59615 11.3718H11L9.96385 12.5308L10.2758 14L9.0012 13.2471Z" fill="#409100"/>
<path fill-rule="evenodd" clip-rule="evenodd" d="M23.0012 13.2471L21.7541 14L22.0385 12.5308L21 11.4313L22.4062 11.3718L23.0012 10L23.5961 11.3718H25L23.9639 12.5308L24.2758 14L23.0012 13.2471Z" fill="#409100"/>
<path fill-rule="evenodd" clip-rule="evenodd" d="M0 0V8H32V0H0Z" fill="#E31D1C"/>
<path fill-rule="evenodd" clip-rule="evenodd" d="M0 16V24H32V16H0Z" fill="#272727"/>
</g>
<defs>
<clipPath id="clip0_270_67493">
<rect width="32" height="24" fill="white"/>
</clipPath>
</defs>
</svg>
