<svg xmlns="http://www.w3.org/2000/svg" xmlns:xlink="http://www.w3.org/1999/xlink" width="32" height="24" viewBox="0 0 32 24">
  <defs>
    <rect id="a" width="32" height="24"/>
    <rect id="c" width="32" height="24"/>
    <rect id="e" width="32" height="24"/>
    <rect id="g" width="12" height="10"/>
  </defs>
  <g fill="none" fill-rule="evenodd">
    <mask id="b" fill="white">
      <use xlink:href="#a"/>
    </mask>
    <g mask="url(#b)">
      <mask id="d" fill="white">
        <use xlink:href="#c"/>
      </mask>
      <g mask="url(#d)">
        <mask id="f" fill="white">
          <use xlink:href="#e"/>
        </mask>
        <use fill="#2E42A5" xlink:href="#e"/>
        <g fill="#F7FCFF" mask="url(#f)">
          <path d="M8.79716035,0.2 L12.8371349,0.2 L12.0529756,1.70402293 L9.61128758,1.70402293 L9.61128758,2.51189139 L11.4831697,2.51189139 L10.7206539,3.91110897 L9.61128758,3.91110897 L9.61128758,6.70939714 L11.4384954,3.83011633 L13.8031826,7.92472763 L12.8371349,7.92472763 L12.4997189,7.4764018 L10.3593745,7.4764018 L8.85435353,10.2573326 L8.85474385,10.4109516 L8.81297989,10.3337815 L8.77121594,10.4109516 L8.77160626,10.2573326 L7.2665853,7.4764018 L5.12624093,7.4764018 L4.78882487,7.92472763 L3.82277718,7.92472763 L6.18746437,3.83011633 L8.01467221,6.70939714 L8.01467221,1.70402293 L5.57298423,1.70402293 L4.78882487,0.2 L8.79716035,0.2 Z M11.4855687,5.50950082 C11.1354541,6.04798179 10.9603968,6.31722228 10.9603968,6.31722228 L11.9546165,6.31722228 L11.4855687,5.50950082 Z M6.1403911,5.50950082 L5.67134325,6.31722228 L6.66556295,6.31722228 C6.66556295,6.31722228 6.49050566,6.04798179 6.1403911,5.50950082 Z M3.14464141,4.00056002 L2.31360732,4.6132394 L2.60678485,3.58654198 L1.8,2.93850124 L2.81222777,2.91664672 L3.14464141,1.90345614 L3.47705505,2.91664672 L4.48928282,2.93850124 L3.68249797,3.58654198 L3.9756755,4.6132394 L3.14464141,4.00056002 Z M14.4553586,4.00056002 L13.6243245,4.6132394 L13.917502,3.58654198 L13.1107172,2.93850124 L14.122945,2.91664672 L14.4553586,1.90345614 L14.7877722,2.91664672 L15.8,2.93850124 L14.9932152,3.58654198 L15.2863927,4.6132394 L14.4553586,4.00056002 Z M11.9104472,11.1906305 L11.0794131,11.8033098 L11.3725907,10.7766124 L10.5658058,10.1285717 L11.5780336,10.1067172 L11.9104472,9.09352659 L12.2428609,10.1067172 L13.2550886,10.1285717 L12.4483038,10.7766124 L12.7414813,11.8033098 L11.9104472,11.1906305 Z M5.68955278,11.1906305 L4.85851868,11.8033098 L5.15169621,10.7766124 L4.34491137,10.1285717 L5.35713914,10.1067172 L5.68955278,9.09352659 L6.02196641,10.1067172 L7.03419419,10.1285717 L6.22740934,10.7766124 L6.52058687,11.8033098 L5.68955278,11.1906305 Z M8.8,13.5873206 L7.96896591,14.2 L8.26214344,13.1733026 L7.45535859,12.5252618 L8.46758636,12.5034073 L8.8,11.4902167 L9.13241364,12.5034073 L10.1446414,12.5252618 L9.33785656,13.1733026 L9.63103409,14.2 L8.8,13.5873206 Z" transform="translate(14 6)"/>
        </g>
        <g mask="url(#f)">
          <mask id="h" fill="white">
            <use xlink:href="#g"/>
          </mask>
          <rect width="13" height="11" x="-.5" y="-.5" stroke="#FFFFFF"/>
          <polygon fill="#F50100" points="8 0 12 0 12 10 8 10" mask="url(#h)"/>
          <polygon fill="#2E42A5" points="0 0 4 0 4 10 0 10" mask="url(#h)"/>
          <polygon fill="#F7FCFF" points="4 0 8 0 8 10 4 10" mask="url(#h)"/>
        </g>
      </g>
    </g>
  </g>
</svg>
