<svg xmlns="http://www.w3.org/2000/svg" xmlns:xlink="http://www.w3.org/1999/xlink" width="32" height="24" viewBox="0 0 32 24">
  <defs>
    <rect id="ug---uganda-a" width="32" height="24" x="0" y="0"/>
    <rect id="ug---uganda-c" width="32" height="24" x="0" y="0"/>
  </defs>
  <g fill="none" fill-rule="evenodd">
    <mask id="ug---uganda-b" fill="#fff">
      <use xlink:href="#ug---uganda-a"/>
    </mask>
    <g mask="url(#ug---uganda-b)">
      <mask id="ug---uganda-d" fill="#fff">
        <use xlink:href="#ug---uganda-c"/>
      </mask>
      <use fill="#FECA00" xlink:href="#ug---uganda-c"/>
      <rect width="32" height="4" fill="#272727" mask="url(#ug---uganda-d)"/>
      <rect width="32" height="4" y="8" fill="#D74800" mask="url(#ug---uganda-d)"/>
      <rect width="32" height="4" y="12" fill="#272727" mask="url(#ug---uganda-d)"/>
      <rect width="32" height="4" y="20" fill="#D74800" mask="url(#ug---uganda-d)"/>
      <circle cx="16" cy="12" r="6" fill="#F7FCFF" mask="url(#ug---uganda-d)"/>
      <g mask="url(#ug---uganda-d)">
        <g transform="translate(12 6)">
          <path fill="#272727" d="M0.621619938,2.67578737 L1.67959368,2.32863787 C1.72191662,1.87093924 1.96956987,1.64208993 2.42255343,1.64208993 C2.87553699,1.64208993 3.238611,1.87093924 3.51177546,2.32863787 C2.91323136,2.7624093 2.61395931,3.15663147 2.61395931,3.51130438 C2.61395931,4.04331374 2.30600797,4.77854691 3.51177546,5.25381377 C4.71754295,5.72908062 6.6534773,5.72908062 6.90220974,6.59201389 C7.15094219,7.45494715 6.43495965,7.7736281 5.4539811,7.7736281 C4.47300255,7.7736281 3.67493138,7.36160785 4.07396697,7.7736281 C4.47300255,8.18564834 5.49437026,9.1626362 4.78416861,9.1626362 C4.54694111,9.1626362 3.65484846,8.45160996 3.62052671,9.0480148 C3.59881949,9.42521861 4.02432785,10.4621481 3.62052671,10.8629076 C3.52448892,10.958222 4.81862405,11.1534274 4.71754295,11.2406809 C4.45908423,11.4637834 3.9576673,11.2406809 3.2807991,11.2406809 C3.19499962,11.2406809 2.05653334,11.928811 1.94101311,11.9233954 C1.8301606,11.9181355 2.7131482,11.2502317 2.61395931,11.2406809 C2.0339587,11.1848336 1.36513091,11.2972384 1.33970553,11.2406809 C1.29505591,11.1413601 2.80827627,11.2683515 3.1299261,10.8629076 C3.63703182,10.2236941 3.05290435,8.9863683 2.98967952,8.98050853 C2.18855646,8.90625924 1.40799853,8.89196421 1.2215986,9.1626362 C0.867499803,9.67682432 0.111051036,10.1932652 0.111051036,9.93504478 C0.111051036,9.67682432 -0.297696449,8.88243565 1.51711772,8.88243565 C2.72699383,8.88243565 3.22589751,8.81657654 3.01382876,8.68485833 L3.01382876,8.0101729 C1.18681049,7.58092172 0.273301357,6.89294269 0.273301357,5.94623581 C0.273301357,4.5261755 1.50855081,3.83788886 1.67959368,3.51130438 C1.79362226,3.29358139 1.79362226,3.04526908 1.67959368,2.76636744 L0.621619938,2.67578737 Z M3.52778845,8.07471485 L3.52778845,8.57648208 C4.00368516,8.7033598 4.19258587,8.64914527 4.09449059,8.4138385 C3.9963953,8.17853173 3.80749459,8.06549052 3.52778845,8.07471485 Z"/>
          <polygon fill="#D74800" points="1.077 .711 2.09 1.913 2.615 1.79 2.364 .576"/>
          <polygon fill="#FFD018" points="2.125 1.699 3.916 1.948 3.856 1.059 2.755 .49" transform="rotate(80 3.02 1.22)"/>
          <ellipse cx="1.692" cy="3.128" fill="#D74800" rx="1" ry="1"/>
          <polygon fill="#D74800" points="2.615 1.076 3.629 2.278 4.154 2.154 3.902 .941" transform="rotate(80 3.385 1.61)"/>
          <path fill="#D74800" d="M6.11865851,9.89309815 C7.30028778,9.36524438 7.89110241,8.73221673 7.89110241,7.99401521 C7.89110241,7.25581368 6.93176409,6.48466047 5.01308745,5.68055556 C3.88447746,5.93886124 3.5745262,6.24084914 4.08323367,6.58651926 C4.84629486,7.10502443 5.86862813,7.30422291 5.86862813,7.99401521 C5.86862813,8.6838075 6.14870497,9.34156198 5.58089621,9.34156198 C5.20235704,9.34156198 5.38161113,9.52540737 6.11865851,9.89309815 Z"/>
          <path fill="#FFFDFF" d="M3.56150607,5.47814634 C3.14359339,5.55155633 2.94455893,5.62220275 2.96440269,5.69008559 C3.04668374,5.97155796 3.9038285,6.3381724 4.27739582,6.59201389 C5.04045702,7.11051906 5.76391548,7.05227644 6.30212506,6.71483951 C6.66093145,6.48988155 5.74739178,6.0776505 3.56150607,5.47814634 Z"/>
        </g>
      </g>
    </g>
  </g>
</svg>
