<svg xmlns="http://www.w3.org/2000/svg" xmlns:xlink="http://www.w3.org/1999/xlink" width="32" height="24" viewBox="0 0 32 24">
  <defs>
    <rect id="a" width="32" height="24"/>
    <rect id="c" width="32" height="24"/>
    <rect id="e" width="32" height="24"/>
  </defs>
  <g fill="none" fill-rule="evenodd">
    <mask id="b" fill="white">
      <use xlink:href="#a"/>
    </mask>
    <g mask="url(#b)">
      <mask id="d" fill="white">
        <use xlink:href="#c"/>
      </mask>
      <g mask="url(#d)">
        <mask id="f" fill="white">
          <use xlink:href="#e"/>
        </mask>
        <use fill="#FECA00" xlink:href="#e"/>
        <rect width="32" height="4" fill="#272727" mask="url(#f)"/>
        <rect width="32" height="4" y="8" fill="#D74800" mask="url(#f)"/>
        <rect width="32" height="4" y="12" fill="#272727" mask="url(#f)"/>
        <rect width="32" height="4" y="20" fill="#D74800" mask="url(#f)"/>
        <circle cx="16" cy="12" r="6" fill="#F7FCFF" mask="url(#f)"/>
        <g mask="url(#f)">
          <g transform="translate(12 4)">
            <path fill="#272727" d="M0.621619938,4.67578737 L1.67959368,4.32863787 C1.72191662,3.87093924 1.96956987,3.64208993 2.42255343,3.64208993 C2.87553699,3.64208993 3.238611,3.87093924 3.51177546,4.32863787 C2.91323136,4.7624093 2.61395931,5.15663147 2.61395931,5.51130438 C2.61395931,6.04331374 2.30600797,6.77854691 3.51177546,7.25381377 C4.71754295,7.72908062 6.6534773,7.72908062 6.90220974,8.59201389 C7.15094219,9.45494715 6.43495965,9.7736281 5.4539811,9.7736281 C4.47300255,9.7736281 3.67493138,9.36160785 4.07396697,9.7736281 C4.47300255,10.1856483 5.49437026,11.1626362 4.78416861,11.1626362 C4.54694111,11.1626362 3.65484846,10.45161 3.62052671,11.0480148 C3.59881949,11.4252186 4.02432785,12.4621481 3.62052671,12.8629076 C3.52448892,12.958222 4.81862405,13.1534274 4.71754295,13.2406809 C4.45908423,13.4637834 3.9576673,13.2406809 3.2807991,13.2406809 C3.19499962,13.2406809 2.05653334,13.928811 1.94101311,13.9233632 C1.8301606,13.9181355 2.7131482,13.2502317 2.61395931,13.2406809 C2.0339587,13.1848336 1.36513091,13.2972384 1.33970553,13.2406809 C1.29505591,13.1413601 2.80827627,13.2683515 3.1299261,12.8629076 C3.63703182,12.2236941 3.05290435,10.9863683 2.98967952,10.9805085 C2.18855646,10.9062592 1.40799853,10.8919642 1.2215986,11.1626362 C0.867499803,11.6768243 0.111051036,12.1932652 0.111051036,11.9350448 C0.111051036,11.6768243 -0.297696449,10.8824356 1.51711772,10.8824356 C2.72699383,10.8824356 3.22589751,10.8165765 3.01382876,10.6848583 L3.01382876,10.0101729 C1.18681049,9.58092172 0.273301357,8.89294269 0.273301357,7.94623581 C0.273301357,6.5261755 1.50855081,5.83788886 1.67959368,5.51130438 C1.79362226,5.29358139 1.79362226,5.04526908 1.67959368,4.76636744 L0.621619938,4.67578737 Z M3.52778845,10.0747149 L3.52778845,10.5764821 C4.00368516,10.7033598 4.19258587,10.6491453 4.09449059,10.4138385 C3.9963953,10.1785317 3.80749459,10.0654905 3.52778845,10.0747149 Z"/>
            <polygon fill="#D74800" points="1.077 2.711 2.09 3.913 2.615 3.79 2.364 2.576"/>
            <polygon fill="#FFD018" points="2.125 3.699 3.916 3.948 3.856 3.059 2.755 2.49" transform="rotate(80 3.02 3.22)"/>
            <ellipse cx="1.577" cy="5.101" fill="#D74800" rx="1" ry="1"/>
            <polygon fill="#D74800" points="2.615 3.076 3.629 4.278 4.154 4.154 3.902 2.941" transform="rotate(80 3.385 3.61)"/>
            <path fill="#D74800" d="M6.11865851,11.8930982 C7.30028778,11.3652444 7.89110241,10.7322167 7.89110241,9.99401521 C7.89110241,9.25581368 6.93176409,8.48466047 5.01308745,7.68055556 C3.88447746,7.93886124 3.5745262,8.24084914 4.08323367,8.58651926 C4.84629486,9.10502443 5.86862813,9.30422291 5.86862813,9.99401521 C5.86862813,10.6838075 6.14870497,11.341562 5.58089621,11.341562 C5.20235704,11.341562 5.38161113,11.5254074 6.11865851,11.8930982 Z"/>
            <path fill="#FFFDFF" d="M3.56150607,7.47814634 C3.14359339,7.55155633 2.94455893,7.62220275 2.96440269,7.69008559 C3.04668374,7.97155796 3.9038285,8.3381724 4.27739582,8.59201389 C5.04045702,9.11051906 5.76391548,9.05227644 6.30212506,8.71483951 C6.66093145,8.48988155 5.74739178,8.0776505 3.56150607,7.47814634 Z"/>
          </g>
        </g>
      </g>
    </g>
  </g>
</svg>
