<svg xmlns="http://www.w3.org/2000/svg" xmlns:xlink="http://www.w3.org/1999/xlink" width="32" height="24" viewBox="0 0 32 24">
  <defs>
    <rect id="a" width="32" height="24"/>
    <rect id="c" width="32" height="24"/>
    <rect id="e" width="32" height="24"/>
    <rect id="g" width="32" height="24"/>
  </defs>
  <g fill="none" fill-rule="evenodd">
    <mask id="b" fill="white">
      <use xlink:href="#a"/>
    </mask>
    <g mask="url(#b)">
      <mask id="d" fill="white">
        <use xlink:href="#c"/>
      </mask>
      <g mask="url(#d)">
        <mask id="f" fill="white">
          <use xlink:href="#e"/>
        </mask>
        <use fill="#2E42A5" xlink:href="#e"/>
        <g mask="url(#f)">
          <mask id="h" fill="white">
            <use xlink:href="#g"/>
          </mask>
          <g mask="url(#h)">
            <g transform="translate(-5.111 -3.429)">
              <polygon fill="#FFFFFF" fill-rule="nonzero" points="1.548 4.224 8.59 1.246 37.271 23.271 40.985 27.697 33.455 28.692 21.757 19.201 12.341 12.806" transform="matrix(1 0 0 -1 0 29.938)"/>
              <polygon fill="#F50100" fill-rule="nonzero" points="2.512 3.558 6.099 1.83 39.651 29.529 34.614 29.529" transform="matrix(1 0 0 -1 0 31.358)"/>
              <g transform="matrix(-1 0 0 1 42.222 0)">
                <polygon fill="#FFFFFF" fill-rule="nonzero" points="1.548 4.224 8.59 1.246 37.271 23.271 40.985 27.697 33.455 28.692 21.757 19.201 12.341 12.806" transform="matrix(1 0 0 -1 0 29.938)"/>
                <polygon fill="#F50100" fill-rule="nonzero" points="1.788 3.984 5.376 2.256 19.662 14.115 23.898 15.44 41.343 28.94 36.305 28.94 18.871 15.761 14.24 14.172" transform="matrix(1 0 0 -1 0 31.196)"/>
              </g>
              <path fill="#F50100" stroke="#FFFFFF" stroke-width="2" d="M1.02753508,11 L1.02753508,17 L15.2222222,17 L15.2222222,27 L20.7777778,27 L20.7777778,17 L35.0275351,17 L35.0275351,11 L20.7777778,11 L20.7777778,1 L15.2222222,1 L15.2222222,11 L1.02753508,11 Z" transform="translate(3.111 1.429)"/>
            </g>
          </g>
        </g>
      </g>
    </g>
  </g>
</svg>
