<svg xmlns="http://www.w3.org/2000/svg" xmlns:xlink="http://www.w3.org/1999/xlink" width="32" height="24" viewBox="0 0 32 24">
  <defs>
    <rect id="uz---uzbekistan-a" width="32" height="24" x="0" y="0"/>
  </defs>
  <g fill="none" fill-rule="evenodd">
    <mask id="uz---uzbekistan-b" fill="#fff">
      <use xlink:href="#uz---uzbekistan-a"/>
    </mask>
    <g mask="url(#uz---uzbekistan-b)">
      <g transform="translate(-2)">
        <polygon fill="#14DC5A" points="2 16 34 16 34 24 2 24"/>
        <polygon fill="#0099B5" points="2 0 34 0 34 10 2 10"/>
        <path fill="#F7FCFF" stroke="#C51918" d="M-0.5,9.5 L36.5,9.5 L36.5,16.5 L-0.5,16.5 L-0.5,9.5 Z"/>
        <path fill="#F7FCFF" d="M6.42766525,5.96105734 L5.75462798,6.33502594 L5.94685071,5.57497637 L5.30213423,5.01645852 L6.14422153,5.01645852 L6.42665079,4.29721522 L6.75782195,5.01645852 L7.47567822,5.01645852 L6.91164179,5.57497637 L7.18284549,6.33502594 L6.42766525,5.96105734 Z M9.60617682,5.96105734 L8.93313954,6.33502594 L9.12536227,5.57497637 L8.4806458,5.01645852 L9.3227331,5.01645852 L9.60516235,4.29721522 L9.93633352,5.01645852 L10.6541898,5.01645852 L10.0901534,5.57497637 L10.3613571,6.33502594 L9.60617682,5.96105734 Z M9.60617682,3.92324662 L8.93313954,4.29721522 L9.12536227,3.53716565 L8.4806458,2.9786478 L9.3227331,2.9786478 L9.60516235,2.25940449 L9.93633352,2.9786478 L10.6541898,2.9786478 L10.0901534,3.53716565 L10.3613571,4.29721522 L9.60617682,3.92324662 Z M12.5861126,5.96105734 L11.9130753,6.33502594 L12.1052981,5.57497637 L11.4605816,5.01645852 L12.3026689,5.01645852 L12.5850981,4.29721522 L12.9162693,5.01645852 L13.6341256,5.01645852 L13.0700891,5.57497637 L13.3412928,6.33502594 L12.5861126,5.96105734 Z M12.5861126,3.92324662 L11.9130753,4.29721522 L12.1052981,3.53716565 L11.4605816,2.9786478 L12.3026689,2.9786478 L12.5850981,2.25940449 L12.9162693,2.9786478 L13.6341256,2.9786478 L13.0700891,3.53716565 L13.3412928,4.29721522 L12.5861126,3.92324662 Z M12.541246,2.00636512 L11.8682087,2.38033372 L12.0604315,1.62028415 L11.415715,1.06176631 L12.2578023,1.06176631 L12.5402316,0.342523 L12.8714027,1.06176631 L13.589259,1.06176631 L13.0252226,1.62028415 L13.2964263,2.38033372 L12.541246,2.00636512 Z M15.5854773,5.96105734 L14.91244,6.33502594 L15.1046627,5.57497637 L14.4599463,5.01645852 L15.3020336,5.01645852 L15.5844628,4.29721522 L15.915634,5.01645852 L16.6334902,5.01645852 L16.0694538,5.57497637 L16.3406575,6.33502594 L15.5854773,5.96105734 Z M15.5854773,3.92324662 L14.91244,4.29721522 L15.1046627,3.53716565 L14.4599463,2.9786478 L15.3020336,2.9786478 L15.5844628,2.25940449 L15.915634,2.9786478 L16.6334902,2.9786478 L16.0694538,3.53716565 L16.3406575,4.29721522 L15.5854773,3.92324662 Z M15.54061,2.00636512 L14.8675727,2.38033372 L15.0597955,1.62028415 L14.415079,1.06176631 L15.2571663,1.06176631 L15.5395956,0.342523 L15.8707667,1.06176631 L16.588623,1.06176631 L16.0245866,1.62028415 L16.2957903,2.38033372 L15.54061,2.00636512 Z M18.6156842,5.96105734 L17.9426469,6.33502594 L18.1348696,5.57497637 L17.4901532,5.01645852 L18.3322405,5.01645852 L18.6146697,4.29721522 L18.9458409,5.01645852 L19.6636971,5.01645852 L19.0996607,5.57497637 L19.3708644,6.33502594 L18.6156842,5.96105734 Z M18.6156842,3.92324662 L17.9426469,4.29721522 L18.1348696,3.53716565 L17.4901532,2.9786478 L18.3322405,2.9786478 L18.6146697,2.25940449 L18.9458409,2.9786478 L19.6636971,2.9786478 L19.0996607,3.53716565 L19.3708644,4.29721522 L18.6156842,3.92324662 Z M18.570817,2.00636512 L17.8977797,2.38033372 L18.0900025,1.62028415 L17.445286,1.06176631 L18.2873733,1.06176631 L18.5698026,0.342523 L18.9009737,1.06176631 L19.61883,1.06176631 L19.0547936,1.62028415 L19.3259973,2.38033372 L18.570817,2.00636512 Z M1.51454927,4.16190107 C1.46905751,6.58538611 3.88490595,7.24061718 3.88490595,7.24061718 C2.95592905,7.60751042 -0.0536903749,7.03639088 0.000728524425,4.13732995 C0.0551474237,1.23826903 3.00302874,0.731667011 4,1.10920565 C4,1.10920565 1.56004103,1.73841604 1.51454927,4.16190107 Z" transform="translate(4 1)"/>
      </g>
    </g>
  </g>
</svg>
