<svg width="32" height="24" viewBox="0 0 32 24" fill="none" xmlns="http://www.w3.org/2000/svg">
<g clip-path="url(#clip0_270_67511)">
<rect width="32" height="24" fill="white"/>
<path fill-rule="evenodd" clip-rule="evenodd" d="M0 0H32V24H0V0Z" fill="#F7FCFF"/>
<path fill-rule="evenodd" clip-rule="evenodd" d="M0 0H14V24H0V0Z" fill="#FFDC17"/>
<path d="M22.7816 12.7512L22.4364 12.7736C22.5189 13.9594 22.7736 14.8754 23.2059 15.5218C23.9031 16.5642 24.8232 17.3702 25.4389 17.3702C25.5787 17.3702 25.6112 17.4222 25.5651 17.5504C25.4995 17.7327 25.2921 17.912 25.0253 17.9808C24.5815 18.0952 23.5722 18.1544 22.0145 18.1544V18.4893C23.6034 18.4893 24.631 18.429 25.1144 18.3044C25.4898 18.2076 25.7877 17.95 25.8918 17.6605C26.0123 17.3256 25.8305 17.0353 25.4389 17.0353C24.9816 17.0353 24.1333 16.2922 23.4963 15.3398C23.1004 14.7478 22.8604 13.8849 22.7816 12.7512Z" fill="#AF0100"/>
<path d="M21.147 12.7512L21.4921 12.7736C21.4097 13.9594 21.155 14.8754 20.7226 15.5218C20.0255 16.5642 19.1054 17.3702 18.4897 17.3702C18.3499 17.3702 18.3174 17.4222 18.3635 17.5504C18.4291 17.7327 18.6365 17.912 18.9033 17.9808C19.3471 18.0952 20.3564 18.1544 21.914 18.1544V18.4893C20.3252 18.4893 19.2976 18.429 18.8142 18.3044C18.4388 18.2076 18.1409 17.95 18.0368 17.6605C17.9163 17.3256 18.0981 17.0353 18.4897 17.0353C18.947 17.0353 19.7952 16.2922 20.4322 15.3398C20.8282 14.7478 21.0682 13.8849 21.147 12.7512Z" fill="#AF0100"/>
<path fill-rule="evenodd" clip-rule="evenodd" d="M28.0669 6.79816L18.9254 13.9242C18.6054 13.8199 18.2559 13.7628 17.8919 13.7628C16.4088 13.7628 15.1676 14.7102 15.1676 15.9396C15.1676 17.169 16.4088 18.1163 17.8919 18.1163C18.062 18.1163 18.2289 18.1038 18.3912 18.0799C18.2411 17.9627 18.129 17.8162 18.073 17.6605C18.0056 17.4731 18.0328 17.2997 18.1385 17.1832C18.0582 17.1912 17.9758 17.1954 17.8919 17.1954C16.8913 17.1954 16.119 16.6059 16.119 15.9396C16.119 15.2732 16.8913 14.6837 17.8919 14.6837C18.8926 14.6837 19.6649 15.2732 19.6649 15.9396C19.6649 16.1434 19.5926 16.3401 19.4636 16.5149C19.4879 16.4932 19.5123 16.471 19.5367 16.4482C19.8535 16.1533 19.1416 17.3702 18.5259 17.3702C18.3861 17.3702 18.3536 17.4222 18.3997 17.5504C18.4611 17.7211 18.647 17.8892 18.8896 17.9664C19.8923 17.6529 20.6163 16.8785 20.6163 15.9396C20.6163 15.5555 20.4951 15.199 20.2833 14.8902L25.1962 10.7206L25.525 11.0604L25.7617 10.8457L26.5824 11.4539L26.2392 11.7184L26.9397 12.5698L28.3527 11.4805L28.3766 11.4681L28.3725 11.4652L28.46 11.3977L27.7596 10.5463L27.421 10.8074L26.5034 10.173L26.6109 10.0754L26.3157 9.77044L26.7597 9.39367L26.9953 9.63711L27.2483 9.40763L28.0439 10.0374L27.7095 10.2952L28.4099 11.1465L29.6204 10.2134L29.759 10.1375L29.7389 10.122L29.9303 9.97444L29.2299 9.12306L28.8343 9.42804L27.9629 8.7595L28.0812 8.65219L27.8792 8.44349L28.7837 7.67586L28.0669 6.79816Z" fill="#F4B300"/>
<path fill-rule="evenodd" clip-rule="evenodd" d="M15.6865 14.7256C15.9492 14.7256 16.1622 14.5569 16.1622 14.3489C16.1622 14.1408 15.9492 13.9721 15.6865 13.9721C15.4238 13.9721 15.2108 14.1408 15.2108 14.3489C15.2108 14.5569 15.4238 14.7256 15.6865 14.7256ZM15.8595 18.1582C16.1222 18.1582 16.3351 17.9895 16.3351 17.7814C16.3351 17.5733 16.1222 17.4047 15.8595 17.4047C15.5968 17.4047 15.3838 17.5733 15.3838 17.7814C15.3838 17.9895 15.5968 18.1582 15.8595 18.1582ZM20.573 17.7814C20.573 17.9895 20.36 18.1582 20.0973 18.1582C19.8346 18.1582 19.6216 17.9895 19.6216 17.7814C19.6216 17.5733 19.8346 17.4047 20.0973 17.4047C20.36 17.4047 20.573 17.5733 20.573 17.7814Z" fill="#BFBFBF"/>
<path fill-rule="evenodd" clip-rule="evenodd" d="M23.3837 15.9395C23.3837 15.387 23.6345 14.8914 24.0453 14.5132L18.7957 10.4478L18.7359 10.4939L18.8889 10.6327L18.475 11.0604L18.257 10.8627L17.4535 11.4815L17.7608 11.7184L17.0603 12.5698L15.6624 11.4921L15.6234 11.4681L15.6275 11.4652L15.54 11.3977L16.2404 10.5463L16.579 10.8074L17.4966 10.173L17.3891 10.0754L17.7857 9.66563L17.3235 9.30771L17.0047 9.6371L16.7612 9.41622L15.9758 10.0525L16.2905 10.2951L15.5901 11.1465L14.4181 10.243L14.241 10.1375L14.2611 10.122L14.0697 9.97443L14.7701 9.12305L15.1657 9.42803L16.0371 8.75949L15.9188 8.65218L16.158 8.40507L15.2163 7.67585L15.8106 6.95673L24.8924 13.9898C25.2602 13.844 25.6737 13.7628 26.1081 13.7628C27.5912 13.7628 28.8324 14.7101 28.8324 15.9395C28.8324 17.1689 27.5912 18.1163 26.1081 18.1163C25.938 18.1163 25.7711 18.1038 25.6088 18.0799C25.7589 17.9627 25.871 17.8162 25.927 17.6605C25.9944 17.4731 25.9672 17.2996 25.8615 17.1832C25.9418 17.1912 26.0242 17.1954 26.1081 17.1954C27.1087 17.1954 27.881 16.6059 27.881 15.9395C27.881 15.2732 27.1087 14.6837 26.1081 14.6837C25.1074 14.6837 24.3351 15.2732 24.3351 15.9395C24.3351 16.1434 24.4074 16.3401 24.5364 16.5149C24.5121 16.4932 24.4877 16.471 24.4633 16.4482C24.1465 16.1533 24.8584 17.3702 25.4741 17.3702C25.6139 17.3702 25.6464 17.4221 25.6003 17.5504C25.5389 17.7211 25.353 17.8892 25.1104 17.9664C24.1077 17.6529 23.3837 16.8785 23.3837 15.9395Z" fill="#BFBFBF"/>
<path fill-rule="evenodd" clip-rule="evenodd" d="M28.3135 14.7256C28.0508 14.7256 27.8378 14.5569 27.8378 14.3489C27.8378 14.1408 28.0508 13.9721 28.3135 13.9721C28.5762 13.9721 28.7892 14.1408 28.7892 14.3489C28.7892 14.5569 28.5762 14.7256 28.3135 14.7256ZM28.1405 18.1582C27.8778 18.1582 27.6649 17.9895 27.6649 17.7814C27.6649 17.5733 27.8778 17.4047 28.1405 17.4047C28.4032 17.4047 28.6162 17.5733 28.6162 17.7814C28.6162 17.9895 28.4032 18.1582 28.1405 18.1582ZM23.427 17.7814C23.427 17.9895 23.64 18.1582 23.9027 18.1582C24.1654 18.1582 24.3784 17.9895 24.3784 17.7814C24.3784 17.5733 24.1654 17.4047 23.9027 17.4047C23.64 17.4047 23.427 17.5733 23.427 17.7814Z" fill="#F4B300"/>
<path fill-rule="evenodd" clip-rule="evenodd" d="M21.7405 11.7953C21.6689 11.7953 21.6108 11.8534 21.6108 11.9251V12.4651H21.131C21.0616 12.4651 21.0054 12.5213 21.0054 12.5907C21.0054 12.6601 21.0616 12.7163 21.131 12.7163H21.6108V19.8703C21.6108 19.9419 21.6689 20 21.7405 20H22C22.0716 20 22.1297 19.9419 22.1297 19.8703V12.7163H22.869C22.9383 12.7163 22.9946 12.6601 22.9946 12.5907C22.9946 12.5213 22.9383 12.4651 22.869 12.4651H22.1297V11.9251C22.1297 11.8534 22.0716 11.7953 22 11.7953H21.7405Z" fill="#AF0100"/>
<path fill-rule="evenodd" clip-rule="evenodd" d="M16.7545 7.5937L16.9662 7.73895C17.4595 7.06531 17.9035 6.93 18.355 7.28355C19.1346 7.89393 19.2021 9.38315 18.3684 9.88176C17.3741 10.4764 16.8701 11.6361 17.311 12.2673C17.7178 12.8497 18.6987 12.6293 19.667 11.8978C19.8389 11.7679 20.0028 11.6292 20.1568 11.4836L19.9523 11.3256C19.812 11.4568 19.6632 11.5821 19.5074 11.6998C18.6437 12.3523 17.8138 12.5387 17.5259 12.1266C17.1822 11.6346 17.6216 10.6236 18.5048 10.0954C19.5038 9.49794 19.4268 7.7997 18.5182 7.08827C17.9321 6.6294 17.3252 6.81436 16.7545 7.5937ZM20.5625 10.645L20.7735 10.7914C21.1408 10.2958 21.3916 9.75913 21.4749 9.23055L21.2184 9.19269C21.1417 9.67951 20.9071 10.1798 20.5625 10.645Z" fill="#979797"/>
<path fill-rule="evenodd" clip-rule="evenodd" d="M27.2694 7.5937L27.0577 7.73895C26.5644 7.06531 26.1205 6.93 25.6689 7.28355C24.8893 7.89393 24.8218 9.38315 25.6555 9.88176C26.6499 10.4764 27.1538 11.6361 26.7129 12.2673C26.3061 12.8497 25.3253 12.6293 24.3569 11.8978C24.185 11.7679 24.0211 11.6292 23.8671 11.4836L24.0717 11.3256C24.2119 11.4568 24.3607 11.5821 24.5166 11.6998C25.3803 12.3523 26.2101 12.5387 26.498 12.1266C26.8417 11.6346 26.4024 10.6236 25.5192 10.0954C24.5201 9.49794 24.5971 7.7997 25.5058 7.08827C26.0918 6.6294 26.6987 6.81436 27.2694 7.5937ZM23.4615 10.645L23.2504 10.7914C22.8832 10.2958 22.6323 9.75913 22.549 9.23055L22.8055 9.19269C22.8822 9.67951 23.1168 10.1798 23.4615 10.645Z" fill="#979797"/>
<path fill-rule="evenodd" clip-rule="evenodd" d="M21.8702 20.0166C22.1568 20.0166 22.3892 19.9004 22.3892 19.7571C22.3892 19.6138 22.1568 19.4977 21.8702 19.4977C21.5836 19.4977 21.3513 19.6138 21.3513 19.7571C21.3513 19.9004 21.5836 20.0166 21.8702 20.0166Z" fill="#AF0100"/>
<path fill-rule="evenodd" clip-rule="evenodd" d="M21.7837 9.21936C22.7868 9.21936 23.6 9.08383 23.6 8.91666C23.6 8.74948 22.7868 8.61395 21.7837 8.61395C20.7807 8.61395 19.9675 8.74948 19.9675 8.91666C19.9675 9.08383 20.7807 9.21936 21.7837 9.21936Z" fill="#AF0100"/>
<path fill-rule="evenodd" clip-rule="evenodd" d="M21.886 2.03839H21.6266V2.33752H21.3808V2.58868H21.6266V3.32168H21.886V2.58868H22.1855V2.33752H21.886V2.03839ZM19.9351 5.65671L19.8192 5.46162C19.8826 5.43502 19.9474 5.40992 20.0135 5.38631L19.6759 4.64609L19.9133 4.54465L20.2608 5.3067C20.3345 5.28547 20.4096 5.26593 20.4862 5.24807C20.4329 5.18769 20.4 5.10508 20.4 5.01397C20.4 4.82902 20.5355 4.67909 20.7027 4.67909C20.8699 4.67909 21.0054 4.82902 21.0054 5.01397C21.0054 5.06617 20.9946 5.11557 20.9753 5.15961C21.1809 5.13236 21.3955 5.11548 21.6193 5.10896V4.82517H21.2944V4.62316H21.6193V4.38258H21.9624V4.62316H22.3584V4.82517H21.9624V5.10698C22.2174 5.1114 22.4562 5.12914 22.679 5.16028C22.6595 5.11607 22.6486 5.06643 22.6486 5.01397C22.6486 4.82902 22.7842 4.67909 22.9513 4.67909C23.1185 4.67909 23.254 4.82902 23.254 5.01397C23.254 5.10869 23.2185 5.19423 23.1614 5.25514C23.2581 5.28036 23.351 5.30879 23.44 5.34044L23.6884 4.79581L23.9258 4.89725L23.6794 5.43753C23.6989 5.4465 23.7181 5.45566 23.7372 5.465L23.6065 5.65333L23.5856 5.64321L23.5457 5.73064L23.3083 5.62921L23.3471 5.54417C22.9686 5.40832 22.5072 5.33494 21.9624 5.32505V5.4147H21.6193V5.32712C20.9726 5.34683 20.4114 5.45695 19.9351 5.65671ZM19.8192 5.88023L19.8798 5.98222L19.6759 6.06934L20.0135 6.80957C19.9474 6.83318 19.8826 6.85828 19.8192 6.88488L19.9351 7.07997C20.4114 6.88021 20.9726 6.77008 21.6193 6.75037V6.83795H21.9624V6.7483C22.5072 6.75819 22.9686 6.83158 23.3471 6.96743L23.3083 7.05246L23.5457 7.1539L23.5856 7.06647L23.6065 7.07659L23.7372 6.88826C23.7181 6.87892 23.6989 6.86976 23.6794 6.86079L23.9258 6.3205L23.6884 6.21907L23.44 6.7637C23.351 6.73205 23.2581 6.70362 23.1614 6.6784C23.2185 6.61748 23.254 6.53195 23.254 6.43723C23.254 6.25228 23.1185 6.10234 22.9513 6.10234C22.7842 6.10234 22.6486 6.25228 22.6486 6.43723C22.6486 6.48969 22.6595 6.53933 22.679 6.58353C22.4562 6.5524 22.2174 6.53466 21.9624 6.53023V6.24842H22.3584V6.04642H21.9624V5.80583H21.6193V6.04642H21.2944V6.24842H21.6193V6.53221C21.3955 6.53874 21.1809 6.55561 20.9753 6.58286C20.9946 6.53883 21.0054 6.48942 21.0054 6.43723C21.0054 6.25228 20.8699 6.10234 20.7027 6.10234C20.5355 6.10234 20.4 6.25228 20.4 6.43723C20.4 6.52834 20.4329 6.61095 20.4862 6.67133C20.4096 6.68918 20.3345 6.70873 20.2608 6.72995L19.9579 6.06582C20.4816 5.85061 21.1065 5.7425 21.8338 5.7425C22.5695 5.7425 23.16 5.85311 23.6065 6.07194L23.7372 5.8836C23.2471 5.64339 22.6122 5.52447 21.8338 5.52447C21.0576 5.52447 20.3857 5.64271 19.8192 5.88023ZM19.8192 7.30348L19.8798 7.40548L19.6759 7.4926L20.0135 8.23282C19.9474 8.25643 19.8826 8.28154 19.8192 8.30814L19.9351 8.50322C20.4114 8.30346 20.9726 8.19334 21.6193 8.17363V8.26121H21.9624V8.17156C22.5072 8.18145 22.9686 8.25483 23.3471 8.39068L23.3083 8.47572L23.5457 8.57715L23.5856 8.48973L23.6065 8.49985L23.7372 8.31151C23.7181 8.30217 23.6989 8.29302 23.6794 8.28404L23.9258 7.74376L23.6884 7.64232L23.44 8.18695C23.351 8.1553 23.2581 8.12687 23.1614 8.10165C23.2185 8.04074 23.254 7.9552 23.254 7.86048C23.254 7.67553 23.1185 7.5256 22.9513 7.5256C22.7842 7.5256 22.6486 7.67553 22.6486 7.86048C22.6486 7.91294 22.6595 7.96258 22.679 8.00679C22.4562 7.97565 22.2174 7.95792 21.9624 7.95349V7.67168H22.3584V7.46967H21.9624V7.22909H21.6193V7.46967H21.2944V7.67168H21.6193V7.95547C21.3955 7.96199 21.1809 7.97887 20.9753 8.00612C20.9946 7.96208 21.0054 7.91268 21.0054 7.86048C21.0054 7.67553 20.8699 7.5256 20.7027 7.5256C20.5355 7.5256 20.4 7.67553 20.4 7.86048C20.4 7.95159 20.4329 8.03421 20.4862 8.09458C20.4096 8.11244 20.3345 8.13198 20.2608 8.15321L19.9579 7.48908C20.4816 7.27387 21.1065 7.16576 21.8338 7.16576C22.5695 7.16576 23.16 7.27636 23.6065 7.49519L23.7372 7.30686C23.2471 7.06665 22.6122 6.94773 21.8338 6.94773C21.0576 6.94773 20.3857 7.06596 19.8192 7.30348ZM19.8192 8.72674L19.9351 8.92183C20.4633 8.7003 21.0958 8.58901 21.8338 8.58901C22.5695 8.58901 23.16 8.69962 23.6065 8.91845L23.7372 8.73012C23.2471 8.4899 22.6122 8.37099 21.8338 8.37099C21.0576 8.37099 20.3857 8.48922 19.8192 8.72674Z" fill="#F4B300"/>
</g>
<defs>
<clipPath id="clip0_270_67511">
<rect width="32" height="24" fill="white"/>
</clipPath>
</defs>
</svg>
