<svg fill="none" height="24" viewBox="0 0 32 24" width="32" xmlns="http://www.w3.org/2000/svg" xmlns:xlink="http://www.w3.org/1999/xlink"><mask id="a" height="24" maskUnits="userSpaceOnUse" width="32" x="0" y="0"><path d="m0 0h32v24h-32z" fill="#fff"/></mask><g mask="url(#a)"><path clip-rule="evenodd" d="m0 0h32v24h-32z" fill="#2e42a5" fill-rule="evenodd"/><path d="m14.4122 19.917c.1223-.1242.3229 0 .3229 0s.5795-.4145.5795-.4824c0-.0678-.2794-.8894-.0441-1.174.2352-.2847 2.1443-1.2828 2.3218-1.2263.1776.0566.6196.9315.7635.9315.144 0 .5608.0194.5608-.119s-.1367-.7056.2993-.976c.4359-.2704.7491-.5773.9894-.3245.2404.2528.3444.0906.3444.0906s.0705-.3542-.0615-.4591c-.132-.1048-.4045-.337-.1312-.4829s.4975-.1057.4975-.1057l.1858-.2867-.1858-.3635.9019-1.0351-.1312-.2414s.2036-.1334.2375-.3451.1639-.3542-.1063-.474-.3621.073-.4537.1198c-.0915.0467-.1257.1761-.1257.1761l-.1367-.2959s-.8761-.3431-1.1862-.3431-.5576.0051-.4155-.4326c.1422-.4377.3158-.5386.2187-.6691s-.1421.1305-.4414-.0778c-.2993-.2084-.8979-.2743-.8979-.6114s-.6742-1.51929-.9402-1.51929-.3225.10061-.3225.10061-1.3448-.33744-1.3448-.4578.2132-.38233.2132-.38233-.2339-.52592-.4537-.438c-.2198.08793-.6316.5-.8447.5s-.5711.02855-.5711.02855.7842.77941.5711 1.12118c-.2131.34178-.3839.58928-.3839.58928l-.2665-.0126-.5658.444.2447.5131s-.3926.449-.5481.449c-.1554 0-.3779-.1333-.6303 0-.2525.1333-.5116.1009-.5116.1009s-.3682.2366-.3682.3217-.0874.2742-.0874.2742h-.3872l-.5039-.2239s-.69133.2666-.6082.5559c.0832.2893.9075.5144.9075.5144l-.2364.3421s.1107.6741.3417.7936c.2309.1195.66.8565.66.8565l-.1735.2098s.2993.1197.2993.3612.358.2968.358.2968l.3099-.0762.04.1517.2473.0855.0779.1169s1.2382 1.2728 1.1343 1.5206.1777.7622.1777.7622l.1735.6019-.3512.3435s.3151.4867.4373.3626z" fill="#e8ab02"/><path clip-rule="evenodd" d="m18.3169 5.48033-.9827.55748.2807-1.13302-.9414-.8326h1.2296l.4123-1.07219.4836 1.07219h1.0481l-.8235.8326.3959 1.13302zm3.26 1.37518.9827-.55748 1.1026.55748-.396-1.13302.8235-.83259h-1.0481l-.4835-1.0722-.4124 1.0722h-1.2295l.9413.83259zm3.8502 1.09437.9827-.55748 1.1026.55748-.396-1.13302.8236-.8326h-1.0482l-.4835-1.07219-.4124 1.07219h-1.2295l.9414.8326zm-20.26642 0 .98268-.55748 1.10263.55748-.39598-1.13302.82353-.8326h-1.04812l-.48354-1.07219-.41237 1.07219h-1.22951l.94134.8326zm4.83292-1.65185-.98269.55748.28066-1.13302-.94133-.83259h1.22951l.41237-1.0722.48358 1.0722h1.0481l-.8236.83259.396 1.13302zm3.2551-.26022.9827-.55748 1.1026.55748-.396-1.13302.8235-.8326h-1.0481l-.4835-1.07219-.4124 1.07219h-1.2295l.9413.8326z" fill="#f7fcff" fill-rule="evenodd"/></g></svg>