<svg width="16" height="12" viewBox="0 0 16 12" fill="none" xmlns="http://www.w3.org/2000/svg">
<mask id="mask0" mask-type="alpha" maskUnits="userSpaceOnUse" x="0" y="0" width="16" height="12">
<rect width="16" height="12" fill="white"/>
</mask>
<g mask="url(#mask0)">
<path fill-rule="evenodd" clip-rule="evenodd" d="M0 0H16V12H0V0Z" fill="#5EAA22"/>
<path fill-rule="evenodd" clip-rule="evenodd" d="M0 0L16 12H0V0Z" fill="#4141DB"/>
<path fill-rule="evenodd" clip-rule="evenodd" d="M3 4.5L2.5 4.86603L2.56699 4.25L2 4L2.56699 3.75L2.5 3.13397L3 3.5L3.5 3.13397L3.43301 3.75L4 4L3.43301 4.25L3.5 4.86603L3 4.5Z" fill="white"/>
<path fill-rule="evenodd" clip-rule="evenodd" d="M2 7.5L1.5 7.86603L1.56699 7.25L1 7L1.56699 6.75L1.5 6.13397L2 6.5L2.5 6.13397L2.43301 6.75L3 7L2.43301 7.25L2.5 7.86603L2 7.5Z" fill="white"/>
<path fill-rule="evenodd" clip-rule="evenodd" d="M4 10.5L3.5 10.866L3.56699 10.25L3 10L3.56699 9.75L3.5 9.13397L4 9.5L4.5 9.13397L4.43301 9.75L5 10L4.43301 10.25L4.5 10.866L4 10.5Z" fill="white"/>
<path fill-rule="evenodd" clip-rule="evenodd" d="M4.5 5.75L4.25 5.93301L4.28349 5.625L4 5.5L4.28349 5.375L4.25 5.06699L4.5 5.25L4.75 5.06699L4.71651 5.375L5 5.5L4.71651 5.625L4.75 5.93301L4.5 5.75Z" fill="white"/>
<path fill-rule="evenodd" clip-rule="evenodd" d="M10.7805 6.11199C10.5936 5.917 12.2757 5.45885 12.45 4.86808C12.681 4.35374 12.5267 3.93696 11.6536 3.57094C10.7805 3.20491 9.89818 2.49717 10.9128 2.49717C11.9274 2.49717 11.9274 2.64184 12.2 3.06859C12.4726 3.49534 13.0617 3.58675 13.0742 3.06859C13.0742 2.18569 13.1576 2.06694 12.4448 1.29936C11.7321 0.531773 14.2321 1.61457 14.0254 2.93047C13.8188 4.24637 13.57 3.82176 13.728 4.04265C13.8859 4.26355 14.8361 3.57784 14.7175 4.49125C14.385 5.01657 13.7257 5.7982 10.7805 6.11199Z" fill="#FECA00"/>
<path fill-rule="evenodd" clip-rule="evenodd" d="M8 8.5C9.38071 8.5 10.5 7.38071 10.5 6C10.5 4.61929 9.38071 3.5 8 3.5C6.61929 3.5 5.5 4.61929 5.5 6C5.5 7.38071 6.61929 8.5 8 8.5Z" fill="#FECA00"/>
<path fill-rule="evenodd" clip-rule="evenodd" d="M6.47648 5.08108C6.76006 5.01785 7.14782 5.77721 7.84768 5.4924C8.54754 5.2076 8.6937 4.66387 9.02623 4.86287C9.35876 5.06187 9.40241 5.54101 9.18089 5.78183C8.95938 6.02265 8.58347 6.07962 8.58347 6.384C8.58347 6.68838 8.50976 7.77382 8.36611 7.45925C7.93531 7.10972 8.19814 6.553 7.66751 6.384C7.13688 6.215 6.8146 6.22066 6.42317 6.29197C6.03174 6.36329 6.68614 6.09607 6.82492 5.84236C7.1075 5.57051 6.34682 5.17148 6.47648 5.08108Z" fill="#548650"/>
</g>
</svg>
