<svg xmlns="http://www.w3.org/2000/svg" fill="none" viewBox="0 0 16 12"><mask id="408_svg__a" width="16" height="12" x="0" y="0" mask-type="alpha" maskUnits="userSpaceOnUse"><path fill="#fff" d="M0 0H16V12H0z"/></mask><g mask="url(#408_svg__a)"><path fill="#3D58DB" fill-rule="evenodd" d="M0 0V12H16V0H0Z" clip-rule="evenodd"/><mask id="408_svg__b" width="16" height="12" x="0" y="0" mask-type="alpha" maskUnits="userSpaceOnUse"><path fill="#fff" fill-rule="evenodd" d="M0 0V12H16V0H0Z" clip-rule="evenodd"/></mask><g mask="url(#408_svg__b)"><path fill="#C51918" stroke="#F7FCFF" d="M0 2.5H-0.5V3V9V9.5H0H16H16.5V9V3V2.5H16H0Z"/><path fill="#F7FCFF" fill-rule="evenodd" d="M5 8.5C6.38071 8.5 7.5 7.38071 7.5 6C7.5 4.61929 6.38071 3.5 5 3.5C3.61929 3.5 2.5 4.61929 2.5 6C2.5 7.38071 3.61929 8.5 5 8.5Z" clip-rule="evenodd"/><path fill="#C51918" fill-rule="evenodd" d="M4.99754 6.93486L3.63938 7.87995L4.11852 6.29621L2.79999 5.29657L4.45428 5.26286L4.99754 3.69995L5.54081 5.26286L7.1951 5.29657L5.87657 6.29621L6.35571 7.87995L4.99754 6.93486Z" clip-rule="evenodd"/></g></g></svg>