<svg width="16" height="12" viewBox="0 0 16 12" fill="none" xmlns="http://www.w3.org/2000/svg">
<mask id="mask0" mask-type="alpha" maskUnits="userSpaceOnUse" x="0" y="0" width="16" height="12">
<rect width="16" height="12" fill="white"/>
</mask>
<g mask="url(#mask0)">
<path fill-rule="evenodd" clip-rule="evenodd" d="M0 0V12H16V0H0Z" fill="#1C9975"/>
<mask id="mask1" mask-type="alpha" maskUnits="userSpaceOnUse" x="0" y="0" width="16" height="12">
<path fill-rule="evenodd" clip-rule="evenodd" d="M0 0V12H16V0H0Z" fill="white"/>
</mask>
<g mask="url(#mask1)">
<path fill-rule="evenodd" clip-rule="evenodd" d="M8.0108 3.42691L7.19394 3.92005L7.38026 2.95774L6.70001 2.23755L7.6211 2.19861L8.0108 1.30005L8.40049 2.19861H9.32001L8.64134 2.95774L8.84566 3.92005L8.0108 3.42691Z" fill="#FECA00"/>
<path fill-rule="evenodd" clip-rule="evenodd" d="M5.69131 3.79226L5.18623 4.09717L5.30144 3.50216L4.88083 3.05685L5.45036 3.03277L5.69131 2.47717L5.93227 3.03277H6.50083L6.08119 3.50216L6.20753 4.09717L5.69131 3.79226Z" fill="#FECA00"/>
<path fill-rule="evenodd" clip-rule="evenodd" d="M10.2905 3.79226L9.78541 4.09717L9.90062 3.50216L9.48001 3.05685L10.0495 3.03277L10.2905 2.47717L10.5315 3.03277H11.1L10.6804 3.50216L10.8067 4.09717L10.2905 3.79226Z" fill="#FECA00"/>
<path fill-rule="evenodd" clip-rule="evenodd" d="M4.38325 4.80531L3.97794 5.05L4.07039 4.57252L3.73286 4.21517L4.18989 4.19585L4.38325 3.75L4.57661 4.19585H5.03286L4.69612 4.57252L4.7975 5.05L4.38325 4.80531Z" fill="#FECA00"/>
<path fill-rule="evenodd" clip-rule="evenodd" d="M11.7804 4.80531L11.3751 5.05L11.4675 4.57252L11.13 4.21517L11.587 4.19585L11.7804 3.75L11.9738 4.19585H12.43L12.0933 4.57252L12.1946 5.05L11.7804 4.80531Z" fill="#FECA00"/>
<mask id="mask2" mask-type="alpha" maskUnits="userSpaceOnUse" x="4" y="3" width="8" height="8">
<path fill-rule="evenodd" clip-rule="evenodd" d="M8 11C10.2091 11 12 9.20914 12 7C12 4.79086 10.2091 3 8 3C5.79086 3 4 4.79086 4 7C4 9.20914 5.79086 11 8 11Z" fill="white"/>
</mask>
<g mask="url(#mask2)">
<path d="M6.31014 11.6392H4.35779V9.01035L6.30663 9.01038C6.99698 9.00067 7.50144 8.80349 7.83802 8.42414L8.00574 8.23511L8.19295 8.40485C8.64248 8.81244 9.0915 9.01035 9.54574 9.01035H11.6979V11.6392H9.54574C9.02389 11.6392 8.52009 11.4429 8.03835 11.0586C7.61171 11.4367 7.03241 11.6291 6.31014 11.6392Z" fill="#F7FCFF"/>
</g>
<path fill-rule="evenodd" clip-rule="evenodd" d="M8.01735 3.80396C8.01735 3.80396 7.16297 4.64796 7.16297 5.80625C7.16297 6.05412 7.2021 6.28829 7.26361 6.50328C6.98835 5.89321 6.96927 5.23168 7.20683 4.51008L6.88348 4.40363C6.64181 5.1377 6.64077 5.82786 6.8807 6.46748C6.38439 6.16845 5.81337 5.96753 5.22728 5.90274L5.18987 6.24111C5.70208 6.29773 6.20202 6.46852 6.64095 6.72134C6.53258 6.67765 6.41895 6.63964 6.3004 6.60938C5.21893 6.33336 4.15791 6.72475 4.15791 6.72475C4.15791 6.72475 4.76996 8.09786 5.9554 8.30034C6.01451 8.31044 6.07293 8.3183 6.1306 8.32412L6.12165 8.32414C5.55645 8.32414 5.03084 8.09306 4.53866 7.62358L4.30369 7.86992C4.85652 8.39724 5.46457 8.66457 6.12165 8.66457C6.76427 8.66457 7.36109 8.40888 7.90643 7.90435C7.99391 7.85152 8.0451 7.81372 8.05329 7.80758L8.07475 7.82582C8.06351 7.84513 8.05787 7.85567 8.05787 7.85567C8.05787 7.85567 8.11163 7.88821 8.20859 7.93406C8.74704 8.35141 9.42073 8.66457 9.95375 8.66457C10.6108 8.66457 11.2189 8.39724 11.7717 7.86992L11.5367 7.62358C11.0446 8.09306 10.519 8.32414 9.95375 8.32414C9.74726 8.32414 9.54492 8.29098 9.34645 8.22421C9.62437 8.23917 9.93055 8.21413 10.2475 8.11724C11.4152 7.76023 11.902 6.68041 11.902 6.68041C11.902 6.68041 11.2806 6.34516 10.4915 6.34139C10.6683 6.29579 10.8528 6.26237 11.0452 6.24111L11.0078 5.90274C10.2677 5.98455 9.62735 6.23436 9.09022 6.6512C9.40428 5.96063 9.42859 5.20852 9.16361 4.40363L8.84026 4.51008C9.05679 5.1678 9.06011 5.77561 8.85057 6.34004C8.88645 6.17314 8.90767 5.99476 8.90767 5.80625C8.90767 4.58517 8.01735 3.80396 8.01735 3.80396ZM8.39321 7.37777L8.38053 7.39602L8.39599 7.3776L8.39321 7.37777ZM7.56742 7.29804L7.60088 7.26726C7.63131 7.3178 7.66167 7.36539 7.69133 7.4098C7.65286 7.37357 7.61152 7.33612 7.56742 7.29804Z" fill="#F7FCFF"/>
</g>
</g>
</svg>
