<svg xmlns="http://www.w3.org/2000/svg" fill="none" viewBox="0 0 16 12"><mask id="659_svg__a" width="16" height="12" x="0" y="0" mask-type="alpha" maskUnits="userSpaceOnUse"><rect width="16" height="12" fill="#fff" rx="-1"/></mask><g mask="url(#659_svg__a)"><path fill="#C51918" fill-rule="evenodd" d="M0 0V12H16V0H0Z" clip-rule="evenodd"/><path fill="#5EAA22" fill-rule="evenodd" d="M0 0V12L16 0H0Z" clip-rule="evenodd"/><path fill="#272727" stroke="#FFD018" stroke-width="1.25" d="M0.317932 13.976L0.679617 14.3795L1.1303 14.0787L19.2608 1.97692L19.8604 1.5767L19.3792 1.0399L16.7188 -1.92792L16.3571 -2.3314L15.9064 -2.03058L-2.22406 10.0712L-2.82365 10.4714L-2.34246 11.0082L0.317932 13.976Z"/><path fill="#F7FCFF" fill-rule="evenodd" d="M6.04429 8.45911 5.49998 9.40643 5.15238 8.33928 4.07133 7.99564 4.97216 7.44532 4.86362 6.32911 5.7527 7.01267 6.67357 6.50222 6.41531 7.63922 7.15414 8.48952 6.04429 8.45911zM11.0443 5.1825 10.5 6.12982 10.1524 5.06266 9.07133 4.71903 9.97216 4.16871 9.86362 3.0525 10.7527 3.73605 11.6736 3.2256 11.4153 4.36261 12.1541 5.21291 11.0443 5.1825z" clip-rule="evenodd"/></g></svg>