<svg width="16" height="12" viewBox="0 0 16 12" fill="none" xmlns="http://www.w3.org/2000/svg">
<mask id="mask0" mask-type="alpha" maskUnits="userSpaceOnUse" x="0" y="0" width="16" height="12">
<rect width="16" height="12" fill="white"/>
</mask>
<g mask="url(#mask0)">
<path fill-rule="evenodd" clip-rule="evenodd" d="M0 0V12H16V0H0Z" fill="#2E42A5"/>
<mask id="mask1" mask-type="alpha" maskUnits="userSpaceOnUse" x="0" y="0" width="16" height="12">
<path fill-rule="evenodd" clip-rule="evenodd" d="M0 0V12H16V0H0Z" fill="white"/>
</mask>
<g mask="url(#mask1)">
<path fill-rule="evenodd" clip-rule="evenodd" d="M0 0V4H16V0H0Z" fill="#F7FCFF"/>
<path fill-rule="evenodd" clip-rule="evenodd" d="M0 8V12H16V8H0Z" fill="#C51918"/>
<path fill-rule="evenodd" clip-rule="evenodd" d="M6.87012 2.51821C6.87012 2.51821 5.81775 2.02124 4.50885 2.02124C3.19995 2.02124 2.14758 2.51821 2.14758 2.51821C2.14758 2.51821 2.2647 4.51557 2.4498 5.57367C2.52883 6.02544 2.9087 6.68436 3.2526 6.99624C3.64458 7.35172 4.50885 7.77286 4.50885 7.77286C4.75896 7.60052 5.22659 7.52302 5.82431 6.99624C6.42202 6.46946 6.57059 5.57367 6.57059 5.57367L6.87012 2.51821Z" fill="#2E42A5"/>
<path d="M6.73102 2.45288L7.16928 2.67174L6.86842 5.68305C6.76305 6.32039 6.49939 6.82298 6.07775 7.19458C5.84902 7.39616 5.62576 7.54678 5.38639 7.67193C5.25128 7.74257 4.68611 8.0337 4.69103 8.03132C4.6344 8.05862 4.59146 8.08252 4.55658 8.10655L4.50192 8.14422L4.4429 8.11546C3.85752 7.83022 3.31137 7.44635 3.03996 7.20022C2.66947 6.86423 2.27883 6.1767 2.19555 5.70063C2.07102 4.9888 1.95935 4.00835 1.88098 2.67174L2.27468 2.46577C2.35246 3.79231 2.44635 4.84977 2.56863 5.54875C2.64097 5.96229 3.0012 6.59629 3.32982 6.8943C3.57268 7.11454 3.96395 7.35876 4.50192 7.62437C4.53401 7.60556 4.56957 7.58695 4.61026 7.56734C4.6114 7.56679 4.97736 7.40427 5.10454 7.33778C5.32761 7.22115 5.53496 7.08127 5.74844 6.89312C6.12273 6.56326 6.35633 6.11902 6.45081 5.55468L6.73102 2.45288Z" fill="#C51918" stroke="#C51918"/>
<path fill-rule="evenodd" clip-rule="evenodd" d="M2.77106 5.51221C2.77106 5.51221 3.02892 6.30113 3.48052 6.74146C3.93211 7.18179 4.49038 7.39762 4.49038 7.39762C4.49038 7.39762 5.15532 7.19641 5.5327 6.77279C5.91009 6.34916 6.29644 5.51221 6.29644 5.51221L5.41879 4.66992L5.06996 5.04846L4.49038 4.22217L4.00515 5.04846L3.63308 4.66992L2.77106 5.51221Z" fill="white"/>
<path fill-rule="evenodd" clip-rule="evenodd" d="M3.57342 2.94314H3.22186L3.49453 2.6877L3.22186 2.41777H3.57342L3.72186 2.15576L3.8709 2.41777H4.22186L3.96283 2.67149L4.19284 2.94314H3.8709L3.72186 3.21964L3.57342 2.94314Z" fill="#FECA00"/>
<path fill-rule="evenodd" clip-rule="evenodd" d="M5.23028 2.94314H4.87872L5.15139 2.6877L4.87872 2.41777H5.23028L5.37872 2.15576L5.52776 2.41777H5.87872L5.61969 2.67149L5.8497 2.94314H5.52776L5.37872 3.21964L5.23028 2.94314Z" fill="#FECA00"/>
<path fill-rule="evenodd" clip-rule="evenodd" d="M4.29999 3.78372H3.94843L4.2211 3.52828L3.94843 3.25835H4.29999L4.44843 2.99634L4.59746 3.25835H4.94843L4.68939 3.51207L4.9194 3.78372H4.59746L4.44843 4.06022L4.29999 3.78372Z" fill="#FECA00"/>
</g>
</g>
</svg>
