<svg xmlns="http://www.w3.org/2000/svg" fill="none" viewBox="0 0 16 12"><mask id="AMS_svg__a" width="16" height="12" x="0" y="0" mask-type="alpha" maskUnits="userSpaceOnUse"><path fill="#fff" d="M0 0H16V12H0z"/></mask><g mask="url(#AMS_svg__a)"><path fill="#E31D1C" fill-rule="evenodd" d="M0 0V12H16V0H0Z" clip-rule="evenodd"/><mask id="AMS_svg__b" width="16" height="12" x="0" y="0" mask-type="alpha" maskUnits="userSpaceOnUse"><path fill="#fff" fill-rule="evenodd" d="M0 0V12H16V0H0Z" clip-rule="evenodd"/></mask><g fill-rule="evenodd" clip-rule="evenodd" mask="url(#AMS_svg__b)"><path fill="#272727" d="M0 4V8H16V4H0Z"/><path fill="#F7FCFF" d="M3.00421 6.01294 1.80613 7.21102 2.60804 8.01294 3.80613 6.81485 5.00421 8.01294 5.80613 7.21102 4.60804 6.01294 5.80613 4.81485 5.00421 4.01294 3.80613 5.21102 2.60804 4.01294 1.80613 4.81485 3.00421 6.01294zM7.08808 5.94818 5.89 7.14627 6.69191 7.94818 7.89 6.7501 9.08808 7.94818 9.89 7.14627 8.69191 5.94818 9.89 4.7501 9.08808 3.94818 7.89 5.14627 6.69191 3.94818 5.89 4.7501 7.08808 5.94818zM11.1367 5.96198 9.93859 7.16006 10.7405 7.96198 11.9386 6.76389 13.1367 7.96198 13.9386 7.16006 12.7405 5.96198 13.9386 4.76389 13.1367 3.96198 11.9386 5.16006 10.7405 3.96198 9.93859 4.76389 11.1367 5.96198z"/></g></g></svg>