<svg width="16" height="12" viewBox="0 0 16 12" fill="none" xmlns="http://www.w3.org/2000/svg">
<mask id="mask0" mask-type="alpha" maskUnits="userSpaceOnUse" x="0" y="0" width="16" height="12">
<rect width="16" height="12" fill="white"/>
</mask>
<g mask="url(#mask0)">
<path fill-rule="evenodd" clip-rule="evenodd" d="M0 0V12H16V0H0Z" fill="#5BA3DA"/>
<mask id="mask1" mask-type="alpha" maskUnits="userSpaceOnUse" x="0" y="0" width="16" height="12">
<path fill-rule="evenodd" clip-rule="evenodd" d="M0 0V12H16V0H0Z" fill="white"/>
</mask>
<g mask="url(#mask1)">
<path fill-rule="evenodd" clip-rule="evenodd" d="M2.78027 4.28987L0.242218 3.53564L2.83663 2.79652L3.47 0.436462L4.20122 2.86862L6.60051 3.51048L4.19413 4.23358L3.47595 6.55789L2.78027 4.28987Z" fill="#EF2929"/>
<path fill-rule="evenodd" clip-rule="evenodd" d="M2.78027 4.28987L0.242218 3.53564L2.83663 2.79652L3.47 0.436462L4.20122 2.86862L6.60051 3.51048L4.19413 4.23358L3.47595 6.55789L2.78027 4.28987Z" fill="#FF0000"/>
<path fill-rule="evenodd" clip-rule="evenodd" d="M16.0001 7H6.10352e-05V8.00006H16.0001V7ZM16.0001 9.00004H6.10352e-05V10.0001H16.0001V9.00004Z" fill="#FAD615"/>
</g>
</g>
</svg>
