<svg xmlns="http://www.w3.org/2000/svg" fill="none" viewBox="0 0 16 12"><mask id="AW_svg__a" width="16" height="12" x="0" y="0" mask-type="alpha" maskUnits="userSpaceOnUse"><path fill="#fff" d="M0 0H16V12H0z"/></mask><g mask="url(#AW_svg__a)"><path fill="#5BA3DA" fill-rule="evenodd" d="M0 0V12H16V0H0Z" clip-rule="evenodd"/><mask id="AW_svg__b" width="16" height="12" x="0" y="0" mask-type="alpha" maskUnits="userSpaceOnUse"><path fill="#fff" fill-rule="evenodd" d="M0 0V12H16V0H0Z" clip-rule="evenodd"/></mask><g fill-rule="evenodd" clip-rule="evenodd" mask="url(#AW_svg__b)"><path fill="#EF2929" d="M2.78027 4.28987L0.242218 3.53564L2.83663 2.79652L3.47 0.436462L4.20122 2.86862L6.60051 3.51048L4.19413 4.23358L3.47595 6.55789L2.78027 4.28987Z"/><path fill="red" d="M2.78027 4.28987L0.242218 3.53564L2.83663 2.79652L3.47 0.436462L4.20122 2.86862L6.60051 3.51048L4.19413 4.23358L3.47595 6.55789L2.78027 4.28987Z"/><path fill="#FAD615" d="M16.0001 7H6.10352e-05V8.00006H16.0001V7ZM16.0001 9.00004H6.10352e-05V10.0001H16.0001V9.00004Z"/></g></g></svg>