<svg width="16" height="12" viewBox="0 0 16 12" fill="none" xmlns="http://www.w3.org/2000/svg">
<path fill-rule="evenodd" clip-rule="evenodd" d="M0 0V12H16V0H0Z" fill="#5196ED"/>
<mask id="mask0" mask-type="alpha" maskUnits="userSpaceOnUse" x="0" y="0" width="16" height="12">
<path fill-rule="evenodd" clip-rule="evenodd" d="M0 0V12H16V0H0Z" fill="white"/>
</mask>
<g mask="url(#mask0)">
<path fill-rule="evenodd" clip-rule="evenodd" d="M0 6V9H16V6H0Z" fill="#AF0100"/>
<path fill-rule="evenodd" clip-rule="evenodd" d="M0 3V6H16V3H0Z" fill="#F7FCFF"/>
<path fill-rule="evenodd" clip-rule="evenodd" d="M0 0V3H16V0H0Z" fill="#FBCD17"/>
<path fill-rule="evenodd" clip-rule="evenodd" d="M0 0L8 6L0 12V0Z" fill="#5EAA22"/>
<path fill-rule="evenodd" clip-rule="evenodd" d="M3.1523 8.72792C3.1523 8.72792 1.36062 8.06075 1.42399 5.97232C1.48737 3.88388 3.31171 3.47466 3.31171 3.47466C2.6728 2.97132 0.386628 3.56115 0.313465 5.97232C0.240301 8.38349 2.47105 8.91917 3.1523 8.72792ZM3.24732 5.14272L3.31468 4.75002L3.02936 4.4719L3.42366 4.41461L3.59999 4.05731L3.77633 4.41461L4.17063 4.4719L3.88531 4.75002L3.95266 5.14272L3.59999 4.95731L3.24732 5.14272ZM3.31468 5.75002L3.24732 6.14272L3.59999 5.95731L3.95266 6.14272L3.88531 5.75002L4.17063 5.4719L3.77633 5.41461L3.59999 5.05731L3.42366 5.41461L3.02936 5.4719L3.31468 5.75002ZM3.24732 7.14272L3.31468 6.75002L3.02936 6.4719L3.42366 6.41461L3.59999 6.05731L3.77633 6.41461L4.17063 6.4719L3.88531 6.75002L3.95266 7.14272L3.59999 6.95731L3.24732 7.14272ZM3.24732 8.14272L3.31468 7.75002L3.02936 7.4719L3.42366 7.41461L3.59999 7.05731L3.77633 7.41461L4.17063 7.4719L3.88531 7.75002L3.95266 8.14272L3.59999 7.95731L3.24732 8.14272Z" fill="#F7FCFF"/>
</g>
</svg>
