<svg width="16" height="12" viewBox="0 0 16 12" fill="none" xmlns="http://www.w3.org/2000/svg">
<mask id="mask0" mask-type="alpha" maskUnits="userSpaceOnUse" x="0" y="0" width="16" height="12">
<rect width="16" height="12" fill="white"/>
</mask>
<g mask="url(#mask0)">
<path fill-rule="evenodd" clip-rule="evenodd" d="M0 0V12H16V0H0Z" fill="#2E42A5"/>
<mask id="mask1" mask-type="alpha" maskUnits="userSpaceOnUse" x="0" y="0" width="16" height="12">
<path fill-rule="evenodd" clip-rule="evenodd" d="M0 0V12H16V0H0Z" fill="white"/>
</mask>
<g mask="url(#mask1)">
<path fill-rule="evenodd" clip-rule="evenodd" d="M2.12721 3.07461L1.13279 3.59946L1.61292 2.66526L1 1.98157L1.76167 1.95346L2.12721 1L2.40617 1.95346L3.29748 1.98157L2.65574 2.66526L3.06286 3.59946L2.12721 3.07461Z" fill="#F7FCFF"/>
<path fill-rule="evenodd" clip-rule="evenodd" d="M5.67613 5.53829L4.44882 6.0524L4.93031 4.76409L3.86322 3.89965H5.14187L5.67613 2.5061L6.08384 3.89965H7.36446L6.45445 4.76409L6.90631 6.0524L5.67613 5.53829Z" fill="#F7FCFF"/>
<path fill-rule="evenodd" clip-rule="evenodd" d="M0 7V9H16V7H0Z" fill="#F9E813"/>
</g>
</g>
</svg>
