<svg width="16" height="12" viewBox="0 0 16 12" fill="none" xmlns="http://www.w3.org/2000/svg">
<mask id="mask0" mask-type="alpha" maskUnits="userSpaceOnUse" x="0" y="0" width="16" height="12">
<rect width="16" height="12" fill="white"/>
</mask>
<g mask="url(#mask0)">
<rect width="16" height="12" fill="#F7FCFF"/>
<path fill-rule="evenodd" clip-rule="evenodd" d="M0 8H16V12H0V8Z" fill="#C51918"/>
<path fill-rule="evenodd" clip-rule="evenodd" d="M8.22896 0.633301H7.28159V1.48092H7.74921L7.71585 3.81187H6.33423V2.75235H6.80791V1.90473H5.86054V2.32854H5.38686V1.90473H4.43949V2.75235H4.91317V3.81187H3.91425V4.65949L4.38793 4.65949V7.20235H3.91425V8.04997H12.9142V7.20235H11.9669V4.65949H12.9142V3.81187H11.9856L12.0091 2.75235H12.4921V1.90473H11.5448V2.32854H11.0711V1.90473H10.1237V2.75235H10.588L10.5646 3.81187H9.1369L9.17027 1.48092H9.65002V0.633301H8.70265V1.05711H8.22896V0.633301Z" fill="#DB000B"/>
<path fill-rule="evenodd" clip-rule="evenodd" d="M5.80792 6.84511C5.80792 6.5399 6.05534 6.29248 6.36055 6.29248C6.66576 6.29248 6.91319 6.5399 6.91319 6.84511V7.75915H5.80792V6.84511Z" fill="#272727"/>
<path fill-rule="evenodd" clip-rule="evenodd" d="M9.86053 6.84511C9.86053 6.5399 10.108 6.29248 10.4132 6.29248C10.7184 6.29248 10.9658 6.5399 10.9658 6.84511V7.75915H9.86053V6.84511Z" fill="#272727"/>
<path fill-rule="evenodd" clip-rule="evenodd" d="M7.65002 6.66262C7.65002 6.25568 7.97992 5.92578 8.38687 5.92578C8.79381 5.92578 9.12371 6.25568 9.12371 6.66262V8.12578H7.65002V6.66262Z" fill="#272727"/>
<path fill-rule="evenodd" clip-rule="evenodd" d="M8.66114 7.59866L8.57074 7.76464L8.40238 7.51343L7.02295 8.4379L8.56089 9.16981L9.91726 8.28285L8.66114 7.59866ZM8.03128 8.36403L8.47502 8.06665L8.94382 8.32199L8.52223 8.59768L8.03128 8.36403Z" fill="#E8AA00"/>
<path fill-rule="evenodd" clip-rule="evenodd" d="M7.57892 10.2667H8.31576V11.0001H7.57892V10.2667Z" fill="#E8AA00"/>
<path fill-rule="evenodd" clip-rule="evenodd" d="M8 9H8.87441V11H8V9Z" fill="#E8AA00"/>
</g>
</svg>
