<svg width="16" height="12" viewBox="0 0 16 12" fill="none" xmlns="http://www.w3.org/2000/svg">
<mask id="mask0" mask-type="alpha" maskUnits="userSpaceOnUse" x="0" y="0" width="16" height="12">
<rect width="16" height="12" fill="white"/>
</mask>
<g mask="url(#mask0)">
<path fill-rule="evenodd" clip-rule="evenodd" d="M16 0H0V3H16V0ZM16 9H0V12H16V9Z" fill="#F50101"/>
<path fill-rule="evenodd" clip-rule="evenodd" d="M0 3H16V9H0V3Z" fill="#F7FCFF"/>
<path fill-rule="evenodd" clip-rule="evenodd" d="M10.7574 6.25656C10.7947 6.69023 9.19429 6.07663 9.19429 6.25027C9.19429 6.42391 10.9087 6.72879 10.9059 7.1175C10.903 7.50621 8.87299 7.00659 9.32822 7.18139C9.78344 7.35619 10.7608 7.77466 10.6497 8.03537C10.4125 8.59213 8.83672 7.64911 8.70565 7.83502C8.49414 8.13488 9.86847 8.83436 9.85686 8.9012C9.83445 9.02937 8.9182 8.69974 8.70565 8.96591C8.53359 8.91737 8.45406 8.68567 8.40062 8.65493L8.06246 4.29324C8.06246 4.29324 8.36609 8.39995 7.97813 8.51806C7.59016 8.63617 6.51244 8.99527 6.48108 8.81592C6.4694 8.74908 7.77873 8.13488 7.56722 7.83502C7.41144 7.61404 5.83135 8.39768 5.73053 7.94391C5.28145 7.62018 7.1849 7.34005 7.1849 7.009C7.1849 6.67791 5.4436 7.40084 5.65192 6.93998C5.86023 6.47911 7.25427 6.31411 7.28028 6.25027C7.32783 6.13354 5.73053 6.43199 5.73053 6.25027C5.73053 5.90643 6.68662 5.83877 7.28028 5.52933C7.31536 5.17622 5.84012 5.87696 5.73053 5.5939C5.62095 5.31084 7.61611 4.57752 7.56722 4.52039C7.49001 4.43017 5.88205 4.83726 6.14722 4.62349C6.66188 4.20859 7.66645 3.64439 7.89759 3.4939C7.89759 3.4939 7.92543 3.43712 7.95519 3.45639C7.98501 3.43712 8.01779 3.41602 8.01779 3.41602C8.01779 3.41602 8.01779 3.77103 8.01285 3.4939C8.00791 3.21677 10.3677 4.4294 10.3945 4.73681C10.4256 5.09592 8.93639 4.46607 8.97141 4.81918C9.27414 5.00674 10.1352 5.36972 10.4909 5.52933C10.6523 5.60172 9.30206 5.3761 9.33057 5.48688C9.40325 5.7692 10.7185 5.80426 10.7574 6.25656Z" fill="#52AB0B"/>
</g>
</svg>
