<svg width="16" height="12" viewBox="0 0 16 12" fill="none" xmlns="http://www.w3.org/2000/svg">
<mask id="mask0" mask-type="alpha" maskUnits="userSpaceOnUse" x="0" y="0" width="16" height="12">
<rect width="16" height="12" fill="white"/>
</mask>
<g mask="url(#mask0)">
<path fill-rule="evenodd" clip-rule="evenodd" d="M0 0V12H16V0H0Z" fill="#E31D1C"/>
<mask id="mask1" mask-type="alpha" maskUnits="userSpaceOnUse" x="0" y="0" width="16" height="12">
<path fill-rule="evenodd" clip-rule="evenodd" d="M0 0V12H16V0H0Z" fill="white"/>
</mask>
<g mask="url(#mask1)">
<path fill-rule="evenodd" clip-rule="evenodd" d="M0 0V6H16V0H0Z" fill="#2E42A5"/>
<path fill-rule="evenodd" clip-rule="evenodd" d="M2.39923 5.52665C2.39923 5.52665 3.00256 5.90219 4.40065 5.90219C5.79873 5.90219 6.54083 5.52665 6.54083 5.52665C6.54083 5.52665 5.44442 4.88928 4.46407 4.88928C3.48373 4.88928 2.39923 5.52665 2.39923 5.52665Z" fill="black"/>
<path d="M2.43532 3.3711L2.32728 3.43397L2.36344 3.4961H2.43532H6.59794H6.68953L6.71713 3.40876L6.59794 3.3711L6.71716 3.40868L6.71719 3.40857L6.71728 3.40829L6.71755 3.40744L6.71841 3.40465L6.72136 3.39478C6.72384 3.38634 6.72729 3.37425 6.73143 3.35889C6.7397 3.32819 6.75072 3.28431 6.76212 3.23036C6.78486 3.1228 6.80948 2.97355 6.81633 2.80794C6.82974 2.48384 6.77625 2.06127 6.46166 1.78779C6.16557 1.5304 5.75269 1.40238 5.36275 1.33677C4.97008 1.27069 4.58331 1.26526 4.32706 1.26526C3.79766 1.26526 3.31179 1.32798 2.52537 1.77336C2.30588 1.89767 2.18038 2.07071 2.12096 2.26035C2.0627 2.44628 2.07 2.64094 2.10102 2.81159C2.13216 2.98295 2.18865 3.13787 2.23656 3.24894C2.26066 3.30479 2.28291 3.35029 2.2993 3.38213C2.30751 3.39807 2.31427 3.41063 2.31909 3.41939L2.32482 3.42966L2.32648 3.43258L2.32699 3.43347L2.32717 3.43376L2.32723 3.43388C2.32726 3.43392 2.32728 3.43397 2.43532 3.3711Z" fill="#FFD83D" stroke="black" stroke-width="0.25"/>
<path d="M1.94308 3.453L2.00136 3.56358C1.94308 3.453 1.94313 3.45297 1.94318 3.45295L1.9433 3.45288L1.9436 3.45273L1.94441 3.4523L1.94695 3.451L1.95562 3.44665C1.96302 3.44301 1.97362 3.4379 1.98745 3.43154C2.01511 3.41883 2.05566 3.40111 2.10919 3.38008C2.21624 3.33803 2.37513 3.28274 2.58648 3.22772C3.00927 3.11765 3.6414 3.00879 4.48759 3.00879C5.33378 3.00879 5.96592 3.11765 6.38871 3.22772C6.60006 3.28274 6.75895 3.33803 6.866 3.38008C6.91952 3.40111 6.96008 3.41883 6.98774 3.43154C7.00156 3.4379 7.01217 3.44301 7.01956 3.44665L7.02824 3.451L7.03078 3.4523L7.03159 3.45273L7.03189 3.45288L7.03201 3.45295C7.03206 3.45297 7.03211 3.453 6.97383 3.56358L7.03211 3.453L7.12945 3.5043L7.09091 3.60737L6.49846 5.19155L6.45717 5.30197L1.94308 3.453ZM1.94308 3.453L1.8466 3.50384L1.88389 3.60633L2.46038 5.19051L2.50063 5.30113L2.61344 5.26759L1.94308 3.453ZM6.34452 5.26721L6.34455 5.26721L2.61346 5.26758L2.61351 5.26757L2.6139 5.26745L2.6157 5.26692L2.62335 5.26471L2.65416 5.25602C2.68136 5.24848 2.72157 5.23762 2.77294 5.22455C2.87571 5.19839 3.02299 5.16343 3.20006 5.12845C3.555 5.05833 4.02606 4.98888 4.49707 4.98888C4.96795 4.98888 5.43015 5.0583 5.77604 5.12833C5.94862 5.16328 6.09141 5.1982 6.1908 5.22431C6.24049 5.23736 6.27928 5.24819 6.30547 5.25571L6.3351 5.26437L6.34241 5.26656L6.34413 5.26709L6.34449 5.2672L6.34452 5.26721Z" fill="#FFD83D" stroke="black" stroke-width="0.25"/>
<mask id="path-9-outside-1" maskUnits="userSpaceOnUse" x="3.05882" y="-1" width="3" height="3" fill="black">
<rect fill="white" x="3.05882" y="-1" width="3" height="3"/>
<path fill-rule="evenodd" clip-rule="evenodd" d="M4.56302 0H4.31092L4.34338 0.461361L4.05882 0.422642V0.739623L4.34775 0.699826L4.31092 1.42642H4.56302L4.5257 0.698603L4.81513 0.739623V0.422642L4.53095 0.463433L4.56302 0Z"/>
</mask>
<path fill-rule="evenodd" clip-rule="evenodd" d="M4.56302 0H4.31092L4.34338 0.461361L4.05882 0.422642V0.739623L4.34775 0.699826L4.31092 1.42642H4.56302L4.5257 0.698603L4.81513 0.739623V0.422642L4.53095 0.463433L4.56302 0Z" fill="#FFD83D"/>
<path d="M4.31092 0V-0.25H4.04272L4.06154 0.0175417L4.31092 0ZM4.56302 0L4.81243 0.0172624L4.83093 -0.25H4.56302V0ZM4.34338 0.461361L4.30967 0.709078L4.61433 0.750534L4.59276 0.443819L4.34338 0.461361ZM4.05882 0.422642L4.09253 0.174924L3.80882 0.13632V0.422642H4.05882ZM4.05882 0.739623H3.80882V1.02642L4.09294 0.987284L4.05882 0.739623ZM4.34775 0.699826L4.59743 0.712479L4.61271 0.410969L4.31363 0.452164L4.34775 0.699826ZM4.31092 1.42642L4.06124 1.41376L4.04793 1.67642H4.31092V1.42642ZM4.56302 1.42642V1.67642H4.82617L4.8127 1.41361L4.56302 1.42642ZM4.5257 0.698603L4.56078 0.451077L4.2605 0.408518L4.27603 0.711406L4.5257 0.698603ZM4.81513 0.739623L4.78004 0.987149L5.06513 1.02755V0.739623H4.81513ZM4.81513 0.422642H5.06513V0.134194L4.7796 0.175178L4.81513 0.422642ZM4.53095 0.463433L4.28154 0.446171L4.26018 0.754862L4.56647 0.710897L4.53095 0.463433ZM4.31092 0.25H4.56302V-0.25H4.31092V0.25ZM4.59276 0.443819L4.56031 -0.0175417L4.06154 0.0175417L4.09399 0.478902L4.59276 0.443819ZM4.02512 0.670359L4.30967 0.709078L4.37708 0.213643L4.09253 0.174924L4.02512 0.670359ZM4.30882 0.739623V0.422642H3.80882V0.739623H4.30882ZM4.31363 0.452164L4.02471 0.491961L4.09294 0.987284L4.38186 0.947487L4.31363 0.452164ZM4.5606 1.43907L4.59743 0.712479L4.09807 0.687172L4.06124 1.41376L4.5606 1.43907ZM4.56302 1.17642H4.31092V1.67642H4.56302V1.17642ZM4.27603 0.711406L4.31335 1.43922L4.8127 1.41361L4.77537 0.6858L4.27603 0.711406ZM4.85021 0.492096L4.56078 0.451077L4.49062 0.94613L4.78004 0.987149L4.85021 0.492096ZM4.56513 0.422642V0.739623H5.06513V0.422642H4.56513ZM4.56647 0.710897L4.85065 0.670105L4.7796 0.175178L4.49543 0.215969L4.56647 0.710897ZM4.31362 -0.0172624L4.28154 0.446171L4.78035 0.480695L4.81243 0.0172624L4.31362 -0.0172624Z" fill="black" mask="url(#path-9-outside-1)"/>
</g>
</g>
</svg>
