<svg width="16" height="12" viewBox="0 0 16 12" fill="none" xmlns="http://www.w3.org/2000/svg">
<mask id="mask0" mask-type="alpha" maskUnits="userSpaceOnUse" x="0" y="0" width="16" height="12">
<rect width="16" height="12" fill="white"/>
</mask>
<g mask="url(#mask0)">
<path fill-rule="evenodd" clip-rule="evenodd" d="M0 0V12H16V0H0Z" fill="#009933"/>
<mask id="mask1" mask-type="alpha" maskUnits="userSpaceOnUse" x="0" y="0" width="16" height="12">
<path fill-rule="evenodd" clip-rule="evenodd" d="M0 0V12H16V0H0Z" fill="white"/>
</mask>
<g mask="url(#mask1)">
<path fill-rule="evenodd" clip-rule="evenodd" d="M0 0V12L16 0H0Z" fill="#3195F9"/>
<path d="M-0.506236 13.5468L-0.240958 14.0274L0.21286 13.7185L17.6288 1.86383L17.9798 1.62488L17.8009 1.23978L16.6299 -1.27981L16.3843 -1.80836L15.8993 -1.48519L-1.77858 10.2931L-2.16135 10.5481L-1.93909 10.9508L-0.506236 13.5468Z" fill="#E31D1C" stroke="#F7FCFF"/>
<path fill-rule="evenodd" clip-rule="evenodd" d="M3.11483 4.62235L2.46778 5.4296L2.31105 4.40698L1.34706 4.78256L1.72264 3.81857L0.700012 3.66184L1.50727 3.01479L0.700012 2.36774L1.72264 2.21101L1.34706 1.24702L2.31105 1.6226L2.46778 0.599976L3.11483 1.40723L3.76187 0.599976L3.91861 1.6226L4.88259 1.24702L4.50702 2.21101L5.52964 2.36774L4.72239 3.01479L5.52964 3.66184L4.50702 3.81857L4.88259 4.78256L3.91861 4.40698L3.76187 5.4296L3.11483 4.62235ZM3.11483 4.26479C3.80518 4.26479 4.36483 3.70515 4.36483 3.01479C4.36483 2.32443 3.80518 1.76479 3.11483 1.76479C2.42447 1.76479 1.86483 2.32443 1.86483 3.01479C1.86483 3.70515 2.42447 4.26479 3.11483 4.26479ZM4.11483 3.01479C4.11483 3.56708 3.66711 4.01479 3.11483 4.01479C2.56254 4.01479 2.11483 3.56708 2.11483 3.01479C2.11483 2.46251 2.56254 2.01479 3.11483 2.01479C3.66711 2.01479 4.11483 2.46251 4.11483 3.01479Z" fill="#FECA00"/>
</g>
</g>
</svg>
