<svg xmlns="http://www.w3.org/2000/svg" fill="none" viewBox="0 0 32 24"><mask id="304_svg__a" width="32" height="24" x="0" y="0" mask-type="alpha" maskUnits="userSpaceOnUse"><path fill="#fff" d="M0 0H32V24H0z"/></mask><g mask="url(#304_svg__a)"><path fill="#C51918" fill-rule="evenodd" d="M0 12H32V24H0V12Z" clip-rule="evenodd"/><mask id="304_svg__b" width="32" height="12" x="0" y="12" mask-type="alpha" maskUnits="userSpaceOnUse"><path fill="#fff" fill-rule="evenodd" d="M0 12H32V24H0V12Z" clip-rule="evenodd"/></mask><g mask="url(#304_svg__b)"><path fill="#F7FCFF" fill-rule="evenodd" d="M12 20C16.4183 20 20 16.4183 20 12C20 7.58172 16.4183 4 12 4C7.58172 4 4 7.58172 4 12C4 16.4183 7.58172 20 12 20Z" clip-rule="evenodd"/></g><path fill="#F7FCFF" fill-rule="evenodd" d="M0 0H32V12H0V0Z" clip-rule="evenodd"/><mask id="304_svg__c" width="32" height="12" x="0" y="0" mask-type="alpha" maskUnits="userSpaceOnUse"><path fill="#fff" fill-rule="evenodd" d="M0 0H32V12H0V0Z" clip-rule="evenodd"/></mask><g mask="url(#304_svg__c)"><path fill="#C51918" fill-rule="evenodd" d="M12 20C16.4183 20 20 16.4183 20 12C20 7.58172 16.4183 4 12 4C7.58172 4 4 7.58172 4 12C4 16.4183 7.58172 20 12 20Z" clip-rule="evenodd"/></g></g></svg>