<svg width="32" height="24" viewBox="0 0 32 24" fill="none" xmlns="http://www.w3.org/2000/svg">
<mask id="mask0" mask-type="alpha" maskUnits="userSpaceOnUse" x="0" y="0" width="32" height="24">
<rect width="32" height="24" fill="white"/>
</mask>
<g mask="url(#mask0)">
<path fill-rule="evenodd" clip-rule="evenodd" d="M0 0V24H32V0H0Z" fill="#F7FCFF"/>
<mask id="mask1" mask-type="alpha" maskUnits="userSpaceOnUse" x="0" y="0" width="32" height="24">
<path fill-rule="evenodd" clip-rule="evenodd" d="M0 0V24H32V0H0Z" fill="white"/>
</mask>
<g mask="url(#mask1)">
<path fill-rule="evenodd" clip-rule="evenodd" d="M16 0V12H32V0H16Z" fill="#E31D1C"/>
<path fill-rule="evenodd" clip-rule="evenodd" d="M23.0209 19.1497L20.7185 20.5744L21.6123 18.1827L19.6553 16.372H22.0291L23.0209 13.7849L23.7778 16.372H26.1553L24.4419 18.1827L25.2808 20.5744L23.0209 19.1497Z" fill="#E31D1C"/>
<path fill-rule="evenodd" clip-rule="evenodd" d="M9.02091 8.36481L6.71847 9.78952L7.61235 7.39778L5.65527 5.5871H8.02906L9.02091 3L9.77782 5.5871H12.1553L10.4419 7.39778L11.2808 9.78952L9.02091 8.36481Z" fill="#2E42A5"/>
<path fill-rule="evenodd" clip-rule="evenodd" d="M0 12V24H16V12H0Z" fill="#2E42A5"/>
</g>
</g>
</svg>
