<svg xmlns="http://www.w3.org/2000/svg" fill="none" viewBox="0 0 32 24"><mask id="831_svg__a" width="32" height="24" x="0" y="0" mask-type="alpha" maskUnits="userSpaceOnUse"><path fill="#fff" d="M0 0H32V24H0z"/></mask><g mask="url(#831_svg__a)"><path fill="#F7FCFF" fill-rule="evenodd" d="M0 0V24H32V0H0Z" clip-rule="evenodd"/><mask id="831_svg__b" width="32" height="24" x="0" y="0" mask-type="alpha" maskUnits="userSpaceOnUse"><path fill="#fff" fill-rule="evenodd" d="M0 0V24H32V0H0Z" clip-rule="evenodd"/></mask><g fill-rule="evenodd" clip-rule="evenodd" mask="url(#831_svg__b)"><path fill="#E31D1C" d="M12 0H20V8H32V16H20V24H12V16H0V8H12V0Z"/><path fill="#FECA00" d="M13.0055 3.0459L14 4.80011V9.99995H6.86521V9.94279L5.10596 8.94543V14.9056L6.77061 13.9999H14V19.0509L13.0055 20.8052H18.9657L18.0085 19.0459H18V13.9999H25.2006L26.8652 14.9056V8.94543L25.106 9.94279V9.99995H18V4.80516H18.0085L18.9657 3.0459H13.0055Z"/></g></g></svg>