<svg xmlns="http://www.w3.org/2000/svg" fill="none" viewBox="0 0 32 24"><mask id="BQ-SA_svg__a" width="32" height="24" x="0" y="0" mask-type="alpha" maskUnits="userSpaceOnUse"><path fill="#fff" d="M0 0H32V24H0z"/></mask><g fill-rule="evenodd" clip-rule="evenodd" mask="url(#BQ-SA_svg__a)"><path fill="#fff" d="M0 0H32V24H0V0Z"/><path fill="#F00000" d="M0 11.664V0H16L0 11.664zM32 11.664V0H16L32 11.664z"/><path fill="#00268D" d="M0 11.664V24H16L0 11.664zM32 11.6641V24.3361L16 24.0001 32 11.6641z"/><path fill="#FEDA00" d="M15.714 14.2563L12.1965 16.7633L13.4873 12.622L10 10.087H14.3446L15.714 6L17.1655 10.087H21.3918L17.9349 12.622L19.2489 16.7633L15.714 14.2563Z"/></g></svg>