<svg xmlns="http://www.w3.org/2000/svg" fill="none" viewBox="0 0 32 24"><mask id="BR_svg__a" width="32" height="24" x="0" y="0" mask-type="alpha" maskUnits="userSpaceOnUse"><path fill="#fff" d="M0 0H32V24H0z"/></mask><g mask="url(#BR_svg__a)"><path fill="#093" fill-rule="evenodd" d="M0 0V24H32V0H0Z" clip-rule="evenodd"/><mask id="BR_svg__b" width="32" height="24" x="0" y="0" mask-type="alpha" maskUnits="userSpaceOnUse"><path fill="#fff" fill-rule="evenodd" d="M0 0V24H32V0H0Z" clip-rule="evenodd"/></mask><g mask="url(#BR_svg__b)"><g fill-rule="evenodd" clip-rule="evenodd" filter="url(#BR_svg__c)"><path fill="#FFD221" d="M15.9268 3.70404L28.1286 12.2075L15.7608 20.1713L3.80893 12.0427L15.9268 3.70404Z"/><path fill="url(#BR_svg__d)" d="M15.9268 3.70404L28.1286 12.2075L15.7608 20.1713L3.80893 12.0427L15.9268 3.70404Z"/></g><path fill="#2E42A5" fill-rule="evenodd" d="M16 17.2C18.7614 17.2 21 14.9614 21 12.2C21 9.43853 18.7614 7.19995 16 7.19995C13.2386 7.19995 11 9.43853 11 12.2C11 14.9614 13.2386 17.2 16 17.2Z" clip-rule="evenodd"/><mask id="BR_svg__e" width="10" height="11" x="11" y="7" mask-type="alpha" maskUnits="userSpaceOnUse"><path fill="#fff" fill-rule="evenodd" d="M16 17.2C18.7614 17.2 21 14.9614 21 12.2C21 9.43853 18.7614 7.19995 16 7.19995C13.2386 7.19995 11 9.43853 11 12.2C11 14.9614 13.2386 17.2 16 17.2Z" clip-rule="evenodd"/></mask><g mask="url(#BR_svg__e)"><path fill="#F7FCFF" fill-rule="evenodd" d="M14.38 14.57 14.1566 14.6874 14.1993 14.4387 14.0186 14.2626 14.2683 14.2263 14.38 14 14.4917 14.2263 14.7414 14.2626 14.5607 14.4387 14.6034 14.6874 14.38 14.57zM16.38 14.57 16.1566 14.6874 16.1993 14.4387 16.0186 14.2626 16.2683 14.2263 16.38 14 16.4917 14.2263 16.7414 14.2626 16.5607 14.4387 16.6034 14.6874 16.38 14.57zM16.38 15.77 16.1566 15.8874 16.1993 15.6387 16.0186 15.4625 16.2683 15.4262 16.38 15.2 16.4917 15.4262 16.7414 15.4625 16.5607 15.6387 16.6034 15.8874 16.38 15.77zM15.38 11.57 15.1566 11.6874 15.1993 11.4387 15.0186 11.2626 15.2683 11.2263 15.38 11 15.4917 11.2263 15.7414 11.2626 15.5607 11.4387 15.6034 11.6874 15.38 11.57zM15.38 13.57 15.1566 13.6874 15.1993 13.4387 15.0186 13.2626 15.2683 13.2263 15.38 13 15.4917 13.2263 15.7414 13.2626 15.5607 13.4387 15.6034 13.6874 15.38 13.57zM13.98 12.57 13.7566 12.6874 13.7993 12.4387 13.6186 12.2626 13.8683 12.2263 13.98 12 14.0917 12.2263 14.3414 12.2626 14.1607 12.4387 14.2033 12.6874 13.98 12.57zM12.58 13.37 12.3566 13.4875 12.3993 13.2388 12.2185 13.0626 12.4683 13.0263 12.58 12.8 12.6916 13.0263 12.9414 13.0626 12.7607 13.2388 12.8033 13.4875 12.58 13.37zM17.18 9.97002 16.9567 10.0875 16.9993 9.83874 16.8186 9.6626 17.0684 9.62631 17.18 9.40002 17.2917 9.62631 17.5415 9.6626 17.3607 9.83874 17.4034 10.0875 17.18 9.97002z" clip-rule="evenodd"/><path fill="#F7FCFF" d="M9.9248 10.9971L10.0752 9.00281C14.8731 9.36459 18.66 10.9422 21.3882 13.7484L19.9542 15.1425C17.5896 12.7103 14.2624 11.3242 9.9248 10.9971Z"/><path fill="#093" d="M12.2894 10.6028L12.3409 10.1055C15.4339 10.4259 18.0868 11.6105 20.2917 13.657L19.9516 14.0234C17.8269 12.0515 15.2755 10.9121 12.2894 10.6028Z"/></g></g></g><defs><filter id="BR_svg__c" width="24.32" height="16.467" x="3.809" y="3.704" color-interpolation-filters="sRGB" filterUnits="userSpaceOnUse"><feFlood flood-opacity="0" result="BackgroundImageFix"/><feColorMatrix in="SourceAlpha" values="0 0 0 0 0 0 0 0 0 0 0 0 0 0 0 0 0 0 127 0"/><feOffset/><feColorMatrix values="0 0 0 0 0.0313726 0 0 0 0 0.368627 0 0 0 0 0 0 0 0 0.28 0"/><feBlend in2="BackgroundImageFix" result="effect1_dropShadow"/><feBlend in="SourceGraphic" in2="effect1_dropShadow" result="shape"/></filter><linearGradient id="BR_svg__d" x1="32" x2="32" y1="24" y2="0" gradientUnits="userSpaceOnUse"><stop stop-color="#FFC600"/><stop offset="1" stop-color="#FFDE42"/></linearGradient></defs></svg>