<svg xmlns="http://www.w3.org/2000/svg" fill="none" viewBox="0 0 32 24"><mask id="CAF_svg__a" width="32" height="24" x="0" y="0" mask-type="alpha" maskUnits="userSpaceOnUse"><path fill="#fff" d="M0 0H32V24H0z"/></mask><g fill-rule="evenodd" clip-rule="evenodd" mask="url(#CAF_svg__a)"><path fill="#3D58DB" d="M0 0H32V6H0V0Z"/><path fill="#F7FCFF" d="M0 6H32V12H0V6Z"/><path fill="#73BE4A" d="M0 12H32V18H0V12Z"/><path fill="#FFD018" d="M0 18H32V24H0V18Z"/><path fill="#FECA00" d="M4.5294 5.41606L2.10486 7.09777L2.87959 4.21741L1.09973 2.37743L3.50977 2.27794L4.5294 -0.570312L5.54904 2.27794H7.95498L6.17921 4.21741L7.06854 6.92776L4.5294 5.41606Z"/><path fill="#E11C1B" d="M12 0H20V24H12V0Z"/></g></svg>