<svg xmlns="http://www.w3.org/2000/svg" fill="none" viewBox="0 0 32 24"><mask id="FSM_svg__a" width="32" height="24" x="0" y="0" mask-type="alpha" maskUnits="userSpaceOnUse"><path fill="#fff" d="M0 0H32V24H0z"/></mask><g mask="url(#FSM_svg__a)"><path fill="#63B3E1" fill-rule="evenodd" d="M0 0V24H32V0H0Z" clip-rule="evenodd"/><mask id="FSM_svg__b" width="32" height="24" x="0" y="0" mask-type="alpha" maskUnits="userSpaceOnUse"><path fill="#fff" fill-rule="evenodd" d="M0 0V24H32V0H0Z" clip-rule="evenodd"/></mask><g fill="#F7FCFF" fill-rule="evenodd" clip-rule="evenodd" mask="url(#FSM_svg__b)"><path d="M16 7.30005 14.2366 8.2271 14.5734 6.26357 13.1468 4.873 15.1183 4.58652 16 2.80005 16.8817 4.58652 18.8532 4.873 17.4266 6.26357 17.7634 8.2271 16 7.30005zM16 19.3 14.2367 20.2271 14.5734 18.2636 13.1469 16.873 15.1183 16.5865 16 14.8 16.8817 16.5865 18.8532 16.873 17.4266 18.2636 17.7634 20.2271 16 19.3zM9.80005 13.5 8.03669 14.4271 8.37346 12.4635 6.94688 11.0729 8.91837 10.7865 9.80005 9 10.6817 10.7865 12.6532 11.0729 11.2266 12.4635 11.5634 14.4271 9.80005 13.5zM22 13.5 20.2366 14.4271 20.5734 12.4635 19.1468 11.0729 21.1183 10.7865 22 9 22.8817 10.7865 24.8532 11.0729 23.4266 12.4635 23.7634 14.4271 22 13.5z"/></g></g></svg>