<svg width="32" height="24" viewBox="0 0 32 24" fill="none" xmlns="http://www.w3.org/2000/svg">
<mask id="mask0" mask-type="alpha" maskUnits="userSpaceOnUse" x="0" y="0" width="32" height="24">
<rect width="32" height="24" fill="white"/>
</mask>
<g mask="url(#mask0)">
<path fill-rule="evenodd" clip-rule="evenodd" d="M0 0V24H32V0H0Z" fill="#F7FCFF"/>
<mask id="mask1" mask-type="alpha" maskUnits="userSpaceOnUse" x="0" y="0" width="32" height="24">
<path fill-rule="evenodd" clip-rule="evenodd" d="M0 0V24H32V0H0Z" fill="white"/>
</mask>
<g mask="url(#mask1)">
<path fill-rule="evenodd" clip-rule="evenodd" d="M12 0H20V8H32V16H20V24H12V16H0V8H12V0Z" fill="#E31D1C"/>
<path fill-rule="evenodd" clip-rule="evenodd" d="M13.0055 3.0459L14 4.80011V9.99995H6.86521V9.94279L5.10596 8.94543V14.9056L6.77061 13.9999H14V19.0509L13.0055 20.8052H18.9657L18.0085 19.0459H18V13.9999H25.2006L26.8652 14.9056V8.94543L25.106 9.94279V9.99995H18V4.80516H18.0085L18.9657 3.0459H13.0055Z" fill="#FECA00"/>
</g>
</g>
</svg>
