<svg xmlns="http://www.w3.org/2000/svg" fill="none" viewBox="0 0 32 24"><mask id="GIB_svg__a" width="32" height="24" x="0" y="0" mask-type="alpha" maskUnits="userSpaceOnUse"><path fill="#fff" d="M0 0H32V24H0z"/></mask><g mask="url(#GIB_svg__a)"><path fill="#F7FCFF" d="M0 0H32V24H0z"/><path fill="#C51918" fill-rule="evenodd" d="M0 16H32V24H0V16Z" clip-rule="evenodd"/><path fill="#DB000B" fill-rule="evenodd" d="M17.3889 5H13.6111V9.61538H12.6667V6.84615H8.88889V9.61538H7V10.5385H7.94444V15.1538H7V16.0769H24V15.1538H23.0556V10.5385H24V9.61538H22.1111V6.84615H18.3333V9.61538H17.3889V5Z" clip-rule="evenodd"/><path fill="#272727" d="M9.83337 8.58934C9.83337 8.13637 10.2006 7.76917 10.6535 7.76917 11.1065 7.76917 11.4737 8.13637 11.4737 8.58934V9.79993H9.83337V8.58934zM19.2778 8.58934C19.2778 8.13637 19.645 7.76917 20.098 7.76917 20.551 7.76917 20.9182 8.13637 20.9182 8.58934V9.79993H19.2778V8.58934z"/><path fill="#272727" fill-rule="evenodd" d="M9.56738 13.4706C9.56738 12.8708 10.0537 12.3845 10.6535 12.3845C11.2533 12.3845 11.7396 12.8708 11.7396 13.4706V15.3384H9.56738V13.4706Z" clip-rule="evenodd"/><path fill="#272727" d="M19.0118 13.4706C19.0118 12.8708 19.4981 12.3845 20.098 12.3845C20.6978 12.3845 21.1841 12.8708 21.1841 13.4706V15.3384H19.0118V13.4706Z"/><path fill="#272727" fill-rule="evenodd" d="M13.8945 13.6395C13.8945 12.8708 14.5177 12.2477 15.2863 12.2477C16.055 12.2477 16.6782 12.8708 16.6782 13.6395V16.3092H13.8945V13.6395Z" clip-rule="evenodd"/><path fill="#272727" d="M14.5555 7.66624C14.5555 7.21327 14.9227 6.84607 15.3757 6.84607C15.8287 6.84607 16.1959 7.21327 16.1959 7.66624V9.79992H14.5555V7.66624Z"/><path fill="#DE1A23" d="M7 8.692H7.944V9.615H7z"/><path fill="#DE1A23" fill-rule="evenodd" d="M8.5 6H9.5V7H8.5V6zM12.3181 6H13.3181V7H12.3181V6zM11.75 6H10.25V7H11.75V6zM18.0907 6H19.0907V7H18.0907V6zM21.8182 6H22.8182V7H21.8182V6zM21.2042 6H19.7042V7H21.2042V6zM13.7998 4.02271H12.7998V5.02271H13.7998V4.02271zM15.2998 4.02271H14.2998V5.02271H15.2998V4.02271zM15.7998 4.02271H16.7998V5.02271H15.7998V4.02271zM18.2998 4.02271H17.2998V5.02271H18.2998V4.02271z" clip-rule="evenodd"/><path fill="#DE1A23" d="M22.999 8.775H23.999V9.614H22.999z"/><path fill="#E8AA00" fill-rule="evenodd" d="M15.4395 18.4532 18.1523 16.6793 15.258 15.3258 12.3636 16.9894 15.4395 18.4532zM14.3803 16.8417 15.2678 16.2469 16.2054 16.7576 15.3622 17.3089 14.3803 16.8417zM13.4756 21.0066H14.9493V22.1136 21.7399H14.0335V22.1136H13.4756V21.0066z" clip-rule="evenodd"/><path fill="#E8AA00" fill-rule="evenodd" d="M14.8157 18.1136H16.0665V22.1136H14.8157V18.1136Z" clip-rule="evenodd"/></g></svg>