<svg xmlns="http://www.w3.org/2000/svg" fill="none" viewBox="0 0 32 24"><mask id="ISR_svg__a" width="32" height="24" x="0" y="0" mask-type="alpha" maskUnits="userSpaceOnUse"><path fill="#fff" d="M0 0H32V24H0z"/></mask><g mask="url(#ISR_svg__a)"><path fill="#F7FCFF" fill-rule="evenodd" d="M0 0V24H32V0H0Z" clip-rule="evenodd"/><mask id="ISR_svg__b" width="32" height="24" x="0" y="0" mask-type="alpha" maskUnits="userSpaceOnUse"><path fill="#fff" fill-rule="evenodd" d="M0 0V24H32V0H0Z" clip-rule="evenodd"/></mask><g fill="#3D58DB" fill-rule="evenodd" clip-rule="evenodd" mask="url(#ISR_svg__b)"><path d="M0 3V6H32V3H0zM0 18V21H32V18H0zM11.3812 14.9387H20.7582L16.1159 6.62024 11.3812 14.9387zM19.1533 13.9295H13.0206L16.1066 8.45988 19.1533 13.9295z"/><path d="M11.264 9.07606H20.6808L16.1359 17.1615L11.264 9.07606ZM19.0454 10.05H13.051L16.1093 15.5312L19.0454 10.05Z"/></g></g></svg>