<svg xmlns="http://www.w3.org/2000/svg" fill="none" viewBox="0 0 32 24"><mask id="PR_svg__a" width="32" height="24" x="0" y="0" mask-type="alpha" maskUnits="userSpaceOnUse"><path fill="#fff" d="M0 0H32V24H0z"/></mask><g mask="url(#PR_svg__a)"><path fill="#EF0000" fill-rule="evenodd" d="M0 0V24H32V0H0Z" clip-rule="evenodd"/><mask id="PR_svg__b" width="32" height="24" x="0" y="0" mask-type="alpha" maskUnits="userSpaceOnUse"><path fill="#fff" fill-rule="evenodd" d="M0 0V24H32V0H0Z" clip-rule="evenodd"/></mask><g mask="url(#PR_svg__b)"><path fill="#EF0000" stroke="#F7FCFF" stroke-width="4" d="M0 8H-2V10V14V16H0H32H34V14V10V8H32H0Z"/></g><path fill="#3D58DB" fill-rule="evenodd" d="M0 0V24L18 12L0 0Z" clip-rule="evenodd"/><mask id="PR_svg__c" width="18" height="24" x="0" y="0" mask-type="alpha" maskUnits="userSpaceOnUse"><path fill="#fff" fill-rule="evenodd" d="M0 0V24L18 12L0 0Z" clip-rule="evenodd"/></mask><g mask="url(#PR_svg__c)"><path fill="#F7FCFF" fill-rule="evenodd" d="M6.68777 14.217L3.01584 16.1549L4.8035 12.261L2.52551 10.1809L5.338 10.0771L6.68777 6.5564L7.71781 10.0771H10.5255L8.65412 12.261L10.1427 16.1549L6.68777 14.217Z" clip-rule="evenodd"/></g></g></svg>