<svg xmlns="http://www.w3.org/2000/svg" fill="none" viewBox="0 0 16 12"><mask id="084_svg__a" width="16" height="12" x="0" y="0" maskUnits="userSpaceOnUse"><path fill="#fff" d="M0 0h16v12H0z"/></mask><g mask="url(#084_svg__a)"><path fill="#0168B4" fill-rule="evenodd" d="M0 0v12h16V0H0z" clip-rule="evenodd"/><mask id="084_svg__b" width="16" height="12" x="0" y="0" maskUnits="userSpaceOnUse"><path fill="#fff" fill-rule="evenodd" d="M0 0v12h16V0H0z" clip-rule="evenodd"/></mask><g mask="url(#084_svg__b)"><path fill="#E93C43" fill-rule="evenodd" d="M0 0v2h16V0H0zm0 10v2h16v-2H0z" clip-rule="evenodd"/><path fill="#F7FCFF" d="M8 9a3 3 0 110-6 3 3 0 010 6z"/><path fill="#fff" fill-rule="evenodd" d="M4.5 6a3.5 3.5 0 107 0 3.5 3.5 0 00-7 0zM11 6a3 3 0 11-6 0 3 3 0 016 0z" clip-rule="evenodd"/><path fill="#5B8C39" fill-rule="evenodd" d="M5 6a3 3 0 106 0 3 3 0 00-6 0zm5.3 0a2.3 2.3 0 11-4.6 0 2.3 2.3 0 014.6 0z" clip-rule="evenodd"/><path fill="#5B8C39" fill-rule="evenodd" d="M6.5 7l1.47-.188L9.5 7v.5l-1.53-.188L6.5 7.5V7z" clip-rule="evenodd"/><path fill="#769DF1" fill-rule="evenodd" d="M7 5h2s.141 3-1 3-1-3-1-3z" clip-rule="evenodd"/><path fill="#FECA00" d="M8 5h1v1H8z"/><path fill="#F6F7F8" d="M7 5h1v1H7z" opacity=".6"/><rect width="2" height="1" x="7" y="4" fill="#5B8C39" opacity=".66" rx=".5"/><path fill="#E9AD35" fill-rule="evenodd" d="M6.9 6.4c.276 0 .5-.448.5-1s-.224-1-.5-1-.5.448-.5 1 .224 1 .5 1z" clip-rule="evenodd"/><path fill="#5C2216" fill-rule="evenodd" d="M9.1 6.4c.276 0 .5-.448.5-1s-.224-1-.5-1-.5.448-.5 1 .224 1 .5 1z" clip-rule="evenodd"/></g></g></svg>