<svg xmlns="http://www.w3.org/2000/svg" fill="none" viewBox="0 0 16 12"><mask id="156_svg__a" width="16" height="12" x="0" y="0" maskUnits="userSpaceOnUse"><path fill="#fff" d="M0 0h16v12H0z"/></mask><g fill-rule="evenodd" clip-rule="evenodd" mask="url(#156_svg__a)"><path fill="#E31D1C" d="M0 0h16v12H0V0z"/><path fill="#FECA00" d="M3.557 4.878L1.61 6.403l.744-2.307-1.299-1.2 1.758-.065.744-1.857.744 1.857h1.754L4.76 4.096l.59 2.307-1.793-1.525zm3.951-1.792l-.817.493.187-.962-.68-.72.92-.04.39-.898.39.899h.92l-.68.759.205.962-.835-.493z"/><path fill="#FECA00" d="M8.508 5.086l-.817.493.187-.962-.68-.72.92-.04.39-.898.39.899h.92l-.68.759.205.962-.835-.493z"/><path fill="#FECA00" d="M7.508 7.086l-.817.493.187-.962-.68-.72.92-.04.39-.898.39.899h.92l-.68.759.205.962-.835-.493z"/><path fill="#FECA00" d="M5.508 8.086l-.817.493.187-.962-.68-.72.92-.04.39-.898.39.899h.92l-.68.759.205.962-.835-.493z"/></g></svg>