<svg xmlns="http://www.w3.org/2000/svg" fill="none" viewBox="0 0 16 12"><mask id="268_svg__a" width="16" height="12" x="0" y="0" mask-type="alpha" maskUnits="userSpaceOnUse"><path fill="#fff" d="M0 0H16V12H0z"/></mask><g mask="url(#268_svg__a)"><path fill="#F7FCFF" fill-rule="evenodd" d="M0 0V12H16V0H0Z" clip-rule="evenodd"/><mask id="268_svg__b" width="16" height="12" x="0" y="0" mask-type="alpha" maskUnits="userSpaceOnUse"><path fill="#fff" fill-rule="evenodd" d="M0 0V12H16V0H0Z" clip-rule="evenodd"/></mask><g fill="#E31D1C" fill-rule="evenodd" clip-rule="evenodd" mask="url(#268_svg__b)"><path d="M7 0H9V5H16V7H9V12H7V7H0V5H7V0Z"/><path d="M4.99935 8.61098 6.10001 8.5V9.5C6.10001 9.5 4.99935 9.43108 4.99935 9.45098 4.99935 9.47088 5.10001 10.5 5.10001 10.5H4.10001L4.18012 9.5H3.10001V8.5L4.18012 8.61098 4.10001 7.5H5.10001L4.99935 8.61098zM4.99935 2.61098 6.10001 2.5V3.5C6.10001 3.5 4.99935 3.43108 4.99935 3.45098 4.99935 3.47088 5.10001 4.5 5.10001 4.5H4.10001L4.18012 3.5H3.10001V2.5L4.18012 2.61098 4.10001 1.5H5.10001L4.99935 2.61098zM11.9993 2.61098 13.1 2.5V3.5C13.1 3.5 11.9993 3.43108 11.9993 3.45098 11.9993 3.47088 12.1 4.5 12.1 4.5H11.1L11.1801 3.5H10.1V2.5L11.1801 2.61098 11.1 1.5H12.1L11.9993 2.61098zM11.9993 8.61098 13.1 8.5V9.5C13.1 9.5 11.9993 9.43108 11.9993 9.45098 11.9993 9.47088 12.1 10.5 12.1 10.5H11.1L11.1801 9.5H10.1V8.5L11.1801 8.61098 11.1 7.5H12.1L11.9993 8.61098z"/></g></g></svg>