<svg xmlns="http://www.w3.org/2000/svg" fill="none" viewBox="0 0 16 12"><mask id="520_svg__a" width="16" height="12" x="0" y="0" mask-type="alpha" maskUnits="userSpaceOnUse"><path fill="#fff" d="M0 0H16V12H0z"/></mask><g mask="url(#520_svg__a)"><path fill="#2E42A5" fill-rule="evenodd" d="M0 0V12H16V0H0Z" clip-rule="evenodd"/><mask id="520_svg__b" width="16" height="12" x="0" y="0" mask-type="alpha" maskUnits="userSpaceOnUse"><path fill="#fff" fill-rule="evenodd" d="M0 0V12H16V0H0Z" clip-rule="evenodd"/></mask><g fill-rule="evenodd" clip-rule="evenodd" mask="url(#520_svg__b)"><path fill="#FECA00" d="M0 4V6H16V4H0Z"/><path fill="#F7FCFF" d="M4.41481 9.78981L3.64227 10.7925L3.60661 9.52721L2.39227 9.88428L3.10711 8.83971L1.91481 8.41481L3.10711 7.98992L2.39227 6.94535L3.60661 7.30242L3.64227 6.03717L4.41481 7.03981L5.18736 6.03717L5.22302 7.30242L6.43736 6.94535L5.72252 7.98992L6.91481 8.41481L5.72252 8.83971L6.43736 9.88428L5.22302 9.52721L5.18736 10.7925L4.41481 9.78981Z"/></g></g></svg>