<svg xmlns="http://www.w3.org/2000/svg" fill="none" viewBox="0 0 16 12"><mask id="533_svg__a" width="16" height="12" x="0" y="0" maskUnits="userSpaceOnUse"><path fill="#fff" d="M0 0h16v12H0z"/></mask><g mask="url(#533_svg__a)"><path fill="#5BA3DA" fill-rule="evenodd" d="M0 0v12h16V0H0z" clip-rule="evenodd"/><mask id="533_svg__b" width="16" height="12" x="0" y="0" maskUnits="userSpaceOnUse"><path fill="#fff" fill-rule="evenodd" d="M0 0v12h16V0H0z" clip-rule="evenodd"/></mask><g fill-rule="evenodd" clip-rule="evenodd" mask="url(#533_svg__b)"><path fill="#EF2929" d="M2.78 4.29L.242 3.536l2.595-.74.633-2.36.731 2.433 2.4.641-2.407.724-.718 2.324L2.78 4.29z"/><path fill="red" d="M2.78 4.29L.242 3.536l2.595-.74.633-2.36.731 2.433 2.4.641-2.407.724-.718 2.324L2.78 4.29z"/><path fill="#FAD615" d="M16 7H0v1h16V7zm0 2H0v1h16V9z"/></g></g></svg>