<svg xmlns="http://www.w3.org/2000/svg" fill="none" viewBox="0 0 16 12"><mask id="831_svg__a" width="16" height="12" x="0" y="0" mask-type="alpha" maskUnits="userSpaceOnUse"><path fill="#fff" d="M0 0H16V12H0z"/></mask><g mask="url(#831_svg__a)"><path fill="#F7FCFF" fill-rule="evenodd" d="M0 0V12H16V0H0Z" clip-rule="evenodd"/><mask id="831_svg__b" width="16" height="12" x="0" y="0" mask-type="alpha" maskUnits="userSpaceOnUse"><path fill="#fff" fill-rule="evenodd" d="M0 0V12H16V0H0Z" clip-rule="evenodd"/></mask><g fill-rule="evenodd" clip-rule="evenodd" mask="url(#831_svg__b)"><path fill="#E31D1C" d="M6 0H10V4H16V8H10V12H6V8H0V4H6V0Z"/><path fill="#FECA00" d="M6.50275 1.52295L6.99999 2.40005V4.99997H3.43261V4.97139L2.55298 4.47272V7.45281L3.3853 6.99997H6.99999V9.52547L6.50275 10.4026H9.48284L9.00427 9.52295H8.99999V6.99997H12.6003L13.4326 7.45281V4.47272L12.553 4.97139V4.99997H8.99999V2.40258H9.00427L9.48284 1.52295H6.50275Z"/></g></g></svg>