<svg xmlns="http://www.w3.org/2000/svg" fill="none" viewBox="0 0 16 12"><mask id="858_svg__a" width="16" height="12" x="0" y="0" mask-type="alpha" maskUnits="userSpaceOnUse"><path fill="#fff" d="M0 0H16V12H0z"/></mask><g mask="url(#858_svg__a)"><path fill="#F7FCFF" fill-rule="evenodd" d="M0 0V12H16V0H0Z" clip-rule="evenodd"/><mask id="858_svg__b" width="16" height="12" x="0" y="0" mask-type="alpha" maskUnits="userSpaceOnUse"><path fill="#fff" fill-rule="evenodd" d="M0 0V12H16V0H0Z" clip-rule="evenodd"/></mask><g mask="url(#858_svg__b)"><path fill="#2E42A5" d="M0 2H16V3H0z"/><path fill="#2E42A5" d="M0 4H16V5H0z"/><path fill="#2E42A5" d="M0 6H16V7H0z"/><path fill="#2E42A5" d="M0 8H16V9H0z"/><path fill="#2E42A5" d="M0 10H16V11H0z"/><path fill="#F7FCFF" d="M0 0H8V7H0z"/><path fill="#FFD018" fill-rule="evenodd" stroke="#F19900" stroke-opacity=".98" stroke-width=".25" d="M4.61376 5.51848C4.61376 5.51848 4.10281 6.57784 3.65374 6.79503C3.84757 6.30915 3.91892 5.31778 3.91892 5.31778C3.91892 5.31778 2.75296 5.78005 2.34373 5.6958C2.83582 5.35193 3.51886 4.71502 3.51886 4.71502C3.51886 4.71502 2.00975 4.22165 2.04677 4.01168C2.72801 4.13388 3.66487 4.00067 3.66487 4.00067C3.66487 4.00067 2.60617 2.73105 2.71353 2.63664C2.87491 2.79349 4.14369 3.45625 4.14369 3.45625C4.14369 3.45625 4.23574 2.32665 4.50879 1.9458C4.54154 2.21464 4.92479 3.43182 4.92479 3.43182C4.92479 3.43182 5.69523 2.66094 6.12285 2.66094C5.93502 2.89382 5.49027 3.91679 5.49027 3.91679C5.49027 3.91679 6.59868 3.89935 7.02004 4.1068C6.5096 4.1794 5.61532 4.62836 5.61532 4.62836C5.61532 4.62836 6.78004 5.51187 6.67385 5.6958C6.04851 5.38989 5.32554 5.28744 5.32554 5.28744C5.32554 5.28744 5.52537 6.51697 5.36384 6.79503C5.2063 6.38573 4.61376 5.51848 4.61376 5.51848Z" clip-rule="evenodd"/><path fill="#FFD018" fill-rule="evenodd" stroke="#F19900" stroke-opacity=".98" stroke-width=".25" d="M4.54677 4.9458C4.82291 4.9458 5.04677 4.72194 5.04677 4.4458C5.04677 4.16966 4.82291 3.9458 4.54677 3.9458C4.27063 3.9458 4.04677 4.16966 4.04677 4.4458C4.04677 4.72194 4.27063 4.9458 4.54677 4.9458Z" clip-rule="evenodd"/></g></g></svg>