<svg xmlns="http://www.w3.org/2000/svg" fill="none" viewBox="0 0 16 12"><mask id="ATF_svg__a" width="16" height="12" x="0" y="0" maskUnits="userSpaceOnUse"><path fill="#fff" d="M0 0h16v12H0z"/></mask><g mask="url(#ATF_svg__a)"><path fill="#2E42A5" fill-rule="evenodd" d="M0 0v12h16V0H0z" clip-rule="evenodd"/><mask id="ATF_svg__b" width="16" height="12" x="0" y="0" maskUnits="userSpaceOnUse"><path fill="#fff" fill-rule="evenodd" d="M0 0v12h16V0H0z" clip-rule="evenodd"/></mask><g mask="url(#ATF_svg__b)"><path fill="#F7FCFF" fill-rule="evenodd" d="M9.394 3.1h4.025l-.393.752h-1.22v.404h.936l-.382.7h-.554v1.399l.913-1.44 1.183 2.047h-.483l-.17-.224h-1.07l-.752 1.39v.077l-.02-.038-.021.038V8.13l-.753-1.39h-1.07l-.169.223h-.483l1.183-2.047.913 1.44V3.852h-1.22L9.394 3.1zm3.349 2.655l-.263.404h.497l-.234-.404zm-2.673 0l.263.404h-.497l.234-.404zm-1.913-.448L8.572 5l.416.307-.147-.514.404-.324-.506-.01-.167-.507-.166.506-.506.011.403.324-.146.514zM14.227 5l-.415.307.147-.514-.404-.324.507-.01.166-.507.166.506.506.011-.403.324.146.514L14.228 5zM12.54 8.902l.415-.307.416.307-.147-.514.404-.324-.507-.01-.166-.507-.166.506-.506.011.403.324-.146.514zm-2.695-.307l-.416.307.147-.514-.404-.324.507-.01.166-.507.166.506.506.011-.403.324.146.514-.415-.307zm1.14 1.505l.415-.306.415.306-.146-.513.403-.324-.506-.011-.166-.507-.166.507-.506.01.403.325-.146.513z" clip-rule="evenodd"/><path fill="#2E42A5" stroke="#fff" stroke-width=".5" d="M-.25-.25h6.5v5.5h-6.5z"/><mask id="ATF_svg__c" width="8" height="7" x="-1" y="-1" maskUnits="userSpaceOnUse"><path fill="#fff" stroke="#fff" stroke-width=".5" d="M-.25-.25h6.5v5.5h-6.5z"/></mask><g fill-rule="evenodd" clip-rule="evenodd" mask="url(#ATF_svg__c)"><path fill="#F50100" d="M4 0h2v5H4V0z"/><path fill="#2E42A5" d="M0 0h2v5H0V0z"/><path fill="#F7FCFF" d="M2 0h2v5H2V0z"/></g></g></g></svg>