<svg xmlns="http://www.w3.org/2000/svg" fill="none" viewBox="0 0 16 12"><mask id="BQ-SE_svg__a" width="16" height="12" x="0" y="0" maskUnits="userSpaceOnUse"><path fill="#fff" d="M0 0h16v12H0z"/></mask><g mask="url(#BQ-SE_svg__a)"><path fill="#00268D" fill-rule="evenodd" d="M0 0h16v12H0V0z" clip-rule="evenodd"/><path fill="#00268D" stroke="#E31D1C" d="M.5.5h15v11H.5V.5z"/><path fill="#E31D1C" d="M7.5 0h1v12h-1z"/><path fill="#E31D1C" d="M0 6.5v-1h16v1z"/><path fill="#fff" stroke="#E31D1C" d="M8.257 2.571L8 2.417l-.257.154-5 3L2.028 6l.715.429 5 3L8 9.583l.257-.154 5-3L13.972 6l-.715-.429-5-3z"/><mask id="BQ-SE_svg__b" width="14" height="10" x="1" y="1" maskUnits="userSpaceOnUse"><path fill="#fff" stroke="#fff" d="M8.257 2.571L8 2.417l-.257.154-5 3L2.028 6l.715.429 5 3L8 9.583l.257-.154 5-3L13.972 6l-.715-.429-5-3z"/></mask><g mask="url(#BQ-SE_svg__b)"><path fill="#059334" d="M4.823 7.8h8.927l-.944-.957s-1.887-1.893-2.009-1.98c-.121-.086-.322-.124-.55.152-.229.276-.36-.151-.55-.151-.19 0-.27 0-.546.353L7.88 6.843H6.42s-.246-.21-.386-.135c-.14.075-.93-.824-1.212-.891-.282-.067-.467.243-.467.49 0 .248-.133-.226-.402-.087-.27.14-.183.489-.183.489S4.643 7.8 4.823 7.8z"/><path fill="#FEDA00" fill-rule="evenodd" d="M7.003 5.534L6.386 6l.226-.77L6 4.76h.763l.24-.76.255.76H8l-.607.47.23.77-.62-.466z" clip-rule="evenodd"/></g></g></svg>