<svg xmlns="http://www.w3.org/2000/svg" fill="none" viewBox="0 0 16 12"><mask id="ESH_svg__a" width="16" height="12" x="0" y="0" maskUnits="userSpaceOnUse"><path fill="#fff" d="M0 0h16v12H0z"/></mask><g fill-rule="evenodd" clip-rule="evenodd" mask="url(#ESH_svg__a)"><path fill="#F7FCFF" d="M0 0h16v12H0V0z"/><path fill="#272727" d="M0 0v4h16V0H0z"/><path fill="#5EAA22" d="M0 8v4h16V8H0z"/><path fill="#E31D1C" d="M0 0l8 6-8 6V0zm10.844 7.739S9.707 7.05 9.707 5.915c0-1.136 1.137-1.733 1.137-1.733-.51-.323-2.274.138-2.274 1.77 0 1.633 1.748 1.934 2.274 1.787zm.92-2.083l-.662-.62.229.792-.64.303.786.256.342.858.15-.794.776.172-.588-.575.2-.612-.593.22z"/></g></svg>