<svg xmlns="http://www.w3.org/2000/svg" fill="none" viewBox="0 0 16 12"><mask id="MV_svg__a" width="16" height="12" x="0" y="0" maskUnits="userSpaceOnUse"><path fill="#fff" d="M0 0h16v12H0z"/></mask><g mask="url(#MV_svg__a)"><path fill="#C51918" fill-rule="evenodd" d="M0 0h16v11a1 1 0 01-1 1H1a1 1 0 01-1-1V0z" clip-rule="evenodd"/><path fill="#C51918" fill-rule="evenodd" d="M0 0h16v12H0V0z" clip-rule="evenodd"/><path fill="#579D20" fill-rule="evenodd" d="M3 3h10v6H3V3z" clip-rule="evenodd"/><path stroke="#B6EB9A" stroke-opacity=".238" d="M3.5 3.5h9v5h-9v-5z"/><mask id="MV_svg__b" width="10" height="6" x="3" y="3" maskUnits="userSpaceOnUse"><path fill="#fff" fill-rule="evenodd" d="M3 3h10v6H3V3z" clip-rule="evenodd"/><path stroke="#fff" d="M3.5 3.5h9v5h-9v-5z"/></mask><g mask="url(#MV_svg__b)"><path fill="#F9FAFA" fill-rule="evenodd" d="M8.016 6.231c-.008 1.533 1.199 2.35 1.199 2.35-1.377.162-2.293-1.086-2.293-2.335 0-1.248 1.248-2.28 2.293-2.745 0 0-1.19 1.197-1.199 2.73z" clip-rule="evenodd"/></g></g></svg>