<svg xmlns="http://www.w3.org/2000/svg" fill="none" viewBox="0 0 16 12"><mask id="PR_svg__a" width="16" height="12" x="0" y="0" maskUnits="userSpaceOnUse"><path fill="#fff" d="M0 0h16v12H0z"/></mask><g mask="url(#PR_svg__a)"><path fill="#EF0000" fill-rule="evenodd" d="M0 0v12h16V0H0z" clip-rule="evenodd"/><mask id="PR_svg__b" width="16" height="12" x="0" y="0" maskUnits="userSpaceOnUse"><path fill="#fff" fill-rule="evenodd" d="M0 0v12h16V0H0z" clip-rule="evenodd"/></mask><g mask="url(#PR_svg__b)"><path fill="#EF0000" stroke="#F7FCFF" stroke-width="2" d="M0 4h-1v4h18V4H0z"/></g><path fill="#3D58DB" fill-rule="evenodd" d="M0 0v12l9-6-9-6z" clip-rule="evenodd"/><mask id="PR_svg__c" width="9" height="12" x="0" y="0" maskUnits="userSpaceOnUse"><path fill="#fff" fill-rule="evenodd" d="M0 0v12l9-6-9-6z" clip-rule="evenodd"/></mask><g mask="url(#PR_svg__c)"><path fill="#F7FCFF" fill-rule="evenodd" d="M3.344 7.108l-1.836.97.894-1.948-1.14-1.04 1.407-.052.675-1.76.515 1.76h1.404L4.327 6.13l.744 1.947-1.727-.969z" clip-rule="evenodd"/></g></g></svg>