<svg xmlns="http://www.w3.org/2000/svg" fill="none" viewBox="0 0 16 12"><mask id="RAINBOW_svg__a" width="16" height="12" x="0" y="0" mask-type="alpha" maskUnits="userSpaceOnUse"><path fill="#fff" d="M0 0H16V12H0z"/></mask><g mask="url(#RAINBOW_svg__a)"><path fill="#F7FCFF" fill-rule="evenodd" d="M0 0V12H16V0H0Z" clip-rule="evenodd"/><mask id="RAINBOW_svg__b" width="16" height="12" x="0" y="0" mask-type="alpha" maskUnits="userSpaceOnUse"><path fill="#fff" fill-rule="evenodd" d="M0 0V12H16V0H0Z" clip-rule="evenodd"/></mask><g fill-rule="evenodd" clip-rule="evenodd" mask="url(#RAINBOW_svg__b)"><path fill="#FF0122" d="M0 0V2H16V0H0Z"/><path fill="#FF8C01" d="M0 2V4H16V2H0Z"/><path fill="#FECA00" d="M0 4V6H16V4H0Z"/><path fill="#73BE4A" d="M0 6V8H16V6H0Z"/><path fill="#5770ED" d="M0 8V10H16V8H0Z"/><path fill="#871FF0" d="M0 10V12H16V10H0Z"/></g></g></svg>