<svg xmlns="http://www.w3.org/2000/svg" fill="none" viewBox="0 0 16 12"><mask id="TUV_svg__a" width="16" height="12" x="0" y="0" maskUnits="userSpaceOnUse"><path fill="#fff" d="M0 0h16v12H0z"/></mask><g mask="url(#TUV_svg__a)"><path fill="#00B4FF" fill-rule="evenodd" d="M0 0v12h16V0H0z" clip-rule="evenodd"/><mask id="TUV_svg__b" width="16" height="12" x="0" y="0" maskUnits="userSpaceOnUse"><path fill="#fff" fill-rule="evenodd" d="M0 0v12h16V0H0z" clip-rule="evenodd"/></mask><g mask="url(#TUV_svg__b)"><path fill="#2E42A5" d="M0 0h9v7H0z"/><mask id="TUV_svg__c" width="9" height="7" x="0" y="0" maskUnits="userSpaceOnUse"><path fill="#fff" d="M0 0h9v7H0z"/></mask><g mask="url(#TUV_svg__c)"><path fill="#F7FCFF" d="M-1.002 6.5l1.98.868L9.045.944l1.045-1.29-2.118-.29-3.29 2.768-2.649 1.865L-1.002 6.5z"/><path fill="#F50100" d="M-.731 7.108l1.009.505 9.436-8.08H8.298L-.731 7.109z"/><path fill="#F7FCFF" d="M10.002 6.5l-1.98.868L-.045.944-1.09-.346l2.118-.29 3.29 2.768 2.649 1.865L10.002 6.5z"/><path fill="#F50100" d="M9.935 6.937l-1.01.504-4.018-3.46-1.19-.386L-1.19-.342H.227L5.13 3.502l1.303.463 3.502 2.972z"/><mask id="TUV_svg__d" width="11" height="9" x="-1" y="-1" fill="#000" maskUnits="userSpaceOnUse"><path fill="#fff" d="M-1-1h11v9H-1z"/><path fill-rule="evenodd" d="M4.992 0h-1v3H0v1h3.992v3h1V4H9V3H4.992V0z" clip-rule="evenodd"/></mask><path fill="#F50100" fill-rule="evenodd" d="M4.992 0h-1v3H0v1h3.992v3h1V4H9V3H4.992V0z" clip-rule="evenodd"/><path fill="#F7FCFF" d="M3.992 0v-.75h-.75V0h.75zm1 0h.75v-.75h-.75V0zm-1 3v.75h.75V3h-.75zM0 3v-.75h-.75V3H0zm0 1h-.75v.75H0V4zm3.992 0h.75v-.75h-.75V4zm0 3h-.75v.75h.75V7zm1 0v.75h.75V7h-.75zm0-3v-.75h-.75V4h.75zM9 4v.75h.75V4H9zm0-1h.75v-.75H9V3zM4.992 3h-.75v.75h.75V3zm-1-2.25h1v-1.5h-1v1.5zM4.742 3V0h-1.5v3h1.5zM0 3.75h3.992v-1.5H0v1.5zM.75 4V3h-1.5v1h1.5zm3.242-.75H0v1.5h3.992v-1.5zM4.742 7V4h-1.5v3h1.5zm.25-.75h-1v1.5h1v-1.5zM4.242 4v3h1.5V4h-1.5zM9 3.25H4.992v1.5H9v-1.5zM8.25 3v1h1.5V3h-1.5zm-3.258.75H9v-1.5H4.992v1.5zM4.242 0v3h1.5V0h-1.5z" mask="url(#TUV_svg__d)"/></g><path fill="#FFD018" fill-rule="evenodd" d="M13.428 5.342l.304-.562.666-.02-.516-.43.178-.582-.444.267-.562-.34.054.645-.504.302.654.082.17.638zm-1.696.438l-.304.562-.17-.638-.654-.082.504-.302-.054-.646.562.34.444-.266-.178.581.516.43-.666.02zm-1.304 1.562l.304-.562.666-.02-.516-.43.178-.582-.444.267-.562-.34.054.645-.504.302.654.082.17.638zm-2 2l.304-.562.666-.02-.516-.43.178-.582-.444.267-.562-.34.054.645-.504.302.654.082.17.638zm-1.94 1.526l-.551.326.183-.635-.518-.407h.587l.286-.581.306.581H7.3l-.452.407.22.635-.58-.326zm2.244-.088l-.304.562-.17-.638-.654-.082.504-.302-.054-.646.562.34.444-.266-.178.581.516.43-.666.02zm2-1l-.304.562-.17-.638-.654-.082.504-.302-.054-.646.562.34.444-.266-.178.581.516.43-.666.02zm2-1l-.304.562-.17-.638-.654-.082.504-.302-.054-.646.562.34.444-.266-.178.581.516.43-.666.02zm.696-.438l.304-.562.666-.02-.516-.43.178-.582-.444.267-.562-.34.054.645-.504.302.654.082.17.638z" clip-rule="evenodd"/></g></g></svg>