<svg xmlns="http://www.w3.org/2000/svg" fill="none" viewBox="0 0 16 12"><mask id="ZAF_svg__a" width="16" height="12" x="0" y="0" maskUnits="userSpaceOnUse"><path fill="#fff" d="M0 0h16v12H0z"/></mask><g mask="url(#ZAF_svg__a)"><path fill="#F7FCFF" fill-rule="evenodd" d="M0 0h16v12H0V0z" clip-rule="evenodd"/><path fill="#E31D1C" fill-rule="evenodd" d="M0 0v4h16V0H0z" clip-rule="evenodd"/><path fill="#3D58DB" fill-rule="evenodd" d="M0 8v4h16V8H0z" clip-rule="evenodd"/><mask id="ZAF_svg__b" width="18" height="20" x="-1" y="-4" fill="#000" maskUnits="userSpaceOnUse"><path fill="#fff" d="M-1-4h18v20H-1z"/><path fill-rule="evenodd" d="M7.714 5L0-1v14l7.714-6H16V5H7.714z" clip-rule="evenodd"/></mask><path fill="#5EAA22" fill-rule="evenodd" d="M7.714 5L0-1v14l7.714-6H16V5H7.714z" clip-rule="evenodd"/><path fill="#F7FCFF" d="M0-1l.614-.79L-1-3.044V-1h1zm7.714 6l-.614.79.271.21h.343V5zM0 13h-1v2.045l1.614-1.256L0 13zm7.714-6V6h-.343l-.27.21.613.79zM16 7v1h1V7h-1zm0-2h1V4h-1v1zM-.614-.21l7.714 6 1.228-1.58-7.714-6L-.614-.21zM1 13V-1h-2v14h2zm6.1-6.79l-7.714 6 1.228 1.58 7.714-6L7.1 6.21zM16 6H7.714v2H16V6zm-1-1v2h2V5h-2zM7.714 6H16V4H7.714v2z" mask="url(#ZAF_svg__b)"/><path fill="#272727" stroke="#FECA00" d="M.3 2.6L-.5 2v8l.8-.6 4-3 .533-.4-.533-.4-4-3z"/></g></svg>