<svg xmlns="http://www.w3.org/2000/svg" xmlns:xlink="http://www.w3.org/1999/xlink" width="16" height="12" viewBox="0 0 16 12">
  <defs>
    <rect id="kn---kenia-a" width="16" height="12" x="0" y="0"/>
    <path id="kn---kenia-c" d="M3,9.47368421 C3.59803072,9.47368421 6,7.58856737 6,5.26315789 C6,2.93774842 3.59803072,1.05263158 3,1.05263158 C2.40196928,1.05263158 0,2.93774842 0,5.26315789 C0,7.58856737 2.40196928,9.47368421 3,9.47368421 Z"/>
  </defs>
  <g fill="none" fill-rule="evenodd">
    <mask id="kn---kenia-b" fill="#fff">
      <use xlink:href="#kn---kenia-a"/>
    </mask>
    <g mask="url(#kn---kenia-b)">
      <polygon fill="#0067C3" points="0 0 16 0 16 12 0 12"/>
      <rect width="16" height="4" fill="#272727"/>
      <rect width="16" height="4" y="8" fill="#4E8B1D"/>
      <rect width="17" height="5" x="-.5" y="3.5" fill="#E31D1C" fill-rule="nonzero" stroke="#F7FCFF"/>
    </g>
    <g transform="translate(5 1)">
      <path fill="#FFF" fill-rule="nonzero" d="M4.81173646,1.01524869 C4.92592305,0.809882737 5.23290973,0.585624184 5.73269652,0.342473036 C5.74987103,0.334117468 5.77061305,0.333638849 5.7882646,0.34119081 C5.81813655,0.353971096 5.83054162,0.385573674 5.81581178,0.411708555 L0.637038943,9.72579438 L0.367400729,9.61043355 L4.93244972,1.40013752 C4.72572856,1.37059931 4.68549081,1.24230304 4.81173646,1.01524869 Z"/>
      <path fill="#FFF" fill-rule="nonzero" d="M1.18276207,1.01524869 C1.30900773,1.24230304 1.26876998,1.37059931 1.06204882,1.40013752 L5.62709781,9.61043355 L5.35745959,9.72579438 L0.178686757,0.411708555 C0.163956913,0.385573674 0.176361983,0.353971096 0.206233938,0.34119081 C0.223885486,0.333638849 0.244627503,0.334117468 0.261802014,0.342473036 C0.761588801,0.585624184 1.06857549,0.809882737 1.18276207,1.01524869 Z"/>
      <mask id="kn---kenia-d" fill="#fff">
        <use xlink:href="#kn---kenia-c"/>
      </mask>
      <use fill="#E31D1C" xlink:href="#kn---kenia-c"/>
      <ellipse cx="-2.5" cy="5.263" fill="#272727" fill-rule="nonzero" mask="url(#kn---kenia-d)" rx="4.2" ry="3.684"/>
      <ellipse cx="8.5" cy="5.263" fill="#272727" fill-rule="nonzero" mask="url(#kn---kenia-d)" rx="4.2" ry="3.684"/>
      <path fill="#F7FCFF" fill-rule="nonzero" d="M2.82,4.65251011 C2.57657358,4.41777733 2.4,3.71956559 2.4,2.89473684 C2.4,2.06990809 2.57657358,1.37169635 2.82,1.13696358 L2.82,4.65251011 Z M3.12,1.08948036 C3.39386884,1.2601589 3.6,2.00354182 3.6,2.89473684 C3.6,3.78593186 3.39386884,4.52931478 3.12,4.69999333 L3.12,1.08948036 Z M2.82,9.38935221 C2.57657358,9.15461943 2.4,8.4564077 2.4,7.63157895 C2.4,6.8067502 2.57657358,6.10853846 2.82,5.87380568 L2.82,9.38935221 Z M3.12,5.82632246 C3.39386884,5.99700101 3.6,6.74038393 3.6,7.63157895 C3.6,8.52277397 3.39386884,9.26615689 3.12,9.43683543 L3.12,5.82632246 Z" mask="url(#kn---kenia-d)"/>
      <ellipse cx="3" cy="5.263" fill="#F7FCFF" fill-rule="nonzero" mask="url(#kn---kenia-d)" rx="1" ry="1" transform="matrix(1 0 0 -1 0 10.526)"/>
    </g>
  </g>
</svg>
