<svg xmlns="http://www.w3.org/2000/svg" xmlns:xlink="http://www.w3.org/1999/xlink" width="32" height="24" viewBox="0 0 32 24">
  <defs>
    <rect id="ve---venezuela-a" width="32" height="24" x="0" y="0"/>
    <rect id="ve---venezuela-c" width="32" height="24" x="0" y="0"/>
  </defs>
  <g fill="none" fill-rule="evenodd">
    <mask id="ve---venezuela-b" fill="#fff">
      <use xlink:href="#ve---venezuela-a"/>
    </mask>
    <g mask="url(#ve---venezuela-b)">
      <mask id="ve---venezuela-d" fill="#fff">
        <use xlink:href="#ve---venezuela-c"/>
      </mask>
      <use fill="#2E42A5" xlink:href="#ve---venezuela-c"/>
      <rect width="32" height="8" fill="#FECA00" mask="url(#ve---venezuela-d)"/>
      <rect width="32" height="8" y="16" fill="#E31D1C" mask="url(#ve---venezuela-d)"/>
      <g fill="#F7FCFF" mask="url(#ve---venezuela-d)">
        <g transform="translate(5 8)">
          <path d="M8.00061253,2.71151433 L7.07611351,1.89381147 L8.30562674,1.89381147 L8.71799551,0.821619133 L9.20153128,1.89381147 L10.2496575,1.89381147 L9.42612026,2.7264067 L9.82209884,3.85942985 L8.71947671,3.30194637 L7.73678972,3.85942985 L8.01744992,2.7264067 L8.00663324,2.71683954 L7.18836327,3.54410957 L7.58434185,4.67713272 L6.48171972,4.11964924 L5.49903273,4.67713272 L5.51171641,4.62592881 L5.03979662,5.10303919 L5.43577521,6.23606234 L4.33315308,5.67857886 L4.10875089,5.8058834 L4.16166199,5.8058834 L3.33812474,6.63847863 L3.73410333,7.77150178 L2.6314812,7.2140183 L1.64879421,7.77150178 L1.92945441,6.63847863 L0.988118,5.8058834 L2.21763123,5.8058834 L2.63,4.73369106 L3.11353577,5.8058834 L3.45702535,5.8058834 L3.63112629,5.10303919 L2.68978988,4.27044395 L3.91930311,4.27044395 L4.33167188,3.19825162 L4.81520765,4.27044395 L5.59977326,4.27044395 L5.77969293,3.54410957 L4.83835652,2.71151433 L6.06786975,2.71151433 L6.48023852,1.639322 L6.96377429,2.71151433 L8.00061253,2.71151433 Z"/>
          <path d="M18.7274335,2.66767833 L17.802934,1.84997506 L19.0324472,1.84997506 L19.444816,0.777782723 L19.9283518,1.84997506 L20.976478,1.84997506 L20.1529407,2.68257029 L20.5489193,3.81559344 L19.4462972,3.25810996 L18.4636102,3.81559344 L18.7442704,2.68257029 L18.7308455,2.6706962 L17.9102933,3.50027357 L18.3062719,4.63329672 L17.2036498,4.07581324 L16.2209628,4.63329672 L16.2336466,4.58209226 L15.7617267,5.05920278 L16.1577052,6.19222593 L15.0550831,5.63474245 L14.8306809,5.76204699 L14.8835925,5.76204699 L14.0600553,6.59464222 L14.4560339,7.72766537 L13.3534118,7.17018189 L12.3707248,7.72766537 L12.651385,6.59464222 L11.7100486,5.76204699 L12.9395618,5.76204699 L13.3519306,4.68985465 L13.8354663,5.76204699 L14.1789554,5.76204699 L14.3530563,5.05920278 L13.4117199,4.22660754 L14.6412331,4.22660754 L15.0536019,3.15441521 L15.5371377,4.22660754 L16.3217034,4.22660754 L16.501623,3.50027357 L15.5602866,2.66767833 L16.7897998,2.66767833 L17.2021686,1.595486 L17.6857043,2.66767833 L18.7274335,2.66767833 Z" transform="matrix(-1 0 0 1 32.687 0)"/>
          <polygon points="10.833 2.535 9.85 3.092 10.131 1.959 9.19 1.127 10.419 1.127 10.831 .054 11.315 1.127 12.363 1.127 11.54 1.959 11.936 3.092"/>
        </g>
      </g>
    </g>
  </g>
</svg>
