<svg xmlns="http://www.w3.org/2000/svg" xmlns:xlink="http://www.w3.org/1999/xlink" width="32" height="24" viewBox="0 0 32 24">
  <defs>
    <rect id="tv---tuvalu-a" width="32" height="24" x="0" y="0"/>
    <rect id="tv---tuvalu-c" width="32" height="24" x="0" y="0"/>
    <rect id="tv---tuvalu-e" width="18" height="14" x="0" y="0"/>
  </defs>
  <g fill="none" fill-rule="evenodd">
    <mask id="tv---tuvalu-b" fill="#fff">
      <use xlink:href="#tv---tuvalu-a"/>
    </mask>
    <g mask="url(#tv---tuvalu-b)">
      <mask id="tv---tuvalu-d" fill="#fff">
        <use xlink:href="#tv---tuvalu-c"/>
      </mask>
      <use fill="#00B4FF" xlink:href="#tv---tuvalu-c"/>
      <g mask="url(#tv---tuvalu-d)">
        <mask id="tv---tuvalu-f" fill="#fff">
          <use xlink:href="#tv---tuvalu-e"/>
        </mask>
        <use fill="#2B409A" xlink:href="#tv---tuvalu-e"/>
        <g mask="url(#tv---tuvalu-f)">
          <g transform="translate(-3 -2)">
            <polygon fill="#F7FCFF" fill-rule="nonzero" points=".996 2.464 4.957 .727 21.09 13.575 23.179 16.156 18.944 16.737 12.363 11.2 7.067 7.47" transform="matrix(1 0 0 -1 0 17.464)"/>
            <polygon fill="#F50100" fill-rule="nonzero" points="1.538 2.075 3.556 1.067 22.429 17.225 19.596 17.225" transform="matrix(1 0 0 -1 0 18.292)"/>
            <g transform="matrix(-1 0 0 1 24 0)">
              <polygon fill="#F7FCFF" fill-rule="nonzero" points=".996 2.464 4.957 .727 21.09 13.575 23.179 16.156 18.944 16.737 12.363 11.2 7.067 7.47" transform="matrix(1 0 0 -1 0 17.464)"/>
              <polygon fill="#F50100" fill-rule="nonzero" points="1.131 2.324 3.149 1.316 11.185 8.234 13.568 9.007 23.38 16.881 20.547 16.881 10.74 9.194 8.135 8.267" transform="matrix(1 0 0 -1 0 18.198)"/>
            </g>
            <path fill="#F50100" stroke="#F7FCFF" stroke-width="1.5" d="M7.23451152,5.25 L7.23451152,-0.75 L10.7345115,-0.75 L10.7345115,5.25 L18.75,5.25 L18.75,8.75 L10.7345115,8.75 L10.7345115,14.75 L7.23451152,14.75 L7.23451152,8.75 L-0.75,8.75 L-0.75,5.25 L7.23451152,5.25 Z" transform="translate(3 2)"/>
          </g>
        </g>
      </g>
      <g fill="#FFD018" mask="url(#tv---tuvalu-d)">
        <path d="M1.97414535,14.7356107 L0.874028104,15.3875808 L1.23950841,14.1180247 L0.20307371,13.3046219 L1.37797406,13.3046219 L1.94995037,12.1414042 L2.56236655,13.3046219 L3.59963435,13.3046219 L2.69605295,14.1180247 L3.13647464,15.3875808 L1.97414535,14.7356107 Z M6.46391122,14.559413 L5.85671613,15.6848627 L5.51612413,14.4084044 L4.2087928,14.2449855 L5.21587897,13.6398671 L5.10705693,12.3482053 L6.23110148,13.0298598 L7.12021352,12.4956274 L6.76462649,13.6582285 L7.79601132,14.5196166 L6.46391122,14.559413 Z M6.46391122,10.559413 L5.85671613,11.6848627 L5.51612413,10.4084044 L4.2087928,10.2449855 L5.21587897,9.63986706 L5.10705693,8.34820528 L6.23110148,9.02985983 L7.12021352,8.49562742 L6.76462649,9.65822849 L7.79601132,10.5196166 L6.46391122,10.559413 Z M10.4639112,12.559413 L9.85671613,13.6848627 L9.51612413,12.4084044 L8.2087928,12.2449855 L9.21587897,11.6398671 L9.10705693,10.3482053 L10.2311015,11.0298598 L11.1202135,10.4956274 L10.7646265,11.6582285 L11.7960113,12.5196166 L10.4639112,12.559413 Z M10.4639112,6.55941295 L9.85671613,7.6848627 L9.51612413,6.40840439 L8.2087928,6.24498547 L9.21587897,5.63986706 L9.10705693,4.34820528 L10.2311015,5.02985983 L11.1202135,4.49562742 L10.7646265,5.65822849 L11.7960113,6.51961659 L10.4639112,6.55941295 Z M14.4639112,10.559413 L13.8567161,11.6848627 L13.5161241,10.4084044 L12.2087928,10.2449855 L13.215879,9.63986706 L13.1070569,8.34820528 L14.2311015,9.02985983 L15.1202135,8.49562742 L14.7646265,9.65822849 L15.7960113,10.5196166 L14.4639112,10.559413 Z M16.4639112,8.55941295 L15.8567161,9.6848627 L15.5161241,8.40840439 L14.2087928,8.24498547 L15.215879,7.63986706 L15.1070569,6.34820528 L16.2311015,7.02985983 L17.1202135,6.49562742 L16.7646265,7.65822849 L17.7960113,8.51961659 L16.4639112,8.55941295 Z M12.4639112,4.55941295 L11.8567161,5.6848627 L11.5161241,4.40840439 L10.2087928,4.24498547 L11.215879,3.63986706 L11.1070569,2.34820528 L12.2311015,3.02985983 L13.1202135,2.49562742 L12.7646265,3.65822849 L13.7960113,4.51961659 L12.4639112,4.55941295 Z M16.4639112,2.55941295 L15.8567161,3.6848627 L15.5161241,2.40840439 L14.2087928,2.24498547 L15.215879,1.63986706 L15.1070569,0.348205278 L16.2311015,1.02985983 L17.1202135,0.49562742 L16.7646265,1.65822849 L17.7960113,2.51961659 L16.4639112,2.55941295 Z" transform="translate(11 7)"/>
      </g>
    </g>
  </g>
</svg>
