<svg xmlns="http://www.w3.org/2000/svg" xmlns:xlink="http://www.w3.org/1999/xlink" width="32" height="24" viewBox="0 0 32 24">
  <defs>
    <rect id="km---comoros-a" width="32" height="24" x="0" y="0"/>
    <rect id="km---comoros-c" width="32" height="24" x="0" y="0"/>
  </defs>
  <g fill="none" fill-rule="evenodd">
    <mask id="km---comoros-b" fill="#fff">
      <use xlink:href="#km---comoros-a"/>
    </mask>
    <g mask="url(#km---comoros-b)">
      <mask id="km---comoros-d" fill="#fff">
        <use xlink:href="#km---comoros-c"/>
      </mask>
      <use fill="#5196ED" xlink:href="#km---comoros-c"/>
      <rect width="32" height="6" y="12" fill="#AF0100" mask="url(#km---comoros-d)"/>
      <rect width="32" height="6" y="6" fill="#F7FCFF" mask="url(#km---comoros-d)"/>
      <rect width="32" height="6" fill="#FECA00" mask="url(#km---comoros-d)"/>
      <polygon fill="#5EAA22" points="0 0 19 12 0 24" mask="url(#km---comoros-d)"/>
      <path fill="#F7FCFF" d="M8,15.5 L7.41221475,15.809017 L7.52447174,15.1545085 L7.04894348,14.690983 L7.70610737,14.5954915 L8,14 L8.29389263,14.5954915 L8.95105652,14.690983 L8.47552826,15.1545085 L8.58778525,15.809017 L8,15.5 Z M8,13.5 L7.41221475,13.809017 L7.52447174,13.1545085 L7.04894348,12.690983 L7.70610737,12.5954915 L8,12 L8.29389263,12.5954915 L8.95105652,12.690983 L8.47552826,13.1545085 L8.58778525,13.809017 L8,13.5 Z M8,11.5 L7.41221475,11.809017 L7.52447174,11.1545085 L7.04894348,10.690983 L7.70610737,10.5954915 L8,10 L8.29389263,10.5954915 L8.95105652,10.690983 L8.47552826,11.1545085 L8.58778525,11.809017 L8,11.5 Z M8,9.5 L7.41221475,9.80901699 L7.52447174,9.1545085 L7.04894348,8.69098301 L7.70610737,8.5954915 L8,8 L8.29389263,8.5954915 L8.95105652,8.69098301 L8.47552826,9.1545085 L8.58778525,9.80901699 L8,9.5 Z M3.84800228,11.4492149 C3.72126076,15.2780142 7.30462032,16.5011569 7.30462032,16.5011569 C5.94212332,16.8517702 1.48061607,15.8696902 1.62694335,11.4492149 C1.77327063,7.02873964 6.34561485,5.94738862 7.62342677,6.87017045 C7.62342677,6.87017045 3.9747438,7.62041571 3.84800228,11.4492149 Z" mask="url(#km---comoros-d)"/>
    </g>
  </g>
</svg>
