<svg xmlns="http://www.w3.org/2000/svg" xmlns:xlink="http://www.w3.org/1999/xlink" width="32" height="24" viewBox="0 0 32 24">
  <defs>
    <rect id="lk---sri-lanka-a" width="32" height="24" x="0" y="0"/>
  </defs>
  <g fill="none" fill-rule="evenodd">
    <mask id="lk---sri-lanka-b" fill="#fff">
      <use xlink:href="#lk---sri-lanka-a"/>
    </mask>
    <g mask="url(#lk---sri-lanka-b)">
      <path fill="#FECA00" d="M0,0 L32,0 L32,22 C32,23.1045695 31.1045695,24 30,24 L2,24 C0.8954305,24 1.3527075e-16,23.1045695 0,22 L0,0 Z"/>
      <rect width="6" height="20" x="2" y="2" fill="#1F8A6E"/>
      <rect width="6" height="20" x="8" y="2" fill="#F56800"/>
      <rect width="16" height="20" x="14" y="2" fill="#B01D00"/>
      <rect width="2" height="20" x="12" y="2" fill="#E8AA00"/>
      <path fill="#FECA00" d="M3.10046087 4.173476C3.04594137 4.50654707 2.96575512 4.92457048 2.85990214 5.42754622 2.75404915 5.93052196 2.69473471 7.33459471 2.68195881 9.63976447 3.04770783 9.77768874 3.23058234 9.93927335 3.23058234 10.1245183 3.23058234 10.3097633 3.15994877 10.4575904 3.01868162 10.5679998L3.90705585 11.5406434C3.79271299 11.4376039 3.83857293 11.0369672 4.04463566 10.3387333 4.35372977 9.29138246 5.2023748 9.31696119 5.55006212 8.97697432 5.89774945 8.63698745 5.37398844 9.0785646 5.08454425 9.0785646 4.79510006 9.0785646 5.08454425 8.95610556 4.8966217 8.81813988 4.70869916 8.68017419 5.08454425 8.67930466 4.66395738 8.81813988 4.24337051 8.95697509 4.56326426 8.67930466 4.47901345 8.53286104 4.39476264 8.38641742 4.20866299 8.67930466 3.90705585 8.81813988 3.6054487 8.95697509 3.91980784 8.67930466 4.04463566 8.53286104 4.16946349 8.38641742 3.91980784 8.53286104 3.63437576 8.53286104 3.34894369 8.53286104 3.63437576 8.02947469 3.73554156 7.74419585 3.83670736 7.45891702 3.63437576 7.65521379 3.63437576 7.24349056 3.63437576 6.83176733 4.20866299 7.24349056 4.04463566 7.11530711 3.88060834 6.98712365 3.63437576 6.38758964 3.63437576 6.17737232 3.63437576 5.96715501 3.85456015 5.73644733 4.04463566 5.73644733 4.17135268 5.73644733 4.31614527 5.83554978 4.47901345 6.03375468 4.68916463 6.03375468 4.93028508 6.01614667 5.2023748 5.98093064 5.61050937 5.92810659 5.55006212 5.73644733 5.55006212 5.42754622 5.55006212 5.11864511 5.77023602 5.42754622 6.11675108 5.42754622 6.34776112 5.42754622 6.56812977 5.47911427 6.77785704 5.58225039 6.77785704 5.34829807 6.86122756 5.23132191 7.0279686 5.23132191 7.19470965 5.23132191 7.32556132 5.34829807 7.42052364 5.58225039L7.79676745 5.23132191C8.19047338 5.46527423 8.45821797 5.58225039 8.60000122 5.58225039 8.74178447 5.58225039 8.88871575 5.46527423 9.04079506 5.23132191L9.04079506 5.73644733C9.35657215 5.33201851 9.96696747 5.07753558 10.871981 4.97299856 12.2295014 4.81619302 13.5307712 6.32149719 14.0128674 6.49467891 14.3342648 6.61013338 14.3936088 6.61013338 14.1908993 6.49467891 14.0722113 6.32362271 14.1168197 6.23809462 14.3247244 6.23809462 14.5326291 6.23809462 14.6863142 6.32362271 14.7857797 6.49467891 14.8090639 6.84316786 14.6107705 7.05004393 14.1908993 7.11530711 13.7710282 7.18057028 13.3391371 6.9379978 12.8952262 6.38758964 13.1090818 6.70066397 13.1090818 6.7955127 12.8952262 6.67213582 12.6813705 6.54875894 12.5031969 6.48960664 12.3607052 6.49467891 12.4008503 6.1319393 12.3655226 6.09624287 12.254722 6.38758964 12.1439213 6.6789364 11.9026489 6.83547357 11.5309048 6.85720113 11.6659814 6.62682356 11.764644 6.42045472 11.8268927 6.23809462 11.9202656 5.96455446 11.2276199 5.89064427 11.3246059 5.73644733 11.4215919 5.58225039 11.6317872 5.93651206 11.5309048 6.32149719 11.4636498 6.57815394 11.2440086 6.69503349 10.871981 6.67213582 10.871981 6.67213582 10.7268209 6.53960471 10.9562859 6.17737232 11.1092625 5.93588407 10.915078 5.73751009 10.3737324 5.58225039 10.3737324 5.58225039 10.3998031 5.75912761 10.3737324 5.98093064 10.3563519 6.12879932 10.2397892 6.14640734 10.0240444 6.03375468 10.0240444 6.03375468 9.73960419 5.76521433 9.5144607 6.03375468 9.36436503 6.21278158 9.40975268 6.4255753 9.65062363 6.67213582 9.68831285 6.55383121 9.81278645 6.45898248 10.0240444 6.38758964 10.2353024 6.31619679 10.4035343 6.35189322 10.5287399 6.49467891 10.4646021 6.56274391 10.3614763 6.68358465 10.2193624 6.85720113 10.0772486 7.03081762 10.1107108 7.15958076 10.319749 7.24349056 10.5864545 6.91591867 10.7198073 6.84055927 10.7198073 7.01741234 10.7198073 7.28269194 10.871981 7.24349056 11.4215919 7.40370176 11.7879991 7.51050923 12.3861383 7.4571055 13.2160096 7.24349056 14.0515012 7.30145933 14.469247 7.5962064 14.469247 8.12773176 14.469247 8.9250198 13.9076634 9.31696119 13.9076634 9.31696119 13.9076634 9.31696119 14.3247244 10.1245183 14.3247244 10.8307398 14.3247244 11.5369613 14.0128674 12.0617827 13.9076634 12.94793 13.8024595 13.8340773 14.1337279 13.7711779 14.3247244 13.99334 14.5157209 14.2155022 14.1337279 14.4776077 13.9076634 14.7268768 13.681599 14.9761459 13.8867643 15.0853625 14.0128674 15.342735 14.1389704 15.6001076 14.2096731 15.8946505 14.0128674 15.8946505 13.8816635 15.8946505 13.7209648 15.8402693 13.5307712 15.7315069 13.4532202 15.8402693 13.3482997 15.8946505 13.2160096 15.8946505 13.0837195 15.8946505 12.9767917 15.8402693 12.8952262 15.7315069 12.8916367 15.8402693 12.8134717 15.8946505 12.6607312 15.8946505 12.5079907 15.8946505 12.407982 15.8402693 12.3607052 15.7315069 12.0588136 15.8402693 11.8343313 15.8946505 11.6872583 15.8946505 11.5401854 15.8946505 11.4516299 15.8402693 11.4215919 15.7315069 11.4227726 15.8402693 11.3399319 15.8946505 11.1730697 15.8946505 11.0062075 15.8946505 10.9058446 15.8402693 10.871981 15.7315069 10.7705319 15.8402693 10.6561182 15.8946505 10.5287399 15.8946505 10.4013617 15.8946505 10.2982359 15.8402693 10.2193624 15.7315069 10.2220545 15.8402693 10.1569485 15.8946505 10.0240444 15.8946505 9.82468831 15.8946505 9.80754397 15.7689642 9.80754397 15.480781 9.80754397 15.2886589 10.1623563 15.1568528 10.871981 15.0853625 11.0894261 14.4759902 11.0387015 14.0379286 10.7198073 13.7711779 10.2414659 13.3710517 10.1916623 12.4097458 10.0240444 12.4097458 9.8564266 12.4097458 9.18014599 12.5580825 8.77321577 12.7048937 8.50192896 12.8027679 8.05103158 13.004322 7.42052364 13.3095559 7.20155722 13.4734825 7.07070554 13.6830126 7.0279686 13.9381461 6.98523167 14.1932796 7.1711833 14.323914 7.5858235 14.3300494 7.47582613 14.7026304 7.20650398 14.9200118 6.77785704 14.9821936 6.9717157 15.1380226 6.77030835 15.8336001 6.50376729 15.8946505 6.32607326 15.9353508 6.19706785 15.8934553 6.11675108 15.7689642 5.99469452 15.8527551 5.8791895 15.8946505 5.77023602 15.8946505 5.66128254 15.8946505 5.52920002 15.8402693 5.37398844 15.7315069 5.33072177 15.8402693 5.23424038 15.8946505 5.08454425 15.8946505 4.93484812 15.8946505 4.87220728 15.8402693 4.8966217 15.7315069 4.86022598 15.7787249 4.74910683 15.8331061 4.56326426 15.8946505 4.28450041 15.9869671 4.44162058 15.5296391 4.47901345 15.342735 4.51640632 15.155831 5.00728123 15.0183601 5.30908844 15.0853625 5.61089565 15.1523649 5.86734063 14.9109124 5.93366624 14.4776077 5.97788331 14.1887379 5.85001527 13.8342122 5.55006212 13.4140308L4.93539344 13.0688117C4.64999235 13.3932344 4.40774887 13.5554458 4.20866299 13.5554458 4.00957711 13.5554458 3.68355023 13.3529405 3.23058234 12.94793 3.1438347 13.0285178 3.07320112 13.0688117 3.01868162 13.0688117 2.93690236 13.0688117 2.78586425 12.9096122 2.85990214 12.5580825 2.90926073 12.3237293 2.84994629 12.1162552 2.68195881 11.9356599 2.90180552 12.1901015 2.80194319 12.4097458 2.62794949 12.4097458 2.45395578 12.4097458 2.49314819 12.5211033 2.42016198 12.7048937 2.3715045 12.8274207 2.42488283 13.0289748 2.58029695 13.3095559 2.83498914 13.3095559 2.96233523 13.3730893 2.96233523 13.5001562 2.96233523 13.6907566 2.76001643 13.7036256 2.68195881 13.7711779 2.6039012 13.8387301 2.64662255 13.8977486 2.68195881 13.9381461 2.70551632 13.9650777 2.81775726 14.0427971 3.01868162 14.171304L2.42016198 14.171304 2.13041397 14.7268768 1.82674928 14.171304 1.22041862 14.171304C1.22041862 14.1326436 1.30312467 14.0733222 1.46853678 13.99334 1.6339489 13.9133578 1.67371422 13.8548014 1.58783275 13.8176708 1.43783212 13.7749148 1.36283181 13.6690766 1.36283181 13.5001562 1.36283181 13.2467757 1.58783275 13.3095559 1.58783275 13.3095559 1.58783275 13.3095559 1.82674928 13.1354541 1.82674928 12.7048937 1.82674928 12.2743333 1.82674928 12.4097458 1.58783275 12.4097458 1.34891621 12.4097458 1.58783275 11.9356599 1.82674928 11.9356599 2.06566581 11.9356599 1.82674928 10.8307398 1.58783275 10.8307398 1.34891621 10.8307398 1.22041862 10.5011698 1.22041862 10.1245183 1.22041862 9.87341734 1.42252884 9.71183273 1.82674928 9.63976447 1.82674928 8.95018507 1.82674928 7.86612679 1.82674928 6.38758964 1.82674928 4.90905249 2.25131981 4.17101461 3.10046087 4.173476zM12.1212052 13.405628C11.8412506 13.6802127 11.7901513 13.8476811 11.9679075 13.9080331 12.2345418 13.9985612 12.6915372 13.9570295 12.4630395 14.1802393 12.2345418 14.4034492 12.0411756 14.705002 12.0411756 14.9796599 12.0411756 15.2543177 12.0477057 15.4861632 12.1212052 15.3702405 12.1947048 15.2543177 12.684704 15.128442 12.9098388 14.9796599 13.1349736 14.8308777 13.092222 14.6678979 13.092222 14.3309609 13.092222 14.1063361 12.7685497 13.7978919 12.1212052 13.405628zM8.96713601 6.85163837C8.96296221 7.49175051 8.92824812 7.83773796 8.86299374 7.8896007 8.76511216 7.96739482 8.71187832 8.09956431 8.78743603 8.19338563 8.86299374 8.28720694 8.89794633 8.52885903 8.78743603 8.52885903 8.67692573 8.52885903 8.50638425 8.6638461 8.64691014 8.8702969 8.78743603 9.0767477 8.78307143 9.17957059 9.04276527 9.17957059 9.30245912 9.17957059 10.7410607 9.21715035 11.1616009 9.06763635 11.5821411 8.91812235 11.9855806 9.07071006 12.5656434 8.9944162 13.1457062 8.91812235 13.9498306 8.49717056 13.8436491 8.19338563 13.7374676 7.8896007 13.6014852 7.5037417 12.5656434 7.76072447 11.5298016 8.01770724 11.1465752 8.15876981 10.7549058 7.95974714 10.3632364 7.76072447 9.84288277 7.64275258 9.77312068 7.64275258 9.70335859 7.64275258 9.72704192 8.14581377 9.52605556 8.01770724 9.32506919 7.8896007 9.08108076 7.75684574 9.16229099 7.53484343 9.24350121 7.31284112 9.31050859 7.26593047 9.31050859 7.11594077 9.31050859 7.01594765 9.19605107 6.92784685 8.96713601 6.85163837zM.171203224 19.8683466C.171203224 19.7512474.171203224 19.6309015.171203224 19.5073089.171203224 19.32192-.162369637 18.8552965.393173922 18.7484012.948717481 18.6415059 1.35795283 18.3985769 1.48238471 18.1692349 1.6068166 17.9398928 1.48238471 18.6647511 1.48238471 19.0187907 1.48238471 19.3728303 1.08580547 20.0627389.804789707 19.8683466.617445867 19.7387517.406250373 19.7387517.171203224 19.8683466zM15.8356365 19.8683466C15.6005893 19.7387517 15.3893938 19.7387517 15.20205 19.8683466 14.9210342 20.0627389 14.524455 19.3728303 14.524455 19.0187907 14.524455 18.6647511 14.4000231 17.9398928 14.524455 18.1692349 14.6488869 18.3985769 15.0581222 18.6415059 15.6136658 18.7484012 16.1692093 18.8552965 15.8356365 19.32192 15.8356365 19.5073089 15.8356365 19.6309015 15.8356365 19.7512474 15.8356365 19.8683466zM.171203224.122323758C.406250373.251918643.617445867.251918643.804789707.122323758 1.08580547-.0720685694 1.48238471.617840032 1.48238471.971879616 1.48238471 1.3259192 1.6068166 2.0507775 1.48238471 1.82143547 1.35795283 1.59209345.948717481 1.34916443.393173922 1.24226911-.162369637 1.13537379.171203224.668750359.171203224.483361466.171203224.35976887.171203224.239422968.171203224.122323758zM15.8356365.122323758C15.8356365.239422968 15.8356365.35976887 15.8356365.483361466 15.8356365.668750359 16.1692093 1.13537379 15.6136658 1.24226911 15.0581222 1.34916443 14.6488869 1.59209345 14.524455 1.82143547 14.4000231 2.0507775 14.524455 1.3259192 14.524455.971879616 14.524455.617840032 14.9210342-.0720685694 15.20205.122323758 15.3893938.251918643 15.6005893.251918643 15.8356365.122323758z" transform="translate(14 2)"/>
    </g>
  </g>
</svg>
