<svg xmlns="http://www.w3.org/2000/svg" xmlns:xlink="http://www.w3.org/1999/xlink" width="32" height="24" viewBox="0 0 32 24">
  <defs>
    <rect id="sz---swaziland-a" width="32" height="24" x="0" y="0"/>
    <path id="sz---swaziland-c" d="M0.0390271493,6.05273437 C1.93325792,2.06605569 4.23501131,0.0727163462 6.94428733,0.0727163462 C9.65356335,0.0727163462 11.9871677,2.06605569 13.9451004,6.05273437 C11.554334,9.98702925 9.23665512,11.9541767 6.99206377,11.9541767 C4.74747243,11.9541767 2.42979355,9.98702925 0.0390271493,6.05273437 Z"/>
  </defs>
  <g fill="none" fill-rule="evenodd">
    <mask id="sz---swaziland-b" fill="#fff">
      <use xlink:href="#sz---swaziland-a"/>
    </mask>
    <g mask="url(#sz---swaziland-b)">
      <polygon fill="#3D58DB" points="0 0 32 0 32 24 0 24"/>
      <path fill="#C51918" stroke="#FFD018" stroke-width="2" d="M-1,5 L33,5 L33,19 L-1,19 L-1,5 Z"/>
      <g transform="translate(4 5)">
        <g transform="translate(.054 .846)">
          <g transform="translate(2.878 .8)">
            <path fill="#FFD018" fill-rule="nonzero" d="M0.21719457,2.68486455 C0.0972413213,2.68486455 0,2.41366288 0,2.07911866 C0,1.74457445 0.0972413213,1.47337278 0.21719457,1.47337278 L17.6279695,1.47337278 C17.7479227,1.47337278 17.845164,1.74457445 17.845164,2.07911866 C17.845164,2.41366288 17.7479227,2.68486455 17.6279695,2.68486455 L0.21719457,2.68486455 Z"/>
            <polygon fill="#F7FCFF" points="17.163 1.956 18.174 .666 19.963 1.956 18.174 3.28"/>
          </g>
          <g transform="translate(2.878 4.8)">
            <path fill="#FFD018" fill-rule="nonzero" d="M0.21719457,2.68486455 C0.0972413213,2.68486455 0,2.41366288 0,2.07911866 C0,1.74457445 0.0972413213,1.47337278 0.21719457,1.47337278 L17.6279695,1.47337278 C17.7479227,1.47337278 17.845164,1.74457445 17.845164,2.07911866 C17.845164,2.41366288 17.7479227,2.68486455 17.6279695,2.68486455 L0.21719457,2.68486455 Z"/>
            <polygon fill="#F7FCFF" points="17.163 1.956 18.174 .666 19.963 1.956 18.174 3.28"/>
          </g>
          <path fill="#FFD018" fill-rule="nonzero" d="M0.291212241,1.97556576 C0.130380161,1.97556576 0,1.66763491 0,1.28778296 C0,0.907931005 0.130380161,0.600000154 0.291212241,0.600000154 L23.6353998,0.600000154 C23.7962318,0.600000154 23.926612,0.907931005 23.926612,1.28778296 C23.926612,1.66763491 23.7962318,1.97556576 23.6353998,1.97556576 L0.291212241,1.97556576 Z" transform="translate(0 8)"/>
        </g>
        <g transform="translate(4.778 1)">
          <mask id="sz---swaziland-d" fill="#fff">
            <use xlink:href="#sz---swaziland-c"/>
          </mask>
          <use fill="#F7FCFF" xlink:href="#sz---swaziland-c"/>
          <path fill="#272727" d="M7.1459983,-0.319861779 C6.52782098,0.430939503 6.32176188,1.1643129 6.52782098,1.88025841 C6.83690964,2.95417668 7.557056,2.84074519 7.557056,3.78650841 C7.557056,4.73227163 7.22437076,5.6968149 7.557056,5.6968149 C7.88974123,5.6968149 8.0050198,6.34945913 7.70096861,6.79191707 C7.39691742,7.234375 7.12798389,7.24804687 7.1459983,7.96814904 C7.16401271,8.6882512 8.73803159,9.39513221 7.97553733,9.39513221 C7.21304307,9.39513221 6.2080741,10.1352163 6.52782098,10.1352163 C6.84756787,10.1352163 8.52043269,10.7118389 8.52043269,11.4685998 C8.52043269,11.973107 8.52043269,12.4272336 8.52043269,12.8309796 L-0.207013575,12.8309796 L-0.207013575,-0.319861779 L7.1459983,-0.319861779 Z" mask="url(#sz---swaziland-d)"/>
          <path fill="#F7FCFF" d="M2.60633484,3.92307692 L3.04072398,3.92307692 L3.04072398,5.69230769 L2.60633484,5.69230769 L2.60633484,3.92307692 Z M3.88778281,3.92307692 L4.32217195,3.92307692 L4.32217195,5.69230769 L3.88778281,5.69230769 L3.88778281,3.92307692 Z M3.24705882,3.92307692 L3.68144796,3.92307692 L3.68144796,5.69230769 L3.24705882,5.69230769 L3.24705882,3.92307692 Z M4.52850679,3.92307692 L4.96289593,3.92307692 L4.96289593,5.69230769 L4.52850679,5.69230769 L4.52850679,3.92307692 Z M5.16923077,3.92307692 L5.60361991,3.92307692 L5.60361991,5.69230769 L5.16923077,5.69230769 L5.16923077,3.92307692 Z M5.80995475,3.92307692 L6.24434389,3.92307692 L6.24434389,5.69230769 L5.80995475,5.69230769 L5.80995475,3.92307692 Z M2.60633484,6.46153846 L3.04072398,6.46153846 L3.04072398,8.23076923 L2.60633484,8.23076923 L2.60633484,6.46153846 Z M3.88778281,6.46153846 L4.32217195,6.46153846 L4.32217195,8.23076923 L3.88778281,8.23076923 L3.88778281,6.46153846 Z M3.24705882,6.46153846 L3.68144796,6.46153846 L3.68144796,8.23076923 L3.24705882,8.23076923 L3.24705882,6.46153846 Z M4.52850679,6.46153846 L4.96289593,6.46153846 L4.96289593,8.23076923 L4.52850679,8.23076923 L4.52850679,6.46153846 Z M5.16923077,6.46153846 L5.60361991,6.46153846 L5.60361991,8.23076923 L5.16923077,8.23076923 L5.16923077,6.46153846 Z M5.80995475,6.46153846 L6.24434389,6.46153846 L6.24434389,8.23076923 L5.80995475,8.23076923 L5.80995475,6.46153846 Z" mask="url(#sz---swaziland-d)"/>
          <path fill="#272727" d="M7.76470588,3.92307692 L8.19909502,3.92307692 L8.19909502,5.69230769 L7.76470588,5.69230769 L7.76470588,3.92307692 Z M9.04615385,3.92307692 L9.48054299,3.92307692 L9.48054299,5.69230769 L9.04615385,5.69230769 L9.04615385,3.92307692 Z M8.40542986,3.92307692 L8.839819,3.92307692 L8.839819,5.69230769 L8.40542986,5.69230769 L8.40542986,3.92307692 Z M9.68687783,3.92307692 L10.121267,3.92307692 L10.121267,5.69230769 L9.68687783,5.69230769 L9.68687783,3.92307692 Z M10.3276018,3.92307692 L10.761991,3.92307692 L10.761991,5.69230769 L10.3276018,5.69230769 L10.3276018,3.92307692 Z M10.9683258,3.92307692 L11.4027149,3.92307692 L11.4027149,5.69230769 L10.9683258,5.69230769 L10.9683258,3.92307692 Z M7.76470588,6.46153846 L8.19909502,6.46153846 L8.19909502,8.23076923 L7.76470588,8.23076923 L7.76470588,6.46153846 Z M9.04615385,6.46153846 L9.48054299,6.46153846 L9.48054299,8.23076923 L9.04615385,8.23076923 L9.04615385,6.46153846 Z M8.40542986,6.46153846 L8.839819,6.46153846 L8.839819,8.23076923 L8.40542986,8.23076923 L8.40542986,6.46153846 Z M9.68687783,6.46153846 L10.121267,6.46153846 L10.121267,8.23076923 L9.68687783,8.23076923 L9.68687783,6.46153846 Z M10.3276018,6.46153846 L10.761991,6.46153846 L10.761991,8.23076923 L10.3276018,8.23076923 L10.3276018,6.46153846 Z M10.9683258,6.46153846 L11.4027149,6.46153846 L11.4027149,8.23076923 L10.9683258,8.23076923 L10.9683258,6.46153846 Z" mask="url(#sz---swaziland-d)"/>
          <path fill="#3D58DB" d="M4.82133767,1.00354845 C4.18934394,1.08354554 3.63800905,2.60676359 3.63800905,2.99844028 C3.63800905,3.25955806 3.73091063,3.25955806 3.9167138,2.99844028 C4.08721012,3.64797954 4.17245829,4.0560825 4.17245829,4.22274917 C4.17245829,4.38941584 4.2810379,4.28259492 4.49819712,3.90228643 C4.9194358,4.31715021 5.13005515,4.71433571 5.13005515,5.09384292 C5.13005515,5.47335013 5.24844457,5.27708611 5.48522342,4.50505085 C5.59721437,4.50505085 5.65320984,4.50505085 5.65320984,4.50505085 C5.65320984,4.50505085 5.65320984,4.30412938 5.65320984,3.90228643 L5.91706731,4.22274917 L5.91706731,3.6622023 C6.03711821,3.89357249 6.09714367,3.89357249 6.09714367,3.6622023 C6.09714367,3.4308321 6.09714367,3.25056164 6.09714367,3.12139091 L6.09714367,2.64702802 L6.41423925,2.64702802 C5.77363402,1.49804358 5.24266683,0.950217054 4.82133767,1.00354845 Z" mask="url(#sz---swaziland-d)" transform="rotate(-10 5.026 3.14)"/>
        </g>
        <path fill="#3D58DB" d="M22.088306,8.69585614 C21.4563123,8.77585323 20.9049774,10.2990713 20.9049774,10.690748 C20.9049774,10.9518658 20.997879,10.9518658 21.1836821,10.690748 C21.3541785,11.3402872 21.4394266,11.7483902 21.4394266,11.9150569 C21.4394266,12.0817235 21.5480062,11.9749026 21.7651654,11.5945941 C22.1864041,12.0094579 22.3970235,12.4066434 22.3970235,12.7861506 C22.3970235,13.1656578 22.5154129,12.9693938 22.7521917,12.1973585 C22.8641827,12.1973585 22.9201782,12.1973585 22.9201782,12.1973585 C22.9201782,12.1973585 22.9201782,11.9964371 22.9201782,11.5945941 L23.1840356,11.9150569 L23.1840356,11.35451 C23.3040865,11.5858802 23.364112,11.5858802 23.364112,11.35451 C23.364112,11.1231398 23.364112,10.9428693 23.364112,10.8136986 L23.364112,10.3393357 L23.6812076,10.3393357 C23.0406023,9.19035127 22.5096352,8.64252475 22.088306,8.69585614 Z"/>
        <path fill="#3D58DB" d="M1.18332862,8.46508691 C0.551334886,8.545084 0,10.0683021 0,10.4599787 C0,10.7210965 0.0929015837,10.7210965 0.278704751,10.4599787 C0.449201075,11.109518 0.534449236,11.517621 0.534449236,11.6842876 C0.534449236,11.8509543 0.643028846,11.7441334 0.860188066,11.3638249 C1.28142675,11.7786887 1.4920461,12.1758742 1.4920461,12.5553814 C1.4920461,12.9348886 1.61043552,12.7386246 1.84721437,11.9665893 C1.95920532,11.9665893 2.01520079,11.9665893 2.01520079,11.9665893 C2.01520079,11.9665893 2.01520079,11.7656678 2.01520079,11.3638249 L2.27905826,11.6842876 L2.27905826,11.1237408 C2.39910916,11.3551109 2.45913462,11.3551109 2.45913462,11.1237408 C2.45913462,10.8923706 2.45913462,10.7121001 2.45913462,10.5829294 L2.45913462,10.1085665 L2.7762302,10.1085665 C2.13562497,8.95958204 1.60465778,8.41175552 1.18332862,8.46508691 Z" transform="matrix(-1 0 0 1 2.776 0)"/>
      </g>
    </g>
  </g>
</svg>
