<svg height="24" viewBox="0 0 32 24" width="32" xmlns="http://www.w3.org/2000/svg" xmlns:xlink="http://www.w3.org/1999/xlink"><defs><path id="a" d="m0 0h32v24h-32z"/><mask id="b" fill="#fff"><path d="m0 0h32v24h-32z" fill="#fff" fill-rule="evenodd"/></mask><mask id="c" fill="#fff"><use fill="#fff" fill-rule="evenodd" xlink:href="#a"/></mask></defs><g fill="none" fill-rule="evenodd" mask="url(#b)"><use fill="#3d58db" xlink:href="#a"/><path d="m0 24h32v-24z" fill="#579d20" mask="url(#c)"/><path d="m-.782 24.745-1.804-2.496 36.261-24.203 1.804 2.496z" fill="#feca00" fill-rule="nonzero" mask="url(#c)"/><g fill="#f7fcff" mask="url(#c)"><g transform="translate(3 2)"><path d="m2.01685017 3.60077606-1.36356945.94579783.43571067-1.6199267-1.0010013-1.03481042 1.35541182-.055953.57344826-1.60186691.57344827 1.60186691h1.35310576l-.99869524 1.09076342.50016246 1.52431463zm5.65817916 0-1.36356945.94579783.43571067-1.6199267-1.0010013-1.03481042 1.35541182-.055953.57344826-1.60186691.57344827 1.60186691h1.35310576l-.99869524 1.09076342.50016247 1.52431463z"/><path d="m2.01685017 9.60077606-1.36356945.94579784.43571067-1.61992671-1.0010013-1.03481042 1.35541182-.055953.57344826-1.60186691.57344827 1.60186691h1.35310576l-.99869524 1.09076342.50016246 1.52431461zm5.65817916 0-1.36356945.94579784.43571067-1.61992671-1.0010013-1.03481042 1.35541182-.055953.57344826-1.60186691.57344827 1.60186691h1.35310576l-.99869524 1.09076342.50016247 1.52431461zm-2.6634736-3.0920307-1.36356946.94579783.43571067-1.6199267-1.0010013-1.03481042 1.35541182-.055953.57344827-1.60186691.57344826 1.60186691h1.35310577l-.99869525 1.09076342.50016247 1.52431462z"/></g></g></g></svg>