<svg xmlns="http://www.w3.org/2000/svg" xmlns:xlink="http://www.w3.org/1999/xlink" width="32" height="24" viewBox="0 0 32 24">
  <defs>
    <rect id="ms---montserrat-a" width="32" height="24" x="0" y="0"/>
    <rect id="ms---montserrat-c" width="32" height="24" x="0" y="0"/>
    <path id="ms---montserrat-e" d="M0.0466803896,0.0326909109 C0.0466803896,7.10497254 -0.403521158,11.9639885 4.92864831,11.9639885 C10.2608178,11.9639885 10.2608178,5.9983397 9.90736386,0.0326909109 L0.0466803896,0.0326909109 Z"/>
    <rect id="ms---montserrat-g" width="18" height="14" x="0" y="0"/>
  </defs>
  <g fill="none" fill-rule="evenodd">
    <mask id="ms---montserrat-b" fill="#fff">
      <use xlink:href="#ms---montserrat-a"/>
    </mask>
    <g mask="url(#ms---montserrat-b)">
      <mask id="ms---montserrat-d" fill="#fff">
        <use xlink:href="#ms---montserrat-c"/>
      </mask>
      <use fill="#2E42A5" xlink:href="#ms---montserrat-c"/>
      <g mask="url(#ms---montserrat-d)">
        <g transform="translate(21 10)">
          <mask id="ms---montserrat-f" fill="#fff">
            <use xlink:href="#ms---montserrat-e"/>
          </mask>
          <path stroke="#F7FCFF" stroke-width=".5" d="M0.29652433,0.282690911 C0.296094647,0.616621539 0.294738727,0.959047585 0.291979443,1.53082612 C0.270659342,5.94877666 0.356897839,7.50993578 0.856121032,9.01246579 C1.46715874,10.851528 2.68635069,11.7139885 4.92864831,11.7139885 C7.29053962,11.7139885 8.65590845,10.5170557 9.30926087,8.16845531 C9.82353006,6.31981623 9.88740153,4.05728707 9.67149948,0.282690911 L0.29652433,0.282690911 Z"/>
          <g mask="url(#ms---montserrat-f)">
            <g transform="translate(-.2)">
              <rect width="10.07" height="7.978" x=".133" fill="#2EBED7"/>
              <rect width="10.6" height="4.086" y="7.914" fill="#A95601"/>
              <g transform="translate(2.451 .324)">
                <path stroke="#FFC6B5" d="M3.49443678,3.13949413 C2.24975491,3.42182038 1.68758282,3.42182038 1.80792049,3.13949413 C1.92825817,2.85716789 2.14938679,2.20698323 2.47130633,1.18894015"/>
                <path fill="#FFC6B5" d="M4.05603413,3.44146193 C3.82895174,3.30231077 3.71541054,3.1060247 3.71541054,2.85260372 C3.71541054,2.47247226 2.88473884,2.33024933 3.47038649,1.73632271 C4.05603413,1.14239609 4.30877041,1.40395725 4.30877041,1.73632271 C4.30877041,2.06868816 4.77953793,2.85260372 4.77953793,2.85260372 C4.77953793,2.85260372 4.53837,3.04888979 4.05603413,3.44146193 Z"/>
                <path fill="#272727" d="M3.11375011,0.908108108 L4.96875018,0.908108108 L4.96875018,1.81621622 L3.11375011,1.81621622 L3.11375011,9.72972973 L2.18625008,9.72972973 L2.18625008,1.81621622 L0.331250012,1.81621622 L0.331250012,0.908108108 L2.18625008,0.908108108 L2.18625008,0 L3.11375011,0 L3.11375011,0.908108108 Z"/>
                <path fill="#0C7C38" d="M5.11079946,9.99690751 C4.88586557,8.95587327 4.77339863,8.079057 4.77339863,7.36645869 C4.77339863,6.29756122 4.20797416,5.53302583 4.36955189,4.96776831 C4.53112961,4.4025108 4.92018404,3.77745082 4.72565683,3.39054986 C4.53112961,3.00364891 4.91546214,2.81526158 4.36955189,3.00364891 C3.82364164,3.19203624 3.67689472,2.81526158 3.14981569,3.00364891 C2.62273667,3.19203624 2.55599804,4.08143077 2.55599804,4.33516137 C2.55599804,4.58889197 2.7903638,6.29956737 2.7903638,6.83301303 C2.7903638,7.36645869 2.59727061,10.64671 3.14981569,10.64671 C3.70236078,10.64671 4.30479422,9.79304414 4.51522552,9.79304414 C4.65551306,9.79304414 4.8540377,9.8609986 5.11079946,9.99690751 Z"/>
                <path stroke="#FF9A06" d="M1.7785516,5.81703979 C1.44173619,5.81703979 1.7515244,6.59943949 0.894459951,6.94249167 C0.037395498,7.28554385 -0.130817061,7.76864461 0.139162145,7.76864461 C0.319148282,7.76864461 1.12072731,8.56814438 2.54389923,10.1671439 L3.06736812,9.35789998 L3.06736812,6.80234754 C2.43270071,6.14547571 2.0030952,5.81703979 1.7785516,5.81703979 Z"/>
                <path stroke="#979797" d="M4.2918876,9.8334538 C4.55855427,10.4056867 4.55855427,10.6918032 4.2918876,10.6918032"/>
                <path stroke="#FFC6B5" d="M4.16318903,3.4659239 C4.04603868,4.1078292 3.87593974,4.49597206 3.65289223,4.63035247 C3.31832097,4.83192309 1.94383702,5.22216763 1.94383702,5.55538011 C1.94383702,5.77752175 1.89836889,5.92830167 1.80743264,6.00771986"/>
                <path fill="#FF9A06" d="M3.49658335,1.47820832 C3.72080171,1.7446764 3.89568163,2.09753643 4.0212231,2.53678843 C4.2095353,3.19566642 4.75505526,3.42006897 4.75505526,3.11169458 C4.75505526,2.8033202 5.15831658,1.47820832 4.75505526,1.47820832 C4.48621439,1.47820832 4.06672375,1.47820832 3.49658335,1.47820832 Z"/>
              </g>
            </g>
          </g>
        </g>
      </g>
      <g mask="url(#ms---montserrat-d)">
        <mask id="ms---montserrat-h" fill="#fff">
          <use xlink:href="#ms---montserrat-g"/>
        </mask>
        <use fill="#2B409A" xlink:href="#ms---montserrat-g"/>
        <g mask="url(#ms---montserrat-h)">
          <g transform="translate(-3 -2)">
            <polygon fill="#F7FCFF" fill-rule="nonzero" points=".996 2.464 4.957 .727 21.09 13.575 23.179 16.156 18.944 16.737 12.363 11.2 7.067 7.47" transform="matrix(1 0 0 -1 0 17.464)"/>
            <polygon fill="#F50100" fill-rule="nonzero" points="1.538 2.075 3.556 1.067 22.429 17.225 19.596 17.225" transform="matrix(1 0 0 -1 0 18.292)"/>
            <g transform="matrix(-1 0 0 1 24 0)">
              <polygon fill="#F7FCFF" fill-rule="nonzero" points=".996 2.464 4.957 .727 21.09 13.575 23.179 16.156 18.944 16.737 12.363 11.2 7.067 7.47" transform="matrix(1 0 0 -1 0 17.464)"/>
              <polygon fill="#F50100" fill-rule="nonzero" points="1.131 2.324 3.149 1.316 11.185 8.234 13.568 9.007 23.38 16.881 20.547 16.881 10.74 9.194 8.135 8.267" transform="matrix(1 0 0 -1 0 18.198)"/>
            </g>
            <path fill="#F50100" stroke="#F7FCFF" stroke-width="1.5" d="M7.23451152,5.25 L7.23451152,-0.75 L10.7345115,-0.75 L10.7345115,5.25 L18.75,5.25 L18.75,8.75 L10.7345115,8.75 L10.7345115,14.75 L7.23451152,14.75 L7.23451152,8.75 L-0.75,8.75 L-0.75,5.25 L7.23451152,5.25 Z" transform="translate(3 2)"/>
          </g>
        </g>
      </g>
    </g>
  </g>
</svg>
