<svg xmlns="http://www.w3.org/2000/svg" xmlns:xlink="http://www.w3.org/1999/xlink" width="20" height="15" viewBox="0 0 20 15">
  <defs>
    <rect id="tv---tuvalu-a" width="20" height="15" x="0" y="0"/>
    <rect id="tv---tuvalu-c" width="20" height="15" x="0" y="0"/>
    <rect id="tv---tuvalu-e" width="11" height="9" x="0" y="0"/>
  </defs>
  <g fill="none" fill-rule="evenodd">
    <mask id="tv---tuvalu-b" fill="#fff">
      <use xlink:href="#tv---tuvalu-a"/>
    </mask>
    <g mask="url(#tv---tuvalu-b)">
      <mask id="tv---tuvalu-d" fill="#fff">
        <use xlink:href="#tv---tuvalu-c"/>
      </mask>
      <use fill="#00B4FF" xlink:href="#tv---tuvalu-c"/>
      <g mask="url(#tv---tuvalu-d)">
        <mask id="tv---tuvalu-f" fill="#fff">
          <use xlink:href="#tv---tuvalu-e"/>
        </mask>
        <use fill="#2E42A5" xlink:href="#tv---tuvalu-e"/>
        <g mask="url(#tv---tuvalu-f)">
          <g transform="translate(-2.5 -1.25)">
            <g transform="translate(1)">
              <polygon fill="#F7FCFF" fill-rule="nonzero" points=".247 1.54 2.723 .454 12.806 8.484 14.112 10.098 11.465 10.461 7.352 7 4.042 4.669" transform="matrix(1 0 0 -1 0 10.915)"/>
              <polygon fill="#F50100" fill-rule="nonzero" points=".586 1.297 1.847 .667 13.643 10.766 11.872 10.766" transform="matrix(1 0 0 -1 0 11.433)"/>
            </g>
            <g transform="matrix(-1 0 0 1 15.25 0)">
              <polygon fill="#F7FCFF" fill-rule="nonzero" points=".247 1.85 2.444 .454 12.806 8.794 14.112 10.408 11.465 10.771 7.352 7.31 4.042 4.979" transform="matrix(1 0 0 -1 0 11.225)"/>
              <polygon fill="#F50100" fill-rule="nonzero" points=".332 1.453 1.593 .823 6.616 5.146 8.105 5.629 14.238 10.551 12.467 10.551 6.337 5.746 4.709 5.167" transform="matrix(1 0 0 -1 0 11.373)"/>
            </g>
            <path fill="#F50100" stroke="#F7FCFF" stroke-width=".938" d="M4.53125,3.53125 L4.53125,-0.46875 L6.46875,-0.46875 L6.46875,3.53125 L11.46875,3.53125 L11.46875,5.46875 L6.46875,5.46875 L6.46875,9.46875 L4.53125,9.46875 L4.53125,5.46875 L-0.46875,5.46875 L-0.46875,3.53125 L4.53125,3.53125 Z" transform="translate(2.5 1.25)"/>
          </g>
        </g>
      </g>
      <g fill="#FFD018" mask="url(#tv---tuvalu-d)">
        <path d="M1.85884085,9.83475668 L1.17126757,10.242238 L1.39969275,9.44876541 L0.751921069,8.94038868 L1.48623379,8.94038868 L1.84371898,8.2133776 L2.22647909,8.94038868 L2.87477147,8.94038868 L2.3100331,9.44876541 L2.58529665,10.242238 L1.85884085,9.83475668 Z M4.66494451,9.7246331 L4.28544758,10.4280392 L4.07257758,9.63025275 L3.2554955,9.52811592 L3.88492435,9.14991691 L3.81691058,8.3426283 L4.51943842,8.76866239 L5.07513345,8.43476714 L4.85289155,9.16139281 L5.49750707,9.69976037 L4.66494451,9.7246331 Z M4.66494451,7.2246331 L4.28544758,7.92803919 L4.07257758,7.13025275 L3.2554955,7.02811592 L3.88492435,6.64991691 L3.81691058,5.8426283 L4.51943842,6.26866239 L5.07513345,5.93476714 L4.85289155,6.66139281 L5.49750707,7.19976037 L4.66494451,7.2246331 Z M7.16494451,8.4746331 L6.78544758,9.17803919 L6.57257758,8.38025275 L5.7554955,8.27811592 L6.38492435,7.89991691 L6.31691058,7.0926283 L7.01943842,7.51866239 L7.57513345,7.18476714 L7.35289155,7.91139281 L7.99750707,8.44976037 L7.16494451,8.4746331 Z M7.16494451,4.7246331 L6.78544758,5.42803919 L6.57257758,4.63025275 L5.7554955,4.52811592 L6.38492435,4.14991691 L6.31691058,3.3426283 L7.01943842,3.76866239 L7.57513345,3.43476714 L7.35289155,4.16139281 L7.99750707,4.69976037 L7.16494451,4.7246331 Z M9.66494451,7.2246331 L9.28544758,7.92803919 L9.07257758,7.13025275 L8.2554955,7.02811592 L8.88492435,6.64991691 L8.81691058,5.8426283 L9.51943842,6.26866239 L10.0751334,5.93476714 L9.85289155,6.66139281 L10.4975071,7.19976037 L9.66494451,7.2246331 Z M10.9149445,5.9746331 L10.5354476,6.67803919 L10.3225776,5.88025275 L9.5054955,5.77811592 L10.1349244,5.39991691 L10.0669106,4.5926283 L10.7694384,5.01866239 L11.3251334,4.68476714 L11.1028916,5.41139281 L11.7475071,5.94976037 L10.9149445,5.9746331 Z M8.41494451,3.4746331 L8.03544758,4.17803919 L7.82257758,3.38025275 L7.0054955,3.27811592 L7.63492435,2.89991691 L7.56691058,2.0926283 L8.26943842,2.51866239 L8.82513345,2.18476714 L8.60289155,2.91139281 L9.24750707,3.44976037 L8.41494451,3.4746331 Z M10.9149445,2.2246331 L10.5354476,2.92803919 L10.3225776,2.13025275 L9.5054955,2.02811592 L10.1349244,1.64991691 L10.0669106,0.842628299 L10.7694384,1.26866239 L11.3251334,0.934767137 L11.1028916,1.66139281 L11.7475071,2.19976037 L10.9149445,2.2246331 Z" transform="translate(6.25 3.75)"/>
      </g>
    </g>
  </g>
</svg>
