<svg xmlns="http://www.w3.org/2000/svg" xmlns:xlink="http://www.w3.org/1999/xlink" width="20" height="15" viewBox="0 0 20 15">
  <defs>
    <rect id="gb-ukm---united-kingdom-a" width="20" height="15" x="0" y="0"/>
    <rect id="gb-ukm---united-kingdom-c" width="20" height="15" x="0" y="0"/>
    <rect id="gb-ukm---united-kingdom-e" width="20" height="15" x="0" y="0"/>
  </defs>
  <g fill="none" fill-rule="evenodd">
    <mask id="gb-ukm---united-kingdom-b" fill="#fff">
      <use xlink:href="#gb-ukm---united-kingdom-a"/>
    </mask>
    <g mask="url(#gb-ukm---united-kingdom-b)">
      <mask id="gb-ukm---united-kingdom-d" fill="#fff">
        <use xlink:href="#gb-ukm---united-kingdom-c"/>
      </mask>
      <use fill="#2E42A5" xlink:href="#gb-ukm---united-kingdom-c"/>
      <g mask="url(#gb-ukm---united-kingdom-d)">
        <mask id="gb-ukm---united-kingdom-f" fill="#fff">
          <use xlink:href="#gb-ukm---united-kingdom-e"/>
        </mask>
        <g mask="url(#gb-ukm---united-kingdom-f)">
          <g transform="translate(-3.194 -2.143)">
            <polygon fill="#FFF" fill-rule="nonzero" points=".967 2.64 5.369 .778 23.294 14.544 25.616 17.31 20.909 17.933 13.598 12 7.713 8.003" transform="matrix(1 0 0 -1 0 18.711)"/>
            <polygon fill="#F50100" fill-rule="nonzero" points="1.57 2.224 3.812 1.144 24.782 18.455 21.634 18.455" transform="matrix(1 0 0 -1 0 19.599)"/>
            <g transform="matrix(-1 0 0 1 26.389 0)">
              <polygon fill="#FFF" fill-rule="nonzero" points=".967 2.64 5.369 .778 23.294 14.544 25.616 17.31 20.909 17.933 13.598 12 7.713 8.003" transform="matrix(1 0 0 -1 0 18.711)"/>
              <polygon fill="#F50100" fill-rule="nonzero" points="1.118 2.49 3.36 1.41 12.289 8.822 14.936 9.65 25.839 18.087 22.691 18.087 11.794 9.851 8.9 8.858" transform="matrix(1 0 0 -1 0 19.497)"/>
            </g>
            <path fill="#F50100" stroke="#FFF" stroke-width="1.25" d="M0.642209423,6.875 L0.642209423,10.625 L9.51388889,10.625 L9.51388889,16.875 L12.9861111,16.875 L12.9861111,10.625 L21.8922094,10.625 L21.8922094,6.875 L12.9861111,6.875 L12.9861111,0.625 L9.51388889,0.625 L9.51388889,6.875 L0.642209423,6.875 Z" transform="translate(1.944 .893)"/>
          </g>
        </g>
      </g>
    </g>
  </g>
</svg>
