<svg xmlns="http://www.w3.org/2000/svg" xmlns:xlink="http://www.w3.org/1999/xlink" width="20" height="15" viewBox="0 0 20 15">
  <defs>
    <rect id="eg---egypt-a" width="20" height="15" x="0" y="0"/>
    <rect id="eg---egypt-c" width="20" height="15" x="0" y="0"/>
  </defs>
  <g fill="none" fill-rule="evenodd">
    <mask id="eg---egypt-b" fill="#fff">
      <use xlink:href="#eg---egypt-a"/>
    </mask>
    <g mask="url(#eg---egypt-b)">
      <mask id="eg---egypt-d" fill="#fff">
        <use xlink:href="#eg---egypt-c"/>
      </mask>
      <use fill="#F7FCFF" xlink:href="#eg---egypt-c"/>
      <rect width="20" height="5" fill="#BF2714" mask="url(#eg---egypt-d)"/>
      <rect width="20" height="5" y="10" fill="#272727" mask="url(#eg---egypt-d)"/>
      <g mask="url(#eg---egypt-d)">
        <g transform="translate(7.5 4.75)">
          <g transform="translate(0 1.543)">
            <polygon fill="#C09302" fill-rule="nonzero" points=".163 .095 .787 .123 .63 3.542 .006 3.513"/>
            <polygon fill="#C09302" fill-rule="nonzero" points=".815 .307 1.439 .342 1.282 3.114 .658 3.079"/>
            <polygon fill="#C09302" fill-rule="nonzero" points="1.468 .514 2.091 .565 1.934 2.475 1.311 2.424"/>
          </g>
          <g transform="matrix(-1 0 0 1 5 1.543)">
            <polygon fill="#C09302" fill-rule="nonzero" points=".163 .095 .787 .123 .63 3.542 .006 3.513"/>
            <polygon fill="#C09302" fill-rule="nonzero" points=".815 .307 1.439 .342 1.282 3.114 .658 3.079"/>
            <polygon fill="#C09302" fill-rule="nonzero" points="1.468 .514 2.091 .565 1.934 2.475 1.311 2.424"/>
          </g>
          <g transform="translate(1.174 3.538)">
            <polygon fill="#C09302" fill-rule="nonzero" points="1.309 1.292 .7 1.152 .958 .027 1.567 .166"/>
            <polygon fill="#C09302" fill-rule="nonzero" points="1.744 1.292 1.135 1.152 1.393 .027 2.002 .166" transform="matrix(-1 0 0 1 3.52 0)"/>
            <polygon fill="#C09302" fill-rule="nonzero" points="1.621 1.281 .996 1.281 .996 .176 1.621 .176"/>
          </g>
          <g transform="translate(1.49 1.974)">
            <polygon fill="#C09302" fill-rule="nonzero" points=".158 .097 .782 .112 .746 1.6 .121 1.585"/>
            <polygon fill="#C09302" fill-rule="nonzero" points="1.245 .097 1.869 .112 1.833 1.6 1.208 1.585"/>
          </g>
          <path fill="#C09302" fill-rule="nonzero" d="M0.401450787,1.24488254 L0.563765893,0.641327404 C1.22691857,0.819670178 1.73611494,0.907868796 2.08333332,0.907868796 C2.4305517,0.907868796 2.93974806,0.819670178 3.60290074,0.641327404 L3.76521585,1.24488254 C3.05372544,1.43622487 2.49577182,1.5328688 2.08333332,1.5328688 C1.67089482,1.5328688 1.1129412,1.43622487 0.401450787,1.24488254 Z" transform="translate(.435 3.957)"/>
          <path fill="#C09302" fill-rule="nonzero" d="M0.176440223,1.63919332 C0.134775791,1.22631805 0.376426438,0.946829741 0.785964696,0.982476857 C0.920625323,0.994198017 1.07187154,1.03403544 1.27331757,1.10237982 C1.33217286,1.1225716 1.33217286,1.1225716 1.38937666,1.14282192 C1.66630835,1.24131964 1.74150375,1.26663879 1.75711098,1.26997283 C1.69575008,1.25607547 1.87648153,0.929344086 1.91793879,0.874273963 C1.92284045,0.909244341 1.90203544,0.904267377 1.85207765,0.894269055 L1.2883038,0.781437938 L1.68962529,0.369718525 C1.82990376,0.225805556 2.01671245,0.154439931 2.2298899,0.154439931 C2.25199059,0.154439931 2.27260958,0.15341291 2.34033507,0.149246477 C2.39042052,0.146201399 2.39042052,0.146201399 2.44673338,0.143870906 C2.83670674,0.131234142 3.11637732,0.241510327 3.11637732,0.642543796 C3.11637732,0.786017506 3.13449772,1.01673513 3.16440572,1.19176641 C3.17446657,1.25064574 3.19390379,1.30575806 3.1365795,1.32996472 C3.13894731,1.30907675 3.27554112,1.25517392 3.48794302,1.16634437 L3.51344547,1.15568853 C4.13058964,0.898099138 4.20269229,0.874201365 4.40163008,0.99510254 C4.53420349,1.07567185 4.66043085,1.2205929 4.80187171,1.43666245 L4.27894826,1.77897234 C4.18771915,1.63960786 4.11506762,1.5550454 4.08047284,1.53142585 C4.15909994,1.58605084 3.89428581,1.67398701 3.75418519,1.73246352 L3.7290879,1.74295008 C3.24859531,1.94389905 3.18525392,1.96787081 3.04786299,1.96787081 C2.6739918,1.96787081 2.53974533,1.58489722 2.50299531,1.03642664 C2.38764375,1.41615958 2.04347397,1.89537797 1.75986787,1.89537797 C1.63571357,1.89537797 1.69540276,1.91502362 1.17993309,1.73168387 C1.12592679,1.71256726 1.12592679,1.71256726 1.07251626,1.69424453 C0.916351878,1.6412628 0.80369421,1.61154219 0.732619002,1.60519762 C0.735555963,1.60184695 0.746020692,1.59058933 0.757762923,1.58053037 L0.176440223,1.63919332 Z"/>
        </g>
      </g>
    </g>
  </g>
</svg>
