<svg xmlns="http://www.w3.org/2000/svg" xmlns:xlink="http://www.w3.org/1999/xlink" width="20" height="15" viewBox="0 0 20 15">
  <defs>
    <rect id="fk---falkland-islands-a" width="20" height="15" x="0" y="0"/>
    <rect id="fk---falkland-islands-c" width="20" height="15" x="0" y="0"/>
    <rect id="fk---falkland-islands-e" width="11" height="9" x="0" y="0"/>
    <path id="fk---falkland-islands-g" d="M0.0237164238,0.0204318193 C0.0237164238,3.69966981 -0.201770837,6.22749281 2.46889143,6.22749281 C5.1395537,6.22749281 5.1395537,3.12396231 4.96252331,0.0204318193 L0.0237164238,0.0204318193 Z"/>
  </defs>
  <g fill="none" fill-rule="evenodd">
    <mask id="fk---falkland-islands-b" fill="#fff">
      <use xlink:href="#fk---falkland-islands-a"/>
    </mask>
    <g mask="url(#fk---falkland-islands-b)">
      <mask id="fk---falkland-islands-d" fill="#fff">
        <use xlink:href="#fk---falkland-islands-c"/>
      </mask>
      <use fill="#2E42A5" xlink:href="#fk---falkland-islands-c"/>
      <g mask="url(#fk---falkland-islands-d)">
        <mask id="fk---falkland-islands-f" fill="#fff">
          <use xlink:href="#fk---falkland-islands-e"/>
        </mask>
        <use fill="#2E42A5" xlink:href="#fk---falkland-islands-e"/>
        <g mask="url(#fk---falkland-islands-f)">
          <g transform="translate(-2.5 -1.25)">
            <g transform="translate(1)">
              <polygon fill="#F7FCFF" fill-rule="nonzero" points=".247 1.54 2.723 .454 12.806 8.484 14.112 10.098 11.465 10.461 7.352 7 4.042 4.669" transform="matrix(1 0 0 -1 0 10.915)"/>
              <polygon fill="#F50100" fill-rule="nonzero" points=".586 1.297 1.847 .667 13.643 10.766 11.872 10.766" transform="matrix(1 0 0 -1 0 11.433)"/>
            </g>
            <g transform="matrix(-1 0 0 1 15.25 0)">
              <polygon fill="#F7FCFF" fill-rule="nonzero" points=".247 1.85 2.444 .454 12.806 8.794 14.112 10.408 11.465 10.771 7.352 7.31 4.042 4.979" transform="matrix(1 0 0 -1 0 11.225)"/>
              <polygon fill="#F50100" fill-rule="nonzero" points=".332 1.453 1.593 .823 6.616 5.146 8.105 5.629 14.238 10.551 12.467 10.551 6.337 5.746 4.709 5.167" transform="matrix(1 0 0 -1 0 11.373)"/>
            </g>
            <path fill="#F50100" stroke="#F7FCFF" stroke-width=".938" d="M4.53125,3.53125 L4.53125,-0.46875 L6.46875,-0.46875 L6.46875,3.53125 L11.46875,3.53125 L11.46875,5.46875 L6.46875,5.46875 L6.46875,9.46875 L4.53125,9.46875 L4.53125,5.46875 L-0.46875,5.46875 L-0.46875,3.53125 L4.53125,3.53125 Z" transform="translate(2.5 1.25)"/>
          </g>
        </g>
      </g>
      <g mask="url(#fk---falkland-islands-d)">
        <g transform="translate(13.75 6.25)">
          <mask id="fk---falkland-islands-h" fill="#fff">
            <use xlink:href="#fk---falkland-islands-g"/>
          </mask>
          <path stroke="#F7FCFF" stroke-width=".5" d="M0.273418495,0.270431819 C0.273080024,0.411107736 0.272431033,0.569966186 0.271360675,0.800345856 C0.260751084,3.08391164 0.303721537,3.89188908 0.548418498,4.65685182 C0.838588461,5.56397062 1.40138105,5.97749281 2.46889143,5.97749281 C3.58930797,5.97749281 4.22798534,5.39594607 4.54210332,4.22310892 C4.79054252,3.29549971 4.82590991,2.15403317 4.72592196,0.270431819 L0.273418495,0.270431819 Z"/>
          <g mask="url(#fk---falkland-islands-h)">
            <g transform="translate(-.25)">
              <path fill="#E1E5E8" d="M1.82617823,2.24186467 C1.66172774,2.12024232 1.54424485,1.96090762 1.47372955,1.76386056 C1.36795661,1.46828997 1.15866324,0.681457023 1.15866324,0.613132841 C1.15866324,0.544808659 0.880164567,0.613132841 0.880164567,0.613132841 C0.880164567,0.613132841 0.884046583,0.280394958 0.989148562,0.280394958 C1.09425054,0.280394958 1.09818048,-0.0281245223 1.3531714,0.0495688233 C1.60816231,0.127262169 1.80868519,0.412181964 2.06854061,0.412181964 C2.32839603,0.412181964 3.41464151,0.495046027 3.58923636,0.495046027 C3.76383121,0.495046027 4.22411366,0.863585251 4.22411366,1.13944321 C4.22411366,1.41530117 4.09859516,1.82630692 3.99986735,1.82630692 C3.90113955,1.82630692 3.77691505,2.06544156 3.58923636,1.98651078 C3.40155768,1.90757999 2.9534964,1.74503385 2.55213911,1.82630692 C2.15078183,1.90757999 2.06854061,1.85649154 2.06854061,1.98651078 C2.06854061,2.07319027 1.98775315,2.15830823 1.82617823,2.24186467 Z"/>
              <polygon fill="#49801E" points="1.25 2.049 4.472 2.049 3.917 2.766 1.641 2.766"/>
              <path stroke="#FFF" stroke-width=".667" d="M1.20807507 5.18476131C1.57932838 5.31755451 1.84253862 5.3758806 1.99770581 5.35973957 2.25545162 5.33292796 2.48364077 5.03911383 2.65590059 5.03911383 2.82784657 5.03911383 3.15891061 5.33302556 3.41603137 5.35973957 3.57141766 5.3758837 3.80064924 5.31755761 4.10372612 5.18476131M.596489869 4.33514941C.724867967 4.2264434.928729701 4.16811731 1.20807507 4.16017115 1.57932838 4.29296435 1.84253862 4.35129043 1.99770581 4.33514941 2.25545162 4.30833779 2.48364077 4.01452367 2.65590059 4.01452367 2.82784657 4.01452367 3.15891061 4.3084354 3.41603137 4.33514941 3.57141766 4.35129353 3.80064924 4.29296745 4.10372612 4.16017115 4.27309511 3.96972775 4.46412766 3.9750537 4.67682378 4.17614897"/>
              <path fill="#FFF" fill-rule="nonzero" d="M0.53797581,3.45609413 L0.116506057,2.93955982 C0.281764378,2.80471615 0.559253439,2.67182357 0.964320869,2.52493542 L1.16092053,2.51545789 C1.58088105,2.62338004 1.86164868,2.67015142 1.96445947,2.65984578 C1.99838819,2.65644481 2.05508107,2.62889036 2.15864429,2.56019689 C2.4527437,2.36512078 2.48128892,2.34922312 2.65590059,2.34922312 C2.81548429,2.34922312 2.84840103,2.36452747 3.18197274,2.54467595 C3.24390919,2.5778676 3.26716207,2.58994246 3.3006728,2.60602951 C3.37109707,2.63983713 3.42155506,2.65707028 3.4492376,2.65984177 C3.52938181,2.66786554 3.69061731,2.63046294 3.91628695,2.53965445 C4.20975455,2.27291275 4.58151932,2.30054464 4.90131355,2.59189635 C5.11464901,2.78625774 5.28588518,2.94327315 5.4151511,3.06306486 L4.96200665,3.55204805 C4.83432467,3.43372418 4.66439078,3.2779029 4.45233401,3.08470647 C4.36801928,3.0078907 4.38614999,3.00837779 4.34867993,3.04897732 L4.23338263,3.12998844 C3.88323006,3.27782952 3.60677116,3.34561296 3.38282514,3.32319222 C3.2626037,3.31115605 3.14634956,3.27145124 3.01215783,3.20703163 C2.96722136,3.18545959 2.93514691,3.16880383 2.86517988,3.13126502 C2.70419265,3.04432237 2.64303955,3.01588979 2.65590059,3.01588979 C2.68395252,3.01588979 2.64504126,3.03756059 2.52714849,3.11575886 C2.33748329,3.24156377 2.20555155,3.30568657 2.03095214,3.32318821 C1.83793505,3.34253601 1.53689053,3.29598693 1.09662875,3.18681875 C0.810630319,3.29496534 0.620640075,3.38864365 0.53797581,3.45609413 Z"/>
            </g>
          </g>
        </g>
      </g>
      <g stroke-width=".625" mask="url(#fk---falkland-islands-d)">
        <g transform="translate(13.75 10.5)">
          <path stroke="#B85F3C" d="M0.602039886,0.996073512 C1.01201817,1.38876653 1.09322737,1.7181503 0.845667512,1.98422482 C0.598107651,2.25029934 0.360830218,2.30606373 0.133835215,2.15151799"/>
          <path stroke="#B85F3C" d="M4.49092877,0.996073512 C4.90090705,1.38876653 4.98211626,1.7181503 4.7345564,1.98422482 C4.48699654,2.25029934 4.24971911,2.30606373 4.0227241,2.15151799" transform="matrix(-1 0 0 1 8.897 0)"/>
          <path stroke="#CB8B73" d="M0.200438978,1.47072397 C0.906775915,2.14570733 1.69410225,2.48319901 2.56241797,2.48319901 C3.4307337,2.48319901 4.21424992,2.22536753 4.91296662,1.70970456"/>
        </g>
      </g>
    </g>
  </g>
</svg>
