<svg xmlns="http://www.w3.org/2000/svg" xmlns:xlink="http://www.w3.org/1999/xlink" width="32" height="24" viewBox="0 0 32 24">
  <defs>
    <rect id="gd---grenada-a" width="32" height="24" x="0" y="0"/>
    <polygon id="gd---grenada-c" points="0 0 20 0 20 12 0 12"/>
    <polygon id="gd---grenada-e" points="0 0 10 6 0 12"/>
    <polygon id="gd---grenada-f" points="10 0 20 6 10 12"/>
  </defs>
  <g fill="none" fill-rule="evenodd">
    <mask id="gd---grenada-b" fill="#fff">
      <use xlink:href="#gd---grenada-a"/>
    </mask>
    <g mask="url(#gd---grenada-b)">
      <polygon fill="#C51918" points="0 0 32 0 32 24 0 24"/>
      <g transform="translate(6 6)">
        <mask id="gd---grenada-d" fill="#fff">
          <use xlink:href="#gd---grenada-c"/>
        </mask>
        <use fill="#FECA00" xlink:href="#gd---grenada-c"/>
        <g mask="url(#gd---grenada-d)">
          <use fill="#23875F" xlink:href="#gd---grenada-e"/>
          <use fill="#23875F" transform="matrix(-1 0 0 1 30 0)" xlink:href="#gd---grenada-f"/>
        </g>
        <circle cx="10" cy="6" r="4" fill="#C51918" mask="url(#gd---grenada-d)"/>
        <polygon fill="#FECA00" points="9.929 7.313 7.859 8.75 8.52 6.289 7 4.718 9.059 4.633 9.929 2.2 10.8 4.633 12.855 4.633 11.339 6.289 12.098 8.605" mask="url(#gd---grenada-d)"/>
      </g>
      <path fill="#FECA00" d="M1.90848754,2.74023436 L0.776722656,3.4420345 L1.13836323,2.24001781 L0.307530506,1.47216863 L1.43252454,1.43065042 L1.90848754,0.242034449 L2.38445055,1.43065042 L3.50753055,1.43065042 L2.67861186,2.24001781 L3.09374753,3.3710885 L1.90848754,2.74023436 Z M7.90848754,2.74023436 L6.77672266,3.4420345 L7.13836323,2.24001781 L6.30753051,1.47216863 L7.43252454,1.43065042 L7.90848754,0.242034449 L8.38445055,1.43065042 L9.50753055,1.43065042 L8.67861186,2.24001781 L9.09374753,3.3710885 L7.90848754,2.74023436 Z M13.9084875,2.74023436 L12.7767227,3.4420345 L13.1383632,2.24001781 L12.3075305,1.47216863 L13.4325245,1.43065042 L13.9084875,0.242034449 L14.3844505,1.43065042 L15.5075306,1.43065042 L14.6786119,2.24001781 L15.0937475,3.3710885 L13.9084875,2.74023436 Z M1.90753053,20.4653622 L0.775765642,21.1671624 L1.13740621,19.9651457 L0.306573492,19.1972965 L1.43156753,19.1557783 L1.90753053,17.9671623 L2.38349353,19.1557783 L3.50657354,19.1557783 L2.67765485,19.9651457 L3.09279051,21.0962164 L1.90753053,20.4653622 Z M7.90753053,20.4653622 L6.77576564,21.1671624 L7.13740621,19.9651457 L6.30657349,19.1972965 L7.43156753,19.1557783 L7.90753053,17.9671623 L8.38349353,19.1557783 L9.50657354,19.1557783 L8.67765485,19.9651457 L9.09279051,21.0962164 L7.90753053,20.4653622 Z M13.9075305,20.4653622 L12.7757656,21.1671624 L13.1374062,19.9651457 L12.3065735,19.1972965 L13.4315675,19.1557783 L13.9075305,17.9671623 L14.3834935,19.1557783 L15.5065735,19.1557783 L14.6776548,19.9651457 L15.0927905,21.0962164 L13.9075305,20.4653622 Z" transform="translate(8 1)"/>
      <g transform="translate(7 10)">
        <path fill="#C51918" d="M1.6347216,2.77200654 C1.99376362,3.09163763 2.27105741,3.30586649 2.46660297,3.41469313 C2.53402894,3.15913916 2.49252126,2.74188332 2.34207994,2.16292561 C2.29986832,2.02452715 2.04726411,1.83126555 1.58426732,1.58314082 C1.4542236,2.02004495 1.47104169,2.41633353 1.6347216,2.77200654 Z"/>
        <path fill="#FECA00" d="M2.19574772,3.93019075 C1.2735906,3.49947328 0.765657502,2.97951604 0.671948439,2.37031903 C0.578239376,1.76112202 0.630752229,0.970935078 0.829486997,-0.000241809861 C2.32695728,0.340535969 3.12663286,0.87599356 3.22851376,1.60613096 C3.33039466,2.33626836 3.21222199,2.93068001 2.87399575,3.38936589 C2.52762855,2.4993091 2.19101843,2.00491694 1.8641654,1.90618941 C1.8641654,2.78829461 1.97469284,3.46296172 2.19574772,3.93019075 Z"/>
      </g>
    </g>
  </g>
</svg>
