<svg xmlns="http://www.w3.org/2000/svg" xmlns:xlink="http://www.w3.org/1999/xlink" width="32" height="24" viewBox="0 0 32 24">
  <defs>
    <rect id="je---jersey-a" width="32" height="24" x="0" y="0"/>
    <path id="je---jersey-d" d="M2.9929675,0.00109938173 C2.99333595,0.000732523376 2.99370495,0.000366062801 2.99407451,0 L2.99407451,0.00109938173 C2.99370606,0.000732523376 2.99333705,0.000366062801 2.9929675,0 L2.9929675,0.0010960858 C2.81935072,0.173965425 2.76850743,0.435151563 2.84043762,0.784657795 C2.47692989,0.633042108 2.29517603,0.709361796 2.29517603,1.01361686 C2.65868376,1.0799373 2.84043762,1.19650991 2.84043762,1.36333469 C2.84043762,1.61357187 2.71597712,1.77266414 2.43648129,1.77266414 C2.32018225,1.77266414 2.20526168,1.75274564 2.09171959,1.71290863 C2.18034764,1.66649538 2.23955924,1.58244508 2.23955924,1.48646336 C2.23955924,1.34027034 2.10219206,1.22175748 1.93274106,1.22175748 C1.76329005,1.22175748 1.62592287,1.34027034 1.62592287,1.48646336 C1.62592287,1.60294069 1.71312208,1.70184696 1.83427239,1.73724262 C1.7501257,1.86768625 1.60320318,1.93290807 1.39350482,1.93290807 C0.995269357,1.93290807 1.04790127,1.27465761 0.827139618,1.27465761 C0.606377961,1.27465761 -0.306862097,0.786796574 0.105675522,1.01361686 C0.380700602,1.16483038 0.621188634,1.7395222 0.827139618,2.73769232 C1.63598456,2.45629194 2.35829619,2.31559174 2.99407451,2.31559174 Z M4.05430095,1.75116924 C3.88484995,1.75116924 3.74748277,1.63265638 3.74748277,1.48646336 C3.74748277,1.34027034 3.88484995,1.22175748 4.05430095,1.22175748 C4.22375195,1.22175748 4.36111913,1.34027034 4.36111913,1.48646336 C4.36111913,1.63265638 4.22375195,1.75116924 4.05430095,1.75116924 Z"/>
    <filter id="je---jersey-c" width="72.8%" height="100%" x="0%" y="0%" filterUnits="objectBoundingBox">
      <feOffset in="SourceAlpha" result="shadowOffsetOuter1"/>
      <feColorMatrix in="shadowOffsetOuter1" values="0 0 0 0 0.03137255   0 0 0 0 0.36862746   0 0 0 0 0  0 0 0 0.28 0"/>
    </filter>
  </defs>
  <g fill="none" fill-rule="evenodd">
    <mask id="je---jersey-b" fill="#fff">
      <use xlink:href="#je---jersey-a"/>
    </mask>
    <g mask="url(#je---jersey-b)">
      <g transform="translate(-4)">
        <polygon fill="#F7FCFF" points="4 0 36 0 36 24 4 24"/>
        <path fill="#F7FCFF" stroke="#E31D1C" stroke-width="2.7" d="M-0.750024414,0.00606685341 L19.7467766,12.3999939 L-0.750024414,24.7939209 L-0.750024414,0.00606685341 Z"/>
        <path fill="#F7FCFF" stroke="#E31D1C" stroke-width="2.7" d="M21.0300049,0.0548171788 L42.2869685,12.3999939 L21.0300049,24.7451706 L21.0300049,0.0548171788 Z" transform="matrix(-1 0 0 1 61.979 0)"/>
        <g transform="translate(16.8 2)">
          <path fill="#E31D1C" d="M0.874647273,2.70300837 C0.302222192,5.23521336 1.00425655,6.98758652 2.98075035,7.96012785 C4.87821151,6.92590925 5.61385063,5.17353609 5.1876677,2.70300837 C4.37276293,2.43041456 3.64132972,2.29411765 2.99336806,2.29411765 C2.34540641,2.29411765 1.63916614,2.43041456 0.874647273,2.70300837 Z"/>
          <path fill="#FFD100" d="M1.18239014 3.49854664C1.39378105 3.40496095 1.55179747 3.40496095 1.65643939 3.49854664 1.81340227 3.63892516 1.94200183 3.4869156 1.94200183 3.40223553 1.94200183 3.31755545 2.19123787 3.02685636 2.19123787 3.2627015 2.19123787 3.49854664 2.11365946 3.63170855 2.33272612 3.63170855 2.55179277 3.63170855 3.53827001 3.30592442 3.77482259 3.40223553 4.01137518 3.49854664 4.19239148 3.47459361 4.13225794 3.3364031 4.07212441 3.19821259 3.91758329 3.11184353 3.61999414 3.18727251 3.322405 3.2627015 3.39263604 3.3364031 3.13543692 3.3364031 2.87823781 3.3364031 2.59197757 3.2627015 2.59197757 3.2627015 2.59197757 3.2627015 2.67239615 3.13877396 2.96602586 3.22692526 3.25965557 3.31507656 3.66466913 3.11775563 3.77482259 3.11775563 3.88497606 3.11775563 4.18813326 3.11184353 4.21818147 3.18727251 4.24822969 3.2627015 4.43127952 3.33191699 4.29175075 3.40223553 4.15222197 3.47255406 3.92214546 3.51660115 4.08044826 3.60669437 4.23875107 3.69678758 4.60278644 3.67942462 4.62032678 3.77313892 4.63786712 3.86685323 4.81040007 4.00679642 4.74115481 4.00679642 4.67190955 4.00679642 4.54676972 4.13877778 4.43024127 4.09859166 4.31371282 4.05840554 4.3000079 4.02311989 4.41174818 3.99056433 4.52348846 3.95800878 4.52240135 3.82110411 4.43024127 3.82110411 4.33808119 3.82110411 4.3830558 3.86906929 4.17321908 3.82110411 3.96338237 3.77313892 3.68565622 3.71981635 3.70235375 3.82110411 3.71905127 3.92239186 3.85567294 4.07787034 3.60360993 4.09859166 3.35154692 4.11931298 3.23355984 4.20250671 3.18449838 4.1355108 3.13543692 4.0685149 2.96007729 3.97924414 3.09796929 3.9506181 3.23586129 3.92199206 3.36763371 4.04791923 3.41729877 4.02735782 3.46696384 4.00679642 3.57953472 3.99535057 3.48524927 3.90822734 3.39096383 3.82110411 3.23551928 3.76981195 3.37962857 3.70460091 3.52373786 3.63938988 3.41001674 3.63805051 3.13543692 3.77313892 2.8608571 3.90822734 2.70813642 4.0230285 2.46707888 4.00679642 2.22602133 3.99056433 2.13573011 4.01246223 2.05825212 3.99056433 1.98077414 3.96866644 1.60342472 4.23251493 1.49476255 4.1655533 1.38610038 4.09859166 1.03530577 4.07290133 1.09845589 3.99056433 1.161606 3.90822734 1.24638839 3.86583658 1.34082041 3.90822734 1.43525243 3.9506181 1.52908315 3.99300886 1.59276127 3.9506181 1.65643939 3.90822734 1.84034148 3.76276684 1.79408432 3.73368388 1.74782717 3.70460091 1.7925697 3.60669437 1.53066162 3.60669437 1.26875355 3.60669437 1.17667897 3.71580944 1.11450603 3.64705882 1.07305741 3.60122508 1.09568544 3.55172102 1.18239014 3.49854664zM1.44406304 4.74663719C1.62990992 4.6643602 1.76883197 4.6643602 1.86082918 4.74663719 1.998825 4.87005267 2.11188486 4.73641162 2.11188486 4.66196411 2.11188486 4.58751659 2.33100375 4.33194496 2.33100375 4.53929108 2.33100375 4.74663719 2.26279975 4.86370809 2.45539485 4.86370809 2.64798996 4.86370809 3.51526338 4.57729103 3.72323146 4.66196411 3.93119953 4.74663719 4.0903422 4.7255786 4.03747508 4.60408673 3.98460795 4.48259487 3.84874125 4.40666246 3.58711215 4.47297677 3.32548304 4.53929108 3.38722751 4.60408673 3.16110779 4.60408673 2.93498807 4.60408673 2.68331891 4.53929108 2.68331891 4.53929108 2.68331891 4.53929108 2.75401988 4.43033867 3.012168 4.50783796 3.27031612 4.58533725 3.6263887 4.41186016 3.72323146 4.41186016 3.82007421 4.41186016 4.08659853 4.40666246 4.11301579 4.47297677 4.13943304 4.53929108 4.30036352 4.60014272 4.17769511 4.66196411 4.05502669 4.7237855 3.85275214 4.76251004 3.99192597 4.84171658 4.1310998 4.92092312 4.4511459 4.90565826 4.46656671 4.98804832 4.48198751 5.07043839 4.63367195 5.19347115 4.57279414 5.19347115 4.51191633 5.19347115 4.40189813 5.30950416 4.29945073 5.27417404 4.19700333 5.23884393 4.18495448 5.20782212 4.2831923 5.17920051 4.38143013 5.1505789 4.38047438 5.0302175 4.29945073 5.0302175 4.21842708 5.0302175 4.25796705 5.07238667 4.07348656 5.0302175 3.88900606 4.98804832 3.64483976 4.94116914 3.65951959 5.0302175 3.67419942 5.11926585 3.79431202 5.25595664 3.57270777 5.27417404 3.35110352 5.29239145 3.24737374 5.36553222 3.20424077 5.30663195 3.16110779 5.24773169 3.00693824 5.16924822 3.12816767 5.14408129 3.24939709 5.11891436 3.36524641 5.22962476 3.40891006 5.21154795 3.4525737 5.19347115 3.55154175 5.18340839 3.46864956 5.10681294 3.38575737 5.0302175 3.24909641 4.98512337 3.37579184 4.9277923 3.50248727 4.87046123 3.40250797 4.86928371 3.16110779 4.98804832 2.91970761 5.10681294 2.78544138 5.20774178 2.57351272 5.19347115 2.36158405 5.17920051 2.28220343 5.19845231 2.21408772 5.17920051 2.14597201 5.15994871 1.81422069 5.39191431 1.71868903 5.33304418 1.62315737 5.27417404 1.31475203 5.25158808 1.37027122 5.17920051 1.42579041 5.10681294 1.50032787 5.06954459 1.58334893 5.10681294 1.66636998 5.14408129 1.7488624 5.18134964 1.80484579 5.14408129 1.86082918 5.10681294 2.02250893 4.97892958 1.98184139 4.95336094 1.94117386 4.9277923 1.98050979 4.84171658 1.75025013 4.84171658 1.51999047 4.84171658 1.43904199 4.93764641 1.3843819 4.87720348 1.34794184 4.83690819 1.36783555 4.79338609 1.44406304 4.74663719zM1.81418714 6.01348947C1.95511441 5.95109901 2.06045869 5.95109901 2.13021997 6.01348947 2.23486189 6.10707515 2.32059493 6.00573545 2.32059493 5.94928206 2.32059493 5.89282868 2.48675229 5.69902929 2.48675229 5.85625938 2.48675229 6.01348947 2.43503335 6.10226408 2.58107779 6.10226408 2.72712222 6.10226408 3.38477371 5.88507466 3.54247544 5.94928206 3.70017716 6.01348947 3.82085469 5.99752079 3.78076567 5.90539378 3.74067665 5.81326677 3.63764924 5.7556874 3.43925647 5.80597339 3.24086371 5.85625938 3.2876844 5.90539378 3.11621832 5.90539378 2.94475225 5.90539378 2.75391209 5.85625938 2.75391209 5.85625938 2.75391209 5.85625938 2.80752447 5.77364102 3.00327761 5.83240855 3.19903075 5.89117609 3.46903979 5.7596288 3.54247544 5.7596288 3.61591108 5.7596288 3.81801588 5.7556874 3.83804802 5.80597339 3.85808017 5.85625938 3.98011339 5.90240304 3.88709421 5.94928206 3.79407502 5.99616109 3.64069068 6.02552581 3.74622588 6.08558796 3.85176109 6.1456501 4.09445133 6.13407479 4.10614489 6.19655099 4.11783845 6.2590272 4.23286042 6.35232266 4.18669692 6.35232266 4.14053341 6.35232266 4.05710685 6.44031023 3.97942122 6.41351949 3.90173559 6.38672874 3.89259897 6.36320497 3.96709249 6.34150127 4.04158601 6.31979757 4.04086127 6.22852778 3.97942122 6.22852778 3.91798117 6.22852778 3.94796424 6.26050457 3.8080731 6.22852778 3.66818195 6.19655099 3.48303119 6.16100261 3.49416287 6.22852778 3.50529456 6.29605295 3.59637567 6.39970527 3.42833366 6.41351949 3.26029166 6.4273337 3.1816336 6.48279618 3.14892596 6.43813225 3.11621832 6.39346831 2.9993119 6.33395447 3.0912399 6.31487044 3.1831679 6.29578642 3.27101618 6.37973786 3.30412622 6.36603026 3.33723627 6.35232266 3.41228352 6.34469209 3.34942656 6.28660994 3.2865696 6.22852778 3.18293989 6.19433301 3.27901276 6.15085899 3.37508562 6.10738496 3.29927154 6.10649205 3.11621832 6.19655099 2.93316511 6.28660994 2.83135133 6.36314405 2.6706463 6.35232266 2.50994126 6.34150127 2.44974711 6.35609986 2.39809512 6.34150127 2.34644313 6.32690267 2.09487686 6.50280167 2.02243541 6.45816058 1.94999396 6.41351949 1.71613089 6.3963926 1.75823097 6.34150127 1.80033104 6.28660994 1.85685263 6.25834943 1.91980731 6.28660994 1.98276199 6.31487044 2.04531581 6.34313095 2.08776789 6.31487044 2.13021997 6.28660994 2.25282136 6.18963627 2.22198326 6.17024763 2.19114516 6.15085899 2.22097351 6.08558796 2.04636812 6.08558796 1.87176274 6.08558796 1.81037969 6.15833134 1.76893106 6.11249759 1.74129865 6.08194177 1.756384 6.04893906 1.81418714 6.01348947z"/>
          <use fill="#000" filter="url(#je---jersey-c)" xlink:href="#je---jersey-d"/>
          <use fill="#FECA00" xlink:href="#je---jersey-d"/>
        </g>
      </g>
    </g>
  </g>
</svg>
