<svg xmlns="http://www.w3.org/2000/svg" xmlns:xlink="http://www.w3.org/1999/xlink" width="20" height="15" viewBox="0 0 20 15">
  <defs>
    <rect id="ky---cayman-islands-a" width="20" height="15" x="0" y="0"/>
    <rect id="ky---cayman-islands-c" width="11" height="9" x="0" y="0"/>
    <path id="ky---cayman-islands-e" d="M0.00451785736,0 C0.00451785736,0.792408917 0.00451785736,1.71940425 0.00451785736,2.32622323 C0.00451785736,5.28409091 2.37514516,6.25 2.46,6.25 C2.54977782,6.25 4.74577247,5.28409091 4.74577247,2.32622323 C4.74577247,1.77718959 4.74577247,0.664789437 4.74577247,0 L0.00451785736,0 Z"/>
  </defs>
  <g fill="none" fill-rule="evenodd">
    <mask id="ky---cayman-islands-b" fill="#fff">
      <use xlink:href="#ky---cayman-islands-a"/>
    </mask>
    <g fill="#2E42A5" mask="url(#ky---cayman-islands-b)">
      <rect width="20" height="15"/>
    </g>
    <mask id="ky---cayman-islands-d" fill="#fff">
      <use xlink:href="#ky---cayman-islands-c"/>
    </mask>
    <use fill="#2E42A5" xlink:href="#ky---cayman-islands-c"/>
    <g mask="url(#ky---cayman-islands-d)">
      <g transform="translate(-2.5 -1.25)">
        <g transform="translate(1)">
          <polygon fill="#F7FCFF" fill-rule="nonzero" points=".247 1.54 2.723 .454 12.806 8.484 14.112 10.098 11.465 10.461 7.352 7 4.042 4.669" transform="matrix(1 0 0 -1 0 10.915)"/>
          <polygon fill="#F50100" fill-rule="nonzero" points=".586 1.297 1.847 .667 13.643 10.766 11.872 10.766" transform="matrix(1 0 0 -1 0 11.433)"/>
        </g>
        <g transform="matrix(-1 0 0 1 15.25 0)">
          <polygon fill="#F7FCFF" fill-rule="nonzero" points=".247 1.85 2.444 .454 12.806 8.794 14.112 10.408 11.465 10.771 7.352 7.31 4.042 4.979" transform="matrix(1 0 0 -1 0 11.225)"/>
          <polygon fill="#F50100" fill-rule="nonzero" points=".332 1.453 1.593 .823 6.616 5.146 8.105 5.629 14.238 10.551 12.467 10.551 6.337 5.746 4.709 5.167" transform="matrix(1 0 0 -1 0 11.373)"/>
        </g>
        <path fill="#F50100" stroke="#F7FCFF" stroke-width=".938" d="M4.53125,3.53125 L4.53125,-0.46875 L6.46875,-0.46875 L6.46875,3.53125 L11.46875,3.53125 L11.46875,5.46875 L6.46875,5.46875 L6.46875,9.46875 L4.53125,9.46875 L4.53125,5.46875 L-0.46875,5.46875 L-0.46875,3.53125 L4.53125,3.53125 Z" transform="translate(2.5 1.25)"/>
      </g>
    </g>
    <g transform="translate(13 4)">
      <g transform="translate(.426 2.945)">
        <mask id="ky---cayman-islands-f" fill="#fff">
          <use xlink:href="#ky---cayman-islands-e"/>
        </mask>
        <path fill="#FFF" stroke="#0B50A0" stroke-linejoin="square" stroke-width=".1" d="M0.0545178574,0.05 C0.0545178574,0.358546271 0.0545178574,0.375732941 0.0545178574,0.727112641 C0.0545178574,1.60602178 0.0545178574,1.60602178 0.0545178574,2.32622323 C0.0545178574,4.53864833 1.69426838,6.2 2.46,6.2 C3.17647721,6.2 4.69577247,4.54242245 4.69577247,2.32622323 C4.69577247,1.77982993 4.69577247,1.77982993 4.69577247,1.05849615 C4.69577247,0.485375948 4.69577247,0.485375948 4.74577247,0.05 L0.0545178574,0.05 Z"/>
        <path stroke="#F7FCFF" stroke-width=".25" d="M0.00451785736,-0.125 L4.74577247,-0.125 L4.87077247,0 C4.87077247,0.485375948 4.87077247,0.485375948 4.87077247,1.05849615 C4.87077247,1.77982993 4.87077247,1.77982993 4.87077247,2.32622323 C4.87077247,4.63583334 3.27669462,6.375 2.46,6.375 C2.27647485,6.375 1.59959771,5.97967452 1.11147354,5.48512008 C0.341472318,4.7049753 -0.120482143,3.65841463 -0.120482143,2.32622323 C-0.120482143,1.60602178 -0.120482143,1.60602178 -0.120482143,0.727112641 C-0.120482143,0.357662405 -0.120482143,0.357662405 -0.120482143,0 L0.00451785736,-0.125 Z"/>
        <rect width="5.4" height="2.125" x="-.3" y="-.313" fill="#F50100" fill-rule="nonzero" mask="url(#ky---cayman-islands-f)"/>
        <path fill="#F50100" fill-rule="nonzero" d="M2.10719737,2.25 C2.2799976,2.25 2.62559835,2.05408828 2.71199802,2.00887808 C3.02879879,1.81296635 3.25919689,1.9938078 3.44639816,2.08422883 C3.64799838,2.17464956 4.02239792,2.28014024 4.25279903,2.08422883 C4.48319923,1.88831711 4.61279963,1.90338708 4.77120001,1.90338708 C4.8,1.67733511 4.8,1.4512819 4.8,1.19508969 L4.8,1.01424825 C4.59840008,0.969037731 4.49760118,1.02931821 4.28159901,1.22522993 C4.06559895,1.42114165 3.82079981,1.37593114 3.50399904,1.25537017 C3.20160022,1.11973893 2.89919839,0.878616381 2.59679957,1.25537017 C2.5103993,1.36086117 2.30879939,1.51156238 2.10719947,1.51156238 C1.89119941,1.51156238 1.70399904,1.36086117 1.61759938,1.25537017 C1.30079861,0.878616381 1.01279873,1.11973893 0.710399904,1.25537017 C0.393599135,1.37593114 0.134400144,1.42114165 -0.0815990144,1.22522993 C-0.28319893,1.02931821 -0.383997837,0.969037731 -0.6,1.01424825 L-0.6,1.19508969 C-0.6,1.4512819 -0.585600156,1.67733291 -0.556800168,1.90338708 C-0.398400084,1.90338708 -0.283199832,1.88831711 -0.0528011298,2.08422883 C0.177599075,2.28014024 0.566398462,2.17464956 0.753599736,2.08422883 C0.955199952,1.9938078 1.18560106,1.81296635 1.50239882,2.00887808 C1.58879879,2.05408828 1.9199982,2.25 2.10719947,2.25 L2.10719737,2.25 Z" mask="url(#ky---cayman-islands-f)"/>
        <path fill="#FFD100" d="M0.650216793,0.655541406 C0.736989213,0.659730565 0.831746623,0.717066694 0.934489022,0.827549793 C1.08860262,0.993274442 1.65571507,0.887794836 1.65571507,0.787825305 C1.65571507,0.687855774 1.31158874,0.628133902 1.44380229,0.457196902 C1.57601583,0.286259902 1.8000002,0.285952077 1.9800002,0.375000186 C2.03161799,0.375000186 2.02590463,0.959728289 2.14372017,0.927630887 C2.51683904,0.825979217 3.1186731,0.624558197 3.29519372,0.710972683 C3.52745226,0.824673297 3.70518264,0.796395424 3.64614069,0.63325385 C3.58709874,0.470112277 3.43536294,0.368148793 3.14317581,0.457196902 C2.85098868,0.546245011 2.91994484,0.63325385 2.66741455,0.63325385 C2.41488427,0.63325385 1.98160844,0.775563833 2.17403266,0.457196902 C2.34646362,0.171908921 2.55213363,0.16632901 2.63062706,0.286259902 C2.6707833,0.347615024 2.34319735,0.483105532 2.34319735,0.546245011 C2.34319735,0.63325385 3.18703982,0.375128363 3.29519372,0.375128363 C3.40334762,0.375128363 3.70100172,0.368148793 3.73050449,0.457196902 C3.76000725,0.546245011 3.93973425,0.627957749 3.80273829,0.710972683 C3.66574232,0.793987618 3.4398423,0.84598766 3.59527149,0.952347703 C3.75070069,1.05870775 4.1445622,1.10707549 4.16178413,1.21771043 C4.17900607,1.32834537 4.34840711,1.49355609 4.28041883,1.49355609 C4.21243055,1.49355609 4.08956233,1.64936741 3.97514917,1.60192547 C3.86073601,1.55448352 3.84727987,1.51282685 3.95699178,1.47439321 C4.06670368,1.43595957 4.06563631,1.27433599 3.97514917,1.27433599 C3.88466203,1.27433599 3.89238591,1.26209588 3.68635828,1.20547031 C3.48033064,1.14884475 3.20764595,1.08589449 3.22404037,1.20547031 C3.2404348,1.32504613 3.3799338,1.58169491 3.13244638,1.60615759 C2.88495897,1.63062026 2.76911366,1.72883507 2.72094279,1.64974269 C2.67277192,1.5706503 2.50059552,1.46526121 2.63598443,1.43146658 C2.77137333,1.39767195 2.90075374,1.54633596 2.94951725,1.52206209 C2.99828077,1.49778821 3.10345082,1.41117794 3.01087691,1.30832413 C2.91830299,1.20547031 2.73850687,1.20198544 2.8800002,1.12500019 C3.02149354,1.04801494 2.93701004,0.989365367 2.66741455,1.14884475 C2.39781907,1.30832413 2.24787067,1.44385328 2.01118894,1.4246904 C1.77450722,1.40552753 1.66830494,1.49322159 1.59223339,1.4673699 C1.51616183,1.44151822 1.14566228,1.75300602 1.03897261,1.67395409 C0.932282941,1.59490216 0.587856162,1.5645733 0.649859938,1.4673699 C0.711863714,1.37016651 0.795107082,1.32012186 0.887824914,1.37016651 C0.980542747,1.42021115 1.0726702,1.4702558 1.1351924,1.42021115 C1.19771459,1.37016651 1.39582845,1.13659992 1.35041098,1.10226587 C1.30499352,1.06793182 1.14497868,1.0091438 0.887824914,1.0091438 C0.630671149,1.0091438 0.624729506,0.831164106 0.563685169,0.750000186 C0.522988945,0.695890906 0.551832819,0.664404646 0.650216793,0.655541406 Z" mask="url(#ky---cayman-islands-f)"/>
        <g fill="#0B50A0" fill-rule="nonzero" mask="url(#ky---cayman-islands-f)">
          <path d="M2.70719737 1.25C2.8799976 1.25 3.22559835 1.05408828 3.31199802 1.00887808 3.62879879.812966354 3.85919689.993807798 4.04639816 1.08422883 4.24799838 1.17464956 4.62239792 1.28014024 4.85279903 1.08422883 5.08319923.888317113 5.21279963.903387076 5.37120001.903387076 5.4.677335115 5.4.451281895 5.4.195089693L5.4.0142482495C5.19840008-.0309622686 5.09760118.0293182125 4.88159901.225229934 4.66559895.421141655 4.42079981.375931136 4.10399904.255370174 3.80160022.119738934 3.49919839-.121383619 3.19679957.255370174 3.1103993.360861173 2.90879939.511562376 2.70719947.511562376 2.49119941.511562376 2.30399904.360861173 2.21759938.255370174 1.90079861-.121383619 1.61279873.119738934 1.3103999.255370174.993599135.375931136.734400144.421141655.518400986.225229934.31680107.0293182125.216002163-.0309622686 0 .0142482495L0 .195089693C0 .451281895.0143998438.677332913.0431998317.903387076.201599916.903387076.316800168.888317113.54719887 1.08422883.777599075 1.28014024 1.16639846 1.17464956 1.35359974 1.08422883 1.55519995.993807798 1.78560106.812966354 2.10239882 1.00887808 2.18879879 1.05408828 2.5199982 1.25 2.70719947 1.25L2.70719737 1.25zM2.70719737 2.6875C2.8799976 2.6875 3.22559835 2.49158828 3.31199802 2.44637808 3.62879879 2.25046635 3.85919689 2.4313078 4.04639816 2.52172883 4.24799838 2.61214956 4.62239792 2.71764024 4.85279903 2.52172883 5.08319923 2.32581711 5.21279963 2.34088708 5.37120001 2.34088708 5.4 2.11483511 5.4 1.8887819 5.4 1.63258969L5.4 1.45174825C5.19840008 1.40653773 5.09760118 1.46681821 4.88159901 1.66272993 4.66559895 1.85864165 4.42079981 1.81343114 4.10399904 1.69287017 3.80160022 1.55723893 3.49919839 1.31611638 3.19679957 1.69287017 3.1103993 1.79836117 2.90879939 1.94906238 2.70719947 1.94906238 2.49119941 1.94906238 2.30399904 1.79836117 2.21759938 1.69287017 1.90079861 1.31611638 1.61279873 1.55723893 1.3103999 1.69287017.993599135 1.81343114.734400144 1.85864165.518400986 1.66272993.31680107 1.46681821.216002163 1.40653773 0 1.45174825L0 1.63258969C0 1.8887819.0143998438 2.11483291.0431998317 2.34088708.201599916 2.34088708.316800168 2.32581711.54719887 2.52172883.777599075 2.71764024 1.16639846 2.61214956 1.35359974 2.52172883 1.55519995 2.4313078 1.78560106 2.25046635 2.10239882 2.44637808 2.18879879 2.49158828 2.5199982 2.6875 2.70719947 2.6875L2.70719737 2.6875z" transform="translate(-.6 2.5)"/>
        </g>
        <path fill="#0B50A0" fill-rule="nonzero" d="M2.10719737,6.625 C2.2799976,6.625 2.62559835,6.42908828 2.71199802,6.38387808 C3.02879879,6.18796635 3.25919689,6.3688078 3.44639816,6.45922883 C3.64799838,6.54964956 4.02239792,6.65514024 4.25279903,6.45922883 C4.48319923,6.26331711 4.61279963,6.27838708 4.77120001,6.27838708 C4.8,6.05233511 4.8,5.8262819 4.8,5.57008969 L4.8,5.38924825 C4.59840008,5.34403773 4.49760118,5.40431821 4.28159901,5.60022993 C4.06559895,5.79614165 3.82079981,5.75093114 3.50399904,5.63037017 C3.20160022,5.49473893 2.89919839,5.25361638 2.59679957,5.63037017 C2.5103993,5.73586117 2.30879939,5.88656238 2.10719947,5.88656238 C1.89119941,5.88656238 1.70399904,5.73586117 1.61759938,5.63037017 C1.30079861,5.25361638 1.01279873,5.49473893 0.710399904,5.63037017 C0.393599135,5.75093114 0.134400144,5.79614165 -0.0815990144,5.60022993 C-0.28319893,5.40431821 -0.383997837,5.34403773 -0.6,5.38924825 L-0.6,5.57008969 C-0.6,5.8262819 -0.585600156,6.05233291 -0.556800168,6.27838708 C-0.398400084,6.27838708 -0.283199832,6.26331711 -0.0528011298,6.45922883 C0.177599075,6.65514024 0.566398462,6.54964956 0.753599736,6.45922883 C0.955199952,6.3688078 1.18560106,6.18796635 1.50239882,6.38387808 C1.58879879,6.42908828 1.9199982,6.625 2.10719947,6.625 L2.10719737,6.625 Z" mask="url(#ky---cayman-islands-f)"/>
        <path fill="#059334" stroke="#FFD100" stroke-width=".1" d="M2.39590657 4.7117687L2.44475075 4.7105704 2.79091193 4.99086291 2.65229137 4.49305504 3 4.24853883 2.5577708 4.21835568 2.46775976 3.79227423 2.26491111 4.24853883 1.83393234 4.16181559 2.20459496 4.53896757 2.02432691 4.93198657 2.39590657 4.7117687zM1.19590657 3.4617687L1.24475075 3.4605704 1.59091193 3.74086291 1.45229137 3.24305504 1.8 2.99853883 1.3577708 2.96835568 1.26775976 2.54227423 1.06491111 2.99853883.633932342 2.91181559 1.00459496 3.28896757.82432691 3.68198657 1.19590657 3.4617687zM3.59590657 3.4617687L3.64475075 3.4605704 3.99091193 3.74086291 3.85229137 3.24305504 4.2 2.99853883 3.7577708 2.96835568 3.66775976 2.54227423 3.46491111 2.99853883 3.03393234 2.91181559 3.40459496 3.28896757 3.22432691 3.68198657 3.59590657 3.4617687z" mask="url(#ky---cayman-islands-f)"/>
      </g>
      <g fill-rule="nonzero" transform="translate(0 7.758)">
        <path fill="#FFD100" d="M.0285911262 1.20898111C.0837096565 1.33186188.478734896 1.49314297.938066526 1.28578159 1.25041157 1.1398606 1.45251764.932499539 1.64543585.56385691 1.70055419.471696333 1.72811336.356494731 1.59950135.287374539 1.49844851.225934154 1.33308985.156813481 1.25959656.095372936 1.22285106.0646527437 1.18610288.0416125194 1.15854371.018572295 1.17691656.0339325514 1.1952894.0492926476 1.21366224.0723327117 1.39739509.256653224 1.20447573.525456109 1.00237023.686736558.855385375.801937199.588972149 1.08609874.203135727.817297295.120455727.75585691-.0724636342 1.0092989.0285892093 1.20897999L.0285911262 1.20898111zM5.61401605 1.20898111C5.5497087 1.33186188 5.15468442 1.49314297 4.70454065 1.28578159 4.3921956 1.1398606 4.19008953.932499539 3.98798346.56385691 3.94204895.471696333 3.91448978.356494731 4.0431018.287374539 4.14415464.225934154 4.30951522.156813481 4.38300659.095372936 4.41975458.0646527437 4.44731375.0416125194 4.48405943.018572295 4.46568659.0339325514 4.44731375.0492926476 4.4289409.0723327117 4.24520806.256653224 4.43812742.525456109 4.63104697.686736558 4.77803145.801937199 5.053631 1.08609874 5.43946934.817297295 5.52215049.75585691 5.70588084 1.0092989 5.61401566 1.20897999L5.61401605 1.20898111z"/>
        <path fill="#FFD100" d="M2.82133234,1.8694779 C3.55626141,1.8694779 4.68621669,1.59299553 5.29252723,0.625309635 C5.39358026,0.464029186 5.29252723,0.379548417 5.17310231,0.325787199 C5.04448953,0.27970691 4.88831509,0.172186077 4.80563777,0.103066045 C4.95262244,0.225947135 4.92506461,0.310428224 4.82401157,0.448668609 C4.35549208,1.1014731 3.7124301,1.43171508 2.82133426,1.43171508 C1.93023074,1.43171508 1.28716876,1.1014731 0.818656941,0.448668609 C0.717604097,0.310427423 0.690042436,0.225947455 0.827843267,0.103066045 C0.754349593,0.172186558 0.588989593,0.279707071 0.460376813,0.325787199 C0.340951126,0.379547616 0.239898858,0.464028064 0.340951126,0.625309635 C0.94726742,1.59299713 2.08640863,1.8694779 2.82134729,1.8694779 L2.82133234,1.8694779 Z"/>
        <path fill="#F50100" d="M1.12179879.571545212C1.10342557.494744731.983999497.525464923.947253043.6176255.901320072.563865244.855386909.510104827.818640455.448663962.708400903.310423096.690027676.218261718.8462002.0877008206.919693299.026260436 1.06667815-.0428600768 1.16773119.0339405642 1.3790232.179861558 1.26878403.417943769 1.12179803.571544731L1.12179879.571545212zM4.51166461.571545212C4.53003784.494744731 4.65865042.525464923 4.69539688.6176255 4.74132966.563865244 4.7872632.510104827 4.82400889.448663962 4.93424978.310423096 4.95262167.218261718 4.7872632.0877008206 4.72295681.026260436 4.57597119-.0428600768 4.46573221.0339405642 4.26362614.179861558 4.36467937.417943769 4.51166538.571544731L4.51166461.571545212z"/>
      </g>
      <path fill="#FFD100" fill-rule="nonzero" d="M2.95830137,0.482776958 L2.70643904,0.132968153 L3.60643904,0.132968153 L3.33819765,0.505525626 C3.39204007,0.53726554 3.44219286,0.580757631 3.48737481,0.633999983 C3.83569126,0.239560148 4.26634515,-0.0280888063 4.27698285,0.00235516045 C4.28893002,0.0365481922 3.78159667,0.422329245 3.62288946,0.856316058 C3.62375718,0.858309156 3.62462012,0.860307753 3.62547824,0.862311807 C4.11196956,0.440947712 4.6189892,0.27399878 4.6189892,0.331431275 C4.6189892,0.392850794 4.05586839,0.680938101 3.71853742,1.23043573 C3.72183949,1.26196781 3.72413475,1.29402894 3.72536993,1.32653589 C3.93449636,1.12576171 4.1389892,1.04694593 4.1389892,1.07646755 C4.1389892,1.11141176 3.86074411,1.28043284 3.70952822,1.60489667 C3.64573324,2.01554708 3.40887594,2.32046815 3.12643904,2.32046815 C2.85004165,2.32046815 2.6172954,2.02844827 2.54767851,1.63109324 C2.39966875,1.28951063 2.10643904,1.11234036 2.10643904,1.07646755 C2.10643904,1.04660712 2.31565263,1.12758507 2.52726009,1.3334968 C2.52830118,1.30220806 2.53032408,1.27132529 2.53328156,1.24092226 C2.19672527,0.684601399 1.62643904,0.393240325 1.62643904,0.331431275 C1.62643904,0.273784655 2.13724635,0.442195698 2.62539045,0.867035317 C2.62557094,0.866608254 2.62575164,0.866181435 2.62593256,0.865754861 C2.471209,0.427936848 1.95641167,0.0367958847 1.96844538,0.00235516045 C1.97912191,-0.0281999025 2.41288565,0.241517529 2.76186334,0.638323215 C2.81990516,0.568840752 2.88630623,0.515551796 2.95830137,0.482776958 Z"/>
      <path fill="#059334" fill-rule="nonzero" d="M1.8808577,1.92320664 C1.8086674,1.82053159 1.61272291,1.77489828 1.5302194,1.86616489 C1.49928064,1.88898154 1.4580291,1.88898154 1.42709056,1.90038999 C1.37552602,1.90038999 1.3096955,1.9291176 1.33032127,2.04320109 C1.38583902,2.04320109 1.38583902,2.07151499 1.41677756,2.07151499 C1.43740333,2.06010654 1.49104152,2.26937636 1.5941695,2.25796815 C1.70761134,2.25796815 1.80866654,2.31108995 1.82929252,2.3339066 C1.86023107,2.36813169 1.90148261,2.4593983 1.84991829,2.5050316 C1.77772799,2.57348155 1.72616346,2.73319835 1.84991829,2.85869005 C1.9839859,2.97277331 2.32431077,3.14389879 2.70588761,2.81305651 C3.07715232,2.49362292 3.65467257,2.6761566 3.6959254,2.79023986 C3.74748994,2.90432335 3.7681157,2.97277331 3.7784287,3.02981625 C3.78874147,3.07544955 4.06718968,3.1438995 4.10844122,3.1781246 C4.16000554,3.21234946 4.23219584,3.20094125 4.21157007,3.0982662 C4.17031853,2.77883261 3.99500024,2.73320026 3.97437383,2.58489095 C4.07750268,2.59629916 4.14969298,2.59629916 4.19094365,2.55066586 C4.22188242,2.50503255 4.26313395,2.42517415 4.30438549,2.4023575 C4.33532426,2.37954085 4.33532426,2.3567242 4.2940725,2.36813265 C4.24250819,2.37954085 4.21156942,2.4023575 4.11875335,2.3909493 C3.899176,2.36454695 3.9534842,1.49915338 3.22733001,1.33081017 C2.77859749,1.22678121 2.21904897,1.94016643 2.06560317,2.01079287 C2.0622664,2.01232869 2.05912165,2.01356056 2.05617426,2.01447348 C1.98398676,2.01447324 1.92210924,1.98024815 1.8808577,1.92320664 Z"/>
    </g>
  </g>
</svg>
