<svg xmlns="http://www.w3.org/2000/svg" xmlns:xlink="http://www.w3.org/1999/xlink" width="16" height="12" viewBox="0 0 16 12">
  <defs>
    <rect id="rs---serbia-a" width="16" height="12" x="0" y="0"/>
    <rect id="rs---serbia-c" width="16" height="12" x="0" y="0"/>
  </defs>
  <g fill="none" fill-rule="evenodd">
    <mask id="rs---serbia-b" fill="#fff">
      <use xlink:href="#rs---serbia-a"/>
    </mask>
    <g mask="url(#rs---serbia-b)">
      <mask id="rs---serbia-d" fill="#fff">
        <use xlink:href="#rs---serbia-c"/>
      </mask>
      <use fill="#4857A1" xlink:href="#rs---serbia-c"/>
      <rect width="16" height="4" fill="#C51918" mask="url(#rs---serbia-d)"/>
      <rect width="16" height="4" y="8" fill="#F7FCFF" mask="url(#rs---serbia-d)"/>
      <g mask="url(#rs---serbia-d)">
        <g transform="translate(2 .3)">
          <g transform="translate(.331)">
            <path fill="#F6C540" fill-rule="nonzero" d="M2.886755,2.37898596 C2.8868758,2.36389145 2.88829926,2.34804561 2.89115515,2.33184903 C2.90612333,2.24696029 2.954772,2.18458287 2.99981501,2.19252517 C3.04485801,2.20046746 3.06923848,2.27572189 3.05427031,2.36061063 C3.05207823,2.3730425 3.0491638,2.38499156 3.04564413,2.39630765 C3.20531081,2.41592828 3.39386094,2.44494478 3.61129451,2.48335713 C3.86916181,2.01410889 4.32648319,1.56543004 4.08146809,1.33347042 C4.04766823,1.30147158 3.98632501,1.27172013 3.90719727,1.24418166 C3.64671167,1.18106845 3.3629159,1.13179658 3.0873305,1.10629055 L3.08010445,1.0704729 C3.02728589,1.06240111 2.97656609,1.0548702 2.92920169,1.04787576 L2.86454176,0.80370283 C2.91765893,0.819074243 2.97518011,0.834834347 3.03583142,0.851023145 L3.03395473,0.841720881 C3.78809883,0.911518572 4.95584408,1.28791689 5.17560745,1.68056879 C5.27324214,1.855013 5.14978527,1.9984477 5.02051276,2.20700972 C4.76811743,2.61421212 4.62602756,2.93841088 4.36598818,3.08082708 L4.36995695,3.7202964 L1.00107972,3.69299926 L0.996772978,3.04871972 C0.769329547,2.89302697 0.630013389,2.58616302 0.395330105,2.20753637 C0.26605759,1.99897436 0.142600719,1.85553965 0.240235413,1.68109544 C0.406139929,1.38467332 1.15236303,1.09233512 1.83262339,0.93681888 C1.96097616,0.89418819 2.09459412,0.854210572 2.22711069,0.815862015 L2.28172879,0.85311173 C2.34069039,0.84489128 2.39769318,0.838201888 2.45217092,0.833159853 L2.53244475,1.00424388 L2.79593529,1.00424388 C2.90635627,1.31315758 2.96156676,1.55339291 2.96156676,1.72494986 C2.96156676,1.89650681 2.90635627,2.05321967 2.79593529,2.19508844 L2.79593529,2.37157846 C2.82470297,2.37355787 2.85497621,2.37602704 2.886755,2.37898596 Z M2.39327186,2.38200777 C2.42636536,2.37819255 2.45790938,2.37504181 2.48790391,2.37255554 L2.48790391,2.17609294 C2.39230216,2.07540656 2.33709167,1.92021674 2.32227244,1.7105235 C2.30894001,1.52186849 2.3299463,1.31238475 2.38529133,1.08207225 C2.18514514,1.10762603 1.9749389,1.14557052 1.76999435,1.19164394 C1.6050821,1.23274317 1.47155575,1.27996499 1.41503885,1.33347042 C1.17256564,1.56302359 1.6179318,2.00482261 1.87712333,2.4687594 C2.00946094,2.44154412 2.12924427,2.41971263 2.23647331,2.40326492 C2.23224626,2.3877652 2.22922313,2.37101428 2.22768625,2.3534477 C2.22017358,2.26757742 2.25102012,2.19473426 2.29658394,2.19074794 C2.34214777,2.18676162 2.38517477,2.25314169 2.39268744,2.33901197 C2.39398361,2.35382725 2.39413795,2.36825476 2.39327186,2.38200777 Z M4.06863872,2.56952317 C4.06756219,2.54508481 4.07052985,2.51766593 4.07806527,2.48954336 C4.10037503,2.4062822 4.15427513,2.34838216 4.19845452,2.36021999 C4.2426339,2.37205782 4.26036274,2.44915078 4.23805298,2.53241194 C4.23148965,2.55690661 4.22219224,2.57920632 4.21121258,2.59818116 C4.26085918,2.60828315 4.31151729,2.61871418 4.36318692,2.62947427 L4.36379961,2.72819374 C4.69791393,2.48952021 4.93191071,1.94947718 4.951969,1.7727118 C4.96388414,1.66770863 4.78836445,1.54548812 4.51279051,1.43356272 C4.68632628,1.75681345 4.28629292,2.07769832 3.98662607,2.55337932 C4.01362261,2.55864968 4.04096016,2.56403096 4.06863872,2.56952317 Z M1.44177168,2.56671964 C1.46419082,2.56131021 1.48635554,2.55600989 1.50826583,2.55081868 C1.20371914,2.06853252 0.797004692,1.74545269 0.992989802,1.41720394 C0.669494203,1.53825369 0.451974805,1.66837704 0.46387386,1.77323845 C0.482756179,1.93964047 0.691226859,2.42797248 0.994333429,2.68376802 L0.994309679,2.68021503 C1.10069392,2.65207943 1.202678,2.6258308 1.30026191,2.60146914 C1.28856647,2.58330027 1.27834334,2.56185988 1.27064464,2.53816572 C1.2440079,2.45618627 1.25767771,2.37827111 1.301177,2.36413734 C1.3446763,2.35000356 1.40153279,2.40500334 1.42816953,2.48698278 C1.4372106,2.51480835 1.44160809,2.54216569 1.44177168,2.56671964 Z"/>
            <path fill="#FFF" fill-rule="nonzero" d="M0.474120083,1.74102564 C0.488298822,1.74102564 0.499792961,1.73019463 0.499792961,1.71683389 C0.499792961,1.70347316 0.488298822,1.69264214 0.474120083,1.69264214 C0.459941344,1.69264214 0.448447205,1.70347316 0.448447205,1.71683389 C0.448447205,1.73019463 0.459941344,1.74102564 0.474120083,1.74102564 Z M0.474120083,1.84871795 C0.396823087,1.84871795 0.334161491,1.78967144 0.334161491,1.71683389 C0.334161491,1.64399634 0.396823087,1.58494983 0.474120083,1.58494983 C0.551417079,1.58494983 0.614078675,1.64399634 0.614078675,1.71683389 C0.614078675,1.78967144 0.551417079,1.84871795 0.474120083,1.84871795 Z M0.391304348,1.50691193 C0.405483087,1.50691193 0.416977226,1.49608091 0.416977226,1.48272018 C0.416977226,1.46935944 0.405483087,1.45852843 0.391304348,1.45852843 C0.377125609,1.45852843 0.36563147,1.46935944 0.36563147,1.48272018 C0.36563147,1.49608091 0.377125609,1.50691193 0.391304348,1.50691193 Z M0.391304348,1.61460424 C0.314007352,1.61460424 0.251345756,1.55555773 0.251345756,1.48272018 C0.251345756,1.40988262 0.314007352,1.35083612 0.391304348,1.35083612 C0.468601344,1.35083612 0.53126294,1.40988262 0.53126294,1.48272018 C0.53126294,1.55555773 0.468601344,1.61460424 0.391304348,1.61460424 Z M0.308488613,1.35083612 C0.322667352,1.35083612 0.334161491,1.3400051 0.334161491,1.32664437 C0.334161491,1.31328364 0.322667352,1.30245262 0.308488613,1.30245262 C0.294309874,1.30245262 0.282815735,1.31328364 0.282815735,1.32664437 C0.282815735,1.3400051 0.294309874,1.35083612 0.308488613,1.35083612 Z M0.308488613,1.45852843 C0.231191617,1.45852843 0.168530021,1.39948192 0.168530021,1.32664437 C0.168530021,1.25380682 0.231191617,1.19476031 0.308488613,1.19476031 C0.385785609,1.19476031 0.448447205,1.25380682 0.448447205,1.32664437 C0.448447205,1.39948192 0.385785609,1.45852843 0.308488613,1.45852843 Z M0.225672878,1.19476031 C0.239851617,1.19476031 0.251345756,1.1839293 0.251345756,1.17056856 C0.251345756,1.15720783 0.239851617,1.14637681 0.225672878,1.14637681 C0.211494139,1.14637681 0.2,1.15720783 0.2,1.17056856 C0.2,1.1839293 0.211494139,1.19476031 0.225672878,1.19476031 Z M0.225672878,1.30245262 C0.148375882,1.30245262 0.0857142857,1.24340612 0.0857142857,1.17056856 C0.0857142857,1.09773101 0.148375882,1.0386845 0.225672878,1.0386845 C0.302969874,1.0386845 0.36563147,1.09773101 0.36563147,1.17056856 C0.36563147,1.24340612 0.302969874,1.30245262 0.225672878,1.30245262 Z M0.391304348,1.0386845 C0.405483087,1.0386845 0.416977226,1.02785349 0.416977226,1.01449275 C0.416977226,1.00113202 0.405483087,0.990301003 0.391304348,0.990301003 C0.377125609,0.990301003 0.36563147,1.00113202 0.36563147,1.01449275 C0.36563147,1.02785349 0.377125609,1.0386845 0.391304348,1.0386845 Z M0.391304348,1.14637681 C0.314007352,1.14637681 0.251345756,1.08733031 0.251345756,1.01449275 C0.251345756,0.9416552 0.314007352,0.882608696 0.391304348,0.882608696 C0.468601344,0.882608696 0.53126294,0.9416552 0.53126294,1.01449275 C0.53126294,1.08733031 0.468601344,1.14637681 0.391304348,1.14637681 Z M0.556935818,0.911098149 C0.571114557,0.911098149 0.582608696,0.900267133 0.582608696,0.886906399 C0.582608696,0.873545664 0.571114557,0.862714648 0.556935818,0.862714648 C0.542757079,0.862714648 0.53126294,0.873545664 0.53126294,0.886906399 C0.53126294,0.900267133 0.542757079,0.911098149 0.556935818,0.911098149 Z M0.556935818,1.01879046 C0.479638822,1.01879046 0.416977226,0.959743953 0.416977226,0.886906399 C0.416977226,0.814068845 0.479638822,0.755022341 0.556935818,0.755022341 C0.634232814,0.755022341 0.69689441,0.814068845 0.69689441,0.886906399 C0.69689441,0.959743953 0.634232814,1.01879046 0.556935818,1.01879046 Z M0.722567288,0.804570792 C0.736746027,0.804570792 0.748240166,0.793739776 0.748240166,0.780379041 C0.748240166,0.767018307 0.736746027,0.756187291 0.722567288,0.756187291 C0.708388549,0.756187291 0.69689441,0.767018307 0.69689441,0.780379041 C0.69689441,0.793739776 0.708388549,0.804570792 0.722567288,0.804570792 Z M0.722567288,0.912263099 C0.645270292,0.912263099 0.582608696,0.853216595 0.582608696,0.780379041 C0.582608696,0.707541487 0.645270292,0.648494983 0.722567288,0.648494983 C0.799864284,0.648494983 0.86252588,0.707541487 0.86252588,0.780379041 C0.86252588,0.853216595 0.799864284,0.912263099 0.722567288,0.912263099 Z M0.918140752,0.727790626 C0.932319491,0.727790626 0.94381363,0.716959611 0.94381363,0.703598876 C0.94381363,0.690238141 0.932319491,0.679407126 0.918140752,0.679407126 C0.903962013,0.679407126 0.892467874,0.690238141 0.892467874,0.703598876 C0.892467874,0.716959611 0.903962013,0.727790626 0.918140752,0.727790626 Z M0.918140752,0.835482934 C0.840843756,0.835482934 0.77818216,0.77643643 0.77818216,0.703598876 C0.77818216,0.630761322 0.840843756,0.571714818 0.918140752,0.571714818 C0.995437748,0.571714818 1.05809934,0.630761322 1.05809934,0.703598876 C1.05809934,0.77643643 0.995437748,0.835482934 0.918140752,0.835482934 Z M1.13664596,0.648494983 C1.1508247,0.648494983 1.16231884,0.637663968 1.16231884,0.624303233 C1.16231884,0.610942498 1.1508247,0.600111483 1.13664596,0.600111483 C1.12246722,0.600111483 1.11097308,0.610942498 1.11097308,0.624303233 C1.11097308,0.637663968 1.12246722,0.648494983 1.13664596,0.648494983 Z M1.13664596,0.756187291 C1.05934897,0.756187291 0.996687371,0.697140787 0.996687371,0.624303233 C0.996687371,0.551465679 1.05934897,0.492419175 1.13664596,0.492419175 C1.21394296,0.492419175 1.27660455,0.551465679 1.27660455,0.624303233 C1.27660455,0.697140787 1.21394296,0.756187291 1.13664596,0.756187291 Z M1.38509317,0.587122502 C1.39927191,0.587122502 1.41076605,0.576291487 1.41076605,0.562930752 C1.41076605,0.549570017 1.39927191,0.538739002 1.38509317,0.538739002 C1.37091443,0.538739002 1.35942029,0.549570017 1.35942029,0.562930752 C1.35942029,0.576291487 1.37091443,0.587122502 1.38509317,0.587122502 Z M1.38509317,0.69481481 C1.30779617,0.69481481 1.24513458,0.635768306 1.24513458,0.562930752 C1.24513458,0.490093198 1.30779617,0.431046694 1.38509317,0.431046694 C1.46239016,0.431046694 1.52505176,0.490093198 1.52505176,0.562930752 C1.52505176,0.635768306 1.46239016,0.69481481 1.38509317,0.69481481 Z M1.63354037,0.492419175 C1.64771911,0.492419175 1.65921325,0.481588159 1.65921325,0.468227425 C1.65921325,0.45486669 1.64771911,0.444035674 1.63354037,0.444035674 C1.61936163,0.444035674 1.60786749,0.45486669 1.60786749,0.468227425 C1.60786749,0.481588159 1.61936163,0.492419175 1.63354037,0.492419175 Z M1.63354037,0.600111483 C1.55624338,0.600111483 1.49358178,0.541064979 1.49358178,0.468227425 C1.49358178,0.395389871 1.55624338,0.336343367 1.63354037,0.336343367 C1.71083737,0.336343367 1.77349896,0.395389871 1.77349896,0.468227425 C1.77349896,0.541064979 1.71083737,0.600111483 1.63354037,0.600111483 Z M1.84009207,0.462136789 C1.85427081,0.462136789 1.86576495,0.451305773 1.86576495,0.437945038 C1.86576495,0.424584304 1.85427081,0.413753288 1.84009207,0.413753288 C1.82591333,0.413753288 1.81441919,0.424584304 1.81441919,0.437945038 C1.81441919,0.451305773 1.82591333,0.462136789 1.84009207,0.462136789 Z M1.84009207,0.569829096 C1.76279507,0.569829096 1.70013348,0.510782592 1.70013348,0.437945038 C1.70013348,0.365107484 1.76279507,0.30606098 1.84009207,0.30606098 C1.91738906,0.30606098 1.98005066,0.365107484 1.98005066,0.437945038 C1.98005066,0.510782592 1.91738906,0.569829096 1.84009207,0.569829096 Z M2.04761905,0.414381271 C2.06179779,0.414381271 2.07329193,0.403550255 2.07329193,0.390189521 C2.07329193,0.376828786 2.06179779,0.36599777 2.04761905,0.36599777 C2.03344031,0.36599777 2.02194617,0.376828786 2.02194617,0.390189521 C2.02194617,0.403550255 2.03344031,0.414381271 2.04761905,0.414381271 Z M2.04761905,0.522073579 C1.97032205,0.522073579 1.90766046,0.463027075 1.90766046,0.390189521 C1.90766046,0.317351967 1.97032205,0.258305463 2.04761905,0.258305463 C2.12491604,0.258305463 2.18757764,0.317351967 2.18757764,0.390189521 C2.18757764,0.463027075 2.12491604,0.522073579 2.04761905,0.522073579 Z M1.13664596,0.804570792 C1.1508247,0.804570792 1.16231884,0.793739776 1.16231884,0.780379041 C1.16231884,0.767018307 1.1508247,0.756187291 1.13664596,0.756187291 C1.12246722,0.756187291 1.11097308,0.767018307 1.11097308,0.780379041 C1.11097308,0.793739776 1.12246722,0.804570792 1.13664596,0.804570792 Z M1.13664596,0.912263099 C1.05934897,0.912263099 0.996687371,0.853216595 0.996687371,0.780379041 C0.996687371,0.707541487 1.05934897,0.648494983 1.13664596,0.648494983 C1.21394296,0.648494983 1.27660455,0.707541487 1.27660455,0.780379041 C1.27660455,0.853216595 1.21394296,0.912263099 1.13664596,0.912263099 Z M1.13664596,0.9606466 C1.1508247,0.9606466 1.16231884,0.949815584 1.16231884,0.936454849 C1.16231884,0.923094115 1.1508247,0.912263099 1.13664596,0.912263099 C1.12246722,0.912263099 1.11097308,0.923094115 1.11097308,0.936454849 C1.11097308,0.949815584 1.12246722,0.9606466 1.13664596,0.9606466 Z M1.13664596,1.06833891 C1.05934897,1.06833891 0.996687371,1.0092924 0.996687371,0.936454849 C0.996687371,0.863617296 1.05934897,0.804570792 1.13664596,0.804570792 C1.21394296,0.804570792 1.27660455,0.863617296 1.27660455,0.936454849 C1.27660455,1.0092924 1.21394296,1.06833891 1.13664596,1.06833891 Z M1.2194617,1.19476031 C1.23364044,1.19476031 1.24513458,1.1839293 1.24513458,1.17056856 C1.24513458,1.15720783 1.23364044,1.14637681 1.2194617,1.14637681 C1.20528296,1.14637681 1.19378882,1.15720783 1.19378882,1.17056856 C1.19378882,1.1839293 1.20528296,1.19476031 1.2194617,1.19476031 Z M1.2194617,1.30245262 C1.1421647,1.30245262 1.07950311,1.24340612 1.07950311,1.17056856 C1.07950311,1.09773101 1.1421647,1.0386845 1.2194617,1.0386845 C1.29675869,1.0386845 1.35942029,1.09773101 1.35942029,1.17056856 C1.35942029,1.24340612 1.29675869,1.30245262 1.2194617,1.30245262 Z M1.30227743,1.35083612 C1.31645617,1.35083612 1.32795031,1.3400051 1.32795031,1.32664437 C1.32795031,1.31328364 1.31645617,1.30245262 1.30227743,1.30245262 C1.28809869,1.30245262 1.27660455,1.31328364 1.27660455,1.32664437 C1.27660455,1.3400051 1.28809869,1.35083612 1.30227743,1.35083612 Z M1.30227743,1.45852843 C1.22498044,1.45852843 1.16231884,1.39948192 1.16231884,1.32664437 C1.16231884,1.25380682 1.22498044,1.19476031 1.30227743,1.19476031 C1.37957443,1.19476031 1.44223602,1.25380682 1.44223602,1.32664437 C1.44223602,1.39948192 1.37957443,1.45852843 1.30227743,1.45852843 Z M1.38509317,1.50691193 C1.39927191,1.50691193 1.41076605,1.49608091 1.41076605,1.48272018 C1.41076605,1.46935944 1.39927191,1.45852843 1.38509317,1.45852843 C1.37091443,1.45852843 1.35942029,1.46935944 1.35942029,1.48272018 C1.35942029,1.49608091 1.37091443,1.50691193 1.38509317,1.50691193 Z M1.38509317,1.61460424 C1.30779617,1.61460424 1.24513458,1.55555773 1.24513458,1.48272018 C1.24513458,1.40988262 1.30779617,1.35083612 1.38509317,1.35083612 C1.46239016,1.35083612 1.52505176,1.40988262 1.52505176,1.48272018 C1.52505176,1.55555773 1.46239016,1.61460424 1.38509317,1.61460424 Z M5.02898551,1.74102564 C5.04316425,1.74102564 5.05465839,1.73019463 5.05465839,1.71683389 C5.05465839,1.70347316 5.04316425,1.69264214 5.02898551,1.69264214 C5.01480677,1.69264214 5.00331263,1.70347316 5.00331263,1.71683389 C5.00331263,1.73019463 5.01480677,1.74102564 5.02898551,1.74102564 Z M5.02898551,1.84871795 C4.95168851,1.84871795 4.88902692,1.78967144 4.88902692,1.71683389 C4.88902692,1.64399634 4.95168851,1.58494983 5.02898551,1.58494983 C5.1062825,1.58494983 5.1689441,1.64399634 5.1689441,1.71683389 C5.1689441,1.78967144 5.1062825,1.84871795 5.02898551,1.84871795 Z M5.11180124,1.50691193 C5.12597998,1.50691193 5.13747412,1.49608091 5.13747412,1.48272018 C5.13747412,1.46935944 5.12597998,1.45852843 5.11180124,1.45852843 C5.0976225,1.45852843 5.08612836,1.46935944 5.08612836,1.48272018 C5.08612836,1.49608091 5.0976225,1.50691193 5.11180124,1.50691193 Z M5.11180124,1.61460424 C5.03450425,1.61460424 4.97184265,1.55555773 4.97184265,1.48272018 C4.97184265,1.40988262 5.03450425,1.35083612 5.11180124,1.35083612 C5.18909824,1.35083612 5.25175983,1.40988262 5.25175983,1.48272018 C5.25175983,1.55555773 5.18909824,1.61460424 5.11180124,1.61460424 Z M5.19461698,1.35083612 C5.20879572,1.35083612 5.22028986,1.3400051 5.22028986,1.32664437 C5.22028986,1.31328364 5.20879572,1.30245262 5.19461698,1.30245262 C5.18043824,1.30245262 5.1689441,1.31328364 5.1689441,1.32664437 C5.1689441,1.3400051 5.18043824,1.35083612 5.19461698,1.35083612 Z M5.19461698,1.45852843 C5.11731998,1.45852843 5.05465839,1.39948192 5.05465839,1.32664437 C5.05465839,1.25380682 5.11731998,1.19476031 5.19461698,1.19476031 C5.27191397,1.19476031 5.33457557,1.25380682 5.33457557,1.32664437 C5.33457557,1.39948192 5.27191397,1.45852843 5.19461698,1.45852843 Z M5.27743271,1.19476031 C5.29161145,1.19476031 5.30310559,1.1839293 5.30310559,1.17056856 C5.30310559,1.15720783 5.29161145,1.14637681 5.27743271,1.14637681 C5.26325397,1.14637681 5.25175983,1.15720783 5.25175983,1.17056856 C5.25175983,1.1839293 5.26325397,1.19476031 5.27743271,1.19476031 Z M5.27743271,1.30245262 C5.20013572,1.30245262 5.13747412,1.24340612 5.13747412,1.17056856 C5.13747412,1.09773101 5.20013572,1.0386845 5.27743271,1.0386845 C5.35472971,1.0386845 5.4173913,1.09773101 5.4173913,1.17056856 C5.4173913,1.24340612 5.35472971,1.30245262 5.27743271,1.30245262 Z M5.11180124,1.0386845 C5.12597998,1.0386845 5.13747412,1.02785349 5.13747412,1.01449275 C5.13747412,1.00113202 5.12597998,0.990301003 5.11180124,0.990301003 C5.0976225,0.990301003 5.08612836,1.00113202 5.08612836,1.01449275 C5.08612836,1.02785349 5.0976225,1.0386845 5.11180124,1.0386845 Z M5.11180124,1.14637681 C5.03450425,1.14637681 4.97184265,1.08733031 4.97184265,1.01449275 C4.97184265,0.9416552 5.03450425,0.882608696 5.11180124,0.882608696 C5.18909824,0.882608696 5.25175983,0.9416552 5.25175983,1.01449275 C5.25175983,1.08733031 5.18909824,1.14637681 5.11180124,1.14637681 Z M4.94616977,0.911098149 C4.96034851,0.911098149 4.97184265,0.900267133 4.97184265,0.886906399 C4.97184265,0.873545664 4.96034851,0.862714648 4.94616977,0.862714648 C4.93199103,0.862714648 4.92049689,0.873545664 4.92049689,0.886906399 C4.92049689,0.900267133 4.93199103,0.911098149 4.94616977,0.911098149 Z M4.94616977,1.01879046 C4.86887278,1.01879046 4.80621118,0.959743953 4.80621118,0.886906399 C4.80621118,0.814068845 4.86887278,0.755022341 4.94616977,0.755022341 C5.02346677,0.755022341 5.08612836,0.814068845 5.08612836,0.886906399 C5.08612836,0.959743953 5.02346677,1.01879046 4.94616977,1.01879046 Z M4.7805383,0.804570792 C4.79471704,0.804570792 4.80621118,0.793739776 4.80621118,0.780379041 C4.80621118,0.767018307 4.79471704,0.756187291 4.7805383,0.756187291 C4.76635956,0.756187291 4.75486542,0.767018307 4.75486542,0.780379041 C4.75486542,0.793739776 4.76635956,0.804570792 4.7805383,0.804570792 Z M4.7805383,0.912263099 C4.70324131,0.912263099 4.64057971,0.853216595 4.64057971,0.780379041 C4.64057971,0.707541487 4.70324131,0.648494983 4.7805383,0.648494983 C4.8578353,0.648494983 4.92049689,0.707541487 4.92049689,0.780379041 C4.92049689,0.853216595 4.8578353,0.912263099 4.7805383,0.912263099 Z M4.58496484,0.727790626 C4.59914358,0.727790626 4.61063772,0.716959611 4.61063772,0.703598876 C4.61063772,0.690238141 4.59914358,0.679407126 4.58496484,0.679407126 C4.5707861,0.679407126 4.55929196,0.690238141 4.55929196,0.703598876 C4.55929196,0.716959611 4.5707861,0.727790626 4.58496484,0.727790626 Z M4.58496484,0.835482934 C4.50766784,0.835482934 4.44500625,0.77643643 4.44500625,0.703598876 C4.44500625,0.630761322 4.50766784,0.571714818 4.58496484,0.571714818 C4.66226183,0.571714818 4.72492343,0.630761322 4.72492343,0.703598876 C4.72492343,0.77643643 4.66226183,0.835482934 4.58496484,0.835482934 Z M4.36645963,0.648494983 C4.38063837,0.648494983 4.39213251,0.637663968 4.39213251,0.624303233 C4.39213251,0.610942498 4.38063837,0.600111483 4.36645963,0.600111483 C4.35228089,0.600111483 4.34078675,0.610942498 4.34078675,0.624303233 C4.34078675,0.637663968 4.35228089,0.648494983 4.36645963,0.648494983 Z M4.36645963,0.756187291 C4.28916263,0.756187291 4.22650104,0.697140787 4.22650104,0.624303233 C4.22650104,0.551465679 4.28916263,0.492419175 4.36645963,0.492419175 C4.44375662,0.492419175 4.50641822,0.551465679 4.50641822,0.624303233 C4.50641822,0.697140787 4.44375662,0.756187291 4.36645963,0.756187291 Z M4.11801242,0.587122502 C4.13219116,0.587122502 4.1436853,0.576291487 4.1436853,0.562930752 C4.1436853,0.549570017 4.13219116,0.538739002 4.11801242,0.538739002 C4.10383368,0.538739002 4.09233954,0.549570017 4.09233954,0.562930752 C4.09233954,0.576291487 4.10383368,0.587122502 4.11801242,0.587122502 Z M4.11801242,0.69481481 C4.04071543,0.69481481 3.97805383,0.635768306 3.97805383,0.562930752 C3.97805383,0.490093198 4.04071543,0.431046694 4.11801242,0.431046694 C4.19530942,0.431046694 4.25797101,0.490093198 4.25797101,0.562930752 C4.25797101,0.635768306 4.19530942,0.69481481 4.11801242,0.69481481 Z M3.86956522,0.492419175 C3.88374396,0.492419175 3.8952381,0.481588159 3.8952381,0.468227425 C3.8952381,0.45486669 3.88374396,0.444035674 3.86956522,0.444035674 C3.85538648,0.444035674 3.84389234,0.45486669 3.84389234,0.468227425 C3.84389234,0.481588159 3.85538648,0.492419175 3.86956522,0.492419175 Z M3.86956522,0.600111483 C3.79226822,0.600111483 3.72960663,0.541064979 3.72960663,0.468227425 C3.72960663,0.395389871 3.79226822,0.336343367 3.86956522,0.336343367 C3.94686221,0.336343367 4.00952381,0.395389871 4.00952381,0.468227425 C4.00952381,0.541064979 3.94686221,0.600111483 3.86956522,0.600111483 Z M3.66301352,0.462136789 C3.67719226,0.462136789 3.6886864,0.451305773 3.6886864,0.437945038 C3.6886864,0.424584304 3.67719226,0.413753288 3.66301352,0.413753288 C3.64883478,0.413753288 3.63734065,0.424584304 3.63734065,0.437945038 C3.63734065,0.451305773 3.64883478,0.462136789 3.66301352,0.462136789 Z M3.66301352,0.569829096 C3.58571653,0.569829096 3.52305493,0.510782592 3.52305493,0.437945038 C3.52305493,0.365107484 3.58571653,0.30606098 3.66301352,0.30606098 C3.74031052,0.30606098 3.80297212,0.365107484 3.80297212,0.437945038 C3.80297212,0.510782592 3.74031052,0.569829096 3.66301352,0.569829096 Z M3.45548654,0.414381271 C3.46966528,0.414381271 3.48115942,0.403550255 3.48115942,0.390189521 C3.48115942,0.376828786 3.46966528,0.36599777 3.45548654,0.36599777 C3.4413078,0.36599777 3.42981366,0.376828786 3.42981366,0.390189521 C3.42981366,0.403550255 3.4413078,0.414381271 3.45548654,0.414381271 Z M3.45548654,0.522073579 C3.37818955,0.522073579 3.31552795,0.463027075 3.31552795,0.390189521 C3.31552795,0.317351967 3.37818955,0.258305463 3.45548654,0.258305463 C3.53278354,0.258305463 3.59544513,0.317351967 3.59544513,0.390189521 C3.59544513,0.463027075 3.53278354,0.522073579 3.45548654,0.522073579 Z M4.36645963,0.804570792 C4.38063837,0.804570792 4.39213251,0.793739776 4.39213251,0.780379041 C4.39213251,0.767018307 4.38063837,0.756187291 4.36645963,0.756187291 C4.35228089,0.756187291 4.34078675,0.767018307 4.34078675,0.780379041 C4.34078675,0.793739776 4.35228089,0.804570792 4.36645963,0.804570792 Z M4.36645963,0.912263099 C4.28916263,0.912263099 4.22650104,0.853216595 4.22650104,0.780379041 C4.22650104,0.707541487 4.28916263,0.648494983 4.36645963,0.648494983 C4.44375662,0.648494983 4.50641822,0.707541487 4.50641822,0.780379041 C4.50641822,0.853216595 4.44375662,0.912263099 4.36645963,0.912263099 Z M4.36645963,0.9606466 C4.38063837,0.9606466 4.39213251,0.949815584 4.39213251,0.936454849 C4.39213251,0.923094115 4.38063837,0.912263099 4.36645963,0.912263099 C4.35228089,0.912263099 4.34078675,0.923094115 4.34078675,0.936454849 C4.34078675,0.949815584 4.35228089,0.9606466 4.36645963,0.9606466 Z M4.36645963,1.06833891 C4.28916263,1.06833891 4.22650104,1.0092924 4.22650104,0.936454849 C4.22650104,0.863617296 4.28916263,0.804570792 4.36645963,0.804570792 C4.44375662,0.804570792 4.50641822,0.863617296 4.50641822,0.936454849 C4.50641822,1.0092924 4.44375662,1.06833891 4.36645963,1.06833891 Z M4.28364389,1.19476031 C4.29782263,1.19476031 4.30931677,1.1839293 4.30931677,1.17056856 C4.30931677,1.15720783 4.29782263,1.14637681 4.28364389,1.14637681 C4.26946515,1.14637681 4.25797101,1.15720783 4.25797101,1.17056856 C4.25797101,1.1839293 4.26946515,1.19476031 4.28364389,1.19476031 Z M4.28364389,1.30245262 C4.2063469,1.30245262 4.1436853,1.24340612 4.1436853,1.17056856 C4.1436853,1.09773101 4.2063469,1.0386845 4.28364389,1.0386845 C4.36094089,1.0386845 4.42360248,1.09773101 4.42360248,1.17056856 C4.42360248,1.24340612 4.36094089,1.30245262 4.28364389,1.30245262 Z M4.20082816,1.35083612 C4.2150069,1.35083612 4.22650104,1.3400051 4.22650104,1.32664437 C4.22650104,1.31328364 4.2150069,1.30245262 4.20082816,1.30245262 C4.18664942,1.30245262 4.17515528,1.31328364 4.17515528,1.32664437 C4.17515528,1.3400051 4.18664942,1.35083612 4.20082816,1.35083612 Z M4.20082816,1.45852843 C4.12353116,1.45852843 4.06086957,1.39948192 4.06086957,1.32664437 C4.06086957,1.25380682 4.12353116,1.19476031 4.20082816,1.19476031 C4.27812515,1.19476031 4.34078675,1.25380682 4.34078675,1.32664437 C4.34078675,1.39948192 4.27812515,1.45852843 4.20082816,1.45852843 Z M4.11801242,1.50691193 C4.13219116,1.50691193 4.1436853,1.49608091 4.1436853,1.48272018 C4.1436853,1.46935944 4.13219116,1.45852843 4.11801242,1.45852843 C4.10383368,1.45852843 4.09233954,1.46935944 4.09233954,1.48272018 C4.09233954,1.49608091 4.10383368,1.50691193 4.11801242,1.50691193 Z M4.11801242,1.61460424 C4.04071543,1.61460424 3.97805383,1.55555773 3.97805383,1.48272018 C3.97805383,1.40988262 4.04071543,1.35083612 4.11801242,1.35083612 C4.19530942,1.35083612 4.25797101,1.40988262 4.25797101,1.48272018 C4.25797101,1.55555773 4.19530942,1.61460424 4.11801242,1.61460424 Z" transform="translate(0 .545)"/>
            <path fill="#F6C540" fill-rule="nonzero" d="M2.80482886,0.535195958 L3.18716311,0.625238883 L3.13884195,0.82666992 L2.75204508,0.735576011 L2.65384311,1.10837453 L2.43992402,1.06160624 L2.53902174,0.685407228 L2.15031054,0.593862479 L2.1986317,0.392431442 L2.59180552,0.485027175 L2.678751,0.154960981 L2.8926701,0.201729269 L2.80482886,0.535195958 Z" transform="rotate(-14 2.669 .643)"/>
          </g>
          <g transform="translate(0 3.667)">
            <path fill="#C51918" d="M0.019856,0.0363304684 L5.96271314,0.0363304684 L5.96271314,4.7928066 C5.84290196,6.37233814 4.85242577,7.16210392 2.99128457,7.16210392 C1.13014338,7.16210392 0.139667185,6.37233814 0.019856,4.7928066 L0.019856,0.0363304684 Z"/>
            <g transform="translate(.143 .156)">
              <g fill="#E8AA00" transform="translate(1.242)">
                <path d="M0.428391571,0.0448528862 C0.373897492,0.0448528862 0.290010937,0.0817337595 0.178816044,0.1234955 C0.0676211516,0.165257241 -0.0491518752,0.255423322 0.0648320845,0.345733808 C0.178816044,0.436044294 0.341991791,0.634253717 0.341991791,0.5601454 C0.341991791,0.486037083 0.536919993,0.414181474 0.536919993,0.450109279 C0.536919993,0.486037083 0.476571938,0.5601454 0.63487448,0.5601454 C0.793177021,0.5601454 0.874734246,0.604217611 0.705827119,0.604217611 C0.536919993,0.604217611 0.518566697,0.677026288 0.408794233,0.677026288 C0.299021769,0.677026288 0.0648320845,0.603668874 0.0648320845,0.5601454 C0.0648320845,0.516621926 0.200454301,0.774123779 0.341991791,0.774123779 C0.483529281,0.774123779 0.56392184,0.899409001 0.63487448,0.83676639 C0.705827119,0.774123779 0.697429269,0.774123779 0.81205686,0.774123779 C0.888475254,0.774123779 0.912739115,0.689791634 0.884848445,0.521127342 C0.616873248,0.203611038 0.464720957,0.0448528862 0.428391571,0.0448528862 Z"/>
                <path d="M2.66441642,0.0448528862 C2.60992234,0.0448528862 2.52603578,0.0817337595 2.41484089,0.1234955 C2.303646,0.165257241 2.18687297,0.255423322 2.30085693,0.345733808 C2.41484089,0.436044294 2.57801664,0.634253717 2.57801664,0.5601454 C2.57801664,0.486037083 2.77294484,0.414181474 2.77294484,0.450109279 C2.77294484,0.486037083 2.71259678,0.5601454 2.87089932,0.5601454 C3.02920187,0.5601454 3.11075909,0.604217611 2.94185196,0.604217611 C2.77294484,0.604217611 2.75459154,0.677026288 2.64481908,0.677026288 C2.53504661,0.677026288 2.30085693,0.603668874 2.30085693,0.5601454 C2.30085693,0.516621926 2.43647915,0.774123779 2.57801664,0.774123779 C2.71955413,0.774123779 2.79994668,0.899409001 2.87089932,0.83676639 C2.94185196,0.774123779 2.93345411,0.774123779 3.0480817,0.774123779 C3.1245001,0.774123779 3.14876396,0.689791634 3.12087329,0.521127342 C2.85289809,0.203611038 2.7007458,0.0448528862 2.66441642,0.0448528862 Z" transform="matrix(-1 0 0 1 5.386 0)"/>
              </g>
              <path fill="#F7FCFF" d="M2.69338396,6.78382263 C2.69130062,6.78552113 2.68918474,6.78637038 2.68703632,6.78637038 C2.53496064,6.78637038 1.66406679,6.48060859 1.7680285,6.34738113 C1.87199021,6.21415367 1.99627226,5.95445687 1.89356717,5.87734494 C1.79086207,5.80023301 2.12993294,5.51125101 2.12993294,5.34966253 C2.12993294,5.18807405 2.24220055,4.97013899 2.29497828,4.8318285 C2.34775601,4.69351801 2.18712414,4.63535987 2.12993294,4.44820388 C2.07274174,4.26104789 2.05275853,4.3566804 1.99627226,4.51948782 C1.93978599,4.68229525 1.96179204,4.8318285 1.89356717,4.8318285 C1.8253423,4.8318285 1.7680285,4.71474545 1.7680285,4.79277658 C1.7680285,4.87080772 1.71037757,4.8318285 1.54812129,4.97013899 C1.38586502,5.10844949 1.54812129,4.71474545 1.54812129,4.79277658 C1.54812129,4.87080772 1.49273839,4.8318285 1.42253398,4.8318285 C1.35232956,4.8318285 1.42253398,4.63535987 1.3176708,4.71474545 C1.24776201,4.76766916 1.16244899,4.76766916 1.06173175,4.71474545 C1.16972783,4.55131822 1.25504085,4.4319632 1.3176708,4.3566804 C1.41161572,4.24375619 1.56154559,4.00213882 1.61666126,3.7755395 C1.61666126,3.82629629 1.42933334,4.10589557 1.42253398,4.13354568 C1.36968791,4.34844808 1.22372588,3.77580931 1.22372588,4.13354568 C1.22372588,4.53730971 1.06173175,4.37101186 1.06173175,4.51948782 C1.06173175,4.66796379 0.829968185,4.54332981 0.829968185,4.63535987 C0.829968185,4.72738994 0.666708972,4.89076714 0.666708972,5.03924311 C0.666708972,5.18771908 0.47264494,4.67064601 0.47264494,4.79277658 C0.47264494,4.91490715 0.152072414,5.08579459 0.152072414,4.89076714 C0.152072414,4.6957397 0.467647855,4.27713404 0.293066132,3.84005084 C0.118484409,3.40296764 0.0432751083,2.77908248 0.0432751083,1.68211272 C0.0432751083,0.585142965 0.857483782,0.0986472483 1.06173175,0.0986472483 C1.26597971,0.0986472483 0.971404682,0.311615785 0.857483782,0.561956634 C0.781536516,0.728850533 1.03459568,1.12228778 1.61666126,1.74226836 C1.63567839,1.74226836 1.66826572,1.74226836 1.71442325,1.74226836 C1.78365954,1.74226836 1.95324094,1.47171236 2.12993294,1.29198669 C2.30662493,1.11226103 2.12993294,0.970109375 2.07264979,0.833907184 C2.01536664,0.697704992 2.05459748,0.722311495 1.99627226,0.561956634 C1.93794705,0.401601772 1.67859446,0.176722947 1.61666126,0.0986472483 C1.55472806,0.0205715499 1.61666126,0.0317987322 1.7680285,0.0317987322 C1.91939574,0.0317987322 2.20854785,0.0986472483 2.29497828,0.176722947 C2.38140871,0.254798645 2.47203806,0.271452206 2.60520835,0.271452206 C2.73837864,0.271452206 2.65623908,0.355957637 2.53496064,0.413026239 C2.6485049,0.433482109 2.72156737,0.556909226 2.75414805,0.78330759 C2.81453712,0.556909226 2.90150379,0.433482109 3.01504804,0.413026239 C2.8937696,0.355957637 2.81163004,0.271452206 2.94480033,0.271452206 C3.07797062,0.271452206 3.16859998,0.254798645 3.2550304,0.176722947 C3.34146083,0.0986472483 3.63061294,0.0317987322 3.78198018,0.0317987322 C3.93334742,0.0317987322 3.99528062,0.0205715499 3.93334742,0.0986472483 C3.87141422,0.176722947 3.61206164,0.401601772 3.55373642,0.561956634 C3.4954112,0.722311495 3.53464204,0.697704992 3.47735889,0.833907184 C3.42007575,0.970109375 3.24338375,1.11226103 3.42007575,1.29198669 C3.59676774,1.47171236 3.76634915,1.74226836 3.83558544,1.74226836 C3.88174296,1.74226836 3.91433029,1.74226836 3.93334742,1.74226836 C4.51541301,1.12228778 4.76847217,0.728850533 4.6925249,0.561956634 C4.578604,0.311615785 4.28402897,0.0986472483 4.48827693,0.0986472483 C4.6925249,0.0986472483 5.50673357,0.585142965 5.50673357,1.68211272 C5.50673357,2.77908248 5.43152427,3.40296764 5.25694255,3.84005084 C5.08236083,4.27713404 5.39793627,4.6957397 5.39793627,4.89076714 C5.39793627,5.08579459 5.07736374,4.91490715 5.07736374,4.79277658 C5.07736374,4.67064601 4.88329971,5.18771908 4.88329971,5.03924311 C4.88329971,4.89076714 4.7200405,4.72738994 4.7200405,4.63535987 C4.7200405,4.54332981 4.48827693,4.66796379 4.48827693,4.51948782 C4.48827693,4.37101186 4.32628281,4.53730971 4.32628281,4.13354568 C4.32628281,3.77580931 4.18032077,4.34844808 4.12747471,4.13354568 C4.12067534,4.10589557 3.93334742,3.82629629 3.93334742,3.7755395 C3.98846309,4.00213882 4.13839297,4.24375619 4.23233789,4.3566804 C4.29496783,4.4319632 4.38028085,4.55131822 4.48827693,4.71474545 C4.38755969,4.76766916 4.30224667,4.76766916 4.23233789,4.71474545 C4.12747471,4.63535987 4.19767912,4.8318285 4.12747471,4.8318285 C4.05727029,4.8318285 4.00188739,4.87080772 4.00188739,4.79277658 C4.00188739,4.71474545 4.16414366,5.10844949 4.00188739,4.97013899 C3.83963112,4.8318285 3.78198018,4.87080772 3.78198018,4.79277658 C3.78198018,4.71474545 3.72466639,4.8318285 3.65644152,4.8318285 C3.58821664,4.8318285 3.61022269,4.68229525 3.55373642,4.51948782 C3.49725015,4.3566804 3.47726694,4.26104789 3.42007575,4.44820388 C3.36288455,4.63535987 3.20225267,4.69351801 3.2550304,4.8318285 C3.30780813,4.97013899 3.42007575,5.18807405 3.42007575,5.34966253 C3.42007575,5.51125101 3.75914661,5.80023301 3.65644152,5.87734494 C3.55373642,5.95445687 3.67801847,6.21415367 3.78198018,6.34738113 C3.78198018,6.73660887 2.69338396,6.78637038 2.69338396,6.78637038 L2.69338396,6.78382263 Z"/>
            </g>
            <g transform="translate(1.882 1.95)">
              <path fill="#C51918" d="M0.00200689589,0.0239536582 L2.21658653,0.0239536582 L2.21658653,1.67330655 C2.05809399,2.22102399 1.68899738,2.49488271 1.10929671,2.49488271 C0.529596044,2.49488271 0.160499438,2.22102399 0.00200689589,1.67330655 L0.00200689589,0.0239536582 Z"/>
              <path fill="#F7FCFF" d="M1.40786749,0.946859903 L2.23602484,0.946859903 L2.23602484,1.28502415 L1.40786749,1.28502415 L1.40786749,2.50241546 L0.82815735,2.50241546 L0.82815735,1.28502415 L0,1.28502415 L0,0.946859903 L0.82815735,0.946859903 L0.82815735,0 L1.40786749,0 L1.40786749,0.946859903 Z"/>
            </g>
            <path fill="#E8AA00" d="M1.31877321,5.7135016 C1.72904188,5.7135016 2.10236245,5.72323119 2.10236245,5.42584709 C2.10236245,5.12846299 1.79892869,5.03719644 1.38866002,5.03719644 C0.978391349,5.03719644 0.616648164,5.12846299 0.616648164,5.42584709 C0.616648164,5.72323119 0.908504539,5.7135016 1.31877321,5.7135016 Z" transform="rotate(-49 1.36 5.576)"/>
            <path fill="#E8AA00" d="M4.40448751,5.7135016 C4.81475619,5.7135016 5.18807675,5.72323119 5.18807675,5.42584709 C5.18807675,5.12846299 4.884643,5.03719644 4.47437432,5.03719644 C4.06410565,5.03719644 3.70236247,5.12846299 3.70236247,5.42584709 C3.70236247,5.72323119 3.99421884,5.7135016 4.40448751,5.7135016 Z" transform="scale(-1 1) rotate(-49 0 15.33)"/>
          </g>
        </g>
      </g>
    </g>
  </g>
</svg>
