<svg xmlns="http://www.w3.org/2000/svg" xmlns:xlink="http://www.w3.org/1999/xlink" width="32" height="24" viewBox="0 0 32 24">
  <defs>
    <rect id="kr---korea-(south)-a" width="32" height="24" x="0" y="0"/>
    <ellipse id="kr---korea-(south)-b" cx="5.799" cy="6.159" rx="5.799" ry="6.159"/>
  </defs>
  <g fill="none" fill-rule="evenodd" mask="url(#kr---korea-(south)-b)">
    <use fill="#F7FCFF" xlink:href="#kr---korea-(south)-a"/>
    <g mask="url(#kr---korea-(south)-d)">
      <g transform="translate(3 1)">
        <g transform="translate(7.201 4.902)">
          <use fill="#3D58DB" xlink:href="#kr---korea-(south)-b"/>
          <path fill="#E31D1C" d="M11.8009535,6.63029745 C11.5839447,4.69433073 10.6718857,3.67379921 9.0647764,3.56870292 C6.65411249,3.41105847 6.00411424,5.69828871 5.86500402,6.30425817 C5.7258938,6.91022763 5.37380812,8.52673409 2.83565946,8.52673409 C1.14356035,8.52673409 0.221193932,7.15659082 0.0685602025,4.41630427 L0.0685602025,-0.430531845 L11.8009535,-0.430531845 L11.8009535,6.63029745 Z" mask="url(#kr---korea-(south)-f)"/>
        </g>
        <path fill="#272727" fill-rule="nonzero" d="M4.29935288,1.05217182 L5.21431499,1.87969783 L0.974059028,6.83160229 L0.0590969251,6.00407627 L4.29935288,1.05217182 Z M5.80834311,2.39132961 L6.72330522,3.21885563 L2.63504478,8.09902239 L1.72008267,7.27149637 L5.80834311,2.39132961 Z M7.31042255,3.74698696 L8.22538466,4.57451298 L4.12576121,9.49171378 L3.2107991,8.66418776 L7.31042255,3.74698696 Z"/>
        <path fill="#272727" fill-rule="nonzero" d="M22.8370226,0.705187301 L23.7521747,1.52961623 L22.1647648,3.39245063 L21.2496127,2.5680217 L22.8370226,0.705187301 Z M20.0154122,4.13182554 L20.9305643,4.95625447 L19.3431544,6.81908887 L18.4280023,5.99465994 L20.0154122,4.13182554 Z M25.8576237,3.38837523 L26.7727758,4.21280416 L25.1853659,6.07563855 L24.2702138,5.25120962 L25.8576237,3.38837523 Z M23.0360134,6.81501347 L23.9511654,7.6394424 L22.3637556,9.5022768 L21.4486035,8.67784787 L23.0360134,6.81501347 Z M24.290046,2.00676857 L25.205198,2.8311975 L20.7866088,8.21206147 L19.8714567,7.38763254 L24.290046,2.00676857 Z" transform="matrix(-1 0 0 1 45.2 0)"/>
        <path fill="#272727" fill-rule="nonzero" d="M22.1320612,12.4154688 L23.0549211,13.2431141 L21.4541414,15.1132162 L20.5312815,14.2855708 L22.1320612,12.4154688 Z M19.4407558,15.7064816 L20.3636157,16.534127 L18.762836,18.404229 L17.8399761,17.5765837 L19.4407558,15.7064816 Z M25.0464936,15.0328374 L25.9693535,15.8604827 L24.3685738,17.7305848 L23.4457139,16.9029394 L25.0464936,15.0328374 Z M22.4867977,18.4001377 L23.4096576,19.227783 L21.8088779,21.0978851 L20.886018,20.2702397 L22.4867977,18.4001377 Z M20.966527,16.9780476 L21.8893869,17.8056929 L20.2184478,19.8026361 L19.2955879,18.9749908 L20.966527,16.9780476 Z M23.7079648,13.6505901 L24.6308246,14.4782354 L22.9598855,16.4751786 L22.0370256,15.6475333 L23.7079648,13.6505901 Z"/>
        <path fill="#272727" fill-rule="nonzero" d="M4.47881612,13.0645434 L5.39402203,13.8898821 L1.3094267,18.5702881 L0.394220786,17.7449494 L4.47881612,13.0645434 Z M3.52601923,17.1582084 L4.44122514,17.983547 L2.71591789,19.8790968 L1.80071198,19.0537582 L3.52601923,17.1582084 Z M7.4911584,15.6907951 L8.40636431,16.5161338 L4.30056427,21.2595051 L3.38535835,20.4341665 L7.4911584,15.6907951 Z M5.92477033,14.326857 L6.83997625,15.1521956 L5.34430638,16.9060657 L4.42910046,16.0807271 L5.92477033,14.326857 Z" transform="matrix(-1 0 0 1 8.8 0)"/>
      </g>
    </g>
  </g>
</svg>
