<svg xmlns="http://www.w3.org/2000/svg" xmlns:xlink="http://www.w3.org/1999/xlink" width="32" height="24" viewBox="0 0 32 24">
  <defs>
    <rect id="er---eritrea-a" width="34" height="24" x="0" y="0"/>
  </defs>
  <g fill="none" fill-rule="evenodd">
    <mask id="er---eritrea-b" fill="#fff">
      <use xlink:href="#er---eritrea-a"/>
    </mask>
    <g mask="url(#er---eritrea-b)">
      <rect width="32" height="12" fill="#43B764"/>
      <rect width="32" height="12" y="12" fill="#B4D7F4"/>
      <polygon fill="#BE0027" points="0 0 33 12 0 24"/>
      <path fill="#F3E294" fill-rule="nonzero" d="M9.41728342,18.1891374 C9.6442653,18.2488245 9.83326486,18.3629043 9.98428212,18.5313766 C10.2246311,18.5123053 10.4614135,18.4745685 10.6946952,18.4180848 C11.1748783,18.1538457 12.2377643,17.3030159 12.50687,16.9684377 C12.8273629,16.5699701 12.8364167,15.5647867 13.0070254,15.0133899 C13.1776341,14.4619932 13.479526,15.6835217 13.479526,15.8736877 C13.479526,16.0638538 13.7280652,15.1683493 13.7280652,14.5401027 C13.7280652,13.9118561 13.479526,13.7326942 13.479526,13.1093594 C13.479526,12.4860246 14.0974189,13.1073605 14.208493,13.4737482 C14.3195672,13.8401358 13.7280652,13.0188717 13.7280652,12.1207846 C13.7280652,11.2226974 13.479526,11.7095394 13.8401484,11.513632 C14.2007708,11.3177245 14.2000723,11.9391649 14.4192711,11.7095394 C14.6384699,11.479914 13.5010262,11.1888824 12.7837898,10.4699982 C12.0665535,9.75111401 13.0070254,9.50438312 13.1674161,9.75503709 C13.3278067,10.0056911 14.2835914,10.287529 13.7280652,9.45314138 C13.172539,8.61875377 12.4042564,9.1741158 11.9405049,8.83033491 C11.4767533,8.48655401 12.6516313,8.12578629 12.4042564,8.12578629 C12.1568815,8.12578629 11.7440209,7.91204737 11.2360757,7.91204737 C10.7281306,7.91204737 9.7242714,7.45755478 10.0714656,7.45755478 C10.3306988,7.45755478 10.8520755,7.26442186 11.2518254,7.24361527 C10.6423677,6.96185373 9.94521925,6.72426962 9.15947419,6.53075026 L9.29318398,6 C10.0699578,6.19130985 10.7689302,6.42638142 11.3893715,6.70512394 C11.282423,6.54060275 11.1667241,6.36200334 11.07049,6.1940778 C10.7381213,5.61410473 11.7756122,6.51480116 12.1863771,7.11112122 C12.1867552,7.1116701 12.187134,7.11221956 12.1875135,7.11276961 C12.855747,7.50053222 13.4070645,7.95297633 13.8401484,8.46993805 C13.8401484,8.19685439 13.8401484,7.80561961 13.8401484,7.29623371 C14.2281079,7.42911163 14.448936,8.68254052 14.5649826,9.62688065 C14.6495864,9.81663721 14.722491,10.0127182 14.7836558,10.2151185 C14.934656,9.8120161 15.2196992,9.38479395 15.4760935,9.75503709 C15.712978,10.0971074 15.5683904,11.3696954 15.0423304,13.5728011 C15.0340026,13.6591158 15.0244578,13.7448398 15.0136956,13.8299721 C15.8946357,13.2691376 15.9853318,11.3411986 15.9853318,12.7826085 C15.9853318,13.5640827 15.5724011,14.3403747 14.7465398,15.1114844 C14.6711205,15.3654157 14.5830889,15.6131797 14.4824341,15.8547479 C15.526196,15.5252059 16.1595937,14.5095438 15.9853318,15.6835217 C15.8818276,16.3808148 15.1954999,16.7958179 13.9263486,16.9285312 C13.8763059,17.0082297 13.8246396,17.0871266 13.7713494,17.1652209 L13.7398872,17.2033992 C13.6247817,17.3198654 13.5084794,17.4309872 13.3909892,17.5367537 C13.774297,17.3738779 14.0815906,17.1883931 14.4972775,17.1883931 C14.9376157,17.1883931 13.1036884,17.6900848 12.7671282,18.053556 C12.4663748,18.3783574 12.5723505,18.4593672 12.0713969,18.4729282 C11.4971773,18.7780285 10.8989404,18.9710025 10.2775309,19.0508075 C10.2949278,19.1009372 10.3108796,19.1531362 10.3253865,19.2074045 L7.69334752,19.2074045 C7.7109858,19.1414218 7.73076027,19.0784982 7.75267094,19.0186337 C7.20905777,18.9251598 6.68356435,18.7436584 6.1767711,18.4748459 C6.16324508,18.4750827 6.14933765,18.4752012 6.13504882,18.4752012 C5.39664995,18.4752012 5.56943203,18.4170273 5.2328718,18.053556 C4.89631157,17.6900848 3.06238432,17.1883931 3.50272246,17.1883931 C3.94306061,17.1883931 4.26176824,17.3965295 4.67804419,17.5654485 C4.77422209,17.6044762 4.89540051,17.64952 5.04157943,17.70058 C4.85982684,17.5473992 4.68084584,17.3816591 4.50466839,17.2033992 L4.47320626,17.1652209 C4.42471745,17.0941629 4.37757321,17.0224404 4.33177315,16.9500542 C2.9063583,16.8464475 2.1386736,16.42427 2.02871906,15.6835217 C1.85096931,14.4860465 2.51353345,15.5667402 3.59477976,15.8736877 C3.66671507,15.8941089 3.73267468,15.9118609 3.79265857,15.9269437 C3.71765675,15.752241 3.64932594,15.5742628 3.58766192,15.3930201 C2.54836668,14.5294044 2.02871906,13.6592672 2.02871906,12.7826085 C2.02871906,11.3200511 2.1220959,13.326434 3.03964167,13.853759 C2.45840568,11.4776372 2.29117757,10.1113965 2.53795736,9.75503709 C2.90812704,9.22049793 3.33801303,10.3482105 3.33801303,10.6657107 C3.33801303,10.9832108 3.51467594,7.52202182 4.17390242,7.29623371 C4.17390242,7.88446981 4.17390242,8.31514541 4.17390242,8.58826051 C4.17390242,8.64850061 4.20077879,8.67197962 4.24793348,8.66631012 C4.6097957,8.1883646 5.06684308,7.76227115 5.61812586,7.38814791 C5.69997118,7.28692591 5.7715819,7.19255141 5.8276737,7.11112122 C6.23843863,6.51480116 7.27592958,5.61410473 6.94356083,6.1940778 C6.81559377,6.41737632 6.65320854,6.65954868 6.52274753,6.86239539 C7.22263172,6.51380336 8.03257574,6.22628814 8.95137163,6 L9.08508142,6.53075026 C8.2809015,6.7288099 7.56952423,6.9730262 6.94997841,7.26351997 C7.31320461,7.3182595 7.72242921,7.45755478 7.94258527,7.45755478 C8.28977944,7.45755478 7.28592025,7.91204737 6.7779751,7.91204737 C6.27002996,7.91204737 5.85716929,8.12578629 5.60979442,8.12578629 C5.36241954,8.12578629 6.53729754,8.48655401 6.07354598,8.83033491 C5.69030601,9.11443224 5.09909526,8.78448547 4.59185003,9.13225406 C4.41227194,9.38956353 4.26255584,9.6622629 4.14251671,9.95037519 C4.26373778,10.1091722 4.73791545,9.9249406 4.84663478,9.75503709 C5.00702542,9.50438312 5.94749738,9.75111401 5.23026101,10.4699982 C4.76447366,10.9368557 4.12146562,11.2232681 3.7878983,11.4296015 C3.77627001,11.5280497 3.76598866,11.6257943 3.7570538,11.7228361 C3.85072556,11.6245308 3.92898441,11.3805807 4.17390242,11.513632 C4.53452485,11.7095394 4.28598567,11.2226974 4.28598567,12.1207846 C4.28598567,13.0188717 3.69448361,13.8401358 3.8055578,13.4737482 C3.91663199,13.1073605 4.53452485,12.4860246 4.53452485,13.1093594 C4.53452485,13.7326942 4.28598567,13.9118561 4.28598567,14.5401027 C4.28598567,15.1683493 4.53452485,16.0638538 4.53452485,15.8736877 C4.53452485,15.6835217 4.83641671,14.4619932 5.00702542,15.0133899 C5.17763413,15.5647867 5.18668791,16.5699701 5.5071808,16.9684377 C5.74063391,17.2586891 6.57147123,17.9374618 7.10102104,18.2847375 C7.41216796,18.3946287 7.7297114,18.4697455 8.05381702,18.5102924 C8.19830728,18.3567697 8.37613407,18.2509866 8.58729737,18.1929431 C8.59887139,17.5498566 8.59073819,16.8484766 8.55029943,16.1837108 C8.48845744,16.1078599 8.38753749,16.0699345 8.24753957,16.0699345 C7.84771906,16.0699345 6.96952662,15.7281825 6.96952662,15.2362376 C7.40623111,15.4335272 7.68552436,15.4828496 7.80740635,15.3842048 C7.99022934,15.2362376 6.62489391,14.358872 6.79721026,13.9367664 C7.22539071,14.3158428 7.48518478,14.505381 7.57659247,14.505381 C7.71370402,14.505381 7.34577859,13.6213384 7.57659247,13.7790524 C7.80740635,13.9367664 8.4484977,15.0246688 8.4484977,15.3842048 C8.4484977,15.5655325 8.48163659,15.8191787 8.54791437,16.1451437 C8.5474032,16.1370115 8.54688714,16.128885 8.54636616,16.1207646 C8.51979309,15.7065724 8.48148643,15.334556 8.43050856,15.0161397 C8.14236485,13.2163459 8.13207494,11.3715252 8.53289689,10.3896466 C8.33313122,10.2658665 8.18739386,10.1080166 8.18739386,9.92774606 C8.62409835,10.1052148 8.9033916,10.149582 9.02527359,10.0608476 C9.20809658,9.92774606 7.84276115,9.13852558 8.0150775,8.75882714 C8.44325795,9.09981935 8.70305202,9.27031546 8.79445971,9.27031546 C8.93157126,9.27031546 8.56364583,8.47508884 8.79445971,8.61695799 C9.02527359,8.75882714 9.66636494,9.73743261 9.66636494,10.0608476 C9.66636494,10.0633833 9.66637295,10.0659346 9.66638896,10.0685017 C9.91475741,9.76065771 10.2043009,9.4733808 10.3565572,9.4014149 C10.6567059,9.25954576 10.1782583,10.0547724 10.3565572,10.0547724 C10.4754231,10.0547724 10.8132574,9.88427627 11.3700602,9.54328405 C11.5941392,9.9229825 9.81866674,10.712203 10.0564085,10.8453045 C10.2149029,10.9340389 10.5780939,10.8896717 11.1459813,10.712203 C11.1459813,11.1547242 10.0039861,11.4621419 9.48406236,11.4621419 C9.31350642,11.4621419 9.18755182,11.4920845 9.10619855,11.5519697 C9.06956519,11.8649246 9.052714,12.2212986 9.05456855,12.6039073 C9.31444123,12.2692721 9.63894787,11.9404843 9.80336368,11.862771 C10.1035124,11.7209019 9.62506481,12.5161285 9.80336368,12.5161285 C9.9222296,12.5161285 10.260064,12.3456324 10.8168667,12.0046402 C11.0409457,12.3843386 9.26547326,13.1735591 9.50321496,13.3066607 C9.66170944,13.395395 10.0249004,13.3510278 10.5927878,13.1735591 C10.5927878,13.5669695 9.6902037,13.8535998 9.12454567,13.9123747 C9.15613046,14.235589 9.19814429,14.5633768 9.25009383,14.8878623 C9.30555835,15.234303 9.34639659,15.6309049 9.3744919,16.0688241 C9.38689106,16.2620886 9.39660123,16.4581235 9.40391746,16.6549066 C9.43244264,16.4736982 9.44670523,16.323615 9.44670523,16.2046569 C9.44670523,15.8451208 10.0877966,14.7572185 10.3186105,14.5995045 C10.5494243,14.4417905 10.1814989,15.325833 10.3186105,15.325833 C10.4100181,15.325833 10.6698122,15.1362948 11.0979927,14.7572185 C11.270309,15.179324 9.90497358,16.0566897 10.0877966,16.2046569 C10.2096786,16.3033017 10.4889718,16.2539793 10.9256763,16.0566897 C10.9256763,16.5486345 10.0474839,16.8903866 9.64766335,16.8903866 C9.55069165,16.8903866 9.47246899,16.9085826 9.41299535,16.9449747 C9.42379655,17.3674635 9.42425634,17.7888296 9.41728342,18.1891374 Z M9.12176477,11.4301842 C9.17483952,11.236408 9.2069909,11.0742173 9.21821892,10.943612 C9.17882462,11.0871106 9.14674941,11.2505174 9.12176477,11.4301842 Z M13.8171399,15.9882736 C13.8482838,15.9238481 13.8784115,15.8589034 13.9075227,15.7934388 C13.761885,15.9099797 13.7317574,15.9749246 13.8171399,15.9882736 Z"/>
    </g>
  </g>
</svg>
