<svg xmlns="http://www.w3.org/2000/svg" xmlns:xlink="http://www.w3.org/1999/xlink" width="20" height="15" viewBox="0 0 20 15">
  <defs>
    <rect id="african-union-a" width="20" height="15" x="0" y="0"/>
    <rect id="african-union-c" width="20" height="15" x="0" y="0"/>
  </defs>
  <g fill="none" fill-rule="evenodd">
    <mask id="african-union-b" fill="#fff">
      <use xlink:href="#african-union-a"/>
    </mask>
    <g mask="url(#african-union-b)">
      <mask id="african-union-d" fill="#fff">
        <use xlink:href="#african-union-c"/>
      </mask>
      <use fill="#19724D" xlink:href="#african-union-c"/>
      <polygon fill="#F7FCFF" fill-rule="nonzero" points="9.735 9.386 8.664 12.318 9.256 9.253 7.462 11.808 8.827 9.001 6.434 11.005 8.479 8.646 5.648 9.962 8.234 8.214 5.159 8.752 8.109 7.732 5 7.456 8.114 7.235 5.182 6.164 8.247 6.756 5.692 4.962 8.499 6.327 6.495 3.934 8.854 5.979 7.538 3.148 9.286 5.734 8.748 2.659 9.768 5.609 10.044 2.5 10.265 5.614 11.336 2.682 10.744 5.747 12.538 3.192 11.173 5.999 13.566 3.995 11.521 6.354 14.352 5.038 11.766 6.786 14.841 6.248 11.891 7.268 15 7.544 11.886 7.765 14.818 8.836 11.753 8.244 14.308 10.038 11.501 8.673 13.505 11.066 11.146 9.021 12.462 11.852 10.714 9.266 11.252 12.341 10.232 9.391 9.956 12.5" mask="url(#african-union-d)"/>
      <path fill="#19724D" fill-rule="nonzero" stroke="#F7FCFF" stroke-width=".2" d="M9.12673578,7.33026583 L8.99144493,7.23118103 L8.62666189,7.20322751 L8.37106528,6.95720011 L8.01057598,7.08196516 L7.46535149,7.23118103 L7.16987923,7.23118103 L6.75842386,7.20102982 L6.45689241,6.88305154 L6.3203298,6.56519614 L6.02892233,6.20372123 L5.90878838,5.93075975 L6.01332339,5.71960337 L6.01332339,5.33739688 L6.04112421,4.91949975 L6.2033715,4.75560774 L6.4814973,4.2464847 L6.76263252,3.99361981 L6.97867069,3.8081366 L7.09394907,3.55941391 L7.41599296,3.19275221 L7.68305739,3.04118332 L7.83241592,3.12815306 L7.83241592,3.18074392 L7.96200892,3.18206833 L9.23043023,2.90234638 L9.35196555,3 L9.35196555,3.38735154 L9.81085961,3.64556125 L10.2067507,3.72633882 L10.2067507,3.6244878 L10.3311935,3.52752104 L11.1802665,3.75015141 L11.814785,3.64489068 L11.9311505,3.74354245 L11.9195997,4.14510729 L12.242749,4.75777703 L12.5086258,5.28780827 L12.6425382,5.52837044 L12.8671277,5.76347753 L13.2777895,6.15008858 L13.2777895,6.19900279 L13.5154095,6.20244984 L13.969088,6.05498628 L14.1,6.15008858 L14.0933411,6.53820708 L13.8235499,7.20692898 L13.3662819,7.59803764 L12.7849333,8.33609622 L12.7825276,8.67424953 L12.9006123,9.24985319 L12.7374492,9.80206636 L12.1279267,10.1224087 L12.1279267,10.8814026 L12.0279267,10.9814026 L11.798143,10.9814026 L11.7721479,11.3201341 L10.9875379,11.9819543 L10.6001003,11.9724303 L10.3493429,12.090476 L10.2248869,12.057431 L10.0318997,11.7507626 L10.0405504,11.6626921 L9.92475438,11.391722 L9.6918796,11.1011286 L9.61776542,10.533616 L9.36306415,10.0922366 L9.32270214,10.0199904 L9.28342492,9.87604681 L9.28735003,9.68922404 L9.35649296,9.45249914 L9.46198816,9.2263787 L9.46198816,8.99097892 L9.46662109,8.72613703 L9.37898447,8.40804612 L9.0565705,8.09332611 L8.90767958,7.86498749 L8.90368918,7.76242015 L9.0496916,7.49562526 L9.12673578,7.33026583 Z M12.8884905,10.7979494 L12.8469932,10.7496452 L12.7897204,10.5978346 L12.7829424,10.2019304 L13.0096059,10.0077019 L12.967149,9.6374265 L13.10892,9.42513636 L13.2540461,9.37947917 L13.519156,9.3267027 L13.7630161,8.94605599 L13.8846758,8.90728023 L14.0374572,8.96900137 L14.0998722,9.06677518 L14.0681931,9.52073683 L13.3816475,10.8068399 L13.0362568,10.8859245 L12.8884905,10.7979494 Z" mask="url(#african-union-d)"/>
      <polygon fill="#FECA00" points="10 1.625 9.559 1.857 9.643 1.366 9.287 1.018 9.78 .947 10 .5 10.22 .947 10.713 1.018 10.357 1.366 10.441 1.857" mask="url(#african-union-d)"/>
      <polygon fill="#FECA00" points="11.618 1.838 11.177 2.07 11.261 1.579 10.904 1.231 11.397 1.16 11.618 .713 11.838 1.16 12.331 1.231 11.974 1.579 12.058 2.07" mask="url(#african-union-d)" transform="rotate(15 11.618 1.463)"/>
      <polygon fill="#FECA00" points="13.125 2.462 12.684 2.694 12.768 2.203 12.412 1.856 12.905 1.784 13.125 1.337 13.345 1.784 13.838 1.856 13.482 2.203 13.566 2.694" mask="url(#african-union-d)" transform="rotate(30 13.125 2.087)"/>
      <polygon fill="#FECA00" points="14.419 3.456 13.979 3.687 14.063 3.196 13.706 2.849 14.199 2.777 14.419 2.331 14.64 2.777 15.133 2.849 14.776 3.196 14.86 3.687" mask="url(#african-union-d)" transform="rotate(45 14.42 3.08)"/>
      <polygon fill="#FECA00" points="15.413 4.75 14.972 4.982 15.056 4.491 14.699 4.143 15.192 4.072 15.413 3.625 15.633 4.072 16.126 4.143 15.769 4.491 15.853 4.982" mask="url(#african-union-d)" transform="rotate(60 15.413 4.375)"/>
      <polygon fill="#FECA00" points="16.037 6.257 15.596 6.489 15.68 5.998 15.324 5.651 15.817 5.579 16.037 5.132 16.257 5.579 16.75 5.651 16.394 5.998 16.478 6.489" mask="url(#african-union-d)" transform="rotate(75 16.037 5.882)"/>
      <polygon fill="#FECA00" points="16.25 7.875 15.809 8.107 15.893 7.616 15.537 7.268 16.03 7.197 16.25 6.75 16.47 7.197 16.963 7.268 16.607 7.616 16.691 8.107" mask="url(#african-union-d)" transform="rotate(90 16.25 7.5)"/>
      <polygon fill="#FECA00" points="16.037 9.493 15.596 9.724 15.68 9.234 15.324 8.886 15.817 8.814 16.037 8.368 16.257 8.814 16.75 8.886 16.394 9.234 16.478 9.724" mask="url(#african-union-d)" transform="rotate(105 16.037 9.118)"/>
      <polygon fill="#FECA00" points="15.413 11 14.972 11.232 15.056 10.741 14.699 10.393 15.192 10.322 15.413 9.875 15.633 10.322 16.126 10.393 15.769 10.741 15.853 11.232" mask="url(#african-union-d)" transform="rotate(120 15.413 10.625)"/>
      <polygon fill="#FECA00" points="14.419 12.294 13.979 12.526 14.063 12.035 13.706 11.688 14.199 11.616 14.419 11.169 14.64 11.616 15.133 11.688 14.776 12.035 14.86 12.526" mask="url(#african-union-d)" transform="rotate(135 14.42 11.92)"/>
      <polygon fill="#FECA00" points="13.125 13.288 12.684 13.519 12.768 13.029 12.412 12.681 12.905 12.609 13.125 12.163 13.345 12.609 13.838 12.681 13.482 13.029 13.566 13.519" mask="url(#african-union-d)" transform="rotate(150 13.125 12.913)"/>
      <polygon fill="#FECA00" points="11.618 13.912 11.177 14.144 11.261 13.653 10.904 13.305 11.397 13.234 11.618 12.787 11.838 13.234 12.331 13.305 11.974 13.653 12.058 14.144" mask="url(#african-union-d)" transform="rotate(165 11.618 13.537)"/>
      <polygon fill="#FECA00" points="10 14.125 9.559 14.357 9.643 13.866 9.287 13.518 9.78 13.447 10 13 10.22 13.447 10.713 13.518 10.357 13.866 10.441 14.357" mask="url(#african-union-d)" transform="rotate(180 10 13.75)"/>
      <polygon fill="#FECA00" points="8.382 13.912 7.942 14.144 8.026 13.653 7.669 13.305 8.162 13.234 8.382 12.787 8.603 13.234 9.096 13.305 8.739 13.653 8.823 14.144" mask="url(#african-union-d)" transform="rotate(-165 8.382 13.537)"/>
      <polygon fill="#FECA00" points="6.875 13.288 6.434 13.519 6.518 13.029 6.162 12.681 6.655 12.609 6.875 12.163 7.095 12.609 7.588 12.681 7.232 13.029 7.316 13.519" mask="url(#african-union-d)" transform="rotate(-150 6.875 12.913)"/>
      <polygon fill="#FECA00" points="5.581 12.294 5.14 12.526 5.224 12.035 4.867 11.688 5.36 11.616 5.581 11.169 5.801 11.616 6.294 11.688 5.937 12.035 6.021 12.526" mask="url(#african-union-d)" transform="rotate(-135 5.58 11.92)"/>
      <polygon fill="#FECA00" points="4.587 11 4.147 11.232 4.231 10.741 3.874 10.393 4.367 10.322 4.587 9.875 4.808 10.322 5.301 10.393 4.944 10.741 5.028 11.232" mask="url(#african-union-d)" transform="rotate(-120 4.587 10.625)"/>
      <polygon fill="#FECA00" points="3.963 9.493 3.522 9.724 3.606 9.234 3.25 8.886 3.743 8.814 3.963 8.368 4.183 8.814 4.676 8.886 4.32 9.234 4.404 9.724" mask="url(#african-union-d)" transform="rotate(-105 3.963 9.118)"/>
      <polygon fill="#FECA00" points="3.75 7.875 3.309 8.107 3.393 7.616 3.037 7.268 3.53 7.197 3.75 6.75 3.97 7.197 4.463 7.268 4.107 7.616 4.191 8.107" mask="url(#african-union-d)" transform="rotate(-90 3.75 7.5)"/>
      <polygon fill="#FECA00" points="3.963 6.257 3.522 6.489 3.606 5.998 3.25 5.651 3.743 5.579 3.963 5.132 4.183 5.579 4.676 5.651 4.32 5.998 4.404 6.489" mask="url(#african-union-d)" transform="rotate(-75 3.963 5.882)"/>
      <polygon fill="#FECA00" points="4.587 4.75 4.147 4.982 4.231 4.491 3.874 4.143 4.367 4.072 4.587 3.625 4.808 4.072 5.301 4.143 4.944 4.491 5.028 4.982" mask="url(#african-union-d)" transform="rotate(-60 4.587 4.375)"/>
      <polygon fill="#FECA00" points="5.581 3.456 5.14 3.687 5.224 3.196 4.867 2.849 5.36 2.777 5.581 2.331 5.801 2.777 6.294 2.849 5.937 3.196 6.021 3.687" mask="url(#african-union-d)" transform="rotate(-45 5.58 3.08)"/>
      <polygon fill="#FECA00" points="6.875 2.462 6.434 2.694 6.518 2.203 6.162 1.856 6.655 1.784 6.875 1.337 7.095 1.784 7.588 1.856 7.232 2.203 7.316 2.694" mask="url(#african-union-d)" transform="rotate(-30 6.875 2.087)"/>
      <polygon fill="#FECA00" points="8.382 1.838 7.942 2.07 8.026 1.579 7.669 1.231 8.162 1.16 8.382 .713 8.603 1.16 9.096 1.231 8.739 1.579 8.823 2.07" mask="url(#african-union-d)" transform="rotate(-15 8.382 1.463)"/>
    </g>
  </g>
</svg>
