<svg xmlns="http://www.w3.org/2000/svg" xmlns:xlink="http://www.w3.org/1999/xlink" width="20" height="15" viewBox="0 0 20 15">
  <defs>
    <rect id="km---comoros-a" width="20" height="15" x="0" y="0"/>
    <rect id="km---comoros-c" width="20" height="15" x="0" y="0"/>
  </defs>
  <g fill="none" fill-rule="evenodd">
    <mask id="km---comoros-b" fill="#fff">
      <use xlink:href="#km---comoros-a"/>
    </mask>
    <g mask="url(#km---comoros-b)">
      <mask id="km---comoros-d" fill="#fff">
        <use xlink:href="#km---comoros-c"/>
      </mask>
      <use fill="#5196ED" xlink:href="#km---comoros-c"/>
      <rect width="20" height="3.75" y="7.5" fill="#AF0100" mask="url(#km---comoros-d)"/>
      <rect width="20" height="3.75" y="3.75" fill="#F7FCFF" mask="url(#km---comoros-d)"/>
      <rect width="20" height="3.75" fill="#FECA00" mask="url(#km---comoros-d)"/>
      <polygon fill="#5EAA22" points="0 0 12.5 7.5 0 15" mask="url(#km---comoros-d)"/>
      <path fill="#F7FCFF" d="M5.375,10.0454545 L5.00763422,10.2421017 L5.07779484,9.82559632 L4.78058968,9.53062555 L5.19131711,9.46985823 L5.375,9.09090909 L5.55868289,9.46985823 L5.96941032,9.53062555 L5.67220516,9.82559632 L5.74236578,10.2421017 L5.375,10.0454545 Z M5.375,8.77272727 L5.00763422,8.96937445 L5.07779484,8.55286904 L4.78058968,8.25789828 L5.19131711,8.19713096 L5.375,7.81818182 L5.55868289,8.19713096 L5.96941032,8.25789828 L5.67220516,8.55286904 L5.74236578,8.96937445 L5.375,8.77272727 Z M5.375,7.5 L5.00763422,7.69664718 L5.07779484,7.28014177 L4.78058968,6.985171 L5.19131711,6.92440368 L5.375,6.54545455 L5.55868289,6.92440368 L5.96941032,6.985171 L5.67220516,7.28014177 L5.74236578,7.69664718 L5.375,7.5 Z M5.375,6.22727273 L5.00763422,6.42391991 L5.07779484,6.0074145 L4.78058968,5.71244373 L5.19131711,5.65167641 L5.375,5.27272727 L5.55868289,5.65167641 L5.96941032,5.71244373 L5.67220516,6.0074145 L5.74236578,6.42391991 L5.375,6.22727273 Z M2.78000142,7.46768223 C2.70078797,9.90419082 4.9403877,10.6825544 4.9403877,10.6825544 C4.08882708,10.905672 1.30038504,10.280712 1.39183959,7.46768223 C1.48329414,4.6546525 4.34100928,3.96652003 5.13964173,4.55374483 C5.13964173,4.55374483 2.85921487,5.03117364 2.78000142,7.46768223 Z" mask="url(#km---comoros-d)"/>
    </g>
  </g>
</svg>
