<svg xmlns="http://www.w3.org/2000/svg" xmlns:xlink="http://www.w3.org/1999/xlink" width="32" height="24" viewBox="0 0 32 24">
  <defs>
    <rect id="gi---gibraltar-a" width="32" height="24" x="0" y="0"/>
  </defs>
  <g fill="none" fill-rule="evenodd">
    <mask id="gi---gibraltar-b" fill="#fff">
      <use xlink:href="#gi---gibraltar-a"/>
    </mask>
    <rect width="32" height="24" fill="#F7FCFF" mask="url(#gi---gibraltar-b)"/>
    <g mask="url(#gi---gibraltar-b)">
      <g transform="translate(0 4)">
        <path fill="#C51918" d="M0,12 L32,12 L32,18 C32,19.1045695 31.1045695,20 30,20 L2,20 C0.8954305,20 1.3527075e-16,19.1045695 0,18 L0,12 Z"/>
        <g transform="translate(7)">
          <path fill="#DB000B" d="M1.88888889,5.61538462 L1.88888889,2.84615385 L5.66666667,2.84615385 L5.66666667,5.61538462 L6.61111111,5.61538462 L6.61111111,1 L10.3888889,1 L10.3888889,5.61538462 L11.3333333,5.61538462 L11.3333333,2.84615385 L15.1111111,2.84615385 L15.1111111,5.61538462 L17,5.61538462 L17,6.53846154 L16.0555556,6.53846154 L16.0555556,11.1538462 L17,11.1538462 L17,12.0769231 L0,12.0769231 L0,11.1538462 L0.944444444,11.1538462 L0.944444444,6.53846154 L0,6.53846154 L0,5.61538462 L1.88888889,5.61538462 Z"/>
          <path fill="#272727" d="M3.65350877 3.76923077C4.10647916 3.76923077 4.47368421 4.13643582 4.47368421 4.58940621L4.47368421 5.8 2.83333333 5.8 2.83333333 4.58940621C2.83333333 4.13643582 3.20053839 3.76923077 3.65350877 3.76923077zM13.0979532 3.76923077C13.5509236 3.76923077 13.9181287 4.13643582 13.9181287 4.58940621L13.9181287 5.8 12.2777778 5.8 12.2777778 4.58940621C12.2777778 4.13643582 12.6449828 3.76923077 13.0979532 3.76923077zM3.65350877 8.38461538C4.25335138 8.38461538 4.73961988 8.87088389 4.73961988 9.4707265L4.73961988 11.3384615 2.56739766 11.3384615 2.56739766 9.4707265C2.56739766 8.87088389 3.05366617 8.38461538 3.65350877 8.38461538zM13.0979532 8.38461538C13.6977958 8.38461538 14.1840643 8.87088389 14.1840643 9.4707265L14.1840643 11.3384615 12.0118421 11.3384615 12.0118421 9.4707265C12.0118421 8.87088389 12.4981106 8.38461538 13.0979532 8.38461538zM8.28632502 8.24773838C9.05500204 8.24773838 9.67813789 8.87087423 9.67813789 9.63955125L9.67813789 12.3092768 6.89451216 12.3092768 6.89451216 9.63955125C6.89451216 8.87087423 7.517648 8.24773838 8.28632502 8.24773838zM8.37573099 2.84615385C8.82870138 2.84615385 9.19590643 3.2133589 9.19590643 3.66632928L9.19590643 5.8 7.55555556 5.8 7.55555556 3.66632928C7.55555556 3.2133589 7.92276061 2.84615385 8.37573099 2.84615385z"/>
          <rect width="1" height="1" y="4.692" fill="#DE1A23"/>
          <path fill="#DE1A23" d="M1.5 2L2.5 2 2.5 3 1.5 3 1.5 2zM5.5 2L6.5 2 6.5 3 5.5 3 5.5 2zM3.25 2L4.75 2 4.75 3 3.25 3 3.25 2zM11.5 2L12.5 2 12.5 3 11.5 3 11.5 2zM15.5 2L16.5 2 16.5 3 15.5 3 15.5 2zM13.25 2L14.75 2 14.75 3 13.25 3 13.25 2zM6.3 0L7.3 0 7.3 1 6.3 1 6.3 0zM7.8 0L8.8 0 8.8 1 7.8 1 7.8 0zM9.3 0L10.3 0 10.3 1 9.3 1 9.3 0zM10.8 0L11.8 0 11.8 1 10.8 1 10.8 0z"/>
          <rect width="1" height="1" x="17" y="5" fill="#DE1A23"/>
          <g fill="#E8AA00" transform="translate(5.421 10.4)">
            <path fill-rule="nonzero" d="M3.52904242,1.73324749 L2.64156082,2.32802395 L3.623457,2.79530909 L4.46662924,2.24393987 L3.52904242,1.73324749 Z M6.41350779,2.16566061 L3.70078058,3.9395737 L0.624894508,2.4757572 L3.51920115,0.81217683 L6.41350779,2.16566061 Z"/>
            <polygon points="1.737 6.493 3.211 6.493 3.211 7.6 3.211 7.226 2.295 7.226 2.295 7.6 1.737 7.6"/>
            <polygon points="3.077 3.6 4.328 3.6 4.328 7.6 3.077 7.6"/>
          </g>
        </g>
      </g>
    </g>
  </g>
</svg>
