<svg xmlns="http://www.w3.org/2000/svg" xmlns:xlink="http://www.w3.org/1999/xlink" width="32" height="24" viewBox="0 0 32 24">
  <defs>
    <rect id="bn---brunei-darussalam-a" width="32" height="24" x="0" y="0"/>
    <rect id="bn---brunei-darussalam-c" width="32" height="24" x="0" y="0"/>
  </defs>
  <g fill="none" fill-rule="evenodd">
    <mask id="bn---brunei-darussalam-b" fill="#fff">
      <use xlink:href="#bn---brunei-darussalam-a"/>
    </mask>
    <g mask="url(#bn---brunei-darussalam-b)">
      <mask id="bn---brunei-darussalam-d" fill="#fff">
        <use xlink:href="#bn---brunei-darussalam-c"/>
      </mask>
      <use fill="#FFD221" xlink:href="#bn---brunei-darussalam-c"/>
      <polygon fill="#313131" fill-rule="nonzero" points="-3.067 10.615 -1.059 6.036 33.768 21.308 31.76 25.887" mask="url(#bn---brunei-darussalam-d)"/>
      <polygon fill="#FAF9F9" fill-rule="nonzero" points="-3.017 5.57 -1.01 .99 35.548 17.013 33.541 21.593" mask="url(#bn---brunei-darussalam-d)"/>
      <g mask="url(#bn---brunei-darussalam-d)">
        <g transform="translate(6 2.8)">
          <path fill="#CF1225" d="M.14943022 6.67910874C1.11727193 6.71447932 1.59579573 7.04421681 1.58500162 7.66832124 1.58500162 8.36321334 3.1920089 8.99290259 3.1920089 9.39082152 3.1920089 9.6561008 3.2918771 11.1260273 3.49161351 13.800601 3.35210643 14.0440994 2.94823434 14.1658486 2.27999723 14.1658486 1.61176013 14.1658486 1.29537476 13.9734048 1.33084113 13.5885171 1.73596746 13.0917468 1.73596746 11.7613479 1.33084113 9.5973205.385131877 8.43679344-.00867175799 7.46405619.14943022 6.67910874zM19.851088 6.67910874C20.00919 7.46405619 19.6153864 8.43679344 18.6696771 9.5973205 18.2645508 11.7613479 18.2645508 13.0917468 18.6696771 13.5885171 18.7051435 13.9734048 18.3887581 14.1658486 17.720521 14.1658486 17.0522839 14.1658486 16.6484118 14.0440994 16.5089048 13.800601 16.7086412 11.1260273 16.8085094 9.6561008 16.8085094 9.39082152 16.8085094 8.99290259 18.4155166 8.36321334 18.4155166 7.66832124 18.4047225 7.04421681 18.8832463 6.71447932 19.851088 6.67910874zM10.1670431 13.7707895L10.1670431 13.8209997C10.1403787 13.8127736 10.1141143 13.8045422 10.0882498 13.7963055 10.0623853 13.8045422 10.0361209 13.8127736 10.0094566 13.8209997L10.0094566 13.7707895C9.34752604 13.5527552 8.9650745 13.3310092 8.86210198 13.1055515 8.75121471 12.8627644 8.97235699 12.8627644 9.52552882 13.1055515 9.19551843 12.66069 9.11301584 12.263305 9.27802103 11.9133965 9.52552882 11.3885338 9.65836557 11.2062979 9.65836557 10.8179422 9.65836557 10.5590384 9.61408665 10.3972559 9.52552882 10.3325946L9.65836557 10.3325946C9.4812499 9.80760247 9.43697099 9.3914146 9.52552882 9.08403107 9.65836557 8.62295576 9.79120232 8.43159349 9.65836557 8.18935662 9.56980774 8.02786537 9.52552882 7.84553237 9.52552882 7.64235761L9.65836557 7.44643216C9.65836557 7.41303357 9.65836557 7.33526534 9.65836557 7.21312747 9.65836557 7.02992067 9.52552882 7.17273848 9.52552882 6.87205408 9.52552882 6.57136967 9.03051324 6.62729289 9.27802103 6.2975789 9.52552882 5.96786491 8.77682122 7.37254749 8.20302733 7.21312747 7.82049807 7.10684746 7.98474599 6.7126017 8.69577108 6.03039018 8.10980155 6.50437831 7.63594813 6.74137238 7.27421083 6.74137238 6.91247353 6.74137238 7.15648063 6.42900495 8.00623215 5.80427007 7.33403783 6.31126844 6.79808633 6.47570472 6.39837764 6.2975789 5.99866896 6.11945309 6.17095936 5.8928799 6.91524884 5.61785934 6.4294846 6.00602086 6.00407271 6.06815777 5.63901315 5.80427007 5.27395359 5.54038237 5.09142381 5.32276393 5.09142381 5.15141473 5.32036171 5.3538254 5.68036679 5.3538254 6.17143903 5.15141473 6.9080474 4.84779873 7.85667886 3.86399379 8.69577108 4.03028179 9.2551659 4.14114046 9.65916154 4.33006121 9.90775801 4.59704403L9.90775801 3.67468629 10.0094566 3.67468629 10.2687417 3.67468629 10.2687417 4.59704403C10.5173381 4.33006121 10.9213338 4.14114046 11.4807286 4.03028179 12.3198208 3.86399379 13.2684523 4.84779873 14.0050606 5.15141473 14.4961329 5.3538254 14.856138 5.3538254 15.0850759 5.15141473 15.0850759 5.32276393 14.9025461 5.54038237 14.5374865 5.80427007 14.172427 6.06815777 13.7470151 6.00602086 13.2612508 5.61785934 14.0055403 5.8928799 14.1778307 6.11945309 13.778122 6.2975789 13.3784133 6.47570472 12.8424618 6.31126844 12.1702675 5.80427007 13.020019 6.42900495 13.2640261 6.74137238 12.9022888 6.74137238 12.5405515 6.74137238 12.0666981 6.50437831 11.4807286 6.03039018 12.1917537 6.7126017 12.3560016 7.10684746 11.9734723 7.21312747 11.3996784 7.37254749 10.6509709 5.96786491 10.8984786 6.2975789 11.1459864 6.62729289 10.6509709 6.57136967 10.6509709 6.87205408 10.6509709 7.17273848 10.5181341 7.02992067 10.5181341 7.21312747 10.5181341 7.33526534 10.5181341 7.41303357 10.5181341 7.44643216L10.6509709 7.64235761C10.6509709 7.84553237 10.6066919 8.02786537 10.5181341 8.18935662 10.3852974 8.43159349 10.5181341 8.62295576 10.6509709 9.08403107 10.7395287 9.3914146 10.6952498 9.80760247 10.5181341 10.3325946L10.6509709 10.3325946C10.562413 10.3972559 10.5181341 10.5590384 10.5181341 10.8179422 10.5181341 11.2062979 10.6509709 11.3885338 10.8984786 11.9133965 11.0634838 12.263305 10.9809812 12.66069 10.6509709 13.1055515 11.2041427 12.8627644 11.425285 12.8627644 11.3143977 13.1055515 11.2114252 13.3310092 10.8289736 13.5527552 10.1670431 13.7707895zM10.0597847.0747715194L11.1866354.879126235 10.4482366 1.07641025 11.1866354 1.71461636 10.2672765 1.48172907 10.2672765 2.12649736 11.1866354 2.12649736 11.4939955 3.63789118 11.1382683 3.38555473 10.7824933 3.63789118 10.4267509 3.38555473 10.0709912 3.63789118 9.70452579 3.38555473 9.33807803 3.63789118 8.97159681 3.38555473 8.60516482 3.63789118 9.06674985 2.12649736 9.9173749 2.12649736 9.9173749.0747715194 10.0597847.0747715194z"/>
          <path fill="#CF1225" d="M5.22926351,6.778072 C4.43350452,7.86048406 4.07990395,8.97995174 4.16846178,10.136475 C4.30129853,11.8712599 5.71671005,15.9074408 9.91573269,15.9074408 C9.9518209,15.9074408 9.98770925,15.9064621 10.0234267,15.9064621 C14.4727712,15.9064621 15.735761,11.4562154 15.735761,9.85588802 C15.735761,8.77975437 15.4002,7.7538157 14.729078,6.778072 C14.8074799,8.22207696 14.8074799,9.24801563 14.729078,9.85588802 C14.3743252,12.6063889 12.641512,13.8768259 9.99359339,13.8768259 C7.32928959,13.8768259 5.6806346,12.5583685 5.22926351,9.85588802 C5.13197265,9.27338136 5.13197265,8.24744269 5.22926351,6.778072 Z"/>
          <path fill="#CF1225" d="M3.06555723,16.9512438 C3.20999985,16.5375802 3.37099975,16.3307485 3.54855695,16.3307485 C3.81489274,16.3307485 3.03897095,15.7922933 3.54855695,15.6399608 C4.05814294,15.4876282 4.84229606,16.2469607 4.84229606,15.4876282 C4.84229606,14.7282958 4.17915306,14.3140173 4.66641036,14.3140173 C4.99124857,14.3140173 5.32311968,14.2655376 5.66202369,14.1685781 C7.04413141,15.610025 8.42702758,16.3307485 9.81071218,16.3307485 C11.1943968,16.3307485 12.7182033,15.6585047 14.3821319,14.3140173 C14.9954138,14.1580278 15.3020547,14.2016531 15.3020547,14.4448932 C15.3020547,14.6881333 15.2347848,14.9933485 15.1002451,15.3605388 C15.5299776,15.2758126 15.8541535,15.2758126 16.0727728,15.3605388 C16.2913921,15.4452651 16.2913921,15.6902852 16.0727728,16.0955991 L16.0727728,16.3307485 C16.6415866,16.2055038 16.9259935,16.2549544 16.9259935,16.4791003 C16.9259935,16.8153193 16.5141428,16.6232774 15.6794663,16.7192983 C14.8447898,16.8153193 14.5280252,17.467854 14.0036796,17.467854 C13.6541158,17.467854 13.4416779,17.2956506 13.3663659,16.9512438 C12.2831094,17.5384376 11.0978915,17.8320345 9.81071218,17.8320345 C8.52353291,17.8320345 7.49117817,17.5384376 6.71364796,16.9512438 C6.83506807,17.5540366 6.69015238,17.7908365 6.27890091,17.6616435 C5.66202369,17.467854 5.03095452,16.2389023 4.28975573,16.4791003 C3.79562321,16.6392323 3.38755704,16.7966135 3.06555723,16.9512438 Z"/>
          <path fill="#F6E017" fill-rule="nonzero" d="M6.4012624 13.0257493C6.40246449 13.0258949 6.40331722 13.0258891 6.40368978 13.0257228 6.40360295 13.0257616 6.40279383 13.0257704 6.4012624 13.0257493zM6.183099 13.2408272C6.13502368 13.2930135 6.09836276 13.3308241 6.06185109 13.3648338 6.00970661 13.4134051 5.9622526 13.4496837 5.91588145 13.4741477 5.75166215 13.5607845 5.63821384 13.464139 5.5918957 13.2644763 5.56180544 13.1347667 5.55283237 12.967919 5.55293071 12.6902586 5.55294175 12.6590878 5.55302261 12.6335003 5.55324804 12.57888 5.55348844 12.5206327 5.55356482 12.4962967 5.55356482 12.4655413 5.55356482 12.3591927 5.54496438 12.3411927 5.54492075 12.3411927 5.52206621 12.3411927 5.51427718 12.3451579 5.35719523 12.4348172 5.22144164 12.5123027 5.12559702 12.5496534 5.0192225 12.5496534 4.85091261 12.5496534 4.78961518 12.4291847 4.86874429 12.2736711 4.925959 12.1612261 5.06016367 12.0029735 5.27380862 11.7930337L5.38719038 11.9145342C5.18579933 12.1124326 5.0606065 12.2600586 5.01406221 12.3515328 4.98943232 12.3999383 4.98001439 12.3814291 5.0192225 12.3814291 5.08969967 12.3814291 5.16465521 12.3522189 5.27750835 12.2878046 5.29181169 12.2796405 5.33939678 12.2519605 5.34329972 12.2497101 5.36947599 12.2346166 5.38899726 12.2238134 5.4076787 12.2143031 5.4609266 12.1871957 5.50300882 12.1729684 5.54492075 12.1729684 5.66730643 12.1729684 5.71749925 12.2780177 5.71749925 12.4655413 5.71749925 12.4966172 5.7174224 12.5211022 5.71718099 12.5795925 5.71695645 12.6339983 5.71687606 12.6594362 5.71686513 12.6903197 5.71677157 12.954495 5.72530338 13.113138 5.75137367 13.2255187 5.77650701 13.3338605 5.79438529 13.3490909 5.84092612 13.3245374 5.87250612 13.3078768 5.90923906 13.2797945 5.95166788 13.2402731 5.98444764 13.2097395 6.01852304 13.1745955 6.06396929 13.1252631 6.26753311 12.9042923 6.2700917 12.9017158 6.33785288 12.8714646 6.48769614 12.8045689 6.55737705 12.9272854 6.55737705 13.1592416 6.55737705 13.525285 6.57040027 13.8022818 6.60451697 13.9862489 6.61954624 14.067291 6.63855239 14.1222991 6.6525342 14.1438881 6.66709061 14.132577 6.68692733 14.1097682 6.71010048 14.0749376 6.98287107 13.6649471 7.58667505 13.6053411 7.58667505 13.9464386 7.58667505 14.0116253 7.58024962 14.0293225 7.48899372 14.2527914 7.47683343 14.2825697 7.46734026 14.3064385 7.45866664 14.3292675 7.41691257 14.4391643 7.39892338 14.5160366 7.40522178 14.5641673 7.41012687 14.6016506 7.43021658 14.6169987 7.50470784 14.6169987 7.59497715 14.6169987 7.67023617 14.5429036 7.76526501 14.3760839 7.77936724 14.3513279 7.82542884 14.2672767 7.82833044 14.2620715 7.85364033 14.2166686 7.87288318 14.1849036 7.89258825 14.1574363 8.03517413 13.9586824 8.18745764 14.0335639 8.32837851 14.3666376 8.37561753 14.4782895 8.51009551 14.8070595 8.53350993 14.8620832 8.59318459 15.0023182 8.63413133 15.0832917 8.6710252 15.1317619 8.71838937 15.1939876 8.74407977 15.1937585 8.83575201 15.1153441 8.87162308 15.0846607 8.91084991 15.0550399 8.95541333 15.0243584 8.99987306 14.9937483 9.14983868 14.8990336 9.17586462 14.880855 9.21551313 14.8531613 9.23445625 14.8342649 9.23873651 14.8333978 9.23276764 14.8351661 9.19726421 14.811569 9.11291302 14.7801861 8.86189962 14.6867966 8.82189673 14.5171429 9.02374064 14.416816 9.14676322 14.3556674 9.36723172 14.316023 9.56585356 14.316023 9.69109668 14.316023 9.75318047 14.4015995 9.75035293 14.5284216 9.74872178 14.601583 9.73657638 14.6558027 9.68850968 14.8362262 9.68243428 14.8590309 9.67808615 14.8755483 9.67390575 14.891803 9.63325026 15.0498847 9.62209934 15.1441831 9.64117648 15.2003849 9.65891303 15.2526373 9.71677034 15.2734773 9.86492198 15.2441613 10.1019534 15.1972578 10.1916158 15.1240776 10.2139181 15.0174194 10.2201903 14.9874234 10.2216151 14.9611396 10.2216944 14.9021829 10.2219601 14.7046015 10.2770378 14.6169987 10.4856818 14.6169987 10.7025851 14.6169987 10.8094174 14.7127149 10.8923932 14.90673 10.8980545 14.9199673 10.9038055 14.9338749 10.9142685 14.9592955 10.9469053 15.0380128 10.9681049 15.0739284 10.9985938 15.0880361 10.9944613 15.0799382 10.9907363 15.0725739 10.9884376 15.0678708 10.8614246 14.8080015 10.9210954 14.5729681 11.3025164 14.3287729 11.449372 14.2347523 11.8644947 13.9316754 11.9244484 13.9159903 12.022512 13.8903349 12.0770627 13.9537762 12.0936714 14.0616399 12.0988558 14.0953089 12.1020262 14.1368578 12.1048028 14.1997065 12.106227 14.2319433 12.1110583 14.3691443 12.1121411 14.3967529 12.1239125 14.6969062 12.1867421 14.973481 12.2583158 15.0611576 12.3257001 15.006987 12.3762176 14.8801464 12.4248284 14.6807022 12.5366201 14.2220351 12.6964656 13.7886677 12.856534 13.5183812 12.9462392 13.3669077 13.0350745 13.2665792 13.1260434 13.2255813 13.2450365 13.1719533 13.355691 13.2225557 13.4302538 13.357963 13.5489476 13.573513 13.7334543 13.7755246 13.8667863 13.8268915 13.9895627 13.8741919 14.0631589 13.773561 14.0631589 13.3993425 14.0631589 12.9790788 14.1323736 12.6392216 14.2485285 12.3732095 14.3198381 12.2098998 14.3929225 12.1063535 14.4449188 12.0553903L14.5581483 12.1770403C14.5505313 12.184506 14.5343184 12.2034308 14.512229 12.2347272 14.473724 12.2892812 14.434788 12.3580479 14.3981312 12.4419974 14.2915314 12.6861269 14.2270933 13.0025301 14.2270933 13.3993425 14.2270933 13.8726075 14.0714475 14.0854276 13.809167 13.9843825 13.6324022 13.9162828 13.4233807 13.6874307 13.2875293 13.4407221 13.2513987 13.3751085 13.2268509 13.3638827 13.191964 13.3796056 13.1393883 13.4033004 13.0703318 13.4812912 12.9966275 13.605746 12.8462623 13.859648 12.6919805 14.2779313 12.5838641 14.7215195 12.4708534 15.1851879 12.3046961 15.3799404 12.1326481 15.1691841 12.0310897 15.0447767 11.9614691 14.7383077 11.9483393 14.4035175 11.9472294 14.3752186 11.9424199 14.238636 11.9410366 14.2073252 11.9388211 14.1571783 11.9363946 14.1228408 11.9331316 14.0977002 11.8345479 14.1620292 11.5407765 14.3745128 11.3892913 14.4714975 11.0808674 14.6689581 11.0453123 14.8090038 11.1349742 14.9924525 11.1412486 15.00529 11.1634091 15.0479631 11.1672628 15.0557656 11.1817518 15.0851012 11.1898053 15.1061297 11.1928307 15.1299353 11.2047203 15.2234894 11.1375681 15.2640656 11.0410605 15.2640656 10.8965774 15.2640656 10.8324531 15.1916586 10.7634194 15.0251547 10.7527526 14.9992469 10.747469 14.9864697 10.742279 14.9743343 10.6828368 14.8353458 10.6268929 14.785223 10.4856818 14.785223 10.3864202 14.785223 10.3857849 14.7862335 10.3856287 14.902415 10.3855338 14.9729603 10.3836626 15.0074785 10.3742042 15.0527123 10.3365115 15.2329733 10.1922539 15.3507127 9.89596204 15.4093425 9.67697449 15.4526755 9.53598057 15.4018899 9.48636481 15.2557204 9.45250007 15.155954 9.46618339 15.0402402 9.51539833 14.8488766 9.51972599 14.8320493 9.52418611 14.8151065 9.53037798 14.7918646 9.57379383 14.6288986 9.58527853 14.5776284 9.58646139 14.5245738 9.5873745 14.4836186 9.58783063 14.4842473 9.56585356 14.4842473 9.38992247 14.4842473 9.19283458 14.5196874 9.09520452 14.5682146 9.07628044 14.5776209 9.0685462 14.5824315 9.06429065 14.5794679 9.0737855 14.5788783 9.10764216 14.5992854 9.16879027 14.6220356 9.32441915 14.6799373 9.40248318 14.7385791 9.40361492 14.8321476 9.40450929 14.9060914 9.35925855 14.9562545 9.26810844 15.0199209 9.23807341 15.0408998 9.08748361 15.1360087 9.04674949 15.1640538 9.00659163 15.1917021 8.97181679 15.2179612 8.94071749 15.2445628 8.78360404 15.3789542 8.65205742 15.3801277 8.54183051 15.2353145 8.49384339 15.1722703 8.44828398 15.0821752 8.38327439 14.9294031 8.35925552 14.872959 8.22468817 14.5439705 8.17800515 14.4336327 8.07901748 14.1996703 8.06928786 14.194886 8.02460682 14.257168 8.00948777 14.2782428 7.99306105 14.305359 7.97062803 14.3456012 7.9683326 14.3497189 7.92172323 14.4347697 7.90679271 14.4609797 7.7842725 14.6760596 7.67339428 14.785223 7.50470784 14.785223 7.35304997 14.785223 7.25937861 14.7136603 7.24274573 14.5865563 7.23160167 14.5013964 7.25451313 14.4034901 7.30593025 14.2681602 7.31517813 14.2438197 7.32515252 14.218741 7.3377977 14.1877753 7.41102371 14.0084583 7.42274062 13.976187 7.42274062 13.9464386 7.42274062 13.8315197 7.04578781 13.8687316 6.84549076 14.16979 6.75794087 14.3013827 6.66358127 14.3566231 6.5699466 14.293174 6.50588439 14.2497639 6.46959539 14.158559 6.44347274 14.0176981 6.40680929 13.8199982 6.39344262 13.5356966 6.39344262 13.1592416 6.39344262 13.1024986 6.38962538 13.0611999 6.38401709 13.0359301 6.35614762 13.053849 6.31927772 13.0930036 6.183099 13.2408272zM9.06402407 14.5722756C9.06108586 14.570271 9.0596253 14.5691038 9.05958457 14.5689311 9.0612196 14.5758653 9.06275067 14.5799925 9.06532598 14.581786L9.06402407 14.5722756zM11.9634447 14.0793666C11.9640958 14.0792718 11.9647084 14.0791494 11.9652785 14.0790003 11.9650874 14.0790503 11.9648799 14.0791128 11.9646562 14.0791876L11.9634447 14.0793666zM7.84632518 16.8013452L7.84533507 16.7947688C7.82978976 16.6915534 7.81384773 16.6124554 7.79336069 16.5527285 7.87438228 16.6551522 7.90265393 16.7680948 7.86203067 16.8963283 7.85654534 16.866376 7.85135133 16.8347341 7.84632518 16.8013452zM7.8326129 16.9502715C7.75989865 17.1464526 7.64518411 17.21145 7.51556158 17.1133579 7.47618865 17.0835624 7.43792384 17.0411399 7.38457576 16.972564 7.38020832 16.9669499 7.27968217 16.8342779 7.24751455 16.7942482 7.13585472 16.6552979 7.03968118 16.5682923 6.93520653 16.5237701 6.75678013 16.4477331 6.76455025 16.4511014 6.71474976 16.4267934 6.56149594 16.351989 6.47405531 16.2745245 6.3898731 16.1295552 6.32402934 16.0161663 6.26027106 15.8626429 6.15224828 15.5656849L6.30583136 15.5068547C6.41043492 15.7944131 6.47156069 15.9415977 6.5307007 16.0434421 6.59743792 16.1583696 6.6599756 16.2137723 6.78516675 16.2748791 6.83113188 16.2973151 6.82425571 16.2943343 6.99808009 16.3684101 7.13285147 16.4258434 7.24676064 16.5288939 7.37399254 16.6872222 7.40795529 16.7294857 7.50963764 16.8636837 7.51269327 16.8676115 7.55753989 16.9252593 7.58835781 16.9594257 7.61285964 16.9779675 7.62616375 16.9880354 7.62693207 16.9887362 7.62520586 16.989786 7.63661507 16.9828483 7.65683624 16.9513099 7.6793874 16.8904675 7.72965813 16.7548385 7.68553514 16.6497646 7.56331872 16.5403375 7.54584998 16.5246968 7.40957246 16.4201817 7.39000487 16.3910792 7.34340098 16.3217662 7.3833142 16.2514417 7.45525929 16.23232 7.48765858 16.2237089 7.53555421 16.2205104 7.61199906 16.2205104 7.87670402 16.2205104 7.94951135 16.3760129 7.99859726 16.7736268L7.99941014 16.7802138C8.03807828 17.0936005 8.07722213 17.1796609 8.2109944 17.1796609 8.36191397 17.1796609 8.45382588 17.119593 8.61427101 16.9482451 8.6317341 16.9295568 8.6317341 16.9295568 8.64942257 16.9106695 8.8538856 16.6930438 8.9970768 16.6198462 9.2376096 16.6864402 9.4297478 16.7396358 9.5118633 16.8341139 9.53117881 16.9805865 9.53333319 16.9969236 9.53438494 17.0086988 9.53649924 17.0365664 9.54586908 17.1600658 9.56766021 17.1796609 9.80673843 17.1796609 9.98805729 17.1796609 10.1567945 17.1893259 10.3769249 17.2087962 10.3883962 17.2098109 10.5557079 17.2251046 10.5977948 17.2285723 10.6694467 17.234476 10.7202676 17.2373101 10.7604592 17.2373101 10.7890629 17.2373101 10.8111294 17.2357719 10.8262221 17.2331879 10.8324237 17.1850055 10.8608106 17.1511065 10.9756853 17.0210189 10.9889785 17.0059652 10.9992071 16.9942065 11.008744 16.982949 11.0623999 16.9196132 11.0861078 16.8772096 11.0846326 16.8703824 11.0843575 16.8691093 11.0363186 16.8517608 10.9066154 16.8517608 10.7874749 16.8517608 10.7278699 16.836943 10.7171145 16.7529028 10.7081168 16.682596 10.7487115 16.6486217 10.8387564 16.6007295 10.9418966 16.5458724 11.129868 16.4745663 11.3554136 16.4027514 11.5725248 16.3336221 11.8016716 16.2714401 11.9760518 16.2348791 12.0703027 16.2151183 12.1470372 16.2030903 12.2029325 16.1999178 12.3094946 16.1938694 12.3728664 16.2087133 12.3728664 16.3046226 12.3728664 16.3446556 12.4853942 16.4821346 12.5976064 16.5445461 12.7315943 16.6190691 12.8267506 16.5907766 12.8924071 16.4158573 12.9882526 16.1605096 13.1880352 15.8847111 13.3827268 15.726805 13.4872001 15.6420712 13.5833554 15.5964625 13.6665383 15.6039693 13.7788216 15.6141024 13.8374767 15.7104644 13.8374767 15.8560807L13.6735423 15.8560807C13.6735423 15.7877846 13.6643258 15.7726433 13.6521767 15.7715468 13.6212622 15.768757 13.5589179 15.7983283 13.4843793 15.8587835 13.3125375 15.9981571 13.1305831 16.2493438 13.0453858 16.4763229 12.9420683 16.7515772 12.7359789 16.8128532 12.5194891 16.6924432 12.3867718 16.6186269 12.2599025 16.4784591 12.2210356 16.3674702 12.1656491 16.3705154 12.0959523 16.3814402 12.0088682 16.3996984 11.8402497 16.4350514 11.616238 16.4958399 11.4039951 16.5634191 11.2634679 16.6081637 11.1381909 16.6526713 11.0422845 16.6918196 11.1593156 16.7085877 11.2269922 16.7521045 11.2446802 16.8339678 11.2623569 16.9157787 11.2225459 16.986984 11.1324641 17.0933174 11.1220659 17.1055916 11.1111484 17.1181423 11.0971637 17.133979 11.0178414 17.223806 10.9885826 17.2622457 10.9885826 17.263773 10.9885826 17.3749317 10.9041291 17.4055344 10.7604592 17.4055344 10.7149066 17.4055344 10.6603421 17.4024915 10.5846742 17.3962569 10.5417432 17.3927196 10.3736839 17.3773576 10.362847 17.3763991 10.1469963 17.3573073 9.98249981 17.3478852 9.80673843 17.3478852 9.48392171 17.3478852 9.389228 17.2627346 9.3730594 17.0496239 9.37119057 17.0249918 9.37031862 17.0152295 9.36872507 17.0031454 9.35832353 16.9242689 9.32379394 16.8845408 9.19490693 16.848857 9.02677475 16.8023078 8.93474726 16.8493512 8.76744064 17.0274285 8.75014513 17.0458963 8.75014513 17.0458963 8.73247962 17.0648009 8.54361748 17.2664968 8.41908246 17.3478852 8.2109944 17.3478852 7.9756316 17.3478852 7.89852802 17.2219561 7.84964756 16.8963283 7.84505512 16.9140143 7.83938847 16.9319913 7.8326129 16.9502715zM10.8502075 16.6807613C10.8484783 16.6800756 10.8467987 16.6795451 10.8451971 16.6791469 10.8458298 16.6793042 10.8464938 16.679459 10.847189 16.6796113L10.8502075 16.6807613zM12.208932 16.3046226C12.208932 16.3049924 12.208932 16.3053608 12.208932 16.3057277 12.208932 16.3054357 12.208932 16.3050288 12.208932 16.3046226zM10.8378801 17.230845C10.8393758 17.23041 10.8407614 17.229961 10.8420363 17.2294991 10.8416074 17.2296545 10.8411261 17.2298968 10.840603 17.2302218L10.8378801 17.230845z"/>
        </g>
      </g>
    </g>
  </g>
</svg>
