<svg xmlns="http://www.w3.org/2000/svg" xmlns:xlink="http://www.w3.org/1999/xlink" width="32" height="24" viewBox="0 0 32 24">
  <defs>
    <rect id="as---american-samoa-a" width="32" height="24" x="0" y="0"/>
  </defs>
  <g fill="none" fill-rule="evenodd">
    <mask id="as---american-samoa-b" fill="#fff">
      <use xlink:href="#as---american-samoa-a"/>
    </mask>
    <g mask="url(#as---american-samoa-b)">
      <polygon fill="#F7FCFF" points="0 0 32 0 32 24 0 24"/>
      <path fill="#3547A0" stroke="#E31D1C" stroke-width="2" d="M1,10.5569995 L-2.84800125,12 L1,13.4430005 L1,10.5569995 Z M2.84800125,12 L37.5146679,25 L-1,25 L-1,-1 L37.5146679,-1 L2.84800125,12 Z"/>
      <g transform="translate(17.9 5.1)">
        <path fill="#9C3900" d="M11.1223888,0.0100712865 C9.78220501,0.371714264 8.86979202,0.61826521 8.38514984,0.749724124 C8.28709037,0.776322699 8.10000916,0.823903774 8.11336849,0.556905355 C7.65283175,0.852515618 6.91041718,1.15129871 6.60605087,1.23608507 C6.45290992,1.27874505 6.49381243,1.01374022 6.42842442,0.937890061 C6.29588917,1.13326081 5.95526634,1.41949747 5.85863501,1.44745971 C4.90038601,1.7247486 4.26412451,1.92630969 3.94985052,2.05214299 C3.65046266,2.34010212 3.50076872,2.59823371 3.50076872,2.82653776 C3.50076872,3.16899383 3.45291094,3.46147035 3.14378874,3.46147035 C2.83466653,3.46147035 2.12168324,4.08352359 2.38285,4.43405328 C2.64401675,4.78458297 3.50076872,4.59792856 3.50076872,4.43405328 C3.50076872,4.27017801 4.11149263,4.06516571 4.11149263,4.2496095 C4.11149263,4.37257202 4.05761193,4.54525779 3.94985052,4.76766682 L4.62415691,4.76766682 L4.11149263,5.03284681 L4.62415691,5.03284681 L4.11149263,5.34694909 L5.071383,5.34694909 L4.45792437,5.62058716 L4.88346795,5.62058716 L4.62415691,5.98072831 L5.28908708,5.98072831 C5.46163554,6.15520822 5.62920289,6.29012098 5.79178913,6.38546659 C6.03566848,6.52848502 6.57636375,7.74567943 6.30601611,8.21702509 C6.03566848,8.68837074 6.36734774,8.75847214 6.42842442,8.55140148 C6.48950111,8.34433082 6.61588281,8.04758417 6.72440905,8.04758417 C6.79675989,8.04758417 6.90235105,8.04758417 7.04118255,8.04758417 C7.13929626,8.30574556 7.18835312,8.43482625 7.18835312,8.43482625 C7.18835312,8.43482625 7.5376524,8.80810212 7.5376524,8.80810212 C7.5376524,8.80810212 7.56252477,8.48363678 7.62805459,8.43482625 C7.80987269,8.45332913 7.94486654,8.45189213 8.03303613,8.43051525 C7.99388719,8.11594266 7.97585743,7.93750514 7.97894687,7.89520268 C8.26080958,7.99085232 8.46212973,8.03760829 8.58290735,8.0354706 C8.40149957,7.75182323 8.31079567,7.56158092 8.31079567,7.46474368 C8.64773722,7.48189268 8.81620799,7.56211534 8.81620799,7.70541166 C8.77889341,7.34775279 8.76023611,7.16892336 8.76023611,7.16892336 C9.07917204,7.03325146 9.24421547,6.9083155 9.2553664,6.79411548 C9.04639506,6.76855824 8.94190939,6.75577962 8.94190939,6.75577962 C9.05042581,6.61801754 9.09965162,6.53553843 9.08958682,6.5083423 C8.78081223,6.46915136 8.62642494,6.44955589 8.62642494,6.44955589 C8.96380094,6.33214934 9.14520872,6.23633344 9.17064829,6.16210818 C9.09495713,6.043134 9.02241573,5.96028673 8.95302412,5.91356638 C8.71735813,5.76084049 8.59952513,5.68447754 8.59952513,5.68447754 C9.1265635,5.68789784 9.43419161,5.68960799 9.52240947,5.68960799 C9.66015484,5.64010865 9.67601234,5.57299714 9.56998195,5.48827346 C9.46619623,5.42590049 9.42138735,5.36458449 9.43555531,5.30432545 C9.50610546,5.16879607 9.53330697,5.08923846 9.51715985,5.06565264 C9.5924407,5.16543515 9.63008112,5.09204121 9.63008112,4.84547083 C9.63201202,4.5976416 9.60925157,4.46776521 9.56179977,4.45584166 C9.70051059,4.35380271 9.74259208,4.27021913 9.68804424,4.20509092 C9.60622248,4.1073986 8.73011412,3.84734892 8.5204549,3.84734892 C9.59058221,3.16906068 10.1256459,2.82991656 10.1256459,2.82991656 C10.1998165,2.54976074 10.2912082,2.32595674 10.3998212,2.15850456 C10.6841941,1.90321717 10.8550302,1.67555345 10.9123296,1.47551341 C10.9696289,1.27547336 11.078978,0.928764204 11.2403769,0.435385934 L11.2403769,0.0967049804 L11.1223888,0.0100712865 Z"/>
        <path fill="#212121" fill-rule="nonzero" d="M8.34909277,6.47854354 L8.6048576,6.38953761 C8.77070527,6.33182277 8.89759505,6.2796705 8.98492016,6.23354716 C9.03810666,6.20545513 9.07442947,6.18042851 9.09371333,6.1620745 C9.03057912,6.06816861 8.97113505,6.00289312 8.91744503,5.96673364 L8.38148769,5.61940069 L8.59995173,5.62081845 C9.10586852,5.62410168 9.4096471,5.62580911 9.51089628,5.62593944 C9.59137443,5.59645733 9.59179704,5.58799675 9.53245711,5.54030007 C9.41014977,5.46584768 9.35062614,5.38313767 9.3725303,5.28997508 C9.41191725,5.21010638 9.43516197,5.15896007 9.44755661,5.12270885 C9.45291119,5.10704804 9.45592819,5.09502378 9.45678154,5.08741106 C9.45705402,5.08889431 9.48808942,5.07345083 9.54988773,5.04108059 C9.55932704,5.00740691 9.5653914,4.94048177 9.565393,4.84498275 C9.56633147,4.72453098 9.56131168,4.63350635 9.55070999,4.57301066 C9.54596943,4.54595996 9.54029844,4.52628365 9.53460538,4.51478599 C9.53459595,4.51476695 9.49462373,4.50469796 9.41468871,4.48457904 L9.52306803,4.40485266 C9.63604937,4.32174092 9.66077695,4.27262622 9.63812487,4.24558044 C9.57395195,4.16896022 8.72063275,3.9110094 8.5204549,3.9110094 L8.30055192,3.9110094 L10.0695011,2.78978076 C10.1441085,2.51481299 10.2358174,2.2930344 10.3452925,2.12425296 C10.6324859,1.8634671 10.7966636,1.64467668 10.8500659,1.4582418 C10.9072693,1.25853675 11.015764,0.914418667 11.1756869,0.425393129 L11.1756869,0.128633939 L11.109026,0.0796876864 C9.78550053,0.436840623 8.88326418,0.680645417 8.40233971,0.811095906 C8.30816991,0.83663941 8.25095517,0.844047422 8.18766982,0.824016548 C8.11820951,0.802031196 8.07357308,0.748990594 8.05622439,0.667322766 C7.63751093,0.91675276 6.98305313,1.19722663 6.62367048,1.29733871 C6.55118327,1.31753124 6.49126265,1.29320864 6.45537953,1.23498031 C6.433646,1.19971283 6.42353127,1.16321625 6.40986673,1.0910208 C6.24687616,1.25553164 5.98095074,1.4784208 5.87688451,1.50853449 C4.9325931,1.78178446 4.30168312,1.98132818 3.98600875,2.10641814 C3.7039627,2.3799458 3.56545875,2.62094744 3.56545875,2.82653776 C3.56545875,3.03664718 3.54732885,3.18371789 3.49763739,3.29755191 C3.4332875,3.44496571 3.31597251,3.52513083 3.14378874,3.52513083 C3.01298909,3.52513083 2.77263955,3.66946603 2.59731587,3.85914871 C2.40511497,4.06709085 2.33971173,4.26849195 2.43501954,4.39641106 C2.53579036,4.53166244 2.76517947,4.58895497 3.03356169,4.56358632 C3.14761924,4.55280511 3.25725964,4.52723785 3.33765919,4.49383367 C3.40280786,4.46676588 3.4360787,4.43882453 3.4360787,4.43405328 C3.4360787,4.31924765 3.59045366,4.2130613 3.78619131,4.15065076 C3.8727355,4.12305633 3.95592075,4.10937131 4.02082678,4.11408373 C4.1118352,4.12069129 4.17618265,4.16587451 4.17618265,4.2496095 C4.17618265,4.36584363 4.13406656,4.51660803 4.05063077,4.70400634 L4.88626831,4.70400634 L4.37360403,4.96918633 L4.85045697,4.96918633 L4.33779269,5.28328862 L5.37079564,5.28328862 L4.757337,5.55692668 L5.00858851,5.55692668 L4.74927747,5.91706783 L5.31639884,5.91706783 L5.33544704,5.93632924 C5.50428092,6.10705298 5.66753643,6.23849418 5.82490481,6.33077988 C5.96610552,6.41358436 6.1680157,6.76756728 6.30297496,7.15760306 C6.46029323,7.61225699 6.49657895,8.01429434 6.36235167,8.2483169 C6.2561161,8.43353647 6.24568585,8.55520244 6.28634789,8.59142209 C6.30679248,8.60963308 6.34925064,8.59145404 6.36629859,8.53365573 C6.45688457,8.22653857 6.58488478,7.98392369 6.72440905,7.98392369 L7.0860548,7.98392369 L7.24451153,8.40086248 L7.48929544,8.66244882 C7.49204659,8.64372939 7.49503062,8.62528692 7.49825682,8.60732527 C7.51912501,8.49114316 7.54336203,8.41807018 7.58901297,8.38406663 L7.63470881,8.37150346 C7.77319035,8.38559615 7.8825012,8.38768364 7.96142904,8.37841027 C7.92654314,8.09408187 7.91109591,7.93619939 7.91442327,7.89063919 L7.92045747,7.80801521 L8.0000357,7.83501995 C8.19338198,7.90063168 8.34740361,7.94255783 8.46043894,7.9610027 C8.31736442,7.72592142 8.24610565,7.5637764 8.24610565,7.46474368 L8.24610565,7.39770564 L8.31413692,7.40116817 C8.49345248,7.41029463 8.63263038,7.43748544 8.72818901,7.48506393 L8.69104129,7.12900449 L8.7345681,7.11048866 C8.9658893,7.01208712 9.10859452,6.92112511 9.16438768,6.84713898 L8.82116035,6.8051622 L8.89078169,6.7167776 C8.94207645,6.65165868 8.97942869,6.59968135 9.00255652,6.56148384 L8.34909277,6.47854354 Z M9.45678154,5.08794974 C9.45681126,5.08768463 9.45684014,5.08742123 9.45686818,5.08715953 C9.45683053,5.08751086 9.45687331,5.08831354 9.45710079,5.0895777 L9.45678154,5.08794974 Z M8.81252157,7.67007747 L8.82410307,7.77007747 C8.82410307,7.73544214 8.82024257,7.7021088 8.81252157,7.67007747 Z M8.37556407,7.46898413 C8.35178283,7.46710319 8.33161072,7.46580308 8.31079567,7.46474368 C8.31079567,7.48029799 8.31313582,7.49826215 8.31781611,7.51863614 C8.34796831,7.63614744 8.43548815,7.80496743 8.58290735,8.0354706 C8.47153864,8.03744176 8.29168754,7.99784042 8.04335407,7.91666659 C8.04321501,7.91177592 8.02174594,7.90462128 7.97894687,7.89520268 L7.95785804,7.95538541 C7.98768452,8.04877844 8.0049099,8.20451323 8.03303613,8.43051525 C7.94486654,8.45189213 7.80987269,8.45332913 7.62805459,8.43482625 C7.56252477,8.48363678 7.5376524,8.80810212 7.5376524,8.80810212 L7.18835312,8.43482625 L7.04118255,8.04758417 L6.72440905,8.04758417 C6.61588281,8.04758417 6.48950111,8.34433082 6.42842442,8.55140148 C6.36734774,8.75847214 6.03566848,8.68837074 6.30601611,8.21702509 C6.57636375,7.74567943 6.03566848,6.52848502 5.79178913,6.38546659 C5.62920289,6.29012098 5.46163554,6.15520822 5.28908708,5.98072831 L4.62415691,5.98072831 L4.83763075,5.68424764 L4.88346795,5.68424764 L4.86413126,5.6474427 L4.88346795,5.62058716 L4.85002181,5.62058716 L4.83068512,5.58378222 L4.80418461,5.62058716 L4.45792437,5.62058716 L4.92866503,5.41060957 L5.071383,5.41060957 L5.05865298,5.35262742 L5.04467629,5.28896694 L4.91468833,5.34694909 L4.11149263,5.34694909 L4.52025301,5.09650728 L4.62415691,5.09650728 L4.60845856,5.04246497 L4.5899663,4.97880449 L4.50176075,5.03284681 L4.11149263,5.03284681 L4.50108407,4.8313273 L4.62415691,4.8313273 L4.61002452,4.77497692 L4.59405879,4.71131644 L4.48511835,4.76766682 L3.94985052,4.76766682 C4.05761193,4.54525779 4.11149263,4.37257202 4.11149263,4.2496095 C4.11149263,4.06516571 3.50076872,4.27017801 3.50076872,4.43405328 C3.50076872,4.59792856 2.64401675,4.78458297 2.38285,4.43405328 C2.12168324,4.08352359 2.83466653,3.46147035 3.14378874,3.46147035 C3.45291094,3.46147035 3.50076872,3.16899383 3.50076872,2.82653776 C3.50076872,2.59823371 3.65046266,2.34010212 3.94985052,2.05214299 C4.26412451,1.92630969 4.90038601,1.7247486 5.85863501,1.44745971 C5.95526634,1.41949747 6.29588917,1.13326081 6.42842442,0.937890061 C6.49381243,1.01374022 6.45290992,1.27874505 6.60605087,1.23608507 C6.91041718,1.15129871 7.65283175,0.852515618 8.11336849,0.556905355 C8.10000916,0.823903774 8.28709037,0.776322699 8.38514984,0.749724124 C8.86979202,0.61826521 9.78220501,0.371714264 11.1223888,0.0100712865 L11.2403769,0.0967049804 L11.2403769,0.435385934 C11.078978,0.928764204 10.9696289,1.27547336 10.9123296,1.47551341 C10.8550302,1.67555345 10.6841941,1.90321717 10.3998212,2.15850456 C10.2912082,2.32595674 10.1998165,2.54976074 10.1256459,2.82991656 L8.60889672,3.79129106 C8.57386714,3.7863634 8.54390682,3.78368844 8.5204549,3.78368844 L8.53645372,3.83720824 L8.55548393,3.90086872 L8.623115,3.85800153 C8.93030848,3.90784386 9.6161127,4.11920718 9.68804424,4.20509092 C9.73470315,4.26080002 9.71066148,4.33001231 9.61591925,4.41272781 C9.6047067,4.40388781 9.59205156,4.39774023 9.57780428,4.39416022 L9.56179977,4.45584166 L9.60053152,4.50683067 C9.62162922,4.56684537 9.63137187,4.67980433 9.63008112,4.84547083 C9.63008112,5.00066259 9.61517001,5.08725115 9.58534779,5.10523653 C9.58926911,5.07433401 9.58456265,5.05017114 9.57081001,5.03008292 L9.51715985,5.06565264 L9.46522001,5.10360125 C9.4784024,5.12107411 9.49268606,5.13572974 9.5074555,5.14708406 C9.49360703,5.18643315 9.4696403,5.23884695 9.43555531,5.30432545 C9.42138735,5.36458449 9.46619623,5.42590049 9.56998195,5.48827346 C9.67601234,5.57299714 9.66015484,5.64010865 9.52240947,5.68960799 C9.44104152,5.68960799 9.17301384,5.68815311 8.71832644,5.68524334 L8.63510423,5.63131029 L8.61867989,5.68460172 C8.61444497,5.6845743 8.60791785,5.7057526 8.59909854,5.74813663 C8.63323552,5.74835817 8.66645182,5.74857253 8.69874758,5.74877972 L8.95302412,5.91356638 C9.02241573,5.96028673 9.09495713,6.043134 9.17064829,6.16210818 C9.14873181,6.2260541 9.01105539,6.30602464 8.75761904,6.40201979 L8.63469991,6.38641839 L8.64096605,6.44447509 C8.63775644,6.44560114 8.64009852,6.46730084 8.64799228,6.50957417 C8.68950519,6.49512772 8.72873095,6.48102887 8.76569979,6.46723323 L9.08958682,6.5083423 C9.09813159,6.53143116 9.06394205,6.59436581 8.98701818,6.69714622 L8.94988757,6.69260514 L8.96438571,6.72693619 C8.95719979,6.73626517 8.94970769,6.74587965 8.94190939,6.75577962 L8.97845384,6.76024902 L8.9930371,6.79478165 C9.00113373,6.78450293 9.00891784,6.77454346 9.01639164,6.76488882 L9.2553664,6.79411548 C9.24421547,6.9083155 9.07917204,7.03325146 8.76023611,7.16892336 L8.81252157,7.67007747 C8.78810997,7.55765506 8.64245747,7.49062395 8.37556407,7.46898413 Z"/>
        <path fill="#FFF" d="M9.50674516,5.69211979 C10.7791059,5.8614891 11.453768,5.94617375 11.5307315,5.94617375 C11.6461767,5.94617375 12.1265824,5.82398347 11.9620619,5.05520295 C11.7975414,4.28642243 11.8645026,3.82137204 11.3935571,3.82137204 C10.9226117,3.82137204 10.4314892,4.02596803 10.2547738,4.02596803 C10.0780584,4.02596803 10.249009,4.02596803 9.50674516,4.02596803 C8.76448135,4.02596803 4.342827,4.00043899 4.02442886,4.35508173 C3.70603072,4.70972448 2.81055444,5.20990458 2.39577952,5.38635316 C1.98100461,5.56280175 1.87465017,5.43952048 1.68817884,5.94617375 C1.56386461,6.2839426 1.45546243,6.46456966 1.36297229,6.48805492 L1.68817884,6.8507592 L2.6547138,6.8507592 C3.09836571,6.29411456 3.7807103,5.99258608 4.70174758,5.94617375 C5.62278486,5.89976142 7.22445072,5.81507677 9.50674516,5.69211979 Z"/>
        <path fill="#4D4D4D" fill-rule="nonzero" d="M1.73196793,6.75526848 L2.60811962,6.75526848 C3.07088268,6.19856271 3.7695247,5.89753391 4.69678528,5.85080798 C5.61767709,5.80440299 7.21925409,5.71972303 9.50144086,5.59677185 C10.7747051,5.76454293 11.4609624,5.85068304 11.5307315,5.85068304 C11.5981432,5.85068304 11.7045096,5.80816042 11.7787393,5.72567309 C11.8929056,5.59880655 11.9344211,5.38941802 11.8671096,5.07488128 C11.8445912,4.96965589 11.8252542,4.865481 11.8051546,4.74487878 C11.7956962,4.68812614 11.7657547,4.49999148 11.7597088,4.46357886 C11.6866443,4.02352863 11.6206747,3.91686276 11.3935571,3.91686276 C11.3672307,3.91686276 11.3403972,3.91754324 11.313046,3.91888648 C11.1412903,3.9273215 10.9641067,3.95938636 10.7378158,4.01619726 C10.6919867,4.02770278 10.5074084,4.0761387 10.4644869,4.0866595 C10.3684485,4.11020016 10.3055364,4.12145875 10.2547738,4.12145875 L9.50674516,4.12145875 C9.48523602,4.12145875 9.45995772,4.12143799 9.42587645,4.12139549 C9.40523132,4.12136974 9.31994017,4.12124994 9.32471952,4.12125648 C8.37861765,4.11996244 7.62578341,4.12535296 6.81186913,4.14717514 C6.08125784,4.16676386 5.46594044,4.19755401 4.99832904,4.24149767 C4.4806194,4.2901493 4.15104053,4.35827927 4.09714761,4.41830704 C3.80976467,4.738404 2.97995171,5.24187273 2.43428297,5.4740046 C2.37126492,5.50081298 2.31183626,5.52250507 2.24757034,5.54303724 C2.21357593,5.55389804 2.11623489,5.58288166 2.10703386,5.58574706 C1.98430052,5.62396888 1.93848793,5.65541205 1.88051129,5.75311203 C1.84869334,5.80673041 1.81588384,5.87960178 1.7794141,5.97869215 C1.68390447,6.23819727 1.59781835,6.41183957 1.50742705,6.50483706 L1.73196793,6.75526848 Z M9.50674516,5.69211979 C7.22445072,5.81507677 5.62278486,5.89976142 4.70174758,5.94617375 C3.7807103,5.99258608 3.09836571,6.29411456 2.6547138,6.8507592 L1.68817884,6.8507592 L1.36297229,6.48805492 C1.45546243,6.46456966 1.56386461,6.2839426 1.68817884,5.94617375 C1.87465017,5.43952048 1.98100461,5.56280175 2.39577952,5.38635316 C2.81055444,5.20990458 3.70603072,4.70972448 4.02442886,4.35508173 C4.342827,4.00043899 8.76448135,4.02596803 9.50674516,4.02596803 L10.2547738,4.02596803 C10.4314892,4.02596803 10.9226117,3.82137204 11.3935571,3.82137204 C11.8645026,3.82137204 11.7975414,4.28642243 11.9620619,5.05520295 C12.1265824,5.82398347 11.6461767,5.94617375 11.5307315,5.94617375 C11.453768,5.94617375 10.7791059,5.8614891 9.50674516,5.69211979 Z"/>
        <path fill="#FFC221" d="M1.60696191 6.29933226C1.12165321 6.61057172.968077774 6.87078352 1.1462356 7.07996766 1.41347235 7.39374388 1.43993627 7.43349702 1.49320204 7.43349702 1.50271071 7.20955595 1.53619903 7.09758542 1.59366698 7.09758542 1.6798689 7.09758542 2.36262171 7.4238433 2.61010535 6.87237412 2.77509445 6.50472801 2.4407133 6.31371406 1.60696191 6.29933226zM.0221114348 7.82089517L1.6975933 7.51052593 2.34025724 8.20629692 2.5256796 7.58361304 2.98635559 7.69665867 2.98635559 8.0110459 3.15643043 8.0110459 3.15643043 8.44235139 4.36122855 8.69417803 4.51237836 8.28096829C4.7739182 8.7126141 5.10557725 8.91768752 5.5073555 8.89618855 6.11002288 8.86394009 6.21752706 9.03465271 6.32349291 8.55624195 6.39413681 8.23730144 6.52795955 7.99218585 6.72496111 7.82089517L7.42815652 8.05772871C6.91313815 8.69032887 6.77875494 9.10602648 7.02500689 9.30482154L9.77876169 9.94198411 9.66994948 10.2755461 9.35390583 10.2755461 9.43922504 10.5628224 6.42984949 10.3549408C6.20629541 10.6382053 6.09451838 10.7436683 6.09451838 10.67133 6.09451838 10.5628224 6.07629439 10.5628224 5.92813382 10.5628224 5.82936011 10.5628224 5.75435332 10.4935285 5.70311345 10.3549408L5.5073555 10.4302919C5.52706667 10.4329876 5.454874 10.4078705 5.29077751 10.3549408 5.12668103 10.302011 4.99656737 10.2755461 4.90043656 10.2755461L3.88395305 10.2005756C3.88395305 10.3034857 3.88395305 10.3549408 3.88395305 10.3549408 3.88395305 10.3549408 3.61475038 10.3684031 3.70823897 10.4302919 3.7705647 10.4715511 4.43552286 10.5157279 5.70311345 10.5628224L5.58724367 10.77646C6.21394781 10.7787117 6.59318695 10.7436683 6.72496111 10.67133 6.85673527 10.5989916 6.88024472 10.6791315 6.79548946 10.9117496L7.72926358 10.9117496C7.57486722 11.0578852 7.39871808 11.130953 7.20081617 11.130953 7.00291426 11.130953 7.28698938 11.2524313 8.05304155 11.495388 7.62539811 11.6281088 7.31256098 11.6505936 7.11453016 11.5628425 6.81748393 11.4312159 7.24055061 11.8172954 7.42815652 11.9148142 7.61576243 12.0123331 6.76827432 12.0036277 6.42984949 11.6273477 6.50075387 11.8131885 6.50075387 11.9326848 6.42984949 11.9858365 6.03456128 11.5201245 5.73819181 11.2872685 5.54074107 11.2872685 5.24456495 11.2872685 5.58724367 11.7478429 5.58724367 11.7478429 5.47448373 11.5873095 5.3551335 11.5396442 5.22919299 11.604847 5.04028223 11.7026513 4.90043656 11.8133946 4.90043656 11.8133946 4.81790458 11.528925 4.55851466 11.3278776 4.12226679 11.2102524 3.46789498 11.0338147 3.68747502 10.9689765 3.15643043 10.9117496 2.62538584 10.8545227 2.59859371 10.5628224 2.5256796 10.5628224 2.47707019 10.5628224 2.26553049 10.3990066 1.8910605 10.071375 1.80778765 9.76403996 1.86376479 9.61037245 2.05899192 9.61037245 2.35183261 9.61037245 2.81628075 9.47256368 2.98635559 9.61037245 3.09973881 9.70224496 3.18039509 9.70224496 3.22832442 9.61037245 3.42783765 9.61037245 3.52759426 9.61037245 3.52759426 9.61037245 3.52759426 9.61037245 3.67053416 9.72090967 3.95641396 9.94198411L4.8072375 9.94198411C4.91593692 9.77406141 5.05658875 9.66352419 5.22919299 9.61037245 5.40179723 9.55722071 5.40179723 9.45537041 5.22919299 9.30482154 4.81733438 9.32829463 4.5280129 9.3719349 4.36122855 9.43574235 4.1944442 9.49954981 4.1644994 9.34515289 4.27139414 8.9725516L3.15643043 8.77004538 2.98635559 8.9725516 2.61731314 9.08358038 2.61731314 9.30482154 2.22832519 9.21929807 2.34025724 8.55624195 1.42990167 8.9725516.0221114348 7.82089517z"/>
        <path fill="#4D4D4D" fill-rule="nonzero" d="M0.169188525,7.85842886 L1.43977004,8.89784037 L2.42416149,8.44767378 L2.30217254,9.17030432 L2.55262311,9.22536875 L2.55262311,9.03647371 L2.94886654,8.91726134 L3.13078587,8.70065202 L4.35293586,8.92262603 L4.33365064,8.98984824 C4.28276953,9.16720369 4.26467226,9.29114439 4.2772247,9.35586544 C4.28419753,9.39181769 4.29023845,9.3945994 4.33778855,9.37640794 C4.51250085,9.30956745 4.8073169,9.2650984 5.22545275,9.24126756 L5.27210135,9.25718053 C5.47767937,9.43648978 5.47767937,9.60055806 5.24851204,9.67112783 C5.09094044,9.71965042 4.96253659,9.82056204 4.86179785,9.97618679 L4.84272928,10.0056446 L3.93403773,10.0056446 L3.50521803,9.67403293 L3.26442114,9.67403293 C3.19113634,9.77306549 3.07326883,9.76326024 2.9452359,9.65951732 C2.87500084,9.60260704 2.73315564,9.60034293 2.43739325,9.63808308 C2.42668749,9.63944916 2.41628546,9.64078808 2.40019912,9.64286687 C2.21591853,9.66668086 2.14398188,9.67403293 2.05899192,9.67403293 C1.92210056,9.67403293 1.88143644,9.77711978 1.94869709,10.0366089 C2.12804313,10.1932513 2.26876547,10.3110933 2.37057259,10.3899325 C2.42194615,10.4297161 2.46308388,10.4593065 2.49354001,10.4784847 C2.50756943,10.487319 2.51890883,10.4936685 2.52712887,10.4974365 C2.54889461,10.5004338 2.56482679,10.5062516 2.57918826,10.5156516 C2.59916828,10.528729 2.69298819,10.6537205 2.74039461,10.6938732 C2.83406258,10.7732091 2.96721365,10.827318 3.16347226,10.8484674 C3.38907678,10.8727792 3.49133027,10.8977996 3.59988126,10.948745 C3.61632657,10.9564632 3.67363705,10.9847089 3.67884818,10.9872293 C3.71251015,11.00351 3.74259944,11.0171098 3.77721968,11.0313275 C3.86881946,11.0689452 3.98317273,11.1067419 4.13936116,11.1488548 C4.552253,11.2601825 4.81886901,11.4470801 4.93215093,11.7107236 C5.00060311,11.6631381 5.06812927,11.6204021 5.13970381,11.5804521 C5.15941558,11.5694497 5.17921338,11.5587898 5.1990735,11.5485077 C5.26171349,11.5160772 5.32339242,11.5058927 5.38306602,11.5167338 C5.35845627,11.4516558 5.34900819,11.394839 5.35983979,11.3457301 C5.37715061,11.2672452 5.44289773,11.2236081 5.54074107,11.2236081 C5.7535646,11.2236081 6.04076391,11.4407517 6.41804698,11.8735648 C6.42229118,11.824644 6.4077515,11.7505388 6.36928751,11.6497245 L6.24619482,11.3270978 L6.47829087,11.5851554 C6.61517769,11.737354 6.86458615,11.8422661 7.13667493,11.8859248 C7.1911412,11.8946643 7.2432718,11.9001516 7.28851741,11.9024297 C7.20509278,11.8435267 7.1114318,11.7656176 7.04344883,11.6975093 C6.98126921,11.635215 6.9489723,11.5926308 6.94720304,11.5512721 C6.94474924,11.4939114 6.99198844,11.467276 7.04235166,11.4729242 C7.06761686,11.4757577 7.09941482,11.486328 7.14109063,11.5047954 C7.29036467,11.5709415 7.52111603,11.5674965 7.83148552,11.4911901 C7.55441952,11.4009282 7.35740111,11.3307954 7.23966441,11.280448 C7.15577054,11.2445726 7.11037132,11.2192869 7.08971652,11.1901698 C7.0592405,11.1472078 7.07860218,11.0958102 7.12523884,11.0775131 C7.14459184,11.0699202 7.16841334,11.0672925 7.20081617,11.0672925 C7.32312859,11.0672925 7.43601709,11.0368778 7.54040591,10.9754101 L6.70357188,10.9754101 L6.73459544,10.8902633 C6.75475173,10.8349425 6.76828788,10.7893055 6.77523497,10.7538294 C6.77828718,10.738243 6.77992403,10.7252433 6.78044966,10.7151596 C6.77379963,10.7179673 6.76573659,10.7218415 6.75647573,10.7269253 C6.61070774,10.8069457 6.22681789,10.8424188 5.58700749,10.8401201 L5.47959835,10.8397342 L5.59738572,10.622561 C4.35000617,10.5752545 3.74918628,10.5341228 3.67213155,10.4831131 C3.60991943,10.4419291 3.60638781,10.3705993 3.66915561,10.3335528 C3.69461657,10.3185254 3.72982301,10.309289 3.77614677,10.3020926 C3.79013869,10.299919 3.80461174,10.2980489 3.81926303,10.296452 L3.81926303,10.1319653 L4.90292867,10.2118909 C5.00679437,10.2123283 5.14224662,10.2400389 5.3109262,10.2944469 C5.39341368,10.3210535 5.45287563,10.3406939 5.48955719,10.353456 C5.49481262,10.3552845 5.57871061,10.3281004 5.74125117,10.2719037 L5.76390465,10.3331742 C5.80677934,10.4491368 5.86092874,10.4991619 5.92813382,10.4991619 C6.07072218,10.4991619 6.12985397,10.5135589 6.15016842,10.5843636 C6.20313101,10.5312312 6.27966503,10.4414531 6.37875825,10.3158925 L6.39993672,10.2890573 L9.35106681,10.4929155 L9.26760274,10.2118857 L9.62277473,10.2118857 L9.69575238,9.9881739 L6.99558566,9.36341052 C6.70797378,9.13122628 6.83212265,8.70803958 7.32079614,8.08885569 L6.74036423,7.89336843 C6.56924711,8.05377805 6.45118208,8.27867326 6.38669887,8.56979971 C6.34227344,8.77037001 6.29522342,8.86944183 6.20819472,8.92179398 C6.13424745,8.96627699 6.08440374,8.96902274 5.85772217,8.95978081 C5.72123356,8.95421609 5.62851204,8.95346003 5.51086783,8.95975512 C5.11973498,8.98068446 4.79092284,8.799874 4.5287266,8.42423299 L4.40298358,8.76798627 L3.0917404,8.49391051 L3.0917404,8.07470638 L2.92166556,8.07470638 L2.92166556,7.74639417 L2.57029274,7.66017053 L2.36992109,8.33305699 L1.67403708,7.57966804 L0.169188525,7.85842886 Z M5.60977974,11.7791697 C5.60977974,11.7791697 5.59750945,11.7626779 5.57672099,11.7332156 C5.58776053,11.7481918 5.59878012,11.7635098 5.60977974,11.7791697 Z M7.63200899,10.9117496 L7.70320287,10.9117496 L7.7103439,10.9391511 C7.69206989,10.9649223 7.67349801,10.9891218 7.65462826,11.0117496 L7.54040591,11.0117496 C7.57169563,10.9828079 7.60222169,10.9494835 7.63200899,10.9117496 Z M5.5073555,10.4322057 C5.51743293,10.4335839 5.51986411,10.4326481 5.51464904,10.4293983 L5.5073555,10.4322057 Z M3.73609444,10.4429806 C3.73596228,10.4430605 3.73583131,10.4431387 3.73570154,10.4432153 C3.73609085,10.4429855 3.73649677,10.4427537 3.73691914,10.4425198 L3.73609444,10.4429806 Z M5.70311345,10.5628224 L5.6217245,10.7128852 C5.61039416,10.7128697 5.59897898,10.7128413 5.58747985,10.7128 L5.605589,10.7426354 L5.58724367,10.77646 C5.60032902,10.7765071 5.6133065,10.7765378 5.62617609,10.7765523 L5.6443136,10.8064354 L5.66052131,10.7765521 C6.24359117,10.7758782 6.59840444,10.7408042 6.72496111,10.67133 C6.84389418,10.6060408 6.87463475,10.6649605 6.81718281,10.8480891 L6.81042699,10.868976 C6.80589094,10.8826098 6.80091176,10.8968677 6.79548946,10.9117496 L6.8410172,10.9117496 L6.85638349,10.933236 C6.85904112,10.9259419 6.86160316,10.9187804 6.86406886,10.9117496 L7.72926358,10.9117496 C7.58002421,11.0530041 7.41046093,11.1259904 7.22057373,11.1307084 C7.20535068,11.1223304 7.19922861,11.1184993 7.19518939,11.1155315 C7.19861819,11.1212572 7.20096232,11.125852 7.20255028,11.1309511 C7.12394977,11.130953 7.11979426,11.1492791 7.18834964,11.1859315 C7.32453013,11.2537043 7.60713301,11.3539662 8.05304155,11.495388 C7.62539811,11.6281088 7.31256098,11.6505936 7.11453016,11.5628425 C7.10322503,11.557833 7.09296295,11.5535734 7.08369124,11.5500192 C6.99771051,11.5186722 6.99811198,11.5462728 7.03922851,11.5976656 C7.12075914,11.6959622 7.31630573,11.8566734 7.42815652,11.9148142 C7.59973638,12.0040026 6.90551271,12.0043399 6.5267601,11.7158938 C6.51753665,11.6811754 6.5053738,11.6441873 6.49041147,11.6049709 L6.43786926,11.6360947 C6.43346511,11.6327333 6.41464473,11.6438817 6.3814081,11.6695399 C6.40772922,11.6988053 6.43714789,11.7263872 6.46925932,11.752262 C6.49647754,11.8678798 6.48334093,11.9457379 6.42984949,11.9858365 C6.03456128,11.5201245 5.73819181,11.2872685 5.54074107,11.2872685 C5.27618437,11.2872685 5.52135702,11.6547515 5.57672099,11.7332156 C5.4670657,11.5844583 5.35122304,11.5416687 5.22919299,11.604847 C5.04028223,11.7026513 4.90043656,11.8133946 4.90043656,11.8133946 C4.81790458,11.528925 4.55851466,11.3278776 4.12226679,11.2102524 C3.46789498,11.0338147 3.68747502,10.9689765 3.15643043,10.9117496 C2.62538584,10.8545227 2.59859371,10.5628224 2.5256796,10.5628224 C2.47707019,10.5628224 2.26553049,10.3990066 1.8910605,10.071375 C1.80778765,9.76403996 1.86376479,9.61037245 2.05899192,9.61037245 C2.35183261,9.61037245 2.81628075,9.47256368 2.98635559,9.61037245 C3.09973881,9.70224496 3.18039509,9.70224496 3.22832442,9.61037245 L3.52759426,9.61037245 L3.95641396,9.94198411 L4.8072375,9.94198411 C4.91593692,9.77406141 5.05658875,9.66352419 5.22919299,9.61037245 C5.40179723,9.55722071 5.40179723,9.45537041 5.22919299,9.30482154 C4.81733438,9.32829463 4.5280129,9.3719349 4.36122855,9.43574235 C4.20396158,9.4959087 4.16836253,9.36206337 4.25443138,9.03420637 C4.26062053,9.01080833 4.26582138,8.99197649 4.27139414,8.9725516 L4.21341549,8.96202118 L3.15643043,8.77004538 L2.98635559,8.9725516 L2.61731314,9.08358038 L2.61731314,9.30482154 L2.22832519,9.21929807 L2.32741553,8.6323129 L2.36751895,8.61397343 L2.33466262,8.58938303 L2.34025724,8.55624195 L2.30929813,8.57039969 L2.2764418,8.54580929 L2.26919471,8.58873916 L1.42990167,8.9725516 L0.0221114348,7.82089517 L1.6975933,7.51052593 L2.28928094,8.15110815 L2.27817778,8.18839467 L2.31583808,8.17985986 L2.34025724,8.20629692 L2.35046654,8.17201214 L2.38812683,8.16347733 L2.36156969,8.13472562 L2.5256796,7.58361304 L2.98635559,7.69665867 L2.98635559,8.0110459 L3.15643043,8.0110459 L3.15643043,8.44235139 L4.36122855,8.69417803 L4.51237836,8.28096829 C4.7739182,8.7126141 5.10557725,8.91768752 5.5073555,8.89618855 C6.11002288,8.86394009 6.21752706,9.03465271 6.32349291,8.55624195 C6.39413681,8.23730144 6.52795955,7.99218585 6.72496111,7.82089517 L7.42815652,8.05772871 C6.91313815,8.69032887 6.77875494,9.10602648 7.02500689,9.30482154 L9.77876169,9.94198411 L9.66994948,10.2755461 L9.42130215,10.2755461 L9.41599822,10.2576874 L9.4023954,10.2755461 L9.35390583,10.2755461 L9.36750865,10.3213479 L9.35390583,10.3392066 L9.43922504,10.5628224 L6.42984949,10.3549408 C6.20629541,10.6382053 6.09451838,10.7436683 6.09451838,10.67133 C6.09451838,10.5628224 6.07629439,10.5628224 5.92813382,10.5628224 C5.88074911,10.5628224 5.83883414,10.5468751 5.80238892,10.5149804 L5.78901323,10.502308 C5.75534077,10.4678777 5.7267075,10.4187553 5.70311345,10.3549408 L5.6442907,10.3775828 L5.5073555,10.4302919 C5.51011057,10.4306687 5.51307868,10.4096505 5.51625983,10.3672374 C5.49330493,10.3673662 5.49330493,10.3673662 5.46400593,10.3860293 C5.4566236,10.396114 5.45254446,10.4016863 5.45017806,10.4073477 C5.41363798,10.3949003 5.36050447,10.3774314 5.29077751,10.3549408 C5.12668103,10.302011 4.99656737,10.2755461 4.90043656,10.2755461 L3.94864308,10.2053468 L3.88395305,10.2005756 L3.88395305,10.2596434 L3.88395305,10.3549408 C3.88395305,10.3549408 3.61475038,10.3684031 3.70823897,10.4302919 C3.71364019,10.4338675 3.72356727,10.437465 3.73802021,10.4410844 C3.89234621,10.4793539 4.54714329,10.5198749 5.70311345,10.5628224 Z"/>
      </g>
    </g>
  </g>
</svg>
