<svg xmlns="http://www.w3.org/2000/svg" xmlns:xlink="http://www.w3.org/1999/xlink" width="32" height="24" viewBox="0 0 32 24">
  <defs>
    <rect id="ar---argentina-a" width="32" height="24" x="0" y="0"/>
    <rect id="ar---argentina-c" width="32" height="24" x="0" y="0"/>
  </defs>
  <g fill="none" fill-rule="evenodd">
    <mask id="ar---argentina-b" fill="#fff">
      <use xlink:href="#ar---argentina-a"/>
    </mask>
    <g mask="url(#ar---argentina-b)">
      <mask id="ar---argentina-d" fill="#fff">
        <use xlink:href="#ar---argentina-c"/>
      </mask>
      <use fill="#F7FCFF" xlink:href="#ar---argentina-c"/>
      <rect width="32" height="7" fill="#58A5FF" mask="url(#ar---argentina-d)"/>
      <rect width="32" height="7" y="17" fill="#58A5FF" mask="url(#ar---argentina-d)"/>
    </g>
    <g transform="translate(11 7)">
      <path fill="#FFC125" stroke="#984111" stroke-width=".15" d="M4.04089377,0.187990601 C4.07333444,0.122753299 4.15322322,0.0958203456 4.21933035,0.127834166 C4.28543749,0.159847986 4.31272955,0.238685598 4.28028887,0.3039229 C4.14727507,0.571410023 4.30933381,0.784372762 4.36695527,0.926980686 C4.38051577,0.960541685 4.39498321,0.994547714 4.41362221,1.03704699 C4.41317658,1.03603091 4.45957384,1.1409765 4.47254222,1.17106058 C4.57533752,1.40952543 4.62048439,1.45039386 4.62048439,1.67971861 C4.62048439,2.04701313 4.61666431,2.59569792 4.7805199,2.86100344 C4.81884392,2.92305548 4.84244676,3.1262534 4.77956735,3.16407316 C4.71668795,3.20189292 4.52533112,3.29955585 4.4870071,3.2375038 C4.29521991,2.92697306 4.35381773,2.09202251 4.35381773,1.67971861 C4.35381773,1.49136587 4.31712169,1.48277707 4.22715591,1.27407418 C4.21475506,1.24530666 4.16888274,1.14154841 4.16889324,1.14157236 C4.14931369,1.09692851 4.13391049,1.06072296 4.11925389,1.02444921 C4.02884423,0.800693455 3.87784533,0.515876547 4.04089377,0.187990601 Z M5.98553265,0.192520319 C6.04088469,0.145144647 6.12494624,0.151567765 6.17328938,0.206866757 C6.22163252,0.262165749 6.21595069,0.34540001 6.16059865,0.392775683 C5.93364325,0.587026243 5.99960794,0.846380872 5.99692742,1.00016666 C5.99629659,1.03635823 5.99632673,1.07331382 5.99687822,1.11971745 C5.99686504,1.11860802 5.99856843,1.2333398 5.9987511,1.26609949 C6.00019904,1.52577287 6.02578838,1.58103274 5.93618406,1.79212729 C5.79267066,2.13022368 5.57476603,2.63379807 5.62193277,2.94203656 C5.63296455,3.01413016 5.57529533,3.21039719 5.50263717,3.22064152 C5.42997902,3.23088585 5.21567418,3.24601598 5.2046424,3.17392239 C5.14943539,2.81314011 5.52961613,2.06746007 5.6907161,1.68793233 C5.76431138,1.51455271 5.73388842,1.49230839 5.73262119,1.26504394 C5.73244651,1.2337179 5.7307624,1.12028419 5.73076271,1.12031034 C5.73018338,1.07156512 5.73015129,1.03221922 5.73083311,0.993102268 C5.73503892,0.751808142 5.70733053,0.430632824 5.98553265,0.192520319 Z M7.75565868,0.92484779 C7.82472744,0.90165707 7.90026181,0.939102494 7.92436943,1.00848449 C7.94847704,1.07786648 7.91202883,1.15291149 7.84296007,1.17610221 C7.55976315,1.2711892 7.52376859,1.53636943 7.46367408,1.67795299 C7.44953159,1.71127292 7.43571572,1.74554884 7.41884396,1.78878013 C7.41924733,1.78774654 7.37784741,1.89476209 7.36574478,1.92520478 C7.26981193,2.16651215 7.27283724,2.22733415 7.11068015,2.38949124 C6.85096371,2.64920769 6.46028376,3.03448522 6.38854783,3.33794795 C6.37176959,3.40892454 6.24477669,3.56929689 6.17357162,3.55157705 C6.10236656,3.5338572 5.89799873,3.46760561 5.91477698,3.39662902 C5.99874135,3.0414366 6.63057546,2.49247232 6.92211834,2.20092943 C7.05530385,2.06774393 7.03542903,2.03572272 7.11938884,1.82453208 C7.13096183,1.79542164 7.17189336,1.68961685 7.17188385,1.68964121 C7.18960699,1.64422841 7.20431647,1.60773552 7.2196021,1.57172232 C7.31389203,1.34957382 7.40851565,1.04140551 7.75565868,0.92484779 Z M9.12730407,2.29073175 C9.19994353,2.2963719 9.25484219,2.36035422 9.24992366,2.43364028 C9.24500513,2.50692633 9.18213196,2.56176418 9.10949249,2.55612403 C8.8116549,2.53299822 8.67490756,2.76303371 8.56426918,2.86988127 C8.53823181,2.89502652 8.51212157,2.92117938 8.47969922,2.95438167 C8.48047438,2.95358786 8.40055124,3.03591995 8.37751581,3.05921372 C8.19492285,3.24385437 8.17394262,3.30102341 7.96131641,3.38692997 C7.62076686,3.52452092 7.11060415,3.72651994 6.92599854,3.97782939 C6.88282132,4.03660791 6.70326127,4.13461136 6.64464036,4.09047812 C6.58601945,4.04634488 6.42378443,3.9055071 6.46696165,3.84672858 C6.683036,3.55257974 7.47913979,3.2941327 7.86142132,3.13968094 C8.03605894,3.06912276 8.03027576,3.03188137 8.19007993,2.87028507 C8.21210728,2.8480107 8.29112617,2.7666101 8.2911079,2.76662881 C8.32516633,2.73175109 8.35296539,2.70390665 8.38110737,2.67672891 C8.55470204,2.50908215 8.76221449,2.26238411 9.12730407,2.29073175 Z M9.85619611,4.04887387 C9.92143342,4.08131455 9.94836637,4.16120333 9.91635255,4.22731046 C9.88433873,4.29341759 9.80550112,4.32070965 9.74026381,4.28826898 C9.47277669,4.15525517 9.25981395,4.31731391 9.11720603,4.37493538 C9.08364503,4.38849587 9.049639,4.40296331 9.00713972,4.42160231 C9.0081558,4.42115669 8.90321022,4.46755394 8.87312614,4.48052232 C8.63466129,4.58331763 8.59379285,4.6284645 8.3644681,4.6284645 C7.99717359,4.6284645 7.44848879,4.62464441 7.18318328,4.7885 C7.12113123,4.82682403 6.91793332,4.85042686 6.88011356,4.78754746 C6.8422938,4.72466805 6.74463087,4.53331123 6.80668291,4.49498721 C7.11721365,4.30320002 7.9521642,4.36179783 8.3644681,4.36179783 C8.55282085,4.36179783 8.56140965,4.3251018 8.77011253,4.23513601 C8.79888006,4.22273516 8.9026383,4.17686284 8.90261435,4.17687334 C8.9472582,4.1572938 8.98346375,4.1418906 9.01973751,4.127234 C9.24349326,4.03682434 9.52831017,3.88582544 9.85619611,4.04887387 Z M9.85135674,5.97599578 C9.89873241,6.03134782 9.89230929,6.11540938 9.8370103,6.16375252 C9.78171131,6.21209566 9.69847705,6.20641382 9.65110137,6.15106178 C9.45685081,5.92410638 9.19749618,5.99007107 9.0437104,5.98739055 C9.00751883,5.98675972 8.97056323,5.98678986 8.9241596,5.98734136 C8.92526903,5.98732817 8.81053726,5.98903156 8.77777757,5.98921423 C8.51810419,5.99066217 8.46284431,6.01625151 8.25174976,5.92664719 C7.91365338,5.78313379 7.41007899,5.56522916 7.10184049,5.6123959 C7.0297469,5.62342768 6.83347987,5.56575846 6.82323554,5.4931003 C6.81299121,5.42044215 6.79786107,5.20613732 6.86995467,5.19510553 C7.23073694,5.13989852 7.97641699,5.52007926 8.35594473,5.68117923 C8.52932435,5.75477451 8.55156866,5.72435155 8.77883311,5.72308432 C8.81015916,5.72290965 8.92359287,5.72122553 8.92356672,5.72122584 C8.97231194,5.72064651 9.01165783,5.72061442 9.05077479,5.72129624 C9.29206891,5.72550205 9.61324423,5.69779366 9.85135674,5.97599578 Z M9.11203972,7.73005674 C9.13523044,7.7991255 9.09778502,7.87465987 9.02840303,7.89876749 C8.95902104,7.9228751 8.88397603,7.88642689 8.86078531,7.81735813 C8.76569831,7.53416121 8.50051808,7.49816665 8.35893452,7.43807214 C8.32561459,7.42392965 8.29133867,7.41011378 8.24810738,7.39324202 C8.24914097,7.39364539 8.14212542,7.35224547 8.11168273,7.34014284 C7.87037536,7.24420999 7.80955336,7.2472353 7.64739627,7.08507821 C7.38767983,6.82536177 7.00240229,6.43468182 6.69893957,6.36294589 C6.62796297,6.34616765 6.46759062,6.21917475 6.48531047,6.14796969 C6.50303031,6.07676462 6.5692819,5.87239679 6.6402585,5.88917504 C6.99545091,5.97313941 7.54441519,6.60497352 7.83595808,6.8965164 C7.96914358,7.02970191 8.00116479,7.00982709 8.21235544,7.0937869 C8.24146587,7.10535989 8.34727066,7.14629142 8.3472463,7.14628191 C8.3926591,7.16400505 8.429152,7.17871453 8.46516519,7.19400017 C8.68731369,7.28829009 8.995482,7.38291371 9.11203972,7.73005674 Z M7.73355043,9.08953472 C7.72791028,9.16217418 7.66392796,9.21707284 7.5906419,9.21215431 C7.51735585,9.20723578 7.462518,9.14436261 7.46815815,9.07172315 C7.49128396,8.77388556 7.26124847,8.63713822 7.15440091,8.52649983 C7.12925566,8.50046247 7.1031028,8.47435222 7.06990051,8.44192987 C7.07069432,8.44270503 6.98836223,8.3627819 6.96506846,8.33974646 C6.78042781,8.1571535 6.72325877,8.13617327 6.63735221,7.92354706 C6.49976126,7.58299751 6.29776224,7.0728348 6.04645279,6.8882292 C5.98767427,6.84505198 5.88967082,6.66549192 5.93380406,6.60687102 C5.9779373,6.54825011 6.11877508,6.38601509 6.17755359,6.42919231 C6.47170244,6.64526665 6.73014948,7.44137045 6.88460124,7.82365197 C6.95515942,7.99828959 6.99240081,7.99250641 7.15399711,8.15231058 C7.17627148,8.17433793 7.25767208,8.25335682 7.25765337,8.25333855 C7.29253109,8.28739698 7.32037553,8.31519604 7.34755327,8.34333802 C7.51520003,8.51693269 7.76189807,8.72444514 7.73355043,9.08953472 Z M5.95910623,9.8120094 C5.92666556,9.8772467 5.84677678,9.90417965 5.78066965,9.87216583 C5.71456251,9.84015201 5.68727045,9.7613144 5.71971113,9.6960771 C5.85272493,9.42858998 5.69066619,9.21562724 5.63304473,9.07301931 C5.61948423,9.03945831 5.60501679,9.00545229 5.58637779,8.96295301 C5.58682342,8.96396909 5.54042616,8.8590235 5.52745778,8.82893942 C5.42466248,8.59047457 5.37951561,8.54960614 5.37951561,8.32028139 C5.37951561,7.95298687 5.38333569,7.40430208 5.2194801,7.13899656 C5.18115608,7.07694452 5.15755324,6.8737466 5.22043265,6.83592684 C5.28331205,6.79810708 5.47466888,6.70044415 5.5129929,6.7624962 C5.70478009,7.07302694 5.64618227,7.90797749 5.64618227,8.32028139 C5.64618227,8.50863413 5.68287831,8.51722293 5.77284409,8.72592582 C5.78524494,8.75469334 5.83111726,8.85845159 5.83110676,8.85842764 C5.85068631,8.90307149 5.86608951,8.93927704 5.88074611,8.97555079 C5.97115577,9.19930654 6.12215467,9.48412345 5.95910623,9.8120094 Z M4.01446735,9.80747968 C3.95911531,9.85485535 3.87505376,9.84843223 3.82671062,9.79313324 C3.77836748,9.73783425 3.78404931,9.65459999 3.83940135,9.60722432 C4.06635675,9.41297376 4.00039206,9.15361913 4.00307258,8.99983334 C4.00370341,8.96364177 4.00367327,8.92668618 4.00312178,8.88028255 C4.00313496,8.88139198 4.00143157,8.7666602 4.0012489,8.73390051 C3.99980096,8.47422713 3.97421162,8.41896726 4.06381594,8.20787271 C4.20732934,7.86977632 4.42523397,7.36620193 4.37806723,7.05796344 C4.36703545,6.98586984 4.42470467,6.78960281 4.49736283,6.77935848 C4.57002098,6.76911415 4.78432582,6.75398402 4.7953576,6.82607761 C4.85056461,7.18685989 4.47038387,7.93253993 4.3092839,8.31206767 C4.23568862,8.48544729 4.26611158,8.50769161 4.26737881,8.73495606 C4.26755349,8.7662821 4.2692376,8.87971581 4.26923729,8.87968966 C4.26981662,8.92843488 4.26984871,8.96778078 4.26916689,9.00689773 C4.26496108,9.24819186 4.29266947,9.56936718 4.01446735,9.80747968 Z M2.24434132,9.07515221 C2.17527256,9.09834293 2.09973819,9.06089751 2.07563057,8.99151551 C2.05152296,8.92213352 2.08797117,8.84708851 2.15703993,8.82389779 C2.44023685,8.7288108 2.47623141,8.46363057 2.53632592,8.32204701 C2.55046841,8.28872708 2.56428428,8.25445116 2.58115604,8.21121987 C2.58075267,8.21225346 2.62215259,8.10523791 2.63425522,8.07479522 C2.73018807,7.83348785 2.72716276,7.77266585 2.88931985,7.61050876 C3.14903629,7.35079231 3.53971624,6.96551478 3.61145217,6.66205205 C3.62823041,6.59107546 3.75522331,6.43070311 3.82642838,6.44842295 C3.89763344,6.4661428 4.10200127,6.53239439 4.08522302,6.60337098 C4.00125865,6.9585634 3.36942454,7.50752768 3.07788166,7.79907057 C2.94469615,7.93225607 2.96457097,7.96427728 2.88061116,8.17546792 C2.86903817,8.20457836 2.82810664,8.31038315 2.82811615,8.31035879 C2.81039301,8.35577159 2.79568353,8.39226448 2.7803979,8.42827768 C2.68610797,8.65042618 2.59148435,8.95859449 2.24434132,9.07515221 Z M0.888386922,7.73106776 C0.815660089,7.7266962 0.759653142,7.66368174 0.763291904,7.59032101 C0.766930667,7.51696027 0.828837214,7.46103349 0.901564047,7.46540504 C1.19975988,7.48332935 1.33247172,7.25094232 1.4412285,7.14218013 C1.46682306,7.1165843 1.49247289,7.08997974 1.52431085,7.05621666 C1.52354966,7.05702387 1.60202373,6.97330947 1.62464912,6.94961722 C1.80399185,6.76181801 1.82397115,6.70429152 2.0350657,6.6146872 C2.37316208,6.4711738 2.87972173,6.26030198 3.05991326,6.00580899 C3.10205808,5.94628588 3.27988039,5.8451636 3.3392626,5.88826704 C3.39864481,5.93137048 3.56331308,6.06935542 3.52116826,6.12887853 C3.31026043,6.4267536 2.51878841,6.6990552 2.13926067,6.86015517 C1.96588105,6.93375045 1.9723133,6.97088524 1.81535372,7.13524589 C1.79371847,7.1579013 1.71613224,7.24066857 1.71615018,7.24064954 C1.68270564,7.27611635 1.65539677,7.30444171 1.62773339,7.33210646 C1.457091,7.50275733 1.25391563,7.75303939 0.888386922,7.73106776 Z M0.143803886,5.95112613 C0.0785665842,5.91868545 0.051633631,5.83879667 0.0836474514,5.77268954 C0.115661272,5.70658241 0.194498883,5.67929035 0.259736185,5.71173102 C0.527223309,5.84474483 0.740186047,5.68268609 0.882793971,5.62506462 C0.916354971,5.61150413 0.950360999,5.59703669 0.992860277,5.57839769 C0.991844196,5.57884331 1.09678978,5.53244606 1.12687386,5.51947768 C1.36533871,5.41668237 1.40620715,5.3715355 1.6355319,5.3715355 C2.00282641,5.3715355 2.55151121,5.37535559 2.81681672,5.2115 C2.87886877,5.17317597 3.08206668,5.14957314 3.11988644,5.21245254 C3.1577062,5.27533195 3.25536913,5.46668877 3.19331709,5.50501279 C2.88278635,5.69679998 2.0478358,5.63820217 1.6355319,5.63820217 C1.44717915,5.63820217 1.43859035,5.6748982 1.22988747,5.76486399 C1.20111994,5.77726484 1.0973617,5.82313716 1.09738565,5.82312666 C1.0527418,5.8427062 1.01653625,5.8581094 0.980262495,5.872766 C0.756506741,5.96317566 0.471689833,6.11417456 0.143803886,5.95112613 Z M0.148643264,4.02400422 C0.101267592,3.96865218 0.10769071,3.88459062 0.162989702,3.83624748 C0.218288694,3.78790434 0.301522955,3.79358618 0.348898628,3.84893822 C0.543149188,4.07589362 0.802503817,4.00992893 0.956289603,4.01260945 C0.992481173,4.01324028 1.02943677,4.01321014 1.0758404,4.01265864 C1.07473097,4.01267183 1.18946274,4.01096844 1.22222243,4.01078577 C1.48189581,4.00933783 1.53715569,3.98374849 1.74825024,4.07335281 C2.08634662,4.21686621 2.58992101,4.43477084 2.89815951,4.3876041 C2.9702531,4.37657232 3.16652013,4.43424154 3.17676446,4.5068997 C3.18700879,4.57955785 3.20213893,4.79386268 3.13004533,4.80489447 C2.76926306,4.86010148 2.02358301,4.47992074 1.64405527,4.31882077 C1.47067565,4.24522549 1.44843134,4.27564845 1.22116689,4.27691568 C1.18984084,4.27709035 1.07640713,4.27877447 1.07643328,4.27877416 C1.02768806,4.27935349 0.988342169,4.27938558 0.949225213,4.27870376 C0.707931087,4.27449795 0.386755769,4.30220634 0.148643264,4.02400422 Z M0.887960278,2.26994326 C0.864769558,2.2008745 0.902214982,2.12534013 0.971596974,2.10123251 C1.04097896,2.0771249 1.11602397,2.11357311 1.13921469,2.18264187 C1.23430169,2.46583879 1.49948192,2.50183335 1.64106548,2.56192786 C1.67438541,2.57607035 1.70866133,2.58988622 1.75189262,2.60675798 C1.75085903,2.60635461 1.85787458,2.64775453 1.88831727,2.65985716 C2.12962464,2.75579001 2.19044664,2.7527647 2.35260373,2.91492179 C2.61232017,3.17463823 2.99759771,3.56531818 3.30106043,3.63705411 C3.37203703,3.65383235 3.53240938,3.78082525 3.51468953,3.85203031 C3.49696969,3.92323538 3.4307181,4.12760321 3.3597415,4.11082496 C3.00454909,4.02686059 2.45558481,3.39502648 2.16404192,3.1034836 C2.03085642,2.97029809 1.99883521,2.99017291 1.78764456,2.9062131 C1.75853413,2.89464011 1.65272934,2.85370858 1.6527537,2.85371809 C1.6073409,2.83599495 1.570848,2.82128547 1.53483481,2.80599983 C1.31268631,2.71170991 1.004518,2.61708629 0.887960278,2.26994326 Z M2.26644957,0.910465281 C2.27208972,0.837825819 2.33607204,0.782927156 2.4093581,0.787845686 C2.48264415,0.792764215 2.537482,0.85563739 2.53184185,0.928276853 C2.50871604,1.22611444 2.73875153,1.36286178 2.84559909,1.47350017 C2.87074434,1.49953753 2.8968972,1.52564778 2.93009949,1.55807013 C2.92930568,1.55729497 3.01163777,1.6372181 3.03493154,1.66025354 C3.21957219,1.8428465 3.27674123,1.86382673 3.36264779,2.07645294 C3.50023874,2.41700249 3.70223776,2.9271652 3.95354721,3.1117708 C4.01232573,3.15494802 4.11032918,3.33450808 4.06619594,3.39312898 C4.0220627,3.45174989 3.88122492,3.61398491 3.82244641,3.57080769 C3.52829756,3.35473335 3.26985052,2.55862955 3.11539876,2.17634803 C3.04484058,2.00171041 3.00759919,2.00749359 2.84600289,1.84768942 C2.82372852,1.82566207 2.74232792,1.74664318 2.74234663,1.74666145 C2.70746891,1.71260302 2.67962447,1.68480396 2.65244673,1.65666198 C2.48479997,1.48306731 2.23810193,1.27555486 2.26644957,0.910465281 Z"/>
      <path fill="#FFC125" stroke="#984111" stroke-width=".15" d="M5,0 C5.06258777,-1.14971874e-17 5.11451729,0.0484036387 5.11891075,0.110837018 L5.33333333,3.15789474 L4.66666667,3.15789474 L4.88108925,0.110837018 C4.88548271,0.0484036387 4.93741223,1.14971874e-17 5,0 Z M9.97894737,4.93421053 C9.97894737,4.9967983 9.93054373,5.04872782 9.86811035,5.05312128 L6.82105263,5.26754386 L6.82105263,4.60087719 L9.86811035,4.81529977 C9.93054373,4.81969323 9.97894737,4.87162275 9.97894737,4.93421053 Z M5,9.86842105 C4.93741223,9.86842105 4.88548271,9.82001741 4.88108925,9.75758403 L4.66666667,6.71052632 L5.33333333,6.71052632 L5.11891075,9.75758403 C5.11451729,9.82001741 5.06258777,9.86842105 5,9.86842105 Z M0.0210526316,4.93421053 C0.0210526316,4.87162275 0.0694562703,4.81969323 0.13188965,4.81529977 L3.17894737,4.60087719 L3.17894737,5.26754386 L0.13188965,5.05312128 C0.0694562703,5.04872782 0.0210526316,4.9967983 0.0210526316,4.93421053 Z M8.58155501,1.50661988 C8.62503213,1.55164176 8.62628674,1.62262072 8.58442788,1.66915098 L6.54150843,3.94005783 L6.07840285,3.46049796 L8.41922318,1.49807651 C8.46718595,1.45786703 8.53807789,1.46159801 8.58155501,1.50661988 Z M8.45866747,8.48358454 C8.41364559,8.52706166 8.34266663,8.52831627 8.29613637,8.48645741 L6.02522952,6.44353796 L6.50478939,5.98043238 L8.46721084,8.32125271 C8.50742032,8.36921548 8.50368934,8.44010742 8.45866747,8.48358454 Z M1.41844499,8.36180117 C1.37496787,8.31677929 1.37371326,8.24580033 1.41557212,8.19927007 L3.45849157,5.92836322 L3.92159715,6.40792309 L1.58077682,8.37034455 C1.53281405,8.41055402 1.46192211,8.40682305 1.41844499,8.36180117 Z M1.54133253,1.38483651 C1.58635441,1.34135939 1.65733337,1.34010478 1.70386363,1.38196364 L3.97477048,3.42488309 L3.49521061,3.88798867 L1.53278916,1.54716834 C1.49257968,1.49920557 1.49631066,1.42831363 1.54133253,1.38483651 Z M3.13485349,0.359290191 C3.19288386,0.335844399 3.25916439,0.361270331 3.2866259,0.417511733 L4.62688296,3.16237034 L4.00876039,3.41210807 L3.06612163,0.506601237 C3.04680722,0.447068197 3.07682311,0.382735984 3.13485349,0.359290191 Z M9.61639961,3.08582273 C9.63984541,3.1438531 9.61441947,3.21013364 9.55817807,3.23759514 L6.81331946,4.5778522 L6.56358173,3.95972963 L9.46908857,3.01709088 C9.52862161,2.99777647 9.59295382,3.02779236 9.61639961,3.08582273 Z M6.86514651,9.50913086 C6.80711614,9.53257665 6.74083561,9.50715072 6.7133741,9.45090932 L5.37311704,6.70605071 L5.99123961,6.45631298 L6.93387837,9.36181982 C6.95319278,9.42135286 6.92317689,9.48568507 6.86514651,9.50913086 Z M0.383600387,6.78259832 C0.360154595,6.72456795 0.385580527,6.65828742 0.441821929,6.63082591 L3.18668054,5.29056885 L3.43641827,5.90869142 L0.530911433,6.85133018 C0.471378393,6.87064459 0.40704618,6.8406287 0.383600387,6.78259832 Z M6.94542972,0.392245789 C7.00304207,0.41670078 7.03193064,0.481547044 7.01158018,0.540733935 L6.0183769,3.42934693 L5.404707,3.16885951 L6.79266433,0.447809669 C6.82110319,0.392056102 6.88781737,0.367790798 6.94542972,0.392245789 Z M9.58314522,6.86216017 C9.55869023,6.91977252 9.49384396,6.94866109 9.43465707,6.92831063 L6.54604408,5.93510735 L6.8065315,5.32143745 L9.52758134,6.70939477 C9.5833349,6.73783364 9.60760021,6.80454782 9.58314522,6.86216017 Z M3.05457028,9.47617526 C2.99695793,9.45172027 2.96806936,9.38687401 2.98841982,9.32768712 L3.9816231,6.43907412 L4.595293,6.69956154 L3.20733567,9.42061138 C3.17889681,9.47636495 3.11218263,9.50063026 3.05457028,9.47617526 Z M0.416854782,3.00626088 C0.441309774,2.94864853 0.506156038,2.91975996 0.565342928,2.94011043 L3.45395592,3.9333137 L3.1934685,4.5469836 L0.472418663,3.15902628 C0.416665095,3.13058741 0.392399791,3.06387323 0.416854782,3.00626088 Z"/>
      <ellipse cx="5" cy="4.934" fill="#FFC125" stroke="#984111" stroke-width=".15" rx="1.933" ry="1.908"/>
      <g transform="translate(3.733 4.079)">
        <path fill="#984111" fill-rule="nonzero" d="M1.08012195,0.357524628 C1.06018194,0.345170831 0.975637275,0.289369409 0.95486135,0.276220948 C0.881693789,0.229915388 0.823328832,0.199726883 0.769129465,0.182811058 C0.739428709,0.173541341 0.712310387,0.168864296 0.68778528,0.168864296 C0.570127881,0.168864296 0.403904751,0.242301784 0.193667075,0.391963678 L0.115662842,0.285251785 C0.346578579,0.1208698 0.535768996,0.0372853482 0.68778528,0.0372853482 C0.726946145,0.0372853482 0.767354944,0.0442545773 0.809335294,0.0573568015 C0.87711572,0.0785113255 0.944616249,0.113425085 1.02683932,0.165461605 C1.04928093,0.179664227 1.13309957,0.234986461 1.1510164,0.246086801 C1.18015181,0.264137583 1.19901254,0.272818258 1.19878974,0.272818258 C1.35798229,0.272818258 1.36762694,0.84237516 1.25503788,1.01701646 C1.22460634,1.06422001 1.18725188,1.10237654 1.13830179,1.14078235 C1.11947943,1.15555021 1.06037201,1.19812729 1.05166252,1.20484079 C1.01243791,1.23507613 1,1.25268938 1,1.27424446 C1,1.27797739 1.04791331,1.2898482 1.15475736,1.28483307 C1.17592353,1.28383955 1.19694429,1.28243896 1.22790641,1.28008716 C1.30383837,1.27431957 1.31365261,1.27367636 1.33814585,1.27367636 L1.33814585,1.40525531 C1.31883077,1.40525531 1.30861996,1.40592451 1.23813883,1.41127806 C1.20598158,1.41372064 1.18385269,1.41519507 1.16109215,1.41626342 C0.97323854,1.42508105 0.866666667,1.39867724 0.866666667,1.27424446 C0.866666667,1.20277467 0.901219136,1.15384511 0.969586204,1.101146 C0.980748386,1.0925419 1.03923354,1.05041307 1.05532435,1.03778836 C1.09359545,1.00776119 1.12106285,0.979704018 1.14254159,0.946387499 C1.17702492,0.892899061 1.19843134,0.753717954 1.19593268,0.606161652 C1.19478557,0.538419917 1.18860242,0.476247233 1.17883203,0.432632695 C1.17589918,0.419540575 1.17276683,0.408762825 1.169805,0.400860695 C1.14451475,0.394735214 1.11728903,0.380551419 1.08012195,0.357524628 Z"/>
        <path fill="#984111" fill-rule="nonzero" d="M2.34055056,0.394587822 C2.34001117,0.393416222 2.33948199,0.392355331 2.33896559,0.391409046 C2.33913992,0.391728503 2.33934434,0.392062654 2.33958022,0.392408147 L2.34055056,0.394587822 Z M2.25345526,0.357524628 C2.23351524,0.345170831 2.14897058,0.289369409 2.12819466,0.276220948 C2.0550271,0.229915388 1.99666214,0.199726883 1.94246277,0.182811058 C1.91276202,0.173541341 1.8856437,0.168864296 1.86111859,0.168864296 C1.74346119,0.168864296 1.57723806,0.242301784 1.36700038,0.391963678 L1.28899615,0.285251785 C1.51991189,0.1208698 1.7091023,0.0372853482 1.86111859,0.0372853482 C1.90027945,0.0372853482 1.94068825,0.0442545773 1.9826686,0.0573568015 C2.05044903,0.0785113255 2.11794956,0.113425085 2.20017263,0.165461605 C2.22261423,0.179664227 2.30643288,0.234986461 2.32434971,0.246086801 C2.35348512,0.264137583 2.37234585,0.272818258 2.37212304,0.272818258 C2.5313156,0.272818258 2.54096025,0.84237516 2.42837119,1.01701646 C2.39793965,1.06422001 2.36058519,1.10237654 2.3116351,1.14078235 C2.29281274,1.15555021 2.23370532,1.19812729 2.22499583,1.20484079 C2.18577121,1.23507613 2.17333331,1.25268938 2.17333331,1.27424446 C2.17333331,1.27797739 2.22124662,1.2898482 2.32809067,1.28483307 C2.34925684,1.28383955 2.3702776,1.28243896 2.40123972,1.28008716 C2.47717168,1.27431957 2.48698592,1.27367636 2.51147915,1.27367636 L2.51147915,1.40525531 C2.49216408,1.40525531 2.48195327,1.40592451 2.41147213,1.41127806 C2.37931489,1.41372064 2.357186,1.41519507 2.33442546,1.41626342 C2.14657185,1.42508105 2.03999998,1.39867724 2.03999998,1.27424446 C2.03999998,1.20277467 2.07455244,1.15384511 2.14291951,1.101146 C2.15408169,1.0925419 2.21256685,1.05041307 2.22865766,1.03778836 C2.26692876,1.00776119 2.29439616,0.979704018 2.3158749,0.946387499 C2.35035822,0.892899061 2.37176465,0.753717954 2.36926599,0.606161652 C2.36811888,0.538419917 2.36193573,0.476247233 2.35216534,0.432632695 C2.34923248,0.419540575 2.34610014,0.408762825 2.3431383,0.400860695 C2.31784806,0.394735214 2.29062234,0.380551419 2.25345526,0.357524628 Z" transform="matrix(-1 0 0 1 3.8 0)"/>
        <path stroke="#984111" stroke-width=".15" d="M1.28261156 1.89482016C1.38723832 1.89482016 1.48262364 1.83529883 1.57005917 1.70938004 1.48769622 1.6599046 1.39234916 1.63518086 1.28261156 1.63518086 1.17218237 1.63518086 1.0666737 1.6602921.965363081 1.71089097 1.07187721 1.83522851 1.17764645 1.89482016 1.28261156 1.89482016zM.82964618 1.63565984C.971550074 1.54784646 1.12297089 1.50360191 1.28261156 1.50360191 1.44409428 1.50360191 1.58461097 1.54896525 1.70169321 1.63964285L1.74760804 1.67520286 1.71795946 1.72481652C1.59977422 1.92258659 1.45404119 2.02639911 1.28261156 2.02639911 1.11346961 2.02639911.95641059 1.9251359.811345453 1.73035935L.768840059 1.67328806.82964618 1.63565984zM1.93333333.714736842C1.74923842.714736842 1.6.643102402 1.6.554736842 1.6.466371282 1.74923842.394736842 1.93333333.394736842 2.11742825.394736842 2.26666667.466371282 2.26666667.554736842 2.26666667.643102402 2.11742825.714736842 1.93333333.714736842zM.6.714736842C.415905083.714736842.266666667.643102402.266666667.554736842.266666667.466371282.415905083.394736842.6.394736842.784094917.394736842.933333333.466371282.933333333.554736842.933333333.643102402.784094917.714736842.6.714736842z"/>
      </g>
    </g>
  </g>
</svg>
