<svg xmlns="http://www.w3.org/2000/svg" xmlns:xlink="http://www.w3.org/1999/xlink" width="20" height="15" viewBox="0 0 20 15">
  <defs>
    <rect id="sx---sint-maarten-a" width="20" height="15" x="0" y="0"/>
    <rect id="sx---sint-maarten-c" width="20" height="15" x="0" y="0"/>
    <polygon id="sx---sint-maarten-e" points="0 -1.25 0 16.25 12.5 7.5"/>
  </defs>
  <g fill="none" fill-rule="evenodd">
    <mask id="sx---sint-maarten-b" fill="#fff">
      <use xlink:href="#sx---sint-maarten-a"/>
    </mask>
    <g mask="url(#sx---sint-maarten-b)">
      <mask id="sx---sint-maarten-d" fill="#fff">
        <use xlink:href="#sx---sint-maarten-c"/>
      </mask>
      <use fill="#E31D1C" xlink:href="#sx---sint-maarten-c"/>
      <rect width="20" height="7.5" y="7.5" fill="#2E42A5" mask="url(#sx---sint-maarten-d)"/>
      <mask id="sx---sint-maarten-f" fill="#fff">
        <use xlink:href="#sx---sint-maarten-e"/>
      </mask>
      <use fill="#F7FCFF" xlink:href="#sx---sint-maarten-e"/>
      <g mask="url(#sx---sint-maarten-f)">
        <g transform="translate(1.25 3.75)">
          <g transform="translate(.888)">
            <ellipse cx="2.941" cy=".997" fill="#FBCD17" rx="1.626" ry="1"/>
            <path fill="#DA610A" fill-rule="nonzero" d="M2.85574584,0.455071872 C2.85574584,0.326363213 2.95005616,0.240853392 3.08278649,0.240853392 L3.61233488,0.240853392 C3.62702495,0.240838501 3.62702495,0.240838501 3.63604268,0.240875301 L3.63787469,0.553216916 L3.62320923,0.553564531 C3.58968221,0.554458889 3.58968221,0.554458889 3.5296301,0.557253171 C3.43029666,0.562549171 3.33630169,0.571652971 3.25912103,0.58506791 C3.26789303,0.591650169 3.27687061,0.598541408 3.2858995,0.605529662 C3.76514117,0.534073991 3.99110884,0.534073991 4.23474056,0.578772385 C4.26354099,0.584116664 4.26354099,0.584116664 4.2898271,0.588897885 C4.34906462,0.599430756 4.39006667,0.603821277 4.44197953,0.603821277 C4.48856777,0.603764658 4.48856777,0.603764658 4.5136454,0.60391659 C4.51921141,0.604008001 4.51921141,0.604008001 4.52893381,0.604579648 C4.53560365,0.604649492 4.53560365,0.604649492 4.58860516,0.621305869 L4.66773931,0.717002393 L4.59111692,0.898494764 C4.5936868,0.89733487 4.5936868,0.89733487 4.56501742,0.909522995 C4.52654505,0.917566761 4.52654505,0.917566761 4.51872263,0.91763991 C4.45251474,0.922498327 4.38413978,0.927811679 4.29906253,0.935553699 C4.06176332,0.957147899 3.79509671,0.988449689 3.49520637,1.03251213 C3.48618591,1.04439516 3.4753024,1.05774107 3.46258325,1.07333793 C3.4258009,1.10010792 3.40249235,1.10535361 3.31478931,1.11973038 C3.22450508,1.13453028 3.07757297,1.15242396 2.94774591,1.16470362 C2.88154592,1.17096513 2.82417349,1.17534458 2.78175205,1.17723552 C2.48288513,1.19055756 2.57215192,1.19442144 2.55287417,1.03684365 C2.53861862,0.920317617 2.48906209,0.904823397 2.59223366,0.877100431 C2.55409822,0.847313361 2.51675948,0.814559922 2.48104137,0.77838035 C2.41873399,0.715267968 2.40770543,0.709473981 2.41402353,0.708412881 C2.41026202,0.709044613 2.40577526,0.710659289 2.35448964,0.729951631 C2.23546544,0.772813581 2.11667698,0.783600406 1.94560232,0.750945945 C1.69656437,0.70340997 1.41146364,0.75209154 1.08831016,0.901839567 L0.956920449,0.618302986 C1.33556145,0.442842265 1.68531596,0.383120919 2.004194,0.443987861 C2.11894581,0.465891505 2.18109512,0.460247912 2.24861085,0.43593474 C2.29095797,0.418974203 2.32622845,0.406281197 2.36226526,0.400228956 C2.48111644,0.380268372 2.57673141,0.430500897 2.70342594,0.558832283 C2.85326272,0.710604907 2.91783202,0.727070878 2.9257064,0.754122824 C2.9261901,0.747012823 2.9244762,0.734479438 2.92118513,0.719358046 C2.86767244,0.666969283 2.84217125,0.609852614 2.84401449,0.541376082 C2.8447347,0.51462038 2.84873695,0.490715337 2.85586487,0.469265766 C2.85577683,0.464814376 2.85574584,0.460123068 2.85574584,0.455071872 Z M2.8538113,1.13935032 C2.84301021,1.1415303 2.83304937,1.14360028 2.82392592,1.14555996 C2.84884317,1.14020784 2.86829803,1.13623807 2.88324492,1.13307129 L2.8538113,1.13935032 Z"/>
          </g>
          <path fill="#56C6F5" stroke="#E31D1C" stroke-width=".625" d="M5.9616678,1.56154371 C6.16072747,1.49440492 6.37282822,1.39302791 6.59837818,1.25924315 L6.14064007,0.897382205 C6.06958621,1.12509095 6.00990966,1.34647014 5.9616678,1.56154371 Z M3.75368665,5.94947395 C3.69601814,5.98497002 3.63898111,6.02277989 3.58258853,6.06289688 L3.45123649,6.15633911 L3.45123649,6.33196583 L3.75368666,6.33196583 L4.05613682,6.33196583 L4.05613682,6.15633913 L3.92478479,6.0628969 C3.8683922,6.0227799 3.81135516,5.98497002 3.75368665,5.94947395 Z M1.54570551,1.56154371 C1.49746365,1.34647014 1.4377871,1.12509095 1.36673324,0.897382205 L0.908995129,1.25924315 C1.13454509,1.39302791 1.34664584,1.49440492 1.54570551,1.56154371 Z"/>
          <path fill="#F7FCFF" d="M3.41908092,2.64010989 L3.27622378,2.64010989 L3.75836663,2.21153846 L4.24050949,2.64010989 L4.06193806,2.64010989 L4.06193806,2.86493425 L4.84765235,3.3543956 L4.84765235,4.49725275 L5.02622378,4.49725275 L5.02622378,4.71153846 L2.52622378,4.71153846 L2.52622378,4.49725275 L2.66908092,4.49725275 L2.66908092,3.3543956 L3.41908092,2.88718249 L3.41908092,2.64010989 Z"/>
          <path fill="#FBCD17" fill-rule="nonzero" d="M3.71992118,6.88774197 C4.38307261,6.88774197 4.8396028,6.81534577 5.07468773,6.69193964 C5.13631814,6.58713794 5.24440612,6.52797228 5.35942333,6.53222882 C5.87595438,6.55134213 6.27600211,6.33374161 6.59049275,5.8554781 C6.9302989,5.33871588 6.99857722,4.60467429 6.77710507,3.64117681 L7.33936531,3.51193414 C7.59312406,4.61589203 7.51025534,5.506791 7.07253651,6.17245451 C6.68030695,6.76893995 6.14551415,7.08753822 5.49284643,7.10913073 C5.15950154,7.35596308 4.57532594,7.46466505 3.71992118,7.46466505 C2.89238751,7.46466505 2.27881722,7.30398526 1.88529518,6.96258555 C0.991617433,6.75145712 0.4237044,6.39500998 0.200398453,5.86667477 C-0.037642691,5.30347653 -0.037642691,4.52161977 0.18440514,3.51445057 L0.747798574,3.63866038 C0.549121371,4.53982458 0.549121371,5.20984595 0.731805261,5.64207058 C0.859284323,5.94368224 1.2296859,6.18982357 1.85720779,6.36047448 L2.44021526,6.48513612 L2.41222644,6.63235721 C2.69664338,6.79860129 3.13132332,6.88774197 3.71992118,6.88774197 Z"/>
          <path stroke="#73BE4A" stroke-linecap="round" stroke-linejoin="round" stroke-width=".625" d="M1.69625162,1.76495744 L2.01584566,1.89352975 L1.85604864,2.22574554 L2.30303759,1.99535149 L2.2683162,2.1659272 L2.17248724,2.63670598 L2.35563153,2.10061131 L2.35563153,2.57414922 L2.46753447,2.10061131 L2.79984484,2.20083171 C2.57830459,2.06384489 2.46753447,1.99535149 2.46753447,1.99535149 C2.46753447,1.99535149 2.57830459,1.96141091 2.79984484,1.89352975"/>
          <circle cx="2.281" cy="2.124" r="1" fill="#FBCD17"/>
          <path fill="#F7FCFF" d="M5.13908788,2.42475879 C5.13791396,1.96209908 5.18007243,1.73076923 5.2655633,1.73076923 C5.35061625,1.73076923 5.395932,1.95973526 5.40151054,2.41766732 C5.51965366,2.44853762 5.6311445,2.52389166 5.73598305,2.64372944 C5.12284093,2.64372944 4.81626986,2.64372944 4.81626986,2.64372944 C4.81626986,2.64372944 4.95485321,2.48531899 5.13908788,2.42475879 Z"/>
        </g>
      </g>
    </g>
  </g>
</svg>
