<svg xmlns="http://www.w3.org/2000/svg" xmlns:xlink="http://www.w3.org/1999/xlink" width="16" height="12" viewBox="0 0 16 12">
  <defs>
    <rect id="es---spain-a" width="16" height="12" x="0" y="0"/>
    <rect id="es---spain-c" width="16" height="12" x="0" y="0"/>
    <path id="es---spain-e" d="M0,0 L1.008,0 L1.008,0.448 C0.924,0.410666667 0.84,0.392 0.756,0.392 C0.672,0.392 0.588,0.410666667 0.504,0.448 C0.42,0.410666667 0.336,0.392 0.252,0.392 C0.168,0.392 0.084,0.410666667 0,0.448 L0,0 Z"/>
    <path id="es---spain-f" d="M0,0 L1.008,0 L1.008,0.448 C0.924,0.410666667 0.84,0.392 0.756,0.392 C0.672,0.392 0.588,0.410666667 0.504,0.448 C0.42,0.410666667 0.336,0.392 0.252,0.392 C0.168,0.392 0.084,0.410666667 0,0.448 L0,0 Z"/>
    <path id="es---spain-g" d="M0,0 L3.64,0 L3.64,3.27041559 C3.4597416,4.00213853 2.85307493,4.368 1.82,4.368 C0.786925066,4.368 0.1802584,3.99249174 0,3.24147523 L0,0 Z"/>
  </defs>
  <g fill="none" fill-rule="evenodd">
    <mask id="es---spain-b" fill="#fff">
      <use xlink:href="#es---spain-a"/>
    </mask>
    <g mask="url(#es---spain-b)">
      <mask id="es---spain-d" fill="#fff">
        <use xlink:href="#es---spain-c"/>
      </mask>
      <use fill="#FFB400" xlink:href="#es---spain-c"/>
      <rect width="16" height="3" fill="#C51918" mask="url(#es---spain-d)"/>
      <rect width="16" height="3" y="9" fill="#C51918" mask="url(#es---spain-d)"/>
      <g mask="url(#es---spain-d)">
        <g transform="translate(2 2)">
          <g transform="translate(0 2.072)">
            <rect width="1" height="2.912" x=".504" y="1.064" fill="#F1F9FF"/>
            <path fill="#C88A02" d="M1.12,0.84 L1.12,1.064 L0.448,1.064 L0.448,0.84 L0.28,0.84 L0.28,0.56 L1.288,0.56 L1.288,0.84 L1.12,0.84 Z"/>
            <polygon fill="#C88A02" points="1.12 4.144 1.288 4.144 1.288 4.424 .28 4.424 .28 4.144 .448 4.144 .448 3.92 1.12 3.92"/>
            <path fill="#AD1619" d="M0.784,0.616 C0.905866165,0.616 0.918252748,0.570111882 0.990149887,0.501574984 C1.04597824,0.448355869 1.176,0.382351716 1.176,0.308 C1.176,0.137896297 1.00049562,0 0.784,0 C0.567504378,0 0.392,0.137896297 0.392,0.308 C0.392,0.390833739 0.481539628,0.446220161 0.549241793,0.501574984 C0.620569799,0.559894376 0.672929137,0.616 0.784,0.616 Z"/>
            <use fill="#005BBF" transform="translate(.28 4.424)" xlink:href="#es---spain-e"/>
            <rect width="1" height="2.912" x="5.992" y="1.064" fill="#F1F9FF"/>
            <path fill="#C88A02" d="M6.608,0.84 L6.608,1.064 L5.936,1.064 L5.936,0.84 L5.768,0.84 L5.768,0.56 L6.776,0.56 L6.776,0.84 L6.608,0.84 Z"/>
            <polygon fill="#C88A02" points="6.608 4.144 6.776 4.144 6.776 4.424 5.768 4.424 5.768 4.144 5.936 4.144 5.936 3.92 6.608 3.92"/>
            <path fill="#AD1619" d="M6.272,0.616 C6.39386616,0.616 6.40625275,0.570111882 6.47814989,0.501574984 C6.53397824,0.448355869 6.664,0.382351716 6.664,0.308 C6.664,0.137896297 6.48849562,0 6.272,0 C6.05550438,0 5.88,0.137896297 5.88,0.308 C5.88,0.390833739 5.96953963,0.446220161 6.03724179,0.501574984 C6.1085698,0.559894376 6.16092914,0.616 6.272,0.616 Z"/>
            <use fill="#005BBF" transform="translate(5.768 4.424)" xlink:href="#es---spain-f"/>
            <path fill="#AD1619" fill-rule="nonzero" d="M0.651401388,3.41592855 C0.651401388,3.53420325 0.594942592,3.6455551 0.493979983,3.76796391 L0.150113991,3.48434373 L0.117283414,3.47425544 L0.0989802597,3.33095019 C0.0651679571,3.06621547 0.178317949,2.91956764 0.41145958,2.81355612 C0.417399602,2.81085514 0.522685462,2.76496018 0.552736931,2.75055098 C0.601961535,2.72694857 0.642543922,2.70355401 0.680423053,2.67600674 C0.717771914,2.6488451 0.757858537,2.62322222 0.806209319,2.59517415 C0.517684174,2.54881853 0.361770537,2.51462605 0.242169002,2.46309691 C-0.0440574188,2.33977909 -0.080972854,2.05339617 0.194125941,1.8639431 C0.569191909,1.60564535 1.57325701,1.58241187 2.01392982,1.80993526 L1.80840119,2.2080081 C1.59215254,2.09635695 1.10053274,2.07530285 0.75625031,2.13259181 C0.808604485,2.14173584 0.867321073,2.15138096 0.933126946,2.16171283 C0.974046469,2.16813742 1.11821872,2.19039482 1.12980543,2.19219622 C1.26732013,2.21357579 1.36113175,2.24073583 1.43065211,2.28806797 C1.57254892,2.38467677 1.59357307,2.55873772 1.4923133,2.68714371 C1.44956152,2.7413566 1.39366415,2.78190742 1.30908047,2.8309713 C1.28193524,2.84671725 1.2527168,2.86276128 1.21348052,2.88369564 C1.20545805,2.887976 1.13703009,2.92423968 1.11713358,2.93492366 C1.03640194,2.97827477 0.983442259,3.00958117 0.943916545,3.0383259 C0.882004517,3.08335089 0.818507462,3.11995509 0.746431029,3.15451458 C0.707658998,3.17310515 0.596294695,3.22164976 0.596898456,3.22137523 C0.594624467,3.22240923 0.592435653,3.22339281 0.59032906,3.22432929 C0.629209947,3.27694645 0.651401388,3.34135929 0.651401388,3.41592855 Z M0.205077343,3.39968118 C0.205419175,3.39877823 0.205653996,3.3980897 0.205787702,3.3976228 C0.205731596,3.39781872 0.205675681,3.39801763 0.205619983,3.39821954 L0.205077343,3.39968118 Z M6.35297682,3.41592855 C6.35297682,3.34135929 6.37516826,3.27694645 6.41404915,3.22432929 C6.41194255,3.22339281 6.40975374,3.22240923 6.40747975,3.22137523 C6.40808351,3.22164976 6.29671921,3.17310515 6.25794718,3.15451458 C6.18587075,3.11995509 6.12237369,3.08335089 6.06046166,3.0383259 C6.02093595,3.00958117 5.96797627,2.97827477 5.88724462,2.93492366 C5.86734812,2.92423968 5.79892016,2.887976 5.79089769,2.88369564 C5.75166141,2.86276128 5.72244296,2.84671725 5.69529774,2.8309713 C5.61071405,2.78190742 5.55481669,2.7413566 5.5120649,2.68714371 C5.41080514,2.55873772 5.43182929,2.38467677 5.57372609,2.28806797 C5.64324646,2.24073583 5.73705807,2.21357579 5.87457277,2.19219622 C5.88615949,2.19039482 6.03033174,2.16813742 6.07125126,2.16171283 C6.13705713,2.15138096 6.19577372,2.14173584 6.2481279,2.13259181 C5.90384547,2.07530285 5.41222567,2.09635695 5.19597702,2.2080081 L4.99044838,1.80993526 C5.43112119,1.58241187 6.4351863,1.60564535 6.81025227,1.8639431 C7.08535106,2.05339617 7.04843563,2.33977909 6.7622092,2.46309691 C6.64260767,2.51462605 6.48669403,2.54881853 6.19816889,2.59517415 C6.24651967,2.62322222 6.28660629,2.6488451 6.32395515,2.67600674 C6.36183428,2.70355401 6.40241667,2.72694857 6.45164128,2.75055098 C6.48169275,2.76496018 6.58697861,2.81085514 6.59291863,2.81355612 C6.82606026,2.91956764 6.93921025,3.06621547 6.90539795,3.33095019 L6.88709479,3.47425544 L6.85426422,3.48434373 L6.51039822,3.76796391 C6.40943561,3.6455551 6.35297682,3.53420325 6.35297682,3.41592855 Z"/>
            <path fill="#F1F9FF" fill-rule="nonzero" d="M0.961678429,2.128 L1.1269698,2.1621948 L1.1269698,2.40856395 C1.00960514,2.5022097 0.801948541,2.62794918 0.504,2.78578239 L0.504,2.128 L0.961678429,2.128 Z"/>
            <path fill="#F1F9FF" fill-rule="nonzero" d="M6.44967843,2.128 L6.6149698,2.1621948 L6.6149698,2.40856395 C6.49760514,2.5022097 6.28994854,2.62794918 5.992,2.78578239 L5.992,2.128 L6.44967843,2.128 Z" transform="matrix(-1 0 0 1 12.607 0)"/>
          </g>
          <g transform="translate(.568)">
            <path fill="#AD1619" d="M2.99739025,1.05517319 C3.30697463,1.02526108 3.6128724,1.07717417 3.91508356,1.21091246 C4.23031894,1.21091246 4.53195674,1.31427363 4.81999696,1.52099599 L4.81999696,1.60298835 L4.25518265,2.17025222 C4.14226394,2.48330025 3.94098398,2.49981408 3.78419257,2.55196238 C3.73239345,2.5691906 2.99521887,2.58931198 2.99521887,2.58931198 C2.99521887,2.58931198 2.99501519,2.5888702 2.99462328,2.58799475 C2.25274891,2.67352589 1.82881303,2.53427838 1.72281564,2.17025222 L1.15800132,1.60298835 L1.15800132,1.52099599 C1.44604154,1.31427363 1.74767934,1.21091246 2.06291473,1.21091246 C2.37565911,1.07576011 2.68719402,1.0233667 2.99751945,1.05373223 C2.99747636,1.05421266 2.9974333,1.05469298 2.99739025,1.05517319 Z M2.99488876,1.08324789 C2.99049886,1.13281479 2.98635759,1.18117861 2.98246494,1.22833935 C2.98916668,1.18265877 2.99367323,1.13448653 2.99488876,1.08324789 Z"/>
            <path fill="#C88A02" fill-rule="nonzero" d="M4.11647044,2.45619154 C4.09946551,2.46186641 4.07776888,2.46773542 4.05182445,2.47365425 C3.97979144,2.49008747 3.87725762,2.50642418 3.75574186,2.5210142 C3.51844849,2.54950527 3.23628583,2.56825332 3.01196971,2.56972591 C2.7876536,2.56825332 2.50549093,2.54950527 2.26819756,2.5210142 C2.1466818,2.50642418 2.04414798,2.49008747 1.97211497,2.47365425 C1.94144462,2.46665728 1.91671053,2.45972992 1.89864605,2.45311061 C1.90061288,2.45231864 1.90259484,2.4514554 1.90459194,2.45052092 C1.99322941,2.40904554 2.35221491,2.36895762 2.98154842,2.33025715 C3.61088193,2.36895762 3.96986742,2.40904554 4.0585049,2.45052092 C4.07945602,2.4603244 4.09874164,2.46228598 4.11636176,2.45640566 Z M4.15097651,2.43246232 C4.1802475,2.40013521 4.20340984,2.33904593 4.22046351,2.24919446 C4.17948371,2.33184627 4.15637469,2.3923053 4.15097651,2.43246232 Z M3.01196971,2.56972591 C3.02144301,2.5697881 3.03081314,2.56981948 3.04007237,2.56981948 L3.04007237,2.62581948 C3.03081087,2.62581948 3.02144082,2.62578848 3.01196971,2.62572705 Z M4.21192731,2.44124333 L4.2124353,2.44053145 C4.21255065,2.44044147 4.21266417,2.44035199 4.21277583,2.44026303 C4.21256131,2.44043394 4.21226669,2.44075732 4.21192731,2.44124333 Z"/>
            <path fill="#005BBF" d="M2.98811643,0.673535199 C3.08090027,0.673535199 3.15611643,0.598319037 3.15611643,0.505535199 C3.15611643,0.412751361 3.08090027,0.337535199 2.98811643,0.337535199 C2.89533259,0.337535199 2.82011643,0.412751361 2.82011643,0.505535199 C2.82011643,0.598319037 2.89533259,0.673535199 2.98811643,0.673535199 Z"/>
            <path fill="#C88A02" fill-rule="nonzero" d="M2.92541542,0.462 L2.92541542,0.228666667 L2.848,0.228666667 L2.848,0.112 L2.92541542,0.112 L2.92541542,0.0382985859 L3.04208209,0.0382985859 L3.04208209,0.112 L3.11830984,0.112 L3.11830984,0.228666667 L3.04208209,0.228666667 L3.04208209,0.462 L3.11830984,0.462 L3.11830984,0.578666667 L2.848,0.578666667 L2.848,0.462 L2.92541542,0.462 Z"/>
            <rect width="1" height="1" x="2.904" y=".672" fill="#C88A02"/>
            <path fill="#C88A02" fill-rule="nonzero" d="M1.28587346,1.64843504 L0.978259,1.63686689 C1.12339516,0.798069902 1.83817982,0.387087363 2.9803909,0.387087363 C4.12408069,0.387087363 4.83634409,0.799849428 4.97056433,1.64176482 L4.55452446,1.68540463 C4.48920826,1.27569955 3.80297723,0.904927639 2.98640362,0.904927639 C2.1683513,0.904927639 1.35730388,1.23561156 1.28587346,1.64843504 Z"/>
          </g>
          <g transform="translate(1.736 2.632)">
            <mask id="es---spain-h" fill="#fff">
              <use xlink:href="#es---spain-g"/>
            </mask>
            <use fill="#E1E5E8" opacity=".3" xlink:href="#es---spain-g"/>
            <rect width="1.848" height="2.184" y="2.016" fill="#FFC034" fill-rule="nonzero" mask="url(#es---spain-h)"/>
            <rect width="1.848" height="2.128" y="-.056" fill="#AD1619" fill-rule="nonzero" mask="url(#es---spain-h)"/>
            <rect width="1.848" height="2.128" x="1.792" y="1.96" fill="#AD1619" fill-rule="nonzero" mask="url(#es---spain-h)"/>
            <rect width="1.96" height="2.072" x="1.792" fill="#F1F9FF" mask="url(#es---spain-h)"/>
            <path fill="#F1F9FF" d="M3.00535909,4.08934923 C2.21462642,4.15151619 1.81926009,3.92760679 1.81926009,3.41762105 C1.81171982,3.86543984 1.39511629,4.08934923 0.569449481,4.08934923 L0.569449481,4.69325891 L3.00535909,4.69325891 L3.00535909,4.08934923 Z" mask="url(#es---spain-h)"/>
            <ellipse cx="1.82" cy="2.016" fill="#005BBF" stroke="#AD1619" stroke-width=".583" mask="url(#es---spain-h)" rx="1" ry="1"/>
          </g>
          <circle cx="2.5" cy="3.5" r="1" fill="#C88A02"/>
          <circle cx="4.5" cy="3.5" r="1" fill="#C37C9C"/>
          <circle cx="4.5" cy="5.5" r="1" fill="#FFC034"/>
          <circle cx="2.5" cy="5.5" r="1" fill="#AD1619" fill-rule="nonzero"/>
        </g>
      </g>
    </g>
  </g>
</svg>
