<svg xmlns="http://www.w3.org/2000/svg" xmlns:xlink="http://www.w3.org/1999/xlink" width="32" height="24" viewBox="0 0 32 24">
  <defs>
    <rect id="by---belarus-a" width="32" height="24" x="0" y="0"/>
  </defs>
  <g fill="none" fill-rule="evenodd">
    <mask id="by---belarus-b" fill="#fff">
      <use xlink:href="#by---belarus-a"/>
    </mask>
    <g mask="url(#by---belarus-b)">
      <polygon fill="#73BE4A" points="0 0 32 0 32 24 0 24"/>
      <rect width="32" height="16" fill="#AF0100"/>
      <rect width="6" height="24" fill="#F7FCFF"/>
      <g fill="#B20000">
        <path fill-rule="nonzero" d="M.444211847 2.23606016L1.89683664.0568294942 3.31206746 2.2359995 1.89679577 4.31536214.444211847 2.23606016zM1.89149001 3.42535471L2.7056603 2.22914954 1.89144914.97542857 1.05578815 2.22908887 1.89149001 3.42535471zM1.75 2.06451613L2 2.06451613 2 2.58064516 1.75 2.58064516 1.75 2.06451613zM.444211847 5.17655182L1.13705739 4.18586175 1.81206746 5.17652424 1.1370379 6.12181376.444211847 5.17655182zM1.14892956 5.61712466L1.46111256 5.19334105 1.14809197 4.70300285.832997339 5.16806142 1.14892956 5.61712466zM1.94421185 5.17655182L2.63705739 4.18586175 3.31206746 5.17652424 2.6370379 6.12181376 1.94421185 5.17655182zM2.64892956 5.61712466L2.96111256 5.19334105 2.64809197 4.70300285 2.33299734 5.16806142 2.64892956 5.61712466z"/>
        <path fill-rule="nonzero" d="M2.94421185 5.17655182L3.63705739 4.18586175 4.31206746 5.17652424 3.6370379 6.12181376 2.94421185 5.17655182zM3.64892956 5.61712466L3.96111256 5.19334105 3.64809197 4.70300285 3.33299734 5.16806142 3.64892956 5.61712466zM4.44421185 5.17655182L5.13705739 4.18586175 5.81206746 5.17652424 5.1370379 6.12181376 4.44421185 5.17655182zM5.14892956 5.61712466L5.46111256 5.19334105 5.14809197 4.70300285 4.83299734 5.16806142 5.14892956 5.61712466zM2.94421185 2.23606016L4.39683664.0568294942 5.81206746 2.2359995 4.39679577 4.31536214 2.94421185 2.23606016zM4.39149001 3.42535471L5.2056603 2.22914954 4.39144914.97542857 3.55578815 2.22908887 4.39149001 3.42535471zM4.25 2.06451613L4.5 2.06451613 4.5 2.58064516 4.25 2.58064516 4.25 2.06451613z"/>
        <polygon fill-rule="nonzero" points="1.656 12.406 .037 9.687 .463 9.417 1.637 11.388 3.069 8.756 4.537 11.394 5.574 9.673 5.998 9.945 4.52 12.4 3.074 9.801"/>
        <polygon points=".75 .516 1.019 .516 1.019 1.032 .75 1.032"/>
        <polygon points="3 0 3.269 0 3.269 .516 3 .516"/>
        <polygon points="5.25 .516 5.519 .516 5.519 1.032 5.25 1.032"/>
        <path d="M.75 3.61290323L1 3.61290323 1 4.12903226.75 4.12903226.75 3.61290323zM3 3.61290323L3.25 3.61290323 3.25 4.12903226 3 4.12903226 3 3.61290323zM5.25 3.61290323L5.5 3.61290323 5.5 4.12903226 5.25 4.12903226 5.25 3.61290323zM.75 6.19354839L1 6.19354839 1 6.70967742.75 6.70967742.75 6.19354839zM3 6.19354839L3.25 6.19354839 3.25 6.70967742 3 6.70967742 3 6.19354839zM5.25 6.19354839L5.5 6.19354839 5.5 6.70967742 5.25 6.70967742 5.25 6.19354839z"/>
        <path d="M3.06267379 7.759415L4.24924061 5.88022192 5.62900076 8.03605567 4.58133803 9.92295495 3.91714319 8.95472809 4.44153591 7.86445854 4.24924061 7.42147778 3.12900076 9.23856507 3.12900076 9.45373664 3.06267379 9.34615086 2.99634683 9.45373664 2.99634683 9.23856507 1.87610698 7.42147778 1.68381168 7.86445854 2.2082044 8.95472809 1.54400956 9.92295495.496346828 8.03605567 1.87610698 5.88022192 3.06267379 7.759415zM3.25 12.3870968L3 12.3870968 3 12.6451613 2.75 12.6451613 2.75 12.1290323 3 12.1290323 3 11.8709677 3.25 11.8709677 3.25 12.1290323 3.5 12.1290323 3.5 12.6451613 3.25 12.6451613 3.25 12.3870968zM3 10.5806452L3.25 10.5806452 3.25 11.0967742 3 11.0967742 3 10.5806452zM3 13.1612903L3.25 13.1612903 3.25 13.6774194 3 13.6774194 3 13.1612903zM2.75 11.3548387L3 11.3548387 3 11.8709677 2.75 11.8709677 2.75 11.3548387zM3.25 11.3548387L3.5 11.3548387 3.5 11.8709677 3.25 11.8709677 3.25 11.3548387zM2.25 11.8709677L2.5 11.8709677 2.5 12.3870968 2.25 12.3870968 2.25 11.8709677zM3.75 11.8709677L4 11.8709677 4 12.3870968 3.75 12.3870968 3.75 11.8709677zM.5 11.8709677L.75 11.8709677.75 12.3870968.5 12.3870968.5 11.8709677zM5.5 11.8709677L5.75 11.8709677 5.75 12.3870968 5.5 12.3870968 5.5 11.8709677z"/>
        <g transform="matrix(1 0 0 -1 0 24)">
          <path fill-rule="nonzero" d="M.444211847 2.23606016L1.89683664.0568294942 3.31206746 2.2359995 1.89679577 4.31536214.444211847 2.23606016zM1.89149001 3.42535471L2.7056603 2.22914954 1.89144914.97542857 1.05578815 2.22908887 1.89149001 3.42535471zM1.75 2.06451613L2 2.06451613 2 2.58064516 1.75 2.58064516 1.75 2.06451613zM.444211847 5.17655182L1.13705739 4.18586175 1.81206746 5.17652424 1.1370379 6.12181376.444211847 5.17655182zM1.14892956 5.61712466L1.46111256 5.19334105 1.14809197 4.70300285.832997339 5.16806142 1.14892956 5.61712466zM1.94421185 5.17655182L2.63705739 4.18586175 3.31206746 5.17652424 2.6370379 6.12181376 1.94421185 5.17655182zM2.64892956 5.61712466L2.96111256 5.19334105 2.64809197 4.70300285 2.33299734 5.16806142 2.64892956 5.61712466z"/>
          <path fill-rule="nonzero" d="M2.94421185 5.17655182L3.63705739 4.18586175 4.31206746 5.17652424 3.6370379 6.12181376 2.94421185 5.17655182zM3.64892956 5.61712466L3.96111256 5.19334105 3.64809197 4.70300285 3.33299734 5.16806142 3.64892956 5.61712466zM4.44421185 5.17655182L5.13705739 4.18586175 5.81206746 5.17652424 5.1370379 6.12181376 4.44421185 5.17655182zM5.14892956 5.61712466L5.46111256 5.19334105 5.14809197 4.70300285 4.83299734 5.16806142 5.14892956 5.61712466zM2.94421185 2.23606016L4.39683664.0568294942 5.81206746 2.2359995 4.39679577 4.31536214 2.94421185 2.23606016zM4.39149001 3.42535471L5.2056603 2.22914954 4.39144914.97542857 3.55578815 2.22908887 4.39149001 3.42535471zM4.25 2.06451613L4.5 2.06451613 4.5 2.58064516 4.25 2.58064516 4.25 2.06451613z"/>
          <polygon fill-rule="nonzero" points="1.656 12.406 .037 9.687 .463 9.417 1.637 11.388 3.069 8.756 4.537 11.394 5.574 9.673 5.998 9.945 4.52 12.4 3.074 9.801"/>
          <polygon points=".75 .516 1.019 .516 1.019 1.032 .75 1.032"/>
          <polygon points="3 0 3.269 0 3.269 .516 3 .516"/>
          <polygon points="5.25 .516 5.519 .516 5.519 1.032 5.25 1.032"/>
          <path d="M.75 3.61290323L1 3.61290323 1 4.12903226.75 4.12903226.75 3.61290323zM3 3.61290323L3.25 3.61290323 3.25 4.12903226 3 4.12903226 3 3.61290323zM5.25 3.61290323L5.5 3.61290323 5.5 4.12903226 5.25 4.12903226 5.25 3.61290323zM.75 6.19354839L1 6.19354839 1 6.70967742.75 6.70967742.75 6.19354839zM3 6.19354839L3.25 6.19354839 3.25 6.70967742 3 6.70967742 3 6.19354839zM5.25 6.19354839L5.5 6.19354839 5.5 6.70967742 5.25 6.70967742 5.25 6.19354839z"/>
          <path d="M3.06267379,7.61187438 L4.24924061,5.73268131 L5.62900076,7.88851505 L4.58133803,9.77541434 L3.91714319,8.80718747 L4.44153591,7.71691792 L4.24924061,7.27393716 L3.12900076,9.09102445 L3.12900076,9.30619603 L3.06267379,9.19861024 L2.99634683,9.30619603 L2.99634683,9.09102445 L1.87610698,7.27393716 L1.68381168,7.71691792 L2.2082044,8.80718747 L1.54400956,9.77541434 L0.496346828,7.88851505 L1.87610698,5.73268131 L3.06267379,7.61187438 Z"/>
        </g>
      </g>
    </g>
  </g>
</svg>
