<svg xmlns="http://www.w3.org/2000/svg" xmlns:xlink="http://www.w3.org/1999/xlink" width="16" height="12" viewBox="0 0 16 12">
  <defs>
    <rect id="hm---heard-and-mcdonald-islands-a" width="16" height="12" x="0" y="0"/>
    <rect id="hm---heard-and-mcdonald-islands-c" width="9" height="7" x="0" y="0"/>
  </defs>
  <g fill="none" fill-rule="evenodd">
    <mask id="hm---heard-and-mcdonald-islands-b" fill="#fff">
      <use xlink:href="#hm---heard-and-mcdonald-islands-a"/>
    </mask>
    <g mask="url(#hm---heard-and-mcdonald-islands-b)">
      <polygon fill="#2E42A5" points="0 0 16 0 16 12 0 12"/>
      <mask id="hm---heard-and-mcdonald-islands-d" fill="#fff">
        <use xlink:href="#hm---heard-and-mcdonald-islands-c"/>
      </mask>
      <g mask="url(#hm---heard-and-mcdonald-islands-d)">
        <g transform="translate(-2 -1)">
          <polygon fill="#F7FCFF" fill-rule="nonzero" points=".998 1.232 2.978 .363 11.045 6.787 12.09 8.078 9.972 8.369 6.682 5.6 4.033 3.735" transform="matrix(1 0 0 -1 0 8.732)"/>
          <polygon fill="#F50100" fill-rule="nonzero" points="1.269 1.038 2.278 .534 11.714 8.613 10.298 8.613" transform="matrix(1 0 0 -1 0 9.146)"/>
          <g transform="matrix(-1 0 0 1 13 0)">
            <polygon fill="#F7FCFF" fill-rule="nonzero" points=".998 1.232 2.978 .363 11.045 6.787 12.09 8.078 9.972 8.369 6.682 5.6 4.033 3.735" transform="matrix(1 0 0 -1 0 8.732)"/>
            <polygon fill="#F50100" fill-rule="nonzero" points="1.065 1.162 2.074 .658 6.093 4.117 7.284 4.503 12.19 8.441 10.773 8.441 5.87 4.597 4.567 4.134" transform="matrix(1 0 0 -1 0 9.099)"/>
          </g>
          <path fill="#F50100" stroke="#F7FCFF" stroke-width=".75" d="M3.61725576,2.625 L3.61725576,-0.375 L5.36725576,-0.375 L5.36725576,2.625 L9.375,2.625 L9.375,4.375 L5.36725576,4.375 L5.36725576,7.375 L3.61725576,7.375 L3.61725576,4.375 L-0.375,4.375 L-0.375,2.625 L3.61725576,2.625 Z" transform="translate(2 1)"/>
        </g>
      </g>
      <g fill="#F7FCFF" fill-rule="nonzero" transform="translate(3 1)">
        <polygon points="1.408 8.834 .818 9.38 .876 8.578 .081 8.457 .745 8.002 .344 7.305 1.113 7.541 1.408 6.793 1.703 7.541 2.472 7.305 2.071 8.002 2.735 8.457 1.94 8.578 1.998 9.38"/>
        <polygon points="7.776 5.069 7.382 5.433 7.421 4.898 6.892 4.817 7.334 4.514 7.067 4.05 7.579 4.207 7.776 3.708 7.973 4.207 8.485 4.05 8.218 4.514 8.66 4.817 8.131 4.898 8.17 5.433"/>
        <polygon points="8.715 1.377 8.321 1.74 8.36 1.206 7.83 1.125 8.272 .822 8.005 .357 8.518 .514 8.715 .016 8.911 .514 9.424 .357 9.157 .822 9.599 1.125 9.069 1.206 9.108 1.74"/>
        <polygon points="11.061 3.223 10.668 3.587 10.707 3.052 10.177 2.971 10.619 2.668 10.352 2.204 10.865 2.361 11.061 1.862 11.258 2.361 11.771 2.204 11.504 2.668 11.946 2.971 11.416 3.052 11.455 3.587"/>
        <polygon points="9.184 8.531 8.79 8.894 8.829 8.36 8.3 8.279 8.742 7.976 8.475 7.511 8.987 7.668 9.184 7.17 9.381 7.668 9.893 7.511 9.626 7.976 10.068 8.279 9.539 8.36 9.578 8.894"/>
        <polygon points="10.827 5.648 10.427 5.858 10.503 5.413 10.18 5.097 10.627 5.032 10.827 4.627 11.027 5.032 11.474 5.097 11.15 5.413 11.227 5.858"/>
      </g>
    </g>
  </g>
</svg>
