<svg xmlns="http://www.w3.org/2000/svg" xmlns:xlink="http://www.w3.org/1999/xlink" width="20" height="15" viewBox="0 0 20 15">
  <defs>
    <rect id="hm---heard-and-mcdonald-islands-a" width="20" height="15" x="0" y="0"/>
    <rect id="hm---heard-and-mcdonald-islands-c" width="11" height="9" x="0" y="0"/>
  </defs>
  <g fill="none" fill-rule="evenodd">
    <mask id="hm---heard-and-mcdonald-islands-b" fill="#fff">
      <use xlink:href="#hm---heard-and-mcdonald-islands-a"/>
    </mask>
    <g fill="#2E42A5" mask="url(#hm---heard-and-mcdonald-islands-b)">
      <rect width="20" height="15"/>
    </g>
    <g mask="url(#hm---heard-and-mcdonald-islands-b)">
      <mask id="hm---heard-and-mcdonald-islands-d" fill="#fff">
        <use xlink:href="#hm---heard-and-mcdonald-islands-c"/>
      </mask>
      <use fill="#2E42A5" xlink:href="#hm---heard-and-mcdonald-islands-c"/>
      <g mask="url(#hm---heard-and-mcdonald-islands-d)">
        <g transform="translate(-2.5 -1.25)">
          <g transform="translate(1)">
            <polygon fill="#F7FCFF" fill-rule="nonzero" points=".247 1.54 2.723 .454 12.806 8.484 14.112 10.098 11.465 10.461 7.352 7 4.042 4.669" transform="matrix(1 0 0 -1 0 10.915)"/>
            <polygon fill="#F50100" fill-rule="nonzero" points=".586 1.297 1.847 .667 13.643 10.766 11.872 10.766" transform="matrix(1 0 0 -1 0 11.433)"/>
          </g>
          <g transform="matrix(-1 0 0 1 15.25 0)">
            <polygon fill="#F7FCFF" fill-rule="nonzero" points=".247 1.85 2.444 .454 12.806 8.794 14.112 10.408 11.465 10.771 7.352 7.31 4.042 4.979" transform="matrix(1 0 0 -1 0 11.225)"/>
            <polygon fill="#F50100" fill-rule="nonzero" points=".332 1.453 1.593 .823 6.616 5.146 8.105 5.629 14.238 10.551 12.467 10.551 6.337 5.746 4.709 5.167" transform="matrix(1 0 0 -1 0 11.373)"/>
          </g>
          <path fill="#F50100" stroke="#F7FCFF" stroke-width=".938" d="M4.53125,3.53125 L4.53125,-0.46875 L6.46875,-0.46875 L6.46875,3.53125 L11.46875,3.53125 L11.46875,5.46875 L6.46875,5.46875 L6.46875,9.46875 L4.53125,9.46875 L4.53125,5.46875 L-0.46875,5.46875 L-0.46875,3.53125 L4.53125,3.53125 Z" transform="translate(2.5 1.25)"/>
        </g>
      </g>
    </g>
    <g fill="#F7FCFF" fill-rule="nonzero" mask="url(#hm---heard-and-mcdonald-islands-b)">
      <g transform="translate(4 1)">
        <polygon points="1.92 11.278 1.1 12.036 1.181 10.923 .077 10.754 .999 10.123 .442 9.155 1.51 9.482 1.92 8.443 2.33 9.482 3.398 9.155 2.841 10.123 3.763 10.754 2.659 10.923 2.74 12.036"/>
        <polygon points="9.24 7.297 8.693 7.802 8.747 7.059 8.012 6.947 8.626 6.526 8.255 5.881 8.967 6.099 9.24 5.407 9.513 6.099 10.225 5.881 9.854 6.526 10.468 6.947 9.733 7.059 9.787 7.802"/>
        <polygon points="10.52 1.963 9.973 2.469 10.027 1.726 9.292 1.614 9.906 1.193 9.535 .548 10.247 .766 10.52 .073 10.793 .766 11.505 .548 11.134 1.193 11.748 1.614 11.013 1.726 11.067 2.469"/>
        <polygon points="13.72 4.63 13.173 5.135 13.227 4.393 12.492 4.28 13.106 3.86 12.735 3.214 13.447 3.432 13.72 2.74 13.993 3.432 14.705 3.214 14.334 3.86 14.948 4.28 14.213 4.393 14.267 5.135"/>
        <polygon points="11.16 12.297 10.613 12.802 10.667 12.059 9.932 11.947 10.546 11.526 10.175 10.881 10.887 11.099 11.16 10.407 11.433 11.099 12.145 10.881 11.774 11.526 12.388 11.947 11.653 12.059 11.707 12.802"/>
        <polygon points="13.4 8.139 12.845 8.431 12.951 7.813 12.501 7.375 13.122 7.284 13.4 6.722 13.678 7.284 14.299 7.375 13.849 7.813 13.955 8.431"/>
      </g>
    </g>
  </g>
</svg>
