<svg xmlns="http://www.w3.org/2000/svg" xmlns:xlink="http://www.w3.org/1999/xlink" width="32" height="24" viewBox="0 0 32 24">
  <defs>
    <rect id="mn---mongolia-a" width="32" height="24" x="0" y="0"/>
  </defs>
  <g fill="none" fill-rule="evenodd">
    <mask id="mn---mongolia-b" fill="#fff">
      <use xlink:href="#mn---mongolia-a"/>
    </mask>
    <g mask="url(#mn---mongolia-b)">
      <rect width="12" height="24" x="10" fill="#4C67E8"/>
      <rect width="10" height="24" x="22" fill="#C51918"/>
      <rect width="12" height="24" fill="#C51918"/>
      <path fill="#F8D000" d="M2,11.4042682 L3.76923077,11.4042682 L3.76923077,19.9756221 L2,19.9756221 L2,11.4042682 Z M8.23076923,11.4042682 L10,11.4042682 L10,19.9756221 L8.23076923,19.9756221 L8.23076923,11.4042682 Z M4.23076923,11.4788017 L7.89937584,11.4788017 L5.95549415,12.5466488 L4.23076923,11.4788017 Z M4.23076923,18.9321529 L7.89937584,18.9321529 L5.95549415,20 L4.23076923,18.9321529 Z M4.23076923,12.8949384 L7.84615385,12.8949384 L7.84615385,13.56574 L4.23076923,13.56574 L4.23076923,12.8949384 Z M4.23076923,17.8886837 L7.84615385,17.8886837 L7.84615385,18.5594854 L4.23076923,18.5594854 L4.23076923,17.8886837 Z M6.07692308,17.5160162 C5.05732046,17.5160162 4.23076923,16.7151412 4.23076923,15.7272119 C4.23076923,14.7392826 5.05732046,13.9384076 6.07692308,13.9384076 C7.09652569,13.9384076 7.92307692,14.7392826 7.92307692,15.7272119 C7.92307692,16.7151412 7.09652569,17.5160162 6.07692308,17.5160162 Z M6.03846154,10.1371985 C5.21003441,10.1371985 4.53846154,9.48648756 4.53846154,8.68379498 C4.53846154,7.8811024 5.21003441,7.23039149 6.03846154,7.23039149 C6.86688866,7.23039149 7.53846154,7.8811024 7.53846154,8.68379498 C7.53846154,9.48648756 6.86688866,10.1371985 6.03846154,10.1371985 Z M4.00320324,9.21619801 C4.47813641,9.97877498 5.15150802,10.3600635 6.02331805,10.3600635 C6.89512809,10.3600635 7.56849969,9.97877498 8.04343287,9.21619801 C7.84539518,10.4610922 7.13287321,11.0835393 5.90586698,11.0835393 C4.67886074,11.0835393 4.04463949,10.4610922 4.00320324,9.21619801 Z M5.13353849,5.89687909 C5.45384455,5.2051449 5.61399758,4.8592778 5.61399758,4.8592778 C5.61399758,4.8592778 5.61399758,4.97810698 5.61399758,5.27724417 C5.61399758,5.57638137 5.61399758,5.76342064 5.61399758,5.89687909 C5.61399758,6.03033754 5.79610333,5.76342064 5.79610333,5.44211015 C5.79610333,5.22790316 5.86869245,4.96041952 6.01387069,4.63965923 C6.04439971,4.07776356 6.04439971,3.88605728 6.01387069,4.06454038 C5.96807718,4.33226502 6.05966421,4.39517987 6.29823726,4.63965923 C6.53681031,4.88413859 6.25942632,5.89687909 6.46505947,5.89687909 C6.60214824,5.89687909 6.66559811,5.59062172 6.65540908,4.97810698 L7.00053932,5.89687909 C7.01832381,6.55510657 6.68943427,6.88422031 6.01387069,6.88422031 C5.33830712,6.88422031 5.04486305,6.55510657 5.13353849,5.89687909 Z"/>
      <path fill="#C51918" fill-rule="nonzero" d="M6.35858783,13.9723856 L6.44107124,13.6048382 C6.85354529,14.0561021 7.04039492,14.3093331 6.95211585,14.7228031 C6.85356967,15.1843608 6.33548031,15.6983664 5.733548,16.1219088 C5.36897608,16.3784354 5.14563901,17.0708082 5.32655926,17.2909777 L5.15403773,17.6048382 C4.75082719,17.1141543 5.07309294,16.1884306 5.6295063,15.7969171 C6.14043344,15.4374094 6.49725072,15.0604241 6.55948399,14.7637025 C6.60000934,14.570482 6.67555709,14.3191633 6.35858783,13.9723856 Z"/>
      <circle cx="6.5" cy="16.5" r="1" fill="#C51918"/>
      <path fill="#C51918" d="M5.37586563,15.6506176 C5.65200801,15.6506176 5.87586563,15.4267599 5.87586563,15.1506176 C5.87586563,14.8744752 5.65200801,14.6506176 5.37586563,14.6506176 C5.09972326,14.6506176 4.87586563,14.8744752 4.87586563,15.1506176 C4.87586563,15.4267599 5.09972326,15.6506176 5.37586563,15.6506176 Z"/>
    </g>
  </g>
</svg>
