<svg xmlns="http://www.w3.org/2000/svg" xmlns:xlink="http://www.w3.org/1999/xlink" width="32" height="24" viewBox="0 0 32 24">
  <defs>
    <rect id="tm---turkmenistan-a" width="32" height="24" x="0" y="0"/>
    <rect id="tm---turkmenistan-c" width="32" height="24" x="0" y="0"/>
    <rect id="tm---turkmenistan-e" width="10" height="26.323" x="0" y=".677"/>
    <polygon id="tm---turkmenistan-g" points="1.817 .051 .045 1.05 .045 2.705 1.817 3.745 3.736 3.745 5.55 2.705 5.55 1.05 3.736 .051"/>
  </defs>
  <g fill="none" fill-rule="evenodd">
    <mask id="tm---turkmenistan-b" fill="#fff">
      <use xlink:href="#tm---turkmenistan-a"/>
    </mask>
    <g mask="url(#tm---turkmenistan-b)">
      <mask id="tm---turkmenistan-d" fill="#fff">
        <use xlink:href="#tm---turkmenistan-c"/>
      </mask>
      <use fill="#29C470" xlink:href="#tm---turkmenistan-c"/>
      <g mask="url(#tm---turkmenistan-d)">
        <g transform="translate(2 -1)">
          <mask id="tm---turkmenistan-f" fill="#fff">
            <use xlink:href="#tm---turkmenistan-e"/>
          </mask>
          <use fill="#C51918" xlink:href="#tm---turkmenistan-e"/>
          <path fill="#E8AA00" d="M0.595353562,20.2982823 L0.0492652368,21 L0,20.9512904 L0.529820809,20.2704763 L0.529820809,20.1338111 L0.531817576,20.1211153 L0.593419567,19.9314317 L0.555717711,19.8653547 L0.24326287,20.1777683 L0.845550727,19.2397584 L0.845550727,19.560282 L0.961136152,19.6646112 L1.23721294,19.1817491 L0.960205008,18.7170325 L0.760288363,18.8706704 L0.841360071,19.0335374 L0.785610195,19.0722461 L0.334307947,18.3172271 L0.621828391,18.5138252 L0.67247674,18.4403821 L0.396956293,18.1597328 L0.518826983,18.0255233 L0.116133113,17.4378065 L0.16799858,17.3926564 L0.606347388,18.0324103 L0.492636188,18.1576342 L0.761560308,18.4315644 L0.637745192,18.6111035 L0.555284534,18.5547193 L0.712605498,18.8179139 L0.977803536,18.6141066 L1.31565922,19.1809032 L0.976872393,19.773446 L0.780017974,19.5957622 L0.780017974,19.4678069 L0.582405176,19.7755713 L0.666154016,19.9223512 L0.595353562,20.1403585 L0.595353562,20.2982823 Z M0.595353562,16.1617813 L0.0492652368,16.863499 L0,16.8147894 L0.529820809,16.1339753 L0.529820809,15.9973101 L0.531817576,15.9846143 L0.593419567,15.7949307 L0.555717711,15.7288536 L0.24326287,16.0412672 L0.845550727,15.1032573 L0.845550727,15.423781 L0.961136152,15.5281102 L1.23721294,15.0452481 L0.960205008,14.5805315 L0.760288363,14.7341694 L0.841360071,14.8970363 L0.785610195,14.935745 L0.334307947,14.1807261 L0.621828391,14.3773241 L0.67247674,14.3038811 L0.396956293,14.0232318 L0.518826983,13.8890223 L0.116133113,13.3013054 L0.16799858,13.2561554 L0.606347388,13.8959092 L0.492636188,14.0211332 L0.761560308,14.2950633 L0.637745192,14.4746025 L0.555284534,14.4182183 L0.712605498,14.6814129 L0.977803536,14.4776056 L1.31565922,15.0444021 L0.976872393,15.6369449 L0.780017974,15.4592611 L0.780017974,15.3313058 L0.582405176,15.6390702 L0.666154016,15.7858502 L0.595353562,16.0038575 L0.595353562,16.1617813 Z M0.595353562,11.5082176 L0.0492652368,12.2099353 L0,12.1612257 L0.529820809,11.4804116 L0.529820809,11.3437464 L0.531817576,11.3310506 L0.593419567,11.141367 L0.555717711,11.07529 L0.24326287,11.3877036 L0.845550727,10.4496937 L0.845550727,10.7702173 L0.961136152,10.8745465 L1.23721294,10.3916844 L0.960205008,9.92696784 L0.760288363,10.0806057 L0.841360071,10.2434727 L0.785610195,10.2821813 L0.334307947,9.52716243 L0.621828391,9.72376048 L0.67247674,9.65031741 L0.396956293,9.36966814 L0.518826983,9.23545859 L0.116133113,8.64774178 L0.16799858,8.60259169 L0.606347388,9.24234556 L0.492636188,9.36756951 L0.761560308,9.64149967 L0.637745192,9.82103882 L0.555284534,9.76465465 L0.712605498,10.0278492 L0.977803536,9.82404193 L1.31565922,10.3908385 L0.976872393,10.9833813 L0.780017974,10.8056975 L0.780017974,10.6777422 L0.582405176,10.9855066 L0.666154016,11.1322865 L0.595353562,11.3502938 L0.595353562,11.5082176 Z M0.595353562,6.92852006 L0.0492652368,7.63023772 L0,7.58152813 L0.529820809,6.90071406 L0.529820809,6.76404886 L0.531817576,6.75135305 L0.593419567,6.56166944 L0.555717711,6.4955924 L0.24326287,6.808006 L0.845550727,5.86999608 L0.845550727,6.19051975 L0.961136152,6.29484892 L1.23721294,5.81198685 L0.960205008,5.34727026 L0.760288363,5.50090816 L0.841360071,5.66377509 L0.785610195,5.70248377 L0.334307947,4.94746486 L0.621828391,5.1440629 L0.67247674,5.07061984 L0.396956293,4.78997056 L0.518826983,4.65576101 L0.116133113,4.0680442 L0.16799858,4.02289412 L0.606347388,4.66264799 L0.492636188,4.78787194 L0.761560308,5.06180209 L0.637745192,5.24134125 L0.555284534,5.18495707 L0.712605498,5.44815164 L0.977803536,5.24434435 L1.31565922,5.8111409 L0.976872393,6.40368368 L0.780017974,6.22599988 L0.780017974,6.09804459 L0.582405176,6.405809 L0.666154016,6.55258892 L0.595353562,6.77059626 L0.595353562,6.92852006 Z M0.595353562,1.90562595 L0.0492652368,2.6073436 L0,2.55863401 L0.529820809,1.87781994 L0.529820809,1.74115474 L0.531817576,1.72845894 L0.593419567,1.53877532 L0.555717711,1.47269828 L0.24326287,1.78511188 L0.845550727,0.847101966 L0.845550727,1.16762564 L0.961136152,1.27195481 L1.23721294,0.789092733 L0.960205008,0.324376147 L0.760288363,0.478014046 L0.841360071,0.640880974 L0.785610195,0.679589654 L0.334307947,-0.0754292584 L0.621828391,0.121168787 L0.67247674,0.0477257191 L0.396956293,-0.232923556 L0.518826983,-0.367133107 L0.116133113,-0.954849912 L0.16799858,-1 L0.606347388,-0.36024613 L0.492636188,-0.235022181 L0.761560308,0.0389079745 L0.637745192,0.218447131 L0.555284534,0.162062952 L0.712605498,0.425257526 L0.977803536,0.221450236 L1.31565922,0.788246782 L0.976872393,1.38078957 L0.780017974,1.20310576 L0.780017974,1.07515047 L0.582405176,1.38291488 L0.666154016,1.5296948 L0.595353562,1.74770215 L0.595353562,1.90562595 Z M9.40464644,20.2982823 L9.40464644,20.1403585 L9.33384598,19.9223512 L9.41759482,19.7755713 L9.21998203,19.4678069 L9.21998203,19.5957622 L9.02312761,19.773446 L8.68434078,19.1809032 L9.02219646,18.6141066 L9.2873945,18.8179139 L9.44471547,18.5547193 L9.36225481,18.6111035 L9.23843969,18.4315644 L9.50736381,18.1576342 L9.39365261,18.0324103 L9.83200142,17.3926564 L9.88386689,17.4378065 L9.48117302,18.0255233 L9.60304371,18.1597328 L9.32752326,18.4403821 L9.37817161,18.5138252 L9.66569205,18.3172271 L9.21438981,19.0722461 L9.15863993,19.0335374 L9.23971164,18.8706704 L9.03979499,18.7170325 L8.76278706,19.1817491 L9.03886385,19.6646112 L9.15444927,19.560282 L9.15444927,19.2397584 L9.75673713,20.1777683 L9.44428229,19.8653547 L9.40658043,19.9314317 L9.46818242,20.1211153 L9.47017919,20.1338111 L9.47017919,20.2704763 L10,20.9512904 L9.95073476,21 L9.40464644,20.2982823 Z M9.40464644,16.1617813 L9.40464644,16.0038575 L9.33384598,15.7858502 L9.41759482,15.6390702 L9.21998203,15.3313058 L9.21998203,15.4592611 L9.02312761,15.6369449 L8.68434078,15.0444021 L9.02219646,14.4776056 L9.2873945,14.6814129 L9.44471547,14.4182183 L9.36225481,14.4746025 L9.23843969,14.2950633 L9.50736381,14.0211332 L9.39365261,13.8959092 L9.83200142,13.2561554 L9.88386689,13.3013054 L9.48117302,13.8890223 L9.60304371,14.0232318 L9.32752326,14.3038811 L9.37817161,14.3773241 L9.66569205,14.1807261 L9.21438981,14.935745 L9.15863993,14.8970363 L9.23971164,14.7341694 L9.03979499,14.5805315 L8.76278706,15.0452481 L9.03886385,15.5281102 L9.15444927,15.423781 L9.15444927,15.1032573 L9.75673713,16.0412672 L9.44428229,15.7288536 L9.40658043,15.7949307 L9.46818242,15.9846143 L9.47017919,15.9973101 L9.47017919,16.1339753 L10,16.8147894 L9.95073476,16.863499 L9.40464644,16.1617813 Z M9.40464644,11.5082176 L9.40464644,11.3502938 L9.33384598,11.1322865 L9.41759482,10.9855066 L9.21998203,10.6777422 L9.21998203,10.8056975 L9.02312761,10.9833813 L8.68434078,10.3908385 L9.02219646,9.82404193 L9.2873945,10.0278492 L9.44471547,9.76465465 L9.36225481,9.82103882 L9.23843969,9.64149967 L9.50736381,9.36756951 L9.39365261,9.24234556 L9.83200142,8.60259169 L9.88386689,8.64774178 L9.48117302,9.23545859 L9.60304371,9.36966814 L9.32752326,9.65031741 L9.37817161,9.72376048 L9.66569205,9.52716243 L9.21438981,10.2821813 L9.15863993,10.2434727 L9.23971164,10.0806057 L9.03979499,9.92696784 L8.76278706,10.3916844 L9.03886385,10.8745465 L9.15444927,10.7702173 L9.15444927,10.4496937 L9.75673713,11.3877036 L9.44428229,11.07529 L9.40658043,11.141367 L9.46818242,11.3310506 L9.47017919,11.3437464 L9.47017919,11.4804116 L10,12.1612257 L9.95073476,12.2099353 L9.40464644,11.5082176 Z M9.40464644,6.92852006 L9.40464644,6.77059626 L9.33384598,6.55258892 L9.41759482,6.405809 L9.21998203,6.09804459 L9.21998203,6.22599988 L9.02312761,6.40368368 L8.68434078,5.8111409 L9.02219646,5.24434435 L9.2873945,5.44815164 L9.44471547,5.18495707 L9.36225481,5.24134125 L9.23843969,5.06180209 L9.50736381,4.78787194 L9.39365261,4.66264799 L9.83200142,4.02289412 L9.88386689,4.0680442 L9.48117302,4.65576101 L9.60304371,4.78997056 L9.32752326,5.07061984 L9.37817161,5.1440629 L9.66569205,4.94746486 L9.21438981,5.70248377 L9.15863993,5.66377509 L9.23971164,5.50090816 L9.03979499,5.34727026 L8.76278706,5.81198685 L9.03886385,6.29484892 L9.15444927,6.19051975 L9.15444927,5.86999608 L9.75673713,6.808006 L9.44428229,6.4955924 L9.40658043,6.56166944 L9.46818242,6.75135305 L9.47017919,6.76404886 L9.47017919,6.90071406 L10,7.58152813 L9.95073476,7.63023772 L9.40464644,6.92852006 Z M9.40464644,1.90562595 L9.40464644,1.74770215 L9.33384598,1.5296948 L9.41759482,1.38291488 L9.21998203,1.07515047 L9.21998203,1.20310576 L9.02312761,1.38078957 L8.68434078,0.788246782 L9.02219646,0.221450236 L9.2873945,0.425257526 L9.44471547,0.162062952 L9.36225481,0.218447131 L9.23843969,0.0389079745 L9.50736381,-0.235022181 L9.39365261,-0.36024613 L9.83200142,-1 L9.88386689,-0.954849912 L9.48117302,-0.367133107 L9.60304371,-0.232923556 L9.32752326,0.0477257191 L9.37817161,0.121168787 L9.66569205,-0.0754292584 L9.21438981,0.679589654 L9.15863993,0.640880974 L9.23971164,0.478014046 L9.03979499,0.324376147 L8.76278706,0.789092733 L9.03886385,1.27195481 L9.15444927,1.16762564 L9.15444927,0.847101966 L9.75673713,1.78511188 L9.44428229,1.47269828 L9.40658043,1.53877532 L9.46818242,1.72845894 L9.47017919,1.74115474 L9.47017919,1.87781994 L10,2.55863401 L9.95073476,2.6073436 L9.40464644,1.90562595 Z" mask="url(#tm---turkmenistan-f)"/>
          <g mask="url(#tm---turkmenistan-f)">
            <g transform="translate(2.4 15.2)">
              <path fill="#389F5D" stroke="#E8AA00" stroke-width=".5" d="M2.90667671,0.364583333 L4.46017699,0.364583333 L4.46017699,0.729166667 L4.81415929,0.729166667 L4.81415929,1.02083333 L5.23893805,1.02083333 L5.23893805,1.96875 L4.81415929,1.96875 L4.81415929,2.26041667 L4.46017699,2.26041667 L4.46017699,2.55208333 L2.94812657,2.55208333 C2.66924591,2.79993353 2.52980558,2.92385863 2.52980558,2.92385863 C2.52980558,2.92385863 2.38970142,2.79993353 2.10949309,2.55208333 L0.707964602,2.55208333 L0.707964602,2.26041667 L0.353982301,2.26041667 L0.353982301,1.96875 L0,1.96875 L0,1.02083333 L0.353982301,1.02083333 L0.353982301,0.729166667 L0.707964602,0.729166667 L0.707964602,0.364583333 L2.15114028,0.364583333 L2.52980558,0.0296458606 L2.90667671,0.364583333 Z"/>
              <path fill="#C51918" d="M0.915227239,0.563171698 L1.66579904,0.563171698 L0.915227239,1.20732421 L0.915227239,0.563171698 Z M4.07287868,0.563171698 L4.07287868,1.20732421 L3.32230688,0.563171698 L4.07287868,0.563171698 Z M0.915227239,2.37399088 L0.915227239,1.72983836 L1.66579904,2.37399088 L0.915227239,2.37399088 Z M4.07287868,2.37399088 L3.32230688,2.37399088 L4.07287868,1.72983836 L4.07287868,2.37399088 Z"/>
              <path fill="#E8AA00" d="M2.5041932,0.279307878 L2.76002268,0.618597541 L2.2451062,0.618597541 L2.5041932,0.279307878 Z M2.5041932,1.27484754 L2.2451062,0.935557878 L2.76002268,0.935557878 L2.5041932,1.27484754 Z M2.5041932,1.73764121 L2.76002268,2.07693087 L2.2451062,2.07693087 L2.5041932,1.73764121 Z M2.5041932,2.73318087 L2.2451062,2.39389121 L2.76002268,2.39389121 L2.5041932,2.73318087 Z"/>
              <path fill="#AF0100" d="M2.25046049 2.18254426L2.25046049 2.03671092 2.76954357 2.03671092 2.76954357 2.18254426 2.91829357 2.18254426 2.91829357 2.38254426 2.76954357 2.38254426 2.76954357 2.52837759 2.25046049 2.52837759 2.25046049 2.38254426 2.10171049 2.38254426 2.10171049 2.18254426 2.25046049 2.18254426zM2.25046049.724210924L2.25046049.578377591 2.76954357.578377591 2.76954357.724210924 2.91829357.724210924 2.91829357.924210924 2.76954357.924210924 2.76954357 1.07004426 2.25046049 1.07004426 2.25046049.924210924 2.10171049.924210924 2.10171049.724210924 2.25046049.724210924zM1.50057684 1.00847454L1.74409713 1.34928433 1.25395575 1.34928433 1.50057684 1.00847454zM1.50057684 2.00847454L1.25395575 1.66766476 1.74409713 1.66766476 1.50057684 2.00847454zM3.55367418 1.00847454L3.79719448 1.34928433 3.3070531 1.34928433 3.55367418 1.00847454zM3.55367418 2.00847454L3.3070531 1.66766476 3.79719448 1.66766476 3.55367418 2.00847454z"/>
              <path fill="#E8AA00" d="M3.30525031,1.45629425 L3.30525031,1.30754426 L3.79935782,1.30754426 L3.79935782,1.45629425 L3.94095074,1.45629425 L3.94095074,1.66029425 L3.79935782,1.66029425 L3.79935782,1.80904425 L3.30525031,1.80904425 L3.30525031,1.66029425 L3.16365739,1.66029425 L3.16365739,1.45629425 L3.30525031,1.45629425 Z M1.25215297,1.45629425 L1.25215297,1.30754426 L1.74626047,1.30754426 L1.74626047,1.45629425 L1.88785339,1.45629425 L1.88785339,1.66029425 L1.74626047,1.66029425 L1.74626047,1.80904425 L1.25215297,1.80904425 L1.25215297,1.66029425 L1.11056005,1.66029425 L1.11056005,1.45629425 L1.25215297,1.45629425 Z"/>
            </g>
          </g>
          <g mask="url(#tm---turkmenistan-f)">
            <g transform="translate(2.4 18.2)">
              <mask id="tm---turkmenistan-h" fill="#fff">
                <use xlink:href="#tm---turkmenistan-g"/>
              </mask>
              <polygon fill="#E8AA00" fill-rule="nonzero" points=".071 1.896 2.832 1.896 2.832 3.719 .071 3.719" mask="url(#tm---turkmenistan-h)"/>
              <g mask="url(#tm---turkmenistan-h)">
                <g transform="translate(-.212 .073)">
                  <rect width="3.044" height="1.823" fill="#F9E8E7"/>
                  <polygon fill="#E8AA00" fill-rule="nonzero" points=".708 1.062 1.624 .51 1.624 1.062"/>
                </g>
              </g>
              <g mask="url(#tm---turkmenistan-h)">
                <g transform="matrix(-1 0 0 1 5.876 .073)">
                  <rect width="3.044" height="1.823" fill="#E8AA00"/>
                  <polygon fill="#F9E8E7" fill-rule="nonzero" points=".92 1.062 1.837 .51 1.837 1.062"/>
                </g>
              </g>
              <g mask="url(#tm---turkmenistan-h)">
                <g transform="rotate(180 2.796 1.86)">
                  <rect width="2.761" height="1.823" fill="#F9E8E7"/>
                  <polygon fill="#E8AA00" fill-rule="nonzero" points=".708 1.062 1.624 .51 1.624 1.062"/>
                </g>
              </g>
              <polygon fill="#FCFCFC" fill-rule="nonzero" points=".496 3.104 1.412 2.552 1.412 3.104" mask="url(#tm---turkmenistan-h)" transform="matrix(1 0 0 -1 0 5.645)"/>
              <polygon fill="#C51918" points="1.841 1.167 2.301 1.167 2.761 1.021 3.221 1.167 3.681 1.167 3.681 2.552 3.221 2.552 2.761 2.771 2.301 2.552 1.841 2.552"/>
              <path fill="#C9343F" fill-rule="nonzero" d="M1.94911504,3.09888221 L2.05155949,3.09888221 L2.05155949,3.29888221 L1.94911504,3.29888221 L1.94911504,3.40651949 L1.69911504,3.40651949 L1.69911504,2.81675593 L1.94911504,2.81675593 L1.94911504,3.09888221 Z M3.64823009,3.09888221 L3.75067454,3.09888221 L3.75067454,3.29888221 L3.64823009,3.29888221 L3.64823009,3.40651949 L3.39823009,3.40651949 L3.39823009,2.81675593 L3.64823009,2.81675593 L3.64823009,3.09888221 Z M1.94911504,0.619715539 L2.05155949,0.619715539 L2.05155949,0.819715539 L1.94911504,0.819715539 L1.94911504,0.927352825 L1.69911504,0.927352825 L1.69911504,0.337589263 L1.94911504,0.337589263 L1.94911504,0.619715539 Z M3.64823009,0.619715539 L3.75067454,0.619715539 L3.75067454,0.819715539 L3.64823009,0.819715539 L3.64823009,0.927352825 L3.39823009,0.927352825 L3.39823009,0.337589263 L3.64823009,0.337589263 L3.64823009,0.619715539 Z M4.78097345,2.22388221 L4.8834179,2.22388221 L4.8834179,2.42388221 L4.78097345,2.42388221 L4.78097345,2.53151949 L4.53097345,2.53151949 L4.53097345,1.94175593 L4.78097345,1.94175593 L4.78097345,2.22388221 Z M4.78097345,1.49471554 L4.8834179,1.49471554 L4.8834179,1.69471554 L4.78097345,1.69471554 L4.78097345,1.80235282 L4.53097345,1.80235282 L4.53097345,1.21258926 L4.78097345,1.21258926 L4.78097345,1.49471554 Z M0.887168142,2.22388221 L0.989612591,2.22388221 L0.989612591,2.42388221 L0.887168142,2.42388221 L0.887168142,2.53151949 L0.637168142,2.53151949 L0.637168142,1.94175593 L0.887168142,1.94175593 L0.887168142,2.22388221 Z M0.887168142,1.49471554 L0.989612591,1.49471554 L0.989612591,1.69471554 L0.887168142,1.69471554 L0.887168142,1.80235282 L0.637168142,1.80235282 L0.637168142,1.21258926 L0.887168142,1.21258926 L0.887168142,1.49471554 Z M0.991150442,1.21258926 L1.24115044,1.21258926 L1.24115044,1.80235282 L0.991150442,1.80235282 L0.991150442,1.21258926 Z M0.991150442,1.94175593 L1.24115044,1.94175593 L1.24115044,2.53151949 L0.991150442,2.53151949 L0.991150442,1.94175593 Z M4.88495575,1.21258926 L5.13495575,1.21258926 L5.13495575,1.80235282 L4.88495575,1.80235282 L4.88495575,1.21258926 Z M4.88495575,1.94175593 L5.13495575,1.94175593 L5.13495575,2.53151949 L4.88495575,2.53151949 L4.88495575,1.94175593 Z M3.75221239,0.337589263 L4.00221239,0.337589263 L4.00221239,0.927352825 L3.75221239,0.927352825 L3.75221239,0.337589263 Z M2.05309735,0.337589263 L2.30309735,0.337589263 L2.30309735,0.927352825 L2.05309735,0.927352825 L2.05309735,0.337589263 Z M3.75221239,2.81675593 L4.00221239,2.81675593 L4.00221239,3.40651949 L3.75221239,3.40651949 L3.75221239,2.81675593 Z M2.05309735,2.81675593 L2.30309735,2.81675593 L2.30309735,3.40651949 L2.05309735,3.40651949 L2.05309735,2.81675593 Z"/>
              <path fill="#FFF" fill-rule="nonzero" d="M2.72376389,1.8807474 L2.36189368,1.56760463 L2.12147844,1.56760463 L2.12147844,1.74665821 L2.32172845,1.74665821 L2.32172845,1.81957488 L2.05068198,1.81957488 L2.05068198,1.49468797 L2.34217687,1.49468797 L2.34217687,1.26800298 L2.69590115,1.26800298 L2.69590115,1.46626493 L2.62510469,1.46626493 L2.62510469,1.34091965 L2.41297333,1.34091965 L2.41297333,1.5165694 L2.78096986,1.83501355 L3.14896638,1.5165694 L3.14896638,1.34091965 L2.93683503,1.34091965 L2.93683503,1.46626493 L2.86603856,1.46626493 L2.86603856,1.26800298 L3.21976284,1.26800298 L3.21976284,1.49468797 L3.51125773,1.49468797 L3.51125773,1.81957488 L3.24021126,1.81957488 L3.24021126,1.74665821 L3.44046127,1.74665821 L3.44046127,1.56760463 L3.20004603,1.56760463 L2.83817582,1.8807474 L3.20004603,2.19389017 L3.44046127,2.19389017 L3.44046127,2.01483659 L3.24021126,2.01483659 L3.24021126,1.94191993 L3.51125773,1.94191993 L3.51125773,2.26680684 L3.21976284,2.26680684 L3.21976284,2.49349182 L2.86603856,2.49349182 L2.86603856,2.29522988 L2.93683503,2.29522988 L2.93683503,2.42057516 L3.14896638,2.42057516 L3.14896638,2.24492541 L2.78096986,1.92648126 L2.80329313,1.90716391 L2.78096986,1.87979869 L2.75864658,1.90716391 L2.78096986,1.92648126 Z M2.78096986,1.92648126 L2.41297333,2.24492541 L2.41297333,2.42057516 L2.62510469,2.42057516 L2.62510469,2.29522988 L2.69590115,2.29522988 L2.69590115,2.49349182 L2.34217687,2.49349182 L2.34217687,2.26680684 L2.05068198,2.26680684 L2.05068198,1.94191993 L2.32172845,1.94191993 L2.32172845,2.01483659 L2.12147844,2.01483659 L2.12147844,2.19389017 L2.36189368,2.19389017 Z"/>
            </g>
          </g>
          <g mask="url(#tm---turkmenistan-f)">
            <g transform="translate(2 5.8)">
              <path fill="#E8AA00" fill-rule="nonzero" d="M0.779220779,0.846153846 L1.55844156,0.846153846 L1.55844156,3 L0.779220779,3 L0.779220779,0.846153846 Z M4.44155844,0.846153846 L5.22077922,0.846153846 L5.22077922,3 L4.44155844,3 L4.44155844,0.846153846 Z M2.33766234,0 L3.58441558,0 L3.58441558,4 L2.33766234,4 L2.33766234,0 Z"/>
              <path fill="#389F5D" d="M0,1.15384615 L0.779220779,1.15384615 L0.779220779,2.61538462 L0,2.61538462 L0,1.15384615 Z M1.55844156,0.307692308 L2.33766234,0.307692308 L2.33766234,3.38461538 L1.55844156,3.38461538 L1.55844156,0.307692308 Z M5.22077922,1.15384615 L6,1.15384615 L6,2.61538462 L5.22077922,2.61538462 L5.22077922,1.15384615 Z M3.58441558,0.307692308 L4.36363636,0.307692308 L4.36363636,3.38461538 L3.58441558,3.38461538 L3.58441558,0.307692308 Z"/>
              <path fill="#E1E5E8" d="M0.38961039,1.69230769 C0.260504864,1.69230769 0.155844156,1.58898879 0.155844156,1.46153846 C0.155844156,1.33408813 0.260504864,1.23076923 0.38961039,1.23076923 C0.518715916,1.23076923 0.623376623,1.33408813 0.623376623,1.46153846 C0.623376623,1.58898879 0.518715916,1.69230769 0.38961039,1.69230769 Z M0.38961039,2.53846154 C0.260504864,2.53846154 0.155844156,2.43514263 0.155844156,2.30769231 C0.155844156,2.18024198 0.260504864,2.07692308 0.38961039,2.07692308 C0.518715916,2.07692308 0.623376623,2.18024198 0.623376623,2.30769231 C0.623376623,2.43514263 0.518715916,2.53846154 0.38961039,2.53846154 Z M1.94805195,3.23076923 C1.81894642,3.23076923 1.71428571,3.12745033 1.71428571,3 C1.71428571,2.87254967 1.81894642,2.76923077 1.94805195,2.76923077 C2.07715747,2.76923077 2.18181818,2.87254967 2.18181818,3 C2.18181818,3.12745033 2.07715747,3.23076923 1.94805195,3.23076923 Z M1.94805195,0.923076923 C1.81894642,0.923076923 1.71428571,0.819758019 1.71428571,0.692307692 C1.71428571,0.564857365 1.81894642,0.461538462 1.94805195,0.461538462 C2.07715747,0.461538462 2.18181818,0.564857365 2.18181818,0.692307692 C2.18181818,0.819758019 2.07715747,0.923076923 1.94805195,0.923076923 Z M5.61038961,1.69230769 C5.48128408,1.69230769 5.37662338,1.58898879 5.37662338,1.46153846 C5.37662338,1.33408813 5.48128408,1.23076923 5.61038961,1.23076923 C5.73949514,1.23076923 5.84415584,1.33408813 5.84415584,1.46153846 C5.84415584,1.58898879 5.73949514,1.69230769 5.61038961,1.69230769 Z M5.61038961,2.53846154 C5.48128408,2.53846154 5.37662338,2.43514263 5.37662338,2.30769231 C5.37662338,2.18024198 5.48128408,2.07692308 5.61038961,2.07692308 C5.73949514,2.07692308 5.84415584,2.18024198 5.84415584,2.30769231 C5.84415584,2.43514263 5.73949514,2.53846154 5.61038961,2.53846154 Z M3.97402597,3.23076923 C3.84492045,3.23076923 3.74025974,3.12745033 3.74025974,3 C3.74025974,2.87254967 3.84492045,2.76923077 3.97402597,2.76923077 C4.1031315,2.76923077 4.20779221,2.87254967 4.20779221,3 C4.20779221,3.12745033 4.1031315,3.23076923 3.97402597,3.23076923 Z M3.97402597,0.923076923 C3.84492045,0.923076923 3.74025974,0.819758019 3.74025974,0.692307692 C3.74025974,0.564857365 3.84492045,0.461538462 3.97402597,0.461538462 C4.1031315,0.461538462 4.20779221,0.564857365 4.20779221,0.692307692 C4.20779221,0.819758019 4.1031315,0.923076923 3.97402597,0.923076923 Z"/>
              <path fill="#C51918" d="M1.16883117,1.46153846 C1.03972564,1.46153846 0.935064935,1.35821956 0.935064935,1.23076923 C0.935064935,1.1033189 1.03972564,1 1.16883117,1 C1.29793669,1 1.4025974,1.1033189 1.4025974,1.23076923 C1.4025974,1.35821956 1.29793669,1.46153846 1.16883117,1.46153846 Z M2.96103896,0.615384615 C2.83193344,0.615384615 2.72727273,0.512065711 2.72727273,0.384615385 C2.72727273,0.257165058 2.83193344,0.153846154 2.96103896,0.153846154 C3.09014449,0.153846154 3.19480519,0.257165058 3.19480519,0.384615385 C3.19480519,0.512065711 3.09014449,0.615384615 2.96103896,0.615384615 Z M2.96103896,3.92307692 C2.83193344,3.92307692 2.72727273,3.81975802 2.72727273,3.69230769 C2.72727273,3.56485737 2.83193344,3.46153846 2.96103896,3.46153846 C3.09014449,3.46153846 3.19480519,3.56485737 3.19480519,3.69230769 C3.19480519,3.81975802 3.09014449,3.92307692 2.96103896,3.92307692 Z M4.83116883,1.46153846 C4.70206331,1.46153846 4.5974026,1.35821956 4.5974026,1.23076923 C4.5974026,1.1033189 4.70206331,1 4.83116883,1 C4.96027436,1 5.06493506,1.1033189 5.06493506,1.23076923 C5.06493506,1.35821956 4.96027436,1.46153846 4.83116883,1.46153846 Z M1.16883117,2.84615385 C1.03972564,2.84615385 0.935064935,2.74283494 0.935064935,2.61538462 C0.935064935,2.48793429 1.03972564,2.38461538 1.16883117,2.38461538 C1.29793669,2.38461538 1.4025974,2.48793429 1.4025974,2.61538462 C1.4025974,2.74283494 1.29793669,2.84615385 1.16883117,2.84615385 Z M4.83116883,2.84615385 C4.70206331,2.84615385 4.5974026,2.74283494 4.5974026,2.61538462 C4.5974026,2.48793429 4.70206331,2.38461538 4.83116883,2.38461538 C4.96027436,2.38461538 5.06493506,2.48793429 5.06493506,2.61538462 C5.06493506,2.74283494 4.96027436,2.84615385 4.83116883,2.84615385 Z"/>
              <path fill="#C51918" d="M4.4612118,1.69230769 L5.61038961,1.69230769 L5.61038961,2 L4.49236804,2 L4.49236804,2.01605927 L3.59677417,2.92692426 L2.36509715,2.92692426 L1.60652508,2.10483637 L1.60652508,2 L0.311688312,2 L0.311688312,1.69230769 L1.60652508,1.69230769 L1.60652508,1.59142883 L2.36509715,0.90634559 L3.59677417,0.90634559 L4.4612118,1.69230769 Z"/>
              <path fill="#E8AA00" fill-rule="nonzero" d="M2.55451803,1.013848 L2.50479531,0.963456857 L2.58852193,0.882945625 L2.9926883,1.29254519 L3.39685468,0.882945625 L3.4805813,0.963456857 L3.43085858,1.013848 L3.63316173,1.21819052 L3.5549759,1.21337179 L3.71059504,1.09112112 L4.02603584,1.39721813 L3.54530609,1.85259179 L4.02295596,2.33666268 L3.73185894,2.64366454 L3.60840515,2.64366454 L3.36185752,2.79877045 L2.9926883,2.45696964 L2.62351909,2.79877045 L2.37697146,2.64366454 L2.25351767,2.64366454 L1.96242065,2.33666268 L2.44007052,1.85259179 L1.95934077,1.39721813 L2.27478157,1.09112112 L2.43040071,1.21337179 L2.35221488,1.21819052 L2.55451803,1.013848 Z M2.9926883,2.21614894 L3.37940792,1.84982684 L3.01104078,1.47650776 L2.9926883,1.45957396 L2.97433583,1.47650776 L2.60596869,1.84982684 L2.9926883,2.21614894 Z M3.07709684,2.29610535 L3.12125493,2.33793432 L3.07811767,2.37787359 L3.37559967,2.65330173 L3.57432729,2.52827992 L3.68116733,2.52827992 L3.86135235,2.33825002 L3.46096706,1.93248237 L3.07709684,2.29610535 Z M3.19869446,1.50132067 L3.46374696,1.76993627 L3.85827246,1.39622001 L3.70243123,1.24499501 L3.58645952,1.33609961 L3.36688074,1.11430732 L3.07895721,1.37997381 L3.09285552,1.39405894 L3.20354792,1.49619461 L3.19869446,1.50132067 Z M2.95142868,2.33697838 L2.52440955,1.93248237 L2.12402426,2.33825002 L2.30420928,2.52827992 L2.41104932,2.52827992 L2.60977694,2.65330173 L2.95142868,2.33697838 Z M2.52162965,1.76993627 L2.9064194,1.37997381 L2.61849587,1.11430732 L2.39891709,1.33609961 L2.28294538,1.24499501 L2.12710415,1.39622001 L2.52162965,1.76993627 Z"/>
            </g>
          </g>
          <path fill="#E8AA00" fill-rule="nonzero" d="M5.0438433,24.1139088 C5.06173395,24.1097786 5.07804968,24.1075779 5.09293348,24.1075779 C5.09556946,24.1075779 5.10937568,24.1064024 5.13328744,24.1036881 C5.13540187,24.1034481 5.20749552,24.0949333 5.23351415,24.0920834 C5.48744644,24.0642688 5.70143013,24.0647117 5.92095905,24.1145289 C5.99948792,24.1323493 6.07422455,24.1562319 6.14461383,24.1865887 C6.20154821,24.2111429 6.28220728,24.2273102 6.37911671,24.2352553 C6.3481653,24.225206 6.31990888,24.2079794 6.29434746,24.1835754 C6.20743503,24.1005985 6.20743503,23.9980743 6.29434746,23.8760027 C7.11590216,23.1039044 7.84676468,21.9932879 7.93890092,22.0000306 C8.05556363,22.0085682 8.16497395,23.2437838 6.64855495,24.1835754 C6.59506998,24.2133157 6.54558747,24.2323965 6.50010741,24.240818 C6.76963292,24.2446062 7.12135823,24.198055 7.44070966,24.1036881 C6.83619489,24.3464753 6.35442501,24.4140768 5.99540002,24.3064927 C5.94317805,24.2839708 5.88809951,24.2663701 5.83014424,24.2532185 C5.67684071,24.2184297 5.51982767,24.2152857 5.33094521,24.2329928 C5.4103829,24.2699768 5.5027468,24.3122977 5.61017636,24.3558975 L5.61017636,24.4 C5.39809479,24.3139278 5.14956348,24.273231 5.0438433,24.2606519 C4.93812313,24.273231 4.68959182,24.3139278 4.47751025,24.4 L4.47751025,24.3558975 C4.58493981,24.3122977 4.67730371,24.2699768 4.7567414,24.2329928 C4.56785894,24.2152857 4.4108459,24.2184297 4.25754237,24.2532185 C4.1995871,24.2663701 4.14450855,24.2839708 4.09228659,24.3064927 C3.73326159,24.4140768 3.25149171,24.3464753 2.64697695,24.1036881 C2.93165575,24.1878094 3.24206026,24.2339342 3.49703016,24.2402749 C3.45233838,24.2315927 3.40381001,24.2126929 3.35144505,24.1835754 C1.83502605,23.2437838 1.94443637,22.0085682 2.06109908,22.0000306 C2.15323532,21.9932879 2.88409784,23.1039044 3.70565254,23.8760027 C3.79256497,23.9980743 3.79256497,24.1005985 3.70565254,24.1835754 C3.67479112,24.2130394 3.64000125,24.2320411 3.60128295,24.2405805 C3.74617771,24.2375901 3.86623249,24.2197277 3.94307278,24.1865887 C4.01346206,24.1562319 4.08819869,24.1323493 4.16672755,24.1145289 C4.38625647,24.0647117 4.60024017,24.0642688 4.85417246,24.0920834 C4.88019109,24.0949333 4.95228474,24.1034481 4.95439917,24.1036881 C4.97831093,24.1064024 4.99211715,24.1075779 4.99475313,24.1075779 C5.00963693,24.1075779 5.02595266,24.1097786 5.0438433,24.1139088 Z" mask="url(#tm---turkmenistan-f)"/>
          <g mask="url(#tm---turkmenistan-f)">
            <g transform="translate(2 10.6)">
              <polygon fill="#389F5D" points="1.764 .377 .512 1.481 .512 2.531 1.607 3.631 3.841 3.631 5.073 2.458 5.073 1.563 3.841 .377"/>
              <path fill="#C51918" d="M1.91150442,3.35416667 L2.19469027,3.35416667 L2.19469027,3.57291667 L1.91150442,3.57291667 L1.91150442,3.35416667 Z M1.91150442,0.494138532 L2.19469027,0.494138532 L2.19469027,0.712888532 L1.91150442,0.712888532 L1.91150442,0.494138532 Z M2.61946903,3.35416667 L2.90265487,3.35416667 L2.90265487,3.57291667 L2.61946903,3.57291667 L2.61946903,3.35416667 Z M2.61946903,0.494138532 L2.90265487,0.494138532 L2.90265487,0.712888532 L2.61946903,0.712888532 L2.61946903,0.494138532 Z M3.32743363,3.35416667 L3.61061947,3.35416667 L3.61061947,3.57291667 L3.32743363,3.57291667 L3.32743363,3.35416667 Z M3.32743363,0.494138532 L3.61061947,0.494138532 L3.61061947,0.712888532 L3.32743363,0.712888532 L3.32743363,0.494138532 Z"/>
              <path fill="#E8AA00" fill-rule="nonzero" d="M2.26548673,0.4375 L2.55375203,0.4375 L2.55375203,0.65625 L2.26548673,0.65625 L2.26548673,0.4375 Z M2.26548673,3.35416667 L2.55375203,3.35416667 L2.55375203,3.57291667 L2.26548673,3.57291667 L2.26548673,3.35416667 Z M2.98614999,0.4375 L3.2744153,0.4375 L3.2744153,0.65625 L2.98614999,0.65625 L2.98614999,0.4375 Z M2.98614999,3.35416667 L3.2744153,3.35416667 L3.2744153,3.57291667 L2.98614999,3.57291667 L2.98614999,3.35416667 Z"/>
              <path fill="#750100" d="M0.913718394,0.241922995 L4.69374941,0.241922995 L4.69374941,0.82604916 L5.23499879,0.82604916 L5.23499879,3.24085881 L4.69374941,3.24085881 L4.69374941,3.74003564 L0.913718394,3.74003564 L0.913718394,3.24085881 L0.325984725,3.24085881 L0.325984725,0.82604916 L0.913718394,0.82604916 L0.913718394,0.241922995 Z M1.12610777,1.04479916 L0.538374105,1.04479916 L0.538374105,3.02210881 L1.12610777,3.02210881 L1.12610777,3.52128564 L4.48136003,3.52128564 L4.48136003,3.02210881 L5.02260941,3.02210881 L5.02260941,1.04479916 L4.48136003,1.04479916 L4.48136003,0.460672995 L1.12610777,0.460672995 L1.12610777,1.04479916 Z"/>
              <path fill="#389F5D" d="M2.05309735,0 L2.40707965,0 L2.40707965,0.364583333 L2.05309735,0.364583333 L2.05309735,0 Z M2.61946903,0 L2.97345133,0 L2.97345133,0.364583333 L2.61946903,0.364583333 L2.61946903,0 Z M3.18584071,0 L3.53982301,0 L3.53982301,0.364583333 L3.18584071,0.364583333 L3.18584071,0 Z M2.05309735,3.64583333 L2.40707965,3.64583333 L2.40707965,4.01041667 L2.05309735,4.01041667 L2.05309735,3.64583333 Z M2.61946903,3.64583333 L2.97345133,3.64583333 L2.97345133,4.01041667 L2.61946903,4.01041667 L2.61946903,3.64583333 Z M3.18584071,3.64583333 L3.53982301,3.64583333 L3.53982301,4.01041667 L3.18584071,4.01041667 L3.18584071,3.64583333 Z M-0.00530051622,2.83844948 L-0.00530051622,2.48446718 L0.359282817,2.48446718 L0.359282817,2.83844948 L-0.00530051622,2.83844948 Z M-0.00530051622,2.25511615 L-0.00530051622,1.90113385 L0.359282817,1.90113385 L0.359282817,2.25511615 L-0.00530051622,2.25511615 Z M-0.00530051622,1.67178282 L-0.00530051622,1.31780052 L0.359282817,1.31780052 L0.359282817,1.67178282 L-0.00530051622,1.67178282 Z M5.09204462,2.83844948 L5.09204462,2.48446718 L5.45662795,2.48446718 L5.45662795,2.83844948 L5.09204462,2.83844948 Z M5.09204462,2.25511615 L5.09204462,1.90113385 L5.45662795,1.90113385 L5.45662795,2.25511615 L5.09204462,2.25511615 Z M5.09204462,1.67178282 L5.09204462,1.31780052 L5.45662795,1.31780052 L5.45662795,1.67178282 L5.09204462,1.67178282 Z"/>
              <polygon fill="#C51918" points="1.778 .685 1.168 1.216 1.168 2.934 1.675 3.292 3.871 3.292 4.377 2.934 4.377 1.216 3.806 .685"/>
              <polygon fill="#E1E5E8" points="2.803 1.397 2.067 2.026 2.803 2.026"/>
              <polygon fill="#E8AA00" fill-rule="nonzero" points="2.803 1.98 2.067 2.61 2.803 2.61" transform="matrix(1 0 0 -1 0 4.577)"/>
              <polygon fill="#E8AA00" points="3.511 1.397 2.775 2.026 3.511 2.026" transform="matrix(-1 0 0 1 6.25 0)"/>
              <ellipse cx="2.761" cy="1.969" fill="#29AE66" rx="1" ry="1"/>
              <polygon fill="#E1E5E8" fill-rule="nonzero" points="3.511 1.98 2.775 2.61 3.511 2.61" transform="rotate(180 3.125 2.289)"/>
              <path fill="#C51918" d="M0.566371681,1.75 L1.20353982,1.75 L1.20353982,1.954 L0.566371681,1.954 L0.566371681,1.75 Z M0.566371681,2.12187499 L1.20353982,2.12187499 L1.20353982,2.32587499 L0.566371681,2.32587499 L0.566371681,2.12187499 Z M4.38938053,1.75 L5.02654867,1.75 L5.02654867,1.954 L4.38938053,1.954 L4.38938053,1.75 Z M4.38938053,2.12187499 L5.02654867,2.12187499 L5.02654867,2.32587499 L4.38938053,2.32587499 L4.38938053,2.12187499 Z"/>
              <path fill="#E8AA00" fill-rule="nonzero" d="M0.566371681,1.53125 L1.13274336,1.53125 L1.13274336,1.754375 L0.566371681,1.754375 L0.566371681,1.53125 Z M0.566371681,1.90312499 L1.13274336,1.90312499 L1.13274336,2.12624999 L0.566371681,2.12624999 L0.566371681,1.90312499 Z M0.566371681,2.27499999 L1.13274336,2.27499999 L1.13274336,2.49812498 L0.566371681,2.49812498 L0.566371681,2.27499999 Z M4.38938053,1.53125 L4.95575221,1.53125 L4.95575221,1.754375 L4.38938053,1.754375 L4.38938053,1.53125 Z M4.38938053,1.90312499 L4.95575221,1.90312499 L4.95575221,2.12624999 L4.38938053,2.12624999 L4.38938053,1.90312499 Z M4.38938053,2.27499999 L4.95575221,2.27499999 L4.95575221,2.49812498 L4.38938053,2.49812498 L4.38938053,2.27499999 Z"/>
            </g>
          </g>
          <g mask="url(#tm---turkmenistan-f)">
            <g transform="translate(2 1)">
              <path fill="#E8AA00" fill-rule="nonzero" d="M2.97464669,1.96382804 L2.97676173,0.123828039 C3.48732567,0.123828039 3.79659314,0.123828039 3.90456415,0.123828039 C4.01253516,0.123828039 4.21454014,0.227492881 4.51057909,0.434822564 L5.26393091,0.434822564 L5.61171749,0.790127023 L5.61171749,1.14713469 L5.98498475,1.59034047 L5.98283328,1.99551689 L3.02390936,1.99551689 L3.02179431,3.83551689 C2.51123038,3.83551689 2.2019629,3.83551689 2.0939919,3.83551689 C1.98602089,3.83551689 1.78401591,3.73185205 1.48797695,3.52452237 L0.734625134,3.52452237 L0.386838554,3.16921791 L0.386838554,2.81221025 L0.0135712996,2.36900446 L0.0157227706,1.96382804 L2.97464669,1.96382804 Z"/>
              <path fill="#E1E5E8" d="M2.97464669,1.96382804 L2.97676173,0.123828039 C3.48732567,0.123828039 3.79659314,0.123828039 3.90456415,0.123828039 C4.01253516,0.123828039 4.21454014,0.227492881 4.51057909,0.434822564 L5.26393091,0.434822564 L5.61171749,0.790127023 L5.61171749,1.14713469 L5.98498475,1.59034047 L5.98283328,1.99551689 L3.02390936,1.99551689 L3.02179431,3.83551689 C2.51123038,3.83551689 2.2019629,3.83551689 2.0939919,3.83551689 C1.98602089,3.83551689 1.78401591,3.73185205 1.48797695,3.52452237 L0.734625134,3.52452237 L0.386838554,3.16921791 L0.386838554,2.81221025 L0.0135712996,2.36900446 L0.0157227706,1.96382804 L2.97464669,1.96382804 Z" transform="matrix(-1 0 0 1 5.999 0)"/>
              <path fill="#C51918" d="M3.56516759,0.71358232 L3.52764808,0.707472899 C3.50016188,0.759321456 3.46872484,0.833504677 3.43514935,0.928694269 L3.2856915,0.884689743 L3.34620741,0.594805052 L3.00841345,0.277983343 L2.77175759,0.49994621 C2.80120807,0.526635806 2.83055945,0.557272922 2.85995791,0.591933429 C2.83484876,0.601486167 2.81084575,0.609916799 2.7879349,0.617229385 L2.77780167,0.619646335 L2.81643106,0.804689743 L2.66697321,0.848694269 C2.64746547,0.793388042 2.62867962,0.745173022 2.61097112,0.704309733 L2.59864985,0.706124062 C2.57029953,0.678338517 2.54383945,0.657095088 2.5195144,0.642521653 L2.56182147,0.604698374 C2.55488065,0.592830439 2.54823707,0.582544581 2.54192444,0.573865496 L2.00217979,0.685359361 L1.96977847,0.528865347 L2.60804095,0.382093145 C2.68466273,0.345094718 2.81763791,0.239692383 3.00079373,0.0684155271 L3.08660163,0.164990731 L3.10132884,0.148415527 C3.28448466,0.319692383 3.41745983,0.425094718 3.49408162,0.462093145 L4.13234409,0.608865347 L4.09994277,0.765359361 L3.74597909,0.69224186 L3.77984843,0.722521653 C3.75552337,0.737095088 3.7290633,0.758338517 3.70071297,0.786124062 L3.55127407,0.764118932 L3.56516759,0.71358232 Z M4.42927559,0.908831938 L4.38025207,0.840280268 L4.50587349,0.745589201 L4.55995439,0.821212823 L4.73489223,0.703918362 L4.82010751,0.837880686 L4.6523245,0.950377889 L4.68688219,0.99870138 L4.56126077,1.09339245 L4.5216457,1.037997 L4.07367669,1.33835673 L3.98846141,1.20439441 L4.42927559,0.908831938 Z M4.97473013,1.06883194 L4.92570662,1.00028027 L5.05132804,0.905589201 L5.10540893,0.981212823 L5.28034678,0.863918362 L5.36556206,0.997880686 L5.19777904,1.11037789 L5.23233673,1.15870138 L5.10671532,1.25339245 L5.06710024,1.197997 L4.61913124,1.49835673 L4.53391595,1.36439441 L4.97473013,1.06883194 Z M5.20849637,1.54883194 L5.15947285,1.48028027 L5.28509427,1.3855892 L5.33917517,1.46121282 L5.51411301,1.34391836 L5.59932829,1.47788069 L5.43154528,1.59037789 L5.46610297,1.63870138 L5.34048155,1.73339245 L5.30086648,1.677997 L4.85289747,1.97835673 L4.76768219,1.84439441 L5.20849637,1.54883194 Z M1.58047687,0.957997004 L1.54086179,1.01339245 L1.41524038,0.91870138 L1.44979807,0.870377889 L1.28201505,0.757880686 L1.36723033,0.623918362 L1.54216818,0.741212823 L1.59624907,0.665589201 L1.72187049,0.760280268 L1.67284698,0.828831938 L2.11366115,1.12439441 L2.02844587,1.25835673 L1.58047687,0.957997004 Z M1.03502232,1.117997 L0.995407248,1.17339245 L0.869785831,1.07870138 L0.904343521,1.03037789 L0.736560505,0.917880686 L0.821775786,0.783918362 L0.996713633,0.901212823 L1.05079453,0.825589201 L1.17641595,0.920280268 L1.12739243,0.988831938 L1.56820661,1.28439441 L1.48299133,1.41835673 L1.03502232,1.117997 Z M0.801256086,1.597997 L0.761641015,1.65339245 L0.636019598,1.55870138 L0.670577287,1.51037789 L0.502794271,1.39788069 L0.588009552,1.26391836 L0.762947399,1.38121282 L0.817028295,1.3055892 L0.942649712,1.40028027 L0.893626198,1.46883194 L1.33444038,1.76439441 L1.24922509,1.89835673 L0.801256086,1.597997 Z M3.60787459,3.62059311 L3.59795205,3.62946404 L3.60694273,3.65996031 L3.51797209,3.71904952 C3.49075934,3.7025695 3.46376299,3.68287752 3.43687224,3.6599161 L3.41615954,3.66467911 C3.33953776,3.70167754 3.20656258,3.80707987 3.02340676,3.97835673 L2.9731392,3.92178153 L2.92287165,3.97835673 C2.7909702,3.85501003 2.68509394,3.76582784 2.60754837,3.71175488 C2.6036512,3.7142527 2.5997499,3.71668419 2.59584414,3.71904952 L2.5068735,3.65996031 L1.89185639,3.51790691 L1.92425771,3.3614129 L2.46400236,3.47290676 C2.49788701,3.4263196 2.54130703,3.3334369 2.58905113,3.19807799 L2.73850899,3.24208251 L2.68034695,3.52069161 L2.71001282,3.52776743 C2.73292367,3.53508002 2.75692668,3.54351065 2.78203584,3.55306339 C2.76965364,3.56766188 2.75727979,3.58154663 2.74490338,3.59472332 L2.9731392,3.80878891 L3.26828533,3.5319672 L3.20776942,3.24208251 L3.35722728,3.19807799 C3.40497138,3.3334369 3.4483914,3.4263196 3.48227605,3.47290676 L4.02202069,3.3614129 L4.05442201,3.51790691 L3.60787459,3.62059311 Z M4.44372362,3.08877525 L4.48333869,3.03337981 L4.60896011,3.12807088 L4.57440242,3.17639437 L4.74218544,3.28889157 L4.65697016,3.4228539 L4.48203231,3.30555943 L4.42795141,3.38118306 L4.30233,3.28649199 L4.35135351,3.21794032 L3.91053933,2.92237785 L3.99575461,2.78841553 L4.44372362,3.08877525 Z M4.98917817,2.92877525 L5.02879324,2.87337981 L5.15441466,2.96807088 L5.11985697,3.01639437 L5.28763998,3.12889157 L5.2024247,3.2628539 L5.02748685,3.14555943 L4.97340596,3.22118306 L4.84778454,3.12649199 L4.89680806,3.05794032 L4.45599388,2.76237785 L4.54120916,2.62841553 L4.98917817,2.92877525 Z M5.2229444,2.44877525 L5.26255947,2.39337981 L5.38818089,2.48807088 L5.3536232,2.53639437 L5.52140622,2.64889157 L5.43619093,2.7828539 L5.26125309,2.66555943 L5.20717219,2.74118306 L5.08155077,2.64649199 L5.13057429,2.57794032 L4.68976011,2.28237785 L4.77497539,2.14841553 L5.2229444,2.44877525 Z M1.5949249,3.21794032 L1.64394841,3.28649199 L1.518327,3.38118306 L1.4642461,3.30555943 L1.28930825,3.4228539 L1.20409297,3.28889157 L1.37187599,3.17639437 L1.3373183,3.12807088 L1.46293972,3.03337981 L1.50255479,3.08877525 L1.9505238,2.78841553 L2.03573908,2.92237785 L1.5949249,3.21794032 Z M1.04947035,3.05794032 L1.09849387,3.12649199 L0.97287245,3.22118306 L0.918791555,3.14555943 L0.743853708,3.2628539 L0.658638427,3.12889157 L0.826421443,3.01639437 L0.791863753,2.96807088 L0.917485171,2.87337981 L0.957100242,2.92877525 L1.40506925,2.62841553 L1.49028453,2.76237785 L1.04947035,3.05794032 Z M0.81570412,2.57794032 L0.864727634,2.64649199 L0.739106217,2.74118306 L0.685025321,2.66555943 L0.510087474,2.7828539 L0.424872193,2.64889157 L0.592655209,2.53639437 L0.55809752,2.48807088 L0.683718937,2.39337981 L0.723334008,2.44877525 L1.17130302,2.14841553 L1.2565183,2.28237785 L0.81570412,2.57794032 Z"/>
              <path fill="#C51918" d="M3.04669776,2.01726942 L0.864879579,2.01726942 L1.3847636,1.64283898 L1.3847636,1.15295624 L2.20759999,1.15295624 L3.09013816,0.684947444 L3.09013816,1.96494744 L5.27195634,1.96494744 L4.75207232,2.33937788 L4.75207232,2.82926062 L3.92923593,2.82926062 L3.04669776,3.29726942 L3.04669776,2.01726942 Z"/>
              <path fill="#29AE66" fill-rule="nonzero" d="M3.04669776,2.01726942 L0.864879579,2.01726942 L1.3847636,1.64283898 L1.3847636,1.15295624 L2.20759999,1.15295624 L3.09013816,0.684947444 L3.09013816,1.96494744 L5.27195634,1.96494744 L4.75207232,2.33937788 L4.75207232,2.82926062 L3.92923593,2.82926062 L3.04669776,3.29726942 L3.04669776,2.01726942 Z" transform="matrix(-1 0 0 1 6.137 0)"/>
              <path fill="#29AE66" fill-rule="nonzero" d="M3.47370198,2.39118768 L2.38939723,1.81123909 L2.30049146,1.94351359 L2.04395352,1.76176783 L2.11084152,1.66225147 L1.77888485,1.48470194 L1.92289307,1.20090476 L2.28923061,1.39684316 L2.3901589,1.24668148 L2.64669684,1.42842725 L2.56778632,1.54583078 L3.65209107,2.12577937 L3.71893848,2.02632341 L3.97547643,2.20806918 L3.93064678,2.27476699 L4.04777519,2.33741401 L3.90376697,2.62121118 L3.75225769,2.5401753 L3.62927105,2.72315553 L3.3727331,2.54140976 L3.47370198,2.39118768 Z"/>
              <path fill="#C51918" d="M3.55162406,2.39118768 L2.4673193,1.81123909 L2.37841354,1.94351359 L2.1218756,1.76176783 L2.1887636,1.66225147 L1.85680693,1.48470194 L2.00081515,1.20090476 L2.36715269,1.39684316 L2.46808097,1.24668148 L2.72461892,1.42842725 L2.64570839,1.54583078 L3.73001315,2.12577937 L3.79686056,2.02632341 L4.0533985,2.20806918 L4.00856885,2.27476699 L4.12569727,2.33741401 L3.98168905,2.62121118 L3.83017976,2.5401753 L3.70719312,2.72315553 L3.45065518,2.54140976 L3.55162406,2.39118768 Z" transform="scale(-1 1) rotate(4 0 -83.696)"/>
            </g>
          </g>
        </g>
      </g>
      <g fill="#F7FCFF" mask="url(#tm---turkmenistan-d)">
        <g transform="translate(12 2)">
          <path d="M7.07337596,0 C8.62684009,3.68106655 8.71348432,6.30323959 7.33330865,7.86651913 C5.95313298,9.42979867 3.50869676,10.0607381 0,9.75933756 C4.50426661,11.7937754 7.73764839,11.41035 9.70014535,8.60906138 C11.6626423,5.80777277 10.7870525,2.93808565 7.07337596,0 Z"/>
          <path d="M2.84427916,3.24847169 L2.2277322,3.68244337 L2.44524158,2.95521535 L1.84668522,2.49619658 L2.59766037,2.48071663 L2.84427916,1.76305574 L3.09089794,2.48071663 L3.84187309,2.49619658 L3.24331673,2.95521535 L3.46082612,3.68244337 L2.84427916,3.24847169 Z M2.96354601,5.25380566 L2.34699905,5.68777735 L2.56450844,4.96054932 L1.96595208,4.50153056 L2.71692723,4.48605061 L2.96354601,3.76838972 L3.2101648,4.48605061 L3.96113995,4.50153056 L3.36258359,4.96054932 L3.58009297,5.68777735 L2.96354601,5.25380566 Z M1.08923195,5.40868487 L0.472684987,5.84265655 L0.690194372,5.11542853 L0.0916380096,4.65640976 L0.842613163,4.64092981 L1.08923195,3.92326893 L1.33585073,4.64092981 L2.08682588,4.65640976 L1.48826952,5.11542853 L1.70577891,5.84265655 L1.08923195,5.40868487 Z M2.96354601,7.35727254 L2.34699905,7.79124423 L2.56450844,7.0640162 L1.96595208,6.60499743 L2.71692723,6.58951749 L2.96354601,5.8718566 L3.2101648,6.58951749 L3.96113995,6.60499743 L3.36258359,7.0640162 L3.58009297,7.79124423 L2.96354601,7.35727254 Z M5.00114873,4.64092981 L4.38460177,5.0749015 L4.60211116,4.34767348 L4.0035548,3.88865471 L4.75452995,3.87317476 L5.00114873,3.15551387 L5.24776752,3.87317476 L5.99874267,3.88865471 L5.40018631,4.34767348 L5.61769569,5.0749015 L5.00114873,4.64092981 Z"/>
        </g>
      </g>
    </g>
  </g>
</svg>
