<svg xmlns="http://www.w3.org/2000/svg" xmlns:xlink="http://www.w3.org/1999/xlink" width="32" height="24" viewBox="0 0 32 24">
  <defs>
    <rect id="mp---northern-mariana-islands-a" width="32" height="24" x="0" y="0"/>
  </defs>
  <g fill="none" fill-rule="evenodd">
    <mask id="mp---northern-mariana-islands-b" fill="#fff">
      <use xlink:href="#mp---northern-mariana-islands-a"/>
    </mask>
    <g mask="url(#mp---northern-mariana-islands-b)">
      <polygon fill="#2993EC" points="0 0 34 0 34 24 0 24"/>
      <g transform="translate(6 2)">
        <path fill="#F1F9FF" fill-rule="nonzero" d="M10,19.1666667 C4.5946599,19.1666667 0.212765957,14.8760622 0.212765957,9.58333333 C0.212765957,4.29060448 4.5946599,0 10,0 C15.4053401,0 19.787234,4.29060448 19.787234,9.58333333 C19.787234,14.8760622 15.4053401,19.1666667 10,19.1666667 Z M10,17.0833333 C14.2302662,17.0833333 17.6595745,13.725469 17.6595745,9.58333333 C17.6595745,5.44119771 14.2302662,2.08333333 10,2.08333333 C5.76973383,2.08333333 2.34042553,5.44119771 2.34042553,9.58333333 C2.34042553,13.725469 5.76973383,17.0833333 10,17.0833333 Z"/>
        <path fill="#E31D1C" fill-rule="nonzero" d="M10,18.3333333 C5.06468947,18.3333333 1.06382979,14.4158249 1.06382979,9.58333333 C1.06382979,4.75084177 5.06468947,0.833333333 10,0.833333333 C14.9353105,0.833333333 18.9361702,4.75084177 18.9361702,9.58333333 C18.9361702,14.4158249 14.9353105,18.3333333 10,18.3333333 Z M10,17.9166667 C14.7002957,17.9166667 18.5106383,14.1857062 18.5106383,9.58333333 C18.5106383,4.98096042 14.7002957,1.25 10,1.25 C5.29970426,1.25 1.4893617,4.98096042 1.4893617,9.58333333 C1.4893617,14.1857062 5.29970426,17.9166667 10,17.9166667 Z"/>
        <path fill="#FDDA33" d="M10,0.208333333 C9.89212351,0.431007181 9.83818527,0.7474303 9.83818527,1.15760269 C9.83818527,1.56777508 9.67935756,1.97836264 9.36170213,2.38936538 C9.30270209,1.93686265 9.27320207,1.52627509 9.27320207,1.15760269 C9.27320207,0.788930294 9.51546805,0.472507175 10,0.208333333 Z M12.2362492,0.546955158 C12.0810468,0.73965496 11.9573113,1.03583471 11.8650426,1.43549441 C11.7727739,1.83515411 11.5256548,2.19948988 11.1236854,2.52850171 C11.1679885,2.07432448 11.2316066,1.66762419 11.3145399,1.30840084 C11.3974731,0.949177496 11.7047096,0.695362268 12.2362492,0.546955158 Z M14.3481425,1.3955307 C14.150932,1.54495965 13.9592196,1.80240726 13.7730052,2.16787354 C13.5867908,2.53333981 13.2588715,2.82706974 12.7892471,3.04906331 C12.9421096,2.61909497 13.1022277,2.23986604 13.2696015,1.91137653 C13.4369753,1.58288702 13.7964889,1.41093841 14.3481425,1.3955307 Z M16.1911793,2.68399577 C15.9654091,2.78523217 15.7206972,2.9929555 15.4570435,3.30716578 C15.1933897,3.62137606 14.8078,3.8338119 14.3002744,3.94447329 C14.5459409,3.55991159 14.7872632,3.22642102 15.0242412,2.94400158 C15.2612193,2.66158214 15.6501986,2.57491354 16.1911793,2.68399577 Z M17.6834528,4.35404223 C17.4406959,4.40189671 17.1555283,4.5492479 16.82795,4.7960958 C16.5003718,5.04294371 16.0768771,5.16319602 15.5574659,5.15685274 C15.8833435,4.83741027 16.1934998,4.56675275 16.4879347,4.34488016 C16.7823695,4.12300757 17.1808756,4.1260616 17.6834528,4.35404223 Z M18.7465793,6.33624553 C18.4994562,6.3239503 18.1871119,6.39793625 17.8095462,6.55820337 C17.4319805,6.71847049 16.9919737,6.73269815 16.4895259,6.60088635 C16.8830037,6.36976963 17.2494249,6.18218537 17.5887897,6.03813359 C17.9281544,5.89408181 18.3140843,5.99345246 18.7465793,6.33624553 Z M19.3153986,8.48541642 C19.0773751,8.41784572 18.7563929,8.41967322 18.3524519,8.49089891 C17.948511,8.5621246 17.516581,8.47700761 17.0566621,8.23554796 C17.492045,8.09886799 17.8912722,7.99851836 18.2543436,7.93449907 C18.6174151,7.87047978 18.9711001,8.0541189 19.3153986,8.48541642 Z M0.0840106081,7.76966018 C0.284568984,7.91456469 0.586818647,8.02262979 0.990759598,8.09385547 C1.39470055,8.16508116 1.77147022,8.39279371 2.12106861,8.77699311 C1.66519517,8.75652053 1.25572273,8.7142746 0.892651295,8.65025531 C0.52957986,8.58623602 0.260032964,8.29270431 0.0840106081,7.76966018 Z M0.810605348,5.66722451 C0.973427004,5.85353094 1.24362067,6.02681772 1.62118635,6.18708484 C1.99875202,6.34735196 2.31464094,6.65398298 2.56885308,7.10697791 C2.12926897,6.98448083 1.73979455,6.8512064 1.40042982,6.70715462 C1.06106509,6.56310283 0.864456935,6.21645946 0.810605348,5.66722451 Z M2.02714719,3.7735956 C2.14006074,3.99375806 2.36030663,4.22726324 2.68788487,4.47411115 C3.0154631,4.72095906 3.24778801,5.09490227 3.38485958,5.5959408 C2.98796772,5.37073738 2.64230436,5.14719938 2.34786949,4.92532679 C2.05343462,4.70345421 1.94652719,4.31954381 2.02714719,3.7735956 Z M3.63878228,2.21681907 C3.69927608,2.4567388 3.86134985,2.73380381 4.12500358,3.04801409 C4.38865731,3.36222437 4.53090882,3.77884518 4.55175811,4.29787651 C4.21569831,3.9891638 3.92917939,3.69359773 3.69220134,3.41117829 C3.45522329,3.12875885 3.43741694,2.73063911 3.63878228,2.21681907 Z M5.5726413,1.06557134 C5.57761446,1.31295009 5.67320822,1.61937261 5.85942259,1.98483888 C6.04563696,2.35030516 6.09052328,2.78824763 5.99408156,3.29866629 C5.7360802,2.92226887 5.52339264,2.5698254 5.35601887,2.24133589 C5.18864511,1.91284638 5.26085258,1.52092486 5.5726413,1.06557134 Z M7.74512304,0.383461198 C7.69010213,0.624694859 7.70872604,0.945141538 7.80099475,1.34480124 C7.89326346,1.74446094 7.8308686,2.18025363 7.61381016,2.65217931 C7.45453132,2.22454632 7.33342528,1.83111815 7.25049203,1.4718948 C7.16755879,1.11267146 7.33243579,0.749860255 7.74512304,0.383461198 Z"/>
        <path fill="#A7A7A7" d="M11.5445357,6.57918362 C11.6620996,6.67059288 11.7436799,6.80707538 11.7624768,6.9648349 L13.1489284,18.601125 C13.1755529,18.8248452 13.0689671,19.0434902 12.8763125,19.1602966 C11.9530026,19.7200989 11.0296928,20 10.106383,20 C9.18308835,20 8.25979373,19.7201081 7.3364991,19.1603243 C7.14378252,19.0435497 7.03717867,18.8248695 7.06383855,18.6011169 L8.45028917,6.9648349 C8.46908605,6.80707538 8.55066634,6.67059288 8.66823022,6.57918362 C8.54075382,6.49934675 8.44578357,6.37031658 8.41179583,6.21501149 L8.02493687,4.44728099 C7.95710918,4.13734611 8.15337583,3.83110903 8.46331072,3.76328133 C8.50365199,3.75445285 8.54482762,3.75 8.58612363,3.75 L11.6266423,3.75 C11.9439123,3.75 12.2011104,4.00719812 12.2011104,4.32446809 C12.2011104,4.36576409 12.1966576,4.40693972 12.1878291,4.44728099 L11.8009701,6.21501149 C11.7669824,6.37031658 11.6720121,6.49934675 11.5445357,6.57918362 Z"/>
        <path fill="#73BE4A" fill-rule="nonzero" d="M0.519276812,10.0128099 C0.570852007,9.84777469 0.749296015,9.7549261 0.917842659,9.80542681 C1.0863893,9.85592752 1.1812134,10.0306539 1.1296382,10.1956892 C1.0404037,10.4812303 1.0404037,10.9029801 1.13884551,11.4547653 C1.17660621,11.6664213 1.2214981,11.8298339 1.27670985,11.9741983 C1.29870332,12.0317055 1.32145184,12.0843434 1.35184271,12.1496648 C1.33830976,12.1205774 1.41248652,12.2781312 1.43052855,12.3189667 C1.52591421,12.5348582 1.56809864,12.7240629 1.56809864,13.0012589 C1.56809864,13.1738479 1.42521079,13.3137589 1.2489497,13.3137589 C1.07268861,13.3137589 0.929800768,13.1738479 0.929800768,13.0012589 C0.929800768,12.8118313 0.906353025,12.706664 0.844701858,12.5671256 C0.830175037,12.5342462 0.760886588,12.3870754 0.770979662,12.4087692 C0.734964746,12.3313597 0.706756979,12.2660895 0.678950702,12.1933833 C0.60967692,12.0122504 0.554520378,11.811473 0.510069506,11.5623174 C0.395862773,10.9221667 0.395862773,10.407722 0.519276812,10.0128099 Z"/>
        <polygon fill="#F7FCFF" points="10.213 14.179 6.098 16.983 7.55 12.285 3.555 9.319 8.567 9.219 10.213 4.583 11.859 9.219 16.87 9.319 12.876 12.285 14.327 16.983"/>
        <path fill="#73BE4A" fill-rule="nonzero" d="M18.6043832,10.4294766 C18.6559584,10.2644414 18.8344024,10.1715928 19.002949,10.2220935 C19.1714957,10.2725942 19.2663198,10.4473206 19.2147446,10.6123559 C19.1255101,10.897897 19.1255101,11.3196468 19.2239519,11.871432 C19.2617126,12.0830879 19.3066045,12.2465005 19.3618162,12.3908649 C19.3838097,12.4483721 19.4065582,12.5010101 19.4369491,12.5663315 C19.4234161,12.5372441 19.4975929,12.6947978 19.5156349,12.7356334 C19.6110206,12.9515249 19.653205,13.1407296 19.653205,13.4179256 C19.653205,13.5905146 19.5103172,13.7304256 19.3340561,13.7304256 C19.157795,13.7304256 19.0149072,13.5905146 19.0149072,13.4179256 C19.0149072,13.228498 18.9914594,13.1233307 18.9298082,12.9837922 C18.9152814,12.9509129 18.845993,12.8037421 18.856086,12.8254359 C18.8200711,12.7480263 18.7918634,12.6827562 18.7640571,12.61005 C18.6947833,12.428917 18.6396268,12.2281397 18.5951759,11.978984 C18.4809692,11.3388334 18.4809692,10.8243887 18.6043832,10.4294766 Z" transform="matrix(-1 0 0 1 38.164 0)"/>
        <path stroke="#73BE4A" stroke-linecap="round" stroke-linejoin="round" d="M10.060864 1.14761193C10.8371197 1.49343409 11.0576239 1.93859738 10.7223765 2.48310178M10.9119279 1.14761193C11.6881836 1.49343409 11.9086877 1.93859738 11.5734403 2.48310178"/>
        <path fill="#73BE4A" fill-rule="nonzero" d="M3.2598372,4.35674168 C3.34425693,4.21062065 3.52156996,4.16662168 3.65587695,4.25846722 C3.79018394,4.35031275 3.83062555,4.54322277 3.74620582,4.6893438 C3.58423587,4.96969551 3.49992027,5.35433926 3.49992027,5.84753848 C3.49992027,6.02012746 3.37132121,6.16003848 3.21268623,6.16003848 C3.05405125,6.16003848 2.92545219,6.02012746 2.92545219,5.84753848 C2.92545219,5.24479353 3.03469344,4.74644012 3.2598372,4.35674168 Z"/>
        <path fill="#73BE4A" fill-rule="nonzero" d="M2.80851064,7.21253679 C2.80851064,7.38512578 2.67991158,7.52503679 2.5212766,7.52503679 C2.36264161,7.52503679 2.23404255,7.38512578 2.23404255,7.21253679 L2.23404255,6.32236784 C2.23404255,5.69250311 2.33284169,5.19647136 2.54116832,4.83424012 C2.62531333,4.68793166 2.80254333,4.64353843 2.9370226,4.73508508 C3.07150187,4.82663173 3.11230586,5.01945141 3.02816085,5.16575988 C2.88530349,5.41415538 2.80851064,5.79970219 2.80851064,6.32236784 L2.80851064,7.21253679 Z"/>
        <path fill="#73BE4A" fill-rule="nonzero" d="M17.7021277,6.79587013 C17.7021277,6.96845911 17.5735286,7.10837013 17.4148936,7.10837013 C17.2562586,7.10837013 17.1276596,6.96845911 17.1276596,6.79587013 L17.1276596,5.90570118 C17.1276596,5.27583645 17.2264587,4.77980469 17.4347853,4.41757346 C17.5189304,4.27126499 17.6961603,4.22687176 17.8306396,4.31841842 C17.9651189,4.40996507 18.0059229,4.60278474 17.9217779,4.74909321 C17.7789205,4.99748871 17.7021277,5.38303552 17.7021277,5.90570118 L17.7021277,6.79587013 Z" transform="matrix(-1 0 0 1 35.186 0)"/>
        <path fill="#73BE4A" fill-rule="nonzero" d="M18.5531915,8.25420346 C18.5531915,8.42679245 18.4245924,8.56670346 18.2659574,8.56670346 C18.1073225,8.56670346 17.9787234,8.42679245 17.9787234,8.25420346 L17.9787234,7.36403451 C17.9787234,6.73416978 18.0775225,6.23813803 18.2858492,5.87590679 C18.3699942,5.72959832 18.5472242,5.6852051 18.6817035,5.77675175 C18.8161827,5.8682984 18.8569867,6.06111807 18.7728417,6.20742654 C18.6299843,6.45582205 18.5531915,6.84136886 18.5531915,7.36403451 L18.5531915,8.25420346 Z" transform="matrix(-1 0 0 1 36.888 0)"/>
      </g>
    </g>
  </g>
</svg>
