<svg width="16" height="12" viewBox="0 0 16 12" fill="none" xmlns="http://www.w3.org/2000/svg">
<mask id="mask0" mask-type="alpha" maskUnits="userSpaceOnUse" x="0" y="0" width="16" height="12">
<rect width="16" height="12" fill="white"/>
</mask>
<g mask="url(#mask0)">
<path fill-rule="evenodd" clip-rule="evenodd" d="M4 0H16V12H4V0Z" fill="#2F8D00"/>
<path fill-rule="evenodd" clip-rule="evenodd" d="M0 0H4V12H0V0Z" fill="#F7FCFF"/>
<path fill-rule="evenodd" clip-rule="evenodd" d="M11.2147 7.65309C11.2147 7.65309 8.98185 8.23524 7.20952 7.04777C5.43719 5.86029 6.32811 3.12386 6.32811 3.12386C5.40364 3.25839 3.95181 6.63131 6.29202 8.32304C8.63222 10.0148 10.8741 8.38859 11.2147 7.65309ZM8.73692 4.43322L7.55117 5.01304L8.80208 5.23584L8.97093 6.4586L9.67947 5.4172L11.0737 5.51121L9.98167 4.69676L10.563 3.60858L9.47585 4.10651L8.66824 3.34717L8.73692 4.43322Z" fill="#F1F9FF"/>
</g>
</svg>
