<svg width="20" height="15" viewBox="0 0 20 15" fill="none" xmlns="http://www.w3.org/2000/svg">
<mask id="mask0" mask-type="alpha" maskUnits="userSpaceOnUse" x="0" y="0" width="20" height="15">
<rect width="20" height="15" fill="white"/>
</mask>
<g mask="url(#mask0)">
<path fill-rule="evenodd" clip-rule="evenodd" d="M0 0V15H20V0H0Z" fill="#F50100"/>
<mask id="mask1" mask-type="alpha" maskUnits="userSpaceOnUse" x="0" y="0" width="20" height="15">
<path fill-rule="evenodd" clip-rule="evenodd" d="M0 0V15H20V0H0Z" fill="white"/>
</mask>
<g mask="url(#mask1)">
<path fill-rule="evenodd" clip-rule="evenodd" d="M0 -0.0262451V2.52621L8.75 6.24573L2.03452 -0.0262451H0ZM10 7.49998L11.875 -2.0016e-05H8.125L10 7.49998ZM10 7.49998L8.125 15H11.875L10 7.49998ZM0 12.4695V15.022L2.03452 15.022L8.75 8.74998L0 12.4695ZM20 2.54144V-0.0110097L17.9655 -0.0110097L11.25 6.26097L20 2.54144ZM20 15.0372V12.4847L11.25 8.76521L17.9655 15.0372L20 15.0372ZM20 5.62498L12.5 7.49998L20 9.37498V5.62498ZM7.5 7.49998L0 5.62498V9.37498L7.5 7.49998Z" fill="#FFD018"/>
<path d="M10 10.625C11.7259 10.625 13.125 9.22589 13.125 7.5C13.125 5.77411 11.7259 4.375 10 4.375C8.27411 4.375 6.875 5.77411 6.875 7.5C6.875 9.22589 8.27411 10.625 10 10.625Z" fill="#FFD018" stroke="#F50100" stroke-width="1.25"/>
</g>
</g>
</svg>
