<svg width="20" height="15" viewBox="0 0 20 15" fill="none" xmlns="http://www.w3.org/2000/svg">
<mask id="mask0" mask-type="alpha" maskUnits="userSpaceOnUse" x="0" y="0" width="20" height="15">
<rect width="20" height="15" fill="white"/>
</mask>
<g mask="url(#mask0)">
<path fill-rule="evenodd" clip-rule="evenodd" d="M0 0V15H20V0H0Z" fill="#2E42A5"/>
<mask id="mask1" mask-type="alpha" maskUnits="userSpaceOnUse" x="0" y="0" width="20" height="15">
<path fill-rule="evenodd" clip-rule="evenodd" d="M0 0V15H20V0H0Z" fill="white"/>
</mask>
<g mask="url(#mask1)">
<path fill-rule="evenodd" clip-rule="evenodd" d="M0 10V15H20V10H0Z" fill="#FECA00"/>
<mask id="mask2" mask-type="alpha" maskUnits="userSpaceOnUse" x="0" y="0" width="20" height="10">
<rect width="20" height="10" fill="white"/>
</mask>
<g mask="url(#mask2)">
<path d="M-1.41388 9.45574L2.55032 10.3728L11.001 5.70347L11.8952 5.18058L19.9224 0.9833L21.8241 -0.342342L17.4743 -0.743505L10.4608 3.21275L5.39247 5.70347L-1.41388 9.45574Z" fill="white"/>
<path d="M-1.06561 10.0118L1.06873 10.7119L21.0306 -0.508721H18.0337L-1.06561 10.0118Z" fill="#F50100"/>
<path d="M21.4817 9.20687L21.6391 10.1506L17.4497 10.373L10.6958 6.41721L10.0591 6.63476L-2.55025 0.256777L2.65589 -0.745309L9.61587 3.09961L15.0605 5.7304L21.4817 9.20687Z" fill="white"/>
<path d="M21.4962 9.7733L19.3618 10.4734L10.8619 5.66925L8.34183 5.1325L-2.03677 -0.335928H0.960089L11.3329 5.0027L14.0881 5.64633L21.4962 9.7733Z" fill="#F50100"/>
<path d="M8.24313 -0.78125V-1.5625H7.46188V-0.78125H8.24313ZM8.24313 2.96875V3.75H9.02438V2.96875H8.24313ZM-0.78125 2.96875V2.1875H-1.5625V2.96875H-0.78125ZM-0.78125 7.03125H-1.5625V7.8125H-0.78125V7.03125ZM8.24313 7.03125H9.02438V6.25H8.24313V7.03125ZM8.24313 12.0312H7.46188V12.8125H8.24313V12.0312ZM11.7985 12.0312V12.8125H12.5797V12.0312H11.7985ZM11.7985 7.03125V6.25H11.0172V7.03125H11.7985ZM20.7812 7.03125V7.8125H21.5625V7.03125H20.7812ZM20.7812 2.96875H21.5625V2.1875H20.7812V2.96875ZM11.7985 2.96875H11.0172V3.75H11.7985V2.96875ZM11.7985 -0.78125H12.5797V-1.5625H11.7985V-0.78125ZM10.236 2.96875V3.75H11.0172V2.96875H10.236ZM10.236 0.78125H11.0172V0H10.236V0.78125ZM9.80563 0.78125V0H9.02438V0.78125H9.80563ZM9.80563 2.96875H9.02438V3.75H9.80563V2.96875ZM10.236 4.53125H11.0172V3.75H10.236V4.53125ZM9.80563 4.53125V3.75H9.02438V4.53125H9.80563ZM10.236 5.46875V6.25H11.0172V5.46875H10.236ZM9.80563 5.46875H9.02438V6.25H9.80563V5.46875ZM8.24313 4.53125H9.02438V3.75H8.24313V4.53125ZM0.78125 4.53125V3.75H0V4.53125H0.78125ZM0.78125 5.46875H0V6.25H0.78125V5.46875ZM8.24313 5.46875V6.25H9.02438V5.46875H8.24313ZM9.80563 7.03125V6.25H9.02438V7.03125H9.80563ZM9.80563 10.4688H9.02438V11.25H9.80563V10.4688ZM10.236 10.4688V11.25H11.0172V10.4688H10.236ZM10.236 7.03125H11.0172V6.25H10.236V7.03125ZM11.7985 4.53125V3.75H11.0172V4.53125H11.7985ZM11.7985 5.46875H11.0172V6.25H11.7985V5.46875ZM19.2188 4.53125H20V3.75H19.2188V4.53125ZM19.2188 5.46875V6.25H20V5.46875H19.2188ZM8.24313 0H9.02438V-1.5625H8.24313V0ZM9.02438 0V-0.78125H7.46188V0H9.02438ZM9.02438 2.96875V0H7.46188V2.96875H9.02438ZM0 3.75H8.24313V2.1875H0V3.75ZM-0.78125 3.75H0V2.1875H-0.78125V3.75ZM0 3.75V2.96875H-1.5625V3.75H0ZM0 6.25V3.75H-1.5625V6.25H0ZM0 7.03125V6.25H-1.5625V7.03125H0ZM0 6.25H-0.78125V7.8125H0V6.25ZM8.24313 6.25H0V7.8125H8.24313V6.25ZM9.02438 11.25V7.03125H7.46188V11.25H9.02438ZM9.02438 12.0312V11.25H7.46188V12.0312H9.02438ZM9.02438 11.25H8.24313V12.8125H9.02438V11.25ZM11.0172 11.25H9.02438V12.8125H11.0172V11.25ZM11.7985 11.25H11.0172V12.8125H11.7985V11.25ZM11.0172 11.25V12.0312H12.5797V11.25H11.0172ZM11.0172 7.03125V11.25H12.5797V7.03125H11.0172ZM20 6.25H11.7985V7.8125H20V6.25ZM20.7812 6.25H20V7.8125H20.7812V6.25ZM20 6.25V7.03125H21.5625V6.25H20ZM20 3.75V6.25H21.5625V3.75H20ZM20 2.96875V3.75H21.5625V2.96875H20ZM20 3.75H20.7812V2.1875H20V3.75ZM11.7985 3.75H20V2.1875H11.7985V3.75ZM11.0172 0V2.96875H12.5797V0H11.0172ZM11.0172 -0.78125V0H12.5797V-0.78125H11.0172ZM11.0172 0H11.7985V-1.5625H11.0172V0ZM9.02438 0H11.0172V-1.5625H9.02438V0ZM11.0172 2.96875V0.78125H9.45472V2.96875H11.0172ZM10.236 0H9.80563V1.5625H10.236V0ZM9.02438 0.78125V2.96875H10.5869V0.78125H9.02438ZM9.80563 3.75H10.236V2.1875H9.80563V3.75ZM10.236 3.75H9.80563V5.3125H10.236V3.75ZM11.0172 5.46875V4.53125H9.45472V5.46875H11.0172ZM9.80563 6.25H10.236V4.6875H9.80563V6.25ZM9.02438 4.53125V5.46875H10.5869V4.53125H9.02438ZM8.24313 3.75H0.78125V5.3125H8.24313V3.75ZM0 4.53125V5.46875H1.5625V4.53125H0ZM0.78125 6.25H8.24313V4.6875H0.78125V6.25ZM9.02438 5.46875V4.53125H7.46188V5.46875H9.02438ZM9.02438 7.03125V10.4688H10.5869V7.03125H9.02438ZM9.80563 11.25H10.236V9.6875H9.80563V11.25ZM11.0172 10.4688V7.03125H9.45472V10.4688H11.0172ZM10.236 6.25H9.80563V7.8125H10.236V6.25ZM11.0172 4.53125V5.46875H12.5797V4.53125H11.0172ZM19.2188 3.75H11.7985V5.3125H19.2188V3.75ZM20 5.46875V4.53125H18.4375V5.46875H20ZM11.7985 6.25H19.2188V4.6875H11.7985V6.25Z" fill="white"/>
<path fill-rule="evenodd" clip-rule="evenodd" d="M11.0577 -0.833252H8.94231V3.75008H0V6.25008H8.94231V12.0834H11.0577V6.25008H21.25V3.75008H11.0577V-0.833252Z" fill="#F50100"/>
</g>
<path fill-rule="evenodd" clip-rule="evenodd" d="M10.0313 6.625C10.9805 6.625 11.75 5.85549 11.75 4.90625C11.75 3.95701 10.9805 3.1875 10.0313 3.1875C9.08204 3.1875 8.31253 3.95701 8.31253 4.90625C8.31253 5.85549 9.08204 6.625 10.0313 6.625Z" fill="#2E42A5"/>
<path fill-rule="evenodd" clip-rule="evenodd" d="M10.0625 5.43206L9.25133 5.99652L9.5375 5.05063L8.75 4.45359L9.73803 4.43345L10.0625 3.5L10.387 4.43345L11.375 4.45359L10.5875 5.05063L10.8737 5.99652L10.0625 5.43206Z" fill="#FECA00"/>
<path fill-rule="evenodd" clip-rule="evenodd" d="M4.4375 5.36005L3.76153 5.83044L4 5.04219L3.34375 4.54466L4.16711 4.52788L4.4375 3.75L4.70789 4.52788L5.53125 4.54466L4.875 5.04219L5.11347 5.83044L4.4375 5.36005Z" fill="#FECA00"/>
<path fill-rule="evenodd" clip-rule="evenodd" d="M15.6875 5.36005L15.0115 5.83044L15.25 5.04219L14.5938 4.54466L15.4171 4.52788L15.6875 3.75L15.9579 4.52788L16.7812 4.54466L16.125 5.04219L16.3635 5.83044L15.6875 5.36005Z" fill="#FECA00"/>
<path fill-rule="evenodd" clip-rule="evenodd" d="M10.0625 2.36005L9.38653 2.83044L9.625 2.04219L8.96875 1.54466L9.79211 1.52788L10.0625 0.75L10.3329 1.52788L11.1562 1.54466L10.5 2.04219L10.7385 2.83044L10.0625 2.36005Z" fill="#FECA00"/>
<path fill-rule="evenodd" clip-rule="evenodd" d="M10.0625 8.98505L9.38653 9.45544L9.625 8.66719L8.96875 8.16966L9.79211 8.15288L10.0625 7.375L10.3329 8.15288L11.1562 8.16966L10.5 8.66719L10.7385 9.45544L10.0625 8.98505Z" fill="#FECA00"/>
</g>
</g>
</svg>
