<svg width="16" height="12" viewBox="0 0 16 12" fill="none" xmlns="http://www.w3.org/2000/svg">
<mask id="mask0" mask-type="alpha" maskUnits="userSpaceOnUse" x="0" y="0" width="16" height="12">
<rect width="16" height="12" fill="white"/>
</mask>
<g mask="url(#mask0)">
<path fill-rule="evenodd" clip-rule="evenodd" d="M0 0H16V12H0V0Z" fill="#F7FCFF"/>
<path d="M-1.35074 0.622338L-2.37501 0.00298762V1.19995V11.2V12.3969L-1.35074 11.7776L6.91815 6.77756L7.87339 6.19995L6.91815 5.62234L-1.35074 0.622338Z" fill="#F7FCFF" stroke="#E31D1C" stroke-width="1.35"/>
<path d="M17.4604 0.616248L18.4744 0.0273628V1.19995V11.2V12.3725L17.4604 11.7837L8.85103 6.78365L7.84596 6.19995L8.85103 5.61625L17.4604 0.616248Z" fill="#F7FCFF" stroke="#E31D1C" stroke-width="1.35"/>
<path fill-rule="evenodd" clip-rule="evenodd" d="M6.83738 2.35154C6.83738 2.35154 6.40806 4.25069 7.89043 4.9801C7.89043 4.9801 9.31353 4.20444 8.99389 2.35154C8.99389 2.35154 8.38271 2.14709 7.89674 2.14709C7.41077 2.14709 6.83738 2.35154 6.83738 2.35154Z" fill="#E31D1C"/>
<path d="M6.71063 2.54764L6.38605 1.60178C6.99123 1.3941 7.51391 1.28796 7.96038 1.28796C8.41804 1.28796 8.89521 1.39925 9.39087 1.6169L8.98882 2.53251C8.61378 2.36784 8.27132 2.28796 7.96038 2.28796C7.63826 2.28796 7.21957 2.37299 6.71063 2.54764Z" fill="#FECA00"/>
<path d="M7.92499 3.95007C8.27017 3.95007 8.54999 3.67025 8.54999 3.32507C8.54999 2.9799 8.27017 2.70007 7.92499 2.70007C7.57981 2.70007 7.29999 2.9799 7.29999 3.32507C7.29999 3.67025 7.57981 3.95007 7.92499 3.95007Z" fill="#FECA00"/>
</g>
</svg>
