<svg width="32" height="24" fill="none" xmlns="http://www.w3.org/2000/svg">
  <g mask="url(#VG_-_Virgin_Islands_(British)__a)">
    <path fill-rule="evenodd" clip-rule="evenodd" d="M0 0v24h32V0H0z" fill="#2E42A5"/>
    <g mask="url(#VG_-_Virgin_Islands_(British)__b)">
      <path fill="#2B409A" d="M0 0h18v14H0z"/>
      <g mask="url(#VG_-_Virgin_Islands_(British)__c)">
        <path d="M-2.004 13l3.96 1.737L18.09 1.889l2.09-2.582-4.236-.58-6.58 5.536-5.297 3.73L-2.004 13z" fill="#F7FCFF"/>
        <path d="M-1.462 14.217l2.018 1.008L19.429-.933h-2.833l-18.058 15.15z" fill="#F50100"/>
        <path d="M20.004 13l-3.96 1.737L-.09 1.889-2.18-.693l4.236-.58 6.58 5.536 5.297 3.73L20.004 13z" fill="#F7FCFF"/>
        <path d="M19.87 13.873l-2.019 1.009-8.036-6.918-2.383-.773L-2.38-.684H.453l9.807 7.688 2.605.927 7.004 5.942z" fill="#F50100"/>
        <path fill-rule="evenodd" clip-rule="evenodd" d="M9.985 0h-2v6H0v2h7.985v6h2V8H18V6H9.985V0z" fill="#F50100"/>
        <path d="M7.985 0v-1.5h-1.5V0h1.5zm2 0h1.5v-1.5h-1.5V0zm-2 6v1.5h1.5V6h-1.5zM0 6V4.5h-1.5V6H0zm0 2h-1.5v1.5H0V8zm7.985 0h1.5V6.5h-1.5V8zm0 6h-1.5v1.5h1.5V14zm2 0v1.5h1.5V14h-1.5zm0-6V6.5h-1.5V8h1.5zM18 8v1.5h1.5V8H18zm0-2h1.5V4.5H18V6zM9.985 6h-1.5v1.5h1.5V6zm-2-4.5h2v-3h-2v3zm1.5 4.5V0h-3v6h3zM0 7.5h7.985v-3H0v3zm1.5.5V6h-3v2h3zm6.485-1.5H0v3h7.985v-3zm1.5 7.5V8h-3v6h3zm.5-1.5h-2v3h2v-3zM8.485 8v6h3V8h-3zM18 6.5H9.985v3H18v-3zM16.5 6v2h3V6h-3zM9.985 7.5H18v-3H9.985v3zM8.485 0v6h3V0h-3z" fill="#F7FCFF" mask="url(#VG_-_Virgin_Islands_(British)__d)"/>
      </g>
      <path fill-rule="evenodd" clip-rule="evenodd" d="M20.247 10.033v6.529s-.097 5.402 4.882 5.402c4.978 0 4.978-5.402 4.978-5.402v-6.53h-9.86z" fill="#3B7E05" stroke="#F7FCFF" stroke-width=".5"/>
      <path fill-rule="evenodd" clip-rule="evenodd" d="M20.237 19.889l.793-.796c1.24 1.53 2.544 2.276 3.93 2.276 1.386 0 2.689-.745 3.927-2.276l.45.452.02-.028c.276.234.458.452.545.706a.842.842 0 01-.343 1.018c-.082.052-.148.09-.207.117a.521.521 0 01-.405.045.58.58 0 01-.373-.346c-1.125.995-2.332 1.5-3.614 1.5-1.271 0-2.47-.497-3.587-1.475a.58.58 0 01-.378.337.52.52 0 01-.404-.052 1.917 1.917 0 01-.205-.12c-.33-.216-.475-.615-.325-1.025.04-.112.106-.215.19-.316l-.014-.017z" fill="#FFD018"/>
      <path d="M21.03 19.093l.194-.158-.175-.216-.196.197.177.177zm-.793.796l-.177-.177-.159.16.142.174.194-.157zm8.65-.796l.177-.177-.197-.197-.175.217.195.157zm.45.452l-.176.177.214.215.17-.252-.207-.14zm.02-.028l.162-.19-.213-.18-.156.23.207.14zm.545.706l.237-.082-.237.082zm-.343 1.018l-.133-.212.133.212zm-.207.117l-.105-.227.105.227zm-.405.045l-.067.24.067-.24zm-.373-.346l.231-.095-.133-.325-.263.232.165.188zm-7.201.025l.165-.188-.257-.225-.137.313.229.1zm-.378.337l-.063-.242.063.242zm-.404-.052l.11-.225-.11.225zm-.205-.12l-.136.209.136-.21zm-.325-1.025l.235.085-.235-.085zm.19-.316l.192.161.133-.158-.13-.16-.195.157zm.602-.99l-.793.796.354.353.793-.796-.354-.353zm4.107 2.203c-1.284 0-2.524-.687-3.736-2.184l-.388.315c1.267 1.565 2.636 2.369 4.124 2.369v-.5zm3.732-2.183c-1.21 1.496-2.448 2.183-3.732 2.183v.5c1.488 0 2.855-.804 4.12-2.369l-.388-.314zm.823.433l-.451-.453-.355.353.452.453.354-.353zm-.365.008l-.02.029.415.28.02-.03-.415-.279zm.989.764c-.109-.315-.33-.569-.62-.815l-.323.382c.26.221.404.404.47.596l.473-.163zm-.447 1.312c.433-.272.627-.79.447-1.312l-.473.163c.105.304-.005.578-.24.726l.266.423zm-.234.131c.072-.033.148-.077.234-.131l-.266-.424c-.079.05-.134.081-.18.102l.212.453zm-.578.06a.751.751 0 00.578-.06l-.211-.453a.442.442 0 01-.122.042.255.255 0 01-.11-.01l-.136.48zm-.537-.492a.83.83 0 00.537.491l.135-.48a.331.331 0 01-.21-.201l-.462.19zm-3.383 1.656c1.354 0 2.618-.537 3.78-1.564l-.331-.375c-1.089.963-2.24 1.439-3.45 1.439v.5zm-3.752-1.538c1.155 1.01 2.41 1.538 3.752 1.538v-.5c-1.2 0-2.341-.468-3.422-1.414l-.33.376zm-.15.39a.83.83 0 00.544-.478l-.458-.2a.331.331 0 01-.212.195l.127.483zm-.576-.069a.753.753 0 00.577.069l-.127-.483a.256.256 0 01-.11.01.44.44 0 01-.121-.045l-.22.45zm-.232-.135c.085.055.16.1.232.135l.219-.45a1.674 1.674 0 01-.178-.104l-.273.419zm-.424-1.32c-.189.519-.004 1.04.424 1.32l.273-.419c-.232-.151-.337-.428-.227-.73l-.47-.17zm.234-.39c-.098.116-.18.244-.234.39l.47.172a.811.811 0 01.147-.24l-.383-.322zm-.017.3l.014.018.388-.315-.014-.017-.388.314z" fill="#fff"/>
      <path fill-rule="evenodd" clip-rule="evenodd" d="M21.956 11.46l.111.041c.091-.208.106-.366 0-.468l-.003-.005c-.025-.038-.069-.107.003-.253l-.05-.105c-.104.212-.151.365-.07.468l.004.005.005.005c.047.042.066.16 0 .312zm0 1.514l.111.04c.091-.207.106-.366 0-.467l-.003-.005c-.025-.039-.069-.107.003-.254l-.05-.104c-.104.212-.151.365-.07.468l.004.005.005.004c.047.043.066.16 0 .313zm.111 1.392l-.111-.04c.066-.153.047-.271 0-.313l-.005-.005-.004-.005c-.081-.103-.034-.256.07-.468l.05.105c-.072.146-.028.215-.003.253l.003.005c.106.102.091.26 0 .468zm.666 1.58l.11.042c.092-.208.107-.367 0-.468l-.002-.005c-.025-.039-.069-.107.003-.254l-.051-.104c-.104.212-.15.365-.07.468l.005.005.005.004c.046.043.066.16 0 .313zm-.812 1.339l-.11-.04c.066-.153.046-.271 0-.313l-.006-.005-.004-.005c-.08-.103-.034-.256.07-.468l.05.105c-.071.146-.027.215-.002.253l.002.005c.106.102.091.26 0 .468zm-.11 1.473l.11.04c.091-.207.106-.366 0-.468l-.002-.004c-.025-.039-.07-.107.002-.254l-.05-.104c-.104.212-.15.364-.07.468l.004.005.005.004c.047.042.067.16 0 .313zm4.916.04l-.111-.04c.067-.153.047-.27 0-.313l-.005-.004-.004-.005c-.081-.104-.034-.256.07-.468l.05.104c-.071.147-.027.215-.003.254l.003.004c.106.102.091.26 0 .468zm-.111-1.5l.111.04c.091-.207.106-.365 0-.467l-.003-.005c-.024-.038-.068-.107.003-.253l-.05-.105c-.104.212-.151.365-.07.468l.004.005.005.005c.047.042.067.16 0 .312zm.111-1.418l-.111-.041c.067-.152.047-.27 0-.313l-.005-.004-.004-.005c-.081-.103-.034-.256.07-.468l.05.104c-.071.147-.027.215-.003.254l.003.004c.106.102.091.26 0 .469zm-.16-1.447l.112.041c.09-.208.106-.366 0-.468l-.003-.005c-.025-.038-.069-.107.003-.253l-.051-.105c-.104.212-.15.365-.07.468l.005.005.005.005c.046.042.066.16 0 .312zm.112-1.473l-.111-.04c.066-.152.046-.27 0-.313l-.005-.004-.005-.005c-.08-.103-.034-.256.07-.468l.05.104c-.07.147-.027.215-.002.254l.003.005c.106.101.09.26 0 .467zm-.111-1.446l.11.041c.092-.208.107-.366 0-.468a.09.09 0 00-.002-.005c-.025-.038-.069-.107.003-.253l-.051-.105c-.104.212-.15.365-.07.468l.005.005.005.005c.046.042.066.16 0 .312z" fill="#F50100"/>
      <path fill-rule="evenodd" clip-rule="evenodd" d="M22.76 10.815a.114.114 0 00.013-.053c0-.06-.045-.108-.1-.108-.055 0-.1.049-.1.108 0 .026.008.05.022.068l-.378.586.039.032.378-.586a.093.093 0 00.092-.008l.398.594.039-.032-.403-.601zm-.014.507a.113.113 0 00.027-.073c0-.06-.045-.109-.1-.109-.055 0-.1.049-.1.109a.11.11 0 00.042.088l-.095.114h-.642s.07.16.29.203c.066.064.237.182.237.182l-.098.119H23v-.119c.169 0 .232-.134.255-.182.01-.02.012-.024.012 0 0 .085.123 0 .123 0s.204-.203.204-.397-.427.194-.427.194h-.29l-.13-.13zm-.868 1.642h.642l.095-.114a.11.11 0 01-.042-.088c0-.06.044-.108.1-.108.055 0 .1.049.1.108 0 .028-.01.054-.026.073l.13.13h.29s.427-.389.427-.195-.204.398-.204.398-.123.085-.123 0c0-.025-.003-.02-.012 0-.023.047-.086.18-.255.182v.118h-.692l.097-.118s-.171-.118-.238-.182c-.219-.043-.29-.204-.29-.204zm.882-.636a.114.114 0 00.013-.052c0-.06-.045-.108-.1-.108-.055 0-.1.048-.1.108 0 .025.008.05.022.068l-.378.586.039.031.378-.585a.094.094 0 00.092-.009l.398.594.039-.032-.403-.6zm-.882 1.988h.642l.095-.114a.11.11 0 01-.042-.088c0-.06.044-.109.1-.109.055 0 .1.049.1.108 0 .029-.01.054-.026.074l.13.129h.29s.427-.388.427-.194-.204.397-.204.397-.123.085-.123 0c0-.025-.003-.02-.012 0-.023.048-.086.18-.255.182v.119h-.692l.097-.119s-.171-.118-.238-.182c-.219-.042-.29-.203-.29-.203zm.882-.636a.114.114 0 00.013-.053c0-.06-.045-.108-.1-.108-.055 0-.1.048-.1.108 0 .026.008.05.022.068l-.378.586.039.031.378-.585a.093.093 0 00.092-.008l.398.594.039-.033-.403-.6zm-.106 2.257h.643l.095-.114a.11.11 0 01-.043-.088c0-.06.045-.108.1-.108.056 0 .1.048.1.108 0 .028-.01.054-.026.073l.13.13h.29s.428-.389.428-.195-.204.398-.204.398-.124.085-.124 0c0-.025-.002-.02-.011 0-.023.047-.086.18-.255.182v.118h-.693l.098-.118s-.171-.119-.238-.182c-.22-.043-.29-.204-.29-.204zm.883-.636a.114.114 0 00.012-.052c0-.06-.044-.109-.1-.109-.055 0-.1.049-.1.109 0 .025.009.049.023.068l-.379.585.04.032.378-.586a.093.093 0 00.091-.008l.398.594.04-.032-.403-.6zm-1.805 1.934h.643l.094-.114a.11.11 0 01-.042-.089c0-.06.045-.108.1-.108.055 0 .1.049.1.108 0 .029-.01.054-.026.073l.13.13h.29s.428-.388.428-.194-.205.397-.205.397-.123.085-.123 0c0-.025-.002-.02-.012 0-.022.048-.086.18-.255.182v.119h-.692l.098-.119s-.172-.118-.239-.182c-.219-.042-.289-.203-.289-.203zm.883-.636a.115.115 0 00.012-.053c0-.06-.045-.108-.1-.108-.055 0-.1.048-.1.108 0 .026.008.05.022.068l-.378.586.04.031.378-.585a.092.092 0 00.091-.008l.398.594.039-.033-.402-.6zm-.883 2.15h.643l.094-.115a.11.11 0 01-.042-.088c0-.06.045-.108.1-.108.055 0 .1.048.1.108 0 .028-.01.054-.026.073l.13.13h.29s.428-.389.428-.195-.205.398-.205.398-.123.085-.123 0c0-.025-.002-.02-.012 0-.022.047-.086.18-.255.182v.118h-.692l.098-.118s-.172-.119-.239-.182c-.219-.043-.289-.204-.289-.204zm.883-.637a.115.115 0 00.012-.052c0-.06-.045-.109-.1-.109-.055 0-.1.049-.1.108 0 .026.008.05.022.068l-.378.586.04.032.378-.586a.092.092 0 00.091-.008l.398.594.039-.032-.402-.6zm3.923.636h.642l.095-.114a.11.11 0 01-.042-.088c0-.06.045-.108.1-.108.055 0 .1.048.1.108 0 .028-.01.054-.026.073l.13.13h.29s.427-.389.427-.195-.204.398-.204.398-.123.085-.123 0c0-.025-.003-.02-.012 0-.023.047-.086.18-.255.182v.118h-.692l.097-.118s-.17-.119-.238-.182c-.219-.043-.29-.204-.29-.204zm.882-.636a.114.114 0 00.013-.052c0-.06-.045-.109-.1-.109-.055 0-.1.049-.1.108 0 .026.008.05.022.068l-.378.586.04.032.377-.586a.093.093 0 00.092-.008l.398.594.039-.032-.403-.6zm-.882-.823h.642l.095-.114a.11.11 0 01-.042-.088c0-.06.045-.109.1-.109.055 0 .1.049.1.108 0 .029-.01.054-.026.074l.13.129h.29s.427-.388.427-.194-.204.397-.204.397-.123.085-.123 0c0-.025-.003-.02-.012 0-.023.048-.086.18-.255.182v.119h-.692l.097-.119s-.17-.118-.238-.182c-.219-.042-.29-.203-.29-.203zm.882-.636a.113.113 0 00.013-.053c0-.06-.045-.108-.1-.108-.055 0-.1.048-.1.108 0 .026.008.05.022.068l-.378.586.04.031.377-.585a.094.094 0 00.092-.008l.398.594.039-.033-.403-.6zm-.882-.824h.642l.095-.114a.11.11 0 01-.042-.088c0-.06.045-.108.1-.108.055 0 .1.048.1.108 0 .028-.01.054-.026.073l.13.13h.29s.427-.389.427-.195-.204.398-.204.398-.123.085-.123 0c0-.025-.003-.02-.012 0-.023.047-.086.18-.255.182v.118h-.692l.097-.118s-.17-.119-.238-.182c-.219-.043-.29-.204-.29-.204zm.882-.636a.114.114 0 00.013-.053c0-.06-.045-.108-.1-.108-.055 0-.1.049-.1.108 0 .026.008.05.022.069l-.378.585.04.032.377-.586a.093.093 0 00.092-.008l.398.594.039-.032-.403-.6zm-.93-.77h.642l.095-.113a.11.11 0 01-.043-.088c0-.06.045-.108.1-.108.056 0 .1.048.1.108 0 .028-.01.053-.026.073l.13.129h.29s.428-.388.428-.194-.205.397-.205.397-.123.085-.123 0c0-.024-.002-.02-.012 0-.022.048-.085.181-.254.182v.119h-.693l.098-.119s-.171-.118-.238-.182c-.22-.042-.29-.203-.29-.203zm.882-.635a.115.115 0 00.012-.053c0-.06-.044-.108-.1-.108-.055 0-.1.048-.1.108 0 .026.009.05.023.068l-.379.586.04.032.378-.586a.093.093 0 00.091-.008l.398.594.04-.032-.403-.601zm-.883-.878h.643l.095-.114a.11.11 0 01-.043-.088c0-.06.045-.108.1-.108.056 0 .1.048.1.108 0 .028-.01.054-.026.073l.13.13h.29s.428-.389.428-.195-.205.398-.205.398-.123.085-.123 0c0-.025-.002-.02-.012 0-.022.047-.085.18-.254.182v.118h-.693l.098-.118s-.171-.118-.238-.182c-.22-.043-.29-.204-.29-.204zm.883-.636a.115.115 0 00.012-.052c0-.06-.044-.108-.1-.108-.055 0-.1.048-.1.108 0 .025.009.049.023.068l-.379.586.04.031.378-.586a.093.093 0 00.091-.008l.398.594.04-.032-.403-.6z" fill="#FFD018"/>
      <path fill-rule="evenodd" clip-rule="evenodd" d="M24.64 12.586l-.337 1.093s-.563.73-.667 1.086c-.104.358-.161.595-.133.595a.371.371 0 00.26-.348c0-.247.877-1.04.877-1.04l.262-1.386h-.262z" fill="#FFC6B5"/>
      <path fill-rule="evenodd" clip-rule="evenodd" d="M27.372 10.869a.114.114 0 00.012-.053c0-.06-.044-.108-.1-.108-.055 0-.1.049-.1.108 0 .026.009.05.023.068l-.379.586.04.032.378-.586a.092.092 0 00.091-.008l.398.594.04-.032-.403-.601zm-.014.507a.112.112 0 00.026-.073c0-.06-.044-.108-.1-.108-.055 0-.1.048-.1.108a.11.11 0 00.043.088l-.095.114h-.643s.07.161.29.204c.067.063.238.181.238.181l-.098.119h.693v-.119c.169 0 .232-.134.255-.182.009-.02.011-.024.011 0 0 .085.123 0 .123 0s.205-.203.205-.397-.428.194-.428.194h-.29l-.13-.13z" fill="#FFD018"/>
      <path fill-rule="evenodd" clip-rule="evenodd" d="M25.46 12.148c.01.02.017.035.017.056 0 .063-.268.156-.46.156-.193 0-.118-.156 0-.242.117-.087-.01-.235-.118-.235-.102 0-.102-.145-.101-.26v-.472c0-.182.049-.16.143-.12a.518.518 0 00.212.054c.143 0 .15.034.173.123.013.054.03.13.087.23.09.162.072.2.043.258-.019.039-.043.086-.043.186 0 .166.028.225.047.265zm.238 1.16l.057-.614s-.057-.225.076-.225.34 1.075.414 1.507c.047.275.004.326-.123.474-.071.084-.169.198-.291.4-.203.336-.19.533-.18.683.006.1.012.18-.05.265-.143.2-.201.011-.259-.173l-.012-.041c-.055-.173.194-.696.364-1.052l.06-.13c.161-.342.146-.461.077-.604-.07-.144-.133-.49-.133-.49z" fill="#FFC6B5"/>
      <path fill-rule="evenodd" clip-rule="evenodd" d="M26.02 19.37c0 .156-.12.283-.267.283a.276.276 0 01-.268-.283c0-.157.12-.284.268-.284.147 0 .267.127.267.284zm-1.42.078c-.12.1-.266.124-.327.052-.06-.072-.012-.212.108-.312s.266-.124.326-.052c.06.072.012.212-.108.312z" fill="#FFD018"/>
      <path fill-rule="evenodd" clip-rule="evenodd" d="M24.951 10.785s-.278.056-.185.195c.093.14-.12.103.185.121.306.018.39.13.348.212-.042.082-.075.286 0 .409.074.123.098.337.23.23.132-.107.385-.254.308-.447-.078-.192.031-.417-.139-.525-.169-.108-.207-.042-.304-.195-.097-.154-.24-.196-.341-.098l-.102.098z" fill="#A95601"/>
      <path fill-rule="evenodd" clip-rule="evenodd" d="M24.896 12.178s-.558.671-.467.908c.092.237.228.25.16.586-.068.337.042.857-.16 1.519-.2.662-.333 2.215-.267 2.215s.158.858.079 1.243c-.079.385-.63.707-.079.707.55 0 .616.076.836 0 .22-.076.533.22.533 0s.023-.265.191-.265h.308c.148 0 .343.139.343-.19 0-.327.036-1.032-.153-1.58-.19-.547-.126-.197-.312-.929-.11-.433-.195-.605-.262-.757-.046-.104-.178.079-.21-.084-.01-.056.08-.38.081-.422.006-.26.205-.304.205-.751 0-.519-.124-1.088 0-1.374.124-.285.43-.113.308-.39-.122-.278-.161-.436-.39-.436h-.744z" fill="#F7FCFF"/>
      <path d="M20.987 20.145l.093-.124c1.336 1.245 2.572 1.865 3.705 1.865 1.135 0 2.517-.659 4.142-1.979l.086.132c-1.648 1.338-3.057 2.009-4.228 2.009-1.172 0-2.438-.636-3.798-1.902z" fill="#272727"/>
    </g>
  </g>
</svg>
