<svg xmlns="http://www.w3.org/2000/svg" fill="none" viewBox="0 0 32 24"><mask id="096_svg__a" width="32" height="24" x="0" y="0" mask-type="alpha" maskUnits="userSpaceOnUse"><path fill="#fff" d="M0 0H32V24H0z"/></mask><g mask="url(#096_svg__a)"><path fill="#FFD221" fill-rule="evenodd" d="M0 0V24H32V0H0Z" clip-rule="evenodd"/><mask id="096_svg__b" width="32" height="24" x="0" y="0" mask-type="alpha" maskUnits="userSpaceOnUse"><path fill="#fff" fill-rule="evenodd" d="M0 0V24H32V0H0Z" clip-rule="evenodd"/></mask><g mask="url(#096_svg__b)"><path fill="#313131" d="M-3.06702 10.6152L-1.05903 6.03613L33.7676 21.3081L31.7596 25.8872L-3.06702 10.6152Z"/><path fill="#FAF9F9" d="M-3.01721 5.56956L-1.01006 0.990112L35.5485 17.0135L33.5414 21.593L-3.01721 5.56956Z"/><path fill="#CF1225" fill-rule="evenodd" d="M7.33082 12.3973C5.91226 10.6565 6.14941 9.47913 6.14941 9.47913 6.14941 9.47913 7.60117 9.53218 7.58498 10.4683 7.58498 10.8639 8.10571 11.2383 8.55433 11.5609 8.8938 11.805 9.19199 12.0194 9.19199 12.1908 9.19199 12.5888 9.4916 16.6006 9.4916 16.6006 9.4916 16.6006 9.28233 16.9659 8.27998 16.9659 7.27762 16.9659 7.33082 16.3885 7.33082 16.3885 7.93851 15.6434 7.33082 12.3973 7.33082 12.3973zM24.6697 12.3973C26.0882 10.6565 25.8511 9.47913 25.8511 9.47913 25.8511 9.47913 24.3993 9.53218 24.4155 10.4683 24.4155 10.8639 23.8948 11.2383 23.4462 11.5609 23.1067 11.805 22.8085 12.0194 22.8085 12.1908 22.8085 12.5888 22.5089 16.6006 22.5089 16.6006 22.5089 16.6006 22.7181 16.9659 23.7205 16.9659 24.7229 16.9659 24.6697 16.3885 24.6697 16.3885 24.062 15.6434 24.6697 12.3973 24.6697 12.3973zM16.0598 2.87476 17.1866 3.67911 16.4482 3.87639 17.1866 4.5146 16.2673 4.28171V4.92648H17.1866L17.494 6.43788 17.1383 6.18554 16.7825 6.43788 16.4268 6.18554 16.071 6.43788 15.7045 6.18554 15.3381 6.43788 14.9716 6.18554 14.6052 6.43788 15.0668 4.92648H15.9174V2.87476H16.0598zM21.0851 7.9514C21.0851 7.9514 20.7417 8.25501 20.0051 7.9514 19.759 7.84997 19.4893 7.67264 19.2079 7.48764 18.6469 7.11883 18.0395 6.71953 17.4807 6.83027 16.6416 6.99655 16.2687 7.39703 16.2687 7.39703V6.47467H16.167 16.0095 15.9078V7.39703C15.9078 7.39703 15.5349 6.99655 14.6958 6.83027 14.137 6.71953 13.5296 7.11883 12.9686 7.48764 12.6872 7.67264 12.4175 7.84997 12.1714 7.9514 11.4348 8.25501 11.0914 7.9514 11.0914 7.9514 11.0914 7.9514 11.0914 8.20842 11.639 8.60425 11.8766 8.77598 12.1482 8.76362 12.3797 8.69457 12.2083 8.82389 12.1252 8.97582 12.3984 9.09756 12.9645 9.34986 13.8951 8.68586 13.9971 8.61104 13.8834 8.69555 12.7587 9.54136 13.2742 9.54136 13.8168 9.54136 14.6958 8.83037 14.6958 8.83037 14.6958 8.83037 13.6292 9.85369 14.203 10.0131 14.5683 10.1146 15.0044 9.58235 15.2093 9.26706 15.2159 9.33407 15.2775 9.37508 15.3446 9.41976 15.4305 9.47702 15.5255 9.5403 15.5255 9.67204 15.5255 9.84091 15.5674 9.86989 15.6042 9.8953 15.6328 9.91514 15.6584 9.9328 15.6584 10.0131V10.2464L15.5255 10.4423C15.5255 10.4423 15.5255 10.7471 15.6584 10.9893 15.759 11.1728 15.7072 11.3271 15.6184 11.5915 15.59 11.6762 15.5578 11.7722 15.5255 11.884 15.3927 12.3451 15.6584 13.1326 15.6584 13.1326H15.5255C15.5255 13.1326 15.6584 13.2296 15.6584 13.6179 15.6584 13.9341 15.5703 14.1137 15.404 14.4528 15.366 14.5302 15.324 14.6159 15.278 14.7134 15.0305 15.2382 15.5255 15.9055 15.5255 15.9055 15.5255 15.9055 14.6958 15.5414 14.8621 15.9055 14.9898 16.1852 15.6909 16.4572 16.0095 16.5685V16.621C16.0095 16.621 16.0386 16.612 16.0883 16.5954 16.1379 16.612 16.167 16.621 16.167 16.621V16.5685C16.4856 16.4572 17.1867 16.1852 17.3144 15.9055 17.4807 15.5414 16.651 15.9055 16.651 15.9055 16.651 15.9055 17.146 15.2382 16.8985 14.7134 16.8525 14.6159 16.8105 14.5302 16.7725 14.4528L16.7725 14.4528C16.6062 14.1137 16.5181 13.9341 16.5181 13.6179 16.5181 13.2296 16.651 13.1326 16.651 13.1326H16.5181C16.5181 13.1326 16.7838 12.3451 16.651 11.884 16.6188 11.7722 16.5865 11.6762 16.5581 11.5915 16.4693 11.3271 16.4175 11.1728 16.5181 10.9893 16.651 10.7471 16.651 10.4423 16.651 10.4423L16.5181 10.2464V10.0131C16.5181 9.9328 16.5437 9.91514 16.5723 9.8953 16.6091 9.86989 16.651 9.84091 16.651 9.67204 16.651 9.5403 16.746 9.47702 16.832 9.41976 16.899 9.37508 16.9606 9.33407 16.9672 9.26706 17.1721 9.58235 17.6082 10.1146 17.9735 10.0131 18.5473 9.85369 17.4807 8.83037 17.4807 8.83037 17.4807 8.83037 18.3597 9.54136 18.9023 9.54136 19.4178 9.54136 18.2931 8.69554 18.1794 8.61104 18.2814 8.68586 19.212 9.34986 19.7781 9.09756 20.0513 8.97582 19.9682 8.82389 19.7968 8.69457 20.0283 8.76362 20.2999 8.77598 20.5375 8.60425 21.0851 8.20842 21.0851 7.9514 21.0851 7.9514zM19.2613 8.41784C19.2613 8.41784 19.4948 8.60447 19.7968 8.69457 19.5921 8.54008 19.2613 8.41784 19.2613 8.41784zM16.8985 9.09756C16.8085 8.97772 16.8502 9.08702 16.9672 9.26706 16.9714 9.22395 16.9529 9.17009 16.8985 9.09756zM15.278 9.09756C15.368 8.97772 15.3263 9.08702 15.2093 9.26706 15.2051 9.22395 15.2236 9.17009 15.278 9.09756zM14.0062 8.60425C14.0062 8.60425 14.0031 8.60662 13.9971 8.61104 14.0031 8.60659 14.0062 8.60425 14.0062 8.60425zM12.9153 8.41784C12.9153 8.41784 12.6817 8.60447 12.3797 8.69457 12.5844 8.54008 12.9153 8.41784 12.9153 8.41784z" clip-rule="evenodd"/><path fill="#CF1225" fill-rule="evenodd" d="M11.2293 9.578C11.2293 9.578 10.0356 11.2016 10.1685 12.9364C10.3013 14.6712 11.7167 18.7074 15.9157 18.7074C15.9518 18.7074 15.9877 18.7064 16.0234 18.7064C20.4728 18.7064 21.7358 14.2561 21.7358 12.6558C21.7358 11.0416 20.7291 9.578 20.7291 9.578C20.7291 9.578 20.8467 11.744 20.7291 12.6558C20.3743 15.4063 18.6415 16.6768 15.9936 16.6768C13.3293 16.6768 11.6806 15.3583 11.2293 12.6558C11.0833 11.7821 11.2293 9.578 11.2293 9.578Z" clip-rule="evenodd"/><path fill="#CF1225" fill-rule="evenodd" d="M9.06555 19.7512C9.06555 19.7512 9.28222 19.1307 9.54855 19.1307C9.81489 19.1307 9.03897 18.5922 9.54855 18.4399C10.0581 18.2876 10.8423 19.0469 10.8423 18.2876C10.8423 17.5282 10.1791 17.1139 10.6664 17.1139C11.1537 17.1139 11.662 16.9685 11.662 16.9685C11.662 16.9685 13.7352 19.1307 15.8107 19.1307C17.8862 19.1307 20.3821 17.1139 20.3821 17.1139C20.3821 17.1139 21.302 16.88 21.302 17.2448C21.302 17.6097 21.1002 18.1605 21.1002 18.1605C21.1002 18.1605 21.7448 18.0334 22.0728 18.1605C22.4007 18.2876 22.0728 18.8955 22.0728 18.8955V19.1307C22.0728 19.1307 22.926 18.9428 22.926 19.279C22.926 19.6152 22.5141 19.4232 21.6795 19.5192C20.8448 19.6152 20.528 20.2678 20.0037 20.2678C19.4793 20.2678 19.3664 19.7512 19.3664 19.7512C19.3664 19.7512 17.7415 20.632 15.8107 20.632C13.8799 20.632 12.7136 19.7512 12.7136 19.7512C12.7136 19.7512 12.8958 20.6554 12.2789 20.4616C11.662 20.2678 11.0309 19.0388 10.2898 19.279C9.54855 19.5192 9.06555 19.7512 9.06555 19.7512Z" clip-rule="evenodd"/><path fill="#F6E017" fill-rule="evenodd" d="M12.0618 16.1648C12.0983 16.1308 12.135 16.093 12.1831 16.0408 12.3192 15.893 12.3561 15.8538 12.384 15.8359 12.3896 15.8612 12.3934 15.9025 12.3934 15.9592 12.3934 16.3357 12.4068 16.62 12.4434 16.8177 12.4696 16.9585 12.5058 17.0497 12.5699 17.0932 12.6635 17.1566 12.7579 17.1014 12.8454 16.9698 13.0457 16.6687 13.4227 16.6315 13.4227 16.7464 13.4227 16.7762 13.411 16.8084 13.3378 16.9878 13.3251 17.0187 13.3151 17.0438 13.3059 17.0681 13.2545 17.2035 13.2316 17.3014 13.2427 17.3865 13.2593 17.5136 13.353 17.5852 13.5047 17.5852 13.6734 17.5852 13.7842 17.476 13.9068 17.261 13.9187 17.24 13.9508 17.1816 13.9644 17.1568L13.9645 17.1566 13.9645 17.1566 13.9706 17.1456C13.993 17.1053 14.0094 17.0782 14.0246 17.0572 14.0692 16.9949 14.079 16.9997 14.178 17.2336 14.204 17.2953 14.2576 17.4252 14.3039 17.5377 14.3405 17.6265 14.3726 17.7045 14.3832 17.7294 14.4482 17.8822 14.4938 17.9723 14.5418 18.0353 14.652 18.1801 14.7836 18.1789 14.9407 18.0445 14.9718 18.0179 15.0065 17.9917 15.0467 17.964 15.0676 17.9496 15.1174 17.9176 15.1651 17.887L15.1651 17.887C15.2103 17.8579 15.2534 17.8301 15.2681 17.8199 15.3592 17.7562 15.4045 17.7061 15.4036 17.6321 15.4024 17.5386 15.3244 17.4799 15.1687 17.422 15.1379 17.4105 15.114 17.3997 15.0967 17.3918L15.0966 17.3917 15.0965 17.3917C15.0838 17.3859 15.0747 17.3818 15.0689 17.3802 15.0728 17.3795 15.0785 17.3766 15.0874 17.3721L15.0952 17.3682C15.1928 17.3197 15.3899 17.2842 15.5658 17.2842L15.5668 17.2842C15.575 17.2842 15.5799 17.2842 15.5828 17.2866 15.5872 17.2903 15.587 17.2994 15.5865 17.322L15.5864 17.3246C15.5852 17.3776 15.5738 17.4289 15.5303 17.5918L15.5154 17.6489C15.4661 17.8402 15.4525 17.9559 15.4863 18.0557 15.5359 18.2019 15.6769 18.2527 15.8959 18.2093 16.1922 18.1507 16.3365 18.033 16.3742 17.8527 16.3836 17.8075 16.3855 17.7729 16.3856 17.7024 16.3857 17.5862 16.3864 17.5852 16.4856 17.5852 16.6269 17.5852 16.6828 17.6353 16.7422 17.7743 16.7474 17.7865 16.7527 17.7992 16.7634 17.8251 16.8324 17.9916 16.8965 18.064 17.041 18.064 17.1375 18.064 17.2047 18.0235 17.1928 17.9299 17.1898 17.9061 17.1817 17.8851 17.1672 17.8557L17.1556 17.833 17.1556 17.833C17.1478 17.8179 17.1386 17.8 17.1349 17.7924 17.0453 17.609 17.0808 17.4689 17.3892 17.2715 17.4773 17.2151 17.6135 17.1197 17.7314 17.037L17.7314 17.037 17.7314 17.037 17.7315 17.037C17.8164 16.9775 17.8918 16.9246 17.9331 16.8977 17.9364 16.9228 17.9388 16.9572 17.941 17.0073 17.9419 17.0271 17.9441 17.0891 17.9459 17.1391L17.9483 17.2035C17.9614 17.5383 18.031 17.8448 18.1326 17.9692 18.3047 18.1799 18.4708 17.9852 18.5838 17.5215 18.6919 17.0779 18.8462 16.6596 18.9966 16.4057 19.0703 16.2813 19.1393 16.2033 19.1919 16.1796 19.2268 16.1639 19.2514 16.1751 19.2875 16.2407 19.4233 16.4874 19.6324 16.7163 19.8091 16.7844 20.0714 16.8854 20.2271 16.6726 20.2271 16.1993 20.2271 15.8025 20.2915 15.4861 20.3981 15.242 20.4347 15.158 20.4737 15.0893 20.5122 15.0347 20.5343 15.0034 20.5505 14.9845 20.5581 14.977L20.4449 14.8554C20.3929 14.9063 20.3198 15.0099 20.2485 15.1732 20.1323 15.4392 20.0631 15.7791 20.0631 16.1993 20.0631 16.5735 19.9895 16.6742 19.8667 16.6269 19.7334 16.5755 19.5489 16.3735 19.4302 16.1579 19.3556 16.0225 19.245 15.9719 19.126 16.0256 19.035 16.0666 18.9462 16.1669 18.8565 16.3184 18.6964 16.5887 18.5366 17.022 18.4248 17.4807 18.3762 17.6801 18.3257 17.807 18.2583 17.8611 18.1867 17.7735 18.1239 17.4969 18.1121 17.1967L18.1098 17.134 18.1098 17.1338C18.108 17.0835 18.1057 17.0203 18.1048 16.9997 18.102 16.9368 18.0988 16.8953 18.0936 16.8616 18.077 16.7538 18.0225 16.6903 17.9244 16.716 17.8859 16.726 17.701 16.8546 17.5346 16.9703L17.5346 16.9703C17.4419 17.0347 17.355 17.0951 17.3025 17.1288 16.9211 17.373 16.8614 17.608 16.9884 17.8679L16.9986 17.888C16.9681 17.8739 16.9469 17.838 16.9142 17.7593 16.9038 17.7339 16.898 17.72 16.8924 17.7067 16.8094 17.5127 16.7025 17.417 16.4856 17.417 16.277 17.417 16.2219 17.5046 16.2217 17.7022 16.2216 17.7611 16.2201 17.7874 16.2139 17.8174 16.1916 17.9241 16.1019 17.9972 15.8649 18.0441 15.7167 18.0735 15.6589 18.0526 15.6411 18.0004 15.6221 17.9442 15.6332 17.8499 15.6739 17.6918L15.6885 17.6362C15.7365 17.4558 15.7487 17.4016 15.7503 17.3284 15.7531 17.2016 15.6911 17.116 15.5658 17.116 15.3672 17.116 15.1467 17.1557 15.0237 17.2168 14.8219 17.3171 14.8619 17.4868 15.1129 17.5802 15.1622 17.5985 15.1948 17.6142 15.2146 17.6237L15.2146 17.6237C15.2286 17.6305 15.2362 17.6341 15.2387 17.6334 15.2369 17.6338 15.2323 17.6375 15.2246 17.6438 15.2143 17.6521 15.1984 17.6651 15.1758 17.6808 15.1639 17.6892 15.126 17.7135 15.0842 17.7404L15.0841 17.7405 15.0841 17.7405 15.0841 17.7405 15.0839 17.7406C15.0344 17.7724 14.9794 17.8078 14.9554 17.8243 14.9108 17.855 14.8716 17.8846 14.8357 17.9153 14.744 17.9937 14.7183 17.994 14.671 17.9317 14.6341 17.8833 14.5931 17.8023 14.5335 17.6621 14.5232 17.638 14.4918 17.5618 14.4558 17.4743 14.4092 17.3613 14.3549 17.2295 14.3283 17.1666 14.1874 16.8335 14.0351 16.7587 13.8925 16.9574 13.8728 16.9849 13.8536 17.0167 13.8283 17.0621L13.8208 17.0757C13.8065 17.1017 13.7762 17.1568 13.7652 17.1761 13.6702 17.3429 13.5949 17.417 13.5047 17.417 13.4302 17.417 13.4101 17.4016 13.4052 17.3642 13.3989 17.316 13.4169 17.2391 13.4586 17.1293 13.4673 17.1064 13.4768 17.0826 13.489 17.0528 13.5802 16.8293 13.5866 16.8116 13.5866 16.7464 13.5866 16.4053 12.9828 16.4649 12.7101 16.8749 12.6869 16.9098 12.667 16.9326 12.6525 16.9439 12.6385 16.9223 12.6195 16.8673 12.6045 16.7862 12.5704 16.6023 12.5573 16.3253 12.5573 15.9592 12.5573 15.7273 12.4877 15.6046 12.3378 15.6714 12.27 15.7017 12.2675 15.7043 12.0639 15.9252 12.0185 15.9746 11.9844 16.0097 11.9516 16.0403 11.9092 16.0798 11.8725 16.1079 11.8409 16.1245 11.7943 16.1491 11.7765 16.1338 11.7513 16.0255 11.7253 15.9131 11.7167 15.7545 11.7168 15.4903L11.7171 15.3796 11.7175 15.2655C11.7175 15.078 11.6673 14.973 11.5449 14.973 11.503 14.973 11.4609 14.9872 11.4076 15.0143 11.389 15.0238 11.3694 15.0346 11.3433 15.0497L11.3333 15.0555 11.2775 15.0878C11.1646 15.1522 11.0897 15.1814 11.0192 15.1814 11.006 15.1814 10.9983 15.1835 10.9949 15.1844L10.9949 15.1844C10.9935 15.1848 10.9928 15.185 10.9927 15.1848 10.9925 15.1846 10.9931 15.184 10.9942 15.1826 10.9972 15.179 11.0045 15.1703 11.014 15.1515 11.0606 15.06 11.1858 14.9124 11.3871 14.7145L11.2738 14.593C11.0601 14.803 10.9259 14.9612 10.8687 15.0737 10.7896 15.2292 10.8509 15.3496 11.0192 15.3496 11.1256 15.3496 11.2214 15.3123 11.3572 15.2348 11.5142 15.1451 11.522 15.1412 11.5449 15.1412 11.5449 15.1412 11.5535 15.1592 11.5535 15.2655L11.5532 15.3789 11.5529 15.4902C11.5528 15.7679 11.5618 15.9348 11.5919 16.0645 11.6382 16.2641 11.7516 16.3608 11.9158 16.2741 11.9622 16.2497 12.0097 16.2134 12.0618 16.1648zM12.4012 15.8257C12.4024 15.8259 12.4033 15.8259 12.4036 15.8257L12.4012 15.8257zM15.064 17.3723C15.061 17.3703 15.0596 17.3691 15.0595 17.3689 15.0612 17.3758 15.0627 17.38 15.0653 17.3818L15.064 17.3723zM17.9652 16.879 17.9634 16.8794 17.9646 16.8792 17.9652 16.879zM13.8326 19.7503C13.7599 19.9465 13.6452 20.0115 13.5155 19.9134 13.4762 19.8836 13.4379 19.8412 13.3845 19.7726L13.3726 19.7569C13.3441 19.7195 13.2735 19.6266 13.2475 19.5943 13.1358 19.4553 13.0397 19.3683 12.9352 19.3238L12.9256 19.3197 12.9256 19.3197C12.7982 19.2654 12.7709 19.2538 12.744 19.241L12.7147 19.2268C12.5615 19.152 12.474 19.0746 12.3898 18.9296 12.324 18.8162 12.2602 18.6627 12.1522 18.3657L12.3058 18.3069C12.4104 18.5944 12.4715 18.7416 12.5307 18.8435 12.5974 18.9584 12.6599 19.0138 12.7851 19.0749L12.8113 19.0876C12.8369 19.0998 12.863 19.1109 12.9891 19.1646L12.9891 19.1646 12.9981 19.1684C13.1328 19.2259 13.2467 19.3289 13.374 19.4873 13.4024 19.5226 13.4783 19.6224 13.504 19.6563L13.504 19.6563 13.5127 19.6676C13.5575 19.7253 13.5883 19.7595 13.6128 19.778 13.6261 19.7881 13.6269 19.7888 13.6252 19.7898 13.6366 19.7829 13.6568 19.7513 13.6794 19.6905 13.7296 19.5549 13.6855 19.4498 13.5633 19.3404 13.5588 19.3363 13.5463 19.3263 13.5299 19.3132L13.5299 19.3132 13.5299 19.3132 13.5299 19.3132C13.483 19.2756 13.4045 19.2127 13.39 19.1911 13.3434 19.1218 13.3833 19.0515 13.4552 19.0324 13.4876 19.0237 13.5355 19.0205 13.612 19.0205 13.8767 19.0205 13.9495 19.176 13.9986 19.5737L13.9994 19.5802C14.0381 19.8936 14.0772 19.9797 14.211 19.9797 14.3619 19.9797 14.4538 19.9196 14.6142 19.7483L14.6494 19.7107C14.8539 19.4931 14.9971 19.4199 15.2376 19.4865 15.4297 19.5397 15.5118 19.6341 15.5312 19.7806 15.5333 19.797 15.5344 19.8087 15.5365 19.8366 15.5458 19.9601 15.5676 19.9797 15.8067 19.9797 15.988 19.9797 16.1568 19.9894 16.3769 20.0088L16.4035 20.0112C16.4551 20.0159 16.5648 20.0259 16.5978 20.0286 16.6694 20.0345 16.7202 20.0373 16.7604 20.0373 16.789 20.0373 16.8111 20.0358 16.8262 20.0332 16.8324 19.985 16.8608 19.9511 16.9757 19.821 16.989 19.806 16.9992 19.7942 17.0087 19.783 17.0624 19.7196 17.0861 19.6772 17.0846 19.6704 17.0843 19.6691 17.0363 19.6518 16.9066 19.6518 16.7874 19.6518 16.7278 19.637 16.7171 19.5529 16.7081 19.4826 16.7487 19.4487 16.8387 19.4008 16.9419 19.3459 17.1298 19.2746 17.3554 19.2028 17.5725 19.1337 17.8016 19.0715 17.976 19.0349 18.0703 19.0151 18.147 19.0031 18.2029 18.9999 18.3095 18.9939 18.3728 19.0087 18.3728 19.1047 18.3728 19.1447 18.4854 19.2822 18.5976 19.3446 18.7316 19.4191 18.8267 19.3908 18.8924 19.2159 18.9882 18.9605 19.188 18.6847 19.3827 18.5268 19.4872 18.4421 19.5833 18.3965 19.6665 18.404 19.7788 18.4141 19.8375 18.5105 19.8375 18.6561H19.6735C19.6735 18.5878 19.6643 18.5727 19.6522 18.5716 19.6212 18.5688 19.5589 18.5984 19.4844 18.6588 19.3125 18.7982 19.1306 19.0494 19.0454 19.2764 18.942 19.5516 18.736 19.6129 18.5195 19.4925 18.3867 19.4187 18.2599 19.2785 18.221 19.1675 18.1656 19.1705 18.0959 19.1815 18.0088 19.1997 17.8402 19.2351 17.6162 19.2959 17.404 19.3634 17.2634 19.4082 17.1382 19.4527 17.0423 19.4918 17.1593 19.5086 17.227 19.5521 17.2447 19.634 17.2623 19.7158 17.2225 19.787 17.1324 19.8933 17.122 19.9056 17.1111 19.9182 17.0971 19.934 17.0178 20.0238 16.9886 20.0623 16.9886 20.0638 16.9886 20.175 16.9041 20.2056 16.7604 20.2056 16.7149 20.2056 16.6603 20.2025 16.5846 20.1963 16.5508 20.1935 16.4389 20.1833 16.388 20.1787L16.3628 20.1764C16.147 20.1573 15.9825 20.1479 15.8067 20.1479 15.4839 20.1479 15.3892 20.0628 15.373 19.8497 15.3712 19.825 15.3703 19.8153 15.3687 19.8032 15.3583 19.7243 15.3238 19.6846 15.1949 19.6489 15.0267 19.6023 14.9347 19.6494 14.7674 19.8275L14.7325 19.8648C14.5436 20.0665 14.4191 20.1479 14.211 20.1479 13.9756 20.1479 13.8985 20.022 13.8496 19.6964 13.845 19.714 13.8394 19.732 13.8326 19.7503zM13.8463 19.6014 13.8453 19.5948C13.8298 19.4916 13.8138 19.4125 13.7933 19.3528 13.8744 19.4552 13.9026 19.5681 13.862 19.6964 13.8565 19.6664 13.8513 19.6348 13.8463 19.6014zM16.8452 19.4792 16.8491 19.4804 16.8472 19.4796 16.8452 19.4792zM16.842 20.0295 16.8379 20.0309 16.8406 20.0303 16.842 20.0295z" clip-rule="evenodd"/></g></g></svg>