<svg xmlns="http://www.w3.org/2000/svg" fill="none" viewBox="0 0 32 24"><mask id="156_svg__a" width="32" height="24" x="0" y="0" maskUnits="userSpaceOnUse"><path fill="#fff" d="M0 0h32v24H0z"/></mask><g fill-rule="evenodd" clip-rule="evenodd" mask="url(#156_svg__a)"><path fill="#E31D1C" d="M0 0h32v24H0V0z"/><path fill="#FECA00" d="M15.016 4.548l-1.01.61.23-1.19-.841-.89 1.139-.049.482-1.11.482 1.11h1.137l-.84.94.253 1.19-1.032-.61zM7.018 9.607l-2.881 1.551.657-3.026-2.4-2.265 3.25-.123 1.374-2.826 1.374 2.826h3.243L9.24 8.132l.72 3.026-2.943-1.55zm9.998-1.059l-1.01.61.23-1.19-.841-.89 1.139-.049.482-1.11.482 1.11h1.137l-.84.94.253 1.19-1.032-.61zm-1 4l-1.01.61.23-1.19-.841-.89 1.139-.049.482-1.11.482 1.11h1.137l-.84.94.253 1.19-1.032-.61zm-3 3l-1.01.61.23-1.19-.841-.89 1.139-.049.482-1.11.482 1.11h1.137l-.84.94.253 1.19-1.032-.61z"/></g></svg>