<svg width="32" height="24" fill="none" xmlns="http://www.w3.org/2000/svg">
  <mask id="a" maskUnits="userSpaceOnUse" x="0" y="0" width="32" height="24">
    <path fill="#fff" d="M0 0h32v24H0z"/>
  </mask>
  <g mask="url(#a)">
    <path fill-rule="evenodd" clip-rule="evenodd" d="M0 0h32v24H0V0z" fill="#F7FCFF"/>
    <path fill-rule="evenodd" clip-rule="evenodd" d="M0 0h14v24H0V0z" fill="#FFDC17"/>
    <path d="M22.782 12.751l-.346.023c.083 1.185.338 2.101.77 2.748.697 1.042 1.617 1.848 2.233 1.848.14 0 .172.052.126.18-.066.183-.273.362-.54.43-.444.115-1.453.174-3.01.174v.335c1.588 0 2.616-.06 3.1-.185.375-.096.673-.354.777-.643.12-.335-.061-.626-.453-.626-.457 0-1.306-.743-1.943-1.695-.396-.592-.636-1.455-.714-2.589zm-1.635 0l.345.023c-.082 1.185-.337 2.101-.77 2.748-.697 1.042-1.617 1.848-2.232 1.848-.14 0-.173.052-.127.18.066.183.274.362.54.43.444.115 1.453.174 3.011.174v.335c-1.589 0-2.616-.06-3.1-.185-.375-.096-.673-.354-.777-.643-.12-.335.061-.626.453-.626.457 0 1.305-.743 1.942-1.695.396-.592.636-1.455.715-2.589z" fill="#AF0100"/>
    <path fill-rule="evenodd" clip-rule="evenodd" d="M28.067 6.798l-9.142 7.126a3.34 3.34 0 00-1.033-.161c-1.483 0-2.724.947-2.724 2.177 0 1.229 1.24 2.176 2.724 2.176.17 0 .337-.012.5-.036a.958.958 0 01-.319-.42c-.067-.187-.04-.36.066-.477-.08.008-.163.012-.247.012-1 0-1.773-.59-1.773-1.255 0-.667.772-1.256 1.773-1.256 1 0 1.773.59 1.773 1.256 0 .203-.072.4-.201.575a4.38 4.38 0 00.073-.067c.317-.295-.395.922-1.011.922-.14 0-.172.052-.126.18.061.171.247.34.49.416 1.002-.313 1.726-1.088 1.726-2.026 0-.384-.12-.741-.333-1.05l4.913-4.17.329.34.237-.214.82.608-.343.264.7.852 1.414-1.09.024-.012-.005-.003.088-.067-.7-.852-.339.261-.918-.634.108-.098-.295-.305.444-.376.235.243.253-.23.796.63-.335.258.7.851 1.211-.933.139-.075-.02-.016.191-.148-.7-.85-.396.304-.871-.669.118-.107-.202-.209.905-.767-.717-.878z" fill="#F4B300"/>
    <path fill-rule="evenodd" clip-rule="evenodd" d="M15.687 14.726c.262 0 .475-.17.475-.377 0-.208-.213-.377-.475-.377-.263 0-.476.169-.476.377s.213.377.476.377zm.173 3.432c.262 0 .475-.169.475-.377s-.213-.376-.476-.376c-.262 0-.475.168-.475.376 0 .209.213.377.476.377zm4.713-.377c0 .209-.213.377-.476.377-.262 0-.475-.169-.475-.377s.213-.376.475-.376c.263 0 .476.168.476.376zm2.811-1.841c0-.553.25-1.049.661-1.427l-5.25-4.065-.06.046.154.139-.414.427-.218-.197-.804.619.308.236-.7.852-1.399-1.078-.039-.024.005-.003-.088-.067.7-.852.339.261.918-.634-.108-.098.397-.41-.463-.357-.318.33-.244-.222-.785.636.315.243-.7.851-1.173-.903-.177-.106.02-.015-.191-.148.7-.851.396.305.871-.669-.118-.107.239-.247-.942-.73.595-.718 9.081 7.033a3.305 3.305 0 011.216-.227c1.483 0 2.724.947 2.724 2.177 0 1.229-1.24 2.176-2.724 2.176-.17 0-.337-.012-.5-.036a.958.958 0 00.319-.42c.067-.187.04-.36-.066-.477.08.008.163.012.247.012 1 0 1.773-.59 1.773-1.255 0-.667-.772-1.256-1.773-1.256-1 0-1.773.59-1.773 1.256 0 .203.072.4.201.575a4.38 4.38 0 01-.073-.067c-.317-.295.395.922 1.011.922.14 0 .172.052.126.18-.061.171-.247.34-.49.416-1.002-.313-1.726-1.088-1.726-2.027z" fill="#BFBFBF"/>
    <path fill-rule="evenodd" clip-rule="evenodd" d="M28.314 14.726c-.263 0-.476-.17-.476-.377 0-.208.213-.377.476-.377.262 0 .475.169.475.377s-.213.377-.476.377zm-.174 3.432c-.262 0-.475-.169-.475-.377s.213-.376.476-.376c.262 0 .475.168.475.376 0 .209-.213.377-.476.377zm-4.713-.377c0 .209.213.377.476.377.262 0 .475-.169.475-.377s-.213-.376-.475-.376c-.263 0-.476.168-.476.376z" fill="#F4B300"/>
    <path fill-rule="evenodd" clip-rule="evenodd" d="M21.74 11.795a.13.13 0 00-.13.13v.54h-.479a.126.126 0 100 .251h.48v7.154c0 .072.058.13.13.13H22a.13.13 0 00.13-.13v-7.154h.739a.126.126 0 000-.25h-.74v-.54a.13.13 0 00-.129-.13h-.26z" fill="#AF0100"/>
    <path fill-rule="evenodd" clip-rule="evenodd" d="M16.755 7.594l.211.145c.493-.674.938-.809 1.389-.455.78.61.847 2.1.013 2.598-.994.594-1.498 1.754-1.057 2.385.407.583 1.388.362 2.356-.37a5.83 5.83 0 00.49-.413l-.205-.158a5.55 5.55 0 01-.445.374c-.863.652-1.693.839-1.981.427-.344-.492.096-1.503.979-2.032.999-.597.922-2.295.013-3.007-.586-.459-1.193-.274-1.764.506zm3.808 3.051l.21.146c.368-.495.619-1.032.702-1.56l-.257-.038c-.076.487-.31.987-.655 1.452zm6.707-3.051l-.212.145c-.494-.674-.938-.809-1.39-.455-.779.61-.846 2.1-.012 2.598.994.594 1.498 1.754 1.057 2.385-.407.583-1.388.362-2.356-.37a5.83 5.83 0 01-.49-.413l.205-.158c.14.13.289.256.445.374.863.652 1.693.839 1.981.427.344-.492-.096-1.503-.979-2.032-.999-.597-.922-2.295-.013-3.007.586-.459 1.193-.274 1.763.506zm-3.808 3.051l-.212.146c-.367-.495-.618-1.032-.701-1.56l.256-.038c.077.487.312.987.657 1.452z" fill="#979797"/>
    <path fill-rule="evenodd" clip-rule="evenodd" d="M21.87 20.017c.287 0 .52-.117.52-.26 0-.143-.233-.26-.52-.26-.286 0-.519.117-.519.26 0 .143.233.26.52.26zM21.784 9.22c1.003 0 1.816-.136 1.816-.303 0-.168-.813-.303-1.816-.303-1.003 0-1.816.135-1.816.303 0 .167.813.302 1.816.302z" fill="#AF0100"/>
    <path fill-rule="evenodd" clip-rule="evenodd" d="M21.886 2.038h-.26v.3h-.245v.25h.246v.734h.259v-.733h.3v-.251h-.3v-.3zm-1.95 3.619l-.117-.195a3.76 3.76 0 01.195-.076l-.338-.74.237-.101.348.762a4.53 4.53 0 01.225-.059.353.353 0 01-.086-.234c0-.185.136-.335.303-.335.167 0 .302.15.302.335 0 .052-.01.102-.03.146a5.96 5.96 0 01.644-.051v-.284h-.325v-.202h.325v-.24h.343v.24h.396v.202h-.396v.282c.255.004.494.022.717.053a.362.362 0 01-.03-.146c0-.185.135-.335.302-.335.168 0 .303.15.303.335 0 .095-.036.18-.093.241.097.025.19.054.279.085l.248-.544.238.101-.247.54.058.028-.13.188-.021-.01-.04.088-.238-.102.04-.085c-.38-.136-.84-.21-1.386-.219v.09h-.343v-.088c-.646.02-1.208.13-1.684.33zm-.117.223l.06.102-.203.087.338.74c-.067.024-.131.05-.195.076l.116.195c.476-.2 1.038-.31 1.684-.33v.088h.343v-.09c.545.01 1.007.084 1.385.22l-.039.084.238.102.04-.088.02.01.131-.188a2.699 2.699 0 00-.058-.027l.247-.54-.238-.102-.248.545a3.369 3.369 0 00-.279-.086.352.352 0 00.093-.24c0-.186-.136-.336-.303-.336-.167 0-.302.15-.302.335 0 .053.01.102.03.147a5.932 5.932 0 00-.717-.054v-.282h.396v-.202h-.396v-.24h-.343v.24h-.325v.202h.325v.284a6.3 6.3 0 00-.644.05.362.362 0 00.03-.145c0-.185-.135-.335-.302-.335-.168 0-.303.15-.303.335 0 .091.033.174.086.234a4.53 4.53 0 00-.225.059l-.303-.664c.524-.215 1.149-.324 1.876-.324.736 0 1.326.111 1.773.33l.13-.188c-.49-.24-1.125-.36-1.903-.36-.776 0-1.448.119-2.015.356zm0 1.423l.06.102-.203.088.338.74c-.067.023-.131.049-.195.075l.116.195c.476-.2 1.038-.31 1.684-.33v.088h.343v-.09c.545.01 1.007.084 1.385.22l-.039.085.238.101.04-.087.02.01.131-.188a2.748 2.748 0 00-.058-.028l.247-.54-.238-.102-.248.545a3.369 3.369 0 00-.279-.085.352.352 0 00.093-.242c0-.184-.136-.334-.303-.334-.167 0-.302.15-.302.334 0 .053.01.103.03.147a5.93 5.93 0 00-.717-.054v-.281h.396V7.47h-.396v-.24h-.343v.24h-.325v.202h.325v.283a6.298 6.298 0 00-.644.051.362.362 0 00.03-.146c0-.184-.135-.334-.302-.334-.168 0-.303.15-.303.334 0 .092.033.174.086.235a4.53 4.53 0 00-.225.058l-.303-.664c.524-.215 1.149-.323 1.876-.323.736 0 1.326.11 1.773.33l.13-.19c-.49-.24-1.125-.358-1.903-.358-.776 0-1.448.118-2.015.355zm0 1.424l.116.195c.528-.222 1.16-.333 1.899-.333.736 0 1.326.11 1.773.33l.13-.189c-.49-.24-1.125-.359-1.903-.359-.776 0-1.448.118-2.015.356z" fill="#F4B300"/>
  </g>
</svg>
