<svg width="32" height="24" fill="none" xmlns="http://www.w3.org/2000/svg">
  <mask id="a" maskUnits="userSpaceOnUse" x="0" y="0" width="32" height="24">
    <path fill="#fff" d="M0 0h32v24H0z"/>
  </mask>
  <g mask="url(#a)">
    <path fill-rule="evenodd" clip-rule="evenodd" d="M0 0v24h32V0H0z" fill="#F7FCFF"/>
    <mask id="b" maskUnits="userSpaceOnUse" x="0" y="0" width="32" height="24">
      <path fill-rule="evenodd" clip-rule="evenodd" d="M0 0v24h32V0H0z" fill="#fff"/>
    </mask>
    <g mask="url(#b)" fill-rule="evenodd" clip-rule="evenodd">
      <path d="M0 0v8h32V0H0z" fill="#5EAA22"/>
      <path d="M0 16v8h32v-8H0z" fill="#E31D1C"/>
      <path d="M4.6 16.392v.634H2.27v-.634H4.6zM.567 17.984H.359v-.253h.454v.887h.58v.007h.561v-1.842h-.358v1.208H1.54v-1.304h-.358v1.297h-.01v-1.297H.813v.41H0v1.521h.566v-.634zm1.5.355h.36v-.628h.4v.914H3.95v-1.547h-.577v.634h.218v.279h-.408v-.914H2.067v1.262zm2.292-.355h.207v.634H4v-1.521h.814v-.41h.359v1.297h.01v-1.297h.358v1.304h.055v-1.208h.36v1.842h-.562v-.007h-.58v-.887h-.455v.253zM8.6 16.392v.634H6.27v-.634H8.6zM6.066 18.34h.359v-.629h.4v.914H7.95v-1.547h-.577v.634h.219v.279h-.408v-.914H6.066v1.262zm2.364-.356h.207v.634H8.07v-1.521h.814v-.41h.36v1.297h.008v-1.297h.36v1.304h.055v-1.208h.358v1.842h-.561v-.007h-.58v-.887H8.43v.253zm4.242-1.592v.634H10.34v-.634h2.33zm-2.535 1.948h.36v-.629h.4v.914h1.125v-1.547h-.578v.634h.219v.279h-.408v-.914h-1.118v1.262zm2.292-.356h.207v.634h-.566v-1.521h.814v-.41h.359v1.297h.01v-1.297h.358v1.304h.055v-1.208h.36v1.842h-.562v-.007h-.58v-.887h-.455v.253zm4.242-1.592v.634h-2.33v-.634h2.33zm-2.534 1.948h.359v-.629h.4v.914h1.125v-1.547h-.577v.634h.219v.279h-.408v-.914h-1.118v1.262zm2.292-.356h.207v.634h-.566v-1.521h.814v-.41h.359v1.297h.009v-1.297h.359v1.304h.055v-1.208h.359v1.842h-.562v-.007h-.58v-.887h-.454v.253zm4.242-1.592v.634h-2.33v-.634h2.33zm-2.534 1.948h.359v-.629h.4v.914h1.125v-1.547h-.577v.634h.218v.279h-.408v-.914h-1.117v1.262zm2.363-.356h.207v.634h-.566v-1.521h.814v-.41h.359v1.297h.01v-1.297h.358v1.304h.055v-1.208h.359v1.842h-.561v-.007h-.58v-.887H20.5v.253zm4.242-1.592v.634h-2.33v-.634h2.33zm-2.534 1.948h.359v-.629h.4v.914h1.125v-1.547h-.577v.634h.219v.279h-.408v-.914h-1.118v1.262zm2.364-.356h.207v.634h-.567v-1.521h.814v-.41h.359v1.297h.01v-1.297h.358v1.304h.055v-1.208h.36v1.842h-.562v-.007h-.58v-.887h-.454v.253zm4.242-1.592v.634h-2.331v-.634h2.33zm-2.535 1.948h.36v-.629h.4v.914h1.124v-1.547h-.577v.634h.219v.279h-.408v-.914h-1.118v1.262zm2.364-.356h.207v.634h-.566v-1.521h.813v-.41h.36v1.297h.008v-1.297h.36v1.304h.055v-1.208h.358v1.842h-.561v-.007h-.58v-.887h-.454v.253zm4.242-1.592v.634h-2.331v-.634h2.33zM30.35 18.34h.358v-.629h.4v.914h1.126v-1.547h-.577v.634h.218v.279h-.408v-.914H30.35v1.262zm2.291-.356h.207v.634h-.565v-1.521h.814v-.41h.359v1.297h.01v-1.297h.358v1.304h.055v-1.208h.36v1.842h-.562v-.007h-.58v-.887h-.455v.253zm4.242-1.592v.634h-2.33v-.634h2.33zM34.35 18.34h.359v-.629h.4v.914h1.125v-1.547h-.577v.634h.219v.279h-.408v-.914H34.35v1.262zm2.506-.356h.207v.634h-.566v-1.521h.814v-.41h.359v1.297h.01v-1.297h.358v1.304h.055v-1.208h.36v1.842h-.562v-.007h-.58v-.887h-.455v.253zm4.242-1.592v.634h-2.33v-.634h2.33zm-2.534 1.948h.36v-.629h.4v.914h1.125v-1.547h-.578v.634h.219v.279h-.408v-.914h-1.118v1.262zM.485 5.392v.634h-2.331v-.634h2.33zM-3.55 6.984h-.207v-.253h.454v.887h.58v.007h.561V5.783h-.358v1.208h-.056V5.687h-.359v1.297h-.009V5.687h-.359v.41h-.813v1.521h.566v-.634zm1.5.355h.36v-.628h.4v.914h1.125V6.078h-.578v.634h.219v.279h-.408v-.914H-2.05V7.34zm2.292-.355H.45v.634h-.567V6.097h.814v-.41h.359v1.297h.01V5.687h.358v1.304h.055V5.783h.359v1.842h-.561v-.007h-.58v-.887H.242v.253zm4.242-1.592v.634h-2.33v-.634h2.33zM1.95 7.339h.359v-.628h.4v.914h1.125V6.078h-.577v.634h.219v.279h-.408v-.914H1.95V7.34zm2.364-.355h.207v.634h-.567V6.097h.814v-.41h.359v1.297h.01V5.687h.358v1.304h.055V5.783h.36v1.842h-.562v-.007h-.58v-.887h-.454v.253zm4.242-1.592v.634H6.225v-.634h2.33zM6.02 7.339h.36v-.628h.4v.914h1.125V6.078h-.578v.634h.219v.279h-.408v-.914H6.02V7.34zm2.292-.355h.207v.634h-.565V6.097h.814v-.41h.359v1.297h.01V5.687h.358v1.304h.055V5.783h.359v1.842h-.561v-.007h-.58v-.887h-.455v.253zm4.242-1.592v.634h-2.33v-.634h2.33zM10.02 7.339h.359v-.628h.4v.914h1.125V6.078h-.577v.634h.219v.279h-.408v-.914H10.02V7.34zm2.292-.355h.207v.634h-.565V6.097h.814v-.41h.358v1.297h.01V5.687h.359v1.304h.055V5.783h.359v1.842h-.562v-.007h-.58v-.887h-.454v.253zm4.242-1.592v.634h-2.33v-.634h2.33zM14.02 7.339h.359v-.628h.4v.914h1.125V6.078h-.577v.634h.218v.279h-.408v-.914H14.02V7.34zm2.363-.355h.207v.634h-.565V6.097h.814v-.41h.359v1.297h.01V5.687h.358v1.304h.055V5.783h.359v1.842h-.561v-.007h-.58v-.887h-.455v.253zm4.242-1.592v.634h-2.33v-.634h2.33zm-2.534 1.947h.359v-.628h.4v.914h1.125V6.078H19.4v.634h.218v.279h-.408v-.914h-1.117V7.34zm2.364-.355h.206v.634h-.565V6.097h.814v-.41h.359v1.297h.01V5.687h.358v1.304h.055V5.783h.36v1.842h-.562v-.007h-.58v-.887h-.454v.253zm4.241-1.592v.634h-2.33v-.634h2.33zm-2.534 1.947h.359v-.628h.4v.914h1.125V6.078h-.577v.634h.219v.279h-.408v-.914h-1.118V7.34zm2.364-.355h.207v.634h-.567V6.097h.814v-.41h.36v1.297h.008V5.687h.36v1.304h.055V5.783h.358v1.842h-.561v-.007h-.58v-.887h-.454v.253zm4.242-1.592v.634h-2.331v-.634h2.33zm-2.534 1.947h.358v-.628h.4v.914h1.126V6.078h-.578v.634h.219v.279h-.408v-.914h-1.117V7.34zm2.291-.355h.207v.634h-.565V6.097h.814v-.41h.359v1.297h.01V5.687h.358v1.304h.055V5.783h.36v1.842h-.562v-.007h-.58v-.887h-.455v.253zm4.242-1.592v.634h-2.33v-.634h2.33zm-2.534 1.947h.359v-.628h.4v.914h1.125V6.078h-.577v.634h.219v.279h-.408v-.914h-1.118V7.34zm2.506-.355h.207v.634h-.565V6.097h.814v-.41h.359v1.297h.01V5.687h.358v1.304h.055V5.783h.36v1.842h-.562v-.007h-.58v-.887h-.455v.253zm4.242-1.592v.634h-2.33v-.634h2.33zm-2.534 1.947h.359v-.628h.4v.914h1.125V6.078h-.577v.634h.219v.279h-.408v-.914h-1.118V7.34z" fill="#F7FCFF"/>
      <path d="M14.606 8.25s.428.225.865.225.878-.225.878-.225v.3s-.481.225-.906.225c-.426 0-.837-.225-.837-.225v-.3zm-3.15 3.54c0-1.777 2.442-2.94 2.442-2.94s-1.411.756-1.411 2.866c0 2.11.733 3.024.733 3.024s-1.764-1.171-1.764-2.95zm8.238-.097c0-1.779-2.44-2.843-2.44-2.843s1.412.756 1.412 2.866c0 2.11-.733 3.024-.733 3.024s1.761-1.27 1.761-3.047zm-6.57.485c-.094-1.776 1.383-3.367 1.383-3.367s-.537.73-.427 2.838c.038.723.323 1.8.682 2.434V8.925h1.5v5.203c.36-.593.637-1.603.675-2.337.11-2.107-.401-2.98-.401-2.98s1.477 1.591 1.384 3.367c-.056 1.057-.87 2.175-1.518 2.907.315.07.738.156 1.319.27.012.065-.117.062-.375.056a8.227 8.227 0 00-1.3.056c-.265.272-.45.433-.45.433l-.074-.094-.075.094s-.184-.16-.45-.433a8.228 8.228 0 00-1.3-.056c-.257.006-.387.01-.375-.055.582-.115 1.004-.2 1.32-.27-.65-.733-1.463-1.85-1.518-2.908z" fill="#E31D1C"/>
    </g>
  </g>
</svg>
