<svg xmlns="http://www.w3.org/2000/svg" fill="none" viewBox="0 0 32 24"><mask id="462_svg__a" width="32" height="24" x="0" y="0" mask-type="alpha" maskUnits="userSpaceOnUse"><path fill="#fff" d="M0 0H32V24H0z"/></mask><g mask="url(#462_svg__a)"><path fill="#C51918" fill-rule="evenodd" d="M0 0H32V22C32 23.1046 31.1046 24 30 24H2C0.895431 24 0 23.1046 0 22V0Z" clip-rule="evenodd"/><path fill="#C51918" fill-rule="evenodd" d="M0 0H32V24H0V0Z" clip-rule="evenodd"/><path fill="#579D20" fill-rule="evenodd" d="M6 6H26V18H6V6Z" clip-rule="evenodd"/><path stroke="#B6EB9A" stroke-opacity=".238" stroke-width="2" d="M7 7H25V17H7V7Z"/><mask id="462_svg__b" width="20" height="12" x="6" y="6" mask-type="alpha" maskUnits="userSpaceOnUse"><path fill="#fff" fill-rule="evenodd" d="M6 6H26V18H6V6Z" clip-rule="evenodd"/><path stroke="#fff" stroke-width="2" d="M7 7H25V17H7V7Z"/></mask><g mask="url(#462_svg__b)"><path fill="#F9FAFA" fill-rule="evenodd" d="M16.033 12.4625C16.016 15.5282 18.4294 17.1628 18.4294 17.1628C15.6755 17.4861 13.8433 14.9895 13.8433 12.4924C13.8433 9.99528 16.3409 7.93254 18.4294 7.0011C18.4294 7.0011 16.05 9.39684 16.033 12.4625Z" clip-rule="evenodd"/></g></g></svg>