<svg xmlns="http://www.w3.org/2000/svg" fill="none" viewBox="0 0 32 24"><path fill="#fff" d="M0 0h32v24H0z"/><path fill="#C51918" stroke="#4857A1" d="M11.616 12.32l9.317 11.18H.5V.842L20.04 11.5h-9.109l.684.82z"/><mask id="524_svg__a" width="22" height="24" x="0" y="0" maskUnits="userSpaceOnUse"><path fill="#fff" stroke="#fff" d="M11.616 12.32l9.317 11.18H.5V.842L20.04 11.5h-9.109l.684.82z"/></mask><g fill-rule="evenodd" clip-rule="evenodd" mask="url(#524_svg__a)"><path fill="#F7FCFF" d="M5.83 20.01L4.604 21.6l-.056-2.006-1.926.566 1.134-1.657-1.891-.673 1.89-.674-1.133-1.657 1.926.566.056-2.006 1.226 1.59 1.225-1.59.056 2.007 1.926-.567-1.134 1.657 1.891.674-1.89.674 1.133 1.656-1.926-.566-.056 2.006-1.225-1.59zM5.8 8.139l-.64.83-.03-1.048-1.005.296.592-.865L3.73 7l.987-.352-.592-.865 1.006.296.03-1.048.64.83.639-.83.03 1.048 1.005-.296-.592.865.988.352-.988.352.592.865-1.006-.296-.03 1.048-.639-.83z"/><path fill="#F9FAFA" d="M5.666 7.894C7.892 7.903 9.08 6.64 9.08 6.64c.235 1.441-1.578 2.4-3.391 2.4-1.814 0-2.912-1.307-3.588-2.4 0 0 1.34 1.245 3.566 1.254z"/></g></svg>