<svg width="32" height="24" fill="none" xmlns="http://www.w3.org/2000/svg">
  <mask id="a" maskUnits="userSpaceOnUse" x="0" y="0" width="32" height="24">
    <path fill="#fff" d="M0 0h32v24H0z"/>
  </mask>
  <g mask="url(#a)">
    <path fill-rule="evenodd" clip-rule="evenodd" d="M0 0v24h32V0H0z" fill="#2E42A5"/>
    <mask id="b" maskUnits="userSpaceOnUse" x="0" y="0" width="32" height="24">
      <path fill-rule="evenodd" clip-rule="evenodd" d="M0 0v24h32V0H0z" fill="#fff"/>
    </mask>
    <g mask="url(#b)" fill-rule="evenodd" clip-rule="evenodd">
      <path d="M4.254 6.15L2.266 7.198l.96-1.868L2 3.963l1.523-.056L4.254 2l.558 1.907 1.783.056-1.284 1.368.815 1.868-1.872-1.05zm7.098 4.926l-2.454 1.029.963-2.577L7.726 7.8h2.558l1.068-2.787.816 2.787h2.56l-1.82 1.73.905 2.576-2.46-1.029z" fill="#F7FCFF"/>
      <path d="M0 14v4h32v-4H0z" fill="#F9E813"/>
    </g>
  </g>
</svg>
