<svg width="32" height="24" fill="none" xmlns="http://www.w3.org/2000/svg">
  <mask id="a" maskUnits="userSpaceOnUse" x="0" y="0" width="32" height="24">
    <path fill="#fff" d="M0 0h32v24H0z"/>
  </mask>
  <g mask="url(#a)">
    <path fill-rule="evenodd" clip-rule="evenodd" d="M0 0v24h32V0H0z" fill="#2E42A5"/>
    <mask id="b" maskUnits="userSpaceOnUse" x="0" y="0" width="32" height="24">
      <path fill-rule="evenodd" clip-rule="evenodd" d="M0 0v24h32V0H0z" fill="#fff"/>
    </mask>
    <g mask="url(#b)">
      <path fill-rule="evenodd" clip-rule="evenodd" d="M21.047 10.033s.886 11.931 4.882 11.931c3.995 0 4.978-11.931 4.978-11.931h-9.86z" fill="#FECA00" stroke="#F7FCFF" stroke-width=".5"/>
      <path fill-rule="evenodd" clip-rule="evenodd" d="M25.911 10.622l.147-.165.694.442c.1-.157.28-.23.53-.217l-.253-.386.206-.11.48.579.048.015-.122-.752.241-.028.158.974h.012a.43.43 0 01.223.085L28.447 10l.241.028-.122.752.048-.015.48-.579.206.11-.253.386c.25-.012.43.06.53.217l.694-.442.147.165-.762.485c.01.055.016.115.016.18v.113l1.05-.23.078.195-1.128.4v.136l1.07-.087.032.205-1.102.16v.236l1.104.183-.044.203-1.06-.159v2.299h-.163v-2.323l-.71-.106c-.08.562-.17 1.27-.158 1.526.013.253.202.361.334.438.103.059.172.098.098.171-.17.167-.596.327-1.021.327-.426 0-.846-.16-.937-.327-.016-.03-.014-.027 0-.01.068.077.4.457.426-.599a5.787 5.787 0 00-.169-1.502l-.552.082v2.323h-.163v-2.299l-1.06.159-.045-.203 1.105-.183v-.236l-1.102-.16.032-.205 1.07.087v-.136l-1.128-.4.077-.196 1.051.23v-.112a.92.92 0 01.016-.18l-.762-.485zm1.39 1.651l.01.034-.491.081v-.185l.482.07zm.011-.759l-.022.024-.47-.103v-.148c0-.03 0-.058.003-.084l.49.311zm.313-.31a3.033 3.033 0 00-.16.15l-.581-.371c.082-.142.242-.193.493-.156l.248.378zm1.07.257l.75-.478c-.082-.142-.243-.193-.493-.156l-.348.53a3.6 3.6 0 01.09.104zm.253.097l.558-.355a.989.989 0 01.003.084v.148l-.561.123zm.224.383l.337-.119v.092l-.337.027zm-.259.349l.596-.087v.185l-.596-.098zm-2.093-.468v.092l.336.027-.336-.119z" fill="#CF6900"/>
      <path fill-rule="evenodd" clip-rule="evenodd" d="M24.878 15.843s-1.314 2.2-1.314 3.533c0 0 .895.71 2.435.71s2.332-.71 2.332-.71c-.433-1.58-1.171-3.533-1.171-3.533h-2.282z" fill="#00A727"/>
      <path fill-rule="evenodd" clip-rule="evenodd" d="M24.942 15.235a1.097 1.097 0 012.194 0v.75h-2.194v-.75z" fill="#E31D1C"/>
      <path fill-rule="evenodd" clip-rule="evenodd" d="M21.52 12.834s1.733.357 1.733.92c0 .563.698.766.87.614.171-.152 1.38-.259 1.38-.993s.1-.934-.193-1.4c-.294-.466-.906-2.042-1.046-1.41-.141.63-.353 1.098-.745.722-.391-.377-.894-1.173-1.07-.723-.177.45.559.903 0 .903-.56 0-.166.03-.166.41 0 .382.066.741-.349.741s-.415.216-.415.216z" fill="#FF927F"/>
      <path fill="#2B409A" d="M0 0h18v14H0z"/>
      <mask id="c" maskUnits="userSpaceOnUse" x="0" y="0" width="18" height="14">
        <path fill="#fff" d="M0 0h18v14H0z"/>
      </mask>
      <g mask="url(#c)">
        <path d="M-2.004 13l3.96 1.737L18.09 1.889l2.09-2.582-4.236-.58-6.58 5.536-5.297 3.73L-2.004 13z" fill="#F7FCFF"/>
        <path d="M-1.462 14.217l2.018 1.008L19.429-.933h-2.833l-18.058 15.15z" fill="#F50100"/>
        <path d="M20.004 13l-3.96 1.737L-.09 1.889-2.18-.693l4.236-.58 6.58 5.536 5.297 3.73L20.004 13z" fill="#F7FCFF"/>
        <path d="M19.87 13.873l-2.019 1.009-8.036-6.918-2.383-.773L-2.38-.684H.453l9.807 7.688 2.605.927 7.004 5.942z" fill="#F50100"/>
        <mask id="d" maskUnits="userSpaceOnUse" x="-2" y="-2" width="22" height="18" fill="#000">
          <path fill="#fff" d="M-2-2h22v18H-2z"/>
          <path fill-rule="evenodd" clip-rule="evenodd" d="M9.985 0h-2v6H0v2h7.985v6h2V8H18V6H9.985V0z"/>
        </mask>
        <path fill-rule="evenodd" clip-rule="evenodd" d="M9.985 0h-2v6H0v2h7.985v6h2V8H18V6H9.985V0z" fill="#F50100"/>
        <path d="M7.985 0v-1.5h-1.5V0h1.5zm2 0h1.5v-1.5h-1.5V0zm-2 6v1.5h1.5V6h-1.5zM0 6V4.5h-1.5V6H0zm0 2h-1.5v1.5H0V8zm7.985 0h1.5V6.5h-1.5V8zm0 6h-1.5v1.5h1.5V14zm2 0v1.5h1.5V14h-1.5zm0-6V6.5h-1.5V8h1.5zM18 8v1.5h1.5V8H18zm0-2h1.5V4.5H18V6zM9.985 6h-1.5v1.5h1.5V6zm-2-4.5h2v-3h-2v3zm1.5 4.5V0h-3v6h3zM0 7.5h7.985v-3H0v3zm1.5.5V6h-3v2h3zm6.485-1.5H0v3h7.985v-3zm1.5 7.5V8h-3v6h3zm.5-1.5h-2v3h2v-3zM8.485 8v6h3V8h-3zM18 6.5H9.985v3H18v-3zM16.5 6v2h3V6h-3zM9.985 7.5H18v-3H9.985v3zM8.485 0v6h3V0h-3z" fill="#F7FCFF" mask="url(#d)"/>
      </g>
    </g>
  </g>
</svg>
