<svg width="32" height="24" fill="none" xmlns="http://www.w3.org/2000/svg">
  <mask id="a" maskUnits="userSpaceOnUse" x="0" y="0" width="32" height="24">
    <path fill="#fff" d="M0 0h32v24H0z"/>
  </mask>
  <g mask="url(#a)">
    <path fill-rule="evenodd" clip-rule="evenodd" d="M22 0h10v24H22V0z" fill="#67BD38"/>
    <path fill-rule="evenodd" clip-rule="evenodd" d="M10 0h12v24H10V0z" fill="#D51700"/>
    <path fill-rule="evenodd" clip-rule="evenodd" d="M0 0h10v24H0V0z" fill="#272727"/>
    <path fill-rule="evenodd" clip-rule="evenodd" d="M12.488 7.977l.346.217c-.577.97-.964 1.86-1.165 2.668a.946.946 0 01.193.24c.156.272.288.535.394.79l-.46.196a6.128 6.128 0 00-.255-.533 4.17 4.17 0 00.01 1.118.937.937 0 01.236.056c.294.107.564.224.81.35l-.227.446a6.55 6.55 0 00-.69-.303l.005.015c.213.646.54 1.24.982 1.784a.95.95 0 01.208-.021c.313 0 .607.018.881.053l-.06.496a6.134 6.134 0 00-.593-.046c.397.397.863.763 1.398 1.099l-.211.355a8.05 8.05 0 01-1.694-1.39 6.55 6.55 0 00-.228.096l-.036.015c.406.426.886.817 1.441 1.175l-.215.353a8.147 8.147 0 01-1.645-1.376 1.094 1.094 0 01-.616-.009l.134-.48a.671.671 0 00.095.02 6.21 6.21 0 01-.955-1.841 3.993 3.993 0 01-.097-.359 1.066 1.066 0 01-.45-.2l.289-.406a.89.89 0 00.076.049c-.052-.613.02-1.274.214-1.984a1.069 1.069 0 01-.242-.473l.425-.11a12.53 12.53 0 01.97-2.058l.35.213c-.457.789-.794 1.526-1.015 2.211.062.056.138.117.23.185.222-.806.611-1.676 1.167-2.611zm-1.29 3.141a8.052 8.052 0 00-.255-.191c-.154.636-.2 1.223-.137 1.763.074 0 .158-.003.256-.01l.079-.004a4.853 4.853 0 01.057-1.558zm-.115 2.06a9.82 9.82 0 01.157-.009c.019.068.039.136.06.202.215.649.535 1.247.96 1.796l-.083.036a6.44 6.44 0 01-.193.08 5.818 5.818 0 01-1.028-1.894 3.498 3.498 0 01-.059-.202l.186-.009zm8.416-5.201l-.346.217c.577.97.964 1.86 1.164 2.668a.946.946 0 00-.192.24 6.925 6.925 0 00-.395.79l.46.196a6.38 6.38 0 01.255-.533 4.17 4.17 0 01-.009 1.118.937.937 0 00-.236.056 6.927 6.927 0 00-.81.35l.227.446c.21-.108.44-.209.69-.303l-.005.015a5.591 5.591 0 01-.982 1.784.95.95 0 00-.209-.021 6.95 6.95 0 00-.88.053l.06.496c.187-.024.384-.04.592-.046a7.874 7.874 0 01-1.397 1.099l.211.355a8.05 8.05 0 001.694-1.39c.06.024.134.055.228.096l.035.015a7.871 7.871 0 01-1.44 1.175l.215.353a8.147 8.147 0 001.645-1.376c.217.055.4.054.615-.009l-.133-.48a.671.671 0 01-.096.02 6.21 6.21 0 00.956-1.841c.038-.117.07-.237.097-.359a1.05 1.05 0 00.45-.2l-.29-.406a.671.671 0 01-.075.049c.051-.613-.02-1.274-.214-1.984.121-.14.196-.285.241-.473l-.424-.11a12.422 12.422 0 00-.971-2.058l-.349.213c.456.789.794 1.526 1.014 2.211a3.028 3.028 0 01-.23.185c-.221-.806-.61-1.676-1.166-2.611zm1.29 3.141a8.052 8.052 0 01.255-.191c.154.636.2 1.223.137 1.763-.074 0-.159-.003-.256-.01l-.08-.004a4.856 4.856 0 00-.056-1.558zm.114 2.06a9.82 9.82 0 00-.157-.009 5.991 5.991 0 01-1.02 1.998l.083.036c.071.03.135.057.194.08a5.818 5.818 0 001.028-1.894c.021-.066.041-.134.059-.202a5.139 5.139 0 01-.186-.009z" fill="#F7FCFF"/>
    <path fill-rule="evenodd" clip-rule="evenodd" d="M14.253 16.264l-1.116 1.105s.962.59 2.777.59c1.814 0 2.87-.59 2.87-.59l-.848-1.105s-1.157.448-1.975.448c-.82 0-1.708-.448-1.708-.448z" fill="#F7FCFF"/>
    <path d="M14.276 16.969s.946.223 1.67.223c.725 0 1.67-.223 1.67-.223" stroke="#C00001" stroke-width=".5"/>
    <path fill-rule="evenodd" clip-rule="evenodd" d="M16.892 9.458c0 .438-.4.792-.892.792-.493 0-.892-.354-.892-.792 0-.437.4-.791.892-.791.493 0 .892.354.892.791zM16 10.25h-.96l-.265.203h-.051V8.868h-.487v1.585h-.426v.27h.426v2.858c-.057.456-.19.714-.378.804l-.993.476h5.978l-.43-.429c-.377-.377-.558-.667-.558-.835v-2.874h.171v-.27h-.17V8.868h-.487v1.585h-.157l-.314-.203H16zm-1.276.473h2.646v2.873c0 .232.11.484.323.765h-3.17c.098-.197.164-.442.2-.749v-2.889zM16.08 12h-1.054v2.083h2.108L16.081 12zm1.09-5.844l.001.003-.001-.003zm1.54.542l.002.01V6.7l-.001-.002zm.3.037l.002-.005-.001.002v.003zm-1.212.613h.006-.006z" fill="#F7FCFF"/>
    <path fill-rule="evenodd" clip-rule="evenodd" d="M12.993 10.668l-.2.144.206.301c-.176.063-.459.223-.459.599a2.8 2.8 0 01-.191.992l.572.368s.06-.636.215-.998a.584.584 0 01.302-.317l.89 1.306.198-.144-1.533-2.25zm6.078 0l.2.144-.206.301c.176.063.459.223.459.599 0 .546.192.992.192.992l-.573.368s-.06-.636-.215-.998a.584.584 0 00-.302-.317l-.89 1.306-.198-.144 1.533-2.25z" fill="#F7FCFF"/>
  </g>
</svg>
