<svg width="32" height="24" fill="none" xmlns="http://www.w3.org/2000/svg">
  <mask id="a" maskUnits="userSpaceOnUse" x="0" y="0" width="32" height="24">
    <path fill="#fff" d="M0 0h32v24H0z"/>
  </mask>
  <g mask="url(#a)">
    <path fill-rule="evenodd" clip-rule="evenodd" d="M0 0v24h32V0H0z" fill="#2E42A5"/>
    <mask id="b" maskUnits="userSpaceOnUse" x="0" y="0" width="32" height="24">
      <path fill-rule="evenodd" clip-rule="evenodd" d="M0 0v24h32V0H0z" fill="#fff"/>
    </mask>
    <g mask="url(#b)">
      <path fill-rule="evenodd" clip-rule="evenodd" d="M20.943 11.856l.003.35c.027 2.95.136 4.88.33 5.805.16.768.745 2.04 1.432 3.062.864 1.283 1.787 2.064 2.669 2.064.886 0 1.809-.726 2.669-1.936.706-.993 1.311-2.252 1.552-3.18.298-1.15.437-3.085.42-5.818l-.002-.347-.318.164a4.44 4.44 0 01-2.072.497c-.734 0-1.442-.219-2.128-.66l-.118-.076-.12.073c-.724.444-1.405.663-2.043.663-.646 0-1.296-.165-1.952-.498l-.322-.163zm.546 6.114c-.19-.907-.299-2.829-.326-5.765.686.348 1.371.522 2.054.522.683 0 1.403-.232 2.16-.696.721.464 1.47.696 2.249.696.777 0 1.503-.174 2.175-.522.017 2.716-.121 4.637-.414 5.764-.439 1.692-2.279 4.958-4.01 4.958-1.731 0-3.604-3.597-3.888-4.957z" fill="#FBE625"/>
      <path fill-rule="evenodd" clip-rule="evenodd" d="M21.163 12.205s.04 4.404.326 5.764c.284 1.36 2.157 4.958 3.888 4.958 1.731 0 3.572-3.266 4.01-4.957.44-1.692.414-5.765.414-5.765s-1.009.522-2.175.522c-1.167 0-2.249-.696-2.249-.696s-1.136.696-2.16.696c-1.024 0-2.053-.522-2.053-.522z" fill="#F5FBFF"/>
      <mask id="c" maskUnits="userSpaceOnUse" x="21" y="12" width="9" height="11">
        <path fill-rule="evenodd" clip-rule="evenodd" d="M21.163 12.205s.04 4.404.326 5.764c.284 1.36 2.157 4.958 3.888 4.958 1.731 0 3.572-3.266 4.01-4.957.44-1.692.414-5.765.414-5.765s-1.009.522-2.175.522c-1.167 0-2.249-.696-2.249-.696s-1.136.696-2.16.696c-1.024 0-2.053-.522-2.053-.522z" fill="#fff"/>
      </mask>
      <g mask="url(#c)" fill-rule="evenodd" clip-rule="evenodd">
        <path d="M24.64 15.488c0 .288-.411 1.125-.65 1.34-.176.158-.121-.21-.081-.482.014-.096.026-.18.026-.224v-.02c0-.056 0-.087-.005-.117a.718.718 0 00-.055-.144l-.045-.103c-.381-.814-.111-1.204.009-1.377a.582.582 0 00.041-.065.426.426 0 01.09-.106c.096-.093.217-.21.172-.47-.064-.366.322-.834.322-.834s-.094.908.35.686c.288-.145.811.063 1.276.247.25.1.484.192.655.22.346.056.535-.09.653-.18.048-.037.085-.065.114-.065.102 0 .222.02.222.095 0 .074-.456.292-.685.36-.172.05.005.191.153.31.049.038.094.074.123.104.119.12.227.779-.046.364-.274-.414-.856-.69-1.351-.731-.495-.04-1.12.335-1.194.731-.075.397.585.324.585.324s-.048.062-.26.137c-.214.075-.42 0-.42 0zm-.498-.03a.107.107 0 01-.109.104.107.107 0 01-.108-.105c0-.058.048-.105.108-.105s.109.047.109.105zm2.44 1.943c-.303-.104-1.235-.058-1.486.082 0 0-.034-.216-.203-.366s-.247-.162-.247-.162.384.542.001.669c-.383.126-1.014-.237-1.219-.69-.204-.452-.244-1.096-.015-1.536.23-.44-.293-.026-.341.136-.012.04-.022.097-.032.158-.031.187-.069.41-.197.284-.17-.167-.581-.46-.646-.424-.065.036-.025.15.025.24.014.026.056.044.112.068.136.06.354.154.474.484.058.163.09.412.125.68.064.495.136 1.053.402 1.235.41.28-.43.64-.43.64s.597.11.885-.123c.207-.167.367-.117.495-.078.05.015.095.029.136.027.02 0 .045.002.077.005.21.02.681.068 1.208-.66l.069-.09c.05-.065.072-.094.1-.117a.543.543 0 01.1-.062l.017-.01a2.25 2.25 0 01.208-.085c.258-.097.606-.228.382-.305zm-1.253.48a.107.107 0 01.144.045.107.107 0 01-.039.146.107.107 0 01-.144-.045.107.107 0 01.039-.145zm.513-3.007c.077.311.624 1.067.878 1.202 0 0-.163.146-.197.37-.033.223-.001.295-.001.295s.245-.618.56-.365c.315.252.354.98.086 1.397-.268.418-.786.802-1.28.85-.494.046.138.26.3.212.04-.012.093-.035.15-.06.174-.075.381-.165.345.011-.047.234-.07.738-.004.773.066.035.14-.062.188-.151.014-.027.006-.072-.004-.132-.024-.146-.064-.381.148-.66.105-.139.296-.301.501-.476.382-.324.81-.688.818-1.01.012-.496.77.013.77.013s-.232-.561-.585-.676c-.252-.083-.298-.244-.335-.372a.428.428 0 00-.05-.13.443.443 0 01-.039-.067c-.096-.187-.314-.608-1.211-.653l-.113-.01a.72.72 0 01-.153-.019.609.609 0 01-.106-.05l-.017-.01a1.69 1.69 0 01-.186-.128c-.22-.163-.52-.384-.463-.154zm1.12.83a.107.107 0 01-.042-.146.107.107 0 01.144-.046c.05.027.07.092.041.145a.107.107 0 01-.143.046z" fill="#FF9800"/>
        <path d="M21.426 19.752h7.279v3.457h-7.28v-3.457z" fill="#36C6FF"/>
      </g>
      <path fill="#2B409A" d="M0 0h18v14H0z"/>
      <mask id="d" maskUnits="userSpaceOnUse" x="0" y="0" width="18" height="14">
        <path fill="#fff" d="M0 0h18v14H0z"/>
      </mask>
      <g mask="url(#d)">
        <path d="M-2.004 13l3.96 1.737L18.09 1.889l2.09-2.582-4.236-.58-6.58 5.536-5.297 3.73L-2.004 13z" fill="#F7FCFF"/>
        <path d="M-1.462 14.217l2.018 1.008L19.429-.933h-2.833l-18.058 15.15z" fill="#F50100"/>
        <path d="M20.004 13l-3.96 1.737L-.09 1.889-2.18-.693l4.236-.58 6.58 5.536 5.297 3.73L20.004 13z" fill="#F7FCFF"/>
        <path d="M19.87 13.873l-2.019 1.009-8.036-6.918-2.383-.773L-2.38-.684H.453l9.807 7.688 2.605.927 7.004 5.942z" fill="#F50100"/>
        <mask id="e" maskUnits="userSpaceOnUse" x="-2" y="-2" width="22" height="18" fill="#000">
          <path fill="#fff" d="M-2-2h22v18H-2z"/>
          <path fill-rule="evenodd" clip-rule="evenodd" d="M9.985 0h-2v6H0v2h7.985v6h2V8H18V6H9.985V0z"/>
        </mask>
        <path fill-rule="evenodd" clip-rule="evenodd" d="M9.985 0h-2v6H0v2h7.985v6h2V8H18V6H9.985V0z" fill="#F50100"/>
        <path d="M7.985 0v-1.5h-1.5V0h1.5zm2 0h1.5v-1.5h-1.5V0zm-2 6v1.5h1.5V6h-1.5zM0 6V4.5h-1.5V6H0zm0 2h-1.5v1.5H0V8zm7.985 0h1.5V6.5h-1.5V8zm0 6h-1.5v1.5h1.5V14zm2 0v1.5h1.5V14h-1.5zm0-6V6.5h-1.5V8h1.5zM18 8v1.5h1.5V8H18zm0-2h1.5V4.5H18V6zM9.985 6h-1.5v1.5h1.5V6zm-2-4.5h2v-3h-2v3zm1.5 4.5V0h-3v6h3zM0 7.5h7.985v-3H0v3zm1.5.5V6h-3v2h3zm6.485-1.5H0v3h7.985v-3zm1.5 7.5V8h-3v6h3zm.5-1.5h-2v3h2v-3zM8.485 8v6h3V8h-3zM18 6.5H9.985v3H18v-3zM16.5 6v2h3V6h-3zM9.985 7.5H18v-3H9.985v3zM8.485 0v6h3V0h-3z" fill="#F7FCFF" mask="url(#e)"/>
      </g>
    </g>
  </g>
</svg>
