<svg width="32" height="24" fill="none" xmlns="http://www.w3.org/2000/svg">
  <mask id="a" maskUnits="userSpaceOnUse" x="0" y="0" width="32" height="24">
    <path fill="#fff" d="M0 0h32v24H0z"/>
  </mask>
  <g mask="url(#a)">
    <path fill-rule="evenodd" clip-rule="evenodd" d="M0 0h32v24H0V0z" fill="#F7FCFF"/>
    <path d="M0-1h-1v12.307L-2.848 12l1.848.693V25h33l.351-1.936L2.848 12 32.351.936 32-1H0z" fill="#3547A0" stroke="#E31D1C" stroke-width="2"/>
    <path fill-rule="evenodd" clip-rule="evenodd" d="M29.022 5.11l-2.737.74c-.098.026-.285.074-.272-.193a7.066 7.066 0 01-1.507.68c-.153.042-.112-.223-.178-.3-.132.196-.473.482-.57.51-.958.278-1.594.48-1.908.605 0 0-.45.432-.45.775 0 .342-.047.634-.356.634-.31 0-1.022.623-.761.973s1.118.164 1.118 0 .61-.369.61-.184c0 .184-.161.518-.161.518h.674l-.512.265h.512l-.512.314h.96l-.614.274h.425l-.259.36h.665s.259.261.503.404c.244.144.784 1.36.514 1.832-.27.471.061.541.122.334.062-.207.188-.503.296-.503h.317l.147.387.35.373s.024-.324.09-.373c0 0 .273.028.405-.005 0 0-.059-.471-.054-.535 0 0 .423.144.604.14 0 0-.272-.425-.272-.57 0 0 .505.025.505.24l-.056-.536s.479-.204.495-.375l-.313-.038s.163-.207.148-.248l-.464-.059s.506-.176.545-.287c0 0-.114-.178-.218-.248l-.354-.23.923.006s.207-.075.048-.202c0 0-.156-.093-.134-.184 0 0 .105-.203.081-.238 0 0 .113.15.113-.22 0 0 .003-.372-.068-.39 0 0 .208-.153.126-.25-.082-.099-.958-.359-1.168-.359l1.606-1.017s.11-.42.274-.672c0 0 .426-.382.512-.683.086-.3.328-1.04.328-1.04v-.338l-.118-.087z" fill="#9C3900"/>
    <path fill-rule="evenodd" clip-rule="evenodd" d="M26.21 12.565c.022 0 .042.002.066.004.267.022.412.089.436.201l.012.1a.42.42 0 00-.012-.1l-.052-.501c.32-.136.484-.26.495-.375l-.239-.03-.023.03-.015-.034-.036-.004.022-.03-.014-.033.037.004c.077-.103.111-.166.103-.189l-.324-.04a5.443 5.443 0 01-.118.042s-.012-.064-.007-.066l-.006-.058.123.016c.253-.096.39-.176.413-.24a.843.843 0 00-.218-.248l-.254-.165h-.1s.013-.065.02-.064l.016-.054.083.054.804.005c.138-.05.154-.117.048-.202-.104-.062-.149-.123-.134-.184a1.33 1.33 0 00.072-.157.23.23 0 01-.043-.043l.052-.038.054-.036c.014.02.018.044.014.075.03-.018.045-.104.045-.26a1.165 1.165 0 00-.03-.338l-.038-.051.016-.062a.1.1 0 01.038.019c.095-.083.119-.152.072-.208-.072-.086-.758-.297-1.065-.347l-.067.043s-.03-.054-.02-.064l-.015-.053c.023 0 .053.002.088.007l1.517-.961c.074-.28.165-.504.274-.672.284-.255.455-.482.512-.683.058-.2.167-.546.328-1.04v-.338l-.118-.087-2.737.74c-.098.026-.285.074-.272-.193a7.066 7.066 0 01-1.507.68c-.098.026-.116-.072-.134-.167-.01-.053-.02-.105-.044-.132-.132.195-.473.481-.57.51-.958.277-1.594.478-1.908.604-.3.288-.45.546-.45.775 0 .342-.047.634-.356.634-.31 0-1.022.623-.761.973s1.118.164 1.118 0 .61-.369.61-.184c0 .123-.053.295-.161.518h.535l.11-.057.015.064.014.056h-.123l-.39.202h.39l.089-.054.019.063.015.055h-.104l-.409.25h.804l.13-.058.014.064.012.058h-.142l-.471.21h.346l.027-.037.019.037h.034l-.02.026.02.037h-.046l-.214.297h.665c.173.174.34.31.503.404.244.144.784 1.36.514 1.832-.27.471.061.541.122.334.062-.207.188-.503.296-.503h.317l.147.387.35.373s.024-.324.09-.373c.182.018.317.017.405-.005l-.008-.064a2.717 2.717 0 00-.067-.41l.021-.06s.064.013.064.02c.249.082.428.121.54.12-.148-.231-.235-.4-.265-.517a.243.243 0 01-.007-.054zm.295-1.075l-.256.088.654.084c-.024.038-.06.09-.112.155l-.07.088.343.042c-.055.074-.198.165-.43.264l-.043.018.037.356a1.09 1.09 0 00-.414-.084l-.068-.003v.067c0 .099.071.26.214.496a3.077 3.077 0 01-.46-.126l-.08-.027-.006.083c-.003.045.013.203.047.487-.079.01-.188.008-.326-.006l-.046.012c-.046.034-.07.107-.09.223a1.714 1.714 0 00-.01.055l-.244-.261-.159-.417h-.362c-.14 0-.267.242-.358.55-.017.057-.06.076-.08.057-.04-.036-.03-.158.076-.343.135-.234.098-.636-.059-1.09-.135-.39-.337-.744-.478-.827a2.443 2.443 0 01-.49-.395l-.019-.019h-.567l.26-.36h-.252l.614-.274h-1.033l.512-.314h-.476l.512-.265h-.835c.083-.187.125-.338.125-.454 0-.084-.064-.13-.155-.136a.658.658 0 00-.235.037c-.195.062-.35.168-.35.283 0 .005-.033.033-.098.06-.08.033-.19.059-.304.07-.269.025-.498-.032-.599-.168-.095-.128-.03-.329.162-.537.176-.19.416-.334.547-.334.172 0 .29-.08.354-.227.05-.114.067-.261.067-.471 0-.206.139-.447.421-.72.316-.126.947-.325 1.89-.598.105-.03.37-.253.534-.418a.396.396 0 00.045.144c.036.058.096.083.169.062a7.16 7.16 0 001.432-.63c.018.082.062.135.132.157.063.02.12.013.214-.013l2.707-.731.067.049v.296c-.16.49-.269.834-.326 1.033-.053.187-.218.405-.505.666-.11.169-.2.39-.276.666l-1.768 1.12h.22c.2 0 1.053.258 1.117.335.023.027-.002.076-.115.159l-.108.08.12.03a.231.231 0 01.016.058c.01.06.015.152.014.272a.86.86 0 01-.015.196s-.09.047-.093.046a.169.169 0 01-.01.036 1.593 1.593 0 01-.075.167c-.021.093.038.176.16.25.06.048.06.056-.021.086l-.911-.005-.218-.002.535.348a.722.722 0 01.177.195.52.52 0 01-.11.072 2.893 2.893 0 01-.38.155zm.852-1.303v.003-.002z" fill="#212121"/>
    <path fill-rule="evenodd" clip-rule="evenodd" d="M27.407 10.792s1.908.254 2.024.254c.115 0 .596-.122.431-.89-.164-.77-.097-1.235-.568-1.235s-.963.205-1.14.205h-.747c-.742 0-5.164-.026-5.483.329-.318.355-1.213.855-1.628 1.031-.415.177-.521.053-.708.56-.186.507-.325.542-.325.542l.325.363h.967s.665-.835 2.047-.905c1.381-.07 4.805-.254 4.805-.254z" fill="#fff"/>
    <path fill-rule="evenodd" clip-rule="evenodd" d="M22.602 11.046c.92-.046 2.523-.131 4.805-.254 1.272.17 1.947.254 2.024.254.115 0 .596-.122.431-.89-.038-.178-.063-.339-.086-.482-.076-.477-.12-.753-.482-.753-.293 0-.592.079-.82.139-.14.036-.252.066-.32.066h-.89c-1.044-.002-5.037-.007-5.34.329-.318.355-1.213.855-1.628 1.031-.106.045-.192.07-.264.092-.21.063-.305.09-.444.468-.124.338-.233.519-.325.542l.325.363h.967c.443-.557 1.126-.859 2.047-.905zm-2.094.81h-.876l-.225-.251c.09-.093.177-.267.272-.526.037-.1.07-.172.102-.226.058-.098.103-.13.226-.167l.026-.008.115-.035a1.9 1.9 0 00.186-.069c.546-.232 1.376-.736 1.663-1.056.054-.06.384-.128.901-.177a28.614 28.614 0 011.814-.094 85.884 85.884 0 012.614-.026h.829c.05 0 .113-.01.21-.034l.155-.04c.05-.013.098-.026.118-.03a2.928 2.928 0 01.656-.1c.227 0 .293.106.366.547l.017.109.028.172c.02.12.04.225.062.33.067.314.026.524-.088.65a.373.373 0 01-.248.126c-.07 0-.756-.087-2.03-.254-2.282.123-3.883.207-4.804.254-.927.046-1.626.348-2.089.904z" fill="#4D4D4D"/>
    <path fill-rule="evenodd" clip-rule="evenodd" d="M19.507 11.4s-.728.466-.46.78c.267.314.293.354.346.354 0 0 .014-.337.1-.337.087 0 .77.327 1.017-.225.248-.551-1.003-.573-1.003-.573zm-1.585 1.52l1.676-.31.642.696.186-.622.46.113v.314h.17v.431l1.205.252.151-.413s.393.647.995.615c.603-.032.71.139.817-.34.105-.478.401-.735.401-.735l.703.237s-.772.949-.403 1.247l2.754.637-.109.334h-.316l.085.287-3.01-.208s-.335.425-.335.316c0-.108-.018-.108-.166-.108-.148 0-.225-.208-.225-.208l-.196.075s.03.004-.216-.075c-.246-.08-.39-.08-.39-.08l-1.017-.075v.155s-.27.013-.176.075c.094.062 1.995.133 1.995.133l-.116.213s.94.004 1.138-.105c.198-.108.07.24.07.24h.934s-.231.22-.528.22c-.297 0 .852.364.852.364s-.641.2-.938.068c-.297-.132.126.254.313.352.188.097-.66.089-.998-.288 0 0 .106.28 0 .359 0 0-.593-.699-.89-.699-.295 0 .047.46.047.46s-.169-.24-.358-.142c-.189.098-.329.208-.329.208s-.123-.426-.778-.603c-.654-.176-.434-.241-.966-.298-.53-.058-.557-.35-.63-.35-.073 0-.635-.49-.635-.49s-.125-.462.168-.462c.293 0 .757-.138.927 0 .17.138.242 0 .242 0h.3l.428.332h.851s.163-.252.422-.332c.26-.08 0-.305 0-.305s-.618.035-.868.13c-.25.096-.09-.463-.09-.463l-1.115-.202-.17.203-.369.11v.222l-.389-.086.112-.663-.91.416-1.408-1.151z" fill="#FFC221"/>
    <path fill-rule="evenodd" clip-rule="evenodd" d="M23.522 15.813l.081-.15c-1.156-.043-1.81-.084-1.965-.122a.105.105 0 01-.03-.01c-.093-.063.176-.076.176-.076V15.3l.065.005.951.07c.097 0 .227.027.39.08l.16.052a.115.115 0 01.014-.021.121.121 0 01.032-.018.09.09 0 01.02 0s-.005.063-.009.062l.137-.053.06-.022a.414.414 0 00.085.147l.013.013a.185.185 0 00.126.048c.148 0 .166 0 .166.108 0 .073.112-.033.336-.316l3.01.208-.086-.224.013-.018-.013-.045h.048l.014-.018.005.018h.249l.109-.334-2.754-.637c-.246-.199-.112-.615.403-1.247l-.703-.237c-.197.171-.33.416-.401.735-.08.356-.159.353-.443.341a3.701 3.701 0 00-.374 0c-.401.02-.733-.184-.995-.616l-.15.413-1.206-.252v-.431h-.17v-.314l-.46-.113-.164.55.026.03-.038.008-.01.034-.024-.026-.038.008.011-.037-.591-.64-1.676.31 1.408 1.152.84-.384.006-.043.033.024.031-.014-.005.033.032.025-.04.018-.099.587.39.086v-.221l.368-.111.17-.203s1.053.187 1.057.192l.058.01-.017.062c-.086.328-.05.462.107.402.167-.064.456-.108.868-.131.173.15.173.252 0 .305a.764.764 0 00-.422.332h-.85l-.43-.332h-.299c-.048.092-.128.092-.242 0-.114-.092-.362-.06-.6-.03a2.56 2.56 0 01-.327.03c-.195 0-.251.154-.168.461.375.328.586.492.635.492.02 0 .037.022.062.056.065.088.185.251.568.293.288.03.355.064.461.116.09.044.206.101.505.182.437.118.696.319.778.603 0 0 .14-.11.33-.208.121-.063.237-.02.347.128-.056-.078-.3-.446-.036-.446.197 0 .494.233.889.699.053-.04.067-.118.04-.234a.754.754 0 01-.089-.082s.05-.039.057-.034l.052-.031c.015.04.027.076.037.11.378.29 1.073.289.901.2a1.681 1.681 0 01-.389-.317c-.04-.052-.041-.08.045-.048l.03.013c.199.087.511.065.939-.068-.446-.141-.729-.241-.865-.31-.068-.036-.064-.054.015-.054a.071.071 0 00-.008-.016l.026.016a.723.723 0 00.382-.12h.052c.018-.022.037-.046.055-.072l-.002-.008a.944.944 0 00.021-.02h-.026l.005.02a.865.865 0 01-.105.08h-.063a.87.87 0 00.092-.1h-.768l-.008.022-.015-.021h-.046l.015-.043.007-.021c.058-.183.027-.242-.092-.177-.127.07-.481.105-1.064.105l-.017.03-.018-.03h-.039l.019-.033-.018-.03h.034zm-4.182-1.815l-1.27-1.04 1.504-.278.696.753.2-.673.352.086v.329h.17v.419l1.311.274.126-.344c.262.376.59.557.982.536.117-.007.21-.006.347 0 .226.009.276.006.35-.038.087-.053.134-.152.179-.352.064-.291.182-.516.353-.677l.58.196c-.488.619-.612 1.042-.324 1.274l2.7.625-.073.224h-.355l.083.28-2.951-.203-.021.027a3.63 3.63 0 01-.229.268c-.02-.07-.08-.085-.222-.085-.067 0-.121-.05-.164-.166l-.023-.061s-.244.084-.251.081a9.066 9.066 0 00-.18-.059 1.426 1.426 0 00-.407-.082l-1.084-.08v.164l-.043.006a.307.307 0 00-.107.032c-.063.037-.06.108.003.15.077.05.678.091 1.925.139l-.117.217h.107c.64.002 1.024-.033 1.17-.113a.246.246 0 01.023-.012.939.939 0 01-.046.175l-.03.085h.836a.657.657 0 01-.34.092.208.208 0 00-.075.01c-.046.019-.066.07-.035.113.02.03.066.055.15.09.117.05.314.12.591.211-.31.076-.54.08-.69.014a.36.36 0 00-.099-.032c-.05-.006-.097.02-.095.078.002.042.034.084.096.146.068.069.162.146.245.205a1.445 1.445 0 01-.151-.016c-.272-.044-.522-.149-.659-.3l-.232-.259.123.323c.039.1.053.175.05.224-.378-.433-.665-.65-.878-.65-.098 0-.164.043-.181.122a.305.305 0 00.023.17.282.282 0 00-.184.032l-.06.032c-.07.04-.138.083-.207.13-.113-.263-.38-.45-.793-.561a3.043 3.043 0 01-.362-.118 1.664 1.664 0 01-.098-.044l-.012-.006-.067-.032c-.109-.051-.21-.076-.436-.1-.197-.022-.33-.076-.424-.155a1.09 1.09 0 01-.1-.111.6.6 0 00-.06-.067.12.12 0 00-.053-.019 1.655 1.655 0 01-.156-.107 10.124 10.124 0 01-.422-.353c-.068-.26-.027-.363.11-.363.085 0 .157-.007.341-.031l.037-.005c.296-.038.438-.035.508.021.128.104.246.114.32.015h.24l.429.332h.909l.019-.03a.7.7 0 01.386-.305c.23-.07.23-.235.024-.414l-.047-.016c-.418.024-.712.069-.887.135-.048.018-.054.016-.06-.02-.013-.065.005-.189.056-.366l.019-.067-1.222-.222-.182.216-.396.12v.188l-.25-.055.121-.722-.984.45zm4.067 1.534c.01.002.013 0 .008-.003l-.008.003zm-1.77.01l-.001.001z" fill="#4D4D4D"/>
  </g>
</svg>
