<svg xmlns="http://www.w3.org/2000/svg" fill="none" viewBox="0 0 32 24"><mask id="ATG_svg__a" width="32" height="24" x="0" y="0" maskUnits="userSpaceOnUse"><path fill="#fff" d="M0 0h32v24H0z"/></mask><g mask="url(#ATG_svg__a)"><path fill="#1B1B1B" fill-rule="evenodd" d="M0 0h32v24H0V0z" clip-rule="evenodd"/><path fill="#F9D313" fill-rule="evenodd" d="M16 14l-2.003 3.8.05-4.196-3.658 2.65 2.093-3.76-4.59.977 3.72-2.58L7 10l4.613-.89L7.89 6.529l4.59.977-2.092-3.76 3.659 2.65-.05-4.195L16 6l2.003-3.8-.05 4.196 3.658-2.65-2.093 3.76 4.59-.977-3.72 2.58L25 10l-4.613.89 3.722 2.581-4.59-.977 2.092 3.76-3.659-2.65.05 4.195L16 14z" clip-rule="evenodd"/><path fill="#F1F9FF" d="M6 14h20v10H6z"/><path fill="#4A80E8" d="M2 10h28v4H2z"/><path fill="#E31D1C" fill-rule="evenodd" d="M0 6l16 18L32 6v18H0V6z" clip-rule="evenodd"/></g></svg>