<svg width="32" height="24" fill="none" xmlns="http://www.w3.org/2000/svg">
  <mask id="a" maskUnits="userSpaceOnUse" x="0" y="0" width="32" height="24">
    <path fill="#fff" d="M0 0h32v24H0z"/>
  </mask>
  <g mask="url(#a)">
    <path fill-rule="evenodd" clip-rule="evenodd" d="M0 0v24h32V0H0z" fill="#AF0100"/>
    <mask id="b" maskUnits="userSpaceOnUse" x="0" y="0" width="32" height="24">
      <path fill-rule="evenodd" clip-rule="evenodd" d="M0 0v24h32V0H0z" fill="#fff"/>
    </mask>
    <g mask="url(#b)">
      <path fill-rule="evenodd" clip-rule="evenodd" d="M21.03 11.043h8.889v8.99s-.276 1.237-1.988 2.054c-1.71.818-2.457.818-2.457.818s-2.725-.67-3.289-1.297c-.563-.627-1.155-.86-1.155-1.956v-8.61z" fill="#fff"/>
      <mask id="c" maskUnits="userSpaceOnUse" x="21" y="11" width="9" height="12">
        <path fill-rule="evenodd" clip-rule="evenodd" d="M21.03 11.043h8.889v8.99s-.276 1.237-1.988 2.054c-1.71.818-2.457.818-2.457.818s-2.725-.67-3.289-1.297c-.563-.627-1.155-.86-1.155-1.956v-8.61z" fill="#fff"/>
      </mask>
      <g mask="url(#c)">
        <path fill-rule="evenodd" clip-rule="evenodd" d="M25.455 11.57a.49.49 0 00.051-.094l-.003.15c.032.03.071.052.117.052l.197-.117s-.045.258.014.25c0 0 .184-.12.257-.055 0 0-.214.245.043.246 0 0 .324-.052.296.099 0 0-.243.445-.14.473l.4-.011s-.269.233-.261.331l.133.105s.075-.184.138-.033c0 0 .009.274-.033.274l-.356.114s-.023.134.104.134c0 0 .294-.125.303.002 0 0-.039.146-.056.27 0 0-.019.449-.022.487 0 0 .024-.017.248.247 0 0 .565.358.669.275.028-.022.047-.069.068-.121.056-.138.128-.318.44-.221h.003c.43.134.534.167.426.342-.109.177-.523.596-.523.596l-.358 1.438h.768c.232 0 .444.09.485.282.041.192.052.566.052.61l-.002.024c-.008.063-.022.186.161.186 0 0 .367.048.291.075 0 0-.26-.05-.262.178 0 0-.1.03-.051.313 0 0 .201.62.067.492 0 0-.274-.322-.274-.46 0 0-.196.078-.19.28 0 0-.185.248-.18.005 0 0 .314-.596.139-.461 0 0-.228.492-.258.418l-.844-.229-.321 1.415s.086.266.322.266a.573.573 0 00.23-.064c.122-.054.223-.098.32.064.151.254.219.277.294.277.074 0 .162.098.118.247-.044.149-.24.26-.326.26-.032 0-.024.028-.013.062.018.058.043.137-.117.137a.936.936 0 01-.254-.03.943.943 0 00-.253-.03h-.087c-.217.003-.401.005-.401-.138 0-.14-.167-.262-.315-.371l-.072-.054c-.159-.122-.506-1.498-.506-1.498l-.656-4.133-.02-.96-.02.96-.655 4.133s-.347 1.376-.507 1.498a4.21 4.21 0 01-.071.054c-.148.109-.315.232-.315.37 0 .144-.184.142-.401.14l-.088-.001a.94.94 0 00-.252.03.935.935 0 01-.254.03c-.16 0-.135-.079-.117-.137.01-.034.019-.061-.013-.061-.086 0-.283-.112-.326-.261-.044-.15.043-.247.118-.247s.143-.023.294-.277c.097-.162.198-.118.32-.064.069.03.145.064.23.064.236 0 .322-.266.322-.266l-.322-1.415-.844.229c-.03.074-.257-.418-.257-.418-.176-.135.139.461.139.461.005.243-.18-.006-.18-.006.006-.201-.19-.279-.19-.279 0 .138-.275.46-.275.46-.134.127.068-.492.068-.492.049-.283-.051-.313-.051-.313-.002-.229-.262-.178-.262-.178-.077-.027.29-.075.29-.075.184 0 .17-.123.162-.186a4.276 4.276 0 01.05-.634c.04-.192.253-.282.485-.282h.768l-.359-1.438s-.413-.42-.522-.596c-.109-.175-.004-.208.425-.341l.003-.001c.313-.097.385.083.44.22.022.053.04.1.069.122.104.083.67-.275.67-.275.223-.264.246-.247.246-.247a72.107 72.107 0 01-.021-.487c-.017-.124-.056-.27-.056-.27.008-.127.303-.002.303-.002.127 0 .104-.134.104-.134l-.356-.114c-.042 0-.034-.274-.034-.274.064-.151.139.033.139.033l.133-.105c.007-.098-.261-.332-.261-.332l.4.012c.103-.028-.14-.473-.14-.473-.028-.15.296-.099.296-.099.257-.001.043-.246.043-.246.073-.066.257.056.257.056.06.007.014-.25.014-.25l.197.116a.172.172 0 00.117-.052l-.003-.15s.017.046.05.094z" fill="#CF142B"/>
        <path fill-rule="evenodd" clip-rule="evenodd" d="M21.222 20l-.327-.321v3.642H30V19.68l-.327.321c.049-.384-.025-.26-.114-.113a.782.782 0 01-.124.174c-.035.028-.043-.084-.05-.194-.007-.097-.014-.193-.039-.188 0 0-.1-.158-.16-.099a.796.796 0 00-.031.2c-.012.107-.024.228-.043.281-.023.063-.093-.061-.093-.061s.004-.467-.068-.537c-.072-.07-.079.537-.079.537s-.11-.45-.22-.42c-.018.006-.028.123-.038.25-.01.123-.021.254-.042.299-.041.091-.14-.549-.14-.549s-.028.525-.126.549c-.016.004-.032-.08-.048-.174a.943.943 0 00-.055-.224c-.045-.075-.258.218-.258.218l-.15-.604-.411.334h-3.872l-.412-.334-.15.605s-.212-.293-.258-.219c-.02.036-.038.134-.054.224-.017.093-.032.178-.049.174-.097-.024-.126-.549-.126-.549s-.098.64-.14.549a1.404 1.404 0 01-.041-.3c-.01-.126-.02-.244-.039-.249-.11-.03-.22.42-.22.42s-.007-.607-.079-.537c-.071.07-.067.537-.067.537s-.071.123-.093.061a1.645 1.645 0 01-.043-.281.776.776 0 00-.032-.2c-.06-.06-.16.099-.16.099-.025-.005-.031.09-.038.188-.008.11-.016.222-.05.194a.782.782 0 01-.125-.174c-.088-.148-.163-.271-.114.113z" fill="#5DC852"/>
        <path fill-rule="evenodd" clip-rule="evenodd" d="M28.18 14.94s.043.11 0 .22v-.22zm-2.694-.177c.074.01.14.029.196.044.132.035.211.057.211-.055 0-.082.217.024.515.17.388.19.916.447 1.286.447.322 0 .445-.104.486-.21v.425c0 .076.017.166.033.251.029.155.054.293-.033.293-.134 0-.734.422-.734.909 0 .486.734.886.734.886s-.486 1.712-.912 1.974c-.258.158-.411.028-.492-.04-.052-.045-.074-.063-.074.04 0 .261-.369.63-.809.776-.284.094-.2.166-.106.248.051.045.106.092.106.148 0 .126-.347-.05-.486-.126-.14.076-.486.252-.486.126 0-.056.055-.103.106-.148.095-.082.178-.154-.106-.248-.44-.146-.81-.515-.81-.776 0-.103-.02-.085-.073-.04-.08.068-.234.198-.492.04-.426-.262-.912-1.974-.912-1.974s.734-.4.734-.886c0-.487-.6-.91-.734-.91-.087 0-.062-.137-.033-.292.016-.085.033-.175.033-.25v-.426c.041.106.164.21.486.21.37 0 .898-.258 1.286-.447.298-.146.515-.252.515-.17 0 .112.079.09.21.055.057-.015.123-.033.197-.044.007-.007.015-.011.022-.011.02 0 .038 0 .057.002a.814.814 0 01.057-.002c.008 0 .015.004.022.01zm-2.852.177s-.043.11 0 .22v-.22z" fill="#4ABCE6"/>
        <mask id="d" maskUnits="userSpaceOnUse" x="22" y="14" width="7" height="8">
          <path fill-rule="evenodd" clip-rule="evenodd" d="M28.18 14.94s.043.11 0 .22v-.22zm-2.694-.177c.074.01.14.029.196.044.132.035.211.057.211-.055 0-.082.217.024.515.17.388.19.916.447 1.286.447.322 0 .445-.104.486-.21v.425c0 .076.017.166.033.251.029.155.054.293-.033.293-.134 0-.734.422-.734.909 0 .486.734.886.734.886s-.486 1.712-.912 1.974c-.258.158-.411.028-.492-.04-.052-.045-.074-.063-.074.04 0 .261-.369.63-.809.776-.284.094-.2.166-.106.248.051.045.106.092.106.148 0 .126-.347-.05-.486-.126-.14.076-.486.252-.486.126 0-.056.055-.103.106-.148.095-.082.178-.154-.106-.248-.44-.146-.81-.515-.81-.776 0-.103-.02-.085-.073-.04-.08.068-.234.198-.492.04-.426-.262-.912-1.974-.912-1.974s.734-.4.734-.886c0-.487-.6-.91-.734-.91-.087 0-.062-.137-.033-.292.016-.085.033-.175.033-.25v-.426c.041.106.164.21.486.21.37 0 .898-.258 1.286-.447.298-.146.515-.252.515-.17 0 .112.079.09.21.055.057-.015.123-.033.197-.044.007-.007.015-.011.022-.011.02 0 .038 0 .057.002a.814.814 0 01.057-.002c.008 0 .015.004.022.01zm-2.852.177s-.043.11 0 .22v-.22z" fill="#fff"/>
        </mask>
        <g mask="url(#d)" fill-rule="evenodd" clip-rule="evenodd">
          <path d="M22.465 16.893s2.187-.233 3.47-.233c1.285 0 .594.079 1.088.134.493.056.989.099.989.099v4.393h-5.547v-4.393z" fill="#fff"/>
          <path d="M22.985 16.273s-.179-.35.546-.476c.725-.125.95-.178 1.224.149.275.327.833 1.733.417 2.111-.417.378-.707.776-.872.637-.165-.138.188-.637-.684-.637h-1.17l.539-1.784z" fill="#FFDA3A"/>
          <path d="M26.657 16.612l-1.563.48s.142 1.066-.261 1.066-.575-2.309-.575-2.309h-.166l.53 2.54-.364.236 1.117.496 1.892-.963-.61-1.546z" fill="#B35A1F"/>
        </g>
        <path fill-rule="evenodd" clip-rule="evenodd" d="M24.406 14.922c-.388.19-.916.447-1.286.447-.258 0-.42-.05-.486-.15v.365c0 .076-.017.166-.033.251-.029.155-.054.293.033.293.134 0 .734.422.734.909 0 .324-.245.62-.734.886.324 1.141.628 1.8.912 1.974.228.14.374.054.465-.018l.027-.023c.052-.044.074-.062.074.04 0 .01 0 .02.002.035.03.259.386.602.807.742.284.094.2.166.106.248-.051.045-.106.092-.106.148 0 .1.162.058.486-.125.324.183.486.224.486.125 0-.056-.055-.103-.106-.148-.095-.082-.178-.154.106-.248.421-.14.777-.483.808-.748a.282.282 0 00.001-.029c0-.102.022-.084.077-.038l.028.024c.087.07.233.155.461.014.284-.174.588-.832.912-1.974-.49-.266-.734-.561-.734-.886 0-.486.6-.908.734-.908.087 0 .062-.138.033-.293a1.476 1.476 0 01-.033-.25v-.367c.046-.069.046-.162 0-.278v.278c-.066.1-.228.151-.486.151-.37 0-.898-.258-1.286-.447-.298-.146-.515-.252-.515-.17 0 .112-.079.09-.21.055a1.704 1.704 0 00-.193-.044.039.039 0 00-.026-.011c-.02 0-.038 0-.057.002a.814.814 0 00-.057-.002.039.039 0 00-.026.011 1.706 1.706 0 00-.192.044c-.132.035-.211.057-.211-.055 0-.082-.217.024-.515.17z" fill="#FFD129"/>
        <path fill-rule="evenodd" clip-rule="evenodd" d="M29.919 11.043h-8.89v8.61c0 .845.353 1.176.772 1.571.125.117.255.24.384.384.376.418 1.472.85 3.29 1.297.497 0 1.316-.273 2.456-.818 1.141-.544 1.804-1.23 1.988-2.054v-8.99zm-8.11 9.896c-.42-.405-.57-.7-.57-1.287v-8.395h8.47v8.75c-.175.742-.79 1.372-1.866 1.886-1.095.523-1.883.788-2.345.797-1.76-.434-2.824-.855-3.159-1.227a6.294 6.294 0 00-.315-.32l-.215-.204z" fill="#000"/>
      </g>
      <path fill="#2B409A" d="M0 0h18v14H0z"/>
      <mask id="e" maskUnits="userSpaceOnUse" x="0" y="0" width="18" height="14">
        <path fill="#fff" d="M0 0h18v14H0z"/>
      </mask>
      <g mask="url(#e)">
        <path d="M-2.004 13l3.96 1.737L18.09 1.889l2.09-2.582-4.236-.58-6.58 5.536-5.297 3.73L-2.004 13z" fill="#F7FCFF"/>
        <path d="M-1.462 14.217l2.018 1.008L19.429-.933h-2.833l-18.058 15.15z" fill="#F50100"/>
        <path d="M20.004 13l-3.96 1.737L-.09 1.889-2.18-.693l4.236-.58 6.58 5.536 5.297 3.73L20.004 13z" fill="#F7FCFF"/>
        <path d="M19.87 13.873l-2.019 1.009-8.036-6.918-2.383-.773L-2.38-.684H.453l9.807 7.688 2.605.927 7.004 5.942z" fill="#F50100"/>
        <mask id="f" maskUnits="userSpaceOnUse" x="-2" y="-2" width="22" height="18" fill="#000">
          <path fill="#fff" d="M-2-2h22v18H-2z"/>
          <path fill-rule="evenodd" clip-rule="evenodd" d="M9.985 0h-2v6H0v2h7.985v6h2V8H18V6H9.985V0z"/>
        </mask>
        <path fill-rule="evenodd" clip-rule="evenodd" d="M9.985 0h-2v6H0v2h7.985v6h2V8H18V6H9.985V0z" fill="#F50100"/>
        <path d="M7.985 0v-1.5h-1.5V0h1.5zm2 0h1.5v-1.5h-1.5V0zm-2 6v1.5h1.5V6h-1.5zM0 6V4.5h-1.5V6H0zm0 2h-1.5v1.5H0V8zm7.985 0h1.5V6.5h-1.5V8zm0 6h-1.5v1.5h1.5V14zm2 0v1.5h1.5V14h-1.5zm0-6V6.5h-1.5V8h1.5zM18 8v1.5h1.5V8H18zm0-2h1.5V4.5H18V6zM9.985 6h-1.5v1.5h1.5V6zm-2-4.5h2v-3h-2v3zm1.5 4.5V0h-3v6h3zM0 7.5h7.985v-3H0v3zm1.5.5V6h-3v2h3zm6.485-1.5H0v3h7.985v-3zm1.5 7.5V8h-3v6h3zm.5-1.5h-2v3h2v-3zM8.485 8v6h3V8h-3zM18 6.5H9.985v3H18v-3zM16.5 6v2h3V6h-3zM9.985 7.5H18v-3H9.985v3zM8.485 0v6h3V0h-3z" fill="#F7FCFF" mask="url(#f)"/>
      </g>
    </g>
  </g>
</svg>
