<svg width="32" height="24" fill="none" xmlns="http://www.w3.org/2000/svg">
  <mask id="a" maskUnits="userSpaceOnUse" x="0" y="0" width="32" height="24">
    <path fill="#fff" d="M0 0h32v24H0z"/>
  </mask>
  <g mask="url(#a)" fill-rule="evenodd" clip-rule="evenodd">
    <path d="M0 0h32v6H0V0z" fill="#3D58DB"/>
    <path d="M0 6h32v6H0V6z" fill="#F7FCFF"/>
    <path d="M0 12h32v6H0v-6z" fill="#73BE4A"/>
    <path d="M0 18h32v6H0v-6z" fill="#FFD018"/>
    <path d="M4.53 5.416L2.104 7.098l.775-2.88-1.78-1.84 2.41-.1L4.53-.57l1.019 2.848h2.406l-1.776 1.94.89 2.71-2.54-1.512z" fill="#FECA00"/>
    <path d="M12 0h8v24h-8V0z" fill="#E11C1B"/>
  </g>
</svg>
