<svg xmlns="http://www.w3.org/2000/svg" fill="none" viewBox="0 0 32 24"><mask id="CW_svg__a" width="32" height="24" x="0" y="0" mask-type="alpha" maskUnits="userSpaceOnUse"><path fill="#fff" d="M0 0H32V24H0z"/></mask><g mask="url(#CW_svg__a)"><path fill="#2E42A5" fill-rule="evenodd" d="M0 0V24H32V0H0Z" clip-rule="evenodd"/><mask id="CW_svg__b" width="32" height="24" x="0" y="0" mask-type="alpha" maskUnits="userSpaceOnUse"><path fill="#fff" fill-rule="evenodd" d="M0 0V24H32V0H0Z" clip-rule="evenodd"/></mask><g fill-rule="evenodd" clip-rule="evenodd" mask="url(#CW_svg__b)"><path fill="#F7FCFF" d="M4.25442 6.14923 2.26558 7.19891 3.22584 5.33053 2 3.96315 3.52334 3.90693 4.25442 2 4.81233 3.90693 6.59497 3.96315 5.31147 5.33053 6.12572 7.19891 4.25442 6.14923zM11.3524 11.0766 8.89776 12.1048 9.86073 9.52818 7.72656 7.7993H10.2839L11.3524 5.01221 12.1678 7.7993H14.729L12.909 9.52818 13.8127 12.1048 11.3524 11.0766z"/><path fill="#F9E813" d="M0 14V18H32V14H0Z"/></g></g></svg>