<svg xmlns="http://www.w3.org/2000/svg" fill="none" viewBox="0 0 32 24"><mask id="CW_svg__a" width="32" height="24" x="0" y="0" maskUnits="userSpaceOnUse"><path fill="#fff" d="M0 0h32v24H0z"/></mask><g mask="url(#CW_svg__a)"><path fill="#2E42A5" fill-rule="evenodd" d="M0 0v24h32V0H0z" clip-rule="evenodd"/><mask id="CW_svg__b" width="32" height="24" x="0" y="0" maskUnits="userSpaceOnUse"><path fill="#fff" fill-rule="evenodd" d="M0 0v24h32V0H0z" clip-rule="evenodd"/></mask><g fill-rule="evenodd" clip-rule="evenodd" mask="url(#CW_svg__b)"><path fill="#F7FCFF" d="M4.254 6.15L2.266 7.198l.96-1.868L2 3.963l1.523-.056L4.254 2l.558 1.907 1.783.056-1.284 1.368.815 1.868-1.872-1.05zm7.098 4.926l-2.454 1.029.963-2.577L7.726 7.8h2.558l1.068-2.787.816 2.787h2.56l-1.82 1.73.905 2.576-2.46-1.029z"/><path fill="#F9E813" d="M0 14v4h32v-4H0z"/></g></g></svg>