<svg width="32" height="24" fill="none" xmlns="http://www.w3.org/2000/svg">
  <mask id="a" maskUnits="userSpaceOnUse" x="0" y="0" width="32" height="24">
    <path fill="#fff" d="M0 0h32v24H0z"/>
  </mask>
  <g mask="url(#a)">
    <path fill-rule="evenodd" clip-rule="evenodd" d="M0 0v24h32V0H0z" fill="#2E42A5"/>
    <mask id="b" maskUnits="userSpaceOnUse" x="0" y="0" width="32" height="24">
      <path fill-rule="evenodd" clip-rule="evenodd" d="M0 0v24h32V0H0z" fill="#fff"/>
    </mask>
    <g mask="url(#b)">
      <path fill-rule="evenodd" clip-rule="evenodd" d="M0 0v12h32V0H0z" fill="#FECA00"/>
      <path fill-rule="evenodd" clip-rule="evenodd" d="M0 18v6h32v-6H0z" fill="#E31D1C"/>
      <path fill-rule="evenodd" clip-rule="evenodd" d="M9.717 5.714s4.156-1.877 4.534-1.664c.378.213.469.821.795.821.326 0 .983-.192 1.257-.192.274 0 .545.192.545.192h1.17v-.65l5.309 1.493s-3.096.405-3.33.405c-.233 0 0 .333 0 .333s-.441-.333-1.113-.333c-.673 0-2.036.694-2.036.694l.496 1.066-.496.314-.545-.314s.035-.876-.2-.876c-.234 0-.406.563-.406.876 0 .314-.65.314-.65.314l.29-.587s.29-.973-.29-.973c-.581 0-3.226-.514-3.226-.514l-.676.333.242-.738h-1.67z" fill="#7B2900"/>
      <path fill-rule="evenodd" clip-rule="evenodd" d="M11.501 15.774c-.648-1.458 0-4.688 0-4.688l1.261.662c-.15.753-.173 2.178.299 3.343s2.255 2.082 2.255 2.082.9.2-.468.345c-1.366.145-2.698-.286-3.347-1.744zm3.232 5.743c-.406 0 .813-2.71.813-2.71l.376-.752s.046 3.189-.212 3.462c-.165.175-.353.125-.574.067a1.563 1.563 0 00-.403-.067z" fill="#E31D1C"/>
      <path fill-rule="evenodd" clip-rule="evenodd" d="M10.327 15.298c-.544-2.177.304-5.133.304-5.133l.854.61c-.126 1.125-.126 4.036.596 5.297.722 1.262 3.887 1.791 3.887 1.791s-.624.462-1.77.678c-1.145.216-3.328-1.066-3.871-3.243zm3.629 5.92l.502-1.793.707-.866h.51s-.717 3.08-1.217 3.08c-.325 0-.228-.178-.12-.376.059-.107.12-.22.12-.313 0-.266-.502.267-.502.267z" fill="#2E42A5"/>
      <path fill-rule="evenodd" clip-rule="evenodd" d="M9.498 15.671c-.27-1.874.27-6.351.27-6.351l.853.61c-.386 1.084-.266 4.196 0 5.741s2.785 2.477 2.785 2.477-.624.461-1.77.677c-1.144.216-1.868-1.28-2.138-3.154zm4.189 3.745c-.486 0 .211-.697.211-.697h1.164s-.398.984-.89.984c-.246 0-.245-.072-.245-.144.001-.072.002-.143-.24-.143z" fill="#FECA00"/>
      <path fill-rule="evenodd" clip-rule="evenodd" d="M20.365 15.774c.65-1.458 0-4.688 0-4.688l-1.26.662c.15.753.173 2.178-.3 3.343-.47 1.165-2.254 2.082-2.254 2.082s-.9.2.467.345c1.367.145 2.699-.286 3.347-1.744zm-3.232 5.743c.407 0-.812-2.71-.812-2.71l-.376-.752s-.046 3.189.212 3.462c.165.175.353.125.573.067.124-.032.258-.067.403-.067z" fill="#E31D1C"/>
      <path fill-rule="evenodd" clip-rule="evenodd" d="M21.54 15.298c.543-2.177-.305-5.133-.305-5.133l-.853.61c.125 1.125.125 4.036-.596 5.297-.722 1.262-3.888 1.791-3.888 1.791s.625.462 1.77.678c1.145.216 3.328-1.066 3.872-3.243zm-3.63 5.92l-.501-1.793-.708-.866h-.509s.717 3.08 1.217 3.08c.325 0 .228-.178.12-.376-.059-.107-.12-.22-.12-.313 0-.266.502.267.502.267z" fill="#2E42A5"/>
      <path fill-rule="evenodd" clip-rule="evenodd" d="M22.369 15.671c.27-1.874-.27-6.351-.27-6.351l-.853.61c.386 1.084.266 4.196 0 5.741s-2.786 2.477-2.786 2.477.625.461 1.77.677c1.145.216 1.87-1.28 2.139-3.154zm-4.189 3.745c.486 0-.212-.697-.212-.697h-1.163s.398.984.89.984c.246 0 .245-.072.244-.144 0-.072-.001-.143.241-.143z" fill="#FECA00"/>
      <path d="M10.203 10.446l.091-.552 1.601.103-1.214-1.258.41-.389 1.641 1.702-1.404-2.64.486-.29 1.278 1.881-.61-1.954.525-.209 1.965 3.92-.754-.049.074.237.642.17-.146.544-.298-.08.278.892-.483-.71.841 1.58-2.066-2.14-2.857-.758zm11.723 0l-.091-.552-1.601.103 1.214-1.258-.41-.389-1.642 1.702 1.405-2.64-.486-.29-1.278 1.881.61-1.954-.525-.209-1.965 3.92.754-.049-.074.237-.642.17.146.544.298-.08-.278.892.483-.71-.841 1.58 2.066-2.14 2.857-.758z" fill="#6FAE21"/>
      <path d="M11.067 21.311l-.413-.386 12.19-12.834.413.385-12.19 12.835z" fill="#171401"/>
      <path fill-rule="evenodd" clip-rule="evenodd" d="M22.535 8.19l.625.589.352-.975-.977.385zM11.376 21.309l-.717-.472-.233.967.95-.495z" fill="#CECECC"/>
      <path d="M10.16 19.399l-.412-.386 12.19-12.835.412.386-12.19 12.835z" fill="#171401"/>
      <path fill-rule="evenodd" clip-rule="evenodd" d="M21.628 6.277l.625.59.353-.975-.978.385zM10.47 19.396l-.718-.472-.233.968.95-.496z" fill="#CECECC"/>
      <path d="M21.253 21.311l.413-.386L9.476 8.091l-.413.385 12.19 12.835z" fill="#171401"/>
      <path fill-rule="evenodd" clip-rule="evenodd" d="M9.785 8.19l-.625.589-.353-.975.978.385zm11.159 13.119l.717-.472.233.967-.95-.495z" fill="#CECECC"/>
      <path d="M22.387 19.849l.412-.386-12.19-12.835-.413.386 12.19 12.835z" fill="#171401"/>
      <path fill-rule="evenodd" clip-rule="evenodd" d="M10.918 6.727l-.625.59-.352-.975.977.385zm11.159 13.119l.718-.472.232.968-.95-.496z" fill="#CECECC"/>
      <path fill="#B74E01" d="M13.667 16.375H18.2v2.25h-4.533z"/>
      <path d="M15.948 17.287c.898 0 1.675-.578 2.215-1.435.541-.86.868-2.033.868-3.315 0-1.283-.327-2.455-.868-3.315-.54-.857-1.317-1.435-2.215-1.435-.9 0-1.676.578-2.215 1.435-.542.86-.869 2.032-.869 3.315 0 1.282.327 2.455.869 3.315.54.857 1.316 1.435 2.215 1.435z" fill="#7DB8FF" stroke="#FECA00" stroke-width=".5"/>
      <mask id="c" maskUnits="userSpaceOnUse" x="12" y="7" width="8" height="11">
        <path d="M15.948 17.287c.898 0 1.675-.578 2.215-1.435.541-.86.868-2.033.868-3.315 0-1.283-.327-2.455-.868-3.315-.54-.857-1.317-1.435-2.215-1.435-.9 0-1.676.578-2.215 1.435-.542.86-.869 2.032-.869 3.315 0 1.282.327 2.455.869 3.315.54.857 1.316 1.435 2.215 1.435z" fill="#fff" stroke="#fff" stroke-width=".5"/>
      </mask>
      <g mask="url(#c)" fill-rule="evenodd" clip-rule="evenodd">
        <path d="M12.88 12.61h1.612s1.108.245.554.439c-.554.193-.554.257-.554.532v1.5c0 .215.394.676-.437.676-.83 0-1.547-3.416-1.547-3.416l.371.269zm6.3.186s-1.499.295-2.525.197c-1.026-.099-1.476-.197-1.476-.197s.715.371.97.683c.253.312.774.85 1.304.85s1.344.504 1.344.504l.382-2.037z" fill="#6FAE21"/>
        <path d="M13.319 10.136s1.234.238 1.532.596c.297.357-.393.714 1.406.357s3.227-.98 3.227 0-.157 1.883-.931 1.883h-3.444c-2.361 0-3.648.723-3.483-.44.165-1.161 1.693-2.396 1.693-2.396z" fill="#F7FCFF"/>
      </g>
    </g>
  </g>
</svg>
