<svg width="32" height="24" fill="none" xmlns="http://www.w3.org/2000/svg">
  <mask id="a" maskUnits="userSpaceOnUse" x="0" y="0" width="32" height="24">
    <path fill="#fff" d="M0 0h32v24H0z"/>
  </mask>
  <g mask="url(#a)">
    <path fill-rule="evenodd" clip-rule="evenodd" d="M0 0v24h32V0H0z" fill="#63B3E1"/>
    <mask id="b" maskUnits="userSpaceOnUse" x="0" y="0" width="32" height="24">
      <path fill-rule="evenodd" clip-rule="evenodd" d="M0 0v24h32V0H0z" fill="#fff"/>
    </mask>
    <g mask="url(#b)" fill-rule="evenodd" clip-rule="evenodd" fill="#F7FCFF">
      <path d="M16 7.3l-1.763.927.336-1.963-1.426-1.391 1.971-.287L16 2.8l.882 1.786 1.971.287-1.426 1.39.336 1.964L16 7.3zm0 12l-1.763.927.336-1.963-1.426-1.391 1.971-.287L16 14.8l.882 1.787 1.971.286-1.426 1.39.336 1.964L16 19.3zm-6.2-5.8l-1.763.927.336-1.963-1.426-1.391 1.971-.287L9.8 9l.882 1.787 1.971.286-1.426 1.39.336 1.964L9.8 13.5zm12.2 0l-1.763.927.336-1.963-1.426-1.391 1.971-.287L22 9l.882 1.787 1.971.286-1.426 1.39.336 1.964L22 13.5z"/>
    </g>
  </g>
</svg>
