<svg width="32" height="24" fill="none" xmlns="http://www.w3.org/2000/svg">
  <path d="M0 0v7h32V0H0z" fill="#002488"/>
  <path d="M0 7v17h32V7H0z" fill="#DA121A"/>
  <path d="M5.028.79c-.382.63-.428 1.134-.167 2.004.126.407.264 1.013.322 1.342.077.465.069.509.08.61h.417c.015-.161.027-.347.061-.602.04-.298.159-.92.286-1.352C6.282 1.93 6.265 1.4 5.869.8 5.724.577 5.53.393 5.444.393c-.087 0-.284.17-.416.397zm.832 3.543c-.032.166-.04.225-.056.413h.277a3.12 3.12 0 01.098-.371c.218-.693.861-.97.832-.322a.569.569 0 01-.169.374c.104-.025.324-.128.503-.23.995-.6.603-2.07-.44-1.624-.541.232-.866.875-1.044 1.76zm-1.166.657c.437.002 1.192.006 1.554.004 0-.108.002-.053.003-.14-.267-.002-1.289.002-1.555.002.001.056 0 .083-.002.134zm-.274.79s.217.025.42.01c.203-.015.315-.04.435-.099-.032.242-.034.476-.034.476.03.312.063.391.13.543.092.126.145.127.212-.007.073-.149.12-.303.136-.537a2.388 2.388 0 00-.057-.472c.14.061.23.077.439.096.214.02.41.01.41.01s-.289-.146-.416-.324c-.126-.176-.099-.146-.19-.373-.112-.005-.675 0-.854 0-.097.207-.107.25-.228.38-.158.17-.403.297-.403.297zm-.393-3.208c.541.233.867.875 1.045 1.76.032.167.04.226.057.413-.117 0-.163.002-.277 0a3.119 3.119 0 00-.098-.37c-.219-.693-.862-.97-.833-.323.01.18.085.28.17.375a2.674 2.674 0 01-.504-.23c-.995-.6-.603-2.07.44-1.625zM15.028.79c-.382.63-.428 1.134-.167 2.004.126.407.264 1.013.322 1.342.077.465.069.509.08.61h.417c.015-.161.027-.347.061-.602.04-.298.159-.92.286-1.352.255-.863.238-1.393-.158-1.993-.145-.222-.338-.406-.425-.406-.087 0-.284.17-.416.397zm1.877 1.783c-.541.232-.866.875-1.044 1.76a2.92 2.92 0 00-.057.413h.277c.025-.126.043-.192.098-.371.218-.693.861-.97.832-.322a.569.569 0 01-.169.374c.104-.025.325-.128.503-.23.995-.6.603-2.07-.44-1.624zM14.694 4.99c.437.002 1.192.006 1.554.004 0-.108.002-.053.003-.14-.267-.002-1.289.002-1.555.002.001.056 0 .083-.002.134zm.129.493c-.158.17-.403.297-.403.297s.217.025.42.01c.203-.015.315-.04.435-.099-.032.242-.034.476-.034.476.03.312.063.391.13.543.092.126.145.127.212-.007.073-.149.12-.303.136-.537a2.388 2.388 0 00-.057-.472c.14.061.23.077.439.096.214.02.41.01.41.01s-.289-.146-.416-.324c-.126-.176-.099-.146-.19-.373-.111-.005-.675 0-.853 0-.098.207-.108.25-.23.38zm-.796-2.911c.541.233.867.875 1.045 1.76.032.167.04.226.057.413-.117 0-.163.002-.277 0a3.117 3.117 0 00-.098-.37c-.219-.693-.862-.97-.833-.323.01.18.085.28.17.375a2.673 2.673 0 01-.504-.23c-.995-.6-.603-2.07.44-1.625zM25.028.79c-.382.63-.428 1.134-.167 2.004.126.407.264 1.013.322 1.342.077.465.069.509.08.61h.417c.015-.161.027-.347.061-.602.04-.298.159-.92.286-1.352.255-.863.238-1.393-.158-1.993-.145-.222-.338-.406-.425-.406-.087 0-.284.17-.416.397zm1.877 1.783c-.541.232-.866.875-1.044 1.76a2.92 2.92 0 00-.057.413h.277c.025-.126.043-.192.098-.371.218-.693.861-.97.832-.322a.569.569 0 01-.169.374c.104-.025.325-.128.503-.23.995-.6.603-2.07-.44-1.624zM24.694 4.99c.437.002 1.192.006 1.554.004 0-.108.002-.053.003-.14-.267-.002-1.289.002-1.555.002.001.056 0 .083-.002.134zm.129.493a1.71 1.71 0 01-.403.297s.217.025.42.01c.203-.015.315-.04.435-.099-.032.242-.034.476-.034.476.03.312.063.391.13.543.092.126.145.127.212-.007.073-.149.12-.303.136-.537a2.388 2.388 0 00-.057-.472c.14.061.23.077.439.096.214.02.41.01.41.01s-.289-.146-.416-.324c-.126-.176-.099-.146-.19-.373-.111-.005-.675 0-.854 0-.097.207-.107.25-.228.38zm-.796-2.911c.541.233.867.875 1.045 1.76.032.167.04.226.057.413-.117 0-.163.002-.277 0a3.117 3.117 0 00-.099-.37c-.218-.693-.86-.97-.832-.323.01.18.085.28.17.375a2.673 2.673 0 01-.504-.23c-.995-.6-.603-2.07.44-1.625z" fill="#FCDD09"/>
  <path d="M11.299 13.128c.21.098.477.175.612.18.16.005.118-.034-.18-.15a3.127 3.127 0 01-.636-.34c-.222-.18-.222-.18-.199-.021.013.091.18.233.403.331z" fill="green"/>
  <path d="M9.994 11.241c.135.542.696 1.538.889 1.577.174.029.174.02.029-.145-.242-.28-.764-1.306-.764-1.5 0-.106-.048-.183-.106-.183-.067 0-.087.096-.048.251zm-5.807-.679c-.003.02.178.16.405.317.228.158.492.382.58.495.15.204 1.004.708 1.084.643.078-.054-1.02-.946-1.485-1.205-.553-.313-.572-.317-.584-.25z" fill="green"/>
  <path d="M4.498 11.306c0 .02.203.126.454.242.252.116.551.29.657.387.184.174 1.111.522 1.179.445.068-.068-1.17-.755-1.671-.929-.6-.213-.619-.213-.619-.145zm4.784.078c0 .106.377.841.599 1.15.125.175.27.271.435.271.241 0 .241 0-.126-.415a12.187 12.187 0 01-.638-.745c-.145-.184-.27-.3-.27-.261zm-1.556 2.977c-.637.252-.772.339-.772.474 0 .058.067.049.174-.038.086-.088.405-.204.695-.271a4.53 4.53 0 00.773-.252l.241-.125h-.29c-.154.01-.53.106-.82.212zm-1.264-1.516c-.164.126-.154.136.203.078.213-.03.522-.087.676-.126.252-.068.232-.077-.202-.087-.29-.01-.56.048-.677.135z" fill="green"/>
  <path d="M4.062 11.829c1.594.29 4.792 1.363 4.599 1.547-.049.049-.947-.174-1.073-.261-.048-.048-.521-.03-1.043.039-.976.106-1.14.193-1.12.59.009.193.009.193.057 0 .087-.358.232-.436.783-.436.599 0 2.241.242 2.966.436.966.27.995.27.676.096-.415-.232-1.043-.657-1.16-.783-.212-.242-4.067-1.306-4.627-1.287-.26.02-.27.02-.058.059z" fill="green"/>
  <path d="M4.795 12.344a.837.837 0 00-.27.455c-.058.28-.058.28.096.096.406-.512.435-.532.937-.541.406-.01.464-.03.27-.087-.405-.126-.81-.097-1.033.077zm4.925.596c.077.136.83.514.888.455.03-.029-.058-.106-.174-.174a1.54 1.54 0 01-.357-.251c-.155-.145-.445-.174-.358-.03zm.057.92c.078.135.831.512.89.454.028-.029-.059-.106-.175-.174a1.54 1.54 0 01-.357-.251c-.155-.145-.445-.174-.358-.03z" fill="green"/>
  <path d="M8.697 12.708c.014-.013.232.059.49.16.257.1.59.194.734.204.253.01 1.147.437 1.138.54-.001.095-1.354-.319-1.828-.56-.569-.283-.582-.297-.534-.344z" fill="green"/>
  <path d="M10.298 13.415c-.18.07-.362.196-.418.286-.067.107-.01.108.222-.01a1.96 1.96 0 01.59-.178c.27-.013.27-.013.098-.12-.098-.062-.307-.056-.492.022zm-4.522-3.26c.3.57 1.517 1.886 2.193 2.39.184.135.512.27.715.3l.377.057-.28-.31c-.454-.493-1.15-1.44-1.372-1.857-.242-.454-.27-.338-.068.242.078.232.387.697.686 1.026.3.338.493.619.445.619-.126 0-.937-.958-1.517-1.79-.628-.909-.657-.938-.483-.435.087.242.28.6.444.793.155.203.251.368.203.368-.096 0-.522-.484-1.053-1.18-.145-.204-.348-.465-.435-.58-.096-.127-.029.038.145.357zm.566 3.743c-.415.097-.638.242-.638.416 0 .068.04.058.087-.019.078-.126.87-.358.947-.28.02.019-.01.164-.067.309-.058.145-.078.29-.049.32.03.038.078-.04.107-.146.115-.416.473-.541 1.333-.464.434.038.918.087 1.072.097.164.01.387.067.502.135.252.135 1.227.145 1.14.01-.028-.049-.212-.116-.415-.145-.193-.03-.599-.126-.898-.204-.6-.154-2.512-.174-3.12-.029zm3.528 1.117c-.728-.13-1.074-.014-1.369.44l-.251.39.323-.306c.439-.427.758-.468 1.547-.238.37.109.683.18.693.164.06-.088-.563-.392-.943-.45z" fill="green"/>
  <path d="M10.068 15.218c-.676.3-.898.59-.888 1.132l.01.464.096-.435c.125-.6.367-.813 1.15-1.064.367-.116.666-.232.666-.252 0-.106-.686-.01-1.034.155z" fill="green"/>
  <path d="M9.94 16.049c-.116.154-.203.357-.203.464 0 .125.049.096.184-.126.106-.174.29-.377.406-.464.222-.155.222-.155.019-.155-.116 0-.29.116-.406.28zm10.445 1.576c.314.136 1.941.547 3.093.884 1.152.338 2.498.727 2.796.769.426-.93-.35.809.093-.245-.575-.146-2.842-.68-3.752-.942-.784-.22-1.896-.563-2.181-.626-.285-.063-.29.055-.049.16z" fill="green"/>
  <path d="M20.584 17.383c.319.126 1.96.48 3.122.777 1.163.297 2.522.638 2.821.67.394-.944-.32.82.085-.248-.58-.127-2.864-.581-3.783-.81-.791-.193-1.915-.497-2.202-.55-.287-.053-.287.065-.043.161zm-.45.417c.306.152 1.91.648 3.042 1.046 1.132.397 2.457.856 2.752.913.474-.906-.391.79.106-.239-.567-.177-2.803-.829-3.698-1.138-.771-.26-1.865-.661-2.146-.739-.281-.078-.291.04-.056.157z" fill="green"/>
  <path d="M19.938 17.998c.298.168 1.874.747 2.984 1.204 1.11.456 2.408.984 2.7 1.056.521-.88-.431.769.119-.233-.557-.206-2.756-.974-3.633-1.33-.758-.3-1.828-.758-2.105-.85-.277-.093-.293.024-.065.153z" fill="green"/>
  <path d="M19.754 18.248c.292.178 1.847.812 2.94 1.307 1.094.495 2.373 1.067 2.662 1.15.551-.861-.458.753.126-.23-.549-.224-2.72-1.07-3.584-1.455-.746-.327-1.8-.822-2.074-.924-.273-.102-.293.014-.07.152z" fill="green"/>
  <path d="M16.495 20.755c.449.313.695.748.671 1.197l-.017.37.148-.365c.16-.381.139-.959-.052-1.387l-.11-.25.352.154c.504.213.835.587.905 1.031l.06.366.069-.387c.078-.407-.064-.968-.339-1.347l-.16-.22.377.076c.536.103.938.4 1.098.82l.136.346-.014-.394c-.008-.414-.263-.933-.61-1.246l-.203-.183.384-.003c.547-.01 1.002.196 1.246.573l.204.31-.095-.382c-.094-.403-.451-.858-.856-1.092l-.237-.137.376-.083c.532-.124 1.02-.017 1.337.302l.264.26-.172-.353c-.176-.375-.62-.746-1.065-.89l-.26-.085.35-.16c.496-.232.995-.228 1.371.017l.313.2-.242-.31c-.25-.33-.76-.6-1.226-.649l-.271-.028.309-.23c.436-.33.925-.43 1.344-.268l.347.13-.301-.253c-.313-.271-.868-.428-1.334-.38l-.271.029.255-.288c.357-.414.815-.614 1.258-.543l.367.055-.347-.184c-.362-.2-.938-.24-1.383-.094l-.26.084.19-.335c.263-.48.67-.77 1.118-.793l.37-.022-.378-.108c-.396-.121-.967-.038-1.372.196l-.237.136.116-.367c.159-.524.495-.893.93-1.008l.357-.1-.392-.026c-.413-.036-.955.164-1.302.477l-.203.183.037-.383c.046-.546.3-.977.7-1.18l.329-.171-.39.055c-.41.05-.899.359-1.174.738l-.16.22-.044-.382c-.067-.543.09-1.017.44-1.3l.286-.235-.37.134c-.39.136-.804.539-.995.967l-.11.25-.122-.366c-.18-.517-.124-1.014.16-1.362l.23-.29-.333.208c-.354.214-.675.694-.773 1.152l-.056.268-.195-.332c-.283-.469-.332-.966-.127-1.366l.166-.332-.283.273c-.302.283-.517.82-.517 1.288v.274l-.26-.284c-.373-.4-.524-.877-.407-1.31l.093-.36-.22.327c-.236.34-.335.909-.237 1.367l.056.268-.312-.224c-.449-.313-.696-.748-.671-1.197l.016-.37-.147.364c-.161.382-.139.96.051 1.387l.111.25-.352-.153c-.504-.213-.835-.587-.905-1.031l-.06-.366-.069.387c-.078.407.063.967.339 1.346l.16.221-.377-.077c-.537-.103-.939-.4-1.099-.82l-.135-.345.014.393c.008.415.263.933.61 1.247l.203.183-.385.003c-.546.01-1-.196-1.245-.574l-.204-.31.095.383c.094.403.451.857.856 1.092l.237.136-.376.083c-.532.125-1.02.017-1.337-.301l-.264-.26.172.353c.176.375.62.745 1.064.89l.26.084-.35.16c-.495.232-.994.229-1.37-.017l-.313-.2.242.31c.25.33.76.6 1.226.65l.271.028-.31.229c-.435.33-.924.43-1.343.269l-.347-.13.301.252c.313.272.868.43 1.334.38l.271-.028-.255.288c-.357.414-.815.614-1.259.543l-.366-.056.347.185c.362.2.938.239 1.383.094l.26-.084-.19.335c-.264.479-.67.77-1.118.793l-.37.022.378.108c.396.12.967.038 1.372-.196l.237-.137-.116.367c-.159.524-.495.894-.93 1.009l-.357.099.392.027c.413.036.954-.164 1.302-.477l.203-.183-.037.383c-.046.545-.3.977-.7 1.18l-.329.17.39-.054c.41-.051.899-.36 1.174-.738l.16-.221.043.382c.068.543-.09 1.018-.439 1.3l-.286.236.37-.135c.39-.135.804-.538.994-.966l.111-.25.122.365c.18.517.124 1.014-.16 1.363l-.23.29.333-.208c.354-.214.675-.695.772-1.153l.057-.267.195.332c.283.468.332.966.127 1.366l-.166.332.283-.273c.302-.283.516-.82.516-1.289v-.273l.26.284c.374.4.525.876.408 1.31l-.094.36.22-.327c.237-.34.335-.91.238-1.367l-.057-.268.313.224z" fill="#FCDD09"/>
</svg>
