<svg width="32" height="24" fill="none" xmlns="http://www.w3.org/2000/svg">
  <mask id="a" maskUnits="userSpaceOnUse" x="0" y="0" width="32" height="24">
    <path fill="#fff" d="M0 0h32v24H0z"/>
  </mask>
  <g mask="url(#a)">
    <path fill-rule="evenodd" clip-rule="evenodd" d="M0 0v24h32V0H0z" fill="#F7FCFF"/>
    <mask id="b" maskUnits="userSpaceOnUse" x="0" y="0" width="32" height="24">
      <path fill-rule="evenodd" clip-rule="evenodd" d="M0 0v24h32V0H0z" fill="#fff"/>
    </mask>
    <g mask="url(#b)" fill-rule="evenodd" clip-rule="evenodd" fill="#4564F9">
      <path d="M0 0v8h32V0H0zm0 16v8h32v-8H0zm16.402-3.33l-.866.448.165-.947-.701-.74h.969l.433-.931.433.93h.97l-.702.74.166.948-.867-.447zm-6.084-2.167l-.866.447.165-.947-.701-.74h.969l.433-.931.433.93h.97l-.702.74.166.948-.867-.447zm0 4.2l-.866.447.165-.947-.701-.74h.969l.433-.931.433.93h.97l-.702.74.166.948-.867-.447zm12-4.2l-.866.447.165-.947-.701-.74h.969l.433-.931.433.93h.97l-.702.74.166.948-.867-.447zm0 4.2l-.866.447.165-.947-.701-.74h.969l.433-.931.433.93h.97l-.702.74.166.948-.867-.447z"/>
    </g>
  </g>
</svg>
