<svg xmlns="http://www.w3.org/2000/svg" fill="none" viewBox="0 0 32 24"><mask id="HND_svg__a" width="32" height="24" x="0" y="0" maskUnits="userSpaceOnUse"><path fill="#fff" d="M0 0h32v24H0z"/></mask><g mask="url(#HND_svg__a)"><path fill="#F7FCFF" fill-rule="evenodd" d="M0 0v24h32V0H0z" clip-rule="evenodd"/><mask id="HND_svg__b" width="32" height="24" x="0" y="0" maskUnits="userSpaceOnUse"><path fill="#fff" fill-rule="evenodd" d="M0 0v24h32V0H0z" clip-rule="evenodd"/></mask><g fill="#4564F9" fill-rule="evenodd" clip-rule="evenodd" mask="url(#HND_svg__b)"><path d="M0 0v8h32V0H0zm0 16v8h32v-8H0zm16.402-3.33l-.866.448.165-.947-.701-.74h.969l.433-.931.433.93h.97l-.702.74.166.948-.867-.447zm-6.084-2.167l-.866.447.165-.947-.701-.74h.969l.433-.931.433.93h.97l-.702.74.166.948-.867-.447zm0 4.2l-.866.447.165-.947-.701-.74h.969l.433-.931.433.93h.97l-.702.74.166.948-.867-.447zm12-4.2l-.866.447.165-.947-.701-.74h.969l.433-.931.433.93h.97l-.702.74.166.948-.867-.447zm0 4.2l-.866.447.165-.947-.701-.74h.969l.433-.931.433.93h.97l-.702.74.166.948-.867-.447z"/></g></g></svg>