<svg width="32" height="24" fill="none" xmlns="http://www.w3.org/2000/svg">
  <mask id="a" maskUnits="userSpaceOnUse" x="0" y="0" width="32" height="24">
    <path fill="#fff" d="M0 0h32v24H0z"/>
  </mask>
  <g mask="url(#a)">
    <path fill-rule="evenodd" clip-rule="evenodd" d="M0 0h32v24H0V0z" fill="#F7FCFF"/>
    <path d="M-2.701 1.245L-4.75.006v24.788l2.049-1.239 16.537-10 1.91-1.155-1.91-1.155-16.537-10z" fill="#F7FCFF" stroke="#E31D1C" stroke-width="2.7"/>
    <path d="M34.92 1.233L36.95.055v24.69l-2.028-1.178-17.219-10-2.01-1.167 2.01-1.167 17.219-10z" fill="#F7FCFF" stroke="#E31D1C" stroke-width="2.7"/>
    <path fill-rule="evenodd" clip-rule="evenodd" d="M13.675 4.703s-.859 3.798 2.106 5.257c0 0 2.846-1.551 2.207-5.257 0 0-1.223-.409-2.195-.409-.972 0-2.118.409-2.118.409z" fill="#E31D1C"/>
    <path fill-rule="evenodd" clip-rule="evenodd" d="M13.982 5.499s.317-.14.474 0c.157.14.286-.012.286-.097 0-.084.25-.375.25-.14 0 .237-.078.37.14.37.22 0 1.206-.326 1.443-.23.236.097.417.073.357-.066-.06-.138-.214-.224-.512-.149-.298.076-.227.15-.485.15-.257 0-.543-.074-.543-.074s.08-.124.374-.036.699-.11.809-.11c.11 0 .413-.005.443.07.03.076.213.145.074.215-.14.07-.37.115-.212.205.159.09.523.072.54.166.018.094.19.234.121.234-.07 0-.194.132-.31.092-.117-.04-.131-.076-.02-.108.112-.033.111-.17.02-.17-.093 0-.048.048-.258 0-.21-.048-.487-.101-.47 0 .016.101.153.257-.1.278-.252.02-.37.104-.418.037-.05-.067-.225-.157-.087-.185.138-.029.27.097.32.076.049-.02.162-.032.067-.119-.094-.087-.25-.138-.105-.203.144-.066.03-.067-.245.068-.274.135-.427.25-.668.234-.241-.016-.331.005-.409-.016-.077-.022-.455.242-.563.175-.109-.067-.46-.093-.397-.175.064-.083.148-.125.243-.083.094.043.188.085.252.043.063-.043.247-.188.201-.217-.046-.03-.002-.127-.263-.127-.262 0-.354.109-.416.04-.063-.069.067-.148.067-.148zm.262 1.248s.279-.124.417 0c.138.123.25-.01.25-.085 0-.074.22-.33.22-.123 0 .208-.068.325.124.325.193 0 1.06-.287 1.268-.202.208.085.367.064.314-.058-.052-.121-.188-.197-.45-.131s-.2.131-.426.131c-.226 0-.478-.065-.478-.065s.071-.109.33-.031c.257.077.613-.096.71-.096.097 0 .364-.005.39.061.026.066.187.127.065.189-.123.062-.325.1-.186.18.139.079.46.064.474.146.016.082.168.205.107.205-.061 0-.171.117-.274.081-.102-.035-.114-.066-.016-.095.098-.028.097-.149.016-.149-.08 0-.041.042-.226 0-.184-.042-.428-.089-.414 0 .015.09.135.226-.086.244-.222.018-.326.092-.369.033-.043-.06-.197-.138-.076-.163.121-.025.237.086.28.068.045-.019.144-.029.06-.105-.082-.077-.219-.122-.092-.18.126-.057.026-.058-.215.061s-.376.22-.588.205c-.211-.014-.29.005-.359-.014-.068-.02-.4.213-.495.154-.096-.059-.404-.081-.349-.154.056-.072.13-.11.213-.072.083.037.166.074.222.037.056-.037.217-.165.177-.19-.04-.026-.002-.112-.232-.112s-.311.096-.366.035c-.054-.06.06-.13.06-.13zm.37 1.266s.212-.093.316 0c.105.094.19-.007.19-.064 0-.056.167-.25.167-.093s-.052.246.094.246.804-.217.962-.153c.157.064.278.049.238-.044-.04-.092-.143-.15-.342-.099-.198.05-.151.1-.323.1-.171 0-.362-.05-.362-.05s.053-.082.25-.024c.195.06.465-.072.539-.072.073 0 .275-.004.295.046.02.05.142.096.05.143-.094.047-.247.077-.142.137.106.06.349.048.36.11.012.063.127.156.08.156-.045 0-.129.088-.207.062-.077-.027-.086-.05-.012-.072.075-.022.074-.113.012-.113-.061 0-.031.032-.17 0-.14-.032-.326-.068-.315 0 .011.067.102.17-.066.185-.168.013-.246.069-.28.024-.032-.045-.149-.104-.057-.123.092-.02.18.065.213.051.033-.014.108-.021.045-.08-.062-.057-.166-.092-.07-.135.096-.044.02-.044-.163.046s-.285.166-.445.155c-.161-.01-.221.004-.273-.01-.052-.015-.303.16-.376.116-.072-.044-.306-.062-.264-.117.042-.054.099-.083.162-.054.063.028.125.056.168.028.042-.028.165-.125.134-.145-.03-.02-.001-.084-.176-.084-.174 0-.236.072-.277.027-.042-.046.045-.1.045-.1z" fill="#FFD100"/>
  </g>
</svg>
