<svg width="32" height="24" fill="none" xmlns="http://www.w3.org/2000/svg">
  <mask id="a" maskUnits="userSpaceOnUse" x="0" y="0" width="32" height="24">
    <path fill="#fff" d="M0 0h32v24H0z"/>
  </mask>
  <g mask="url(#a)">
    <path fill-rule="evenodd" clip-rule="evenodd" d="M0 0v24h32V0H0z" fill="#E31D1C"/>
    <mask id="b" maskUnits="userSpaceOnUse" x="0" y="0" width="32" height="24">
      <path fill-rule="evenodd" clip-rule="evenodd" d="M0 0v24h32V0H0z" fill="#fff"/>
    </mask>
    <g mask="url(#b)">
      <path fill-rule="evenodd" clip-rule="evenodd" d="M0 0v12h32V0H0z" fill="#2E42A5"/>
      <path fill-rule="evenodd" clip-rule="evenodd" d="M4.798 11.053s1.207.751 4.003.751c2.796 0 4.28-.75 4.28-.75S10.89 9.777 8.929 9.777c-1.96 0-4.13 1.275-4.13 1.275z" fill="#000"/>
      <path d="M4.87 6.742l-.216.126.073.124h8.652l.055-.174-.238-.076.238.075h0l.001-.002.002-.006.006-.02.02-.071a5.192 5.192 0 00.17-1.102c.026-.648-.08-1.493-.71-2.04-.64-.558-1.454-.471-2.156-.296-.24.06-.483.135-.71.205l-.311.095c-.322.094-.59.156-.805.156-.215 0-.451-.057-.729-.145-.084-.026-.173-.056-.266-.087-.2-.067-.416-.139-.633-.196-.66-.173-1.42-.239-2.262.239-.44.248-.69.594-.81.974-.116.372-.101.76-.04 1.102A4.11 4.11 0 004.6 6.764l.04.075.01.02.004.006v.002h.001l.217-.125z" fill="#FFD83D" stroke="#000" stroke-width=".5"/>
      <path d="M3.886 6.906l.117.221-.117-.221h.001l.002-.001.005-.003.017-.009.064-.03a4.7 4.7 0 01.243-.103c.214-.084.532-.195.955-.305.846-.22 2.11-.437 3.802-.437 1.693 0 2.957.217 3.802.437.423.11.74.221.955.305a4.7 4.7 0 01.307.133l.018.009.005.003h.002l-.116.222.116-.221.195.103-.077.206-1.185 3.168-.083.22-9.028-3.697zm0 0l-.193.102.075.205L4.92 10.38l.08.221.226-.067-1.34-3.629zm8.803 3.628h0l-7.462.001h0l.004-.001.016-.005.061-.017c.055-.015.135-.037.238-.063.205-.052.5-.122.854-.192.71-.14 1.652-.28 2.594-.28s1.866.14 2.558.28a15.093 15.093 0 011.059.254l.06.018.014.004.003.001h.001zM8.874 4.265c.56 0 .922-.547.922-1.095 0-.549-.362-1.095-.922-1.095s-.922.546-.922 1.095c0 .548.362 1.095.922 1.095z" fill="#FFD83D" stroke="#000" stroke-width=".5"/>
      <mask id="c" maskUnits="userSpaceOnUse" x="7.118" y="-1" width="4" height="5" fill="#000">
        <path fill="#fff" d="M7.118-1h4v5h-4z"/>
        <path fill-rule="evenodd" clip-rule="evenodd" d="M9.126 0h-.504l.065.923-.57-.078v.634l.578-.08-.073 1.454h.504l-.075-1.456.58.082V.845l-.57.082L9.127 0z"/>
      </mask>
      <path fill-rule="evenodd" clip-rule="evenodd" d="M9.126 0h-.504l.065.923-.57-.078v.634l.578-.08-.073 1.454h.504l-.075-1.456.58.082V.845l-.57.082L9.127 0z" fill="#FFD83D"/>
      <path d="M8.622 0v-.5h-.537l.038.535L8.622 0zm.504 0l.499.035.037-.535h-.536V0zm-.44.923l-.067.495.61.083-.044-.613-.498.035zM8.119.845L8.185.35 7.618.273v.572h.5zm0 .634h-.5v.574l.568-.078-.068-.496zm.577-.08l.5.026.03-.603-.598.082.068.496zm-.073 1.454l-.5-.025-.026.525h.526v-.5zm.504 0v.5h.526l-.027-.526-.499.026zm-.075-1.456l.07-.495-.6-.085.031.606.5-.026zm.58.082l-.071.495.57.081V1.48h-.5zm0-.634h.5V.268L9.558.35l.071.495zm-.57.082L8.564.892l-.043.618.613-.088-.071-.495zM8.622.5h.505v-1h-.504v1zm.564.388l-.064-.923-.998.07.065.923.997-.07zM8.05 1.34l.57.077.134-.99L8.185.35l-.135.99zm.568.138V.845h-1v.634h1zm.01-.575l-.579.08.137.99.578-.079-.137-.99zm.493 1.974l.074-1.453-.999-.05-.074 1.453 1 .05zm.005-.525h-.504v1h.504v-1zm-.574-.93l.075 1.455.998-.05-.074-1.456-.999.05zM9.7.984L9.121.902l-.14.99.579.082.14-.99zM9.13.845v.634h1V.845h-1zm.003.577L9.7 1.34 9.56.35l-.568.082.142.99zM8.627-.035l-.064.927.998.07.064-.927-.998-.07z" fill="#000" mask="url(#c)"/>
    </g>
  </g>
</svg>
