<svg width="32" height="24" fill="none" xmlns="http://www.w3.org/2000/svg">
  <mask id="a" maskUnits="userSpaceOnUse" x="0" y="0" width="32" height="24">
    <path fill="#fff" d="M0 0h32v24H0z"/>
  </mask>
  <g mask="url(#a)">
    <path fill-rule="evenodd" clip-rule="evenodd" d="M0 0h34v24H0V0z" fill="#2993EC"/>
    <path fill-rule="evenodd" clip-rule="evenodd" d="M6.213 11.583c0 5.293 4.382 9.584 9.787 9.584 5.405 0 9.787-4.29 9.787-9.584C25.787 6.291 21.405 2 16 2c-5.405 0-9.787 4.29-9.787 9.583zm17.447 0c0 4.143-3.43 7.5-7.66 7.5s-7.66-3.357-7.66-7.5c0-4.142 3.43-7.5 7.66-7.5s7.66 3.358 7.66 7.5z" fill="#F1F9FF"/>
    <path fill-rule="evenodd" clip-rule="evenodd" d="M7.064 11.583c0 4.833 4 8.75 8.936 8.75 4.935 0 8.936-3.917 8.936-8.75 0-4.832-4-8.75-8.936-8.75-4.935 0-8.936 3.918-8.936 8.75zm17.447 0c0 4.603-3.81 8.334-8.511 8.334-4.7 0-8.51-3.731-8.51-8.334C7.49 6.981 11.3 3.25 16 3.25c4.7 0 8.51 3.731 8.51 8.333z" fill="#E31D1C"/>
    <path fill-rule="evenodd" clip-rule="evenodd" d="M16 2.208c-.108.223-.162.54-.162.95 0 .41-.159.82-.476 1.231a9.603 9.603 0 01-.089-1.231c0-.37.242-.685.727-.95zm2.236.339c-.155.193-.279.489-.371.888-.092.4-.34.764-.741 1.094.044-.455.108-.861.19-1.22.083-.36.39-.614.922-.762zm1.537 1.62c.186-.365.378-.622.575-.771-.551.015-.911.187-1.078.515a9.605 9.605 0 00-.48 1.138c.469-.222.797-.516.983-.881zm2.418.517c-.226.101-.47.309-.734.623s-.65.527-1.157.637c.246-.384.487-.718.724-1 .237-.282.626-.37 1.167-.26zm.637 2.112c.328-.247.613-.394.855-.442-.502-.228-.9-.231-1.195-.01a9.61 9.61 0 00-.93.813c.519.006.942-.114 1.27-.36zm1.919 1.54c-.248-.012-.56.062-.938.222-.377.16-.817.175-1.32.043.394-.231.76-.419 1.1-.563.34-.144.725-.045 1.158.298zm-.395 2.155c.404-.071.725-.073.963-.006-.344-.43-.698-.615-1.06-.55a9.616 9.616 0 00-1.198.3c.46.242.892.327 1.295.256zM6.084 9.77c.2.145.503.253.907.324.404.071.78.299 1.13.683a9.612 9.612 0 01-1.228-.127c-.363-.064-.633-.357-.809-.88zm1.537-1.583c-.377-.16-.648-.333-.81-.52.053.55.25.896.59 1.04.339.144.728.277 1.168.4-.254-.453-.57-.76-.948-.92zm.406-2.413c.113.22.333.453.66.7.328.247.56.62.698 1.122a9.605 9.605 0 01-1.037-.67c-.295-.223-.402-.606-.32-1.152zm2.098-.726c-.264-.314-.426-.591-.486-.831-.202.514-.184.912.053 1.194.237.283.524.578.86.887-.021-.52-.163-.936-.427-1.25zm1.448-1.982c.005.247.1.553.286.919.187.365.232.803.135 1.314a9.608 9.608 0 01-.638-1.058c-.167-.328-.095-.72.217-1.175zm2.228.279c-.092-.4-.11-.72-.056-.962-.413.367-.577.73-.494 1.089.082.36.204.753.363 1.18.217-.472.28-.908.187-1.307z" fill="#FDDA33"/>
    <path fill-rule="evenodd" clip-rule="evenodd" d="M14.586 5.75a.574.574 0 00-.561.697l.387 1.768a.574.574 0 00.256.364.573.573 0 00-.218.386L13.063 20.61a.53.53 0 00.257.53c.522.299 1.654.86 2.786.86 1.133 0 2.265-.561 2.787-.86a.531.531 0 00.257-.53L17.763 8.965a.574.574 0 00-.218-.386.574.574 0 00.256-.364l.387-1.768a.575.575 0 00-.561-.697h-3.04z" fill="#A7A7A7"/>
    <path d="M6.52 12.013a.32.32 0 01.398-.208c.168.05.263.226.212.39-.09.286-.09.708.009 1.26.038.211.082.375.138.52.022.057.044.11.075.175l.079.169c.095.216.137.405.137.682a.316.316 0 01-.319.313.316.316 0 01-.32-.313.94.94 0 00-.084-.434 13.71 13.71 0 00-.074-.158 3.206 3.206 0 01-.092-.216 3.413 3.413 0 01-.169-.63c-.114-.64-.114-1.155.01-1.55z" fill="#73BE4A"/>
    <path fill-rule="evenodd" clip-rule="evenodd" d="M16.213 16.18l-4.115 2.803 1.452-4.698-3.995-2.966 5.012-.1 1.646-4.636 1.646 4.636 5.011.1-3.994 2.966 1.451 4.698-4.114-2.804z" fill="#F7FCFF"/>
    <path d="M25.56 12.43a.32.32 0 00-.4-.208.311.311 0 00-.21.39c.088.286.088.708-.01 1.26a2.812 2.812 0 01-.138.519c-.022.057-.045.11-.075.175l-.079.17a1.546 1.546 0 00-.137.682c0 .173.143.312.319.312.176 0 .319-.14.319-.312a.94.94 0 01.085-.434l.074-.159c.036-.077.064-.142.092-.215a3.4 3.4 0 00.169-.631c.114-.64.114-1.155-.01-1.55z" fill="#73BE4A"/>
    <path d="M16.06 3.148s1.165.518.662 1.335m.19-1.335s1.164.518.661 1.335" stroke="#73BE4A" stroke-linecap="round" stroke-linejoin="round"/>
    <path d="M9.26 6.357a.274.274 0 01.396-.099.33.33 0 01.09.431c-.162.28-.246.665-.246 1.159 0 .172-.129.312-.287.312-.159 0-.288-.14-.288-.312 0-.603.11-1.102.335-1.491z" fill="#73BE4A"/>
    <path d="M8.808 9.213c0 .172-.128.312-.287.312-.158 0-.287-.14-.287-.312v-.89c0-.63.099-1.127.307-1.489a.274.274 0 01.396-.099.329.329 0 01.091.43c-.143.25-.22.635-.22 1.157v.89zm14.676-.417c0 .172.129.312.287.312.159 0 .288-.14.288-.312v-.89c0-.63-.1-1.126-.308-1.488a.274.274 0 00-.395-.1.329.329 0 00-.091.431c.142.248.22.634.22 1.157v.89z" fill="#73BE4A"/>
    <path d="M24.335 10.254c0 .173.129.313.287.313.16 0 .288-.14.288-.313v-.89c0-.63-.1-1.126-.308-1.488a.274.274 0 00-.395-.1.329.329 0 00-.091.431c.142.249.22.634.22 1.157v.89z" fill="#73BE4A"/>
  </g>
</svg>
