<svg xmlns="http://www.w3.org/2000/svg" fill="none" viewBox="0 0 32 24"><mask id="MYS_svg__a" width="32" height="24" x="0" y="0" mask-type="alpha" maskUnits="userSpaceOnUse"><path fill="#fff" d="M0 0H32V24H0z"/></mask><g mask="url(#MYS_svg__a)"><path fill="#F7FCFF" fill-rule="evenodd" d="M0 0H32V24H0V0Z" clip-rule="evenodd"/><path fill="#E31D1C" d="M.027 5H32.027V7.9H.027z"/><path fill="#E31D1C" d="M.027 10.2H32.027V13.1H.027z"/><path fill="#E31D1C" d="M.112 15.2H32.112V17.7H.112z"/><path fill="#E31D1C" d="M.112 20.2H32.112V22.9H.112z"/><path fill="#E31D1C" fill-rule="evenodd" d="M0 0H32V2.5H0V0Z" clip-rule="evenodd"/><path fill="#3D58DB" fill-rule="evenodd" d="M0 0H16V12H0V0Z" clip-rule="evenodd"/><path fill="#FECA00" fill-rule="evenodd" d="M3.59351 6.20228C3.59351 7.5785 4.24173 8.87992 5.56048 8.87992C7.53906 8.87992 7.92399 8.45809 8.84724 7.87612C9.06552 8.36639 8.32926 10.4645 5.53348 10.4645C3.29722 10.4195 1.48999 8.62294 1.48999 6.20228C1.48999 3.42377 3.53357 1.92322 5.47736 1.94021C7.19338 1.94021 9.01341 2.91396 8.95764 4.15619C8.14909 3.36634 7.27115 3.36634 5.80966 3.36634C4.34818 3.36634 3.59351 4.82588 3.59351 6.20228Z" clip-rule="evenodd"/><path fill="#FECA00" fill-rule="evenodd" d="M11 7.30005L10.0729 8.65322L10.1183 7.01357L8.57295 7.5634L9.57342 6.26357L8 5.80005L9.57342 5.33652L8.57295 4.03669L10.1183 4.58652L10.0729 2.94688L11 4.30005L11.9271 2.94688L11.8817 4.58652L13.4271 4.03669L12.4266 5.33652L14 5.80005L12.4266 6.26357L13.4271 7.5634L11.8817 7.01357L11.9271 8.65322L11 7.30005Z" clip-rule="evenodd"/></g></svg>