<svg xmlns="http://www.w3.org/2000/svg" fill="none" viewBox="0 0 32 24"><path fill="#2E42A5" fill-rule="evenodd" d="M0 0v24h32V0H0z" clip-rule="evenodd"/><mask id="NRU_svg__a" width="32" height="24" x="0" y="0" maskUnits="userSpaceOnUse"><path fill="#fff" fill-rule="evenodd" d="M0 0v24h32V0H0z" clip-rule="evenodd"/></mask><g fill-rule="evenodd" clip-rule="evenodd" mask="url(#NRU_svg__a)"><path fill="#FECA00" d="M0 8v4h32V8H0z"/><path fill="#F7FCFF" d="M8.83 19.58l-1.545 2.005-.072-2.53-2.428.714 1.43-2.09-2.385-.85 2.384-.85-1.43-2.088 2.43.714.07-2.53L8.83 14.08l1.545-2.006.071 2.53 2.429-.713-1.43 2.089 2.385.85-2.385.85 1.43 2.089-2.429-.715-.071 2.53L8.83 19.58z"/></g></svg>