<svg width="32" height="24" fill="none" xmlns="http://www.w3.org/2000/svg">
  <mask id="a" maskUnits="userSpaceOnUse" x="0" y="0" width="32" height="24">
    <path fill="#fff" d="M0 0h32v24H0z"/>
  </mask>
  <g mask="url(#a)">
    <path fill-rule="evenodd" clip-rule="evenodd" d="M0 0v24h32V0H0z" fill="#2E42A5"/>
    <mask id="b" maskUnits="userSpaceOnUse" x="0" y="0" width="32" height="24">
      <path fill-rule="evenodd" clip-rule="evenodd" d="M0 0v24h32V0H0z" fill="#fff"/>
    </mask>
    <g mask="url(#b)">
      <path fill="#2B409A" d="M0 0h18v14H0z"/>
      <mask id="c" maskUnits="userSpaceOnUse" x="0" y="0" width="18" height="14">
        <path fill="#fff" d="M0 0h18v14H0z"/>
      </mask>
      <g mask="url(#c)">
        <path d="M-2.004 13l3.96 1.737L18.09 1.889l2.09-2.582-4.236-.58-6.58 5.536-5.297 3.73L-2.004 13z" fill="#F7FCFF"/>
        <path d="M-1.462 14.217l2.018 1.008L19.429-.933h-2.833l-18.058 15.15z" fill="#F50100"/>
        <path d="M20.004 13l-3.96 1.737L-.09 1.889-2.18-.693l4.236-.58 6.58 5.536 5.297 3.73L20.004 13z" fill="#F7FCFF"/>
        <path d="M19.87 13.873l-2.019 1.009-8.036-6.918-2.383-.773L-2.38-.684H.453l9.807 7.688 2.605.927 7.004 5.942z" fill="#F50100"/>
        <mask id="d" maskUnits="userSpaceOnUse" x="-2" y="-2" width="22" height="18" fill="#000">
          <path fill="#fff" d="M-2-2h22v18H-2z"/>
          <path fill-rule="evenodd" clip-rule="evenodd" d="M9.985 0h-2v6H0v2h7.985v6h2V8H18V6H9.985V0z"/>
        </mask>
        <path fill-rule="evenodd" clip-rule="evenodd" d="M9.985 0h-2v6H0v2h7.985v6h2V8H18V6H9.985V0z" fill="#F50100"/>
        <path d="M7.985 0v-1.5h-1.5V0h1.5zm2 0h1.5v-1.5h-1.5V0zm-2 6v1.5h1.5V6h-1.5zM0 6V4.5h-1.5V6H0zm0 2h-1.5v1.5H0V8zm7.985 0h1.5V6.5h-1.5V8zm0 6h-1.5v1.5h1.5V14zm2 0v1.5h1.5V14h-1.5zm0-6V6.5h-1.5V8h1.5zM18 8v1.5h1.5V8H18zm0-2h1.5V4.5H18V6zM9.985 6h-1.5v1.5h1.5V6zm-2-4.5h2v-3h-2v3zm1.5 4.5V0h-3v6h3zM0 7.5h7.985v-3H0v3zm1.5.5V6h-3v2h3zm6.485-1.5H0v3h7.985v-3zm1.5 7.5V8h-3v6h3zm.5-1.5h-2v3h2v-3zM8.485 8v6h3V8h-3zM18 6.5H9.985v3H18v-3zM16.5 6v2h3V6h-3zM9.985 7.5H18v-3H9.985v3zM8.485 0v6h3V0h-3z" fill="#F7FCFF" mask="url(#d)"/>
      </g>
      <path fill-rule="evenodd" clip-rule="evenodd" d="M20.616 10.757s.099 1.095-.118 1.715c-.216.62-.326.98-.326.584 0-.397-.152-.711-.274-.711-.123 0-.026.393-.15.393-.122 0-.545.068-.545-.163 0-.23-.056.619.219.694.274.076-.134.312-.316.239 0 0 .75.243 1.043.45 0 0 .881 1.1 1.706.967 0 0-1.123-.388-.925-1.128.198-.74.925-.847.925-.847s.34.114.33.413c-.01.299.25-.094.25-.094s.041-.377-.005-.47c-.046-.091.781-.27.834-.658 0 0-.846.038-.904-.061-.058-.1.262-.257.162-.451-.1-.195-1.592 1.11-1.592 1.11s.515-.889.515-1.365c0-.477-.13-.803-.515-.803-.384 0-.314.186-.314.186zm7.768.26c-.002.002 0 .003.002.002.056-.055.398-.37.685-.12.313.271-.158.536-.158.536s.22.214.472.214a.318.318 0 00.313-.214s.02.475.84.655c0 0 .294-.42 0-.65 0 0 .347-.072.322-.353 0 0-.285.097-.488-.126s-.598-.325-.886-.274c-.73-.263-1.058.253-1.102.33z" fill="#5EAA22"/>
      <path fill-rule="evenodd" clip-rule="evenodd" d="M23.404 13.415s.849 1.597.318 1.928c-.53.331 2.524.096 2.812 0 .288-.095-.058-.599-.378-.739-.319-.14-1.631-.605-1.98-.955-.35-.351-.136-.476.145-.822.281-.347 1.322-.485 1.322-.809 0-.323.66-1.659 1.122-1.76.461-.1.212-.259.106-.259s-.744.658-.986.54c-.242-.12-.271-.11 0-.398.271-.286.476-.616.117-.379s-.95.613-1.235.613c-.284 0-1.296-.128-1.17.163.125.292.178.797.724 1.139.546.341.309.591-.145.92-.454.33-.772.818-.772.818z" fill="#96877D"/>
      <path d="M29.039 11.303l-1.619 3.245s-.047.917 1.11.306 1.111-1.044 1.445-1.044c.333 0 .44-.186.44-.186l-.223-.174s-.025-.319.115-.39c0 0-.276-.152-.315-.026-.04.127-.234-.265-.124-.265 0 0-.244.394-.295.548 0 0-.352-.143-.335-.807a3.384 3.384 0 00-.2-1.207zm-7.703-.514s-.824.192-.735.391c.09.2.22-.005-.183.235 0 0-.71.548-.863.489-.155-.06.109.138.109-.489 0-.626-.412-.116 0-.534.411-.419.556-.092.754-.333.198-.24.02-.113.556-.113.537 0 .362.354.362.354zm2.514 3.225s-2.306 1.813-2.768 1.948c-.46.136.949-.037 1.293-.276.345-.24 1.476-1.672 1.476-1.672z" fill="#FFD018"/>
      <path fill-rule="evenodd" clip-rule="evenodd" d="M28.425 17.195s.221 1.428-.357 1.287c-.578-.14-.818-.213-.818-.213s.212.666.515.666c0 0 .516 1.006.318 1.323 0 0 .889-.721.745-1.295-.144-.573.23.095.23.095s.327.158.564-.019c.236-.176-.003-.098-.24-.434-.236-.336-.178-1.28-.898-1.768-.719-.49-.887-.474-.887-.474s-.53-.866-.212-.809c0 0 2.275.78 2.334.98.06.2.663.163.361-.408-.302-.572-1.928-.916-2.121-1.078-.194-.16-.014-.772-.361-.905-.348-.133-1.298-1.078-1.297-1.534 0-.455-.446-.67-.835-.67-.388 0-1.12-.112-1.429-.112-.31 0-.597.517-.299.517.299 0 .044.968-.456 1.18-.5.211-.887.515-1.457.515-.571 0 .808.493 1.028.298.22-.194.147-.484.885-.813.739-.33 1.443-.525 1.354-.262-.09.262.138.7.486.542.348-.16.46-.56.46-.28s.532 1.717.94 2.278c.407.561 1.447 1.393 1.447 1.393z" fill="#5EAA22"/>
      <path d="M23.571 11.945s-.27.431 0 .431.706 0 .44-.215c-.264-.216-.44-.216-.44-.216zm.904-.01s.001.287.189.287c.187 0 .354.286.354 0 0-.287.26-.192-.141-.287-.402-.095-.402 0-.402 0zM25.63 12s-.181.137-.09.38c.09.242.294.723 0 .723-.296 0-.538.173-.308.173.23 0 .64.173.64 0s.167.285.167 0v-.59c0-.167.166-.215 0-.45-.167-.235-.41-.235-.41-.235zm.417 1.672s.377 1.185.582 1.338c.204.153.296 1.44.386 1.58.09.14 1.315.847 1.315 1.226s.377-.292.188-.667c-.188-.375-.782-1.175-1.209-1.349-.427-.174-.373-.596-.462-.893-.09-.297.53.24 0-.433-.532-.673-.518-.312-.368-.312.15 0 .3-.08.15-.184-.15-.105-.582-.306-.582-.306zm-3.993 2.444s-1.223 2.161-1.442 2.273c-.218.111-.38.134-.492 0-.112-.135-.123.36 0 .496.123.135.492.135.697-.106 0 0 .033.608.352 1.067.32.458.453.331.453.59 0 .26.076.603.173.603.098 0 .173.815 0 .815s.401.067.651-.137c.25-.204.358-.36.304-.36-.053 0-.696-.337-.696-.577 0-.239-.432-.426-.432-.782 0-.355-.224-.777-.224-.945 0-.168.192.065.397-.095.206-.159.26-.57.26-.57s-.325.218-.433.11c-.108-.11-.449-.324-.224-.692.224-.367.656-1.69.656-1.69z" fill="#FFD018"/>
      <path fill-rule="evenodd" clip-rule="evenodd" d="M24.174 9.302s-.438.195-.292.485c.146.29.199.417.292.353.094-.064.75-.185.603-.511-.147-.327-.455-.327-.455-.327h-.148z" fill="#5EAA22"/>
      <path d="M25.694 9.146s-.579-.256-.386 0c.193.256.44.39.617.39.178 0 .547-.052.362-.156-.184-.103-.593-.234-.593-.234z" fill="#FFD018"/>
      <path fill-rule="evenodd" clip-rule="evenodd" d="M19.981 15.8c.003-.015-.015-.026-.027-.015-.12.115-.481.498-.328.831.183.398.366.536.366.536s.111.608.342.774c0 0 .31-.016.324-.49 0 0 .526-.154.68.174 0 0-.102.037-.102.316s.238.58.238.58.109-.96.598-1.58c.49-.62.63-.743.63-.743v-.697s-1.013.825-1.228 1.51c0 0-.51.017-.717-.07-.207-.088.259-.232 0-.544-.258-.312-.14.44-.423.234-.443-.123-.383-.65-.353-.815z" fill="#5EAA22"/>
      <path fill-rule="evenodd" clip-rule="evenodd" d="M22.187 15.195h5.184v3.167s-.422 2.589-2.68 3.864c0 0-2.187-1.293-2.504-3.864v-3.167z" fill="#5EAA22"/>
      <mask id="e" maskUnits="userSpaceOnUse" x="22" y="15" width="6" height="8">
        <path fill-rule="evenodd" clip-rule="evenodd" d="M22.187 15.195h5.184v3.167s-.422 2.589-2.68 3.864c0 0-2.187-1.293-2.504-3.864v-3.167z" fill="#fff"/>
      </mask>
      <g mask="url(#e)">
        <path fill-rule="evenodd" clip-rule="evenodd" d="M24.652 15.024l-2.265 4.7 3.071-2.79 2.115 3.505v-5.415l-2.115 1.733-.806-1.733z" fill="#58A5FF"/>
        <path d="M24.58 18.414a.169.169 0 01.338 0v3.018a.169.169 0 11-.338 0v-3.018z" fill="#FFD018"/>
        <path d="M23.992 19.158a.166.166 0 010-.332h1.528a.166.166 0 110 .332h-1.527zm.824 2.331l-.131.106c-.193-.234-.369-.347-.524-.347-.229 0-.415-.19-.567-.553l.156-.064c.129.306.268.45.411.45.216 0 .433.138.655.408z" fill="#FFD018"/>
        <path fill-rule="evenodd" clip-rule="evenodd" d="M23.443 20.12c0-.002-.002-.001-.002 0v.816c0 .002 0 .002.002.002l.614-.253a.002.002 0 000-.002l-.614-.564z" fill="#FFD018"/>
        <path d="M24.677 21.489l.13.106c.194-.234.37-.347.525-.347.229 0 .415-.19.566-.553l-.156-.064c-.128.306-.268.45-.41.45-.216 0-.433.138-.655.408z" fill="#FFD018"/>
        <path fill-rule="evenodd" clip-rule="evenodd" d="M26.05 20.12a.002.002 0 01.002 0v.816c0 .002 0 .002-.002.002l-.614-.253v-.002l.613-.564z" fill="#FFD018"/>
        <path fill="#fff" d="M24.408 17.059h.676v1.007h-.676z"/>
      </g>
    </g>
  </g>
</svg>
