<svg width="32" height="24" fill="none" xmlns="http://www.w3.org/2000/svg">
  <mask id="a" maskUnits="userSpaceOnUse" x="0" y="0" width="32" height="24">
    <path fill="#fff" d="M0 0h32v24H0z"/>
  </mask>
  <g mask="url(#a)">
    <path fill-rule="evenodd" clip-rule="evenodd" d="M0 .1h32v24H0V.1z" fill="#2B409A"/>
  </g>
  <path fill="#2B409A" d="M0 0h18v14H0z"/>
  <mask id="b" maskUnits="userSpaceOnUse" x="0" y="0" width="18" height="14">
    <path fill="#fff" d="M0 0h18v14H0z"/>
  </mask>
  <g mask="url(#b)">
    <path d="M-2.004 13l3.96 1.737L18.09 1.889l2.09-2.582-4.236-.58-6.58 5.536-5.297 3.73L-2.004 13z" fill="#F7FCFF"/>
    <path d="M-1.462 14.217l2.018 1.008L19.429-.933h-2.833l-18.058 15.15z" fill="#F50100"/>
    <path d="M20.004 13l-3.96 1.737L-.09 1.889-2.18-.693l4.236-.58 6.58 5.536 5.297 3.73L20.004 13z" fill="#F7FCFF"/>
    <path d="M19.87 13.873l-2.019 1.009-8.036-6.918-2.383-.773L-2.38-.684H.453l9.807 7.688 2.605.927 7.004 5.942z" fill="#F50100"/>
    <mask id="c" maskUnits="userSpaceOnUse" x="-2" y="-2" width="22" height="18" fill="#000">
      <path fill="#fff" d="M-2-2h22v18H-2z"/>
      <path fill-rule="evenodd" clip-rule="evenodd" d="M9.985 0h-2v6H0v2h7.985v6h2V8H18V6H9.985V0z"/>
    </mask>
    <path fill-rule="evenodd" clip-rule="evenodd" d="M9.985 0h-2v6H0v2h7.985v6h2V8H18V6H9.985V0z" fill="#F50100"/>
    <path d="M7.985 0v-1.5h-1.5V0h1.5zm2 0h1.5v-1.5h-1.5V0zm-2 6v1.5h1.5V6h-1.5zM0 6V4.5h-1.5V6H0zm0 2h-1.5v1.5H0V8zm7.985 0h1.5V6.5h-1.5V8zm0 6h-1.5v1.5h1.5V14zm2 0v1.5h1.5V14h-1.5zm0-6V6.5h-1.5V8h1.5zM18 8v1.5h1.5V8H18zm0-2h1.5V4.5H18V6zM9.985 6h-1.5v1.5h1.5V6zm-2-4.5h2v-3h-2v3zm1.5 4.5V0h-3v6h3zM0 7.5h7.985v-3H0v3zm1.5.5V6h-3v2h3zm6.485-1.5H0v3h7.985v-3zm1.5 7.5V8h-3v6h3zm.5-1.5h-2v3h2v-3zM8.485 8v6h3V8h-3zM18 6.5H9.985v3H18v-3zM16.5 6v2h3V6h-3zM9.985 7.5H18v-3H9.985v3zM8.485 0v6h3V0h-3z" fill="#F7FCFF" mask="url(#c)"/>
  </g>
  <path d="M24.318 18.551c-.061 0-.284-.12-.284-.12s-.162.256-.246.27c-.085.016-.523-.157-.523-.157s-.308.24-.377.225l-.777-.165-.384-.24s-.215.345-.223.338a24.632 24.632 0 00-.646-.128s.192-.263.192-.27c0-.008-.092-.038-.092-.038l-.138.113-.57.052.139-.39.223-.331 2.73-2.592 1.345 2.427-.2.728s-.107.278-.169.278z" fill="#6A4C2D"/>
  <path d="M21.71 18.06c.095.116 1.348 1.396 1.551 2.002.203.605-1.647-.168-1.647-.168s2.33-1.513 3.493-1.513c1.164 0 3.451 1.513 3.451 1.513s-1.535 1.08-1.519.4c.016-.682.72-2.025 1.562-2.233" stroke="#FB0" stroke-width=".5" stroke-linecap="round" stroke-linejoin="round"/>
  <path d="M29.542 18.16l-.383-.143-.339-.448-1.402-.103-1.28-.35-.539.36.29.38.71.26 2.943.044z" fill="#F7FCFF"/>
  <path d="M23.939 9.866c.013.033.299-.025.36.146.308-.455.669-.02.669-.02l.304-.36.343.324.315-.024.33.772-2.598-.049s.264-.822.277-.789zm2.692 3.288c-.02-.245-.237-.273-.358-.265a.438.438 0 00-.23.11l-.4-.249s.2-1.236.413-1.313c.202-.142.237-.204.237-.236 0-.033-.075-.165-.075-.165l-1.306-.151-1.235.142s-.096.194-.084.251c.013.057.017.118.238.286.245.184.413 1.24.413 1.24s-.346.166-.367.146c-.02-.02-.125-.04-.18-.032a.327.327 0 00-.233.33c0 .232.18.367.18.367s1.18.865 1.356 1.183c.171-.383 1.293-1.248 1.427-1.314.054-.032.225-.085.204-.33z" fill="#656263"/>
  <path d="M27.81 12.002c.098-.064.752-.096.909 0 .156.095.215.568.215.568s.098.166.105.287c.006.122.02.205.02.205s.522.664.529 1.264c.059.41.046 1.501-.118 1.916a1.721 1.721 0 01-.228.856s.052.09.045.185a.49.49 0 01-.059.185l-.49.211-.542-.09-.615-1.794.144-3.034.04-.153-.066-.408s.013-.135.111-.198z" fill="#000"/>
  <path d="M24.262 13.594s.661 0 .733.21c.125-.28.697-.262.697-.262l1.036-.035.018 2.445c-.202.949-.905 1.618-1.68 1.904-.923-.292-1.507-1.054-1.697-1.922l-.108-2.322 1.001-.018z" fill="#F7FCFF"/>
  <path d="M23.618 13.603l1.458 3.796 1.316-3.88c-.408.027-1.285-.062-1.393.302-.169-.326-1.091-.194-1.381-.218z" fill="#006B00"/>
  <path fill-rule="evenodd" clip-rule="evenodd" d="M25.308 14.198s.132.346 0 .517c-.133.171.01.312.09.312s.355.272.132.272c-.223 0-.348-.085-.348.154s.307 1.315.216 1.573c-.09.258-.068.456.063.39.13-.066.212-.234.14-.559-.07-.324-.14-.248-.14-.528s.07-.593.07-.593.116.087.033.408c-.083.32.103.762.103.882s.006.451-.066.484c-.07.033-.136.232-.203.08-.066-.152-.108-.403-.193-.23-.085.172-.068.57-.157.589-.088.019-.22.207-.22.131 0-.075-.125-.212-.087-.339.038-.127.071-.142.102-.02.03.122.16.12.16.02 0-.1-.045-.051 0-.28.045-.23.096-.532 0-.514-.096.018-.243.167-.262-.108-.02-.275-.098-.403-.035-.457.063-.053.148-.245.175-.094.027.15-.092.294-.073.348.02.054.03.177.113.074.082-.103.13-.272.192-.115.061.157.063.033-.065-.266-.127-.3-.236-.466-.22-.73.015-.263-.006-.361.015-.446.02-.084-.229-.496-.166-.614.064-.119.088-.502.166-.433.078.07.118.162.078.265-.04.103-.08.205-.04.275.04.07.177.27.204.22.028-.051.12-.002.12-.288s-.103-.386-.038-.454.14.074.14.074z" fill="#FFD100"/>
  <path d="M26.4 13.52l.197-.004-.35.434.42.48-.828 1.02.782.92a2.38 2.38 0 01-.319.563l-.449-.485.814-.992-.669-.742.403-1.193zm-3.019.092l.394.416-.417.508.866.92-.716.937c.086.206.209.435.342.604l.426-.526-.876-.952.642-.795-.45-1.117-.21.005z" fill="#1E5AA6"/>
  <path d="M24.566 16.078l-.309.402 1.105 1.249a2.79 2.79 0 00.515-.338l-.576-.65.234-.673.337.38-1.053 1.313a2.325 2.325 0 01-.548-.33l.557-.69-.262-.663z" fill="#1E5AA6"/>
  <path d="M28.386 12.851c0 .064.069 3.832.145 3.796.19-.09.234.106.234.106s.065.62-.099.703a2.408 2.408 0 01-.422.187l-.283-.206s-.288-.403-.353-.582c-.066-.178-.144-.976-.118-1.15.026-.171.046-1.18.033-1.232-.013-.051-.066-.894-.033-1.022.033-.127.235-.69.229-.69 0 0 .666.026.666.09z" fill="url(#GS_-__S__Georgia_and_S__Sandwich_Islands__paint0_linear)"/>
  <path d="M27.732 12.206c.137 0 .242.115.274.217.007.045-.013.077-.006.16.006.083-.994.019-1 .012 0 0 .464-.44.732-.39z" fill="#FF7000"/>
  <path d="M28.83 17.667s.314-.07.399-.18c.052-.038.326.403-.4.18z" fill="#fff" stroke="#000" stroke-width=".5" stroke-linejoin="round"/>
  <path d="M28.309 12.46a.05.05 0 11-.1 0 .05.05 0 01.1 0z" fill="#000"/>
  <path d="M25.82 11.909s.521.55.858.544c.061.162-.153.312-.239.384-.171-.054-.326.01-.724-.469.025-.305.112-.447.106-.46zm2.07-2.771c.05.353-.002.435-.025.583-.023.149.904.203 1.143-.09-.025.132-.303.668-1.565.662.478.443-.152.796-.422.688.496-.37-.14-.592-.496-.353.067-.203.563-1.226 1.366-1.49z" fill="#F7FCFF"/>
  <path fill-rule="evenodd" clip-rule="evenodd" d="M27.05 11.617c-.094-.39-.14-.836.069-1.007-.276-.185-.576.006-.576.006l-.015.024c-.064.088-.279.384.015.916-.783-.203-.456.508-.398.562.03-.114.447-.221.552.36.035.117-.177.287-.244.341-.015.012-.023.018-.02.017 0 0 .663.135.75-.741.113-.068.663-.435.646-1.191-.505.01-.729.567-.779.713z" fill="#00F"/>
  <path d="M24.088 12.064s-.508.431-.796.293c-.215.126-.466-.095-.466-.095s.294 1.059 1.348.293a2.396 2.396 0 00-.086-.49z" fill="#F7FCFF"/>
  <path d="M23.285 12.34c.043-.222.22-.33.362-.12.19.036.38-.724-.294-.599.19-.993-.38-1.364-.38-1.364s-.202 1.101-.11 1.305c.092.203-.135-.377-.863-.539-.013.832.814 1.221.814 1.221s.233.21.471.096z" fill="#00F"/>
  <path d="M22.596 11.139c-.214.066-.735-.249-.404-.656-1.084-.024-1.674-.94-1.313-.765.361.175.62-.197.889 0-.33-.299.115-.538.115-.538s.925.27 1.09 1.071c-.055.156-.08.43-.092.419 0-.006-.572-.01-.285.469z" fill="#F7FCFF"/>
  <path d="M24.327 7.431c.005-.027.698-.265.744-.658.047-.394-.009-.129-.009-.129s.192-.178.122-.274c-.07-.096-.047.123-.16.119-.112-.005-.05-.238-.05-.238s-.01-.027-.043-.041c-.047.004-.154-.096-.154-.096s-.07-.092-.132.197c.033.306.235.247.235.448s-.178.357-.23.361c-.051.005-.033-.17-.033-.17s-.028-.081-.046-.081c-.019 0 .103-.019.084-.247-.042-.275-.075.064-.15.05-.075-.014-.019-.252.01-.28.027-.027-.034-.141-.197.152-.014.142-.033-.037-.066-.028-.056.115-.047.197.033.302.117.105.192.21.187.266-.004.054-.066.178-.15.178-.084 0 .005-.151 0-.201-.004-.05-.145-.234-.145-.234s-.098-.155-.089-.16c.01-.004-.224.224-.084.343-.108-.013-.117.028-.117.028 0 .055.145.078.164.174.019.096-.15.15-.15.15s.07.097.267-.09a.293.293 0 01-.075.2c.066.03.117.026.126.101 0 0 .104-.114.108-.142zm-.75.142s-.088-.127-.091-.152c-.005-.025-.43.032-.633-.476-.13-.242 0-.1 0-.1l.008-.117s-.14-.167-.08-.254c.06-.088.036.112.112.113.095-.005.044-.217.044-.217s.008-.025.036-.037c.04.004.056.129.091.137.036.009.11-.147.133-.18.033-.004.032-.128.084.134-.028.28-.264.225-.264.408 0 .183.15.325.194.329.044.004.028-.154.028-.154s.024-.075.04-.075-.14.03-.123-.179c.036-.195.115.013.178 0 .064-.012-.007-.206.011-.236.005-.03.098-.156.135.124.011.13.084-.111.111-.103.048.104-.02.243-.088.34-.1.095-.145.2-.14.25.003.05.027.112.099.112.071 0 .024-.087.027-.133.004-.046.124-.194.124-.194.023-.037.004-.105.028-.137.04 0 .055-.052.095.094.04.145.087-.096.087-.096s.056.179-.063.287c.091-.012.1.025.1.025 0 .05-.044.07-.06.158a.146.146 0 00.047.138s-.06.087-.226-.084a.279.279 0 00.064.183c-.056.027-.1.024-.108.092z" fill="#CDAD56"/>
  <path d="M24.675 7.475c-.102.298-.47.185-.47.185s.011.15-.025.221c.03.023.248.19.477.234.33.062 1.004-.108 1.23.143.227.252.215.455.215.455s-.294.034-.212.138c.053.067.2.117.212.187.042.222-.138.62-.073.77-.102.01-.11.114-.11.114-.006.118-.3.048-.3.048s.183-.46.195-.568c.013-.108-.128-.3-.238-.3-.11 0-.19.341-.19.341s-.055.258-.037.281a1.92 1.92 0 01-.073-.083s-.03.104-.077.167a.342.342 0 01-.126.102s-.055-.156-.036-.215c.018-.06.3-.293.276-.461-.011-.074-.021-.203-.114-.246-.117-.054-.332-.015-.462-.041-.071.121-.104.79-.055.832.049.041-.123.131-.123.131l-.202.006c-.003-.09.12-.338.12-.547 0-.21.015-.434.015-.434s-.136.034-.208.167c-.061.112-.061.323-.055.353.012.066.073.252.055.306-.019.053-.337.125-.337.125l-.012-.174s.134-.083.134-.293c0-.209.012-.508.006-.526-.003-.011-.11-.47-.25-.778-.094-.206-.238-.3-.245-.317-.019-.042-.019-.09-.019-.09s-.202.144-.44-.162c.218-.182.453-.048.453-.048s.06-.167.342-.155c.282.012.337.167.325.15 0 0 .208-.18.434-.018z" fill="#923F00"/>
  <path d="M25.781 10.588c.005 0 .52.015.526.284.005.269-.158.2-.164.2l-.377-.045.015-.44z" fill="#00F"/>
  <path d="M25.281 10.513s.643-.005.607.27c-.036.273-.199.219-.199.219l-.31-.026-.098-.463z" fill="#F7FCFF"/>
  <path d="M24.92 10.483l.372.03s.224.03.214.24c-.01.209-.23.214-.23.214l-.362-.02.005-.464z" fill="#00F"/>
  <path d="M24.047 10.588c-.005 0-.52.015-.525.284-.005.269.158.2.163.2l.378-.045-.016-.44z" fill="#F7FCFF"/>
  <path d="M24.547 10.513s-.642-.005-.607.27c.036.273.2.219.2.219l.31-.026.097-.463z" fill="#00F"/>
  <path d="M24.91 10.483l-.373.03s-.224.03-.214.24c.01.209.23.214.23.214l.361-.02-.005-.464z" fill="#F7FCFF"/>
  <path d="M26.287 13.165c.098.032.023.33-.024.358l-.357-.014s.268-.386.38-.344zm-2.216.413c-.084-.115-.206-.432-.319-.345-.099.033-.023.331.024.359l.295-.014z" fill="#5E0043"/>
  <path d="M23.628 11.364l1.288.823 1.16-.762s.242-.13.221-.224c-.02-.094-.104-.058-.146-.041-.041.016-1.214.828-1.214.828l-1.248-.771s-.091-.029-.108.028c-.017.058.034.09.047.119z" fill="#B4B6B9"/>
  <path d="M27.947 17.427s-.563.17-.406.175c.116.004.675 0 .675 0l-.27-.175zm.228.186l-.5.015s-.126.111-.134.138c-.008.027.083.035.083.035s.516.13.906.046c.197-.068.231-.148.093-.197-.138-.05-.444-.035-.448-.037z" fill="#FF7000"/>
  <path d="M22.39 12.99s-.064.2 0 .3c.066.1.475.909.475.909s.28-.337.382-.346c.102-.009.055.873.055.873s-.167.154-.27.145c-.102-.009.252.346.242.646-.01.3-.465 1.79-.632 1.818-.168.027-.312-.281-.312-.547 0-.267.172-.69.163-.808-.01-.118-.832 1.267-.882 1.484-.01.04.045.189.045.189s-.322.026-.251.436c-.949-.327-1.414-.89-1.405-1.463.004-.22-.206-.736 0-1.306.331-.918 1.139-1.966 1.144-2.066.01-.164.075-.237.084-.328.01-.09-.028-.554.065-.636.093-.082.577-.282.698-.273.12.01.223.091.223.091s.456 0 .484.173c.028.173-.093.236-.093.236s.065.246-.214.473z" fill="#8A9396"/>
  <path d="M22.662 18.145c.154.107.509.17.509.17s-.872.235-1.758-.221c-.081-.355.19-.435.257-.437.156-.041.838.382.992.488z" fill="#2B2B2B"/>
  <path d="M23.73 18.108c.953.504 1.055.165 1.713-.315.045-.033.262.77 1.183.315 1.304-.644-1.117-1.718-1.46-1.695-.341.024-2.39 1.19-1.437 1.695z" fill="#00713D"/>
  <defs>
    <linearGradient id="GS_-__S__Georgia_and_S__Sandwich_Islands__paint0_linear" x1="28.275" y1="15.607" x2="29.018" y2="15.599" gradientUnits="userSpaceOnUse">
      <stop stop-color="#D5DFFF"/>
      <stop offset="1" stop-color="#fff"/>
    </linearGradient>
  </defs>
</svg>
