<svg width="32" height="24" fill="none" xmlns="http://www.w3.org/2000/svg">
  <mask id="a" maskUnits="userSpaceOnUse" x="0" y="0" width="32" height="24">
    <path fill="#fff" d="M0 0h32v24H0z"/>
  </mask>
  <g mask="url(#a)">
    <path fill-rule="evenodd" clip-rule="evenodd" d="M0 0v24h32V0H0z" fill="#F7FCFF"/>
    <mask id="b" maskUnits="userSpaceOnUse" x="0" y="0" width="32" height="24">
      <path fill-rule="evenodd" clip-rule="evenodd" d="M0 0v24h32V0H0z" fill="#fff"/>
    </mask>
    <g mask="url(#b)">
      <path fill-rule="evenodd" clip-rule="evenodd" d="M0 12v12h32V12H0z" fill="#56C6F5"/>
      <path fill-rule="evenodd" clip-rule="evenodd" d="M10.254 9.028a.56.56 0 00-.056-.214c-.256-.479-.173-1.078-.173-1.078s-.307.702-.487 1.362c-.19-.307-.255-.616-.255-.616s-.123 1.938.252 2.397c.374.46.623.66.623.66s.029-.804-.08-1.433c.077-.262.146-.55.17-.797a9.55 9.55 0 00.341-.266 4.02 4.02 0 00-.071.581s1.41-1.024 1.446-1.566c.036-.542.424-1.006.424-1.006s-.32.22-.687.513c.097-.455.396-.813.396-.813s-1.602 1.096-1.733 1.674c-.057.251-.09.454-.11.602zm.069 3.33c-.154-.29-.822-1.505-1.289-1.61-.53-.121-.927-.577-.927-.577s.832 1.754 1.382 1.974c.442.177.732.248.83.268-.016.237-.019.4-.019.4s.26-.188.658-.627.377-2.38.377-2.38-.158.584-.582.924c-.284.228-.39 1.088-.43 1.629zm-1.252-.183c.606-.003 1.537 1.481 1.537 1.481s-.36.02-.991-.08c-.63-.1-1.613-1.79-1.613-1.79s.462.393 1.067.39zm2.951 3.457s.36-1.891-.18-2.332c-.54-.441-.635-1.1-.635-1.1s-.479 2.098 0 2.64c.48.544.815.792.815.792zm-2.176-.51c.352.417 1.474 0 1.474 0s.247.224-.643-.59c-.89-.813-2.7-.299-2.213-.299.487 0 1.03.471 1.382.889zm.831 2.22c.653.553 2.064-.762 2.064-.762s-.363-.44-1.036-.764-3.156 0-3.156 0l1.105.492s-1.23.481-.904.454c.327-.027 1.274.027 1.927.58z" fill="#006923"/>
      <path fill-rule="evenodd" clip-rule="evenodd" d="M19.213 16.196s-.56-.943 0-1.399c.562-.456.784-.152.784-.676s.057-.368.333-.628c.275-.26.08-.892.45-.576.369.316.438-.29.438.968v-1.848c0-.707-.439-.54-.439-1.014s-.438-1.182 0-1.182c.439 0 .697.527.697.527s.43.734.43 0-.767-.516-1.127-1.326-.303.09-.782-.953c-.48-1.044-1.05-1.375-.525-1.375h.858c.45 0 1.146-.374 1.146 0v.789c0 .586.43.586.43.586s.234-1.173.529-.586c.294.586.093 1.54.309 1.54.215 0 .037-.986.507-.231.47.754 0 1.265 0 1.556 0 .291-.507 1.004-.507 1.004s.099.349.507 0c.408-.349.795-.697.795-.349 0 .35.796.457 0 1.014-.795.556-.288 1.113-.795 1.113-.507 0-1.105.735-1.345.735s-1.137.563-.688.563c.448 0 .907-1.125 1.217-.563.309.563.305-.091.56.236.256.327.512 2.1.256 1.388-.256-.712-.656-.712-1.345-.712-.688 0-2.026.052-1.576.382.45.33.955-.33 1.146 0 .19.33.135.66.43.33.296-.33.586 0 .838 0 .251 0-.252.37 0 .687.251.318.812.74.251.74-.56 0-.849-.448-1.089 0-.24.449-.25 1.227-.688.614-.439-.614-1.221-.302-1.221-.614 0-.31.171-.361-.306-.361-.478 0-.478-.379-.478-.379z" fill="#093"/>
      <path fill-rule="evenodd" clip-rule="evenodd" d="M21.516 9.45c0 .138-.108.25-.242.25a.246.246 0 01-.242-.25c0-.138.109-.25.242-.25.134 0 .242.112.242.25zM10.34 10a.246.246 0 00.242-.25.246.246 0 00-.242-.25.246.246 0 00-.242.25c0 .138.108.25.242.25zm.242 1.05c0 .138-.109.25-.242.25a.246.246 0 01-.242-.25c0-.138.108-.25.242-.25.133 0 .242.112.242.25zm.145 2.55a.246.246 0 00.242-.25.246.246 0 00-.242-.25.246.246 0 00-.242.25c0 .138.108.25.242.25zm1.935 2.5a.246.246 0 00.242-.25.246.246 0 00-.242-.25.246.246 0 00-.242.25c0 .138.109.25.242.25zm9.29-3.8a.246.246 0 00.243-.25.246.246 0 00-.242-.25.246.246 0 00-.242.25c0 .138.108.25.242.25zm-.532 1.75c0 .138-.108.25-.242.25a.246.246 0 01-.241-.25c0-.138.108-.25.241-.25.134 0 .242.112.242.25zm-2.274 2.45a.246.246 0 00.242-.25.246.246 0 00-.242-.25.246.246 0 00-.242.25c0 .138.109.25.242.25zM13 16.55c0 .138-.108.25-.242.25a.246.246 0 01-.242-.25c0-.138.108-.25.242-.25s.242.112.242.25z" fill="#C51918"/>
      <path fill-rule="evenodd" clip-rule="evenodd" d="M18.038 19.82c0-.205-3.1-2.342-3.933-2.813-.832-.471-4.896-3.065-3.79-7.007h-.167s-.749 4.857 4.411 7.875c2.35 1.577 2.467 1.945 2.467 1.945s1.012.205 1.012 0z" fill="#FECA00"/>
      <path fill-rule="evenodd" clip-rule="evenodd" d="M13.924 19.82c0-.205 3.1-2.342 3.933-2.813.832-.471 4.896-3.065 3.79-7.007h.167s.749 4.857-4.411 7.875c-2.35 1.577-2.467 1.945-2.467 1.945s-1.012.205-1.012 0z" fill="#FECA00"/>
      <path fill-rule="evenodd" clip-rule="evenodd" d="M16.048 16.886c2.165 0 3.92-2.802 3.92-5.536 0-2.734-1.755-4.15-3.92-4.15-2.164 0-3.919 1.416-3.919 4.15 0 2.734 1.755 5.536 3.92 5.536z" fill="#56C6F5"/>
      <path fill-rule="evenodd" clip-rule="evenodd" d="M14.313 9.539s.604-.533.302-.533a1.45 1.45 0 01-.207-.023c-.319-.052-.735-.118-.735.556V10.7h-.09a.1.1 0 000 .2h.08l-.061 1.127-.115.01a.108.108 0 00-.097.117l.007.084c.005.06.057.103.117.098l.072-.006c-.027.514-.05.963-.05 1.018 0 .135.919.083.919.083s-.029-.542-.06-1.172l.061-.005a.108.108 0 00.098-.117l-.007-.085a.108.108 0 00-.117-.097l-.05.004c-.019-.377-.037-.76-.05-1.059h.118a.1.1 0 100-.2h-.126c-.005-.15-.009-.261-.009-.318v-.843z" fill="#fff"/>
      <path fill-rule="evenodd" clip-rule="evenodd" d="M13.871 11h.323v.43h-.323V11zm-.097 1.5h.538v1h-.538v-1z" fill="#000"/>
      <path fill-rule="evenodd" clip-rule="evenodd" d="M16.346 9.539s.603-.533.301-.533c-.058 0-.13-.011-.206-.023-.32-.052-.736-.118-.736.556V10.7h-.089a.1.1 0 100 .2h.078l-.06 1.127-.114.01a.108.108 0 00-.098.117l.007.084c.005.06.058.103.117.098l.072-.006c-.027.514-.05.963-.05 1.018 0 .135.919.083.919.083s-.029-.542-.06-1.172l.061-.005a.107.107 0 00.098-.117l-.007-.085a.108.108 0 00-.117-.097l-.05.004c-.018-.377-.037-.76-.05-1.059h.119a.1.1 0 000-.2h-.126c-.006-.15-.01-.261-.01-.318v-.843z" fill="#fff"/>
      <path fill-rule="evenodd" clip-rule="evenodd" d="M15.903 11h.323v.43h-.323V11zm-.097 1.5h.538v1h-.538v-1z" fill="#000"/>
      <path fill-rule="evenodd" clip-rule="evenodd" d="M18.28 9.539s.604-.533.303-.533a1.45 1.45 0 01-.207-.023c-.32-.052-.735-.118-.735.556V10.7h-.09a.1.1 0 000 .2h.079l-.06 1.127-.115.01a.108.108 0 00-.098.117l.008.084c.005.06.057.103.116.098l.073-.006c-.027.514-.05.963-.05 1.018 0 .135.918.083.918.083l-.06-1.172.062-.005a.107.107 0 00.098-.117l-.008-.085a.108.108 0 00-.116-.097l-.05.004a167.2 167.2 0 01-.05-1.059h.118a.1.1 0 000-.2h-.126c-.006-.15-.01-.261-.01-.318v-.843z" fill="#fff"/>
      <path fill-rule="evenodd" clip-rule="evenodd" d="M17.839 11h.322v.43h-.322V11zm-.097 1.5h.538v1h-.538v-1z" fill="#000"/>
      <path fill-rule="evenodd" clip-rule="evenodd" d="M18.516 6.4h-5.129v.766l-.034.003s-2.513 1.952-1.816 4.878c.698 2.925 3.468 5.094 3.468 5.094l.14-.505s-2.64-3.589-2.64-5.023c0-1.434.498-2.78 1.025-2.99.317-.125.372-.1.458-.06.058.027.129.06.3.06.428 0 .856-.306.856-.306s.298.306.575.306c.277 0 .28-.306.28-.306V7.3h.032v1.017s.004.306.28.306c.277 0 .575-.306.575-.306s.429.306.857.306c.17 0 .242-.033.3-.06.086-.04.14-.065.458.06.527.21 1.025 1.556 1.025 2.99 0 1.434-2.64 5.023-2.64 5.023l.14.505s2.77-2.17 3.468-5.094c.697-2.926-1.816-4.878-1.816-4.878l-.162-.015V6.4z" fill="#E8AA00"/>
      <path d="M13.387 6.4v-.5h-.5v.5h.5zm5.13 0h.5v-.5h-.5v.5zm-5.13.766l.045.498.455-.041v-.457h-.5zm-.034.003l-.045-.498-.146.013-.116.09.307.395zm-1.816 4.878l-.486.116.486-.116zm3.468 5.094l-.309.394.59.462.2-.723-.481-.133zm.14-.505l.481.134.065-.234-.144-.196-.403.296zM13.53 8.623l-.184-.464.184.464zm.458-.06l-.211.453.211-.453zm1.156-.246l.359-.349-.3-.308-.35.25.291.407zm.856 0l.5.006v-.006H16zM16 7.3v-.5h-.5v.5h.5zm.03 0h.5v-.5h-.5v.5zm0 1.017h-.5v.006l.5-.006zm.856 0l.291-.407-.35-.25-.3.308.36.349zm1.156.246l.212.453-.212-.453zm.459.06l-.185.465.185-.465zm-1.615 8.013l-.402-.296-.144.196.064.234.482-.134zm.14.505l-.482.134.2.722.59-.462-.308-.394zm1.652-9.972l.307-.395-.116-.09-.146-.013-.045.498zm-.162-.015h-.5v.458l.456.04.044-.498zM13.387 6.9h5.13v-1h-5.13v1zm.5.266V6.4h-1v.766h1zm-.49.5l.035-.002-.09-.996-.034.003.09.996zm-1.373 4.265c-.308-1.291.087-2.372.582-3.153a5.56 5.56 0 01.97-1.144 2.781 2.781 0 01.082-.069l.002-.002-.307-.394-.307-.395-.002.001-.003.002a2.828 2.828 0 00-.125.106 6.564 6.564 0 00-1.155 1.36c-.587.927-1.1 2.285-.71 3.92l.973-.232zm2.98 5.21l.31-.393h-.001l-.005-.004-.02-.016a9.54 9.54 0 01-.389-.34 12.151 12.151 0 01-.987-1.023c-.756-.88-1.566-2.082-1.888-3.434l-.973.232c.375 1.572 1.298 2.917 2.102 3.854a13.303 13.303 0 001.409 1.407 6.435 6.435 0 00.123.102l.008.006.002.002h.001l.309-.393zm-.341-.638l-.14.505.964.267.14-.505-.965-.267zm-2.658-4.89c0 .476.208 1.056.458 1.599.26.563.6 1.165.935 1.712a31.949 31.949 0 001.312 1.965l.023.032.006.008.002.003.403-.296.403-.296-.001-.002-.005-.007a10.012 10.012 0 01-.022-.029l-.081-.113a31.07 31.07 0 01-1.187-1.787 16.02 16.02 0 01-.88-1.608c-.245-.533-.366-.94-.366-1.181h-1zm1.34-3.454c-.266.106-.466.324-.611.537a3.494 3.494 0 00-.386.797 6.572 6.572 0 00-.343 2.12h1c0-.664.116-1.303.286-1.788a2.51 2.51 0 01.27-.567c.097-.143.157-.171.154-.17l-.37-.93zm.855-.049c-.06-.028-.192-.091-.388-.078-.147.01-.302.061-.466.127l.369.93c.07-.029.117-.045.146-.053.03-.009.033-.007.018-.006a.238.238 0 01-.086-.01.24.24 0 01-.028-.009l.012.005.423-.906zm.088.013a.502.502 0 01-.069-.004.328.328 0 01-.019-.009l-.423.906a.95.95 0 00.196.072c.094.024.196.035.315.035v-1zm.856.194a102.813 102.813 0 01-.29-.407l.001-.001a.938.938 0 01-.567.214v1c.322 0 .615-.111.804-.202a2.614 2.614 0 00.332-.19l.007-.004.003-.002v-.001h.001l-.29-.407zm.575-.194c.02 0 .019.005-.009-.007a.555.555 0 01-.095-.055.997.997 0 01-.11-.09l-.004-.005v.001h.001v.001l-.358.349-.358.348v.001h.001l.002.003a1.995 1.995 0 00.251.21c.128.09.38.244.68.244v-1zm.28.194l-.5-.007v-.001l.001-.002v-.014l.002-.008s0-.01.008-.024a.234.234 0 01.075-.088.24.24 0 01.134-.049v1a.763.763 0 00.456-.144.768.768 0 00.242-.298.91.91 0 00.082-.34v-.017l-.5-.007zM15.5 7.3v1.017h1V7.3h-1zm.532-.5H16v1h.03v-1zm-.5.5v1.017h1V7.3h-1zm.5 1.017l-.5.007v.007a1.742 1.742 0 01.002.037.897.897 0 00.08.313.767.767 0 00.243.298c.13.096.288.144.455.144v-1c.03 0 .083.01.135.049a.233.233 0 01.075.088.086.086 0 01.008.024l.001.008v.018l-.5.007zm.28.806c.3 0 .552-.154.68-.244a1.991 1.991 0 00.245-.205l.005-.005.002-.002.001-.001-.358-.35a117.064 117.064 0 01-.358-.348l.002-.001-.004.003a.788.788 0 01-.11.091.555.555 0 01-.095.055c-.028.012-.03.007-.01.007v1zm.575-.806a99.563 99.563 0 00-.29.407h.001l.003.003.007.004.02.015.072.045c.058.036.14.083.24.13.189.09.482.202.804.202v-1a.939.939 0 01-.374-.104 1.634 1.634 0 01-.186-.105l-.007-.005.001.001-.29.407zm.857.806c.118 0 .22-.011.314-.035a.991.991 0 00.197-.072l-.423-.906a.437.437 0 01-.02.01l.001-.001h.001l-.015.002a.505.505 0 01-.055.002v1zm.51-.107l.013-.005a.244.244 0 01-.076.018.237.237 0 01-.039 0c-.015 0-.012-.002.018.007.03.008.076.024.147.052l.37-.93a1.597 1.597 0 00-.468-.126c-.196-.013-.328.05-.387.078l.423.906zm.063.072c-.003-.001.057.027.154.17.09.132.184.323.27.567.17.485.286 1.124.286 1.788h1a6.57 6.57 0 00-.343-2.12 3.5 3.5 0 00-.386-.797c-.145-.213-.345-.431-.612-.537l-.369.93zm.71 2.525c0 .241-.122.648-.367 1.181a15.999 15.999 0 01-.88 1.607 30.98 30.98 0 01-1.289 1.93l-.005.007-.001.002.402.296.403.297v-.001l.002-.003a16.992 16.992 0 002.276-3.718c.25-.542.459-1.122.459-1.598h-1zm-2.622 5.157l.14.505.964-.267-.14-.505-.964.267zm.622.371l.308.394.002-.001.002-.002.008-.006a2.92 2.92 0 00.123-.102 13.27 13.27 0 001.409-1.408c.804-.936 1.727-2.28 2.102-3.853l-.973-.232c-.322 1.352-1.133 2.555-1.888 3.434a12.27 12.27 0 01-1.295 1.295 5.5 5.5 0 01-.102.084l-.004.003.308.394zm3.954-4.978c.39-1.635-.123-2.993-.71-3.92a6.558 6.558 0 00-1.155-1.36 3.886 3.886 0 00-.118-.1l-.008-.006a.053.053 0 00-.002-.002h-.001c-.001 0-.001-.001-.308.394l-.307.394.002.002a1.338 1.338 0 01.082.07 5.56 5.56 0 01.97 1.144c.494.78.89 1.86.582 3.152l.973.232zM18.723 6.67l-.162-.015-.09.996.163.015.089-.996zm-.707-.271v.754h1V6.4h-1z" fill="#FFD018"/>
      <path fill-rule="evenodd" clip-rule="evenodd" d="M13.104 13.785s.314-.845.864-.563c.55.282.502 1.261 1.002.912.5-.35.217-.912.958-.912.742 0 .633.912 1.077.912.445 0 .483-.912.98-.912.498 0 1.002.563 1.002.563l-2.942 4.002-2.942-4.002z" fill="#8FC753"/>
      <path fill-rule="evenodd" clip-rule="evenodd" d="M7.929 18.457l-.317-.426s1.313 0 1.49.309c.05.087.073.153.09.204.042.128.05.154.406.154.496 0 0-.492-.206-.667-.207-.175-.08-.481.206-.481.11 0 .303-.025.54-.056.377-.05.867-.115 1.316-.115.73 0 .125.652.125.652s.945 0 .71-.271c-.234-.272.788-.602 1.23-.602.412 0 2.266.093 2.516.105.26-.012 2.199-.105 2.61-.105.442 0 1.465.33 1.23.602-.235.271.71.271.71.271s-.605-.652.126-.652c.448 0 .938.065 1.316.114.236.032.429.057.54.057.286 0 .412.306.206.481-.207.175-.702.667-.207.667.356 0 .365-.026.407-.154.017-.051.039-.117.089-.204.172-.298 1.398-.309 1.485-.309a.255.255 0 01-.03-.123c0-.138.107-.25.241-.25s.242.112.242.25c0 .139-.108.25-.242.25a.24.24 0 01-.209-.123l-.313.422.326.405a.24.24 0 01.196-.104c.134 0 .242.112.242.25 0 .139-.108.25-.242.25a.246.246 0 01-.242-.25c0-.028.005-.055.013-.081-.185-.09-.504-.229-.712-.229h-.577c.145 0 .945.528.703.756l-.041.04c-.238.225-.548.52-.84.359-.31-.17-.496-.399-.496-.399l-.242-.756s-1.43-.369-1.43-.113c0 .255-.003.38-.51.38-.284 0-.558-.048-.8-.09a3.135 3.135 0 00-.497-.064c-.197 0-.503.061-.729.106a2.27 2.27 0 01-.278.048c-.108 0-.687-.026-.29-.267.396-.24.488-.492.488-.492s-1.588.236-2.216.25v.001h-.056c-.623-.015-2.12-.25-2.12-.25s.092.25.489.491c.396.24-.182.267-.29.267-.04 0-.146-.021-.279-.048-.226-.045-.531-.106-.729-.106-.138 0-.307.03-.497.064-.242.042-.516.09-.8.09-.506 0-.51-.125-.51-.38 0-.256-1.43.113-1.43.113l-.242.756s-.186.229-.495.399c-.293.16-.603-.134-.84-.36l-.041-.039c-.242-.228.557-.756.703-.756h-.578c-.306 0-.858.304-.858.304l.44-.545zm-.687-.299a.246.246 0 00.242-.25.246.246 0 00-.242-.25.246.246 0 00-.242.25c0 .139.108.25.242.25zm0 1.1a.246.246 0 00.242-.25.246.246 0 00-.242-.25.246.246 0 00-.242.25c0 .139.108.25.242.25z" fill="#fff"/>
      <path fill-rule="evenodd" clip-rule="evenodd" d="M15.894 2.03h.2v.214h.246v.2h-.246v.364a.595.595 0 01.487.592c0 .331-.26.6-.581.6a.59.59 0 01-.58-.6c0-.294.204-.539.474-.59v-.366h-.225v-.2h.225v-.215z" fill="#FFD018"/>
      <path fill-rule="evenodd" clip-rule="evenodd" d="M13.747 5.226c-.28 0-.87.3-.87.3l.458 1.017 2.77-.104 2.768.104.459-1.018s-.59-.3-.87-.3c-.123 0-.139-.072-.157-.153-.022-.103-.047-.221-.303-.221-.182 0-.31.03-.413.054-.158.037-.26.06-.405-.054l-.019-.015c-.236-.186-.481-.38-.878-.38-.08 0-.139.075-.183.195-.044-.12-.103-.195-.182-.195-.397 0-.643.194-.88.38l-.017.015c-.146.115-.248.091-.405.054a1.665 1.665 0 00-.413-.054c-.256 0-.282.118-.304.221-.018.081-.033.154-.156.154z" fill="#E31D1C"/>
      <path fill-rule="evenodd" clip-rule="evenodd" d="M15.608 3.568l-.194.068c-.514.178-.958.237-1.334.179-.774-.12-1.783.283-1.656.872.055.259.217.747.385 1.16.233.574.397.863.588.863a28.634 28.634 0 01.398.02c.281.014.529.022.767.02.69-.002 1.116-.07 1.269-.277l.045-.06-.021-.074c-.181-.622-.265-1.476-.25-2.559l.003-.212zm-2.9 1.055c-.063-.29.726-.604 1.329-.511.375.057.8.014 1.276-.13-.002.963.076 1.745.237 2.348-.138.072-.5.119-.99.12a11.84 11.84 0 01-.75-.02l-.384-.02a.955.955 0 01-.106-.156 4.807 4.807 0 01-.243-.523 8.214 8.214 0 01-.37-1.108zm3.747-1.055l.194.068c.514.178.958.237 1.334.179.773-.12 1.783.283 1.656.872a8.467 8.467 0 01-.385 1.16c-.234.574-.397.863-.588.863-.025 0-.284.014-.37.019l-.028.001c-.281.014-.529.022-.767.02-.69-.002-1.117-.07-1.27-.277l-.044-.06.021-.074c.181-.622.265-1.476.25-2.559l-.003-.212zm2.9 1.055c.063-.29-.727-.604-1.33-.511-.374.057-.8.014-1.275-.13.002.963-.076 1.745-.237 2.348.138.072.5.119.989.12.232.002.475-.005.752-.02l.383-.02a.955.955 0 00.106-.156c.072-.127.156-.308.243-.523.162-.399.319-.87.37-1.108z" fill="#FFD018"/>
      <path fill-rule="evenodd" clip-rule="evenodd" d="M12.837 6.471c0-.055-.032-.156-.102-.342-.096-.256-.162-.334-.302-.42-.07-.043-.099-.08-.132-.21a1.852 1.852 0 00-.118-.332l-.03-.068a.446.446 0 01-.03-.18c0-.09.023-.162.085-.292a1.76 1.76 0 00.054-.12.485.485 0 00.04-.183v-.385c0-.225.01-.24.12-.224a1.755 1.755 0 00.1.017.125.125 0 00.07-.009c.039-.018.068-.053.138-.157.033-.049.068-.044.193.017l.04.019c.128.059.217.06.293-.032.117-.142.193-.133.335.004.07.068.104.094.15.1h.003c.047.008.05.008.182-.073.01.019.029.026.06.033.043.01.106.014.148.007.035-.006.06-.016.077-.05.056-.002.122-.003.199-.003v-.1c-.098 0-.18.001-.246.004a.786.786 0 01-.018-.016c-.037-.032-.093-.082-.12-.074a.176.176 0 00-.029.023c-.023.02-.056.05-.087.07-.132.08-.137.083-.156.08-.018-.002-.042-.02-.097-.074-.177-.172-.317-.188-.475.004-.04.05-.086.048-.18.005l-.038-.018c-.167-.081-.241-.091-.314.017-.057.086-.082.116-.097.123h-.003v.001c-.004.002-.009.001-.052-.007l-.026-.004a.86.86 0 00-.037-.006c-.183-.025-.23.046-.23.323v.385c0 .043-.01.089-.032.144-.012.03-.017.04-.052.115-.068.143-.095.226-.095.335 0 .091.011.153.038.22l.034.076.03.067c.029.07.054.146.08.244.04.155.083.214.176.27.121.075.173.135.26.37a2.77 2.77 0 01.095.29c-.014.01-.012.019-.008.04l.006.013.002.003.012.012a.06.06 0 00.01.006.72.72 0 01.018.027c.094.124.214.124.328.004l-.07-.07c-.074.079-.126.079-.183.004l-.017-.023zm1.162-2.937h-.002H14zm5.116 2.937c0-.055.032-.156.102-.342.096-.256.162-.334.302-.42.07-.043.098-.08.132-.21a1.867 1.867 0 01.148-.4.446.446 0 00.03-.18c0-.09-.023-.162-.085-.292a1.74 1.74 0 01-.055-.12.483.483 0 01-.04-.183v-.385c0-.225-.009-.24-.12-.224a.741.741 0 00-.032.005l-.067.012a.125.125 0 01-.07-.009c-.04-.018-.068-.053-.138-.157-.033-.049-.068-.044-.193.017a1.702 1.702 0 01-.04.019c-.129.059-.218.06-.293-.032-.117-.142-.194-.133-.335.004-.07.068-.105.094-.15.1h-.003c-.047.008-.05.008-.182-.073-.01.019-.029.026-.06.033a.446.446 0 01-.149.007c-.035-.006-.06-.016-.076-.05a6.685 6.685 0 00-.199-.003v-.1c.098 0 .18.001.246.004l.018-.016c.037-.032.093-.082.12-.074.003.001.014.01.029.023.022.02.053.048.084.067l.003.003c.132.08.137.083.156.08.017-.002.042-.02.097-.074.177-.172.317-.188.475.004.04.05.086.048.18.005l.037-.018c.168-.081.242-.091.315.017.057.086.082.116.097.123h.002l.002.001c.003.002.008.001.05-.007l.027-.004a.836.836 0 01.037-.006c.183-.025.229.046.229.323v.385c0 .043.01.089.033.144.012.03.016.04.052.115.068.143.095.226.095.335a.549.549 0 01-.038.22 3.224 3.224 0 01-.064.143 1.89 1.89 0 00-.08.244c-.04.155-.083.214-.176.27-.122.075-.173.135-.261.37a2.8 2.8 0 00-.094.29c.014.01.012.019.008.04a.098.098 0 01-.006.013l-.002.003c-.006.007-.006.007-.013.012a.072.072 0 01-.008.006c.002 0 .003 0 .005-.002a.72.72 0 00-.024.03c-.095.123-.214.123-.328.003l.07-.07c.074.079.125.079.182.004l.018-.023z" fill="#5E5E5E"/>
      <path d="M13.774 17.885l.06-.496c1.075.131 1.793.197 2.154.197.545.025 1.195-.015 1.949-.119l.068.495c-.781.108-1.46.15-2.028.124-.377 0-1.108-.067-2.203-.201z" fill="#272727"/>
    </g>
  </g>
</svg>
