<svg width="32" height="24" fill="none" xmlns="http://www.w3.org/2000/svg">
  <mask id="a" maskUnits="userSpaceOnUse" x="0" y="0" width="32" height="24">
    <path fill="#fff" d="M0 0h32v24H0z"/>
  </mask>
  <g mask="url(#a)" fill-rule="evenodd" clip-rule="evenodd">
    <path d="M0 0v24h32V0H0z" fill="#FBCD17"/>
    <path d="M0 0v8h32V0H0zm0 16v8h32v-8H0z" fill="#73BE4A"/>
    <path d="M0 0v24l10-12L0 0z" fill="#C51918"/>
    <path d="M17.002 13.87L15.132 15l.426-2.204L14 11.146l2.11-.088L17.001 9l.892 2.058H20l-1.554 1.738.468 2.204-1.912-1.13zm8 0L23.132 15l.426-2.204L22 11.146l2.11-.088L25.001 9l.892 2.058H28l-1.554 1.738.468 2.204-1.912-1.13z" fill="#272727"/>
  </g>
</svg>
