<svg width="32" height="24" fill="none" xmlns="http://www.w3.org/2000/svg">
  <mask id="a" maskUnits="userSpaceOnUse" x="0" y="0" width="32" height="24">
    <path fill="#fff" d="M0 0h32v24H0z"/>
  </mask>
  <g mask="url(#a)">
    <path fill-rule="evenodd" clip-rule="evenodd" d="M0 0v24h32V0H0z" fill="#2E42A5"/>
    <mask id="b" maskUnits="userSpaceOnUse" x="0" y="0" width="32" height="24">
      <path fill-rule="evenodd" clip-rule="evenodd" d="M0 0v24h32V0H0z" fill="#fff"/>
    </mask>
    <g mask="url(#b)">
      <path fill-rule="evenodd" clip-rule="evenodd" d="M18.789 6.2h8.048l-.784 1.504h-2.442v.808h1.872l-.762 1.4h-1.11v2.797L25.44 9.83l2.364 4.095h-.966l-.337-.449h-2.14l-1.506 2.781v.154l-.041-.077-.042.077v-.154l-1.504-2.78h-2.14l-.338.448h-.966l2.364-4.095 1.828 2.88V7.703h-2.442L18.789 6.2zm6.697 5.31l-.526.807h.995l-.47-.808zm-5.346 0l.526.807h-.995l.47-.808zm-3.826-.897l.83-.612.832.612-.293-1.026.806-.648-1.012-.022-.332-1.014-.333 1.014-1.012.022.807.648-.293 1.026zm12.141-.612l-.83.612.293-1.026-.807-.648 1.012-.022.332-1.014.333 1.014 1.012.022-.807.648.293 1.026-.83-.612zm-3.375 7.802l.83-.612.831.612-.293-1.026.807-.648-1.012-.022-.332-1.013-.333 1.013-1.012.022.807.648-.294 1.026zm-5.39-.612l-.831.612.293-1.026-.807-.648 1.012-.022.333-1.013.332 1.013 1.012.022-.806.648.293 1.026-.831-.612zm2.279 3.009l.831-.613.831.613-.293-1.027.807-.648-1.012-.022-.333-1.013-.332 1.013-1.013.022.807.648-.293 1.027z" fill="#F7FCFF"/>
      <path fill="#2E42A5" stroke="#fff" d="M-.5-.5h13v11h-13z"/>
      <mask id="c" maskUnits="userSpaceOnUse" x="-1" y="-1" width="14" height="12">
        <path fill="#fff" stroke="#fff" d="M-.5-.5h13v11h-13z"/>
      </mask>
      <g mask="url(#c)" fill-rule="evenodd" clip-rule="evenodd">
        <path d="M8 0h4v10H8V0z" fill="#F50100"/>
        <path d="M0 0h4v10H0V0z" fill="#2E42A5"/>
        <path d="M4 0h4v10H4V0z" fill="#F7FCFF"/>
      </g>
    </g>
  </g>
</svg>
