<svg width="32" height="24" fill="none" xmlns="http://www.w3.org/2000/svg">
  <mask id="a" maskUnits="userSpaceOnUse" x="0" y="0" width="32" height="24">
    <path fill="#fff" d="M0 0h32v24H0z"/>
  </mask>
  <g mask="url(#a)" fill-rule="evenodd" clip-rule="evenodd">
    <path d="M0 0h32v24H0V0z" fill="#F7FCFF"/>
    <path d="M0 0v8h32V0H0z" fill="#C51918"/>
    <path d="M0 16v8h32v-8H0z" fill="#409100"/>
    <path d="M16.02 8.63l-.591.418.208-.7-.573-.442.72-.015.236-.691.237.69.72.016-.574.442.208.7-.59-.418zm-2.497.613l-.591.417.208-.7-.574-.442.72-.014.237-.691.236.69.72.015-.573.442.208.7-.591-.417zm-2.533 2.256l.59-.418.592.418-.209-.7.574-.442-.72-.015-.236-.69-.237.69-.72.015.574.442-.208.7zm-.033 1.965l-.592.418.209-.7L10 12.74l.72-.015.237-.69.236.69.72.015-.574.442.209.7-.591-.418zm9.466.418l.591-.418.591.418-.208-.7.574-.442-.72-.015-.237-.69-.236.69-.72.015.574.442-.209.7zm-.172-2.801l-.59.418.208-.7-.574-.442.72-.015.236-.69.237.69.72.015-.574.442.209.7-.592-.418zm-2.504-1.42l.591-.418.591.417-.208-.7.574-.442-.72-.014-.237-.691-.236.69-.72.015.574.442-.209.7zm-5.08 7.094l-.184-.657c1.02-.276 2.191-.413 3.513-.413 1.323 0 2.494.137 3.514.413l-.184.657c-.957-.26-2.066-.39-3.33-.39-1.263 0-2.373.13-3.329.39zm1.264-1.053c-.407.07-.74-.324-.74-.324l.403-.167a.646.646 0 01.157-.454c.136.063.322.407.322.407h.367s-.102.469-.51.538zm4.81-.256s-.334.393-.74.324c-.408-.069-.51-.538-.51-.538h.366s.187-.344.323-.406c0 0 .17.173.156.453l.404.167zm-2.796.131c-.412.012-.687-.424-.687-.424l.423-.109a.647.647 0 01.218-.427c.126.081.263.447.263.447l.362.052s-.166.45-.579.461z" fill="#FB0"/>
    <path d="M15.959 13.699s-.47 1.073-1.208 1.156c-.739.083-1.114-.61-1.114-.61s-.048.72-.926.999c-.877.278-1.339-.833-1.339-.833s.457.409 1.165.23c.709-.178.988-.835.988-.835s.524.686 1.226.343c.701-.343 1.09-.762 1.09-1.164v-1.201s-.182-.312-.495-.312c-.315 0-.402.22-.402.22s-.123-1.25 1.006-1.327v-.003l.032.002.03-.002v.003c1.13.078 1.007 1.328 1.007 1.328s-.087-.221-.401-.221c-.314 0-.495.312-.495.312v1.201c0 .402.388.821 1.09 1.164.7.343 1.225-.343 1.225-.343s.28.658.988.836c.708.178 1.165-.231 1.165-.231s-.462 1.11-1.34.833c-.877-.278-.925-1-.925-1s-.375.694-1.114.611c-.738-.083-1.207-1.156-1.207-1.156l-.023-1.417-.023 1.417zm-.01-2.997c-.522 0-.627.44-.627.44.458 0 .626.2.626.2s.34-.2.681-.2c0 0-.16-.44-.68-.44z" fill="#FB0"/>
  </g>
</svg>
