<svg width="32" height="24" fill="none" xmlns="http://www.w3.org/2000/svg">
  <mask id="a" maskUnits="userSpaceOnUse" x="0" y="0" width="32" height="24">
    <path fill="#fff" d="M0 0h32v24H0z"/>
  </mask>
  <g mask="url(#a)">
    <path fill-rule="evenodd" clip-rule="evenodd" d="M0 0v24h32V0H0z" fill="#00B4FF"/>
    <mask id="b" maskUnits="userSpaceOnUse" x="0" y="0" width="32" height="24">
      <path fill-rule="evenodd" clip-rule="evenodd" d="M0 0v24h32V0H0z" fill="#fff"/>
    </mask>
    <g mask="url(#b)">
      <path fill="#2B409A" d="M0 0h18v14H0z"/>
      <mask id="c" maskUnits="userSpaceOnUse" x="0" y="0" width="18" height="14">
        <path fill="#fff" d="M0 0h18v14H0z"/>
      </mask>
      <g mask="url(#c)">
        <path d="M-2.004 13l3.96 1.737L18.09 1.889l2.09-2.582-4.236-.58-6.58 5.536-5.297 3.73L-2.004 13z" fill="#F7FCFF"/>
        <path d="M-1.462 14.217l2.018 1.008L19.429-.933h-2.833l-18.058 15.15z" fill="#F50100"/>
        <path d="M20.004 13l-3.96 1.737L-.09 1.889-2.18-.693l4.236-.58 6.58 5.536 5.297 3.73L20.004 13z" fill="#F7FCFF"/>
        <path d="M19.87 13.873l-2.019 1.009-8.036-6.918-2.383-.773L-2.38-.684H.453l9.807 7.688 2.605.927 7.004 5.942z" fill="#F50100"/>
        <mask id="d" maskUnits="userSpaceOnUse" x="-2" y="-2" width="22" height="18" fill="#000">
          <path fill="#fff" d="M-2-2h22v18H-2z"/>
          <path fill-rule="evenodd" clip-rule="evenodd" d="M9.985 0h-2v6H0v2h7.985v6h2V8H18V6H9.985V0z"/>
        </mask>
        <path fill-rule="evenodd" clip-rule="evenodd" d="M9.985 0h-2v6H0v2h7.985v6h2V8H18V6H9.985V0z" fill="#F50100"/>
        <path d="M7.985 0v-1.5h-1.5V0h1.5zm2 0h1.5v-1.5h-1.5V0zm-2 6v1.5h1.5V6h-1.5zM0 6V4.5h-1.5V6H0zm0 2h-1.5v1.5H0V8zm7.985 0h1.5V6.5h-1.5V8zm0 6h-1.5v1.5h1.5V14zm2 0v1.5h1.5V14h-1.5zm0-6V6.5h-1.5V8h1.5zM18 8v1.5h1.5V8H18zm0-2h1.5V4.5H18V6zM9.985 6h-1.5v1.5h1.5V6zm-2-4.5h2v-3h-2v3zm1.5 4.5V0h-3v6h3zM0 7.5h7.985v-3H0v3zm1.5.5V6h-3v2h3zm6.485-1.5H0v3h7.985v-3zm1.5 7.5V8h-3v6h3zm.5-1.5h-2v3h2v-3zM8.485 8v6h3V8h-3zM18 6.5H9.985v3H18v-3zM16.5 6v2h3V6h-3zM9.985 7.5H18v-3H9.985v3zM8.485 0v6h3V0h-3z" fill="#F7FCFF" mask="url(#d)"/>
      </g>
      <path fill-rule="evenodd" clip-rule="evenodd" d="M26.857 10.685l.607-1.126 1.332-.04-1.031-.86.355-1.163-.889.534-1.124-.682.109 1.292-1.007.605 1.307.163.34 1.277zm-3.393.874l-.607 1.126-.34-1.277-1.308-.163 1.007-.605-.109-1.292 1.124.682.89-.534-.356 1.162 1.031.862-1.332.04zm-2.607 3.126l.607-1.126 1.332-.04-1.031-.86.355-1.163-.889.534-1.124-.682.109 1.292-1.007.605 1.307.163.34 1.277zm-4 4l.607-1.126 1.332-.04-1.031-.86.355-1.163-.889.534-1.124-.682.109 1.292-1.007.605 1.307.163.34 1.277zm-3.883 3.05l-1.1.653.366-1.27-1.037-.813h1.175l.572-1.164.612 1.164H14.6l-.904.813.44 1.27-1.162-.652zm4.49-.176l-.607 1.126-.34-1.277-1.308-.163 1.007-.605-.109-1.292 1.124.682.89-.534-.356 1.162 1.031.862-1.332.04zm4-2l-.607 1.126-.34-1.277-1.308-.163 1.007-.605-.109-1.292 1.124.682.89-.534-.356 1.162 1.031.862-1.332.04zm4-2l-.607 1.126-.34-1.277-1.308-.163 1.007-.605-.109-1.292 1.124.682.89-.534-.356 1.162 1.031.862-1.332.04zm1.393-.874l.607-1.126 1.332-.04-1.031-.86.355-1.163-.889.534-1.124-.682.109 1.292-1.007.605 1.307.163.34 1.277z" fill="#FFD018"/>
    </g>
  </g>
</svg>
