<svg width="32" height="24" fill="none" xmlns="http://www.w3.org/2000/svg">
  <mask id="a" maskUnits="userSpaceOnUse" x="0" y="0" width="32" height="24">
    <path fill="#fff" d="M0 0h32v24H0z"/>
  </mask>
  <g mask="url(#a)">
    <path fill-rule="evenodd" clip-rule="evenodd" d="M0 0v24h32V0H0z" fill="#FECA00"/>
    <mask id="b" maskUnits="userSpaceOnUse" x="0" y="0" width="32" height="24">
      <path fill-rule="evenodd" clip-rule="evenodd" d="M0 0v24h32V0H0z" fill="#fff"/>
    </mask>
    <g mask="url(#b)">
      <path fill="#272727" d="M0 0h32v4H0z"/>
      <path fill="#D74800" d="M0 8h32v4H0z"/>
      <path fill="#272727" d="M0 12h32v4H0z"/>
      <path fill="#D74800" d="M0 20h32v4H0z"/>
      <path fill-rule="evenodd" clip-rule="evenodd" d="M16 18a6 6 0 100-12 6 6 0 000 12z" fill="#F7FCFF"/>
      <path fill-rule="evenodd" clip-rule="evenodd" d="M13.68 8.329l-1.058.347 1.058.09s.17.419 0 .745c-.044.083-.156.19-.299.325-.42.399-1.108 1.05-1.108 2.11 0 1.42 2.74 2.064 2.74 2.064v.675s.319.197-1.496.197c-1.574 0-1.475.598-1.421.925a.87.87 0 01.015.128c0 .258.756-.258 1.11-.772.187-.271.968-.257 1.769-.183.063.006.647 1.244.14 1.883-.213.268-.949.303-1.408.325-.235.011-.397.02-.382.053.011.025.15.017.351.005.252-.015.601-.036.923-.005.049.004-.14.169-.332.335-.198.171-.397.345-.341.347.063.003.433-.201.769-.387.277-.154.532-.295.57-.295.254 0 .483.03.684.058.335.046.592.081.754-.058.05-.043-.24-.113-.534-.183-.303-.073-.612-.147-.563-.195.278-.277.162-.857.07-1.313-.041-.205-.077-.385-.07-.502.023-.415.462-.197.807-.026.151.075.284.14.356.14.653 0-.158-.825-.603-1.279l-.107-.11c-.226-.233-.068-.202.291-.13.274.053.664.13 1.089.13.981 0 1.697-.318 1.448-1.181-.164-.57-1.062-.763-2.001-.965-.484-.105-.979-.212-1.39-.373-1.009-.398-.957-.978-.914-1.469a2.96 2.96 0 00.017-.274c0-.532.898-1.182.898-1.182s-.41-.687-1.09-.687c-.679 0-.742.687-.742.687zm1.848 6.247v-.501s.42-.014.566.339c.148.353-.566.162-.566.162z" fill="#272727"/>
      <path fill-rule="evenodd" clip-rule="evenodd" d="M13.077 6.711l1.014 1.202.524-.123-.251-1.214-1.287.135z" fill="#D74800"/>
      <path fill-rule="evenodd" clip-rule="evenodd" d="M14.393 6.42l.065 1.808.866-.213.368-1.184-1.3-.41z" fill="#FFD018"/>
      <path fill-rule="evenodd" clip-rule="evenodd" d="M13.577 9.439a.342.342 0 00.346-.338.342.342 0 00-.346-.337.342.342 0 00-.346.337c0 .187.155.338.346.338zm2.2-2.679l-1.008 1.206.213.496 1.15-.459-.356-1.244zm2.342 9.133s1.772-.792 1.772-1.899-2.878-2.313-2.878-2.313-1.693.387-.93.905c.763.519 1.786.718 1.786 1.408s.28 1.348-.288 1.348c-.568 0 .538.551.538.551z" fill="#D74800"/>
      <path fill-rule="evenodd" clip-rule="evenodd" d="M15.562 11.478s-.627.11-.598.212c.083.282.94.648 1.313.902.764.518 1.487.46 2.025.123.538-.338-2.74-1.237-2.74-1.237z" fill="#FFFDFF"/>
    </g>
  </g>
</svg>
