<svg width="32" height="24" fill="none" xmlns="http://www.w3.org/2000/svg">
  <mask id="a" maskUnits="userSpaceOnUse" x="0" y="0" width="32" height="24">
    <path fill="#fff" d="M0 0h32v24H0z"/>
  </mask>
  <g mask="url(#a)">
    <path fill-rule="evenodd" clip-rule="evenodd" d="M0 16h32v8H0v-8z" fill="#14DC5A"/>
    <path fill-rule="evenodd" clip-rule="evenodd" d="M0 0h32v10H0V0z" fill="#0099B5"/>
    <path d="M-2 9.5h-.5v7h37v-7H-2z" fill="#F7FCFF" stroke="#C51918"/>
    <path fill-rule="evenodd" clip-rule="evenodd" d="M14.541 3.006l-.673.374.192-.76-.644-.558h.842l.282-.72.331.72h.718l-.564.558.271.76-.755-.374zm-3.608 2.291l.673-.374.755.374-.27-.76.563-.558h-.718l-.33-.72-.283.72h-.842l.644.558-.192.76zM8.428 6.961l-.673.374.192-.76-.645-.559h.842l.283-.719.33.72h.719l-.564.558.27.76-.754-.374zm3.178 0l-.673.374.192-.76-.644-.559h.842l.282-.719.331.72h.718l-.564.558.271.76-.755-.374zm2.98 0l-.673.374.192-.76-.644-.559h.842l.282-.719.331.72h.718l-.564.558.271.76-.755-.374zm-.673-1.664l.673-.374.755.374-.27-.76.563-.558h-.718l-.33-.72-.283.72h-.842l.644.558-.192.76zm3 2.038l.672-.374.756.374-.271-.76.564-.559h-.718l-.332-.719-.282.72h-.842l.645.558-.193.76zm.672-2.412l-.673.374.193-.76-.645-.558h.842l.282-.72.332.72h.718l-.564.558.27.76-.755-.374zm-.717-1.543l.673-.374.755.374-.271-.76.564-.558h-.718l-.331-.72-.283.72h-.842l.645.558-.192.76zm3.748 3.581l-.673.374.192-.76-.645-.559h.842l.283-.719.33.72h.719l-.564.558.27.76-.754-.374zm-.673-1.664l.673-.374.755.374-.271-.76.564-.558h-.718l-.331-.72-.283.72h-.842l.645.558-.192.76zm.628-2.29l-.673.373.192-.76-.645-.558h.842l.283-.72.331.72h.718l-.564.558.271.76-.755-.374zM5.885 8.24s-2.416-.656-2.37-3.08C3.56 2.739 6 2.11 6 2.11c-.997-.377-3.945.13-4 3.028-.054 2.9 2.956 3.47 3.885 3.104z" fill="#F7FCFF"/>
  </g>
</svg>
