<svg width="32" height="24" fill="none" xmlns="http://www.w3.org/2000/svg">
  <mask id="a" maskUnits="userSpaceOnUse" x="0" y="0" width="32" height="24">
    <path fill="#fff" d="M0 0h32v24H0z"/>
  </mask>
  <g mask="url(#a)">
    <path fill-rule="evenodd" clip-rule="evenodd" d="M0 0h32v24H0V0z" fill="#F7FCFF"/>
    <path fill-rule="evenodd" clip-rule="evenodd" d="M0 0v24h32V0H0z" fill="#5EAA22"/>
    <mask id="b" maskUnits="userSpaceOnUse" x="0" y="0" width="32" height="24">
      <path fill-rule="evenodd" clip-rule="evenodd" d="M0 0v24h32V0H0z" fill="#fff"/>
    </mask>
    <g mask="url(#b)">
      <path fill="#FF8126" d="M27 10h5v14h-5z"/>
      <path fill="#272727" d="M22 10h5v14h-5z"/>
      <path fill="#C51918" d="M17 10h5v14h-5z"/>
      <path fill-rule="evenodd" clip-rule="evenodd" d="M24.547 4.838c.481.149 0 .377 0 .377s-.095-.093-.095-.17c0-.078-.369 0-.559.282-.18.267.152.267.501.266h.058c.197 0 .506-.017.792-.032.25-.013.483-.026.613-.026.278 0 .41 0 .777-.208.24-.136 1.029-.302 1.616-.425.316-.067.574-.12.655-.151.232-.087-.232.371-.232.371s1.789-.608 2.147-.816c.221-.129.121-.019-.043.16a4.18 4.18 0 00-.315.372c-.152.21.156.01.498-.214.184-.12.377-.246.514-.318.394-.208-.1.356-.317.532-.217.176.51 0 .762-.176.185-.13.016.097-.127.287a3.852 3.852 0 00-.125.173l-.005.007c-.097.15-.128.198.105.198.237 0-.61.556-.61.556s.252-.034 0 .336c-.149.218-.874.438-1.462.617-.41.125-.753.23-.79.299-.067.125-.726.27-1.034.337-.11.024-.174.039-.151.039.086 0 .23.092.074.092-.157 0-.432.075-.432.075s.145 0 0 .174c-.07.084-.191.07-.276.061-.093-.01-.143-.015-.036.113.095.114.13.157.122.17-.01.016-.084-.01-.198-.01-.1 0-.207-.036-.319-.074a1.23 1.23 0 00-.388-.086c-.247 0 0 .148.155.24l.019.01c.138.083.08.083-.17.082h-.08c-.155 0-.238-.014-.283-.022-.047-.008-.052-.009-.052.022 0 .03-.116-.012-.257-.06-.145-.052-.316-.112-.409-.112-.183 0 .388.318.388.318s-.297-.08-.458-.146c-.092-.037.025.138.13.296.08.12.152.23.123.23a.53.53 0 01-.127-.042c-.114-.046-.258-.104-.258-.026 0 .115.132.201.293.201.16 0 .187.18.092.18a.44.44 0 01-.112-.023c-.074-.021-.141-.041-.141.024 0 .042.028.073.061.11.046.05.1.108.1.217 0 .187-.24.214-.161.09.078-.124-.273-.424-.273-.278v.188c0 .132-.03.14-.077.154a.193.193 0 00-.104.06c-.058.062-.067.098-.072.118-.005.02-.006.024-.047.024-.033 0-.06-.042-.097-.097-.057-.086-.136-.205-.29-.26-.148-.05-.156-.013-.17.052a.233.233 0 01-.097.163c-.112.08-.08.112-.044.151.021.023.044.047.044.083 0 .1-.196-.1-.196-.234 0-.135-.223-.314-.223-.214s0 .214-.114.214c-.055 0-.058.033-.06.078-.003.048-.007.109-.079.156-.07.047-.07.022-.066-.033.003-.052.008-.131-.047-.201-.069-.088-.011-.223.018-.292.019-.044.026-.06-.018-.022-.111.1-.253.1-.349.1h-.004c-.048 0-.09.052-.12.089-.03.036-.048.058-.048 0 0-.114.142-.416.41-.416.206 0 .31-.07.399-.131.027-.018.052-.036.078-.05.115-.061 0-.142-.114-.201-.052-.027-.034-.114.003-.192.063-.034.111-.077.111-.12 0-.053-.068.027-.111.12a.628.628 0 01-.255.076c-.06 0-.023-.093.025-.21.04-.099.088-.214.088-.304a.93.93 0 01.029-.211c.015-.067.021-.095-.029-.06-.062.045-.393-.004-.62-.037-.096-.014-.174-.026-.202-.026-.043 0-.008-.067.025-.133.043-.084.085-.167-.025-.116-.173.081-.525.078-.748.076h-.088c-.13 0-.04-.098.008-.15.027-.03.04-.044-.008-.018a.83.83 0 01-.414.092c-.067 0-.086-.033-.108-.07-.025-.045-.054-.095-.175-.094-.22.002-.27-.001-.392-.082-.063-.042-.028-.067-.008-.081.019-.013.025-.017-.072-.017h-.6c-.298 0 .001-.196.109-.196s.232-.177 0-.098c-.149.051-.308.037-.496.02a3.615 3.615 0 00-.348-.02c-.355 0-.422-.138-.213-.138.21 0 .222-.1-.104-.1a1.78 1.78 0 01-.497-.083.773.773 0 00-.177-.037c-.114 0-.239-.136 0-.136.24 0 .546-.113.285-.113-.148 0-.395-.067-.61-.124a2.16 2.16 0 00-.378-.084c-.052 0 .03-.015.137-.034.216-.04.538-.098.127-.098-.44 0-.899-.302-1.216-.51-.13-.085-.235-.154-.306-.181-.246-.095 0-.283.071-.205.07.078.568.198.352.093a1.185 1.185 0 01-.423-.377c-.07-.096-.016-.163.071-.087.087.076.49.293.49.293s-.215-.206-.387-.53c-.17-.324.172-.245.465 0 .293.245.568.31.706.324.138.014-.138-.177-.404-.324-.266-.148-.205-.676 0-.465.107.11.613.319 1.108.523.457.189.904.373 1.02.472.2.172.039-.084-.136-.361a21.239 21.239 0 01-.106-.17c-.116-.188.35.026.88.27.382.175.797.366 1.052.432.176.046.386.12.595.193.517.182 1.033.362 1.033.127 0-.33.473-.847.98-1.021.322-.111.474-.011.664.115.11.073.233.154.409.209zM24 8.714c.115 0 .083-1.004.083-1.004s.338.616.338.882c0 .121-.01.157-.007.192.004.042.027.082.109.265.083.185.028.165-.123.11a1.499 1.499 0 00-.526-.11c-.498 0 .012-.335.126-.335z" fill="#FF8126"/>
      <path d="M24.547 5.215l-.088.09.063.06.079-.037-.054-.113zm0-.377l.037-.12-.037.12zm-.654.489l-.104-.07.104.07zm.501.266v.125-.125zm.85-.032l-.006-.125.006.125zm1.39-.234l.062.109-.062-.11zm1.616-.425l-.026-.123.026.123zm.655-.151l.044.117-.044-.117zm-.232.371l-.088-.089.128.208-.04-.119zm2.147-.816l-.063-.108.063.108zm-.043.16l.092.084-.092-.084zm-.315.372l.101.072-.101-.072zm.498-.214l.069.105-.069-.105zm.514-.318l.058.11-.058-.11zm-.317.532l-.079-.097.079.097zm.762-.176l-.072-.103.072.103zm-.127.287l-.1-.075.1.075zm-.125.173l.105.068-.105-.068zm-.005.007l.105.068-.104-.068zm-.505.754l-.069-.105.085.228-.016-.123zm0 .336l.103.07-.103-.07zm-1.462.617l-.036-.12.036.12zm-.79.299l-.11-.059.11.059zm-1.034.337l.027.123-.027-.123zm-.509.206l-.033-.12.033.245v-.125zm0 .174l-.096-.08.096.08zm-.276.061l-.014.124.014-.124zm-.036.113l.096-.08-.096.08zm.122.17l.104.069-.104-.07zm-.517-.084l-.04.119.04-.119zm-.233.153l.064-.107-.064.107zm.019.012l-.064.107.064-.107zm-.17.081l.001-.125v.125zm-.363-.022l-.021.123.02-.123zm-.309-.039l.042-.118-.042.118zm-.021.207l-.033.121.094-.23-.061.11zm-.458-.146l-.047.116.047-.116zm.13.296l.104-.069-.104.07zm-.004.188l-.047.116.047-.116zm.015.332l.035-.12-.035.12zm-.08.133l.093-.084-.093.084zm-.411.372l-.034-.12.034.12zm-.104.06l-.091-.085.091.085zm-.072.118l.122.03-.122-.03zm-.144-.073l-.105.069.105-.07zm-.29-.26l-.042.119.041-.118zm-.17.052l-.122-.026.123.026zm-.097.163l-.072-.102.072.102zm-.044.151l-.09.086.09-.086zm-.55-.073l-.124-.008.125.008zm-.078.156l.069.105-.069-.105zm-.066-.033l.125.008-.125-.008zm-.047-.201l-.098.077.098-.077zm.018-.292l-.115-.049.115.049zm-.018-.022l.084.094-.084-.094zm-.349.1V9.4v.125zm-.124.089l-.097-.08.097.08zm.761-.547l.07.103-.07-.103zm.078-.05l-.06-.11.06.11zm-.114-.201l-.058.11.058-.11zm-.227-.326l-.115-.047.115.047zm.117-.515l-.122-.028.122.028zm-.029-.06l.073.102-.073-.101zm-.62-.037l.019-.124-.018.124zm-.177-.16l-.111-.056.111.057zm-.025-.115l.053.114-.053-.114zm-.748.076l.001-.125v.125zm-.08-.15l-.092-.084.091.084zm-.008-.018l-.059-.11.06.11zm-.521.022l.108-.062-.108.062zm-.176-.094v-.125.125zm-.392-.082l-.07.104.07-.104zm-.008-.081l.072.102-.072-.102zm-.563-.31l-.04-.119.04.118zm-.496.02l.011-.125-.011.124zm-1.162-.341l-.034.12.034-.12zm-.501-.411l-.033.12.033-.12zm-.242-.118l.023.123-.023-.123zm-1.09-.608l.07-.104-.07.104zm-.305-.181l-.045.116.045-.116zm.424-.112l-.055.113.055-.113zm-.353-.464l-.082.094.082-.094zm.49.293l-.06.11.146-.2-.086.09zm-.387-.53l.111-.059-.11.059zm.465 0l.08-.096-.08.096zm.302-.465l.09-.087-.09.087zm1.108.523l.048-.115-.048.115zm1.02.472l.08-.094-.08.094zm-.136-.361l-.106.067.106-.067zm-.106-.17l-.106.066.106-.065zm.88.27l-.052.113.052-.113zm1.052.432l-.032.121.032-.12zm.595.193l.041-.118-.041.118zm2.013-.894l.04.118-.04-.118zm.664.115l.07-.104-.07.104zm-.054 3.081l.11-.06-.235.064.125-.004zm.331 1.074l-.124.011.124-.01zm.109.265l.114-.052-.114.052zm-.123.11l-.043.118.043-.118zm.146-3.944l.054.113h.002a.34.34 0 00.023-.012.586.586 0 00.2-.155c.042-.055.091-.153.034-.26-.047-.09-.15-.144-.276-.183l-.074.24c.115.035.132.065.13.06-.012-.022.007-.035-.01-.013a.346.346 0 01-.082.067.644.644 0 01-.052.03h-.003l.054.113zm-.22-.17c0 .08.045.152.07.187a.619.619 0 00.056.066l.004.004.002.002.088-.089.087-.089-.001-.001a.367.367 0 01-.052-.072c-.005-.011-.004-.013-.004-.009h-.25zm-.33.352a.639.639 0 01.292-.23.342.342 0 01.105-.026c.01 0 .004.002-.01-.005a.102.102 0 01-.057-.092h.25a.148.148 0 00-.09-.135.227.227 0 00-.098-.018.58.58 0 00-.19.043.888.888 0 00-.41.323l.208.14zm.397.07a3.822 3.822 0 01-.244-.003.714.714 0 01-.167-.023c-.04-.012-.024-.019-.017.004.006.019-.009.01.03-.048l-.206-.14c-.05.075-.091.167-.063.26.03.099.116.142.18.163.068.021.15.03.23.034.081.004.17.004.257.004v-.25zm.058 0h-.058v.25h.058v-.25zm.786-.03c-.289.015-.593.03-.786.03v.25c.201 0 .514-.016.8-.031l-.014-.25zm.619-.027c-.134 0-.372.013-.62.026l.014.25c.251-.013.48-.026.605-.026v-.25zm.716-.192a1.453 1.453 0 01-.389.17 1.407 1.407 0 01-.328.022v.25c.137 0 .254 0 .384-.029.13-.03.267-.088.456-.196l-.123-.217zm1.651-.439c-.293.062-.64.135-.942.21a7.103 7.103 0 00-.414.112 1.62 1.62 0 00-.295.117l.123.218c.047-.027.13-.06.246-.096a6.87 6.87 0 01.4-.109c.298-.073.64-.145.934-.207l-.052-.245zm.637-.145c-.03.011-.106.03-.223.057l-.414.088.052.245c.158-.033.302-.063.417-.09a2.18 2.18 0 00.256-.066l-.088-.234zm-.188.488l.088.09V5.21l.002-.001.004-.004a3.834 3.834 0 00.269-.304.383.383 0 00.048-.088.164.164 0 00.01-.079.138.138 0 00-.082-.107.162.162 0 00-.09-.01.306.306 0 00-.06.016l.087.234c.01-.004.013-.004.01-.004h-.014a.112.112 0 01-.1-.094.097.097 0 01.001-.029c0-.005.002-.01.003-.01 0-.002-.003.007-.018.028a3.023 3.023 0 01-.241.27l-.004.003v.001l.087.09zm2.084-.924c-.08.046-.25.12-.47.207-.216.085-.472.18-.717.27a56.955 56.955 0 01-.86.303l-.057.02-.015.004-.004.002h-.001l.04.118.04.119h.002l.004-.002.015-.005.057-.02a57.722 57.722 0 00.864-.304c.246-.09.505-.186.724-.273.217-.085.405-.166.504-.223l-.126-.216zm.112.352l.11-.12a.612.612 0 00.074-.1.167.167 0 00.016-.043.132.132 0 00-.118-.162.159.159 0 00-.053.006.648.648 0 00-.14.067l.125.216.06-.033.018-.008s-.013.003-.03.002a.118.118 0 01-.106-.142c.003-.013.007-.02.008-.02 0-.002-.002.002-.01.013a.951.951 0 01-.033.04l-.105.116.184.168zm-.306.36a4.28 4.28 0 01.306-.36l-.184-.168c-.1.109-.231.252-.325.383l.203.146zm.329-.39c-.174.113-.33.215-.423.263a.354.354 0 01-.045.02h.006a.093.093 0 01.06.013.114.114 0 01.057.089.078.078 0 01-.005.037c0 .002.004-.007.021-.032l-.203-.145a.409.409 0 00-.051.09.165.165 0 00-.011.071.136.136 0 00.068.108c.036.02.07.019.087.017a.224.224 0 00.048-.01.569.569 0 00.082-.036c.108-.056.278-.166.446-.276l-.137-.21zm.524-.325c-.144.076-.343.206-.524.324l.137.21c.185-.121.372-.243.503-.313l-.116-.22zm-.18.74a2.9 2.9 0 00.41-.433.853.853 0 00.069-.108.325.325 0 00.024-.057.176.176 0 00.005-.087.143.143 0 00-.088-.103.175.175 0 00-.095-.008.526.526 0 00-.145.056l.116.221a.584.584 0 01.053-.024c.013-.006.019-.007.019-.007h-.01a.091.091 0 01-.03-.006.107.107 0 01-.065-.076.086.086 0 01-.002-.028c0-.005.002-.008.002-.009l-.006.013a.614.614 0 01-.049.074 2.614 2.614 0 01-.366.388l.157.194zm.61-.376c-.105.075-.332.158-.513.201a1.187 1.187 0 01-.163.026.058.058 0 01-.005 0h.006a.086.086 0 01.022.01.11.11 0 01.04.135.068.068 0 01-.008.013l.01-.01-.157-.193a.313.313 0 00-.05.048.162.162 0 00-.036.094.14.14 0 00.065.124.182.182 0 00.075.026.483.483 0 00.12-.003 1.42 1.42 0 00.139-.027c.19-.045.454-.137.6-.239l-.144-.205zm.046.465c.07-.092.153-.204.195-.276a.355.355 0 00.03-.064.192.192 0 00.008-.054.134.134 0 00-.156-.13.186.186 0 00-.049.015.484.484 0 00-.073.044l.143.205a.278.278 0 01.034-.021.114.114 0 01-.102-.018.116.116 0 01-.047-.09c0-.017.004-.028.004-.028 0-.003-.001.002-.01.016a3.345 3.345 0 01-.177.251l.2.15zm-.12.166a3.76 3.76 0 01.12-.166l-.2-.15c-.05.067-.1.135-.13.18l.21.136zm-.005.007l.005-.007-.21-.136-.004.007.21.136zm0 .005a.904.904 0 01-.099-.007h-.001l.01.006c.006.004.012.01.019.018a.093.093 0 01.015.03c.006.02.003.035.002.038 0 .002 0 .002 0 0l.004-.007a2.726 2.726 0 01.05-.083l-.21-.136c-.022.035-.047.073-.063.106a.208.208 0 00-.023.153c.025.082.1.109.139.119.043.01.098.013.157.013v-.25zm-.61.68l.068.105h.001l.002-.002.007-.004.027-.018a9.03 9.03 0 00.365-.259c.09-.07.183-.145.238-.207a.365.365 0 00.041-.054.183.183 0 00.028-.088.145.145 0 00-.07-.13.186.186 0 00-.097-.023v.25c.007 0-.01.002-.032-.012a.106.106 0 01-.05-.094c0-.024.01-.037.007-.032a1.635 1.635 0 01-.217.192 6.833 6.833 0 01-.378.266l-.007.005h-.001v.001l.068.105zm.103.407a.804.804 0 00.125-.25c.017-.072.012-.148-.038-.207a.215.215 0 00-.138-.073.281.281 0 00-.065 0h-.003a7.56 7.56 0 00.032.247h-.002l.005.001c.007 0-.007.001-.02-.015-.019-.022-.008-.037-.014-.011a.577.577 0 01-.088.167l.206.141zm-1.529.667c.294-.09.626-.19.904-.297.14-.053.268-.11.374-.167a.73.73 0 00.251-.203l-.207-.14a.507.507 0 01-.165.124c-.09.05-.208.101-.342.153-.268.102-.592.2-.887.29l.073.24zm-.716.238c-.009.017-.019.021-.01.015a.288.288 0 01.037-.02 1.6 1.6 0 01.16-.065c.138-.05.324-.105.53-.168l-.073-.24c-.204.063-.395.12-.54.172a1.845 1.845 0 00-.188.076.527.527 0 00-.07.041.212.212 0 00-.067.071l.221.118zm-1.117.4c.153-.033.399-.087.615-.148.107-.031.211-.065.294-.1a.77.77 0 00.115-.058.27.27 0 00.093-.094l-.22-.118c.007-.013.011-.011-.009.002a.53.53 0 01-.076.038c-.07.03-.162.06-.266.09-.207.058-.445.11-.6.144l.054.245zm-.178-.208h.014c.004.001.014.003.027.008a.125.125 0 01.001.231c-.004.002-.002 0 .013-.003l.123-.027-.054-.245c-.054.012-.1.022-.128.03a.4.4 0 00-.042.011l-.023.011a.126.126 0 00-.05.16c.021.047.062.062.069.065a.129.129 0 00.05.009v-.25zm.074.342a.31.31 0 00.074-.007.162.162 0 00.09-.053.139.139 0 00.019-.143.174.174 0 00-.048-.063.327.327 0 00-.096-.054.334.334 0 00-.113-.022v.25h.002l.006.001a.134.134 0 01.018.005c.015.006.022.011.021.01l-.006-.006a.09.09 0 01-.014-.023.112.112 0 01.05-.14.068.068 0 01.014-.005h-.017v.25zm-.432-.05l.033.12h.002l.009-.002a2.755 2.755 0 01.139-.033c.088-.019.185-.035.249-.035v-.25c-.093 0-.212.022-.3.04a3.46 3.46 0 00-.151.036l-.01.003h-.003l.032.121zm.096.254a.413.413 0 00.086-.147.178.178 0 00-.032-.165.187.187 0 00-.1-.06.23.23 0 00-.043-.007h-.006l-.001.125v.125h-.001a.027.027 0 01-.003 0 .045.045 0 01-.005 0l-.01-.005a.083.083 0 01-.04-.057c-.003-.013 0-.021 0-.023 0 0-.006.016-.037.054l.192.16zm-.386.105c.04.005.107.013.173.005a.318.318 0 00.213-.11l-.192-.16c-.007.009-.02.018-.051.021a.53.53 0 01-.116-.004l-.027.248zm.074-.09a.372.372 0 01-.037-.051c-.002-.003.003.006.005.02a.108.108 0 01-.077.116l-.01.002a.51.51 0 01.045.003l.027-.248c-.02-.002-.049-.006-.074-.005-.012 0-.031 0-.051.006a.143.143 0 00-.108.156.19.19 0 00.02.064c.016.03.04.063.068.096l.192-.16zm.13.318a.134.134 0 00.02-.09.157.157 0 00-.013-.048.32.32 0 00-.033-.053c-.022-.03-.058-.073-.104-.128l-.192.16c.049.059.078.094.095.117l.008.01a.09.09 0 01-.008-.029.116.116 0 01.018-.077l.209.138zm-.302.046c.048 0 .087.005.121.01.015.002.037.005.055.005.01 0 .027 0 .045-.005a.136.136 0 00.08-.056l-.208-.138a.115.115 0 01.082-.05h.005l-.006-.002a.827.827 0 01-.02-.002c-.034-.004-.088-.012-.154-.012v.25zm-.358-.08c.106.036.233.08.358.08v-.25a.943.943 0 01-.278-.067l-.08.237zm-.35-.08c.112 0 .222.037.35.08l.08-.237c-.12-.04-.27-.093-.43-.093v.25zm.22.007a3.567 3.567 0 01-.12-.073.64.64 0 01-.085-.064c-.01-.008-.007-.008-.002 0 .004.01.02.05-.006.094-.021.035-.052.04-.046.04a.196.196 0 01.04-.004v-.25a.418.418 0 00-.101.01.17.17 0 00-.108.076.152.152 0 00-.003.147.255.255 0 00.053.068c.063.06.179.128.25.17l.128-.214zm.02.011l-.02-.01-.128.214.019.011.128-.215zm-.235.314h.156a.407.407 0 00.117-.017.14.14 0 00.091-.096.14.14 0 00-.033-.128.415.415 0 00-.097-.073l-.128.215.035.022c.008.006.007.006.002 0a.114.114 0 01.046-.176c.007-.002.008-.001-.002 0a4.988 4.988 0 01-.186.003v.25zm-.08 0h.08l.001-.25h-.081v.25zm-.304-.024c.049.009.14.024.303.024v-.25a1.39 1.39 0 01-.261-.02l-.042.246zm.095-.101c0-.01 0 .001-.004.016a.116.116 0 01-.102.082.078.078 0 01-.008 0 .172.172 0 01.019.003l.042-.246-.036-.006c-.009 0-.04-.004-.073.009a.135.135 0 00-.083.091c-.006.023-.005.045-.005.051h.25zm-.424.057c.068.024.138.049.19.063a.386.386 0 00.083.015c.013 0 .042 0 .073-.014a.134.134 0 00.078-.121h-.25a.117.117 0 01.097-.114l.011-.001c.003 0-.004 0-.027-.007a2.966 2.966 0 01-.172-.057l-.083.236zm-.368-.104c.027 0 .077.01.15.031.069.02.145.047.218.073l.083-.236c-.072-.025-.154-.054-.23-.076a.845.845 0 00-.22-.042v.25zm.388.193l.06-.109-.005-.003-.017-.01a5.333 5.333 0 01-.231-.14.813.813 0 01-.12-.091c-.003-.004 0-.002.003.004.002.004.017.032.008.071a.11.11 0 01-.065.08c-.016.006-.026.005-.02.005v-.25a.195.195 0 00-.073.013.14.14 0 00-.07.202.25.25 0 00.034.045c.04.042.105.09.164.128a4.178 4.178 0 00.27.164h.001l.06-.109zm-.505-.03a3.784 3.784 0 00.422.137l.036.01.01.003h.003v.001h.001l.033-.12.033-.121-.003-.001-.01-.003a4.295 4.295 0 01-.153-.044 3.542 3.542 0 01-.278-.094l-.094.232zm.28.111a2.81 2.81 0 01-.143-.235c-.003-.008.002.002.002.02a.115.115 0 01-.082.104.103.103 0 01-.055 0h-.002l.094-.232a.164.164 0 00-.107-.009.135.135 0 00-.098.13.182.182 0 00.014.074.485.485 0 00.024.054c.035.066.095.156.145.232l.209-.138zm.02.425a.132.132 0 00.13-.106.164.164 0 00-.007-.077.419.419 0 00-.036-.075 3.51 3.51 0 00-.106-.167l-.209.138c.041.062.077.116.099.154l.015.027-.003-.011a.114.114 0 010-.038.119.119 0 01.117-.095v.25zm-.174-.052l.081.032c.02.007.057.02.093.02v-.25c.01 0 .015.002.01 0a1.833 1.833 0 01-.09-.034l-.094.232zm-.086-.142a.092.092 0 01-.063.084c-.017.005-.023 0-.002.005.037.008.09.028.151.053l.094-.232c-.053-.021-.13-.052-.193-.066a.25.25 0 00-.125.001.158.158 0 00-.112.155h.25zm.168.076a.248.248 0 01-.137-.036c-.028-.02-.03-.035-.03-.04h-.25a.3.3 0 00.14.247.496.496 0 00.277.08v-.25zm.092.43c.07 0 .13-.036.16-.097a.208.208 0 00.009-.157.265.265 0 00-.261-.176v.25c.016 0 .022.004.023.005.001.001 0 .002 0 0 0 0-.004-.013.005-.033a.076.076 0 01.064-.041v.25zm-.148-.028c.033.01.093.029.148.029v-.25a.369.369 0 01-.077-.018l-.07.24zm.02-.096a.084.084 0 01-.029.057.083.083 0 01-.051.024l.014.003a.879.879 0 01.046.012l.071-.24c-.029-.008-.086-.026-.135-.025a.17.17 0 00-.114.043.168.168 0 00-.052.126h.25zm.029.025a.833.833 0 01-.03-.036c-.002-.002-.002-.002 0 0v.01h-.25c0 .1.071.168.095.195l.185-.169zm.132.302c0-.16-.085-.25-.132-.302l-.185.169a.35.35 0 01.05.063.13.13 0 01.017.07h.25zm-.392.023c-.027.042-.067.139.007.217.06.065.145.053.185.042a.287.287 0 00.2-.282h-.25c0 .019-.006.028-.01.033a.032.032 0 01-.007.007l-.003.002.004-.001a.05.05 0 01.01 0 .09.09 0 01.053.027.095.095 0 01.026.072c-.002.016-.007.022-.003.017l-.212-.134zm-.042-.21a.09.09 0 01-.046.072.092.092 0 01-.045.013c-.01 0-.015-.002-.016-.002l.02.011a.341.341 0 01.113.122c.018.034-.001.021.016-.006l.212.134c.056-.09.023-.187-.004-.24a.589.589 0 00-.124-.16.443.443 0 00-.162-.1.173.173 0 00-.138.013.162.162 0 00-.076.142h.25zm0 .187v-.188h-.25v.188h.25zm-.169.274c.018-.005.085-.019.127-.083a.343.343 0 00.042-.191h-.25a.33.33 0 01-.003.056c-.002.009-.003.005.003-.003a.066.066 0 01.024-.022h.002a.243.243 0 01-.012.003l.067.24zm-.045.025a.07.07 0 01.02-.016.141.141 0 01.025-.009l-.067-.24c-.036.01-.099.027-.161.095l.183.17zm-.042.063a.033.033 0 01.005-.015.232.232 0 01.037-.048l-.183-.17a.474.474 0 00-.075.102.291.291 0 00-.027.07l.243.06zm-.17.119c.012 0 .026 0 .04-.002a.158.158 0 00.062-.02.14.14 0 00.057-.064.148.148 0 00.01-.033l-.242-.06c-.002.009 0 0 .004-.01a.11.11 0 01.044-.049.114.114 0 01.035-.012h-.01v.25zm-.2-.153a.826.826 0 00.06.084.19.19 0 00.14.069v-.25a.08.08 0 01.042.01l.005.004a.206.206 0 01-.015-.02c-.007-.01-.015-.02-.024-.035l-.209.138zm-.228-.21c.111.039.17.123.227.21l.209-.138c-.056-.085-.155-.238-.353-.308l-.083.236zm-.005-.042a.605.605 0 01.004-.018V9.58a.083.083 0 01-.037.037c-.02.01-.033.007-.023.008a.331.331 0 01.06.017l.084-.236a.56.56 0 00-.113-.03.206.206 0 00-.12.018.173.173 0 00-.082.09c-.01.025-.015.053-.018.065l.245.05zm-.148.24c.116-.082.137-.187.148-.24l-.245-.05a.204.204 0 01-.014.05.094.094 0 01-.033.036l.144.204zm-.025-.036a.268.268 0 01-.01-.011c-.002-.002-.002-.002 0 0 .002.004.012.02.01.044-.002.023-.012.035-.01.032a.202.202 0 01.035-.029l-.144-.204a.43.43 0 00-.084.074.175.175 0 00-.018.218.28.28 0 00.04.047l.181-.171zm.078.168c0-.093-.062-.152-.078-.168l-.182.171.012.013.003.004-.003-.007a.042.042 0 01-.002-.013h.25zm-.446-.234c0 .061.021.12.044.164.024.047.055.09.086.125.028.03.07.069.117.087a.148.148 0 00.138-.016.15.15 0 00.061-.126h-.25s0-.046.044-.078a.103.103 0 01.094-.015c.011.004.003.004-.018-.02a.338.338 0 01-.049-.07.132.132 0 01-.017-.051h-.25zm.027-.214a.098.098 0 01-.043.077.096.096 0 01-.076.017c-.01-.002 0-.002.023.019.02.017.039.04.053.062l.013.028.003.011h.25a.331.331 0 00-.053-.17.534.534 0 00-.1-.119.32.32 0 00-.131-.074.155.155 0 00-.127.022.153.153 0 00-.062.127h.25zm-.24.339c.05 0 .1-.013.143-.045a.229.229 0 00.076-.109c.023-.065.021-.142.021-.185h-.25a.95.95 0 01-.001.066.149.149 0 01-.006.037c-.002.005 0-.001.008-.008.01-.007.017-.006.01-.006v.25zm.065-.04l.002-.02c0-.002 0 .007-.007.018a.087.087 0 01-.038.036c-.014.006-.024.006-.021.006v-.25a.199.199 0 00-.086.018.163.163 0 00-.073.068.198.198 0 00-.022.067c-.003.016-.003.032-.004.042l.25.015zm-.134.254a.284.284 0 00.113-.139.359.359 0 00.021-.115l-.25-.015a.15.15 0 01-.005.042.02.02 0 01-.003.006.052.052 0 01-.014.012l.138.209zm-.26-.145c0 .01-.002.03 0 .048a.14.14 0 00.048.106.143.143 0 00.143.026.316.316 0 00.069-.035l-.138-.21c-.016.011-.018.011-.012.01 0-.001.054-.02.104.023a.109.109 0 01.035.068v-.021l-.249-.015zm-.02-.117c.023.029.024.062.02.117l.25.015c.003-.05.014-.175-.074-.286l-.196.154zm.001-.418a.825.825 0 00-.054.166.312.312 0 00.053.252l.196-.154c-.002-.003-.01-.016-.003-.054a.539.539 0 01.038-.112l-.23-.098zm.18.12l.007-.006a.117.117 0 01-.047.016.122.122 0 01-.133-.145l.002-.006-.009.02.23.099a.704.704 0 00.014-.033l.007-.024c0-.004.008-.034-.001-.068a.127.127 0 00-.136-.092.14.14 0 00-.059.021.311.311 0 00-.041.032l.167.187zm-.432.132c.091 0 .281.004.433-.131l-.167-.187c-.071.064-.165.068-.266.068v.25zm-.004 0h.004V9.4h-.004v.25zm-.023.043a.798.798 0 01.038-.043l.005-.004a.046.046 0 01-.02.004V9.4a.23.23 0 00-.149.06.571.571 0 00-.068.075l.194.158zm-.27-.078c0 .015 0 .045.012.074a.131.131 0 00.167.078.148.148 0 00.045-.026.213.213 0 00.02-.019.325.325 0 00.026-.03l-.194-.157a.338.338 0 01-.015.017l.004-.003a.103.103 0 01.031-.018.119.119 0 01.149.067c.007.019.005.03.005.017h-.25zm.535-.542a.51.51 0 00-.404.214.703.703 0 00-.096.168.454.454 0 00-.035.16h.25c0-.008.004-.032.018-.068a.45.45 0 01.06-.108c.055-.07.125-.116.207-.116v-.25zm.329-.11c-.082.056-.16.11-.329.11v.25a.75.75 0 00.47-.153l-.141-.207zm.089-.056c-.033.018-.064.039-.09.056l.141.207a.78.78 0 01.067-.043l-.118-.22zm-.113.02c.026.013.05.027.07.04a.17.17 0 01.034.027c.004.005-.015-.015-.008-.052.008-.035.032-.043.017-.035l.119.22a.203.203 0 00.11-.133.188.188 0 00-.044-.157.596.596 0 00-.183-.132l-.115.222zm-.053-.356a.477.477 0 00-.046.158c-.004.053.006.15.1.198l.114-.222a.072.072 0 01.033.036c.004.01.002.014.003.008 0-.006.002-.015.006-.029a.355.355 0 01.017-.043l-.227-.106zm.173.163a.465.465 0 00.11-.079.217.217 0 00.067-.15h-.25c0-.014.004-.023.006-.027l-.002.002a.223.223 0 01-.05.034l.12.22zm.177-.23a.148.148 0 00-.026-.086.132.132 0 00-.135-.053.155.155 0 00-.064.03.247.247 0 00-.032.03.618.618 0 00-.093.146l.227.106a.382.382 0 01.052-.084c.002-.003.002-.002 0 0-.001 0-.015.012-.04.017a.116.116 0 01-.119-.047c-.02-.03-.02-.058-.02-.059h.25zm-.49.321c.09 0 .219-.04.313-.091l-.119-.22a.517.517 0 01-.195.061v.25zm-.091-.382c-.022.053-.05.118-.06.17a.203.203 0 00.006.117.149.149 0 00.062.073.16.16 0 00.082.022v-.25a.1.1 0 01.087.062c.007.015.007.026.007.029v-.002a2.596 2.596 0 01.047-.127l-.231-.094zm.078-.257a.389.389 0 01-.023.11c-.015.047-.035.096-.055.147l.23.094c.02-.048.045-.106.063-.164a.628.628 0 00.035-.187h-.25zm.032-.24c-.012.052-.032.14-.032.24h.25a.81.81 0 01.026-.184l-.244-.055zm.166.071l.003-.002s-.008.005-.022.008a.117.117 0 01-.136-.085.09.09 0 01-.003-.028v.001a.994.994 0 01-.008.036l.244.055.01-.049c.001-.009.008-.043-.001-.077a.134.134 0 00-.159-.098.205.205 0 00-.074.036l.146.203zm-.71-.015c.112.016.255.037.377.048.062.006.122.01.172.008a.496.496 0 00.075-.007.213.213 0 00.086-.034l-.146-.203c.015-.01.025-.01.015-.009a1.299 1.299 0 01-.18-.004c-.114-.01-.25-.03-.363-.047l-.037.248zm-.185-.025h.004a.436.436 0 01.055.007l.126.018.036-.248a9.668 9.668 0 00-.129-.018.81.81 0 00-.092-.009v.25zm-.086-.315c-.015.03-.038.074-.05.113a.18.18 0 00-.002.102.14.14 0 00.058.077c.029.02.059.023.08.023v-.25a.11.11 0 01.101.077.091.091 0 01.004.036l-.001.006a1.428 1.428 0 01.033-.07l-.223-.114zm.139.055l.014-.006-.008.001a.09.09 0 01-.024 0 .11.11 0 01-.076-.055.099.099 0 01-.014-.057c.001-.01.003-.01-.005.008a1.214 1.214 0 01-.026.054l.223.113.032-.067a.286.286 0 00.025-.087.151.151 0 00-.018-.087.14.14 0 00-.099-.07.177.177 0 00-.075.005.34.34 0 00-.055.021l.106.227zm-.802.087c.11 0 .259.002.402-.007.138-.01.29-.03.4-.08l-.106-.227a.967.967 0 01-.31.058 5.202 5.202 0 01-.384.006l-.002.25zm-.087 0h.087l.002-.25h-.089v.25zm-.084-.36c-.012.013-.03.032-.046.053a.326.326 0 00-.05.08c-.011.031-.03.107.028.17.048.051.115.056.152.056v-.25h-.005c.004.002.02.007.037.024.017.02.025.043.026.062a.072.072 0 01-.005.03c0 .003.001-.003.013-.016a.711.711 0 01.033-.039l-.183-.17zm.144.177c.012-.007.013-.006.008-.005a.119.119 0 01-.051.005.124.124 0 01-.09-.189l.003-.003a.626.626 0 01-.014.016l.183.17.021-.024a.211.211 0 00.013-.016c.001-.002.016-.022.022-.051a.127.127 0 00-.109-.15.122.122 0 00-.062.007.32.32 0 00-.043.02l.119.22zm-.474.107a.954.954 0 00.474-.107l-.119-.22a.707.707 0 01-.355.077v.25zm-.216-.133a.23.23 0 00.216.134v-.25h-.004a.039.039 0 01.012.006l.003.003-.003-.006-.007-.011-.217.124zm-.066-.03a.17.17 0 01.05.005v.001h.001l.002.003a.232.232 0 01.013.02l.217-.123c-.012-.02-.037-.068-.088-.104a.328.328 0 00-.197-.053l.002.25zm-.462-.104a.534.534 0 00.204.09c.07.014.151.014.258.013l-.002-.25c-.114 0-.168 0-.208-.008a.29.29 0 01-.114-.053l-.138.208zm-.01-.288c-.004.003-.018.012-.031.025a.164.164 0 00-.046.076c-.026.097.048.16.087.187l.138-.208c-.008-.006-.002-.004.006.01a.097.097 0 01-.012.116c-.003.002-.005.004 0 0l-.142-.206zm-.001.21l.049.002c.015 0 .007.001-.007-.003a.122.122 0 01-.07-.057.122.122 0 01.024-.148l.006-.005-.001.001.143.205.011-.008a.128.128 0 00.038-.165c-.026-.048-.072-.06-.077-.062a.195.195 0 00-.056-.008l-.06-.001v.25zm-.6 0h.6v-.25h-.6v.25zm.109-.445a.53.53 0 00-.293.133.239.239 0 00-.056.077.157.157 0 00.012.15.187.187 0 00.11.073c.036.01.076.013.118.013v-.25a.234.234 0 01-.053-.004c-.008-.003.015 0 .033.029a.11.11 0 01.017.051.086.086 0 01-.007.035c-.004.011-.008.013-.001.006a.286.286 0 01.108-.06l.012-.003v-.25zm.04.146a.296.296 0 01.05-.014c.01-.001.004.002-.01-.003a.102.102 0 01-.068-.066.094.094 0 01.002-.069c.005-.011.007-.008-.005 0-.01.007-.014.006-.01.006v.25a.27.27 0 00.148-.047.263.263 0 00.094-.105.148.148 0 00-.094-.21.227.227 0 00-.094-.003.536.536 0 00-.093.024l.08.237zm-.547.026c.181.016.369.035.547-.026l-.08-.237c-.12.04-.25.031-.445.014l-.022.249zm-.337-.02c.12 0 .23.01.337.02l.022-.25c-.105-.009-.226-.02-.36-.02v.25zm-.213-.388a.304.304 0 00-.18.046.152.152 0 00-.063.123.16.16 0 00.05.114.353.353 0 00.164.08c.064.016.145.025.242.025v-.25a.787.787 0 01-.183-.018c-.046-.01-.054-.021-.047-.015a.09.09 0 01.024.064.098.098 0 01-.038.078c-.016.013-.016.003.03.003v-.25zm-.104.15c.076 0 .126.005.155.012l.019.005s-.005-.002-.011-.008a.098.098 0 01-.024-.033.11.11 0 01.016-.115c.015-.017.028-.02.023-.019a.251.251 0 01-.074.008v.25c.06 0 .116-.007.161-.023a.19.19 0 00.078-.051.14.14 0 00.024-.153.168.168 0 00-.078-.078.332.332 0 00-.078-.027.972.972 0 00-.21-.019v.25zm-.53-.087c.125.035.307.086.53.086v-.25a1.66 1.66 0 01-.463-.077l-.068.24zm-.143-.033c.02 0 .06.01.142.033l.068-.24a.81.81 0 00-.21-.043v.25zm0-.386a.347.347 0 00-.184.04.164.164 0 00-.072.093.16.16 0 00.01.112.231.231 0 00.105.105c.04.021.088.036.14.036v-.25a.056.056 0 01-.023-.006l-.005-.004.003.004a.06.06 0 01.006.011.09.09 0 01.004.063.086.086 0 01-.035.048c-.007.005-.01.004 0 .002a.271.271 0 01.05-.004v-.25zm.284.137a.34.34 0 01.049.002c.002 0-.003 0-.013-.005a.116.116 0 01-.043-.164.069.069 0 01.023-.024c.003-.003 0 0-.015.006a.923.923 0 01-.285.048v.25c.134 0 .286-.03.374-.065a.322.322 0 00.07-.035.16.16 0 00.043-.044.134.134 0 00-.057-.196.2.2 0 00-.05-.016.528.528 0 00-.096-.007v.25zm-.642-.129c.107.029.225.06.335.085.108.024.218.044.307.044v-.25c-.06 0-.147-.014-.253-.038a7.881 7.881 0 01-.324-.082l-.065.241zm-.346-.08c.017 0 .057.007.124.023.064.014.14.035.222.057l.065-.241c-.082-.022-.162-.044-.23-.06a.88.88 0 00-.18-.028v.25zm.115-.281a2.95 2.95 0 00-.134.025.389.389 0 00-.04.011c-.002.001-.02.008-.037.023a.126.126 0 00-.003.19.128.128 0 00.064.03.206.206 0 00.035.003v-.25h.008l.017.005a.124.124 0 01.008.232l-.004.002h-.002.003l.006-.002.123-.023-.044-.246zm.149.15a1.627 1.627 0 01.154.006c-.002 0-.005 0-.01-.003a.12.12 0 01-.069-.086.12.12 0 01.044-.118.087.087 0 01.012-.008c.003-.001.004-.001 0 0a1.085 1.085 0 01-.114.027l-.166.032.044.246c.102-.019.25-.045.317-.069a.256.256 0 00.034-.014c.006-.003.036-.018.057-.05a.129.129 0 00-.027-.17c-.026-.02-.053-.027-.062-.03a1.05 1.05 0 00-.214-.013v.25zm-1.285-.53c.158.103.359.235.577.34.217.106.461.19.708.19v-.25c-.193 0-.398-.066-.6-.164a4.936 4.936 0 01-.548-.325l-.137.209zm-.282-.17c.055.022.147.08.282.17l.137-.21c-.123-.08-.242-.16-.329-.193l-.09.233zm.208-.405c-.063-.07-.15-.064-.201-.05a.285.285 0 00-.143.093.211.211 0 00-.04.204c.028.08.1.129.176.158l.09-.233c-.047-.018-.037-.028-.03-.008a.05.05 0 01.002.029l-.003.007a.03.03 0 01.007-.006.032.032 0 01.008-.003h-.012a.069.069 0 01-.038-.022l.184-.169zm.206.29c.029.014.027.016.018.007a.12.12 0 01.067-.203c.011-.002.012 0-.008-.003a1.397 1.397 0 01-.272-.087c-.018-.009-.017-.01-.01-.004l-.185.169a.288.288 0 00.078.056.822.822 0 00.084.038 1.638 1.638 0 00.264.075.29.29 0 00.08.004.13.13 0 00.074-.226.33.33 0 00-.081-.051l-.109.225zm-.47-.416c.073.098.226.297.47.416l.109-.225a1.063 1.063 0 01-.377-.34l-.201.149zm.254-.256a.25.25 0 00-.118-.06.161.161 0 00-.155.055.176.176 0 00-.034.145.287.287 0 00.053.116l.202-.149c-.01-.013-.01-.018-.01-.013.001.003.006.03-.018.06a.089.089 0 01-.082.032c-.013-.002-.014-.007-.002.003l.164-.189zm.408.388l.06-.11h-.002l-.003-.002-.013-.007-.046-.025a11.75 11.75 0 01-.307-.178.971.971 0 01-.097-.066l-.164.19c.03.026.08.058.13.089a5.705 5.705 0 00.317.184l.048.026.013.007.003.002h.001l.06-.11zm-.497-.472a2.495 2.495 0 00.407.56l.002.002h.001l.087-.09.087-.09-.002-.001a2.244 2.244 0 01-.361-.498l-.221.117zm.655-.154a1.384 1.384 0 00-.243-.164.667.667 0 00-.231-.078.259.259 0 00-.123.015.185.185 0 00-.106.108.245.245 0 00-.005.14.55.55 0 00.053.133l.221-.117a.32.32 0 01-.03-.072c-.003-.015 0-.011-.004.003a.065.065 0 01-.035.036c-.009.004-.01.001.004.003a.432.432 0 01.14.05c.063.033.132.079.199.135l.16-.192zm.639.295a1.219 1.219 0 01-.64-.295l-.16.192c.316.263.615.336.774.352l.026-.249zm-.478-.09c.13.072.26.154.339.213a.61.61 0 01.044.036c.012.011.01.012.006.005a.098.098 0 01-.012-.046.116.116 0 01.042-.094.103.103 0 01.052-.023h.007l-.026.248c.014.001.03.002.049 0a.148.148 0 00.076-.03.134.134 0 00.05-.112.152.152 0 00-.022-.07.284.284 0 00-.052-.061.839.839 0 00-.063-.052 3.413 3.413 0 00-.368-.233l-.122.219zm.15-.661a.282.282 0 00-.127-.08.186.186 0 00-.16.029.237.237 0 00-.079.109.405.405 0 00-.024.12c-.01.15.05.377.24.483l.122-.219c-.075-.041-.119-.152-.113-.25a.156.156 0 01.009-.045c.003-.01.004-.004-.007.004a.064.064 0 01-.052.01c-.009-.002-.005-.004.013.013l.179-.174zm1.067.495a23.725 23.725 0 01-.696-.296 4.038 4.038 0 01-.252-.122.607.607 0 01-.118-.077l-.18.174a.788.788 0 00.179.122c.074.04.166.085.268.13.204.093.457.198.703.3l.096-.231zm1.053.493a.944.944 0 00-.167-.105 4.605 4.605 0 00-.245-.117 25.887 25.887 0 00-.641-.271l-.096.23c.23.095.453.188.635.269.09.04.169.078.23.11a.745.745 0 01.121.073l.163-.19zm-.323-.2c.09.142.169.267.202.336l.01.022a.1.1 0 010-.034.117.117 0 01.07-.09c.04-.016.072-.005.076-.004l.008.003a.408.408 0 01-.043-.033l-.163.19a.617.617 0 00.075.056.21.21 0 00.044.021.14.14 0 00.097-.002.133.133 0 00.082-.104.16.16 0 00-.004-.061.365.365 0 00-.027-.072c-.04-.085-.13-.227-.215-.362l-.212.134zm-.106-.17l.106.17.212-.134a17.79 17.79 0 01-.105-.168l-.213.131zm1.039.09c-.263-.121-.518-.239-.693-.301a1.274 1.274 0 00-.122-.039.373.373 0 00-.113-.013.173.173 0 00-.076.024.145.145 0 00-.068.092.165.165 0 00.005.089.267.267 0 00.028.057l.213-.13c-.004-.008-.004-.009-.003-.005a.086.086 0 010 .045.104.104 0 01-.047.066.086.086 0 01-.034.012c-.002 0 .007 0 .035.006.025.006.058.017.098.03.162.06.405.17.672.293l.105-.227zm1.03.425c-.24-.064-.643-.248-1.03-.426l-.105.227c.377.173.804.37 1.072.44l.064-.241zm.605.195a8.154 8.154 0 00-.604-.195l-.064.241c.17.045.375.116.586.19l.082-.236zm.867.245c0 .006 0-.003.008-.013.007-.008.012-.006 0-.004a.494.494 0 01-.181-.013 5.896 5.896 0 01-.694-.215l-.082.236c.255.09.523.184.727.225.1.02.203.03.287.01a.246.246 0 00.13-.074.225.225 0 00.055-.152h-.25zm1.064-1.14a1.91 1.91 0 00-.73.485 1.532 1.532 0 00-.237.322.724.724 0 00-.097.333h.25c0-.054.02-.128.067-.215.046-.086.114-.178.199-.268.17-.18.399-.34.63-.42l-.082-.237zm.774.13c-.092-.061-.194-.13-.32-.163a.758.758 0 00-.454.033l.082.237a.513.513 0 01.308-.029c.08.021.148.065.246.13l.138-.208zm.377.193a1.398 1.398 0 01-.377-.193l-.138.208c.11.073.246.164.44.224l.075-.239zm-.5 2.992l-.125.004v.003a.33.33 0 010 .008l.002.031a9.264 9.264 0 010 .453c-.003.124-.01.244-.022.33a.475.475 0 01-.019.088c-.003.008-.002.004.005-.004A.1.1 0 0124 8.589v.25a.15.15 0 00.116-.057.234.234 0 00.038-.068.7.7 0 00.031-.14c.015-.101.021-.232.025-.359a9.585 9.585 0 000-.465l-.001-.032v-.011l-.126.003zm.463.882a.98.98 0 00-.059-.29 3.276 3.276 0 00-.12-.302 5.646 5.646 0 00-.159-.322l-.01-.02-.004-.006v-.001h-.001l-.11.06-.11.06h.001l.003.006a1.768 1.768 0 01.048.09c.031.061.072.144.113.236.042.091.082.189.112.278.03.093.046.165.046.21h.25zm-.007.181l.002-.043c.002-.031.005-.074.005-.138h-.25c0 .056-.002.092-.004.119-.002.022-.005.054-.002.084l.249-.022zm.098.224l-.083-.183a.397.397 0 01-.014-.034l-.001-.007-.25.022a.375.375 0 00.035.118l.085.187.228-.103zm-.28.28c.036.013.074.027.105.035a.295.295 0 00.057.01c.02.001.053.001.087-.016a.146.146 0 00.075-.095.188.188 0 00.002-.081.606.606 0 00-.046-.133l-.228.103a.806.806 0 01.028.074c0 .004-.002-.008.002-.026a.105.105 0 01.053-.065c.023-.012.042-.01.043-.01l-.008-.002a1.165 1.165 0 01-.084-.03l-.086.236zm-.483-.103c.198 0 .363.059.483.103l.086-.235c-.121-.044-.323-.118-.57-.118v.25zM24 8.589a.3.3 0 00-.103.022.809.809 0 00-.28.184.322.322 0 00-.069.103.182.182 0 00.015.167c.034.053.09.077.136.09a.677.677 0 00.175.019v-.25a.443.443 0 01-.11-.01c-.02-.006-.006-.007.008.014a.07.07 0 01.01.06c-.001.002.001-.005.016-.02a.566.566 0 01.188-.123c.02-.008.024-.006.014-.006v-.25z" fill="#272727"/>
    </g>
  </g>
</svg>
