<svg xmlns="http://www.w3.org/2000/svg" fill="none" viewBox="0 0 20 15"><mask id="068_svg__a" width="20" height="15" x="0" y="0" mask-type="alpha" maskUnits="userSpaceOnUse"><path fill="#fff" d="M0 0H20V15H0z"/></mask><g mask="url(#068_svg__a)"><path fill="#FECA00" fill-rule="evenodd" d="M0 0V15H20V0H0Z" clip-rule="evenodd"/><mask id="068_svg__b" width="20" height="15" x="0" y="0" mask-type="alpha" maskUnits="userSpaceOnUse"><path fill="#fff" fill-rule="evenodd" d="M0 0V15H20V0H0Z" clip-rule="evenodd"/></mask><g mask="url(#068_svg__b)"><path fill="#DB501C" fill-rule="evenodd" d="M0 0V5H20V0H0Z" clip-rule="evenodd"/><path fill="#5EAA22" fill-rule="evenodd" d="M0 10V15H20V10H0Z" clip-rule="evenodd"/><path stroke="#DB501C" stroke-width=".938" d="M7.2796 7.03748C7.2796 7.03748 7.04717 9.41817 9.16311 9.41817C11.2791 9.41817 10.7404 9.41817 10.7404 9.41817C10.7404 9.41817 12.9664 9.27295 12.7079 7.03748"/><path fill="#FECA00" stroke="#68B9E8" stroke-width=".938" d="M11.4062 7.375C11.4062 8.15165 10.7767 8.78125 10 8.78125C9.22335 8.78125 8.59375 8.15165 8.59375 7.375C8.59375 6.59835 9.22335 5.96875 10 5.96875C10.7767 5.96875 11.4062 6.59835 11.4062 7.375Z"/><path fill="#DB501C" fill-rule="evenodd" d="M10 7.5C10.3452 7.5 10.625 7.22018 10.625 6.875C10.625 6.52982 10.3452 6.25 10 6.25C9.65482 6.25 9.375 6.52982 9.375 6.875C9.375 7.22018 9.65482 7.5 10 7.5Z" clip-rule="evenodd"/><path fill="#5EAA22" fill-rule="evenodd" d="M10.0625 8.5C10.6493 8.5 11.125 8.27614 11.125 8C11.125 7.72386 10.6493 7.5 10.0625 7.5C9.4757 7.5 9 7.72386 9 8C9 8.27614 9.4757 8.5 10.0625 8.5Z" clip-rule="evenodd"/><path fill="#674F28" fill-rule="evenodd" d="M10.0625 6.25C10.8909 6.25 11.5625 6.02614 11.5625 5.75C11.5625 5.47386 10.8909 5.25 10.0625 5.25C9.23407 5.25 8.5625 5.47386 8.5625 5.75C8.5625 6.02614 9.23407 6.25 10.0625 6.25Z" clip-rule="evenodd"/></g></g></svg>