<svg xmlns="http://www.w3.org/2000/svg" fill="none" viewBox="0 0 20 15"><mask id="158_svg__a" width="20" height="15" x="0" y="0" maskUnits="userSpaceOnUse"><path fill="#fff" d="M0 0h20v15H0z"/></mask><g mask="url(#158_svg__a)"><path fill="#EF0000" fill-rule="evenodd" d="M0 0v15h20V0H0z" clip-rule="evenodd"/><mask id="158_svg__b" width="20" height="15" x="0" y="0" maskUnits="userSpaceOnUse"><path fill="#fff" fill-rule="evenodd" d="M0 0v15h20V0H0z" clip-rule="evenodd"/></mask><g fill-rule="evenodd" clip-rule="evenodd" mask="url(#158_svg__b)"><path fill="#2E42A5" d="M0 0v8.75h11.25V0H0z"/><path fill="#FEFFFF" d="M5.456 6.757L4.53 7.912l-.224-1.464-1.38.538.538-1.38L2 5.382l1.155-.926L2 3.53l1.464-.224-.538-1.38 1.38.538L4.53 1l.926 1.155L6.382 1l.224 1.464 1.38-.538-.538 1.38 1.464.224-1.155.926 1.155.926-1.464.224.538 1.38-1.38-.538-.224 1.464-.926-1.155zm0-.512a1.789 1.789 0 100-3.578 1.789 1.789 0 000 3.578zm1.431-1.789a1.431 1.431 0 11-2.862 0 1.431 1.431 0 012.862 0z"/></g></g></svg>