<svg xmlns="http://www.w3.org/2000/svg" fill="none" viewBox="0 0 20 15"><mask id="268_svg__a" width="20" height="15" x="0" y="0" maskUnits="userSpaceOnUse"><path fill="#fff" d="M0 0h20v15H0z"/></mask><g mask="url(#268_svg__a)"><path fill="#F7FCFF" fill-rule="evenodd" d="M0 0v15h20V0H0z" clip-rule="evenodd"/><mask id="268_svg__b" width="20" height="15" x="0" y="0" maskUnits="userSpaceOnUse"><path fill="#fff" fill-rule="evenodd" d="M0 0v15h20V0H0z" clip-rule="evenodd"/></mask><g fill="#E31D1C" fill-rule="evenodd" clip-rule="evenodd" mask="url(#268_svg__b)"><path d="M8.75 0h2.5v6.25H20v2.5h-8.75V15h-2.5V8.75H0v-2.5h8.75V0z"/><path d="M6.25 10.764l1.375-.139v1.25s-1.376-.086-1.376-.061c0 .025.126 1.311.126 1.311h-1.25l.1-1.25h-1.35v-1.25l1.35.139-.1-1.389h1.25l-.126 1.389zm0-7.5l1.375-.139v1.25s-1.376-.086-1.376-.061c0 .025.126 1.311.126 1.311h-1.25l.1-1.25h-1.35v-1.25l1.35.139-.1-1.389h1.25l-.126 1.389zm8.75 0l1.375-.139v1.25s-1.376-.086-1.376-.061c0 .025.126 1.311.126 1.311h-1.25l.1-1.25h-1.35v-1.25l1.35.139-.1-1.389h1.25l-.126 1.389zm0 7.5l1.375-.139v1.25s-1.376-.086-1.376-.061c0 .025.126 1.311.126 1.311h-1.25l.1-1.25h-1.35v-1.25l1.35.139-.1-1.389h1.25l-.126 1.389z"/></g></g></svg>