<svg xmlns="http://www.w3.org/2000/svg" fill="none" viewBox="0 0 20 15"><mask id="508_svg__a" width="20" height="15" x="0" y="0" maskUnits="userSpaceOnUse"><path fill="#fff" d="M0 0h20v15H0z"/></mask><g mask="url(#508_svg__a)"><path fill="#F7FCFF" fill-rule="evenodd" d="M0 0v15h20V0H0z" clip-rule="evenodd"/><mask id="508_svg__b" width="20" height="15" x="0" y="0" maskUnits="userSpaceOnUse"><path fill="#fff" fill-rule="evenodd" d="M0 0v15h20V0H0z" clip-rule="evenodd"/></mask><g mask="url(#508_svg__b)"><path fill="#FECA00" fill-rule="evenodd" d="M0 0v5h20V0H0z" clip-rule="evenodd"/><path fill="#093" fill-rule="evenodd" d="M0 10v5h20v-5H0z" clip-rule="evenodd"/><path fill="#272727" stroke="#fff" stroke-width="1.25" d="M0 4.375h-.625v6.25h21.25v-6.25H0z"/></g><path fill="#F50100" fill-rule="evenodd" d="M0 0v15l11.25-7.5L0 0z" clip-rule="evenodd"/><mask id="508_svg__c" width="12" height="15" x="0" y="0" maskUnits="userSpaceOnUse"><path fill="#fff" fill-rule="evenodd" d="M0 0v15l11.25-7.5L0 0z" clip-rule="evenodd"/></mask><g mask="url(#508_svg__c)"><path fill="#FECA00" fill-rule="evenodd" d="M5.043 8.97l-2.362 1.907L3.765 8.33 1.903 6.537H4.1l.902-2.162.957 2.162h2.194l-1.96 1.792.981 2.548-2.131-1.906z" clip-rule="evenodd"/><path fill="#F7FCFF" fill-rule="evenodd" d="M3.847 7.49l-.4 1.338s1.352-.013 1.515.123c.489-.305 1.496-.123 1.496-.123l-.535-1.432s-.68-.308-.961-.139c-.69-.156-1.115.233-1.115.233z" clip-rule="evenodd"/><path fill="#000" d="M7.227 9.51a.313.313 0 01-.499.376l-2.612-3.47a.312.312 0 11.499-.375l2.612 3.47z"/><path stroke="#000" stroke-linecap="round" stroke-linejoin="round" stroke-width=".625" d="M4.359 6.15l-.25-.3"/><path fill="#000" fill-rule="evenodd" d="M3.503 5.852l-.755 1.21.377.653.864-1.284.156-.397-.156-.182h-.486zm-.979 3.591l.365.513 2.81-3.324.116.13.647-.61 1.036-1.125-1.035.846-.335-.093-.313.492H5.5L3.206 8.826l-.682.617z" clip-rule="evenodd"/></g></g></svg>