<svg width="20" height="15" fill="none" xmlns="http://www.w3.org/2000/svg">
  <mask id="a" maskUnits="userSpaceOnUse" x="0" y="0" width="20" height="15">
    <path fill="#fff" d="M0 0h20v15H0z"/>
  </mask>
  <g mask="url(#a)">
    <path fill-rule="evenodd" clip-rule="evenodd" d="M0 0v15h20V0H0z" fill="#EF0000"/>
    <mask id="b" maskUnits="userSpaceOnUse" x="0" y="0" width="20" height="15">
      <path fill-rule="evenodd" clip-rule="evenodd" d="M0 0v15h20V0H0z" fill="#fff"/>
    </mask>
    <g mask="url(#b)">
      <path d="M0 5h-1.25v5h22.5V5H0z" fill="#EF0000" stroke="#F7FCFF" stroke-width="2.5"/>
    </g>
    <path fill-rule="evenodd" clip-rule="evenodd" d="M0 0v15l11.25-7.5L0 0z" fill="#3D58DB"/>
    <mask id="c" maskUnits="userSpaceOnUse" x="0" y="0" width="12" height="15">
      <path fill-rule="evenodd" clip-rule="evenodd" d="M0 0v15l11.25-7.5L0 0z" fill="#fff"/>
    </mask>
    <g mask="url(#c)">
      <path fill-rule="evenodd" clip-rule="evenodd" d="M4.18 8.886l-2.295 1.21 1.117-2.433-1.424-1.3 1.758-.065.844-2.2.644 2.2h1.754l-1.17 1.365.931 2.434-2.16-1.211z" fill="#F7FCFF"/>
    </g>
  </g>
</svg>
