<svg xmlns="http://www.w3.org/2000/svg" fill="none" viewBox="0 0 20 15"><mask id="768_svg__a" width="20" height="15" x="0" y="0" mask-type="alpha" maskUnits="userSpaceOnUse"><path fill="#fff" d="M0 0H20V15H0z"/></mask><g mask="url(#768_svg__a)"><path fill="#5EAA22" stroke="#F7FCFF" stroke-width="1.25" d="M0 -0.625H-0.625V0V15V15.625H0H20H20.625V15V0V-0.625H20H0Z"/><path fill="#FECA00" fill-rule="evenodd" d="M0 3.75V6.25H20V3.75H0zM0 8.75V11.25H20V8.75H0z" clip-rule="evenodd"/><path fill="#F50101" d="M0 0H10V8.75H0z"/><path fill="#F7FCFF" fill-rule="evenodd" d="M5.15625 6.34003L2.83167 7.77844L3.73414 5.36371L1.875 3.7369H4.15486L5.15625 1.33105L5.92044 3.7369H8.17287L6.5909 5.36371L7.36943 7.65998L5.15625 6.34003Z" clip-rule="evenodd"/></g></svg>