<svg xmlns="http://www.w3.org/2000/svg" fill="none" viewBox="0 0 20 15"><mask id="AUS_svg__a" width="20" height="15" x="0" y="0" mask-type="alpha" maskUnits="userSpaceOnUse"><path fill="#fff" d="M0 0H20V15H0z"/></mask><g mask="url(#AUS_svg__a)"><path fill="#2E42A5" fill-rule="evenodd" d="M0 0H20V15H0V0Z" clip-rule="evenodd"/><path fill="#2E42A5" d="M0 0H11V9H0z"/><mask id="AUS_svg__b" width="11" height="9" x="0" y="0" mask-type="alpha" maskUnits="userSpaceOnUse"><path fill="#fff" d="M0 0H11V9H0z"/></mask><g mask="url(#AUS_svg__b)"><path fill="#F7FCFF" d="M-1.25269 8.12488L1.22291 9.21063L11.3062 1.18046L12.612 -0.432999L9.96468 -0.795888L5.85197 2.66454L2.54165 4.99607L-1.25269 8.12488Z"/><path fill="#F50100" d="M-0.913757 8.88555L0.347444 9.51562L12.1431 -0.582947H10.3722L-0.913757 8.88555Z"/><path fill="#F7FCFF" d="M12.5026 8.12487L10.3055 9.52057L-0.0562172 1.18044L-1.36204 -0.433015L1.28526 -0.795905L5.39797 2.66453L8.70828 4.99605L12.5026 8.12487Z"/><path fill="#F50100" d="M12.4182 8.67082L11.157 9.3009L6.13425 4.97718L4.64512 4.4941L-1.48769 -0.427482H0.283185L6.41255 4.37728L8.04064 4.95655L12.4182 8.67082Z"/><mask id="AUS_svg__c" width="13" height="11" x="-1" y="-1" fill="#000" maskUnits="userSpaceOnUse"><path fill="#fff" d="M-1-1H12V10H-1z"/><path fill-rule="evenodd" d="M6 0H5V4H0V5H5V9H6V5H11V4H6V0Z" clip-rule="evenodd"/></mask><path fill="#F50100" fill-rule="evenodd" d="M6 0H5V4H0V5H5V9H6V5H11V4H6V0Z" clip-rule="evenodd"/><path fill="#F7FCFF" d="M5 0V-0.9375H4.0625V0H5ZM6 0H6.9375V-0.9375H6V0ZM5 4V4.9375H5.9375V4H5ZM0 4V3.0625H-0.9375V4H0ZM0 5H-0.9375V5.9375H0V5ZM5 5H5.9375V4.0625H5V5ZM5 9H4.0625V9.9375H5V9ZM6 9V9.9375H6.9375V9H6ZM6 5V4.0625H5.0625V5H6ZM11 5V5.9375H11.9375V5H11ZM11 4H11.9375V3.0625H11V4ZM6 4H5.0625V4.9375H6V4ZM5 0.9375H6V-0.9375H5V0.9375ZM5.9375 4V0H4.0625V4H5.9375ZM0 4.9375H5V3.0625H0V4.9375ZM0.9375 5V4H-0.9375V5H0.9375ZM5 4.0625H0V5.9375H5V4.0625ZM5.9375 9V5H4.0625V9H5.9375ZM6 8.0625H5V9.9375H6V8.0625ZM5.0625 5V9H6.9375V5H5.0625ZM11 4.0625H6V5.9375H11V4.0625ZM10.0625 4V5H11.9375V4H10.0625ZM6 4.9375H11V3.0625H6V4.9375ZM5.0625 0V4H6.9375V0H5.0625Z" mask="url(#AUS_svg__c)"/></g></g><path fill="#F7FCFF" d="M5.92003 12.2784 5.09999 13.0362 5.1812 11.9226 4.07742 11.7539 4.99872 11.1231 4.44237 10.155 5.51001 10.4819 5.92003 9.44336 6.33005 10.4819 7.39769 10.155 6.84134 11.1231 7.76264 11.7539 6.65886 11.9226 6.74007 13.0362 5.92003 12.2784zM13.24 8.29668 12.6933 8.8019 12.7474 8.05948 12.0116 7.94705 12.6258 7.52649 12.2549 6.88108 12.9666 7.09907 13.24 6.40668 13.5133 7.09907 14.2251 6.88108 13.8542 7.52649 14.4684 7.94705 13.7325 8.05948 13.7867 8.8019 13.24 8.29668zM14.52 2.9633 13.9733 3.46852 14.0275 2.7261 13.2916 2.61368 13.9058 2.19311 13.5349 1.54771 14.2467 1.76569 14.52 1.0733 14.7934 1.76569 15.5051 1.54771 15.1342 2.19311 15.7484 2.61368 15.0126 2.7261 15.0667 3.46852 14.52 2.9633zM17.72 5.62999 17.1733 6.13521 17.2275 5.39279 16.4916 5.28037 17.1058 4.8598 16.7349 4.21439 17.4467 4.43238 17.72 3.73999 17.9934 4.43238 18.7051 4.21439 18.3342 4.8598 18.9484 5.28037 18.2126 5.39279 18.2667 6.13521 17.72 5.62999zM15.16 13.2967 14.6133 13.8019 14.6675 13.0595 13.9316 12.9471 14.5458 12.5265 14.1749 11.8811 14.8867 12.0991 15.16 11.4067 15.4334 12.0991 16.1451 11.8811 15.7742 12.5265 16.3884 12.9471 15.6526 13.0595 15.7067 13.8019 15.16 13.2967zM17.4 9.13918 16.8446 9.4312 16.9506 8.81269 16.5013 8.37466 17.1223 8.28442 17.4 7.72168 17.6777 8.28442 18.2988 8.37466 17.8494 8.81269 17.9555 9.4312 17.4 9.13918z"/></svg>