<svg xmlns="http://www.w3.org/2000/svg" fill="none" viewBox="0 0 20 15"><mask id="BI_svg__a" width="20" height="15" x="0" y="0" mask-type="alpha" maskUnits="userSpaceOnUse"><path fill="#fff" d="M0 0H20V15H0z"/></mask><g mask="url(#BI_svg__a)"><rect width="20" height="15" fill="#5EAA22" rx="1.25"/><mask id="BI_svg__b" width="30" height="19" x="-5" y="-2" fill="#000" maskUnits="userSpaceOnUse"><path fill="#fff" d="M-5-2H25V17H-5z"/><path fill-rule="evenodd" d="M10 7.5L20 0H0L10 7.5ZM10 7.5L0 15H20L10 7.5Z" clip-rule="evenodd"/></mask><path fill="#DD2C2B" fill-rule="evenodd" d="M10 7.5L20 0H0L10 7.5ZM10 7.5L0 15H20L10 7.5Z" clip-rule="evenodd"/><path fill="#fff" d="M20 0L20.9375 1.25L24.6875 -1.5625H20V0ZM0 0V-1.5625H-4.6875L-0.9375 1.25L0 0ZM0 15L-0.9375 13.75L-4.6875 16.5625H0V15ZM20 15V16.5625H24.6875L20.9375 13.75L20 15ZM19.0625 -1.25L9.0625 6.25L10.9375 8.75L20.9375 1.25L19.0625 -1.25ZM0 1.5625H20V-1.5625H0V1.5625ZM10.9375 6.25L0.9375 -1.25L-0.9375 1.25L9.0625 8.75L10.9375 6.25ZM9.0625 6.25L-0.9375 13.75L0.9375 16.25L10.9375 8.75L9.0625 6.25ZM0 16.5625H20V13.4375H0V16.5625ZM20.9375 13.75L10.9375 6.25L9.0625 8.75L19.0625 16.25L20.9375 13.75Z" mask="url(#BI_svg__b)"/><path fill="#fff" fill-rule="evenodd" d="M10 11.25C12.0711 11.25 13.75 9.57107 13.75 7.5C13.75 5.42893 12.0711 3.75 10 3.75C7.92893 3.75 6.25 5.42893 6.25 7.5C6.25 9.57107 7.92893 11.25 10 11.25Z" clip-rule="evenodd"/><path fill="#DD2C2B" fill-rule="evenodd" d="M10.1044 6.51794 9.36968 6.90422 9.51 6.08608 8.91559 5.50667H9.73704L10.1044 4.64294 10.4718 5.50667H11.2932L10.6988 6.08608 10.8391 6.90422 10.1044 6.51794zM8.3513 9.01794 7.61656 9.40422 7.75689 8.58608 7.16248 8.00667H7.98393L8.3513 7.14294 8.71866 8.00667H9.54012L8.94571 8.58608 9.08603 9.40422 8.3513 9.01794zM11.8514 9.01794 11.1166 9.40422 11.2569 8.58608 10.6625 8.00667H11.484L11.8514 7.14294 12.2187 8.00667H13.0402L12.4458 8.58608 12.5861 9.40422 11.8514 9.01794z" clip-rule="evenodd"/></g></svg>