<svg xmlns="http://www.w3.org/2000/svg" fill="none" viewBox="0 0 20 15"><mask id="DJI_svg__a" width="20" height="15" x="0" y="0" mask-type="alpha" maskUnits="userSpaceOnUse"><path fill="#fff" d="M0 0H20V15H0z"/></mask><g mask="url(#DJI_svg__a)"><path fill="#73BE4A" fill-rule="evenodd" d="M0 0V15H20V0H0Z" clip-rule="evenodd"/><mask id="DJI_svg__b" width="20" height="15" x="0" y="0" mask-type="alpha" maskUnits="userSpaceOnUse"><path fill="#fff" fill-rule="evenodd" d="M0 0V15H20V0H0Z" clip-rule="evenodd"/></mask><g mask="url(#DJI_svg__b)"><path fill="#69F" fill-rule="evenodd" d="M0 -1.25V7.5H20V-1.25H0Z" clip-rule="evenodd"/></g><path fill="#fff" fill-rule="evenodd" d="M0 0V15L11.25 7.5L0 0Z" clip-rule="evenodd"/><mask id="DJI_svg__c" width="12" height="15" x="0" y="0" mask-type="alpha" maskUnits="userSpaceOnUse"><path fill="#fff" fill-rule="evenodd" d="M0 0V15L11.25 7.5L0 0Z" clip-rule="evenodd"/></mask><g mask="url(#DJI_svg__c)"><path fill="#E31D1C" fill-rule="evenodd" d="M4.37612 8.79417L3.20695 9.5L3.47363 8.12265L2.5 7.09184L3.81835 7.0361L4.37612 5.75L4.93389 7.0361H6.25L5.27861 8.12265L5.57106 9.5L4.37612 8.79417Z" clip-rule="evenodd"/></g></g></svg>