<svg xmlns="http://www.w3.org/2000/svg" fill="none" viewBox="0 0 20 15"><mask id="GG_svg__a" width="20" height="15" x="0" y="0" maskUnits="userSpaceOnUse"><path fill="#fff" d="M0 0h20v15H0z"/></mask><g mask="url(#GG_svg__a)"><path fill="#F7FCFF" fill-rule="evenodd" d="M0 0v15h20V0H0z" clip-rule="evenodd"/><mask id="GG_svg__b" width="20" height="15" x="0" y="0" maskUnits="userSpaceOnUse"><path fill="#fff" fill-rule="evenodd" d="M0 0v15h20V0H0z" clip-rule="evenodd"/></mask><g fill-rule="evenodd" clip-rule="evenodd" mask="url(#GG_svg__b)"><path fill="#E31D1C" d="M7.5 0h5v5H20v5h-7.5v5h-5v-5H0V5h7.5V0z"/><path fill="#FECA00" d="M8.128 1.904L8.75 3v3.25H4.29v-.036l-1.099-.623v3.725l1.04-.566H8.75v3.157l-.622 1.096h3.726l-.599-1.1h-.005V8.75h4.5l1.04.566V5.591l-1.099.623v.036H11.25V3.003h.005l.599-1.1H8.128z"/></g></g></svg>