<svg xmlns="http://www.w3.org/2000/svg" fill="none" viewBox="0 0 20 15"><mask id="GI_svg__a" width="20" height="15" x="0" y="0" mask-type="alpha" maskUnits="userSpaceOnUse"><path fill="#fff" d="M0 0H20V15H0z"/></mask><g mask="url(#GI_svg__a)"><path fill="#F7FCFF" d="M0 0H20V15H0z"/><path fill="#C51918" fill-rule="evenodd" d="M0 10H20V15H0V10Z" clip-rule="evenodd"/><path fill="#DB000B" fill-rule="evenodd" d="M9.83772 2.04163H8.91666V2.95829H9.37129L9.33886 5.47913H7.99561V4.33329H8.45614V3.41663H7.53508V3.87496H7.07456V3.41663H6.15351V4.33329H6.61403V5.47913H5.64285V6.39579L6.10338 6.39579V9.14579H5.64285V10.0625H14.3929V9.14579H13.4718V6.39579L14.3929 6.39579V5.47913H13.49L13.5128 4.33329H13.9825V3.41663H13.0614V3.87496H12.6009V3.41663H11.6798V4.33329H12.1312L12.1084 5.47913H10.7204L10.7529 2.95829H11.2193V2.04163H10.2982V2.49996H9.83772V2.04163Z" clip-rule="evenodd"/><path fill="#272727" d="M7.13159 5.48026C7.13159 5.35309 7.23468 5.25 7.36185 5.25C7.48903 5.25 7.59212 5.35309 7.59212 5.48026V6.625H7.13159V5.48026Z"/><path fill="#272727" fill-rule="evenodd" d="M6.75992 8.55639C6.75992 8.17488 7.0692 7.8656 7.45071 7.8656 7.83222 7.8656 8.1415 8.17488 8.1415 8.55639V9.69893H6.75992V8.55639zM11.8257 8.55639C11.8257 8.17488 12.135 7.8656 12.5165 7.8656 12.898 7.8656 13.2073 8.17488 13.2073 8.55639V9.69893H11.8257V8.55639zM9.06256 8.32828C9.06256 7.8196 9.47493 7.40723 9.98361 7.40723 10.4923 7.40723 10.9047 7.8196 10.9047 8.32828V10.1572H9.06256V8.32828z" clip-rule="evenodd"/><path fill="#272727" d="M9.89474 5.48026C9.89474 5.35309 9.99784 5.25 10.125 5.25 10.2522 5.25 10.3553 5.35309 10.3553 5.48026V6.625H9.89474V5.48026zM12.6579 5.48026C12.6579 5.35309 12.761 5.25 12.8882 5.25 13.0153 5.25 13.1184 5.35309 13.1184 5.48026V6.625H12.6579V5.48026z"/><path fill="#E8AA00" fill-rule="evenodd" d="M10.3265 9.49827 10.2135 9.70574 10.003 9.39172 8.27872 10.5473 10.2011 11.4622 11.8966 10.3535 10.3265 9.49827zM9.53913 10.455 10.0938 10.0832 10.6798 10.4024 10.1528 10.747 9.53913 10.455zM8.97369 12.8333H9.89475V13.7499H8.97369V12.8333z" clip-rule="evenodd"/><path fill="#E8AA00" fill-rule="evenodd" d="M9.5 11.25H10.593V13.75H9.5V11.25Z" clip-rule="evenodd"/></g></svg>