<svg xmlns="http://www.w3.org/2000/svg" fill="none" viewBox="0 0 20 15"><mask id="GL_svg__a" width="20" height="15" x="0" y="0" mask-type="alpha" maskUnits="userSpaceOnUse"><path fill="#fff" d="M0 0H20V15H0z"/></mask><g mask="url(#GL_svg__a)"><path fill="#C51918" fill-rule="evenodd" d="M0 7.5H20V15H0V7.5Z" clip-rule="evenodd"/><mask id="GL_svg__b" width="20" height="8" x="0" y="7" mask-type="alpha" maskUnits="userSpaceOnUse"><path fill="#fff" fill-rule="evenodd" d="M0 7.5H20V15H0V7.5Z" clip-rule="evenodd"/></mask><g mask="url(#GL_svg__b)"><path fill="#F7FCFF" fill-rule="evenodd" d="M7.5 12.5C10.2614 12.5 12.5 10.2614 12.5 7.5C12.5 4.73858 10.2614 2.5 7.5 2.5C4.73858 2.5 2.5 4.73858 2.5 7.5C2.5 10.2614 4.73858 12.5 7.5 12.5Z" clip-rule="evenodd"/></g><path fill="#F7FCFF" fill-rule="evenodd" d="M0 0H20V7.5H0V0Z" clip-rule="evenodd"/><mask id="GL_svg__c" width="20" height="8" x="0" y="0" mask-type="alpha" maskUnits="userSpaceOnUse"><path fill="#fff" fill-rule="evenodd" d="M0 0H20V7.5H0V0Z" clip-rule="evenodd"/></mask><g mask="url(#GL_svg__c)"><path fill="#C51918" fill-rule="evenodd" d="M7.5 12.5C10.2614 12.5 12.5 10.2614 12.5 7.5C12.5 4.73858 10.2614 2.5 7.5 2.5C4.73858 2.5 2.5 4.73858 2.5 7.5C2.5 10.2614 4.73858 12.5 7.5 12.5Z" clip-rule="evenodd"/></g></g></svg>