<svg xmlns="http://www.w3.org/2000/svg" fill="none" viewBox="0 0 20 15"><mask id="KN-SK_svg__a" width="20" height="15" x="0" y="0" mask-type="alpha" maskUnits="userSpaceOnUse"><path fill="#fff" d="M0 0H20V15H0z"/></mask><g mask="url(#KN-SK_svg__a)"><path fill="#C51918" fill-rule="evenodd" d="M0 0V15H20V0H0Z" clip-rule="evenodd"/><path fill="#5EAA22" fill-rule="evenodd" d="M0 0V15L20 0H0Z" clip-rule="evenodd"/><path fill="#272727" stroke="#FFD018" stroke-width="1.563" d="M0.397446 17.47L0.849551 17.9743L1.41291 17.5983L24.076 2.47115L24.8255 1.97087L24.224 1.29988L20.8985 -2.4099L20.4464 -2.91425L19.883 -2.53822L-2.78004 12.589L-3.52954 13.0892L-2.92805 13.7602L0.397446 17.47Z"/><path fill="#F7FCFF" fill-rule="evenodd" d="M7.5554 10.5739 6.87501 11.758 6.4405 10.4241 5.0892 9.99452 6.21523 9.30662 6.07955 7.91136 7.1909 8.7658 8.342 8.12774 8.01917 9.54899 8.9427 10.6119 7.5554 10.5739zM13.8054 6.47815 13.125 7.66231 12.6905 6.32836 11.3392 5.89882 12.4652 5.21092 12.3296 3.81566 13.4409 4.6701 14.592 4.03204 14.2692 5.45329 15.1927 6.51617 13.8054 6.47815z" clip-rule="evenodd"/></g></svg>