<svg width="20" height="15" fill="none" xmlns="http://www.w3.org/2000/svg">
  <mask id="a" maskUnits="userSpaceOnUse" x="0" y="0" width="20" height="15">
    <path fill="#fff" d="M0 0h20v15H0z"/>
  </mask>
  <g mask="url(#a)">
    <path fill-rule="evenodd" clip-rule="evenodd" d="M0 0v15h20V0H0z" fill="#F7FCFF"/>
    <mask id="b" maskUnits="userSpaceOnUse" x="0" y="0" width="20" height="15">
      <path fill-rule="evenodd" clip-rule="evenodd" d="M0 0v15h20V0H0z" fill="#fff"/>
    </mask>
    <g mask="url(#b)" fill-rule="evenodd" clip-rule="evenodd">
      <path d="M0 0v7.5h20V0H0z" fill="#E31D1C"/>
      <path d="M5.543 6.619s-1.766-.71-1.766-2.635c0-1.925 1.766-2.612 1.766-2.612-.859-.217-3.136-.023-3.136 2.612 0 2.635 2.243 3.131 3.136 2.635zm.452-.319l.507-.305.518.305-.127-.596.42-.471h-.57l-.241-.558-.242.558-.571.024.422.447-.116.596zm2.348-.34l-.506.306.115-.597-.422-.446.572-.024.241-.558.242.558h.57l-.42.47.126.597-.518-.306zM7.054 3.606l.507-.306.518.306-.127-.597.421-.47h-.57L7.56 1.98l-.242.557-.57.025.421.446-.116.597zm-1.198.908l-.507.306.116-.597-.422-.446.571-.025.242-.557.242.557h.57l-.42.471.126.597-.518-.306zm2.842.279l.507-.306.518.306-.127-.597.421-.471h-.57l-.242-.557-.242.557-.57.024.421.447-.116.597z" fill="#F1F9FF"/>
    </g>
  </g>
</svg>
