<svg width="20" height="15" fill="none" xmlns="http://www.w3.org/2000/svg">
  <path fill="#C00" d="M0 0h5v5H0z"/>
  <path d="M5 .65V0h-.612L0 4.35V5h.611L5 .65z" fill="#08672F"/>
  <path d="M0 .65V0h.611L5 4.35V5h-.624L0 .65z" fill="#08672F"/>
  <path d="M0 2.005L5 2v.995L0 3v-.995z" fill="#fff"/>
  <path d="M2 0h.995L3 5h-.995L2 0zM0 5h5v5H0V5z" fill="#fff"/>
  <path fill-rule="evenodd" clip-rule="evenodd" d="M4.24 5.573a.18.18 0 01.006-.054c.01-.02.028-.02.036.002a.63.63 0 01.012.09.515.515 0 00.057.208c.025.051.045.08.107.157l.033.04-.061-.001a.352.352 0 01-.074-.008c-.01-.005-.012 0-.015.031-.003.042-.021.074-.05.09-.017.01-.023.01-.038-.002a.145.145 0 01-.052-.09c-.005-.028-.006-.03-.02-.023a.317.317 0 01-.123.005c0-.003.017-.026.038-.05a.61.61 0 00.144-.395zM.586 7.503a.132.132 0 01.025-.052c.022-.026.042-.032.031-.01-.016.038-.012.07.015.105a.13.13 0 01.015.135C.65 7.723.6 7.725.57 7.683.546 7.65.545 7.612.566 7.565a.361.361 0 00.02-.062zm2.445-.04a.131.131 0 01.025-.052c.022-.026.041-.032.03-.01a.1.1 0 00.015.105c.03.04.037.095.016.134-.023.043-.072.044-.102.003-.024-.033-.026-.072-.005-.118a.362.362 0 00.021-.063zm-1.235.024a.132.132 0 01.025-.052c.022-.025.041-.031.03-.01a.1.1 0 00.015.105c.03.041.037.096.016.135-.023.042-.072.044-.102.003-.024-.033-.025-.072-.005-.119a.364.364 0 00.021-.062zm2.329.173c-.033.025-.069.031-.095.017-.021-.012-.023-.005-.006.019a.094.094 0 00.047.028.722.722 0 01.065.023c.044.02.084.018.113-.002.06-.04.02-.111-.06-.11a.098.098 0 00-.064.025zm.178.083a.182.182 0 00-.007.054.61.61 0 01-.144.395.321.321 0 00-.038.05c0 .008.11.004.124-.005.013-.007.015-.005.02.023a.145.145 0 00.05.09c.016.012.022.012.039.002.029-.015.047-.048.05-.09.003-.03.006-.036.016-.03.006.003.04.006.073.007l.061.002-.033-.04a.73.73 0 01-.107-.157.524.524 0 01-.057-.21.63.63 0 00-.012-.089c-.007-.021-.026-.022-.035-.002zm-2.395-.058a.093.093 0 00-.034.026c-.04.059.054.12.12.08.072-.044.074-.044.109-.032.03.01.03.01.025-.003-.012-.024-.03-.035-.102-.06-.082-.027-.085-.027-.118-.01zm-.374.04c.027.015.062.01.095-.016a.098.098 0 01.064-.025c.081-.001.12.07.06.11-.029.02-.068.021-.113.002a.72.72 0 00-.065-.023.094.094 0 01-.047-.028c-.017-.024-.015-.03.006-.02zm.273.067a.181.181 0 00-.006.054.61.61 0 01-.145.395.322.322 0 00-.038.05c0 .008.11.004.125-.005.013-.007.014-.005.019.023a.145.145 0 00.051.09c.016.012.022.012.038.002.03-.015.048-.048.05-.09.004-.03.006-.036.016-.03a.35.35 0 00.073.007l.062.002-.033-.04a.728.728 0 01-.107-.157.524.524 0 01-.057-.21.632.632 0 00-.012-.089c-.008-.021-.026-.022-.036-.002zm1.336-.132a.094.094 0 00-.034.026c-.04.059.054.12.12.08.072-.043.074-.044.109-.032.03.01.03.01.025-.003-.012-.024-.03-.034-.102-.06-.082-.027-.085-.027-.118-.01zm-.374.041c.026.015.062.008.095-.017a.098.098 0 01.064-.025c.081-.001.12.07.06.11-.03.02-.069.021-.113.002a.717.717 0 00-.065-.022.094.094 0 01-.047-.029c-.017-.023-.015-.03.006-.019zm.273.067a.181.181 0 00-.007.054.61.61 0 01-.144.394.322.322 0 00-.038.05c0 .008.11.004.124-.005.013-.007.015-.005.02.023a.145.145 0 00.051.09c.016.012.021.012.038.003.029-.016.047-.049.05-.09.003-.031.006-.037.016-.031a.35.35 0 00.073.007l.062.002-.033-.04a.73.73 0 01-.108-.157.524.524 0 01-.057-.21.633.633 0 00-.011-.089c-.008-.02-.026-.022-.036-.001zM.698 7.7a.094.094 0 00-.034.026c-.04.058.054.12.12.08.072-.044.075-.045.11-.033.029.01.03.01.024-.002-.012-.024-.03-.035-.102-.06C.735 7.683.732 7.683.698 7.7zm1.053-2.133a.181.181 0 00-.007.054.61.61 0 01-.144.394.323.323 0 00-.038.05c0 .009.11.005.124-.004.013-.008.015-.005.02.022a.145.145 0 00.051.091c.016.011.021.012.038.002.029-.016.047-.048.05-.09.003-.03.006-.036.016-.03a.35.35 0 00.073.007l.061.002-.032-.041a.729.729 0 01-.108-.157.524.524 0 01-.057-.209.629.629 0 00-.011-.09c-.008-.02-.026-.022-.036-.001zm1.228.03c0-.022.003-.046.007-.055.01-.02.028-.02.035.002.004.01.01.05.012.09a.536.536 0 00.057.209c.025.05.045.08.107.156l.033.04-.061-.001a.35.35 0 01-.073-.008c-.01-.005-.013 0-.016.032-.003.04-.021.074-.05.09-.017.01-.023.008-.038-.002a.145.145 0 01-.051-.092c-.005-.027-.007-.03-.02-.022a.317.317 0 01-.124.005c0-.003.017-.026.038-.05a.61.61 0 00.144-.395zM.554 5.582a.181.181 0 00-.006.055.657.657 0 01-.041.218l.002.244a.145.145 0 00.052.09c.015.012.02.012.038.003.029-.016.047-.049.05-.09.003-.031.006-.037.015-.031.007.003.04.006.074.007l.061.002-.033-.04a.729.729 0 01-.107-.157.524.524 0 01-.057-.21.63.63 0 00-.012-.089c-.008-.021-.026-.022-.036-.002zM3.69 8.6a.132.132 0 01.025-.052c.022-.026.04-.032.03-.01-.016.037-.012.07.015.105.03.04.037.095.015.135-.022.042-.072.044-.102.002-.024-.033-.025-.072-.004-.118a.363.363 0 00.02-.062zm.112.198a.094.094 0 00-.034.026c-.04.058.054.12.12.08.072-.044.074-.045.108-.033.03.01.031.01.025-.003-.012-.023-.03-.034-.102-.059-.081-.028-.084-.028-.117-.011zm-.375.04c.027.015.063.009.096-.016a.098.098 0 01.064-.025c.08-.002.12.069.06.11-.03.02-.069.02-.113.002a.723.723 0 00-.066-.023.094.094 0 01-.046-.028c-.017-.024-.015-.031.005-.02zm.287.061a.178.178 0 00-.007.054.601.601 0 01-.144.39.319.319 0 00-.038.05c0 .008.11.004.124-.005.013-.007.015-.005.02.023a.143.143 0 00.05.09c.016.01.022.011.039.002.029-.016.047-.048.05-.09.003-.03.006-.035.016-.03.006.003.04.006.073.007l.061.002-.033-.04a.72.72 0 01-.107-.155.515.515 0 01-.057-.207.622.622 0 00-.012-.089c-.007-.021-.026-.022-.035-.002zm-2.52-.25a.132.132 0 01.025-.052c.022-.026.041-.032.03-.01a.1.1 0 00.015.105c.03.04.037.095.016.135-.023.042-.072.044-.102.002-.024-.033-.026-.072-.005-.118a.361.361 0 00.021-.062zm.112.198a.094.094 0 00-.034.026c-.04.058.054.12.12.08.072-.044.074-.045.109-.033.03.01.03.01.025-.003-.012-.023-.03-.034-.102-.059-.082-.028-.085-.028-.118-.011zm-.374.04c.026.015.062.009.095-.016a.098.098 0 01.064-.025c.081-.002.12.069.06.11-.03.02-.069.02-.113.002a.724.724 0 00-.065-.023.094.094 0 01-.047-.029c-.017-.023-.015-.03.006-.019zm.287.061a.178.178 0 00-.007.054.601.601 0 01-.144.39.319.319 0 00-.038.05c0 .008.11.004.124-.005.013-.007.015-.005.02.023a.143.143 0 00.05.09c.016.01.022.011.039.002.029-.016.047-.048.05-.09.003-.03.006-.036.016-.03.006.003.04.006.073.007l.061.002-.033-.04a.722.722 0 01-.107-.155.515.515 0 01-.057-.207.62.62 0 00-.012-.09c-.007-.02-.025-.021-.035 0zm1.21-.324a.131.131 0 01.025-.052c.022-.026.041-.031.03-.01a.097.097 0 00.015.105c.03.041.037.096.016.135-.023.042-.072.044-.102.002-.024-.033-.026-.071-.005-.118a.365.365 0 00.02-.062zm.112.198a.094.094 0 00-.034.026c-.04.059.054.12.12.08.072-.044.074-.045.109-.032.03.01.03.01.025-.003-.013-.024-.031-.035-.102-.06-.082-.028-.085-.027-.118-.011zm-.374.04c.026.015.062.01.095-.016a.098.098 0 01.064-.025c.081-.001.12.07.06.11-.03.02-.069.021-.113.002a.722.722 0 00-.065-.023.094.094 0 01-.047-.028c-.017-.024-.015-.03.006-.02zm.286.061a.178.178 0 00-.006.054.601.601 0 01-.145.39.32.32 0 00-.037.05c0 .009.11.004.124-.005.013-.007.014-.004.02.023a.143.143 0 00.05.09c.016.01.022.012.038.002.03-.016.048-.048.05-.089.004-.03.007-.036.016-.03.007.002.04.005.073.006l.062.003-.033-.04a.721.721 0 01-.107-.156.515.515 0 01-.057-.207.618.618 0 00-.012-.089c-.008-.02-.026-.022-.036-.002zm1.193-2.577a.132.132 0 01.025-.052c.022-.025.042-.031.031-.01-.016.038-.012.07.014.106.03.04.037.095.016.134-.023.043-.072.044-.102.003-.024-.033-.025-.072-.004-.118a.36.36 0 00.02-.063zm.112.198a.094.094 0 00-.034.026c-.04.059.054.12.12.08.072-.043.075-.044.11-.032.029.01.03.01.024-.003-.012-.024-.03-.034-.102-.06-.081-.027-.084-.027-.118-.01zm-.374.04c.027.016.062.01.096-.016a.098.098 0 01.063-.025c.081-.001.12.07.06.11-.029.02-.068.021-.112.002a.714.714 0 00-.066-.022.094.094 0 01-.046-.029c-.018-.023-.016-.03.005-.02zm.273.068a.181.181 0 00-.006.054.61.61 0 01-.145.394.321.321 0 00-.037.05c0 .008.11.004.124-.005.013-.007.014-.005.019.023a.145.145 0 00.051.09c.016.012.022.012.038.003.03-.016.048-.049.05-.09.004-.031.007-.037.016-.031a.35.35 0 00.073.007l.062.002-.033-.04a.729.729 0 01-.107-.157.523.523 0 01-.057-.21.63.63 0 00-.012-.089c-.008-.021-.026-.022-.036-.001zm-2.506-.257a.131.131 0 01.025-.052c.022-.025.041-.031.03-.01-.016.038-.012.07.015.106.03.04.037.095.016.134-.023.043-.072.044-.102.003-.024-.033-.026-.072-.005-.118a.361.361 0 00.02-.063zm.112.198a.094.094 0 00-.034.026c-.04.059.054.12.12.08.072-.043.074-.044.109-.032.029.01.03.01.024-.003-.012-.024-.03-.034-.101-.06-.082-.027-.085-.027-.118-.01zm-.374.04c.026.015.062.01.095-.016a.098.098 0 01.064-.025c.08-.001.12.07.06.11-.03.02-.069.021-.113.002a.719.719 0 00-.065-.022.094.094 0 01-.047-.029c-.017-.023-.015-.03.006-.02zm.273.067a.181.181 0 00-.007.055.61.61 0 01-.144.394.321.321 0 00-.038.05c0 .008.11.004.124-.005.013-.007.015-.005.02.023a.145.145 0 00.05.09c.016.012.022.012.039.003.029-.016.047-.049.05-.09.003-.031.006-.037.016-.031.006.003.04.006.073.007l.061.002-.033-.04A.729.729 0 011.266 7a.524.524 0 01-.057-.21.633.633 0 00-.012-.089c-.007-.021-.026-.022-.035-.002zm1.224-.33a.131.131 0 01.025-.051c.022-.026.04-.032.03-.01-.016.037-.012.07.015.105.03.04.037.095.015.134-.022.043-.072.044-.102.003-.024-.033-.025-.072-.004-.118a.363.363 0 00.02-.062zm.112.199a.094.094 0 00-.034.025c-.04.06.054.12.12.08.072-.043.074-.044.108-.032.03.01.031.01.025-.003-.012-.023-.03-.034-.102-.06-.081-.027-.084-.027-.117-.01zm-.375.04c.027.015.063.009.096-.017a.098.098 0 01.064-.025c.08 0 .12.07.06.11-.03.02-.069.021-.113.002a.718.718 0 00-.066-.022.094.094 0 01-.046-.029c-.017-.023-.015-.03.005-.019zm.273.067a.181.181 0 00-.006.054.61.61 0 01-.144.394.32.32 0 00-.038.05c0 .009.11.004.124-.005.013-.007.014-.005.02.023a.145.145 0 00.05.091c.016.01.022.012.039.002.029-.016.047-.049.05-.09.003-.03.006-.037.015-.031a.35.35 0 00.074.007l.061.002-.033-.04a.73.73 0 01-.107-.157.524.524 0 01-.057-.21.63.63 0 00-.012-.088c-.007-.022-.026-.023-.036-.002zM.59 7.867c0-.021.003-.045.006-.054.01-.02.028-.02.036.002.003.01.009.05.012.09a.52.52 0 00.057.209.73.73 0 00.107.156l.033.041-.062-.002A.351.351 0 01.705 8.3c-.01-.005-.012 0-.015.032-.003.041-.022.074-.05.09-.017.01-.023.008-.039-.002a.145.145 0 01-.05-.091l-.003-.244a.657.657 0 00.04-.219z" fill="#000"/>
  <path d="M0 15h5v-5H0v5z" fill="#C00"/>
  <path d="M5 0h15v15H5V0z" fill="#0092C8"/>
  <path d="M1.669 11.346c-.048-.058-.001-.164.042-.119-.023-.043.014-.078.03-.056-.008-.035.027-.058.045-.026-.007-.04.045-.062.059-.02 0-.038.051-.069.062-.012.01-.043.067-.05.071.013.017-.036.06-.034.062.019.018-.025.065.012.057.056.03-.007.065.055.03.101.063-.035.078.08.04.132.02.013.02.002.038.011a.35.35 0 00.079.032c.026 0 .122-.003.142-.006.02-.003.047-.014.079-.026.033-.011.082-.012.127-.023.035-.004 1.024.017 1.053.014.028-.003.07-.032.067-.067-.002-.035-.035-.061-.067-.064a1.886 1.886 0 00-.232.003.21.21 0 00-.097.045c-.01.007-.028.034-.042.052-.014.012-.053.014-.053-.002 0-.01-.003.002-.013.006-.012.008-.068.01-.066 0 .004-.012 0-.016-.015-.003a.186.186 0 01-.103.003c.009-.015.009-.014-.014-.002-.015.007-.076.013-.08 0 0-.01-.008-.006-.016-.003-.07.02-.076-.003-.065-.012.01-.01.027-.065.01-.062a5.514 5.514 0 01-.164.032c-.038.007-.307 0-.344-.003-.037-.003-.079-.04-.081-.092-.004-.085.061-.106.1-.119a.861.861 0 01.178-.031c.04 0 .152.014.182.001.031-.012.124-.048.15-.05.04-.005.15.01.203.076-.027.014-.04.021-.009.01l.18-.04c.098-.005.072.01.024.023-.016.054-.161.13-.207.14a.648.648 0 01-.166-.002c-.021-.002-.125-.007-.163-.033a.474.474 0 00-.223-.071c-.046 0-.177.015-.177.064 0 .084.123.089.175.086.053-.003.184-.01.221-.026a.532.532 0 01.162-.02c.044 0 .108.01.127.008.02-.004.066-.004.088-.02a.222.222 0 01.118-.033c.048 0 .405-.015.453-.011.07 0 .12.08.12.148 0 .032-.014.079-.027.086.022.002.076.009.094.013.033.007.087.046.094.081a.25.25 0 00-.104-.044h-.849a.44.44 0 01.326.233c.029.048.099.029.125.022.026-.006.057-.035.079-.057.022-.023.056-.028.071-.023.034-.003.04.036.027.055-.013.019.003.011.038.011a.1.1 0 01.086.043c-.02.019-.03.003-.001.006.028.004.063.059.042.074-.019.01-.024.006 0 .01.035.003.045.027.05.07-.03.007-.015-.003 0 .012.015.016.038.087-.018.09-.02-.01-.019-.012-.015.01.004.023-.006.076-.037.076-.043.009-.081-.016-.085-.045-.005-.028-.004.056-.064.07-.057.012-.088-.022-.092-.038-.004-.016-.002-.003-.024-.006s-.05-.004-.061-.042c0-.022.004-.051.043-.055.018-.004.022-.028.01-.03-.014-.004-.003-.052.026-.04.028.014.094.017.109.033s.02-.013-.004-.038c-.024-.026-.171-.077-.21-.058a.528.528 0 01-.272.035c-.026-.006-.102.011-.138-.105a.255.255 0 00-.19-.184c-.248-.025-.234-.006-.073.002-.002.022-.007.068.019.074.044-.006.135-.026.157-.007.021.019.043.035.039.08-.004.044.002.032-.018.05-.02.02-.01.058.02.071.03.013.044.029.064.048.02.019-.01.057-.027.045-.017-.013-.017-.013-.02.012-.002.026-.023.074-.06.078-.008-.003-.006-.017-.005-.027.002-.022-.007.028-.019.042-.007.01-.07.028-.087.018.008-.02.004-.012-.012-.002-.015.006-.095.018-.06-.022.01-.015-.012.018-.024.024-.01.006-.058.01-.058-.008-.016.014-.052.014-.057.003-.011-.013-.012.01-.032.013-.02.003-.063-.004-.065-.03-.002-.025.005-.009-.02-.006-.058.041-.087-.016-.087-.035 0-.019-.002-.041.004-.054.007-.013-.04-.017-.026-.042.016-.03.034-.053.066-.047.015.003.013-.007.006-.02-.006-.012.018-.019.046-.006.029.013.048.045.057.073.009.03.077.007.105.01.029.003.03-.048.013-.064s-.065-.073-.085-.092c-.02-.02-.006-.087.011-.103.102-.072.046-.095.009-.089a.395.395 0 00-.164.082c-.03.035-.268.207-.29.226-.022.02-.054.024-.067.002-.013-.023-.022-.007-.02.025.017.12-.085.16-.103.158a.088.088 0 01-.044-.02c-.013.067-.069.074-.12.067 0-.008.01-.023.004-.017-.017.023-.069.02-.113.017-.003-.014.015-.031.006-.021-.015.03-.04.024-.082.02 0-.005.02-.026.01-.014-.018.021-.056.015-.086.015-.003-.005.016-.038-.002-.016-.016.019-.05.022-.084.017-.006-.016.007-.016.01-.026.01-.016-.004 0-.015 0-.01 0-.026.003-.032-.012-.007-.017-.003.015-.01.024-.006.008-.013.025-.035.032-.022.006-.079.013-.088-.016-.011-.013-.017-.042-.008-.058.008-.016-.042.031-.064.035-.064.014-.072-.092-.044-.102.029-.01.024-.025.01-.038-.016-.013-.025-.064-.005-.08s.065-.025.094-.006c.017.012.053.054.046.022-.005-.02.007-.044.021-.055.013-.012.05-.015.06.01.023.06.04.084.068.083a1.07 1.07 0 01.166-.037c.031-.008.195-.024.195-.04-.098.035-.138-.011-.149-.008-.01.003-.038-.01-.038-.02 0-.018.025-.016-.01-.01-.021-.001-.04-.002-.057-.025-.003-.012.023-.053.032-.087-.022-.006-.072.037-.089.075-.011-.015-.016-.002-.057.009a.088.088 0 01-.068-.004c-.018-.01-.086-.064-.053-.072l-.025-.009c-.025-.01-.047-.031-.04-.037-.006-.01.007-.01-.003-.012-.013-.003-.045-.028-.037-.037-.008-.006-.028-.015-.036-.02-.016-.01-.031-.042-.033-.058-.014.001-.045-.027-.031-.036-.023-.018-.043-.047-.027-.057-.014-.01-.023-.031-.014-.024-.014-.018-.01-.037.002-.037.01 0 .006-.05-.014-.05s-.05.015-.074 0c-.019-.016-.035-.084-.017-.112.017-.03.052-.061.07-.058.017.003.008.01.004-.02-.004-.028.025-.05.044-.057.023-.01.068-.003.08.01.014.013.018.013.018-.01 0-.015.017-.024.032-.028.025-.006.045.002.054.013.013.02.022.044.004.063-.018.02-.002.003.026-.003.018-.006.052.002.057.023.008.022.013.06-.006.08-.02.019-.049.066-.033.082.015.016.063.086.074.096.011.01.024.032.042.029l.052-.01c.061-.013.089-.02.01-.017.018-.026.055-.034.07-.038-.013-.022.039-.07.039-.076zm0 1.74c-.048-.058-.001-.164.042-.119-.023-.043.014-.078.03-.056-.008-.035.027-.059.045-.026-.007-.04.045-.062.059-.02 0-.038.051-.069.062-.012.01-.044.067-.05.071.013.017-.036.06-.034.062.019.018-.025.065.012.057.056.03-.007.065.055.03.101.063-.035.078.08.04.132.02.013.02.002.038.011a.35.35 0 00.079.032c.026 0 .122-.003.142-.006.02-.003.047-.014.079-.026.033-.011.082-.012.127-.023.035-.004 1.024.017 1.053.014.028-.003.07-.032.067-.067-.002-.036-.035-.061-.067-.064a1.905 1.905 0 00-.232.003.21.21 0 00-.097.045c-.01.007-.028.034-.042.052-.014.012-.053.014-.053-.002 0-.01-.003.002-.013.006-.012.008-.068.01-.066 0 .004-.012 0-.016-.015-.003a.186.186 0 01-.103.003c.009-.015.009-.014-.014-.002-.015.007-.076.013-.08 0 0-.01-.008-.006-.016-.003-.07.02-.076-.003-.065-.012.01-.01.027-.065.01-.062a5.514 5.514 0 01-.164.032c-.038.007-.307 0-.344-.003-.037-.003-.079-.04-.081-.092-.004-.085.061-.106.1-.119a.861.861 0 01.178-.032c.04 0 .152.015.182.002.031-.012.124-.048.15-.05.04-.005.15.01.203.076-.027.014-.04.021-.009.01l.18-.04c.098-.005.072.01.024.024-.016.053-.161.129-.207.139a.648.648 0 01-.166-.002c-.021-.002-.125-.007-.163-.033a.473.473 0 00-.223-.071c-.046 0-.177.015-.177.064 0 .084.123.089.175.086.053-.003.184-.01.221-.026a.532.532 0 01.162-.02c.044 0 .108.01.127.008.02-.004.066-.004.088-.02a.222.222 0 01.118-.033c.048 0 .405-.015.453-.011.07 0 .12.08.12.148 0 .032-.014.079-.027.086.022.002.076.009.094.013.033.007.087.046.094.081a.25.25 0 00-.104-.044h-.849a.44.44 0 01.326.233c.029.048.099.029.125.022.026-.006.057-.035.079-.057.022-.023.056-.028.071-.023.034-.003.04.036.027.055-.013.019.003.011.038.011a.1.1 0 01.086.043c-.02.019-.03.003-.001.006.028.004.063.059.042.074-.019.01-.024.006 0 .01.035.003.045.027.05.07-.03.007-.015-.003 0 .012.015.016.038.087-.018.09-.02-.01-.019-.012-.015.01.004.023-.006.076-.037.076-.043.009-.081-.016-.085-.045-.005-.028-.004.056-.064.07-.057.012-.088-.022-.092-.038-.004-.016-.002-.003-.024-.006s-.05-.004-.061-.042c0-.022.004-.051.043-.055.018-.004.022-.028.01-.03-.014-.004-.003-.052.026-.04.028.014.094.017.109.033s.02-.013-.004-.038c-.024-.026-.171-.077-.21-.058a.528.528 0 01-.272.035c-.026-.006-.102.011-.138-.105a.255.255 0 00-.19-.184c-.248-.025-.234-.006-.073.002-.002.022-.007.068.019.074.044-.006.135-.026.157-.007.021.019.043.035.039.08-.004.044.002.031-.018.05-.02.02-.01.058.02.071.03.013.044.029.064.048.02.019-.01.057-.027.045-.017-.013-.017-.013-.02.012-.002.026-.023.074-.06.078-.008-.003-.006-.016-.005-.027.002-.022-.007.028-.019.042-.007.01-.07.028-.087.018.008-.02.004-.012-.012-.002-.015.006-.095.018-.06-.022.01-.015-.012.018-.024.024-.01.006-.058.01-.058-.008-.016.014-.052.014-.057.003-.011-.013-.012.01-.032.013-.02.003-.063-.004-.065-.03-.002-.025.005-.009-.02-.006-.058.041-.087-.016-.087-.035 0-.019-.002-.041.004-.054.007-.013-.04-.017-.026-.042.016-.03.034-.053.066-.047.015.003.013-.007.006-.02-.006-.012.018-.019.046-.006.029.013.048.045.057.073.009.03.077.007.105.01.029.003.03-.048.013-.064s-.065-.073-.085-.092c-.02-.02-.006-.087.011-.103.102-.072.046-.095.009-.089a.393.393 0 00-.164.082c-.03.035-.268.207-.29.226-.022.02-.054.024-.067.002-.013-.023-.022-.007-.02.025.017.12-.085.16-.103.158a.088.088 0 01-.044-.02c-.013.067-.069.074-.12.067 0-.008.01-.023.004-.017-.017.023-.069.02-.113.017-.003-.014.015-.031.006-.021-.015.03-.04.024-.082.02 0-.005.02-.026.01-.014-.018.021-.056.015-.086.015-.003-.005.016-.038-.002-.016-.016.019-.05.022-.084.017-.006-.016.007-.016.01-.026.01-.016-.004 0-.015 0-.01 0-.026.003-.032-.013-.007-.015-.003.016-.01.025-.006.008-.013.025-.035.032-.022.006-.079.012-.088-.016-.011-.013-.017-.042-.008-.058.008-.016-.042.031-.064.035-.064.014-.072-.092-.044-.102.029-.01.024-.025.01-.038-.016-.013-.025-.064-.005-.08s.065-.025.094-.006c.017.012.053.054.046.022-.005-.02.007-.044.021-.055.013-.012.05-.015.06.01.023.06.04.084.068.083a1.07 1.07 0 01.166-.037c.031-.008.195-.025.195-.04-.098.035-.138-.011-.149-.008-.01.003-.038-.01-.038-.02 0-.018.025-.016-.01-.01-.021-.001-.04-.002-.057-.025-.003-.012.023-.053.032-.087-.022-.006-.072.037-.089.075-.011-.015-.016-.002-.057.009a.088.088 0 01-.068-.004c-.018-.01-.086-.064-.053-.072l-.025-.009c-.025-.01-.047-.031-.04-.037-.006-.01.007-.01-.003-.012-.013-.003-.045-.028-.037-.037-.008-.006-.028-.015-.036-.02-.016-.01-.031-.042-.033-.058-.014.001-.045-.027-.031-.036-.023-.018-.043-.047-.027-.057-.014-.01-.023-.031-.014-.024-.014-.018-.01-.037.002-.037.01 0 .006-.05-.014-.05s-.05.015-.074 0c-.019-.016-.035-.084-.017-.112.017-.03.052-.061.07-.058.017.003.008.01.004-.02-.004-.028.025-.05.044-.057.023-.01.068-.003.08.01.014.013.018.013.018-.01 0-.015.017-.024.032-.028.025-.006.045.002.054.012.013.021.022.045.004.064-.018.02-.002.003.026-.003.018-.006.052.002.057.023.008.022.013.06-.006.08-.02.019-.049.066-.033.082.015.016.063.086.074.096.011.01.024.032.042.029l.052-.01c.061-.013.089-.02.01-.017.018-.026.055-.034.07-.038-.013-.022.039-.07.039-.076z" fill="#FFCF00" stroke="#650000" stroke-width=".08"/>
  <path fill-rule="evenodd" clip-rule="evenodd" d="M12.278 1.936c.233-.058.607-.076.808-.042.04.008.113.015.186.022.119.011.238.022.22.039-.042.04-.185.42-.185.494 0 .027.945.682.984.682.053 0 .132.095.111.132-.01.016-.069.077-.13.132-.058.055-.152.338-.242.653a.839.839 0 01.206-.169 80.821 80.821 0 001.707-1.295c.04-.03-.061-.048-.27-.045a2.285 2.285 0 00-.524.071c-.281.07-.491-.148-.581-.242a.356.356 0 00-.04-.038c-.079-.053-.192-.217-.192-.277 0-.014.077-.003.177.023.232.067.438.064.701-.005.238-.06.491-.074.758-.042l.034.005c.048.008.08.013.098.013.017.114.131.486.152.503.043.037.974.404 1.045.412.106.013.148.055.148.145 0 .088-.108.17-.261.199-.18.034-.628.552-.942 1.086-.211.36-.327.627-.327.756 0 .132.079.637.16 1.02.05.228.064.267.09.23.03-.037.109-.042.636-.042h.607L17.618 6a4.11 4.11 0 00.198-.367 11.958 11.958 0 00-.684-.056 19.28 19.28 0 01-.68-.05c-.003-.005.126-.246.287-.537l.293-.528.596.1.186.032.484.082c.058.01.08 0 .127-.082a.503.503 0 00.033-.073v.012c-.007.171-.024.605-.21.962l-.456.87v.6h-.106a.56.56 0 00-.105.005l.02.124.02.106a.88.88 0 01.023.215c-.008.013-.076.024-.15.024l-.137.002-.077.2c-.135.3-.48.857-.773 1.246l-.063.082.148.069c.208.095.424.322.567.597.11.217.116.233.116.463 0 .224-.061.512-.111.515a89.6 89.6 0 01-.637.098h-.002l-.29.045c-.5.076-.923.135-.941.13-.056-.022-.188-.244-.232-.39l-.018-.053a2.17 2.17 0 00-.038-.115c-.005-.022-.108.015-.32.124a4.3 4.3 0 01-1.065.383 4.662 4.662 0 01-2.588-.159 7.57 7.57 0 01-1.05-.52c-.487-.302-.688-.479-1.503-1.333-.264-.274-.332-.33-.512-.42-.182-.09-.235-.103-.393-.103-.148 0-.187-.008-.219-.05-.066-.093-.04-.201.087-.339 0 0 .04-.088.026-.097l-.309-.201c-.237-.122.624-1.555.98-1.93.174-.185.182-.196.182-.322 0-.254.16-.754.332-1.045.08-.132.087-.156.06-.216-.05-.111 0-.175.323-.405.638-.457 1.01-.737 1.02-.769.019-.058-.258-.037-.472.037-.427.15-.812.185-.997.09-.084-.042-.214-.19-.214-.246 0-.008.087-.008.196 0 .08.006.064-.126.051-.24-.005-.041-.01-.08-.01-.109 0-.037.003-.066.009-.066l.082.03.029.01c.187.066.472.05.836-.05.18-.05.406-.098.501-.109 0 0 .538-.1.459-.016-.042.045-.087.159-.13.32a6.034 6.034 0 00-.063.254l.082.016.53.108c.401.082.636.119.694.108.1-.02.164.022.164.109 0 .074-.053.119-.264.217a2.245 2.245 0 00-.33.2 4.791 4.791 0 00-.773.81c-.137.195-.137.195-.137.399 0 .222.053.56.121.793l.043.145.073-.198a3.14 3.14 0 01.407-.775c.118-.164.14-.209.105-.222-.055-.021 0-.235.048-.264.047-.03.364-.31.701-.627l.612-.576V2.92c0-.148.003-.154.082-.17.045-.007.127-.015.18-.015.076-.003.124-.03.253-.146.084-.08.147-.153.134-.164a.787.787 0 00-.234-.029c-.172-.008-.288.008-.562.072-.388.092-.578.1-.757.04-.124-.043.06-.117.176-.149 0 0-.274-.473-.232-.46.364.111.515.117.829.037zm6.189 2.525c-.005-.014-.007.01-.009.059.01-.026.013-.048.009-.06zm-2.356-2.443c-.01-.01-.01.003-.007.03.025 0 .026-.008.007-.03zm-2.118 2.16c-.115.417-.216.843-.216.843l.092-.2c.05-.112.124-.564.124-.632v-.01zm.236-.952l-.002-.001.002.001zm-.002-.001a162.23 162.23 0 01-.965-.675l-.031.105c-.03.1.744.454.949.548.024.012.04.02.047.022zm-3.426-.21c.554.114.565.116.462.145l-.265.076-.323.09-.512.144.018-.072c.058-.243.127-.478.14-.478.01 0 .224.042.48.095zm-.923.534l.053-.19.066-.223c.008-.015.008-.031.005-.031-.008 0-.863.626-.884.645a.703.703 0 00.17-.037c.1-.03.274-.08.384-.109l.206-.055zm3.854 1.591l-.066.217c-.08.27-.135.537-.177.864-.026.212-.047.273-.137.42a1.948 1.948 0 00-.13.25c-.07.161-.077.046-.089-.323a4.595 4.595 0 01.098-1.177c.055-.25.396-.468.432-.39l.069.14zm-3.326.857c.02-.09.013-.146-.04-.302a2.852 2.852 0 01-.148-.692c.005-.264-.022-.281-.121-.03-.169.379-.206.543-.206.934 0 .214.013.402.035.468.029.1.042.113.11.113h.08v.33c0 .276-.006.331-.04.331-.056 0-.05.03.029.217.127.304.791 1.012.725.883-.216-.447-.527-1.354-.477-1.858.016-.156.04-.336.053-.394zm5.655.48c.035.136.035.16-.013.297l-.017.05c-.031.094-.079.238-.136.301-.124.138-.127.14-.158.082-.127-.24-.174-.85-.095-1.266.034-.182.169-.669.184-.669.006 0 .022.098.04.217.034.243.137.767.195.989zm-7.752-.84l.171.584s-.235-.489-.24-.539l.069-.045zm1.543.828c0 .013-.108.023-.24.023h-.24l-.657.01c.004-.016.188-.092.401-.18l.13-.054c.247.013.491.029.516.06.05.067.09.13.09.14zm-.606-.2l-.099-.006c-.215-.01-.41-.02-.432-.038l.77-.156.293-.06c-.01.039-.271.151-.532.26zm-.49.884l-.17-.27c0-.219-.011-.298-.059-.41a.692.692 0 00-.084-.167c-.004 0-.037.124-.085.308l-.118.447-.198.724.08.029c.044.016.2.098.345.185.147.087.287.159.311.159.084 0 .095-.109.042-.333a2.346 2.346 0 01-.058-.44l-.005-.232zm4.778.22c.06.306.172.594.343.896.082.142.145.264.14.27a.973.973 0 01-.32.052c-.036-.024-.184-.343-.284-.618-.114-.31-.216-.738-.198-.817.008-.037.066-.17.127-.294l.108-.224.02.259c.011.143.038.357.064.476zm2.103.037c.005-.045-.024-.072-.127-.125-.137-.068-.504.157-.504.157.085.174.314.478.375.478.015 0 .118-.08.232-.177.219-.19.242-.254.103-.267-.071-.008-.085-.019-.08-.066zm-.33.576l-.069.047c-.092.064-.699.363-.712.352-.005-.005.06-.243.143-.529l.128-.185c.027.051.102.07.18.088.068.017.137.034.177.074l.153.153zm-1.208.473A6.3 6.3 0 0014.257 8c.074-.238-.169-.055-.2.159-.019.14.007.33.042.296zm-2.876-.473c-.06.188-.121.354-.132.365-.01.013-.066 0-.123-.03-.088-.044-.109-.07-.138-.187-.031-.13-.031-.14.035-.254a.571.571 0 01.348-.275c.142-.034.15-.034.137.003a9.508 9.508 0 00-.078.232l-.049.146zm.863.38a2.273 2.273 0 01-.187-.489c-.037-.18-.056-.219-.103-.232-.106-.03-.116-.016-.185.214l-.085.274-.05.16-.063.203.27.056c.144.029.326.063.403.07l.137.017-.137-.272zm.293-.5l.274.133-.121.138a.984.984 0 00-.166.259.723.723 0 01-.061.14c-.048.053-.343-.635-.343-.796 0-.055.098-.024.417.127zm.85.794l.329-.024c.053-.005-.335-.299-.625-.476a1.649 1.649 0 00-.19-.108c-.005 0-.058.053-.116.116a.862.862 0 00-.225.402l-.015.082.269.016c.147.008.406.002.572-.008z" fill="#FFCF00"/>
  <path d="M13.086 1.894l.039-.196-.005-.001-.034.197zm-.808.042l-.048-.194.048.194zm.994-.02l-.018.2.018-.2zm.22.039l-.135-.148-.002.002.137.146zm.91 1.308l.167.112.007-.013-.174-.099zm-.13.132l-.134-.147h-.001l.136.147zm-.242.653l-.192-.055.354.172-.162-.117zm.206-.169l-.112-.166.112.166zm1.707-1.295l-.119-.161-.006.004.125.157zm-.27-.045l-.002-.2.003.2zm-.524.071l-.048-.194H15.1l.049.194zm-.581-.242l-.144.139.144-.139zm-.04-.038l.112-.166-.111.166zm-.015-.254l.055-.192-.004-.001-.051.193zm.701-.005l-.05-.194.05.194zm.758-.042l.031-.198h-.008l-.023.198zm.034.005l.032-.197-.032.197zm.25.516l.132-.15-.006-.006-.126.156zm1.045.412l.025-.199h-.003l-.022.199zm-.113.344l-.038-.197.038.197zm-.942 1.086l-.172-.101.172.101zm-.166 1.776l-.196.042v.002l.196-.044zm.09.23l-.158-.123-.006.007.163.116zm1.242-.042v.2h.115l.058-.1-.173-.1zM17.618 6l.173.1-.173-.1zm.198-.367l-.142.141.023.023.029.015.09-.18zm-.684-.056l-.013.2.013-.2zm-.68-.05l-.18.09.03.06.06.029.09-.179zm.287-.537l-.175-.096.175.096zm.293-.528l.033-.197-.14-.024-.068.124.175.097zm.596.1l-.033.197.033-.197zm.186.032l.035-.197h-.002l-.033.197zm0 0l-.034.197h.001l.033-.197zm.484.082l-.04.196h.004l.036-.196zm.127-.082l.173.1.002-.004-.175-.096zm.033-.061l-.2-.008.2.008zm-.21.962l.177.093-.177-.093zm-.456.87l-.177-.093-.023.044v.05h.2zm0 .6v.2h.2v-.2h-.2zm-.19.13l.197-.032V7.06l-.197.034zm0 0l-.198.031v.003l.198-.035zm0 0l.197-.035-.197.035zm.018.105l.197-.034-.197.034zm.024.215l-.16-.12-.006.008-.006.01.172.102zm-.15.024v-.2h-.004l.004.2zm-.137.002l-.004-.2-.135.003-.048.126.186.071zm-.077.2l.183.083.004-.01-.187-.072zm-.773 1.246l.158.122.002-.002-.16-.12zm-.063.082l-.159-.122-.152.198.226.105.085-.181zm.148.069l-.085.18.001.002.084-.182zm.567.597l.178-.091v-.001l-.178.092zm.005.978l-.01-.2-.02.001-.019.005.049.194zm-.637.098l.03.198-.03-.198zm-.002 0l-.03-.197.03.197zm-.29.045l-.03-.198.03.198zm-.941.13l-.072.186.008.003.008.003.056-.193zm-.232-.39l.19-.058v-.002l-.19.06zm-.018-.053l-.19.06.19-.06zm0 0l.191-.06-.19.06zm-.038-.115l-.194.048.004.015.006.015.184-.078zm-.32.124l.09.179.002-.001-.091-.178zm-1.065.383l.044.195-.044-.195zm-2.588-.159l-.068.188.068-.188zm-1.05-.52l.106-.17-.105.17zM8.48 8.822l.145-.138-.145.138zm-.512-.42l.09-.179h-.001l-.089.18zm-.612-.153l-.163.116.003.004.16-.12zm.087-.339l.147.136.023-.024.013-.03-.183-.082zm.026-.097l.11-.168-.11.168zm-.309-.201l.11-.168-.01-.006-.009-.004-.09.178zm.98-1.93l.145.138-.145-.138zm.514-1.367l-.172-.102.172.102zm.06-.216l.184-.08-.001-.003-.182.083zm.323-.405l.116.163-.116-.163zm1.02-.769l.19.063.001-.002-.19-.061zm-.472.037l-.065-.189h-.001l.066.189zm-.997.09l.092-.178-.002-.001-.09.179zm-.018-.246l.014-.2-.014.2zm.051-.24l-.199.022.199-.023zm.081-.146l-.068.188.068-.188zm.029.01l-.069.189h.002l.067-.188zm.836-.05l.053.193-.053-.193zm.501-.108l.022.199.007-.001.008-.001-.037-.197zm.459-.016l.146.137-.146-.137zm-.13.32l.194.052v-.001l-.193-.051zm-.063.254h-.2v.2h.2v-.2zm.082.016l-.04.196.04-.196zm0 0l.04-.196h-.002l-.038.196zm.53.108l.04-.196-.04.196zm.694.108l.036.197h.005l-.04-.197zm-.1.326l-.084-.182h-.002l.086.182zm-.33.2l.121.16-.12-.16zm-.773.81l.164.114-.164-.115zm-.015 1.192l.191-.056v-.001l-.191.057zm.042.145l-.192.056.168.58.211-.566-.187-.07zm.073-.198l.188.07v-.002l-.188-.068zm.407-.775l-.162-.117.162.117zm.105-.222l.072-.186-.072.186zm.048-.264l-.105-.17.105.17zm.701-.627l.137.146-.137-.146zm.612-.576l.137.146.063-.06v-.086h-.2zm.082-.322l-.035-.197h-.004l.04.197zm.18-.016v.2h.006l-.006-.2zm.253-.146l.134.149.003-.003-.137-.146zm.134-.164l-.141.142.008.007.008.007.125-.156zm-.234-.029l-.01.2h.005l.005-.2zm-.562.072l-.045-.195h-.002l.047.195zm-.757.04l-.065.189.065-.19zm.176-.149l.053.193.25-.068-.13-.225-.173.1zm-.232-.46l-.06.191h.002l.058-.19zm7.017 2.562l.187-.07-.002-.006-.185.076zm-2.356-2.443l.154-.128-.009-.01-.145.138zm-2.334 3.003l-.195-.046.377.13-.182-.084zm.216-.843l.2.002-.393-.055.193.053zm-.124.642l.182.084v-.001l-.182-.083zm.124-.631l-.2-.002v.002h.2zm.236-.963l.142-.14-.021-.022-.027-.014-.094.176zm-.966-.676l.115-.164-.227-.16-.08.266.191.058zm-.032.105l.191.058-.191-.058zm.949.548l-.084.182.084-.182zm-2.917-.043l-.054-.192-.006.001.06.191zm-.462-.145l-.04.196.04-.196zm.197.22l-.054-.192h-.002l.056.193zm0 0l.054.193h.001l-.055-.192zm-.323.092l.053.192h.001l-.054-.192zm-.512.143l-.194-.05-.087.335.335-.093-.054-.192zm.018-.072l.194.05v-.003l-.194-.047zm-.25-.04L9.74 3.3l-.002.005.193.053zm-.053.19l.052.194.11-.03.03-.11-.192-.053zm.119-.412l-.18-.089-.007.017-.006.018.193.054zm-.879.614l-.132-.15-.02.017-.014.022.166.11zm.17-.037l.05.193.005-.001-.056-.192zm.384-.109l.051.194h.001l-.052-.194zm3.994 1.753l-.191-.058V5.3l.191.056zm.066-.217l.191.058.023-.075-.034-.07-.18.087zm-.243 1.081l-.198-.025.198.025zm-.137.42l-.17-.103-.003.003.173.1zm-.13.25l.184.079.005-.01.003-.01-.191-.06zm-.089-.323l.2-.007v-.003l-.2.01zm.098-1.177l-.195-.043v.001l.195.042zm.432-.39l-.18.086v.001l.18-.088zm-3.297.694l-.19.064.19-.064zm.04.302l-.195-.046v.001l.195.045zm-.188-.994l-.2-.004v.007l.2-.003zm-.121-.03l.183.082.003-.008-.186-.073zm-.171 1.402l.192-.056-.002-.005-.19.06zm.19.113h.2v-.2h-.2v.2zm-.011.878l.184-.077-.184.077zm.725.883l-.18.087.002.004.178-.091zm-.477-1.858l-.2-.02.2.02zm5.695.383l.189.067v-.002l-.189-.065zm.013-.296l.194-.05-.194.05zm-.03.345l-.19-.063v.001l.19.062zm0 0l.19.064v-.001l-.19-.062zm0 0l-.19-.063.19.064zm-.136.302l.149.134-.149-.134zm-.158.082l-.177.093.001.003.176-.096zm-.095-1.266l.196.038-.196-.038zm.224-.452l.198-.028v-.003l-.198.031zm-7.386.732l-.18.087.372-.143-.192.056zm-.171-.584l.191-.056-.076-.259-.225.148.11.167zm-.07.045l-.109-.167-.102.067.013.121.199-.02zm1.133.806v-.2h-.003l.003.2zm-.657.01l-.194-.051-.068.255.265-.004-.003-.2zm.401-.18l.076.185.01-.004.008-.005-.094-.176zm0 0l-.076-.185-.01.004-.008.005.094.176zm.646.006l.16-.12-.003-.004-.157.124zm-.615-.065l.01-.2-.01.2zm-.432-.038l-.04-.196-.437.089.357.267.12-.16zm.77-.156l.04.196-.04-.196zm.293-.06l.193.054.087-.314-.32.065.04.196zm-1.193.875h-.2v.058l.032.049.168-.107zm.172.27l.2-.005-.001-.056-.03-.047-.17.107zm-.23-.68l-.184.076v.002l.184-.078zm-.169.14l.193.053V6.66l-.193-.05zm0 0l-.193-.052v.002l.193.05zm-.118.447l.193.052-.193-.052zm-.198.724l-.193-.053-.048.177.172.064.07-.188zm.08.029l-.07.188h.003l.066-.188zm.345.185l-.103.171.001.001.102-.172zm.353-.174l.195-.046-.001-.004-.194.05zm-.058-.44l.2-.003-.2.004zm5.115.884l-.174.099.174-.1zm-.343-.896l.196-.04v-.004l-.196.044zm.483 1.165l.134.15.008-.009-.142-.14zm-.32.053l-.108.169.011.006.098-.175zm-.284-.618L13.6 7.9l-.188.069zm-.198-.817l.195.045v-.003l-.195-.042zm.127-.294l.18.088-.18-.088zm.108-.224l.2-.017-.06-.734-.32.664.18.087zm.02.259l.2-.015v-.001l-.2.016zm2.04.388l.091-.178H15.6l-.09.178zm.127.125l-.2-.024v.002l.2.022zm-.63.032l-.105-.17-.155.094.08.163.18-.087zm.606.3l.13.152h.001l-.131-.151zm.103-.266l-.022.198h.003l.019-.198zm-.478.557l.114.165-.114-.165zm.069-.047l.114.164.196-.136-.169-.17-.141.142zm-.781.399l-.142.141.008.008.009.007.125-.156zm.143-.529l-.165-.114-.019.027-.009.032.192.055zm.128-.185l.177-.093-.153-.291-.188.27.164.114zm.18.088l.047-.194-.047.194zm.177.074l-.142.14.142-.14zM14.257 8l.19.062.001-.002-.191-.06zm-.158.455l.141.141.008-.008.007-.008-.156-.125zm-.043-.296l-.197-.03v.004l.197.026zm-2.964.188l-.142-.142-.008.008-.007.009.156.125zm.131-.365l-.19-.063v.001l.19.062zm-.256.336l-.091.177.002.001.09-.178zm-.137-.188l-.194.047v.001l.194-.048zm.035-.254l-.172-.102-.001.002.173.1zm.348-.275l-.047-.194.047.194zm.137.003l.184.079.004-.012-.188-.067zm-.078.232l.19.063-.19-.063zm.627.037l-.196.04v.005l.196-.045zm.187.49l.179-.09-.179.09zm-.29-.722l.053-.193-.053.193zm-.185.214l.191.058-.19-.058zm-.085.274l.191.06-.19-.06zm0 0l.19.061-.19-.06zm0 0l-.19-.06-.001.002.19.059zm-.05.16l.192.059-.191-.06zm-.063.203l-.19-.06-.066.211.216.045.04-.196zm.27.056l-.041.195h.001l.04-.195zm.403.07l.023-.198h-.002l-.021.199zm.137.017l-.023.198.369.043-.167-.331-.179.09zm.43-.64l.15.132.175-.198-.238-.114-.087.18zm-.274-.132l.087-.18-.002-.001-.085.18zm.153.27l.149.133v-.001l-.15-.132zm-.166.259l.188.067-.188-.067zm-.061.14l-.142-.142-.007.008.149.134zm1.253.1v.2h.02l-.02-.2zm-.33.024l.013.2h.003l-.016-.2zm-.295-.5l-.106.17.002.001.104-.17zm-.306.008l.146.137.001-.002-.147-.135zm-.225.402l.197.038v-.001l-.197-.037zm-.015.082l-.197-.038-.043.224.228.014.012-.2zm.269.016l-.012.2h.001l.01-.2zm.463-6.967a2.603 2.603 0 00-.89.045l.098.388a2.23 2.23 0 01.725-.039l.068-.394zm.172.02a2.292 2.292 0 01-.166-.02l-.079.393c.054.01.14.019.208.025l.037-.398zm.336.386a.204.204 0 00.012-.29c-.04-.043-.088-.057-.093-.06a.499.499 0 00-.083-.017c-.05-.008-.115-.014-.172-.02l-.037.4c.06.005.114.01.15.015.021.003.022.005.014.002a.186.186 0 01-.072-.047.196.196 0 01.011-.279l.27.296zm-.12.346c0 .015-.002.02.002.003a2.425 2.425 0 01.138-.371c.008-.015.002 0-.018.02l-.274-.292c-.03.03-.05.065-.058.079a2.683 2.683 0 00-.179.476.402.402 0 00-.01.085h.4zm.784.482c.029 0 .05.007.055.008l.017.006.004.002a17.29 17.29 0 01-.915-.634l.008.008a.17.17 0 01.017.023c.002.003.03.044.03.105h-.4c0 .062.03.104.032.109a.227.227 0 00.045.052l.04.033.113.085a17.652 17.652 0 00.797.546.923.923 0 00.073.04.235.235 0 00.084.017v-.4zm.285.431a.242.242 0 00.012-.205.39.39 0 00-.145-.178.28.28 0 00-.152-.048v.4c-.042 0-.066-.017-.067-.017-.004-.003-.004-.004-.003-.002.002.002-.003-.002-.007-.015a.134.134 0 01-.008-.042.17.17 0 01.022-.09l.348.197zm-.168.181c.033-.03.066-.062.092-.09a.662.662 0 00.069-.079l-.333-.222.006-.008-.005.005a1.044 1.044 0 01-.1.099l.27.295zm-.186.56c.045-.156.09-.3.13-.411.02-.056.037-.1.052-.13.018-.04.022-.035.005-.02l-.272-.293a.468.468 0 00-.095.142 1.948 1.948 0 00-.067.165 7.273 7.273 0 00-.137.437l.384.11zm-.098-.39a1.001 1.001 0 00-.256.218l.324.234a.757.757 0 01.156-.12l-.224-.331zm1.694-1.286a81.798 81.798 0 01-1.694 1.286l.224.332a80.068 80.068 0 001.719-1.304l-.249-.314zm-.142.312c.102-.001.164.003.191.008h.001s-.023-.007-.048-.028a.19.19 0 01-.065-.184.177.177 0 01.07-.112l.236.322a.209.209 0 00.012-.336.25.25 0 00-.082-.043.41.41 0 00-.056-.014 1.574 1.574 0 00-.264-.013l.005.4zm-.48.066c.18-.045.33-.064.48-.066l-.006-.4a2.486 2.486 0 00-.57.077l.097.389zm-.772-.298c.044.046.136.143.262.217a.672.672 0 00.511.08l-.097-.388a.274.274 0 01-.213-.038.826.826 0 01-.175-.148l-.288.277zm-.006-.01a.139.139 0 01-.01-.008l-.005-.003h.001l.008.008.012.013.288-.277-.027-.028c-.006-.006-.024-.024-.045-.038l-.222.332zm-.282-.444c0 .063.025.12.039.148a.81.81 0 00.063.107.746.746 0 00.18.189l.222-.333-.008-.007a.56.56 0 01-.096-.13l-.004-.007.002.008.002.025h-.4zm.428-.17a1.304 1.304 0 00-.15-.032.41.41 0 00-.075-.004.23.23 0 00-.074.016.204.204 0 00-.129.19h.4a.197.197 0 01-.121.181.167.167 0 01-.055.013c-.01 0-.012 0 0 0 .02.004.056.01.102.023l.102-.387zm.6-.005a1.045 1.045 0 01-.596.006l-.11.385c.272.077.514.072.807-.004l-.1-.387zm.831-.048a2.255 2.255 0 00-.83.047l.1.388c.21-.054.438-.067.683-.038l.047-.397zm.043.007l-.035-.006-.063.395.035.006.063-.395zm.07.01c.003 0 .003 0 0 0l-.014-.001a3.134 3.134 0 01-.056-.01l-.063.396c.038.006.089.015.126.015l.007-.4zm.274.547a.17.17 0 01.036.039l.009.014c.002.003.003.005.001.001a3.222 3.222 0 01-.126-.43l-.396.058a3.576 3.576 0 00.155.531.401.401 0 00.03.054.209.209 0 00.04.045l.25-.312zm.941.37c.015 0 .023.004.011 0a17.012 17.012 0 01-.968-.382c-.013-.006.003 0 .022.017l-.263.301c.024.021.053.035.058.038l.044.021.123.054a16.96 16.96 0 00.872.335c.01.003.033.01.057.013l.044-.398zm.326.343a.333.333 0 00-.094-.243.386.386 0 00-.23-.1l-.049.396c.016.002.022.005.02.004a.073.073 0 01-.022-.016.096.096 0 01-.023-.036c-.003-.01-.002-.012-.002-.005h.4zm-.424.395a.654.654 0 00.271-.114.357.357 0 00.153-.28h-.4c0-.044.025-.054.006-.039a.26.26 0 01-.105.04l.075.393zm-.807.991a4.96 4.96 0 01.5-.7 2.19 2.19 0 01.221-.226.631.631 0 01.074-.056c.021-.013.024-.011.012-.009l-.075-.393a.444.444 0 00-.146.061 1.015 1.015 0 00-.125.093c-.082.07-.172.163-.263.268-.182.21-.38.482-.543.76l.345.202zm-.3.655c0-.02.014-.086.069-.212.05-.118.128-.267.231-.443l-.345-.202a4.645 4.645 0 00-.253.486 1.02 1.02 0 00-.101.371h.4zm.157.979a11.76 11.76 0 01-.109-.594 3.711 3.711 0 01-.047-.385h-.4c0 .085.023.26.052.447.03.194.071.42.113.615l.391-.083zm-.268.155c0-.001.014-.021.041-.04a.191.191 0 01.262.05c.009.013.011.022.01.02a2.08 2.08 0 01-.045-.187l-.39.087c.023.106.042.19.062.242a.304.304 0 00.028.057.21.21 0 00.297.063.24.24 0 00.06-.06l-.326-.232zm.798-.126c-.261 0-.42.001-.518.008a.657.657 0 00-.136.02.266.266 0 00-.139.091l.315.247a.137.137 0 01-.065.046.446.446 0 01.052-.005 9.66 9.66 0 01.491-.007v-.4zm.607 0h-.607v.4h.607v-.4zm.032-.257l-.205.357.346.2.206-.357-.347-.2zm.282-.088a.2.2 0 01-.103-.23l.004-.014.002-.004-.006.01a11.614 11.614 0 01-.18.326l.348.2a12.441 12.441 0 00.191-.348.599.599 0 00.016-.034l.01-.029c.001-.005.006-.023.008-.046a.202.202 0 00-.11-.189l-.18.358zm-.607-.035a27.39 27.39 0 01.655.051c.003 0 .003 0 0 0a.17.17 0 01-.034-.01.193.193 0 01-.066-.044l.283-.283a.21.21 0 00-.13-.06 27.76 27.76 0 00-.68-.054l-.028.4zm-.757-.071a.208.208 0 00.086.022l.043.004.15.012.478.033.026-.4a46.975 46.975 0 01-.658-.047h-.006a.1.1 0 01.015.002.185.185 0 01.045.016l-.179.358zm.202-.812a33.99 33.99 0 00-.288.535.383.383 0 00-.017.043.2.2 0 00-.006.032c0 .003-.009.056.02.113l.358-.18c.028.057.02.11.02.112a.195.195 0 01-.012.048l-.001.002a33.296 33.296 0 01.277-.512l-.35-.193zm.293-.53l-.293.53.35.193.293-.528-.35-.194zm.804.001l-.596-.1-.066.394.596.1.066-.394zm.186.031l-.186-.031-.066.394.186.032.066-.395zm.002 0l-.07.395.07-.394zm.488.084l-.49-.084-.066.395c.254.042.45.075.478.081l.078-.392zm-.085.014a.263.263 0 01-.017.026c-.001.002.006-.009.024-.02a.137.137 0 01.062-.02h.013l-.072.393c.04.007.125.02.21-.034a.4.4 0 00.126-.145l-.346-.2zm.017-.04a.32.32 0 01-.02.044l.351.192a.69.69 0 00.047-.103l-.378-.132zm.389.087v-.012l-.4-.016v.012l.4.016zm-.232 1.046c.208-.402.225-.878.232-1.046l-.4-.016c-.007.175-.025.565-.188.878l.356.184zm-.457.871l.456-.87-.354-.186-.456.87.354.186zm.023.507v-.6h-.4v.6h.4zm-.306.2h.106v-.4h-.106v.4zm.095-.195a.2.2 0 01-.117.182.15.15 0 01-.036.012.157.157 0 01-.012.003h-.004.01l.064-.002v-.4a1.714 1.714 0 00-.12.005.255.255 0 00-.067.018.2.2 0 00-.118.182h.4zm.018.09a60.621 60.621 0 01-.015-.086l-.004-.024v-.004.003a.207.207 0 010 .021h-.4l.001.017.001.007.001.008a.377.377 0 00.007.04l.015.087.394-.07zm0 .003l-.395.063.395-.063zm0-.003l-.394.07.394-.07zm.018.106l-.018-.106-.394.07.018.105.394-.069zm-.013.369a.206.206 0 00.04-.103.693.693 0 00-.003-.106 3.022 3.022 0 00-.024-.16l-.394.069a2.6 2.6 0 01.023.156v.004l.002-.012a.193.193 0 01.036-.088l.32.24zm-.31.104a.873.873 0 00.13-.01.42.42 0 00.112-.035.214.214 0 00.08-.076l-.344-.206a.191.191 0 01.069-.067.14.14 0 01.024-.01c.006-.003.006-.002-.003 0a.476.476 0 01-.068.004v.4zm-.134.002l.137-.002-.007-.4-.137.002.007.4zm.107.072l.076-.2-.373-.143-.077.2.374.143zm-.8 1.294c.298-.395.653-.966.795-1.283l-.364-.164c-.127.28-.463.825-.75 1.207l.319.24zm-.065.084l.063-.082-.316-.244-.064.082.317.244zm.074-.235l-.148-.068-.169.362.148.069.169-.363zm.66.687c-.156-.301-.4-.568-.661-.687l-.167.364c.156.07.344.258.473.507l.355-.184zm.139.555c0-.11 0-.198-.023-.286-.022-.086-.063-.166-.115-.268l-.356.182a.969.969 0 01.083.185c.008.03.01.066.01.187h.4zm-.3.715a.227.227 0 00.168-.093.371.371 0 00.044-.08.96.96 0 00.047-.16c.024-.112.04-.255.04-.382h-.4c0 .097-.013.21-.032.299a.595.595 0 01-.025.09c-.003.008-.002.003.006-.008.002-.002.043-.061.13-.066l.021.4zm-.618.096l.451-.07.135-.02.038-.006.032-.006-.098-.388c.01-.002.018-.003.002 0-.008 0-.02.003-.036.005l-.133.02-.451.07.06.395zm-.002 0h.002l-.06-.396h-.002l.06.396zm-.29.045l.29-.045-.06-.395-.29.044.06.396zm-1.027.124c.027.007.05.008.052.008h.019a.705.705 0 00.093-.01 44.915 44.915 0 00.864-.123l-.06-.395a46.74 46.74 0 01-.851.121 1.917 1.917 0 01-.053.006h-.008.009a.173.173 0 01.046.008l-.11.385zm-.368-.522a1.412 1.412 0 00.214.405.356.356 0 00.138.111l.143-.373a.146.146 0 01.04.023l-.008-.01a1.03 1.03 0 01-.144-.273l-.383.117zm-.016-.052l.017.053.381-.121-.017-.054-.381.122zm0-.001l.381-.12-.381.12zm-.032-.097l.001.004.008.022.023.072.381-.121c-.015-.047-.034-.108-.045-.134l-.368.157zm-.044.224a2.56 2.56 0 01.217-.102c.023-.009.028-.009.02-.008-.001 0-.025.005-.057-.002a.195.195 0 01-.146-.142l.388-.097a.208.208 0 00-.159-.152.245.245 0 00-.089-.002.52.52 0 00-.1.03 2.488 2.488 0 00-.256.119l.182.356zm-1.113.4a4.493 4.493 0 001.112-.4l-.18-.357a4.1 4.1 0 01-1.02.367l.088.39zm-2.7-.165c.86.309 1.806.366 2.7.165l-.088-.39a4.46 4.46 0 01-2.476-.152l-.135.377zm-1.087-.54c.292.181.819.441 1.087.54l.137-.376a7.394 7.394 0 01-1.013-.503l-.21.34zM8.335 8.962c.818.856 1.033 1.048 1.543 1.364l.21-.34c-.465-.288-.65-.45-1.463-1.3l-.29.276zm-.456-.38c.082.041.13.07.187.117.062.05.137.125.27.263l.288-.277a3.74 3.74 0 00-.305-.296 1.29 1.29 0 00-.261-.165l-.18.358zM7.575 8.5c.075 0 .107.003.137.011a.938.938 0 01.168.071l.177-.358a1.294 1.294 0 00-.244-.1.9.9 0 00-.238-.024v.4zm-.379-.13a.301.301 0 00.182.116.94.94 0 00.197.014v-.4a1.506 1.506 0 01-.109-.004s.011.002.025.011a.1.1 0 01.025.023l-.32.24zm.1-.594a.651.651 0 00-.162.272.375.375 0 00.06.318l.325-.232.002.006v.007a.284.284 0 01.07-.1l-.295-.271zm.064.206a.195.195 0 01-.088-.149c-.001-.021.002-.036.002-.037l-.001.004a.453.453 0 01-.012.029v.002l.182.08.183.081.001-.002.002-.003a.856.856 0 00.038-.117.25.25 0 00.005-.062c-.001-.014-.007-.105-.094-.162l-.218.336zm-.309-.202l.31.202.217-.336-.309-.2-.218.334zm.944-2.235c-.196.207-.51.677-.743 1.102-.117.214-.22.428-.279.602a.92.92 0 00-.053.255c-.002.07.01.216.149.287l.182-.356c.08.04.067.115.068.081a.618.618 0 01.034-.14c.047-.14.137-.33.25-.537.227-.415.522-.85.682-1.018l-.29-.276zm.127-.184a.254.254 0 01-.002.046l.001-.003.001-.003a.3.3 0 01-.031.04 4.045 4.045 0 01-.097.105l.291.274c.079-.083.146-.153.185-.22.052-.092.052-.174.052-.24h-.4zm.36-1.146a2.972 2.972 0 00-.249.576c-.063.2-.111.411-.111.57h.4c0-.096.032-.26.092-.448a2.58 2.58 0 01.212-.495l-.344-.203zm.05-.036l-.003-.012a.112.112 0 01.003-.04c0-.005 0-.002-.008.015a1.614 1.614 0 01-.042.072l.344.205a.796.796 0 00.09-.183.296.296 0 00-.018-.216l-.367.16zm.388-.647c-.154.111-.273.2-.34.286A.353.353 0 008.5 4a.347.347 0 00.032.181l.365-.165c-.005-.01.003.002 0 .026-.002.025-.013.034-.004.024a.539.539 0 01.077-.072 3.59 3.59 0 01.183-.137L8.92 3.53zm.948-.67a.186.186 0 01.034-.06c.002-.003.002-.003-.002.001a6.712 6.712 0 01-.238.188c-.172.13-.423.313-.742.542l.233.325c.32-.23.574-.415.75-.547a7.077 7.077 0 00.27-.215.412.412 0 00.028-.029.215.215 0 00.046-.078l-.38-.126zm-.217.29a1.182 1.182 0 01.318-.06l.015.001a.156.156 0 01-.056-.028.185.185 0 01-.062-.2l.382.122a.215.215 0 00-.074-.237.268.268 0 00-.115-.05.656.656 0 00-.166-.004 1.58 1.58 0 00-.373.078l.13.378zm-1.155.079c.144.073.332.085.518.068a2.69 2.69 0 00.638-.147l-.133-.378a2.294 2.294 0 01-.541.127c-.16.014-.257-.004-.298-.026l-.184.356zm-.322-.424c0 .073.036.134.05.159.022.035.048.07.075.1a.73.73 0 00.2.166l.179-.358s-.002 0-.008-.005a.505.505 0 01-.103-.11c-.003-.004-.002-.004 0 0 0 .002.007.02.007.048h-.4zm.41-.2a2.195 2.195 0 00-.214-.003.21.21 0 00-.104.035.202.202 0 00-.092.168h.4A.198.198 0 018.415 3H8.41h.021c.03 0 .073.002.124.005l.03-.398zm-.162-.018a1.883 1.883 0 01.01.124c-.002.011-.002-.012.02-.042a.155.155 0 01.132-.063l-.029.398a.246.246 0 00.22-.1.313.313 0 00.054-.155c.007-.072-.004-.158-.01-.208l-.397.046zm-.01-.13c0 .043.006.094.01.13l.398-.046a.91.91 0 01-.008-.085h-.4zm.208-.267a.202.202 0 00-.195.148.282.282 0 00-.01.05.651.651 0 00-.003.068h.4a.427.427 0 010-.025v.005a.186.186 0 01-.027.066.198.198 0 01-.165.088v-.4zm.15.041a10.903 10.903 0 00-.1-.035.2.2 0 00-.013-.003c-.003 0-.018-.003-.037-.003v.4a.196.196 0 01-.056-.008c-.002 0-.002 0 0 0a.914.914 0 01.07.025l.137-.376zm.03.01l-.03-.01-.136.376.028.01.137-.375zm.714-.054c-.354.097-.59.1-.717.054l-.133.377c.247.087.582.058.956-.046l-.106-.385zm.532-.115a4.28 4.28 0 00-.533.115l.108.385a3.93 3.93 0 01.47-.102l-.045-.398zm.627.32a.224.224 0 00.06-.13.21.21 0 00-.083-.19.241.241 0 00-.092-.042.363.363 0 00-.057-.008 1.203 1.203 0 00-.197.01 4.136 4.136 0 00-.266.041l-.005.001h-.001l.036.197.037.197a.373.373 0 00.02-.004 4.333 4.333 0 01.225-.034.885.885 0 01.126-.008c.004 0 .001 0-.006-.002a.149.149 0 01-.06-.028.19.19 0 01-.074-.171.173.173 0 01.045-.102l.292.273zm-.082.234c.02-.076.04-.136.057-.18.02-.05.03-.06.025-.054l-.292-.274a.58.58 0 00-.104.179c-.026.065-.05.142-.073.227l.387.102zm-.057.203a.183.183 0 01-.003.037c0 .001 0 0 0 0l.003-.014a4.986 4.986 0 01.057-.225l-.386-.104a7.908 7.908 0 00-.06.24l-.005.017a.214.214 0 00-.001.008l-.002.006v.008s-.003.012-.003.027h.4zm-.078-.18l-.06-.012a3.114 3.114 0 00-.023-.004l-.004-.001-.006-.001-.007-.001-.022-.001v.4a.195.195 0 01-.033-.003H10.3h.002l.015.003.06.012.08-.392zm-.002 0l-.077.393.077-.393zm.531.108a77.17 77.17 0 01-.529-.108l-.08.392.531.108.078-.392zm.62.108c.015-.003.014 0-.024-.004a2.084 2.084 0 01-.128-.017 10.94 10.94 0 01-.467-.087l-.08.392c.202.041.364.072.485.09.06.01.112.017.155.02a.509.509 0 00.13 0l-.072-.394zm.399.305a.306.306 0 00-.134-.262.354.354 0 00-.271-.042l.082.391c.02-.004 0 .006-.032-.015a.108.108 0 01-.038-.044.07.07 0 01-.007-.028h.4zm-.38.398c.104-.048.192-.093.254-.145a.354.354 0 00.092-.11.31.31 0 00.034-.143h-.4c0-.007.001-.023.01-.04.008-.015.015-.02.01-.015a.342.342 0 01-.05.032 1.933 1.933 0 01-.118.058l.168.363zm-.293.179a2.05 2.05 0 01.295-.18l-.172-.361a2.438 2.438 0 00-.365.222l.242.319zm-.73.764c.155-.222.53-.613.73-.764l-.242-.319a5.02 5.02 0 00-.816.854l.328.229zm-.1.285a.51.51 0 01.005-.138.823.823 0 01.095-.147l-.328-.23c-.06.088-.116.164-.145.247-.03.088-.028.178-.028.268h.4zm.112.736a3.059 3.059 0 01-.113-.736h-.4c0 .243.056.6.13.85l.383-.114zm.043.146l-.043-.145-.384.111.043.146.384-.112zm-.306-.212l-.074.198.375.14.074-.198-.375-.14zm.431-.822a3.339 3.339 0 00-.431.823l.376.137a2.94 2.94 0 01.38-.726l-.325-.234zm.196.082a.182.182 0 01-.112-.147.159.159 0 01.004-.059l.004-.012a2.743 2.743 0 01-.091.136l.324.234c.057-.078.103-.146.129-.199a.27.27 0 00.028-.145.218.218 0 00-.142-.181l-.144.373zm.015-.622a.262.262 0 00-.078.077.641.641 0 00-.087.328.287.287 0 00.025.098.23.23 0 00.126.119l.143-.374a.171.171 0 01.094.086c.01.022.01.038.011.04l.004-.026a.24.24 0 01.014-.045c.002-.005.002-.004 0 0a.155.155 0 01-.043.039l-.209-.342zm.67-.601a24.15 24.15 0 01-.612.554l-.058.047.21.341c.027-.017.07-.052.106-.083a24.543 24.543 0 00.627-.568l-.273-.291zm.611-.577l-.612.577.274.29.612-.575-.274-.292zm-.063-.007v.153h.4V2.92h-.4zm.243-.366c-.015.003-.053.01-.088.026a.245.245 0 00-.123.118.326.326 0 00-.03.121 1.51 1.51 0 00-.002.1h.4c0-.038 0-.059.002-.072v-.003a.157.157 0 01-.084.102l-.013.004a.383.383 0 01.016-.003l-.078-.393zm.219-.02c-.066 0-.16.01-.215.02l.07.393c.034-.006.104-.012.145-.012v-.4zm.119-.093a.782.782 0 01-.112.09l-.006.003h-.008l.014.4a.412.412 0 00.199-.056c.058-.033.116-.082.18-.14l-.267-.297zm.143.14a.195.195 0 01-.07-.188.157.157 0 01.017-.046c.004-.007.004-.005-.006.007a1.096 1.096 0 01-.087.09l.274.291c.045-.043.089-.087.12-.126a.452.452 0 00.048-.067.24.24 0 00.027-.07.206.206 0 00-.072-.203l-.25.312zm-.114.015a1.309 1.309 0 01.17.016c.003 0 0 0-.005-.002a.188.188 0 01-.067-.043l.283-.283a.212.212 0 00-.084-.051.794.794 0 00-.109-.023 1.704 1.704 0 00-.179-.014l-.009.4zm-.512.067c.268-.062.363-.074.507-.067l.019-.4c-.199-.009-.335.012-.616.077l.09.39zm-.867.034c.236.08.474.06.868-.035l-.093-.389c-.381.091-.523.086-.646.045l-.129.379zm.189-.53a.966.966 0 00-.23.092.34.34 0 00-.066.051.237.237 0 00-.068.136c-.01.084.028.15.07.19a.29.29 0 00.105.06l.13-.378h.002a.118.118 0 01.036.026.178.178 0 01.01.246c-.009.01-.014.012-.01.01a.61.61 0 01.126-.048l-.105-.386zm-.12-.459a.203.203 0 00-.263.172c-.005.047.008.086.01.092.007.027.02.056.03.078a10.323 10.323 0 00.179.334l.031.055a2.382 2.382 0 00.011.02h.001l.173-.1.173-.1v-.001l-.003-.004-.008-.015a7.794 7.794 0 01-.194-.358c-.01-.02-.011-.026-.01-.023l.003.016a.196.196 0 01-.253.216l.12-.382zm.72.034a1.134 1.134 0 01-.338.047 1.555 1.555 0 01-.383-.081l-.117.383c.186.057.335.092.482.098.15.006.288-.017.454-.059l-.098-.388zm6.422 2.643a.201.201 0 00-.39.057.905.905 0 00-.004.07l.4.016a1.33 1.33 0 01.002-.036l-.004.016a.197.197 0 01-.201.148.199.199 0 01-.173-.12l.37-.15zm-.005.201a.4.4 0 00.018-.07.247.247 0 00-.01-.125l-.375.14a.17.17 0 01-.01-.078c.001-.005.002-.006 0 0l.377.133zm-2.39-2.705a.204.204 0 00-.317.02.209.209 0 00-.037.14c0 .013.002.025.003.035l.396-.057c0-.004 0-.003 0 0 0 0 .001.018-.004.042a.197.197 0 01-.332.095l.29-.275zm-.157.366c.012 0 .043 0 .078-.01a.207.207 0 00.119-.301.286.286 0 00-.032-.046l-.307.257c.002.002-.005-.005-.012-.019a.193.193 0 01.148-.28h.014l-.008.4zm-2.323 2.774l.195.046v-.004l.004-.014.013-.054a23.64 23.64 0 01.197-.763l-.386-.107a24.122 24.122 0 00-.2.776l-.013.055-.004.014v.005l.194.046zm-.09-.284l-.092.2.364.168.092-.201-.364-.167zm.106-.548l-.002.02a5.069 5.069 0 01-.076.43 1.465 1.465 0 01-.027.097l-.001.002.364.165a1.03 1.03 0 00.053-.173 4.186 4.186 0 00.09-.541h-.4zm0-.012v.01l.4.003v-.01l-.4-.003zm.53-1.127l-.002-.001-.189.352.003.002.188-.353zm-.204.343l.015.01a.19.19 0 00.04.016c.005.001.035.01.075.007a.2.2 0 00.122-.34l-.284.282a.197.197 0 01-.057-.16.2.2 0 01.18-.18c.04-.004.07.005.075.006a.21.21 0 01.038.016l.01.005.001.002-.215.336zm-.857-.843l-.115.163h.001l.002.002.008.005.029.02.103.074.32.224c.23.162.477.335.509.355l.215-.336-.003-.003-.011-.007a6.06 6.06 0 01-.153-.106 180.782 180.782 0 01-.646-.454l-.104-.073a.191.191 0 00-.03-.02l-.007-.006-.002-.001-.116.163zm.16.163l.032-.106-.383-.115-.032.106.383.115zm.841.309c-.103-.048-.343-.158-.553-.268a2.861 2.861 0 01-.26-.15.392.392 0 01-.052-.04c-.002-.002.006.005.015.022a.172.172 0 01.01.127l-.384-.115a.228.228 0 00.017.17.31.31 0 00.055.074.74.74 0 00.114.093c.082.055.19.116.3.173.22.116.47.23.571.277l.167-.363zm.052.024l-.052-.024-.167.363.03.014.01.004.002.002.177-.36zm-2.998.307l.047-.015a.219.219 0 00.106-.073.205.205 0 00-.05-.3.316.316 0 00-.082-.037c-.071-.022-.228-.054-.496-.11l-.08.393c.284.058.41.085.457.1.014.004-.001 0-.022-.013-.008-.006-.049-.033-.07-.09a.195.195 0 01.028-.19c.025-.032.052-.046.057-.049a.145.145 0 01.011-.005l.004-.002-.004.002a.695.695 0 01-.014.004l.108.385zm-.265.075l.27-.077-.119-.382-.26.074.109.385zm.001 0l-.11-.385.11.385zm-.324.091l.323-.09-.108-.386-.324.091.11.385zm-.512.143l.511-.143-.107-.385-.512.143.108.385zm-.23-.314l-.018.071.388.1.018-.07-.387-.1zm.334-.628a.202.202 0 00-.167.088.557.557 0 00-.04.085 7.427 7.427 0 00-.127.458l.389.094a7.04 7.04 0 01.114-.418l.005-.012-.003.007a.177.177 0 01-.04.049.198.198 0 01-.13.049v-.4zm.52.099a43.57 43.57 0 00-.486-.097h-.01a.084.084 0 00-.024-.002v.4a.192.192 0 01-.02-.001l.027.005.102.02c.087.017.203.04.33.067l.082-.392zm-1.103.486l-.053.19.386.107.053-.19-.386-.107zm.066-.224a11.41 11.41 0 01-.064.219l.382.117.067-.226-.385-.11zm.198.224a.199.199 0 01-.197-.17.171.171 0 010-.042.133.133 0 01.013-.046l.358.179a.264.264 0 00.025-.147.201.201 0 00-.2-.174v.4zM9.25 3.9c-.005.005 0 0 .031-.023a30.303 30.303 0 01.402-.295 77.89 77.89 0 01.421-.305l.003-.002-.007.004-.014.007a.206.206 0 01-.02.008.195.195 0 01-.064.01v-.4c-.034 0-.059.01-.064.011a.2.2 0 00-.06.032 77.34 77.34 0 00-.835.61l-.057.042.264.301zm-.014-.38l-.117.03-.017.003a.18.18 0 01.082.01.199.199 0 01.1.298l-.332-.222a.201.201 0 00.145.311c.029.004.054 0 .058 0a4.514 4.514 0 00.183-.043l-.102-.388zm.386-.11c-.114.03-.29.082-.39.11l.11.385c.102-.03.273-.079.381-.107l-.101-.387zm.204-.054l-.206.055.104.386.206-.055-.104-.386zm4.031 2.06l.066-.218-.382-.116-.066.217.382.116zm-.17.83c.042-.318.095-.574.171-.833l-.384-.112c-.082.28-.14.558-.183.895l.397.05zm-.164.5c.047-.078.085-.146.111-.228.027-.08.04-.164.054-.272l-.397-.05a1.058 1.058 0 01-.037.197.692.692 0 01-.073.145l.342.207zm-.11.204c0 .003.001-.002.009-.018l.026-.053.077-.137-.346-.201c-.028.05-.059.103-.084.151a.928.928 0 00-.063.139l.382.119zm-.48-.376c.003.092.006.171.01.234.003.06.008.118.018.163a.272.272 0 00.047.107.21.21 0 00.273.055c.054-.03.082-.08.09-.093a.624.624 0 00.035-.07l-.367-.16a.738.738 0 01-.008.019l-.003.006.002-.003a.166.166 0 01.051-.046.19.19 0 01.245.05c.024.031.028.06.025.049a.858.858 0 01-.009-.1 9.59 9.59 0 01-.009-.224l-.4.013zm.102-1.225a4.798 4.798 0 00-.102 1.228l.4-.019a4.382 4.382 0 01.093-1.124l-.39-.085zm.809-.436a.23.23 0 00-.193-.128.322.322 0 00-.13.02.702.702 0 00-.19.11.807.807 0 00-.295.433l.39.086a.418.418 0 01.152-.204.322.322 0 01.077-.048c.007-.003-.006.004-.033.002a.171.171 0 01-.139-.097l.36-.174zm.068.14l-.069-.14-.36.175.07.14.359-.176zm-3.735.706a.81.81 0 01.038.138.128.128 0 01-.004.054l.39.091a.525.525 0 00.01-.198 1.155 1.155 0 00-.056-.213l-.378.128zm-.159-.753c.003.183.077.51.159.753l.379-.127a2.716 2.716 0 01-.138-.633l-.4.007zm.265.041a1.12 1.12 0 01.05-.115c.006-.01.004-.003-.008.01a.17.17 0 01-.05.035.19.19 0 01-.235-.062.162.162 0 01-.022-.041c-.003-.012-.003-.015-.002-.003a.904.904 0 01.002.128l.4.008a1.6 1.6 0 00-.003-.175.393.393 0 00-.016-.083.24.24 0 00-.032-.064.212.212 0 00-.11-.08.216.216 0 00-.221.06.355.355 0 00-.052.073 1.455 1.455 0 00-.073.162l.372.147zm-.192.86c0-.19.01-.312.035-.429.026-.117.07-.237.154-.423l-.366-.163a2.581 2.581 0 00-.178.5 2.308 2.308 0 00-.045.515h.4zm.025.407l-.002-.009a1.45 1.45 0 01-.014-.123 3.949 3.949 0 01-.009-.275h-.4c0 .11.004.216.01.304.006.08.015.166.034.224l.381-.121zm-.08-.026c-.014 0-.007 0 .006.003a.14.14 0 01.067.038c.018.018.023.034.021.029a.398.398 0 01-.012-.039l-.385.111a.778.778 0 00.028.082c.01.026.029.063.062.097.079.08.178.08.213.08v-.4zm.08 0h-.08v.4h.08v-.4zm.2.53v-.33h-.4v.33h.4zm-.24.531a.222.222 0 00.195-.115.332.332 0 00.036-.124c.007-.062.008-.158.008-.291h-.4c0 .141-.001.21-.005.245v.005c0-.002.003-.014.012-.03a.178.178 0 01.154-.09v.4zm.213-.06a2.838 2.838 0 01-.042-.105c-.01-.028-.01-.032-.009-.024a.17.17 0 01-.056.143.175.175 0 01-.079.043c-.016.003-.027.003-.027.003v-.4c-.015 0-.098-.002-.167.061a.231.231 0 00-.067.205.531.531 0 00.03.107c.012.034.029.075.049.122l.368-.156zm.363 1.05s-.006-.01-.01-.027a.192.192 0 01.028-.162.197.197 0 01.214-.078.146.146 0 01.045.019c.008.005.002.001-.028-.027a5.006 5.006 0 01-.46-.533 1.381 1.381 0 01-.152-.242l-.369.154c.042.1.12.217.2.326a5.384 5.384 0 00.504.583.642.642 0 00.093.078c.008.005.03.018.06.027.014.004.142.037.222-.08a.203.203 0 00.028-.171.26.26 0 00-.018-.048l-.357.182zm-.498-1.968c-.03.292.046.676.145 1.025.102.356.238.705.351.94l.36-.174a5.824 5.824 0 01-.326-.875c-.097-.342-.153-.664-.132-.877l-.398-.04zm.057-.419a4.929 4.929 0 00-.057.418l.398.04c.016-.157.039-.325.049-.37l-.39-.088zm6.026.887a.714.714 0 00.048-.206.702.702 0 00-.03-.205l-.388.1c.018.07.019.082.018.089a.35.35 0 01-.026.092l.378.13zm-.016.047l.016-.045-.377-.134-.018.053.38.126zm0 0l-.38-.125.38.125zm0 0l-.38-.126.38.127zm-.177.373a.704.704 0 00.114-.197c.026-.063.048-.13.063-.175l-.38-.126c-.015.047-.033.1-.053.149a.64.64 0 01-.042.082l.298.267zm-.483.044c.004.007.01.019.018.03a.259.259 0 00.047.056.218.218 0 00.248.028.379.379 0 00.092-.073l.078-.085-.297-.268a3.02 3.02 0 01-.076.082l-.002.002.003-.003a.176.176 0 01.11-.029.18.18 0 01.13.069l-.35.19zm-.116-1.4a2.99 2.99 0 00-.032.752c.018.24.064.487.147.645l.354-.186c-.044-.082-.085-.26-.102-.49a2.599 2.599 0 01.026-.645l-.393-.075zm.381-.83a.201.201 0 00-.181.113 1.214 1.214 0 00-.04.105 6.203 6.203 0 00-.16.613l.393.074a5.867 5.867 0 01.164-.613L16 5.37a.196.196 0 01-.173.103v-.4zm.238.385a8.862 8.862 0 00-.037-.213.333.333 0 00-.008-.032c-.002-.005-.007-.02-.016-.036a.201.201 0 00-.176-.105v.4a.2.2 0 01-.175-.102c-.008-.015-.012-.028-.013-.03l-.002-.006a7.989 7.989 0 01.031.186l.396-.062zm.19.97c-.055-.215-.157-.73-.19-.967l-.396.056c.035.25.14.781.2 1.011l.387-.1zm-7.582-.263L8.5 5.581l-.383.112.171.585.384-.113zm-.631-.462c.003.025.01.046.012.054a8.266 8.266 0 00.21.473l.026.056.008.016.002.004v.001l.181-.086.18-.086v-.002l-.002-.004-.008-.015a19.578 19.578 0 01-.187-.405 1.655 1.655 0 01-.029-.073c-.002-.005.003.006.005.025l-.398.042zm.158-.233l-.069.045.22.334.068-.045-.22-.334zm1.413 1.218c.07 0 .137-.002.189-.008a.619.619 0 00.077-.011.268.268 0 00.056-.02.203.203 0 00.118-.185h-.4a.197.197 0 01.108-.175.155.155 0 01.027-.01s-.007.002-.026.003a1.632 1.632 0 01-.15.006v.4zm-.24 0h.24v-.4h-.24v.4zm-.654.01l.657-.01-.006-.4-.657.01.006.4zm.322-.565c-.106.044-.208.086-.283.119a1.942 1.942 0 00-.142.07.254.254 0 00-.032.024c-.004.005-.045.04-.062.1l.387.104a.195.195 0 01-.056.093l-.018.014.006-.003.077-.036.275-.115-.152-.37zm-.018.009l.188.352-.188-.352zm.148-.063l-.13.054.153.37.13-.054-.153-.37zm.749.121c-.04-.051-.095-.07-.108-.075a.464.464 0 00-.066-.017 1.465 1.465 0 00-.138-.02 7.44 7.44 0 00-.35-.023l-.021.399c.123.006.242.013.331.022.046.005.079.01.099.014.01.002.012.003.009.001a.176.176 0 01-.07-.053L9.92 6.2zm.133.265c0-.046-.016-.08-.017-.083a.704.704 0 00-.04-.074 1.585 1.585 0 00-.074-.104l-.318.241a1.191 1.191 0 01.065.096l-.003-.007a.164.164 0 01-.01-.036.194.194 0 01-.003-.033h.4zm-.915-.006l.1.005.02-.4-.1-.004-.02.399zm-.542-.078c.039.03.081.039.088.04a1.782 1.782 0 00.16.02c.082.007.187.013.294.018l.02-.4a12.289 12.289 0 01-.367-.024l-.011-.002.012.004a.176.176 0 01.044.024l-.24.32zm.85-.512l-.77.156.08.392.77-.156-.08-.392zm.293-.06l-.293.06.08.392.293-.06-.08-.391zm-.415.64c.13-.054.264-.11.368-.16.051-.023.1-.047.138-.07a.503.503 0 00.096-.074.221.221 0 00.046-.086l-.385-.106a.18.18 0 01.052-.086l-.012.007a1.503 1.503 0 01-.105.054 9.396 9.396 0 01-.351.152l.153.369zm-.906.538l.171.27.338-.215-.172-.27-.337.215zm-.073-.439c.03.073.041.12.041.332h.4c0-.227-.01-.34-.074-.489l-.367.157zm.1-.046a.197.197 0 01-.157-.079.11.11 0 01-.002-.002.074.074 0 01.004.007l.009.016.045.102.37-.153a2.395 2.395 0 00-.085-.18.22.22 0 00-.06-.07.204.204 0 00-.125-.041v.4zm.108.159l.058-.221.016-.057.001-.004-.008.018a.194.194 0 01-.061.069.2.2 0 01-.115.036v-.4a.2.2 0 00-.19.134 26.607 26.607 0 00-.089.323l.388.102zm0 .002l-.387-.105.386.105zm-.119.446l.119-.448-.387-.101-.118.444.386.105zm-.198.725l.198-.725-.386-.105-.198.724.386.106zm-.045-.212l-.079-.029-.138.376.08.029.137-.376zm.38.202a5.02 5.02 0 00-.22-.125 1.46 1.46 0 00-.162-.078L8.055 8l.031.014c.02.01.047.023.076.04.06.031.132.072.202.113l.206-.342zm.208.13a.174.174 0 01.049.007l-.008-.004a3.7 3.7 0 01-.25-.135l-.204.345a4.094 4.094 0 00.296.158.51.51 0 00.04.015c.006.002.039.014.077.014v-.4zm-.152-.088a.992.992 0 01.026.182c0 .007 0-.018.026-.047a.143.143 0 01.1-.047v.4a.262.262 0 00.2-.089.31.31 0 00.071-.17.978.978 0 00-.034-.32l-.39.091zm-.064-.48c.003.141.031.355.064.484l.388-.099a2.158 2.158 0 01-.052-.393l-.4.008zm-.005-.232l.005.232.4-.009-.005-.232-.4.009zm5.494 1.012a2.732 2.732 0 01-.32-.836l-.393.077c.065.33.185.639.365.957l.348-.198zm.108.51a.201.201 0 00.046-.213 1.48 1.48 0 00-.048-.104 5.58 5.58 0 00-.106-.194l-.347.2a5.24 5.24 0 01.122.227c.003.006.002.004 0-.001a.192.192 0 01-.008-.074.199.199 0 01.057-.124l.284.282zm-.559.086c.037.02.072.025.08.025a.615.615 0 00.09 0 1.652 1.652 0 00.292-.054.23.23 0 00.09-.05l-.269-.297a.185.185 0 01.041-.028l.008-.003a1.225 1.225 0 01-.212.035h-.002a.081.081 0 00.012 0 .188.188 0 01.065.022l-.195.35zm-.375-.725c.052.143.116.297.172.419a2.679 2.679 0 00.116.22c.006.01.014.021.024.032a.21.21 0 00.052.047l.217-.336c.023.015.036.03.036.031l.003.003a2.353 2.353 0 01-.084-.165 5.424 5.424 0 01-.16-.388l-.376.137zm-.205-.93a.366.366 0 00-.006.103c.002.028.006.059.01.09a4.97 4.97 0 00.2.737l.377-.137a4.559 4.559 0 01-.181-.662.687.687 0 01-.007-.054c0-.016.002-.007-.003.013l-.39-.09zm.142-.336a4.888 4.888 0 00-.087.187.964.964 0 00-.056.152l.392.084.005-.014.026-.063c.022-.05.05-.11.08-.17l-.36-.176zm.107-.224l-.108.225.36.173.109-.225-.36-.173zm.401.33l-.02-.26-.4.033.021.259.4-.032zm.06.448a3.908 3.908 0 01-.06-.447l-.399.03c.011.147.039.372.068.504l.39-.087zm1.688.134a.71.71 0 01.05.028c.011.007.011.008.007.003a.136.136 0 01-.037-.108l.397.047a.265.265 0 00-.082-.226.636.636 0 00-.152-.1l-.183.356zm-.412-.021l.105.17.002-.001.01-.006a1.664 1.664 0 01.164-.084.706.706 0 01.128-.045c.044-.009.035.003.005-.012l.18-.357a.41.41 0 00-.268-.022 1.097 1.097 0 00-.206.07 2.003 2.003 0 00-.205.105l-.014.008-.004.002-.001.001.104.17zm.375.278c.035 0 .06.01.069.014l.016.009s-.005-.003-.016-.015a1.773 1.773 0 01-.263-.373l-.36.174a2.146 2.146 0 00.34.482c.02.02.043.041.068.059.015.01.07.05.146.05v-.4zm.101-.129a3.39 3.39 0 01-.184.148c-.004.003-.004.002 0 0a.149.149 0 01.018-.008.186.186 0 01.065-.011v.4a.212.212 0 00.102-.026 1.114 1.114 0 00.099-.067 3.75 3.75 0 00.161-.133l-.26-.303zm.215.084l.01.001s-.018-.005-.04-.021a.167.167 0 01-.055-.184c.007-.018.011-.015-.017.015-.024.025-.06.06-.113.106l.262.302c.057-.05.105-.094.143-.135a.466.466 0 00.099-.145.248.248 0 00.012-.139.233.233 0 00-.087-.137.34.34 0 00-.176-.061l-.038.398zm-.26-.287c-.002.027-.015.142.083.223a.26.26 0 00.103.051c.025.007.05.01.07.012l.045-.397-.016-.002a.169.169 0 01.11.124c.005.023.003.038.003.033l-.397-.044zm-.085.81l.069-.048-.228-.328-.069.047.228.329zm-.951.343a.21.21 0 00.194.033 2.124 2.124 0 00.118-.049 9.226 9.226 0 00.639-.327l-.227-.33v.001c-.002 0-.002.001-.003.002a.429.429 0 01-.038.022 10.98 10.98 0 01-.602.297c-.008.003-.01.003-.006.003l.02-.005a.19.19 0 01.038-.003c.01 0 .065.002.117.044l-.25.312zm.075-.74a29.906 29.906 0 00-.136.492.852.852 0 00-.013.068.221.221 0 00.005.071.2.2 0 00.052.094l.284-.282a.2.2 0 01.057.158l-.001.008.005-.022.029-.11c.025-.094.062-.224.103-.367l-.385-.11zm.157-.244l-.129.185.329.228.128-.185-.328-.228zm.391.008a1.536 1.536 0 01-.08-.022c-.005-.003-.003-.003.002.002a.102.102 0 01.028.033l-.354.186a.33.33 0 00.17.148c.05.02.105.033.14.042l.094-.389zm.271.126a.408.408 0 00-.15-.091c-.043-.016-.09-.027-.12-.035l-.096.389c.037.009.06.014.078.021.02.007.015.009.005-.001l.283-.283zm.153.154l-.153-.154-.283.283.153.153.283-.282zm-1.381.098a17.661 17.661 0 01-.146.425v-.001l.005-.009.016-.024.313.25c.016-.02.025-.04.026-.042a17.782 17.782 0 00.166-.476l-.38-.123zm.187.25a.215.215 0 01.052-.107.146.146 0 01.008-.01l.003-.002.001-.001h-.001l-.005.004a.123.123 0 01-.028.01.174.174 0 01-.213-.157c0-.009.001-.006-.005.015l.382.119a.462.462 0 00.023-.126.246.246 0 00-.068-.18.226.226 0 00-.218-.058.31.31 0 00-.11.056.618.618 0 00-.216.378l.395.058zm-.297.125a.192.192 0 01.284.02.153.153 0 01.016.025c.005.013.002.012-.001-.014a.652.652 0 01-.001-.16l-.397-.052a.99.99 0 00.002.267.465.465 0 00.033.127c.007.014.033.071.097.106a.209.209 0 00.25-.037l-.283-.282zm-2.724.174a.204.204 0 00.035-.047.296.296 0 00.025-.054l.034-.088a8.22 8.22 0 00.087-.256l-.38-.123a7.95 7.95 0 01-.111.316l-.006.015.003-.006c0-.002.003-.006.007-.012a.19.19 0 01.023-.028l.283.283zm-.355.008c.04.02.082.037.123.047.02.004.048.01.08.009a.22.22 0 00.167-.08l-.313-.25a.188.188 0 01.136-.07l.022.001a.194.194 0 01-.036-.014l-.18.357zm-.242-.318c.015.06.035.13.08.191a.434.434 0 00.16.126l.183-.355c-.038-.02-.03-.02-.021-.008.004.005.004.006 0-.001a.492.492 0 01-.014-.05l-.388.097zm.056-.402c-.028.048-.069.115-.08.195-.01.078.011.154.024.206l.389-.095a.911.911 0 01-.014-.063c-.002-.01 0-.005-.002.004-.001.01-.004.013 0 .006a.781.781 0 01.029-.053l-.346-.2zm.473-.369a.77.77 0 00-.472.367l.344.204a.372.372 0 01.224-.183l-.096-.388zm.373.264a.22.22 0 00.01-.134.207.207 0 00-.106-.137.222.222 0 00-.099-.024.406.406 0 00-.087.01 3.071 3.071 0 00-.09.02l.094.39a.807.807 0 01.077-.018c.021-.005.015-.002 0-.002a.18.18 0 01-.079-.02.192.192 0 01-.098-.127c-.01-.041-.003-.074-.002-.08l.004-.012.376.134zm-.076.228l.052-.157.016-.048.004-.012-.368-.157-.032.09a47.91 47.91 0 00-.052.158l.38.126zm-.049.146l.049-.146-.38-.126-.048.146.38.126zm.29-.127c.037.158.11.348.205.535l.356-.18a2.078 2.078 0 01-.17-.444l-.39.09zm.04-.084a.129.129 0 01-.053-.03c-.017-.016-.022-.03-.021-.028a2.001 2.001 0 01.034.138l.392-.08a1.132 1.132 0 00-.061-.22.31.31 0 00-.07-.103.271.271 0 00-.115-.063l-.107.386zm.06.078a2.213 2.213 0 01.047-.143l-.009.012a.143.143 0 01-.1.048h-.018l.02.005.106-.386c-.023-.006-.073-.02-.126-.018a.255.255 0 00-.185.09.423.423 0 00-.071.13c-.015.041-.03.091-.048.148l.384.114zm-.086.277c.03-.093.061-.196.085-.276l-.382-.116-.085.272.382.12zm0 0l-.382-.12v.001l.382.12zm0 .001l-.382-.12.381.12zm-.05.158l.05-.159-.382-.118-.05.158.383.119zm-.063.203l.064-.203-.382-.119-.064.204.382.118zm.119-.2l-.27-.055-.08.392.269.055.08-.391zm.384.069a6.17 6.17 0 01-.385-.069l-.079.393c.142.028.334.065.422.074l.042-.398zm.14.016l-.138-.016-.046.398.137.015.046-.397zm-.34.017l.137.272.358-.18-.137-.272-.358.18zm.833-.638l-.274-.132-.174.36.274.132.174-.36zm-.058.45l.121-.138-.3-.264-.121.137.3.265zm-.128.194a.82.82 0 01.127-.193l-.298-.267c-.08.09-.17.227-.206.325l.377.135zm-.108.214c.029-.028.045-.063.048-.067a1.923 1.923 0 00.06-.146l-.377-.136a1.551 1.551 0 01-.04.1l.002-.004a.177.177 0 01.024-.03l.283.283zm-.684-.937c0 .044.01.091.018.13.01.04.024.086.039.132a3.756 3.756 0 00.24.554c.018.033.042.07.069.101.01.012.039.043.082.062a.208.208 0 00.243-.05l-.297-.267a.192.192 0 01.22-.047.168.168 0 01.05.035 2.26 2.26 0 01-.126-.25 3.374 3.374 0 01-.101-.263 1.303 1.303 0 01-.03-.1c-.007-.031-.007-.041-.007-.037h-.4zm.702-.054a3.133 3.133 0 00-.354-.151.352.352 0 00-.162-.017.224.224 0 00-.186.222h.4c0 .02-.005.065-.039.108a.176.176 0 01-.134.066.08.08 0 01-.01 0l.013.003c.048.015.14.054.301.13l.171-.361zm1.094.75c-.024 0-.186.012-.346.025l.032.398.22-.016.094-.007v-.4zm-.73-.105c.139.085.303.198.425.29.062.048.108.086.134.11.016.015.014.015.006.004a.19.19 0 01-.03-.102.196.196 0 01.175-.196l.04.398a.204.204 0 00.166-.29.23.23 0 00-.021-.037.444.444 0 00-.064-.07c-.04-.038-.1-.085-.164-.135a5.905 5.905 0 00-.458-.313l-.209.341zm-.085-.08a.196.196 0 01-.074-.014l.002.001.034.02c.032.017.075.043.122.072l.212-.34a4.2 4.2 0 00-.21-.12.251.251 0 00-.02-.007c-.001 0-.03-.011-.066-.011v.4zm.031.052a2.57 2.57 0 01.09-.093l-.004.003a.172.172 0 01-.044.025.195.195 0 01-.073.014v-.4a.202.202 0 00-.102.028l-.024.015a2.876 2.876 0 00-.138.138l.295.27zm-.175.304a.668.668 0 01.174-.302l-.292-.273a1.058 1.058 0 00-.275.501l.393.074zm-.016.083l.016-.082-.393-.076-.016.082.393.076zm.085-.222l-.27-.016-.023.4.269.015.024-.399zm.548-.008c-.162.01-.412.016-.55.008l-.021.4c.158.008.425.002.596-.008l-.025-.4z" fill="#000"/>
  <path d="M19.569 10.892v3.22H6.588v-3.417c.013.054.212.121.352.176.256.095.275.095.525-.082.339-.239.55-.232.933.027.576.39.73.396.902.055.128-.266.416-.266.908.007.21.116.428.204.492.204.058 0 .199-.109.307-.238.243-.3.384-.28 1.01.109.506.32.678.34.73.075.07-.334.127-.389.422-.389.179.007.447.089.722.225.237.123.48.218.525.218.05 0 .108-.095.134-.211a.565.565 0 01.172-.307c.173-.116.352-.068.915.239.563.3.723.273.723-.13 0-.123.121-.204.306-.204.058 0 .295.123.531.28.512.327.652.327.697-.008.045-.34.256-.347.806-.04.41.238.869.335.869.191z" fill="#0091C8"/>
  <path d="M6.636 10.811c.013.055.147.137.287.191.255.096.274.096.523-.082.338-.238.549-.231.931.028.574.388.727.395.9.054.127-.266.414-.266.905.007.21.116.428.205.491.205.058 0 .198-.11.306-.239.243-.3.383-.28 1.008.11.504.32.676.34.727.074.07-.334.128-.389.421-.389.179.007.447.09.721.226.236.122.478.218.523.218.051 0 .108-.096.134-.212a.566.566 0 01.172-.307c.172-.116.35-.068.912.24.562.3.72.272.72-.13 0-.123.122-.205.307-.205.058 0 .294.123.53.28.51.327.65.327.695-.007.044-.341.255-.348.803-.041.409.239.791.32.791.177" stroke="#fff" stroke-width=".5" stroke-linecap="round" stroke-linejoin="round"/>
</svg>
