<svg xmlns="http://www.w3.org/2000/svg" fill="none" viewBox="0 0 20 15"><mask id="TKL_svg__a" width="20" height="15" x="0" y="0" mask-type="alpha" maskUnits="userSpaceOnUse"><path fill="#fff" d="M0 0H20V15H0z"/></mask><g mask="url(#TKL_svg__a)"><path fill="#2E42A5" fill-rule="evenodd" d="M0 0V15H20V0H0Z" clip-rule="evenodd"/><mask id="TKL_svg__b" width="20" height="15" x="0" y="0" mask-type="alpha" maskUnits="userSpaceOnUse"><path fill="#fff" fill-rule="evenodd" d="M0 0V15H20V0H0Z" clip-rule="evenodd"/></mask><g fill-rule="evenodd" clip-rule="evenodd" mask="url(#TKL_svg__b)"><path fill="#F7FCFF" d="M2.05905 6.28962 1.50558 6.6321 1.72045 6.05716 1.25 5.6219H1.82062L2.05905 5 2.241 5.6219H2.8125L2.40063 6.05716 2.60228 6.6321 2.05905 6.28962zM4.55905 3.78962 4.00558 4.1321 4.22045 3.55716 3.75 3.1219H4.32062L4.55905 2.5 4.741 3.1219H5.3125L4.90063 3.55716 5.10228 4.1321 4.55905 3.78962zM7.05905 6.28962 6.50558 6.6321 6.72045 6.05716 6.25 5.6219H6.82062L7.05905 5 7.241 5.6219H7.8125L7.40063 6.05716 7.60228 6.6321 7.05905 6.28962zM4.55905 8.78962 4.00558 9.1321 4.22045 8.55716 3.75 8.1219H4.32062L4.55905 7.5 4.741 8.1219H5.3125L4.90063 8.55716 5.10228 9.1321 4.55905 8.78962z"/><path fill="#FECA00" d="M15.5262 3.41431C12.9741 4.67503 4.58827 10.3406 4.58827 10.3406H18.5577C18.4182 10.3094 18.2881 10.2835 18.1653 10.2591C17.1398 10.0549 16.6336 9.9541 15.5262 7.74804C14.2863 5.27798 15.5262 3.41431 15.5262 3.41431ZM4.13481 11.2281L3.94379 11.703L4.13481 12.2249L18.3559 12.4999L18.75 11.775L18.3559 11.2532L4.13481 11.2281Z"/></g></g></svg>