<svg xmlns="http://www.w3.org/2000/svg" fill="none" viewBox="0 0 20 15"><mask id="WSM_svg__a" width="20" height="15" x="0" y="0" mask-type="alpha" maskUnits="userSpaceOnUse"><path fill="#fff" d="M0 0H20V15H0z"/></mask><g mask="url(#WSM_svg__a)"><path fill="#C51918" fill-rule="evenodd" d="M0 0V15H20V0H0Z" clip-rule="evenodd"/><mask id="WSM_svg__b" width="20" height="15" x="0" y="0" mask-type="alpha" maskUnits="userSpaceOnUse"><path fill="#fff" fill-rule="evenodd" d="M0 0V15H20V0H0Z" clip-rule="evenodd"/></mask><g fill-rule="evenodd" clip-rule="evenodd" mask="url(#WSM_svg__b)"><path fill="#2E42A5" d="M0 0V8.75H10V0H0Z"/><path fill="#FEFFFF" d="M2.22854 4.8576 1.56601 5.25757 1.71713 4.47707 1.16541 3.89294 1.91247 3.86136 2.22854 3.13257 2.54461 3.86136H3.29041L2.73995 4.47707 2.90567 5.25757 2.22854 4.8576zM7.22854 4.8576 6.56601 5.25757 6.71713 4.47707 6.16541 3.89294 6.91247 3.86136 7.22854 3.13257 7.54461 3.86136H8.29041L7.73995 4.47707 7.90567 5.25757 7.22854 4.8576zM4.666 2.58621 4.04245 2.96265 4.18468 2.22806 3.66541 1.67829 4.36853 1.64857 4.666.962646 4.96348 1.64857H5.66541L5.14733 2.22806 5.3033 2.96265 4.666 2.58621zM5.34138 5.2657 4.95165 5.50098 5.04055 5.04186 4.716 4.69826 5.15545 4.67968 5.34138 4.25098 5.5273 4.67968H5.966L5.64221 5.04186 5.73969 5.50098 5.34138 5.2657zM4.63047 8.01761 3.69514 8.58228 3.90848 7.4804 3.12958 6.65575 4.18426 6.61116 4.63047 5.58228 5.07669 6.61116H6.12958L5.35247 7.4804 5.58642 8.58228 4.63047 8.01761z"/></g></g></svg>