<svg width="16" height="12" viewBox="0 0 16 12" fill="none" xmlns="http://www.w3.org/2000/svg">
<g clip-path="url(#clip0_270_54942)">
<rect width="16" height="12" fill="white"/>
<path fill-rule="evenodd" clip-rule="evenodd" d="M4 0H12V12H4V0Z" fill="#FFD018"/>
<path fill-rule="evenodd" clip-rule="evenodd" d="M0 0H4V12H0V0Z" fill="#2E42A5"/>
<path fill-rule="evenodd" clip-rule="evenodd" d="M12 0H16V12H12V0Z" fill="#E31D1C"/>
<path fill-rule="evenodd" clip-rule="evenodd" d="M4.90002 3.60712C4.90002 3.05206 5.35208 2.6032 5.90712 2.60714L10.3017 2.63832C10.8512 2.64222 11.2947 3.08878 11.2947 3.6383V7.64537C11.2947 7.64537 10.8505 9.64537 8.14899 9.64537C5.44743 9.64537 4.90002 7.6 4.90002 7.6V3.60712Z" fill="#BF9937"/>
<path fill-rule="evenodd" clip-rule="evenodd" d="M5.15002 4.20001C5.56424 4.20001 5.90002 3.86423 5.90002 3.45001C5.90002 3.0358 5.56424 2.70001 5.15002 2.70001C4.73581 2.70001 4.40002 3.0358 4.40002 3.45001C4.40002 3.86423 4.73581 4.20001 5.15002 4.20001Z" fill="#BF9937"/>
<path fill-rule="evenodd" clip-rule="evenodd" d="M5.15002 6.40002C5.56424 6.40002 5.90002 6.06424 5.90002 5.65002C5.90002 5.23581 5.56424 4.90002 5.15002 4.90002C4.73581 4.90002 4.40002 5.23581 4.40002 5.65002C4.40002 6.06424 4.73581 6.40002 5.15002 6.40002Z" fill="#BF9937"/>
<path fill-rule="evenodd" clip-rule="evenodd" d="M5.15002 8.20001C5.56424 8.20001 5.90002 7.86423 5.90002 7.45001C5.90002 7.0358 5.56424 6.70001 5.15002 6.70001C4.73581 6.70001 4.40002 7.0358 4.40002 7.45001C4.40002 7.86423 4.73581 8.20001 5.15002 8.20001Z" fill="#BF9937"/>
<path fill-rule="evenodd" clip-rule="evenodd" d="M10.85 4.20001C11.2642 4.20001 11.6 3.86423 11.6 3.45001C11.6 3.0358 11.2642 2.70001 10.85 2.70001C10.4358 2.70001 10.1 3.0358 10.1 3.45001C10.1 3.86423 10.4358 4.20001 10.85 4.20001Z" fill="#BF9937"/>
<path fill-rule="evenodd" clip-rule="evenodd" d="M10.85 6.40002C11.2642 6.40002 11.6 6.06424 11.6 5.65002C11.6 5.23581 11.2642 4.90002 10.85 4.90002C10.4358 4.90002 10.1 5.23581 10.1 5.65002C10.1 6.06424 10.4358 6.40002 10.85 6.40002Z" fill="#BF9937"/>
<path fill-rule="evenodd" clip-rule="evenodd" d="M10.85 8.20001C11.2642 8.20001 11.6 7.86423 11.6 7.45001C11.6 7.0358 11.2642 6.70001 10.85 6.70001C10.4358 6.70001 10.1 7.0358 10.1 7.45001C10.1 7.86423 10.4358 8.20001 10.85 8.20001Z" fill="#BF9937"/>
<path d="M5.91187 8.33519L5.96441 8.20813C6.56826 8.46697 7.25543 8.59657 8.02636 8.59657C8.7969 8.59657 9.46558 8.4671 10.0328 8.20874L10.0881 8.33458C9.50246 8.60133 8.81505 8.73442 8.02636 8.73442C7.23806 8.73442 6.53308 8.60147 5.91187 8.33519Z" fill="#805440"/>
</g>
<defs>
<clipPath id="clip0_270_54942">
<rect width="16" height="12" fill="white"/>
</clipPath>
</defs>
</svg>
