<svg xmlns="http://www.w3.org/2000/svg" xmlns:xlink="http://www.w3.org/1999/xlink" width="16" height="12" viewBox="0 0 16 12">
  <defs>
    <rect id="a" width="16" height="12"/>
    <path id="c" d="M1.91424597,0.0441164302 L3.82288596,0.0441164302 L3.82287833,3.55902659 C3.82243842,3.76584661 3.71288924,3.91446969 3.49423076,4.00489584 C3.27557229,4.095322 3.03764858,4.1243527 2.78045964,4.09198794 C2.53437181,4.03907671 2.34636434,4.03907671 2.21643722,4.09198794 C2.11283859,4.13417721 2.02780271,4.16250204 1.96132958,4.17696242 L1.96132958,4.1853009 C1.95380534,4.18432296 1.94595807,4.18310375 1.93778777,4.18164327 C1.92961748,4.18310375 1.92177021,4.18432296 1.91424597,4.1853009 L1.91424597,4.17696242 C1.84777283,4.16250204 1.76273695,4.13417721 1.65913833,4.09198794 C1.5292112,4.03907671 1.34120373,4.03907671 1.09511591,4.09198794 C0.837926965,4.1243527 0.600003257,4.095322 0.381344783,4.00489584 C0.162686309,3.91446969 0.0531371197,3.76584661 0.0526972151,3.55902659 L0.0526895828,0.0441164302 L1.91424597,0.0441164302 Z"/>
  </defs>
  <g fill="none" fill-rule="evenodd">
    <mask id="b" fill="white">
      <use xlink:href="#a"/>
    </mask>
    <g mask="url(#b)">
      <polygon fill="#FFD018" points="4 0 12 0 12 12 4 12"/>
      <rect width="4" height="12" fill="#2E42A5"/>
      <polygon fill="#E31D1C" points="12 0 16 0 16 12 12 12"/>
      <g transform="translate(3.9 2.6)">
        <path fill="#BF9937" d="M2.00709474,0.00714525452 L6.40172273,0.0383247794 C6.95122499,0.0422234528 7.39462799,0.488783522 7.39462799,1.03829961 L7.39462799,5.04536936 C7.09855371,6.37870269 6.04999817,7.04536936 4.24896136,7.04536936 C2.44792455,7.04536936 1.36493743,6.36357957 1,5 L1,1.00712009 C1,0.454835337 1.44771525,0.00712008654 2,0.00712008654 C2.00236494,0.00712008654 2.00472986,0.00712847592 2.00709474,0.00714525452 Z"/>
        <path fill="#BF9937" d="M1.25 1.6C1.66421356 1.6 2 1.26421356 2 .85 2 .435786438 1.66421356.1 1.25.1.835786438.1.5.435786438.5.85.5 1.26421356.835786438 1.6 1.25 1.6zM1.25 3.8C1.66421356 3.8 2 3.46421356 2 3.05 2 2.63578644 1.66421356 2.3 1.25 2.3.835786438 2.3.5 2.63578644.5 3.05.5 3.46421356.835786438 3.8 1.25 3.8zM1.25 5.6C1.66421356 5.6 2 5.26421356 2 4.85 2 4.43578644 1.66421356 4.1 1.25 4.1.835786438 4.1.5 4.43578644.5 4.85.5 5.26421356.835786438 5.6 1.25 5.6zM6.95 1.6C7.36421356 1.6 7.7 1.26421356 7.7.85 7.7.435786438 7.36421356.1 6.95.1 6.53578644.1 6.2.435786438 6.2.85 6.2 1.26421356 6.53578644 1.6 6.95 1.6zM6.95 3.8C7.36421356 3.8 7.7 3.46421356 7.7 3.05 7.7 2.63578644 7.36421356 2.3 6.95 2.3 6.53578644 2.3 6.2 2.63578644 6.2 3.05 6.2 3.46421356 6.53578644 3.8 6.95 3.8zM6.95 5.6C7.36421356 5.6 7.7 5.26421356 7.7 4.85 7.7 4.43578644 7.36421356 4.1 6.95 4.1 6.53578644 4.1 6.2 4.43578644 6.2 4.85 6.2 5.26421356 6.53578644 5.6 6.95 5.6z"/>
        <path fill="#805440" fill-rule="nonzero" d="M2.15507449,5.79890919 L2.20762364,5.67185348 C2.8114717,5.93068932 3.49864019,6.0602888 4.26956962,6.0602888 C5.0401118,6.0602888 5.70879352,5.93082245 6.27604988,5.67246176 L6.33135148,5.79830092 C5.74566421,6.06505609 5.05825856,6.19814767 4.26956962,6.19814767 C3.48126794,6.19814767 2.7762894,6.06518923 2.15507449,5.79890919 Z"/>
        <g transform="translate(2.286 1.372)">
          <mask id="d" fill="white">
            <use xlink:href="#c"/>
          </mask>
          <use fill="#BF9937" xlink:href="#c"/>
          <g mask="url(#d)">
            <rect width="1.828" height="1.95" fill="#D00F3A"/>
            <rect width="1.896" height="1.95" x="2.031" fill="#FEDF00"/>
            <rect width="1.828" height="2.022" x="2.031" y="2.167" fill="#FEDF00"/>
            <rect width="1.828" height="2.022" y="2.167" fill="#FEDF00"/>
            <circle cx="3" cy="3" r="1" fill="#D00F3A"/>
            <path fill="#FEDF00" fill-rule="nonzero" d="M0.491082609,0.871710834 L0.950357251,0.34332095 L0.950357251,1.45671919 C0.940039526,1.46068047 0.872618673,1.46898424 0.865613643,1.48205158 C0.854904056,1.5020295 0.850801089,1.53241035 0.850801089,1.57659373 C0.850801089,1.63120268 0.817387963,1.68202575 0.737228954,1.76330165 C0.758302862,1.72447879 0.779910762,1.67422569 0.807270579,1.60444676 C0.853184585,1.48734691 0.821980165,1.42159405 0.732865051,1.45262638 L0.491082609,0.871710834 Z M0.952794116,0.339228137 L1.42350314,0.871710834 L1.1817207,1.45262638 C1.09260558,1.42159405 1.06140116,1.48734691 1.10731517,1.60444676 C1.13467499,1.67422569 1.15628289,1.72447879 1.1773568,1.76330165 C1.09719779,1.68202575 1.06378466,1.63120268 1.06378466,1.57659373 C1.06378466,1.53241035 1.05968169,1.5020295 1.04897211,1.48205158 C1.04196708,1.46898424 0.963111841,1.45658766 0.952794116,1.45262638 L0.952794116,0.339228137 Z"/>
          </g>
          <rect width="1" height="1" x="2.442" y=".525" fill="#D00F3A" mask="url(#d)"/>
          <rect width="1" height="1" x=".5" y="2.615" fill="#D00F3A" mask="url(#d)"/>
        </g>
      </g>
    </g>
  </g>
</svg>
