<svg width="16" height="12" viewBox="0 0 16 12" fill="none" xmlns="http://www.w3.org/2000/svg">
<g clip-path="url(#clip0_270_54971)">
<rect width="16" height="12" fill="white"/>
<path fill-rule="evenodd" clip-rule="evenodd" d="M0 0H16V12H0V0Z" fill="#F50100"/>
<path fill-rule="evenodd" clip-rule="evenodd" d="M7.94119 7.49086C7.89387 7.4833 7.84757 7.47241 7.80256 7.45841C7.11743 7.99127 6.4575 8.35302 5.81923 8.54037C5.55426 8.61814 5.27642 8.46639 5.19865 8.20143C5.12087 7.93646 5.27262 7.65862 5.53759 7.58085C5.93185 7.46513 6.35197 7.25705 6.79635 6.95512C6.5043 7.00213 6.20171 7.05365 6.0202 7.09246C5.87172 7.12421 5.69343 7.2162 5.52264 7.30433L5.52264 7.30433C5.1899 7.47602 4.88563 7.63302 4.88563 7.30124C4.88563 6.79916 5.17771 6.64902 5.7197 6.42208C6.11841 6.25513 6.37001 6.26025 6.61241 6.26517H6.61242C6.69952 6.26694 6.78543 6.26869 6.87655 6.26242C6.92761 6.2589 6.98239 6.25295 7.03867 6.24535L7.02218 6.15188C6.9717 6.14532 6.92261 6.14016 6.87655 6.13699C6.78543 6.13072 6.69952 6.13247 6.61242 6.13424H6.61241C6.37001 6.13916 6.11841 6.14428 5.7197 5.97733C5.17771 5.75039 4.88563 5.60024 4.88563 5.09817C4.88563 4.76639 5.1899 4.92339 5.52264 5.09508C5.69343 5.18321 5.87172 5.2752 6.0202 5.30695C6.2234 5.35039 6.57833 5.40977 6.90035 5.46092L6.89255 5.41667C6.82593 5.37841 6.76391 5.33451 6.70994 5.28415C6.48519 5.07443 6.30149 5.03948 6.07346 4.99608C5.92137 4.96714 5.74956 4.93444 5.53271 4.84364C4.99072 4.6167 4.66433 4.17326 4.66433 3.67118C4.66433 3.34525 4.94533 3.55668 5.27986 3.80837C5.46064 3.94439 5.65706 4.09218 5.83321 4.17326C6.00686 4.25319 6.18427 4.3175 6.34653 4.37632L6.34654 4.37632C6.51291 4.43662 6.66336 4.49116 6.7775 4.55084C6.77969 4.52877 6.7826 4.50689 6.78623 4.48523C6.72617 4.442 6.67438 4.39079 6.63544 4.33014C6.36964 3.91614 6.01298 3.7668 5.47434 3.54126L5.46835 3.53875C4.92636 3.31181 4.59998 2.86837 4.59998 2.3663C4.59998 2.04036 4.88098 2.25179 5.2155 2.50348C5.39629 2.6395 5.59271 2.78729 5.76885 2.86837C6.27093 3.09949 6.65692 3.29838 6.90222 3.7657C6.94998 3.85668 6.99879 3.92038 7.04645 3.96397C7.10784 3.89901 7.1779 3.84215 7.25486 3.79535C7.15148 3.04761 6.97663 2.67214 6.81126 2.64137C6.53978 2.59086 6.36064 2.32984 6.41115 2.05835C6.46166 1.78687 6.72269 1.60773 6.99417 1.65824C7.66235 1.78256 8.04175 2.40265 8.22021 3.48861C8.39867 2.40265 8.77806 1.78256 9.44624 1.65824C9.71773 1.60773 9.97875 1.78687 10.0293 2.05835C10.0798 2.32984 9.90063 2.59086 9.62915 2.64137C9.46421 2.67206 9.28983 3.04567 9.18635 3.78956C9.2743 3.8274 9.35529 3.87736 9.42748 3.93712C9.46644 3.89539 9.50589 3.83952 9.54464 3.7657C9.78993 3.29838 10.1759 3.09949 10.678 2.86837C10.8541 2.78729 11.0506 2.63951 11.2314 2.50348L11.2314 2.50348C11.5659 2.25179 11.8469 2.04036 11.8469 2.3663C11.8469 2.86837 11.5205 3.31181 10.9785 3.53875L10.9725 3.54126C10.4339 3.7668 10.0772 3.91614 9.81142 4.33014C9.79253 4.35956 9.77063 4.38675 9.74622 4.41189C9.75554 4.44179 9.76348 4.47224 9.76997 4.50314C9.86638 4.46111 9.97912 4.42025 10.1003 4.37632L10.1003 4.37632C10.2626 4.3175 10.44 4.25319 10.6137 4.17326C10.7898 4.09218 10.9862 3.94439 11.167 3.80837C11.5015 3.55668 11.7825 3.34525 11.7825 3.67118C11.7825 4.17326 11.4561 4.6167 10.9142 4.84364C10.6973 4.93444 10.5255 4.96714 10.3734 4.99608C10.1454 5.03948 9.96167 5.07443 9.73692 5.28415C9.72145 5.29859 9.70531 5.3125 9.68859 5.3259L9.6658 5.44183C9.95308 5.39548 10.2483 5.34508 10.4267 5.30695C10.5751 5.2752 10.7534 5.18321 10.9242 5.09508C11.257 4.92339 11.5612 4.76639 11.5612 5.09817C11.5612 5.60024 11.2691 5.75039 10.7272 5.97733C10.3284 6.14428 10.0768 6.13916 9.83445 6.13424H9.83444C9.74734 6.13247 9.66143 6.13072 9.5703 6.13699C9.55661 6.13794 9.54265 6.13905 9.52847 6.14033L9.50555 6.2569C9.52766 6.25911 9.5493 6.26097 9.5703 6.26242C9.66143 6.26869 9.74734 6.26694 9.83444 6.26517H9.83445C10.0768 6.26025 10.3284 6.25513 10.7272 6.42208C11.2691 6.64902 11.5612 6.79916 11.5612 7.30124C11.5612 7.63302 11.257 7.47602 10.9242 7.30433L10.9242 7.30433L10.9242 7.30432C10.7534 7.2162 10.5751 7.12421 10.4267 7.09246C10.2537 7.05548 9.97072 7.00695 9.69172 6.96177C10.1325 7.26011 10.5493 7.46598 10.9407 7.58085C11.2056 7.65862 11.3574 7.93646 11.2796 8.20143C11.2018 8.46639 10.924 8.61814 10.659 8.54037C10.0257 8.35448 9.37109 7.99688 8.69167 7.4708C8.66379 7.47811 8.63547 7.48424 8.60677 7.48914C8.72885 8.03356 9.68436 8.48274 9.68436 8.48274C9.68436 8.48274 8.46387 10.8313 8.27023 10.8313C8.0766 10.8313 6.77846 8.48274 6.77846 8.48274C7.45809 8.23021 7.81173 7.71899 7.94119 7.49086Z" fill="#1A1A1A"/>
</g>
<defs>
<clipPath id="clip0_270_54971">
<rect width="16" height="12" fill="white"/>
</clipPath>
</defs>
</svg>
