<svg xmlns="http://www.w3.org/2000/svg" xmlns:xlink="http://www.w3.org/1999/xlink" width="16" height="12" viewBox="0 0 16 12">
  <defs>
    <rect id="a" width="16" height="12"/>
    <rect id="c" width="16" height="12"/>
  </defs>
  <g fill="none" fill-rule="evenodd">
    <mask id="b" fill="white">
      <use xlink:href="#a"/>
    </mask>
    <g mask="url(#b)">
      <mask id="d" fill="white">
        <use xlink:href="#c"/>
      </mask>
      <use fill="#E31D1C" xlink:href="#c"/>
      <rect width="16" height="4" y="4" fill="#272727" mask="url(#d)"/>
      <g fill="#F7FCFF" mask="url(#d)">
        <path d="M2.00421321 3.01292019L.806128371 1.81483535 1.60804353 1.01292019 2.80612837 2.21100503 4.00421321 1.01292019 4.80612837 1.81483535 3.60804353 3.01292019 4.80612837 4.21100503 4.00421321 5.01292019 2.80612837 3.81483535 1.60804353 5.01292019.806128371 4.21100503 2.00421321 3.01292019zM6.08808484 2.94818275L4.89 1.75009791 5.69191516.948182753 6.89 2.14626759 8.08808484.948182753 8.89 1.75009791 7.69191516 2.94818275 8.89 4.14626759 8.08808484 4.94818275 6.89 3.75009791 5.69191516 4.94818275 4.89 4.14626759 6.08808484 2.94818275zM10.1366796 2.96199454L8.93859475 1.7639097 9.74050991.961994539 10.9385947 2.16007938 12.1366796.961994539 12.9385947 1.7639097 11.7405099 2.96199454 12.9385947 4.16007938 12.1366796 4.96199454 10.9385947 3.7639097 9.74050991 4.96199454 8.93859475 4.16007938 10.1366796 2.96199454z" transform="translate(1 3)"/>
      </g>
    </g>
  </g>
</svg>
