<svg xmlns="http://www.w3.org/2000/svg" xmlns:xlink="http://www.w3.org/1999/xlink" width="16" height="12" viewBox="0 0 16 12">
  <defs>
    <rect id="a" width="16" height="12"/>
    <rect id="c" width="16" height="12"/>
  </defs>
  <g fill="none" fill-rule="evenodd">
    <mask id="b" fill="white">
      <use xlink:href="#a"/>
    </mask>
    <g mask="url(#b)">
      <mask id="d" fill="white">
        <use xlink:href="#c"/>
      </mask>
      <use fill="#AF0100" xlink:href="#c"/>
      <rect width="16" height="4" fill="#3CA5D9" mask="url(#d)"/>
      <rect width="16" height="4" y="8" fill="#73BE4A" mask="url(#d)"/>
      <g fill="#F7FCFF" mask="url(#d)">
        <path d="M1.38734713,2.99160657 C1.380357,3.76857166 1.90739319,4.29804649 2.58088072,4.45333732 C3.25436825,4.60862816 3.96484144,4.23694824 3.96484144,4.23694824 C3.87804938,4.47796139 3.45970201,5.04474496 2.57904864,5.04705432 C1.48051761,5.04993503 0.232304597,4.30433038 0.244104017,2.99280458 C0.255485282,1.72775754 1.41315795,0.899344053 2.49828999,0.896498482 C3.0812456,0.894969782 3.79195407,1.21329309 3.99611081,1.6672485 C3.99611081,1.6672485 3.34451602,1.31466035 2.60377498,1.48185724 C1.86303394,1.64905412 1.39389046,2.26430461 1.38734713,2.99160657 Z M3.59667407,3.30133962 L3.00888881,3.71035662 L3.21625146,3.02494642 L2.64561755,2.59232263 L3.36155996,2.57773282 L3.59667407,1.90133962 L3.83178817,2.57773282 L4.54773058,2.59232263 L3.97709667,3.02494642 L4.18445932,3.71035662 L3.59667407,3.30133962 Z" transform="translate(6 3)"/>
      </g>
    </g>
  </g>
</svg>
