<svg xmlns="http://www.w3.org/2000/svg" xmlns:xlink="http://www.w3.org/1999/xlink" width="17" height="12" viewBox="0 0 17 12">
  <defs>
    <rect id="a" width="17" height="12"/>
  </defs>
  <g fill="none" fill-rule="evenodd">
    <mask id="b" fill="white">
      <use xlink:href="#a"/>
    </mask>
    <g mask="url(#b)">
      <g transform="translate(0 -1)">
        <polygon fill="#2E42A5" points="0 1 17 1 17 13 0 13"/>
        <polygon fill="#FECA00" points="5 1 15 1 15 13"/>
        <g transform="translate(2)">
          <polygon fill="#F7FCFF" points="1.554 2.397 .966 2.706 1.078 2.051 .603 1.588 1.26 1.492 1.554 .897 1.848 1.492 2.505 1.588 2.03 2.051 2.142 2.706"/>
          <polygon fill="#F7FCFF" points="3.297 4.537 2.71 4.846 2.822 4.191 2.346 3.728 3.003 3.632 3.297 3.037 3.591 3.632 4.248 3.728 3.773 4.191 3.885 4.846"/>
          <polygon fill="#F7FCFF" points="4.932 6.619 4.344 6.928 4.456 6.274 3.981 5.81 4.638 5.715 4.932 5.119 5.226 5.715 5.883 5.81 5.407 6.274 5.519 6.928"/>
          <polygon fill="#F7FCFF" points="6.533 8.615 5.945 8.924 6.057 8.269 5.582 7.806 6.239 7.71 6.533 7.115 6.827 7.71 7.484 7.806 7.008 8.269 7.12 8.924"/>
          <polygon fill="#F7FCFF" points="8.257 10.668 7.669 10.977 7.782 10.323 7.306 9.859 7.963 9.764 8.257 9.168 8.551 9.764 9.208 9.859 8.733 10.323 8.845 10.977"/>
          <polygon fill="#F7FCFF" points="10.163 12.656 9.576 12.965 9.688 12.31 9.212 11.847 9.87 11.751 10.163 11.156 10.457 11.751 11.114 11.847 10.639 12.31 10.751 12.965"/>
        </g>
      </g>
    </g>
  </g>
</svg>
