<svg xmlns="http://www.w3.org/2000/svg" xmlns:xlink="http://www.w3.org/1999/xlink" width="16" height="12" viewBox="0 0 16 12">
  <defs>
    <rect id="a" width="16" height="12"/>
  </defs>
  <g fill="none" fill-rule="evenodd">
    <mask id="b" fill="white">
      <use xlink:href="#a"/>
    </mask>
    <g mask="url(#b)">
      <polygon fill="#2E42A5" points="11 0 16 0 16 12 11 12"/>
      <polygon fill="#FECA00" points="5 0 11 0 11 12 5 12"/>
      <polygon fill="#2E42A5" points="0 0 5 0 5 12 0 12"/>
      <path fill="#000000" d="M9.21713751,7.63652752 C9.53353662,6.98201801 9.89852813,5.78767391 9.89852813,5.78767391 L10.1754537,4.96536883 L9.07789737,5.36280815 L9.33763512,5.51365746 C9.33763512,5.51365746 8.88495579,6.41855172 8.65695997,6.8606012 C8.42896415,7.30265069 8.406392,7.01060412 8.406392,7.01060412 L8.44540455,3.92625315 L8.69731233,3.85795169 L8.06950787,2.65199645 L7.2685449,3.8746661 L7.62147406,3.88418311 C7.62147406,3.88418311 7.59213715,7.13849082 7.54308,7.01060412 C7.51570421,6.9379666 7.44285993,7.16246572 7.40736543,7.07551076 C7.18485619,6.53040434 6.88053454,5.47393715 6.88053454,5.47393715 L7.05860071,5.30734988 L5.86446445,5.06166902 L6.22097349,5.79580181 C6.22097349,5.79580181 6.53535584,7.10399403 6.88053454,7.742888 C6.95826254,7.945024 7.33383854,8.031248 7.33383854,8.031248 C7.33383854,8.031248 7.51721185,7.84511131 7.56264,8.031248 C7.60806815,8.21738469 7.56264,8.968736 7.56264,8.968736 L8.406392,8.968736 C8.406392,8.968736 8.34698378,8.25992584 8.406392,8.031248 C8.46580022,7.80257016 8.64994203,8.031248 8.64994203,8.031248 C8.64994203,8.031248 9.13953751,7.83866352 9.21713751,7.63652752 Z"/>
    </g>
  </g>
</svg>
