<svg xmlns="http://www.w3.org/2000/svg" xmlns:xlink="http://www.w3.org/1999/xlink" width="16" height="12" viewBox="0 0 16 12">
  <defs>
    <rect id="a" width="16" height="12"/>
  </defs>
  <g fill="none" fill-rule="evenodd">
    <mask id="b" fill="white">
      <use xlink:href="#a"/>
    </mask>
    <g mask="url(#b)">
      <polygon fill="#F7FCFF" points="4 0 12.5 0 12.5 12 4 12"/>
      <path fill="#E31D1C" d="M7.98651526,3 L8,10 L7.65742433,10 L7.86761174,8.2676972 C6.33039525,8.55005631 5.62532847,8.62002414 5.75241142,8.47760072 C5.87949436,8.3351773 5.97963521,8.1333244 6.05283396,7.87204203 L4,6.47392912 C4.21587863,6.47116496 4.4116308,6.41646911 4.58725653,6.30984158 C4.76288225,6.20321405 4.67506939,5.83371476 4.32381794,5.2013437 L5.3602661,5.35527295 L5.75241142,4.92022847 L6.53439456,5.7556963 L6.8859024,5.7556963 L6.53439456,3.84199816 L7.16446787,4.20127005 L7.98651526,3 Z M8,3 L8.83553213,4.20127005 L9.46560544,3.84199816 L9.1140976,5.7556963 L9.46560544,5.7556963 L10.2475886,4.92022847 L10.6397339,5.35527295 L11.6761821,5.2013437 C11.3249306,5.83371476 11.2371178,6.20321405 11.4127435,6.30984158 C11.5883692,6.41646911 11.7841214,6.47116496 12,6.47392912 L9.94716604,7.87204203 C10.0203648,8.1333244 10.1205056,8.3351773 10.2475886,8.47760072 C10.3746715,8.62002414 9.66960475,8.55005631 8.13238826,8.2676972 L8.34257567,10 L8,10 L8,3 Z"/>
      <polygon fill="#E31D1C" points="12 0 16 0 16 12 12 12"/>
      <polygon fill="#E31D1C" points="0 0 4 0 4 12 0 12"/>
    </g>
  </g>
</svg>
