<svg xmlns="http://www.w3.org/2000/svg" xmlns:xlink="http://www.w3.org/1999/xlink" width="16" height="12" viewBox="0 0 16 12">
  <defs>
    <rect id="a" width="16" height="12"/>
  </defs>
  <g fill="none" fill-rule="evenodd">
    <mask id="b" fill="white">
      <use xlink:href="#a"/>
    </mask>
    <g mask="url(#b)">
      <polygon fill="#5EAA22" points="0 0 16 0 16 12 0 12"/>
      <g fill="#FECA00" transform="translate(10 2)">
        <polygon points="2 1.5 1.5 1.866 1.567 1.25 1 1 1.567 .75 1.5 .134 2 .5 2.5 .134 2.433 .75 3 1 2.433 1.25 2.5 1.866"/>
        <polygon points="1.481 4.839 .981 5.205 1.048 4.589 .481 4.339 1.048 4.089 .981 3.473 1.481 3.839 1.981 3.473 1.914 4.089 2.481 4.339 1.914 4.589 1.981 5.205"/>
        <polygon points="3 7.5 2.5 7.866 2.567 7.25 2 7 2.567 6.75 2.5 6.134 3 6.5 3.5 6.134 3.433 6.75 4 7 3.433 7.25 3.5 7.866"/>
        <polygon points="3.5 2.75 3.25 2.933 3.283 2.625 3 2.5 3.283 2.375 3.25 2.067 3.5 2.25 3.75 2.067 3.717 2.375 4 2.5 3.717 2.625 3.75 2.933"/>
      </g>
      <g transform="translate(1 2)">
        <circle cx="2.5" cy="2.5" r="2.5" fill="#FECA00"/>
        <path fill="#915E2B" fill-rule="nonzero" d="M2.24473202,3.99372809 L2.06532244,3.86733377 C2.46218989,3.34740329 2.35725013,2.62080758 2.24473202,2.14330457 L2.9747388,1.97128683 C3.14232681,2.68249481 2.7702713,3.30522646 2.24473202,3.99372809 Z"/>
      </g>
      <path fill="#FECA00" d="M4.12635436,1.54129747 C3.89475149,1.31161967 3.53627175,1.15406998 3,1.17403892 C2.17157288,1.17403892 1.6326716,1.8194286 1.6326716,2.37171335 C1.6326716,2.9239981 2.17157288,3.67474202 3,3.67474202 C3.41666978,3.66850511 3.72445602,3.59231635 3.94886622,3.4724847 C3.61978131,4.03725031 3.09680714,4.29358807 2.39679404,4.29358807 C1.34922362,4.29358807 0.5,3.44436445 0.5,2.39679404 C0.5,1.34922362 1.34922362,0.5 2.39679404,0.5 C3.19605873,0.5 3.83378399,0.779642225 4.12635436,1.54129747 Z" transform="translate(6 4)"/>
      <path fill="#5EAA22" d="M3.5,4.36976489 C4.32842712,4.36976489 4.85650328,4.14590727 4.85650328,3.86976489 C4.85650328,3.59362252 4.32842712,3.36976489 3.5,3.36976489 C2.67157288,3.36976489 2.24217941,3.59362252 2.24217941,3.86976489 C2.24217941,4.14590727 2.67157288,4.36976489 3.5,4.36976489 Z"/>
    </g>
  </g>
</svg>
