<svg width="16" height="12" viewBox="0 0 16 12" fill="none" xmlns="http://www.w3.org/2000/svg">
<g clip-path="url(#clip0_270_55098)">
<rect width="16" height="12" fill="white"/>
<path fill-rule="evenodd" clip-rule="evenodd" d="M0 0V12H16V0H0Z" fill="#F7FCFF"/>
<mask id="mask0_270_55098" style="mask-type:luminance" maskUnits="userSpaceOnUse" x="0" y="0" width="16" height="12">
<path fill-rule="evenodd" clip-rule="evenodd" d="M0 0V12H16V0H0Z" fill="white"/>
</mask>
<g mask="url(#mask0_270_55098)">
<path fill-rule="evenodd" clip-rule="evenodd" d="M12.2837 2.3796C12.2837 2.3796 9.6426 3.83862 9.31012 3.93094C8.97771 4.02322 9.19949 4.07868 8.62683 4.04178C8.05436 4.00483 6.92778 4.24775 6.66925 4.08154C6.41065 3.91521 6.3183 3.61977 6.29996 4.11852C6.28143 4.61705 6.68792 5.04183 6.17061 5.07882C5.65368 5.11569 5.59814 4.6354 5.24739 4.93107C4.89644 5.22644 4.60091 5.89138 4.37919 5.72516C4.15761 5.55883 3.84374 5.11569 3.93609 5.54047C4.02825 5.96518 4.30532 7.03498 5.19184 7.0535C6.07844 7.07204 6.26296 6.75802 6.29996 7.01662C6.33677 7.27509 6.72472 7.31199 6.81696 6.97957C6.90944 6.64714 7.66661 7.35031 8.0729 6.99941C8.47912 6.64858 8.81153 6.35303 8.94096 6.14987C9.07013 5.94671 9.51343 5.98374 9.93819 5.98374C10.363 5.98374 10.9907 6.16834 10.6583 5.76214C10.3261 5.35567 9.75342 5.1711 10.086 4.76478C10.4182 4.35851 13.2395 3.00755 13.3689 2.85977C13.498 2.71203 12.6714 2.15801 12.2837 2.3796Z" fill="#F57A01"/>
<path fill-rule="evenodd" clip-rule="evenodd" d="M12.2837 2.3796C12.2837 2.3796 9.6426 3.83862 9.31012 3.93094C8.97771 4.02322 9.19949 4.07868 8.62683 4.04178C8.05436 4.00483 6.92778 4.24775 6.66925 4.08154C6.41065 3.91521 6.3183 3.61977 6.29996 4.11852C6.28143 4.61705 6.68792 5.04183 6.17061 5.07882C5.65368 5.11569 5.59814 4.6354 5.24739 4.93107C4.89644 5.22644 4.60091 5.89138 4.37919 5.72516C4.15761 5.55883 3.84374 5.11569 3.93609 5.54047C4.02825 5.96518 4.30532 7.03498 5.19184 7.0535C6.07844 7.07204 6.26296 6.75802 6.29996 7.01662C6.33677 7.27509 6.72472 7.31199 6.81696 6.97957C6.90944 6.64714 7.66661 7.35031 8.0729 6.99941C8.47912 6.64858 8.81153 6.35303 8.94096 6.14987C9.07013 5.94671 9.51343 5.98374 9.93819 5.98374C10.363 5.98374 10.9907 6.16834 10.6583 5.76214C10.3261 5.35567 9.75342 5.1711 10.086 4.76478C10.4182 4.35851 13.2395 3.00755 13.3689 2.85977C13.498 2.71203 12.6714 2.15801 12.2837 2.3796Z" fill="url(#paint0_linear_270_55098)"/>
<path fill-rule="evenodd" clip-rule="evenodd" d="M5.45606 8.05206C6.76716 8.05206 7.89381 9.51111 7.89381 9.51111C7.91276 9.53006 7.93027 9.54848 7.94641 9.56638C7.96255 9.54848 7.98005 9.53006 7.999 9.51111C7.999 9.51111 9.31311 8.05206 10.6243 8.05206C11.9355 8.05206 9.67951 10.176 8.22058 10.176C8.22058 10.176 8.07063 10.1623 7.94641 10.0999C7.82219 10.1623 7.67223 10.176 7.67223 10.176C6.21323 10.176 4.1447 8.05206 5.45606 8.05206Z" fill="#006B49"/>
<path fill-rule="evenodd" clip-rule="evenodd" d="M5.45606 8.05206C6.76716 8.05206 7.89381 9.51111 7.89381 9.51111C7.91276 9.53006 7.93027 9.54848 7.94641 9.56638C7.96255 9.54848 7.98005 9.53006 7.999 9.51111C7.999 9.51111 9.31311 8.05206 10.6243 8.05206C11.9355 8.05206 9.67951 10.176 8.22058 10.176C8.22058 10.176 8.07063 10.1623 7.94641 10.0999C7.82219 10.1623 7.67223 10.176 7.67223 10.176C6.21323 10.176 4.1447 8.05206 5.45606 8.05206Z" fill="url(#paint1_linear_270_55098)"/>
</g>
</g>
<defs>
<linearGradient id="paint0_linear_270_55098" x1="15" y1="9" x2="15" y2="1" gradientUnits="userSpaceOnUse">
<stop stop-color="#EA5113"/>
<stop offset="1" stop-color="#FC9B58"/>
</linearGradient>
<linearGradient id="paint1_linear_270_55098" x1="11.0188" y1="10.176" x2="11.0188" y2="8.05206" gradientUnits="userSpaceOnUse">
<stop stop-color="#008057"/>
<stop offset="1" stop-color="#00B77C"/>
</linearGradient>
<clipPath id="clip0_270_55098">
<rect width="16" height="12" fill="white"/>
</clipPath>
</defs>
</svg>
