<svg xmlns="http://www.w3.org/2000/svg" xmlns:xlink="http://www.w3.org/1999/xlink" width="16" height="12" viewBox="0 0 16 12">
  <defs>
    <rect id="do---dominican-republic-a" width="16" height="12" x="0" y="0"/>
    <rect id="do---dominican-republic-c" width="16" height="12" x="0" y="0"/>
  </defs>
  <g fill="none" fill-rule="evenodd">
    <mask id="do---dominican-republic-b" fill="#fff">
      <use xlink:href="#do---dominican-republic-a"/>
    </mask>
    <g mask="url(#do---dominican-republic-b)">
      <mask id="do---dominican-republic-d" fill="#fff">
        <use xlink:href="#do---dominican-republic-c"/>
      </mask>
      <use fill="#C51918" xlink:href="#do---dominican-republic-c"/>
      <g fill="#F7FCFF" mask="url(#do---dominican-republic-d)">
        <polygon points="7 0 9 0 9 5 16 5 16 7 9 7 9 12 7 12 7 7 0 7 0 5 7 5"/>
      </g>
      <rect width="7" height="5" fill="#4257BF" mask="url(#do---dominican-republic-d)"/>
      <rect width="7" height="5" x="9" y="7" fill="#4257BF" mask="url(#do---dominican-republic-d)"/>
      <g mask="url(#do---dominican-republic-d)">
        <g transform="translate(6 3.7)">
          <path fill="#309404" fill-rule="nonzero" d="M0.818456655,1.85536183 L1.31618205,1.90300039 C1.23099229,2.79305881 1.341699,3.16809106 1.52159401,3.16809106 L1.52159401,3.66809106 C0.89939883,3.66809106 0.707255764,3.01718335 0.818456655,1.85536183 Z"/>
          <path fill="#309404" fill-rule="nonzero" d="M2.27300211,1.85536183 L2.7707275,1.90300039 C2.68553775,2.79305881 2.79624445,3.16809106 2.97613946,3.16809106 L2.97613946,3.66809106 C2.35394428,3.66809106 2.16180122,3.01718335 2.27300211,1.85536183 Z" transform="matrix(-1 0 0 1 5.486 0)"/>
          <rect width="1" height="1" x="1.364" y="1.646" fill="#003994"/>
          <path fill="#003994" d="M2.09090909,2.52307692 L2.56363636,2.52307692 L2.56363636,2.8979021 C2.56363636,3.09873292 2.40083082,3.26153846 2.2,3.26153846 L2.09090909,3.26153846 L2.09090909,2.52307692 Z"/>
          <rect width="1" height="1" x="2.055" y="1.6" fill="#DE2110"/>
          <path fill="#DE2110" d="M1.36363636,2.52307692 L1.83636364,2.52307692 L1.83636364,3.26153846 L1.72727273,3.26153846 C1.52644191,3.26153846 1.36363636,3.09873292 1.36363636,2.8979021 L1.36363636,2.52307692 Z"/>
          <path fill="#00319C" fill-rule="nonzero" d="M1.16721864,1.60468177 L0.832781356,1.23299413 C1.18595503,0.91521535 1.55403089,0.75 1.93311027,0.75 C2.31218965,0.75 2.68026551,0.91521535 3.03343918,1.23299413 L2.69900189,1.60468177 C2.43152352,1.36400995 2.17752587,1.25 1.93311027,1.25 C1.68869466,1.25 1.43469701,1.36400995 1.16721864,1.60468177 Z"/>
          <path fill="#DE2110" fill-rule="nonzero" d="M1.20358228,4.09698946 L0.869144992,3.72530182 C1.22231866,3.40752304 1.59039452,3.24230769 1.9694739,3.24230769 C2.34855328,3.24230769 2.71662914,3.40752304 3.06980282,3.72530182 L2.73536553,4.09698946 C2.46788716,3.85631764 2.21388951,3.74230769 1.9694739,3.74230769 C1.7250583,3.74230769 1.47106065,3.85631764 1.20358228,4.09698946 Z"/>
        </g>
      </g>
    </g>
  </g>
</svg>
