<svg xmlns="http://www.w3.org/2000/svg" xmlns:xlink="http://www.w3.org/1999/xlink" width="16" height="12" viewBox="0 0 16 12">
  <defs>
    <rect id="a" width="16" height="12"/>
    <rect id="c" width="16" height="12"/>
  </defs>
  <g fill="none" fill-rule="evenodd">
    <mask id="b" fill="white">
      <use xlink:href="#a"/>
    </mask>
    <g mask="url(#b)">
      <mask id="d" fill="white">
        <use xlink:href="#c"/>
      </mask>
      <use fill="#C51918" xlink:href="#c"/>
      <g fill="#F7FCFF" mask="url(#d)">
        <polygon points="7 0 9 0 9 5 16 5 16 7 9 7 9 12 7 12 7 7 0 7 0 5 7 5"/>
      </g>
      <rect width="7" height="5" fill="#4257BF" mask="url(#d)"/>
      <rect width="7" height="5" x="9" y="7" fill="#4257BF" mask="url(#d)"/>
      <g mask="url(#d)">
        <g transform="translate(6 4.7)">
          <path fill="#309404" fill-rule="nonzero" d="M0.818456655,0.855361831 L1.31618205,0.903000394 C1.23099229,1.79305881 1.341699,2.16809106 1.52159401,2.16809106 L1.52159401,2.66809106 C0.89939883,2.66809106 0.707255764,2.01718335 0.818456655,0.855361831 Z"/>
          <path fill="#309404" fill-rule="nonzero" d="M2.27300211,0.855361831 L2.7707275,0.903000394 C2.68553775,1.79305881 2.79624445,2.16809106 2.97613946,2.16809106 L2.97613946,2.66809106 C2.35394428,2.66809106 2.16180122,2.01718335 2.27300211,0.855361831 Z" transform="matrix(-1 0 0 1 5.486 0)"/>
          <rect width="1" height="1" x="1.364" y=".646" fill="#003994"/>
          <path fill="#003994" d="M2.09090909,1.52307692 L2.56363636,1.52307692 L2.56363636,1.8979021 C2.56363636,2.09873292 2.40083082,2.26153846 2.2,2.26153846 L2.09090909,2.26153846 L2.09090909,1.52307692 Z"/>
          <rect width="1" height="1" x="2.055" y=".6" fill="#DE2110"/>
          <path fill="#DE2110" d="M1.36363636,1.52307692 L1.83636364,1.52307692 L1.83636364,2.26153846 L1.72727273,2.26153846 C1.52644191,2.26153846 1.36363636,2.09873292 1.36363636,1.8979021 L1.36363636,1.52307692 Z"/>
          <path fill="#00319C" fill-rule="nonzero" d="M1.16721864,0.604681769 L0.832781356,0.232994131 C1.18595503,-0.0847846504 1.55403089,-0.25 1.93311027,-0.25 C2.31218965,-0.25 2.68026551,-0.0847846504 3.03343918,0.232994131 L2.69900189,0.604681769 C2.43152352,0.364009951 2.17752587,0.25 1.93311027,0.25 C1.68869466,0.25 1.43469701,0.364009951 1.16721864,0.604681769 Z"/>
          <path fill="#DE2110" fill-rule="nonzero" d="M1.20358228,3.09698946 L0.869144992,2.72530182 C1.22231866,2.40752304 1.59039452,2.24230769 1.9694739,2.24230769 C2.34855328,2.24230769 2.71662914,2.40752304 3.06980282,2.72530182 L2.73536553,3.09698946 C2.46788716,2.85631764 2.21388951,2.74230769 1.9694739,2.74230769 C1.7250583,2.74230769 1.47106065,2.85631764 1.20358228,3.09698946 Z"/>
        </g>
      </g>
    </g>
  </g>
</svg>
