<svg width="16" height="12" viewBox="0 0 16 12" fill="none" xmlns="http://www.w3.org/2000/svg">
<mask id="mask0" mask-type="alpha" maskUnits="userSpaceOnUse" x="0" y="0" width="16" height="12">
<rect width="16" height="12" fill="white"/>
</mask>
<g mask="url(#mask0)">
<path fill-rule="evenodd" clip-rule="evenodd" d="M8 0H16V12H8V0Z" fill="#F7FCFF"/>
<path fill-rule="evenodd" clip-rule="evenodd" d="M0 0H8V12H0V0Z" fill="#36A400"/>
<path fill-rule="evenodd" clip-rule="evenodd" d="M7.99998 7.999C6.76988 7.76779 6.49392 6.69937 6.49392 5.90439C6.49392 5.10942 6.95034 4.1349 7.99998 3.95084C9.04963 3.76678 10.5021 4.50315 10.5021 4.50315C10.5021 4.50315 9.16302 3.00891 7.76133 3.00891C6.35964 3.00891 5.02057 4.06068 5.02057 5.90439C5.02057 7.74811 5.98115 8.95924 7.76133 8.95924C9.54151 8.95924 10.4205 7.0803 10.4205 7.0803C10.4205 7.0803 9.23009 8.23021 7.99998 7.999ZM8.4678 5.27842L7.56876 5.27191L8.44439 5.89589L8.13802 6.90334L9.04963 6.35298L10.0805 6.92901L9.53679 5.90439L10.368 5.27191L9.51672 5.27092L9.01454 4.38562L8.4678 5.27842Z" fill="#FF0000"/>
</g>
</svg>
