<svg xmlns="http://www.w3.org/2000/svg" xmlns:xlink="http://www.w3.org/1999/xlink" width="16" height="12" viewBox="0 0 16 12">
  <defs>
    <rect id="a" width="16" height="12"/>
  </defs>
  <g fill="none" fill-rule="evenodd">
    <mask id="b" fill="white">
      <use xlink:href="#a"/>
    </mask>
    <g mask="url(#b)">
      <polygon fill="#F7FCFF" points="0 0 16 0 16 12 0 12"/>
      <rect width="16" height="4" fill="#272727"/>
      <rect width="16" height="4" y="8" fill="#5EAA22"/>
      <polygon fill="#E31D1C" points="0 0 8 6 0 12"/>
      <path fill="#E31D1C" d="M2.72904579,3.31699754 C3.19105924,4.35469673 4.50968776,4.52004216 4.50968776,4.52004216 C4.08960685,4.86890479 2.36940061,5.30462515 1.7054019,3.81325963 C1.04140319,2.32189411 2.46654635,1.1827605 3.06301921,1.27077141 C3.06301921,1.27077141 2.26703234,2.27929835 2.72904579,3.31699754 Z M3.64647339,1.94611457 L4.50348872,2.24345762 L4.95459753,1.80131299 L5.02208211,2.44189474 L5.7927906,2.72731015 L5.01306367,2.88661759 L5.19927022,3.67222273 L4.53852464,3.0281741 L3.71561635,3.11423291 L4.1773727,2.57649599 L3.64647339,1.94611457 Z" transform="rotate(24 .106 21.03)"/>
    </g>
  </g>
</svg>
