<svg xmlns="http://www.w3.org/2000/svg" xmlns:xlink="http://www.w3.org/1999/xlink" width="16" height="12" viewBox="0 0 16 12">
  <defs>
    <rect id="a" width="16" height="12"/>
    <rect id="c" width="16" height="12"/>
    <path id="e" d="M0.0189731391,0.0163454555 C0.0189731391,2.95973585 -0.16141667,4.98199424 1.97511315,4.98199424 C4.11164296,4.98199424 4.11164296,2.49916985 3.97001865,0.0163454555 L0.0189731391,0.0163454555 Z"/>
    <rect id="g" width="9" height="7"/>
  </defs>
  <g fill="none" fill-rule="evenodd">
    <mask id="b" fill="white">
      <use xlink:href="#a"/>
    </mask>
    <g mask="url(#b)">
      <mask id="d" fill="white">
        <use xlink:href="#c"/>
      </mask>
      <use fill="#2E42A5" xlink:href="#c"/>
      <g mask="url(#d)">
        <g transform="translate(11 5)">
          <mask id="f" fill="white">
            <use xlink:href="#e"/>
          </mask>
          <path stroke="#F7FCFF" stroke-width=".25" d="M0.143881894,0.141345455 C0.143682543,0.273935996 0.143139644,0.413866961 0.142089349,0.639928234 C0.133557036,2.47638905 0.168080538,3.12553766 0.367300518,3.74833192 C0.609346026,4.50500579 1.08839286,4.85699424 1.97511315,4.85699424 C2.90825489,4.85699424 3.44663622,4.36677193 3.70612929,3.39789033 C3.9106858,2.63412802 3.93689525,1.69847033 3.85180651,0.141345455 L0.143881894,0.141345455 Z"/>
          <g mask="url(#f)">
            <g transform="translate(-1)">
              <path fill="#E1E5E8" d="M2.26094258,1.79349174 C2.12938219,1.69619386 2.03539588,1.5687261 1.97898364,1.41108845 C1.89436528,1.17463198 1.7269306,0.545165619 1.7269306,0.490506273 C1.7269306,0.435846927 1.50413165,0.490506273 1.50413165,0.490506273 C1.50413165,0.490506273 1.50723727,0.224315966 1.59131885,0.224315966 C1.67540043,0.224315966 1.67854439,-0.0224996179 1.88253712,0.0396550586 C2.08652985,0.101809735 2.24694816,0.329745571 2.45483249,0.329745571 C2.66271682,0.329745571 3.53171321,0.396036821 3.67138909,0.396036821 C3.81106497,0.396036821 4.17929093,0.690868201 4.17929093,0.911554567 C4.17929093,1.13224093 4.07887612,1.46104554 3.99989388,1.46104554 C3.92091164,1.46104554 3.82153204,1.65235325 3.67138909,1.58920862 C3.52124615,1.52606399 3.16279712,1.39602708 2.84171129,1.46104554 C2.52062547,1.52606399 2.45483249,1.48519323 2.45483249,1.58920862 C2.45483249,1.65855221 2.39020252,1.72664659 2.26094258,1.79349174 Z"/>
              <polygon fill="#49801E" points="1.8 1.639 4.378 1.639 3.934 2.213 2.112 2.213"/>
              <path stroke="#FFFFFF" stroke-width=".533" d="M1.76646006 4.14780905C2.0634627 4.25404361 2.2740309 4.30070448 2.39816465 4.28779166 2.6043613 4.26634236 2.78691262 4.03129107 2.92472048 4.03129107 3.06227726 4.03129107 3.32712849 4.26642045 3.5328251 4.28779166 3.65713413 4.30070696 3.84051939 4.25404609 4.08298089 4.14780905M1.2771919 3.46811952C1.37989437 3.38115472 1.54298376 3.33449385 1.76646006 3.32813692 2.0634627 3.43437148 2.2740309 3.48103235 2.39816465 3.46811952 2.6043613 3.44667023 2.78691262 3.21161894 2.92472048 3.21161894 3.06227726 3.21161894 3.32712849 3.44674832 3.5328251 3.46811952 3.65713413 3.48103483 3.84051939 3.43437396 4.08298089 3.32813692 4.21847609 3.1757822 4.37130213 3.18004296 4.54145902 3.34091918"/>
              <path fill="#FFFFFF" fill-rule="nonzero" d="M1.23038065,2.7648753 L0.893204845,2.35164786 C1.0254115,2.24377292 1.24740275,2.13745886 1.5714567,2.01994834 L1.72873642,2.01236631 C2.06470484,2.09870404 2.28931895,2.13612113 2.37156758,2.12787663 C2.39871056,2.12515585 2.44406486,2.10311229 2.52691543,2.04815751 C2.76219496,1.89209662 2.78503114,1.8793785 2.92472048,1.8793785 C3.05238743,1.8793785 3.07872083,1.89162197 3.34557819,2.03574076 C3.39512735,2.06229408 3.41372966,2.07195397 3.44053824,2.0848236 C3.49687766,2.11186971 3.53724405,2.12565623 3.55939008,2.12787341 C3.62350545,2.13429243 3.75249385,2.10437035 3.93302956,2.03172356 C4.16780364,1.8183302 4.46521546,1.84043571 4.72105084,2.07351708 C4.89171921,2.2290062 5.02870815,2.35461852 5.13212088,2.45045189 L4.76960532,2.84163844 C4.66745974,2.74697935 4.53151262,2.62232232 4.3618672,2.46776518 C4.29441542,2.40631256 4.30891999,2.40670223 4.27894395,2.43918185 L4.18670611,2.50399075 C3.90658405,2.62226362 3.68541693,2.67649037 3.50626011,2.65855378 C3.41008296,2.64892484 3.31707965,2.61716099 3.20972626,2.56562531 C3.17377709,2.54836767 3.14811753,2.53504306 3.09214391,2.50501201 C2.96335412,2.4354579 2.91443164,2.41271183 2.92472048,2.41271183 C2.94716202,2.41271183 2.91603301,2.43004848 2.82171879,2.49260709 C2.66998663,2.59325101 2.56444124,2.64454925 2.42476171,2.65855057 C2.27034804,2.67402881 2.02951242,2.63678954 1.677303,2.549455 C1.44850426,2.63597227 1.29651206,2.71091492 1.23038065,2.7648753 Z"/>
            </g>
          </g>
        </g>
      </g>
      <g stroke-width=".5" mask="url(#d)">
        <g transform="translate(11 8.4)">
          <path stroke="#B85F3C" d="M0.481631909,0.79685881 C0.809614532,1.11101323 0.874581899,1.37452024 0.67653401,1.58737986 C0.47848612,1.80023947 0.288664174,1.84485099 0.107068172,1.7212144"/>
          <path stroke="#B85F3C" d="M3.59274302,0.79685881 C3.92072564,1.11101323 3.98569301,1.37452024 3.78764512,1.58737986 C3.58959723,1.80023947 3.39977529,1.84485099 3.21817928,1.7212144" transform="matrix(-1 0 0 1 7.118 0)"/>
          <path stroke="#CB8B73" d="M0.160351182,1.17657918 C0.725420732,1.71656586 1.3552818,1.9865592 2.04993438,1.9865592 C2.74458696,1.9865592 3.37139993,1.78029402 3.9303733,1.36776365"/>
        </g>
      </g>
      <g mask="url(#d)">
        <mask id="h" fill="white">
          <use xlink:href="#g"/>
        </mask>
        <use fill="#2B409A" xlink:href="#g"/>
        <g mask="url(#h)">
          <g transform="translate(-2 -1)">
            <polygon fill="#FFFFFF" fill-rule="nonzero" points=".998 1.232 2.978 .363 11.045 6.787 12.09 8.078 9.972 8.369 6.682 5.6 4.033 3.735" transform="matrix(1 0 0 -1 0 8.732)"/>
            <polygon fill="#F50100" fill-rule="nonzero" points="1.269 1.038 2.278 .534 11.714 8.613 10.298 8.613" transform="matrix(1 0 0 -1 0 9.146)"/>
            <g transform="matrix(-1 0 0 1 13 0)">
              <polygon fill="#FFFFFF" fill-rule="nonzero" points=".998 1.232 2.978 .363 11.045 6.787 12.09 8.078 9.972 8.369 6.682 5.6 4.033 3.735" transform="matrix(1 0 0 -1 0 8.732)"/>
              <polygon fill="#F50100" fill-rule="nonzero" points="1.065 1.162 2.074 .658 6.093 4.117 7.284 4.503 12.19 8.441 10.773 8.441 5.87 4.597 4.567 4.134" transform="matrix(1 0 0 -1 0 9.099)"/>
            </g>
            <path fill="#F50100" stroke="#F7FCFF" stroke-width=".75" d="M3.61725576,2.625 L3.61725576,-0.375 L5.36725576,-0.375 L5.36725576,2.625 L9.375,2.625 L9.375,4.375 L5.36725576,4.375 L5.36725576,7.375 L3.61725576,7.375 L3.61725576,4.375 L-0.375,4.375 L-0.375,2.625 L3.61725576,2.625 Z" transform="translate(2 1)"/>
          </g>
        </g>
      </g>
    </g>
  </g>
</svg>
