<svg xmlns="http://www.w3.org/2000/svg" xmlns:xlink="http://www.w3.org/1999/xlink" width="16" height="12" viewBox="0 0 16 12">
  <defs>
    <rect id="gb-wls---wales-a" width="16" height="12" x="0" y="0"/>
  </defs>
  <g fill="none" fill-rule="evenodd">
    <mask id="gb-wls---wales-b" fill="#fff">
      <use xlink:href="#gb-wls---wales-a"/>
    </mask>
    <use fill="#5DAA22" xlink:href="#gb-wls---wales-a"/>
    <rect width="16" height="6" fill="#F7FCFF" mask="url(#gb-wls---wales-b)"/>
    <path fill="#D21034" fill-rule="nonzero" d="M7.67972546,3.56731948 C7.23987883,3.97695614 7.36403681,4.30349628 7.3470092,4.67138274 C7.36118558,4.91835516 7.29694325,5.14810882 7.1544816,5.28653922 C6.82848466,5.35681731 6.50218865,5.42752055 6.1762316,5.49779864 C6.15892324,5.44448874 6.12117596,5.19428799 6.09255755,4.95391963 C6.08284869,4.8723742 5.98332459,4.42990135 6.08703911,4.35460411 C6.22911371,4.25145727 6.72633205,4.67728817 6.72633205,4.51594614 C6.72633205,4.35460411 6.55691334,4.06949108 6.3001434,3.99447252 C6.1601342,3.94164703 6.11779141,3.86722368 6.17124693,3.75066749 C6.28326227,3.51238948 6.49413344,3.76933179 6.65539724,3.77855765 C6.64933589,3.62303602 6.60780368,3.51217691 6.48217025,3.38662869 C6.41453834,3.34226379 6.24844939,3.30888914 6.24414264,3.2345083 C6.24063344,3.13349152 6.50752531,3.14609736 6.72633205,3.17405129 C6.68071242,3.03248112 6.38560936,2.67073178 6.19182362,2.74690251 C6.15194632,2.67295534 6.14383129,2.67073178 6.10395399,2.59677185 C6.04730828,2.48495613 6.02190644,2.48194179 6.15318252,2.26993409 C6.27111963,2.18858922 6.71022853,1.75178305 6.74324693,1.5 C6.53014264,1.5 5.63567485,1.82517753 5.50517638,2.00886141 C5.49997239,2.00886141 4.48581288,1.95372521 4.48581288,1.95372521 C4.26967791,1.98581164 4.08506595,2.05113242 4.04903681,2.27524853 C3.55471779,2.3284439 3.03705061,2.28138776 2.66017025,2.78543429 C2.91678067,2.77249258 3.14140951,2.70733761 3.42968252,2.74690251 C3.42968252,2.74690251 3.67534663,2.75185556 3.72626994,3.02922231 C3.72795152,3.03280796 3.89565777,3.0255038 4.22938869,3.00730983 L4.24654908,2.78011986 C4.24654908,2.78011986 4.64915031,2.77911649 4.77181288,3.05181928 C4.77703681,3.05736755 3.64198926,3.27423902 2.54552301,3.17405129 C2.65131748,3.11858985 2.75691258,3.06276702 2.86268712,3.00730983 C2.46291718,2.92065903 1.91438247,2.57062483 1.56160793,2.27524853 C1.5,2.91511088 2.45629755,3.75347351 2.59724387,3.75066749 C2.59724387,3.75621576 2.56111503,3.44574647 2.56111503,3.44574647 C2.95821319,3.4642407 3.15598466,3.48241607 3.55306288,3.50088905 C3.59642945,3.64140271 3.6175046,4.15496845 3.76365491,4.2495654 C3.76887883,4.26064068 4.1375046,3.77855765 4.1375046,3.77855765 C4.1375046,3.77855765 4.18934509,3.90825112 4.24156442,3.99447252 C4.3172316,3.57977652 4.74064877,3.51217691 4.74064877,3.51217691 C4.74064877,3.51217691 4.8291365,3.72849567 4.8291365,3.7340652 C4.76437244,3.74405416 4.42923036,4.34917891 4.22938869,5.02008095 C4.02095413,5.71983076 3.95094743,6.48803368 4.05402147,6.57329149 C3.97021933,6.65279544 3.76568865,6.80659519 3.7312546,6.86226921 C3.67809212,6.80416629 3.19159887,6.47106427 2.92001074,6.09633158 C2.6926913,5.78268007 2.67814343,5.42323228 2.59724387,5.33105293 C2.57983742,5.2178342 2.60741258,5.14083867 2.75364264,5.04804863 C2.89965337,4.9650159 2.93067791,4.90062621 2.92001074,4.66540931 C2.97757362,4.50818706 3.02129908,4.3479037 2.84213037,4.23893653 C2.8475138,4.42589835 2.79367945,4.51594614 2.72249847,4.59897887 C2.63744018,4.58577782 2.6077316,4.6916201 2.55050767,4.73783443 C2.47043405,4.62274503 2.71942791,4.44449887 2.53493558,4.18844939 C2.52454755,4.1773316 2.47904755,3.91532995 2.1866273,3.92272764 C2.32561963,4.00950174 2.31152301,4.09440515 2.31124387,4.24425096 C2.21904755,4.52155818 2.11640481,4.62253845 2.1866273,4.80226239 C2.11620843,4.68978769 2.11640481,4.56178636 1.95234816,4.36393599 C1.8333753,4.22045614 1.64389034,4.2229546 1.5,4.2495654 C1.57580014,4.27130315 1.70534344,4.50694572 1.80245253,4.73783443 C1.89451322,4.95671995 1.95375872,5.17091295 2.04083589,5.20947991 C2.02118967,5.40296786 1.99169376,5.6930439 1.95234816,6.07970802 C1.81644992,6.29569737 1.73409047,6.40666105 1.70526981,6.41259904 C1.63570785,6.4587496 1.94485123,6.49087523 2.04582055,6.37400018 C2.04582055,6.36847317 2.10312423,6.33008169 2.1866273,6.09633158 C2.22315491,6.30506133 2.42405675,6.94426032 2.8782592,7.26151083 C3.27416104,7.71336536 3.55655215,8.00069549 3.55306288,8.60284223 C3.70758742,8.44961644 3.84285123,8.34633583 3.91383282,8.11513664 C4.12869172,8.03546263 4.43604601,8.00504281 4.7101227,8.01815883 C4.66310736,8.12361848 3.70074847,9.63442734 3.3312454,9.50220419 C3.20989877,9.42627154 2.59724387,8.96412827 2.48244858,9.46076827 C2.60220011,9.35494724 2.70999693,9.49450889 2.8053635,9.59654604 C2.78618252,9.6483299 2.76929448,9.72566556 2.73807055,9.76261151 C2.56633896,9.73446626 2.33542945,9.73603933 2.27511503,10.0011021 C2.36332362,9.92319248 2.55904141,9.90491082 2.71687577,9.97918537 C2.74636503,9.99028191 2.77587423,10.0012934 2.8053635,10.01239 C2.80883282,10.0549054 2.80191411,10.0695308 2.8053635,10.1120462 C2.8053635,10.1120462 2.57144325,10.0011234 2.50877607,10.4056581 C2.75364264,10.317311 2.89383129,10.3226254 2.89383129,10.3226254 C2.97835123,10.4545297 3.28943405,10.434675 3.51318558,10.217676 C3.82745859,10.0303527 4.48914264,10.0785228 4.62600153,10.2342782 C4.78381595,10.2973925 4.94900767,10.3493464 5.07898773,10.2342782 C5.07898773,10.2342782 5.2377592,10.1262677 5.3961319,10.3007087 C5.39786656,10.1040108 5.26712883,9.99950777 5.08957515,9.99578766 C4.81900767,9.94393295 4.6351999,9.88835813 4.53815184,9.8290632 C4.60678067,9.55130957 4.70677301,9.29966044 4.90203221,9.08570129 C5.14305061,8.81024349 5.32048466,8.68499289 5.62480828,8.26328184 C5.61306442,8.50160236 5.77839558,8.68888305 5.86867779,8.93092368 C5.86867779,8.93092368 6.05642025,8.69923557 6.08277914,8.44796908 C6.08796319,8.44796908 7.32434744,7.82615892 7.73706902,8.11513664 C8.1497906,8.40411436 8.69412423,8.96412827 8.69412423,8.96412827 C8.56835123,9.02662603 8.1497906,9.4856019 7.73706902,9.53543004 C7.57405061,9.50845397 7.3757408,9.43643274 7.24793405,9.29693945 C7.03484969,8.96412827 6.50454141,9.04418492 6.45724693,9.3301653 C6.5310629,9.27256643 6.68817022,9.27365492 6.8117485,9.3301653 C6.90927997,9.37476489 6.9756246,9.47024272 7.03484969,9.4856019 C7.13007669,9.49189419 7.29897699,9.58438661 7.35199387,9.74069478 C7.22917178,9.78042549 7.04302454,9.76733073 6.92020245,9.66829092 C6.8110184,9.57088795 6.66355215,9.58249468 6.5824816,9.64637419 C6.47002761,9.56993135 6.2022316,9.71425015 6.19182362,9.94530053 C6.3046365,9.8351004 6.47802301,9.86981429 6.48340644,9.90146707 C6.57009969,9.95507909 6.65655368,10.0086061 6.74324693,10.0622181 C6.6157592,10.0980799 6.49590798,10.1523084 6.55133742,10.4056581 C6.55133742,10.4056581 6.65517791,10.1867885 6.88903834,10.2674828 C6.89424233,10.2619558 6.92127914,10.3456688 6.9881135,10.2894208 C7.08932209,10.1666361 7.32073006,10.1116636 7.52396472,10.0901295 C7.68706288,10.0693607 8.25910276,10.0013784 8.40313957,10.1120462 C8.57307669,10.1693571 8.69715491,10.3805528 8.91281135,10.2841064 C9.02006135,10.2049638 9.15187577,10.2009461 9.28729908,10.3618247 C9.28893405,10.1589621 9.14635276,10.0909586 8.94397546,10.0456158 C8.89713957,10.0160038 8.54314877,9.96081868 8.4131089,9.89547238 C9.09369479,9.70789409 9.57078681,9.303253 9.90663344,8.72563768 C10.0141426,8.76630374 10.3108497,8.88067038 10.4680261,8.93092368 C10.4709377,8.8095342 10.544497,8.47710453 10.1601438,8.26328184 C10.0689504,8.21254931 9.81954103,8.18553781 9.41191564,8.18224733 C9.34164538,8.10324611 9.32482776,7.80206452 9.41191564,7.59002809 C9.46859357,7.45203202 9.61914579,7.38861573 9.65678221,7.32262683 C9.71984529,7.31650615 10.3109535,7.74498237 10.8948328,7.91586659 C11.3857244,8.05953603 12.1168863,7.85295663 12.1640675,8.01815883 C12.2274931,8.2402402 12.1739241,8.74695147 12.1640675,8.93092368 C12.1598982,9.00874305 12.1769754,9.2792363 12.0591427,9.41319803 C11.8872751,9.60859098 11.5468139,9.65849307 11.415112,9.59654604 C11.3353175,9.54293402 11.2556426,9.48874804 11.1758482,9.43511476 C11.0908896,9.3463637 11.0059709,9.25814408 10.9210123,9.16939301 C10.8777454,9.12609099 10.4426242,9.13017248 10.4163052,9.42448589 C10.5518482,9.28375965 10.7440567,9.40764976 10.7440567,9.41319803 C10.7440567,9.41643631 10.8938148,9.52992313 10.8572636,9.59654604 C10.8453837,9.61819976 10.6980565,9.60743233 10.5702117,9.66829092 C10.4174681,9.74100217 10.2814512,9.89414126 10.2860859,10.0290135 C10.3706058,9.88148479 10.7544847,9.91345643 10.904184,9.89880985 C11.029339,9.88656539 11.2067331,9.93435279 11.3004647,9.96789751 C11.2438582,9.98564675 11.0646783,10.0104053 10.9210123,10.0901295 C10.7654582,10.1764507 10.6458769,10.3236898 10.6138374,10.5 C10.8476779,10.3403756 11.0248727,10.3452224 11.0300567,10.3452224 C11.0352607,10.3452224 11.1029525,10.3618247 11.1029525,10.3618247 C11.1029525,10.3618247 11.3837684,10.1618744 11.3889525,10.1618744 C11.3911368,10.1618744 11.6966476,10.0728032 11.9453604,10.0622181 C12.2914398,10.0474891 12.6247061,10.1182274 12.7416702,10.2010737 C12.8975506,10.2536937 12.9841575,10.2738389 13.0014908,10.2615094 C13.0014908,10.2615094 13.2074371,10.1995006 13.3585123,10.3950293 C13.3784509,10.0622181 13.0694018,10.0456158 13.0694018,10.0456158 C13.0520552,10.028971 12.8024433,9.9066327 12.694934,9.86226779 C12.6795985,9.82180243 12.5539012,9.67164319 12.5766683,9.43511476 C12.6235818,8.94772839 12.835194,8.16641123 12.6787239,7.73249732 C12.895477,7.83232367 13.057658,8.14100731 13.3292224,8.03210391 C13.3292224,7.77326967 14.2154555,5.9456142 13.6987255,4.82684059 C13.7802347,4.55693106 13.8614647,4.28695776 13.9429739,4.01704824 C14.0580199,4.26412695 14.4267488,4.51890097 14.6357856,4.59897887 C14.4634957,4.24831119 14.4008052,2.56167829 14.5,1.82148378 C14.0493267,2.4150424 13.2453141,3.45935142 12.7163217,3.99447252 C12.9765211,4.05930862 13.3382546,4.04423263 13.589681,4.01107056 C13.5185798,4.16635835 13.4495322,4.32211381 13.3784509,4.47742286 C12.6911058,4.0482716 11.8841089,4.37032637 11.8780675,4.94309492 C11.9015752,5.61101312 12.6761518,5.70592893 13.122977,5.47319919 C13.0344095,6.08216967 10.8122071,5.71577126 10.3222347,5.71966143 C10.4240414,5.38570233 10.9893819,5.08932691 11.4200966,5.22010453 C10.817092,4.49927582 11.5053344,3.60434622 12.3354003,3.32882465 C11.4306641,3.01068556 12.2097071,2.27534419 12.8868436,1.74844984 C12.8868436,1.74844984 10.9395752,2.62215784 10.7621212,2.61935182 C10.2082454,2.57499329 10.3592209,1.87602817 10.5702117,1.5 C9.52857669,2.11408297 8.59622546,2.75304387 7.67972546,3.56731948 Z M12.6550567,4.80226239 C12.7827239,4.80039171 12.9356733,4.85797893 13.0849739,5.02678664 C13.0131948,5.24725067 12.3902715,5.36046939 12.3485,5.0340993 C12.3358788,4.93544213 12.4684509,4.80496212 12.6550567,4.80226239 Z" mask="url(#gb-wls---wales-b)"/>
  </g>
</svg>
