<svg xmlns="http://www.w3.org/2000/svg" xmlns:xlink="http://www.w3.org/1999/xlink" width="16" height="12" viewBox="0 0 16 12">
  <defs>
    <rect id="a" width="16" height="12"/>
    <rect id="c" width="16" height="12"/>
  </defs>
  <g fill="none" fill-rule="evenodd">
    <mask id="b" fill="white">
      <use xlink:href="#a"/>
    </mask>
    <g mask="url(#b)">
      <mask id="d" fill="white">
        <use xlink:href="#c"/>
      </mask>
      <use fill="#F7FCFF" xlink:href="#c"/>
      <g fill="#E31D1C" mask="url(#d)">
        <polygon points="7 0 9 0 9 5 16 5 16 7 9 7 9 12 7 12 7 7 0 7 0 5 7 5"/>
      </g>
      <g fill="#E31D1C" mask="url(#d)">
        <path d="M1.99934141 7.61097545L3.09999847 7.5 3.09999847 8.5C2.3662271 8.45405471 1.99934141 8.43771438 1.99934141 8.450979 1.99934141 8.46424363 2.03289377 8.8139173 2.09999847 9.5L1.09999847 9.5 1.18010828 8.5.0999984741 8.5.0999984741 7.5 1.18010828 7.61097545 1.09999847 6.5 2.09999847 6.5 1.99934141 7.61097545zM1.99934141 1.61097545L3.09999847 1.5 3.09999847 2.5C2.3662271 2.45405471 1.99934141 2.43771438 1.99934141 2.450979 1.99934141 2.46424363 2.03289377 2.8139173 2.09999847 3.5L1.09999847 3.5 1.18010828 2.5.0999984741 2.5.0999984741 1.5 1.18010828 1.61097545 1.09999847.5 2.09999847.5 1.99934141 1.61097545zM8.99934141 1.61097545L10.0999985 1.5 10.0999985 2.5C9.3662271 2.45405471 8.99934141 2.43771438 8.99934141 2.450979 8.99934141 2.46424363 9.03289377 2.8139173 9.09999847 3.5L8.09999847 3.5 8.18010828 2.5 7.09999847 2.5 7.09999847 1.5 8.18010828 1.61097545 8.09999847.5 9.09999847.5 8.99934141 1.61097545zM8.99934141 7.61097545L10.0999985 7.5 10.0999985 8.5C9.3662271 8.45405471 8.99934141 8.43771438 8.99934141 8.450979 8.99934141 8.46424363 9.03289377 8.8139173 9.09999847 9.5L8.09999847 9.5 8.18010828 8.5 7.09999847 8.5 7.09999847 7.5 8.18010828 7.61097545 8.09999847 6.5 9.09999847 6.5 8.99934141 7.61097545z" transform="translate(3 1)"/>
      </g>
    </g>
  </g>
</svg>
