<svg xmlns="http://www.w3.org/2000/svg" xmlns:xlink="http://www.w3.org/1999/xlink" width="16" height="12" viewBox="0 0 16 12">
  <defs>
    <rect id="a" width="16" height="12"/>
  </defs>
  <g fill="none" fill-rule="evenodd">
    <mask id="b" fill="white">
      <use xlink:href="#a"/>
    </mask>
    <rect width="16" height="12" fill="#F7FCFF" mask="url(#b)"/>
    <g mask="url(#b)">
      <polygon fill="#C51918" points="0 8 16 8 16 12 0 12"/>
      <g transform="translate(3)">
        <path fill="#DB000B" d="M3.33425097,2.75238095 L3.33425097,3.81190476 L4.71587604,3.81190476 L4.74923782,1.48095238 L4.28161939,1.48095238 L4.28161939,0.633333333 L5.22898781,0.633333333 L5.22898781,1.05714286 L5.70267202,1.05714286 L5.70267202,0.633333333 L6.65004044,0.633333333 L6.65004044,1.48095238 L6.17029045,1.48095238 L6.13692867,3.81190476 L7.56459851,3.81190476 L7.58803448,2.75238095 L7.12372465,2.75238095 L7.12372465,1.9047619 L8.07109307,1.9047619 L8.07109307,2.32857143 L8.54477729,2.32857143 L8.54477729,1.9047619 L9.49214571,1.9047619 L9.49214571,2.75238095 L9.00908711,2.75238095 L8.98565114,3.81190476 L9.91427079,3.81190476 L9.91427079,4.65952381 L8.96690237,4.65952381 L8.96690237,7.20238095 L9.91427079,7.20238095 L9.91427079,8.05 L0.914270792,8.05 L0.914270792,7.20238095 L1.387955,7.20238095 L1.387955,4.65952381 L0.914270792,4.65952381 L0.914270792,3.81190476 L1.91319834,3.81190476 L1.91319834,2.75238095 L1.43951413,2.75238095 L1.43951413,1.9047619 L2.38688255,1.9047619 L2.38688255,2.32857143 L2.86056676,2.32857143 L2.86056676,1.9047619 L3.80793518,1.9047619 L3.80793518,2.75238095 L3.33425097,2.75238095 Z"/>
        <path fill="#272727" d="M3.36056216 6.29252496L3.36056216 6.29252496C3.66577216 6.29252496 3.91319374 6.53994654 3.91319374 6.84515654L3.91319374 7.75919162 2.80793058 7.75919162 2.80793058 6.84515654C2.80793058 6.53994654 3.05535217 6.29252496 3.36056216 6.29252496zM7.41319374 6.29252496L7.41319374 6.29252496C7.71840374 6.29252496 7.96582532 6.53994654 7.96582532 6.84515654L7.96582532 7.75919162 6.86056216 7.75919162 6.86056216 6.84515654C6.86056216 6.53994654 7.10798375 6.29252496 7.41319374 6.29252496zM5.38687795 5.92585829L5.38687795 5.92585829C5.79382461 5.92585829 6.12372006 6.25575374 6.12372006 6.6627004L6.12372006 8.12585829 4.65003585 8.12585829 4.65003585 6.6627004C4.65003585 6.25575374 4.9799313 5.92585829 5.38687795 5.92585829z"/>
        <g fill="#E8AA00" transform="translate(4.21 7.7)">
          <path fill-rule="nonzero" d="M1.26452121,0.366623746 L0.820780409,0.664011976 L1.3117285,0.897654543 L1.73331462,0.621969936 L1.26452121,0.366623746 Z M1.3602377,0.064617263 L1.45064272,-0.101358496 L2.70675389,0.582830306 L1.35039029,1.46978685 L-0.187552746,0.737878599 L1.19187897,-0.186595225 L1.3602377,0.064617263 Z"/>
          <rect width="1" height="1" x=".368" y="2.567"/>
          <polygon points=".789 1.3 1.664 1.3 1.664 3.3 .789 3.3"/>
        </g>
      </g>
    </g>
  </g>
</svg>
