<svg xmlns="http://www.w3.org/2000/svg" xmlns:xlink="http://www.w3.org/1999/xlink" width="16" height="12" viewBox="0 0 16 12">
  <defs>
    <rect id="gs---s.-georgia-and-s.-sandwich-islands-a" width="16" height="12" x="0" y="0"/>
    <path id="gs---s.-georgia-and-s.-sandwich-islands-d" d="M3.46940067,1.93305514 C3.47591016,1.94943683 3.61893322,1.92038988 3.6493397,2.00607216 C3.80330265,1.77873899 3.98397182,1.99553874 3.98397182,1.99553874 L4.13600421,1.81552735 C4.13600421,1.81552735 4.30766405,1.97808785 4.30766405,1.97808785 L4.46516638,1.96582507 C4.46516638,1.96582507 4.62974747,2.35210279 4.62974747,2.35210279 L3.33095654,2.32773444 C3.41891296,2.05369378 3.465061,1.92213402 3.46940067,1.93305514 Z"/>
    <filter id="gs---s.-georgia-and-s.-sandwich-islands-c" width="119.2%" height="193.2%" x="-9.6%" y="-23.3%" filterUnits="objectBoundingBox">
      <feOffset dy=".25" in="SourceAlpha" result="shadowOffsetOuter1"/>
      <feColorMatrix in="shadowOffsetOuter1" values="0 0 0 0 1   0 0 0 0 1   0 0 0 0 1  0 0 0 1 0"/>
    </filter>
    <linearGradient id="gs---s.-georgia-and-s.-sandwich-islands-e" x1="51.703%" x2="61.293%" y1="29.732%" y2="27.385%">
      <stop offset="0%" stop-color="#D5DFFF"/>
      <stop offset="100%" stop-color="#FFF"/>
    </linearGradient>
    <rect id="gs---s.-georgia-and-s.-sandwich-islands-f" width="9" height="7" x="0" y="0"/>
  </defs>
  <g fill="none" fill-rule="evenodd">
    <mask id="gs---s.-georgia-and-s.-sandwich-islands-b" fill="#fff">
      <use xlink:href="#gs---s.-georgia-and-s.-sandwich-islands-a"/>
    </mask>
    <g mask="url(#gs---s.-georgia-and-s.-sandwich-islands-b)">
      <g transform="translate(0 -.8)">
        <g transform="translate(0 .05)">
          <polygon fill="#2B409A" points="0 .75 16 .75 16 12.75 0 12.75"/>
          <path stroke="#CDAD56" stroke-linecap="round" stroke-width=".25" d="M11.7517793,4.16210683 C11.6042589,3.96809731 11.5304987,3.8489541 11.5304987,3.80467717"/>
          <path stroke="#CDAD56" stroke-linecap="round" stroke-width=".25" d="M12.1517793,4.16210683 C12.0042589,3.96809731 11.9304987,3.8489541 11.9304987,3.80467717" transform="matrix(-1 0 0 1 24.082 0)"/>
        </g>
        <g transform="translate(8.5 3.8)">
          <path fill="#6A4C2D" fill-rule="nonzero" d="M3.65899255,6.27572228 C3.62826431,6.27572228 3.5167739,6.21566608 3.5167739,6.21566608 C3.5167739,6.21566608 3.43601172,6.34348203 3.39370006,6.35087115 C3.3513884,6.35841747 3.13226871,6.27210634 3.13226871,6.27210634 C3.13226871,6.27210634 2.97849882,6.39221874 2.94389335,6.38467241 C2.92082304,6.37974634 2.79138905,6.35223368 2.55559138,6.30213444 L2.36335488,6.18186482 C2.36335488,6.18186482 2.25570952,6.35464431 2.25186447,6.35087115 C2.2493011,6.3483557 2.14165573,6.32707925 1.92892838,6.28704178 C1.92892838,6.28704178 2.02503858,6.15560988 2.02503858,6.15183671 C2.02503858,6.14806355 1.97889796,6.13297089 1.97889796,6.13297089 L1.90970312,6.18941115 L1.62520146,6.21566608 L1.69441239,6.0202476 L1.80590281,5.85501444 L3.17071923,4.5587752 L3.84352286,5.77231925 L3.74361586,6.13674406 C3.74361586,6.13674406 3.68972079,6.27572228 3.65899255,6.27572228 Z"/>
          <path stroke="#FB0" stroke-linecap="round" stroke-linejoin="round" stroke-width=".5" d="M2.35520976,6.03043776 C2.40273851,6.08792599 3.02898322,6.7280659 3.13049902,7.03091858 C3.19817623,7.23282036 2.92367063,7.20482247 2.30698224,6.94692491 C3.0835034,6.44254005 3.66571883,6.19034762 4.05362852,6.19034762 C4.44153821,6.19034762 5.01668874,6.44254005 5.77908011,6.94692491 C5.26748075,7.30721576 5.01430795,7.37377121 5.01956172,7.14659124 C5.02744237,6.80582128 5.37977036,6.13454109 5.8002748,6.03043776"/>
          <path fill="#F7FCFF" fill-rule="nonzero" d="M6.39016479,6.05834937 L6.39016479,5.67788861 L5.20875757,5.73285823 C5.20875757,5.73285823 4.99559048,5.67468861 4.56925628,5.55834937 L4.29962001,5.73820355 L4.44480878,5.92780507 L4.79962001,6.05834937 L6.39016479,6.05834937 Z"/>
          <g fill-rule="nonzero">
            <use fill="#000" filter="url(#gs---s.-georgia-and-s.-sandwich-islands-c)" xlink:href="#gs---s.-georgia-and-s.-sandwich-islands-d"/>
            <use fill="#656263" xlink:href="#gs---s.-georgia-and-s.-sandwich-islands-d"/>
          </g>
          <path fill="#656263" fill-rule="nonzero" d="M4.81572571,3.57696634 C4.80526846,3.45465292 4.69683478,3.44034634 4.63634358,3.44443393 C4.57569151,3.44852152 4.52147467,3.49945925 4.52147467,3.49945925 L4.32117804,3.37510203 C4.32117804,3.37510203 4.4214068,2.75724634 4.52774902,2.7185714 C4.62878219,2.64735292 4.64663996,2.61653874 4.64663996,2.60034558 C4.64663996,2.5839952 4.60915472,2.51780279 4.60915472,2.51780279 L3.95597856,2.4423395 L3.33835706,2.5137152 C3.33835706,2.5137152 3.29041457,2.61040735 3.29668892,2.63902051 C3.30296327,2.66747646 3.30505472,2.69813342 3.41557985,2.7817719 C3.53801016,2.87374279 3.62215084,3.4016714 3.62215084,3.4016714 C3.62215084,3.4016714 3.44904307,3.48515266 3.43858581,3.47493368 C3.42812856,3.4648719 3.37600317,3.45465292 3.34881431,3.45874051 C3.32178633,3.46282811 3.23201483,3.50763444 3.23201483,3.62381646 C3.23201483,3.7401557 3.32178633,3.8074438 3.32178633,3.8074438 C3.32178633,3.8074438 3.91221897,4.2401557 3.99989902,4.39910026 C4.08548763,4.20745494 4.64663996,3.77474304 4.7134055,3.74204228 C4.74059436,3.72584912 4.82618296,3.69927975 4.81572571,3.57696634 Z"/>
          <path fill="#000" fill-rule="nonzero" d="M5.40503219,3.00077266 C5.45410084,2.96885798 5.7808498,2.95282203 5.85935965,3.00077266 C5.93770861,3.0487233 6.14041846,3.12575874 6.14363607,3.1864438 C6.14685369,3.24712887 6.28070654,3.35736681 6.28070654,3.35736681 C6.28070654,3.35736681 6.5113059,3.84302181 6.51452351,4.14314561 C6.54396471,4.34752535 6.53736859,4.89353371 6.45580201,5.10105776 C6.45242351,5.35983396 6.12079099,5.54907368 6.12079099,5.54907368 C6.12079099,5.54907368 6.14685369,5.59372279 6.14363607,5.64167342 C6.14025757,5.68962406 6.11419488,5.73427317 6.11419488,5.73427317 C5.95084721,5.80449596 5.86917338,5.83960735 5.86917338,5.83960735 L5.5979283,5.79495823 L5.29064592,4.89757393 L5.36255965,3.38076178 L5.38218711,3.30419798 L5.3495283,3.09981823 C5.3495283,3.09981823 5.35612441,3.03268735 5.40503219,3.00077266 Z"/>
          <path fill="#F7FCFF" fill-rule="nonzero" d="M3.63099928,3.7970676 C3.63099928,3.7970676 3.96160939,3.7970676 3.99732493,3.90193013 C4.05990757,3.76216583 4.34579281,3.77096988 4.34579281,3.77096988 C4.51857882,3.76515292 4.69136483,3.75933596 4.86398996,3.75351899 C4.86704669,4.16102077 4.86994255,4.56852254 4.87299928,4.97602431 C4.77180524,5.45034254 4.42028063,5.78521089 4.03304048,5.92780507 C3.5713125,5.7822238 3.27947467,5.40097697 3.18423322,4.96722026 C3.16621457,4.58015646 3.1483568,4.19293545 3.13049902,3.80587165 C3.29733244,3.80288456 3.46416586,3.80005469 3.63099928,3.7970676 Z"/>
          <path fill="#006B00" fill-rule="nonzero" d="M3.30875498,3.80131241 L4.03770602,5.69952861 L4.69619125,3.75996482 C4.4918726,3.77285646 4.05363322,3.72852178 3.9992555,3.91057697 C3.91495395,3.74770203 3.45386949,3.81341798 3.30875498,3.80131241 L3.30875498,3.80131241 Z"/>
          <path fill="#FFD100" d="M3.39416486,4.53243879 C3.50947242,4.48824555 3.59566576,4.48824555 3.65274487,4.53243879 C3.73836354,4.59872865 3.80851084,4.52694635 3.80851084,4.48695854 C3.80851084,4.44697073 3.94446182,4.30969616 3.94446182,4.42106747 C3.94446182,4.53243879 3.90214506,4.5953208 4.02163952,4.5953208 C4.14113398,4.5953208 4.59978942,4.45587101 4.45949481,4.45587101 C4.31920021,4.45587101 4.16305361,4.42106747 4.16305361,4.42106747 C4.16305361,4.42106747 4.2069196,4.36254613 4.36708603,4.40417314 C4.52725245,4.44580014 4.75962337,4.63692726 4.76873138,4.68475759 C4.77783939,4.73258792 4.85236252,4.80600831 4.71486951,4.81579338 C4.5773765,4.82557845 4.513018,4.86486437 4.48625641,4.83322742 C4.45949481,4.80159047 4.36384126,4.75943483 4.43905731,4.74591698 C4.51427337,4.73239912 4.58615138,4.79186473 4.61324222,4.78215518 C4.64033306,4.77244563 4.70173718,4.76704065 4.65030723,4.72589912 C4.59887728,4.68475759 4.51408681,4.6605363 4.59269422,4.6297422 C4.67130163,4.5989481 4.60927008,4.59831561 4.45949481,4.66210737 C4.30971954,4.72589912 4.22641488,4.78011078 4.09492503,4.77244563 C3.96343518,4.76478048 3.91418395,4.77512115 3.87192198,4.76478048 C3.82966,4.75443981 3.62382692,4.87903493 3.56455488,4.84741415 C3.50528284,4.81579338 3.31393463,4.80366184 3.34838117,4.76478048 C3.38282772,4.72589912 3.42907403,4.70588126 3.48058394,4.72589912 C3.53209384,4.74591698 3.58327576,4.76593484 3.61801032,4.74591698 C3.65274487,4.72589912 3.75305809,4.65720944 3.72782616,4.64347582 C3.70259424,4.6297422 3.72699998,4.58350855 3.58413677,4.58350855 C3.44127357,4.58350855 3.39104958,4.63503511 3.35713606,4.60256954 C3.33452704,4.58092583 3.34686998,4.55754891 3.39416486,4.53243879 Z" transform="rotate(90 4.07 4.615)"/>
          <path fill="#1E5AA6" fill-rule="nonzero" d="M2.03544663.0138349367L2.13374482.0114767089 1.95822383.228748101 2.16881684.468972911 1.7545487.978978987 2.14548912 1.4386762C2.10253394 1.54165215 2.05266088 1.63535241 1.9862171 1.72009139L1.76162746 1.47750835 2.16881684.981337215 1.83418472.610781013 2.03544663.0138349367 2.03544663.0138349367zM.525740933.059584557L.722337306.267580253.514157513.521482785.947087824.981337215.588967098 1.45015291C.63192228 1.55312886.693539637 1.6674243.759822539 1.75200608L.972828756 1.48898506.535232902 1.0132519.855868394.615340253.631117876.0572263291.525740933.059584557z" transform="translate(2.665 3.746)"/>
          <path fill="url(#gs---s.-georgia-and-s.-sandwich-islands-e)" fill-rule="nonzero" d="M5.69268711,3.42556811 C5.69268711,3.45748279 5.7274613,5.34160671 5.7656253,5.32362434 C5.86038411,5.27881801 5.88220472,5.37660861 5.88220472,5.37660861 C5.88220472,5.37660861 5.91486353,5.68647975 5.83313607,5.72798456 C5.73510602,5.77902709 5.66465476,5.81017644 5.62178229,5.82143261 L5.48032441,5.71839444 C5.48032441,5.71839444 5.33649695,5.51715899 5.30383814,5.42770355 C5.27117934,5.33840532 5.23192441,4.93923596 5.24495576,4.85292482 C5.25798711,4.76677089 5.26780084,4.26211013 5.26136561,4.23664127 C5.25476949,4.2110152 5.2287068,3.78952127 5.24495576,3.7256919 C5.26136561,3.66186254 5.36255965,3.38076178 5.35934203,3.38076178 C5.35934203,3.38076178 5.69268711,3.39365342 5.69268711,3.42556811 Z"/>
          <path fill="#FF7000" fill-rule="nonzero" d="M5.36593814,3.10296254 C5.43447338,3.10296254 5.48675965,3.1605033 5.50316949,3.21159823 C5.50638711,3.23392279 5.49657338,3.24995874 5.49979099,3.29146355 C5.50316949,3.33296836 5.00315187,3.30089646 4.99993426,3.29775216 C4.99993426,3.29775216 5.23192441,3.07749368 5.36593814,3.10296254 Z"/>
          <path fill="#000" fill-rule="nonzero" d="M5.70445443,3.25517658 C5.70445443,3.28279124 5.68206835,3.30517694 5.65445443,3.30517694 C5.62684051,3.30517694 5.60445443,3.28279124 5.60445443,3.25517658 C5.60445443,3.22756263 5.62684051,3.20517694 5.65445443,3.20517694 C5.68206835,3.20517694 5.70445443,3.22756263 5.70445443,3.25517658 Z"/>
          <path fill="#F7FCFF" fill-rule="nonzero" d="M4.41030602 2.95439418C4.41030602 2.95439418 4.6706112 3.22967798 4.83905343 3.22669089 4.86962079 3.3074995 4.76247415 3.38264836 4.71967985 3.41849342 4.63393037 3.39160963 4.55638581 3.42336709 4.35737623 3.18408558 4.36976405 3.03142963 4.41336276 2.96036836 4.41030602 2.95439418zM5.44525239 1.56901393C5.46970628 1.74556659 5.8844839 1.96220912 6.00385748 1.81552735 5.99163054 1.88140051 6.01397955 2.08680216 5.38316582 2.08381507 5.62207385 2.30533127 5.14520965 2.54453418 5.01039151 2.49060937 5.25846975 2.30509545 4.94008659 2.19441596 4.76247415 2.31405671 4.79609825 2.21233849 5.04417649 1.70076026 5.44525239 1.56901393z"/>
          <path fill="#F7FCFF" fill-rule="nonzero" d="M5.09102305 3.04733724C5.04811695 3.48550176 4.71646224 3.41817899 4.71646224 3.41817899 4.70729203 3.42116608 4.86962079 3.31048659 4.84822364 3.23863925 4.79609825 2.94842001 4.58791846 3.0021876 4.57263478 3.0590995 4.54370429 3.0322157 4.37973866 2.67646056 4.77164436 2.77817878 4.60625887 2.47899828 4.76247415 2.32899216 4.77164436 2.30808254 4.77164436 2.30808254 4.92158529 2.21233849 5.05946016 2.30509545 4.95491204 2.39050755 4.97778386 2.61389251 5.02510615 2.80833679 5.05003767 2.73546262 5.16175481 2.4569688 5.41452415 2.45177722 5.4228937 2.83011945 5.14780592 3.01355064 5.09102305 3.04733724zM3.54380187 3.0322157C3.54380187 3.0322157 3.28977105 3.24760051 3.1457827 3.17874026 3.03863607 3.24162634 2.91311685 3.13094684 2.91311685 3.13094684 2.91311685 3.13094684 3.06003322 3.6604476 3.58675706 3.2774714 3.57758685 3.16081773 3.54991535 3.04117697 3.54380187 3.0322157L3.54380187 3.0322157z"/>
          <path fill="#F7FCFF" fill-rule="nonzero" d="M3.14272597,3.16977899 C3.16412312,3.0590995 3.25292934,3.00517469 3.32339514,3.10988001 C3.41831483,3.12795975 3.51323452,2.74797064 3.17635006,2.8106995 C3.27126975,2.31405671 2.98659112,2.12854279 2.98659112,2.12854279 C2.98659112,2.12854279 2.88555796,2.67911039 2.93147335,2.78082861 C2.97740483,2.88254684 2.86412864,2.5923276 2.49976573,2.51151899 C2.49363618,2.92751039 2.90698729,3.12198558 2.90698729,3.12198558 C2.90698729,3.12198558 3.02335239,3.22669089 3.14272597,3.16977899 L3.14272597,3.16977899 Z"/>
          <path fill="#F7FCFF" fill-rule="nonzero" d="M2.7982666,2.56942598 C2.69110388,2.60228396 2.43051238,2.44517418 2.59584961,2.24158051 C2.05390645,2.22963216 1.75885201,1.77177734 1.93947754,1.85908203 C2.12010307,1.94638672 2.24916511,1.76035089 2.38388672,1.85908203 C2.21854949,1.70957039 2.44159123,1.58992355 2.44159123,1.58992355 C2.44159123,1.58992355 2.90393055,1.72465697 2.98659112,2.1255557 C2.95903224,2.20337722 2.94678921,2.34094051 2.94065965,2.33496634 C2.94065965,2.33197925 2.65437479,2.32998725 2.7982666,2.56942598 Z"/>
          <path fill="#923F00" fill-rule="nonzero" d="M3.8480629,0.434305148 C3.77959069,0.659572498 3.53261702,0.574105018 3.53261702,0.574105018 C3.53261702,0.574105018 3.54079923,0.68684532 3.51625259,0.740940761 C3.53647675,0.757724737 3.68246957,0.884203723 3.83578958,0.916827954 C4.05627973,0.963744997 4.50780776,0.835392212 4.65939404,1.02504253 C4.76045156,1.15147608 4.80832469,1.26571706 4.80301343,1.36776547 C4.67150563,1.38467825 4.6240245,1.41920805 4.66057004,1.47135486 C4.6961652,1.52214558 4.7943199,1.55988875 4.80301343,1.6123837 C4.83068495,1.77947513 4.710473,2.0801194 4.75370482,2.1930586 C4.68544793,2.19993012 4.6800649,2.27859717 4.6800649,2.27859717 C4.67748104,2.33815033 4.61051608,2.35023473 4.47917001,2.31485035 C4.5611357,2.08327226 4.60484594,1.94047104 4.61030075,1.88644668 C4.61848297,1.8051732 4.52417218,1.6608713 4.45053226,1.6608713 C4.37667701,1.6608713 4.32349261,1.91796089 4.32349261,1.91796089 C4.32349261,1.91796089 4.28667265,2.11178512 4.29894597,2.12979324 C4.31121929,2.14780135 4.24963736,2.06676482 4.24963736,2.06676482 C4.24963736,2.06676482 4.23029247,2.14549395 4.198582,2.1930586 C4.16291471,2.24655834 4.11441551,2.26959311 4.11441551,2.26959311 C4.11441551,2.26959311 4.07759555,2.15230338 4.08986887,2.10728309 C4.10214219,2.06226279 4.29076376,1.88644668 4.27439933,1.7601529 C4.26708218,1.70441561 4.26059194,1.60712907 4.198582,1.57484783 C4.1200851,1.5339838 3.97616152,1.56378985 3.8891893,1.54362897 C3.84138794,1.63528081 3.81942516,2.13879729 3.85215401,2.17054845 C3.88509819,2.20206266 3.77033187,2.26959311 3.77033187,2.26959311 L3.63511001,2.27409514 C3.6329568,2.20585384 3.71477894,2.01937503 3.71477894,1.86156704 C3.71477894,1.70375905 3.72511437,1.53462491 3.72511437,1.53462491 C3.72511437,1.53462491 3.63422455,1.56038829 3.58580141,1.6608713 C3.5451989,1.74512569 3.54524973,1.90437898 3.54898144,1.92696495 C3.55716366,1.97648728 3.59807473,2.11628715 3.58580141,2.15704236 C3.57352809,2.19756063 3.3605752,2.25158499 3.3605752,2.25158499 L3.35217766,2.12078918 C3.35217766,2.12078918 3.44239734,2.05776076 3.44239734,1.89995277 C3.44239734,1.74214478 3.45057955,1.5165694 3.44648844,1.50306331 C3.44403416,1.4949467 3.37268962,1.14960832 3.2788056,0.916827954 C3.21619192,0.761580708 3.1195886,0.690445149 3.11467813,0.677817566 C3.10240481,0.646255968 3.10240481,0.610168646 3.10240481,0.610168646 C3.10240481,0.610168646 2.96696763,0.718406918 2.80719913,0.488424284 C2.9536177,0.350922818 3.11058702,0.452336961 3.11058702,0.452336961 C3.11058702,0.452336961 3.15149809,0.326066875 3.33990434,0.33509463 C3.52852591,0.344122384 3.56534587,0.461364716 3.55716366,0.447834932 C3.55716366,0.447834932 3.69647662,0.312537091 3.8480629,0.434305148 Z"/>
          <path fill="#B4B6B9" fill-rule="nonzero" d="M3.31390317,2.68178304 L3.95807001,3.09368684 L4.53820628,2.71244001 C4.53820628,2.71244001 4.65918866,2.6471957 4.64873141,2.60034558 C4.63843504,2.55333823 4.59660602,2.57173241 4.57569151,2.5799076 C4.55493789,2.58808279 3.96852726,2.9938552 3.96852726,2.9938552 L3.34463141,2.60836355 C3.34463141,2.60836355 3.29878037,2.59421418 3.29041457,2.62267013 C3.28204877,2.6512833 3.30762882,2.66747646 3.31390317,2.68178304 L3.31390317,2.68178304 Z"/>
          <path fill="#FF7000" fill-rule="nonzero" d="M5.47340654 5.71367798C5.47340654 5.71367798 5.2336419 5.69760441 5.27030185 5.76701323 5.28386456 5.79269171 5.39645187 5.80405051 5.60806379 5.80108963L5.47340654 5.71367798zM5.58747105 5.80674937L5.33746224 5.81382406C5.33746224 5.81382406 5.27455783 5.86963545 5.27053581 5.88299874 5.26667467 5.89651925 5.31188219 5.90029241 5.31188219 5.90029241 5.48381016 5.94399823 5.63482364 5.95170178 5.7649226 5.92340304 5.86338167 5.88975899 5.88059592 5.84935469 5.81157804 5.82482912 5.74272105 5.80030355 5.58940162 5.80769266 5.58747105 5.80674937z"/>
          <path fill="#8A9396" fill-rule="nonzero" d="M2.69533247,3.49490001 C2.69533247,3.49490001 2.66277019,3.59488887 2.69533247,3.6448833 C2.72787866,3.69487773 2.93251908,4.09939241 2.93251908,4.09939241 C2.93251908,4.09939241 3.07209928,3.93117216 3.12325939,3.92661292 C3.17441949,3.92221089 3.15109177,4.36304228 3.15109177,4.36304228 C3.15109177,4.36304228 3.06743374,4.44023494 3.01627364,4.4356757 C2.96508136,4.43111646 3.14176068,4.6084552 3.13709514,4.75843849 C3.13242959,4.90842178 2.90462234,5.65377899 2.82089996,5.6672995 C2.73719366,5.68097722 2.66492741,5.52695295 2.66492741,5.39382656 C2.66492741,5.26070016 2.75114203,5.04928659 2.74649257,4.99017368 C2.74184312,4.93106077 2.33047052,5.62365239 2.3055733,5.73178901 C2.3008533,5.75228946 2.32791283,5.82640127 2.32791283,5.82640127 C2.32791283,5.82640127 2.16671024,5.83960735 2.20234535,6.04461596 C1.72795605,5.88095494 0.96887482,5.78473997 0.973503018,5.49845111 C0.975307531,5.38870132 1.15600992,4.6841473 1.2588673,4.39910026 C1.42446686,3.94017675 2.00494666,3.66833505 2.00782464,3.61790581 C2.01247409,3.5359967 2.04502028,3.49967999 2.04966974,3.4542448 C2.0543192,3.40880961 2.10002514,3.18581494 2.14653579,3.14493899 C2.19304643,3.10406304 2.4348825,3.00407418 2.49534151,3.00863342 C2.55580053,3.01319266 2.60696063,3.05406861 2.60696063,3.05406861 C2.60696063,3.05406861 2.83486441,3.05406861 2.84881278,3.14037975 C2.86276115,3.22684811 2.80230213,3.25860558 2.80230213,3.25860558 C2.80230213,3.25860558 2.83486441,3.38139064 2.69533247,3.49490001 Z"/>
          <path d="M2.93623542 4.11055469C2.93623542 4.11055469 3.08915265 3.92299697 3.12470732 3.92991444 3.16026198 3.9368319 3.14948296 4.36414279 3.14948296 4.36414279 3.14948296 4.36414279 3.03574022 4.44746684 3.01096457 4.44400811 2.98601195 4.44054937 3.13886483 4.64555798 3.13532545 4.72196456 3.13178607 4.79837115 3.12824669 4.79837115 3.12824669 4.79837115 3.12824669 4.79837115 3.12824669 4.75325039 3.09269203 4.68030254 3.05713737 4.60735469 3.07837364 4.52387342 2.84736485 4.33977444 2.79047739 4.22516456 2.96112369 4.40926355 2.99664618 4.38143646 3.03220084 4.35376659 2.93267996 4.11401342 2.93623542 4.11055469L2.93623542 4.11055469zM2.84559516 3.14258077C2.84559516 3.14258077 2.66740356 3.0911714 2.6060597 3.17685368 2.54471584 3.26237874 2.55932382 3.31095823 2.59145172 3.31944785"/>
          <path fill="#2B2B2B" fill-rule="nonzero" d="M2.8309711,6.07275747 C2.88220628,6.1081833 2.96697975,6.13637722 3.08529151,6.15733925 C2.79464421,6.23563241 2.50166949,6.19879165 2.20636737,6.04681697 C2.16584149,5.86932102 2.30138358,5.82970279 2.33492724,5.82828785 C2.41316358,5.80784988 2.75411833,6.01946152 2.8309711,6.07275747 Z"/>
        </g>
        <g transform="translate(0 .8)">
          <mask id="gs---s.-georgia-and-s.-sandwich-islands-g" fill="#fff">
            <use xlink:href="#gs---s.-georgia-and-s.-sandwich-islands-f"/>
          </mask>
          <g mask="url(#gs---s.-georgia-and-s.-sandwich-islands-g)">
            <g transform="translate(-2 -1)">
              <polygon fill="#F7FCFF" fill-rule="nonzero" points=".998 1.232 2.978 .363 11.045 6.787 12.09 8.078 9.972 8.369 6.682 5.6 4.033 3.735" transform="matrix(1 0 0 -1 0 8.732)"/>
              <polygon fill="#F50100" fill-rule="nonzero" points="1.269 1.038 2.278 .534 11.714 8.613 10.298 8.613" transform="matrix(1 0 0 -1 0 9.146)"/>
              <g transform="matrix(-1 0 0 1 13 0)">
                <polygon fill="#F7FCFF" fill-rule="nonzero" points=".998 1.232 2.978 .363 11.045 6.787 12.09 8.078 9.972 8.369 6.682 5.6 4.033 3.735" transform="matrix(1 0 0 -1 0 8.732)"/>
                <polygon fill="#F50100" fill-rule="nonzero" points="1.065 1.162 2.074 .658 6.093 4.117 7.284 4.503 12.19 8.441 10.773 8.441 5.87 4.597 4.567 4.134" transform="matrix(1 0 0 -1 0 9.099)"/>
              </g>
              <path fill="#F50100" stroke="#F7FCFF" stroke-width=".75" d="M3.61725576,2.625 L3.61725576,-0.375 L5.36725576,-0.375 L5.36725576,2.625 L9.375,2.625 L9.375,4.375 L5.36725576,4.375 L5.36725576,7.375 L3.61725576,7.375 L3.61725576,4.375 L-0.375,4.375 L-0.375,2.625 L3.61725576,2.625 Z" transform="translate(2 1)"/>
            </g>
          </g>
        </g>
      </g>
    </g>
  </g>
</svg>
