<svg xmlns="http://www.w3.org/2000/svg" xmlns:xlink="http://www.w3.org/1999/xlink" width="16" height="12" viewBox="0 0 16 12">
  <defs>
    <rect id="a" width="16" height="12"/>
    <rect id="c" width="16" height="12"/>
  </defs>
  <g fill="none" fill-rule="evenodd">
    <mask id="b" fill="white">
      <use xlink:href="#a"/>
    </mask>
    <g mask="url(#b)">
      <mask id="d" fill="white">
        <use xlink:href="#c"/>
      </mask>
      <use fill="#EA1A1A" xlink:href="#c"/>
      <path fill="#FFFFFF" d="M9.119072,5.913528 C9.119072,5.913528 12.835028,7.025988 10.343012,9.851808 C10.343012,9.851808 8.963348,9.273216 9.119072,7.827 C9.274916,6.38082 9.563972,6.069228 9.119072,5.913528 Z M8.142368,6.780852 C8.142368,6.780852 8.808536,10.602012 5.166836,9.636348 C5.166836,9.636348 5.067692,8.143656 6.430928,7.636416 C7.794248,7.129056 8.20208,7.248456 8.142368,6.780852 Z M7.067024,6.261036 C7.067024,6.261036 3.463556,7.696176 3.662372,3.933756 C3.662372,3.933756 5.103092,3.530676 5.87906,4.761156 C6.654956,5.991492 6.621668,6.415296 7.067024,6.261036 Z M7.934756,5.787384 C7.934756,5.787384 5.039912,3.205752 8.49434,1.701564 C8.49434,1.701564 9.498944,2.809872 8.745296,4.054104 C7.991456,5.298264 7.597544,5.457888 7.934756,5.787384 Z M8.636912,5.55924 C8.636912,5.55924 10.461596,2.136564 12.73934,5.137656 C12.73934,5.137656 11.899688,6.375684 10.512716,5.937336 C9.125672,5.498988 8.877476,5.15376 8.636912,5.55924 Z" mask="url(#d)"/>
      <path stroke="#EA1A1A" stroke-width=".5" d="M5.08062126,5.10403922 C5.56589054,5.86775826 6.20587367,6.24961778 7.00057064,6.24961778" mask="url(#d)"/>
      <path stroke="#EA1A1A" stroke-width=".5" d="M6.90861199,4.08265738 C7.41353299,4.84435288 8.06334197,5.22520063 8.85803894,5.22520063" mask="url(#d)" transform="rotate(62 7.883 4.654)"/>
      <path stroke="#EA1A1A" stroke-width=".5" d="M8.87325565,4.56408386 C9.4390353,5.42279824 10.1192736,5.85215543 10.9139706,5.85215543" mask="url(#d)" transform="rotate(132 9.894 5.208)"/>
      <path stroke="#EA1A1A" stroke-width=".5" d="M8.43902316,6.04906645 C9.00480282,6.90778083 9.68504113,7.33713802 10.4797381,7.33713802" mask="url(#d)" transform="rotate(-158 9.46 6.693)"/>
      <path stroke="#EA1A1A" stroke-width=".5" d="M6.62552153,6.85203082 C7.19130119,7.7107452 7.8715395,8.14010239 8.66623647,8.14010239" mask="url(#d)" transform="rotate(-88 7.646 7.496)"/>
    </g>
  </g>
</svg>
