<svg xmlns="http://www.w3.org/2000/svg" xmlns:xlink="http://www.w3.org/1999/xlink" width="16" height="12" viewBox="0 0 16 12">
  <defs>
    <rect id="a" width="16" height="12"/>
    <rect id="c" width="16" height="12"/>
    <rect id="e" width="8" height="6"/>
  </defs>
  <g fill="none" fill-rule="evenodd">
    <mask id="b" fill="white">
      <use xlink:href="#a"/>
    </mask>
    <g mask="url(#b)">
      <mask id="d" fill="white">
        <use xlink:href="#c"/>
      </mask>
      <use fill="#2E42A5" xlink:href="#c"/>
      <rect width="16" height="6" y="6" fill="#E31D1C" mask="url(#d)"/>
      <g mask="url(#d)">
        <g transform="translate(4 3)">
          <mask id="f" fill="white">
            <use xlink:href="#e"/>
          </mask>
          <use fill="#FFFFFF" xlink:href="#e"/>
          <path fill="#279E19" d="M0,4.93333333 C1.28015151,4.55466919 2.61348485,4.37689141 4,4.4 C5.38651515,4.42310859 6.71984849,4.64533081 8,5.06666667 L8,6 L0,6 L0,4.93333333 Z" mask="url(#f)"/>
          <g mask="url(#f)">
            <g transform="translate(2.207 .267)">
              <path stroke="#026A16" stroke-width=".25" d="M1.84217615.304357724C1.4283757.164564813 1.07704439.0946683581.788182211.0946683581.499320031.0946683581.274653711.201353683.114183249.414724334M1.98010718.647878011C1.59933692.545738243 1.27604941.494668358 1.01024465.494668358.744439894.494668358.537706782.572618051.390045318.728517438M1.98010718.914544678C1.69842747.812404909 1.45927137.761335025 1.26263887.761335025 1.06600638.761335025.913072893.839284718.803838421.995184104M1.8064119 1.18121134C1.63238717 1.07907158 1.48463397 1.02800169 1.36315231 1.02800169 1.24167065 1.02800169 1.14718671 1.10595138 1.07970049 1.26185077M1.71142019 1.3913983C1.65923356 1.32691167 1.61492526 1.29466836 1.57849527 1.29466836 1.54206529 1.29466836 1.5137314 1.34388242 1.49349359 1.44231054"/>
              <path stroke="#026A16" stroke-width=".25" d="M1.84217615.304357724C1.4283757.164564813 1.07704439.0946683581.788182211.0946683581.499320031.0946683581.274653711.201353683.114183249.414724334M1.98010718.647878011C1.59933692.545738243 1.27604941.494668358 1.01024465.494668358.744439894.494668358.537706782.572618051.390045318.728517438M1.98010718.914544678C1.69842747.812404909 1.45927137.761335025 1.26263887.761335025 1.06600638.761335025.913072893.839284718.803838421.995184104M1.8064119 1.18121134C1.63238717 1.07907158 1.48463397 1.02800169 1.36315231 1.02800169 1.24167065 1.02800169 1.14718671 1.10595138 1.07970049 1.26185077M1.71142019 1.3913983C1.65923356 1.32691167 1.61492526 1.29466836 1.57849527 1.29466836 1.54206529 1.29466836 1.5137314 1.34388242 1.49349359 1.44231054" transform="matrix(-1 0 0 1 3.586 0)"/>
              <path fill="#FECA00" d="M1.69911685,1.53198985 C1.66103293,2.20069608 1.64199097,2.67112356 1.64199097,2.94327231 C1.64199097,3.21542105 1.66103293,3.64510227 1.69911685,4.23231595 L1.8460325,4.23231595 C1.8460325,3.60014598 1.8460325,3.17046476 1.8460325,2.94327231 C1.8460325,2.71607985 1.81729687,2.24565236 1.75982561,1.53198985 L1.69911685,1.53198985 Z"/>
            </g>
          </g>
          <g mask="url(#f)">
            <g transform="translate(.828 1.467)">
              <path fill="#C51918" d="M2.32709965,1.47219925 C2.00523781,1.66600832 1.84430689,2.04978739 1.84430689,2.62353644 L2.32709965,3.66270547 L3.19837619,3.66270547 L3.19837619,1.95140904 L2.32709965,1.47219925 Z"/>
              <path fill="#0A328C" d="M1.61171681,0.652804148 C0.86024538,0.903253695 0.484509665,1.49043028 0.484509665,2.41433392 L1.94491749,2.55448848 C1.89173431,2.0177208 2.01494585,1.62518787 2.31455211,1.37688969 L1.61171681,0.652804148 Z"/>
              <path stroke="#FFD018" stroke-width=".25" d="M1.14636398.124011384L3.08001002 2.11755565M.474782438.575410342L3.17175677 2.54564188M.0105232041 1.33799805L3.05025277 2.90195384"/>
              <path fill="#FECA00" d="M0.492279935,2.40348432 L2.50938443,2.65719802 L2.39582337,2.97389503 L2.0760336,2.97389503 L2.29383139,3.15282995 L2.78497,3.28213492 L2.78497,2.97389503 L3.2150976,2.97389503 L3.2150976,3.6287657 L2.29383139,3.6287657 L1.94048556,3.15282995 C1.74264106,3.37223296 1.54717561,3.48193446 1.3540892,3.48193446 C1.06445958,3.48193446 0.778916556,3.375052 0.778916556,3.01612501 C0.778916556,2.77684035 0.778916556,2.69360445 0.778916556,2.76641731 L0.492279935,2.65719802 L0.492279935,2.40348432 Z"/>
            </g>
          </g>
          <g mask="url(#f)">
            <g transform="matrix(-1 0 0 1 6.897 1.467)">
              <path fill="#C51918" d="M2.32709965,1.47219925 C2.00523781,1.66600832 1.84430689,2.04978739 1.84430689,2.62353644 L2.32709965,3.66270547 L3.19837619,3.66270547 L3.19837619,1.95140904 L2.32709965,1.47219925 Z"/>
              <path fill="#0A328C" d="M1.61171681,0.652804148 C0.86024538,0.903253695 0.484509665,1.49043028 0.484509665,2.41433392 L1.94491749,2.55448848 C1.89173431,2.0177208 2.01494585,1.62518787 2.31455211,1.37688969 L1.61171681,0.652804148 Z"/>
              <path stroke="#FFD018" stroke-width=".25" d="M1.14636398.124011384L3.08001002 2.11755565M.474782438.575410342L3.17175677 2.54564188M.0105232041 1.33799805L3.05025277 2.90195384"/>
              <path fill="#FECA00" d="M0.492279935,2.40348432 L2.50938443,2.65719802 L2.39582337,2.97389503 L2.0760336,2.97389503 L2.29383139,3.15282995 L2.78497,3.28213492 L2.78497,2.97389503 L3.2150976,2.97389503 L3.2150976,3.6287657 L2.29383139,3.6287657 L1.94048556,3.15282995 C1.74264106,3.37223296 1.54717561,3.48193446 1.3540892,3.48193446 C1.06445958,3.48193446 0.778916556,3.375052 0.778916556,3.01612501 C0.778916556,2.77684035 0.778916556,2.69360445 0.778916556,2.76641731 L0.492279935,2.65719802 L0.492279935,2.40348432 Z"/>
            </g>
          </g>
        </g>
      </g>
    </g>
  </g>
</svg>
