<svg xmlns="http://www.w3.org/2000/svg" xmlns:xlink="http://www.w3.org/1999/xlink" width="16" height="12" viewBox="0 0 16 12">
  <defs>
    <rect id="a" width="16" height="12"/>
    <rect id="c" width="16" height="12"/>
  </defs>
  <g fill="none" fill-rule="evenodd">
    <mask id="b" fill="white">
      <use xlink:href="#a"/>
    </mask>
    <g mask="url(#b)">
      <mask id="d" fill="white">
        <use xlink:href="#c"/>
      </mask>
      <use fill="#F7FCFF" xlink:href="#c"/>
      <rect width="16" height="4" fill="#FF8C1A" mask="url(#d)"/>
      <rect width="16" height="4" y="8" fill="#5EAA22" mask="url(#d)"/>
      <g fill="#3D58DB" mask="url(#d)">
        <g transform="translate(6 4)">
          <path fill-rule="nonzero" d="M2,3.5 C2.82842712,3.5 3.5,2.82842712 3.5,2 C3.5,1.17157288 2.82842712,0.5 2,0.5 C1.17157288,0.5 0.5,1.17157288 0.5,2 C0.5,2.82842712 1.17157288,3.5 2,3.5 Z M2,4 C0.8954305,4 0,3.1045695 0,2 C0,0.8954305 0.8954305,0 2,0 C3.1045695,0 4,0.8954305 4,2 C4,3.1045695 3.1045695,4 2,4 Z"/>
          <polygon points="1.997 2.43 1.58 3.967 1.824 2.394 .818 3.628 1.682 2.29 .26 3.008 1.593 2.137 .003 2.215 1.575 1.961 .09 1.386 1.629 1.793 .507 .664 1.748 1.662 1.182 .173 1.909 1.59 1.997 0 2.086 1.59 2.813 .173 2.247 1.662 3.488 .664 2.365 1.793 3.905 1.386 2.42 1.961 3.992 2.215 2.401 2.137 3.734 3.008 2.313 2.29 3.176 3.628 2.17 2.394 2.414 3.967"/>
        </g>
      </g>
    </g>
  </g>
</svg>
