<svg width="16" height="12" viewBox="0 0 16 12" fill="none" xmlns="http://www.w3.org/2000/svg">
<g clip-path="url(#clip0_270_55172)">
<rect width="16" height="12" fill="white"/>
<path fill-rule="evenodd" clip-rule="evenodd" d="M0 0V12H16V0H0Z" fill="#F7FCFF"/>
<path fill-rule="evenodd" clip-rule="evenodd" d="M-0.752808 1.64574L-0.00923526 2.35426C0.604778 1.77383 1.18414 1.5 1.73472 1.5C2.00073 1.5 2.11402 1.56425 2.4208 1.85426C2.90742 2.31425 3.23492 2.5 3.85046 2.5C4.46601 2.5 4.7935 2.31425 5.28012 1.85426C5.5869 1.56425 5.70019 1.5 5.9662 1.5C6.23221 1.5 6.3455 1.56425 6.65229 1.85426C7.1389 2.31425 7.4664 2.5 8.08194 2.5C8.69749 2.5 9.02498 2.31425 9.5116 1.85426C9.81839 1.56425 9.93167 1.5 10.1977 1.5C10.4637 1.5 10.577 1.56425 10.8838 1.85426C11.3704 2.31425 11.6979 2.5 12.3134 2.5C12.929 2.5 13.2565 2.31425 13.7431 1.85426C14.0499 1.56425 14.1632 1.5 14.4292 1.5C14.9797 1.5 15.5591 1.77383 16.1731 2.35426L16.9167 1.64574C16.1202 0.892834 15.2891 0.5 14.4292 0.5C13.8136 0.5 13.4861 0.685748 12.9995 1.14574C12.6927 1.43575 12.5794 1.5 12.3134 1.5C12.0474 1.5 11.9341 1.43575 11.6273 1.14574C11.1407 0.685748 10.8132 0.5 10.1977 0.5C9.58214 0.5 9.25464 0.685748 8.76803 1.14574C8.46124 1.43575 8.34796 1.5 8.08194 1.5C7.81593 1.5 7.70264 1.43575 7.39586 1.14574C6.90924 0.685748 6.58175 0.5 5.9662 0.5C5.35066 0.5 5.02316 0.685748 4.53654 1.14574C4.22976 1.43575 4.11647 1.5 3.85046 1.5C3.58445 1.5 3.47116 1.43575 3.16438 1.14574C2.67776 0.685748 2.35026 0.5 1.73472 0.5C0.874809 0.5 0.0436732 0.892834 -0.752808 1.64574ZM-0.00923526 4.35426L-0.752808 3.64574C0.0436732 2.89283 0.874809 2.5 1.73472 2.5C2.35026 2.5 2.67776 2.68575 3.16438 3.14574C3.47116 3.43575 3.58445 3.5 3.85046 3.5C4.11647 3.5 4.22976 3.43575 4.53654 3.14574C5.02316 2.68575 5.35066 2.5 5.9662 2.5C6.58175 2.5 6.90924 2.68575 7.39586 3.14574C7.70264 3.43575 7.81593 3.5 8.08194 3.5C8.34796 3.5 8.46124 3.43575 8.76803 3.14574C9.25464 2.68575 9.58214 2.5 10.1977 2.5C10.8132 2.5 11.1407 2.68575 11.6273 3.14574C11.9341 3.43575 12.0474 3.5 12.3134 3.5C12.5794 3.5 12.6927 3.43575 12.9995 3.14574C13.4861 2.68575 13.8136 2.5 14.4292 2.5C15.2891 2.5 16.1202 2.89283 16.9167 3.64574L16.1731 4.35426C15.5591 3.77383 14.9797 3.5 14.4292 3.5C14.1632 3.5 14.0499 3.56425 13.7431 3.85426C13.2565 4.31425 12.929 4.5 12.3134 4.5C11.6979 4.5 11.3704 4.31425 10.8838 3.85426C10.577 3.56425 10.4637 3.5 10.1977 3.5C9.93167 3.5 9.81839 3.56425 9.5116 3.85426C9.02498 4.31425 8.69749 4.5 8.08194 4.5C7.4664 4.5 7.1389 4.31425 6.65229 3.85426C6.3455 3.56425 6.23221 3.5 5.9662 3.5C5.70019 3.5 5.5869 3.56425 5.28012 3.85426C4.7935 4.31425 4.46601 4.5 3.85046 4.5C3.23492 4.5 2.90742 4.31425 2.4208 3.85426C2.11402 3.56425 2.00073 3.5 1.73472 3.5C1.18414 3.5 0.604778 3.77383 -0.00923526 4.35426ZM-0.00923526 6.35426L-0.752808 5.64574C0.0436732 4.89283 0.874809 4.5 1.73472 4.5C2.35026 4.5 2.67776 4.68575 3.16438 5.14574C3.47116 5.43575 3.58445 5.5 3.85046 5.5C4.11647 5.5 4.22976 5.43575 4.53654 5.14574C5.02316 4.68575 5.35066 4.5 5.9662 4.5C6.58175 4.5 6.90924 4.68575 7.39586 5.14574C7.70264 5.43575 7.81593 5.5 8.08194 5.5C8.34796 5.5 8.46124 5.43575 8.76803 5.14574C9.25464 4.68575 9.58214 4.5 10.1977 4.5C10.8132 4.5 11.1407 4.68575 11.6273 5.14574C11.9341 5.43575 12.0474 5.5 12.3134 5.5C12.5794 5.5 12.6927 5.43575 12.9995 5.14574C13.4861 4.68575 13.8136 4.5 14.4292 4.5C15.2891 4.5 16.1202 4.89283 16.9167 5.64574L16.1731 6.35426C15.5591 5.77383 14.9797 5.5 14.4292 5.5C14.1632 5.5 14.0499 5.56425 13.7431 5.85426C13.2565 6.31425 12.929 6.5 12.3134 6.5C11.6979 6.5 11.3704 6.31425 10.8838 5.85426C10.577 5.56425 10.4637 5.5 10.1977 5.5C9.93167 5.5 9.81839 5.56425 9.5116 5.85426C9.02498 6.31425 8.69749 6.5 8.08194 6.5C7.4664 6.5 7.1389 6.31425 6.65229 5.85426C6.3455 5.56425 6.23221 5.5 5.9662 5.5C5.70019 5.5 5.5869 5.56425 5.28012 5.85426C4.7935 6.31425 4.46601 6.5 3.85046 6.5C3.23492 6.5 2.90742 6.31425 2.4208 5.85426C2.11402 5.56425 2.00073 5.5 1.73472 5.5C1.18414 5.5 0.604778 5.77383 -0.00923526 6.35426ZM-0.00923526 8.35426L-0.752808 7.64574C0.0436732 6.89283 0.874809 6.5 1.73472 6.5C2.35026 6.5 2.67776 6.68575 3.16438 7.14574C3.47116 7.43575 3.58445 7.5 3.85046 7.5C4.11647 7.5 4.22976 7.43575 4.53654 7.14574C5.02316 6.68575 5.35066 6.5 5.9662 6.5C6.58175 6.5 6.90924 6.68575 7.39586 7.14574C7.70264 7.43575 7.81593 7.5 8.08194 7.5C8.34796 7.5 8.46124 7.43575 8.76803 7.14574C9.25464 6.68575 9.58214 6.5 10.1977 6.5C10.8132 6.5 11.1407 6.68575 11.6273 7.14574C11.9341 7.43575 12.0474 7.5 12.3134 7.5C12.5794 7.5 12.6927 7.43575 12.9995 7.14574C13.4861 6.68575 13.8136 6.5 14.4292 6.5C15.2891 6.5 16.1202 6.89283 16.9167 7.64574L16.1731 8.35426C15.5591 7.77383 14.9797 7.5 14.4292 7.5C14.1632 7.5 14.0499 7.56425 13.7431 7.85426C13.2565 8.31425 12.929 8.5 12.3134 8.5C11.6979 8.5 11.3704 8.31425 10.8838 7.85426C10.577 7.56425 10.4637 7.5 10.1977 7.5C9.93167 7.5 9.81839 7.56425 9.5116 7.85426C9.02498 8.31425 8.69749 8.5 8.08194 8.5C7.4664 8.5 7.1389 8.31425 6.65229 7.85426C6.3455 7.56425 6.23221 7.5 5.9662 7.5C5.70019 7.5 5.5869 7.56425 5.28012 7.85426C4.7935 8.31425 4.46601 8.5 3.85046 8.5C3.23492 8.5 2.90742 8.31425 2.4208 7.85426C2.11402 7.56425 2.00073 7.5 1.73472 7.5C1.18414 7.5 0.604778 7.77383 -0.00923526 8.35426ZM-0.00923526 10.3543L-0.752808 9.64574C0.0436732 8.89283 0.874809 8.5 1.73472 8.5C2.35026 8.5 2.67776 8.68575 3.16438 9.14574C3.47116 9.43575 3.58445 9.5 3.85046 9.5C4.11647 9.5 4.22976 9.43575 4.53654 9.14574C5.02316 8.68575 5.35066 8.5 5.9662 8.5C6.58175 8.5 6.90924 8.68575 7.39586 9.14574C7.70264 9.43575 7.81593 9.5 8.08194 9.5C8.34796 9.5 8.46124 9.43575 8.76803 9.14574C9.25464 8.68575 9.58214 8.5 10.1977 8.5C10.8132 8.5 11.1407 8.68575 11.6273 9.14574C11.9341 9.43575 12.0474 9.5 12.3134 9.5C12.5794 9.5 12.6927 9.43575 12.9995 9.14574C13.4861 8.68575 13.8136 8.5 14.4292 8.5C15.2891 8.5 16.1202 8.89283 16.9167 9.64574L16.1731 10.3543C15.5591 9.77383 14.9797 9.5 14.4292 9.5C14.1632 9.5 14.0499 9.56425 13.7431 9.85426C13.2565 10.3143 12.929 10.5 12.3134 10.5C11.6979 10.5 11.3704 10.3143 10.8838 9.85426C10.577 9.56425 10.4637 9.5 10.1977 9.5C9.93167 9.5 9.81839 9.56425 9.5116 9.85426C9.02498 10.3143 8.69749 10.5 8.08194 10.5C7.4664 10.5 7.1389 10.3143 6.65229 9.85426C6.3455 9.56425 6.23221 9.5 5.9662 9.5C5.70019 9.5 5.5869 9.56425 5.28012 9.85426C4.7935 10.3143 4.46601 10.5 3.85046 10.5C3.23492 10.5 2.90742 10.3143 2.4208 9.85426C2.11402 9.56425 2.00073 9.5 1.73472 9.5C1.18414 9.5 0.604778 9.77383 -0.00923526 10.3543ZM-0.00923526 12.3543L-0.752808 11.6457C0.0436732 10.8928 0.874809 10.5 1.73472 10.5C2.35026 10.5 2.67776 10.6857 3.16438 11.1457C3.47116 11.4357 3.58445 11.5 3.85046 11.5C4.11647 11.5 4.22976 11.4357 4.53654 11.1457C5.02316 10.6857 5.35066 10.5 5.9662 10.5C6.58175 10.5 6.90924 10.6857 7.39586 11.1457C7.70264 11.4357 7.81593 11.5 8.08194 11.5C8.34796 11.5 8.46124 11.4357 8.76803 11.1457C9.25464 10.6857 9.58214 10.5 10.1977 10.5C10.8132 10.5 11.1407 10.6857 11.6273 11.1457C11.9341 11.4357 12.0474 11.5 12.3134 11.5C12.5794 11.5 12.6927 11.4357 12.9995 11.1457C13.4861 10.6857 13.8136 10.5 14.4292 10.5C15.2891 10.5 16.1202 10.8928 16.9167 11.6457L16.1731 12.3543C15.5591 11.7738 14.9797 11.5 14.4292 11.5C14.1632 11.5 14.0499 11.5643 13.7431 11.8543C13.2565 12.3143 12.929 12.5 12.3134 12.5C11.6979 12.5 11.3704 12.3143 10.8838 11.8543C10.577 11.5643 10.4637 11.5 10.1977 11.5C9.93167 11.5 9.81839 11.5643 9.5116 11.8543C9.02498 12.3143 8.69749 12.5 8.08194 12.5C7.4664 12.5 7.1389 12.3143 6.65229 11.8543C6.3455 11.5643 6.23221 11.5 5.9662 11.5C5.70019 11.5 5.5869 11.5643 5.28012 11.8543C4.7935 12.3143 4.46601 12.5 3.85046 12.5C3.23492 12.5 2.90742 12.3143 2.4208 11.8543C2.11402 11.5643 2.00073 11.5 1.73472 11.5C1.18414 11.5 0.604778 11.7738 -0.00923526 12.3543Z" fill="#2E42A5"/>
<g clip-path="url(#clip1_270_55172)">
<rect width="9" height="7" fill="#2E42A5"/>
<path d="M-1.00208 6.49991L0.9784 7.36851L9.045 0.944368L10.0897 -0.346397L7.97182 -0.636709L4.68165 2.13164L2.0334 3.99685L-1.00208 6.49991Z" fill="#F7FCFF"/>
<path d="M-0.730957 7.10847L0.278004 7.61253L9.71451 -0.466324H8.29782L-0.730957 7.10847Z" fill="#F50100"/>
<path d="M10.0022 6.49991L8.02172 7.36851L-0.0448761 0.944368L-1.08953 -0.346397L1.0283 -0.636709L4.31847 2.13164L6.96673 3.99685L10.0022 6.49991Z" fill="#F7FCFF"/>
<path d="M9.93457 6.93667L8.92561 7.44073L4.90745 3.98176L3.71615 3.59529L-1.1901 -0.341973H0.226597L5.13009 3.50184L6.43256 3.96525L9.93457 6.93667Z" fill="#F50100"/>
<path fill-rule="evenodd" clip-rule="evenodd" d="M4.99226 0H3.99226V3H0V4H3.99226V7H4.99226V4H9V3H4.99226V0Z" fill="#F50100"/>
<path fill-rule="evenodd" clip-rule="evenodd" d="M3.24226 -0.75H5.74226V2.25H9.75V4.75H5.74226V7.75H3.24226V4.75H-0.75V2.25H3.24226V-0.75ZM3.99226 3H0V4H3.99226V7H4.99226V4H9V3H4.99226V0H3.99226V3Z" fill="#F7FCFF"/>
</g>
<rect x="10.2" y="4.68932" width="0.5" height="6.31068" rx="0.25" fill="#D86D00"/>
<path d="M10.2021 1.02876C10.713 1.72937 10.7778 2.67017 10.713 3.51304L10.3141 3.48416C10.3759 2.68011 10.2021 1.02876 10.2021 1.02876Z" fill="#449A01"/>
<path d="M10.8535 3.69206L10.4856 3.53969C10.8403 2.41743 12.6097 1.46187 12.6097 1.46187C11.8171 1.84057 11.5477 2.86738 10.8535 3.69206Z" fill="#449A01"/>
<path d="M10.6882 3.92521L10.495 3.58518C11.4408 2.92754 12.969 2.78564 12.969 2.78564C12.1806 3.00935 11.3844 3.55225 10.6882 3.92521Z" fill="#449A01"/>
<path d="M10.4421 4.09063L10.6088 3.73759C12.459 4.31191 12.7302 5.27224 12.7302 5.27224C12.4874 5.05794 11.7158 4.65734 10.4421 4.09063Z" fill="#449A01"/>
<path d="M10.2476 4.06487L10.6404 3.99182C10.7764 4.68127 11.127 5.09902 11.3125 5.54158C11.3125 5.54158 10.2742 5.07781 10.2476 4.06487Z" fill="#449A01"/>
<path d="M10.2177 3.74155L10.6414 3.84807C9.94636 4.69774 8.91361 5.14407 8.50525 5.28998C8.50525 5.28998 9.40256 4.48066 10.2177 3.74155Z" fill="#449A01"/>
<path d="M10.4058 3.55764L10.3414 3.95243C9.51383 3.70002 8.02417 3.80577 8.02417 3.80577C8.6495 3.65768 9.51383 3.41232 10.4058 3.55764Z" fill="#449A01"/>
<path d="M10.4773 3.35563L10.3146 3.71039C9.09265 3.18206 8.43958 2.19453 8.43958 2.19453C8.48104 2.37618 9.39832 2.8891 10.4773 3.35563Z" fill="#449A01"/>
<path fill-rule="evenodd" clip-rule="evenodd" d="M10.5 4C10.7761 4 11 3.77614 11 3.5C11 3.22386 10.7761 3 10.5 3C10.2239 3 10 3.22386 10 3.5C10 3.77614 10.2239 4 10.5 4Z" fill="#449A01"/>
<path fill-rule="evenodd" clip-rule="evenodd" d="M11.956 7.65377V7.58159C11.7255 7.39962 11.4842 7.30864 11.232 7.30864C10.9903 7.19092 10.7455 7.14522 10.4979 7.17155C10.4979 7.17071 10.498 7.17028 10.498 7.17028C10.1256 7.13019 9.7503 7.30864 9.7503 7.30864C9.37202 7.30864 9.02637 7.58159 9.02637 7.58159V7.65377L9.47822 8.15311C9.47822 8.15311 9.60541 8.63373 10.4961 8.52077V8.52199C10.4961 8.52199 11.0859 8.50428 11.1273 8.48911C11.1438 8.48309 11.1608 8.47762 11.1782 8.47202C11.2938 8.43491 11.4256 8.39255 11.5041 8.15311L11.956 7.65377ZM10.4961 7.19363C10.4833 7.35988 10.4099 8.36202 10.4961 8.51739V7.19363Z" fill="#F50100"/>
<path fill-rule="evenodd" clip-rule="evenodd" d="M10.0973 6.87593C9.89243 6.87593 9.8083 6.93083 9.76024 7.09293C9.72961 7.19622 9.75932 7.28439 9.85563 7.36669L9.80068 7.44455C9.68096 7.34226 9.63565 7.21789 9.67032 7.07965C9.43841 7.0709 9.26521 7.0979 9.15161 7.15891C9.05311 7.21182 9.03509 7.34605 9.10963 7.57956L9.02509 7.61223C8.93738 7.33744 8.96243 7.15082 9.11231 7.07032C9.24437 6.99938 9.43685 6.97051 9.69068 6.98183L9.6893 7.01953C9.75432 6.84484 9.8739 6.77734 10.0973 6.77734C10.2317 6.77734 10.3409 6.81045 10.4232 6.87767V6.83426H10.6024V6.8593C10.6796 6.80953 10.7767 6.78496 10.8925 6.78496C11.1205 6.78496 11.2404 6.8553 11.3045 7.03821L11.3042 7.03113C11.558 7.01981 11.7505 7.04868 11.8826 7.11961C12.0325 7.20011 12.0575 7.38673 11.9698 7.66153L11.8853 7.62886C11.9598 7.39535 11.9418 7.26111 11.8433 7.20821C11.7302 7.14745 11.558 7.12042 11.3275 7.12884C11.3442 7.25047 11.2967 7.36024 11.1891 7.45217L11.1341 7.3743C11.2304 7.29201 11.2602 7.20384 11.2295 7.10054C11.1815 6.93845 11.0973 6.88355 10.8925 6.88355C10.7653 6.88355 10.6692 6.91616 10.6024 6.98005V7.41324L10.6024 7.47508H10.4232V7.40562H10.3874V6.97243C10.3205 6.90854 10.2245 6.87593 10.0973 6.87593ZM9.08416 7.70257L9.05346 7.73847L9.46438 8.16386C9.47771 8.19088 9.48957 8.21585 9.49995 8.23871C9.51101 8.28761 9.52764 8.34182 9.55129 8.37495C9.55345 8.38457 9.55453 8.39255 9.55453 8.39885C9.55453 8.44967 9.67468 8.47983 9.90919 8.51081C10.0929 8.53508 10.3097 8.55137 10.4871 8.55381V8.55412L10.5095 8.55404L10.532 8.55412V8.55381C10.7094 8.55137 10.9262 8.53508 11.1099 8.51081C11.3444 8.47983 11.4646 8.44967 11.4646 8.39885C11.4646 8.36554 11.4948 8.28535 11.5547 8.16386L11.9656 7.73847L11.9349 7.70257L11.5214 8.13067L11.5171 8.13683C11.4996 8.1721 11.4845 8.20405 11.4718 8.2328C11.4838 8.17787 11.4888 8.13116 11.4888 8.13116C11.4888 8.13116 11.0263 7.98636 10.5032 7.97989V7.97967L10.4852 7.97972L10.4672 7.97967V7.97989C9.99505 7.98573 9.57232 8.10426 9.49444 8.12729L9.08416 7.70257ZM11.4232 8.36891C11.4033 8.39985 11.3782 8.41598 11.3468 8.39981C11.2489 8.34943 10.6017 8.30214 10.4852 8.29398C10.3687 8.30214 9.72151 8.34943 9.62364 8.39981L9.61882 8.40207C9.63328 8.4079 9.65309 8.41401 9.67766 8.42018C9.73529 8.43464 9.81731 8.44902 9.91453 8.46187C10.1044 8.48695 10.3301 8.50345 10.5095 8.50475C10.689 8.50345 10.9147 8.48695 11.1046 8.46187C11.2018 8.44902 11.2838 8.43464 11.3414 8.42018C11.3707 8.41282 11.3933 8.40555 11.408 8.39872C11.4133 8.39627 11.4174 8.394 11.42 8.3921C11.4204 8.38518 11.4215 8.37745 11.4232 8.36891ZM11.4761 8.39165L11.4769 8.39078L11.4766 8.39102L11.4761 8.39165Z" fill="#FECA00"/>
<path d="M9.70178 6.94158L9.70099 6.99086C9.30375 6.98323 9.07589 7.04702 9.01805 7.17415C8.95825 7.30558 8.96937 7.46536 9.05316 7.65516L9.01287 7.6767C8.92346 7.47419 8.91126 7.29876 8.97799 7.15208C9.04668 7.0011 9.28773 6.93362 9.70178 6.94158Z" fill="white"/>
<path d="M9.77863 7.37869L9.75566 7.42101C9.66915 7.36418 9.62585 7.26718 9.62585 7.13352C9.62585 6.94141 9.71579 6.82875 9.91473 6.75166C10.0417 6.70246 10.2151 6.72263 10.4356 6.81056L10.4203 6.8569C10.2087 6.77249 10.045 6.75345 9.92962 6.79816C9.74714 6.86887 9.67065 6.96467 9.67065 7.13352C9.67065 7.25082 9.70662 7.33138 9.77863 7.37869Z" fill="white"/>
<path d="M11.2651 6.99087L11.2659 7.04016C11.6632 7.03253 11.891 7.09631 11.9489 7.22344C12.0087 7.35488 11.9975 7.51465 11.9138 7.70445L11.9541 7.72599C12.0435 7.52349 12.0557 7.34806 11.9889 7.20138C11.9202 7.05039 11.6792 6.98292 11.2651 6.99087Z" fill="white"/>
<path d="M11.1248 7.38893L11.1478 7.43126C11.2343 7.37442 11.2776 7.27743 11.2776 7.14376C11.2776 6.95165 11.1877 6.839 10.9887 6.76191C10.8617 6.71271 10.6883 6.73288 10.4679 6.82081L10.4832 6.86715C10.6947 6.78274 10.8585 6.7637 10.9738 6.8084C11.1563 6.87911 11.2328 6.97492 11.2328 7.14376C11.2328 7.26106 11.1968 7.34162 11.1248 7.38893Z" fill="white"/>
</g>
<defs>
<clipPath id="clip0_270_55172">
<rect width="16" height="12" fill="white"/>
</clipPath>
<clipPath id="clip1_270_55172">
<rect width="9" height="7" fill="white"/>
</clipPath>
</defs>
</svg>
