<svg width="16" height="12" viewBox="0 0 16 12" fill="none" xmlns="http://www.w3.org/2000/svg">
<g clip-path="url(#clip0_270_55036)">
<rect width="16" height="12" fill="white"/>
<path fill-rule="evenodd" clip-rule="evenodd" d="M0 0H16V12H0V0Z" fill="#0067C3"/>
<path fill-rule="evenodd" clip-rule="evenodd" d="M0 0V4H16V0H0Z" fill="#272727"/>
<path fill-rule="evenodd" clip-rule="evenodd" d="M0 8V12H16V8H0Z" fill="#4E8B1D"/>
<path d="M0 3.5H-0.5V4V8V8.5H0H16H16.5V8V4V3.5H16H0Z" fill="#E31D1C" stroke="#F7FCFF"/>
<path d="M9.81171 2.01525C9.92589 1.80988 10.2329 1.58563 10.7327 1.34247C10.7498 1.33412 10.7706 1.33364 10.7882 1.34119C10.8181 1.35397 10.8305 1.38558 10.8158 1.41171L5.63701 10.7258L5.36737 10.6104L9.93242 2.40014C9.7257 2.3706 9.68546 2.2423 9.81171 2.01525Z" fill="white"/>
<path d="M6.18277 2.01525C6.30901 2.2423 6.26877 2.3706 6.06205 2.40014L10.6271 10.6104L10.3575 10.7258L5.17869 1.41171C5.16396 1.38558 5.17637 1.35397 5.20624 1.34119C5.22389 1.33364 5.24463 1.33412 5.26181 1.34247C5.76159 1.58563 6.06858 1.80988 6.18277 2.01525Z" fill="white"/>
<path d="M2.49999 9.94737C4.81958 9.94737 6.69999 8.29789 6.69999 6.26316C6.69999 4.22843 4.81958 2.57895 2.49999 2.57895C0.180392 2.57895 -1.70001 4.22843 -1.70001 6.26316C-1.70001 8.29789 0.180392 9.94737 2.49999 9.94737Z" fill="#272727"/>
<path d="M13.5 9.94737C15.8196 9.94737 17.7 8.29789 17.7 6.26316C17.7 4.22843 15.8196 2.57895 13.5 2.57895C11.1804 2.57895 9.29999 4.22843 9.29999 6.26316C9.29999 8.29789 11.1804 9.94737 13.5 9.94737Z" fill="#272727"/>
<path fill-rule="evenodd" clip-rule="evenodd" d="M8.11996 5.69999C8.39383 5.52932 8.59996 4.78593 8.59996 3.89474C8.59996 3.00354 8.39383 2.26016 8.11996 2.08948V5.69999ZM7.81996 5.65251C7.57654 5.41778 7.39996 4.71957 7.39996 3.89474C7.39996 3.06991 7.57654 2.3717 7.81996 2.13696V5.65251ZM7.81996 6.87381V10.3894C7.57654 10.1546 7.39996 9.45641 7.39996 8.63158C7.39996 7.80675 7.57654 7.10854 7.81996 6.87381ZM8.11996 10.4368V6.82632C8.39383 6.997 8.59996 7.74039 8.59996 8.63158C8.59996 9.52278 8.39383 10.2662 8.11996 10.4368Z" fill="#F7FCFF"/>
<path d="M7.99996 5.73684C8.33133 5.73684 8.59996 5.97248 8.59996 6.26316C8.59996 6.55383 8.33133 6.78947 7.99996 6.78947C7.66859 6.78947 7.39996 6.55383 7.39996 6.26316C7.39996 5.97248 7.66859 5.73684 7.99996 5.73684Z" fill="#F7FCFF"/>
</g>
<defs>
<clipPath id="clip0_270_55036">
<rect width="16" height="12" fill="white"/>
</clipPath>
</defs>
</svg>
