<svg xmlns="http://www.w3.org/2000/svg" xmlns:xlink="http://www.w3.org/1999/xlink" width="16" height="12" viewBox="0 0 16 12">
  <defs>
    <rect id="a" width="16" height="12"/>
    <rect id="c" width="16" height="12"/>
  </defs>
  <g fill="none" fill-rule="evenodd">
    <mask id="b" fill="white">
      <use xlink:href="#a"/>
    </mask>
    <g mask="url(#b)">
      <mask id="d" fill="white">
        <use xlink:href="#c"/>
      </mask>
      <use fill="#C51918" xlink:href="#c"/>
      <g fill="#FFDC17" mask="url(#d)">
        <path d="M3.40887508,3.32454634 C4.05969114,3.39783584 4.48357383,3.61182606 4.70312588,3.80186889 L4.93228863,4.00023069 L5.17770095,3.81518267 C5.48666944,3.58221147 5.95179106,3.35631671 6.56155504,3.3129652 C6.65211627,3.52183395 6.70231636,3.75226653 6.70231636,3.99442396 C6.70231636,4.94138024 5.93465662,5.70903998 4.98770034,5.70903998 C4.04074406,5.70903998 3.27308432,4.94138024 3.27308432,3.99442396 C3.27308432,3.75673367 3.32144939,3.53033965 3.40887508,3.32454634 Z M3.75092804,2.80685926 C4.06293838,2.4820027 4.5017068,2.27980794 4.98770034,2.27980794 C5.46611689,2.27980794 5.89876939,2.47574712 6.2097871,2.79175475 C5.72036751,2.84851667 5.3053425,2.97122088 4.96836077,3.16211089 C4.66791955,2.98973196 4.26178659,2.87321025 3.75092804,2.80685926 Z M4.8383718,6.92960652 L4.52995011,7.91312282 L4.45858229,6.88653855 C4.35496468,6.86807289 4.25319967,6.84431391 4.15358192,6.8155539 L3.62567381,7.70054714 L3.79470281,6.68658942 C3.69840592,6.64486152 3.60475243,6.59824982 3.51406058,6.54706998 L2.79519739,7.2868558 L3.19521093,6.33939066 C3.11135576,6.2768518 3.03092304,6.21004133 2.95424127,6.13928504 L2.08329206,6.69435099 L2.69218438,5.86478243 C2.62501117,5.7848312 2.56199764,5.70132105 2.50347345,5.61457898 L1.5283368,5.95497482 L2.31237675,5.28816804 C2.26556158,5.19498938 2.22354286,5.099024 2.18664127,5.00058994 L1.16024941,5.10858723 L2.07726236,4.63957222 C2.05361273,4.53841759 2.03517931,4.43527973 2.0222584,4.33045252 L0.998873574,4.20081721 L2.00002578,3.95425069 C2.00046472,3.84828858 2.00650433,3.74363729 2.0178662,3.64057297 L1.0529091,3.28060286 L2.08301134,3.26970253 C2.10796321,3.16691573 2.13831046,3.06621394 2.17373926,2.96790842 L1.31944292,2.39755319 L2.32392884,2.62248796 C2.3721277,2.52859077 2.42521854,2.43757801 2.48286836,2.34978 L1.78410613,1.59927363 L2.70958901,2.04809323 C2.77810523,1.96801878 2.85082992,1.8915983 2.92742413,1.81916798 L2.42184861,0.928799633 L3.2179943,1.57718706 C3.30304933,1.51499408 3.39154433,1.4571619 3.48314393,1.40402315 L3.1982895,0.422276632 L3.82207864,1.23511237 C3.91903458,1.19424213 4.01861261,1.15830198 4.12049292,1.12760916 L4.07157068,0.107011411 L4.48992652,1.04144948 C4.59313807,1.02418218 4.69814544,1.01215847 4.80466051,1.00566414 L4.99461332,2.84217094e-14 L5.18465179,1.00611766 C5.29097246,1.01285641 5.39578243,1.025105 5.49879457,1.04257867 L5.91765596,0.107011411 L5.86863065,1.1297594 C5.96994186,1.16055576 6.06896427,1.19654463 6.16538239,1.23741307 L6.79093714,0.422276632 L6.50504173,1.40761085 C6.59580862,1.460556 6.68351037,1.51811635 6.76781917,1.57996677 L7.56737803,0.928799633 L7.05928059,1.82360931 C7.13494209,1.8954668 7.20680532,1.97122726 7.27454152,2.05056463 L8.20512051,1.59927363 L7.50212755,2.35432402 C7.55892431,2.44116892 7.61126617,2.53114569 7.65883205,2.62393584 L8.66978372,2.39755319 L7.80967448,2.9717893 C7.84449647,3.06883937 7.87436819,3.16821793 7.89898827,3.26962606 L8.93631754,3.28060286 L7.96443561,3.64315622 C7.97555134,3.74480944 7.98148994,3.84800343 7.98198451,3.95247342 L8.99035307,4.20081721 L7.95964529,4.33138014 C7.94687065,4.43475068 7.92873547,4.53647735 7.90552393,4.63627824 L8.82897723,5.10858723 L7.79565035,4.99986024 C7.75924965,5.09703682 7.71786219,5.19180877 7.6717964,5.28387016 L8.46088984,5.95497482 L7.47991784,5.61254201 C7.42212275,5.69835641 7.35993643,5.78101384 7.29367752,5.86019823 L7.90593459,6.69435099 L7.0307194,6.13656629 C6.95482302,6.20678576 6.87523878,6.27313424 6.79228638,6.33529461 L7.19402925,7.2868558 L6.47260969,6.5444392 C6.38257845,6.59545838 6.28961666,6.64197096 6.19403667,6.68366711 L6.36355283,7.70054714 L5.83458206,6.81377245 C5.73534327,6.84265358 5.63396369,6.8665688 5.53073543,6.88522839 L5.45927653,7.91312282 L5.15074131,6.92924451 C5.09784971,6.93200506 5.04459396,6.93340271 4.99100909,6.93340271 C4.93981947,6.93340271 4.88893019,6.93212722 4.8383718,6.92960652 Z M4.97300819,6.20741749 C6.22559334,6.20741749 7.24101424,5.20024885 7.24101424,3.95784338 C7.24101424,2.7154379 6.22559334,1.70826927 4.97300819,1.70826927 C3.72042303,1.70826927 2.70500214,2.7154379 2.70500214,3.95784338 C2.70500214,5.20024885 3.72042303,6.20741749 4.97300819,6.20741749 Z" transform="translate(3 2)"/>
      </g>
    </g>
  </g>
</svg>
