<svg width="16" height="12" viewBox="0 0 16 12" fill="none" xmlns="http://www.w3.org/2000/svg">
<g clip-path="url(#clip0_270_55202)">
<rect width="16" height="12" fill="white"/>
<path d="M0 0H16V12H0V0Z" fill="#032EA1"/>
<path d="M0 3H16V9H0V3Z" fill="#E00025"/>
<path fill-rule="evenodd" clip-rule="evenodd" d="M5.16705 5.52V5.55H6.11205V5.52H7.43505V5.58H8.32305V5.52H9.64905V5.55H10.594V5.52H10.704V6.826H5.00405V5.52H5.16705ZM5.00405 6.826H4.70205V7.075H5.39205V7.08H4.39605V7.5057H5.39205V7.51H4.20105V7.885H11.5601V7.51H10.366V7.5057H11.368V7.08H10.366V7.075H11.062V6.826H10.704V6.834H5.00405V6.826ZM10.594 5.52V4.68C10.5798 4.68 10.5703 4.70019 10.5587 4.7246C10.5411 4.76188 10.5188 4.809 10.468 4.809C10.423 4.809 10.426 4.755 10.453 4.713C10.474 4.674 10.501 4.623 10.465 4.524C10.438 4.599 10.372 4.623 10.384 4.578C10.3907 4.55243 10.4015 4.53344 10.4117 4.51555C10.4338 4.47677 10.4529 4.44317 10.42 4.359C10.405 4.461 10.339 4.458 10.354 4.398C10.3584 4.38124 10.364 4.36678 10.3693 4.35311C10.3859 4.31053 10.3994 4.27568 10.363 4.203C10.336 4.314 10.303 4.308 10.303 4.239C10.303 4.137 10.303 4.029 10.177 3.99C10.177 3.99 10.168 3.9 10.12 3.9C10.075 3.9 10.066 3.99 10.066 3.99C9.93991 4.02814 9.93998 4.13511 9.94005 4.2324C9.94005 4.23461 9.94005 4.23681 9.94005 4.239C9.94005 4.308 9.90705 4.314 9.88005 4.203C9.84371 4.27568 9.85724 4.31053 9.87376 4.35311C9.87907 4.36678 9.88468 4.38124 9.88905 4.398C9.90405 4.458 9.83805 4.461 9.82305 4.359C9.7902 4.44317 9.80933 4.47677 9.83142 4.51555C9.8416 4.53344 9.85242 4.55243 9.85905 4.578C9.87105 4.623 9.80505 4.599 9.77805 4.524C9.74205 4.623 9.76905 4.674 9.79005 4.713C9.81405 4.755 9.82005 4.809 9.77505 4.809C9.72428 4.809 9.70201 4.76298 9.68438 4.72656C9.67284 4.70272 9.66329 4.683 9.64905 4.683V5.52H10.594ZM8.32305 5.52H7.43505V5.415C7.43505 5.36948 7.41038 5.34686 7.38778 5.32615C7.36867 5.30864 7.35105 5.29248 7.35105 5.265C7.35105 5.265 7.33905 5.175 7.36305 5.133C7.39605 5.253 7.45305 5.232 7.45305 5.181C7.45305 5.14225 7.42751 5.1035 7.36938 5.01528L7.35405 4.992C7.33005 4.959 7.34505 4.854 7.37505 4.815C7.38705 4.905 7.40205 4.95 7.44105 4.95C7.46505 4.95 7.48305 4.935 7.48305 4.89C7.48305 4.85177 7.46722 4.82572 7.45029 4.79788C7.44066 4.78203 7.43067 4.76559 7.42305 4.746C7.40193 4.69112 7.41483 4.62895 7.45605 4.587C7.45868 4.60278 7.46076 4.61689 7.4626 4.62945L7.4626 4.62947C7.47129 4.68852 7.47489 4.713 7.50705 4.713C7.58182 4.68808 7.51855 4.58647 7.49422 4.54739L7.48905 4.539C7.47105 4.506 7.51905 4.437 7.51905 4.437C7.54305 4.518 7.54905 4.524 7.57905 4.515C7.61505 4.506 7.60905 4.455 7.56705 4.413C7.54005 4.383 7.54305 4.344 7.57305 4.314C7.60305 4.371 7.63905 4.368 7.64205 4.332L7.61805 4.2H7.65105L7.63905 4.1H8.11605L8.10405 4.2H8.14005L8.11305 4.329C8.10705 4.365 8.15505 4.374 8.18505 4.314C8.21505 4.344 8.21805 4.386 8.19105 4.413C8.14905 4.455 8.14305 4.506 8.17905 4.515C8.20905 4.524 8.21505 4.515 8.23905 4.437C8.23905 4.437 8.28405 4.482 8.26905 4.539L8.26459 4.54629C8.24081 4.58484 8.17554 4.69063 8.25105 4.713C8.28321 4.713 8.28681 4.68852 8.29549 4.62947L8.2955 4.62945L8.29551 4.62939C8.29735 4.61685 8.29942 4.60275 8.30205 4.587C8.34223 4.6296 8.35394 4.69169 8.33205 4.746C8.32502 4.7671 8.31432 4.78453 8.3039 4.80152C8.28765 4.82802 8.27205 4.85344 8.27205 4.89C8.27205 4.935 8.29305 4.95 8.31705 4.95C8.35605 4.95 8.37105 4.908 8.38305 4.815C8.41305 4.854 8.42805 4.959 8.40405 4.995L8.37879 5.03212C8.32697 5.108 8.30205 5.1445 8.30205 5.181C8.30205 5.232 8.36205 5.253 8.39205 5.133C8.41905 5.175 8.40705 5.265 8.40705 5.265C8.40705 5.29274 8.38974 5.30893 8.37083 5.32663C8.34883 5.34722 8.32466 5.36983 8.32305 5.415V5.52ZM5.16705 5.52V4.68C5.18129 4.68 5.19084 4.70019 5.20238 4.7246C5.22001 4.76188 5.24228 4.809 5.29305 4.809C5.33805 4.809 5.33505 4.755 5.30805 4.713C5.28705 4.674 5.26005 4.623 5.29605 4.524C5.32305 4.599 5.38905 4.623 5.37705 4.578C5.37042 4.55243 5.3596 4.53344 5.34942 4.51555C5.32733 4.47677 5.3082 4.44317 5.34105 4.359C5.35605 4.461 5.42205 4.458 5.40705 4.398C5.40268 4.38124 5.39707 4.36678 5.39176 4.35311C5.37524 4.31053 5.36171 4.27568 5.39805 4.203C5.42505 4.314 5.45805 4.308 5.45805 4.239C5.45805 4.137 5.45805 4.029 5.58405 3.99C5.58405 3.99 5.59305 3.9 5.64105 3.9C5.68605 3.9 5.69505 3.99 5.69505 3.99C5.82119 4.02814 5.82112 4.13511 5.82105 4.2324L5.82105 4.239C5.82105 4.308 5.85405 4.314 5.88105 4.203C5.91739 4.27568 5.90386 4.31053 5.88734 4.35311C5.88203 4.36678 5.87642 4.38124 5.87205 4.398C5.85705 4.458 5.92305 4.461 5.93805 4.359C5.9709 4.44317 5.95177 4.47677 5.92968 4.51555C5.9195 4.53344 5.90868 4.55243 5.90205 4.578C5.89005 4.623 5.95605 4.599 5.98305 4.524C6.01905 4.623 5.99205 4.674 5.97105 4.713C5.94705 4.755 5.94105 4.809 5.98605 4.809C6.03682 4.809 6.05909 4.76298 6.07672 4.72656C6.08826 4.70272 6.09781 4.683 6.11205 4.683V5.52H5.16705ZM7.81005 4.093C7.81005 4.093 7.80705 3.97 7.87905 3.967C7.94805 3.967 7.94505 4.093 7.94505 4.093H7.81005Z" fill="white"/>
<path d="M5.16705 5.55H5.15205L5.16705 5.565V5.55ZM6.11205 5.55V5.565L6.12705 5.55H6.11205ZM7.43505 5.58H7.42005L7.43505 5.595V5.58ZM8.32305 5.58V5.595L8.33805 5.58H8.32305ZM9.64905 5.55H9.63405L9.64905 5.565V5.55ZM10.594 5.55V5.565L10.609 5.55H10.594ZM10.704 5.52H10.719L10.704 5.505V5.52ZM5.00405 5.52V5.505L4.98905 5.52H5.00405ZM4.70205 6.826V6.811L4.68705 6.826H4.70205ZM4.70205 7.075H4.68705L4.70205 7.09V7.075ZM5.39205 7.075H5.40705L5.39205 7.06V7.075ZM5.39205 7.08V7.095L5.40705 7.08H5.39205ZM4.39605 7.08V7.065L4.38105 7.08H4.39605ZM4.39605 7.5057H4.38105L4.39605 7.5207V7.5057ZM5.39205 7.5057H5.40705L5.39205 7.4907V7.5057ZM5.39205 7.51V7.525L5.40705 7.51H5.39205ZM4.20105 7.51V7.495L4.18605 7.51H4.20105ZM4.20105 7.885H4.18605L4.20105 7.9V7.885ZM11.5601 7.885V7.9L11.575 7.885H11.5601ZM11.5601 7.51H11.575L11.5601 7.495V7.51ZM10.366 7.51H10.351L10.366 7.525V7.51ZM10.366 7.5057V7.4907L10.351 7.5057H10.366ZM11.368 7.5057V7.5207L11.383 7.5057H11.368ZM11.368 7.08H11.383L11.368 7.065V7.08ZM10.366 7.08H10.351L10.366 7.095V7.08ZM10.366 7.075V7.06L10.351 7.075H10.366ZM11.062 7.075V7.09L11.077 7.075H11.062ZM11.062 6.826H11.077L11.062 6.811V6.826ZM10.704 6.834V6.849L10.719 6.834H10.704ZM5.00405 6.834H4.98905L5.00405 6.849V6.834ZM10.594 4.68H10.609L10.594 4.665V4.68ZM10.5587 4.7246L10.5723 4.73101V4.73101L10.5587 4.7246ZM10.453 4.713L10.4657 4.72114L10.4663 4.72011L10.453 4.713ZM10.465 4.524L10.4791 4.51888L10.4509 4.51892L10.465 4.524ZM10.384 4.578L10.3985 4.58187L10.3986 4.58177L10.384 4.578ZM10.4117 4.51555L10.3986 4.50812V4.50812L10.4117 4.51555ZM10.42 4.359L10.434 4.35355L10.4052 4.35682L10.42 4.359ZM10.354 4.398L10.3395 4.39422L10.3395 4.39436L10.354 4.398ZM10.3693 4.35311L10.3554 4.34769V4.34769L10.3693 4.35311ZM10.363 4.203L10.3765 4.19629L10.3485 4.19946L10.363 4.203ZM10.177 3.99L10.1621 3.99149L10.1726 4.00433L10.177 3.99ZM10.066 3.99L10.0704 4.00436L10.081 3.99149L10.066 3.99ZM9.94005 4.2324L9.95505 4.23239V4.23239L9.94005 4.2324ZM9.88005 4.203L9.89462 4.19946L9.86663 4.19629L9.88005 4.203ZM9.87376 4.35311L9.88775 4.34769V4.34769L9.87376 4.35311ZM9.88905 4.398L9.9036 4.39436L9.90356 4.39422L9.88905 4.398ZM9.82305 4.359L9.83789 4.35682L9.80908 4.35355L9.82305 4.359ZM9.83142 4.51555L9.84445 4.50812V4.50812L9.83142 4.51555ZM9.85905 4.578L9.84453 4.58177L9.84456 4.58187L9.85905 4.578ZM9.77805 4.524L9.79216 4.51892L9.76395 4.51888L9.77805 4.524ZM9.79005 4.713L9.77684 4.72012L9.77703 4.72044L9.79005 4.713ZM9.68438 4.72656L9.67088 4.7331V4.7331L9.68438 4.72656ZM9.64905 4.683V4.668L9.63405 4.683H9.64905ZM7.38778 5.32615L7.37764 5.3372L7.38778 5.32615ZM7.35105 5.265H7.36618L7.36592 5.26302L7.35105 5.265ZM7.36305 5.133L7.37751 5.12902L7.35003 5.12556L7.36305 5.133ZM7.36938 5.01528L7.35685 5.02353L7.35685 5.02353L7.36938 5.01528ZM7.35405 4.992L7.36659 4.98374L7.36618 4.98318L7.35405 4.992ZM7.37505 4.815L7.38992 4.81302L7.36316 4.80586L7.37505 4.815ZM7.45029 4.79788L7.46311 4.79009V4.79009L7.45029 4.79788ZM7.42305 4.746L7.40905 4.75139L7.40907 4.75144L7.42305 4.746ZM7.45605 4.587L7.47085 4.58454L7.44535 4.57649L7.45605 4.587ZM7.4626 4.62945L7.44776 4.63163L7.44779 4.63184L7.4626 4.62945ZM7.4626 4.62947L7.47745 4.62728L7.47741 4.62707L7.4626 4.62947ZM7.50705 4.713V4.72881L7.51179 4.72723L7.50705 4.713ZM7.49422 4.54739L7.48145 4.55526L7.48149 4.55532L7.49422 4.54739ZM7.48905 4.539L7.47586 4.54619L7.47628 4.54687L7.48905 4.539ZM7.51905 4.437L7.53343 4.43274L7.50674 4.42844L7.51905 4.437ZM7.57905 4.515L7.57541 4.50043L7.57474 4.50063L7.57905 4.515ZM7.56705 4.413L7.55589 4.42305L7.55644 4.42361L7.56705 4.413ZM7.57305 4.314L7.58632 4.30702L7.56244 4.30339L7.57305 4.314ZM7.64205 4.332L7.65753 4.33329L7.65681 4.32932L7.64205 4.332ZM7.61805 4.2V4.185L7.60329 4.20268L7.61805 4.2ZM7.65105 4.2V4.215L7.66594 4.19821L7.65105 4.2ZM7.63905 4.1V4.085L7.62416 4.10179L7.63905 4.1ZM8.11605 4.1L8.13094 4.10179L8.11605 4.085V4.1ZM8.10405 4.2L8.08916 4.19821L8.10405 4.215V4.2ZM8.14005 4.2L8.15473 4.20307L8.14005 4.185V4.2ZM8.11305 4.329L8.09836 4.32593L8.09825 4.32654L8.11305 4.329ZM8.18505 4.314L8.19566 4.30339L8.17163 4.30729L8.18505 4.314ZM8.19105 4.413L8.18044 4.40239V4.40239L8.19105 4.413ZM8.17905 4.515L8.18336 4.50062L8.18269 4.50045L8.17905 4.515ZM8.23905 4.437L8.24966 4.42639L8.22471 4.43259L8.23905 4.437ZM8.26905 4.539L8.28241 4.54718L8.28356 4.54282L8.26905 4.539ZM8.26459 4.54629L8.27735 4.55417L8.27738 4.55412L8.26459 4.54629ZM8.25105 4.713L8.24661 4.728H8.25105V4.713ZM8.29549 4.62947L8.31034 4.63165L8.31037 4.63143L8.29549 4.62947ZM8.2955 4.62945L8.28068 4.62707L8.28063 4.62748L8.2955 4.62945ZM8.29551 4.62939L8.31032 4.63177L8.31035 4.63158L8.29551 4.62939ZM8.30205 4.587L8.31296 4.57671L8.28725 4.58454L8.30205 4.587ZM8.33205 4.746L8.31811 4.74038L8.31782 4.74126L8.33205 4.746ZM8.3039 4.80152L8.31669 4.80936V4.80936L8.3039 4.80152ZM8.38305 4.815L8.39494 4.80586L8.36817 4.81308L8.38305 4.815ZM8.40405 4.995L8.41645 5.00344L8.41653 5.00332L8.40405 4.995ZM8.37879 5.03212L8.39118 5.04057L8.39119 5.04055L8.37879 5.03212ZM8.39205 5.133L8.40467 5.12489L8.3775 5.12936L8.39205 5.133ZM8.40705 5.265L8.39205 5.263V5.265H8.40705ZM8.37083 5.32663L8.36058 5.31568V5.31568L8.37083 5.32663ZM8.32305 5.415L8.30805 5.41447V5.415H8.32305ZM5.16705 4.68V4.665L5.15205 4.68H5.16705ZM5.20238 4.7246L5.21594 4.71819L5.21594 4.71819L5.20238 4.7246ZM5.30805 4.713L5.2948 4.72013L5.29543 4.72111L5.30805 4.713ZM5.29605 4.524L5.31016 4.51892L5.28195 4.51888L5.29605 4.524ZM5.37705 4.578L5.36253 4.58177L5.36256 4.58187L5.37705 4.578ZM5.34942 4.51555L5.36245 4.50812V4.50812L5.34942 4.51555ZM5.34105 4.359L5.35589 4.35682L5.32708 4.35355L5.34105 4.359ZM5.40705 4.398L5.4216 4.39436L5.42156 4.39422L5.40705 4.398ZM5.39176 4.35311L5.37778 4.35854V4.35854L5.39176 4.35311ZM5.39805 4.203L5.41262 4.19946L5.38463 4.19629L5.39805 4.203ZM5.58405 3.99L5.58849 4.00433L5.59898 3.99149L5.58405 3.99ZM5.69505 3.99L5.68012 3.99149L5.69071 4.00436L5.69505 3.99ZM5.82105 4.2324L5.80605 4.23239V4.23239L5.82105 4.2324ZM5.82105 4.239L5.80605 4.239V4.239H5.82105ZM5.88105 4.203L5.89447 4.19629L5.86647 4.19946L5.88105 4.203ZM5.88734 4.35311L5.90132 4.35854L5.88734 4.35311ZM5.87205 4.398L5.85753 4.39421L5.8575 4.39436L5.87205 4.398ZM5.93805 4.359L5.95202 4.35355L5.92321 4.35682L5.93805 4.359ZM5.92968 4.51555L5.91665 4.50812V4.50812L5.92968 4.51555ZM5.90205 4.578L5.91654 4.58187L5.91657 4.58177L5.90205 4.578ZM5.98305 4.524L5.99715 4.51888L5.96894 4.51892L5.98305 4.524ZM5.97105 4.713L5.98408 4.72045L5.98426 4.72011L5.97105 4.713ZM6.07672 4.72656L6.06322 4.72003L6.07672 4.72656ZM6.11205 4.683H6.12705L6.11205 4.668V4.683ZM7.87905 3.967V3.95199L7.87843 3.95201L7.87905 3.967ZM7.81005 4.093L7.79505 4.09337L7.81005 4.108V4.093ZM7.94505 4.093V4.108L7.96005 4.09336L7.94505 4.093ZM5.18205 5.55V5.52H5.15205V5.55H5.18205ZM6.11205 5.535H5.16705V5.565H6.11205V5.535ZM6.09705 5.52V5.55H6.12705V5.52H6.09705ZM7.43505 5.505H6.11205V5.535H7.43505V5.505ZM7.45005 5.58V5.52H7.42005V5.58H7.45005ZM8.32305 5.565H7.43505V5.595H8.32305V5.565ZM8.30805 5.52V5.58H8.33805V5.52H8.30805ZM9.64905 5.505H8.32305V5.535H9.64905V5.505ZM9.66405 5.55V5.52H9.63405V5.55H9.66405ZM10.594 5.535H9.64905V5.565H10.594V5.535ZM10.579 5.52V5.55H10.609V5.52H10.579ZM10.704 5.505H10.594V5.535H10.704V5.505ZM10.719 6.826V5.52H10.689V6.826H10.719ZM10.704 6.811H5.00405V6.841H10.704V6.811ZM4.98905 5.52V6.826H5.01905V5.52H4.98905ZM5.16705 5.505H5.00405V5.535H5.16705V5.505ZM5.00405 6.811H4.70205V6.841H5.00405V6.811ZM4.68705 6.826V7.075H4.71705V6.826H4.68705ZM4.70205 7.09H5.39205V7.06H4.70205V7.09ZM5.37705 7.075V7.08H5.40705V7.075H5.37705ZM5.39205 7.065H4.39605V7.095H5.39205V7.065ZM4.38105 7.08V7.5057H4.41105V7.08H4.38105ZM4.39605 7.5207H5.39205V7.4907H4.39605V7.5207ZM5.37705 7.5057V7.51H5.40705V7.5057H5.37705ZM5.39205 7.495H4.20105V7.525H5.39205V7.495ZM4.18605 7.51V7.885H4.21605V7.51H4.18605ZM4.20105 7.9H11.5601V7.87H4.20105V7.9ZM11.575 7.885V7.51H11.5451V7.885H11.575ZM11.5601 7.495H10.366V7.525H11.5601V7.495ZM10.381 7.51V7.5057H10.351V7.51H10.381ZM10.366 7.5207H11.368V7.4907H10.366V7.5207ZM11.383 7.5057V7.08H11.353V7.5057H11.383ZM11.368 7.065H10.366V7.095H11.368V7.065ZM10.381 7.08V7.075H10.351V7.08H10.381ZM10.366 7.09H11.062V7.06H10.366V7.09ZM11.077 7.075V6.826H11.047V7.075H11.077ZM11.062 6.811H10.704V6.841H11.062V6.811ZM10.719 6.834V6.826H10.689V6.834H10.719ZM5.00405 6.849H10.704V6.819H5.00405V6.849ZM4.98905 6.826V6.834H5.01905V6.826H4.98905ZM10.579 4.68V5.52H10.609V4.68H10.579ZM10.5723 4.73101C10.5782 4.71841 10.583 4.70855 10.5877 4.70169C10.59 4.69835 10.5918 4.69652 10.5931 4.6956C10.5936 4.69518 10.594 4.69505 10.594 4.69501C10.5941 4.69499 10.5941 4.69499 10.5941 4.695C10.5941 4.695 10.5941 4.695 10.5941 4.695C10.5941 4.695 10.594 4.695 10.594 4.695V4.665C10.5791 4.665 10.5692 4.67573 10.563 4.68461C10.5566 4.69395 10.5507 4.70638 10.5452 4.71819L10.5723 4.73101ZM10.468 4.824C10.4989 4.824 10.521 4.80936 10.5372 4.79056C10.5529 4.77231 10.5636 4.74929 10.5723 4.73101L10.5452 4.71819C10.5362 4.7372 10.527 4.75637 10.5144 4.77101C10.5023 4.78508 10.4879 4.794 10.468 4.794V4.824ZM10.4404 4.70489C10.4258 4.72764 10.4168 4.7549 10.4186 4.77795C10.4195 4.78967 10.4234 4.80148 10.4322 4.81043C10.4412 4.81959 10.4537 4.824 10.468 4.824V4.794C10.4599 4.794 10.4559 4.79166 10.4536 4.78939C10.4512 4.7869 10.4491 4.78258 10.4485 4.77556C10.4473 4.7611 10.4533 4.74036 10.4657 4.72111L10.4404 4.70489ZM10.451 4.52913C10.4682 4.57662 10.47 4.61151 10.4656 4.6386C10.4612 4.66587 10.4503 4.68642 10.4398 4.70589L10.4663 4.72011C10.4768 4.70059 10.4899 4.67613 10.4952 4.64341C10.5006 4.61049 10.4979 4.57039 10.4791 4.51888L10.451 4.52913ZM10.3696 4.57414C10.3662 4.58677 10.366 4.60359 10.3802 4.61201C10.3865 4.61573 10.3935 4.61615 10.3994 4.61532C10.4053 4.61448 10.4113 4.61225 10.417 4.60925C10.4392 4.59743 10.4647 4.56939 10.4792 4.52908L10.4509 4.51892C10.4384 4.55361 10.4174 4.57507 10.4029 4.58275C10.3994 4.58463 10.3968 4.58539 10.3952 4.58561C10.3936 4.58584 10.3941 4.58536 10.3955 4.58618C10.3999 4.58879 10.3959 4.59173 10.3985 4.58187L10.3696 4.57414ZM10.3986 4.50812C10.3885 4.52599 10.3767 4.54653 10.3695 4.57424L10.3986 4.58177C10.4046 4.55833 10.4145 4.54088 10.4247 4.52297L10.3986 4.50812ZM10.4061 4.36445C10.4219 4.40503 10.4246 4.43176 10.4216 4.45215C10.4186 4.47273 10.4098 4.48851 10.3986 4.50812L10.4247 4.52297C10.4356 4.50381 10.4474 4.4834 10.4513 4.45644C10.4552 4.42929 10.451 4.39714 10.434 4.35355L10.4061 4.36445ZM10.3395 4.39436C10.3352 4.41143 10.3359 4.42746 10.3431 4.43933C10.3468 4.44543 10.3522 4.45029 10.359 4.45292C10.3658 4.45553 10.373 4.45557 10.3797 4.45372C10.393 4.45011 10.4049 4.4394 10.4141 4.42442C10.4235 4.40916 10.4309 4.38817 10.4349 4.36118L10.4052 4.35682C10.4017 4.38083 10.3953 4.39772 10.3885 4.40871C10.3816 4.41998 10.3751 4.42389 10.3719 4.42478C10.3704 4.42518 10.3698 4.42494 10.3698 4.42493C10.3697 4.42491 10.3697 4.42487 10.3695 4.42475C10.3694 4.42462 10.3691 4.42434 10.3688 4.4238C10.3673 4.42142 10.3654 4.41458 10.3686 4.40164L10.3395 4.39436ZM10.3554 4.34769C10.3501 4.3613 10.3442 4.37651 10.3395 4.39422L10.3686 4.40179C10.3727 4.38597 10.378 4.37226 10.3833 4.35854L10.3554 4.34769ZM10.3496 4.20971C10.367 4.2445 10.3718 4.26885 10.371 4.28876C10.3702 4.309 10.3637 4.32611 10.3554 4.34769L10.3833 4.35854C10.3915 4.33754 10.4 4.31592 10.401 4.28993C10.402 4.2636 10.3954 4.23419 10.3765 4.19629L10.3496 4.20971ZM10.288 4.239C10.288 4.25705 10.2902 4.27263 10.2948 4.28381C10.297 4.28935 10.3005 4.29524 10.306 4.29929C10.3123 4.30387 10.32 4.30521 10.3275 4.30278C10.3342 4.30062 10.3395 4.29595 10.3437 4.29104C10.348 4.28595 10.352 4.27945 10.3557 4.27179C10.3633 4.25647 10.3707 4.23487 10.3776 4.20655L10.3485 4.19946C10.3419 4.22663 10.3351 4.24591 10.3288 4.25852C10.3257 4.26484 10.323 4.26907 10.3207 4.27169C10.3184 4.27449 10.3175 4.2745 10.3183 4.27423C10.3201 4.27366 10.3224 4.27407 10.3238 4.27511C10.3245 4.27563 10.3237 4.27537 10.3225 4.27238C10.3201 4.26649 10.318 4.25546 10.318 4.239H10.288ZM10.1726 4.00433C10.231 4.0224 10.2589 4.05561 10.2732 4.09587C10.2879 4.13761 10.288 4.18736 10.288 4.239H10.318C10.318 4.18864 10.3182 4.13339 10.3014 4.08588C10.2842 4.03689 10.2491 3.99661 10.1815 3.97567L10.1726 4.00433ZM10.12 3.915C10.1267 3.915 10.1325 3.91794 10.1381 3.9241C10.1438 3.93053 10.1487 3.93978 10.1525 3.95017C10.1562 3.96039 10.1587 3.97078 10.1602 3.97872C10.1609 3.98266 10.1614 3.98593 10.1617 3.98819C10.1619 3.98931 10.162 3.99018 10.162 3.99075C10.1621 3.99103 10.1621 3.99124 10.1621 3.99136C10.1621 3.99143 10.1621 3.99147 10.1621 3.99149C10.1621 3.9915 10.1621 3.99151 10.1621 3.99151C10.1621 3.99151 10.1621 3.99151 10.1621 3.99151C10.1621 3.9915 10.1621 3.9915 10.1621 3.9915C10.1621 3.9915 10.1621 3.99149 10.177 3.99C10.192 3.98851 10.192 3.9885 10.192 3.9885C10.192 3.9885 10.192 3.98849 10.192 3.98849C10.192 3.98848 10.192 3.98847 10.192 3.98846C10.192 3.98844 10.192 3.98841 10.192 3.98838C10.192 3.98832 10.1919 3.98823 10.1919 3.98812C10.1919 3.98791 10.1919 3.98761 10.1918 3.98724C10.1917 3.98648 10.1916 3.98542 10.1914 3.98408C10.1911 3.98141 10.1905 3.97765 10.1896 3.97315C10.1879 3.96422 10.1851 3.95211 10.1806 3.93984C10.1762 3.92772 10.1698 3.91447 10.1604 3.90403C10.1507 3.89332 10.1374 3.885 10.12 3.885V3.915ZM10.066 3.99C10.081 3.99149 10.081 3.9915 10.081 3.9915C10.081 3.9915 10.081 3.9915 10.081 3.9915C10.081 3.99151 10.081 3.99151 10.081 3.99151C10.081 3.99151 10.081 3.9915 10.081 3.99149C10.081 3.99146 10.081 3.99142 10.081 3.99135C10.081 3.99123 10.081 3.99102 10.0811 3.99073C10.0811 3.99016 10.0812 3.98928 10.0814 3.98815C10.0817 3.98589 10.0822 3.9826 10.0829 3.97864C10.0844 3.97067 10.0867 3.96023 10.0903 3.94996C10.094 3.93951 10.0986 3.93021 10.1041 3.92378C10.1093 3.91758 10.1145 3.915 10.12 3.915V3.885C10.1031 3.885 10.0903 3.89368 10.0812 3.90435C10.0723 3.91479 10.0662 3.92799 10.062 3.94005C10.0577 3.95227 10.055 3.96433 10.0534 3.97323C10.0526 3.97771 10.052 3.98146 10.0517 3.98412C10.0515 3.98545 10.0513 3.98651 10.0513 3.98725C10.0512 3.98763 10.0512 3.98792 10.0512 3.98813C10.0512 3.98824 10.0511 3.98832 10.0511 3.98839C10.0511 3.98842 10.0511 3.98844 10.0511 3.98846C10.0511 3.98847 10.0511 3.98848 10.0511 3.98849C10.0511 3.98849 10.0511 3.9885 10.0511 3.9885C10.0511 3.98851 10.0511 3.98851 10.066 3.99ZM9.95505 4.23239C9.95501 4.18312 9.95515 4.13485 9.96983 4.09411C9.98399 4.05484 10.0119 4.02204 10.0704 4.00436L10.0617 3.97564C9.99404 3.9961 9.95894 4.03585 9.94161 4.08393C9.92481 4.13054 9.92501 4.1844 9.92505 4.23241L9.95505 4.23239ZM9.95505 4.239C9.95505 4.2368 9.95505 4.23459 9.95505 4.23239L9.92505 4.23241C9.92505 4.23462 9.92505 4.23681 9.92505 4.239H9.95505ZM9.86547 4.20655C9.87236 4.23487 9.8798 4.25647 9.88736 4.27179C9.89114 4.27945 9.89515 4.28595 9.89943 4.29104C9.90358 4.29595 9.9089 4.30062 9.91557 4.30278C9.92313 4.30521 9.93083 4.30387 9.93707 4.29929C9.94258 4.29524 9.94606 4.28935 9.94834 4.28381C9.95295 4.27263 9.95505 4.25705 9.95505 4.239H9.92505C9.92505 4.25546 9.92303 4.26649 9.9206 4.27238C9.91937 4.27537 9.9186 4.27563 9.9193 4.27511C9.92072 4.27407 9.92304 4.27366 9.92478 4.27423C9.92564 4.2745 9.92473 4.27449 9.92237 4.27169C9.92015 4.26907 9.91738 4.26484 9.91427 4.25852C9.90805 4.24591 9.90123 4.22663 9.89462 4.19946L9.86547 4.20655ZM9.88775 4.34769C9.87937 4.32611 9.87286 4.309 9.87207 4.28876C9.87129 4.26885 9.87607 4.2445 9.89347 4.20971L9.86663 4.19629C9.84769 4.23419 9.84106 4.2636 9.84209 4.28993C9.84311 4.31592 9.85163 4.33754 9.85978 4.35854L9.88775 4.34769ZM9.90356 4.39422C9.89894 4.37651 9.89303 4.3613 9.88775 4.34769L9.85978 4.35854C9.8651 4.37226 9.87041 4.38597 9.87454 4.40179L9.90356 4.39422ZM9.80821 4.36118C9.81218 4.38817 9.81965 4.40916 9.82902 4.42442C9.83822 4.4394 9.8501 4.45011 9.86335 4.45372C9.87014 4.45557 9.87734 4.45553 9.88412 4.45292C9.89092 4.45029 9.89631 4.44543 9.90001 4.43933C9.90719 4.42746 9.90787 4.41143 9.9036 4.39436L9.8745 4.40164C9.87773 4.41458 9.87578 4.42142 9.87434 4.4238C9.87401 4.42434 9.87374 4.42462 9.87359 4.42475C9.87345 4.42487 9.87336 4.42491 9.87331 4.42493C9.87329 4.42494 9.87271 4.42518 9.87125 4.42478C9.868 4.42389 9.8615 4.41998 9.85458 4.40871C9.84783 4.39772 9.84142 4.38083 9.83789 4.35682L9.80821 4.36118ZM9.84445 4.50812C9.83328 4.48851 9.82446 4.47273 9.82148 4.45215C9.81853 4.43176 9.82119 4.40503 9.83702 4.36445L9.80908 4.35355C9.79206 4.39714 9.78786 4.42929 9.79179 4.45644C9.79569 4.4834 9.80747 4.50381 9.81838 4.52297L9.84445 4.50812ZM9.87357 4.57424C9.86639 4.54653 9.85463 4.52599 9.84445 4.50812L9.81838 4.52297C9.82858 4.54088 9.83845 4.55833 9.84453 4.58177L9.87357 4.57424ZM9.76394 4.52908C9.77845 4.56939 9.80387 4.59743 9.82614 4.60925C9.8318 4.61225 9.83777 4.61448 9.84373 4.61532C9.84962 4.61615 9.85658 4.61573 9.86288 4.61201C9.87714 4.60359 9.87691 4.58677 9.87354 4.57414L9.84456 4.58187C9.84719 4.59173 9.8432 4.58879 9.84763 4.58618C9.84901 4.58536 9.84952 4.58584 9.8479 4.58561C9.84634 4.58539 9.84374 4.58463 9.84021 4.58275C9.82573 4.57507 9.80465 4.55361 9.79216 4.51892L9.76394 4.52908ZM9.80326 4.70589C9.79277 4.68642 9.78191 4.66587 9.77748 4.6386C9.77308 4.61151 9.77488 4.57662 9.79215 4.52913L9.76395 4.51888C9.74522 4.57039 9.74252 4.61049 9.74787 4.64341C9.75319 4.67613 9.76633 4.70059 9.77684 4.72011L9.80326 4.70589ZM9.77505 4.824C9.78943 4.824 9.80182 4.81958 9.81067 4.8102C9.81925 4.80109 9.8227 4.7892 9.8234 4.77765C9.82476 4.75491 9.81587 4.72796 9.80307 4.70556L9.77703 4.72044C9.78823 4.74005 9.79434 4.76109 9.79345 4.77585C9.79302 4.78305 9.79104 4.78728 9.78884 4.78962C9.7869 4.79167 9.78317 4.794 9.77505 4.794V4.824ZM9.67088 4.7331C9.67952 4.75095 9.69032 4.77349 9.70602 4.79134C9.72223 4.80977 9.74432 4.824 9.77505 4.824V4.794C9.75501 4.794 9.74059 4.78522 9.72855 4.77153C9.71602 4.75728 9.70687 4.7386 9.69788 4.72003L9.67088 4.7331ZM9.64905 4.698C9.64906 4.698 9.64906 4.698 9.64916 4.69803C9.64927 4.69807 9.64961 4.69821 9.65018 4.69862C9.65141 4.69951 9.6532 4.70128 9.65549 4.70452C9.66022 4.71119 9.66492 4.72078 9.67088 4.7331L9.69788 4.72003C9.6923 4.7085 9.68646 4.69632 9.67996 4.68717C9.67374 4.67839 9.66388 4.668 9.64905 4.668V4.698ZM9.66405 5.52V4.683H9.63405V5.52H9.66405ZM10.594 5.505H9.64905V5.535H10.594V5.505ZM7.43505 5.535H8.32305V5.505H7.43505V5.535ZM7.42005 5.415V5.52H7.45005V5.415H7.42005ZM7.37764 5.3372C7.40015 5.35783 7.42005 5.37651 7.42005 5.415H7.45005C7.45005 5.36244 7.42061 5.33589 7.39791 5.31509L7.37764 5.3372ZM7.33605 5.265C7.33605 5.30002 7.35933 5.32042 7.37764 5.3372L7.39791 5.31509C7.37802 5.29685 7.36605 5.28495 7.36605 5.265H7.33605ZM7.35003 5.12556C7.34274 5.1383 7.33861 5.15383 7.33623 5.16902C7.33382 5.18438 7.33305 5.2004 7.33305 5.21475C7.33305 5.22914 7.33383 5.24213 7.3346 5.25152C7.33499 5.25622 7.33538 5.26004 7.33567 5.2627C7.33582 5.26403 7.33594 5.26508 7.33603 5.26581C7.33608 5.26617 7.33611 5.26645 7.33614 5.26665C7.33615 5.26675 7.33616 5.26682 7.33617 5.26688C7.33617 5.26691 7.33617 5.26693 7.33618 5.26695C7.33618 5.26696 7.33618 5.26696 7.33618 5.26697C7.33618 5.26697 7.33618 5.26698 7.33618 5.26698C7.33618 5.26698 7.33618 5.26698 7.35105 5.265C7.36592 5.26302 7.36592 5.26302 7.36592 5.26302C7.36592 5.26302 7.36592 5.26302 7.36592 5.26302C7.36592 5.26302 7.36592 5.26302 7.36592 5.26302C7.36592 5.26302 7.36592 5.26301 7.36591 5.26299C7.36591 5.26296 7.3659 5.26291 7.36589 5.26284C7.36588 5.26269 7.36585 5.26246 7.36581 5.26216C7.36573 5.26154 7.36562 5.26061 7.36549 5.2594C7.36522 5.25698 7.36486 5.25344 7.3645 5.24905C7.36377 5.24025 7.36305 5.22811 7.36305 5.21475C7.36305 5.20135 7.36378 5.18699 7.36587 5.17367C7.36799 5.16018 7.37136 5.1487 7.37607 5.14044L7.35003 5.12556ZM7.43805 5.181C7.43805 5.19117 7.43518 5.19847 7.43195 5.20248C7.42902 5.20611 7.42614 5.20693 7.42313 5.20637C7.41929 5.20567 7.41206 5.20204 7.40328 5.18963C7.39463 5.17741 7.38548 5.158 7.37751 5.12902L7.34859 5.13698C7.35712 5.16801 7.36747 5.19097 7.37879 5.20696C7.38998 5.22277 7.40319 5.23321 7.41772 5.23588C7.43309 5.2387 7.44651 5.23221 7.4553 5.22131C7.46379 5.21078 7.46805 5.19633 7.46805 5.181H7.43805ZM7.35685 5.02353C7.38609 5.0679 7.40654 5.09896 7.41978 5.12376C7.43293 5.14838 7.43805 5.16519 7.43805 5.181H7.46805C7.46805 5.15807 7.4604 5.13613 7.44625 5.10963C7.43219 5.08331 7.4108 5.05088 7.3819 5.00703L7.35685 5.02353ZM7.34152 5.00025L7.35685 5.02353L7.3819 5.00703L7.36658 4.98375L7.34152 5.00025ZM7.36316 4.80586C7.34576 4.82848 7.33405 4.86762 7.32942 4.90385C7.32706 4.92231 7.32642 4.94091 7.32806 4.95739C7.32965 4.97343 7.33358 4.98936 7.34192 5.00082L7.36618 4.98318C7.36252 4.97814 7.35932 4.96857 7.35791 4.95442C7.35655 4.94072 7.35704 4.92445 7.35918 4.90765C7.36355 4.87338 7.37434 4.84052 7.38694 4.82415L7.36316 4.80586ZM7.44105 4.935C7.43447 4.935 7.42956 4.9332 7.4253 4.92982C7.42074 4.9262 7.41609 4.92006 7.4116 4.9101C7.40248 4.88982 7.39593 4.85807 7.38992 4.81302L7.36018 4.81698C7.36617 4.86193 7.37312 4.89768 7.38425 4.92241C7.38989 4.93494 7.39704 4.94568 7.40664 4.95331C7.41654 4.96117 7.42813 4.965 7.44105 4.965V4.935ZM7.46805 4.89C7.46805 4.9109 7.4638 4.92192 7.45934 4.92751C7.45538 4.93245 7.44974 4.935 7.44105 4.935V4.965C7.45636 4.965 7.47172 4.96005 7.48276 4.94625C7.49329 4.93308 7.49805 4.9141 7.49805 4.89H7.46805ZM7.43747 4.80567C7.45449 4.83367 7.46805 4.85644 7.46805 4.89H7.49805C7.49805 4.8471 7.47994 4.81777 7.46311 4.79009L7.43747 4.80567ZM7.40907 4.75144C7.41723 4.77243 7.4279 4.78992 7.43747 4.80567L7.46311 4.79009C7.45341 4.77413 7.4441 4.75876 7.43703 4.74056L7.40907 4.75144ZM7.44535 4.57649C7.40001 4.62263 7.38582 4.69101 7.40905 4.75139L7.43705 4.74061C7.41804 4.69122 7.42965 4.63527 7.46675 4.59751L7.44535 4.57649ZM7.47744 4.62727C7.4756 4.61472 7.4735 4.60047 7.47085 4.58454L7.44125 4.58947C7.44386 4.60508 7.44591 4.61907 7.44776 4.63163L7.47744 4.62727ZM7.47741 4.62707L7.47741 4.62706L7.44779 4.63184L7.4478 4.63186L7.47741 4.62707ZM7.50705 4.698C7.50088 4.698 7.49773 4.69683 7.49588 4.69564C7.49407 4.69447 7.49195 4.69228 7.48973 4.68728C7.48477 4.67614 7.48194 4.65785 7.47744 4.62728L7.44776 4.63165C7.45195 4.66014 7.45526 4.68361 7.46232 4.69948C7.4661 4.70798 7.47146 4.7156 7.47964 4.72086C7.48778 4.72611 7.49714 4.728 7.50705 4.728V4.698ZM7.48149 4.55532C7.49386 4.57519 7.51454 4.60859 7.52337 4.63961C7.5278 4.65515 7.52863 4.66808 7.52568 4.67769C7.52306 4.68619 7.51694 4.69389 7.50231 4.69877L7.51179 4.72723C7.53455 4.71965 7.54856 4.7053 7.55435 4.68652C7.55979 4.66884 7.55731 4.64926 7.55222 4.6314C7.54204 4.59562 7.51891 4.55866 7.50695 4.53946L7.48149 4.55532ZM7.47628 4.54687L7.48145 4.55526L7.50699 4.53952L7.50182 4.53113L7.47628 4.54687ZM7.51905 4.437C7.50674 4.42844 7.50673 4.42844 7.50673 4.42844C7.50673 4.42844 7.50673 4.42845 7.50673 4.42845C7.50672 4.42845 7.50672 4.42846 7.50671 4.42847C7.5067 4.42848 7.50669 4.4285 7.50667 4.42852C7.50664 4.42857 7.5066 4.42863 7.50654 4.42871C7.50644 4.42887 7.50628 4.4291 7.50609 4.42938C7.5057 4.42995 7.50515 4.43077 7.50447 4.43181C7.50311 4.4339 7.50121 4.43688 7.49899 4.44054C7.49458 4.44785 7.48884 4.45803 7.48365 4.4694C7.47851 4.48067 7.47365 4.49368 7.47137 4.50652C7.46914 4.51911 7.46903 4.53361 7.47588 4.54618L7.50222 4.53182C7.50007 4.52789 7.49921 4.5214 7.50091 4.51176C7.50257 4.50239 7.50634 4.49196 7.51095 4.48185C7.51551 4.47185 7.52064 4.46272 7.52467 4.45605C7.52667 4.45274 7.52838 4.45007 7.52957 4.44825C7.53017 4.44734 7.53063 4.44664 7.53094 4.44619C7.5311 4.44596 7.53121 4.44579 7.53128 4.44569C7.53132 4.44563 7.53134 4.4456 7.53136 4.44558C7.53136 4.44557 7.53137 4.44556 7.53137 4.44556C7.53137 4.44556 7.53137 4.44556 7.53137 4.44556C7.53137 4.44556 7.53137 4.44556 7.53137 4.44556C7.53136 4.44557 7.53136 4.44557 7.51905 4.437ZM7.57474 4.50063C7.56724 4.50288 7.56386 4.50329 7.56202 4.50309C7.56153 4.50304 7.56066 4.50312 7.55859 4.50048C7.55597 4.49714 7.55268 4.49091 7.54839 4.47938C7.54418 4.4681 7.53943 4.45298 7.53343 4.43274L7.50467 4.44126C7.51067 4.46153 7.51567 4.47753 7.52028 4.48987C7.52479 4.50197 7.52938 4.51186 7.53501 4.51902C7.54119 4.52689 7.54895 4.53184 7.55877 4.53291C7.56724 4.53384 7.57586 4.53162 7.58336 4.52937L7.57474 4.50063ZM7.55644 4.42361C7.57583 4.44299 7.58566 4.46329 7.5874 4.47813C7.58826 4.48545 7.58708 4.49053 7.58526 4.49371C7.58362 4.49657 7.58081 4.4991 7.57541 4.50045L7.58269 4.52955C7.59529 4.5264 7.60523 4.51918 7.61128 4.50864C7.61714 4.49841 7.61859 4.48643 7.6172 4.47462C7.61444 4.45121 7.60027 4.42501 7.57766 4.40239L7.55644 4.42361ZM7.56244 4.30339C7.54533 4.32051 7.53511 4.34104 7.53371 4.36253C7.5323 4.38416 7.53994 4.4053 7.5559 4.42304L7.5782 4.40297C7.56716 4.3907 7.5628 4.37735 7.56364 4.36448C7.56449 4.35146 7.57077 4.33749 7.58366 4.32461L7.56244 4.30339ZM7.6271 4.33076C7.62654 4.33752 7.62457 4.34079 7.62339 4.34202C7.62261 4.34282 7.62179 4.34331 7.6198 4.34303C7.61411 4.34221 7.60074 4.3344 7.58632 4.30702L7.55978 4.32099C7.57536 4.3506 7.59499 4.36979 7.61555 4.37273C7.62669 4.37432 7.6373 4.37087 7.64505 4.36277C7.65241 4.35509 7.65606 4.34449 7.657 4.33325L7.6271 4.33076ZM7.60329 4.20268L7.62729 4.33468L7.65681 4.32932L7.63281 4.19732L7.60329 4.20268ZM7.65105 4.185H7.61805V4.215H7.65105V4.185ZM7.62416 4.10179L7.63616 4.20179L7.66594 4.19821L7.65394 4.09821L7.62416 4.10179ZM8.11605 4.085H7.63905V4.115H8.11605V4.085ZM8.11894 4.20179L8.13094 4.10179L8.10116 4.09821L8.08916 4.19821L8.11894 4.20179ZM8.14005 4.185H8.10405V4.215H8.14005V4.185ZM8.12773 4.33207L8.15473 4.20307L8.12537 4.19693L8.09837 4.32593L8.12773 4.33207ZM8.17163 4.30729C8.15787 4.33483 8.14218 4.34215 8.1348 4.34252C8.13133 4.34269 8.12978 4.34153 8.12909 4.3407C8.12834 4.3398 8.12689 4.33718 8.12785 4.33147L8.09825 4.32654C8.09621 4.33882 8.09851 4.35083 8.10601 4.35986C8.11357 4.36897 8.12477 4.37306 8.1363 4.37248C8.15892 4.37135 8.18223 4.35317 8.19847 4.32071L8.17163 4.30729ZM8.20166 4.42361C8.23575 4.38952 8.2302 4.33794 8.19566 4.30339L8.17444 4.32461C8.1999 4.35006 8.20035 4.38249 8.18044 4.40239L8.20166 4.42361ZM8.18269 4.50045C8.17729 4.4991 8.17448 4.49657 8.17284 4.49371C8.17102 4.49053 8.16984 4.48545 8.1707 4.47813C8.17244 4.46329 8.18227 4.44299 8.20166 4.42361L8.18044 4.40239C8.15783 4.42501 8.14366 4.45121 8.1409 4.47462C8.13951 4.48643 8.14096 4.49841 8.14682 4.50864C8.15287 4.51918 8.16281 4.5264 8.17541 4.52955L8.18269 4.50045ZM8.22471 4.43259C8.21871 4.4521 8.21396 4.46688 8.20974 4.47806C8.20543 4.48946 8.20211 4.49592 8.19935 4.49956C8.19703 4.50262 8.19591 4.50268 8.19542 4.50276C8.1938 4.50301 8.19057 4.5028 8.18336 4.50063L8.17474 4.52937C8.18253 4.53171 8.1913 4.53375 8.2 4.5324C8.20981 4.53089 8.21732 4.52551 8.22325 4.51769C8.22874 4.51045 8.23329 4.50061 8.2378 4.48866C8.24239 4.4765 8.24739 4.4609 8.25339 4.44141L8.22471 4.43259ZM8.28356 4.54282C8.29231 4.50955 8.28342 4.48016 8.27304 4.45981C8.26782 4.44959 8.2621 4.44138 8.25768 4.4357C8.25545 4.43285 8.25353 4.43061 8.25213 4.42904C8.25143 4.42826 8.25085 4.42764 8.25043 4.4272C8.25022 4.42697 8.25005 4.4268 8.24992 4.42666C8.24986 4.4266 8.2498 4.42654 8.24976 4.4265C8.24973 4.42647 8.24971 4.42645 8.2497 4.42644C8.24969 4.42643 8.24968 4.42642 8.24968 4.42641C8.24967 4.42641 8.24967 4.42641 8.24967 4.4264C8.24966 4.4264 8.24966 4.42639 8.23905 4.437C8.22844 4.44761 8.22844 4.4476 8.22844 4.4476C8.22843 4.4476 8.22843 4.4476 8.22843 4.44759C8.22842 4.44759 8.22842 4.44759 8.22842 4.44758C8.22841 4.44758 8.22841 4.44757 8.22841 4.44757C8.22841 4.44757 8.22842 4.44758 8.22844 4.4476C8.22848 4.44764 8.22855 4.44772 8.22867 4.44785C8.2289 4.44809 8.22928 4.44849 8.22978 4.44905C8.23078 4.45017 8.23226 4.45189 8.23402 4.45415C8.23756 4.45869 8.24215 4.46529 8.24631 4.47344C8.25468 4.48985 8.26079 4.51145 8.25454 4.53518L8.28356 4.54282ZM8.27738 4.55412L8.28184 4.54683L8.25626 4.53117L8.25179 4.53846L8.27738 4.55412ZM8.25531 4.69862C8.24073 4.6943 8.23484 4.68691 8.23233 4.6786C8.22943 4.66902 8.23038 4.65583 8.235 4.63988C8.24418 4.60812 8.26527 4.57376 8.27735 4.55417L8.25182 4.53842C8.24013 4.55737 8.21669 4.59518 8.20618 4.63155C8.20094 4.64965 8.19825 4.66952 8.20361 4.68727C8.20935 4.7063 8.22362 4.72052 8.24679 4.72738L8.25531 4.69862ZM8.28065 4.62729C8.27616 4.65785 8.27333 4.67614 8.26837 4.68728C8.26615 4.69228 8.26403 4.69447 8.26222 4.69564C8.26037 4.69683 8.25722 4.698 8.25105 4.698V4.728C8.26096 4.728 8.27032 4.72611 8.27846 4.72086C8.28664 4.7156 8.292 4.70798 8.29578 4.69948C8.30284 4.68361 8.30615 4.66014 8.31034 4.63165L8.28065 4.62729ZM8.28063 4.62748L8.28062 4.6275L8.31037 4.63143L8.31037 4.63141L8.28063 4.62748ZM8.2807 4.62702L8.28069 4.62707L8.31031 4.63182L8.31032 4.63177L8.2807 4.62702ZM8.28725 4.58454C8.2846 4.60045 8.28251 4.61468 8.28067 4.62721L8.31035 4.63158C8.31219 4.61903 8.31425 4.60506 8.31685 4.58947L8.28725 4.58454ZM8.34596 4.75161C8.37004 4.69187 8.35716 4.62357 8.31296 4.57671L8.29114 4.59729C8.3273 4.63563 8.33784 4.69151 8.31814 4.74039L8.34596 4.75161ZM8.31669 4.80936C8.32702 4.79252 8.33863 4.77371 8.34628 4.75074L8.31782 4.74126C8.31141 4.76049 8.30163 4.77653 8.29112 4.79367L8.31669 4.80936ZM8.28705 4.89C8.28705 4.85816 8.30031 4.83606 8.31669 4.80936L8.29112 4.79367C8.27498 4.81997 8.25705 4.84872 8.25705 4.89H8.28705ZM8.31705 4.935C8.30824 4.935 8.30155 4.93235 8.29681 4.92697C8.29183 4.9213 8.28705 4.9104 8.28705 4.89H8.25705C8.25705 4.9146 8.26277 4.9337 8.27429 4.94679C8.28605 4.96015 8.30186 4.965 8.31705 4.965V4.935ZM8.36817 4.81308C8.36216 4.85965 8.35561 4.89131 8.34654 4.91113C8.3421 4.92084 8.33751 4.92665 8.33304 4.93005C8.32884 4.93325 8.32387 4.935 8.31705 4.935V4.965C8.32973 4.965 8.34126 4.9615 8.35122 4.95392C8.3609 4.94654 8.36813 4.93604 8.37381 4.92362C8.38499 4.89919 8.39194 4.86335 8.39793 4.81692L8.36817 4.81308ZM8.41653 5.00332C8.42454 4.99131 8.42845 4.97512 8.43004 4.95862C8.43167 4.94176 8.43104 4.9229 8.42868 4.90425C8.42406 4.86764 8.41235 4.82849 8.39494 4.80586L8.37116 4.82415C8.38375 4.84051 8.39454 4.87336 8.39892 4.90801C8.40106 4.92498 8.40155 4.94156 8.40018 4.95573C8.39878 4.97026 8.39556 4.98069 8.39157 4.98668L8.41653 5.00332ZM8.39119 5.04055L8.41645 5.00344L8.39165 4.98656L8.36639 5.02368L8.39119 5.04055ZM8.31705 5.181C8.31705 5.16639 8.32196 5.15075 8.33414 5.12854C8.34641 5.10616 8.3651 5.07877 8.39118 5.04057L8.3664 5.02366C8.34067 5.06134 8.32098 5.09015 8.30784 5.11411C8.2946 5.13825 8.28705 5.15911 8.28705 5.181H8.31705ZM8.3775 5.12936C8.37027 5.15827 8.36149 5.17759 8.35303 5.18972C8.34447 5.20198 8.33719 5.20564 8.33314 5.20636C8.32977 5.20697 8.32651 5.20598 8.32339 5.20225C8.32 5.19822 8.31705 5.19099 8.31705 5.181H8.28705C8.28705 5.19651 8.29159 5.21103 8.3004 5.22153C8.30946 5.23234 8.32308 5.23866 8.33846 5.23589C8.35316 5.23324 8.36651 5.22283 8.37763 5.20688C8.38886 5.19079 8.39883 5.16773 8.4066 5.13664L8.3775 5.12936ZM8.40705 5.265C8.42192 5.26698 8.42192 5.26698 8.42192 5.26698C8.42192 5.26698 8.42192 5.26697 8.42192 5.26697C8.42192 5.26696 8.42192 5.26696 8.42192 5.26695C8.42193 5.26693 8.42193 5.26691 8.42193 5.26688C8.42194 5.26682 8.42195 5.26674 8.42196 5.26664C8.42199 5.26644 8.42202 5.26615 8.42207 5.26579C8.42216 5.26506 8.42228 5.26401 8.42243 5.26267C8.42272 5.25999 8.42309 5.25616 8.42346 5.25144C8.42419 5.24202 8.42487 5.22899 8.42467 5.21455C8.4243 5.18666 8.42067 5.14978 8.40467 5.12489L8.37943 5.14111C8.39043 5.15822 8.3943 5.18734 8.39468 5.21495C8.39486 5.22826 8.39423 5.24035 8.39355 5.24913C8.39321 5.2535 8.39286 5.25703 8.3926 5.25944C8.39247 5.26064 8.39236 5.26156 8.39229 5.26217C8.39225 5.26248 8.39222 5.2627 8.3922 5.26284C8.3922 5.26292 8.39219 5.26297 8.39218 5.263C8.39218 5.26301 8.39218 5.26302 8.39218 5.26302C8.39218 5.26303 8.39218 5.26303 8.39218 5.26303C8.39218 5.26303 8.39218 5.26302 8.39218 5.26302C8.39218 5.26302 8.39218 5.26302 8.40705 5.265ZM8.38108 5.33758C8.39928 5.32055 8.42205 5.30014 8.42205 5.265H8.39205C8.39205 5.28534 8.3802 5.29732 8.36058 5.31568L8.38108 5.33758ZM8.33804 5.41554C8.33942 5.37695 8.35923 5.35803 8.38108 5.33758L8.36058 5.31568C8.33844 5.3364 8.30991 5.36272 8.30806 5.41447L8.33804 5.41554ZM8.33805 5.52V5.415H8.30805V5.52H8.33805ZM5.15205 4.68V5.52H5.18205V4.68H5.15205ZM5.21594 4.71819C5.21036 4.70638 5.20453 4.69395 5.19806 4.68461C5.19191 4.67573 5.18204 4.665 5.16705 4.665V4.695C5.16705 4.695 5.16705 4.695 5.16704 4.695C5.16703 4.695 5.16702 4.695 5.16701 4.695C5.16699 4.69499 5.167 4.69499 5.16705 4.69501C5.16715 4.69505 5.16747 4.69518 5.16804 4.6956C5.16929 4.69652 5.17108 4.69835 5.1734 4.70169C5.17815 4.70855 5.18286 4.71841 5.18882 4.73101L5.21594 4.71819ZM5.29305 4.794C5.27315 4.794 5.25875 4.78508 5.24667 4.77101C5.2341 4.75637 5.22493 4.7372 5.21594 4.71819L5.18882 4.73101C5.19746 4.74929 5.20824 4.77231 5.22391 4.79056C5.24006 4.80936 5.26218 4.824 5.29305 4.824V4.794ZM5.29543 4.72111C5.3078 4.74036 5.31375 4.7611 5.3126 4.77556C5.31204 4.78258 5.30993 4.7869 5.30748 4.78939C5.30525 4.79166 5.30117 4.794 5.29305 4.794V4.824C5.30743 4.824 5.31985 4.81959 5.32887 4.81043C5.33767 4.80148 5.34156 4.78967 5.3425 4.77795C5.34435 4.7549 5.33529 4.72764 5.32067 4.70489L5.29543 4.72111ZM5.28195 4.51888C5.26322 4.57039 5.26052 4.61049 5.26587 4.64341C5.27119 4.67613 5.28433 4.70059 5.29484 4.72011L5.32126 4.70589C5.31077 4.68642 5.29991 4.66587 5.29548 4.6386C5.29108 4.61151 5.29288 4.57662 5.31015 4.52913L5.28195 4.51888ZM5.36256 4.58187C5.36519 4.59174 5.3612 4.58879 5.36563 4.58618C5.36701 4.58536 5.36752 4.58584 5.3659 4.58561C5.36434 4.58539 5.36174 4.58463 5.35821 4.58275C5.34373 4.57507 5.32265 4.55361 5.31016 4.51892L5.28194 4.52908C5.29645 4.56939 5.32187 4.59743 5.34414 4.60925C5.3498 4.61225 5.35577 4.61448 5.36173 4.61532C5.36762 4.61615 5.37458 4.61573 5.38088 4.61201C5.39514 4.60359 5.39491 4.58677 5.39154 4.57414L5.36256 4.58187ZM5.33638 4.52297C5.34658 4.54088 5.35645 4.55833 5.36253 4.58177L5.39157 4.57424C5.38439 4.54653 5.37263 4.52599 5.36245 4.50812L5.33638 4.52297ZM5.32708 4.35355C5.31006 4.39714 5.30586 4.42929 5.30979 4.45644C5.31369 4.4834 5.32547 4.50381 5.33638 4.52297L5.36245 4.50812C5.35128 4.48851 5.34246 4.47273 5.33948 4.45215C5.33653 4.43176 5.33919 4.40503 5.35502 4.36445L5.32708 4.35355ZM5.3925 4.40164C5.39573 4.41458 5.39378 4.42142 5.39234 4.4238C5.39201 4.42434 5.39174 4.42462 5.39159 4.42475C5.39145 4.42487 5.39136 4.42491 5.39131 4.42493C5.39129 4.42494 5.39071 4.42518 5.38925 4.42478C5.386 4.42389 5.3795 4.41998 5.37258 4.40871C5.36583 4.39772 5.35942 4.38083 5.35589 4.35682L5.32621 4.36118C5.33018 4.38817 5.33765 4.40916 5.34702 4.42442C5.35622 4.4394 5.3681 4.45011 5.38135 4.45372C5.38814 4.45557 5.39534 4.45553 5.40212 4.45292C5.40892 4.45029 5.41431 4.44543 5.41801 4.43933C5.42519 4.42746 5.42587 4.41143 5.4216 4.39436L5.3925 4.40164ZM5.37778 4.35854C5.3831 4.37226 5.38841 4.38597 5.39254 4.40179L5.42156 4.39422C5.41694 4.37651 5.41103 4.3613 5.40575 4.34769L5.37778 4.35854ZM5.38463 4.19629C5.36569 4.23419 5.35906 4.2636 5.36009 4.28993C5.36111 4.31592 5.36963 4.33754 5.37778 4.35854L5.40575 4.34769C5.39737 4.32611 5.39086 4.309 5.39007 4.28876C5.38929 4.26885 5.39407 4.24449 5.41147 4.20971L5.38463 4.19629ZM5.44305 4.239C5.44305 4.25546 5.44103 4.26649 5.4386 4.27238C5.43737 4.27537 5.43661 4.27563 5.4373 4.27511C5.43872 4.27407 5.44104 4.27366 5.44278 4.27423C5.44364 4.2745 5.44273 4.27449 5.44037 4.27169C5.43815 4.26907 5.43538 4.26484 5.43227 4.25852C5.42605 4.24591 5.41923 4.22663 5.41262 4.19946L5.38347 4.20655C5.39037 4.23487 5.3978 4.25647 5.40536 4.27179C5.40914 4.27945 5.41315 4.28595 5.41743 4.29104C5.42158 4.29595 5.4269 4.30062 5.43357 4.30278C5.44113 4.30521 5.44883 4.30387 5.45507 4.29929C5.46058 4.29524 5.46406 4.28935 5.46634 4.28381C5.47095 4.27263 5.47305 4.25705 5.47305 4.239H5.44305ZM5.57961 3.97567C5.51198 3.99661 5.47695 4.03689 5.45965 4.08588C5.44289 4.13339 5.44305 4.18864 5.44305 4.239H5.47305C5.47305 4.18736 5.47321 4.13761 5.48794 4.09587C5.50215 4.05561 5.53012 4.0224 5.58849 4.00433L5.57961 3.97567ZM5.64105 3.885C5.62374 3.885 5.61039 3.89332 5.60074 3.90403C5.59134 3.91447 5.58491 3.92772 5.58047 3.93984C5.57597 3.95211 5.57315 3.96422 5.57147 3.97315C5.57062 3.97765 5.57004 3.98141 5.56967 3.98408C5.56949 3.98542 5.56935 3.98648 5.56927 3.98724C5.56922 3.98761 5.56919 3.98791 5.56916 3.98812C5.56915 3.98823 5.56914 3.98832 5.56914 3.98838C5.56913 3.98841 5.56913 3.98844 5.56913 3.98846C5.56913 3.98847 5.56913 3.98848 5.56913 3.98849C5.56913 3.98849 5.56913 3.9885 5.56913 3.9885C5.56912 3.9885 5.56912 3.98851 5.58405 3.99C5.59898 3.99149 5.59898 3.9915 5.59897 3.9915C5.59897 3.9915 5.59897 3.9915 5.59897 3.99151C5.59897 3.99151 5.59897 3.99151 5.59897 3.99151C5.59897 3.99151 5.59897 3.9915 5.59898 3.99149C5.59898 3.99147 5.59898 3.99143 5.59899 3.99136C5.599 3.99124 5.59903 3.99103 5.59906 3.99075C5.59913 3.99018 5.59923 3.98931 5.59939 3.98819C5.5997 3.98593 5.6002 3.98266 5.60095 3.97872C5.60245 3.97078 5.60488 3.96039 5.60863 3.95017C5.61244 3.93978 5.61726 3.93053 5.62304 3.9241C5.62859 3.91794 5.63436 3.915 5.64105 3.915V3.885ZM5.69505 3.99C5.70998 3.98851 5.70997 3.98851 5.70997 3.9885C5.70997 3.9885 5.70997 3.98849 5.70997 3.98849C5.70997 3.98848 5.70997 3.98847 5.70997 3.98846C5.70997 3.98844 5.70997 3.98842 5.70996 3.98839C5.70996 3.98832 5.70995 3.98824 5.70994 3.98813C5.70991 3.98792 5.70988 3.98763 5.70984 3.98725C5.70975 3.98651 5.70962 3.98545 5.70944 3.98412C5.70908 3.98146 5.70852 3.97771 5.70769 3.97323C5.70606 3.96433 5.70336 3.95227 5.69908 3.94005C5.69486 3.92799 5.68877 3.91479 5.6799 3.90435C5.67083 3.89368 5.65798 3.885 5.64105 3.885V3.915C5.64662 3.915 5.65177 3.91758 5.65704 3.92378C5.66251 3.93021 5.66711 3.93951 5.67077 3.94996C5.67436 3.96023 5.67672 3.97067 5.67819 3.97864C5.67891 3.9826 5.6794 3.98589 5.67971 3.98815C5.67987 3.98928 5.67997 3.99016 5.68004 3.99073C5.68007 3.99102 5.6801 3.99123 5.68011 3.99135C5.68012 3.99142 5.68012 3.99146 5.68012 3.99149C5.68012 3.9915 5.68013 3.99151 5.68013 3.99151C5.68013 3.99151 5.68013 3.99151 5.68013 3.9915C5.68013 3.9915 5.68012 3.9915 5.68012 3.9915C5.68012 3.9915 5.68012 3.99149 5.69505 3.99ZM5.83605 4.23241C5.83608 4.1844 5.83629 4.13054 5.81949 4.08393C5.80216 4.03585 5.76705 3.9961 5.69939 3.97564L5.69071 4.00436C5.74918 4.02204 5.77711 4.05484 5.79127 4.09411C5.80595 4.13485 5.80609 4.18312 5.80605 4.23239L5.83605 4.23241ZM5.83605 4.23901L5.83605 4.23241L5.80605 4.23239L5.80605 4.239L5.83605 4.23901ZM5.86647 4.19946C5.85987 4.22663 5.85305 4.24591 5.84683 4.25852C5.84372 4.26484 5.84095 4.26907 5.83873 4.27169C5.83637 4.27449 5.83546 4.2745 5.83632 4.27423C5.83806 4.27366 5.84038 4.27407 5.8418 4.27511C5.84249 4.27563 5.84173 4.27537 5.8405 4.27238C5.83807 4.26649 5.83605 4.25546 5.83605 4.239H5.80605C5.80605 4.25705 5.80815 4.27263 5.81276 4.28381C5.81504 4.28935 5.81852 4.29524 5.82403 4.29929C5.83027 4.30387 5.83797 4.30521 5.84553 4.30278C5.8522 4.30062 5.85752 4.29595 5.86167 4.29104C5.86595 4.28595 5.86996 4.27945 5.87374 4.27179C5.8813 4.25647 5.88873 4.23487 5.89562 4.20655L5.86647 4.19946ZM5.90132 4.35854C5.90947 4.33754 5.91799 4.31592 5.91901 4.28993C5.92004 4.2636 5.91341 4.23419 5.89447 4.19629L5.86763 4.20971C5.88503 4.24449 5.88981 4.26885 5.88903 4.28876C5.88824 4.309 5.88173 4.32611 5.87335 4.34769L5.90132 4.35854ZM5.88656 4.40179C5.89069 4.38597 5.896 4.37226 5.90132 4.35854L5.87335 4.34769C5.86807 4.3613 5.86215 4.37651 5.85754 4.39422L5.88656 4.40179ZM5.92321 4.35682C5.91968 4.38083 5.91327 4.39772 5.90652 4.40871C5.8996 4.41998 5.8931 4.42389 5.88985 4.42478C5.88839 4.42518 5.88781 4.42494 5.88779 4.42493C5.88774 4.42491 5.88765 4.42487 5.88751 4.42475C5.88736 4.42462 5.88709 4.42434 5.88676 4.4238C5.88532 4.42142 5.88337 4.41458 5.8866 4.40164L5.8575 4.39436C5.85323 4.41143 5.85391 4.42746 5.86109 4.43933C5.86479 4.44543 5.87018 4.45029 5.87698 4.45292C5.88376 4.45553 5.89096 4.45557 5.89775 4.45372C5.911 4.45011 5.92288 4.4394 5.93208 4.42442C5.94145 4.40916 5.94892 4.38817 5.95289 4.36118L5.92321 4.35682ZM5.94272 4.52297C5.95363 4.50381 5.96541 4.4834 5.96931 4.45644C5.97324 4.42929 5.96903 4.39714 5.95202 4.35355L5.92408 4.36445C5.93991 4.40503 5.94257 4.43176 5.93962 4.45215C5.93664 4.47273 5.92782 4.48851 5.91665 4.50812L5.94272 4.52297ZM5.91657 4.58177C5.92265 4.55833 5.93252 4.54088 5.94272 4.52297L5.91665 4.50812C5.90647 4.52599 5.89471 4.54653 5.88753 4.57424L5.91657 4.58177ZM5.96894 4.51892C5.95645 4.55361 5.93537 4.57507 5.92089 4.58275C5.91736 4.58463 5.91476 4.58539 5.9132 4.58561C5.91158 4.58584 5.91209 4.58536 5.91347 4.58618C5.91789 4.58879 5.91391 4.59174 5.91654 4.58187L5.88756 4.57414C5.88419 4.58677 5.88395 4.60359 5.89822 4.61201C5.90452 4.61573 5.91148 4.61615 5.91737 4.61532C5.92333 4.61448 5.9293 4.61225 5.93496 4.60925C5.95723 4.59743 5.98265 4.56939 5.99716 4.52908L5.96894 4.51892ZM5.98426 4.72011C5.99477 4.70059 6.00791 4.67613 6.01323 4.64341C6.01858 4.61049 6.01588 4.57039 5.99715 4.51888L5.96895 4.52913C5.98622 4.57662 5.98802 4.61151 5.98362 4.6386C5.97919 4.66587 5.96833 4.68642 5.95784 4.70589L5.98426 4.72011ZM5.98605 4.794C5.97793 4.794 5.9742 4.79167 5.97226 4.78962C5.97006 4.78728 5.96808 4.78305 5.96765 4.77585C5.96676 4.76109 5.97287 4.74005 5.98407 4.72044L5.95803 4.70556C5.94523 4.72796 5.93634 4.75491 5.9377 4.77765C5.93839 4.7892 5.94185 4.80109 5.95043 4.8102C5.95928 4.81958 5.97167 4.824 5.98605 4.824V4.794ZM6.06322 4.72003C6.05423 4.7386 6.04508 4.75728 6.03255 4.77153C6.02051 4.78522 6.00608 4.794 5.98605 4.794V4.824C6.01678 4.824 6.03887 4.80977 6.05508 4.79134C6.07078 4.77349 6.08158 4.75095 6.09022 4.7331L6.06322 4.72003ZM6.11205 4.668C6.09722 4.668 6.08736 4.67839 6.08114 4.68717C6.07464 4.69632 6.0688 4.7085 6.06322 4.72003L6.09022 4.7331C6.09618 4.72078 6.10088 4.71119 6.10561 4.70452C6.1079 4.70128 6.10969 4.69951 6.11092 4.69862C6.11149 4.69821 6.11183 4.69807 6.11194 4.69803C6.11204 4.698 6.11204 4.698 6.11205 4.698V4.668ZM6.12705 5.52V4.683H6.09705V5.52H6.12705ZM5.16705 5.535H6.11205V5.505H5.16705V5.535ZM7.87843 3.95201C7.85552 3.95297 7.83843 3.96371 7.82631 3.97842C7.81455 3.99271 7.80745 4.01068 7.80305 4.02728C7.79861 4.04405 7.79663 4.06051 7.79575 4.07265C7.7953 4.07875 7.79513 4.08385 7.79506 4.08745C7.79503 4.08925 7.79503 4.09069 7.79503 4.09169C7.79504 4.0922 7.79504 4.09259 7.79505 4.09287C7.79505 4.09301 7.79505 4.09313 7.79505 4.09321C7.79505 4.09325 7.79505 4.09328 7.79505 4.09331C7.79505 4.09332 7.79505 4.09333 7.79505 4.09334C7.79505 4.09335 7.79505 4.09335 7.79505 4.09336C7.79505 4.09336 7.79505 4.09337 7.81005 4.093C7.82505 4.09264 7.82505 4.09264 7.82505 4.09264C7.82505 4.09264 7.82505 4.09265 7.82505 4.09265C7.82505 4.09265 7.82505 4.09265 7.82505 4.09265C7.82505 4.09264 7.82505 4.09263 7.82505 4.09262C7.82504 4.09258 7.82504 4.09252 7.82504 4.09242C7.82504 4.09224 7.82504 4.09195 7.82503 4.09155C7.82503 4.09075 7.82503 4.08954 7.82506 4.08797C7.82511 4.08484 7.82527 4.0803 7.82567 4.07483C7.82647 4.06381 7.82824 4.04933 7.83205 4.03497C7.8359 4.02045 7.84155 4.00711 7.84947 3.99749C7.85704 3.9883 7.86658 3.98253 7.87967 3.98199L7.87843 3.95201ZM7.94505 4.093C7.96005 4.09336 7.96005 4.09335 7.96005 4.09335C7.96005 4.09335 7.96005 4.09334 7.96005 4.09334C7.96005 4.09333 7.96005 4.09332 7.96005 4.0933C7.96005 4.09328 7.96005 4.09324 7.96005 4.0932C7.96005 4.09312 7.96005 4.09301 7.96005 4.09286C7.96006 4.09258 7.96006 4.09218 7.96007 4.09167C7.96007 4.09065 7.96007 4.08919 7.96004 4.08736C7.95999 4.08369 7.95982 4.07851 7.95941 4.0723C7.95857 4.05997 7.9567 4.04327 7.95248 4.02636C7.9483 4.00966 7.94153 3.99155 7.9302 3.97734C7.91847 3.96263 7.90166 3.952 7.87905 3.952V3.982C7.89094 3.982 7.89963 3.98713 7.90674 3.99604C7.91425 4.00546 7.91967 4.01885 7.92337 4.03364C7.92702 4.04823 7.92871 4.06303 7.92947 4.07432C7.92985 4.07993 7.93 4.08459 7.93005 4.08782C7.93007 4.08943 7.93007 4.09068 7.93007 4.0915C7.93006 4.09192 7.93006 4.09222 7.93006 4.09242C7.93006 4.09251 7.93006 4.09258 7.93005 4.09262C7.93005 4.09264 7.93005 4.09265 7.93005 4.09265C7.93005 4.09266 7.93005 4.09266 7.93005 4.09265C7.93005 4.09265 7.93005 4.09265 7.93005 4.09265C7.93005 4.09265 7.93005 4.09264 7.94505 4.093ZM7.81005 4.108H7.94505V4.078H7.81005V4.108Z" fill="white"/>
</g>
<defs>
<clipPath id="clip0_270_55202">
<rect width="16" height="12" fill="white"/>
</clipPath>
</defs>
</svg>
