<svg xmlns="http://www.w3.org/2000/svg" xmlns:xlink="http://www.w3.org/1999/xlink" width="16" height="12" viewBox="0 0 16 12">
  <defs>
    <rect id="a" width="16" height="12"/>
    <rect id="c" width="16" height="12"/>
  </defs>
  <g fill="none" fill-rule="evenodd">
    <mask id="b" fill="white">
      <use xlink:href="#a"/>
    </mask>
    <g mask="url(#b)">
      <mask id="d" fill="white">
        <use xlink:href="#c"/>
      </mask>
      <use fill="#4EC7EE" xlink:href="#c"/>
      <g mask="url(#d)">
        <g transform="translate(1 -1)">
          <g transform="matrix(1 0 0 -1 1.212 13)">
            <path fill="#FFE402" fill-rule="nonzero" d="M-0.166810887,0.381509416 C-0.198542374,0.146509761 -0.0480163746,-0.020874079 0.204497111,-0.128602457 C0.543955209,-0.273423516 0.886474944,-0.13781209 1.20154341,0.21129361 L0.793239905,0.579788184 C0.653282121,0.424710586 0.552145784,0.364962949 0.474074126,0.3659786 C0.626938816,0.475188491 0.82279368,0.610008789 1.06136132,0.770219544 L1.17586611,0.936082259 C1.26783289,1.3305795 0.981866589,1.54434241 0.54574471,1.54434241 C0.288866673,1.54434241 0.0834960524,1.49351426 -0.0468033851,1.38426247 C-0.260871317,1.20477357 -0.224222853,0.918249392 0.00104922718,0.76918154 C0.0189177818,0.757357495 0.0370553431,0.746716676 0.055436573,0.737236005 C-0.0709365283,0.630514577 -0.148065288,0.52033711 -0.166810887,0.381509416 Z"/>
            <path stroke="#FFE402" stroke-width=".55" d="M0.0706634165,0.752278821 C0.112257612,0.844465305 0.122656161,0.914542188 0.101859063,0.962509469"/>
            <g fill="#FFE402" fill-rule="nonzero" transform="matrix(-1 0 0 1 1.906 0)">
              <path d="M-0.166810887,0.381509416 C-0.198542374,0.146509761 -0.0480163746,-0.020874079 0.204497111,-0.128602457 C0.543955209,-0.273423516 0.886474944,-0.13781209 1.20154341,0.21129361 L0.793239905,0.579788184 C0.653282121,0.424710586 0.552145784,0.364962949 0.474074126,0.3659786 C0.626938816,0.475188491 0.82279368,0.610008789 1.06136132,0.770219544 L1.17586611,0.936082259 C1.26783289,1.3305795 0.981866589,1.54434241 0.54574471,1.54434241 C0.288866673,1.54434241 0.0834960524,1.49351426 -0.0468033851,1.38426247 C-0.260871317,1.20477357 -0.224222853,0.918249392 0.00104922718,0.76918154 C0.0189177818,0.757357495 0.0370553431,0.746716676 0.055436573,0.737236005 C-0.0709365283,0.630514577 -0.148065288,0.52033711 -0.166810887,0.381509416 Z"/>
              <path d="M-0.180002661,0.865378413 L0.321329494,0.639179229 C0.391699932,0.795143378 0.412725364,0.936835915 0.354165217,1.07190145 L-0.150447091,0.853117492 C-0.167413043,0.892248461 -0.167184708,0.893787232 -0.180002661,0.865378413 Z"/>
            </g>
          </g>
          <g fill="#FFE402" fill-rule="nonzero" transform="translate(.212)">
            <path d="M0.833189113,1.38150942 C0.801457626,1.14650976 0.951983625,0.979125921 1.20449711,0.871397543 C1.54395521,0.726576484 1.88647494,0.86218791 2.20154341,1.21129361 L1.79323991,1.57978818 C1.65328212,1.42471059 1.55214578,1.36496295 1.47407413,1.3659786 C1.62693882,1.47518849 1.82279368,1.61000879 2.06136132,1.77021954 L2.17586611,1.93608226 C2.26783289,2.3305795 1.98186659,2.54434241 1.54574471,2.54434241 C1.28886667,2.54434241 1.08349605,2.49351426 0.953196615,2.38426247 C0.739128683,2.20477357 0.775777147,1.91824939 1.00104923,1.76918154 C1.01891778,1.7573575 1.03705534,1.74671668 1.05543657,1.73723601 C0.929063472,1.63051458 0.851934712,1.52033711 0.833189113,1.38150942 Z"/>
            <path d="M0.833189113,1.38150942 C0.801457626,1.14650976 0.951983625,0.979125921 1.20449711,0.871397543 C1.54395521,0.726576484 1.88647494,0.86218791 2.20154341,1.21129361 L1.79323991,1.57978818 C1.65328212,1.42471059 1.55214578,1.36496295 1.47407413,1.3659786 C1.62693882,1.47518849 1.82279368,1.61000879 2.06136132,1.77021954 L2.17586611,1.93608226 C2.26783289,2.3305795 1.98186659,2.54434241 1.54574471,2.54434241 C1.28886667,2.54434241 1.08349605,2.49351426 0.953196615,2.38426247 C0.739128683,2.20477357 0.775777147,1.91824939 1.00104923,1.76918154 C1.01891778,1.7573575 1.03705534,1.74671668 1.05543657,1.73723601 C0.929063472,1.63051458 0.851934712,1.52033711 0.833189113,1.38150942 Z" transform="matrix(-1 0 0 1 3.906 0)"/>
          </g>
          <g fill="#FFE402" fill-rule="nonzero" transform="matrix(1 0 0 -1 0 12.633)">
            <path d="M1.58070318,1.34781714 C1.57072334,1.35003836 1.5611218,1.35246536 1.55215115,1.35506989 C1.55883152,1.34806548 1.58508083,1.31677226 1.58508083,1.2231087 C1.58508083,1.17211445 1.58262382,1.13623893 1.5793308,1.11101524 C1.48653653,1.19287478 1.46059604,1.3355782 1.52850062,1.44542577 C1.52908118,1.44636492 1.52964122,1.44727874 1.5301812,1.44816781 L1.58070318,1.34781714 Z M1.55215115,1.35506989 C1.54888454,1.35601831 1.5457016,1.35699028 1.5426145,1.35798442 C1.54364353,1.35765304 1.54498798,1.35701932 1.54656277,1.35600076 L1.55215115,1.35506989 Z M1.8166039,1.34469523 C1.82212126,1.34170486 1.8253134,1.33612182 1.8253134,1.32673246 C1.8253134,1.32881202 1.82346075,1.33366977 1.81980503,1.34118991 L1.8166039,1.34469523 Z M1.54689633,1.60141197 C1.23138852,1.59233104 1.03508083,1.52724643 1.03508083,1.2231087 C1.03508083,0.887735386 1.36090231,0.782810742 1.70754539,0.782810742 C2.02155808,0.782810742 2.3753134,0.977701513 2.3753134,1.32673246 C2.3753134,1.53906766 2.10533385,1.96754754 1.42551658,2.89639378 C1.38933738,2.93009245 1.37811826,2.93840966 1.36288884,2.92010352 C1.39957914,2.94433572 1.47875659,2.97943304 1.58821929,2.97943304 C1.621479,2.97943304 1.66470246,2.96261012 1.70754539,2.94106037 L1.70754539,2.57677671 L2.42728244,2.57677671 L2.42728244,2.85177671 C2.42728244,3.16247241 1.96800107,3.52943304 1.58821929,3.52943304 C1.2565434,3.52943304 0.990269013,3.37165416 0.855397168,3.14466875 C0.722108341,2.9203475 0.82403018,2.70501475 1.01544729,2.53373749 C1.30029128,2.14088567 1.52145299,1.81570215 1.66015459,1.60204134 C1.60919519,1.60246648 1.58121405,1.6023997 1.54689633,1.60141197 Z M1.51982613,1.46873585 L1.53018127,1.44816768 C1.55499218,1.48901866 1.53743268,1.47759994 1.51982613,1.46873585 Z"/>
            <path d="M1.58070318,1.34781714 C1.57072334,1.35003836 1.5611218,1.35246536 1.55215115,1.35506989 C1.55883152,1.34806548 1.58508083,1.31677226 1.58508083,1.2231087 C1.58508083,1.17211445 1.58262382,1.13623893 1.5793308,1.11101524 C1.48653653,1.19287478 1.46059604,1.3355782 1.52850062,1.44542577 C1.52908118,1.44636492 1.52964122,1.44727874 1.5301812,1.44816781 L1.58070318,1.34781714 Z M1.55215115,1.35506989 C1.54888454,1.35601831 1.5457016,1.35699028 1.5426145,1.35798442 C1.54364353,1.35765304 1.54498798,1.35701932 1.54656277,1.35600076 L1.55215115,1.35506989 Z M1.8166039,1.34469523 C1.82212126,1.34170486 1.8253134,1.33612182 1.8253134,1.32673246 C1.8253134,1.32881202 1.82346075,1.33366977 1.81980503,1.34118991 L1.8166039,1.34469523 Z M1.54689633,1.60141197 C1.23138852,1.59233104 1.03508083,1.52724643 1.03508083,1.2231087 C1.03508083,0.887735386 1.36090231,0.782810742 1.70754539,0.782810742 C2.02155808,0.782810742 2.3753134,0.977701513 2.3753134,1.32673246 C2.3753134,1.53906766 2.10533385,1.96754754 1.42551658,2.89639378 C1.38933738,2.93009245 1.37811826,2.93840966 1.36288884,2.92010352 C1.39957914,2.94433572 1.47875659,2.97943304 1.58821929,2.97943304 C1.621479,2.97943304 1.66470246,2.96261012 1.70754539,2.94106037 L1.70754539,2.57677671 L2.42728244,2.57677671 L2.42728244,2.85177671 C2.42728244,3.16247241 1.96800107,3.52943304 1.58821929,3.52943304 C1.2565434,3.52943304 0.990269013,3.37165416 0.855397168,3.14466875 C0.722108341,2.9203475 0.82403018,2.70501475 1.01544729,2.53373749 C1.30029128,2.14088567 1.52145299,1.81570215 1.66015459,1.60204134 C1.60919519,1.60246648 1.58121405,1.6023997 1.54689633,1.60141197 Z M1.51982613,1.46873585 L1.53018127,1.44816768 C1.55499218,1.48901866 1.53743268,1.47759994 1.51982613,1.46873585 Z" transform="matrix(-1 0 0 1 4.33 0)"/>
          </g>
          <g fill="#FFE402" fill-rule="nonzero" transform="translate(0 6.076)">
            <path d="M1.58070318,1.34781714 C1.57072334,1.35003836 1.5611218,1.35246536 1.55215115,1.35506989 C1.55883152,1.34806548 1.58508083,1.31677226 1.58508083,1.2231087 C1.58508083,1.17211445 1.58262382,1.13623893 1.5793308,1.11101524 C1.48653653,1.19287478 1.46059604,1.3355782 1.52850062,1.44542577 C1.52908118,1.44636492 1.52964122,1.44727874 1.5301812,1.44816781 L1.58070318,1.34781714 Z M1.55215115,1.35506989 C1.54888454,1.35601831 1.5457016,1.35699028 1.5426145,1.35798442 C1.54364353,1.35765304 1.54498798,1.35701932 1.54656277,1.35600076 L1.55215115,1.35506989 Z M1.8166039,1.34469523 C1.82212126,1.34170486 1.8253134,1.33612182 1.8253134,1.32673246 C1.8253134,1.32881202 1.82346075,1.33366977 1.81980503,1.34118991 L1.8166039,1.34469523 Z M1.54689633,1.60141197 C1.23138852,1.59233104 1.03508083,1.52724643 1.03508083,1.2231087 C1.03508083,0.887735386 1.36090231,0.782810742 1.70754539,0.782810742 C2.02155808,0.782810742 2.3753134,0.977701513 2.3753134,1.32673246 C2.3753134,1.53906766 2.10533385,1.96754754 1.42551658,2.89639378 C1.38933738,2.93009245 1.37811826,2.93840966 1.36288884,2.92010352 C1.39957914,2.94433572 1.47875659,2.97943304 1.58821929,2.97943304 C1.621479,2.97943304 1.66470246,2.96261012 1.70754539,2.94106037 L1.70754539,2.57677671 L2.42728244,2.57677671 L2.42728244,2.85177671 C2.42728244,3.16247241 1.96800107,3.52943304 1.58821929,3.52943304 C1.2565434,3.52943304 0.990269013,3.37165416 0.855397168,3.14466875 C0.722108341,2.9203475 0.82403018,2.70501475 1.01544729,2.53373749 C1.30029128,2.14088567 1.52145299,1.81570215 1.66015459,1.60204134 C1.60919519,1.60246648 1.58121405,1.6023997 1.54689633,1.60141197 Z M1.51982613,1.46873585 L1.53018127,1.44816768 C1.55499218,1.48901866 1.53743268,1.47759994 1.51982613,1.46873585 Z"/>
            <path d="M1.58070318,1.34781714 C1.57072334,1.35003836 1.5611218,1.35246536 1.55215115,1.35506989 C1.55883152,1.34806548 1.58508083,1.31677226 1.58508083,1.2231087 C1.58508083,1.17211445 1.58262382,1.13623893 1.5793308,1.11101524 C1.48653653,1.19287478 1.46059604,1.3355782 1.52850062,1.44542577 C1.52908118,1.44636492 1.52964122,1.44727874 1.5301812,1.44816781 L1.58070318,1.34781714 Z M1.55215115,1.35506989 C1.54888454,1.35601831 1.5457016,1.35699028 1.5426145,1.35798442 C1.54364353,1.35765304 1.54498798,1.35701932 1.54656277,1.35600076 L1.55215115,1.35506989 Z M1.8166039,1.34469523 C1.82212126,1.34170486 1.8253134,1.33612182 1.8253134,1.32673246 C1.8253134,1.32881202 1.82346075,1.33366977 1.81980503,1.34118991 L1.8166039,1.34469523 Z M1.54689633,1.60141197 C1.23138852,1.59233104 1.03508083,1.52724643 1.03508083,1.2231087 C1.03508083,0.887735386 1.36090231,0.782810742 1.70754539,0.782810742 C2.02155808,0.782810742 2.3753134,0.977701513 2.3753134,1.32673246 C2.3753134,1.53906766 2.10533385,1.96754754 1.42551658,2.89639378 C1.38933738,2.93009245 1.37811826,2.93840966 1.36288884,2.92010352 C1.39957914,2.94433572 1.47875659,2.97943304 1.58821929,2.97943304 C1.621479,2.97943304 1.66470246,2.96261012 1.70754539,2.94106037 L1.70754539,2.57677671 L2.42728244,2.57677671 L2.42728244,2.85177671 C2.42728244,3.16247241 1.96800107,3.52943304 1.58821929,3.52943304 C1.2565434,3.52943304 0.990269013,3.37165416 0.855397168,3.14466875 C0.722108341,2.9203475 0.82403018,2.70501475 1.01544729,2.53373749 C1.30029128,2.14088567 1.52145299,1.81570215 1.66015459,1.60204134 C1.60919519,1.60246648 1.58121405,1.6023997 1.54689633,1.60141197 Z M1.51982613,1.46873585 L1.53018127,1.44816768 C1.55499218,1.48901866 1.53743268,1.47759994 1.51982613,1.46873585 Z" transform="matrix(-1 0 0 1 4.33 0)"/>
          </g>
          <g fill="#FFE402" fill-rule="nonzero" transform="matrix(1 0 0 -1 0 7.924)">
            <path d="M1.58070318,1.34781714 C1.57072334,1.35003836 1.5611218,1.35246536 1.55215115,1.35506989 C1.55883152,1.34806548 1.58508083,1.31677226 1.58508083,1.2231087 C1.58508083,1.17211445 1.58262382,1.13623893 1.5793308,1.11101524 C1.48653653,1.19287478 1.46059604,1.3355782 1.52850062,1.44542577 C1.52908118,1.44636492 1.52964122,1.44727874 1.5301812,1.44816781 L1.58070318,1.34781714 Z M1.55215115,1.35506989 C1.54888454,1.35601831 1.5457016,1.35699028 1.5426145,1.35798442 C1.54364353,1.35765304 1.54498798,1.35701932 1.54656277,1.35600076 L1.55215115,1.35506989 Z M1.8166039,1.34469523 C1.82212126,1.34170486 1.8253134,1.33612182 1.8253134,1.32673246 C1.8253134,1.32881202 1.82346075,1.33366977 1.81980503,1.34118991 L1.8166039,1.34469523 Z M1.54689633,1.60141197 C1.23138852,1.59233104 1.03508083,1.52724643 1.03508083,1.2231087 C1.03508083,0.887735386 1.36090231,0.782810742 1.70754539,0.782810742 C2.02155808,0.782810742 2.3753134,0.977701513 2.3753134,1.32673246 C2.3753134,1.53906766 2.10533385,1.96754754 1.42551658,2.89639378 C1.38933738,2.93009245 1.37811826,2.93840966 1.36288884,2.92010352 C1.39957914,2.94433572 1.47875659,2.97943304 1.58821929,2.97943304 C1.621479,2.97943304 1.66470246,2.96261012 1.70754539,2.94106037 L1.70754539,2.57677671 L2.42728244,2.57677671 L2.42728244,2.85177671 C2.42728244,3.16247241 1.96800107,3.52943304 1.58821929,3.52943304 C1.2565434,3.52943304 0.990269013,3.37165416 0.855397168,3.14466875 C0.722108341,2.9203475 0.82403018,2.70501475 1.01544729,2.53373749 C1.30029128,2.14088567 1.52145299,1.81570215 1.66015459,1.60204134 C1.60919519,1.60246648 1.58121405,1.6023997 1.54689633,1.60141197 Z M1.51982613,1.46873585 L1.53018127,1.44816768 C1.55499218,1.48901866 1.53743268,1.47759994 1.51982613,1.46873585 Z"/>
            <path d="M1.58070318,1.34781714 C1.57072334,1.35003836 1.5611218,1.35246536 1.55215115,1.35506989 C1.55883152,1.34806548 1.58508083,1.31677226 1.58508083,1.2231087 C1.58508083,1.17211445 1.58262382,1.13623893 1.5793308,1.11101524 C1.48653653,1.19287478 1.46059604,1.3355782 1.52850062,1.44542577 C1.52908118,1.44636492 1.52964122,1.44727874 1.5301812,1.44816781 L1.58070318,1.34781714 Z M1.55215115,1.35506989 C1.54888454,1.35601831 1.5457016,1.35699028 1.5426145,1.35798442 C1.54364353,1.35765304 1.54498798,1.35701932 1.54656277,1.35600076 L1.55215115,1.35506989 Z M1.8166039,1.34469523 C1.82212126,1.34170486 1.8253134,1.33612182 1.8253134,1.32673246 C1.8253134,1.32881202 1.82346075,1.33366977 1.81980503,1.34118991 L1.8166039,1.34469523 Z M1.54689633,1.60141197 C1.23138852,1.59233104 1.03508083,1.52724643 1.03508083,1.2231087 C1.03508083,0.887735386 1.36090231,0.782810742 1.70754539,0.782810742 C2.02155808,0.782810742 2.3753134,0.977701513 2.3753134,1.32673246 C2.3753134,1.53906766 2.10533385,1.96754754 1.42551658,2.89639378 C1.38933738,2.93009245 1.37811826,2.93840966 1.36288884,2.92010352 C1.39957914,2.94433572 1.47875659,2.97943304 1.58821929,2.97943304 C1.621479,2.97943304 1.66470246,2.96261012 1.70754539,2.94106037 L1.70754539,2.57677671 L2.42728244,2.57677671 L2.42728244,2.85177671 C2.42728244,3.16247241 1.96800107,3.52943304 1.58821929,3.52943304 C1.2565434,3.52943304 0.990269013,3.37165416 0.855397168,3.14466875 C0.722108341,2.9203475 0.82403018,2.70501475 1.01544729,2.53373749 C1.30029128,2.14088567 1.52145299,1.81570215 1.66015459,1.60204134 C1.60919519,1.60246648 1.58121405,1.6023997 1.54689633,1.60141197 Z M1.51982613,1.46873585 L1.53018127,1.44816768 C1.55499218,1.48901866 1.53743268,1.47759994 1.51982613,1.46873585 Z" transform="matrix(-1 0 0 1 4.33 0)"/>
          </g>
          <g fill="#FFE402" fill-rule="nonzero" transform="translate(0 1.367)">
            <path d="M1.58070318,1.34781714 C1.57072334,1.35003836 1.5611218,1.35246536 1.55215115,1.35506989 C1.55883152,1.34806548 1.58508083,1.31677226 1.58508083,1.2231087 C1.58508083,1.17211445 1.58262382,1.13623893 1.5793308,1.11101524 C1.48653653,1.19287478 1.46059604,1.3355782 1.52850062,1.44542577 C1.52908118,1.44636492 1.52964122,1.44727874 1.5301812,1.44816781 L1.58070318,1.34781714 Z M1.55215115,1.35506989 C1.54888454,1.35601831 1.5457016,1.35699028 1.5426145,1.35798442 C1.54364353,1.35765304 1.54498798,1.35701932 1.54656277,1.35600076 L1.55215115,1.35506989 Z M1.8166039,1.34469523 C1.82212126,1.34170486 1.8253134,1.33612182 1.8253134,1.32673246 C1.8253134,1.32881202 1.82346075,1.33366977 1.81980503,1.34118991 L1.8166039,1.34469523 Z M1.54689633,1.60141197 C1.23138852,1.59233104 1.03508083,1.52724643 1.03508083,1.2231087 C1.03508083,0.887735386 1.36090231,0.782810742 1.70754539,0.782810742 C2.02155808,0.782810742 2.3753134,0.977701513 2.3753134,1.32673246 C2.3753134,1.53906766 2.10533385,1.96754754 1.42551658,2.89639378 C1.38933738,2.93009245 1.37811826,2.93840966 1.36288884,2.92010352 C1.39957914,2.94433572 1.47875659,2.97943304 1.58821929,2.97943304 C1.621479,2.97943304 1.66470246,2.96261012 1.70754539,2.94106037 L1.70754539,2.57677671 L2.42728244,2.57677671 L2.42728244,2.85177671 C2.42728244,3.16247241 1.96800107,3.52943304 1.58821929,3.52943304 C1.2565434,3.52943304 0.990269013,3.37165416 0.855397168,3.14466875 C0.722108341,2.9203475 0.82403018,2.70501475 1.01544729,2.53373749 C1.30029128,2.14088567 1.52145299,1.81570215 1.66015459,1.60204134 C1.60919519,1.60246648 1.58121405,1.6023997 1.54689633,1.60141197 Z M1.51982613,1.46873585 L1.53018127,1.44816768 C1.55499218,1.48901866 1.53743268,1.47759994 1.51982613,1.46873585 Z"/>
            <path d="M1.58070318,1.34781714 C1.57072334,1.35003836 1.5611218,1.35246536 1.55215115,1.35506989 C1.55883152,1.34806548 1.58508083,1.31677226 1.58508083,1.2231087 C1.58508083,1.17211445 1.58262382,1.13623893 1.5793308,1.11101524 C1.48653653,1.19287478 1.46059604,1.3355782 1.52850062,1.44542577 C1.52908118,1.44636492 1.52964122,1.44727874 1.5301812,1.44816781 L1.58070318,1.34781714 Z M1.55215115,1.35506989 C1.54888454,1.35601831 1.5457016,1.35699028 1.5426145,1.35798442 C1.54364353,1.35765304 1.54498798,1.35701932 1.54656277,1.35600076 L1.55215115,1.35506989 Z M1.8166039,1.34469523 C1.82212126,1.34170486 1.8253134,1.33612182 1.8253134,1.32673246 C1.8253134,1.32881202 1.82346075,1.33366977 1.81980503,1.34118991 L1.8166039,1.34469523 Z M1.54689633,1.60141197 C1.23138852,1.59233104 1.03508083,1.52724643 1.03508083,1.2231087 C1.03508083,0.887735386 1.36090231,0.782810742 1.70754539,0.782810742 C2.02155808,0.782810742 2.3753134,0.977701513 2.3753134,1.32673246 C2.3753134,1.53906766 2.10533385,1.96754754 1.42551658,2.89639378 C1.38933738,2.93009245 1.37811826,2.93840966 1.36288884,2.92010352 C1.39957914,2.94433572 1.47875659,2.97943304 1.58821929,2.97943304 C1.621479,2.97943304 1.66470246,2.96261012 1.70754539,2.94106037 L1.70754539,2.57677671 L2.42728244,2.57677671 L2.42728244,2.85177671 C2.42728244,3.16247241 1.96800107,3.52943304 1.58821929,3.52943304 C1.2565434,3.52943304 0.990269013,3.37165416 0.855397168,3.14466875 C0.722108341,2.9203475 0.82403018,2.70501475 1.01544729,2.53373749 C1.30029128,2.14088567 1.52145299,1.81570215 1.66015459,1.60204134 C1.60919519,1.60246648 1.58121405,1.6023997 1.54689633,1.60141197 Z M1.51982613,1.46873585 L1.53018127,1.44816768 C1.55499218,1.48901866 1.53743268,1.47759994 1.51982613,1.46873585 Z" transform="matrix(-1 0 0 1 4.33 0)"/>
          </g>
          <g transform="translate(3.901 2.392)">
            <path fill="#FFE402" d="M4.62906599,4.71758935 C3.69294331,4.71758935 2.93406593,3.91170192 2.93406593,2.9175894 C2.93406593,1.92347687 3.69294331,1.11758944 4.62906599,1.11758944 C5.56518867,1.11758944 6.32406604,1.92347687 6.32406604,2.9175894 C6.32406604,3.91170192 5.56518867,4.71758935 4.62906599,4.71758935 Z M4.7969786,0.763855568 C4.79858365,0.87955095 4.73403461,0.937398641 4.60333147,0.937398641 C4.47262833,0.937398641 4.40398112,0.87955095 4.39738983,0.763855568 L4.59225332,0 L4.7969786,0.763855568 Z M5.38951087,0.917890599 C5.35721973,1.02899991 5.27857814,1.06544762 5.15358611,1.02723372 C5.02859408,0.989019823 4.97985945,0.913629299 5.00738223,0.801062149 L5.41706087,0.127556008 L5.38951087,0.917890599 Z M5.91179608,1.24955572 C5.84843069,1.34636907 5.76256909,1.35823161 5.65421128,1.28514335 C5.54585346,1.21205508 5.52129036,1.12571013 5.58052198,1.02610852 L6.16921375,0.501809831 L5.91179608,1.24955572 Z M6.3172744,1.72940407 C6.2283723,1.80346089 6.14279417,1.7897016 6.06054001,1.68812618 C5.97828586,1.58655076 5.98004087,1.49679713 6.06580504,1.41886527 L6.78206388,1.08959276 L6.3172744,1.72940407 Z M6.56463258,2.31126144 C6.45719683,2.3542214 6.38005905,2.31469044 6.33321924,2.19266855 C6.28637942,2.07064665 6.31578393,1.9858282 6.42143277,1.93821319 L7.20438621,1.84639258 L6.56463258,2.31126144 Z M6.64281265,2.94873191 C6.52751106,2.95840355 6.46530157,2.898047 6.45618417,2.76766224 C6.44706678,2.63727749 6.49998497,2.56476225 6.61493874,2.55011652 L7.39052659,2.69122146 L6.64281265,2.94873191 Z M6.53882032,3.58320648 C6.42572915,3.5587446 6.38388446,3.48283704 6.41328627,3.35548381 C6.44268808,3.22813059 6.5144954,3.1742557 6.62870824,3.19385915 L7.32915149,3.55555841 L6.53882032,3.58320648 Z M6.26181961,4.15817519 C6.16082195,4.10171751 6.1429989,4.01689255 6.20835047,3.90370032 C6.27370204,3.79050808 6.35812322,3.75998169 6.461614,3.81212116 L7.02570058,4.36280568 L6.26181961,4.15817519 Z M5.83638962,4.62239901 C5.7563117,4.53887941 5.76406785,4.45254994 5.85965808,4.36341062 C5.9552483,4.27427129 6.04490573,4.26976113 6.12863035,4.34988013 L6.50706446,5.0414253 L5.83638962,4.62239901 Z M5.30034352,4.93447584 C5.24818339,4.83119313 5.28084093,4.75090353 5.39831614,4.69360704 C5.51579134,4.63631056 5.6028498,4.65821076 5.65949153,4.75930765 L5.81920162,5.53127902 L5.30034352,4.93447584 Z M4.70136766,5.06653269 C4.68168362,4.95251279 4.73638859,4.8852796 4.86548256,4.86483313 C4.99457652,4.84438665 5.07142795,4.89078335 5.09603683,5.00402323 L5.02306577,5.78895783 L4.70136766,5.06653269 Z M4.09838966,5.0040278 C4.11490312,4.88950573 4.18770683,4.84246794 4.3168008,4.86291441 C4.44589477,4.88336089 4.50464744,4.95123517 4.49305883,5.06653725 L4.1811011,5.79050513 L4.09838966,5.0040278 Z M3.53493237,4.75932046 C3.58420728,4.65463053 3.66758233,4.63093381 3.78505753,4.68823029 C3.90253274,4.74552678 3.93887368,4.8276129 3.89408037,4.93448865 L3.38408599,5.53561495 L3.53493237,4.75932046 Z M3.06578866,4.34990005 C3.14351886,4.26419116 3.23017907,4.26590638 3.3257693,4.3550457 C3.42135952,4.44418503 3.43211288,4.53330944 3.35802938,4.62241893 L2.694567,5.04817095 L3.06578866,4.34990005 Z M2.73279825,3.81214646 C2.83219086,3.75290875 2.91456296,3.77988602 2.97991453,3.89307826 C3.0452661,4.0062705 3.02949213,4.09464457 2.93259263,4.15820048 L2.17364256,4.37137153 L2.73279825,3.81214646 Z M2.56569598,3.1938876 C2.67806504,3.16629789 2.74895047,3.21617965 2.77835228,3.34353288 C2.80775409,3.4708861 2.76683129,3.55078679 2.65558389,3.58323494 L1.86747114,3.5651959 L2.56569598,3.1938876 Z M2.57945686,2.55014565 C2.69498238,2.55661501 2.74818644,2.62504207 2.73906905,2.75542683 C2.72995166,2.88581158 2.6674563,2.95025632 2.55158296,2.94876104 L1.8031811,2.70108836 L2.57945686,2.55014565 Z M2.77295441,1.93824046 C2.88154055,1.97820353 2.91241371,2.05919601 2.8655739,2.18121791 C2.81873408,2.3032398 2.74012765,2.34659673 2.6297546,2.31128871 L1.98646682,1.85562662 L2.77295441,1.93824046 Z M3.12857422,1.41888797 C3.21949651,1.49045008 3.22383058,1.57701884 3.14157643,1.67859426 C3.05932228,1.78016967 2.97116509,1.79711384 2.87710486,1.72942677 L2.40610916,1.09727951 L3.12857422,1.41888797 Z M3.61385145,1.02612485 C3.67987814,1.12114313 3.65871257,1.20519641 3.55035476,1.27828468 C3.44199694,1.35137295 3.35273781,1.34180207 3.28257735,1.24957205 L3.01698389,0.507340805 L3.61385145,1.02612485 Z M4.18698749,0.801070688 C4.22234846,0.911241462 4.17753293,0.985433798 4.0525409,1.0236477 C3.92754886,1.0618616 3.84498818,1.02661208 3.80485884,0.917899138 L3.76787797,0.130447855 L4.18698749,0.801070688 Z"/>
            <path fill="#FFE402" fill-rule="nonzero" d="M0.872754034,2.60759494 L1.59434069,2.68057688 C1.24805066,5.02760439 2.18197389,6.08504231 4.61255487,6.08504231 C7.072882,6.08504231 8.21226285,4.97963984 8.21226285,2.60759494 C8.55373975,2.58822591 8.72310098,2.61255322 8.72034652,2.68057688 C8.60983621,5.40972041 7.43852008,7.16155514 4.54090414,7.16155514 C1.50520781,7.16155514 0.436578943,5.5638306 0.872754034,2.60759494 Z"/>
            <path fill="#FFE402" fill-rule="nonzero" d="M1.08810495,4.00759514 L1.76961139,4.08057708 C1.44255589,6.42760459 2.32460476,7.48504251 4.62018018,7.48504251 C6.94384951,7.48504251 8.01994394,6.37964004 8.01994394,4.00759514 C8.34245366,3.98822611 8.50240779,4.01255342 8.49980632,4.08057708 C8.39543426,6.80972061 7.28917838,8.56155534 4.55250925,8.56155534 C1.68542936,8.56155534 0.676157018,6.9638308 1.08810495,4.00759514 Z"/>
          </g>
        </g>
      </g>
    </g>
  </g>
</svg>
