<svg width="16" height="12" viewBox="0 0 16 12" fill="none" xmlns="http://www.w3.org/2000/svg">
<g clip-path="url(#clip0_270_55083)">
<rect width="16" height="12" fill="white"/>
<path fill-rule="evenodd" clip-rule="evenodd" d="M0 0V12H16V0H0Z" fill="#4EC7EE"/>
<mask id="mask0_270_55083" style="mask-type:luminance" maskUnits="userSpaceOnUse" x="0" y="0" width="16" height="12">
<path fill-rule="evenodd" clip-rule="evenodd" d="M0 0V12H16V0H0Z" fill="white"/>
</mask>
<g mask="url(#mask0_270_55083)">
<path d="M2.04504 11.6185C2.01331 11.8535 2.16384 12.0209 2.41635 12.1286C2.75581 12.2734 3.09833 12.1378 3.41339 11.7887L3.00509 11.4202C2.86513 11.5753 2.764 11.635 2.68593 11.634C2.83879 11.5248 3.03465 11.39 3.27321 11.2298L3.38772 11.0639C3.47968 10.6694 3.19372 10.4557 2.7576 10.4557C2.50072 10.4557 2.29535 10.5065 2.16505 10.6157C1.95098 10.7952 1.98763 11.0817 2.2129 11.2308C2.23077 11.2426 2.24891 11.2533 2.26729 11.2628C2.14091 11.3695 2.06379 11.4797 2.04504 11.6185Z" fill="#FFE402"/>
<path d="M2.28247 11.2477C2.28247 11.2477 2.34486 11.1094 2.31367 11.0375" stroke="#FFE402" stroke-width="0.55"/>
<path d="M4.28479 11.6185C4.31652 11.8535 4.166 12.0209 3.91349 12.1286C3.57403 12.2734 3.23151 12.1378 2.91644 11.7887L3.32474 11.4202C3.4647 11.5753 3.56584 11.635 3.64391 11.634C3.49104 11.5248 3.29519 11.39 3.05662 11.2298L2.94212 11.0639C2.85015 10.6694 3.13612 10.4557 3.57224 10.4557C3.82912 10.4557 4.03449 10.5065 4.16479 10.6157C4.37885 10.7952 4.34221 11.0817 4.11693 11.2308C4.09906 11.2426 4.08093 11.2533 4.06255 11.2628C4.18892 11.3695 4.26605 11.4797 4.28479 11.6185Z" fill="#FFE402"/>
<path d="M4.29797 11.1346L3.79664 11.3608C3.72627 11.2049 3.70525 11.0632 3.76381 10.9281L4.26842 11.1469C4.28538 11.1078 4.28516 11.1062 4.29797 11.1346Z" fill="#FFE402"/>
<path d="M2.04504 0.381509C2.01331 0.146509 2.16384 -0.0208746 2.41635 -0.128603C2.75581 -0.273424 3.09833 -0.137813 3.41339 0.211293L3.00509 0.579788C2.86513 0.42471 2.764 0.364962 2.68593 0.365978C2.83879 0.475188 3.03465 0.610008 3.27321 0.770219L3.38772 0.936082C3.47968 1.33058 3.19372 1.54434 2.7576 1.54434C2.50072 1.54434 2.29535 1.49351 2.16505 1.38426C1.95098 1.20477 1.98763 0.918249 2.2129 0.769181C2.23077 0.757357 2.24891 0.746716 2.26729 0.737235C2.14091 0.630514 2.06379 0.520337 2.04504 0.381509Z" fill="#FFE402"/>
<path d="M4.28479 0.381509C4.31652 0.146509 4.166 -0.0208746 3.91349 -0.128603C3.57403 -0.273424 3.23151 -0.137813 2.91644 0.211293L3.32474 0.579788C3.4647 0.42471 3.56584 0.364962 3.64391 0.365978C3.49104 0.475188 3.29519 0.610008 3.05662 0.770219L2.94212 0.936082C2.85015 1.33058 3.13612 1.54434 3.57224 1.54434C3.82912 1.54434 4.03449 1.49351 4.16479 1.38426C4.37885 1.20477 4.34221 0.918249 4.11693 0.769181C4.09906 0.757357 4.08093 0.746716 4.06255 0.737235C4.18892 0.630514 4.26605 0.520337 4.28479 0.381509Z" fill="#FFE402"/>
<path fill-rule="evenodd" clip-rule="evenodd" d="M2.54692 10.0315C2.23141 10.0406 2.0351 10.1057 2.0351 10.4098C2.0351 10.7452 2.36092 10.8501 2.70757 10.8501C3.02158 10.8501 3.37533 10.6552 3.37533 10.3062C3.37533 10.0938 3.10536 9.66536 2.42554 8.73651C2.40198 8.71457 2.389 8.70339 2.37861 8.70331C2.41984 8.68036 2.49244 8.65348 2.58824 8.65348C2.6215 8.65348 2.66472 8.6703 2.70757 8.69185V9.05613H3.4273V8.78113C3.4273 8.47044 2.96802 8.10348 2.58824 8.10348C2.25656 8.10348 1.99029 8.26125 1.85542 8.48824C1.72213 8.71256 1.82405 8.92789 2.01547 9.09917C2.30031 9.49202 2.52147 9.81721 2.66018 10.0309C2.60922 10.0304 2.58124 10.0305 2.54692 10.0315ZM2.58072 10.2851C2.57074 10.2829 2.56114 10.2804 2.55217 10.2778C2.55885 10.2848 2.5851 10.3161 2.5851 10.4098C2.5851 10.4608 2.58265 10.4967 2.57935 10.5219C2.48656 10.44 2.46062 10.2973 2.52852 10.1875L2.5302 10.1847L2.51985 10.1642C2.52122 10.1635 2.5226 10.1628 2.52395 10.1621C2.53994 10.1538 2.55308 10.1471 2.5302 10.1847L2.58072 10.2851ZM2.55217 10.2778L2.54264 10.2749C2.54367 10.2753 2.54501 10.2759 2.54658 10.2769L2.55217 10.2778ZM2.82534 10.3062C2.82534 10.2968 2.82214 10.2912 2.81663 10.2882L2.81983 10.2917C2.82348 10.2992 2.82534 10.3041 2.82534 10.3062Z" fill="#FFE402"/>
<path fill-rule="evenodd" clip-rule="evenodd" d="M3.78279 10.0315C4.0983 10.0406 4.29461 10.1057 4.29461 10.4098C4.29461 10.7452 3.96879 10.8501 3.62214 10.8501C3.30813 10.8501 2.95438 10.6552 2.95438 10.3062C2.95438 10.0938 3.22436 9.66536 3.90417 8.73651C3.92774 8.71457 3.94071 8.70339 3.9511 8.70331C3.90988 8.68036 3.83727 8.65348 3.74147 8.65348C3.70821 8.65348 3.66499 8.6703 3.62214 8.69185V9.05613H2.90241V8.78113C2.90241 8.47044 3.36169 8.10348 3.74147 8.10348C4.07315 8.10348 4.33942 8.26125 4.47429 8.48824C4.60758 8.71256 4.50566 8.92789 4.31424 9.09917C4.0294 9.49202 3.80824 9.81721 3.66954 10.0309C3.7205 10.0304 3.74848 10.0305 3.78279 10.0315ZM3.74899 10.2851C3.75897 10.2829 3.76857 10.2804 3.77754 10.2778C3.77086 10.2848 3.74461 10.3161 3.74461 10.4098C3.74461 10.4608 3.74707 10.4967 3.75036 10.5219C3.84315 10.44 3.86909 10.2973 3.80119 10.1875L3.79951 10.1847L3.80986 10.1642C3.80849 10.1635 3.80712 10.1628 3.80576 10.1621C3.78977 10.1538 3.77664 10.1471 3.79951 10.1847L3.74899 10.2851ZM3.77754 10.2778L3.78708 10.2749C3.78605 10.2753 3.7847 10.2759 3.78313 10.2769L3.77754 10.2778ZM3.50438 10.3062C3.50438 10.2968 3.50757 10.2912 3.51309 10.2882L3.50989 10.2917C3.50623 10.2992 3.50438 10.3041 3.50438 10.3062Z" fill="#FFE402"/>
<path fill-rule="evenodd" clip-rule="evenodd" d="M2.54692 6.67736C2.23141 6.66828 2.0351 6.60319 2.0351 6.29906C2.0351 5.96368 2.36092 5.85876 2.70757 5.85876C3.02158 5.85876 3.37533 6.05365 3.37533 6.40268C3.37533 6.61502 3.10536 7.0435 2.42554 7.97234C2.40198 7.99429 2.389 8.00547 2.37861 8.00554C2.41984 8.0285 2.49244 8.05538 2.58824 8.05538C2.6215 8.05538 2.66472 8.03856 2.70757 8.01701V7.65272H3.4273V7.92772C3.4273 8.23842 2.96802 8.60538 2.58824 8.60538C2.25656 8.60538 1.99029 8.4476 1.85542 8.22062C1.72213 7.9963 1.82405 7.78096 2.01547 7.60969C2.30031 7.21683 2.52147 6.89165 2.66018 6.67799C2.60922 6.67841 2.58124 6.67835 2.54692 6.67736ZM2.58072 6.42377C2.57074 6.42599 2.56114 6.42841 2.55217 6.43102C2.55885 6.42401 2.5851 6.39272 2.5851 6.29906C2.5851 6.24806 2.58265 6.21219 2.57935 6.18696C2.48656 6.26882 2.46062 6.41153 2.52852 6.52137L2.5302 6.52412L2.51985 6.54468C2.52122 6.54538 2.5226 6.54608 2.52395 6.54678C2.53994 6.55501 2.55308 6.56178 2.5302 6.52412L2.58072 6.42377ZM2.55217 6.43102L2.54264 6.43393C2.54367 6.4336 2.54501 6.43297 2.54658 6.43195L2.55217 6.43102ZM2.82534 6.40268C2.82534 6.41207 2.82214 6.41765 2.81663 6.42064L2.81983 6.41714C2.82348 6.40962 2.82534 6.40476 2.82534 6.40268Z" fill="#FFE402"/>
<path fill-rule="evenodd" clip-rule="evenodd" d="M3.78279 6.67736C4.0983 6.66828 4.29461 6.60319 4.29461 6.29906C4.29461 5.96368 3.96879 5.85876 3.62214 5.85876C3.30813 5.85876 2.95438 6.05365 2.95438 6.40268C2.95438 6.61502 3.22436 7.0435 3.90417 7.97234C3.92774 7.99429 3.94071 8.00547 3.9511 8.00554C3.90988 8.0285 3.83727 8.05538 3.74147 8.05538C3.70821 8.05538 3.66499 8.03856 3.62214 8.01701V7.65272H2.90241V7.92772C2.90241 8.23842 3.36169 8.60538 3.74147 8.60538C4.07315 8.60538 4.33942 8.4476 4.47429 8.22062C4.60758 7.9963 4.50566 7.78096 4.31424 7.60969C4.0294 7.21683 3.80824 6.89165 3.66954 6.67799C3.7205 6.67841 3.74848 6.67835 3.78279 6.67736ZM3.74899 6.42377C3.75897 6.42599 3.76857 6.42841 3.77754 6.43102C3.77086 6.42401 3.74461 6.39272 3.74461 6.29906C3.74461 6.24806 3.74707 6.21219 3.75036 6.18696C3.84315 6.26882 3.86909 6.41153 3.80119 6.52137L3.79951 6.52412L3.80986 6.54468C3.80849 6.54538 3.80712 6.54608 3.80576 6.54678C3.78977 6.55501 3.77664 6.56178 3.79951 6.52412L3.74899 6.42377ZM3.77754 6.43102L3.78708 6.43393C3.78605 6.4336 3.7847 6.43297 3.78313 6.43195L3.77754 6.43102ZM3.50438 6.40268C3.50438 6.41207 3.50757 6.41765 3.51309 6.42064L3.50989 6.41714C3.50623 6.40962 3.50438 6.40476 3.50438 6.40268Z" fill="#FFE402"/>
<path fill-rule="evenodd" clip-rule="evenodd" d="M2.54692 5.32264C2.23141 5.33172 2.0351 5.3968 2.0351 5.70094C2.0351 6.03631 2.36092 6.14124 2.70757 6.14124C3.02158 6.14124 3.37533 5.94635 3.37533 5.59732C3.37533 5.38498 3.10536 4.9565 2.42554 4.02766C2.40198 4.00571 2.389 3.99453 2.37861 3.99446C2.41984 3.9715 2.49244 3.94462 2.58824 3.94462C2.6215 3.94462 2.66472 3.96144 2.70757 3.98299V4.34727H3.4273V4.07227C3.4273 3.76158 2.96802 3.39462 2.58824 3.39462C2.25656 3.39462 1.99029 3.5524 1.85542 3.77938C1.72213 4.0037 1.82405 4.21904 2.01547 4.39031C2.30031 4.78316 2.52147 5.10835 2.66018 5.32201C2.60922 5.32158 2.58124 5.32165 2.54692 5.32264ZM2.58072 5.57623C2.57074 5.57401 2.56114 5.57158 2.55217 5.56898C2.55885 5.57598 2.5851 5.60728 2.5851 5.70094C2.5851 5.75194 2.58265 5.78781 2.57935 5.81303C2.48656 5.73118 2.46062 5.58847 2.52852 5.47862L2.5302 5.47588L2.51985 5.45531C2.52122 5.45462 2.5226 5.45391 2.52395 5.45322C2.53994 5.44499 2.55308 5.43822 2.5302 5.47588L2.58072 5.57623ZM2.55217 5.56898L2.54264 5.56607C2.54367 5.5664 2.54501 5.56703 2.54658 5.56805L2.55217 5.56898ZM2.82534 5.59732C2.82534 5.58793 2.82214 5.58235 2.81663 5.57935L2.81983 5.58286C2.82348 5.59038 2.82534 5.59524 2.82534 5.59732Z" fill="#FFE402"/>
<path fill-rule="evenodd" clip-rule="evenodd" d="M3.78279 5.32264C4.0983 5.33172 4.29461 5.3968 4.29461 5.70094C4.29461 6.03631 3.96879 6.14124 3.62214 6.14124C3.30813 6.14124 2.95438 5.94635 2.95438 5.59732C2.95438 5.38498 3.22436 4.9565 3.90417 4.02766C3.92774 4.00571 3.94071 3.99453 3.9511 3.99446C3.90988 3.9715 3.83727 3.94462 3.74147 3.94462C3.70821 3.94462 3.66499 3.96144 3.62214 3.98299V4.34727H2.90241V4.07227C2.90241 3.76158 3.36169 3.39462 3.74147 3.39462C4.07315 3.39462 4.33942 3.5524 4.47429 3.77938C4.60758 4.0037 4.50566 4.21904 4.31424 4.39031C4.0294 4.78316 3.80824 5.10835 3.66954 5.32201C3.7205 5.32158 3.74848 5.32165 3.78279 5.32264ZM3.74899 5.57623C3.75897 5.57401 3.76857 5.57158 3.77754 5.56898C3.77086 5.57598 3.74461 5.60728 3.74461 5.70094C3.74461 5.75194 3.74707 5.78781 3.75036 5.81303C3.84315 5.73118 3.86909 5.58847 3.80119 5.47862L3.79951 5.47588L3.80986 5.45531C3.80849 5.45462 3.80712 5.45391 3.80576 5.45322C3.78977 5.44499 3.77664 5.43822 3.79951 5.47588L3.74899 5.57623ZM3.77754 5.56898L3.78708 5.56607C3.78605 5.5664 3.7847 5.56703 3.78313 5.56805L3.77754 5.56898ZM3.50438 5.59732C3.50438 5.58793 3.50757 5.58235 3.51309 5.57935L3.50989 5.58286C3.50623 5.59038 3.50438 5.59524 3.50438 5.59732Z" fill="#FFE402"/>
<path fill-rule="evenodd" clip-rule="evenodd" d="M2.54692 1.9685C2.23141 1.95942 2.0351 1.89433 2.0351 1.5902C2.0351 1.25482 2.36092 1.1499 2.70757 1.1499C3.02158 1.1499 3.37533 1.34479 3.37533 1.69382C3.37533 1.90616 3.10536 2.33464 2.42554 3.26348C2.40198 3.28543 2.389 3.29661 2.37861 3.29668C2.41984 3.31964 2.49244 3.34652 2.58824 3.34652C2.6215 3.34652 2.66472 3.3297 2.70757 3.30815V2.94386H3.4273V3.21886C3.4273 3.52956 2.96802 3.89652 2.58824 3.89652C2.25656 3.89652 1.99029 3.73874 1.85542 3.51176C1.72213 3.28744 1.82405 3.0721 2.01547 2.90083C2.30031 2.50797 2.52147 2.18279 2.66018 1.96913C2.60922 1.96955 2.58124 1.96949 2.54692 1.9685ZM2.58072 1.7149C2.57074 1.71713 2.56114 1.71955 2.55217 1.72216C2.55885 1.71515 2.5851 1.68386 2.5851 1.5902C2.5851 1.5392 2.58265 1.50333 2.57935 1.4781C2.48656 1.55996 2.46062 1.70267 2.52852 1.81251L2.5302 1.81526L2.51985 1.83582C2.52122 1.83652 2.5226 1.83722 2.52395 1.83792C2.53994 1.84615 2.55308 1.85292 2.5302 1.81526L2.58072 1.7149ZM2.55217 1.72216L2.54264 1.72507C2.54367 1.72474 2.54501 1.72411 2.54658 1.72309L2.55217 1.72216ZM2.82534 1.69382C2.82534 1.70321 2.82214 1.70879 2.81663 1.71178L2.81983 1.70828C2.82348 1.70076 2.82534 1.6959 2.82534 1.69382Z" fill="#FFE402"/>
<path fill-rule="evenodd" clip-rule="evenodd" d="M3.78279 1.9685C4.0983 1.95942 4.29461 1.89433 4.29461 1.5902C4.29461 1.25482 3.96879 1.1499 3.62214 1.1499C3.30813 1.1499 2.95438 1.34479 2.95438 1.69382C2.95438 1.90616 3.22436 2.33464 3.90417 3.26348C3.92774 3.28543 3.94071 3.29661 3.9511 3.29668C3.90988 3.31964 3.83727 3.34652 3.74147 3.34652C3.70821 3.34652 3.66499 3.3297 3.62214 3.30815V2.94386H2.90241V3.21886C2.90241 3.52956 3.36169 3.89652 3.74147 3.89652C4.07315 3.89652 4.33942 3.73874 4.47429 3.51176C4.60758 3.28744 4.50566 3.0721 4.31424 2.90083C4.0294 2.50797 3.80824 2.18279 3.66954 1.96913C3.7205 1.96955 3.74848 1.96949 3.78279 1.9685ZM3.74899 1.7149C3.75897 1.71713 3.76857 1.71955 3.77754 1.72216C3.77086 1.71515 3.74461 1.68386 3.74461 1.5902C3.74461 1.5392 3.74707 1.50333 3.75036 1.4781C3.84315 1.55996 3.86909 1.70267 3.80119 1.81251L3.79951 1.81526L3.80986 1.83582C3.80849 1.83652 3.80712 1.83722 3.80576 1.83792C3.78977 1.84615 3.77664 1.85292 3.79951 1.81526L3.74899 1.7149ZM3.77754 1.72216L3.78708 1.72507C3.78605 1.72474 3.7847 1.72411 3.78313 1.72309L3.77754 1.72216ZM3.50438 1.69382C3.50438 1.70321 3.50757 1.70879 3.51309 1.71178L3.50989 1.70828C3.50623 1.70076 3.50438 1.6959 3.50438 1.69382Z" fill="#FFE402"/>
<path fill-rule="evenodd" clip-rule="evenodd" d="M9.49342 1.3924L9.69814 2.15626C9.69814 2.15626 9.70055 2.3298 9.5045 2.3298C9.30844 2.3298 9.29855 2.15626 9.29855 2.15626L9.49342 1.3924ZM11.2252 4.30999C11.2252 5.30411 10.4664 6.10999 9.53023 6.10999C8.59411 6.10999 7.83523 5.30411 7.83523 4.30999C7.83523 3.31588 8.59411 2.50999 9.53023 2.50999C10.4664 2.50999 11.2252 3.31588 11.2252 4.30999ZM10.2907 2.3103L10.3182 1.51996L9.90855 2.19347C9.90855 2.19347 9.86726 2.36232 10.0548 2.41964C10.2422 2.47696 10.2907 2.3103 10.2907 2.3103ZM11.0704 1.89421L10.813 2.64196C10.813 2.64196 10.7179 2.78718 10.5554 2.67755C10.3928 2.56792 10.4817 2.41851 10.4817 2.41851L11.0704 1.89421ZM11.2184 3.12181L11.6832 2.482L10.967 2.81127C10.967 2.81127 10.8383 2.92817 10.9617 3.08053C11.0851 3.23289 11.2184 3.12181 11.2184 3.12181ZM12.1056 3.2388L11.4658 3.70367C11.4658 3.70367 11.3046 3.76811 11.2344 3.58507C11.1641 3.40204 11.3226 3.33062 11.3226 3.33062L12.1056 3.2388ZM11.544 4.34114L12.2917 4.08363L11.5161 3.94252C11.5161 3.94252 11.3437 3.96449 11.3573 4.16007C11.371 4.35564 11.544 4.34114 11.544 4.34114ZM12.2303 4.94796L11.44 4.97561C11.44 4.97561 11.2703 4.93892 11.3145 4.74789C11.3586 4.55686 11.5299 4.58626 11.5299 4.58626L12.2303 4.94796ZM11.163 5.55058L11.9269 5.75521L11.3628 5.20453C11.3628 5.20453 11.2075 5.12632 11.1095 5.2961C11.0115 5.46589 11.163 5.55058 11.163 5.55058ZM11.4082 6.43383L10.7376 6.0148C10.7376 6.0148 10.6174 5.88952 10.7608 5.75582C10.9042 5.62211 11.0298 5.74228 11.0298 5.74228L11.4082 6.43383ZM10.2015 6.32688L10.7204 6.92368L10.5607 6.15171C10.5607 6.15171 10.4757 6.00007 10.2995 6.08601C10.1233 6.17196 10.2015 6.32688 10.2015 6.32688ZM9.92423 7.18136L9.60253 6.45894C9.60253 6.45894 9.57301 6.28791 9.76665 6.25724C9.96029 6.22657 9.9972 6.39643 9.9972 6.39643L9.92423 7.18136ZM8.99955 6.39643L9.08227 7.18291L9.39422 6.45894C9.39422 6.45894 9.41161 6.28599 9.21797 6.25532C9.02432 6.22465 8.99955 6.39643 8.99955 6.39643ZM8.28525 6.92802L8.4361 6.15172C8.4361 6.15172 8.51001 5.99469 8.68622 6.08064C8.86243 6.16658 8.79524 6.32689 8.79524 6.32689L8.28525 6.92802ZM7.96695 5.7423L7.59573 6.44058L8.25919 6.01482C8.25919 6.01482 8.37032 5.88116 8.22693 5.74745C8.08355 5.61374 7.96695 5.7423 7.96695 5.7423ZM7.07481 5.76378L7.63396 5.20455C7.63396 5.20455 7.78305 5.11569 7.88108 5.28548C7.97911 5.45527 7.83376 5.5506 7.83376 5.5506L7.07481 5.76378ZM7.46686 4.58629L6.76864 4.9576L7.55675 4.97564C7.55675 4.97564 7.72362 4.92697 7.67952 4.73594C7.63541 4.54491 7.46686 4.58629 7.46686 4.58629ZM6.70435 4.09349L7.48062 3.94255C7.48062 3.94255 7.65391 3.95225 7.64023 4.14783C7.62656 4.34341 7.45275 4.34117 7.45275 4.34117L6.70435 4.09349ZM7.67412 3.33065L6.88763 3.24803L7.53092 3.70369C7.53092 3.70369 7.69648 3.75666 7.76674 3.57362C7.837 3.39059 7.67412 3.33065 7.67412 3.33065ZM7.30727 2.48968L8.02974 2.81129C8.02974 2.81129 8.16612 2.91864 8.04274 3.071C7.91936 3.22336 7.77827 3.12183 7.77827 3.12183L7.30727 2.48968ZM8.51502 2.41853L7.91815 1.89975L8.18374 2.64198C8.18374 2.64198 8.28898 2.78032 8.45152 2.67069C8.61406 2.56106 8.51502 2.41853 8.51502 2.41853ZM8.66904 1.52285L9.08815 2.19348C9.08815 2.19348 9.14119 2.35873 8.95371 2.41605C8.76622 2.47337 8.70602 2.3103 8.70602 2.3103L8.66904 1.52285Z" fill="#FFE402"/>
<path d="M5.77388 4L6.49547 4.07298C6.14918 6.42001 7.0831 7.47745 9.51368 7.47745C11.974 7.47745 13.1134 6.37204 13.1134 4C13.1134 4 13.6256 3.97095 13.6215 4.07298C13.511 6.80213 12.3396 8.55396 9.44203 8.55396C6.40633 8.55396 5.3377 6.95624 5.77388 4Z" fill="#FFE402"/>
<path d="M5.98927 5.4L6.67077 5.47298C6.34372 7.82001 7.22577 8.87745 9.52134 8.87745C11.845 8.87745 12.9211 7.77204 12.9211 5.4C12.9211 5.4 13.4049 5.37095 13.401 5.47298C13.2966 8.20213 12.1903 9.95396 9.45367 9.95396C6.58659 9.95396 5.57732 8.35624 5.98927 5.4Z" fill="#FFE402"/>
</g>
</g>
<defs>
<clipPath id="clip0_270_55083">
<rect width="16" height="12" fill="white"/>
</clipPath>
</defs>
</svg>
