<svg xmlns="http://www.w3.org/2000/svg" xmlns:xlink="http://www.w3.org/1999/xlink" width="16" height="12" viewBox="0 0 16 12">
  <defs>
    <rect id="a" width="16" height="12"/>
  </defs>
  <g fill="none" fill-rule="evenodd">
    <mask id="b" fill="white">
      <use xlink:href="#a"/>
    </mask>
    <g mask="url(#b)">
      <path fill="#F50101" d="M0,9 L16,9 L16,12 L0,12 L0,9 Z M0,0 L16,0 L16,3 L0,3 L0,0 Z"/>
      <polygon fill="#F7FCFF" points="0 3 16 3 16 9 0 9"/>
      <path fill="#52AB0B" d="M5.75741868,3.25660709 C5.79469332,3.69028059 4.19429111,3.07668007 4.19429111,3.25031982 C4.19429111,3.42395957 5.90872801,3.72883847 5.9058631,4.11754773 C5.90299818,4.50625699 3.87299285,4.00664204 4.32821932,4.18143754 C4.78344578,4.35623304 5.7608397,4.77470668 5.64974898,5.03541281 C5.41250407,5.59217578 3.83671968,4.64915242 3.70565786,4.835069 C3.49414586,5.134931 4.86847446,5.8344066 4.85686646,5.9012496 C4.83445554,6.02942063 3.91820198,5.69978675 3.70565786,5.9659534 C3.53359049,5.91742136 3.45406676,5.68571253 3.40062569,5.65497518 L3.062464,1.29329 C3.062464,1.29329 3.36609685,5.39999791 2.97813207,5.51810801 C2.5901673,5.63621811 1.5124398,5.995322 1.4810798,5.81597 C1.4694078,5.749127 2.778736,5.134931 2.567224,4.835069 C2.41144,4.614083 0.831352,5.397731 0.730536,4.94396 C0.281453845,4.62022767 2.18490569,4.340102 2.18490569,4.009046 C2.18490569,3.677954 0.443607836,4.40089118 0.651920058,3.94002466 C0.860232279,3.47915815 2.25427751,3.31415338 2.28028,3.25031982 C2.32782901,3.13359165 0.730536,3.43203717 0.730536,3.25031982 C0.730536,2.906474 1.68662335,2.83881398 2.28028,2.529377 C2.31536,2.176271 0.840122244,2.87700753 0.730536,2.59394678 C0.620949756,2.31088602 2.61611326,1.57756607 2.567224,1.52044077 C2.49001197,1.43022135 0.88205411,1.83730829 1.1472279,1.62353359 C1.66188494,1.20863341 2.66644876,0.644440225 2.89759678,0.493948775 C2.89759678,0.493948775 2.92543678,0.437167775 2.95518878,0.456436775 C2.98501278,0.437167775 3.01778878,0.416062775 3.01778878,0.416062775 C3.01778878,0.416062775 3.01778878,0.771076775 3.01285278,0.493948775 C3.00791678,0.216820775 5.367656,1.42944907 5.394464,1.73685307 C5.425632,2.09597107 3.93639245,1.46611903 3.97141645,1.81922503 C4.27414727,2.00678855 5.13518845,2.36976746 5.49094916,2.529377 C5.65230871,2.60176983 4.30206165,2.3761461 4.33057705,2.48692441 C4.40325055,2.76925081 5.71854296,2.80430576 5.75741868,3.25660709 Z" transform="translate(5 3)"/>
    </g>
  </g>
</svg>
