<svg xmlns="http://www.w3.org/2000/svg" xmlns:xlink="http://www.w3.org/1999/xlink" width="16" height="12" viewBox="0 0 16 12">
  <defs>
    <rect id="a" width="16" height="12"/>
    <rect id="c" width="16" height="12"/>
  </defs>
  <g fill="none" fill-rule="evenodd">
    <mask id="b" fill="white">
      <use xlink:href="#a"/>
    </mask>
    <g mask="url(#b)">
      <mask id="d" fill="white">
        <use xlink:href="#c"/>
      </mask>
      <use fill="#E31D1C" xlink:href="#c"/>
      <rect width="16" height="6" fill="#2E42A5" mask="url(#d)"/>
      <g mask="url(#d)">
        <g transform="translate(2)">
          <path fill="#000000" d="M0.399226428,5.5265867 C0.801447574,5.77695152 1.4685868,5.90213393 2.4006441,5.90213393 C3.33270141,5.90213393 4.0460965,5.77695152 4.54082937,5.5265867 C3.80988363,5.10167732 3.11763033,4.88922263 2.46406949,4.88922263 C1.81050865,4.88922263 1.12222763,5.10167732 0.399226428,5.5265867 Z"/>
          <path fill="#FFD83D" stroke="#000000" stroke-width=".25" d="M0.327279392,3.43396947 C-0.113452516,2.67655008 -0.0549385355,2.10201626 0.525365365,1.77336423 C1.21941117,1.38029508 1.68038195,1.26526279 2.32705928,1.26526279 C3.30315968,1.26526279 3.99435368,1.38156308 4.46165385,1.7877947 C4.86510352,2.13852004 4.94542124,2.68636134 4.71712939,3.40876821 L4.5979393,3.49610228 L0.435319739,3.49610228 L0.327279392,3.43396947 Z"/>
          <path fill="#FFD83D" stroke="#000000" stroke-width=".25" d="M-.056918004 3.45299971C.508069693 3.1552536 1.35532136 3.00878985 2.48759468 3.00878985 3.619868 3.00878985 4.46711966 3.1552536 5.03210736 3.45299971L5.09091061 3.60736902 4.49846096 5.19155107 4.34452309 5.26720811C3.74313996 5.08163405 3.12745935 4.98887602 2.49706633 4.98887602 1.86634668 4.98887602 1.2385957 5.08173219.613462161 5.26758259L.460376618 5.19051063-.116105106 3.60632858-.056918004 3.45299971zM2.43145102 1.30141509L2.43696765 1.40899451 2.44241967 1.30141509 2.43145102 1.30141509zM2.44502572.125L2.4369857.0106977694 2.42907427.125 2.44502572.125zM2.6663334.317718334L2.79736531.298909718 2.94012605.422641509 2.94012605.739622642 2.79758533.863385815 2.6583053.843645919 2.68786118 1.42001356 2.56302521 1.55141509 2.31092437 1.55141509 2.18608458 1.42008833 2.21526732.844254029 2.0758802.863453453 1.93382353.739622642 1.93382353.422641509 2.07567702.298782881 2.20789742.316774165 2.18623246.00877083107 2.31092437-.125 2.56302521-.125 2.68772686.00863122557 2.6663334.317718334z"/>
        </g>
      </g>
    </g>
  </g>
</svg>
