<svg xmlns="http://www.w3.org/2000/svg" xmlns:xlink="http://www.w3.org/1999/xlink" width="16" height="12" viewBox="0 0 16 12">
  <defs>
    <rect id="a" width="16" height="12"/>
  </defs>
  <g fill="none" fill-rule="evenodd">
    <mask id="b" fill="white">
      <use xlink:href="#a"/>
    </mask>
    <g mask="url(#b)">
      <path fill="#FECA00" d="M0,0 L16,0 L16,11 C16,11.5522847 15.5522847,12 15,12 L1,12 C0.44771525,12 6.76353751e-17,11.5522847 0,11 L0,0 Z"/>
      <rect width="3" height="10" x="1" y="1" fill="#1F8A6E"/>
      <rect width="3" height="10" x="4" y="1" fill="#F56800"/>
      <rect width="8" height="10" x="7" y="1" fill="#B01D00"/>
      <rect width="1" height="10" x="6" y="1" fill="#E8AA00"/>
      <path fill="#FECA00" d="M1.55023044 2.08674108C1.52297068 2.25327456 1.48287756 2.46228524 1.42995107 2.71377311 1.37702458 2.96526098 1.34736736 3.66729735 1.34097941 4.81988224 1.52385392 4.88884437 1.61529117 4.96963668 1.61529117 5.06225916 1.61529117 5.15488164 1.57997438 5.22879522 1.50934081 5.28399991L1.95352792 5.7703217C1.89635649 5.71880195 1.91928646 5.5184836 2.02231783 5.16936665 2.17686488 4.64569123 2.6011874 4.65848059 2.77503106 4.48848716 2.94887472 4.31849373 2.68699422 4.5392823 2.54227213 4.5392823 2.39755003 4.5392823 2.54227213 4.47805278 2.44831085 4.40906994 2.35434958 4.3400871 2.54227213 4.33965233 2.33197869 4.40906994 2.12168526 4.47848755 2.28163213 4.33965233 2.23950672 4.26643052 2.19738132 4.19320871 2.1043315 4.33965233 1.95352792 4.40906994 1.80272435 4.47848755 1.95990392 4.33965233 2.02231783 4.26643052 2.08473175 4.19320871 1.95990392 4.26643052 1.81718788 4.26643052 1.67447184 4.26643052 1.81718788 4.01473734 1.86777078 3.87209793 1.91835368 3.72945851 1.81718788 3.82760689 1.81718788 3.62174528 1.81718788 3.41588367 2.1043315 3.62174528 2.02231783 3.55765355 1.94030417 3.49356183 1.81718788 3.19379482 1.81718788 3.08868616 1.81718788 2.9835775 1.92728007 2.86822366 2.02231783 2.86822366 2.08567634 2.86822366 2.15807263 2.91777489 2.23950672 3.01687734 2.34458232 3.01687734 2.46514254 3.00807333 2.6011874 2.99046532 2.80525468 2.9640533 2.77503106 2.86822366 2.77503106 2.71377311 2.77503106 2.55932255 2.88511801 2.71377311 3.05837554 2.71377311 3.17388056 2.71377311 3.28406489 2.73955714 3.38892852 2.79112519 3.38892852 2.67414904 3.43061378 2.61566096 3.5139843 2.61566096 3.59735482 2.61566096 3.66278066 2.67414904 3.71026182 2.79112519L3.89838373 2.61566096C4.09523669 2.73263711 4.22910898 2.79112519 4.30000061 2.79112519 4.37089224 2.79112519 4.44435788 2.73263711 4.52039753 2.61566096L4.52039753 2.86822366C4.67828608 2.66600925 4.98348374 2.53876779 5.43599051 2.48649928 6.11475068 2.40809651 6.76538562 3.1607486 7.00643368 3.24733945 7.16713239 3.30506669 7.19680438 3.30506669 7.09544966 3.24733945 7.03610567 3.16181136 7.05840985 3.11904731 7.1623622 3.11904731 7.26631454 3.11904731 7.3431571 3.16181136 7.39288986 3.24733945 7.40453196 3.42158393 7.30538523 3.52502196 7.09544966 3.55765355 6.8855141 3.59028514 6.66956857 3.4689989 6.44761308 3.19379482 6.55454089 3.35033198 6.55454089 3.39775635 6.44761308 3.33606791 6.34068527 3.27437947 6.25159844 3.24480332 6.18035259 3.24733945 6.20042517 3.06596965 6.1827613 3.04812144 6.12736098 3.19379482 6.07196066 3.3394682 5.95132446 3.41773678 5.76545238 3.42860057 5.83299071 3.31341178 5.88232202 3.21022736 5.91344633 3.11904731 5.96013278 2.98227723 5.61380995 2.94532213 5.66230294 2.86822366 5.71079593 2.79112519 5.81589359 2.96825603 5.76545238 3.1607486 5.73182491 3.28907697 5.62200428 3.34751674 5.43599051 3.33606791 5.43599051 3.33606791 5.36341043 3.26980235 5.47814293 3.08868616 5.55463126 2.96794203 5.45753902 2.86875504 5.18686619 2.79112519 5.18686619 2.79112519 5.19990156 2.87956381 5.18686619 2.99046532 5.17817595 3.06439966 5.11989462 3.07320367 5.01202222 3.01687734 5.01202222 3.01687734 4.86980209 2.88260717 4.75723035 3.01687734 4.68218252 3.10639079 4.70487634 3.21278765 4.82531181 3.33606791 4.84415642 3.27691561 4.90639323 3.22949124 5.01202222 3.19379482 5.11765122 3.1580984 5.20176713 3.17594661 5.26436996 3.24733945 5.23230107 3.28137196 5.18073815 3.34179233 5.10968122 3.42860057 5.03862429 3.51540881 5.05535538 3.57979038 5.15987448 3.62174528 5.29322725 3.45795934 5.35990363 3.42027963 5.35990363 3.50870617 5.35990363 3.64134597 5.43599051 3.62174528 5.71079593 3.70185088 5.89399954 3.75525462 6.19306916 3.72855275 6.60800479 3.62174528 7.02575058 3.65072967 7.23462348 3.7981032 7.23462348 4.06386588 7.23462348 4.4625099 6.95383171 4.65848059 6.95383171 4.65848059 6.95383171 4.65848059 7.1623622 5.06225916 7.1623622 5.4153699 7.1623622 5.76848064 7.00643368 6.03089134 6.95383171 6.47396501 6.90122975 6.91703867 7.06686395 6.88558893 7.1623622 6.99667002 7.25786044 7.1077511 7.06686395 7.23880384 6.95383171 7.3634384 6.84079948 7.48807296 6.94338217 7.54268126 7.00643368 7.67136752 7.06948519 7.80005378 7.10483655 7.94732526 7.00643368 7.94732526 6.94083177 7.94732526 6.86048241 7.92013466 6.76538562 7.86575345 6.72661012 7.92013466 6.67414984 7.94732526 6.60800479 7.94732526 6.54185974 7.94732526 6.48839584 7.92013466 6.44761308 7.86575345 6.44581835 7.92013466 6.40673586 7.94732526 6.3303656 7.94732526 6.25399534 7.94732526 6.203991 7.92013466 6.18035259 7.86575345 6.0294068 7.92013466 5.91716566 7.94732526 5.84362917 7.94732526 5.77009269 7.94732526 5.72581494 7.92013466 5.71079593 7.86575345 5.7113863 7.92013466 5.66996594 7.94732526 5.58653486 7.94732526 5.50310377 7.94732526 5.45292232 7.92013466 5.43599051 7.86575345 5.38526593 7.92013466 5.32805908 7.94732526 5.26436996 7.94732526 5.20068085 7.94732526 5.14911794 7.92013466 5.10968122 7.86575345 5.11102727 7.92013466 5.07847427 7.94732526 5.01202222 7.94732526 4.91234415 7.94732526 4.90377198 7.8844821 4.90377198 7.74039052 4.90377198 7.64432947 5.08117816 7.57842639 5.43599051 7.54268126 5.54471305 7.2379951 5.51935075 7.01896432 5.35990363 6.88558893 5.12073295 6.68552584 5.09583114 6.20487289 5.01202222 6.20487289 4.9282133 6.20487289 4.59007299 6.27904124 4.38660789 6.35244687 4.25096448 6.40138396 4.02551579 6.50216098 3.71026182 6.65477794 3.60077861 6.73674125 3.53535277 6.84150628 3.5139843 6.96907305 3.49261583 7.09663981 3.58559165 7.16195702 3.79291175 7.16502468 3.73791307 7.35131518 3.60325199 7.46000588 3.38892852 7.4910968 3.48585785 7.56901132 3.38515418 7.91680007 3.25188365 7.94732526 3.16303663 7.96767539 3.09853393 7.94672766 3.05837554 7.8844821 2.99734726 7.92637754 2.93959475 7.94732526 2.88511801 7.94732526 2.83064127 7.94732526 2.76460001 7.92013466 2.68699422 7.86575345 2.66536089 7.92013466 2.61712019 7.94732526 2.54227213 7.94732526 2.46742406 7.94732526 2.43610364 7.92013466 2.44831085 7.86575345 2.43011299 7.88936246 2.37455341 7.91655307 2.28163213 7.94732526 2.1422502 7.99348355 2.22081029 7.76481953 2.23950672 7.67136752 2.25820316 7.5779155 2.50364062 7.50918004 2.65454422 7.54268126 2.80544782 7.57618247 2.93367032 7.45545619 2.96683312 7.23880384 2.98894165 7.09436895 2.92500763 6.91710612 2.77503106 6.70701538L2.46769672 6.53440584C2.32499617 6.69661721 2.20387443 6.7777229 2.1043315 6.7777229 2.00478856 6.7777229 1.84177512 6.67647027 1.61529117 6.47396501 1.57191735 6.51425889 1.53660056 6.53440584 1.50934081 6.53440584 1.46845118 6.53440584 1.39293213 6.45480609 1.42995107 6.27904124 1.45463036 6.16186467 1.42497314 6.05812758 1.34097941 5.96782997 1.45090276 6.09505077 1.40097159 6.20487289 1.31397474 6.20487289 1.22697789 6.20487289 1.24657409 6.26055163 1.21008099 6.35244687 1.18575225 6.41371036 1.21244141 6.51448739 1.29014847 6.65477794 1.41749457 6.65477794 1.48116762 6.68654467 1.48116762 6.75007812 1.48116762 6.84537831 1.38000822 6.85181282 1.34097941 6.88558893 1.3019506 6.91936504 1.32331128 6.94887431 1.34097941 6.96907305 1.35275816 6.98253887 1.40887863 7.02139853 1.50934081 7.08565202L1.21008099 7.08565202 1.06520698 7.3634384.91337464 7.08565202.610209308 7.08565202C.610209308 7.06632179.651562336 7.03666112.734268392 6.99667002.816974448 6.95667891.836857109 6.92740071.793916373 6.9088354.718916062 6.88745741.681415906 6.83453832.681415906 6.75007812.681415906 6.62338784.793916373 6.65477794.793916373 6.65477794.793916373 6.65477794.91337464 6.56772707.91337464 6.35244687.91337464 6.13716666.91337464 6.20487289.793916373 6.20487289.674458107 6.20487289.793916373 5.96782997.91337464 5.96782997 1.03283291 5.96782997.91337464 5.4153699.793916373 5.4153699.674458107 5.4153699.610209308 5.25058489.610209308 5.06225916.610209308 4.93670867.711264418 4.85591636.91337464 4.81988224.91337464 4.47509253.91337464 3.93306339.91337464 3.19379482.91337464 2.45452625 1.12565991 2.08550833 1.55023044 2.08674108zM6.06060262 6.70281401C5.92062529 6.84010636 5.89507567 6.92384054 5.98395377 6.95401656 6.11727091 6.99928058 6.34576858 6.97851475 6.23151974 7.09011967 6.11727091 7.20172459 6.02058781 7.352501 6.02058781 7.48982994 6.02058781 7.62715887 6.02385284 7.74308162 6.06060262 7.68512025 6.09735241 7.62715887 6.34235202 7.56422102 6.45491941 7.48982994 6.5674868 7.41543886 6.54611099 7.33394897 6.54611099 7.16548043 6.54611099 7.05316807 6.38427487 6.89894593 6.06060262 6.70281401zM4.48356801 3.42581919C4.48148111 3.74587526 4.46412406 3.91886898 4.43149687 3.94480035 4.38255608 3.98369741 4.35593916 4.04978216 4.39371801 4.09669281 4.43149687 4.14360347 4.44897317 4.26442952 4.39371801 4.26442952 4.33846286 4.26442952 4.25319213 4.33192305 4.32345507 4.43514845 4.39371801 4.53837385 4.39153571 4.5897853 4.52138264 4.5897853 4.65122956 4.5897853 5.37053036 4.60857517 5.58080045 4.53381817 5.79107054 4.45906118 5.9927903 4.53535503 6.28282171 4.4972081 6.57285312 4.45906118 6.97491529 4.24858528 6.92182455 4.09669281 6.86873381 3.94480035 6.80074261 3.75187085 6.28282171 3.88036223 5.76490081 4.00885362 5.57328761 4.0793849 5.3774529 3.97987357 5.1816182 3.88036223 4.92144138 3.82137629 4.88656034 3.82137629 4.85167929 3.82137629 4.86352096 4.07290688 4.76302778 4.00885362 4.6625346 3.94480035 4.54054038 3.87842287 4.58114549 3.76742172 4.62175061 3.65642056 4.6552543 3.63296523 4.6552543 3.55797039 4.6552543 3.50797382 4.59802553 3.46392342 4.48356801 3.42581919zM.085601612 9.93417328C.085601612 9.87562368.085601612 9.81545073.085601612 9.75365443.085601612 9.66095998-.0811848186 9.42764827.196586961 9.37420061.474358741 9.32075295.678976413 9.19928844.741192357 9.08461743.803408301 8.96994642.741192357 9.33237556.741192357 9.50939536.741192357 9.68641515.542902734 10.0313694.402394854 9.93417328.308722934 9.86937584.203125187 9.86937584.085601612 9.93417328zM7.91781823 9.93417328C7.80029466 9.86937584 7.69469691 9.86937584 7.60102499 9.93417328 7.46051711 10.0313694 7.26222749 9.68641515 7.26222749 9.50939536 7.26222749 9.33237556 7.20001154 8.96994642 7.26222749 9.08461743 7.32444343 9.19928844 7.5290611 9.32075295 7.80683288 9.37420061 8.08460466 9.42764827 7.91781823 9.66095998 7.91781823 9.75365443 7.91781823 9.81545073 7.91781823 9.87562368 7.91781823 9.93417328zM.085601612.061161879C.203125187.125959321.308722934.125959321.402394854.061161879.542902734-.0360342847.741192357.308920016.741192357.485939808.741192357.6629596.803408301 1.02538875.741192357.910717737.678976413.796046726.474358741.674582215.196586961.621134556-.0811848186.567686897.085601612.33437518.085601612.241680733.085601612.179884435.085601612.119711484.085601612.061161879zM7.91781823.061161879C7.91781823.119711484 7.91781823.179884435 7.91781823.241680733 7.91781823.33437518 8.08460466.567686897 7.80683288.621134556 7.5290611.674582215 7.32444343.796046726 7.26222749.910717737 7.20001154 1.02538875 7.26222749.6629596 7.26222749.485939808 7.26222749.308920016 7.46051711-.0360342847 7.60102499.061161879 7.69469691.125959321 7.80029466.125959321 7.91781823.061161879z" transform="translate(7 1)"/>
    </g>
  </g>
</svg>
