<svg xmlns="http://www.w3.org/2000/svg" xmlns:xlink="http://www.w3.org/1999/xlink" width="16" height="12" viewBox="0 0 16 12">
  <defs>
    <rect id="a" width="16" height="12"/>
  </defs>
  <g fill="none" fill-rule="evenodd">
    <mask id="b" fill="white">
      <use xlink:href="#a"/>
    </mask>
    <g mask="url(#b)">
      <polygon fill="#55BA07" points="0 9 16 9 16 12 0 12"/>
      <polygon fill="#1D1D1D" points="0 3 16 3 16 9 0 9"/>
      <polygon fill="#E11C1B" points="0 0 16 0 16 3 0 3"/>
      <path fill="#FFFFFF" d="M1.77986214,3.15567511 C1.77025847,3.8788887 2.00272718,4.34774881 2.89876877,4.53294904 C3.79481036,4.71814928 4.04841259,4.2072673 4.42363959,3.93802989 C4.38341073,4.26689226 4.16465001,5.23221886 2.76675798,5.23221886 C1.64862948,5.20970859 0.770004272,4.29968814 0.770004272,3.08935883 C0.770004272,1.70010211 1.76680284,0.961579923 2.73869833,0.97007367 C3.38424387,0.97007367 4.22503193,1.07931036 4.47883991,2.07806389 C4.17538431,1.71013394 3.5964691,1.44647461 2.88964851,1.53115578 C2.18282791,1.61583696 1.77986214,2.39041892 1.77986214,3.15567511 Z M4.46956292,2.85388851 L5.13151769,2.64559341 L5.2435133,2.01435623 L5.67368316,2.5004537 L6.28246611,2.37197757 L5.84642884,2.96048775 L6.33897222,3.5363884 L5.61004697,3.38630839 L5.10765486,3.92093131 L5.21085121,3.1439564 L4.46956292,2.85388851 Z" transform="translate(5 3)"/>
    </g>
  </g>
</svg>
