<svg xmlns="http://www.w3.org/2000/svg" xmlns:xlink="http://www.w3.org/1999/xlink" width="16" height="12" viewBox="0 0 16 12">
  <defs>
    <rect id="a" width="16" height="12"/>
    <path id="c" d="M0,0 L5.28,0 L5.28,3.81944444 C4.38430376,4.08922768 3.50430376,4.44547636 2.64,4.88819049 C2.00198934,4.41488843 1.12198934,4.05863975 0,3.81944444 L0,0 Z"/>
  </defs>
  <g fill="none" fill-rule="evenodd">
    <mask id="b" fill="white">
      <use xlink:href="#a"/>
    </mask>
    <g mask="url(#b)">
      <polygon fill="#D9071E" points="11 0 16 0 16 12 11 12"/>
      <polygon fill="#3D58DB" points="0 0 6 0 6 12 0 12"/>
      <polygon fill="#FBCD17" points="5 0 11 0 11 12 5 12"/>
      <g transform="translate(2 1)">
        <path fill="#FD1900" fill-rule="nonzero" d="M1.26326879,3.75490058 L0.736731208,3.46722338 L2.48200967,0.272828066 L3.00854725,0.560505267 L1.26326879,3.75490058 Z M5.81266141,3.67809096 L4.06738295,0.483695641 L4.59392053,0.196018439 L6.33919899,3.39041375 L5.81266141,3.67809096 Z" transform="translate(2.52 5.417)"/>
        <path fill="#A77B3B" d="M8.6907644,3.6945108 L3.68903656,3.6945108 C3.68903656,5.24545646 3.68903656,6.17057861 3.68903656,6.47017219 C3.68903656,7.08676779 3.15810975,7.89033 2.89034336,8.18927528 C2.71183244,8.38857213 2.44530611,8.71651924 2.0907644,9.17311663 C2.0907644,4.75233491 2.0907644,2.26268241 2.0907644,1.70415914 C2.0907644,1.14563587 2.35729072,0.77044445 2.89034336,0.578584884 C3.33295044,0.666148874 3.5991815,1.04134029 3.68903656,1.70415914 C3.68903656,2.04574268 3.68903656,2.36937052 3.68903656,2.67504264 C4.24034548,3.13290567 4.68532491,3.28180883 5.02397485,3.12175212 C5.37485016,2.95591732 5.61088493,2.63517366 5.73207916,2.15952113 C5.69926757,1.67955809 5.61085332,1.43957658 5.46683639,1.43957658 C5.250811,1.43957658 5.23355172,0.425439888 6.06085881,0.425439888 C6.88816589,0.425439888 6.98460918,0.816349035 6.98460918,1.12796281 C6.98460918,1.43957658 6.50808258,2.11075851 6.50808258,2.36750311 C6.50808258,2.62424772 6.70153815,3.12175212 6.98460918,3.12175212 C7.15166069,3.12175212 7.72037909,2.92474317 8.6907644,2.53072525 L8.6907644,1.70415914 C8.78061946,1.04134029 9.04685052,0.666148874 9.4894576,0.578584884 C10.0225102,0.77044445 10.2890366,1.14563587 10.2890366,1.70415914 C10.2890366,2.26268241 10.2890366,4.75233491 10.2890366,9.17311663 C9.93449485,8.71651924 9.66796852,8.38857213 9.4894576,8.18927528 C9.22169121,7.89033 8.6907644,7.08676779 8.6907644,6.47017219 L8.6907644,3.6945108 Z M5.90696293,6.98507068 L6.16961802,7.0460864 C6.43697615,7.74330235 6.96371034,8.36663624 7.7498206,8.91608807 C6.91188806,9.13970988 6.38515387,9.47603729 6.16961802,9.92507032 C6.16961802,9.5658439 5.63811123,9.22951648 4.57509764,8.91608807 C4.93562637,8.68134631 5.37958146,8.03767385 5.90696293,6.98507068 Z M4.48800537,7.91666667 C4.12349744,7.91666667 3.82800537,7.63684464 3.82800537,7.29166667 C3.82800537,6.9464887 4.12349744,6.66666667 4.48800537,6.66666667 C4.85251331,6.66666667 5.14800537,6.9464887 5.14800537,7.29166667 C5.14800537,7.63684464 4.85251331,7.91666667 4.48800537,7.91666667 Z M7.7,7.91666667 C7.33549207,7.91666667 7.04,7.63684464 7.04,7.29166667 C7.04,6.9464887 7.33549207,6.66666667 7.7,6.66666667 C8.06450793,6.66666667 8.36,6.9464887 8.36,7.29166667 C8.36,7.63684464 8.06450793,7.91666667 7.7,7.91666667 Z"/>
        <polygon fill="#FDFF00" fill-rule="nonzero" points="10.57 4.204 11.029 4.402 9.159 8.728 8.7 8.53"/>
        <g transform="translate(3.52 2.917)">
          <mask id="d" fill="white">
            <use xlink:href="#c"/>
          </mask>
          <use fill="#E1E5E8" opacity=".3" xlink:href="#c"/>
          <rect width="5.28" height="2.5" y="2.5" fill="#3D58DB" mask="url(#d)"/>
          <rect width="5.28" height="2.5" fill="#FD1900" mask="url(#d)"/>
          <polygon fill="#FDFF00" points="2.53 1.166 2.2 1.395 2.244 1.01 1.87 .854 2.244 .698 2.2 .313 2.53 .541 2.86 .313 2.815 .698 3.19 .854 2.815 1.01 2.86 1.395" mask="url(#d)" transform="rotate(30 2.53 .854)"/>
          <path fill="#FDFF00" d="M1.65500854,0.419175713 C0.938370831,0.855174586 0.699491595,1.22966312 0.938370831,1.54264133 C1.17725007,1.85561953 1.44703699,2.03214063 1.7477316,2.07220461 C1.01466466,3.17197243 1.29324534,4.03600357 2.58347364,4.664298 C3.96480951,4.05776743 4.29225116,3.1937363 3.56579858,2.07220461 C3.99100789,1.97813507 4.24617919,1.76189637 4.3313125,1.42348851 C4.4164458,1.08508064 4.13855095,0.72180598 3.49762793,0.333664514 C3.89750756,0.913264472 4.05180215,1.27653914 3.96051169,1.42348851 C3.82357601,1.64391257 3.09002137,1.86831993 2.58347364,1.86831993 C2.0769259,1.86831993 1.29472366,1.72608991 1.16848679,1.34092149 C1.08432888,1.08414255 1.24650279,0.776893954 1.65500854,0.419175713 Z" mask="url(#d)"/>
        </g>
        <path fill="#048F02" d="M0.368323308,4.76448956 L0.821687094,4.76448956 L0.821687094,4.59078979 L1.07163734,4.76448956 L1.07163734,4.59078979 L1.39166731,4.59078979 L1.76762752,4.24972581 C1.8478423,4.7366682 1.72252223,5.04804894 1.39166731,5.18386803 C1.06081239,5.31968712 0.71969772,5.1798943 0.368323308,4.76448956 Z M0.724785955,5.72202429 L1.17814974,5.72202429 L1.17814974,5.54832452 L1.42809998,5.72202429 L1.42809998,5.54832452 L1.74812996,5.54832452 L2.12409017,5.20726054 C2.19654297,5.71284658 2.08850404,6.01841452 1.79997339,6.12396436 C1.51144275,6.22951421 1.15304693,6.09553418 0.724785955,5.72202429 Z M1.37950151,6.59152183 L1.8328653,6.59152183 L1.8328653,6.41782206 L2.08281554,6.59152183 L2.08281554,6.41782206 L2.40284552,6.41782206 L2.77880573,6.07675808 C2.85125853,6.58234412 2.7432196,6.88791206 2.45468895,6.9934619 C2.16615831,7.09901175 1.80776249,6.96503172 1.37950151,6.59152183 Z"/>
        <path fill="#FDFF00" fill-rule="nonzero" d="M1.02967102,0.422036837 L1.31575159,0.422036837 L1.31575159,0.922036837 L1.02967102,0.922036837 L1.02967102,1.79435236 L0.529671019,1.79435236 L0.529671019,0.922036837 L0.294332615,0.922036837 L0.294332615,0.422036837 L0.529671019,0.422036837 L0.529671019,0.124243177 L1.02967102,0.124243177 L1.02967102,0.422036837 Z" transform="translate(3.96)"/>
        <polygon fill="#DB4400" points="5.579 .692 4.421 .991 5.579 1.357"/>
      </g>
    </g>
  </g>
</svg>
