<svg xmlns="http://www.w3.org/2000/svg" xmlns:xlink="http://www.w3.org/1999/xlink" width="16" height="12" viewBox="0 0 16 12">
  <defs>
    <rect id="a" width="16" height="12"/>
    <polygon id="c" points="2 2 14 2 14 10 2 10"/>
    <path id="e" d="M0.0923076923,0.141891892 C0.471538148,0.0703266122 0.76384584,0.0345439724 0.969230769,0.0345439724 C1.15358943,0.0345439724 1.44589712,0.0703266122 1.84615385,0.141891892 C1.84615385,0.821918287 2.03751816,1.23824274 1.84615385,1.7027027 C1.65478953,2.16716267 1.18713593,1.94390116 0.975471502,2.38835971 C0.704965456,1.96678078 0.33964497,2.19883758 0.0923076923,1.59852572 C-0.155029586,0.998213874 0.242675971,0.721721355 0.0923076923,0.141891892 Z"/>
  </defs>
  <g fill="none" fill-rule="evenodd">
    <mask id="b" fill="white">
      <use xlink:href="#a"/>
    </mask>
    <g mask="url(#b)">
      <polygon fill="#E8AA00" points="0 0 16 0 16 12 0 12"/>
      <mask id="d" fill="white">
        <use xlink:href="#c"/>
      </mask>
      <use fill="#C51918" xlink:href="#c"/>
      <g mask="url(#d)">
        <g transform="translate(4.9 2.2)">
          <ellipse cx="5.215" cy="5.297" fill="#1E5E91" rx="1" ry="1"/>
          <path fill="#F6C540" d="M2.9862181,2.62803579 C3.00317752,2.59276036 3.02749734,2.57512265 3.05917755,2.57512265 C3.11574676,2.57512265 3.11574676,2.52913565 3.05917755,2.43716164 L3.30914837,2.19476424 L3.18800458,2.12286209 L3.43024384,1.87531468 L3.59313803,1.73056951 C3.41750289,1.62202301 3.36320482,1.56774976 3.43024384,1.56774976 C3.53080237,1.56774976 3.53887218,1.56774976 3.70872477,1.56774976 C3.87857736,1.56774976 4.05084605,1.48678557 4.16329185,1.56774976 C4.27573764,1.64871396 4.4621041,1.58582434 4.4621041,1.73056951 C4.4621041,1.87531468 4.25805171,1.71962572 4.16329185,1.7974702 C4.06853198,1.87531468 3.93772375,2.02476419 4.0505078,2.02476419 C4.12569716,2.02476419 4.20077378,2.02476419 4.27573764,2.02476419 C4.24020471,2.09016279 4.16512809,2.12286209 4.0505078,2.12286209 C3.9358875,2.12286209 3.84895584,2.19436809 3.7897128,2.33738008 L3.70872477,2.27087554 L3.70872477,2.51079697 L3.59313803,2.51079697 L3.70872477,2.74383521 L4.0505078,3.10433634 C3.90657203,3.34123709 3.87058808,3.51359757 3.94255597,3.62141778 C4.0505078,3.7831481 4.05084605,3.41982436 4.16329185,3.41982436 C4.27573764,3.41982436 4.50760147,3.34985347 4.44006425,3.2270949 C4.37252704,3.10433634 4.16329185,2.93319734 4.16329185,2.83851627 C4.67541068,2.31509635 5.0006514,1.66446113 5.13901401,0.886610594 C6.06451329,2.18900349 6.20439,3.21544134 5.55864413,3.96592416 C4.91289826,4.71640698 4.352876,4.97849659 3.87857736,4.75219299 C4.45063287,5.28441165 4.76833204,5.55058225 4.83167486,5.5507048 C4.85828316,5.55075627 4.71390415,5.25984756 4.74025909,5.26098058 C4.78989798,5.2631146 4.92566039,5.47306159 4.99387258,5.51868677 C5.02982603,5.542735 5.25859947,5.43238526 5.2892533,5.44785567 C5.36397571,5.48556666 5.32075023,5.57181265 5.30929208,5.63981377 C5.30492343,5.66574059 5.62949498,5.43093449 5.64266003,5.44785567 C5.66946486,5.4823082 5.74079173,5.52865858 5.3818515,5.80531585 C5.3818515,6.0174375 5.41360029,6.06519954 5.31833775,6.06519954 C5.20299263,6.06519954 4.92359358,6.26907085 4.74025909,6.06519954 C4.61803611,5.92928533 4.18136435,5.58781614 3.43024384,5.04079198 L3.30914837,5.10833642 C3.58426285,5.86756766 3.79539872,6.24982432 3.94255597,6.25510639 C4.16329185,6.26302949 3.26532012,6.68607361 3.05917755,6.97051297 C3.0302284,7.01045755 3.00590859,6.97947105 2.9862181,6.87755348 C2.96652761,6.97947105 2.94220779,7.01045755 2.91325864,6.97051297 C2.70711607,6.68607361 1.80914435,6.26302949 2.02988023,6.25510639 C2.17703748,6.24982432 2.38817335,5.86756766 2.66328782,5.10833642 L2.54219235,5.04079198 L2.09385884,5.55574408 C1.64162734,5.75946684 1.35440009,5.92928533 1.2321771,6.06519954 C1.04884262,6.26907085 0.76944357,6.06519954 0.654098443,6.06519954 C0.538753316,6.06519954 0.500143866,5.90381585 0.654098443,5.70593638 C0.80805302,5.50805691 1.10124157,5.60230369 1.26443481,5.49441528 C1.37323031,5.42248968 1.51731823,5.29379672 1.69669856,5.10833642 L2.09385884,4.75219299 C1.61956019,4.97849659 1.05953793,4.71640698 0.413792067,3.96592416 C-0.2319538,3.21544134 -0.0920770949,2.18900349 0.833422183,0.886610594 C0.971784792,1.66446113 1.29702551,2.31509635 1.80914435,2.83851627 C1.80914435,2.93319734 1.59990916,3.10433634 1.53237194,3.2270949 C1.46483473,3.34985347 1.69669856,3.41982436 1.80914435,3.41982436 C1.92159014,3.41982436 1.9219284,3.7831481 2.02988023,3.62141778 C2.10184811,3.51359757 2.06586417,3.34123709 1.9219284,3.10433634 L2.26371143,2.74383521 L2.37929817,2.51079697 L2.26371143,2.51079697 L2.26371143,2.27087554 L2.18272339,2.33738008 C2.12348036,2.19436809 2.03654869,2.12286209 1.9219284,2.12286209 C1.80730811,2.12286209 1.73223149,2.09016279 1.69669856,2.02476419 C1.77166242,2.02476419 1.84673903,2.02476419 1.9219284,2.02476419 C2.03471245,2.02476419 1.90390421,1.87531468 1.80914435,1.7974702 C1.71438449,1.71962572 1.51033209,1.87531468 1.51033209,1.73056951 C1.51033209,1.58582434 1.69669856,1.64871396 1.80914435,1.56774976 C1.92159014,1.48678557 2.09385884,1.56774976 2.26371143,1.56774976 C2.43356401,1.56774976 2.44163382,1.56774976 2.54219235,1.56774976 C2.60923137,1.56774976 2.55493331,1.62202301 2.37929817,1.73056951 L2.54219235,1.87531468 L2.78443162,2.12286209 L2.66328782,2.19476424 L2.91325864,2.43716164 C2.85668944,2.52913565 2.85668944,2.57512265 2.91325864,2.57512265 C2.94493886,2.57512265 2.96925868,2.59276036 2.9862181,2.62803578 Z"/>
          <path fill="#F6C540" d="M1.31654769,6.3151734 L0.878990032,5.54806858 C0.497598896,4.6687033 0.306903328,4.17563876 0.306903328,4.06887497 C0.306903328,3.90872927 0.0765996505,3.4344821 0.0765996505,3.57214599 C0.0765996505,3.66392192 0.0702455511,4.0777702 0.0575373524,4.81369082 L1.0418359,6.24337029 L1.0418359,6.41470737 L1.17182266,6.41470737 L1.31654769,6.3151734 Z"/>
          <polygon fill="#F6C540" fill-rule="nonzero" points="4.821 5.282 4.888 5.062 5.7 5.306 5.634 5.527"/>
          <polygon fill="#F6C540" fill-rule="nonzero" points="5.254 4.88 5.474 4.952 5.259 5.641 5.039 5.569"/>
          <path fill="#F6C540" fill-rule="nonzero" d="M3.06467824,0.419074514 L3.06693101,0.411215188 C3.09126668,0.418540607 3.11468813,0.426275135 3.13718962,0.434412211 C3.16678089,0.441913962 3.19815571,0.451235223 3.23131407,0.462375994 L3.23202787,0.454687378 C3.61794084,0.489937424 3.81820249,0.651476967 3.79673781,0.935494422 C3.78362597,1.10898843 3.71538206,1.22152573 3.60077438,1.26732488 L3.60077438,1.31987716 C3.32350713,1.50011708 3.1155567,1.59023704 2.97692308,1.59023704 C2.83828945,1.59023704 2.63033902,1.50011708 2.35307177,1.31987716 L2.35307177,1.23545241 C2.27359047,1.17822603 2.2261071,1.07719017 2.21539842,0.935494422 C2.19490357,0.664309497 2.37655152,0.504784874 2.7289395,0.460238482 C2.81144145,0.432914164 2.88274676,0.417012247 2.94285543,0.412532734 C2.94430305,0.412092092 2.94575394,0.41165291 2.94720808,0.411215188 C2.95762738,0.411546243 2.96743748,0.411215188 2.97692308,0.411215188 C3.0036068,0.411215188 3.03285852,0.413834964 3.06467824,0.419074514 Z M3.60077438,1.10076631 C3.63415049,1.06408836 3.65252817,1.00622726 3.65863802,0.925382588 C3.66449339,0.847905232 3.6459996,0.784012184 3.60077438,0.73345174 L3.60077438,1.10076631 Z M2.35307177,0.87806471 C2.35223529,0.891265906 2.35224024,0.904925217 2.35307177,0.919044213 L2.35307177,0.878058396 Z"/>
          <g transform="translate(1.985 2.838)">
            <mask id="f" fill="white">
              <use xlink:href="#e"/>
            </mask>
            <use fill="#1E5E91" xlink:href="#e"/>
            <rect width="1.754" height="1" x=".092" y="1.561" fill="#5EAA22" mask="url(#f)"/>
          </g>
        </g>
      </g>
    </g>
    <circle cx="7.9" cy="5.9" r="1" fill="#F6C540"/>
  </g>
</svg>
