<svg xmlns="http://www.w3.org/2000/svg" xmlns:xlink="http://www.w3.org/1999/xlink" width="16" height="12" viewBox="0 0 16 12">
  <defs>
    <rect id="a" width="16" height="12" rx="-1"/>
  </defs>
  <g fill="none" fill-rule="evenodd">
    <mask id="b" fill="white">
      <use xlink:href="#a"/>
    </mask>
    <g mask="url(#b)">
      <rect width="6" height="12" x="5" fill="#4C67E8"/>
      <rect width="5" height="12" x="11" fill="#C51918"/>
      <rect width="6" height="12" fill="#C51918"/>
      <path fill="#F8D000" d="M1,5.70213409 L1.88461538,5.70213409 L1.88461538,9.98781104 L1,9.98781104 L1,5.70213409 Z M4.11538462,5.70213409 L5,5.70213409 L5,9.98781104 L4.11538462,9.98781104 L4.11538462,5.70213409 Z M2.11538462,5.73940084 L3.94968792,5.73940084 L2.97774707,6.27332439 L2.11538462,5.73940084 Z M2.11538462,9.46607646 L3.94968792,9.46607646 L2.97774707,10 L2.11538462,9.46607646 Z M2.11538462,6.44746921 L3.92307692,6.44746921 L3.92307692,6.78287002 L2.11538462,6.78287002 L2.11538462,6.44746921 Z M2.11538462,8.94434187 L3.92307692,8.94434187 L3.92307692,9.27974268 L2.11538462,9.27974268 L2.11538462,8.94434187 Z M3.03846154,8.75800809 C2.52866023,8.75800809 2.11538462,8.35757061 2.11538462,7.86360594 C2.11538462,7.36964128 2.52866023,6.9692038 3.03846154,6.9692038 C3.54826285,6.9692038 3.96153846,7.36964128 3.96153846,7.86360594 C3.96153846,8.35757061 3.54826285,8.75800809 3.03846154,8.75800809 Z M3.01923077,5.06859923 C2.60501721,5.06859923 2.26923077,4.74324378 2.26923077,4.34189749 C2.26923077,3.9405512 2.60501721,3.61519575 3.01923077,3.61519575 C3.43344433,3.61519575 3.76923077,3.9405512 3.76923077,4.34189749 C3.76923077,4.74324378 3.43344433,5.06859923 3.01923077,5.06859923 Z M2.00160162,4.60809901 C2.23906821,4.98938749 2.57575401,5.18003173 3.01165903,5.18003173 C3.44756404,5.18003173 3.78424985,4.98938749 4.02171643,4.60809901 C3.92269759,5.2305461 3.56643661,5.54176964 2.95293349,5.54176964 C2.33943037,5.54176964 2.02231975,5.2305461 2.00160162,4.60809901 Z M2.56676925,2.94843955 C2.72692227,2.60257245 2.80699879,2.4296389 2.80699879,2.4296389 C2.80699879,2.4296389 2.80699879,2.48905349 2.80699879,2.63862209 C2.80699879,2.78819068 2.80699879,2.88171032 2.80699879,2.94843955 C2.80699879,3.01516877 2.89805167,2.88171032 2.89805167,2.72105508 C2.89805167,2.61395158 2.93434623,2.48020976 3.00693535,2.31982961 C3.02219985,2.03888178 3.02219985,1.94302864 3.00693535,2.03227019 C2.98403859,2.16613251 3.02983211,2.19758993 3.14911863,2.31982961 C3.26840516,2.4420693 3.12971316,2.94843955 3.23252974,2.94843955 C3.30107412,2.94843955 3.33279906,2.79531086 3.32770454,2.48905349 L3.50026966,2.94843955 C3.50916191,3.27755328 3.34471713,3.44211015 3.00693535,3.44211015 C2.66915356,3.44211015 2.52243153,3.27755328 2.56676925,2.94843955 Z"/>
    </g>
  </g>
</svg>
