<svg xmlns="http://www.w3.org/2000/svg" xmlns:xlink="http://www.w3.org/1999/xlink" width="16" height="12" viewBox="0 0 16 12">
  <defs>
    <rect id="a" width="16" height="12"/>
  </defs>
  <g fill="none" fill-rule="evenodd">
    <mask id="b" fill="white">
      <use xlink:href="#a"/>
    </mask>
    <g mask="url(#b)">
      <polygon fill="#2993EC" points="0 0 17 0 17 12 0 12"/>
      <g transform="translate(3 1)">
        <path fill="#F1F9FF" fill-rule="nonzero" d="M5,9.58333333 C2.29732995,9.58333333 0.106382979,7.43803109 0.106382979,4.79166667 C0.106382979,2.14530224 2.29732995,0 5,0 C7.70267005,0 9.89361702,2.14530224 9.89361702,4.79166667 C9.89361702,7.43803109 7.70267005,9.58333333 5,9.58333333 Z M5,8.54166667 C7.11513308,8.54166667 8.82978723,6.86273448 8.82978723,4.79166667 C8.82978723,2.72059885 7.11513308,1.04166667 5,1.04166667 C2.88486692,1.04166667 1.17021277,2.72059885 1.17021277,4.79166667 C1.17021277,6.86273448 2.88486692,8.54166667 5,8.54166667 Z"/>
        <path fill="#E31D1C" fill-rule="nonzero" stroke="#E31D1C" stroke-width=".15" d="M5,9.16666667 C2.53234473,9.16666667 0.531914894,7.20791245 0.531914894,4.79166667 C0.531914894,2.37542089 2.53234473,0.416666667 5,0.416666667 C7.46765527,0.416666667 9.46808511,2.37542089 9.46808511,4.79166667 C9.46808511,7.20791245 7.46765527,9.16666667 5,9.16666667 Z M5,8.95833333 C7.35014787,8.95833333 9.25531915,7.09285312 9.25531915,4.79166667 C9.25531915,2.49048021 7.35014787,0.625 5,0.625 C2.64985213,0.625 0.744680851,2.49048021 0.744680851,4.79166667 C0.744680851,7.09285312 2.64985213,8.95833333 5,8.95833333 Z"/>
        <path fill="#A7A7A7" d="M5.77226787,3.28959181 C5.83104981,3.33529644 5.87183995,3.40353769 5.88123839,3.48241745 L6.57438827,9.30064893 C6.58771293,9.41248088 6.534432,9.5217776 6.43812674,9.58016619 C5.97648165,9.8600554 5.51483657,10 5.05319149,10 C4.59151907,10 4.12984665,9.86003882 3.66817423,9.58011647 L3.66819759,9.58007795 C3.57188258,9.52168 3.51859703,9.41237015 3.53192325,9.30052512 L4.22514459,3.48241745 C4.23454303,3.40353769 4.27533317,3.33529644 4.33411511,3.28959181 C4.27037691,3.24967338 4.22289178,3.18515829 4.20589791,3.10750574 L4.01246844,2.2236405 C3.97855459,2.06867305 4.07668792,1.91555451 4.23165536,1.88164067 C4.251826,1.87722642 4.27241381,1.875 4.29306181,1.875 L5.81332117,1.875 C5.97195615,1.875 6.10055521,2.00359906 6.10055521,2.16223404 C6.10055521,2.18288205 6.09832878,2.20346986 6.09391454,2.2236405 L5.90048507,3.10750574 C5.88349119,3.18515829 5.83600607,3.24967338 5.77226787,3.28959181 Z"/>
        <path fill="#73BE4A" fill-rule="nonzero" d="M0.259638406,5.00640497 C0.285426003,4.92388734 0.374648007,4.87746305 0.458921329,4.9027134 C0.543194651,4.92796376 0.590606699,5.01532697 0.564819101,5.0978446 C0.520201852,5.24061515 0.520201852,5.45149006 0.569422754,5.72738265 C0.588303104,5.83321064 0.61074905,5.91491694 0.638354927,5.98709914 C0.649351658,6.01585274 0.66072592,6.04217172 0.675921355,6.07483241 C0.669154882,6.06028872 0.706243258,6.13906559 0.715264275,6.15948334 C0.762957105,6.26742912 0.78404932,6.36203147 0.78404932,6.50062945 C0.78404932,6.58692395 0.712605397,6.65687945 0.624474852,6.65687945 C0.536344307,6.65687945 0.464900384,6.58692395 0.464900384,6.50062945 C0.464900384,6.40591567 0.453176512,6.35333201 0.422350929,6.28356279 C0.415087518,6.26712312 0.380443294,6.19353771 0.385489831,6.20438461 C0.367482373,6.16567983 0.35337849,6.13304475 0.339475351,6.09669166 C0.30483846,6.00612518 0.277260189,5.90573651 0.255034753,5.78115868 C0.197931387,5.46108336 0.197931387,5.20386101 0.259638406,5.00640497 Z"/>
        <polygon fill="#F7FCFF" points="5.106 7.09 3.049 8.491 3.775 6.142 1.778 4.66 4.283 4.61 5.106 2.292 5.929 4.61 8.435 4.66 6.438 6.142 7.164 8.491"/>
        <path fill="#73BE4A" fill-rule="nonzero" d="M9.3021916,5.21473831 C9.32797919,5.13222068 9.4172012,5.08579638 9.50147452,5.11104674 C9.58574784,5.13629709 9.63315989,5.22366031 9.60737229,5.30617793 C9.56275504,5.44894849 9.56275504,5.65982339 9.61197595,5.93571599 C9.6308563,6.04154397 9.65330224,6.12325027 9.68090812,6.19543247 C9.69190485,6.22418607 9.70327911,6.25050505 9.71847455,6.28316574 C9.71170807,6.26862206 9.74879645,6.34739892 9.75781747,6.36781668 C9.8055103,6.47576245 9.82660251,6.57036481 9.82660251,6.70896279 C9.82660251,6.79525728 9.75515859,6.86521279 9.66702804,6.86521279 C9.5788975,6.86521279 9.50745358,6.79525728 9.50745358,6.70896279 C9.50745358,6.614249 9.4957297,6.56166534 9.46490412,6.49189612 C9.45764071,6.47545645 9.42299649,6.40187104 9.42804302,6.41271794 C9.41003556,6.37401316 9.39593168,6.34137809 9.38202854,6.30502499 C9.34739165,6.21445851 9.31981338,6.11406984 9.29758794,5.98949201 C9.24048458,5.66941669 9.24048458,5.41219434 9.3021916,5.21473831 Z" transform="matrix(-1 0 0 1 19.082 0)"/>
        <path stroke="#73BE4A" stroke-linecap="round" stroke-linejoin="round" stroke-width=".5" d="M5.03043202.573805963C5.41855987.746717046 5.52881194.969298689 5.36118823 1.24155089M5.45596394.573805963C5.84409179.746717046 5.95434386.969298689 5.78672015 1.24155089"/>
        <path fill="#73BE4A" fill-rule="nonzero" d="M1.6299186,2.17837084 C1.67212846,2.10531033 1.76078498,2.08331084 1.82793848,2.12923361 C1.89509197,2.17515638 1.91531277,2.27161139 1.87310291,2.3446719 C1.79211794,2.48484775 1.74996014,2.67716963 1.74996014,2.92376924 C1.74996014,3.01006373 1.68566061,3.08001924 1.60634312,3.08001924 C1.52702563,3.08001924 1.46272609,3.01006373 1.46272609,2.92376924 C1.46272609,2.62239676 1.51734672,2.37322006 1.6299186,2.17837084 Z"/>
        <path fill="#73BE4A" fill-rule="nonzero" d="M1.40425532,3.6062684 C1.40425532,3.69256289 1.33995579,3.7625184 1.2606383,3.7625184 C1.18132081,3.7625184 1.11702128,3.69256289 1.11702128,3.6062684 L1.11702128,3.16118392 C1.11702128,2.84625156 1.16642085,2.59823568 1.27058416,2.41712006 C1.31265666,2.34396583 1.40127166,2.32176922 1.4685113,2.36754254 C1.53575094,2.41331587 1.55615293,2.5097257 1.51408043,2.58287994 C1.44265175,2.70707769 1.40425532,2.8998511 1.40425532,3.16118392 L1.40425532,3.6062684 Z"/>
        <path fill="#73BE4A" fill-rule="nonzero" d="M8.85106383,3.39793506 C8.85106383,3.48422956 8.7867643,3.55418506 8.70744681,3.55418506 C8.62812932,3.55418506 8.56382979,3.48422956 8.56382979,3.39793506 L8.56382979,2.95285059 C8.56382979,2.63791822 8.61322936,2.38990235 8.71739267,2.20878673 C8.75946518,2.13563249 8.84808017,2.11343588 8.91531981,2.15920921 C8.98255945,2.20498253 9.00296144,2.30139237 8.96088894,2.3745466 C8.88946026,2.49874436 8.85106383,2.69151776 8.85106383,2.95285059 L8.85106383,3.39793506 Z" transform="matrix(-1 0 0 1 17.593 0)"/>
        <path fill="#73BE4A" fill-rule="nonzero" d="M9.27659574,4.12710173 C9.27659574,4.21339622 9.21229621,4.28335173 9.13297872,4.28335173 C9.05366123,4.28335173 8.9893617,4.21339622 8.9893617,4.12710173 L8.9893617,3.68201726 C8.9893617,3.36708489 9.03876127,3.11906901 9.14292459,2.9379534 C9.18499709,2.86479916 9.27361209,2.84260255 9.34085173,2.88837587 C9.40809136,2.9341492 9.42849335,3.03055904 9.38642085,3.10371327 C9.31499217,3.22791102 9.27659574,3.42068443 9.27659574,3.68201726 L9.27659574,4.12710173 Z" transform="matrix(-1 0 0 1 18.444 0)"/>
      </g>
    </g>
  </g>
</svg>
