<svg fill="none" height="12" viewBox="0 0 16 12" width="16" xmlns="http://www.w3.org/2000/svg"><path d="m0 0h16v12h-16z" fill="#21428e"/><path clip-rule="evenodd" d="m6.26184 2.56575c0 .03669.02148.05969.03812.07752.028.02999.04231.04533-.08226.08646-.18759.0656-.6952.15305-1.04831.14212-.06752 0-.18626-.02368-.29164-.04469-.08406-.01677-.15962-.03183-.1939-.03183-.04619.00572.05869.05933.1439.10289.07761.03968.1389.071.05473.05016-.24277-.0656-.38622-.08746-.19863.03279.14345.08746.46347.08746.9159.0328.09266-.01148.26434-.04403.43051-.07553.15045-.02853.29638-.0562.37504-.06659.06334-.00627.09033.02348.11434.04996.01783.01965.03401.0375.06222.0375.59588.03279 1.65523.01093 2.1187-.05466.38622-.05466.52968-.0328.64002.09839.2207.25143-.01103.47008-.64002.60126-.77244.16398-1.09246.3061-1.3904.62313-.71727.76525.12138 1.62888 1.68834 1.74913.9159.07653 1.5118.25144 1.3683.39356-.0551.05466-.66206.14212-1.35726.19678-1.51179.12025-2.18492.32796-2.75873.87456-.32001.3061-.43036.49195-.43036.74338 0 .14524 0 .23018-.04186.27986-.05895.06997-.20096.06997-.54299.06997-.30898 0-.73934-.04373-.93797-.10932-.30898-.07653-.35312-.07652-.24277.05466.2207.26237.84969.49194 1.36833.49194.39726 0 .61796.07653.97107.32797.70624.5138 1.51179.71058 2.84701.69965 1.75453-.01093 2.75873-.47008 2.75873-1.24626 0-.5794-.6621-.91829-2.04146-1.03855-.6952-.06559-2.06353.04373-2.65941.21865-.11035.03279.01103-.04373.27587-.17492.32001-.15305.84969-.26237 1.56696-.32796 1.58904-.13118 2.30634-.48101 2.30634-1.13694 0-.63406-.7063-.99482-2.21806-1.13693-1.48972-.13119-1.60007-.39356-.34209-.77618.89383-.26237 1.34625-.65593 1.34625-1.1916 0-.8199-.45242-1.09321-1.9642-1.16973-.9159-.04373-1.1366-.02187-1.53386.16398-.26483.12025-.4745.29517-.4745.38262zm1.31001-.08575c-.05156.1-.18904.2-.27496.2-.10311 0-.12029-.1-.06874-.2.05156-.12.18903-.2.27496-.2.10311 0 .12029.08.06874.2zm1.09178 6.7077c.72995.06299 1.92837-.12597 2.11357-.34012.0654-.07559-.3845-.2708-.5915-.35898-.7412-.22925-2.20845-.14491-2.93841.18262-.26148.12597.61011.4283 1.41634.51648z" fill="#fff" fill-rule="evenodd"/></svg>