<svg xmlns="http://www.w3.org/2000/svg" xmlns:xlink="http://www.w3.org/1999/xlink" width="16" height="12" viewBox="0 0 16 12">
  <defs>
    <rect id="a" width="16" height="12"/>
    <rect id="c" width="16" height="12"/>
    <path id="e" d="M0.523340035,0.0166178797 C0.523340035,3.61169437 0.298239261,6.08169415 2.96432399,6.08169415 C5.63040873,6.08169415 5.63040873,3.04915601 5.45368177,0.0166178797 L0.523340035,0.0166178797 Z"/>
    <rect id="g" width="9" height="7"/>
  </defs>
  <g fill="none" fill-rule="evenodd">
    <mask id="b" fill="white">
      <use xlink:href="#a"/>
    </mask>
    <g mask="url(#b)">
      <mask id="d" fill="white">
        <use xlink:href="#c"/>
      </mask>
      <use fill="#2E42A5" xlink:href="#c"/>
      <g mask="url(#d)">
        <g transform="translate(9.5 5)">
          <mask id="f" fill="white">
            <use xlink:href="#e"/>
          </mask>
          <path stroke="#F7FCFF" stroke-width=".25" d="M0.648264615,0.14161788 C0.648052694,0.312019438 0.647374858,0.486314572 0.645989609,0.778150003 C0.635327118,3.02445575 0.678456169,3.81822539 0.928252572,4.58257697 C1.23403999,5.51825536 1.84366567,5.95669415 2.96432399,5.95669415 C4.14470134,5.95669415 4.82758397,5.34807665 5.15448938,4.15336712 C5.41185598,3.21279438 5.44373932,2.06191537 5.33563899,0.14161788 L0.648264615,0.14161788 Z"/>
          <g mask="url(#f)">
            <g transform="translate(.4)">
              <rect width="5.035" height="4.056" x=".066" fill="#2EBED7"/>
              <rect width="5.3" height="2.077" y="4.023" fill="#A95601"/>
              <g transform="translate(1.226 .165)">
                <path stroke="#FFC6B5" stroke-width=".5" d="M1.74721839,1.59590952 C1.12487746,1.73942536 0.843791409,1.73942536 0.903960247,1.59590952 C0.964129086,1.45239368 1.07469339,1.12188314 1.23565317,0.604377909"/>
                <path fill="#FFC6B5" d="M2.02801707,1.74940981 C1.91447587,1.67867464 1.85770527,1.57889589 1.85770527,1.45007356 C1.85770527,1.25684006 1.44236942,1.18454341 1.73519324,0.88263071 C2.02801707,0.58071801 2.15438521,0.713678271 2.15438521,0.88263071 C2.15438521,1.05158315 2.38976897,1.45007356 2.38976897,1.45007356 C2.38976897,1.45007356 2.269185,1.54985231 2.02801707,1.74940981 Z"/>
                <path fill="#272727" d="M1.55687506,0.461621622 L2.48437509,0.461621622 L2.48437509,0.923243243 L1.55687506,0.923243243 L1.55687506,4.94594595 L1.09312504,4.94594595 L1.09312504,0.923243243 L0.165625006,0.923243243 L0.165625006,0.461621622 L1.09312504,0.461621622 L1.09312504,0 L1.55687506,0 L1.55687506,0.461621622 Z"/>
                <path fill="#0C7C38" d="M2.55539973,5.08176132 C2.44293279,4.55256891 2.38669931,4.10685397 2.38669931,3.7446165 C2.38669931,3.20126028 2.10398708,2.81262146 2.18477594,2.52528223 C2.26556481,2.23794299 2.46009202,1.92020416 2.36282841,1.72352951 C2.26556481,1.52685486 2.45773107,1.4310913 2.18477594,1.52685486 C1.91182082,1.62261842 1.83844736,1.4310913 1.57490785,1.52685486 C1.31136833,1.62261842 1.27799902,2.07472731 1.27799902,2.20370703 C1.27799902,2.33268675 1.3951819,3.20228008 1.3951819,3.47344829 C1.3951819,3.7446165 1.29863531,5.41207761 1.57490785,5.41207761 C1.85118039,5.41207761 2.15239711,4.97813077 2.25761276,4.97813077 C2.32775653,4.97813077 2.42701885,5.01267429 2.55539973,5.08176132 Z"/>
                <path stroke="#FF9A06" stroke-width=".5" d="M0.889275798,2.95699522 C0.720868097,2.95699522 0.875762202,3.35471507 0.447229976,3.52909993 C0.018697749,3.70348479 -0.0654085304,3.94906101 0.0695810724,3.94906101 C0.159574141,3.94906101 0.560363654,4.3554734 1.27194961,5.16829816 L1.53368406,4.75693249 L1.53368406,3.45786 C1.21635035,3.12395015 1.0015476,2.95699522 0.889275798,2.95699522 Z"/>
                <path stroke="#979797" stroke-width=".5" d="M2.1459438,4.99867235 C2.27927713,5.28478882 2.27927713,5.42784705 2.1459438,5.42784705"/>
                <path stroke="#FFC6B5" stroke-width=".5" d="M2.08159452,1.76184465 C2.02301934,2.08814651 1.93796987,2.28545246 1.82644612,2.35376251 C1.65916048,2.45622757 0.971918511,2.65460188 0.971918511,2.82398489 C0.971918511,2.93690689 0.949184447,3.01355335 0.90371632,3.05392426"/>
                <path fill="#FF9A06" d="M1.74829167,0.751422561 C1.86040086,0.886877168 1.94784081,1.06624769 2.01061155,1.28953412 C2.10476765,1.62446376 2.37752763,1.73853506 2.37752763,1.58177808 C2.37752763,1.4250211 2.57915829,0.751422561 2.37752763,0.751422561 C2.24310719,0.751422561 2.03336187,0.751422561 1.74829167,0.751422561 Z"/>
              </g>
            </g>
          </g>
        </g>
      </g>
      <g mask="url(#d)">
        <mask id="h" fill="white">
          <use xlink:href="#g"/>
        </mask>
        <g mask="url(#h)">
          <g transform="translate(-2 -1)">
            <polygon fill="#FFFFFF" fill-rule="nonzero" points=".998 1.232 2.978 .363 11.045 6.787 12.09 8.078 9.972 8.369 6.682 5.6 4.033 3.735" transform="matrix(1 0 0 -1 0 8.732)"/>
            <polygon fill="#F50100" fill-rule="nonzero" points="1.269 1.038 2.278 .534 11.714 8.613 10.298 8.613" transform="matrix(1 0 0 -1 0 9.146)"/>
            <g transform="matrix(-1 0 0 1 13 0)">
              <polygon fill="#FFFFFF" fill-rule="nonzero" points=".998 1.232 2.978 .363 11.045 6.787 12.09 8.078 9.972 8.369 6.682 5.6 4.033 3.735" transform="matrix(1 0 0 -1 0 8.732)"/>
              <polygon fill="#F50100" fill-rule="nonzero" points="1.065 1.162 2.074 .658 6.093 4.117 7.284 4.503 12.19 8.441 10.773 8.441 5.87 4.597 4.567 4.134" transform="matrix(1 0 0 -1 0 9.099)"/>
            </g>
            <path fill="#F50100" stroke="#F7FCFF" stroke-width=".75" d="M3.61725576,2.625 L3.61725576,-0.375 L5.36725576,-0.375 L5.36725576,2.625 L9.375,2.625 L9.375,4.375 L5.36725576,4.375 L5.36725576,7.375 L3.61725576,7.375 L3.61725576,4.375 L-0.375,4.375 L-0.375,2.625 L3.61725576,2.625 Z" transform="translate(2 1)"/>
          </g>
        </g>
      </g>
    </g>
  </g>
</svg>
