<svg xmlns="http://www.w3.org/2000/svg" xmlns:xlink="http://www.w3.org/1999/xlink" width="16" height="12" viewBox="0 0 16 12">
  <defs>
    <rect id="a" width="16" height="12"/>
  </defs>
  <g fill="none" fill-rule="evenodd">
    <mask id="b" fill="white">
      <use xlink:href="#a"/>
    </mask>
    <g mask="url(#b)">
      <polygon fill="#D9071E" points="11 0 16 0 16 12 11 12"/>
      <polygon fill="#006923" points="0 0 6 0 6 12 0 12"/>
      <polygon fill="#FFFFFF" points="5 0 11 0 11 12 5 12"/>
      <g transform="translate(5.5 3.3)">
        <path fill="#FCCA3D" d="M1.69205768,0.656692407 C1.463128,0.834245157 1.3700694,1.01766815 1.41288186,1.20696139 C1.47710056,1.49090124 2.15385412,1.20696139 2.07204239,0.931826898 C2.01750124,0.748403904 1.89083967,0.656692407 1.69205768,0.656692407 Z"/>
        <path fill="#A8AC71" fill-rule="nonzero" d="M1.16769447,1.33404025 C0.9107573,1.33404025 0.803638462,1.11992202 0.856783873,0.892342668 C0.885185668,0.770720464 0.958953186,0.616435771 1.07932108,0.415965137 L1.50798685,0.673347458 C1.46209486,0.749779767 1.42551526,0.816126372 1.3983849,0.870888432 C1.48825615,0.89743594 1.5768485,0.936870261 1.64894993,0.984350097 C1.88240412,1.13808307 1.96833615,1.41200539 1.71805063,1.61501635 C1.66961037,1.6543071 1.59100561,1.78825944 1.54761683,1.9169075 C1.66704062,1.9235644 1.75240126,1.94152705 1.8310824,1.98806731 C2.05207927,2.11878797 2.03129033,2.3571974 1.862994,2.54130706 C1.74371284,2.67179602 1.58444576,2.77764452 1.43440579,2.83186313 C1.18477635,2.92206951 0.917694465,2.88752025 0.917694465,2.56794348 C0.917694465,2.55547029 0.909286503,2.53049916 1.02778518,2.52782177 C0.837570305,2.52512687 0.796857672,2.42442273 0.773134671,2.24511491 C0.767125169,2.19969272 0.76470279,2.1564585 0.761363592,2.06317122 C0.759239895,2.00271944 0.759239895,2.00271944 0.756464005,1.94334495 C0.753017186,1.87863484 0.739684262,1.83250718 0.87868968,1.83250718 L0.588652441,1.83250718 L0.588652441,1.33250718 L0.87868968,1.33250718 C1.04318638,1.33250718 1.13409386,1.38805718 1.18619002,1.50289839 C1.21518518,1.45082569 1.24673268,1.40178906 1.27993607,1.35783439 C1.23811323,1.34335959 1.19570044,1.33404025 1.16769447,1.33404025 Z M1.48616719,2.21228665 C1.48880022,2.20952724 1.49139443,2.20675052 1.49394714,2.20395795 C1.49309624,2.20488881 1.49226011,2.20607732 1.49145194,2.20750385 L1.48616719,2.21228665 Z M1.26710748,2.36066267 C1.26680228,2.36078441 1.26957347,2.3600844 1.27271731,2.35958164 L1.26710748,2.36066267 Z M1.26778743,2.17204601 C1.26813982,2.17451561 1.26848149,2.17701199 1.26881526,2.17953477 C1.26784516,2.17220236 1.26698471,2.16369104 1.26617683,2.15311993 L1.26778743,2.17204601 Z M1.02778518,2.52782177 C1.0345954,2.52766789 1.04182479,2.52758765 1.04949902,2.52758765 C1.04694095,2.52758765 1.0444078,2.5275728 1.04189931,2.52754314 L1.02778518,2.52782177 Z"/>
        <path fill="#8F4620" d="M4.13323542,2.90144117 C4.44156776,1.98765956 4.35067043,1.29426283 3.86054342,0.821250974 C3.37041642,0.348239122 2.84217117,0.127559254 2.2758077,0.159211373 C2.11270735,0.280392083 2.11270735,0.387192171 2.2758077,0.479611637 C2.43890804,0.572031103 2.48629084,0.662547902 2.41795609,0.751162034 C2.14480981,0.47381514 1.91757337,0.416159907 1.73624675,0.578196334 C1.46425682,0.821250974 1.99014806,0.784259589 1.93447809,0.967269601 C1.87880812,1.15027961 1.64295412,1.96280689 1.98758758,2.37303074 C2.33222103,2.78325458 1.6617448,2.69422747 1.79811145,2.69422747 C1.93447809,2.69422747 2.41795609,2.7897148 2.41795609,2.69422747 C2.41795609,2.59874014 2.58603975,3.06546876 2.72988137,3.06546876 C2.82577579,3.06546876 2.91073258,3.0107929 2.98475174,2.90144117 C3.11917835,3.0107929 3.22734569,3.06546876 3.30925378,3.06546876 C3.39116188,3.06546876 3.57492509,3.02968683 3.86054342,2.95812295 L3.05080967,2.27586198 C3.0833507,2.07524124 3.06133139,1.95321981 2.98475174,1.90979771 C2.86988226,1.84466455 3.90564105,2.48701376 3.98675071,2.69422747 C4.04082382,2.83236994 4.08965205,2.90144117 4.13323542,2.90144117 Z"/>
        <path fill="#9FAB2F" fill-rule="nonzero" d="M0.0332329849,2.56328818 C0.0832824643,2.40376971 0.135099425,2.31847366 0.188683867,2.30740005 C0.235107969,2.29780618 0.307130536,2.33602844 0.404751568,2.42206686 C0.664869725,3.86699583 1.29383731,4.43136239 2.3374659,4.43136239 C3.39337391,4.43136239 4.0333326,4.00252099 4.40679468,2.66989103 C4.53914019,2.53472442 4.62866441,2.47465349 4.67536732,2.48967825 C4.72621376,2.50603601 4.78349087,2.6036293 4.84719865,2.78245812 C4.75163697,4.34076799 3.62659155,5.26447719 2.35476796,5.26447719 C1.07066496,5.26447719 0.0222034027,4.22946842 0.0332329849,2.56328818 Z"/>
        <path fill="#2FC2DC" d="M1.16711629,3.52821506 C2.16857004,3.74066479 2.86693633,3.84688965 3.26221514,3.84688965 C3.85513336,3.84688965 2.74198175,4.33078653 2.30764861,4.33078653 C2.01809318,4.33078653 1.63791574,4.06326271 1.16711629,3.52821506 Z"/>
        <rect width="1" height="1" x="1.833" y="3.75" fill="#F9AA51" rx=".083"/>
        <path fill="#259485" fill-rule="nonzero" d="M0.587762018,2.76794261 L0.997073474,2.48077692 C1.5297933,3.24008885 2.32644652,3.48988562 3.44065558,3.22917043 L3.55457414,3.71602006 C2.25206777,4.02079518 1.24525623,3.70510164 0.587762018,2.76794261 Z"/>
        <path fill="#FCCA3D" d="M2.7956694 2.87512735C2.39111226 3.08808638 2.25625988 3.19456589 2.39111226 3.19456589 2.59339083 3.19456589 3.38503598 3.35428517 3.2309937 3.19456589 3.12829885 3.08808638 2.98319075 2.98160686 2.7956694 2.87512735zM2.07819582 2.49411115C2.00132611 2.27209204 1.88291041 2.16108249 1.72294873 2.16108249 1.4830062 2.16108249 1.55073525 2.43427007 1.43534808 2.43427007 1.31996092 2.43427007 1.54286102 2.62651317 1.64221075 2.62651317 1.70844391 2.62651317 1.85377227 2.58237917 2.07819582 2.49411115z"/>
      </g>
    </g>
  </g>
</svg>
