<svg xmlns="http://www.w3.org/2000/svg" xmlns:xlink="http://www.w3.org/1999/xlink" width="16" height="12" viewBox="0 0 16 12">
  <defs>
    <rect id="a" width="16" height="12"/>
  </defs>
  <g fill="none" fill-rule="evenodd">
    <mask id="b" fill="white">
      <use xlink:href="#a"/>
    </mask>
    <g mask="url(#b)">
      <polygon fill="#409100" points="11 0 16 0 16 12 11 12"/>
      <polygon fill="#409100" points="0 0 6 0 6 12 0 12"/>
      <polygon fill="#FFFFFF" points="5 0 11 0 11 12 5 12"/>
      <path fill="#409100" d="M3.56461381,2.88251317 C3.47362468,2.90937793 3.38399534,2.93663578 3.31538151,2.95761313 C3.05461921,3.03733617 3.31538151,2.95761313 3.34457546,3.05310223 C3.36982023,3.13567414 3.63082752,2.97427212 3.83747155,2.86108877 C3.86364154,2.85872815 3.89072382,2.85622032 3.9187184,2.85356528 C4.0330069,2.98544039 4.09015114,3.09164267 4.09015114,3.17217213 C4.09015114,3.2449892 3.849249,3.26472459 3.59985317,3.28776709 C3.61193894,3.27188622 3.56078666,3.28019905 3.4856456,3.2987748 C3.36090986,3.31161155 3.2430989,3.32750235 3.16230637,3.35374875 C3.08514343,3.37881603 3.09816225,3.3892805 3.1608919,3.39152226 C3.15502778,3.39331017 3.14933806,3.39504774 3.14384385,3.39672749 C2.96397244,3.4517197 3.14384385,3.39672749 3.1730378,3.49221658 C3.19551002,3.56571991 3.33503518,3.46722616 3.46289774,3.37962727 C3.63593373,3.36845278 3.82642778,3.35374875 3.9187184,3.35374875 C4.14199511,3.35374875 3.69544169,3.46138967 3.52468614,3.46138967 C3.35393059,3.46138967 4.09015114,3.55228074 4.22594756,3.63263892 C4.36174397,3.71299711 3.71896065,3.63263892 3.52468614,3.63263892 C3.33041163,3.63263892 3.29429009,3.79140286 3.42722332,3.79140286 C3.56015656,3.79140286 3.73281638,3.79140286 3.9187184,3.79140286 C4.10462042,3.79140286 4.29814053,4.07579068 4.22594756,4.07579068 C4.15375458,4.07579068 3.80940638,4.23547946 3.42722332,4.23547946 C3.04504027,4.23547946 3.9187184,4.2358905 4.09015114,4.23547946 C4.26158389,4.23506842 4.75067594,4.2358905 4.75067594,4.40493042 C4.75067594,4.57397034 4.51139612,4.53096535 4.29814053,4.64657016 C4.08488494,4.76217496 4.93591329,4.86719551 4.93591329,4.86719551 C4.93591329,4.86719551 4.59908092,4.97195915 4.43516402,4.97195915 C4.27124711,4.97195915 4.51139612,5.12681822 4.93591329,5.12681822 C5.36043047,5.12681822 5.07513529,5.42497586 5.07513529,5.49223217 C5.07513529,5.55948848 4.75067594,5.60567902 4.51139612,5.81453837 C4.27211629,6.02339773 4.85201197,5.81453837 5.07513529,5.81453837 C5.29825861,5.81453837 5.39330588,5.82383814 5.32065275,5.93204424 C5.24799963,6.04025034 4.59908092,6.21144821 4.43516402,6.21144821 C4.27124711,6.21144821 5.07513529,6.21144821 5.32065275,6.21144821 C5.56617021,6.21144821 5.25188537,6.40540739 4.93591329,6.40540739 C4.61994122,6.40540739 4.51139612,6.58277086 4.43516402,6.58277086 C4.35893192,6.58277086 4.59908092,6.58277086 5.07513529,6.58277086 C5.13642878,6.58277086 5.20910426,6.39869306 5.25188537,6.40540739 C5.54137663,6.45084194 5.41149102,6.81521359 5.25188537,6.81521359 C5.06869314,6.81521359 4.51139612,6.93806296 4.59908092,7.0620427 C4.68676573,7.18602243 4.87629785,6.93806296 5.32065275,6.93806296 C5.76500766,6.93806296 5.3633959,7.0620427 5.25188537,7.0620427 C5.14037483,7.0620427 4.66861523,7.15211169 4.51139612,7.22995226 C4.354177,7.30779283 5.25188537,7.22995226 5.61765628,7.22995226 C5.98342719,7.22995226 4.75067594,7.5411604 4.29814053,7.5411604 C3.84560512,7.5411604 4.59908092,7.66067008 4.75067594,7.66067008 C4.90227096,7.66067008 5.42546549,7.76394371 5.81690275,7.76394371 C6.20834,7.76394371 5.42546549,8.0218195 5.07513529,8.0218195 C4.72480509,8.0218195 4.43516402,8.00347687 4.59908092,8.20858549 C4.76299783,8.41369411 5.67062506,8.11014158 5.96287366,8.28015771 C6.25512227,8.45017385 4.73528636,8.40906992 4.43516402,8.40906992 C4.13504168,8.40906992 4.73528636,8.52041019 5.25188537,8.52041019 C5.76848437,8.52041019 5.88807315,8.51311425 5.88807315,8.67187818 C5.88807315,8.83064212 4.4647161,8.75167119 4.29814053,8.75167119 C4.13156496,8.75167119 4.11014226,8.96022226 3.9187184,8.96022226 C3.72729454,8.96022226 3.77412794,8.67270026 3.54373189,8.83213213 C3.39013452,8.93842005 3.46693321,9.52770629 3.77412794,10.5999908 L2.53028188,10.5999908 L2.53028188,9.08522959 C2.26042741,9.00086377 1.86622924,9.00086377 1.34768737,9.08522959 C0.829145492,9.16959541 0.488120615,9.08522959 0.324612735,8.83213213 C0.324612735,8.83213213 0.357266592,8.80531182 0.422574304,8.75167119 C0.520535873,8.67121024 0.96397047,8.75167119 1.21736167,8.75167119 C1.47075287,8.75167119 1.80390401,8.67187818 2.10346394,8.67187818 C2.40302387,8.67187818 1.21736167,8.28015771 0.96397047,8.52041019 C0.710579272,8.76066267 0,8.40906992 0,8.20858549 C7.36567834e-18,8.00810106 0.561898561,8.20858549 0.789827932,8.20858549 C1.0177573,8.20858549 0.561898561,7.76394371 0.324612735,7.76394371 C0.0873269101,7.76394371 0.561898561,7.66067008 0.789827932,7.66067008 C1.0177573,7.66067008 1.21736167,7.76394371 1.34768737,7.76394371 C1.47801307,7.76394371 0.693246823,7.42663457 0.561898561,7.42663457 C0.430550299,7.42663457 0.789827932,7.42663457 1.21736167,7.42663457 C1.6448954,7.42663457 1.4572039,7.5411604 1.80390401,7.5411604 C2.15060411,7.5411604 1.96076522,7.35151714 1.96076522,7.35151714 C1.96076522,7.35151714 0.789827932,7.22995226 0.561898561,7.0620427 C0.33396919,6.89413314 1.34768737,7.0620427 1.69346716,7.0620427 C2.03924696,7.0620427 0.96397047,6.81521359 0.789827932,6.81521359 C0.615685393,6.81521359 1.21736167,6.81521359 1.5822634,6.81521359 C1.94716513,6.81521359 2.38717414,7.0620427 2.83152904,7.0620427 C3.27588395,7.0620427 1.34768737,6.58277086 1.05717712,6.40540739 C0.766666872,6.22804393 1.5822634,6.58277086 1.96076522,6.58277086 C2.33926705,6.58277086 1.4572039,6.21144821 1.21736167,6.21144821 C0.977519435,6.21144821 0.747902834,6.10349901 0.96397047,6.00371922 C1.18003811,5.90393942 1.96076522,6.21144821 2.19385854,6.21144821 C2.42695186,6.21144821 2.53028188,6.40540739 2.83152904,6.40540739 C3.13277621,6.40540739 2.19385854,6.00371922 1.80390401,6.00371922 C1.41394947,6.00371922 1.34768737,5.81453837 1.5822634,5.81453837 C1.81683943,5.81453837 1.05717712,5.49223217 1.05717712,5.49223217 C1.05717712,5.49223217 0.947047047,5.26364293 1.21736167,5.26364293 C1.48767629,5.26364293 1.4572039,5.26364293 1.5822634,5.26364293 C1.7073229,5.26364293 1.4572039,4.86719551 1.21736167,4.86719551 C0.977519435,4.86719551 1.18668477,4.74742893 1.5822634,4.74742893 C1.97784203,4.74742893 2.10346394,4.97195915 2.53028188,5.12681822 C2.95709982,5.28167728 2.63514575,4.86719551 2.53028188,4.86719551 C2.42541801,4.86719551 1.34768737,4.52937257 1.34768737,4.52937257 C1.34768737,4.52937257 1.4572039,4.40493042 1.34768737,4.23547946 C1.23817083,4.0660285 1.87773308,4.23547946 1.96076522,4.23547946 C2.04379737,4.23547946 2.38717414,4.33474545 2.70738985,4.40493042 C3.02760557,4.47511538 1.61963809,3.88789434 1.4572039,3.88789434 C1.29476971,3.88789434 1.80390401,3.79140286 2.10346394,3.79140286 C2.40302387,3.79140286 2.38717414,3.88789434 2.70738985,3.88789434 C3.02760557,3.88789434 2.10346394,3.54467651 1.80390401,3.54467651 C1.50434407,3.54467651 1.68145204,3.24913924 1.80390401,3.24913924 C1.92635597,3.24913924 2.53028188,3.35374875 2.83152904,3.35374875 C3.13277621,3.35374875 2.19385854,3.17217213 2.10346394,3.0220914 C2.04042894,2.91743539 2.20326659,2.95873923 2.45829004,2.99332933 C2.58744661,3.06100431 2.69534333,3.10471587 2.71112321,3.05310223 C2.7156625,3.03825488 2.72580026,3.02764351 2.73870553,3.02001012 C2.76920514,3.021345 2.80019241,3.0220914 2.83152904,3.0220914 C3.01009139,3.0220914 2.92757628,2.99487773 2.75571563,2.96232182 C2.75079802,2.96081745 2.74566736,2.95924885 2.74031715,2.95761313 C2.47955485,2.8778901 1.91525913,2.70745587 2.12634951,2.81262971 C2.16769469,2.83322956 2.21415745,2.85864834 2.26236633,2.88549056 C2.12008286,2.86663293 2.00050133,2.85356528 1.96076522,2.85356528 C1.81806651,2.85356528 1.67495877,2.74330398 1.96076522,2.74330398 C2.24657168,2.74330398 2.70738985,2.74330398 2.53028188,2.74330398 C2.35317391,2.74330398 2.10346394,2.74330398 2.10346394,2.60416717 C2.10346394,2.46503036 2.53028188,2.60416717 2.70738985,2.60416717 C2.88449783,2.60416717 2.92857031,2.60416717 2.83152904,2.52139413 C2.73448778,2.43862109 2.38717414,2.4434508 2.19385854,2.4434508 C2.00054294,2.4434508 2.60375306,2.34243789 2.83152904,2.34243789 C3.05930503,2.34243789 2.53028188,2.34243789 2.19385854,2.19025058 C1.8574352,2.03806327 2.53028188,2.19025058 2.83152904,2.19025058 C3.13277621,2.19025058 2.70738985,1.98765958 2.38717414,1.98765958 C2.06695843,1.98765958 2.33579033,1.87868278 2.53028188,1.7560903 C2.72477343,1.63349783 2.83152904,2.06930226 2.83152904,1.87868278 C2.83152904,1.6880633 2.70738985,1.67326588 2.83152904,1.7560903 C2.91428851,1.81130658 2.91428851,1.73887803 2.83152904,1.53880464 C2.74876958,1.48355411 2.74876958,1.45592884 2.83152904,1.45592884 C2.95566824,1.45592884 2.79159795,1.31345234 2.70738985,1.31345234 C2.65125113,1.31345234 2.72497794,1.26801537 2.92857031,1.17714142 L2.99585497,0.599990845 C3.10682257,1.01925095 3.16230637,1.25707145 3.16230637,1.31345234 C3.16230637,1.39802368 3.16230637,1.51856096 3.16230637,1.7560903 C3.16230637,1.99361965 2.78382646,2.06930226 3.16230637,2.06930226 C3.54078627,2.06930226 3.52468614,2.19025058 3.29429009,2.19025058 C3.06389404,2.19025058 3.36044994,2.34243789 3.77412794,2.34243789 C4.18780594,2.34243789 3.42722332,2.52139413 3.16230637,2.52139413 C2.89738941,2.52139413 3.42722332,2.60416717 3.77412794,2.60416717 C4.12103256,2.60416717 3.42722332,2.78173616 3.29429009,2.85356528 C3.23046306,2.88805356 3.32057097,2.89770286 3.56461381,2.88251317 Z M2.87580604,7.6340277 C2.64542251,7.6340277 2.14738304,7.63782982 2.34391971,7.7118169 C2.54045639,7.78580397 2.87580604,8.01423907 2.87580604,7.82413339 C2.87580604,7.6340277 3.10618956,7.6340277 2.87580604,7.6340277 Z M2.75111656,7.13281397 C2.52073303,7.13281397 2.02269355,7.13661608 2.21923023,7.21060316 C2.41576691,7.28459024 2.75111656,7.51302534 2.75111656,7.32291965 C2.75111656,7.13281397 2.98150008,7.13281397 2.75111656,7.13281397 Z M2.76991365,6.75690367 C2.58182359,6.75690367 2.17521346,6.75890071 2.33567022,6.7977621 C2.49612699,6.83662348 2.76991365,6.95660799 2.76991365,6.85675583 C2.76991365,6.75690367 2.95800371,6.75690367 2.76991365,6.75690367 Z M2.74031715,5.21307493 C2.47955485,5.1333519 1.91525913,4.96291767 2.12634951,5.06809151 C2.33743989,5.17326534 2.68192926,5.40405312 2.71112321,5.30856403 C2.74031715,5.21307493 3.00107945,5.29279797 2.74031715,5.21307493 Z M2.74031715,4.7118612 C2.47955485,4.63213816 1.91525913,4.46170394 2.12634951,4.56687777 C2.33743989,4.6720516 2.68192926,4.90283939 2.71112321,4.80735029 C2.74031715,4.7118612 3.00107945,4.79158423 2.74031715,4.7118612 Z M2.74031715,4.08534403 C2.47955485,4.005621 1.91525913,3.83518677 2.12634951,3.94036061 C2.33743989,4.04553444 2.68192926,4.27632222 2.71112321,4.18083313 C2.74031715,4.08534403 3.00107945,4.16506707 2.74031715,4.08534403 Z M3.30458211,7.50872427 C3.07419859,7.50872427 3.30458211,7.50872427 3.30458211,7.69882996 C3.30458211,7.88893564 3.63993176,7.66050054 3.83646844,7.58651346 C4.03300511,7.51252638 3.53496563,7.50872427 3.30458211,7.50872427 Z M3.30458211,7.13281397 C3.07419859,7.13281397 3.30458211,7.13281397 3.30458211,7.32291965 C3.30458211,7.51302534 3.63993176,7.28459024 3.83646844,7.21060316 C4.03300511,7.13661608 3.53496563,7.13281397 3.30458211,7.13281397 Z M3.28578501,6.5062968 C3.09769496,6.5062968 3.28578501,6.5062968 3.28578501,6.60614896 C3.28578501,6.70600112 3.97872629,6.38428083 4.13918306,6.34541945 C4.29963982,6.30655807 3.47387507,6.5062968 3.28578501,6.5062968 Z M3.31538151,4.96246807 C3.05461921,5.0421911 3.31538151,4.96246807 3.34457546,5.05795716 C3.37376941,5.15344626 3.71825877,4.92265847 3.92934915,4.81748464 C4.14043953,4.71231081 3.57614381,4.88274503 3.31538151,4.96246807 Z M3.31538151,5.4636818 C3.05461921,5.54340483 3.31538151,5.4636818 3.34457546,5.55917089 C3.37376941,5.65465999 3.71825877,5.4238722 3.92934915,5.31869837 C4.14043953,5.21352454 3.57614381,5.38395876 3.31538151,5.4636818 Z M3.31538151,4.46125433 C3.05461921,4.54097737 3.31538151,4.46125433 3.34457546,4.55674343 C3.37376941,4.65223252 3.71825877,4.42144474 3.92934915,4.31627091 C4.14043953,4.21109707 3.57614381,4.3815313 3.31538151,4.46125433 Z M3.14384385,4.02324465 C2.96397244,4.07823687 3.14384385,4.02324465 3.1730378,4.11873375 C3.20223175,4.21422284 3.42897516,4.01943361 3.57105876,3.93535727 C3.71314236,3.85128093 3.32371527,3.96825244 3.14384385,4.02324465 Z M3.25860263,5.76698437 C3.12089743,5.87580703 3.12089743,5.93021836 3.25860263,5.93021836 C3.46516042,5.93021836 4.32280987,5.63940804 3.93364782,5.63940804 C3.54448578,5.63940804 3.4712958,5.76698437 3.36494922,5.76698437 L3.25860263,5.76698437 Z" transform="translate(5 .3)"/>
    </g>
  </g>
</svg>
