<svg width="16" height="12" viewBox="0 0 16 12" fill="none" xmlns="http://www.w3.org/2000/svg">
<g clip-path="url(#clip0_270_55134)">
<rect width="16" height="12" fill="white"/>
<path fill-rule="evenodd" clip-rule="evenodd" d="M11 0H16V12H11V0Z" fill="#409100"/>
<path fill-rule="evenodd" clip-rule="evenodd" d="M0 0H6V12H0V0Z" fill="#409100"/>
<path fill-rule="evenodd" clip-rule="evenodd" d="M5 0H11V12H5V0Z" fill="white"/>
<path fill-rule="evenodd" clip-rule="evenodd" d="M6.34769 9.38523C5.56987 9.51178 5.32461 9.13214 5.32461 9.13214L5.42257 9.05167C5.48836 8.99764 5.70997 9.01618 5.92518 9.03419C6.03042 9.043 6.13414 9.05167 6.21736 9.05167C6.33876 9.05167 6.47846 9.03336 6.62401 9.01428C6.78226 8.99353 6.94742 8.97188 7.10346 8.97188C7.40302 8.97188 6.21736 8.58016 5.96397 8.82041C5.71058 9.06067 5 8.70907 5 8.50859C5 8.37179 5.2616 8.42167 5.50021 8.46717C5.6113 8.48836 5.71742 8.50859 5.78983 8.50859C6.01776 8.50859 5.5619 8.06395 5.32461 8.06395C5.08733 8.06395 5.5619 7.96067 5.78983 7.96067C5.91962 7.96067 6.04022 7.99416 6.14408 8.023C6.22261 8.0448 6.29157 8.06395 6.34769 8.06395C6.47801 8.06395 5.69325 7.72664 5.5619 7.72664H6.21736C6.44232 7.72664 6.49695 7.75835 6.54871 7.78839C6.59533 7.81545 6.63963 7.84116 6.8039 7.84116C7.1506 7.84116 6.96077 7.65152 6.96077 7.65152C6.96077 7.65152 5.78983 7.52996 5.5619 7.36205C5.40778 7.24851 5.82137 7.28852 6.21229 7.32633L6.2123 7.32633C6.3995 7.34444 6.5815 7.36205 6.69347 7.36205C7.03925 7.36205 5.96397 7.11522 5.78983 7.11522H6.58226C6.75573 7.11522 6.94618 7.171 7.146 7.22953L7.146 7.22953C7.3665 7.29412 7.59842 7.36205 7.83153 7.36205C8.07729 7.36205 7.59732 7.21544 7.07006 7.0544L7.07004 7.05439C6.64397 6.92425 6.18701 6.78468 6.05718 6.70541C5.92284 6.62339 6.02503 6.65516 6.21115 6.71301C6.42751 6.78026 6.75729 6.88277 6.96077 6.88277C7.33927 6.88277 6.4572 6.51145 6.21736 6.51145C5.97752 6.51145 5.7479 6.4035 5.96397 6.30372C6.09663 6.24246 6.44216 6.33473 6.7431 6.4151C6.9323 6.46563 7.10388 6.51145 7.19386 6.51145C7.30294 6.51145 7.38361 6.55393 7.46944 6.59913C7.56701 6.65051 7.67126 6.70541 7.83153 6.70541C8.13278 6.70541 7.19386 6.30372 6.8039 6.30372C6.41395 6.30372 6.34769 6.11454 6.58226 6.11454C6.81684 6.11454 6.05718 5.79224 6.05718 5.79224C6.05718 5.79224 5.94705 5.56365 6.21736 5.56365H6.58226C6.70732 5.56365 6.4572 5.1672 6.21736 5.1672C5.97752 5.1672 6.18668 5.04743 6.58226 5.04743C6.82281 5.04743 6.96353 5.13045 7.13285 5.23035C7.24199 5.29473 7.363 5.36613 7.53028 5.42682C7.9571 5.58168 7.63515 5.1672 7.53028 5.1672C7.42542 5.1672 6.34769 4.82938 6.34769 4.82938C6.34769 4.82938 6.4572 4.70493 6.34769 4.53548C6.26504 4.40761 6.60898 4.47273 6.81842 4.51239C6.88651 4.52528 6.94039 4.53548 6.96077 4.53548C7.01034 4.53548 7.15272 4.57087 7.32757 4.61432L7.32758 4.61433C7.44558 4.64365 7.57836 4.67665 7.70739 4.70493C8.02761 4.77512 6.61964 4.1879 6.4572 4.1879C6.29477 4.1879 6.8039 4.09141 7.10346 4.09141C7.25075 4.09141 7.32178 4.11473 7.39401 4.13845C7.46868 4.16296 7.54461 4.1879 7.70739 4.1879C8.02761 4.1879 7.10346 3.84468 6.8039 3.84468C6.50434 3.84468 6.68145 3.54914 6.8039 3.54914C6.85158 3.54914 6.97223 3.565 7.11959 3.58437L7.1196 3.58437L7.1196 3.58437H7.1196L7.11961 3.58437L7.11962 3.58437L7.11963 3.58437C7.35076 3.61475 7.64758 3.65375 7.83153 3.65375C7.97158 3.65375 7.84359 3.61451 7.65743 3.55743L7.65743 3.55743L7.65742 3.55743C7.44316 3.49173 7.15183 3.4024 7.10346 3.32209C7.05008 3.23346 7.15871 3.24952 7.34815 3.27752L7.34815 3.27753C7.38238 3.28259 7.41926 3.28804 7.45829 3.29333C7.58745 3.36101 7.69534 3.40472 7.71112 3.35311C7.71566 3.33826 7.7258 3.32765 7.73871 3.32001C7.76921 3.32135 7.80019 3.32209 7.83153 3.32209C8.01009 3.32209 7.92758 3.29488 7.75571 3.26232L7.74032 3.25762C7.47955 3.17789 6.91526 3.00746 7.12635 3.11263C7.16769 3.13323 7.21416 3.15865 7.26237 3.18549C7.12008 3.16664 7.0005 3.15357 6.96077 3.15357C6.81807 3.15357 6.67496 3.04331 6.96077 3.04331H7.53028C7.35317 3.04331 7.10346 3.04331 7.10346 2.90417C7.10346 2.80947 7.30118 2.84368 7.48331 2.87519C7.56878 2.88998 7.65082 2.90417 7.70739 2.90417C7.8845 2.90417 7.92857 2.90417 7.83153 2.8214C7.73939 2.7428 7.42161 2.74319 7.22427 2.74343L7.19386 2.74345C7.00054 2.74345 7.60375 2.64244 7.83153 2.64244C7.86982 2.64244 7.88672 2.64244 7.88675 2.64172C7.88677 2.64115 7.87625 2.64012 7.85741 2.63829C7.75831 2.62866 7.42903 2.59664 7.19386 2.49025C6.98348 2.39508 7.16778 2.41894 7.40907 2.45018C7.55364 2.46889 7.71866 2.49025 7.83153 2.49025C8.13278 2.49025 7.70739 2.28766 7.38717 2.28766C7.13015 2.28766 7.25262 2.21745 7.41155 2.12635L7.41155 2.12635C7.45062 2.10395 7.4919 2.08029 7.53028 2.05609C7.64583 1.98326 7.7304 2.10751 7.78003 2.18041C7.81394 2.23022 7.83153 2.25606 7.83153 2.17869C7.83153 2.10316 7.81204 2.05524 7.79623 2.03005C7.80469 2.03715 7.81622 2.04588 7.83153 2.05609C7.95567 2.13892 7.83153 1.83881 7.83153 1.83881C7.83153 1.83881 7.70739 1.75593 7.83153 1.75593C7.95567 1.75593 7.7916 1.61346 7.70739 1.61346C7.62318 1.61346 7.92857 1.47714 7.92857 1.47714L7.99586 0.899994C7.99586 0.899994 8.16231 1.52888 8.16231 1.61346V2.05609C8.16231 2.16147 8.08781 2.23499 8.03797 2.28419C7.97547 2.34588 7.95174 2.36931 8.16231 2.36931C8.54079 2.36931 8.52469 2.49025 8.29429 2.49025C8.06389 2.49025 8.36045 2.64244 8.77413 2.64244C9.18781 2.64244 8.42722 2.8214 8.16231 2.8214C7.89739 2.8214 8.42722 2.90417 8.77413 2.90417C9.00838 2.90417 8.76809 2.98514 8.5464 3.05984C8.43978 3.09576 8.33746 3.13024 8.29429 3.15357C8.22551 3.19073 8.39505 3.18944 8.57472 3.17954C8.48029 3.20736 8.38653 3.23586 8.31538 3.25762C8.22909 3.284 8.19991 3.29292 8.20055 3.29651C8.20088 3.29834 8.20899 3.29878 8.22124 3.29945C8.25749 3.30142 8.32998 3.30536 8.34458 3.35311C8.36636 3.42436 8.5637 3.31394 8.75018 3.2096C8.78004 3.19289 8.80963 3.17633 8.83818 3.1607C8.88721 3.15656 8.91872 3.15357 8.91872 3.15357C8.91872 3.15357 9.09015 3.35138 9.09015 3.47218C9.09015 3.54263 8.86464 3.56339 8.62411 3.58553L8.59985 3.58777C8.61194 3.57189 8.56079 3.5802 8.48565 3.59878C8.36091 3.61161 8.2431 3.62751 8.16231 3.65375C8.08514 3.67882 8.09816 3.68928 8.16089 3.69153L8.14384 3.69673C8.08477 3.71479 8.0645 3.72099 8.06495 3.72455C8.06518 3.72641 8.07107 3.72755 8.08004 3.72929H8.08004C8.10617 3.73435 8.15844 3.74447 8.17304 3.79222C8.19482 3.86347 8.3266 3.7731 8.45113 3.6877L8.4629 3.67963L8.58135 3.67174L8.58136 3.67174C8.7169 3.66257 8.84725 3.65375 8.91872 3.65375C9.14199 3.65375 8.69544 3.76139 8.52469 3.76139C8.45203 3.76139 8.54358 3.77785 8.68322 3.80295C8.87175 3.83683 9.14793 3.88648 9.22595 3.93264C9.31919 3.98782 9.04537 3.96722 8.8017 3.9489L8.80169 3.9489C8.69049 3.94053 8.58557 3.93264 8.52469 3.93264C8.33041 3.93264 8.29429 4.09141 8.42722 4.09141H8.91872C9.10462 4.09141 9.29814 4.37579 9.22595 4.37579C9.20408 4.37579 9.15723 4.39045 9.09191 4.41088C8.94164 4.45789 8.69362 4.53548 8.42722 4.53548C8.04504 4.53548 8.91872 4.53589 9.09015 4.53548C9.26158 4.53507 9.75068 4.53589 9.75068 4.70493C9.75068 4.81009 9.65809 4.83319 9.53677 4.86346C9.46305 4.88185 9.37874 4.90288 9.29814 4.94657C9.08489 5.06218 9.93591 5.1672 9.93591 5.1672C9.93591 5.1672 9.59908 5.27196 9.43516 5.27196C9.27125 5.27196 9.5114 5.42682 9.93591 5.42682C10.2643 5.42682 10.1679 5.60528 10.1074 5.71721L10.1074 5.71721C10.0898 5.74996 10.0751 5.77701 10.0751 5.79224C10.0751 5.82167 10.013 5.84707 9.92305 5.88383C9.80746 5.93108 9.64596 5.99709 9.5114 6.11454C9.35658 6.24967 9.54468 6.20994 9.75721 6.16506L9.75721 6.16506C9.87316 6.14057 9.99637 6.11454 10.0751 6.11454C10.2983 6.11454 10.3933 6.12384 10.3207 6.23205C10.248 6.34025 9.59908 6.51145 9.43516 6.51145H10.3207C10.5662 6.51145 10.2519 6.70541 9.93591 6.70541C9.72402 6.70541 9.60541 6.78517 9.52727 6.83772C9.48889 6.86353 9.46027 6.88277 9.43516 6.88277H10.0751C10.1077 6.88277 10.1436 6.83066 10.1764 6.7829C10.2053 6.7409 10.2319 6.70227 10.2519 6.70541C10.5414 6.75084 10.4115 7.11522 10.2519 7.11522C10.0687 7.11522 9.5114 7.23807 9.59908 7.36205C9.64152 7.42205 9.70781 7.39493 9.81529 7.35097C9.9299 7.3041 10.0913 7.23807 10.3207 7.23807C10.765 7.23807 10.3634 7.36205 10.2519 7.36205C10.1404 7.36205 9.66861 7.45211 9.5114 7.52996C9.40644 7.58192 9.77161 7.5645 10.1348 7.54718C10.3157 7.53856 10.4961 7.52996 10.6177 7.52996C10.9834 7.52996 9.75068 7.84116 9.29814 7.84116C8.84561 7.84116 9.59908 7.96067 9.75068 7.96067C9.80883 7.96067 9.92165 7.97587 10.0607 7.9946L10.0608 7.9946H10.0608C10.2843 8.02471 10.5756 8.06395 10.8169 8.06395C11.2083 8.06395 10.4255 8.32182 10.0751 8.32182L9.99505 8.3216C9.68268 8.32032 9.44785 8.31936 9.59908 8.50859C9.68317 8.61381 9.963 8.58516 10.2551 8.55526C10.5323 8.52688 10.8206 8.49737 10.9629 8.58016C11.2186 8.7289 10.0873 8.71605 9.59917 8.71051H9.59916H9.59916C9.52936 8.70972 9.47271 8.70907 9.43516 8.70907C9.13504 8.70907 9.73529 8.82041 10.2519 8.82041L10.3171 8.82039C10.7787 8.82009 10.8881 8.82002 10.8881 8.97188C10.8881 9.10532 9.88253 9.07082 9.46287 9.05642C9.38324 9.05368 9.32471 9.05167 9.29814 9.05167C9.21775 9.05167 9.17116 9.10025 9.12296 9.15052C9.07129 9.2044 9.01776 9.26023 8.91872 9.26023C8.83716 9.26023 8.79886 9.20804 8.76393 9.16046C8.71688 9.09636 8.67597 9.04063 8.54373 9.13214C8.31334 9.29157 8.77413 10.9 8.77413 10.9H7.53028V9.38523C7.53028 9.38523 7.1255 9.25868 6.34769 9.38523ZM7.77669 2.00823C7.77496 2.00859 7.77976 2.01622 7.79623 2.03005C7.78664 2.01478 7.77841 2.00786 7.77669 2.00823ZM7.34392 8.01182C7.14738 7.93783 7.64542 7.93403 7.87581 7.93403C7.95009 7.93403 7.97647 7.93403 7.97812 7.9404C7.97902 7.94391 7.97243 7.94936 7.9622 7.95779C7.9334 7.98156 7.87581 8.02908 7.87581 8.12414C7.87581 8.26599 7.68908 8.1748 7.51264 8.08863L7.51264 8.08863L7.51263 8.08863L7.51262 8.08862C7.45261 8.05932 7.3938 8.0306 7.34392 8.01182ZM7.75112 7.43282C7.52073 7.43282 7.02269 7.43662 7.21923 7.51061C7.26911 7.52938 7.32792 7.55811 7.38793 7.58741L7.38794 7.58742L7.38795 7.58742L7.38795 7.58742C7.56439 7.67359 7.75112 7.76478 7.75112 7.62292C7.75112 7.52787 7.80871 7.48034 7.83751 7.45658C7.84774 7.44814 7.85433 7.4427 7.85343 7.43919C7.85178 7.43282 7.82541 7.43282 7.75112 7.43282ZM7.33567 7.09776C7.17521 7.0589 7.58182 7.05691 7.76991 7.05691C7.83169 7.05691 7.85289 7.05691 7.8535 7.06044C7.85381 7.06229 7.84851 7.06511 7.84045 7.06939C7.81694 7.08187 7.76991 7.10683 7.76991 7.15676C7.76991 7.23127 7.61747 7.18337 7.47342 7.13811C7.42442 7.12272 7.3764 7.10763 7.33567 7.09776ZM7.74032 5.51308C7.47955 5.43335 6.91526 5.26292 7.12635 5.36809C7.17993 5.39479 7.2421 5.42957 7.30552 5.46506C7.492 5.5694 7.68934 5.67982 7.71112 5.60857C7.72572 5.56082 7.79821 5.55688 7.83445 5.55491C7.84671 5.55424 7.85482 5.5538 7.85515 5.55197C7.85579 5.54838 7.82661 5.53946 7.74032 5.51308ZM7.12635 4.86688C6.91526 4.76171 7.47955 4.93214 7.74032 5.01186C7.82661 5.03825 7.85579 5.04717 7.85515 5.05076C7.85482 5.05259 7.84671 5.05303 7.83445 5.0537C7.79821 5.05567 7.72572 5.05961 7.71112 5.10735C7.68934 5.17861 7.492 5.06819 7.30552 4.96385L7.30552 4.96385C7.24209 4.92836 7.17992 4.89357 7.12635 4.86688ZM7.74032 4.38535C7.47955 4.30562 6.91526 4.13519 7.12635 4.24036C7.17993 4.26706 7.2421 4.30184 7.30552 4.33733C7.492 4.44167 7.68934 4.55209 7.71112 4.48084C7.72572 4.43309 7.79821 4.42915 7.83445 4.42718C7.84671 4.42651 7.85482 4.42607 7.85515 4.42424C7.85579 4.42065 7.82661 4.41173 7.74032 4.38535ZM8.30458 7.80873C8.53497 7.80873 9.03301 7.81253 8.83647 7.88652C8.78659 7.90529 8.72777 7.93402 8.66777 7.96332L8.66775 7.96333L8.66775 7.96333C8.4913 8.0495 8.30458 8.14069 8.30458 7.99883C8.30458 7.90378 8.24699 7.85625 8.21819 7.83249C8.20796 7.82405 8.20137 7.81861 8.20227 7.8151C8.20391 7.80873 8.23029 7.80873 8.30458 7.80873ZM8.83647 7.51061C9.03301 7.43662 8.53497 7.43282 8.30458 7.43282C8.23029 7.43282 8.20391 7.43282 8.20227 7.43919C8.20137 7.4427 8.20796 7.44814 8.21819 7.45658C8.24699 7.48034 8.30458 7.52787 8.30458 7.62292C8.30458 7.76478 8.4913 7.67359 8.66775 7.58742L8.66775 7.58742L8.66776 7.58742L8.66777 7.58741C8.72778 7.55811 8.78659 7.52938 8.83647 7.51061ZM9.14472 6.64385L9.14473 6.64385C9.16527 6.6391 9.16593 6.63894 9.13918 6.64542C9.08622 6.65825 8.97524 6.7019 8.85031 6.75103L8.8503 6.75103L8.8503 6.75103C8.59676 6.85075 8.28578 6.97304 8.28578 6.90615C8.28578 6.85623 8.23876 6.83126 8.21525 6.81878C8.20718 6.8145 8.20189 6.81169 8.2022 6.80984C8.20281 6.8063 8.22401 6.8063 8.28578 6.8063C8.44251 6.8063 9.04199 6.66762 9.14472 6.64385ZM8.92935 5.11749C9.14044 5.01231 8.57614 5.18275 8.31538 5.26247C8.22909 5.28885 8.19991 5.29777 8.20055 5.30136C8.20088 5.3032 8.20899 5.30364 8.22124 5.3043C8.25749 5.30627 8.32998 5.31022 8.34458 5.35796C8.36636 5.42921 8.5637 5.31879 8.75018 5.21446C8.8136 5.17897 8.87577 5.14418 8.92935 5.11749ZM8.31538 5.76368C8.57614 5.68396 9.14044 5.51353 8.92935 5.6187C8.87577 5.64539 8.8136 5.68018 8.75018 5.71567C8.5637 5.82001 8.36636 5.93043 8.34458 5.85917C8.32998 5.81143 8.25749 5.80749 8.22124 5.80552C8.20899 5.80485 8.20088 5.80441 8.20055 5.80258C8.19991 5.79899 8.22909 5.79007 8.31538 5.76368ZM8.92935 4.61627C9.14044 4.5111 8.57614 4.68153 8.31538 4.76126C8.22909 4.78764 8.19991 4.79656 8.20055 4.80015C8.20088 4.80198 8.20899 4.80242 8.22124 4.80309C8.25749 4.80506 8.32998 4.809 8.34458 4.85675C8.36636 4.928 8.5637 4.81758 8.75017 4.71324C8.8136 4.67775 8.87577 4.64297 8.92935 4.61627ZM8.14384 4.32325C8.32372 4.26826 8.71314 4.15128 8.57106 4.23536C8.535 4.2567 8.49348 4.28517 8.45113 4.31422C8.3266 4.39962 8.19482 4.48999 8.17304 4.41874C8.15844 4.37099 8.10617 4.36087 8.08004 4.35581H8.08004C8.07107 4.35407 8.06518 4.35293 8.06495 4.35107C8.0645 4.34751 8.08477 4.34131 8.14384 4.32325ZM8.2586 6.23022C8.05204 6.23022 8.2586 6.06699 8.2586 6.06699H8.36495C8.40146 6.06699 8.43406 6.05195 8.47688 6.03221C8.55878 5.99443 8.67808 5.93941 8.93365 5.93941C9.32281 5.93941 8.46516 6.23022 8.2586 6.23022Z" fill="#409100"/>
</g>
<defs>
<clipPath id="clip0_270_55134">
<rect width="16" height="12" fill="white"/>
</clipPath>
</defs>
</svg>
