<svg xmlns="http://www.w3.org/2000/svg" xmlns:xlink="http://www.w3.org/1999/xlink" width="16" height="12" viewBox="0 0 16 12">
  <defs>
    <rect id="a" width="16" height="12"/>
    <rect id="c" width="16" height="12"/>
    <polygon id="e" points="1.369 .002 .001 2.368 2.759 2.368"/>
    <circle id="g" cx="1.382" cy="1.891" r="1"/>
  </defs>
  <g fill="none" fill-rule="evenodd">
    <mask id="b" fill="white">
      <use xlink:href="#a"/>
    </mask>
    <g mask="url(#b)">
      <mask id="d" fill="white">
        <use xlink:href="#c"/>
      </mask>
      <use fill="#F7FCFF" xlink:href="#c"/>
      <rect width="16" height="4" fill="#0080EC" mask="url(#d)"/>
      <rect width="16" height="4" y="8" fill="#0080EC" mask="url(#d)"/>
      <g mask="url(#d)">
        <g transform="translate(6 4)">
          <path fill="#D0AB00" fill-rule="nonzero" d="M0.28839618,3.03517686 L0.918138891,2.81521685 C1.14382323,3.11424735 1.49061774,3.31674781 1.88558575,3.34978155 L1.88558575,3.99678215 C1.2078831,3.95856023 0.620382493,3.58292105 0.28839618,3.03517686 Z M0.00180535423,2.0857554 C0.000605810473,2.05731981 0,2.02873065 0,2 C0,1.15078203 0.529278368,0.425183639 1.27595547,0.13508447 L1.44288991,0.764959313 C0.975429655,0.976155185 0.6492964,1.44494898 0.645488252,1.9903426 L0.00180535423,2.0857554 Z M2.14815151,3.99459591 L2.14815151,3.34653649 C2.51848833,3.30625119 2.84400445,3.11669069 3.06327253,2.83928235 L3.75672412,2.95678366 C3.43978504,3.53747535 2.84331181,3.94369514 2.14815151,3.99459591 Z M3.99758085,2.09923854 L3.35382299,2.04466399 C3.3543034,2.029835 3.35454545,2.01494577 3.35454545,2 C3.35454545,1.39197795 2.95393631,0.877523185 2.40226959,0.706187254 L2.57605858,0.0842065767 C3.39981815,0.331554977 4,1.0956875 4,2 C4,2.03327557 3.99918736,2.06636134 3.99758085,2.09923854 Z M2.27769188,0.0191230338 L2.17864516,0.657130212 C2.12018935,0.649428623 2.06055877,0.645454545 2,0.645454545 C1.91192995,0.645454545 1.82582299,0.653859565 1.74243752,0.669911222 L1.69615311,0.0229325773 C1.79523209,0.00783129956 1.8967015,0 2,0 C2.09422796,0 2.18693393,0.00651636394 2.27769188,0.0191230338 Z"/>
          <g transform="translate(.618 .473)">
            <mask id="f" fill="white">
              <use xlink:href="#e"/>
            </mask>
            <use fill="#7CDFFF" xlink:href="#e"/>
            <g stroke-width=".5" mask="url(#f)">
              <circle cx="1.382" cy="1.891" r="1.195" stroke="#E31D1C"/>
              <circle cx="1.382" cy="1.891" r="1.195" stroke="#FFD018"/>
              <circle cx="1.382" cy="1.891" r="1.195" stroke="#4EDD00"/>
              <use stroke="#3D58DB" xlink:href="#g"/>
            </g>
            <rect width="3.127" height="1" x="-.109" y="1.636" fill="#3D58DB" mask="url(#f)"/>
            <polygon fill="#97C923" points=".1 2.023 .724 1.403 .915 1.713 1.048 1.335 1.197 1.618 1.353 1.403 1.554 1.618 1.739 1.335 1.897 1.618 2.079 1.403 2.503 1.853 2.579 2.023 .1 2.148" mask="url(#f)"/>
          </g>
        </g>
      </g>
    </g>
  </g>
</svg>
