<svg xmlns="http://www.w3.org/2000/svg" xmlns:xlink="http://www.w3.org/1999/xlink" width="12" height="13" viewBox="0 0 12 13">
  <defs>
    <path id="a" d="M5.05603851e-17,1.741037 L-2.99760217e-15,12 C-3.91102158e-15,12.5522847 0.44771525,13 1,13 L11,13 L6,7 L12,7 L1.50387103,0.877258098 C1.02681911,0.598977815 0.414501382,0.760114059 0.136221099,1.23716597 C0.0470083978,1.39010203 -2.16829394e-17,1.56398236 0,1.741037 Z"/>
  </defs>
  <g fill="none" fill-rule="evenodd">
    <path d="M5.05603851e-17,1.741037 L-2.99760217e-15,12 C-3.91102158e-15,12.5522847 0.44771525,13 1,13 L11,13 L6,7 L12,7 L1.50387103,0.877258098 C1.02681911,0.598977815 0.414501382,0.760114059 0.136221099,1.23716597 C0.0470083978,1.39010203 -2.16829394e-17,1.56398236 0,1.741037 Z"/>
    <mask id="b" fill="white">
      <use xlink:href="#a"/>
    </mask>
    <use fill="#C51918" xlink:href="#a"/>
    <polygon fill="#F7FCFF" points="2.915 11.005 2.302 11.8 2.274 10.797 1.311 11.08 1.878 10.252 .932 9.915 1.878 9.578 1.311 8.75 2.274 9.033 2.302 8.029 2.915 8.825 3.527 8.029 3.556 9.033 4.519 8.75 3.952 9.578 4.897 9.915 3.952 10.252 4.519 11.08 3.556 10.797 3.527 11.8" mask="url(#b)"/>
    <polygon fill="#F7FCFF" points="2.9 5.069 2.58 5.485 2.565 4.961 2.062 5.109 2.358 4.676 1.865 4.5 2.358 4.324 2.062 3.891 2.565 4.039 2.58 3.515 2.9 3.931 3.22 3.515 3.235 4.039 3.738 3.891 3.442 4.324 3.935 4.5 3.442 4.676 3.738 5.109 3.235 4.961 3.22 5.485" mask="url(#b)"/>
    <path fill="#F9FAFA" d="M2.77293801,4.95303883 C2.76849139,6.06619735 3.39998782,6.65969897 3.39998782,6.65969897 C2.67940732,6.77710987 2.19998777,5.87060025 2.19998777,4.96388826 C2.19998777,4.05717627 2.85349624,3.5082072 3.39998782,3.16999817 C3.39998782,3.16999817 2.77738463,3.83988032 2.77293801,4.95303883 Z" mask="url(#b)" transform="rotate(-90 2.8 4.92)"/>
  </g>
</svg>
