<svg xmlns="http://www.w3.org/2000/svg" xmlns:xlink="http://www.w3.org/1999/xlink" width="16" height="12" viewBox="0 0 16 12">
  <defs>
    <path id="np---nepal-a" d="M0,0.809016994 L0,11.5 C3.38176876e-17,11.7761424 0.223857625,12 0.5,12 L11,12 L6,6 L12,6 L0.723606798,0.361803399 C0.476617549,0.238308775 0.176281029,0.338420948 0.0527864045,0.585410197 C0.0180725459,0.654837914 -9.50602045e-18,0.731394447 0,0.809016994 Z"/>
  </defs>
  <g fill="none" fill-rule="evenodd">
    <mask id="np---nepal-b" fill="#fff">
      <use xlink:href="#np---nepal-a"/>
    </mask>
    <use fill="#C51918" xlink:href="#np---nepal-a"/>
    <polygon fill="#F7FCFF" points="2.915 10.005 2.302 10.8 2.274 9.797 1.311 10.08 1.878 9.252 .932 8.915 1.878 8.578 1.311 7.75 2.274 8.033 2.302 7.029 2.915 7.825 3.527 7.029 3.556 8.033 4.519 7.75 3.952 8.578 4.897 8.915 3.952 9.252 4.519 10.08 3.556 9.797 3.527 10.8" mask="url(#np---nepal-b)"/>
    <polygon fill="#F7FCFF" points="2.9 4.069 2.58 4.485 2.565 3.961 2.062 4.109 2.358 3.676 1.865 3.5 2.358 3.324 2.062 2.891 2.565 3.039 2.58 2.515 2.9 2.931 3.22 2.515 3.235 3.039 3.738 2.891 3.442 3.324 3.935 3.5 3.442 3.676 3.738 4.109 3.235 3.961 3.22 4.485" mask="url(#np---nepal-b)"/>
    <path fill="#F9FAFA" d="M2.77293801,3.95303883 C2.76849139,5.06619735 3.39998782,5.65969897 3.39998782,5.65969897 C2.67940732,5.77710987 2.19998777,4.87060025 2.19998777,3.96388826 C2.19998777,3.05717627 2.85349624,2.5082072 3.39998782,2.16999817 C3.39998782,2.16999817 2.77738463,2.83988032 2.77293801,3.95303883 Z" mask="url(#np---nepal-b)" transform="rotate(-90 2.8 3.92)"/>
    <path stroke="#000" stroke-opacity=".1" d="M9.93247919,11.5 L4.93247919,5.5 L9.88196601,5.5 L0.5,0.809016994 L0.5,11.5 L9.93247919,11.5 Z"/>
  </g>
</svg>
