<svg width="16" height="12" viewBox="0 0 16 12" fill="none" xmlns="http://www.w3.org/2000/svg">
<g clip-path="url(#clip0_270_55197)">
<rect width="16" height="12" fill="white"/>
<path fill-rule="evenodd" clip-rule="evenodd" d="M0 0V12H16V0H0Z" fill="#F7FCFF"/>
<mask id="mask0_270_55197" style="mask-type:luminance" maskUnits="userSpaceOnUse" x="0" y="0" width="16" height="12">
<path fill-rule="evenodd" clip-rule="evenodd" d="M0 0V12H16V0H0Z" fill="white"/>
</mask>
<g mask="url(#mask0_270_55197)">
<path fill-rule="evenodd" clip-rule="evenodd" d="M8 0V6H16V0H8Z" fill="#E31D1C"/>
<path fill-rule="evenodd" clip-rule="evenodd" d="M11.5105 9.57486L10.3592 10.2872L10.8062 9.09135L9.82764 8.18601H11.0145L11.5105 6.89246L11.8889 8.18601H13.0776L12.2209 9.09135L12.6404 10.2872L11.5105 9.57486Z" fill="#E31D1C"/>
<path fill-rule="evenodd" clip-rule="evenodd" d="M4.51046 4.1824L3.35924 4.89476L3.80617 3.69889L2.82764 2.79355H4.01453L4.51046 1.5L4.88891 2.79355H6.07764L5.22095 3.69889L5.64039 4.89476L4.51046 4.1824Z" fill="#2E42A5"/>
<path fill-rule="evenodd" clip-rule="evenodd" d="M0 6V12H8V6H0Z" fill="#2E42A5"/>
</g>
</g>
<defs>
<clipPath id="clip0_270_55197">
<rect width="16" height="12" fill="white"/>
</clipPath>
</defs>
</svg>
