<svg width="16" height="12" viewBox="0 0 16 12" fill="none" xmlns="http://www.w3.org/2000/svg">
<g clip-path="url(#clip0_270_55086)">
<rect width="16" height="12" fill="white"/>
<path fill-rule="evenodd" clip-rule="evenodd" d="M4 0H12.5V12H4V0Z" fill="#F7FCFF"/>
<path fill-rule="evenodd" clip-rule="evenodd" d="M12 0H16V12H12V0Z" fill="#F50101"/>
<path fill-rule="evenodd" clip-rule="evenodd" d="M0 0H4V12H0V0Z" fill="#F50101"/>
<path d="M7.87071 4.37257L7.88746 4.55355C7.38824 4.60404 7.11853 4.36011 7.11853 3.85384C7.11853 3.35148 7.38241 3.08446 7.87856 3.0813L7.87962 3.26311C7.47763 3.26567 7.29244 3.45307 7.29244 3.85384C7.29244 4.2507 7.4718 4.41292 7.87071 4.37257Z" fill="#A2BB6A"/>
<path d="M8.09181 4.37257L8.07507 4.55355C8.57429 4.60404 8.84399 4.36011 8.84399 3.85384C8.84399 3.35148 8.58012 3.08446 8.08397 3.0813L8.08291 3.26311C8.48489 3.26567 8.67008 3.45307 8.67008 3.85384C8.67008 4.2507 8.49072 4.41292 8.09181 4.37257Z" fill="#A2BB6A"/>
<mask id="path-6-outside-1_270_55086" maskUnits="userSpaceOnUse" x="5.5885" y="3.44073" width="5" height="6" fill="black">
<rect fill="white" x="5.5885" y="3.44073" width="5" height="6"/>
<path fill-rule="evenodd" clip-rule="evenodd" d="M8.0434 4.45271C8.05671 4.44516 8.06414 4.44073 8.06414 4.44073V4.4643C8.1604 4.51741 8.40276 4.64185 8.56036 4.64185C8.7607 4.64185 9.03301 4.44073 9.03301 4.44073L9.48866 5.0841C9.48866 5.0841 9.1818 5.72725 9.4166 6.51316C9.6514 7.29906 9.40417 7.90505 8.36001 7.97234C8.36001 7.97234 8.15428 8.01143 8.06414 8.07373V8.13129C8.06414 8.11697 8.05645 8.10335 8.0434 8.09055C8.03035 8.10335 8.02266 8.11697 8.02266 8.13129V8.07373C7.93253 8.01143 7.72679 7.97234 7.72679 7.97234C6.68263 7.90505 6.4354 7.29906 6.6702 6.51316C6.905 5.72725 6.59814 5.0841 6.59814 5.0841L7.05379 4.44073C7.05379 4.44073 7.3261 4.64185 7.52644 4.64185C7.68404 4.64185 7.9264 4.51741 8.02266 4.4643V4.44073C8.02266 4.44073 8.03009 4.44516 8.0434 4.45271Z"/>
</mask>
<path fill-rule="evenodd" clip-rule="evenodd" d="M8.0434 4.45271C8.05671 4.44516 8.06414 4.44073 8.06414 4.44073V4.4643C8.1604 4.51741 8.40276 4.64185 8.56036 4.64185C8.7607 4.64185 9.03301 4.44073 9.03301 4.44073L9.48866 5.0841C9.48866 5.0841 9.1818 5.72725 9.4166 6.51316C9.6514 7.29906 9.40417 7.90505 8.36001 7.97234C8.36001 7.97234 8.15428 8.01143 8.06414 8.07373V8.13129C8.06414 8.11697 8.05645 8.10335 8.0434 8.09055C8.03035 8.10335 8.02266 8.11697 8.02266 8.13129V8.07373C7.93253 8.01143 7.72679 7.97234 7.72679 7.97234C6.68263 7.90505 6.4354 7.29906 6.6702 6.51316C6.905 5.72725 6.59814 5.0841 6.59814 5.0841L7.05379 4.44073C7.05379 4.44073 7.3261 4.64185 7.52644 4.64185C7.68404 4.64185 7.9264 4.51741 8.02266 4.4643V4.44073C8.02266 4.44073 8.03009 4.44516 8.0434 4.45271Z" fill="#E8AA00"/>
<path d="M8.06414 4.44073H8.56414V3.56056L7.80811 4.01126L8.06414 4.44073ZM8.0434 4.45271L7.79684 4.88769L8.0434 5.02744L8.28996 4.88769L8.0434 4.45271ZM8.06414 4.4643H7.56414V4.75949L7.8226 4.90209L8.06414 4.4643ZM9.03301 4.44073L9.44105 4.15176L9.14626 3.73552L8.73598 4.03853L9.03301 4.44073ZM9.48866 5.0841L9.93992 5.29941L10.0663 5.03458L9.89669 4.79513L9.48866 5.0841ZM9.4166 6.51316L8.93752 6.65629L9.4166 6.51316ZM8.36001 7.97234L8.32786 7.47337L8.29703 7.47536L8.26668 7.48112L8.36001 7.97234ZM8.06414 8.07373L7.77985 7.66242L7.56414 7.81151V8.07373H8.06414ZM8.0434 8.09055L8.39351 7.73359L8.0434 7.3902L7.69329 7.73359L8.0434 8.09055ZM8.02266 8.07373H8.52266V7.81151L8.30695 7.66242L8.02266 8.07373ZM7.72679 7.97234L7.82013 7.48112L7.78977 7.47536L7.75894 7.47337L7.72679 7.97234ZM6.59814 5.0841L6.19011 4.79513L6.02052 5.03458L6.14688 5.29941L6.59814 5.0841ZM7.05379 4.44073L7.35083 4.03853L6.94054 3.73552L6.64575 4.15176L7.05379 4.44073ZM8.02266 4.4643L8.2642 4.90209L8.52266 4.75949V4.4643H8.02266ZM8.02266 4.44073L8.27869 4.01126L7.52266 3.56056V4.44073H8.02266ZM8.06414 4.44073C7.80811 4.01126 7.80812 4.01126 7.80812 4.01125C7.80813 4.01125 7.80813 4.01124 7.80814 4.01124C7.80815 4.01123 7.80816 4.01123 7.80817 4.01122C7.80819 4.01121 7.80821 4.0112 7.80823 4.01119C7.80827 4.01116 7.80831 4.01114 7.80835 4.01112C7.80842 4.01107 7.80849 4.01103 7.80854 4.011C7.80866 4.01093 7.80875 4.01088 7.80882 4.01084C7.80895 4.01076 7.80897 4.01075 7.80888 4.0108C7.80872 4.0109 7.80813 4.01124 7.80716 4.01181C7.80521 4.01294 7.80171 4.01497 7.79684 4.01772L8.28996 4.88769C8.2984 4.8829 8.30527 4.87894 8.31036 4.87598C8.3129 4.8745 8.31501 4.87326 8.31665 4.87229C8.31747 4.87181 8.31818 4.87139 8.31877 4.87104C8.31906 4.87087 8.31932 4.87071 8.31956 4.87057C8.31967 4.8705 8.31978 4.87044 8.31988 4.87038C8.31993 4.87035 8.31998 4.87032 8.32003 4.87029C8.32005 4.87028 8.32008 4.87026 8.3201 4.87025C8.32011 4.87024 8.32012 4.87024 8.32013 4.87023C8.32014 4.87023 8.32015 4.87022 8.32015 4.87022C8.32016 4.87021 8.32017 4.87021 8.06414 4.44073ZM8.56414 4.4643V4.44073H7.56414V4.4643H8.56414ZM7.8226 4.90209C7.87934 4.93339 7.98274 4.98784 8.10002 5.0358C8.20137 5.07724 8.37802 5.14185 8.56036 5.14185V4.14185C8.58129 4.14185 8.58339 4.1451 8.55993 4.13878C8.53953 4.13329 8.51193 4.12386 8.47848 4.11018C8.41111 4.08263 8.34519 4.04831 8.30567 4.02651L7.8226 4.90209ZM8.56036 5.14185C8.7943 5.14185 9.00742 5.0363 9.10936 4.98126C9.17173 4.94758 9.22471 4.91449 9.26213 4.88987C9.28108 4.87741 9.29664 4.86672 9.30811 4.85867C9.31385 4.85464 9.31861 4.85125 9.32228 4.8486C9.32412 4.84727 9.3257 4.84613 9.327 4.84518C9.32764 4.84471 9.32822 4.84428 9.32873 4.84391C9.32899 4.84372 9.32923 4.84355 9.32945 4.84339C9.32956 4.84331 9.32966 4.84323 9.32976 4.84315C9.32981 4.84312 9.32988 4.84306 9.32991 4.84304C9.32998 4.84299 9.33005 4.84294 9.03301 4.44073C8.73598 4.03853 8.73604 4.03848 8.73611 4.03843C8.73613 4.03841 8.7362 4.03837 8.73624 4.03833C8.73632 4.03827 8.7364 4.03821 8.73648 4.03816C8.73663 4.03804 8.73677 4.03794 8.7369 4.03785C8.73714 4.03767 8.73733 4.03753 8.73746 4.03744C8.73771 4.03726 8.73773 4.03724 8.73753 4.03739C8.73712 4.03768 8.73583 4.03861 8.73374 4.04008C8.72952 4.04303 8.72225 4.04805 8.71254 4.05444C8.69264 4.06753 8.66501 4.08472 8.63427 4.10132C8.60253 4.11846 8.57451 4.13114 8.5531 4.13865C8.52808 4.14744 8.53286 4.14185 8.56036 4.14185V5.14185ZM8.62498 4.72971L9.08062 5.37308L9.89669 4.79513L9.44105 4.15176L8.62498 4.72971ZM9.48866 5.0841C9.03739 4.86879 9.03731 4.86897 9.03723 4.86914C9.0372 4.8692 9.03711 4.86938 9.03705 4.8695C9.03693 4.86975 9.03681 4.87001 9.03669 4.87028C9.03643 4.87082 9.03616 4.87139 9.03587 4.87201C9.03529 4.87325 9.03463 4.87466 9.03391 4.87622C9.03246 4.87936 9.03073 4.88314 9.02876 4.88757C9.0248 4.89641 9.01984 4.90783 9.01409 4.92169C9.00261 4.94937 8.98792 4.98697 8.97184 5.03345C8.93978 5.12615 8.90166 5.25581 8.87273 5.41398C8.81509 5.72923 8.79204 6.16935 8.93752 6.65629L9.89567 6.37002C9.80635 6.07105 9.81934 5.79665 9.85642 5.59385C9.87487 5.49299 9.89878 5.41275 9.91692 5.3603C9.92594 5.33421 9.93339 5.31542 9.93777 5.30486C9.93995 5.2996 9.94135 5.29643 9.94178 5.29547C9.942 5.29499 9.94196 5.29507 9.94166 5.29572C9.94151 5.29605 9.94129 5.29652 9.94101 5.29713C9.94086 5.29744 9.9407 5.29778 9.94052 5.29816C9.94043 5.29835 9.94034 5.29855 9.94024 5.29876C9.94019 5.29886 9.94011 5.29903 9.94008 5.29908C9.94001 5.29924 9.93992 5.29941 9.48866 5.0841ZM8.93752 6.65629C9.0363 6.98689 8.99687 7.16334 8.94512 7.2453C8.90197 7.31365 8.76735 7.44505 8.32786 7.47337L8.39217 8.4713C8.99683 8.43233 9.5079 8.22709 9.79071 7.77915C10.0649 7.34482 10.0317 6.82533 9.89567 6.37002L8.93752 6.65629ZM8.36001 7.97234C8.26668 7.48112 8.26662 7.48113 8.26657 7.48114C8.26655 7.48115 8.2665 7.48116 8.26646 7.48117C8.26639 7.48118 8.26631 7.48119 8.26623 7.48121C8.26607 7.48124 8.26589 7.48127 8.2657 7.48131C8.26533 7.48138 8.2649 7.48147 8.26442 7.48156C8.26346 7.48174 8.26229 7.48197 8.26093 7.48224C8.25821 7.48278 8.2547 7.48348 8.25048 7.48434C8.24206 7.48607 8.23071 7.48847 8.21711 7.49152C8.19026 7.49754 8.1529 7.50647 8.11103 7.5182C8.04832 7.53576 7.90065 7.57892 7.77985 7.66242L8.34843 8.48504C8.32462 8.5015 8.31325 8.50397 8.32957 8.49763C8.34149 8.49299 8.35908 8.48721 8.38073 8.48114C8.40156 8.47531 8.42127 8.47057 8.43581 8.46731C8.4429 8.46572 8.44833 8.46458 8.45152 8.46393C8.4531 8.4636 8.4541 8.46341 8.45443 8.46334C8.4546 8.46331 8.4546 8.46331 8.45443 8.46334C8.45434 8.46336 8.4542 8.46338 8.45403 8.46342C8.45394 8.46343 8.45384 8.46345 8.45372 8.46348C8.45367 8.46349 8.45361 8.4635 8.45355 8.46351C8.45352 8.46352 8.45347 8.46352 8.45345 8.46353C8.4534 8.46354 8.45335 8.46355 8.36001 7.97234ZM8.56414 8.13129V8.07373H7.56414V8.13129H8.56414ZM7.69329 8.44752C7.6583 8.4132 7.56414 8.30603 7.56414 8.13129H8.56414C8.56414 7.92791 8.4546 7.79351 8.39351 7.73359L7.69329 8.44752ZM7.69329 7.73359C7.6322 7.79351 7.52266 7.92791 7.52266 8.13129H8.52266C8.52266 8.30603 8.4285 8.4132 8.39351 8.44752L7.69329 7.73359ZM8.52266 8.13129V8.07373H7.52266V8.13129H8.52266ZM7.72679 7.97234C7.63345 8.46355 7.6334 8.46354 7.63335 8.46353C7.63333 8.46352 7.63328 8.46352 7.63325 8.46351C7.63319 8.4635 7.63313 8.46349 7.63308 8.46348C7.63296 8.46345 7.63286 8.46343 7.63277 8.46342C7.6326 8.46338 7.63246 8.46336 7.63238 8.46334C7.6322 8.46331 7.6322 8.46331 7.63237 8.46334C7.63271 8.46341 7.6337 8.4636 7.63529 8.46393C7.63847 8.46458 7.6439 8.46572 7.65099 8.46731C7.66554 8.47057 7.68524 8.47531 7.70608 8.48114C7.72772 8.48721 7.74531 8.49299 7.75724 8.49763C7.77355 8.50397 7.76218 8.5015 7.73837 8.48504L8.30695 7.66242C8.18615 7.57892 8.03848 7.53576 7.97577 7.5182C7.9339 7.50647 7.89654 7.49754 7.86969 7.49152C7.85609 7.48847 7.84474 7.48607 7.83632 7.48434C7.8321 7.48348 7.82859 7.48278 7.82587 7.48224C7.82451 7.48197 7.82334 7.48174 7.82238 7.48156C7.8219 7.48147 7.82147 7.48138 7.8211 7.48131C7.82091 7.48127 7.82073 7.48124 7.82057 7.48121C7.82049 7.48119 7.82041 7.48118 7.82034 7.48117C7.8203 7.48116 7.82025 7.48115 7.82023 7.48114C7.82018 7.48113 7.82013 7.48112 7.72679 7.97234ZM6.19113 6.37002C6.0551 6.82533 6.02189 7.34482 6.2961 7.77915C6.5789 8.22709 7.08997 8.43233 7.69463 8.4713L7.75894 7.47337C7.31945 7.44505 7.18483 7.31365 7.14168 7.2453C7.08993 7.16334 7.05051 6.98689 7.14928 6.65629L6.19113 6.37002ZM6.59814 5.0841C6.14688 5.29941 6.1468 5.29924 6.14672 5.29908C6.14669 5.29903 6.14661 5.29886 6.14656 5.29876C6.14647 5.29855 6.14637 5.29835 6.14628 5.29816C6.1461 5.29778 6.14594 5.29744 6.14579 5.29713C6.14551 5.29652 6.14529 5.29605 6.14514 5.29572C6.14484 5.29507 6.1448 5.29499 6.14502 5.29547C6.14545 5.29643 6.14685 5.2996 6.14903 5.30486C6.15341 5.31542 6.16086 5.33421 6.16988 5.3603C6.18802 5.41275 6.21194 5.49299 6.23038 5.59385C6.26746 5.79665 6.28045 6.07105 6.19113 6.37002L7.14928 6.65629C7.29476 6.16935 7.27171 5.72923 7.21407 5.41398C7.18515 5.25581 7.14702 5.12615 7.11496 5.03345C7.09888 4.98697 7.08419 4.94937 7.07271 4.92169C7.06696 4.90783 7.062 4.89641 7.05804 4.88757C7.05607 4.88314 7.05434 4.87936 7.05289 4.87622C7.05217 4.87466 7.05152 4.87325 7.05093 4.87201C7.05064 4.87139 7.05037 4.87082 7.05012 4.87028C7.04999 4.87001 7.04987 4.86975 7.04975 4.8695C7.04969 4.86938 7.0496 4.8692 7.04958 4.86914C7.04949 4.86897 7.04941 4.86879 6.59814 5.0841ZM6.64575 4.15176L6.19011 4.79513L7.00618 5.37308L7.46182 4.72971L6.64575 4.15176ZM7.52644 4.14185C7.55395 4.14185 7.55873 4.14744 7.5337 4.13865C7.51229 4.13114 7.48427 4.11846 7.45253 4.10132C7.42179 4.08472 7.39416 4.06753 7.37427 4.05444C7.36455 4.04805 7.35728 4.04303 7.35306 4.04008C7.35097 4.03861 7.34968 4.03768 7.34927 4.03739C7.34907 4.03724 7.34909 4.03726 7.34934 4.03744C7.34947 4.03754 7.34966 4.03767 7.3499 4.03785C7.35003 4.03794 7.35017 4.03804 7.35032 4.03816C7.3504 4.03821 7.35048 4.03827 7.35056 4.03834C7.3506 4.03837 7.35067 4.03842 7.35069 4.03843C7.35076 4.03848 7.35083 4.03853 7.05379 4.44073C6.75675 4.84294 6.75682 4.84299 6.75689 4.84304C6.75692 4.84306 6.75699 4.84312 6.75704 4.84315C6.75714 4.84323 6.75725 4.84331 6.75736 4.84339C6.75758 4.84355 6.75781 4.84372 6.75807 4.84391C6.75858 4.84428 6.75916 4.84471 6.75981 4.84518C6.7611 4.84613 6.76268 4.84727 6.76452 4.8486C6.76819 4.85125 6.77295 4.85464 6.7787 4.85867C6.79016 4.86672 6.80572 4.87741 6.82467 4.88987C6.86209 4.91449 6.91507 4.94758 6.97744 4.98126C7.07938 5.0363 7.2925 5.14185 7.52644 5.14185V4.14185ZM7.78113 4.02651C7.74161 4.04831 7.67569 4.08263 7.60832 4.11018C7.57487 4.12386 7.54727 4.13329 7.52687 4.13878C7.50341 4.1451 7.50551 4.14185 7.52644 4.14185V5.14185C7.70878 5.14185 7.88543 5.07724 7.98678 5.0358C8.10406 4.98784 8.20746 4.93339 8.2642 4.90209L7.78113 4.02651ZM8.52266 4.4643V4.44073H7.52266V4.4643H8.52266ZM8.02266 4.44073C7.76663 4.87021 7.76664 4.87021 7.76665 4.87022C7.76665 4.87022 7.76666 4.87023 7.76667 4.87023C7.76668 4.87024 7.76669 4.87024 7.7667 4.87025C7.76672 4.87026 7.76675 4.87028 7.76677 4.87029C7.76682 4.87032 7.76687 4.87035 7.76692 4.87038C7.76702 4.87044 7.76713 4.8705 7.76724 4.87057C7.76748 4.87071 7.76774 4.87087 7.76804 4.87104C7.76862 4.87139 7.76933 4.87181 7.77015 4.87229C7.77179 4.87326 7.7739 4.8745 7.77644 4.87598C7.78153 4.87894 7.7884 4.8829 7.79684 4.88769L8.28996 4.01772C8.28509 4.01497 8.28159 4.01294 8.27964 4.01181C8.27867 4.01124 8.27808 4.0109 8.27792 4.0108C8.27783 4.01075 8.27785 4.01076 8.27798 4.01084C8.27805 4.01088 8.27814 4.01093 8.27826 4.011C8.27832 4.01103 8.27838 4.01107 8.27845 4.01112C8.27849 4.01114 8.27853 4.01116 8.27857 4.01119C8.27859 4.0112 8.27861 4.01121 8.27863 4.01122C8.27864 4.01123 8.27865 4.01123 8.27866 4.01124C8.27867 4.01124 8.27867 4.01125 8.27868 4.01125C8.27869 4.01126 8.27869 4.01126 8.02266 4.44073Z" fill="#E8AA00" mask="url(#path-6-outside-1_270_55086)"/>
<mask id="mask0_270_55086" style="mask-type:luminance" maskUnits="userSpaceOnUse" x="6" y="3" width="5" height="6">
<mask id="path-8-outside-2_270_55086" maskUnits="userSpaceOnUse" x="5.5885" y="3.44073" width="5" height="6" fill="black">
<rect fill="white" x="5.5885" y="3.44073" width="5" height="6"/>
<path fill-rule="evenodd" clip-rule="evenodd" d="M8.0434 4.45271C8.05671 4.44516 8.06414 4.44073 8.06414 4.44073V4.4643C8.1604 4.51741 8.40276 4.64185 8.56036 4.64185C8.7607 4.64185 9.03301 4.44073 9.03301 4.44073L9.48866 5.0841C9.48866 5.0841 9.1818 5.72725 9.4166 6.51316C9.6514 7.29906 9.40417 7.90505 8.36001 7.97234C8.36001 7.97234 8.15428 8.01143 8.06414 8.07373V8.13129C8.06414 8.11697 8.05645 8.10335 8.0434 8.09055C8.03035 8.10335 8.02266 8.11697 8.02266 8.13129V8.07373C7.93253 8.01143 7.72679 7.97234 7.72679 7.97234C6.68263 7.90505 6.4354 7.29906 6.6702 6.51316C6.905 5.72725 6.59814 5.0841 6.59814 5.0841L7.05379 4.44073C7.05379 4.44073 7.3261 4.64185 7.52644 4.64185C7.68404 4.64185 7.9264 4.51741 8.02266 4.4643V4.44073C8.02266 4.44073 8.03009 4.44516 8.0434 4.45271Z"/>
</mask>
<path fill-rule="evenodd" clip-rule="evenodd" d="M8.0434 4.45271C8.05671 4.44516 8.06414 4.44073 8.06414 4.44073V4.4643C8.1604 4.51741 8.40276 4.64185 8.56036 4.64185C8.7607 4.64185 9.03301 4.44073 9.03301 4.44073L9.48866 5.0841C9.48866 5.0841 9.1818 5.72725 9.4166 6.51316C9.6514 7.29906 9.40417 7.90505 8.36001 7.97234C8.36001 7.97234 8.15428 8.01143 8.06414 8.07373V8.13129C8.06414 8.11697 8.05645 8.10335 8.0434 8.09055C8.03035 8.10335 8.02266 8.11697 8.02266 8.13129V8.07373C7.93253 8.01143 7.72679 7.97234 7.72679 7.97234C6.68263 7.90505 6.4354 7.29906 6.6702 6.51316C6.905 5.72725 6.59814 5.0841 6.59814 5.0841L7.05379 4.44073C7.05379 4.44073 7.3261 4.64185 7.52644 4.64185C7.68404 4.64185 7.9264 4.51741 8.02266 4.4643V4.44073C8.02266 4.44073 8.03009 4.44516 8.0434 4.45271Z" fill="white"/>
<path d="M8.06414 4.44073H8.56414V3.56056L7.80811 4.01126L8.06414 4.44073ZM8.0434 4.45271L7.79684 4.88769L8.0434 5.02744L8.28996 4.88769L8.0434 4.45271ZM8.06414 4.4643H7.56414V4.75949L7.8226 4.90209L8.06414 4.4643ZM9.03301 4.44073L9.44105 4.15176L9.14626 3.73552L8.73598 4.03853L9.03301 4.44073ZM9.48866 5.0841L9.93992 5.29941L10.0663 5.03458L9.89669 4.79513L9.48866 5.0841ZM9.4166 6.51316L8.93752 6.65629L9.4166 6.51316ZM8.36001 7.97234L8.32786 7.47337L8.29703 7.47536L8.26668 7.48112L8.36001 7.97234ZM8.06414 8.07373L7.77985 7.66242L7.56414 7.81151V8.07373H8.06414ZM8.0434 8.09055L8.39351 7.73359L8.0434 7.3902L7.69329 7.73359L8.0434 8.09055ZM8.02266 8.07373H8.52266V7.81151L8.30695 7.66242L8.02266 8.07373ZM7.72679 7.97234L7.82013 7.48112L7.78977 7.47536L7.75894 7.47337L7.72679 7.97234ZM6.59814 5.0841L6.19011 4.79513L6.02052 5.03458L6.14688 5.29941L6.59814 5.0841ZM7.05379 4.44073L7.35083 4.03853L6.94054 3.73552L6.64575 4.15176L7.05379 4.44073ZM8.02266 4.4643L8.2642 4.90209L8.52266 4.75949V4.4643H8.02266ZM8.02266 4.44073L8.27869 4.01126L7.52266 3.56056V4.44073H8.02266ZM8.06414 4.44073C7.80811 4.01126 7.80812 4.01126 7.80812 4.01125C7.80813 4.01125 7.80813 4.01124 7.80814 4.01124C7.80815 4.01123 7.80816 4.01123 7.80817 4.01122C7.80819 4.01121 7.80821 4.0112 7.80823 4.01119C7.80827 4.01116 7.80831 4.01114 7.80835 4.01112C7.80842 4.01107 7.80849 4.01103 7.80854 4.011C7.80866 4.01093 7.80875 4.01088 7.80882 4.01084C7.80895 4.01076 7.80897 4.01075 7.80888 4.0108C7.80872 4.0109 7.80813 4.01124 7.80716 4.01181C7.80521 4.01294 7.80171 4.01497 7.79684 4.01772L8.28996 4.88769C8.2984 4.8829 8.30527 4.87894 8.31036 4.87598C8.3129 4.8745 8.31501 4.87326 8.31665 4.87229C8.31747 4.87181 8.31818 4.87139 8.31877 4.87104C8.31906 4.87087 8.31932 4.87071 8.31956 4.87057C8.31967 4.8705 8.31978 4.87044 8.31988 4.87038C8.31993 4.87035 8.31998 4.87032 8.32003 4.87029C8.32005 4.87028 8.32008 4.87026 8.3201 4.87025C8.32011 4.87024 8.32012 4.87024 8.32013 4.87023C8.32014 4.87023 8.32015 4.87022 8.32015 4.87022C8.32016 4.87021 8.32017 4.87021 8.06414 4.44073ZM8.56414 4.4643V4.44073H7.56414V4.4643H8.56414ZM7.8226 4.90209C7.87934 4.93339 7.98274 4.98784 8.10002 5.0358C8.20137 5.07724 8.37802 5.14185 8.56036 5.14185V4.14185C8.58129 4.14185 8.58339 4.1451 8.55993 4.13878C8.53953 4.13329 8.51193 4.12386 8.47848 4.11018C8.41111 4.08263 8.34519 4.04831 8.30567 4.02651L7.8226 4.90209ZM8.56036 5.14185C8.7943 5.14185 9.00742 5.0363 9.10936 4.98126C9.17173 4.94758 9.22471 4.91449 9.26213 4.88987C9.28108 4.87741 9.29664 4.86672 9.30811 4.85867C9.31385 4.85464 9.31861 4.85125 9.32228 4.8486C9.32412 4.84727 9.3257 4.84613 9.327 4.84518C9.32764 4.84471 9.32822 4.84428 9.32873 4.84391C9.32899 4.84372 9.32923 4.84355 9.32945 4.84339C9.32956 4.84331 9.32966 4.84323 9.32976 4.84315C9.32981 4.84312 9.32988 4.84306 9.32991 4.84304C9.32998 4.84299 9.33005 4.84294 9.03301 4.44073C8.73598 4.03853 8.73604 4.03848 8.73611 4.03843C8.73613 4.03841 8.7362 4.03837 8.73624 4.03833C8.73632 4.03827 8.7364 4.03821 8.73648 4.03816C8.73663 4.03804 8.73677 4.03794 8.7369 4.03785C8.73714 4.03767 8.73733 4.03753 8.73746 4.03744C8.73771 4.03726 8.73773 4.03724 8.73753 4.03739C8.73712 4.03768 8.73583 4.03861 8.73374 4.04008C8.72952 4.04303 8.72225 4.04805 8.71254 4.05444C8.69264 4.06753 8.66501 4.08472 8.63427 4.10132C8.60253 4.11846 8.57451 4.13114 8.5531 4.13865C8.52808 4.14744 8.53286 4.14185 8.56036 4.14185V5.14185ZM8.62498 4.72971L9.08062 5.37308L9.89669 4.79513L9.44105 4.15176L8.62498 4.72971ZM9.48866 5.0841C9.03739 4.86879 9.03731 4.86897 9.03723 4.86914C9.0372 4.8692 9.03711 4.86938 9.03705 4.8695C9.03693 4.86975 9.03681 4.87001 9.03669 4.87028C9.03643 4.87082 9.03616 4.87139 9.03587 4.87201C9.03529 4.87325 9.03463 4.87466 9.03391 4.87622C9.03246 4.87936 9.03073 4.88314 9.02876 4.88757C9.0248 4.89641 9.01984 4.90783 9.01409 4.92169C9.00261 4.94937 8.98792 4.98697 8.97184 5.03345C8.93978 5.12615 8.90166 5.25581 8.87273 5.41398C8.81509 5.72923 8.79204 6.16935 8.93752 6.65629L9.89567 6.37002C9.80635 6.07105 9.81934 5.79665 9.85642 5.59385C9.87487 5.49299 9.89878 5.41275 9.91692 5.3603C9.92594 5.33421 9.93339 5.31542 9.93777 5.30486C9.93995 5.2996 9.94135 5.29643 9.94178 5.29547C9.942 5.29499 9.94196 5.29507 9.94166 5.29572C9.94151 5.29605 9.94129 5.29652 9.94101 5.29713C9.94086 5.29744 9.9407 5.29778 9.94052 5.29816C9.94043 5.29835 9.94034 5.29855 9.94024 5.29876C9.94019 5.29886 9.94011 5.29903 9.94008 5.29908C9.94001 5.29924 9.93992 5.29941 9.48866 5.0841ZM8.93752 6.65629C9.0363 6.98689 8.99687 7.16334 8.94512 7.2453C8.90197 7.31365 8.76735 7.44505 8.32786 7.47337L8.39217 8.4713C8.99683 8.43233 9.5079 8.22709 9.79071 7.77915C10.0649 7.34482 10.0317 6.82533 9.89567 6.37002L8.93752 6.65629ZM8.36001 7.97234C8.26668 7.48112 8.26662 7.48113 8.26657 7.48114C8.26655 7.48115 8.2665 7.48116 8.26646 7.48117C8.26639 7.48118 8.26631 7.48119 8.26623 7.48121C8.26607 7.48124 8.26589 7.48127 8.2657 7.48131C8.26533 7.48138 8.2649 7.48147 8.26442 7.48156C8.26346 7.48174 8.26229 7.48197 8.26093 7.48224C8.25821 7.48278 8.2547 7.48348 8.25048 7.48434C8.24206 7.48607 8.23071 7.48847 8.21711 7.49152C8.19026 7.49754 8.1529 7.50647 8.11103 7.5182C8.04832 7.53576 7.90065 7.57892 7.77985 7.66242L8.34843 8.48504C8.32462 8.5015 8.31325 8.50397 8.32957 8.49763C8.34149 8.49299 8.35908 8.48721 8.38073 8.48114C8.40156 8.47531 8.42127 8.47057 8.43581 8.46731C8.4429 8.46572 8.44833 8.46458 8.45152 8.46393C8.4531 8.4636 8.4541 8.46341 8.45443 8.46334C8.4546 8.46331 8.4546 8.46331 8.45443 8.46334C8.45434 8.46336 8.4542 8.46338 8.45403 8.46342C8.45394 8.46343 8.45384 8.46345 8.45372 8.46348C8.45367 8.46349 8.45361 8.4635 8.45355 8.46351C8.45352 8.46352 8.45347 8.46352 8.45345 8.46353C8.4534 8.46354 8.45335 8.46355 8.36001 7.97234ZM8.56414 8.13129V8.07373H7.56414V8.13129H8.56414ZM7.69329 8.44752C7.6583 8.4132 7.56414 8.30603 7.56414 8.13129H8.56414C8.56414 7.92791 8.4546 7.79351 8.39351 7.73359L7.69329 8.44752ZM7.69329 7.73359C7.6322 7.79351 7.52266 7.92791 7.52266 8.13129H8.52266C8.52266 8.30603 8.4285 8.4132 8.39351 8.44752L7.69329 7.73359ZM8.52266 8.13129V8.07373H7.52266V8.13129H8.52266ZM7.72679 7.97234C7.63345 8.46355 7.6334 8.46354 7.63335 8.46353C7.63333 8.46352 7.63328 8.46352 7.63325 8.46351C7.63319 8.4635 7.63313 8.46349 7.63308 8.46348C7.63296 8.46345 7.63286 8.46343 7.63277 8.46342C7.6326 8.46338 7.63246 8.46336 7.63238 8.46334C7.6322 8.46331 7.6322 8.46331 7.63237 8.46334C7.63271 8.46341 7.6337 8.4636 7.63529 8.46393C7.63847 8.46458 7.6439 8.46572 7.65099 8.46731C7.66554 8.47057 7.68524 8.47531 7.70608 8.48114C7.72772 8.48721 7.74531 8.49299 7.75724 8.49763C7.77355 8.50397 7.76218 8.5015 7.73837 8.48504L8.30695 7.66242C8.18615 7.57892 8.03848 7.53576 7.97577 7.5182C7.9339 7.50647 7.89654 7.49754 7.86969 7.49152C7.85609 7.48847 7.84474 7.48607 7.83632 7.48434C7.8321 7.48348 7.82859 7.48278 7.82587 7.48224C7.82451 7.48197 7.82334 7.48174 7.82238 7.48156C7.8219 7.48147 7.82147 7.48138 7.8211 7.48131C7.82091 7.48127 7.82073 7.48124 7.82057 7.48121C7.82049 7.48119 7.82041 7.48118 7.82034 7.48117C7.8203 7.48116 7.82025 7.48115 7.82023 7.48114C7.82018 7.48113 7.82013 7.48112 7.72679 7.97234ZM6.19113 6.37002C6.0551 6.82533 6.02189 7.34482 6.2961 7.77915C6.5789 8.22709 7.08997 8.43233 7.69463 8.4713L7.75894 7.47337C7.31945 7.44505 7.18483 7.31365 7.14168 7.2453C7.08993 7.16334 7.05051 6.98689 7.14928 6.65629L6.19113 6.37002ZM6.59814 5.0841C6.14688 5.29941 6.1468 5.29924 6.14672 5.29908C6.14669 5.29903 6.14661 5.29886 6.14656 5.29876C6.14647 5.29855 6.14637 5.29835 6.14628 5.29816C6.1461 5.29778 6.14594 5.29744 6.14579 5.29713C6.14551 5.29652 6.14529 5.29605 6.14514 5.29572C6.14484 5.29507 6.1448 5.29499 6.14502 5.29547C6.14545 5.29643 6.14685 5.2996 6.14903 5.30486C6.15341 5.31542 6.16086 5.33421 6.16988 5.3603C6.18802 5.41275 6.21194 5.49299 6.23038 5.59385C6.26746 5.79665 6.28045 6.07105 6.19113 6.37002L7.14928 6.65629C7.29476 6.16935 7.27171 5.72923 7.21407 5.41398C7.18515 5.25581 7.14702 5.12615 7.11496 5.03345C7.09888 4.98697 7.08419 4.94937 7.07271 4.92169C7.06696 4.90783 7.062 4.89641 7.05804 4.88757C7.05607 4.88314 7.05434 4.87936 7.05289 4.87622C7.05217 4.87466 7.05152 4.87325 7.05093 4.87201C7.05064 4.87139 7.05037 4.87082 7.05012 4.87028C7.04999 4.87001 7.04987 4.86975 7.04975 4.8695C7.04969 4.86938 7.0496 4.8692 7.04958 4.86914C7.04949 4.86897 7.04941 4.86879 6.59814 5.0841ZM6.64575 4.15176L6.19011 4.79513L7.00618 5.37308L7.46182 4.72971L6.64575 4.15176ZM7.52644 4.14185C7.55395 4.14185 7.55873 4.14744 7.5337 4.13865C7.51229 4.13114 7.48427 4.11846 7.45253 4.10132C7.42179 4.08472 7.39416 4.06753 7.37427 4.05444C7.36455 4.04805 7.35728 4.04303 7.35306 4.04008C7.35097 4.03861 7.34968 4.03768 7.34927 4.03739C7.34907 4.03724 7.34909 4.03726 7.34934 4.03744C7.34947 4.03754 7.34966 4.03767 7.3499 4.03785C7.35003 4.03794 7.35017 4.03804 7.35032 4.03816C7.3504 4.03821 7.35048 4.03827 7.35056 4.03834C7.3506 4.03837 7.35067 4.03842 7.35069 4.03843C7.35076 4.03848 7.35083 4.03853 7.05379 4.44073C6.75675 4.84294 6.75682 4.84299 6.75689 4.84304C6.75692 4.84306 6.75699 4.84312 6.75704 4.84315C6.75714 4.84323 6.75725 4.84331 6.75736 4.84339C6.75758 4.84355 6.75781 4.84372 6.75807 4.84391C6.75858 4.84428 6.75916 4.84471 6.75981 4.84518C6.7611 4.84613 6.76268 4.84727 6.76452 4.8486C6.76819 4.85125 6.77295 4.85464 6.7787 4.85867C6.79016 4.86672 6.80572 4.87741 6.82467 4.88987C6.86209 4.91449 6.91507 4.94758 6.97744 4.98126C7.07938 5.0363 7.2925 5.14185 7.52644 5.14185V4.14185ZM7.78113 4.02651C7.74161 4.04831 7.67569 4.08263 7.60832 4.11018C7.57487 4.12386 7.54727 4.13329 7.52687 4.13878C7.50341 4.1451 7.50551 4.14185 7.52644 4.14185V5.14185C7.70878 5.14185 7.88543 5.07724 7.98678 5.0358C8.10406 4.98784 8.20746 4.93339 8.2642 4.90209L7.78113 4.02651ZM8.52266 4.4643V4.44073H7.52266V4.4643H8.52266ZM8.02266 4.44073C7.76663 4.87021 7.76664 4.87021 7.76665 4.87022C7.76665 4.87022 7.76666 4.87023 7.76667 4.87023C7.76668 4.87024 7.76669 4.87024 7.7667 4.87025C7.76672 4.87026 7.76675 4.87028 7.76677 4.87029C7.76682 4.87032 7.76687 4.87035 7.76692 4.87038C7.76702 4.87044 7.76713 4.8705 7.76724 4.87057C7.76748 4.87071 7.76774 4.87087 7.76804 4.87104C7.76862 4.87139 7.76933 4.87181 7.77015 4.87229C7.77179 4.87326 7.7739 4.8745 7.77644 4.87598C7.78153 4.87894 7.7884 4.8829 7.79684 4.88769L8.28996 4.01772C8.28509 4.01497 8.28159 4.01294 8.27964 4.01181C8.27867 4.01124 8.27808 4.0109 8.27792 4.0108C8.27783 4.01075 8.27785 4.01076 8.27798 4.01084C8.27805 4.01088 8.27814 4.01093 8.27826 4.011C8.27832 4.01103 8.27838 4.01107 8.27845 4.01112C8.27849 4.01114 8.27853 4.01116 8.27857 4.01119C8.27859 4.0112 8.27861 4.01121 8.27863 4.01122C8.27864 4.01123 8.27865 4.01123 8.27866 4.01124C8.27867 4.01124 8.27867 4.01125 8.27868 4.01125C8.27869 4.01126 8.27869 4.01126 8.02266 4.44073Z" fill="white" mask="url(#path-8-outside-2_270_55086)"/>
</mask>
<g mask="url(#mask0_270_55086)">
<rect x="6.65222" y="4.36362" width="1.3913" height="1.90909" fill="#67BAFF"/>
<rect x="8.04346" y="4.36362" width="1.3913" height="1.90909" fill="white"/>
<rect x="6.47827" y="6.45453" width="3.47826" height="2.18182" fill="#C51918"/>
<path d="M8.71737 6.13749H8.54346V4.83014H8.71737V6.13749Z" fill="#C9A951"/>
<path d="M8.64693 5.54276L8.56215 5.69461L8.26196 5.527L8.34675 5.37515L8.64693 5.54276Z" fill="#C9A951"/>
<path d="M8.64693 5.17915L8.56215 5.33099L8.26196 5.16338L8.34675 5.01154L8.64693 5.17915Z" fill="#C9A951"/>
<path d="M8.60978 5.54276L8.69456 5.69461L8.99475 5.527L8.90997 5.37515L8.60978 5.54276Z" fill="#C9A951"/>
<path d="M8.60978 5.17915L8.69456 5.33099L8.99475 5.16338L8.90997 5.01154L8.60978 5.17915Z" fill="#C9A951"/>
<path fill-rule="evenodd" clip-rule="evenodd" d="M7.68805 4.78494C7.58322 4.87663 7.65085 5.21172 7.47907 5.21172C7.3073 5.21172 7.06556 4.9608 7.00469 5.12637C6.94382 5.29194 7.00469 5.23631 7.00469 5.37733C7.00469 5.51834 6.85889 5.9102 6.93179 5.97644C7.00469 6.04268 7.07939 6.21723 7.06645 6.13552C7.0535 6.05381 6.99839 5.93382 7.02135 5.80347C6.99915 5.66881 7.14421 5.53929 7.14421 5.53929C7.14421 5.53929 7.12847 5.6791 7.11705 5.73122C7.11705 5.73122 7.06922 5.83644 7.08864 5.90632C7.08864 5.90632 7.13775 6.10327 7.158 6.11688C7.158 6.11688 7.17115 5.65053 7.18611 5.57367C7.20106 5.49682 7.30767 5.66037 7.34314 5.64183C7.34314 5.64183 7.35531 5.96072 7.33687 5.99872C7.33687 5.99872 7.29948 6.07415 7.31339 6.09824C7.31339 6.09824 7.34807 6.18554 7.37766 6.16012C7.37766 6.16012 7.3787 6.1583 7.3937 6.07333C7.3937 6.07333 7.37627 6.02201 7.40355 5.90518C7.40355 5.90518 7.43227 5.64792 7.44416 5.70374C7.44416 5.70374 7.43882 5.8252 7.45252 5.8878C7.45252 5.8878 7.4744 6.04323 7.47879 6.0603C7.47879 6.0603 7.58374 6.20979 7.58653 6.14665C7.58653 6.14665 7.48593 6.02668 7.50748 5.9354C7.50748 5.9354 7.44988 5.67678 7.53028 5.61911C7.53028 5.61911 7.74359 5.52045 7.75642 5.35156C7.75642 5.35156 7.78732 5.15908 7.79287 5.07085C7.79287 5.07085 7.74608 5.04491 7.8428 4.99935C7.8428 4.99935 7.9985 4.93959 7.90148 4.85649" fill="#D18219"/>
</g>
<path d="M6.09998 3.8432L6.48664 4.15304C5.98299 4.9818 6.09998 5.76161 6.09998 6.26306C6.09998 7.18775 6.79482 8.25497 8.00527 8.25497C8.90494 8.25497 9.8828 7.55462 10.1136 6.6989C10.2953 6.02511 9.87834 4.44181 9.56368 4.02859L9.93585 3.8432C10.4242 4.48454 11.3502 5.95418 11.0791 6.95932C10.727 8.2647 9.34436 9.25497 8.00527 9.25497C6.13005 9.25497 5.09998 7.67288 5.09998 6.26306C5.09998 5.54708 5.50975 4.81442 6.09998 3.8432Z" fill="#00A854"/>
<path fill-rule="evenodd" clip-rule="evenodd" d="M8 7.60001C8.55228 7.60001 9 7.37615 9 7.10001C9 6.82386 8.55228 6.60001 8 6.60001C7.44772 6.60001 7 6.82386 7 7.10001C7 7.37615 7.44772 7.60001 8 7.60001Z" fill="#FDD200"/>
<rect x="6.5" y="8" width="3" height="1" fill="#CA0000"/>
</g>
<defs>
<clipPath id="clip0_270_55086">
<rect width="16" height="12" fill="white"/>
</clipPath>
</defs>
</svg>
