<svg width="16" height="12" viewBox="0 0 16 12" fill="none" xmlns="http://www.w3.org/2000/svg">
<g clip-path="url(#clip0_270_55011)">
<rect width="16" height="12" fill="white"/>
<path fill-rule="evenodd" clip-rule="evenodd" d="M0 0V12H16V0H0Z" fill="#BF2714"/>
<mask id="mask0_270_55011" style="mask-type:luminance" maskUnits="userSpaceOnUse" x="0" y="0" width="16" height="12">
<path fill-rule="evenodd" clip-rule="evenodd" d="M0 0V12H16V0H0Z" fill="white"/>
</mask>
<g mask="url(#mask0_270_55011)">
<path fill-rule="evenodd" clip-rule="evenodd" d="M0 -1V6H16V-1H0Z" fill="#3D58DB"/>
</g>
<path fill-rule="evenodd" clip-rule="evenodd" d="M0 0V12L9 6L0 0Z" fill="#F7FCFF"/>
<mask id="mask1_270_55011" style="mask-type:luminance" maskUnits="userSpaceOnUse" x="0" y="0" width="9" height="12">
<path fill-rule="evenodd" clip-rule="evenodd" d="M0 0V12L9 6L0 0Z" fill="white"/>
</mask>
<g mask="url(#mask1_270_55011)">
<path fill-rule="evenodd" clip-rule="evenodd" d="M6.80257 5.46007L7.44051 5.70608L7.82007 5.25942L7.83013 5.8568L8.41727 6.04777L7.79926 6.25754L7.83999 6.80649L7.43295 6.38598L6.79314 6.50768L7.17089 6.02335L6.80257 5.46007Z" fill="#FECA00"/>
<path fill-rule="evenodd" clip-rule="evenodd" d="M0.802572 8.46007L1.38896 8.71932L1.82007 8.25942L1.77858 8.87004L2.41727 9.04777L1.74771 9.27078L1.83999 9.80649L1.37381 9.4237L0.793141 9.50768L1.11933 9.03659L0.802572 8.46007Z" fill="#FECA00"/>
<path fill-rule="evenodd" clip-rule="evenodd" d="M0.802572 2.46007L1.45145 2.69918L1.82007 2.25942L1.84107 2.8499L2.41727 3.04777L1.8102 3.25064L1.83999 3.80649L1.4363 3.40355L0.793141 3.50768L1.18182 3.01645L0.802572 2.46007Z" fill="#FECA00"/>
<path fill-rule="evenodd" clip-rule="evenodd" d="M4.06079 7.26642C4.75115 7.26642 5.31079 6.70677 5.31079 6.01642C5.31079 5.32606 4.75115 4.76642 4.06079 4.76642C3.37044 4.76642 2.81079 5.32606 2.81079 6.01642C2.81079 6.70677 3.37044 7.26642 4.06079 7.26642Z" fill="#FECA00"/>
<path fill-rule="evenodd" clip-rule="evenodd" d="M3.91298 4.11986L3.98015 4.92286C3.98657 4.97162 4.02409 5.01047 4.0726 5.01859C4.13353 5.02879 4.1912 4.98766 4.2014 4.92672L4.29006 4.12644C4.29161 4.11713 4.29248 4.10772 4.29264 4.09829C4.29448 3.99301 4.21062 3.90617 4.10534 3.90433C4.0959 3.90416 4.08647 3.9047 4.07711 3.90593C3.97272 3.91968 3.89923 4.01546 3.91298 4.11986ZM3.70393 4.50794L3.80773 4.85726C3.81737 4.88968 3.84975 4.90976 3.88638 4.9033C3.9164 4.89621 3.93498 4.86612 3.92789 4.8361L3.84505 4.48552C3.83552 4.4452 3.79646 4.4191 3.75556 4.42572C3.75283 4.42616 3.75013 4.42678 3.74747 4.42757C3.71325 4.43773 3.69376 4.47372 3.70393 4.50794ZM4.26534 4.87181C4.2572 4.90157 4.27472 4.93229 4.30775 4.94121C4.34086 4.94816 4.37392 4.92922 4.38468 4.89715L4.50062 4.55167C4.51197 4.51782 4.49375 4.48118 4.4599 4.46982C4.45728 4.46894 4.4546 4.46823 4.45188 4.46769C4.41124 4.45965 4.3713 4.48438 4.36037 4.52434L4.26534 4.87181ZM5.3039 4.52073L4.74504 5.13783C4.7151 5.17685 4.71416 5.23085 4.74272 5.27089C4.77859 5.32119 4.84846 5.33289 4.89876 5.29701L5.56587 4.79202C5.57356 4.78654 5.58082 4.78049 5.58761 4.77394C5.66335 4.70079 5.66546 4.58009 5.59231 4.50434C5.58576 4.49756 5.57871 4.49127 5.57122 4.48552C5.48768 4.42142 5.36799 4.43719 5.3039 4.52073ZM5.13389 5.8307L5.96837 5.76612C6.07276 5.75237 6.16854 5.82585 6.18229 5.93025C6.18352 5.93961 6.18406 5.94904 6.18389 5.95847C6.18206 6.06376 6.09522 6.14762 5.98993 6.14578C5.9805 6.14562 5.97109 6.14475 5.96178 6.14319L5.13003 6.05195C5.06909 6.04175 5.02796 5.98408 5.03816 5.92315C5.04628 5.87464 5.08513 5.83712 5.13389 5.8307ZM5.56697 7.1598L4.91891 6.59559C4.87989 6.56565 4.82589 6.56471 4.78585 6.59327C4.73555 6.62914 4.72386 6.69901 4.75973 6.74931L5.29569 7.42177C5.30117 7.42946 5.30721 7.43672 5.31376 7.44351C5.38691 7.51925 5.50761 7.52136 5.58336 7.44821C5.59015 7.44166 5.59644 7.43461 5.60218 7.42712C5.66628 7.34358 5.65052 7.22389 5.56697 7.1598ZM4.22604 6.98444L4.27552 7.82695C4.28927 7.93135 4.21579 8.02713 4.11139 8.04088C4.10203 8.04211 4.0926 8.04264 4.08316 8.04248C3.97788 8.04064 3.89402 7.9538 3.89586 7.84852C3.89602 7.83908 3.89689 7.82967 3.89845 7.82037L4.00479 6.98058C4.01499 6.91964 4.07266 6.87851 4.1336 6.88871C4.18211 6.89683 4.21962 6.93568 4.22604 6.98444ZM2.91051 7.4396L3.46115 6.76946C3.49109 6.73044 3.49203 6.67644 3.46348 6.6364C3.4276 6.5861 3.35774 6.57441 3.30744 6.61028L2.64853 7.16831C2.64085 7.17379 2.63358 7.17983 2.62679 7.18639C2.55105 7.25954 2.54894 7.38024 2.62209 7.45598C2.62864 7.46277 2.63569 7.46906 2.64318 7.47481C2.72672 7.53891 2.84641 7.52314 2.91051 7.4396ZM3.07231 6.07659L2.2327 6.14578C2.1283 6.15953 2.03253 6.08604 2.01878 5.98165C2.01755 5.97229 2.01701 5.96286 2.01717 5.95342C2.01901 5.84814 2.10585 5.76428 2.21113 5.76612C2.22057 5.76628 2.22998 5.76715 2.23928 5.76871L3.07617 5.85534C3.13711 5.86554 3.17824 5.92321 3.16804 5.98415C3.15992 6.03266 3.12107 6.07017 3.07231 6.07659ZM2.57517 4.76106L3.28728 5.3117C3.3263 5.34164 3.3803 5.34258 3.42034 5.31403C3.47064 5.27815 3.48234 5.20829 3.44646 5.15799L2.84645 4.49908C2.84097 4.4914 2.83493 4.48413 2.82838 4.47734C2.75523 4.4016 2.63453 4.39949 2.55878 4.47264C2.55199 4.47919 2.5457 4.48624 2.53996 4.49373C2.47586 4.57727 2.49162 4.69696 2.57517 4.76106ZM4.66951 4.96953L4.84311 4.64912C4.86012 4.61773 4.89935 4.60607 4.93074 4.62308C4.93317 4.6244 4.93552 4.62587 4.93776 4.62749C4.97136 4.65173 4.98052 4.69781 4.95875 4.73306L4.76943 5.03953C4.75322 5.06578 4.7188 5.07391 4.69256 5.0577C4.6621 5.03637 4.6534 4.99927 4.66951 4.96953ZM5.54881 5.55448L5.19949 5.65828C5.16706 5.66792 5.14698 5.7003 5.15344 5.73693C5.16054 5.76695 5.19063 5.78553 5.22065 5.77844L5.57122 5.6956C5.61154 5.68607 5.63765 5.64701 5.63103 5.60611C5.63058 5.60338 5.62997 5.60068 5.62918 5.59802C5.61901 5.5638 5.58303 5.54431 5.54881 5.55448ZM5.08722 6.52006L5.40762 6.69366C5.43901 6.71067 5.45067 6.7499 5.43366 6.78129C5.43234 6.78372 5.43087 6.78607 5.42925 6.78831C5.40501 6.82191 5.35894 6.83107 5.32369 6.8093L5.01721 6.61998C4.99097 6.60377 4.98284 6.56935 4.99905 6.54311C5.02038 6.51265 5.05747 6.50395 5.08722 6.52006ZM4.50227 7.39936L4.39846 7.05004C4.38882 7.01761 4.35644 6.99753 4.31982 7.00399C4.2898 7.01109 4.27121 7.04118 4.2783 7.0712L4.36115 7.42177C4.37068 7.46209 4.40974 7.4882 4.45063 7.48158C4.45337 7.48113 4.45607 7.48052 4.45872 7.47973C4.49294 7.46956 4.51244 7.43358 4.50227 7.39936ZM3.53668 6.93777L3.36308 7.25817C3.34608 7.28956 3.30685 7.30122 3.27546 7.28421C3.27302 7.2829 3.27068 7.28142 3.26843 7.2798C3.23483 7.25556 3.22567 7.20949 3.24745 7.17424L3.43676 6.86776C3.45297 6.84152 3.48739 6.83339 3.51363 6.8496C3.5441 6.87093 3.5528 6.90802 3.53668 6.93777ZM2.65739 6.35282L3.00671 6.24901C3.03913 6.23937 3.05921 6.20699 3.05275 6.17037C3.04566 6.14035 3.01557 6.12176 2.98555 6.12885L2.63497 6.2117C2.59465 6.22123 2.56855 6.26029 2.57517 6.30118C2.57561 6.30392 2.57623 6.30662 2.57701 6.30927C2.58718 6.34349 2.62317 6.36299 2.65739 6.35282ZM3.11898 5.38723L2.79857 5.21363C2.76718 5.19663 2.75552 5.1574 2.77253 5.12601C2.77385 5.12357 2.77532 5.12123 2.77694 5.11898C2.80118 5.08538 2.84726 5.07622 2.8825 5.098L3.18898 5.28731C3.21523 5.30352 3.22336 5.33794 3.20715 5.36418C3.18582 5.39465 3.14872 5.40335 3.11898 5.38723ZM4.98279 5.30339C4.956 5.31868 4.94667 5.35279 4.96371 5.38246C4.98221 5.41078 5.01898 5.42077 5.04926 5.4057L5.37553 5.24339C5.4075 5.22749 5.42052 5.18869 5.40462 5.15672C5.40338 5.15425 5.40199 5.15185 5.40045 5.14955C5.3774 5.11513 5.33167 5.10436 5.29569 5.12489L4.98279 5.30339ZM5.11553 6.1583C5.12446 6.12527 5.15518 6.10775 5.18493 6.11589L5.5324 6.21092C5.57237 6.22185 5.59709 6.26179 5.58905 6.30243C5.58851 6.30515 5.5878 6.30783 5.58692 6.31045C5.57556 6.3443 5.53892 6.36252 5.50508 6.35117L5.1596 6.23523C5.12752 6.22447 5.10859 6.19141 5.11553 6.1583ZM4.75335 6.83334C4.73806 6.80655 4.70395 6.79722 4.67429 6.81426C4.64597 6.83276 4.63598 6.86953 4.65104 6.89981L4.81336 7.22608C4.82926 7.25805 4.86806 7.27107 4.90002 7.25517C4.9025 7.25393 4.90489 7.25254 4.90719 7.251C4.94162 7.22795 4.95238 7.18222 4.93185 7.14624L4.75335 6.83334ZM3.89845 6.96608C3.93147 6.97501 3.94899 7.00573 3.94086 7.03548L3.84583 7.38296C3.8349 7.42292 3.79495 7.44764 3.75431 7.4396C3.75159 7.43906 3.74892 7.43835 3.74629 7.43747C3.71245 7.42611 3.69422 7.38947 3.70558 7.35563L3.82151 7.01015C3.83227 6.97808 3.86534 6.95914 3.89845 6.96608ZM3.2234 6.6039C3.2502 6.58861 3.25953 6.5545 3.24249 6.52484C3.22399 6.49652 3.18722 6.48653 3.15693 6.50159L2.83066 6.66391C2.7987 6.67981 2.78568 6.71861 2.80158 6.75057C2.80281 6.75305 2.8042 6.75544 2.80574 6.75774C2.82879 6.79217 2.87452 6.80293 2.91051 6.7824L3.2234 6.6039ZM3.09066 5.749C3.08173 5.78202 3.05102 5.79954 3.02126 5.79141L2.67379 5.69638C2.63383 5.68545 2.6091 5.6455 2.61714 5.60486C2.61768 5.60214 2.61839 5.59947 2.61927 5.59684C2.63063 5.563 2.66727 5.54477 2.70112 5.55613L3.0466 5.67206C3.07867 5.68282 3.09761 5.71589 3.09066 5.749ZM3.45284 5.07395C3.46813 5.10075 3.50224 5.11008 3.53191 5.09304C3.56023 5.07454 3.57022 5.03777 3.55515 5.00748L3.39284 4.68121C3.37694 4.64925 3.33814 4.63623 3.30617 4.65213C3.3037 4.65336 3.3013 4.65475 3.299 4.65629C3.26458 4.67934 3.25381 4.72507 3.27434 4.76106L3.45284 5.07395Z" fill="#FECA00"/>
</g>
</g>
<defs>
<clipPath id="clip0_270_55011">
<rect width="16" height="12" fill="white"/>
</clipPath>
</defs>
</svg>
