<svg xmlns="http://www.w3.org/2000/svg" xmlns:xlink="http://www.w3.org/1999/xlink" width="16" height="12" viewBox="0 0 16 12">
  <defs>
    <rect id="a" width="16" height="12"/>
    <rect id="c" width="16" height="12"/>
    <polygon id="e" points="0 0 0 12 9 6"/>
  </defs>
  <g fill="none" fill-rule="evenodd">
    <mask id="b" fill="white">
      <use xlink:href="#a"/>
    </mask>
    <g mask="url(#b)">
      <mask id="d" fill="white">
        <use xlink:href="#c"/>
      </mask>
      <use fill="#BF2714" xlink:href="#c"/>
      <rect width="16" height="7" y="-1" fill="#3D58DB" mask="url(#d)"/>
      <mask id="f" fill="white">
        <use xlink:href="#e"/>
      </mask>
      <use fill="#F7FCFF" xlink:href="#e"/>
      <polygon fill="#FECA00" points="6.674 5.74 7.357 5.753 7.561 5.204 7.775 5.762 8.392 5.74 7.883 6.149 8.109 6.651 7.583 6.395 7.023 6.728 7.212 6.144" mask="url(#f)"/>
      <polygon fill="#FECA00" points=".674 8.74 1.313 8.783 1.561 8.204 1.731 8.792 2.392 8.74 1.839 9.179 2.109 9.651 1.54 9.45 1.023 9.728 1.168 9.174" mask="url(#f)"/>
      <polygon fill="#FECA00" points=".674 2.74 1.365 2.743 1.561 2.204 1.783 2.751 2.392 2.74 1.891 3.139 2.109 3.651 1.592 3.41 1.023 3.728 1.22 3.133" mask="url(#f)"/>
      <path fill="#FECA00" d="M4.0607502,7.2664177 C4.75110613,7.2664177 5.3107502,6.70677363 5.3107502,6.0164177 C5.3107502,5.32606176 4.75110613,4.7664177 4.0607502,4.7664177 C3.37039426,4.7664177 2.8107502,5.32606176 2.8107502,6.0164177 C2.8107502,6.70677363 3.37039426,7.2664177 4.0607502,7.2664177 Z" mask="url(#f)"/>
      <path fill="#FECA00" d="M3.90713993,4.93372182 L3.78411836,4.13736381 C3.76311986,4.03417921 3.82974486,3.93350891 3.93292946,3.91251041 C3.94217585,3.91062873 3.95154917,3.90943606 3.96097215,3.90894222 C4.0661274,3.90343127 4.1558401,3.98420894 4.16135105,4.0893642 C4.16184489,4.09878717 4.16163852,4.10823381 4.16073366,4.11762624 L4.12812165,4.92214065 C4.12219673,4.98364119 4.0675376,5.02869412 4.00603707,5.0227692 C3.95708132,5.01805283 3.91694773,4.98191638 3.90713993,4.93372182 Z M3.73056723,4.8803074 L3.60264531,4.53908324 C3.59011375,4.50565604 3.60705301,4.46839912 3.6404802,4.45586756 C3.64307165,4.45489605 3.64572281,4.45409197 3.64841732,4.4534603 C3.68875238,4.44400455 3.72953891,4.46732101 3.74185578,4.50687633 L3.84895417,4.85082004 C3.85812544,4.88027334 3.84168361,4.91158475 3.8122303,4.92075602 C3.77614669,4.9297542 3.74244197,4.91198257 3.73056723,4.8803074 Z M4.23521906,4.92918031 C4.20165311,4.92257897 4.18202842,4.89315773 4.18807074,4.86290711 L4.25863052,4.50965274 C4.26674527,4.46902664 4.30487113,4.44157456 4.34597362,4.44676235 C4.3487194,4.44710891 4.35144009,4.44763145 4.35411889,4.44832676 C4.38867286,4.45729558 4.40941374,4.49257777 4.40044492,4.52713175 L4.30889141,4.87985814 C4.30039268,4.91260104 4.26873023,4.93379842 4.23521906,4.92918031 Z M4.68516165,5.09481796 L5.19960821,4.44023426 C5.25772256,4.35242355 5.37601819,4.32834989 5.46382891,4.38646424 C5.47169764,4.39167187 5.47916892,4.39745646 5.48618117,4.40377032 C5.564434,4.47422948 5.57075201,4.59478437 5.50029285,4.6730372 C5.49397899,4.68004945 5.48715329,4.68658331 5.47987201,4.69258492 L4.84960844,5.24288652 C4.80193145,5.28218441 4.73142437,5.2753918 4.69212648,5.22771481 C4.66084451,5.18976289 4.65801811,5.13583183 4.68516165,5.09481796 Z M5.12139391,5.75887458 L5.94933349,5.63623827 C6.0525181,5.61523977 6.15318839,5.68186477 6.17418689,5.78504937 C6.17606857,5.79429576 6.17726124,5.80366908 6.17775508,5.81309205 C6.18326603,5.91824731 6.10248836,6.00796 5.99733311,6.01347096 C5.98791013,6.01396479 5.97846349,6.01375843 5.96907107,6.01285357 L5.13297507,5.9798563 C5.07147454,5.97393138 5.0264216,5.91927225 5.03234652,5.85777172 C5.03706289,5.80881597 5.07319934,5.76868238 5.12139391,5.75887458 Z M4.96029776,6.5368963 L5.64613819,7.05452011 C5.7339489,7.11263446 5.75802256,7.23093009 5.69990821,7.31874081 C5.69470058,7.32660954 5.68891599,7.33408082 5.68260213,7.34109307 C5.61214297,7.4193459 5.49158808,7.42566391 5.41333525,7.35520475 C5.406323,7.34889089 5.39978914,7.34206519 5.39378753,7.33478391 L4.8122292,6.70134309 C4.77293131,6.65366609 4.77972392,6.58315902 4.82740091,6.54386113 C4.86535283,6.51257916 4.91928389,6.50975275 4.96029776,6.5368963 Z M4.29624114,6.97312855 L4.40436929,7.81013736 C4.42536779,7.91332196 4.35874279,8.01399226 4.25555819,8.03499076 C4.2463118,8.03687244 4.23693848,8.03806511 4.22751551,8.03855895 C4.12236025,8.0440699 4.03264756,7.96329223 4.0271366,7.85813697 C4.02664277,7.848714 4.02684913,7.83926736 4.02775399,7.82987493 L4.07525942,6.98470971 C4.08118434,6.92320918 4.13584347,6.87815625 4.19734401,6.88408117 C4.24629975,6.88879754 4.28643335,6.92493398 4.29624114,6.97312855 Z M3.51821942,6.8120324 L3.01565963,7.51894876 C2.95754528,7.60675948 2.83924965,7.63083314 2.75143893,7.57271879 C2.7435702,7.56751115 2.73609892,7.56172656 2.72908667,7.55541271 C2.65083384,7.48495354 2.64451583,7.36439865 2.71497499,7.28614583 C2.72128885,7.27913358 2.72811455,7.27259972 2.73539583,7.2665981 L3.35377263,6.66396385 C3.40144963,6.62466596 3.4719567,6.63145856 3.5112546,6.67913556 C3.54253656,6.71708747 3.54536297,6.77101854 3.51821942,6.8120324 Z M3.08198717,6.14797579 L2.24925483,6.27556212 C2.14607023,6.29656062 2.04539994,6.22993562 2.02440144,6.12675102 C2.02251976,6.11750463 2.02132708,6.10813131 2.02083325,6.09870834 C2.01532229,5.99355308 2.09609996,5.90384039 2.20125522,5.89832943 C2.2106782,5.8978356 2.22012484,5.89804196 2.22951726,5.89894682 L3.07040601,5.92699407 C3.13190654,5.93291899 3.17695947,5.98757812 3.17103455,6.04907865 C3.16631819,6.0980344 3.13018174,6.13816799 3.08198717,6.14797579 Z M3.24308332,5.36995407 L2.49429178,4.87032248 C2.40648107,4.81220813 2.38240741,4.69391249 2.44052176,4.60610178 C2.4457294,4.59823305 2.45151398,4.59076176 2.45782784,4.58374951 C2.528287,4.50549669 2.64884189,4.49917867 2.72709472,4.56963784 C2.73410697,4.57595169 2.74064083,4.58277739 2.74664245,4.59005867 L3.39115187,5.20550728 C3.43044976,5.25318427 3.42365716,5.32369135 3.37598016,5.36298924 C3.33802825,5.39427121 3.28409718,5.39709762 3.24308332,5.36995407 Z M4.59807559,4.93219252 L4.74890306,4.60045614 C4.7636785,4.56795839 4.80200099,4.55359163 4.83449874,4.56836708 C4.83701812,4.56951254 4.83946134,4.57081863 4.84181331,4.57227728 C4.87702073,4.59411225 4.88937393,4.63943991 4.87011345,4.67611908 L4.70263851,4.99505401 C4.68829695,5.02236571 4.65453031,5.03288008 4.62721861,5.01853852 C4.59534097,4.99938623 4.58407457,4.96298695 4.59807559,4.93219252 Z M5.17480832,5.58230188 L5.51603249,5.45437996 C5.54945968,5.4418484 5.58671661,5.45878766 5.59924816,5.49221485 C5.60021967,5.49480629 5.60102375,5.49745746 5.60165542,5.50015197 C5.61111117,5.54048703 5.58779471,5.58127356 5.54823939,5.59359043 L5.20429569,5.70068882 C5.17484238,5.70986009 5.14353097,5.69341825 5.1343597,5.66396495 C5.12536152,5.62788134 5.14313315,5.59417662 5.17480832,5.58230188 Z M5.12292321,6.44981024 L5.45465958,6.6006377 C5.48715733,6.61541315 5.50152409,6.65373564 5.48674864,6.68623338 C5.48560318,6.68875277 5.48429709,6.69119599 5.48283844,6.69354796 C5.46100347,6.72875538 5.41567581,6.74110858 5.37899664,6.72184809 L5.06006171,6.55437316 C5.03275001,6.5400316 5.02223564,6.50626496 5.0365772,6.47895326 C5.05572949,6.44707562 5.09212877,6.43580922 5.12292321,6.44981024 Z M4.47281385,7.02654296 L4.60073576,7.36776713 C4.61326732,7.40119433 4.59632806,7.43845125 4.56290087,7.45098281 C4.56030943,7.45195432 4.55765827,7.45275839 4.55496375,7.45339007 C4.51462869,7.46284582 4.47384217,7.43952936 4.46152529,7.39997404 L4.35442691,7.05603033 C4.34525563,7.02657703 4.36169747,6.99526562 4.39115077,6.98609435 C4.42723438,6.97709617 4.46093911,6.99486779 4.47281385,7.02654296 Z M3.60530549,6.97465785 L3.45447802,7.30639423 C3.43970257,7.33889197 3.40138008,7.35325874 3.36888234,7.33848329 C3.36636295,7.33733783 3.36391973,7.33603174 3.36156776,7.33457309 C3.32636034,7.31273812 3.31400714,7.26741046 3.33326763,7.23073129 L3.50074256,6.91179636 C3.51508412,6.88448466 3.54885076,6.87397029 3.57616246,6.88831185 C3.6080401,6.90746414 3.61930651,6.94386341 3.60530549,6.97465785 Z M3.02857276,6.32454849 L2.68734859,6.45247041 C2.6539214,6.46500197 2.61666447,6.44806271 2.60413291,6.41463552 C2.6031614,6.41204407 2.60235733,6.40939291 2.60172565,6.4066984 C2.5922699,6.36636334 2.61558637,6.32557681 2.65514168,6.31325994 L2.99908539,6.20616155 C3.02853869,6.19699028 3.0598501,6.21343212 3.06902137,6.24288542 C3.07801956,6.27896903 3.06024793,6.31267375 3.02857276,6.32454849 Z M3.08045787,5.45704013 L2.74872149,5.30621266 C2.71622375,5.29143722 2.70185699,5.25311473 2.71663243,5.22061699 C2.7177779,5.2180976 2.71908398,5.21565438 2.72054263,5.21330241 C2.7423776,5.17809499 2.78770526,5.16574179 2.82438444,5.18500228 L3.14331936,5.35247721 C3.17063106,5.36681877 3.18114544,5.40058541 3.16680387,5.42789711 C3.14765158,5.45977475 3.11125231,5.47104115 3.08045787,5.45704013 Z M4.92035995,5.32359361 C4.9012931,5.29519105 4.9082203,5.26051034 4.93388329,5.24339249 L5.23356515,5.04349722 C5.26803013,5.02050823 5.31440074,5.02805573 5.33979627,5.0607879 C5.34149278,5.06297452 5.3430471,5.06526783 5.34444964,5.06765368 C5.36254108,5.09842894 5.35225881,5.13804324 5.32148355,5.15613468 L5.00733022,5.34081179 C4.97816798,5.35795501 4.94079044,5.35055508 4.92035995,5.32359361 Z M5.12593541,6.0869537 C5.13253675,6.05338776 5.16195799,6.03376306 5.19220861,6.03980539 L5.54546299,6.11036517 C5.58608908,6.11847991 5.61354116,6.15660577 5.60835338,6.19770827 C5.60800681,6.20045405 5.60748427,6.20317474 5.60678896,6.20585353 C5.59782014,6.24040751 5.56253795,6.26114838 5.52798397,6.25217957 L5.17525758,6.16062606 C5.14251468,6.15212733 5.12131731,6.12046488 5.12593541,6.0869537 Z M4.73152211,6.7720946 C4.75992467,6.75302775 4.79460539,6.75995495 4.81172323,6.78561793 L5.0116185,7.0852998 C5.03460749,7.11976478 5.02705999,7.16613539 4.99432782,7.19153092 C4.99214121,7.19322742 4.98984789,7.19478174 4.98746204,7.19618428 C4.95668678,7.21427572 4.91707249,7.20399346 4.89898104,7.17321819 L4.71430393,6.85906486 C4.69716072,6.82990263 4.70456064,6.79252509 4.73152211,6.7720946 Z M3.96816202,6.97767006 C4.00172796,6.9842714 4.02135266,7.01369264 4.01531034,7.04394326 L3.94475055,7.39719763 C3.93663581,7.43782372 3.89850995,7.46527581 3.85740745,7.46008802 C3.85466167,7.45974146 3.85194099,7.45921891 3.84926219,7.45852361 C3.81470821,7.44955479 3.79396734,7.4142726 3.80293615,7.37971862 L3.89448966,7.02699223 C3.90298839,6.99424933 3.93465084,6.97305195 3.96816202,6.97767006 Z M3.28302112,6.58325676 C3.30208797,6.61165932 3.29516077,6.64634003 3.26949779,6.66345788 L2.96981592,6.86335314 C2.93535095,6.88634214 2.88898034,6.87879464 2.8635848,6.84606247 C2.8618883,6.84387585 2.86033398,6.84158254 2.85893144,6.83919669 C2.84084,6.80842143 2.85112227,6.76880713 2.88189753,6.75071569 L3.19605086,6.56603858 C3.22521309,6.54889536 3.26259063,6.55629528 3.28302112,6.58325676 Z M3.07744567,5.81989666 C3.07084432,5.85346261 3.04142308,5.87308731 3.01117247,5.86704498 L2.65791809,5.7964852 C2.617292,5.78837046 2.58983991,5.7502446 2.5950277,5.7091421 C2.59537426,5.70639632 2.59589681,5.70367563 2.59659212,5.70099684 C2.60556093,5.66644286 2.64084313,5.64570198 2.67539711,5.6546708 L3.02812349,5.74622431 C3.06086639,5.75472304 3.08206377,5.78638549 3.07744567,5.81989666 Z M3.47185897,5.13475577 C3.4434564,5.15382262 3.40877569,5.14689542 3.39165784,5.12123244 L3.19176258,4.82155057 C3.16877358,4.78708559 3.17632108,4.74071498 3.20905325,4.71531945 C3.21123987,4.71362295 3.21353318,4.71206863 3.21591903,4.71066609 C3.2466943,4.69257464 3.28630859,4.70285691 3.30440003,4.73363218 L3.48907715,5.0477855 C3.50622036,5.07694774 3.49882044,5.11432528 3.47185897,5.13475577 Z" mask="url(#f)" transform="rotate(4 4.1 5.974)"/>
    </g>
  </g>
</svg>
