<svg width="16" height="12" viewBox="0 0 16 12" fill="none" xmlns="http://www.w3.org/2000/svg">
<g clip-path="url(#clip0_270_55089)">
<rect width="16" height="12" fill="white"/>
<path fill-rule="evenodd" clip-rule="evenodd" d="M0 0V12H16V0H0Z" fill="#EF0000"/>
<mask id="mask0_270_55089" style="mask-type:luminance" maskUnits="userSpaceOnUse" x="0" y="0" width="16" height="12">
<path fill-rule="evenodd" clip-rule="evenodd" d="M0 0V12H16V0H0Z" fill="white"/>
</mask>
<g mask="url(#mask0_270_55089)">
<path d="M0 4H-1V5V7V8H0H16H17V7V5V4H16H0Z" fill="#EF0000" stroke="#F7FCFF" stroke-width="2"/>
</g>
<path fill-rule="evenodd" clip-rule="evenodd" d="M0 0V12L9 6L0 0Z" fill="#3D58DB"/>
<mask id="mask1_270_55089" style="mask-type:luminance" maskUnits="userSpaceOnUse" x="0" y="0" width="9" height="12">
<path fill-rule="evenodd" clip-rule="evenodd" d="M0 0V12L9 6L0 0Z" fill="white"/>
</mask>
<g mask="url(#mask1_270_55089)">
<path fill-rule="evenodd" clip-rule="evenodd" d="M3.34394 7.10841L1.50798 8.07741L2.40181 6.13044L1.26282 5.09038L2.66906 5.03848L3.34394 3.27814L3.85897 5.03848H5.26282L4.32712 6.13044L5.07139 8.07741L3.34394 7.10841Z" fill="#F7FCFF"/>
</g>
</g>
<defs>
<clipPath id="clip0_270_55089">
<rect width="16" height="12" fill="white"/>
</clipPath>
</defs>
</svg>
