<svg xmlns="http://www.w3.org/2000/svg" xmlns:xlink="http://www.w3.org/1999/xlink" width="16" height="12" viewBox="0 0 16 12">
  <defs>
    <rect id="a" width="16" height="12"/>
    <rect id="c" width="16" height="12"/>
  </defs>
  <g fill="none" fill-rule="evenodd">
    <mask id="b" fill="white">
      <use xlink:href="#a"/>
    </mask>
    <g mask="url(#b)">
      <mask id="d" fill="white">
        <use xlink:href="#c"/>
      </mask>
      <use fill="#F7FCFF" xlink:href="#c"/>
      <g fill="#272727" fill-rule="nonzero" mask="url(#d)">
        <path d="M2,3.5 C2.82842712,3.5 3.5,2.82842712 3.5,2 C3.5,1.17157288 2.82842712,0.5 2,0.5 C1.17157288,0.5 0.5,1.17157288 0.5,2 C0.5,2.82842712 1.17157288,3.5 2,3.5 Z M2,4 C0.8954305,4 0,3.1045695 0,2 C0,0.8954305 0.8954305,0 2,0 C3.1045695,0 4,0.8954305 4,2 C4,3.1045695 3.1045695,4 2,4 Z" transform="translate(6 4)"/>
      </g>
      <rect width="16" height="4" fill="#F05234" mask="url(#d)"/>
      <rect width="16" height="4" y="8" fill="#3D58DB" mask="url(#d)"/>
      <path fill="#73BE4A" fill-rule="nonzero" d="M7.62196456,4.95552728 L7.7904686,5.42627816 C7.46471002,5.54288258 7.31140828,5.78381174 7.31140828,6.20428406 C7.31140828,6.61571297 7.49107558,6.8567234 7.88990638,6.97857533 L7.74381141,7.45675549 C7.13537473,7.27086417 6.81140828,6.83628705 6.81140828,6.20428406 C6.81140828,5.5813245 7.08797874,5.1466661 7.62196456,4.95552728 Z" mask="url(#d)" transform="rotate(-15 7.35 6.206)"/>
      <path fill="#73BE4A" fill-rule="nonzero" d="M8.92196456,4.95552728 L9.0904686,5.42627816 C8.76471002,5.54288258 8.61140828,5.78381174 8.61140828,6.20428406 C8.61140828,6.61571297 8.79107558,6.8567234 9.18990638,6.97857533 L9.04381141,7.45675549 C8.43537473,7.27086417 8.11140828,6.83628705 8.11140828,6.20428406 C8.11140828,5.5813245 8.38797874,5.1466661 8.92196456,4.95552728 Z" mask="url(#d)" transform="scale(-1 1) rotate(-15 0 71.914)"/>
      <path fill="#FBCD17" d="M8.0012094,6.37361978 C8.27735177,6.37361978 8.5012094,6.14976215 8.5012094,5.87361978 C8.5012094,5.5974774 8.27735177,5.37361978 8.0012094,5.37361978 C7.72506702,5.37361978 7.5012094,5.5974774 7.5012094,5.87361978 C7.5012094,6.14976215 7.72506702,6.37361978 8.0012094,6.37361978 Z" mask="url(#d)"/>
    </g>
  </g>
</svg>
