<svg width="16" height="12" viewBox="0 0 16 12" fill="none" xmlns="http://www.w3.org/2000/svg">
<g clip-path="url(#clip0_270_55095)">
<rect width="16" height="12" fill="white"/>
<path fill-rule="evenodd" clip-rule="evenodd" d="M0 0V12H16V0H0Z" fill="#4857A1"/>
<mask id="mask0_270_55095" style="mask-type:luminance" maskUnits="userSpaceOnUse" x="0" y="0" width="16" height="12">
<path fill-rule="evenodd" clip-rule="evenodd" d="M0 0V12H16V0H0Z" fill="white"/>
</mask>
<g mask="url(#mask0_270_55095)">
<path fill-rule="evenodd" clip-rule="evenodd" d="M0 0V4H16V0H0Z" fill="#C51918"/>
<path fill-rule="evenodd" clip-rule="evenodd" d="M0 8V12H16V8H0Z" fill="#F7FCFF"/>
<path fill-rule="evenodd" clip-rule="evenodd" d="M5.26042 1.34787L5.19576 1.1037C5.24888 1.11907 5.3064 1.13483 5.36705 1.15102L5.36517 1.14172C6.11932 1.21151 7.28706 1.58791 7.50682 1.98056C7.59177 2.13233 7.50937 2.26063 7.40138 2.42875L7.40134 2.42881C7.38522 2.45392 7.36852 2.47991 7.35173 2.50701C7.29746 2.59456 7.24829 2.67829 7.20195 2.75719C7.03277 3.04523 6.90133 3.26903 6.69721 3.38082L6.70117 4.02029L3.3323 3.993L3.32799 3.34872C3.15314 3.22903 3.03038 3.02 2.87633 2.75771L2.87633 2.75771C2.82999 2.67881 2.78082 2.59509 2.72655 2.50753C2.70974 2.48042 2.69303 2.4544 2.6769 2.42928C2.56891 2.26115 2.48651 2.13286 2.57145 1.98109C2.73736 1.68467 3.48358 1.39233 4.16384 1.23681C4.29219 1.19418 4.42581 1.15421 4.55833 1.11586L4.61295 1.15311C4.67191 1.14489 4.72891 1.1382 4.78339 1.13316L4.86366 1.30424H5.12715C5.12715 1.30424 5.29278 1.76761 5.29278 2.02495C5.29278 2.28228 5.12715 2.49508 5.12715 2.49508V2.67272C5.15607 2.67499 5.18642 2.67776 5.21796 2.68097C5.21797 2.66528 5.21939 2.64876 5.22237 2.63184C5.23734 2.54696 5.28599 2.48458 5.33103 2.49252C5.37608 2.50046 5.40046 2.57572 5.38549 2.66061C5.3831 2.67414 5.37986 2.68711 5.37591 2.69931C5.55347 2.72207 5.75237 2.75383 5.94079 2.7865C6.01263 2.65528 6.10022 2.52564 6.18385 2.40186L6.18385 2.40185C6.40003 2.0819 6.58975 1.80109 6.41268 1.63347C6.37889 1.60147 6.31754 1.57172 6.23841 1.54418C5.97793 1.48106 5.69413 1.43179 5.41855 1.40629L5.41132 1.37047C5.3585 1.3624 5.30778 1.35487 5.26042 1.34787ZM6.54214 2.89868C6.63696 2.91751 6.6944 2.92947 6.6944 2.92947L6.69502 3.02819C7.02913 2.78952 7.26313 2.24947 7.28319 2.07271C7.2951 1.9677 7.11958 1.84548 6.84401 1.73356C6.96998 1.9682 6.79372 2.2016 6.57301 2.49387C6.48933 2.60467 6.39927 2.72393 6.31686 2.85494L6.39992 2.87084C6.39867 2.84607 6.40161 2.81817 6.40928 2.78954C6.43159 2.70628 6.48549 2.64838 6.52967 2.66022C6.57385 2.67205 6.59158 2.74915 6.56927 2.83241C6.56265 2.85712 6.55325 2.8796 6.54214 2.89868ZM4.81912 2.67392V2.47609C4.81912 2.47609 4.67572 2.32506 4.65349 2.01052C4.63731 1.78164 4.68853 1.51188 4.71763 1.38193C4.51715 1.40748 4.30654 1.44548 4.10121 1.49164C3.9363 1.53274 3.80277 1.57996 3.74626 1.63347C3.56919 1.80109 3.75891 2.0819 3.97509 2.40185C4.05587 2.52142 4.14034 2.64645 4.21075 2.77309C4.33238 2.74827 4.45461 2.7253 4.56874 2.70701C4.56396 2.69048 4.56056 2.67244 4.5589 2.65344C4.55139 2.56757 4.58224 2.49473 4.6278 2.49074C4.67336 2.48676 4.71639 2.55314 4.7239 2.63901C4.72528 2.65473 4.72537 2.67001 4.72432 2.68452C4.75722 2.68036 4.78891 2.6768 4.81912 2.67392ZM3.8413 2.85369C3.7591 2.72318 3.66934 2.60432 3.58593 2.49387L3.58593 2.49387C3.36009 2.19481 3.1808 1.95739 3.32421 1.7172C3.00071 1.83825 2.78319 1.96837 2.79509 2.07323C2.81397 2.23964 3.02244 2.72797 3.32555 2.98376L3.32553 2.98021C3.32553 2.98021 3.4494 2.94745 3.63252 2.90307C3.62039 2.88456 3.60979 2.86256 3.60186 2.83816C3.57522 2.75618 3.58889 2.67827 3.63239 2.66413C3.67589 2.65 3.73275 2.705 3.75939 2.78698C3.76878 2.81589 3.77316 2.84429 3.77299 2.86957L3.8413 2.85369Z" fill="#F6C540"/>
<path fill-rule="evenodd" clip-rule="evenodd" d="M4.29655 1.34203C4.31964 1.35788 4.34808 1.36722 4.37884 1.36722C4.45613 1.36722 4.51879 1.30818 4.51879 1.23534C4.51879 1.1625 4.45613 1.10345 4.37884 1.10345C4.32402 1.10345 4.27656 1.13315 4.2536 1.1764C4.2305 1.16056 4.20206 1.15121 4.17131 1.15121C4.122 1.15121 4.07864 1.17524 4.05371 1.21155C4.02953 1.19277 3.99854 1.18149 3.96476 1.18149C3.88746 1.18149 3.8248 1.24054 3.8248 1.31338C3.8248 1.31744 3.82499 1.32145 3.82537 1.32542C3.79972 1.2954 3.7604 1.2762 3.71631 1.2762C3.64625 1.2762 3.58822 1.3247 3.57796 1.38802C3.55234 1.3573 3.51254 1.33757 3.46786 1.33757C3.40069 1.33757 3.34458 1.38215 3.33102 1.44163C3.30804 1.42604 3.27984 1.41686 3.24936 1.41686C3.18734 1.41686 3.13474 1.45488 3.11637 1.50753C3.09754 1.49865 3.07628 1.49364 3.05378 1.49364C2.98473 1.49364 2.92735 1.54077 2.9159 1.60276C2.90693 1.60106 2.89765 1.60017 2.88815 1.60017C2.81159 1.60017 2.74939 1.6581 2.74821 1.72997C2.73988 1.72852 2.7313 1.72776 2.72252 1.72776C2.64522 1.72776 2.58256 1.7868 2.58256 1.85964C2.58256 1.86888 2.58357 1.87789 2.58549 1.88659C2.57625 1.88478 2.56669 1.88383 2.55689 1.88383C2.47959 1.88383 2.41693 1.94288 2.41693 2.01572C2.41693 2.07106 2.4531 2.11844 2.50438 2.13801C2.50136 2.14879 2.49975 2.16011 2.49975 2.17179C2.49975 2.22713 2.53592 2.27451 2.5872 2.29408C2.58417 2.30487 2.58256 2.31619 2.58256 2.32787C2.58256 2.39898 2.64228 2.45694 2.71704 2.45965C2.68551 2.48384 2.66538 2.52069 2.66538 2.56198C2.66538 2.63482 2.72804 2.69387 2.80534 2.69387C2.88263 2.69387 2.9453 2.63482 2.9453 2.56198C2.9453 2.49088 2.88558 2.43291 2.81082 2.4302C2.84234 2.40602 2.86248 2.36916 2.86248 2.32787C2.86248 2.27253 2.82631 2.22515 2.77503 2.20558C2.77805 2.1948 2.77966 2.18347 2.77966 2.17179C2.77966 2.11645 2.74349 2.06907 2.69221 2.0495C2.69524 2.03872 2.69685 2.0274 2.69685 2.01572C2.69685 2.00648 2.69584 1.99747 2.69392 1.98877C2.70316 1.99058 2.71272 1.99153 2.72252 1.99153C2.79908 1.99153 2.86128 1.9336 2.86246 1.86172C2.87079 1.86318 2.87938 1.86394 2.88815 1.86394C2.95721 1.86394 3.01459 1.81681 3.02603 1.75482C3.035 1.75652 3.04428 1.75741 3.05378 1.75741C3.11581 1.75741 3.16841 1.7194 3.18677 1.66674C3.20561 1.67563 3.22686 1.68063 3.24936 1.68063C3.28006 1.68063 3.30846 1.67131 3.33154 1.65551C3.33589 1.67315 3.344 1.68943 3.35502 1.70357C3.33798 1.72542 3.3279 1.7524 3.3279 1.7816C3.3279 1.85271 3.38762 1.91067 3.46238 1.91339C3.43086 1.93757 3.41072 1.97443 3.41072 2.01572C3.41072 2.07106 3.44689 2.11844 3.49817 2.13801C3.49515 2.14879 3.49354 2.16011 3.49354 2.17179C3.49354 2.22713 3.52971 2.27451 3.58099 2.29408C3.57796 2.30487 3.57635 2.31619 3.57635 2.32787C3.57635 2.40071 3.63901 2.45975 3.71631 2.45975C3.79361 2.45975 3.85627 2.40071 3.85627 2.32787C3.85627 2.27253 3.8201 2.22515 3.76882 2.20558C3.77184 2.1948 3.77345 2.18347 3.77345 2.17179C3.77345 2.11645 3.73728 2.06907 3.686 2.0495C3.68903 2.03872 3.69064 2.0274 3.69064 2.01572C3.69064 1.94461 3.63092 1.88665 3.55616 1.88393C3.58769 1.85975 3.60782 1.82289 3.60782 1.7816C3.60782 1.7524 3.59775 1.72542 3.5807 1.70357C3.59775 1.68171 3.60782 1.65473 3.60782 1.62553C3.60782 1.59633 3.59775 1.56934 3.5807 1.54749C3.59377 1.53074 3.60274 1.51098 3.60621 1.48951C3.63184 1.52023 3.67163 1.53996 3.71631 1.53996C3.79361 1.53996 3.85627 1.48092 3.85627 1.40808C3.85627 1.40402 3.85607 1.4 3.85569 1.39604C3.88135 1.42605 3.92067 1.44526 3.96476 1.44526C4.01407 1.44526 4.05742 1.42123 4.08235 1.38492C4.10654 1.4037 4.13752 1.41498 4.17131 1.41498C4.22613 1.41498 4.27358 1.38528 4.29655 1.34203ZM3.46786 1.60134C3.51417 1.60134 3.55523 1.58014 3.5807 1.54749C3.55523 1.51484 3.51417 1.49364 3.46786 1.49364C3.48204 1.49364 3.49354 1.48281 3.49354 1.46945C3.49354 1.45609 3.48204 1.44526 3.46786 1.44526C3.45368 1.44526 3.44219 1.45609 3.44219 1.46945C3.44219 1.48281 3.45368 1.49364 3.46786 1.49364C3.43716 1.49364 3.40876 1.50296 3.38568 1.51876C3.37789 1.48719 3.35807 1.45998 3.33102 1.44163C3.32898 1.4506 3.3279 1.45991 3.3279 1.46945C3.3279 1.49865 3.33798 1.52564 3.35502 1.54749C3.33798 1.56934 3.3279 1.59633 3.3279 1.62553C3.3279 1.63584 3.32916 1.64588 3.33154 1.65551C3.35894 1.63675 3.37884 1.60886 3.3862 1.57657C3.40918 1.59216 3.43738 1.60134 3.46786 1.60134ZM3.46786 1.64972C3.42155 1.64972 3.3805 1.67091 3.35502 1.70357C3.3805 1.73622 3.42155 1.75741 3.46786 1.75741C3.51417 1.75741 3.55523 1.73622 3.5807 1.70357C3.55523 1.67091 3.51417 1.64972 3.46786 1.64972ZM3.46786 1.64972C3.48204 1.64972 3.49354 1.63889 3.49354 1.62553C3.49354 1.61217 3.48204 1.60134 3.46786 1.60134C3.45368 1.60134 3.44219 1.61217 3.44219 1.62553C3.44219 1.63889 3.45368 1.64972 3.46786 1.64972ZM3.3862 1.57657C3.37426 1.56847 3.36373 1.55865 3.35502 1.54749C3.36361 1.53649 3.37396 1.52679 3.38568 1.51876C3.38806 1.52839 3.38932 1.53843 3.38932 1.54875C3.38932 1.55829 3.38824 1.5676 3.3862 1.57657ZM3.76882 2.20558C3.7526 2.19939 3.73488 2.19599 3.71631 2.19599C3.65141 2.19599 3.59682 2.23761 3.58099 2.29408C3.5972 2.30027 3.61493 2.30368 3.63349 2.30368C3.6984 2.30368 3.75298 2.26205 3.76882 2.20558ZM3.686 2.0495C3.66979 2.04332 3.65206 2.03991 3.63349 2.03991C3.56859 2.03991 3.51401 2.08154 3.49817 2.13801C3.51438 2.14419 3.53211 2.1476 3.55068 2.1476C3.61558 2.1476 3.67017 2.10597 3.686 2.0495ZM3.55616 1.88393L3.55068 1.88383C3.5172 1.88383 3.48646 1.89491 3.46238 1.91339L3.46786 1.91349C3.50134 1.91349 3.53208 1.90241 3.55616 1.88393ZM2.81082 2.4302L2.80534 2.4301C2.77186 2.4301 2.74112 2.44118 2.71704 2.45965L2.72252 2.45975C2.756 2.45975 2.78674 2.44868 2.81082 2.4302ZM2.77503 2.20558C2.75919 2.26205 2.70461 2.30368 2.63971 2.30368C2.62114 2.30368 2.60341 2.30027 2.5872 2.29408C2.60303 2.23761 2.65762 2.19599 2.72252 2.19599C2.74109 2.19599 2.75881 2.19939 2.77503 2.20558ZM2.69221 2.0495C2.67638 2.10597 2.62179 2.1476 2.55689 2.1476C2.53832 2.1476 2.5206 2.14419 2.50438 2.13801C2.52022 2.08154 2.5748 2.03991 2.63971 2.03991C2.65827 2.03991 2.676 2.04332 2.69221 2.0495ZM2.58549 1.88659C2.59677 1.9378 2.63957 1.97814 2.69392 1.98877C2.68264 1.93756 2.63984 1.89722 2.58549 1.88659ZM2.86246 1.86172C2.79744 1.85035 2.74819 1.79662 2.74819 1.73206L2.74821 1.72997C2.81324 1.74134 2.86248 1.79507 2.86248 1.85964L2.86246 1.86172ZM3.02603 1.75482C2.96203 1.74269 2.91383 1.68941 2.91383 1.62553C2.91383 1.61777 2.91454 1.61016 2.9159 1.60276C2.97991 1.6149 3.02811 1.66817 3.02811 1.73206C3.02811 1.73982 3.0274 1.74743 3.02603 1.75482ZM3.18677 1.66674C3.14089 1.6451 3.1094 1.60039 3.1094 1.54875C3.1094 1.53435 3.11185 1.5205 3.11637 1.50753C3.16225 1.52918 3.19374 1.57389 3.19374 1.62553C3.19374 1.63992 3.1913 1.65378 3.18677 1.66674ZM3.60621 1.48951C3.58751 1.46709 3.57635 1.43881 3.57635 1.40808C3.57635 1.40126 3.5769 1.39456 3.57796 1.38802C3.59667 1.41044 3.60782 1.43872 3.60782 1.46945C3.60782 1.47627 3.60727 1.48297 3.60621 1.48951ZM3.82537 1.32542C3.82793 1.35203 3.83887 1.37636 3.85569 1.39604C3.85314 1.36943 3.84219 1.3451 3.82537 1.32542ZM4.08235 1.38492C4.05121 1.36073 4.03135 1.3241 4.03135 1.28309C4.03135 1.25672 4.03956 1.23216 4.05371 1.21155C4.08486 1.23574 4.10472 1.27237 4.10472 1.31338C4.10472 1.33975 4.0965 1.36431 4.08235 1.38492ZM4.29655 1.34203C4.2616 1.31805 4.23888 1.2792 4.23888 1.23534C4.23888 1.21416 4.24418 1.19414 4.2536 1.1764C4.28855 1.20038 4.31127 1.23924 4.31127 1.28309C4.31127 1.30428 4.30597 1.32429 4.29655 1.34203ZM2.88815 1.75625C2.90233 1.75625 2.91383 1.74542 2.91383 1.73206C2.91383 1.71869 2.90233 1.70786 2.88815 1.70786C2.87397 1.70786 2.86248 1.71869 2.86248 1.73206C2.86248 1.74542 2.87397 1.75625 2.88815 1.75625ZM2.72252 1.88383C2.7367 1.88383 2.74819 1.873 2.74819 1.85964C2.74819 1.84628 2.7367 1.83545 2.72252 1.83545C2.70834 1.83545 2.69685 1.84628 2.69685 1.85964C2.69685 1.873 2.70834 1.88383 2.72252 1.88383ZM2.55689 2.03991C2.57107 2.03991 2.58256 2.02908 2.58256 2.01572C2.58256 2.00236 2.57107 1.99153 2.55689 1.99153C2.54271 1.99153 2.53122 2.00236 2.53122 2.01572C2.53122 2.02908 2.54271 2.03991 2.55689 2.03991ZM2.63971 2.19599C2.65388 2.19599 2.66538 2.18515 2.66538 2.17179C2.66538 2.15843 2.65388 2.1476 2.63971 2.1476C2.62553 2.1476 2.61403 2.15843 2.61403 2.17179C2.61403 2.18515 2.62553 2.19599 2.63971 2.19599ZM2.72252 2.35206C2.7367 2.35206 2.74819 2.34123 2.74819 2.32787C2.74819 2.31451 2.7367 2.30368 2.72252 2.30368C2.70834 2.30368 2.69685 2.31451 2.69685 2.32787C2.69685 2.34123 2.70834 2.35206 2.72252 2.35206ZM2.83101 2.56198C2.83101 2.57534 2.81952 2.58617 2.80534 2.58617C2.79116 2.58617 2.77966 2.57534 2.77966 2.56198C2.77966 2.54862 2.79116 2.53779 2.80534 2.53779C2.81952 2.53779 2.83101 2.54862 2.83101 2.56198ZM3.05378 1.64972C3.06796 1.64972 3.07946 1.63889 3.07946 1.62553C3.07946 1.61217 3.06796 1.60134 3.05378 1.60134C3.03961 1.60134 3.02811 1.61217 3.02811 1.62553C3.02811 1.63889 3.03961 1.64972 3.05378 1.64972ZM3.24936 1.57294C3.26354 1.57294 3.27503 1.56211 3.27503 1.54875C3.27503 1.53539 3.26354 1.52456 3.24936 1.52456C3.23518 1.52456 3.22368 1.53539 3.22368 1.54875C3.22368 1.56211 3.23518 1.57294 3.24936 1.57294ZM3.71631 1.43227C3.73049 1.43227 3.74198 1.42144 3.74198 1.40808C3.74198 1.39472 3.73049 1.38389 3.71631 1.38389C3.70213 1.38389 3.69064 1.39472 3.69064 1.40808C3.69064 1.42144 3.70213 1.43227 3.71631 1.43227ZM3.96476 1.33757C3.97894 1.33757 3.99043 1.32674 3.99043 1.31338C3.99043 1.30002 3.97894 1.28918 3.96476 1.28918C3.95058 1.28918 3.93908 1.30002 3.93908 1.31338C3.93908 1.32674 3.95058 1.33757 3.96476 1.33757ZM4.17131 1.30729C4.18549 1.30729 4.19698 1.29645 4.19698 1.28309C4.19698 1.26973 4.18549 1.2589 4.17131 1.2589C4.15713 1.2589 4.14564 1.26973 4.14564 1.28309C4.14564 1.29645 4.15713 1.30729 4.17131 1.30729ZM4.37884 1.25953C4.39301 1.25953 4.40451 1.2487 4.40451 1.23534C4.40451 1.22198 4.39301 1.21115 4.37884 1.21115C4.36466 1.21115 4.35316 1.22198 4.35316 1.23534C4.35316 1.2487 4.36466 1.25953 4.37884 1.25953ZM3.46786 1.8058C3.48204 1.8058 3.49354 1.79496 3.49354 1.7816C3.49354 1.76824 3.48204 1.75741 3.46786 1.75741C3.45368 1.75741 3.44219 1.76824 3.44219 1.7816C3.44219 1.79496 3.45368 1.8058 3.46786 1.8058ZM3.55068 2.03991C3.56486 2.03991 3.57635 2.02908 3.57635 2.01572C3.57635 2.00236 3.56486 1.99153 3.55068 1.99153C3.5365 1.99153 3.52501 2.00236 3.52501 2.01572C3.52501 2.02908 3.5365 2.03991 3.55068 2.03991ZM3.63349 2.19599C3.64767 2.19599 3.65917 2.18515 3.65917 2.17179C3.65917 2.15843 3.64767 2.1476 3.63349 2.1476C3.61932 2.1476 3.60782 2.15843 3.60782 2.17179C3.60782 2.18515 3.61932 2.19599 3.63349 2.19599ZM3.71631 2.35206C3.73049 2.35206 3.74198 2.34123 3.74198 2.32787C3.74198 2.31451 3.73049 2.30368 3.71631 2.30368C3.70213 2.30368 3.69064 2.31451 3.69064 2.32787C3.69064 2.34123 3.70213 2.35206 3.71631 2.35206ZM7.3602 2.58617C7.37438 2.58617 7.38588 2.57534 7.38588 2.56198C7.38588 2.54862 7.37438 2.53779 7.3602 2.53779C7.34602 2.53779 7.33453 2.54862 7.33453 2.56198C7.33453 2.57534 7.34602 2.58617 7.3602 2.58617ZM7.22024 2.56198C7.22024 2.63482 7.28291 2.69387 7.3602 2.69387C7.4375 2.69387 7.50016 2.63482 7.50016 2.56198C7.50016 2.52069 7.48003 2.48384 7.4485 2.45965C7.52326 2.45694 7.58298 2.39898 7.58298 2.32787C7.58298 2.31619 7.58137 2.30487 7.57834 2.29408C7.62962 2.27451 7.66579 2.22713 7.66579 2.17179C7.66579 2.16011 7.66418 2.14879 7.66116 2.13801C7.71244 2.11844 7.74861 2.07106 7.74861 2.01572C7.74861 1.94288 7.68595 1.88383 7.60865 1.88383C7.59885 1.88383 7.58928 1.88478 7.58005 1.88659C7.58197 1.87789 7.58298 1.86888 7.58298 1.85964C7.58298 1.7868 7.52032 1.72776 7.44302 1.72776C7.43424 1.72776 7.42566 1.72852 7.41733 1.72997C7.41615 1.6581 7.35395 1.60017 7.27739 1.60017C7.26789 1.60017 7.25861 1.60106 7.24964 1.60276C7.23819 1.54077 7.18081 1.49364 7.11175 1.49364C7.08926 1.49364 7.068 1.49865 7.04917 1.50753C7.0308 1.45488 6.9782 1.41686 6.91618 1.41686C6.8857 1.41686 6.8575 1.42604 6.83452 1.44163C6.82096 1.38215 6.76484 1.33757 6.69768 1.33757C6.65299 1.33757 6.6132 1.3573 6.58758 1.38802C6.57732 1.3247 6.51929 1.2762 6.44923 1.2762C6.40514 1.2762 6.36582 1.2954 6.34016 1.32542C6.34055 1.32145 6.34074 1.31744 6.34074 1.31338C6.34074 1.24054 6.27808 1.18149 6.20078 1.18149C6.167 1.18149 6.13601 1.19277 6.11183 1.21155C6.0869 1.17524 6.04354 1.15121 5.99423 1.15121C5.96348 1.15121 5.93504 1.16056 5.91194 1.1764C5.88898 1.13315 5.84152 1.10345 5.7867 1.10345C5.70941 1.10345 5.64674 1.1625 5.64674 1.23534C5.64674 1.30818 5.70941 1.36722 5.7867 1.36722C5.81746 1.36722 5.84589 1.35788 5.86899 1.34203C5.89196 1.38528 5.93941 1.41498 5.99423 1.41498C6.02801 1.41498 6.059 1.4037 6.08319 1.38492C6.10812 1.42123 6.15147 1.44526 6.20078 1.44526C6.24487 1.44526 6.28419 1.42605 6.30985 1.39604C6.30947 1.4 6.30927 1.40402 6.30927 1.40808C6.30927 1.48092 6.37193 1.53996 6.44923 1.53996C6.49391 1.53996 6.5337 1.52023 6.55933 1.48951C6.5628 1.51098 6.57177 1.53074 6.58484 1.54749C6.56779 1.56934 6.55772 1.59633 6.55772 1.62553C6.55772 1.65473 6.56779 1.68171 6.58484 1.70357C6.56779 1.72542 6.55772 1.7524 6.55772 1.7816C6.55772 1.82289 6.57785 1.85975 6.60938 1.88393C6.53462 1.88665 6.4749 1.94461 6.4749 2.01572C6.4749 2.0274 6.47651 2.03872 6.47954 2.0495C6.42826 2.06907 6.39209 2.11645 6.39209 2.17179C6.39209 2.18347 6.3937 2.1948 6.39672 2.20558C6.34544 2.22515 6.30927 2.27253 6.30927 2.32787C6.30927 2.40071 6.37193 2.45975 6.44923 2.45975C6.52653 2.45975 6.58919 2.40071 6.58919 2.32787C6.58919 2.31619 6.58758 2.30487 6.58455 2.29408C6.63583 2.27451 6.672 2.22713 6.672 2.17179C6.672 2.16011 6.67039 2.14879 6.66737 2.13801C6.71865 2.11844 6.75482 2.07106 6.75482 2.01572C6.75482 1.97443 6.73468 1.93757 6.70316 1.91339C6.77792 1.91067 6.83764 1.85271 6.83764 1.7816C6.83764 1.7524 6.82756 1.72542 6.81051 1.70357C6.82154 1.68943 6.82965 1.67315 6.834 1.65551C6.85708 1.67131 6.88547 1.68063 6.91618 1.68063C6.93868 1.68063 6.95993 1.67563 6.97877 1.66674C6.99713 1.7194 7.04973 1.75741 7.11175 1.75741C7.12126 1.75741 7.13054 1.75652 7.13951 1.75482C7.15095 1.81681 7.20833 1.86394 7.27739 1.86394C7.28616 1.86394 7.29475 1.86318 7.30308 1.86172C7.30426 1.9336 7.36646 1.99153 7.44302 1.99153C7.45282 1.99153 7.46238 1.99058 7.47161 1.98877C7.4697 1.99747 7.46869 2.00648 7.46869 2.01572C7.46869 2.0274 7.4703 2.03872 7.47333 2.0495C7.42205 2.06907 7.38588 2.11645 7.38588 2.17179C7.38588 2.18347 7.38749 2.1948 7.39051 2.20558C7.33923 2.22515 7.30306 2.27253 7.30306 2.32787C7.30306 2.36916 7.32319 2.40602 7.35472 2.4302C7.27996 2.43291 7.22024 2.49088 7.22024 2.56198ZM6.77934 1.57657C6.75636 1.59216 6.72816 1.60134 6.69768 1.60134C6.65137 1.60134 6.61031 1.58014 6.58484 1.54749C6.61031 1.51484 6.65137 1.49364 6.69768 1.49364C6.72838 1.49364 6.75678 1.50296 6.77986 1.51876C6.77748 1.52839 6.77622 1.53843 6.77622 1.54875C6.77622 1.55829 6.7773 1.5676 6.77934 1.57657ZM6.81051 1.54749C6.82756 1.56934 6.83764 1.59633 6.83764 1.62553C6.83764 1.63584 6.83638 1.64588 6.834 1.65551C6.8066 1.63675 6.7867 1.60886 6.77934 1.57657C6.79128 1.56847 6.80181 1.55865 6.81051 1.54749ZM6.81051 1.54749C6.80193 1.53649 6.79158 1.52679 6.77986 1.51876C6.78765 1.48719 6.80747 1.45998 6.83452 1.44163C6.83656 1.4506 6.83764 1.45991 6.83764 1.46945C6.83764 1.49865 6.82756 1.52564 6.81051 1.54749ZM6.58455 2.29408C6.56872 2.23761 6.51413 2.19599 6.44923 2.19599C6.43066 2.19599 6.41294 2.19939 6.39672 2.20558C6.41256 2.26205 6.46714 2.30368 6.53204 2.30368C6.55061 2.30368 6.56834 2.30027 6.58455 2.29408ZM6.66737 2.13801C6.65153 2.08154 6.59695 2.03991 6.53204 2.03991C6.51348 2.03991 6.49575 2.04332 6.47954 2.0495C6.49537 2.10597 6.54996 2.1476 6.61486 2.1476C6.63343 2.1476 6.65115 2.14419 6.66737 2.13801ZM6.70316 1.91339C6.67908 1.89491 6.64834 1.88383 6.61486 1.88383L6.60938 1.88393C6.63346 1.90241 6.6642 1.91349 6.69768 1.91349L6.70316 1.91339ZM6.81051 1.70357C6.78504 1.67091 6.74398 1.64972 6.69768 1.64972C6.65137 1.64972 6.61031 1.67091 6.58484 1.70357C6.61031 1.73622 6.65137 1.75741 6.69768 1.75741C6.74398 1.75741 6.78504 1.73622 6.81051 1.70357ZM5.86899 1.34203C5.90394 1.31805 5.92666 1.2792 5.92666 1.23534C5.92666 1.21416 5.92136 1.19414 5.91194 1.1764C5.87699 1.20038 5.85427 1.23924 5.85427 1.28309C5.85427 1.30428 5.85957 1.32429 5.86899 1.34203ZM6.08319 1.38492C6.11433 1.36073 6.13419 1.3241 6.13419 1.28309C6.13419 1.25672 6.12598 1.23216 6.11183 1.21155C6.08068 1.23574 6.06082 1.27237 6.06082 1.31338C6.06082 1.33975 6.06904 1.36431 6.08319 1.38492ZM6.34016 1.32542C6.33761 1.35203 6.32667 1.37636 6.30985 1.39604C6.3124 1.36943 6.32335 1.3451 6.34016 1.32542ZM6.55933 1.48951C6.57803 1.46709 6.58919 1.43881 6.58919 1.40808C6.58919 1.40126 6.58864 1.39456 6.58758 1.38802C6.56887 1.41044 6.55772 1.43872 6.55772 1.46945C6.55772 1.47627 6.55827 1.48297 6.55933 1.48951ZM6.97877 1.66674C7.02464 1.6451 7.05614 1.60039 7.05614 1.54875C7.05614 1.53435 7.05369 1.5205 7.04917 1.50753C7.00329 1.52918 6.9718 1.57389 6.9718 1.62553C6.9718 1.63992 6.97424 1.65378 6.97877 1.66674ZM7.13951 1.75482C7.20351 1.74269 7.25171 1.68941 7.25171 1.62553C7.25171 1.61777 7.251 1.61016 7.24964 1.60276C7.18563 1.6149 7.13743 1.66817 7.13743 1.73206C7.13743 1.73982 7.13814 1.74742 7.13951 1.75482ZM7.47161 1.98877C7.52597 1.97814 7.56877 1.9378 7.58005 1.88659C7.5257 1.89722 7.4829 1.93756 7.47161 1.98877ZM7.41733 1.72997L7.41735 1.73206C7.41735 1.79662 7.3681 1.85035 7.30308 1.86172L7.30306 1.85964C7.30306 1.79507 7.3523 1.74134 7.41733 1.72997ZM7.47333 2.0495C7.48954 2.04332 7.50726 2.03991 7.52583 2.03991C7.59074 2.03991 7.64532 2.08154 7.66116 2.13801C7.64494 2.14419 7.62722 2.1476 7.60865 2.1476C7.54375 2.1476 7.48916 2.10597 7.47333 2.0495ZM7.39051 2.20558C7.40672 2.19939 7.42445 2.19599 7.44302 2.19599C7.50792 2.19599 7.56251 2.23761 7.57834 2.29408C7.56213 2.30027 7.5444 2.30368 7.52583 2.30368C7.46093 2.30368 7.40635 2.26205 7.39051 2.20558ZM7.44302 2.45975C7.40954 2.45975 7.3788 2.44868 7.35472 2.4302L7.3602 2.4301C7.39368 2.4301 7.42442 2.44118 7.4485 2.45965L7.44302 2.45975ZM7.44302 2.35206C7.4572 2.35206 7.46869 2.34123 7.46869 2.32787C7.46869 2.31451 7.4572 2.30368 7.44302 2.30368C7.42884 2.30368 7.41735 2.31451 7.41735 2.32787C7.41735 2.34123 7.42884 2.35206 7.44302 2.35206ZM7.52583 2.19599C7.54001 2.19599 7.55151 2.18515 7.55151 2.17179C7.55151 2.15843 7.54001 2.1476 7.52583 2.1476C7.51166 2.1476 7.50016 2.15843 7.50016 2.17179C7.50016 2.18515 7.51166 2.19599 7.52583 2.19599ZM7.60865 2.03991C7.62283 2.03991 7.63432 2.02908 7.63432 2.01572C7.63432 2.00236 7.62283 1.99153 7.60865 1.99153C7.59447 1.99153 7.58298 2.00236 7.58298 2.01572C7.58298 2.02908 7.59447 2.03991 7.60865 2.03991ZM7.44302 1.88383C7.4572 1.88383 7.46869 1.873 7.46869 1.85964C7.46869 1.84628 7.4572 1.83545 7.44302 1.83545C7.42884 1.83545 7.41735 1.84628 7.41735 1.85964C7.41735 1.873 7.42884 1.88383 7.44302 1.88383ZM7.27739 1.75625C7.29157 1.75625 7.30306 1.74542 7.30306 1.73206C7.30306 1.71869 7.29157 1.70786 7.27739 1.70786C7.26321 1.70786 7.25171 1.71869 7.25171 1.73206C7.25171 1.74542 7.26321 1.75625 7.27739 1.75625ZM7.11176 1.64972C7.12593 1.64972 7.13743 1.63889 7.13743 1.62553C7.13743 1.61217 7.12593 1.60134 7.11176 1.60134C7.09758 1.60134 7.08608 1.61217 7.08608 1.62553C7.08608 1.63889 7.09758 1.64972 7.11176 1.64972ZM6.91618 1.57294C6.93036 1.57294 6.94185 1.56211 6.94185 1.54875C6.94185 1.53539 6.93036 1.52456 6.91618 1.52456C6.902 1.52456 6.89051 1.53539 6.89051 1.54875C6.89051 1.56211 6.902 1.57294 6.91618 1.57294ZM6.69768 1.49364C6.71186 1.49364 6.72335 1.48281 6.72335 1.46945C6.72335 1.45609 6.71186 1.44526 6.69768 1.44526C6.6835 1.44526 6.672 1.45609 6.672 1.46945C6.672 1.48281 6.6835 1.49364 6.69768 1.49364ZM6.44923 1.43227C6.46341 1.43227 6.4749 1.42144 6.4749 1.40808C6.4749 1.39472 6.46341 1.38389 6.44923 1.38389C6.43505 1.38389 6.42356 1.39472 6.42356 1.40808C6.42356 1.42144 6.43505 1.43227 6.44923 1.43227ZM6.20078 1.33757C6.21496 1.33757 6.22645 1.32674 6.22645 1.31338C6.22645 1.30002 6.21496 1.28918 6.20078 1.28918C6.1866 1.28918 6.17511 1.30002 6.17511 1.31338C6.17511 1.32674 6.1866 1.33757 6.20078 1.33757ZM5.99423 1.30729C6.00841 1.30729 6.0199 1.29645 6.0199 1.28309C6.0199 1.26973 6.00841 1.2589 5.99423 1.2589C5.98005 1.2589 5.96856 1.26973 5.96856 1.28309C5.96856 1.29645 5.98005 1.30729 5.99423 1.30729ZM5.7867 1.25953C5.80088 1.25953 5.81238 1.2487 5.81238 1.23534C5.81238 1.22198 5.80088 1.21115 5.7867 1.21115C5.77252 1.21115 5.76103 1.22198 5.76103 1.23534C5.76103 1.2487 5.77252 1.25953 5.7867 1.25953ZM6.69768 1.64972C6.71186 1.64972 6.72335 1.63889 6.72335 1.62553C6.72335 1.61217 6.71186 1.60134 6.69768 1.60134C6.6835 1.60134 6.672 1.61217 6.672 1.62553C6.672 1.63889 6.6835 1.64972 6.69768 1.64972ZM6.69768 1.8058C6.71186 1.8058 6.72335 1.79496 6.72335 1.7816C6.72335 1.76824 6.71186 1.75741 6.69768 1.75741C6.6835 1.75741 6.672 1.76824 6.672 1.7816C6.672 1.79496 6.6835 1.8058 6.69768 1.8058ZM6.61486 2.03991C6.62904 2.03991 6.64053 2.02908 6.64053 2.01572C6.64053 2.00236 6.62904 1.99153 6.61486 1.99153C6.60068 1.99153 6.58919 2.00236 6.58919 2.01572C6.58919 2.02908 6.60068 2.03991 6.61486 2.03991ZM6.53204 2.19599C6.54622 2.19599 6.55772 2.18515 6.55772 2.17179C6.55772 2.15843 6.54622 2.1476 6.53204 2.1476C6.51787 2.1476 6.50637 2.15843 6.50637 2.17179C6.50637 2.18515 6.51787 2.19599 6.53204 2.19599ZM6.44923 2.35206C6.46341 2.35206 6.4749 2.34123 6.4749 2.32787C6.4749 2.31451 6.46341 2.30368 6.44923 2.30368C6.43505 2.30368 6.42356 2.31451 6.42356 2.32787C6.42356 2.34123 6.43505 2.35206 6.44923 2.35206Z" fill="white"/>
<path fill-rule="evenodd" clip-rule="evenodd" d="M5.11035 0.460665L4.89147 0.467038L4.88695 0.808334L4.48306 0.813606L4.4849 1.02074L4.88421 1.01553L4.87907 1.40453L5.09795 1.39816L5.10305 1.01267L5.50039 1.00749L5.49855 0.80035L5.10579 0.805477L5.11035 0.460665Z" fill="#F6C540"/>
<path fill-rule="evenodd" clip-rule="evenodd" d="M2.01984 4.00299H7.96269V8.75947C7.96269 8.75947 7.78298 11.1288 4.99127 11.1288C2.19955 11.1288 2.01984 8.75947 2.01984 8.75947V4.00299Z" fill="#C51918"/>
<path fill-rule="evenodd" clip-rule="evenodd" d="M3.81347 4.16757C3.75897 4.16757 3.67509 4.20445 3.56389 4.24621C3.4527 4.28798 3.33592 4.37814 3.44991 4.46845C3.56389 4.55876 3.72707 4.75697 3.72707 4.68286C3.72707 4.60876 3.922 4.5369 3.922 4.57283C3.922 4.60876 3.86165 4.68286 4.01995 4.68286C4.17825 4.68286 4.25981 4.72694 4.0909 4.72694C3.922 4.72694 3.90364 4.79975 3.79387 4.79975C3.6841 4.79975 3.44991 4.72639 3.44991 4.68286C3.44991 4.63934 3.58553 4.89684 3.72707 4.89684C3.86861 4.89684 3.949 5.02213 4.01995 4.95949C4.0909 4.89684 4.08251 4.89684 4.19713 4.89684C4.31176 4.89684 4.26992 4.64385 4.26992 4.64385C4.26992 4.64385 3.86796 4.16757 3.81347 4.16757Z" fill="#E8AA00"/>
<path fill-rule="evenodd" clip-rule="evenodd" d="M6.10688 4.16757C6.16138 4.16757 6.24526 4.20445 6.35646 4.24621C6.46765 4.28798 6.58442 4.37814 6.47044 4.46845C6.35646 4.55876 6.19328 4.75697 6.19328 4.68286C6.19328 4.60876 5.99835 4.5369 5.99835 4.57283C5.99835 4.60876 6.0587 4.68286 5.9004 4.68286C5.7421 4.68286 5.66054 4.72694 5.82945 4.72694C5.99835 4.72694 6.01671 4.79975 6.12648 4.79975C6.23625 4.79975 6.47044 4.72639 6.47044 4.68286C6.47044 4.63934 6.33482 4.89684 6.19328 4.89684C6.05174 4.89684 5.97135 5.02213 5.9004 4.95949C5.82945 4.89684 5.83784 4.89684 5.72322 4.89684C5.60859 4.89684 5.65042 4.64385 5.65042 4.64385C5.65042 4.64385 6.05239 4.16757 6.10688 4.16757Z" fill="#E8AA00"/>
<path fill-rule="evenodd" clip-rule="evenodd" d="M6.83535 4.68468C6.94927 4.93502 6.07617 5.86499 6.07617 5.86499H5.97841C5.93733 5.86499 5.86092 5.76974 5.76866 5.65473C5.70543 5.5759 5.63475 5.4878 5.5629 5.41471C5.42773 5.27722 5.49937 5.16172 5.56615 5.05405C5.58666 5.02098 5.60672 4.98864 5.62018 4.95663C5.64934 4.88729 5.65349 4.85963 5.65823 4.82803C5.6628 4.79755 5.66792 4.7634 5.69656 4.68468C5.73864 4.56899 5.88534 4.41973 5.98706 4.31623C6.02634 4.27626 6.05892 4.24312 6.07617 4.22137C6.13063 4.15271 6.08931 4.15311 5.97562 4.15421C5.96002 4.15436 5.94306 4.15452 5.9248 4.15452C5.77343 4.15452 5.48428 4.22137 5.39785 4.29945C5.31142 4.37752 5.22079 4.39417 5.08762 4.39417C4.95445 4.39417 5.03659 4.47868 5.15787 4.53575C5.02729 4.55927 4.94357 4.76439 4.89439 4.94651C4.86756 4.76439 4.80836 4.55927 4.67778 4.53575C4.79906 4.47868 4.8812 4.39417 4.74803 4.39417C4.61486 4.39417 4.52423 4.37752 4.4378 4.29945C4.35137 4.22137 4.06222 4.15452 3.91085 4.15452C3.89259 4.15452 3.87563 4.15436 3.86003 4.15421C3.74634 4.15311 3.70502 4.15271 3.75948 4.22137C3.77674 4.24312 3.80931 4.27626 3.84859 4.31623C3.95031 4.41973 4.09702 4.56899 4.13909 4.68468C4.16773 4.7634 4.17285 4.79755 4.17742 4.82803C4.18216 4.85963 4.18631 4.88729 4.21547 4.95663C4.22893 4.98864 4.24899 5.02098 4.2695 5.05405C4.33628 5.16172 4.40792 5.27722 4.27275 5.41471C4.2009 5.4878 4.13023 5.5759 4.06699 5.65473C3.97473 5.76974 3.89833 5.86499 3.85724 5.86499H3.75948C3.75948 5.86499 2.88638 4.93502 3.0003 4.68468C3.04434 4.58792 3.11536 4.49674 3.17414 4.42128C3.26742 4.30152 3.32985 4.22137 3.20455 4.22137C3.0003 4.22137 2.1861 4.70787 2.1861 5.80484C2.1861 6.9018 2.26131 7.52569 2.43589 7.96277C2.55502 8.26105 2.4459 8.55072 2.36457 8.7666C2.32672 8.86707 2.29489 8.95155 2.29489 9.01349C2.29489 9.20852 2.61547 9.03763 2.61547 8.9155C2.61547 8.85741 2.65936 8.94391 2.7054 9.03464C2.75616 9.13467 2.80953 9.23983 2.80953 9.16197C2.80953 9.07889 2.86064 8.99115 2.90566 8.91386C2.94111 8.853 2.97279 8.79862 2.97279 8.75808C2.97279 8.71754 3.01776 8.71905 3.06808 8.72073C3.132 8.72286 3.20455 8.72528 3.20455 8.64221C3.20455 8.58616 3.22764 8.57497 3.25638 8.56103C3.30377 8.53805 3.36655 8.50761 3.36655 8.25627C3.36655 8.06998 3.40613 8.13598 3.45153 8.21169C3.49331 8.28136 3.54003 8.35926 3.56536 8.25627C3.56782 8.24624 3.59405 8.20305 3.62647 8.14965C3.67366 8.07194 3.73397 7.97262 3.75326 7.92245C3.69379 8.14186 3.5511 8.37049 3.46049 8.4794C3.36655 8.59233 3.20455 8.83747 3.20455 8.83747C3.20455 8.83747 3.35563 8.91685 3.46049 8.83747C3.51906 8.79313 3.52302 8.83485 3.52733 8.88032C3.53073 8.91626 3.53436 8.95455 3.56536 8.95455C3.58482 8.95455 3.60314 8.95755 3.61946 8.96021C3.63153 8.96219 3.6425 8.96398 3.65203 8.96425C3.61703 9.04827 3.58563 9.18264 3.69094 9.09286C3.76615 9.02875 3.81889 9.00273 3.85383 8.9855C3.89426 8.96555 3.91085 8.95736 3.91085 8.9155C3.91085 8.87372 3.92728 8.88787 3.95301 8.91004C3.97535 8.92928 4.00469 8.95455 4.03639 8.95455C4.07723 8.95455 4.08574 8.90095 4.09811 8.823C4.1064 8.77074 4.11643 8.70755 4.13909 8.64221C4.14437 8.62699 4.14934 8.61236 4.15404 8.59848C4.19964 8.46399 4.22091 8.40127 4.27275 8.57093C4.29698 8.65022 4.33978 8.70635 4.37704 8.75524C4.42775 8.82175 4.46822 8.87484 4.4378 8.95455C4.42589 8.98576 4.41095 9.02103 4.39496 9.05878C4.34007 9.18835 4.27275 9.34726 4.27275 9.47238C4.27275 9.54678 4.20089 9.64817 4.13335 9.74345C4.05419 9.85515 3.98097 9.95846 4.03639 10.0001C4.13909 10.0772 4.01481 10.3369 3.91085 10.4701C3.80689 10.6033 4.67778 10.9091 4.82986 10.9091C4.83202 10.9091 4.83413 10.9079 4.83621 10.9057V10.9091C4.83621 10.9091 5.9248 10.8593 5.9248 10.4701C5.82084 10.3369 5.69656 10.0772 5.79926 10.0001C5.85469 9.95846 5.78146 9.85515 5.7023 9.74345C5.63476 9.64817 5.5629 9.54678 5.5629 9.47238C5.5629 9.34726 5.49558 9.18835 5.44069 9.05878C5.4247 9.02103 5.40976 8.98576 5.39785 8.95455C5.36743 8.87484 5.40791 8.82175 5.45861 8.75524C5.49587 8.70635 5.53867 8.65022 5.5629 8.57093C5.61474 8.40127 5.63601 8.46399 5.68161 8.59848C5.68631 8.61236 5.69128 8.62699 5.69656 8.64221C5.71923 8.70755 5.72925 8.77074 5.73754 8.823C5.74991 8.90095 5.75842 8.95455 5.79926 8.95455C5.83096 8.95455 5.8603 8.92928 5.88264 8.91004C5.90837 8.88787 5.9248 8.87372 5.9248 8.9155C5.9248 8.95736 5.94139 8.96555 5.98183 8.9855C6.01676 9.00273 6.0695 9.02875 6.14471 9.09286C6.25003 9.18264 6.21863 9.04827 6.18362 8.96425C6.19315 8.96398 6.20412 8.96219 6.21619 8.96021C6.23251 8.95755 6.25084 8.95455 6.2703 8.95455C6.30129 8.95455 6.30492 8.91626 6.30832 8.88032C6.31263 8.83485 6.31659 8.79313 6.37516 8.83747C6.48002 8.91685 6.6311 8.83747 6.6311 8.83747C6.6311 8.83747 6.4691 8.59233 6.37516 8.4794C6.28455 8.37049 6.14186 8.14186 6.08239 7.92246C6.10168 7.97262 6.16199 8.07194 6.20918 8.14965C6.2416 8.20305 6.26783 8.24624 6.2703 8.25627C6.29562 8.35926 6.34234 8.28136 6.38412 8.21169C6.42952 8.13598 6.4691 8.06998 6.4691 8.25627C6.4691 8.50761 6.53188 8.53805 6.57927 8.56103C6.60801 8.57497 6.6311 8.58616 6.6311 8.64221C6.6311 8.72528 6.70365 8.72286 6.76757 8.72073C6.81789 8.71905 6.86286 8.71754 6.86286 8.75808C6.86286 8.79862 6.89454 8.853 6.92999 8.91386C6.97501 8.99115 7.02612 9.07889 7.02612 9.16197C7.02612 9.23983 7.07949 9.13467 7.13025 9.03464C7.17629 8.94391 7.22018 8.85741 7.22018 8.9155C7.22018 9.03763 7.54076 9.20852 7.54076 9.01349C7.54076 8.95155 7.50893 8.86707 7.47108 8.7666C7.38975 8.55072 7.28063 8.26105 7.39976 7.96277C7.57435 7.52569 7.64955 6.9018 7.64955 5.80484C7.64955 4.70787 6.83535 4.22137 6.6311 4.22137C6.5058 4.22137 6.56823 4.30152 6.66152 4.42128C6.72029 4.49674 6.79131 4.58792 6.83535 4.68468ZM6.07617 7.89826C6.07813 7.90631 6.0802 7.91438 6.08239 7.92246C6.0784 7.91208 6.07617 7.90381 6.07617 7.89826ZM6.14471 8.9155C6.14471 8.88812 6.16469 8.91883 6.18362 8.96425C6.15955 8.96493 6.14471 8.9559 6.14471 8.9155ZM3.65203 8.96425C3.6761 8.96493 3.69094 8.9559 3.69094 8.9155C3.69094 8.88812 3.67096 8.91883 3.65203 8.96425ZM3.75326 7.92245C3.75725 7.91208 3.75948 7.90381 3.75948 7.89826C3.75752 7.90631 3.75545 7.91438 3.75326 7.92245Z" fill="#F7FCFF"/>
<path fill-rule="evenodd" clip-rule="evenodd" d="M3.88397 5.94156H6.09855V7.59091C6.09855 7.59091 5.86081 8.41249 4.99126 8.41249C4.12171 8.41249 3.88397 7.59091 3.88397 7.59091V5.94156Z" fill="#C51918"/>
<path fill-rule="evenodd" clip-rule="evenodd" d="M5.28983 5.9176H4.71012V6.86446H3.88196V7.20263H4.71012V8.42002H5.28983V7.20263H6.11798V6.86446H5.28983V5.9176Z" fill="#F7FCFF"/>
<path fill-rule="evenodd" clip-rule="evenodd" d="M3.43681 9.66349C3.70597 9.35386 3.95823 9.07849 3.73379 8.88339C3.50936 8.68829 3.24141 8.85742 2.97224 9.16705C2.70308 9.47668 2.53464 9.80957 2.75908 10.0047C2.98352 10.1998 3.16765 9.97312 3.43681 9.66349Z" fill="#E8AA00"/>
<path fill-rule="evenodd" clip-rule="evenodd" d="M6.36788 9.66349C6.09872 9.35386 5.84645 9.07849 6.07089 8.88339C6.29533 8.68829 6.56328 8.85742 6.83244 9.16705C7.1016 9.47668 7.27005 9.80957 7.04561 10.0047C6.82117 10.1998 6.63704 9.97312 6.36788 9.66349Z" fill="#E8AA00"/>
</g>
</g>
<defs>
<clipPath id="clip0_270_55095">
<rect width="16" height="12" fill="white"/>
</clipPath>
</defs>
</svg>
