<svg xmlns="http://www.w3.org/2000/svg" xmlns:xlink="http://www.w3.org/1999/xlink" width="16" height="12" viewBox="0 0 16 12">
  <defs>
    <rect id="a" width="16" height="12"/>
    <rect id="c" width="16" height="12"/>
  </defs>
  <g fill="none" fill-rule="evenodd">
    <mask id="b" fill="white">
      <use xlink:href="#a"/>
    </mask>
    <g mask="url(#b)">
      <mask id="d" fill="white">
        <use xlink:href="#c"/>
      </mask>
      <use fill="#FECA00" xlink:href="#c"/>
      <rect width="16" height="7" fill="#3CA5D9" mask="url(#d)"/>
      <rect width="16" height="3" y="9" fill="#5A962A" mask="url(#d)"/>
      <g fill="#FFDC17" mask="url(#d)">
        <path d="M3.94828295,4.93295884 L3.64604303,5.91988446 L3.58212267,4.89188889 C3.55150259,4.88557553 3.52114073,4.87856736 3.49105477,4.87088184 L2.96769395,5.76085452 L3.1449017,4.74749393 C3.11637283,4.73424499 3.08821413,4.72034684 3.0604451,4.70581873 L2.34470637,5.45136799 L2.75286624,4.50696801 C2.72800561,4.48744274 2.70362848,4.46734257 2.67975545,4.44668784 L1.8106657,5.00810936 L2.42690567,4.18374151 C2.40702109,4.15884086 2.38773288,4.13345394 2.36906232,4.10760176 L1.39436221,4.45497482 L2.18455579,3.79476491 C2.17086528,3.76567255 2.15787382,3.73619419 2.14560274,3.70635091 L1.11823892,3.821784 L2.03986473,3.36022327 C2.03336548,3.32861182 2.02763381,3.29672499 2.02268978,3.2645826 L0.997181732,3.14267238 L2.0009949,2.90392975 C2.00203157,2.87127049 2.00387434,2.83881199 2.0065042,2.806573 L1.03771685,2.45425104 L2.06916921,2.45093416 C2.07784806,2.41930449 2.08730581,2.38799127 2.09752086,2.35701583 L1.23765903,1.79363296 L2.24224424,2.02573532 C2.25808332,1.99707388 2.27462351,1.96884475 2.29184204,1.94107041 L1.58622932,1.19643222 L2.51038122,1.65181523 C2.5323476,1.62769605 2.55490929,1.60411645 2.57804344,1.581099 L2.06463622,0.694844076 L2.85817961,1.34915562 C2.88504331,1.33076381 2.91238725,1.31300817 2.9401891,1.29591076 L2.64708868,0.315909273 L3.26703896,1.13405913 C3.2973206,1.12237827 3.32796275,1.11140858 3.35894436,1.10117086 L3.30218655,0.0800562819 L3.71518516,1.01871973 C3.7470659,1.01435551 3.77918794,1.01073694 3.81153263,1.00788242 L3.99461332,2.84217094e-14 L4.17781393,1.00854259 C4.20997983,1.01149914 4.24192368,1.01521153 4.27362708,1.01966158 L4.68704009,0.0800562819 L4.63015146,1.10352434 C4.66062259,1.11372005 4.69076268,1.12462464 4.72055162,1.13621825 L5.34213796,0.315909273 L5.04791389,1.2996678 C5.07497787,1.31644536 5.10160428,1.33384818 5.12777236,1.35185573 L5.92459042,0.694844076 L5.40854212,1.58565809 C5.43086186,1.60800966 5.45264382,1.63088653 5.47386729,1.65426825 L6.40299732,1.19643222 L5.6930217,1.94567461 C5.70951323,1.97244083 5.72537588,1.99962676 5.74058938,2.02721238 L6.75156761,1.79363296 L5.88577437,2.3609021 C5.89549924,2.39060215 5.90452831,2.42061135 5.91284261,2.45091096 L6.95150979,2.45425104 L5.97572004,2.80911958 C5.97819466,2.83995236 5.97994941,2.87098534 5.98096768,2.9022021 L6.99204491,3.14267238 L5.95919393,3.26545551 C5.95445167,3.29619302 5.94898909,3.32669658 5.94282371,3.35694887 L6.87098772,3.821784 L5.83673358,3.70557672 C5.8249763,3.73420554 5.8125562,3.76249884 5.79949208,3.79043803 L6.59486444,4.45497482 L5.61442985,4.10555806 C5.59646464,4.13050063 5.57792504,4.15501144 5.55883013,4.17907167 L6.17856094,5.00810936 L5.30534052,4.44401947 C5.28220628,4.46411773 5.2585961,4.48369416 5.23452884,4.50273013 L5.64452027,5.45136799 L4.9263662,4.70330279 C4.89920676,4.71760602 4.87167227,4.73130576 4.84378108,4.74438389 L5.02153269,5.76085452 L4.4972249,4.86927152 C4.46748191,4.87697214 4.43746739,4.88401026 4.40719848,4.89036894 L4.34318361,5.91988446 L4.04089426,4.93279745 C4.02431535,4.93320017 4.00768617,4.93340271 3.99100909,4.93340271 C3.97673144,4.93340271 3.9624889,4.93325426 3.94828295,4.93295884 Z M3.97300819,4.20741749 C4.67330859,4.20741749 5.24101424,3.6479641 5.24101424,2.95784338 C5.24101424,2.26772265 4.67330859,1.70826927 3.97300819,1.70826927 C3.27270778,1.70826927 2.70500214,2.26772265 2.70500214,2.95784338 C2.70500214,3.6479641 3.27270778,4.20741749 3.97300819,4.20741749 Z M3.98770034,3.70903998 C3.59302881,3.70903998 3.27308432,3.38909549 3.27308432,2.99442396 C3.27308432,2.59975243 3.59302881,2.27980794 3.98770034,2.27980794 C4.38237187,2.27980794 4.70231636,2.59975243 4.70231636,2.99442396 C4.70231636,3.38909549 4.38237187,3.70903998 3.98770034,3.70903998 Z" transform="translate(8 1)"/>
      </g>
    </g>
  </g>
</svg>
