<svg xmlns="http://www.w3.org/2000/svg" xmlns:xlink="http://www.w3.org/1999/xlink" width="16" height="12" viewBox="0 0 16 12">
  <defs>
    <rect id="a" width="16" height="12"/>
  </defs>
  <g fill="none" fill-rule="evenodd">
    <mask id="b" fill="white">
      <use xlink:href="#a"/>
    </mask>
    <g mask="url(#b)">
      <rect width="16" height="12" fill="#67BD23"/>
      <g stroke="#FFFFFF" transform="translate(3 2)">
        <path stroke-width=".5" d="M0.490858014,0.287756985 C0.661088654,1.06419785 0.661088654,1.37796056 0.490858014,1.22904513 C0.235512054,1.00567197 -0.331814291,1.8569343 0.260828406,1.54298971 C0.853471102,1.22904513 0.95779193,0.903642711 0.95779193,1.54298971 C0.95779193,2.18233671 1.2411823,1.85704342 0.751005351,2.33227062 C0.260828406,2.80749782 2.46902535,2.81491813 1.47994168,3.11238527 C0.490858014,3.4098524 0.0220690207,4.04407065 0.751005351,3.8108765 C1.47994168,3.57768235 2.65344188,2.58999896 2.34713585,2.33227062 C2.04082982,2.07454229 2.19141846,2.12733912 2.19141846,1.54298971 C2.19141846,0.958640302 1.99696269,0.807942537 1.74347181,0.657026527 C1.48998092,0.506110518 2.7297183,1.67775563 3.14394619,0.98275631 C3.55817408,0.287756985 3.50830523,0.736467493 3.80773656,0.98275631 C4.10716789,1.22904513 4.57344708,1.52629401 4.57344708,0.98275631 C4.57344708,0.439218606 5.18824158,-0.609554908 5.18824158,0.466717402 C5.18824158,1.54298971 5.95991726,2.09940384 5.95991726,1.37821518 C5.95991726,0.657026527 6.66957552,-0.0493215068 6.66957552,0.466717402 C6.66957552,0.98275631 7.07703783,0.958858547 7.42524679,0.807942537 C7.77345574,0.657026527 7.74399275,0.258839601 7.74399275,1.37821518 C7.74399275,2.49759076 7.88988914,4.24691946 7.42524679,4.09944549 C6.96060444,3.95197151 7.39491081,3.28632606 6.95984058,2.33227062 C6.52477035,1.37821518 7.4032041,1.37483239 6.49530735,2.59285445 C5.58741061,3.8108765 5.73159294,3.63191608 5.45991726,3.11238527 C5.18824158,2.59285445 6.34638744,2.0716868 5.45991726,2.33227062 C4.57344708,2.59285445 5.05533073,4.05149096 4.81438891,3.58193811 C4.57344708,3.11238527 3.95796571,0.6180699 3.88285113,1.86522758 C3.80773656,3.11238527 4.11940503,3.8108765 3.45991726,3.8108765 C2.80042949,3.8108765 2.24259677,3.86129096 2.69327148,3.58193811 C2.99372129,3.39570288 3.14394619,2.97914705 3.14394619,2.33227062"/>
        <path fill="#FFFFFF" stroke-width=".1" d="M0.891753064,5.82054281 C1.5055556,5.96862443 3.56024576,5.97706084 3.96684978,5.92782571 C4.3734538,5.87859058 7.45750565,5.92782571 7.55669571,5.92782571 C7.51399859,5.89163097 7.49265003,5.85587 7.49265003,5.82054281 C7.49265003,5.76755202 7.53802803,5.69807529 7.62301909,5.69807529 C7.70801015,5.69807529 7.81011064,5.71325991 7.81011064,5.82054281 C7.81011064,5.92782571 7.65447597,5.97128759 7.73229331,5.97128759 C7.81011064,5.97128759 8.14021333,6.06487243 8.3119379,6.01808001 C8.48366248,5.97128759 9.0087817,6.556113 9.0087817,7.00269968 C9.0087817,7.44928635 8.84698304,6.79852443 8.76015684,6.79852443 C8.67333064,6.79852443 8.80904979,7.44426836 8.51733674,7.44426836 C8.22562369,7.44426836 8.37644858,7.33822635 8.10166835,7.44426836 C7.82688813,7.55031038 7.32253777,7.57805489 7.25474882,7.55031038 C7.18695988,7.52256586 7.03316095,7.22758904 7.06237373,7.09025176 C7.09158651,6.95291447 7.1228951,6.88459216 6.93652648,6.88459216 C6.75015786,6.88459216 5.1891327,6.74571265 4.21946891,6.79852443 C3.24980512,6.85133621 2.19646248,6.9178481 1.95290796,6.88459216 C1.70935344,6.85133621 1.01082016,6.70693451 0.921836303,6.56280862 C0.832852447,6.41868274 0.754236671,5.79154078 0.891753064,5.82054281 Z M7.61698488,6.68705454 C7.40653656,6.94643158 7.39692751,6.85884724 7.50695619,6.85884724 C7.61698488,6.85884724 7.76375607,6.97691491 7.79661204,6.97691491 C7.829468,6.97691491 7.88111667,6.89101856 7.95155805,6.89101856 C8.02199943,6.89101856 8.05437995,6.97691491 8.1226693,6.97691491 C8.19095866,6.97691491 8.42534666,6.85884724 8.3241513,6.77295089 C8.22295593,6.68705454 8.06733428,6.68705454 7.94952326,6.68705454 C7.83171224,6.68705454 7.8274332,6.42767749 7.61698488,6.68705454 Z"/>
        <path stroke-width=".5" d="M10.1161241,0.372728024 C10.6541693,2.79090934 10.6541693,4 10.1161241,4 C9.30905625,4 9.30905625,3.68360485 9.30905625,3.68360485 C9.89991662,3.95531914 10.1136506,3.73591076 9.95025833,3.02537971 C9.70516985,1.95958313 9.47644971,2.69332084 9.47644971,1.75607022 C9.47644971,0.818819599 9.30905625,0.190057453 9.30905625,0.669322178 C9.30905625,1.1485869 9.19796984,4.04359901 8.76017156,3.4513928 C8.32237327,2.85918659 8.42876742,1.02527881 8.42876742,0.847300495"/>
      </g>
    </g>
  </g>
</svg>
