<svg xmlns="http://www.w3.org/2000/svg" xmlns:xlink="http://www.w3.org/1999/xlink" width="16" height="12" viewBox="0 0 16 12">
  <defs>
    <rect id="a" width="16" height="12"/>
    <rect id="c" width="16" height="12"/>
  </defs>
  <g fill="none" fill-rule="evenodd">
    <mask id="b" fill="white">
      <use xlink:href="#a"/>
    </mask>
    <g mask="url(#b)">
      <mask id="d" fill="white">
        <use xlink:href="#c"/>
      </mask>
      <use fill="#3D58DB" xlink:href="#c"/>
      <polygon fill="#579D20" points="0 12 16 12 16 0" mask="url(#d)"/>
      <polygon fill="#FECA00" fill-rule="nonzero" points="-.391 12.373 -1.293 11.125 16.838 -.977 17.739 .271" mask="url(#d)"/>
      <g fill="#F7FCFF" mask="url(#d)">
        <g transform="translate(1 1)">
          <path d="M1.50842509,1.80038803 L0.826640358,2.27328695 L1.04449569,1.4633236 L0.543995044,0.945918387 L1.22170095,0.917941885 L1.50842509,0.117008432 L1.79514922,0.917941885 L2.4717021,0.917941885 L1.97235448,1.4633236 L2.22243571,2.22548091 L1.50842509,1.80038803 Z M4.33751467,1.80038803 L3.65572994,2.27328695 L3.87358527,1.4633236 L3.37308463,0.945918387 L4.05079053,0.917941885 L4.33751467,0.117008432 L4.6242388,0.917941885 L5.30079168,0.917941885 L4.80144406,1.4633236 L5.05152529,2.22548091 L4.33751467,1.80038803 Z"/>
          <path d="M1.50842509,4.80038803 L0.826640358,5.27328695 L1.04449569,4.4633236 L0.543995044,3.94591839 L1.22170095,3.91794189 L1.50842509,3.11700843 L1.79514922,3.91794189 L2.4717021,3.91794189 L1.97235448,4.4633236 L2.22243571,5.22548091 L1.50842509,4.80038803 Z M4.33751467,4.80038803 L3.65572994,5.27328695 L3.87358527,4.4633236 L3.37308463,3.94591839 L4.05079053,3.91794189 L4.33751467,3.11700843 L4.6242388,3.91794189 L5.30079168,3.91794189 L4.80144406,4.4633236 L5.05152529,5.22548091 L4.33751467,4.80038803 Z M3.00577786,3.25437268 L2.32399314,3.72727159 L2.54184847,2.91730824 L2.04134782,2.39990303 L2.71905373,2.37192653 L3.00577786,1.57099308 L3.292502,2.37192653 L3.96905488,2.37192653 L3.46970726,2.91730824 L3.71978849,3.67946556 L3.00577786,3.25437268 Z"/>
        </g>
      </g>
    </g>
  </g>
</svg>
