<svg xmlns="http://www.w3.org/2000/svg" xmlns:xlink="http://www.w3.org/1999/xlink" width="16" height="12" viewBox="0 0 16 12">
  <defs>
    <rect id="a" width="16" height="12"/>
    <rect id="c" width="16" height="12"/>
  </defs>
  <g fill="none" fill-rule="evenodd">
    <mask id="b" fill="white">
      <use xlink:href="#a"/>
    </mask>
    <g mask="url(#b)">
      <mask id="d" fill="white">
        <use xlink:href="#c"/>
      </mask>
      <use fill="#F7FCFF" xlink:href="#c"/>
      <rect width="16" height="6" fill="#E31D1C" mask="url(#d)"/>
      <path fill="#F1F9FF" d="M3.02135811,3.18701447 C3.02135811,4.7265517 4.43420315,5.29479429 4.43420315,5.29479429 C3.72000303,5.69229732 1.92547899,5.29479429 1.92547899,3.18701447 C1.92547899,1.07923465 3.74753478,0.923754939 4.43420315,1.09758915 C4.43420315,1.09758915 3.02135811,1.64747723 3.02135811,3.18701447 Z M5.20150151,4.79563574 L4.7961894,5.04032208 L4.88863853,4.56284113 L4.55111275,4.20549359 L5.00814155,4.18617153 L5.20150151,3.74032213 L5.39486147,4.18617153 L5.8511127,4.18617153 L5.5143645,4.56284113 L5.61574566,5.04032208 L5.20150151,4.79563574 Z M6.67465105,4.76831262 L6.26933893,5.01299897 L6.36178806,4.53551801 L6.02426229,4.17817047 L6.48129109,4.15884842 L6.67465105,3.71299901 L6.86801101,4.15884842 L7.32426224,4.15884842 L6.98751404,4.53551801 L7.0888952,5.01299897 L6.67465105,4.76831262 Z M6.04889058,2.64025748 L5.64357846,2.88494382 L5.73602759,2.40746287 L5.39850181,2.05011533 L5.85553062,2.03079327 L6.04889058,1.58494387 L6.24225054,2.03079327 L6.69850176,2.03079327 L6.36175356,2.40746287 L6.46313473,2.88494382 L6.04889058,2.64025748 Z M4.68489495,3.61133871 L4.27958283,3.85602505 L4.37203196,3.37854409 L4.03450618,3.02119656 L4.49153499,3.0018745 L4.68489495,2.5560251 L4.87825491,3.0018745 L5.33450614,3.0018745 L4.99775793,3.37854409 L5.0991391,3.85602505 L4.68489495,3.61133871 Z M7.36410147,3.58941125 L6.95878935,3.83409759 L7.05123848,3.35661663 L6.71371271,2.9992691 L7.17074151,2.97994704 L7.36410147,2.53409763 L7.55746143,2.97994704 L8.01371266,2.97994704 L7.67696446,3.35661663 L7.77834562,3.83409759 L7.36410147,3.58941125 Z" mask="url(#d)"/>
    </g>
  </g>
</svg>
