<svg xmlns="http://www.w3.org/2000/svg" xmlns:xlink="http://www.w3.org/1999/xlink" width="16" height="12" viewBox="0 0 16 12">
  <defs>
    <rect id="a" width="16" height="12"/>
    <rect id="c" width="16" height="12"/>
    <path id="e" d="M4.93673106,3.52036623 C5.02658013,2.87254285 4.98165559,1.7041463 4.80195747,0.0151765884 L0.17241434,0.0151765884 C0.0502992624,1.8261199 0.0242304362,2.99451644 0.094207862,3.52036623 C0.199174001,4.3091409 0.675727585,6.0408444 2.48904506,6.82411599 C4.21964532,6.05028795 4.80195747,4.49210129 4.93673106,3.52036623 Z"/>
  </defs>
  <g fill="none" fill-rule="evenodd">
    <mask id="b" fill="white">
      <use xlink:href="#a"/>
    </mask>
    <g mask="url(#b)">
      <mask id="d" fill="white">
        <use xlink:href="#c"/>
      </mask>
      <use fill="#3D58DB" xlink:href="#c"/>
      <rect width="16" height="4" fill="#F7FCFF" mask="url(#d)"/>
      <rect width="16" height="4" y="8" fill="#E31D1C" mask="url(#d)"/>
      <g mask="url(#d)">
        <g transform="translate(3 3)">
          <mask id="f" fill="white">
            <use xlink:href="#e"/>
          </mask>
          <path stroke="#FFFFFF" stroke-width=".5" d="M5.18436071,3.55471091 C4.98301557,5.00643542 4.13946735,6.35999328 2.59109395,7.05233962 L2.38990959,7.05362015 C0.82141641,6.37610164 0.0395730214,5.00501141 -0.153607494,3.55334424 C-0.2266012,3.00482843 -0.200319023,1.82686954 -0.0770192105,-0.00164315267 L-0.0612954574,-0.234823412 L5.0267697,-0.234823412 L5.05055438,-0.0112729087 C5.23230683,1.69700526 5.2778244,2.88082559 5.18436071,3.55471091 Z"/>
          <path fill="#F7FCFF" d="M1.93114696,0.294882474 C1.99997563,0.399755659 2.04979696,0.532373072 2.08061093,0.692734712 C2.11142491,0.853096351 2.12948819,1.02448752 2.13480077,1.2069082 L1.35276527,1.08631604 L1.35276527,1.9767865 L2.15668395,1.84926454 L2.13263709,2.78303167 C2.06453286,2.80373484 1.9485841,2.80373484 1.7847908,2.78303167 C1.62099751,2.7623285 1.37776296,2.7086112 1.05508717,2.62187977 L1.05508717,3.47207152 C1.38292049,3.36718942 1.62615504,3.30271508 1.7847908,3.27864848 C1.94342657,3.25458189 2.05937533,3.25458189 2.13263709,3.27864848 L2.14040872,4.09390936 L2.93777344,4.09390936 L2.93000181,3.27864848 C3.09729179,3.25289605 3.26929892,3.25396043 3.44602319,3.28184163 C3.62274746,3.30972283 3.79492769,3.3731328 3.96256388,3.47207152 L3.96256388,2.62187977 C3.79273209,2.70649268 3.62772434,2.75932677 3.46754064,2.78038204 C3.30735694,2.80143731 3.12817733,2.80232052 2.93000181,2.78303167 L2.95404867,1.84926454 C3.04682815,1.82630728 3.15542077,1.82327266 3.27982654,1.84016068 C3.40423232,1.85704869 3.54428876,1.90259064 3.69999588,1.9767865 L3.69999588,1.08631604 C3.54823324,1.16889679 3.4126469,1.21767717 3.29323685,1.23265718 C3.1738268,1.24763719 3.05346968,1.2390542 2.93216549,1.2069082 C2.93660182,1.01550326 2.95165794,0.849207541 2.97733384,0.708021043 C3.00300975,0.566834545 3.0522012,0.429121688 3.12490819,0.294882474 L1.93114696,0.294882474 Z" mask="url(#f)"/>
          <path fill="#2E42A5" d="M0.448666687,5.12264546 C0.595164143,4.80822262 0.787602064,4.62111793 1.02598045,4.56133139 C1.26435883,4.50154485 1.50852803,4.5950972 1.75848805,4.84198842 C1.91112174,4.34317846 2.17345581,4.09377348 2.54549027,4.09377348 C2.91752472,4.09377348 3.16882577,4.34317846 3.2993934,4.84198842 C3.45812269,4.65488373 3.65161718,4.56133139 3.87987687,4.56133139 C4.10813657,4.56133139 4.32800467,4.74843608 4.53948116,5.12264546 C3.85767875,6.36045327 3.17587634,6.97935718 2.49407393,6.97935718 C1.81227151,6.97935718 1.1304691,6.36045327 0.448666687,5.12264546 Z" mask="url(#f)"/>
        </g>
      </g>
    </g>
  </g>
</svg>
