<svg xmlns="http://www.w3.org/2000/svg" xmlns:xlink="http://www.w3.org/1999/xlink" width="16" height="12" viewBox="0 0 16 12">
  <defs>
    <rect id="a" width="16" height="12"/>
    <rect id="c" width="16" height="12"/>
  </defs>
  <g fill="none" fill-rule="evenodd">
    <mask id="b" fill="white">
      <use xlink:href="#a"/>
    </mask>
    <g mask="url(#b)">
      <mask id="d" fill="white">
        <use xlink:href="#c"/>
      </mask>
      <use fill="#F7FCFF" xlink:href="#c"/>
      <rect width="16" height="6" y="6" fill="#56C6F5" mask="url(#d)"/>
      <g mask="url(#d)">
        <g transform="translate(3.5 1)">
          <path fill="#006923" d="M1.65651907,5.20642616 C1.55326646,5.18581438 1.41592971,5.1412162 1.24450881,5.0726316 C1.06118378,4.99928423 0.830810293,4.6702768 0.553388356,4.08560931 C0.685946311,4.23749417 0.840533122,4.33347403 1.01714879,4.37354891 C1.18944693,4.41264412 1.40315728,4.67907004 1.65827982,5.17282668 C1.68284273,4.73157703 1.75566712,4.46230192 1.876753,4.36500135 C2.01792644,4.25155907 2.11479334,4.09752654 2.1673537,3.90290375 C2.17430987,4.55001319 2.11147892,4.9467122 1.97886085,5.09300078 C1.84624277,5.23928937 1.73663578,5.34383214 1.65003986,5.40662909 C1.65124339,5.33648742 1.65340312,5.26975311 1.65651907,5.20642616 Z M2.3504963,2.77499806 C2.45072059,2.69697279 2.56517986,2.61392695 2.6938741,2.52586056 C2.56459583,2.68054653 2.49398034,2.84824468 2.48202763,3.02895501 C2.47007492,3.20966533 2.22900352,3.47072055 1.75881344,3.81212066 C1.76004397,3.73780146 1.77141306,3.64281941 1.79292071,3.52717451 C1.74307922,3.56622577 1.68981546,3.60647711 1.63312943,3.64792854 C1.62509842,3.75586065 1.59660081,3.88936138 1.5476366,4.04843073 C1.57935772,4.22622623 1.58987863,4.46674225 1.57919935,4.7699788 C1.49600865,4.70273583 1.39202322,4.59259994 1.26724305,4.43957114 C1.14246287,4.28654235 1.10047965,3.88709868 1.14129338,3.24124015 C1.16572075,3.35505839 1.20560988,3.45613388 1.26096076,3.54446661 C1.31199586,3.36006583 1.39577837,3.13460294 1.51230828,2.86807792 C1.48464517,3.06776611 1.51362632,3.24740272 1.59925173,3.40698773 C1.61261694,3.43189725 1.62228548,3.46142495 1.62825736,3.49557085 C1.63960047,3.4147027 1.6575005,3.32047124 1.68195745,3.21287648 C1.72572345,3.02033442 2.0146419,2.74132912 2.54871281,2.37586056 C2.44457652,2.50046327 2.37850435,2.63350911 2.3504963,2.77499806 Z M2.87059013,7.29006148 C2.400309,7.72833871 2.05634884,7.85531266 1.83870968,7.67098333 C1.51225093,7.39448933 1.03833807,7.36767383 0.87509263,7.38108158 C0.766262336,7.39002008 0.916849003,7.31431534 1.32685263,7.15396735 L0.774349886,6.90804957 C1.60202273,6.79998818 2.12804754,6.79998818 2.35242431,6.90804957 C2.57680108,7.01611096 2.74952302,7.14344826 2.87059013,7.29006148 Z M2.16006369,6.5608106 C1.78599692,6.7000114 1.54025846,6.7000114 1.42284833,6.5608106 C1.24673314,6.3520094 0.975624395,6.1165562 0.731942993,6.1165562 C0.488261592,6.1165562 1.39372164,5.8596833 1.83870968,6.2663851 C2.13536837,6.53751963 2.24248638,6.63566146 2.16006369,6.5608106 Z M2.51100501,6.8161377 C2.39915279,6.73332939 2.26336986,6.60139566 2.10365621,6.42033651 C1.94394255,6.23927736 1.94394255,5.79916519 2.10365621,5.1 C2.13537347,5.31964731 2.24112698,5.50295925 2.42091673,5.64993583 C2.60070649,5.7969124 2.63073591,6.18564635 2.51100501,6.8161377 Z M1.80394641,5.82805792 C1.68368843,5.8346487 1.51852179,5.82134855 1.30844651,5.78815748 C1.09837123,5.75496642 0.82961899,5.45648682 0.502189802,4.8927187 C0.656078311,5.02388748 0.833908419,5.0888787 1.03568013,5.08769236 C1.23745183,5.08650601 1.49354059,5.33329454 1.80394641,5.82805792 Z"/>
          <path fill="#009933" d="M6.10672971,7.09819717 C5.91960715,6.78374468 5.91960715,6.55055944 6.10672971,6.39864143 C6.38741357,6.17076442 6.49849803,6.32233214 6.49849803,6.06034229 C6.49849803,5.79835244 6.52689498,5.87635929 6.66481182,5.74629399 C6.80272866,5.61622868 6.70502127,5.30032114 6.88971875,5.45827491 C7.07441624,5.61622868 7.108915,5.31333576 7.108915,5.94256407 C7.108915,6.57179239 7.108915,5.3718611 7.108915,5.01844561 C7.108915,4.66503011 6.88971875,4.74869549 6.88971875,4.511684 C6.88971875,4.27467252 6.6705225,3.92069117 6.88971875,3.92069117 C7.108915,3.92069117 7.23775734,4.18405523 7.23775734,4.18405523 C7.23775734,4.18405523 7.4531204,4.55113203 7.4531204,4.18405523 C7.4531204,3.81697843 7.06968341,3.92610719 6.88971875,3.52103742 C6.70975409,3.11596765 6.73819015,3.56646731 6.49849803,3.04450852 C6.25880591,2.52254973 5.97342835,2.35691653 6.23596319,2.35691653 C6.49849803,2.35691653 6.43990489,2.35691653 6.66481182,2.35691653 C6.88971875,2.35691653 7.23775734,2.17010427 7.23775734,2.35691653 C7.23775734,2.54372879 7.23775734,2.45812334 7.23775734,2.75131593 C7.23775734,3.04450852 7.4531204,3.04450852 7.4531204,3.04450852 C7.4531204,3.04450852 7.57022846,2.45812334 7.71729804,2.75131593 C7.86436761,3.04450852 7.76423513,3.52103742 7.87187755,3.52103742 C7.97951996,3.52103742 7.8904177,3.02858381 8.12549434,3.40576512 C8.36057098,3.78294643 8.12549434,4.03855022 8.12549434,4.18405523 C8.12549434,4.32956024 7.87187755,4.68604301 7.87187755,4.68604301 C7.87187755,4.68604301 7.92139619,4.86040202 8.12549434,4.68604301 C8.32959249,4.511684 8.52320802,4.337325 8.52320802,4.511684 C8.52320802,4.68604301 8.92092171,4.7402077 8.52320802,5.01844561 C8.12549434,5.29668352 8.37911113,5.57524477 8.12549434,5.57524477 C7.87187755,5.57524477 7.57306207,5.94256407 7.4531204,5.94256407 C7.33317872,5.94256407 6.88465128,6.22379292 7.108915,6.22379292 C7.33317872,6.22379292 7.56271852,5.66133523 7.71729804,5.94256407 C7.87187755,6.22379292 7.86984361,5.89689167 7.99766897,6.06034229 C8.12549434,6.22379292 8.2533197,7.11064593 8.12549434,6.75464368 C7.99766897,6.39864143 7.79732579,6.39864143 7.4531204,6.39864143 C7.108915,6.39864143 6.43990489,6.42434732 6.66481182,6.5894955 C6.88971875,6.75464368 7.14233596,6.42434732 7.23775734,6.5894955 C7.33317872,6.75464368 7.30542499,6.91979186 7.4531204,6.75464368 C7.6008158,6.5894955 7.74608612,6.75464368 7.87187755,6.75464368 C7.99766897,6.75464368 7.74608612,6.93951588 7.87187755,7.09819717 C7.99766897,7.25687846 8.27803991,7.4682649 7.99766897,7.4682649 C7.71729804,7.4682649 7.57306207,7.24410636 7.4531204,7.4682649 C7.33317872,7.69242345 7.32811126,8.0817351 7.108915,7.775 C6.88971875,7.4682649 6.49849803,7.62395526 6.49849803,7.4682649 C6.49849803,7.31257455 6.58408001,7.28743451 6.34540486,7.28743451 C6.1862881,7.28743451 6.10672971,7.2243554 6.10672971,7.09819717 Z"/>
          <path fill="#C51918" d="M2.83064516,7.05 C2.76383652,7.05 2.70967742,6.99403559 2.70967742,6.925 C2.70967742,6.85596441 2.76383652,6.8 2.83064516,6.8 C2.8974538,6.8 2.9516129,6.85596441 2.9516129,6.925 C2.9516129,6.99403559 2.8974538,7.05 2.83064516,7.05 Z M1.86290323,5.8 C1.79609459,5.8 1.74193548,5.74403559 1.74193548,5.675 C1.74193548,5.60596441 1.79609459,5.55 1.86290323,5.55 C1.92971186,5.55 1.98387097,5.60596441 1.98387097,5.675 C1.98387097,5.74403559 1.92971186,5.8 1.86290323,5.8 Z M1.66935484,4.65 C1.6025462,4.65 1.5483871,4.59403559 1.5483871,4.525 C1.5483871,4.45596441 1.6025462,4.4 1.66935484,4.4 C1.73616348,4.4 1.79032258,4.45596441 1.79032258,4.525 C1.79032258,4.59403559 1.73616348,4.65 1.66935484,4.65 Z M1.66935484,4 C1.6025462,4 1.5483871,3.94403559 1.5483871,3.875 C1.5483871,3.80596441 1.6025462,3.75 1.66935484,3.75 C1.73616348,3.75 1.79032258,3.80596441 1.79032258,3.875 C1.79032258,3.94403559 1.73616348,4 1.66935484,4 Z M7.13709677,3.85 C7.07028814,3.85 7.01612903,3.79403559 7.01612903,3.725 C7.01612903,3.65596441 7.07028814,3.6 7.13709677,3.6 C7.20390541,3.6 7.25806452,3.65596441 7.25806452,3.725 C7.25806452,3.79403559 7.20390541,3.85 7.13709677,3.85 Z M7.47580645,5.15 C7.40899781,5.15 7.35483871,5.09403559 7.35483871,5.025 C7.35483871,4.95596441 7.40899781,4.9 7.47580645,4.9 C7.54261509,4.9 7.59677419,4.95596441 7.59677419,5.025 C7.59677419,5.09403559 7.54261509,5.15 7.47580645,5.15 Z M7.08870968,6.15 C7.02190104,6.15 6.96774194,6.09403559 6.96774194,6.025 C6.96774194,5.95596441 7.02190104,5.9 7.08870968,5.9 C7.15551832,5.9 7.20967742,5.95596441 7.20967742,6.025 C7.20967742,6.09403559 7.15551832,6.15 7.08870968,6.15 Z M6.07258065,7.25 C6.00577201,7.25 5.9516129,7.19403559 5.9516129,7.125 C5.9516129,7.05596441 6.00577201,7 6.07258065,7 C6.13938928,7 6.19354839,7.05596441 6.19354839,7.125 C6.19354839,7.19403559 6.13938928,7.25 6.07258065,7.25 Z M2.87903226,7.4 C2.81222362,7.4 2.75806452,7.34403559 2.75806452,7.275 C2.75806452,7.20596441 2.81222362,7.15 2.87903226,7.15 C2.9458409,7.15 3,7.20596441 3,7.275 C3,7.34403559 2.9458409,7.4 2.87903226,7.4 Z"/>
          <path fill="#FECA00" d="M5.51889408,8.90992096 C5.51889408,8.80749981 3.96862673,7.73911045 3.55252984,7.50345633 C3.13643296,7.26780221 1.10452951,5.97079144 1.65787144,4.00011682 L1.57413316,4.00011682 C1.32448505,5.61893567 2.05966726,6.9314754 3.77967979,7.93773599 C4.56284136,8.46310416 4.97391219,8.78716582 5.01289229,8.90992096 C5.35022682,8.97820173 5.51889408,8.97820173 5.51889408,8.90992096 Z"/>
          <path fill="#FECA00" d="M7.45437795,8.90992096 C7.45437795,8.80749981 5.9041106,7.73911045 5.48801371,7.50345633 C5.07191683,7.26780221 3.04001338,5.97079144 3.59335531,4.00011682 L3.50961703,4.00011682 C3.25996893,5.61893567 3.99515114,6.9314754 5.71516366,7.93773599 C6.49832523,8.46310416 6.90939607,8.78716582 6.94837616,8.90992096 C7.28571069,8.97820173 7.45437795,8.97820173 7.45437795,8.90992096 Z" transform="matrix(-1 0 0 1 10.917 0)"/>
          <path fill="#56C6F5" d="M4.52419355,7.44283887 C5.6064935,7.44283887 6.48387097,6.04190476 6.48387097,4.675 C6.48387097,3.30809524 5.6064935,2.6 4.52419355,2.6 C3.4418936,2.6 2.56451613,3.30809524 2.56451613,4.675 C2.56451613,6.04190476 3.4418936,7.44283887 4.52419355,7.44283887 Z"/>
          <g transform="translate(3.194 3.45)">
            <path fill="#FFFFFF" d="M0.107210683,1.56363613 C0.11565966,1.40438637 0.125752464,1.21650766 0.137489095,1 L0.0983870968,1 C0.0707728593,1 0.0483870968,0.977614237 0.0483870968,0.95 C0.0483870968,0.922385763 0.0707728593,0.9 0.0983870968,0.9 L0.14291626,0.9 C0.142940874,0.899546983 0.142965494,0.89909385 0.142990121,0.898640601 C0.142990121,0.791269582 0.142990121,0.598201593 0.142990121,0.319436634 C0.142990121,-0.0987108051 0.463046126,0.0532437126 0.613949262,0.0532437126 C0.764852398,0.0532437126 0.463046126,0.319436634 0.463046126,0.319436634 C0.463046126,0.319436634 0.463046126,0.55866941 0.463046126,0.741031202 C0.463046126,0.770815977 0.464461362,0.823805577 0.467291834,0.9 L0.530645161,0.9 C0.558259399,0.9 0.580645161,0.922385763 0.580645161,0.95 C0.580645161,0.977614237 0.558259399,1 0.530645161,1 L0.471260281,1 C0.476747035,1.13147239 0.484982499,1.30801386 0.495966675,1.52962438 L0.521461404,1.52739388 C0.551041142,1.52480599 0.577118159,1.54668721 0.579706051,1.57626695 L0.583407827,1.61857844 C0.585995719,1.64815818 0.564114504,1.6742352 0.534534765,1.67682309 L0.503469392,1.67954096 C0.512169582,1.85186347 0.522274162,2.04721295 0.53378313,2.2655894 C0.227688378,2.28303378 0.0746410025,2.2692288 0.0746410025,2.22417447 C0.0746410025,2.19715237 0.0828365256,2.02739672 0.0992275719,1.71490753 L0.0632168434,1.71805806 C0.0336371047,1.72064596 0.00756008788,1.69876474 0.00497219608,1.669185 L0.00127041991,1.62687351 C-0.0013174719,1.59729377 0.0205637433,1.57121675 0.050143482,1.56862886 L0.107210683,1.56363613 Z"/>
            <rect width="1" height="1" x=".242" y="1.05" fill="#000000"/>
            <rect width="1" height="1" x=".194" y="1.8" fill="#000000"/>
          </g>
          <path fill="#FFFFFF" d="M0.107210683,1.56363613 C0.11565966,1.40438637 0.125752464,1.21650766 0.137489095,1 L0.0983870968,1 C0.0707728593,1 0.0483870968,0.977614237 0.0483870968,0.95 C0.0483870968,0.922385763 0.0707728593,0.9 0.0983870968,0.9 L0.14291626,0.9 C0.142940874,0.899546983 0.142965494,0.89909385 0.142990121,0.898640601 C0.142990121,0.791269582 0.142990121,0.598201593 0.142990121,0.319436634 C0.142990121,-0.0987108051 0.463046126,0.0532437126 0.613949262,0.0532437126 C0.764852398,0.0532437126 0.463046126,0.319436634 0.463046126,0.319436634 C0.463046126,0.319436634 0.463046126,0.55866941 0.463046126,0.741031202 C0.463046126,0.770815977 0.464461362,0.823805577 0.467291834,0.9 L0.530645161,0.9 C0.558259399,0.9 0.580645161,0.922385763 0.580645161,0.95 C0.580645161,0.977614237 0.558259399,1 0.530645161,1 L0.471260281,1 C0.476747035,1.13147239 0.484982499,1.30801386 0.495966675,1.52962438 L0.521461404,1.52739388 C0.551041142,1.52480599 0.577118159,1.54668721 0.579706051,1.57626695 L0.583407827,1.61857844 C0.585995719,1.64815818 0.564114504,1.6742352 0.534534765,1.67682309 L0.503469392,1.67954096 C0.512169582,1.85186347 0.522274162,2.04721295 0.53378313,2.2655894 C0.227688378,2.28303378 0.0746410025,2.2692288 0.0746410025,2.22417447 C0.0746410025,2.19715237 0.0828365256,2.02739672 0.0992275719,1.71490753 L0.0632168434,1.71805806 C0.0336371047,1.72064596 0.00756008788,1.69876474 0.00497219608,1.669185 L0.00127041991,1.62687351 C-0.0013174719,1.59729377 0.0205637433,1.57121675 0.050143482,1.56862886 L0.107210683,1.56363613 Z" transform="translate(4.21 3.45)"/>
          <g transform="translate(5.177 3.45)">
            <path fill="#FFFFFF" d="M0.107210683,1.56363613 C0.11565966,1.40438637 0.125752464,1.21650766 0.137489095,1 L0.0983870968,1 C0.0707728593,1 0.0483870968,0.977614237 0.0483870968,0.95 C0.0483870968,0.922385763 0.0707728593,0.9 0.0983870968,0.9 L0.14291626,0.9 C0.142940874,0.899546983 0.142965494,0.89909385 0.142990121,0.898640601 C0.142990121,0.791269582 0.142990121,0.598201593 0.142990121,0.319436634 C0.142990121,-0.0987108051 0.463046126,0.0532437126 0.613949262,0.0532437126 C0.764852398,0.0532437126 0.463046126,0.319436634 0.463046126,0.319436634 C0.463046126,0.319436634 0.463046126,0.55866941 0.463046126,0.741031202 C0.463046126,0.770815977 0.464461362,0.823805577 0.467291834,0.9 L0.530645161,0.9 C0.558259399,0.9 0.580645161,0.922385763 0.580645161,0.95 C0.580645161,0.977614237 0.558259399,1 0.530645161,1 L0.471260281,1 C0.476747035,1.13147239 0.484982499,1.30801386 0.495966675,1.52962438 L0.521461404,1.52739388 C0.551041142,1.52480599 0.577118159,1.54668721 0.579706051,1.57626695 L0.583407827,1.61857844 C0.585995719,1.64815818 0.564114504,1.6742352 0.534534765,1.67682309 L0.503469392,1.67954096 C0.512169582,1.85186347 0.522274162,2.04721295 0.53378313,2.2655894 C0.227688378,2.28303378 0.0746410025,2.2692288 0.0746410025,2.22417447 C0.0746410025,2.19715237 0.0828365256,2.02739672 0.0992275719,1.71490753 L0.0632168434,1.71805806 C0.0336371047,1.72064596 0.00756008788,1.69876474 0.00497219608,1.669185 L0.00127041991,1.62687351 C-0.0013174719,1.59729377 0.0205637433,1.57121675 0.050143482,1.56862886 L0.107210683,1.56363613 Z"/>
            <rect width="1" height="1" x=".242" y="1.05" fill="#000000"/>
            <rect width="1" height="1" x=".194" y="1.8" fill="#000000"/>
          </g>
          <path fill="#E8AA00" fill-rule="nonzero" stroke="#FFD018" stroke-width=".5" d="M4.51542903,2.65 L4.49992979,2.65 L4.49992979,3.15840013 C4.49863737,3.26059076 4.4518589,3.31168608 4.35959438,3.31168608 C4.26732986,3.31168608 4.17153512,3.26059076 4.07221015,3.15840013 C3.92934973,3.26059076 3.78653718,3.31168608 3.6437725,3.31168608 C3.42962547,3.31168608 3.5287111,3.20703466 3.26505716,3.31168608 C3.00140322,3.4163375 2.75239672,4.0893934 2.75239672,4.80648377 C2.75239672,5.28454401 3.19233453,6.12176773 4.07221015,7.31815492 L4.0023835,7.5705648 C3.07899637,6.84746467 2.50106865,5.99838219 2.26860036,5.02331735 C2.03613207,4.04825252 2.33871421,3.23526569 3.1763468,2.58435686 L3.19354839,2.58281888 L3.19354839,2.2 L5.75806452,2.2 L5.75806452,2.57711942 L5.83901201,2.58435686 C6.6766446,3.23526569 6.97922675,4.04825252 6.74675845,5.02331735 C6.51429016,5.99838219 5.93636245,6.84746467 5.01297531,7.5705648 L4.94314867,7.31815492 C5.82302428,6.12176773 6.26296209,5.28454401 6.26296209,4.80648377 C6.26296209,4.0893934 6.01395559,3.4163375 5.75030165,3.31168608 C5.48664771,3.20703466 5.58573334,3.31168608 5.37158632,3.31168608 C5.22882163,3.31168608 5.08600908,3.26059076 4.94314867,3.15840013 C4.8438237,3.26059076 4.74802895,3.31168608 4.65576444,3.31168608 C4.56349992,3.31168608 4.51672145,3.26059076 4.51542903,3.15840013 L4.51542903,2.65 Z"/>
          <path fill="#8FC753" d="M3.0517504,5.89244568 C3.15657659,5.61097433 3.30064741,5.51715055 3.48396286,5.61097433 C3.75893603,5.75171001 3.73491988,6.2416577 3.98509462,6.06705169 C4.23526935,5.89244568 4.09344109,5.61097433 4.46416594,5.61097433 C4.83489079,5.61097433 4.7802873,6.06705169 5.00261269,6.06705169 C5.22493808,6.06705169 5.24418229,5.61097433 5.49271423,5.61097433 C5.65840219,5.61097433 5.82526358,5.70479811 5.99329839,5.89244568 L4.5225244,7.89370538 L3.0517504,5.89244568 Z"/>
          <path fill="#FFD018" fill-rule="nonzero" d="M4.54719872,0.221920918 L4.54719872,0.40394453 C4.68509167,0.427240533 4.79032258,0.550921635 4.79032258,0.7 C4.79032258,0.865685425 4.66034073,1 4.5,1 C4.33965927,1 4.20967742,0.865685425 4.20967742,0.7 C4.20967742,0.552947227 4.31206812,0.430606239 4.44719872,0.40494954 L4.44719872,0.221920918 L4.33432036,0.221920918 L4.33432036,0.121920918 L4.44719872,0.121920918 L4.44719872,0.0147397541 L4.54719872,0.0147397541 L4.54719872,0.121920918 L4.67002679,0.121920918 L4.67002679,0.221920918 L4.54719872,0.221920918 Z"/>
          <path fill="#E31D1C" d="M4.55209416,1.20311674 C4.57596238,1.14365819 4.60635849,1.11392891 4.64328247,1.11392891 C4.84694652,1.11392891 4.97083946,1.23821793 5.09186035,1.35455246 C5.21288125,1.47088699 5.27240443,1.35455246 5.50076809,1.35455246 C5.72913174,1.35455246 5.59080677,1.58306348 5.73078317,1.58306348 C5.82410077,1.58306348 5.96915113,1.64385211 6.16593423,1.76542938 L5.93642176,2.38551862 L4.55209416,2.32224065 L3.16776656,2.38551862 L2.93825408,1.76542938 C3.13503719,1.64385211 3.28008754,1.58306348 3.37340515,1.58306348 C3.51338155,1.58306348 3.37505657,1.35455246 3.60342023,1.35455246 C3.83178389,1.35455246 3.89130707,1.47088699 4.01232796,1.35455246 C4.13334885,1.23821793 4.25724179,1.11392891 4.46090585,1.11392891 C4.49782983,1.11392891 4.52822593,1.14365819 4.55209416,1.20311674 Z"/>
          <path fill="#FFD018" d="M4,1 C4.22221101,0.839145629 4.38887768,0.758718444 4.5,0.758718444 C4.61112232,0.758718444 4.77778899,0.839145629 5,1 L5,3 L4,3 L4,1 Z"/>
          <path fill="#FFD018" fill-rule="nonzero" d="M4.2068573,0.817948306 L4.30402752,0.784238468 L4.30253024,0.890143948 C4.29487513,1.43160769 4.33675825,1.85844128 4.42723771,2.16957909 L4.43789146,2.20621483 L4.41544602,2.23663569 C4.33917249,2.34001107 4.12560164,2.37383913 3.78104864,2.37544735 C3.66189554,2.37600351 3.53802878,2.37224232 3.39750655,2.36512792 C3.39101053,2.36479904 3.21301636,2.3549366 3.19842567,2.3549366 C3.1028813,2.3549366 3.02119755,2.21026195 2.90449243,1.9234499 C2.82038557,1.71675062 2.7395093,1.47286624 2.71180122,1.34373639 C2.64857467,1.04907731 3.15316959,0.847866714 3.53988404,0.907463625 C3.72771375,0.93641023 3.95007802,0.907028984 4.2068573,0.817948306 Z M3.51847157,1.05582275 C3.21720931,1.00939495 2.82251772,1.16678086 2.85352062,1.31126582 C2.87906677,1.43032032 2.95729353,1.66621504 3.03830618,1.86531002 C3.08203293,1.97277199 3.12404717,2.06359701 3.16002639,2.1273218 C3.17827639,2.15964539 3.19447143,2.1840581 3.20743342,2.19915715 C3.20957767,2.20165493 3.21149866,2.20373889 3.21313165,2.20539726 C3.26228482,2.20741494 3.40583892,2.21536984 3.40461022,2.21530764 C3.54276758,2.22230231 3.66424697,2.225991 3.78039295,2.22544888 C4.02498137,2.22430725 4.20602345,2.20106808 4.27491947,2.16502184 C4.19450143,1.86367626 4.15525237,1.47273609 4.15650969,0.991451705 C3.91879412,1.06297388 3.70614211,1.08474483 3.51847157,1.05582275 Z"/>
          <path fill="#FFD018" fill-rule="nonzero" d="M6.09395408,0.817948306 L6.19112429,0.784238468 L6.18962702,0.890143948 C6.18197191,1.43160769 6.22385503,1.85844128 6.31433449,2.16957909 L6.32498823,2.20621483 L6.30254279,2.23663569 C6.22626926,2.34001107 6.01269841,2.37383913 5.66814541,2.37544735 C5.54899231,2.37600351 5.42512556,2.37224232 5.28460332,2.36512792 C5.2781073,2.36479904 5.10011313,2.3549366 5.08552244,2.3549366 C4.98997808,2.3549366 4.90829432,2.21026195 4.79158921,1.9234499 C4.70748234,1.71675062 4.62660607,1.47286624 4.598898,1.34373639 C4.53567144,1.04907731 5.04026637,0.847866714 5.42698082,0.907463625 C5.61481052,0.93641023 5.83717479,0.907028984 6.09395408,0.817948306 Z M5.40556835,1.05582275 C5.10430608,1.00939495 4.70961449,1.16678086 4.74061739,1.31126582 C4.76616355,1.43032032 4.8443903,1.66621504 4.92540295,1.86531002 C4.96912971,1.97277199 5.01114395,2.06359701 5.04712316,2.1273218 C5.06537316,2.15964539 5.0815682,2.1840581 5.09453019,2.19915715 C5.09667445,2.20165493 5.09859544,2.20373889 5.10022842,2.20539726 C5.14938159,2.20741494 5.29293569,2.21536984 5.291707,2.21530764 C5.42986436,2.22230231 5.55134375,2.225991 5.66748972,2.22544888 C5.91207814,2.22430725 6.09312022,2.20106808 6.16201625,2.16502184 C6.0815982,1.86367626 6.04234914,1.47273609 6.04360646,0.991451705 C5.8058909,1.06297388 5.59323889,1.08474483 5.40556835,1.05582275 Z" transform="matrix(-1 0 0 1 10.918 0)"/>
          <path fill="#FFFFFF" fill-rule="nonzero" d="M0.478616227,9.16029861 L0.108228219,8.23142148 C1.63871964,7.62114091 3.10306955,7.31424084 4.5,7.31424084 C5.87952818,7.31424084 7.18183104,7.50310159 8.40533911,7.88149414 L8.10987795,8.83684889 C6.98405475,8.4886672 5.78128526,8.31424084 4.5,8.31424084 C3.23611701,8.31424084 1.89608173,8.59508691 0.478616227,9.16029861 Z"/>
          <path fill="#272727" fill-rule="nonzero" d="M3.38699061,7.942527 L3.41736547,7.69437912 C3.9546478,7.76014586 4.31339532,7.79302867 4.49415209,7.79315488 C4.76675101,7.80541428 5.09165446,7.78566975 5.46835112,7.73362154 L5.50256856,7.9812688 C5.11179361,8.03526221 4.77208131,8.05590668 4.48853623,8.04302867 C4.29984533,8.04302867 3.93435405,8.00952773 3.38699061,7.942527 Z"/>
        </g>
      </g>
      <path fill="#006923" d="M5.16188476,4 C4.2344218,4.83687128 3.86221241,5.66448751 4.04525658,6.4828487 C4.25319615,7.72867634 4.98122477,8.56910788 6.22934243,9.00414332 L7.22114371,8.65266915 C5.95433907,7.92674229 5.32093675,7.20346881 5.32093675,6.4828487 C5.32093675,5.76222859 5.41580422,4.93461236 5.60553917,4 L5.16188476,4 Z" mask="url(#d)"/>
      <path fill="#009933" d="M10.1618848,4 C9.2344218,4.83687128 8.86221241,5.66448751 9.04525658,6.4828487 C9.25319615,7.72867634 9.98122477,8.56910788 11.2293424,9.00414332 L12.2211437,8.65266915 C10.9543391,7.92674229 10.3209367,7.20346881 10.3209367,6.4828487 C10.3209367,5.76222859 10.4158042,4.93461236 10.6055392,4 L10.1618848,4 Z" mask="url(#d)" transform="matrix(-1 0 0 1 21.221 0)"/>
    </g>
  </g>
</svg>
