<svg width="16" height="12" viewBox="0 0 16 12" fill="none" xmlns="http://www.w3.org/2000/svg">
<g clip-path="url(#clip0_270_55122)">
<rect width="16" height="12" fill="white"/>
<path fill-rule="evenodd" clip-rule="evenodd" d="M0 0V12H16V0H0Z" fill="#F7FCFF"/>
<mask id="mask0_270_55122" style="mask-type:luminance" maskUnits="userSpaceOnUse" x="0" y="0" width="16" height="12">
<path fill-rule="evenodd" clip-rule="evenodd" d="M0 0V12H16V0H0Z" fill="white"/>
</mask>
<g mask="url(#mask0_270_55122)">
<path fill-rule="evenodd" clip-rule="evenodd" d="M0 6V12H16V6H0Z" fill="#56C6F5"/>
<path fill-rule="evenodd" clip-rule="evenodd" d="M5.12709 4.51424C5.12338 4.47198 5.11454 4.43546 5.09926 4.40698C4.97082 4.1676 5.01232 3.86807 5.01232 3.86807C5.01232 3.86807 4.85895 4.21885 4.76896 4.5491C4.67437 4.39531 4.6413 4.24123 4.6413 4.24123C4.6413 4.24123 4.58008 5.21002 4.76725 5.43957C4.95442 5.66911 5.07921 5.76997 5.07921 5.76997C5.07921 5.76997 5.09337 5.36769 5.03888 5.05308C5.07728 4.92184 5.11192 4.77806 5.12433 4.65427C5.1489 4.63608 5.21364 4.58747 5.29466 4.52137C5.26052 4.70975 5.25882 4.81211 5.25882 4.81211C5.25882 4.81211 5.96411 4.30001 5.98204 4.02895C5.99996 3.75788 6.19388 3.52585 6.19388 3.52585C6.19388 3.52585 6.03353 3.63558 5.85043 3.78272C5.89884 3.55519 6.04872 3.37585 6.04872 3.37585C6.04872 3.37585 5.24761 3.92406 5.18196 4.21287C5.15341 4.33849 5.13677 4.43983 5.12709 4.51424ZM5.16139 6.17944C5.08458 6.03441 4.75031 5.42645 4.51716 5.37354C4.25223 5.31343 4.0534 5.0856 4.0534 5.0856C4.0534 5.0856 4.46953 5.9626 4.74452 6.07263C4.96535 6.16098 5.11076 6.19626 5.15947 6.20672C5.15145 6.32495 5.15005 6.40662 5.15005 6.40662C5.15005 6.40662 5.27994 6.31243 5.47887 6.09299C5.6778 5.87356 5.66736 4.9029 5.66736 4.9029C5.66736 4.9029 5.58852 5.19483 5.37676 5.365C5.23471 5.47915 5.18122 5.90889 5.16139 6.17944ZM4.53569 6.08769C4.83835 6.08591 5.30395 6.82805 5.30395 6.82805C5.30395 6.82805 5.12357 6.83794 4.80845 6.78815C4.49334 6.73836 4.0022 5.89271 4.0022 5.89271C4.0022 5.89271 4.23303 6.08947 4.53569 6.08769ZM6.01101 7.81613C6.01101 7.81613 6.19061 6.87039 5.92092 6.64993C5.65124 6.42946 5.60366 6.09999 5.60366 6.09999C5.60366 6.09999 5.36409 7.14874 5.60366 7.42033C5.84323 7.69192 6.01101 7.81613 6.01101 7.81613ZM4.92286 7.5608C5.09897 7.76961 5.66007 7.5608 5.66007 7.5608C5.66007 7.5608 5.78371 7.67308 5.33872 7.26638C4.89373 6.85968 3.98827 7.11655 4.23195 7.11655C4.47563 7.11655 4.74674 7.352 4.92286 7.5608ZM5.33872 8.67098C5.66518 8.94747 6.3706 8.29006 6.3706 8.29006C6.3706 8.29006 6.189 8.07014 5.85243 7.90804C5.51587 7.74595 4.27436 7.90804 4.27436 7.90804L4.82686 8.15396C4.82686 8.15396 4.21185 8.39448 4.3751 8.38108C4.53835 8.36767 5.01226 8.39448 5.33872 8.67098Z" fill="#006923"/>
<path fill-rule="evenodd" clip-rule="evenodd" d="M9.60677 8.09817C9.60677 8.09817 9.32609 7.62649 9.60677 7.39862C9.88746 7.17074 9.99854 7.32231 9.99854 7.06032C9.99854 6.79833 10.0269 6.87634 10.1649 6.74627C10.3028 6.6162 10.2051 6.3003 10.3898 6.45825C10.5745 6.6162 10.609 6.31331 10.609 6.94254C10.609 7.57177 10.609 6.37184 10.609 6.01842C10.609 5.66501 10.3898 5.74867 10.3898 5.51166C10.3898 5.27465 10.1706 4.92067 10.3898 4.92067C10.609 4.92067 10.7378 5.18403 10.7378 5.18403C10.7378 5.18403 10.9532 5.55111 10.9532 5.18403C10.9532 4.81695 10.5697 4.92608 10.3898 4.52101C10.2098 4.11594 10.2382 4.56644 9.99854 4.04448C9.75885 3.52253 9.47347 3.35689 9.73601 3.35689C9.99854 3.35689 9.93995 3.35689 10.1649 3.35689C10.3898 3.35689 10.7378 3.17008 10.7378 3.35689C10.7378 3.5437 10.7378 3.4581 10.7378 3.75129C10.7378 4.04448 10.9532 4.04448 10.9532 4.04448C10.9532 4.04448 11.0703 3.4581 11.2173 3.75129C11.3644 4.04448 11.2643 4.52101 11.3719 4.52101C11.4796 4.52101 11.3905 4.02856 11.6255 4.40574C11.8606 4.78292 11.6255 5.03853 11.6255 5.18403C11.6255 5.32954 11.3719 5.68602 11.3719 5.68602C11.3719 5.68602 11.4214 5.86038 11.6255 5.68602C11.8296 5.51166 12.0233 5.3373 12.0233 5.51166C12.0233 5.68602 12.421 5.74018 12.0233 6.01842C11.6255 6.29666 11.8792 6.57522 11.6255 6.57522C11.3719 6.57522 11.0731 6.94254 10.9532 6.94254C10.8332 6.94254 10.3847 7.22377 10.609 7.22377C10.8332 7.22377 11.0628 6.66131 11.2173 6.94254C11.3719 7.22377 11.3699 6.89687 11.4977 7.06032C11.6255 7.22377 11.7534 8.11062 11.6255 7.75462C11.4977 7.39862 11.2974 7.39862 10.9532 7.39862C10.609 7.39862 9.93995 7.42432 10.1649 7.58947C10.3898 7.75462 10.6424 7.42432 10.7378 7.58947C10.8332 7.75462 10.8055 7.91977 10.9532 7.75462C11.1009 7.58947 11.2461 7.75462 11.3719 7.75462C11.4977 7.75462 11.2461 7.93949 11.3719 8.09817C11.4977 8.25685 11.7781 8.46824 11.4977 8.46824C11.2173 8.46824 11.0731 8.24408 10.9532 8.46824C10.8332 8.6924 10.8282 9.08171 10.609 8.77498C10.3898 8.46824 9.99854 8.62393 9.99854 8.46824C9.99854 8.31255 10.0841 8.28741 9.84545 8.28741C9.60677 8.28741 9.60677 8.09817 9.60677 8.09817Z" fill="#009933"/>
<path fill-rule="evenodd" clip-rule="evenodd" d="M10.7581 4.72498C10.7581 4.79401 10.704 4.84998 10.6372 4.84998C10.5704 4.84998 10.5162 4.79401 10.5162 4.72498C10.5162 4.65594 10.5704 4.59998 10.6372 4.59998C10.704 4.59998 10.7581 4.65594 10.7581 4.72498ZM5.16943 4.99998C5.23624 4.99998 5.2904 4.94401 5.2904 4.87498C5.2904 4.80594 5.23624 4.74998 5.16943 4.74998C5.10262 4.74998 5.04846 4.80594 5.04846 4.87498C5.04846 4.94401 5.10262 4.99998 5.16943 4.99998ZM5.2904 5.52498C5.2904 5.59401 5.23624 5.64998 5.16943 5.64998C5.10262 5.64998 5.04846 5.59401 5.04846 5.52498C5.04846 5.45594 5.10262 5.39998 5.16943 5.39998C5.23624 5.39998 5.2904 5.45594 5.2904 5.52498ZM5.36298 6.79998C5.42979 6.79998 5.48395 6.74401 5.48395 6.67498C5.48395 6.60594 5.42979 6.54998 5.36298 6.54998C5.29617 6.54998 5.24201 6.60594 5.24201 6.67498C5.24201 6.74401 5.29617 6.79998 5.36298 6.79998ZM6.33072 8.04998C6.39753 8.04998 6.45169 7.99401 6.45169 7.92498C6.45169 7.85594 6.39753 7.79998 6.33072 7.79998C6.26391 7.79998 6.20975 7.85594 6.20975 7.92498C6.20975 7.99401 6.26391 8.04998 6.33072 8.04998ZM10.9759 6.14998C11.0427 6.14998 11.0968 6.09401 11.0968 6.02498C11.0968 5.95594 11.0427 5.89998 10.9759 5.89998C10.9091 5.89998 10.8549 5.95594 10.8549 6.02498C10.8549 6.09401 10.9091 6.14998 10.9759 6.14998ZM10.7098 7.02498C10.7098 7.09401 10.6556 7.14998 10.5888 7.14998C10.522 7.14998 10.4678 7.09401 10.4678 7.02498C10.4678 6.95594 10.522 6.89998 10.5888 6.89998C10.6556 6.89998 10.7098 6.95594 10.7098 7.02498ZM9.57266 8.24998C9.63946 8.24998 9.69362 8.19401 9.69362 8.12498C9.69362 8.05594 9.63946 7.99998 9.57266 7.99998C9.50585 7.99998 9.45169 8.05594 9.45169 8.12498C9.45169 8.19401 9.50585 8.24998 9.57266 8.24998ZM6.50007 8.27498C6.50007 8.34401 6.44592 8.39998 6.37911 8.39998C6.3123 8.39998 6.25814 8.34401 6.25814 8.27498C6.25814 8.20594 6.3123 8.14998 6.37911 8.14998C6.44592 8.14998 6.50007 8.20594 6.50007 8.27498Z" fill="#C51918"/>
<path fill-rule="evenodd" clip-rule="evenodd" d="M9.01896 9.90987C9.01896 9.80744 7.46869 8.73905 7.05259 8.5034C6.6365 8.26775 4.60459 6.97074 5.15793 5.00006H5.0742C5.0742 5.00006 4.69972 7.42829 7.27974 8.93768C8.45449 9.72573 8.51296 9.90987 8.51296 9.90987C8.51296 9.90987 9.01896 10.0123 9.01896 9.90987Z" fill="#FECA00"/>
<path fill-rule="evenodd" clip-rule="evenodd" d="M6.96224 9.90987C6.96224 9.80744 8.51251 8.73905 8.92861 8.5034C9.3447 8.26775 11.3766 6.97074 10.8233 5.00006H10.907C10.907 5.00006 11.2815 7.42829 8.70146 8.93768C7.52672 9.72573 7.46825 9.90987 7.46825 9.90987C7.46825 9.90987 6.96224 10.0123 6.96224 9.90987Z" fill="#FECA00"/>
<path fill-rule="evenodd" clip-rule="evenodd" d="M8.02425 8.44281C9.10655 8.44281 9.98393 7.04188 9.98393 5.67498C9.98393 4.30807 9.10655 3.59998 8.02425 3.59998C6.94195 3.59998 6.06458 4.30807 6.06458 5.67498C6.06458 7.04188 6.94195 8.44281 8.02425 8.44281Z" fill="#56C6F5"/>
<path fill-rule="evenodd" clip-rule="evenodd" d="M7.15669 4.76943C7.15669 4.76943 7.45849 4.50324 7.30759 4.50324C7.27832 4.50324 7.24269 4.49752 7.20427 4.49136C7.04458 4.46574 6.83663 4.43238 6.83663 4.76943V5.34863L6.83656 5.34999H6.79203C6.76441 5.34999 6.74203 5.37238 6.74203 5.39999C6.74203 5.42761 6.76441 5.44999 6.79203 5.44999H6.83114C6.82446 5.57371 6.81262 5.79372 6.801 6.01362L6.74378 6.01862C6.7142 6.02121 6.69232 6.04729 6.69491 6.07687L6.69861 6.11918C6.7012 6.14876 6.72728 6.17064 6.75686 6.16805L6.79304 6.16489C6.77961 6.42181 6.76828 6.64665 6.76828 6.67417C6.76828 6.74175 7.22742 6.71558 7.22742 6.71558C7.22742 6.71558 7.21314 6.44454 7.19741 6.12951L7.22817 6.12682C7.25775 6.12423 7.27964 6.09815 7.27705 6.06857L7.27335 6.02626C7.27076 5.99668 7.24468 5.9748 7.2151 5.97739L7.18998 5.97959C7.18072 5.79091 7.17165 5.59933 7.16532 5.44999H7.22428C7.2519 5.44999 7.27428 5.42761 7.27428 5.39999C7.27428 5.37238 7.2519 5.34999 7.22428 5.34999H7.16125C7.15838 5.27537 7.15669 5.21928 7.15669 5.19102V4.76943Z" fill="white"/>
<path fill-rule="evenodd" clip-rule="evenodd" d="M6.93555 5.5H7.09684V5.71505H6.93555V5.5Z" fill="black"/>
<path fill-rule="evenodd" clip-rule="evenodd" d="M6.88721 6.25H7.15602V6.75H6.88721V6.25Z" fill="black"/>
<path fill-rule="evenodd" clip-rule="evenodd" d="M8.1728 4.76943C8.1728 4.76943 8.47461 4.50324 8.3237 4.50324C8.29444 4.50324 8.25881 4.49752 8.22038 4.49136C8.06069 4.46574 7.85274 4.43238 7.85274 4.76943V5.34863L7.85267 5.34999H7.80814C7.78053 5.34999 7.75814 5.37238 7.75814 5.39999C7.75814 5.42761 7.78053 5.44999 7.80814 5.44999H7.84726C7.84057 5.57371 7.82873 5.79372 7.81711 6.01362L7.7599 6.01862C7.73032 6.02121 7.70844 6.04729 7.71102 6.07687L7.71473 6.11918C7.71731 6.14876 7.74339 6.17064 7.77297 6.16805L7.80916 6.16489C7.79572 6.42181 7.78439 6.64665 7.78439 6.67417C7.78439 6.74175 8.24354 6.71558 8.24354 6.71558C8.24354 6.71558 8.22925 6.44454 8.21352 6.12951L8.24429 6.12682C8.27387 6.12423 8.29575 6.09815 8.29316 6.06857L8.28946 6.02626C8.28687 5.99668 8.26079 5.9748 8.23121 5.97739L8.20609 5.97959C8.19683 5.79091 8.18776 5.59933 8.18143 5.44999H8.2404C8.26801 5.44999 8.2904 5.42761 8.2904 5.39999C8.2904 5.37238 8.26801 5.34999 8.2404 5.34999H8.17737C8.1745 5.27537 8.1728 5.21928 8.1728 5.19102V4.76943Z" fill="white"/>
<path fill-rule="evenodd" clip-rule="evenodd" d="M9.14057 4.76943C9.14057 4.76943 9.44238 4.50324 9.29148 4.50324C9.26221 4.50324 9.22658 4.49752 9.18816 4.49136C9.02846 4.46574 8.82052 4.43238 8.82052 4.76943V5.34863L8.82044 5.34999H8.77591C8.7483 5.34999 8.72591 5.37238 8.72591 5.39999C8.72591 5.42761 8.7483 5.44999 8.77591 5.44999H8.81503C8.80834 5.57371 8.7965 5.79372 8.78488 6.01362L8.72767 6.01862C8.69809 6.02121 8.67621 6.04729 8.6788 6.07687L8.6825 6.11918C8.68509 6.14876 8.71116 6.17064 8.74074 6.16805L8.77693 6.16489C8.7635 6.42181 8.75217 6.64665 8.75217 6.67417C8.75217 6.74175 9.21131 6.71558 9.21131 6.71558C9.21131 6.71558 9.19702 6.44454 9.18129 6.12951L9.21206 6.12682C9.24164 6.12423 9.26352 6.09815 9.26093 6.06857L9.25723 6.02626C9.25464 5.99668 9.22857 5.9748 9.19899 5.97739L9.17387 5.97959C9.16461 5.79091 9.15553 5.59933 9.1492 5.44999H9.20817C9.23579 5.44999 9.25817 5.42761 9.25817 5.39999C9.25817 5.37238 9.23579 5.34999 9.20817 5.34999H9.14514C9.14227 5.27537 9.14057 5.21928 9.14057 5.19102V4.76943Z" fill="white"/>
<path fill-rule="evenodd" clip-rule="evenodd" d="M8.91943 5.5H9.08072V5.71505H8.91943V5.5Z" fill="black"/>
<path fill-rule="evenodd" clip-rule="evenodd" d="M8.87109 6.25H9.13991V6.75H8.87109V6.25Z" fill="black"/>
<path fill-rule="evenodd" clip-rule="evenodd" d="M9.25813 3.19995H6.69362V3.58277L6.67641 3.58431C6.67641 3.58431 5.41997 4.56067 5.76867 6.02327C6.11737 7.48587 7.50245 8.57052 7.50245 8.57052L7.57228 8.31811C7.57228 8.31811 6.25246 6.52353 6.25246 5.80643C6.25246 5.08934 6.50147 4.41629 6.76512 4.31164C6.9237 4.24869 6.95106 4.26147 6.99427 4.28165C7.0229 4.29502 7.0585 4.31164 7.14384 4.31164C7.35799 4.31164 7.57228 4.15835 7.57228 4.15835C7.57228 4.15835 7.72126 4.31164 7.85966 4.31164C7.99806 4.31164 8 4.15835 8 4.15835V3.64995H8.0155V4.15835C8.0155 4.15835 8.01744 4.31164 8.15583 4.31164C8.29423 4.31164 8.44322 4.15835 8.44322 4.15835C8.44322 4.15835 8.65751 4.31164 8.87165 4.31164C8.957 4.31164 8.99259 4.29502 9.02122 4.28165C9.06444 4.26147 9.09179 4.24869 9.25037 4.31164C9.51402 4.41629 9.76303 5.08934 9.76303 5.80643C9.76303 6.52353 8.44322 8.31811 8.44322 8.31811L8.51304 8.57052C8.51304 8.57052 9.89812 7.48587 10.2468 6.02327C10.5955 4.56067 9.33908 3.58431 9.33908 3.58431L9.25813 3.57707V3.19995Z" fill="#E8AA00"/>
<path d="M6.69362 3.19995V2.94995H6.44362V3.19995H6.69362ZM9.25813 3.19995H9.50813V2.94995H9.25813V3.19995ZM6.69362 3.58277L6.71588 3.83178L6.94362 3.81142V3.58277H6.69362ZM6.67641 3.58431L6.65415 3.3353L6.581 3.34184L6.52301 3.3869L6.67641 3.58431ZM5.76867 6.02327L5.52548 6.08125L5.76867 6.02327ZM7.50245 8.57052L7.34831 8.76735L7.64345 8.99847L7.7434 8.63717L7.50245 8.57052ZM7.57228 8.31811L7.81323 8.38476L7.84559 8.26777L7.77368 8.16999L7.57228 8.31811ZM6.76512 4.31164L6.67289 4.07927L6.67289 4.07927L6.76512 4.31164ZM6.99427 4.28165L6.88849 4.50816L6.88849 4.50816L6.99427 4.28165ZM7.57228 4.15835L7.75155 3.98411L7.6017 3.82993L7.42683 3.95502L7.57228 4.15835ZM8 4.15835L8.25 4.16151V4.15835H8ZM8 3.64995V3.39995H7.75V3.64995H8ZM8.0155 3.64995H8.2655V3.39995H8.0155V3.64995ZM8.0155 4.15835H7.76548L7.76552 4.16151L8.0155 4.15835ZM8.44322 4.15835L8.58866 3.95502L8.4138 3.82993L8.26394 3.98411L8.44322 4.15835ZM9.02122 4.28165L9.127 4.50816L9.02122 4.28165ZM9.25037 4.31164L9.15814 4.544L9.25037 4.31164ZM8.44322 8.31811L8.24182 8.16999L8.1699 8.26777L8.20227 8.38476L8.44322 8.31811ZM8.51304 8.57052L8.27209 8.63717L8.37204 8.99847L8.66718 8.76735L8.51304 8.57052ZM9.33908 3.58431L9.49248 3.3869L9.43449 3.34184L9.36134 3.3353L9.33908 3.58431ZM9.25813 3.57707H9.00813V3.80572L9.23587 3.82608L9.25813 3.57707ZM6.69362 3.44995H9.25813V2.94995H6.69362V3.44995ZM6.94362 3.58277V3.19995H6.44362V3.58277H6.94362ZM6.69868 3.83331L6.71588 3.83178L6.67135 3.33376L6.65415 3.3353L6.69868 3.83331ZM6.01185 5.96529C5.85796 5.31981 6.05567 4.77936 6.30295 4.38913C6.42664 4.19393 6.5608 4.03988 6.66391 3.93489C6.71528 3.88258 6.75845 3.84296 6.78801 3.81702C6.80278 3.80406 6.81411 3.79455 6.82131 3.78862C6.82491 3.78565 6.82748 3.78358 6.82893 3.78242C6.82965 3.78185 6.83009 3.7815 6.83024 3.78138C6.83032 3.78132 6.83032 3.78132 6.83025 3.78137C6.83022 3.7814 6.83016 3.78144 6.83009 3.7815C6.83005 3.78153 6.82998 3.78158 6.82997 3.78159C6.82989 3.78165 6.82981 3.78171 6.67641 3.58431C6.52301 3.3869 6.52293 3.38697 6.52283 3.38704C6.5228 3.38707 6.5227 3.38715 6.52262 3.38721C6.52248 3.38732 6.52231 3.38745 6.52212 3.3876C6.52174 3.3879 6.52129 3.38825 6.52077 3.38867C6.51971 3.3895 6.51836 3.39057 6.51671 3.39188C6.51343 3.39451 6.50898 3.3981 6.50347 3.40264C6.49244 3.41173 6.47711 3.42462 6.4582 3.44122C6.42042 3.47438 6.36815 3.52247 6.30718 3.58454C6.1856 3.70833 6.02744 3.88978 5.88061 4.1215C5.58684 4.5851 5.33067 5.26413 5.52548 6.08125L6.01185 5.96529ZM7.50245 8.57052C7.65659 8.37369 7.65663 8.37372 7.65667 8.37375C7.65668 8.37376 7.65672 8.37379 7.65673 8.3738C7.65676 8.37382 7.65676 8.37382 7.65675 8.37381C7.65672 8.37379 7.6566 8.3737 7.65641 8.37354C7.65602 8.37324 7.6553 8.37267 7.65427 8.37185C7.6522 8.3702 7.64887 8.36753 7.64434 8.36385C7.63528 8.3565 7.62145 8.34514 7.60343 8.32994C7.56738 8.29954 7.51464 8.25385 7.44989 8.19425C7.32023 8.07489 7.1433 7.90062 6.95599 7.68249C6.57831 7.24269 6.17308 6.64153 6.01185 5.96529L5.52548 6.08125C5.71296 6.86761 6.17462 7.54007 6.57666 8.00824C6.7792 8.2441 6.97034 8.4324 7.11127 8.56213C7.18182 8.62707 7.24002 8.67754 7.28108 8.71216C7.30162 8.72948 7.31788 8.74285 7.32928 8.7521C7.33498 8.75673 7.33947 8.76033 7.34266 8.76287C7.34426 8.76415 7.34554 8.76516 7.34648 8.7659C7.34696 8.76628 7.34735 8.76658 7.34765 8.76682C7.3478 8.76694 7.34794 8.76705 7.34805 8.76714C7.3481 8.76718 7.34817 8.76723 7.3482 8.76725C7.34826 8.7673 7.34831 8.76735 7.50245 8.57052ZM7.33133 8.25145L7.2615 8.50386L7.7434 8.63717L7.81323 8.38476L7.33133 8.25145ZM6.00246 5.80643C6.00246 6.04448 6.10662 6.33417 6.23155 6.60585C6.36111 6.88762 6.53174 7.18859 6.69923 7.46183C6.86723 7.73592 7.03484 7.98655 7.16024 8.16841C7.22302 8.25946 7.2754 8.33353 7.31221 8.385C7.33061 8.41075 7.34514 8.43085 7.35513 8.44462C7.36012 8.45151 7.36399 8.45681 7.36664 8.46044C7.36797 8.46225 7.36899 8.46365 7.3697 8.46462C7.37005 8.4651 7.37033 8.46548 7.37053 8.46574C7.37063 8.46588 7.3707 8.46599 7.37076 8.46607C7.37079 8.46611 7.37082 8.46615 7.37084 8.46617C7.37086 8.4662 7.37088 8.46622 7.57228 8.31811C7.77368 8.16999 7.77368 8.17 7.77369 8.17001C7.77368 8.17 7.77368 8.17 7.77367 8.16998C7.77365 8.16995 7.77361 8.1699 7.77355 8.16981C7.77342 8.16965 7.77322 8.16937 7.77294 8.16899C7.77238 8.16823 7.77151 8.16704 7.77034 8.16544C7.768 8.16223 7.76445 8.15737 7.75978 8.15093C7.75044 8.13806 7.73661 8.11891 7.71893 8.09418C7.68356 8.04472 7.63283 7.97299 7.57187 7.88458C7.4498 7.70755 7.28746 7.46472 7.12551 7.20053C6.96305 6.93548 6.80372 6.65336 6.68582 6.39696C6.56328 6.13048 6.50246 5.92694 6.50246 5.80643H6.00246ZM6.67289 4.07927C6.53951 4.13222 6.43943 4.24131 6.36694 4.34811C6.29106 4.4599 6.22652 4.59718 6.17406 4.7465C6.06899 5.04555 6.00246 5.42123 6.00246 5.80643H6.50246C6.50246 5.47455 6.56044 5.15516 6.64579 4.91224C6.68853 4.79059 6.73568 4.69515 6.78065 4.62891C6.829 4.55767 6.85892 4.54338 6.85736 4.544L6.67289 4.07927ZM7.10005 4.05513C7.07019 4.04118 7.00426 4.00945 6.90621 4.01603C6.83249 4.02098 6.75503 4.04667 6.67289 4.07927L6.85736 4.544C6.89269 4.52998 6.9159 4.52212 6.93079 4.51784C6.946 4.51347 6.94721 4.5144 6.9397 4.51491C6.93542 4.5152 6.92884 4.51531 6.92058 4.51451C6.91212 4.5137 6.90391 4.51212 6.89637 4.51005C6.88913 4.50806 6.88414 4.50607 6.88261 4.50543C6.88196 4.50516 6.88217 4.50521 6.88849 4.50816L7.10005 4.05513ZM7.14384 4.06164C7.13058 4.06164 7.12172 4.06099 7.1163 4.06038C7.11105 4.05979 7.10883 4.05922 7.10882 4.05922C7.10875 4.0592 7.10892 4.05925 7.10925 4.05935C7.10957 4.05946 7.10974 4.05953 7.10964 4.05948C7.10888 4.05919 7.10768 4.05869 7.10005 4.05513L6.88849 4.50816C6.90472 4.51574 6.93899 4.53207 6.98676 4.54409C7.03352 4.55586 7.08475 4.56164 7.14384 4.56164V4.06164ZM7.57228 4.15835C7.42683 3.95502 7.42688 3.95498 7.42692 3.95495C7.42693 3.95494 7.42698 3.95491 7.42701 3.95489C7.42706 3.95485 7.42712 3.95481 7.42717 3.95478C7.42727 3.9547 7.42736 3.95464 7.42743 3.95459C7.42759 3.95448 7.42769 3.95441 7.42775 3.95437C7.42786 3.95429 7.42778 3.95434 7.42752 3.95452C7.427 3.95488 7.42576 3.95574 7.42383 3.95702C7.41998 3.9596 7.41349 3.96383 7.40476 3.96918C7.38713 3.97999 7.36143 3.99471 7.33073 4.00935C7.26451 4.04094 7.19684 4.06164 7.14384 4.06164V4.56164C7.30498 4.56164 7.45154 4.50569 7.54599 4.46064C7.59564 4.43696 7.63689 4.41335 7.66613 4.39543C7.68085 4.3864 7.69277 4.37866 7.70147 4.37286C7.70583 4.36995 7.70939 4.36751 7.71211 4.36563C7.71348 4.36468 7.71463 4.36388 7.71557 4.36322C7.71603 4.36289 7.71645 4.36259 7.71681 4.36234C7.71699 4.36221 7.71716 4.36209 7.71731 4.36198C7.71739 4.36193 7.71746 4.36188 7.71753 4.36183C7.71756 4.3618 7.71761 4.36177 7.71763 4.36175C7.71768 4.36172 7.71773 4.36169 7.57228 4.15835ZM7.85966 4.06164C7.86975 4.06164 7.86902 4.06399 7.8551 4.05801C7.84212 4.05243 7.8258 4.04308 7.80779 4.03043C7.79028 4.01814 7.77495 4.00537 7.76402 3.99564C7.7587 3.99089 7.75477 3.98718 7.75253 3.98503C7.75143 3.98396 7.75076 3.9833 7.75058 3.98311C7.75049 3.98302 7.75052 3.98306 7.75068 3.98322C7.75076 3.9833 7.75087 3.98341 7.75102 3.98356C7.75109 3.98363 7.75117 3.98372 7.75126 3.98381C7.7513 3.98385 7.75135 3.9839 7.7514 3.98395C7.75142 3.98397 7.75146 3.98401 7.75147 3.98403C7.75151 3.98407 7.75155 3.98411 7.57228 4.15835C7.39301 4.3326 7.39305 4.33264 7.39309 4.33268C7.3931 4.33269 7.39314 4.33274 7.39317 4.33277C7.39323 4.33283 7.39329 4.33289 7.39335 4.33295C7.39348 4.33308 7.39361 4.33322 7.39375 4.33336C7.39404 4.33366 7.39437 4.33399 7.39474 4.33436C7.39547 4.33511 7.39635 4.336 7.39739 4.33703C7.39946 4.33909 7.40213 4.34173 7.40536 4.34485C7.41182 4.35108 7.42061 4.35934 7.43142 4.36897C7.45275 4.38797 7.48331 4.41353 7.52036 4.43956C7.584 4.48427 7.7097 4.56164 7.85966 4.56164V4.06164ZM8 4.15835C7.75002 4.15519 7.75002 4.15508 7.75002 4.15497C7.75002 4.15493 7.75002 4.15483 7.75002 4.15475C7.75003 4.15461 7.75003 4.15447 7.75003 4.15433C7.75003 4.15405 7.75004 4.15378 7.75004 4.15351C7.75005 4.15298 7.75007 4.15247 7.75008 4.15199C7.75011 4.15103 7.75014 4.15017 7.75017 4.1494C7.75024 4.14786 7.75031 4.14665 7.75038 4.14571C7.75052 4.14391 7.75067 4.1428 7.75079 4.14205C7.75084 4.14178 7.75142 4.13738 7.75496 4.12975C7.75865 4.1218 7.76911 4.10293 7.79237 4.08591C7.81847 4.06682 7.84491 4.06164 7.85966 4.06164V4.56164C7.94361 4.56164 8.02219 4.5373 8.08758 4.48946C8.15013 4.4437 8.18702 4.38651 8.2085 4.34023C8.22982 4.29428 8.23954 4.25156 8.24427 4.22255C8.24674 4.20743 8.24812 4.19435 8.2489 4.18417C8.2493 4.17904 8.24955 4.17453 8.24971 4.17075C8.24979 4.16885 8.24985 4.16713 8.24989 4.16559C8.24992 4.16482 8.24993 4.16409 8.24995 4.16341C8.24995 4.16307 8.24996 4.16275 8.24996 4.16243C8.24997 4.16227 8.24997 4.16212 8.24997 4.16196C8.24997 4.16189 8.24997 4.16177 8.24997 4.16174C8.24998 4.16162 8.24998 4.16151 8 4.15835ZM7.75 3.64995V4.15835H8.25V3.64995H7.75ZM8.0155 3.39995H8V3.89995H8.0155V3.39995ZM7.7655 3.64995V4.15835H8.2655V3.64995H7.7655ZM8.0155 4.15835C7.76552 4.16151 7.76552 4.16162 7.76552 4.16174C7.76552 4.16177 7.76552 4.16189 7.76552 4.16196C7.76552 4.16212 7.76553 4.16227 7.76553 4.16243C7.76553 4.16275 7.76554 4.16307 7.76555 4.16341C7.76556 4.16409 7.76558 4.16482 7.7656 4.16559C7.76564 4.16713 7.7657 4.16885 7.76578 4.17075C7.76594 4.17453 7.76619 4.17904 7.76659 4.18417C7.76738 4.19435 7.76876 4.20743 7.77122 4.22255C7.77596 4.25156 7.78567 4.29428 7.807 4.34023C7.82847 4.38651 7.86537 4.4437 7.92791 4.48946C7.9933 4.5373 8.07189 4.56164 8.15583 4.56164V4.06164C8.17058 4.06164 8.19702 4.06682 8.22313 4.08591C8.24638 4.10293 8.25685 4.1218 8.26054 4.12975C8.26408 4.13738 8.26466 4.14178 8.2647 4.14205C8.26482 4.1428 8.26497 4.14391 8.26511 4.14571C8.26518 4.14665 8.26526 4.14786 8.26532 4.1494C8.26536 4.15017 8.26539 4.15103 8.26541 4.15199C8.26543 4.15247 8.26544 4.15298 8.26545 4.15351C8.26545 4.15378 8.26546 4.15405 8.26546 4.15433C8.26547 4.15447 8.26547 4.15461 8.26547 4.15475C8.26547 4.15483 8.26547 4.15493 8.26547 4.15497C8.26548 4.15508 8.26548 4.15519 8.0155 4.15835ZM8.15583 4.56164C8.30579 4.56164 8.4315 4.48427 8.49514 4.43956C8.53218 4.41353 8.56275 4.38797 8.58408 4.36897C8.59488 4.35934 8.60367 4.35108 8.61013 4.34485C8.61336 4.34173 8.61604 4.33909 8.6181 4.33703C8.61914 4.336 8.62002 4.33511 8.62076 4.33436C8.62112 4.33399 8.62145 4.33366 8.62174 4.33336C8.62188 4.33322 8.62202 4.33308 8.62214 4.33295C8.62221 4.33289 8.62227 4.33283 8.62232 4.33277C8.62235 4.33274 8.62239 4.33269 8.62241 4.33268C8.62245 4.33264 8.62249 4.3326 8.44322 4.15835C8.26394 3.98411 8.26398 3.98407 8.26402 3.98403C8.26403 3.98401 8.26407 3.98397 8.2641 3.98395C8.26414 3.9839 8.26419 3.98385 8.26424 3.98381C8.26432 3.98372 8.2644 3.98363 8.26448 3.98356C8.26462 3.98341 8.26473 3.9833 8.26481 3.98322C8.26497 3.98306 8.265 3.98302 8.26491 3.98311C8.26473 3.9833 8.26407 3.98396 8.26296 3.98503C8.26073 3.98718 8.2568 3.99089 8.25147 3.99564C8.24054 4.00537 8.22521 4.01814 8.20771 4.03043C8.1897 4.04308 8.17337 4.05243 8.16039 4.05801C8.14648 4.06399 8.14574 4.06164 8.15583 4.06164V4.56164ZM8.44322 4.15835C8.29777 4.36169 8.29782 4.36172 8.29786 4.36175C8.29788 4.36177 8.29793 4.3618 8.29797 4.36183C8.29804 4.36188 8.29811 4.36193 8.29818 4.36198C8.29834 4.36209 8.2985 4.36221 8.29868 4.36234C8.29904 4.36259 8.29946 4.36289 8.29993 4.36322C8.30086 4.36388 8.30202 4.36468 8.30338 4.36563C8.3061 4.36751 8.30967 4.36995 8.31402 4.37285C8.32272 4.37866 8.33465 4.3864 8.34936 4.39543C8.3786 4.41335 8.41985 4.43696 8.4695 4.46064C8.56396 4.50569 8.71051 4.56164 8.87165 4.56164V4.06164C8.81865 4.06164 8.75099 4.04094 8.68476 4.00935C8.65407 3.99471 8.62836 3.97999 8.61073 3.96918C8.60201 3.96383 8.59552 3.9596 8.59166 3.95702C8.58974 3.95574 8.58849 3.95488 8.58797 3.95452C8.58771 3.95434 8.58763 3.95429 8.58775 3.95437C8.5878 3.95441 8.58791 3.95448 8.58806 3.95459C8.58814 3.95464 8.58823 3.9547 8.58833 3.95478C8.58838 3.95481 8.58843 3.95485 8.58849 3.95489C8.58851 3.95491 8.58856 3.95494 8.58857 3.95495C8.58862 3.95498 8.58866 3.95502 8.44322 4.15835ZM8.87165 4.56164C8.93074 4.56164 8.98197 4.55586 9.02874 4.54409C9.0765 4.53207 9.11078 4.51574 9.127 4.50816L8.91545 4.05513C8.90782 4.05869 8.90661 4.05919 8.90586 4.05948C8.90575 4.05953 8.90592 4.05946 8.90625 4.05935C8.90657 4.05925 8.90674 4.0592 8.90668 4.05922C8.90666 4.05922 8.90445 4.05979 8.89919 4.06038C8.89377 4.06099 8.88491 4.06164 8.87165 4.06164V4.56164ZM9.127 4.50816C9.13332 4.50521 9.13354 4.50516 9.13289 4.50543C9.13135 4.50607 9.12637 4.50806 9.11913 4.51005C9.11158 4.51212 9.10337 4.5137 9.09492 4.51451C9.08665 4.51531 9.08008 4.5152 9.07579 4.51491C9.06828 4.5144 9.0695 4.51347 9.0847 4.51784C9.0996 4.52212 9.12281 4.52998 9.15814 4.544L9.3426 4.07927C9.26046 4.04667 9.183 4.02098 9.10928 4.01603C9.01123 4.00945 8.9453 4.04118 8.91545 4.05513L9.127 4.50816ZM9.15814 4.544C9.15658 4.54338 9.1865 4.55767 9.23485 4.62891C9.27981 4.69515 9.32696 4.79059 9.3697 4.91224C9.45505 5.15516 9.51303 5.47455 9.51303 5.80643H10.013C10.013 5.42123 9.9465 5.04555 9.84143 4.7465C9.78897 4.59718 9.72443 4.4599 9.64856 4.34811C9.57606 4.24131 9.47599 4.13222 9.3426 4.07927L9.15814 4.544ZM9.51303 5.80643C9.51303 5.92694 9.45221 6.13048 9.32967 6.39696C9.21177 6.65336 9.05245 6.93548 8.88998 7.20053C8.72803 7.46472 8.56569 7.70755 8.44362 7.88458C8.38266 7.97299 8.33194 8.04472 8.29657 8.09418C8.27888 8.11891 8.26505 8.13806 8.25571 8.15093C8.25104 8.15737 8.24749 8.16223 8.24515 8.16544C8.24398 8.16704 8.24311 8.16823 8.24255 8.16899C8.24227 8.16937 8.24207 8.16965 8.24195 8.16981C8.24189 8.1699 8.24184 8.16995 8.24182 8.16998C8.24181 8.17 8.24181 8.17 8.24181 8.17001C8.24181 8.17 8.24182 8.16999 8.44322 8.31811C8.64461 8.46622 8.64463 8.4662 8.64466 8.46617C8.64467 8.46615 8.6447 8.46611 8.64473 8.46607C8.64479 8.46599 8.64487 8.46588 8.64497 8.46574C8.64516 8.46548 8.64544 8.4651 8.64579 8.46462C8.6465 8.46365 8.64753 8.46225 8.64885 8.46044C8.65151 8.45681 8.65537 8.45151 8.66037 8.44462C8.67036 8.43085 8.68488 8.41075 8.70329 8.385C8.74009 8.33353 8.79248 8.25946 8.85525 8.16841C8.98065 7.98655 9.14826 7.73592 9.31627 7.46183C9.48375 7.18859 9.65438 6.88762 9.78395 6.60585C9.90887 6.33417 10.013 6.04448 10.013 5.80643H9.51303ZM8.20227 8.38476L8.27209 8.63717L8.75399 8.50386L8.68417 8.25145L8.20227 8.38476ZM8.51304 8.57052C8.66718 8.76735 8.66724 8.7673 8.6673 8.76725C8.66733 8.76723 8.66739 8.76718 8.66745 8.76714C8.66756 8.76705 8.66769 8.76694 8.66784 8.76682C8.66815 8.76658 8.66854 8.76628 8.66901 8.7659C8.66996 8.76516 8.67123 8.76415 8.67283 8.76287C8.67603 8.76033 8.68051 8.75673 8.68621 8.7521C8.69761 8.74285 8.71388 8.72948 8.73441 8.71216C8.77547 8.67754 8.83367 8.62707 8.90422 8.56213C9.04515 8.4324 9.23629 8.2441 9.43884 8.00824C9.84087 7.54007 10.3025 6.86761 10.49 6.08125L10.0036 5.96529C9.84242 6.64153 9.43718 7.24269 9.05951 7.68249C8.87219 7.90062 8.69527 8.07489 8.5656 8.19425C8.50085 8.25385 8.44812 8.29954 8.41207 8.32994C8.39405 8.34514 8.38021 8.3565 8.37115 8.36385C8.36662 8.36753 8.36329 8.3702 8.36122 8.37185C8.36019 8.37267 8.35948 8.37324 8.35909 8.37354C8.35889 8.3737 8.35878 8.37379 8.35875 8.37381C8.35873 8.37382 8.35874 8.37382 8.35876 8.3738C8.35878 8.37379 8.35881 8.37376 8.35882 8.37375C8.35886 8.37372 8.35891 8.37369 8.51304 8.57052ZM10.49 6.08125C10.6848 5.26413 10.4287 4.5851 10.1349 4.1215C9.98806 3.88978 9.82989 3.70833 9.70831 3.58454C9.64735 3.52247 9.59508 3.47438 9.55729 3.44122C9.53838 3.42462 9.52306 3.41173 9.51203 3.40264C9.50651 3.3981 9.50207 3.39451 9.49878 3.39188C9.49714 3.39057 9.49578 3.3895 9.49473 3.38867C9.4942 3.38825 9.49375 3.3879 9.49337 3.3876C9.49319 3.38745 9.49302 3.38732 9.49287 3.38721C9.49279 3.38715 9.4927 3.38707 9.49266 3.38704C9.49257 3.38697 9.49248 3.3869 9.33908 3.58431C9.18568 3.78171 9.1856 3.78165 9.18553 3.78159C9.18551 3.78158 9.18544 3.78153 9.18541 3.7815C9.18533 3.78144 9.18528 3.7814 9.18524 3.78137C9.18517 3.78132 9.18517 3.78132 9.18525 3.78138C9.1854 3.7815 9.18584 3.78185 9.18657 3.78242C9.18801 3.78358 9.19058 3.78565 9.19418 3.78862C9.20139 3.79455 9.21271 3.80406 9.22748 3.81702C9.25705 3.84296 9.30021 3.88258 9.35159 3.93489C9.4547 4.03988 9.58885 4.19393 9.71254 4.38913C9.95983 4.77936 10.1575 5.31981 10.0036 5.96529L10.49 6.08125ZM9.36134 3.3353L9.2804 3.32806L9.23587 3.82608L9.31682 3.83331L9.36134 3.3353ZM9.00813 3.19995V3.57707H9.50813V3.19995H9.00813Z" fill="#FFD018"/>
<path fill-rule="evenodd" clip-rule="evenodd" d="M6.55176 6.8924C6.55176 6.8924 6.709 6.47019 6.98397 6.61093C7.25894 6.75166 7.23493 7.24161 7.4851 7.06701C7.73528 6.8924 7.59345 6.61093 7.96417 6.61093C8.3349 6.61093 8.28029 7.06701 8.50262 7.06701C8.72495 7.06701 8.74419 6.61093 8.99272 6.61093C9.24125 6.61093 9.49331 6.8924 9.49331 6.8924L8.02253 8.89366L6.55176 6.8924Z" fill="#8FC753"/>
<path fill-rule="evenodd" clip-rule="evenodd" d="M7.94724 1.01471H8.04724V1.12189H8.17007V1.22189H8.04724V1.40391C8.18513 1.42721 8.29036 1.55089 8.29036 1.69997C8.29036 1.86566 8.16038 1.99997 8.00004 1.99997C7.8397 1.99997 7.70972 1.86566 7.70972 1.69997C7.70972 1.55292 7.81211 1.43058 7.94724 1.40492V1.22189H7.83436V1.12189H7.94724V1.01471Z" fill="#FFD018"/>
<path fill-rule="evenodd" clip-rule="evenodd" d="M6.87351 2.58303C6.73353 2.58303 6.43835 2.76539 6.43835 2.76539L6.66787 3.38548L8.05219 3.3222L9.43652 3.38548L9.66603 2.76539C9.66603 2.76539 9.37086 2.58303 9.23088 2.58303C9.16942 2.58303 9.16161 2.53896 9.15286 2.48954C9.14168 2.4264 9.12895 2.35452 9.00087 2.35452C8.91025 2.35452 8.84622 2.37283 8.79438 2.38766C8.71558 2.4102 8.66496 2.42469 8.59196 2.35452C8.58892 2.35159 8.58587 2.34865 8.58282 2.34572C8.46465 2.232 8.34192 2.11389 8.14338 2.11389C8.10377 2.11389 8.07417 2.15952 8.05219 2.23303C8.03022 2.15952 8.00062 2.11389 7.96101 2.11389C7.76247 2.11389 7.63974 2.232 7.52157 2.34572C7.51852 2.34865 7.51547 2.35159 7.51243 2.35452C7.43943 2.42469 7.38881 2.4102 7.31001 2.38766C7.25817 2.37283 7.19414 2.35452 7.10352 2.35452C6.97544 2.35452 6.96271 2.4264 6.95153 2.48954C6.94277 2.53896 6.93497 2.58303 6.87351 2.58303Z" fill="#E31D1C"/>
<path fill-rule="evenodd" clip-rule="evenodd" d="M7.5 1.99995C7.5 1.99995 7.83332 1.75867 8 1.75867C8.16668 1.75867 8.5 1.99995 8.5 1.99995V3.99995H7.5V1.99995Z" fill="#FFD018"/>
<path fill-rule="evenodd" clip-rule="evenodd" d="M7.80405 1.78418L7.70688 1.81789C7.4501 1.90697 7.22774 1.93635 7.03991 1.9074C6.65319 1.84781 6.1486 2.04902 6.21183 2.34368C6.23953 2.47281 6.32041 2.71669 6.40452 2.92339C6.52122 3.2102 6.60291 3.35488 6.69845 3.35488C6.71082 3.35488 6.84054 3.36196 6.88378 3.36432C6.89156 3.36475 6.89654 3.36502 6.89753 3.36507C7.03805 3.37218 7.16192 3.37594 7.28107 3.37539C7.62563 3.37378 7.8392 3.33995 7.91547 3.23658L7.93792 3.20616L7.92726 3.16952C7.83678 2.85838 7.7949 2.43155 7.80255 1.89009L7.80405 1.78418ZM6.35355 2.31121C6.32254 2.16672 6.71723 2.00934 7.0185 2.05576C7.20617 2.08469 7.41882 2.06292 7.65653 1.99139C7.65528 2.47268 7.69453 2.86362 7.77494 3.16496C7.70605 3.20101 7.52501 3.22425 7.28042 3.22539C7.16427 3.22593 7.04279 3.22224 6.90463 3.21525C6.90586 3.21531 6.76231 3.20736 6.71316 3.20534C6.71152 3.20368 6.7096 3.2016 6.70746 3.1991C6.6945 3.184 6.6783 3.15959 6.66005 3.12726C6.62407 3.06354 6.58206 2.97271 6.53833 2.86525C6.45732 2.66616 6.37909 2.43026 6.35355 2.31121Z" fill="#FFD018"/>
<path fill-rule="evenodd" clip-rule="evenodd" d="M8.22744 1.78418L8.32461 1.81789C8.58139 1.90697 8.80376 1.93635 8.99159 1.9074C9.3783 1.84781 9.88289 2.04902 9.81967 2.34368C9.79196 2.47281 9.71108 2.71669 9.62698 2.92339C9.51027 3.2102 9.42859 3.35488 9.33304 3.35488C9.32068 3.35488 9.19095 3.36196 9.14772 3.36432C9.13993 3.36475 9.13495 3.36502 9.13396 3.36507C8.99344 3.37218 8.86957 3.37594 8.75042 3.37539C8.40587 3.37378 8.1923 3.33995 8.11602 3.23658L8.09358 3.20616L8.10423 3.16952C8.19471 2.85838 8.23659 2.43155 8.22894 1.89009L8.22744 1.78418ZM9.67795 2.31121C9.70895 2.16672 9.31426 2.00934 9.013 2.05576C8.82533 2.08469 8.61268 2.06292 8.37496 1.99139C8.37622 2.47268 8.33697 2.86362 8.25655 3.16496C8.32545 3.20101 8.50649 3.22425 8.75108 3.22539C8.86722 3.22593 8.9887 3.22224 9.12686 3.21525C9.12563 3.21531 9.26918 3.20736 9.31834 3.20534C9.31997 3.20368 9.32189 3.2016 9.32404 3.1991C9.337 3.184 9.35319 3.15959 9.37144 3.12726C9.40742 3.06354 9.44944 2.97271 9.49316 2.86525C9.57418 2.66616 9.6524 2.43026 9.67795 2.31121Z" fill="#FFD018"/>
<path d="M3.97866 10.1603L3.60828 9.23139C5.13877 8.62111 6.60312 8.31421 8.00005 8.31421C9.37958 8.31421 10.6819 8.50307 11.9054 8.88146L11.6099 9.83682C10.4841 9.48864 9.28133 9.31421 8.00005 9.31421C6.73617 9.31421 5.39613 9.59506 3.97866 10.1603Z" fill="white"/>
<path d="M6.88708 8.94248L6.91746 8.69434C7.45474 8.7601 7.81349 8.79299 7.99425 8.79311C8.26685 8.80537 8.59175 8.78563 8.96845 8.73358L9.00266 8.98123C8.61189 9.03522 8.27218 9.05586 7.98863 9.04299C7.79994 9.04299 7.43445 9.00948 6.88708 8.94248Z" fill="#272727"/>
<path fill-rule="evenodd" clip-rule="evenodd" d="M5.16188 4C5.16188 4 3.77069 5.25531 4.04526 6.48285C4.35717 8.35159 6.22934 9.00414 6.22934 9.00414L7.22114 8.65267C7.22114 8.65267 5.32094 7.56378 5.32094 6.48285C5.32094 5.40192 5.60554 4 5.60554 4H5.16188Z" fill="#006923"/>
<path fill-rule="evenodd" clip-rule="evenodd" d="M11.0593 4C11.0593 4 12.4505 5.25531 12.1759 6.48285C11.864 8.35159 9.99185 9.00414 9.99185 9.00414L9.00005 8.65267C9.00005 8.65267 10.9003 7.56378 10.9003 6.48285C10.9003 5.40192 10.6157 4 10.6157 4H11.0593Z" fill="#009933"/>
</g>
</g>
<defs>
<clipPath id="clip0_270_55122">
<rect width="16" height="12" fill="white"/>
</clipPath>
</defs>
</svg>
