<svg xmlns="http://www.w3.org/2000/svg" xmlns:xlink="http://www.w3.org/1999/xlink" width="16" height="12" viewBox="0 0 16 12">
  <defs>
    <rect id="a" width="16" height="12"/>
    <path id="c" d="M0.0195135747,3.02636719 C0.966628959,1.03302784 2.11750566,0.0363581731 3.47214367,0.0363581731 C4.82678167,0.0363581731 5.99358385,1.03302784 6.9725502,3.02636719 C5.777167,4.99351462 4.61832756,5.97708834 3.49603189,5.97708834 C2.37373621,5.97708834 1.21489678,4.99351462 0.0195135747,3.02636719 Z"/>
  </defs>
  <g fill="none" fill-rule="evenodd">
    <mask id="b" fill="white">
      <use xlink:href="#a"/>
    </mask>
    <g mask="url(#b)">
      <polygon fill="#3D58DB" points="0 0 16 0 16 12 0 12"/>
      <path fill="#C51918" stroke="#FFD018" d="M-0.5,2.5 L16.5,2.5 L16.5,9.5 L-0.5,9.5 L-0.5,2.5 Z"/>
      <g transform="translate(2 2)">
        <g transform="translate(.027 .423)">
          <g transform="translate(1.439 .4)">
            <path fill="#FFD018" fill-rule="nonzero" d="M0.108597285,1.84243227 C0.0486206607,1.84243227 0,1.70683144 0,1.53955933 C0,1.37228723 0.0486206607,1.23668639 0.108597285,1.23668639 L8.81398473,1.23668639 C8.87396135,1.23668639 8.92258201,1.37228723 8.92258201,1.53955933 C8.92258201,1.70683144 8.87396135,1.84243227 8.81398473,1.84243227 L0.108597285,1.84243227 Z"/>
            <polygon fill="#F7FCFF" points="8.582 1.478 9.087 .833 9.982 1.478 9.087 2.14"/>
          </g>
          <g transform="translate(1.439 2.4)">
            <path fill="#FFD018" fill-rule="nonzero" d="M0.108597285,1.84243227 C0.0486206607,1.84243227 0,1.70683144 0,1.53955933 C0,1.37228723 0.0486206607,1.23668639 0.108597285,1.23668639 L8.81398473,1.23668639 C8.87396135,1.23668639 8.92258201,1.37228723 8.92258201,1.53955933 C8.92258201,1.70683144 8.87396135,1.84243227 8.81398473,1.84243227 L0.108597285,1.84243227 Z"/>
            <polygon fill="#F7FCFF" points="8.582 1.478 9.087 .833 9.982 1.478 9.087 2.14"/>
          </g>
          <path fill="#FFD018" fill-rule="nonzero" d="M0.14560612,0.987782882 C0.0651900807,0.987782882 0,0.833817457 0,0.64389148 C0,0.453965502 0.0651900807,0.300000077 0.14560612,0.300000077 L11.8176999,0.300000077 C11.8981159,0.300000077 11.963306,0.453965502 11.963306,0.64389148 C11.963306,0.833817457 11.8981159,0.987782882 11.8176999,0.987782882 L0.14560612,0.987782882 Z" transform="translate(0 4.5)"/>
        </g>
        <g transform="translate(2.39 1)">
          <mask id="d" fill="white">
            <use xlink:href="#c"/>
          </mask>
          <use fill="#F7FCFF" xlink:href="#c"/>
          <path fill="#272727" d="M3.57299915,-0.159930889 C3.26391049,0.215469752 3.16088094,0.58215645 3.26391049,0.940129207 C3.41845482,1.47708834 3.778528,1.4203726 3.778528,1.89325421 C3.778528,2.36613582 3.61218538,2.84840745 3.778528,2.84840745 C3.94487062,2.84840745 4.0025099,3.17472957 3.8504843,3.39595853 C3.69845871,3.6171875 3.56399195,3.62402344 3.57299915,3.98407452 C3.58200636,4.3441256 4.36901579,4.69756611 3.98776867,4.69756611 C3.60652154,4.69756611 3.10403705,5.06760817 3.26391049,5.06760817 C3.42378394,5.06760817 4.26021635,5.35591947 4.26021635,5.73429988 C4.26021635,5.98655349 4.26021635,6.21361679 4.26021635,6.41548978 L-0.103506787,6.41548978 L-0.103506787,-0.159930889 L3.57299915,-0.159930889 Z" mask="url(#d)"/>
          <path fill="#F7FCFF" d="M1.30316742,1.96153846 L1.52036199,1.96153846 L1.52036199,2.84615385 L1.30316742,2.84615385 L1.30316742,1.96153846 Z M1.9438914,1.96153846 L2.16108597,1.96153846 L2.16108597,2.84615385 L1.9438914,2.84615385 L1.9438914,1.96153846 Z M1.62352941,1.96153846 L1.84072398,1.96153846 L1.84072398,2.84615385 L1.62352941,2.84615385 L1.62352941,1.96153846 Z M2.26425339,1.96153846 L2.48144796,1.96153846 L2.48144796,2.84615385 L2.26425339,2.84615385 L2.26425339,1.96153846 Z M2.58461538,1.96153846 L2.80180995,1.96153846 L2.80180995,2.84615385 L2.58461538,2.84615385 L2.58461538,1.96153846 Z M2.90497738,1.96153846 L3.12217195,1.96153846 L3.12217195,2.84615385 L2.90497738,2.84615385 L2.90497738,1.96153846 Z M1.30316742,3.23076923 L1.52036199,3.23076923 L1.52036199,4.11538462 L1.30316742,4.11538462 L1.30316742,3.23076923 Z M1.9438914,3.23076923 L2.16108597,3.23076923 L2.16108597,4.11538462 L1.9438914,4.11538462 L1.9438914,3.23076923 Z M1.62352941,3.23076923 L1.84072398,3.23076923 L1.84072398,4.11538462 L1.62352941,4.11538462 L1.62352941,3.23076923 Z M2.26425339,3.23076923 L2.48144796,3.23076923 L2.48144796,4.11538462 L2.26425339,4.11538462 L2.26425339,3.23076923 Z M2.58461538,3.23076923 L2.80180995,3.23076923 L2.80180995,4.11538462 L2.58461538,4.11538462 L2.58461538,3.23076923 Z M2.90497738,3.23076923 L3.12217195,3.23076923 L3.12217195,4.11538462 L2.90497738,4.11538462 L2.90497738,3.23076923 Z" mask="url(#d)"/>
          <path fill="#272727" d="M3.88235294,1.96153846 L4.09954751,1.96153846 L4.09954751,2.84615385 L3.88235294,2.84615385 L3.88235294,1.96153846 Z M4.52307692,1.96153846 L4.74027149,1.96153846 L4.74027149,2.84615385 L4.52307692,2.84615385 L4.52307692,1.96153846 Z M4.20271493,1.96153846 L4.4199095,1.96153846 L4.4199095,2.84615385 L4.20271493,2.84615385 L4.20271493,1.96153846 Z M4.84343891,1.96153846 L5.06063348,1.96153846 L5.06063348,2.84615385 L4.84343891,2.84615385 L4.84343891,1.96153846 Z M5.1638009,1.96153846 L5.38099548,1.96153846 L5.38099548,2.84615385 L5.1638009,2.84615385 L5.1638009,1.96153846 Z M5.4841629,1.96153846 L5.70135747,1.96153846 L5.70135747,2.84615385 L5.4841629,2.84615385 L5.4841629,1.96153846 Z M3.88235294,3.23076923 L4.09954751,3.23076923 L4.09954751,4.11538462 L3.88235294,4.11538462 L3.88235294,3.23076923 Z M4.52307692,3.23076923 L4.74027149,3.23076923 L4.74027149,4.11538462 L4.52307692,4.11538462 L4.52307692,3.23076923 Z M4.20271493,3.23076923 L4.4199095,3.23076923 L4.4199095,4.11538462 L4.20271493,4.11538462 L4.20271493,3.23076923 Z M4.84343891,3.23076923 L5.06063348,3.23076923 L5.06063348,4.11538462 L4.84343891,4.11538462 L4.84343891,3.23076923 Z M5.1638009,3.23076923 L5.38099548,3.23076923 L5.38099548,4.11538462 L5.1638009,4.11538462 L5.1638009,3.23076923 Z M5.4841629,3.23076923 L5.70135747,3.23076923 L5.70135747,4.11538462 L5.4841629,4.11538462 L5.4841629,3.23076923 Z" mask="url(#d)"/>
          <path fill="#3D58DB" d="M2.41066883,0.501774225 C2.09467197,0.541772771 1.81900452,1.3033818 1.81900452,1.49922014 C1.81900452,1.62977903 1.86545532,1.62977903 1.9583569,1.49922014 C2.04360506,1.82398977 2.08622914,2.02804125 2.08622914,2.11137459 C2.08622914,2.19470792 2.14051895,2.14129746 2.24909856,1.95114321 C2.4597179,2.15857511 2.56502757,2.35716785 2.56502757,2.54692146 C2.56502757,2.73667507 2.62422229,2.63854305 2.74261171,2.25252543 C2.79860718,2.25252543 2.82660492,2.25252543 2.82660492,2.25252543 C2.82660492,2.25252543 2.82660492,2.15206469 2.82660492,1.95114321 L2.95853365,2.11137459 L2.95853365,1.83110115 C3.01855911,1.94678624 3.04857183,1.94678624 3.04857183,1.83110115 C3.04857183,1.71541605 3.04857183,1.62528082 3.04857183,1.56069546 L3.04857183,1.32351401 L3.20711963,1.32351401 C2.88681701,0.749021788 2.62133341,0.475108527 2.41066883,0.501774225 Z" mask="url(#d)" transform="rotate(-10 2.513 1.57)"/>
        </g>
        <path fill="#3D58DB" d="M11.044153,4.84792807 C10.7281561,4.88792662 10.4524887,5.64953564 10.4524887,5.84537398 C10.4524887,5.97593288 10.4989395,5.97593288 10.5918411,5.84537398 C10.6770892,6.17014362 10.7197133,6.3741951 10.7197133,6.45752843 C10.7197133,6.54086176 10.7740031,6.48745131 10.8825827,6.29729706 C11.0932021,6.50472895 11.1985117,6.7033217 11.1985117,6.89307531 C11.1985117,7.08282891 11.2577064,6.9846969 11.3760959,6.59867927 C11.4320913,6.59867927 11.4600891,6.59867927 11.4600891,6.59867927 C11.4600891,6.59867927 11.4600891,6.49821854 11.4600891,6.29729706 L11.5920178,6.45752843 L11.5920178,6.17725499 C11.6520433,6.29294009 11.682056,6.29294009 11.682056,6.17725499 C11.682056,6.0615699 11.682056,5.97143467 11.682056,5.9068493 L11.682056,5.66966785 L11.8406038,5.66966785 C11.5203012,5.09517563 11.2548176,4.82126237 11.044153,4.84792807 Z"/>
        <path fill="#3D58DB" d="M0.59166431,4.73254346 C0.275667443,4.772542 6.29217347e-18,5.53415103 0,5.72998937 C0,5.86054826 0.0464507919,5.86054826 0.139352376,5.72998937 C0.224600537,6.054759 0.267224618,6.25881048 0.267224618,6.34214382 C0.267224618,6.42547715 0.321514423,6.37206669 0.430094033,6.18191245 C0.640713377,6.38934434 0.746023049,6.58793709 0.746023049,6.77769069 C0.746023049,6.9674443 0.80521776,6.86931229 0.923607183,6.48329466 C0.979602658,6.48329466 1.0076004,6.48329466 1.0076004,6.48329466 C1.0076004,6.48329466 1.0076004,6.38283392 1.0076004,6.18191245 L1.13952913,6.34214382 L1.13952913,6.06187038 C1.19955458,6.17755547 1.22956731,6.17755547 1.22956731,6.06187038 C1.22956731,5.94618528 1.22956731,5.85605005 1.22956731,5.79146469 L1.22956731,5.55428324 L1.3881151,5.55428324 C1.06781249,4.97979102 0.802328888,4.70587776 0.59166431,4.73254346 Z" transform="matrix(-1 0 0 1 1.388 0)"/>
      </g>
    </g>
  </g>
</svg>
