<svg xmlns="http://www.w3.org/2000/svg" xmlns:xlink="http://www.w3.org/1999/xlink" width="16" height="12" viewBox="0 0 16 12">
  <defs>
    <rect id="a" width="16" height="12"/>
    <rect id="c" width="16" height="12"/>
  </defs>
  <g fill="none" fill-rule="evenodd">
    <mask id="b" fill="white">
      <use xlink:href="#a"/>
    </mask>
    <g mask="url(#b)">
      <mask id="d" fill="white">
        <use xlink:href="#c"/>
      </mask>
      <use fill="#2E42A5" xlink:href="#c"/>
      <polygon fill="#F7FCFF" points="1.647 5.032 1.204 5.306 1.376 4.846 1 4.498 1.456 4.498 1.647 4 1.793 4.498 2.25 4.498 1.921 4.846 2.082 5.306" mask="url(#d)"/>
      <polygon fill="#F7FCFF" points="3.647 3.032 3.204 3.306 3.376 2.846 3 2.498 3.456 2.498 3.647 2 3.793 2.498 4.25 2.498 3.921 2.846 4.082 3.306" mask="url(#d)"/>
      <polygon fill="#F7FCFF" points="5.647 5.032 5.204 5.306 5.376 4.846 5 4.498 5.456 4.498 5.647 4 5.793 4.498 6.25 4.498 5.921 4.846 6.082 5.306" mask="url(#d)"/>
      <polygon fill="#F7FCFF" points="3.647 7.032 3.204 7.306 3.376 6.846 3 6.498 3.456 6.498 3.647 6 3.793 6.498 4.25 6.498 3.921 6.846 4.082 7.306" mask="url(#d)"/>
      <path fill="#FECA00" d="M3.6706128,8.2725911 C8.14304207,5.25094271 11.0598334,3.40392464 12.4209869,2.73153686 C11.7596883,3.72549441 11.7596883,4.88115629 12.4209869,6.19852251 C13.4129349,8.17457183 13.8019096,8.03918423 14.8461792,8.2725911 L3.6706128,8.2725911 Z M3.15502713,9.36251844 L3.30784318,8.98254951 L14.6846796,9.00263082 L15,9.42012754 L14.6846796,10 L3.30784318,9.78001516 L3.15502713,9.36251844 Z" mask="url(#d)"/>
    </g>
  </g>
</svg>
