<svg xmlns="http://www.w3.org/2000/svg" xmlns:xlink="http://www.w3.org/1999/xlink" width="16" height="12" viewBox="0 0 16 12">
  <defs>
    <rect id="a" width="16" height="12"/>
    <rect id="c" width="16" height="12"/>
  </defs>
  <g fill="none" fill-rule="evenodd">
    <mask id="b" fill="white">
      <use xlink:href="#a"/>
    </mask>
    <g mask="url(#b)">
      <mask id="d" fill="white">
        <use xlink:href="#c"/>
      </mask>
      <use fill="#E31D1C" xlink:href="#c"/>
      <circle cx="8" cy="6" r="4" fill="#F7FCFF" mask="url(#d)"/>
      <path fill="#E31D1C" d="M6.59309471,5.96408404 C6.55359138,8.22722803 8.65142281,8.83910812 8.65142281,8.83910812 C7.8447344,9.18172721 5.23129471,8.64839371 5.27855002,5.94113858 C5.32580534,3.23388344 7.88563399,2.7607989 8.75136613,3.11335907 C8.75136613,3.11335907 6.63259803,3.70094005 6.59309471,5.96408404 Z M7.54107175,5.87022885 L8.59350931,5.50638139 L8.59806398,4.46954765 L9.24591099,5.3089382 L10.207502,5.00385314 L9.70139492,5.95271358 L10.502436,6.62987256 L9.37596615,6.53012723 L8.67766486,7.33570183 L8.6581882,6.28273456 L7.54107175,5.87022885 Z" mask="url(#d)" transform="rotate(-1 7.89 5.971)"/>
    </g>
  </g>
</svg>
