<svg xmlns="http://www.w3.org/2000/svg" xmlns:xlink="http://www.w3.org/1999/xlink" width="16" height="12" viewBox="0 0 16 12">
  <defs>
    <rect id="ug---uganda-a" width="16" height="12" x="0" y="0" rx="-1"/>
    <rect id="ug---uganda-c" width="16" height="12" x="0" y="0"/>
  </defs>
  <g fill="none" fill-rule="evenodd">
    <mask id="ug---uganda-b" fill="#fff">
      <use xlink:href="#ug---uganda-a"/>
    </mask>
    <g mask="url(#ug---uganda-b)">
      <mask id="ug---uganda-d" fill="#fff">
        <use xlink:href="#ug---uganda-c"/>
      </mask>
      <use fill="#FECA00" xlink:href="#ug---uganda-c"/>
      <rect width="16" height="2" fill="#272727" mask="url(#ug---uganda-d)"/>
      <rect width="16" height="2" y="4" fill="#D74800" mask="url(#ug---uganda-d)"/>
      <rect width="16" height="2" y="6" fill="#272727" mask="url(#ug---uganda-d)"/>
      <rect width="16" height="2" y="10" fill="#D74800" mask="url(#ug---uganda-d)"/>
      <circle cx="8" cy="6" r="3" fill="#F7FCFF" mask="url(#ug---uganda-d)"/>
      <g mask="url(#ug---uganda-d)">
        <g transform="translate(6 3)">
          <path fill="#272727" d="M0.310809969,1.33789368 L0.83979684,1.16431893 C0.860958311,0.935469622 0.984784937,0.821044966 1.21127672,0.821044966 C1.4377685,0.821044966 1.6193055,0.935469622 1.75588773,1.16431893 C1.45661568,1.38120465 1.30697966,1.57831574 1.30697966,1.75565219 C1.30697966,2.02165687 1.15300398,2.38927346 1.75588773,2.62690688 C2.35877148,2.86454031 3.32673865,2.86454031 3.45110487,3.29600694 C3.57547109,3.72747358 3.21747982,3.88681405 2.72699055,3.88681405 C2.23650128,3.88681405 1.83746569,3.68080393 2.03698348,3.88681405 C2.23650128,4.09282417 2.74718513,4.5813181 2.39208431,4.5813181 C2.27347056,4.5813181 1.82742423,4.22580498 1.81026336,4.5240074 C1.79940974,4.7126093 2.01216393,5.23107403 1.81026336,5.4314538 C1.76224446,5.479111 2.40931202,5.57671368 2.35877148,5.62034046 C2.22954211,5.73189171 1.97883365,5.62034046 1.64039955,5.62034046 C1.59749981,5.62034046 1.02826667,5.96440549 0.970506557,5.96169768 C0.9150803,5.95906775 1.3565741,5.62511583 1.30697966,5.62034046 C1.01697935,5.59241681 0.682565455,5.6486192 0.669852764,5.62034046 C0.647527953,5.57068005 1.40413813,5.63417575 1.56496305,5.4314538 C1.81851591,5.11184704 1.52645218,4.49318415 1.49483976,4.49025426 C1.09427823,4.45312962 0.703999267,4.44598211 0.610799302,4.5813181 C0.433749902,4.83841216 0.0555255179,5.09663262 0.0555255179,4.96752239 C0.0555255179,4.83841216 -0.148848224,4.44121782 0.758558859,4.44121782 C1.36349691,4.44121782 1.61294875,4.40828827 1.50691438,4.34242917 L1.50691438,4.00508645 C0.593405246,3.79046086 0.136650679,3.44647135 0.136650679,2.97311791 C0.136650679,2.26308775 0.754275405,1.91894443 0.83979684,1.75565219 C0.89681113,1.6467907 0.89681113,1.52263454 0.83979684,1.38318372 L0.310809969,1.33789368 Z M1.76389422,4.03735743 L1.76389422,4.28824104 C2.00184258,4.3516799 2.09629294,4.32457264 2.04724529,4.20691925 C1.99819765,4.08926587 1.90374729,4.03274526 1.76389422,4.03735743 Z"/>
          <polygon fill="#D74800" points=".538 .356 1.045 .957 1.308 .895 1.182 .288"/>
          <polygon fill="#FFD018" points="1.062 .849 1.958 .974 1.928 .529 1.377 .245" transform="rotate(80 1.51 .61)"/>
          <ellipse cx=".846" cy="1.564" fill="#D74800" rx="1" ry="1"/>
          <polygon fill="#D74800" points="1.308 .538 1.814 1.139 2.077 1.077 1.951 .47" transform="rotate(80 1.692 .805)"/>
          <path fill="#D74800" d="M3.05932925,4.94654908 C3.65014389,4.68262219 3.94555121,4.36610836 3.94555121,3.9970076 C3.94555121,3.62790684 3.46588204,3.24233023 2.50654372,2.84027778 C1.94223873,2.96943062 1.7872631,3.12042457 2.04161683,3.29325963 C2.42314743,3.55251222 2.93431406,3.65211146 2.93431406,3.9970076 C2.93431406,4.34190375 3.07435249,4.67078099 2.7904481,4.67078099 C2.60117852,4.67078099 2.69080557,4.76270369 3.05932925,4.94654908 Z"/>
          <path fill="#FFFDFF" d="M1.78075303,2.73907317 C1.57179669,2.77577817 1.47227946,2.81110137 1.48220135,2.84504279 C1.52334187,2.98577898 1.95191425,3.1690862 2.13869791,3.29600694 C2.52022851,3.55525953 2.88195774,3.52613822 3.15106253,3.35741975 C3.33046572,3.24494078 2.87369589,3.03882525 1.78075303,2.73907317 Z"/>
        </g>
      </g>
    </g>
  </g>
</svg>
