<svg xmlns="http://www.w3.org/2000/svg" xmlns:xlink="http://www.w3.org/1999/xlink" width="16" height="12" viewBox="0 0 16 12">
  <defs>
    <rect id="union-of-south-american-nations-a" width="16" height="12" x="0" y="0"/>
  </defs>
  <g fill="none" fill-rule="evenodd">
    <mask id="union-of-south-american-nations-b" fill="#fff">
      <use xlink:href="#union-of-south-american-nations-a"/>
    </mask>
    <g fill="#2E42A5" mask="url(#union-of-south-american-nations-b)">
      <polygon points="0 0 16 0 16 12 0 12"/>
    </g>
    <path fill="#F7FCFF" d="M2.06675328,3.40690451 C1.89517809,3.28776174 2.08814289,3.05568516 2.26536542,3.16803595 C2.38159106,3.24171756 2.60574686,3.37246557 2.92599482,3.54127593 C3.46133182,3.82346486 4.0692125,4.10582788 4.73773677,4.36939435 C6.74862747,5.16219034 8.86544906,5.61905341 10.9852607,5.5692011 C11.2694545,5.57023847 11.6814396,5.53683934 12.0857871,5.43648757 C12.1314282,5.42516026 12.1759562,5.41313416 12.2192905,5.40039821 C12.1555512,5.25950133 12.0573599,5.10394121 11.9224165,4.93368169 C11.8146282,4.79768403 12.0002371,4.63037928 12.1534069,4.7254709 C12.2698509,4.79776227 12.4394111,4.92359828 12.6095448,5.09113649 C12.6439127,5.12498012 12.676891,5.15933381 12.7083309,5.1941778 C13.2490721,4.8664897 13.2841901,4.3429562 12.614921,3.49852071 C12.5071334,3.36252206 12.6927447,3.1952182 12.8459136,3.2903117 C12.8833271,3.31353949 12.9460438,3.35573724 13.0257322,3.41487797 C13.1577342,3.5128432 13.2896657,3.6235597 13.4132236,3.74523545 C13.9737843,4.29725741 14.1870447,4.88411203 13.8119791,5.44315126 C13.776243,5.49641631 13.7352611,5.54876656 13.6924681,5.5961552 C13.6179427,5.68496345 13.4691634,5.80907394 13.2365825,5.93033923 C13.1868256,5.95628197 13.1348434,5.9810223 13.0806094,6.00442021 C13.080043,6.2136257 12.9990365,6.4152615 12.8332726,6.59926405 C12.7715055,6.67285517 12.6500694,6.77414124 12.4612423,6.8725825 C12.3254181,6.94339181 12.1715762,7.00211616 11.9991973,7.04534097 C11.9948177,7.21585982 11.926788,7.38026762 11.7919333,7.529949 C11.7393118,7.59263643 11.6374745,7.67756768 11.4800063,7.7596543 C11.2582338,7.87526218 10.9853742,7.94989816 10.6672006,7.96645936 C10.6450874,8.05042328 10.6006816,8.13069906 10.5343068,8.20434138 C10.495033,8.25113371 10.4217913,8.31222038 10.3100674,8.37046142 C10.1369027,8.46073126 9.92015257,8.51505122 9.66963594,8.51710808 C9.6579404,8.51787955 9.6579404,8.51787955 9.61239318,8.51978836 C9.27844621,8.5315918 8.83159807,8.50913452 8.31196728,8.42473171 C7.5256391,8.29700965 6.74819287,8.0514837 6.0206898,7.65992262 C5.80645674,7.54461681 5.59882969,7.41763329 5.39850617,7.27852305 C5.22693354,7.15937825 5.41990086,6.92730475 5.59712166,7.03965673 C5.64503333,7.07003111 5.73925599,7.12499148 5.87464641,7.1963606 C6.10188748,7.31614747 6.36013745,7.4361084 6.64419104,7.54809959 C7.49744223,7.88450308 8.39482982,8.07818786 9.29445375,8.05708338 C9.40844371,8.05749492 9.57785646,8.04375755 9.74174846,8.00308431 C9.78119868,7.99329391 9.81775094,7.98243764 9.85127699,7.97057044 C8.03935126,7.90657984 6.01640157,7.38706757 4.20051261,6.12607944 C4.02893919,6.00693556 4.22190492,5.77486103 4.39912648,5.88721204 C4.47288619,5.93397259 4.61627179,6.01760875 4.82160693,6.12584674 C5.16542254,6.30708171 5.55596257,6.48849075 5.98548857,6.65783352 C7.27675162,7.16692039 8.63553159,7.46018379 9.99683145,7.42820453 C10.0008471,7.428219 10.0048817,7.42821577 10.0090955,7.428194 C9.98346877,7.38770217 9.95293893,7.34496714 9.91730941,7.30001355 C9.85654897,7.2233524 9.88901675,7.13674264 9.95635024,7.09279224 C9.61997196,7.06416002 9.25648456,7.02023219 8.87089086,6.9575966 C7.43604472,6.72452111 6.01766572,6.27655347 4.69100456,5.56246592 C4.30060295,5.35232867 3.92225503,5.12092888 3.55721658,4.86744203 C3.38564249,4.74829902 3.57860665,4.51622359 3.75582892,4.62857361 C3.84732236,4.68657587 4.02443703,4.78988494 4.27775824,4.92341663 C4.70155056,5.14680774 5.18284764,5.37037292 5.71217269,5.5790614 C7.30393922,6.20662158 8.97924939,6.56820076 10.6572564,6.52875439 C10.7988751,6.52927131 10.9947431,6.51785499 11.2083208,6.48573335 C11.1702545,6.41283041 11.1212308,6.33517223 11.0607743,6.25277267 C8.14034566,6.18828587 4.9218696,5.38951335 2.06675328,3.40690451 Z M10.4085076,7.3001758 C10.4368669,7.32810233 10.4635769,7.3566394 10.4884059,7.38578487 C10.7868447,7.33737436 11.0216308,7.25329895 11.1621577,7.13341664 C10.874557,7.1408524 10.5434084,7.13457553 10.1759995,7.10961569 C10.2407539,7.15262703 10.3244138,7.21736516 10.4085076,7.3001758 Z M11.6440217,6.54734295 C11.9673717,6.45705233 12.2774622,6.30420597 12.4093525,6.04549427 C12.1308473,6.19966004 11.8044065,6.22509766 11.276535,6.22509766 C11.3552456,6.27784239 11.4752061,6.32442994 11.6440217,6.54734295 Z M3.67001573,2.96875524 C3.4984412,2.84961094 3.69140935,2.61753543 3.86863069,2.72988852 C3.95064172,2.7818811 4.10972128,2.87467333 4.33738434,2.99468342 C4.71841314,3.19553857 5.15118294,3.3965678 5.62714661,3.58422273 C7.05821693,4.14844099 8.56426555,4.47349873 10.0729185,4.43805464 C10.2718095,4.43877762 10.5623362,4.41522149 10.8462942,4.34474337 C11.5964388,4.15855819 11.8007316,3.78525901 11.1983463,3.025274 C11.0905515,2.88927731 11.2761612,2.72196637 11.4293334,2.81705924 C11.5351187,2.8827332 11.6886907,2.99670423 11.842836,3.14849989 C12.2559422,3.55530906 12.4148961,3.99283732 12.1332574,4.41244526 C12.1066216,4.45212942 12.0761347,4.49106892 12.0452533,4.52523372 C11.9883842,4.59300059 11.8774384,4.68554904 11.705389,4.77525227 C11.4340978,4.91669825 11.092725,5.00225714 10.6887329,5.00574861 C10.6711912,5.00691255 10.6414674,5.00844787 10.5975787,5.0099989 C10.0504818,5.02933329 9.31615114,4.99241933 8.46146044,4.85357555 C7.16767401,4.64340105 5.88870288,4.23944507 4.69236387,3.59547985 C4.34033787,3.40599133 3.99917721,3.19733064 3.67001573,2.96875524 Z M8.29861137,9.50563426 C8.26141224,9.71115348 7.95708959,9.73333045 7.57972177,9.66578509 C7.20812305,9.59919654 6.93683285,9.47562508 6.97238717,9.27946729 C7.00952355,9.07385729 7.31381868,9.051703 7.69128844,9.11925997 C8.06292651,9.18584901 8.3341815,9.30938908 8.29861137,9.50563426 Z"/>
  </g>
</svg>
