<svg xmlns="http://www.w3.org/2000/svg" xmlns:xlink="http://www.w3.org/1999/xlink" width="16" height="12" viewBox="0 0 16 12">
  <defs>
    <rect id="a" width="16" height="12"/>
    <rect id="c" width="16" height="12"/>
  </defs>
  <g fill="none" fill-rule="evenodd">
    <mask id="b" fill="white">
      <use xlink:href="#a"/>
    </mask>
    <g mask="url(#b)">
      <mask id="d" fill="white">
        <use xlink:href="#c"/>
      </mask>
      <use fill="#F7FCFF" xlink:href="#c"/>
      <rect width="16" height="1" y="2" fill="#2E42A5" mask="url(#d)"/>
      <rect width="16" height="1" y="4" fill="#2E42A5" mask="url(#d)"/>
      <rect width="16" height="1" y="6" fill="#2E42A5" mask="url(#d)"/>
      <rect width="16" height="1" y="8" fill="#2E42A5" mask="url(#d)"/>
      <rect width="16" height="1" y="10" fill="#2E42A5" mask="url(#d)"/>
      <rect width="8" height="7" fill="#F7FCFF" mask="url(#d)"/>
      <path fill="#FFD018" stroke="#F19900" stroke-opacity=".98" stroke-width=".25" d="M4.61375633,5.51858108 C4.27312493,6.22481769 3.95311861,6.65033419 3.65373738,6.79513057 C3.78296053,6.47120935 3.87135501,5.9787925 3.91892081,5.31788001 C3.14161571,5.62605948 2.61655018,5.75206582 2.34372423,5.69589902 C2.67178676,5.46665348 3.06349816,5.13972716 3.51885842,4.71512004 C2.51278239,4.386208 2.0220857,4.15176085 2.04676835,4.01177858 C2.50092736,4.09324626 3.04029319,4.08957542 3.66486582,4.00076607 C2.95906705,3.15435395 2.64195585,2.6996767 2.71353222,2.63673432 C2.82111571,2.74130554 3.2978333,3.01451119 4.143685,3.45635127 C4.20505119,2.70328442 4.3267521,2.19980033 4.50878774,1.94589902 C4.53062306,2.12512412 4.66929064,2.62046458 4.92479046,3.43192038 C5.4384172,2.91799604 5.83777031,2.66103386 6.12284978,2.66103386 C5.99763064,2.8162885 5.78677192,3.23490611 5.49027362,3.91688668 C6.22920734,3.90525793 6.73912992,3.96859436 7.02004137,4.10689596 C6.67974585,4.15529875 6.21150464,4.32915212 5.61531774,4.62845606 C6.39180093,5.21746558 6.74464543,5.5732799 6.67385125,5.69589902 C6.25695463,5.49196003 5.80751617,5.35583983 5.32553586,5.28753842 C5.45875864,6.10722542 5.47152605,6.60975614 5.36383809,6.79513057 C5.25881094,6.52226028 5.00878368,6.09674378 4.61375633,5.51858108 Z" mask="url(#d)"/>
      <path fill="#FFD018" stroke="#F19900" stroke-opacity=".98" stroke-width=".25" d="M4.54676835,4.94589902 C4.82291073,4.94589902 5.04676835,4.7220414 5.04676835,4.44589902 C5.04676835,4.16975665 4.82291073,3.94589902 4.54676835,3.94589902 C4.27062598,3.94589902 4.04676835,4.16975665 4.04676835,4.44589902 C4.04676835,4.7220414 4.27062598,4.94589902 4.54676835,4.94589902 Z" mask="url(#d)"/>
    </g>
  </g>
</svg>
