<svg xmlns="http://www.w3.org/2000/svg" xmlns:xlink="http://www.w3.org/1999/xlink" width="16" height="12" viewBox="0 0 16 12">
  <defs>
    <rect id="a" width="16" height="12"/>
  </defs>
  <g fill="none" fill-rule="evenodd">
    <mask id="b" fill="white">
      <use xlink:href="#a"/>
    </mask>
    <g mask="url(#b)">
      <g transform="translate(-1 -1)">
        <polygon fill="#14DC5A" points="1 9 17 9 17 13 1 13"/>
        <polygon fill="#0099B5" points="1 1 17 1 17 6 1 6"/>
        <path fill="#F7FCFF" stroke="#C51918" stroke-width=".75" d="M-0.375,5.625 L18.375,5.625 L18.375,9.375 L-0.375,9.375 L-0.375,5.625 Z"/>
        <path fill="#F7FCFF" d="M3.48826985,4.77659046 L2.99692636,5.05533221 L3.13725645,4.48882063 L2.66658825,4.07252301 L3.28134486,4.07252301 L3.48752925,3.53642685 L3.72929713,4.07252301 L4.25336024,4.07252301 L3.84159162,4.48882063 L4.03958091,5.05533221 L3.48826985,4.77659046 Z M5.3644057,4.77876512 L4.87306221,5.05750687 L5.01339231,4.49099529 L4.5427241,4.07469767 L5.15748072,4.07469767 L5.3636651,3.53860151 L5.60543299,4.07469767 L6.1294961,4.07469767 L5.71772747,4.49099529 L5.91571677,5.05750687 L5.3644057,4.77876512 Z M5.3361101,3.45889613 L4.84476661,3.73763788 L4.98509671,3.1711263 L4.5144285,2.75482868 L5.12918512,2.75482868 L5.3353695,2.21873252 L5.57713739,2.75482868 L6.1012005,2.75482868 L5.68943187,3.1711263 L5.88742117,3.73763788 L5.3361101,3.45889613 Z M7.3644057,4.77876512 L6.87306221,5.05750687 L7.01339231,4.49099529 L6.5427241,4.07469767 L7.15748072,4.07469767 L7.3636651,3.53860151 L7.60543299,4.07469767 L8.1294961,4.07469767 L7.71772747,4.49099529 L7.91571677,5.05750687 L7.3644057,4.77876512 Z M7.3361101,3.45889613 L6.84476661,3.73763788 L6.98509671,3.1711263 L6.5144285,2.75482868 L7.12918512,2.75482868 L7.3353695,2.21873252 L7.57713739,2.75482868 L8.1012005,2.75482868 L7.68943187,3.1711263 L7.88742117,3.73763788 L7.3361101,3.45889613 Z M7.36367667,2.20045528 L6.87233318,2.47919702 L7.01266328,1.91268544 L6.54199507,1.49638782 L7.15675169,1.49638782 L7.36293607,0.960291658 L7.60470396,1.49638782 L8.12876707,1.49638782 L7.71699844,1.91268544 L7.91498774,2.47919702 L7.36367667,2.20045528 Z M9.3644057,4.77876512 L8.87306221,5.05750687 L9.01339231,4.49099529 L8.5427241,4.07469767 L9.15748072,4.07469767 L9.3636651,3.53860151 L9.60543299,4.07469767 L10.1294961,4.07469767 L9.71772747,4.49099529 L9.91571677,5.05750687 L9.3644057,4.77876512 Z M9.3361101,3.45889613 L8.84476661,3.73763788 L8.98509671,3.1711263 L8.5144285,2.75482868 L9.12918512,2.75482868 L9.3353695,2.21873252 L9.57713739,2.75482868 L10.1012005,2.75482868 L9.68943187,3.1711263 L9.88742117,3.73763788 L9.3361101,3.45889613 Z M9.36367667,2.20045528 L8.87233318,2.47919702 L9.01266328,1.91268544 L8.54199507,1.49638782 L9.15675169,1.49638782 L9.36293607,0.960291658 L9.60470396,1.49638782 L10.1287671,1.49638782 L9.71699844,1.91268544 L9.91498774,2.47919702 L9.36367667,2.20045528 Z M11.3644057,4.77876512 L10.8730622,5.05750687 L11.0133923,4.49099529 L10.5427241,4.07469767 L11.1574807,4.07469767 L11.3636651,3.53860151 L11.605433,4.07469767 L12.1294961,4.07469767 L11.7177275,4.49099529 L11.9157168,5.05750687 L11.3644057,4.77876512 Z M11.3361101,3.45889613 L10.8447666,3.73763788 L10.9850967,3.1711263 L10.5144285,2.75482868 L11.1291851,2.75482868 L11.3353695,2.21873252 L11.5771374,2.75482868 L12.1012005,2.75482868 L11.6894319,3.1711263 L11.8874212,3.73763788 L11.3361101,3.45889613 Z M11.3636767,2.20045528 L10.8723332,2.47919702 L11.0126633,1.91268544 L10.5419951,1.49638782 L11.1567517,1.49638782 L11.3629361,0.960291658 L11.604704,1.49638782 L12.1287671,1.49638782 L11.7169984,1.91268544 L11.9149877,2.47919702 L11.3636767,2.20045528 Z M0.757274635,3.58095054 C0.734528754,4.79269305 1.94245297,5.12030859 1.94245297,5.12030859 C1.47796453,5.30375521 -0.0268451874,5.01819544 0.000364262213,3.56866498 C0.0275737119,2.11913451 1.50151437,1.86583351 2,2.05460283 C2,2.05460283 0.780020516,2.36920802 0.757274635,3.58095054 Z" transform="translate(2)"/>
      </g>
    </g>
  </g>
</svg>
