<svg xmlns="http://www.w3.org/2000/svg" xmlns:xlink="http://www.w3.org/1999/xlink" width="16" height="12" viewBox="0 0 16 12">
  <defs>
    <rect id="a" width="16" height="12"/>
    <rect id="c" width="16" height="12"/>
    <rect id="e" width="9" height="7"/>
  </defs>
  <g fill="none" fill-rule="evenodd">
    <mask id="b" fill="white">
      <use xlink:href="#a"/>
    </mask>
    <g mask="url(#b)">
      <mask id="d" fill="white">
        <use xlink:href="#c"/>
      </mask>
      <use fill="#2E42A5" xlink:href="#c"/>
      <g mask="url(#d)">
        <g transform="translate(9.6 5)">
          <path fill="#3B7E05" stroke="#F7FCFF" stroke-width=".25" d="M0.523340195,0.0163454555 L0.523340195,3.28091841 C0.491090986,5.08163563 1.30475231,5.98199424 2.96432415,5.98199424 C4.623896,5.98199424 5.45368193,5.08163563 5.45368193,3.28091841 L5.45368193,0.0163454555 L0.523340195,0.0163454555 Z"/>
          <g transform="translate(.4 .3)">
            <path fill="#FFD018" fill-rule="nonzero" stroke="#FFFFFF" stroke-width=".15" d="M0.125660861,4.6531618 C0.123283803,4.65023764 0.120907577,4.64730871 0.118532183,4.64437502 L0.515119817,4.24622034 C1.13490226,5.0116717 1.78679764,5.38422911 2.47996057,5.38422911 C3.17306691,5.38422911 3.82442156,5.01173313 4.4432357,4.24637824 L4.66897269,4.47268164 L4.67854325,4.4584731 C4.8165507,4.57530465 4.90753531,4.68462359 4.95121478,4.8112522 C5.02236099,5.01750804 4.94636603,5.21569756 4.77959375,5.32055516 C4.73823514,5.34655927 4.70540232,5.36529302 4.67619962,5.37888768 C4.60851544,5.41039652 4.55425602,5.42410274 4.47369473,5.40138665 C4.39169561,5.37826514 4.32276651,5.31514894 4.28710686,5.22831465 C3.72464862,5.72580806 3.12097915,5.9788237 2.47996057,5.9788237 C1.84444479,5.9788237 1.24538323,5.73013439 0.686517004,5.24106651 C0.649179529,5.32645915 0.57950512,5.38775259 0.497608398,5.40930962 C0.416662929,5.43061626 0.362650982,5.41596516 0.295527013,5.38327987 C0.266566017,5.36917763 0.234065155,5.34987372 0.193166671,5.32315176 C0.0282498147,5.21539955 -0.0442746911,5.01591392 0.0304603409,4.81093117 C0.0507884343,4.75517541 0.0834298127,4.70344199 0.125660861,4.6531618 Z"/>
            <path fill="#FFD018" fill-rule="nonzero" d="M1.06578465,2.02442475 L1.02800939,1.8603989 L1.02800939,0.471201173 C1.02800939,0.264094392 1.19590261,0.096201173 1.40300939,0.096201173 C1.61011617,0.096201173 1.77800939,0.264094392 1.77800939,0.471201173 L1.77800939,1.77403614 L2.13779743,2.51373313 C2.21007654,2.6623335 2.1765664,2.84073162 2.05529067,2.95297482 L1.64185757,3.33561572 L1.64185757,4.05589612 C1.64185757,4.2630029 1.47396435,4.43089612 1.26685757,4.43089612 C1.05975079,4.43089612 0.891857567,4.2630029 0.891857567,4.05589612 L0.891857567,3.17172339 C0.891857567,3.06723357 0.93545359,2.96748205 1.0121396,2.89650755 L1.34163519,2.59155256 L1.06578465,2.02442475 Z"/>
            <path stroke="#FFD018" stroke-linecap="round" stroke-linejoin="round" stroke-width=".75" d="M3.62551936,0.449809897 L3.62551936,4.15218493"/>
            <path fill="#FFC6B5" d="M2.31989628,0.992817405 C2.31989628,0.992817405 2.26383505,1.17506044 2.15171259,1.53954652 C1.96388151,1.78255352 1.8526438,1.96359968 1.81799947,2.082685 C1.76603297,2.26131298 1.73755997,2.37999934 1.75179647,2.37999934 C1.76603297,2.37999934 1.88115335,2.32914422 1.88115335,2.20591461 C1.88115335,2.12376154 2.02740099,1.95059279 2.31989628,1.68640837 L2.45085449,0.992817405 C2.36354902,0.992817405 2.31989628,0.992817405 2.31989628,0.992817405 Z"/>
            <path fill="#FFD018" d="M3.6229563,0.157998692 L3.43385646,0.450814452 L3.41415066,0.435035371 L3.60334015,0.142080793 C3.59639365,0.132797953 3.59223301,0.120978311 3.59223301,0.108108108 C3.59223301,0.0782548784 3.61461877,0.0540540541 3.64223301,0.0540540541 C3.66984725,0.0540540541 3.69223301,0.0782548784 3.69223301,0.108108108 C3.69223301,0.117663898 3.68993938,0.126640547 3.68591483,0.134429735 L3.88716033,0.434845027 L3.86770493,0.451004795 L3.66871959,0.15396341 C3.66103958,0.159158963 3.65196071,0.162162162 3.64223301,0.162162162 C3.63540076,0.162162162 3.62888857,0.160680695 3.6229563,0.157998692 Z M3.61331541,0.395453293 C3.60055734,0.385658563 3.59223301,0.369555904 3.59223301,0.351351351 C3.59223301,0.321498122 3.61461877,0.297297297 3.64223301,0.297297297 C3.66984725,0.297297297 3.69223301,0.321498122 3.69223301,0.351351351 C3.69223301,0.365421556 3.68726033,0.378236161 3.67911127,0.387853232 L3.74410862,0.452468155 L3.88918866,0.452468155 C4.03171334,0.323149952 4.10297568,0.290820401 4.10297568,0.355479503 C4.10297568,0.420138604 4.06889964,0.486392061 4.00074758,0.554239873 C3.9596837,0.58258735 3.93915176,0.58258735 3.93915176,0.554239873 C3.93915176,0.511718656 3.92511441,0.644294226 3.80590996,0.645186759 L3.80590996,0.704460145 L3.45962103,0.704460145 L3.50841264,0.645186759 C3.45137263,0.605747453 3.41171317,0.575431825 3.38943427,0.554239873 C3.31640441,0.540066134 3.26816086,0.506142228 3.24470362,0.452468155 L3.56591851,0.452468155 L3.61331541,0.395453293 Z"/>
            <path fill="#FFC6B5" d="M2.87746678,1.04679906 C2.85854328,0.97181097 2.87122963,0.934316926 2.91552583,0.934316926 C2.98197012,0.934316926 3.08513536,1.47210609 3.12242665,1.68771517 C3.15971793,1.90332424 3.08513536,1.84437365 2.91552583,2.12486885 C2.74591629,2.40536406 2.87746678,2.49182197 2.80064958,2.59919905 C2.72383238,2.70657613 2.69570468,2.58942861 2.66484065,2.49182197 C2.63397663,2.39421532 2.79731246,2.07240162 2.87746678,1.90127245 C2.95762111,1.73014328 2.95007511,1.6704215 2.91552583,1.59875536 C2.89249298,1.55097793 2.87034488,1.4694925 2.84908153,1.35429907 L2.87746678,1.04679906 Z M2.73832642,0.802025236 C2.73832642,0.833559315 2.60469201,0.879846751 2.50830501,0.879846751 C2.411918,0.879846751 2.44971382,0.802025236 2.50830501,0.758864339 C2.56689619,0.715703443 2.50356682,0.641423711 2.44971382,0.641423711 C2.39586082,0.641423711 2.39890993,0.56133057 2.39890993,0.502028171 C2.39890993,0.442725771 2.39890993,0.419952376 2.39890993,0.275789608 C2.39890993,0.13162684 2.46092314,0.243229633 2.57626289,0.243229633 C2.69160263,0.243229633 2.63180496,0.28595086 2.70662883,0.419952376 C2.78145269,0.553953892 2.70662883,0.516557552 2.70662883,0.641423711 C2.70662883,0.76628987 2.73832642,0.770491157 2.73832642,0.802025236 Z"/>
            <path fill="#FFD018" d="M2.87621359,4.52638353 C2.80248626,4.52638353 2.74271845,4.46300042 2.74271845,4.38481338 C2.74271845,4.30662635 2.80248626,4.24324324 2.87621359,4.24324324 C2.94994093,4.24324324 3.00970874,4.30662635 3.00970874,4.38481338 C3.00970874,4.46300042 2.94994093,4.52638353 2.87621359,4.52638353 Z M2.13669661,4.45007289 C2.10653869,4.41413208 2.13064515,4.34425442 2.19053989,4.29399677 C2.25043463,4.24373911 2.32343673,4.23213302 2.35359465,4.26807383 C2.38375257,4.30401463 2.35964611,4.3738923 2.29975137,4.42414995 C2.23985663,4.4744076 2.16685453,4.4860137 2.13669661,4.45007289 Z"/>
            <path fill="#A95601" d="M2.47553255,0.0923252651 C2.38298436,0.111117068 2.35213496,0.143685185 2.38298436,0.190029615 C2.42925845,0.25954626 2.32268216,0.241568659 2.47553255,0.25055746 C2.62838294,0.25954626 2.67023692,0.315188887 2.64930993,0.356297992 C2.62838294,0.397407097 2.61195284,0.499483717 2.64930993,0.560988605 C2.68666702,0.622493493 2.69851249,0.729528608 2.76449613,0.676011051 C2.83047976,0.622493493 2.95722626,0.54897097 2.91839945,0.452634481 C2.87957264,0.356297992 2.93406179,0.244231103 2.84927896,0.190029615 C2.76449613,0.135828127 2.7455549,0.168974328 2.69704278,0.0923252651 C2.64853065,0.0156762027 2.57705258,-0.00542793688 2.52629257,0.0434486641 C2.49245255,0.0760330648 2.47553255,0.0923252651 2.47553255,0.0923252651 Z"/>
            <path fill="#F7FCFF" d="M2.44800281,0.788761871 C2.26198511,1.01273281 2.18420719,1.16417455 2.21466905,1.2430871 C2.26036184,1.36145592 2.32862683,1.36768457 2.29449433,1.53598031 C2.26036184,1.70427605 2.31526777,1.96446274 2.21466905,2.29546065 C2.11407033,2.62645856 2.04795507,3.40306158 2.0810127,3.40306158 C2.11407033,3.40306158 2.15998248,3.83205696 2.12049759,4.0245101 C2.0810127,4.21696324 1.8056056,4.37798001 2.0810127,4.37798001 C2.3564198,4.37798001 2.38908258,4.41613356 2.49913574,4.37798001 C2.6091889,4.33982646 2.76535163,4.48775085 2.76535163,4.37798001 C2.76535163,4.26820918 2.77713129,4.24573718 2.86101474,4.24573718 C2.9448982,4.24573718 2.94066454,4.24573718 3.01494,4.24573718 C3.08921547,4.24573718 3.18656765,4.314863 3.18656765,4.15086625 C3.18656765,3.9868695 3.20468683,3.63447434 3.10981342,3.36082888 C3.01494,3.08718342 3.04716406,3.26192765 2.9540894,2.89600043 C2.89895685,2.67924431 2.85637782,2.59321435 2.82285085,2.51750071 C2.79977767,2.46539475 2.73391692,2.55686609 2.71827687,2.4752855 C2.71297368,2.44762334 2.7580391,2.28531936 2.75851434,2.26448035 C2.76147728,2.13455875 2.86101474,2.11244712 2.86101474,1.8889617 C2.86101474,1.62962993 2.79884798,1.34472405 2.86101474,1.2021734 C2.92318151,1.05962275 3.0757906,1.1453339 3.01494,1.00669142 C2.9540894,0.86804895 2.93428115,0.788761871 2.81977497,0.788761871 C2.74343752,0.788761871 2.61951346,0.788761871 2.44800281,0.788761871 Z"/>
          </g>
        </g>
      </g>
      <g mask="url(#d)">
        <mask id="f" fill="white">
          <use xlink:href="#e"/>
        </mask>
        <use fill="#2B409A" xlink:href="#e"/>
        <g mask="url(#f)">
          <g transform="translate(-2 -1)">
            <polygon fill="#FFFFFF" fill-rule="nonzero" points=".998 1.232 2.978 .363 11.045 6.787 12.09 8.078 9.972 8.369 6.682 5.6 4.033 3.735" transform="matrix(1 0 0 -1 0 8.732)"/>
            <polygon fill="#F50100" fill-rule="nonzero" points="1.269 1.038 2.278 .534 11.714 8.613 10.298 8.613" transform="matrix(1 0 0 -1 0 9.146)"/>
            <g transform="matrix(-1 0 0 1 13 0)">
              <polygon fill="#FFFFFF" fill-rule="nonzero" points=".998 1.232 2.978 .363 11.045 6.787 12.09 8.078 9.972 8.369 6.682 5.6 4.033 3.735" transform="matrix(1 0 0 -1 0 8.732)"/>
              <polygon fill="#F50100" fill-rule="nonzero" points="1.065 1.162 2.074 .658 6.093 4.117 7.284 4.503 12.19 8.441 10.773 8.441 5.87 4.597 4.567 4.134" transform="matrix(1 0 0 -1 0 9.099)"/>
            </g>
            <path fill="#F50100" stroke="#F7FCFF" stroke-width=".75" d="M3.61725576,2.625 L3.61725576,-0.375 L5.36725576,-0.375 L5.36725576,2.625 L9.375,2.625 L9.375,4.375 L5.36725576,4.375 L5.36725576,7.375 L3.61725576,7.375 L3.61725576,4.375 L-0.375,4.375 L-0.375,2.625 L3.61725576,2.625 Z" transform="translate(2 1)"/>
          </g>
        </g>
      </g>
    </g>
  </g>
</svg>
