<svg xmlns="http://www.w3.org/2000/svg" xmlns:xlink="http://www.w3.org/1999/xlink" width="16" height="12" viewBox="0 0 16 12">
  <defs>
    <rect id="a" width="16" height="12"/>
    <rect id="c" width="16" height="12"/>
    <path id="e" d="M0.0329411765,0 C0.343137255,0.214190094 0.653333333,0.321285141 0.963529412,0.321285141 C1.27372549,0.321285141 1.58392157,0.214190094 1.89411765,0 C2.20431373,0.214190094 2.5145098,0.321285141 2.82470588,0.321285141 C3.13490196,0.321285141 3.44509804,0.214190094 3.75529412,0 L3.75529412,1.45044106 C3.75529412,2.45024474 3.13490196,3.33758098 1.89411765,4.1124498 C0.593256511,3.40097456 -0.0271356454,2.50770226 0.0329411765,1.43263288 L0.0329411765,0 Z"/>
  </defs>
  <g fill="none" fill-rule="evenodd">
    <mask id="b" fill="white">
      <use xlink:href="#a"/>
    </mask>
    <g mask="url(#b)">
      <mask id="d" fill="white">
        <use xlink:href="#c"/>
      </mask>
      <use fill="#F7FCFF" xlink:href="#c"/>
      <g mask="url(#d)">
        <g transform="translate(1 2.4)">
          <path fill="#E8AA00" d="M7.00430819,4.85334209 C7.00806935,4.78081015 7.01198186,4.70687527 7.01604573,4.63153743 L7.93337819,5.01865923 C8.48073013,5.62655582 8.7544061,5.98749578 8.7544061,6.1014791 C8.7544061,6.27245409 7.17971666,7.66574057 7.01604573,7.66574057 C7.01198186,7.66574057 7.00806935,7.66433761 7.00430819,7.66153171 C7.00054703,7.66433761 6.99663451,7.66574057 6.99257064,7.66574057 C6.82889971,7.66574057 5.25421027,6.27245409 5.25421027,6.1014791 C5.25421027,5.98749578 5.52788624,5.62655582 6.07523819,5.01865923 L6.99257064,4.63153743 C6.99663451,4.70687527 7.00054703,4.78081015 7.00430819,4.85334209 Z M0.388602941,0.0347640562 C0.63560244,-0.0712199565 4.44708336,1.16784356 4.6463756,1.16784356 C4.7792371,1.16784356 5.11905422,1.44893435 5.66582695,2.01111593 L5.66582695,3.89699028 C3.94009345,3.53878582 2.26335194,2.47695487 0.63560244,0.711497422 C0.277517982,0.356901941 0.141603442,0.140748069 0.388602941,0.0347640562 Z M5.4218911,4.01594925 C5.83620333,4.61028777 6.04335945,4.90745704 6.04335945,4.90745704 C6.04335945,4.90745704 5.51819564,4.87950273 5.51819564,5.27098259 C5.51819564,5.66246245 5.0365393,5.8408775 4.76707372,5.8408775 C4.49760815,5.8408775 4.34930852,6.01732786 4.34930852,6.32792482 C4.34930852,6.63852178 3.79794667,6.44766598 3.66635498,6.32792482 C3.53476329,6.20818366 3.79794667,5.69076106 3.93501857,5.69076106 C4.07209047,5.69076106 4.22847674,5.58457797 4.51959579,5.58457797 C4.81071485,5.58457797 4.54963444,5.20488704 4.85001191,4.70395574 C5.05026356,4.37000154 5.24088996,4.14066604 5.4218911,4.01594925 Z M13.7248936,0.0347640562 C13.9718931,0.140748069 13.8359786,0.356901941 13.4778941,0.711497422 C12.8387395,1.85530844 11.161998,2.9171394 8.44766961,3.89699028 L8.44766961,2.01111593 C8.99444235,1.44893435 9.33425946,1.16784356 9.46712096,1.16784356 C9.66641321,1.16784356 13.4778941,-0.0712199565 13.7248936,0.0347640562 Z M8.69160546,4.01594925 C8.87260661,4.14066604 9.063233,4.37000154 9.26348465,4.70395574 C9.56386212,5.20488704 9.30278172,5.58457797 9.59390077,5.58457797 C9.88501983,5.58457797 10.0414061,5.69076106 10.178478,5.69076106 C10.3155499,5.69076106 10.5787333,6.20818366 10.4471416,6.32792482 C10.3155499,6.44766598 9.76418804,6.63852178 9.76418804,6.32792482 C9.76418804,6.01732786 9.61588841,5.8408775 9.34642284,5.8408775 C9.07695727,5.8408775 8.59530092,5.66246245 8.59530092,5.27098259 C8.59530092,4.87950273 8.07013712,4.90745704 8.07013712,4.90745704 C8.07013712,4.90745704 8.27729323,4.61028777 8.69160546,4.01594925 Z M7.99480468,1.952533 L5.9508086,1.952533 L6.5253542,0.831411907 C6.58130595,0.688795262 6.54079585,0.599489717 6.40382391,0.563495272 C6.26685197,0.527500827 6.11584687,0.587113476 5.9508086,0.742333217 C5.99107318,0.494001796 6.03810883,0.342941076 6.09191554,0.289151058 C6.17262561,0.208466032 6.64436473,0.00161140185 7.03756465,0.00161140185 C7.43076457,0.00161140185 7.57361597,0.471240603 7.57361597,0.563495272 C7.57361597,0.624998385 7.71401221,1.08801096 7.99480468,1.952533 Z"/>
          <path fill="#46A000" fill-rule="nonzero" d="M2.12323926,3.09617198 L3.07205699,2.7803478 C3.71333559,4.70691501 4.33153263,5.95225007 4.88714105,6.49043346 L4.19138736,7.20871391 C3.48821266,6.52759223 2.81199897,5.16538476 2.12323926,3.09617198 Z"/>
          <path fill="#0093E1" d="M0.414846,2.80207593 C0.993388291,2.80207593 1.23984431,2.80207593 1.15421405,2.80207593 C1.06858379,2.80207593 1.00987195,2.85657502 0.97807854,2.96557319 L1.495966,4.4422002 C1.82983697,3.63848331 1.99677246,3.16536242 1.99677246,3.02283753 C1.99677246,2.88031264 1.92669652,2.80672544 1.78654463,2.80207593 L2.750472,2.80207593 L2.51759748,2.87984735 C2.00340264,4.05867259 1.74630522,4.77426671 1.74630522,5.02662969 C1.72180456,5.08256691 1.84017388,5.12913977 2.10141319,5.16634829 L1.06631749,5.16634829 L1.28265944,5.02662969 C1.2020181,4.81842957 0.912746956,4.07691165 0.414846,2.80207593 Z M10.7061179,3.27287124 L10.7229422,4.44719 L10.5455119,4.38960645 C10.5455119,4.38960645 10.5035739,4.65099468 10.419698,5.17377114 C10.419698,5.17377114 10.6308544,4.76883364 11.0531673,3.95895863 L10.8422629,3.87971036 L11.6264143,3.03089178 L11.3593578,4.17813909 L11.2074352,4.04433201 C11.2074352,4.04433201 10.9079965,4.6030399 10.309119,5.72045568 L11.3117923,4.57162038 L11.1185068,4.47509326 L12.1086589,3.82681516 L11.6775849,4.88324455 L11.4370829,4.71011581 L10.419698,5.99098115 L9.99767578,5.82870368 L10.419698,4.32831759 L10.133278,4.32831759 L10.7061179,3.27287124 Z M9.80247934,6.32997964 L10.0114209,6.32997964 L10.098739,6.65404337 L10.0114209,6.7303877 L10.1814226,6.85518448 L9.92885029,7.98166287 L9.59042935,7.68863296 L9.23640985,7.85140898 L9.23640985,7.68863296 L9.05538742,7.85140898 L8.91997383,7.39014596 L8.53017937,7.39014596 L9.23640985,6.57091901 L9.48576075,6.57091901 L9.48576075,6.32997964 L9.80247934,6.32997964 Z M12.27718,2.76929181 L13.3458212,2.76929181 C13.1604821,2.80276936 13.0678126,2.87572279 13.0678126,2.9881521 C13.0678126,3.1005814 13.0678126,3.76460521 13.0678126,4.98022351 C13.1013196,5.10724036 13.1939891,5.17206779 13.3458212,5.1747058 C13.4976532,5.1773438 13.1414395,5.1773438 12.27718,5.1747058 C12.4413311,5.14179353 12.5251429,5.0769661 12.5286152,4.98022351 C12.5320876,4.88348092 12.5320876,4.21945712 12.5286152,2.9881521 C12.5120222,2.84224524 12.4282104,2.76929181 12.27718,2.76929181 Z"/>
          <g transform="translate(5.139 1.606)">
            <mask id="f" fill="white">
              <use xlink:href="#e"/>
            </mask>
            <use fill="#F7FCFF" xlink:href="#e"/>
            <rect width="3.92" height="1.51" x="-.099" y="-.096" fill="#2E42A5" mask="url(#f)"/>
            <path fill="#AF0100" d="M0.329411765,1.41365462 L0.658823529,1.41365462 L0.658823529,4.46586345 L0.329411765,4.46586345 L0.329411765,1.41365462 Z M0.889411765,1.41365462 L1.21882353,1.41365462 L1.21882353,4.46586345 L0.889411765,4.46586345 L0.889411765,1.41365462 Z M1.44941176,1.41365462 L1.77882353,1.41365462 L1.77882353,4.46586345 L1.44941176,4.46586345 L1.44941176,1.41365462 Z M2.00941176,1.41365462 L2.33882353,1.41365462 L2.33882353,4.46586345 L2.00941176,4.46586345 L2.00941176,1.41365462 Z M2.56941176,1.41365462 L2.89882353,1.41365462 L2.89882353,4.46586345 L2.56941176,4.46586345 L2.56941176,1.41365462 Z M3.12941176,1.41365462 L3.45882353,1.41365462 L3.45882353,4.46586345 L3.12941176,4.46586345 L3.12941176,1.41365462 Z" mask="url(#f)"/>
          </g>
        </g>
      </g>
    </g>
  </g>
</svg>
