<svg fill="none" height="12" viewBox="0 0 16 12" width="16" xmlns="http://www.w3.org/2000/svg"><path d="m0 0h16v12h-16z" fill="#fff"/><path d="m5.54518 10.6145c-.33294.1006-.8126.3069-1.00446.4226-.06207.0403-.05643.0855.0395.2566.06772.1107.13543.2063.14672.2063.01693 0 .20315-.0755.41194-.1711.2088-.0905.47558-.21.59817-.2314.09375-.0164.17937-.0319.23236-.0515.02134.0462.00822.0205.0471.0931.05589.1043.0211.1019.11777.1304.10192.0301.3533-.0915.3533-.0915.29344-.0906.45708-.1006 1.51234-.1006 1.05525 0 1.2189.01 1.51234.1056 0 0 .23614.0716.26649.0803.03015.0086.04608.0154.07795.0086.02906-.0062.05933-.0459.07272-.0698 0 0 .0649-.139.08158-.1878.0562.0241.1587.0555.2574.0832.1185.0352.3838.1409.5926.2314.2087.0956.395.1711.4119.1711.0113 0 .079-.0956.1467-.2063.1354-.2365.1467-.2163-.3442-.4428-.6546-.3018-1.3092-.4377-1.37128-.2918-.01128.0277-.02086.0439-.03635.0798-.06561-.0135-.23734-.0496-.40945-.0747-.53045-.0856-1.98636-.0856-2.51681 0-.17211.0251-.28847.0671-.38571.0911-.05505-.0982-.04353-.0591-.05482-.0868-.04514-.1006-.34386-.0849-.7558.046z" fill="#dfdfdf"/><path d="m6.02473 4.3965c-.01137.16396.02274.27993.1118.36791.03979.04199.0739.09198.0739.09198s-.04548.04999-.08338.08798c-.08906.08798-.12506.20195-.12506.32192 0 .12397.036.20995.13264.32193 0 0 .08158.04105.07959.09197-.00199.05093-.08717.10198-.08717.10198-.17433.20395-.16864.43789.01327.63185l.07769.08598h1.785 1.7831l.08717-.09798c.16862-.18995.16862-.3959.00189-.61385 0 0-.08391-.05985-.08527-.10997-.00135-.05013.07959-.09998.07959-.09998.17431-.21995.17051-.4219-.00948-.63385-.08148-.09398-.08337-.11197-.01895-.15596.10422-.07399.16864-.32393.12128-.47589-.07011-.22795-.3714-.37991-.55521-.27994-.03411.018-.10232.06799-.15349.10998-.05116.04399-.09853.07798-.108.07798-.00758 0-.05306-.03599-.10043-.07998-.18381-.16596-.40514-.18596-.58895.002 0 0-.0262.10055-.06479.10397-.0386.00343-.09285-.08998-.09285-.08998-.1876-.18595-.42257-.17795-.61395.018 0 0-.02684.08186-.07011.07198-.04328-.00987-.07886-.10597-.07886-.10597-.1118-.10798-.18264-.10598-.31149-.10798-.07417-.0012-.20855.01685-.28971.07752s-.06683.13336-.08548.12844c-.0469-.01238-.09854-.08798-.09854-.08798-.18191-.16397-.32782-.19196-.50404-.09398-.13834.07598-.21034.18796-.22171.33992z" fill="#171796"/><path d="m6.14243 7.24595s.07264.03538.07013.0807c-.00251.04533-.07961.09054-.07961.09054-.0436.04921-.09099.12006-.10615.15549-.06066.15155-.01516.35428.10425.4704.07203.07283.07393.10235.00569.18895-.03033.0374-.06634.09054-.07961.1181-.14216.27948.07013.62983.38478.62983.12511 0 .21988-.04134.30518-.13581.06824-.07479.10425-.07676.1649-.00984.08909.10235.20661.16533.30518.16533.11562 0 .18765-.0374.30517-.15352 0 0 .04658-.09103.08909-.09054s.08151.09251.08151.09251c.17628.19682.35445.20272.59139.01574 0 0 .05206-.07577.09667-.07479.04461.00097.0834.07873.0834.07873.10426.09447.18197.13187.28433.13187s.17817-.04133.29759-.16336c0 0 .06165-.09258.09857-.09841.03691-.00584.07582.07085.07582.07085.14595.13581.22556.17911.33171.17911.10994 0 .18765-.0374.29759-.13974.10236-.09645.15729-.20863.14406-.30114-.01327-.10038-.10046-.28342-.16491-.34641 0 0-.06462-.00563-.05497-.05511.00965-.04947.0853-.10038.0853-.10038.18571-.22634.18761-.40151.00379-.62589 0 0-.0768-.04434-.07582-.09447.00097-.05014.07961-.10038.07961-.10038.17813-.21848.17633-.4212-.00379-.61999l-.09667-.10432-1.77418.00197-1.77418.00197-.07961.0925c-.18576.21454-.18387.43301.00379.64951z" fill="#d42e12"/><path clip-rule="evenodd" d="m8.91029 6.81085c.08591 0 .15736.0585.17218.13564l.00282.02972v.30741l.36778-.19526c.0814-.04321.18284-.01303.22656.06742.03887.07151.01906.15867-.04299.20751l-.02522.01641-.30828.16367.30828.16367.02522.01642c.06205.04883.08186.13599.04299.2075-.04372.08045-.14516.11064-.22656.06742l-.36778-.19526v.34238c0 .09132-.07835.16535-.175.16535-.08591 0-.15736-.05849-.17218-.13563l-.00282-.02972v-.30065l-.28919.15353c-.0814.04322-.18284.01303-.22656-.06742-.03887-.07151-.01906-.15867.04299-.2075l.02522-.01642.30828-.16367-.30828-.16367-.02522-.01641c-.06205-.04884-.08186-.136-.04299-.20751.04372-.08045.14516-.11063.22656-.06742l.28919.15354v-.26569c0-.09133.07835-.16536.175-.16536z" fill="#e9d315" fill-rule="evenodd"/><path clip-rule="evenodd" d="m7.2107 6.81085c.08591 0 .15737.0585.17218.13564l.00282.02972v.30741l.36778-.19526c.0814-.04321.18284-.01303.22657.06742.03887.07151.01905.15867-.043.20751l-.02522.01641-.30828.16367.30828.16367.02522.01642c.06205.04883.08187.13599.043.2075-.04373.08045-.14517.11064-.22657.06742l-.36778-.19526v.34238c0 .09132-.07835.16535-.175.16535-.08591 0-.15736-.05849-.17218-.13563l-.00282-.02972v-.30065l-.28918.15353c-.0814.04322-.18284.01303-.22657-.06742-.03887-.07151-.01905-.15867.043-.2075l.02522-.01642.30828-.16367-.30828-.16367-.02522-.01641c-.06205-.04884-.08187-.136-.043-.20751.04373-.08045.14517-.11063.22657-.06742l.28918.15354v-.26569c0-.09133.07835-.16536.175-.16536z" fill="#e9d315" fill-rule="evenodd"/><path d="m5.4014 6.42825h.1v.00001c0 .00042.00001.01594.00003.04439-.05662-.00174-.09885-.04318-.1-.04431l-.00003-.00002v.00007.00029.00116l.00001.00458.00001.01793.00003.06862.00017.24962.00071.79968c.00067.60785.00174 1.29326.00335 1.60577-.00334.06939.01654.12349.05687.16847.01743.01944.03707.03538.05385.04832.00837.00646.01535.0117.0221.01676.00936.00702.01825.01369.02973.02279.04931.03908.13091.06817.21951.09106.09363.02419.2115.04537.34632.06135.2687.03186.61078.0438.9735.01536.14902.00159.25695.03056.3387.07008.08265.03996.14358.09313.19563.14945.0264.02857.05002.05738.07402.08672l.00165.00201c.0227.02775.04689.05731.07175.08328.05103.05331.12043.10831.21997.10831.10013 0 .16884-.0555.21871-.10972.02477-.0269.04849-.05748.07055-.08592l.00132-.00171c.02242-.0289.04428-.05709.06871-.0851.04906-.05625.10604-.10878.18369-.14817.07722-.03917.18024-.06805.32459-.06926.40959.00627.75913-.00367 1.02243-.02837.13162-.01234.24392-.02857.33232-.04901.0821-.01895.1607-.04503.2105-.08739l.0035-.00283.0121-.01036c.0099-.00863.0234-.02095.0378-.0358.0259-.02673.0663-.07297.0848-.12737.0166-.0486.0209-.09263.0211-.12473.0001-.01615-.0009-.02961-.0019-.03959-.0003-.00267-.0006-.00511-.0009-.00728v-2.65914-2.92825-.1h-.1-2.49861-2.49859-.1v.1z" stroke="#000" stroke-width=".2"/><path d="m7.43435 4.93289c-.13421.24989-.13988.36202-.02836.56225.08695.15378.18903.25149.32891.31397.36483.16499.83173.04324 1.01508-.26431.11342-.18902.10019-.50458-.02457-.64234l-.03402-.03685-.03214.10893c-.04537.15538-.09073.23387-.18147.31717-.17012.15538-.40452.19062-.64647.0945-.18714-.07528-.26275-.1794-.33269-.46934l-.01702-.07208z" fill="#fff"/><path clip-rule="evenodd" d="m9.02197 1.88601c0 .366-.236.634-.568.634s-.566-.268-.566-.634c0-.368.234-.634.566-.634s.568.266.568.634zm-4.526.614v-.854l.338.854h.148l.33-.854v.854h.2v-1.228h-.232l-.37.944-.374-.944h-.238v1.228zm1.402 0 .126-.34h.47l.126.34h.212l-.472-1.228h-.2l-.472 1.228zm.36-.974-.168.454h.336zm1.164.974v-.49l.446-.738h-.22l-.324.55-.326-.55h-.226l.444.738v.49zm1.032-.166c-.216 0-.356-.188-.356-.448s.14-.448.356-.448.358.188.358.448-.142.448-.358.448zm1.244-.878v1.044h-.208v-1.044h-.408v-.184h1.02403v.184zm1.14403 1.044v-1.044h.408v-.184h-1.024v.184h.408v1.044zm1.406-.186v.186h-.802v-1.228h.802v.184h-.598v.324h.542v.182h-.542v.352z" fill="#ff2500" fill-rule="evenodd"/><g stroke="#000" stroke-width=".2"><path clip-rule="evenodd" d="m12.8882 9.40007s-.17-.33487.26-.50015c.4299-.16527.6401.05038.8295.25053.1893.20015.1685.80427.1685.80427l-.4679.74848-1.4356.2968-.572-.2968-.6707-1.30313.0501-1.27937s.0679-.49005.0679-.5915.3115-.88773.3115-.88773l.2951-.29229.8344-.44391.393-.19627.4879-.61669-.054-.49094-.5561.70827h-.4709l-.4903.20538-.1979.18658-.2412.0074-.0944-.19398.2632-.42271.3977-.40035-.1829-.33856.2707-.12334-.0521-.18662.3005.18662.2268-.18662.0432-.17164-.5184-.27783s.5073-.21284.746-.19063c.2388.02222.4641.30319.4641.30319l.6838-.11256s-.1831.44947-.1239.44947h.4305l-.1381.55793h.5295l-.3914.42983.3055.16756-.4649.31626.4649.31282-.4322.28394.2435.47086.3833-.23346.2156.29229-.3243.71975-.5295.3756-.5044.12709-.4936.12829-.1962.1285-.1222-.49245-.8338.57187-.4332.89673.1275.81481.3057.41724.563.2016.7349-.1381.3844-.4676.0917-.47719s-.2226-.32406-.3841-.29716-.4977.24962-.4977.24962z" fill="#dfdfdf" fill-rule="evenodd"/><path d="m12.0434 6.20967s.8894.08249 1.1269-.10632"/><path d="m11.3741 6.78676s.8894.08248 1.1269-.10632"/><path d="m11.2248 7.31639s.48.0807.5275-.08634"/></g><path clip-rule="evenodd" d="m12.375 4.75c-.069 0-.125-.05596-.125-.125s.056-.125.125-.125.125.05596.125.125-.056.125-.125.125z" fill="#000" fill-rule="evenodd"/><g stroke="#000" stroke-width=".2"><path clip-rule="evenodd" d="m3.11176 9.40007s.17003-.33487-.25993-.50015c-.42995-.16527-.6401.05038-.82949.25053-.18938.20015-.16857.80427-.16857.80427l.46797.74848 1.43557.2968.57201-.2968.67068-1.30313-.05012-1.27937s-.06783-.49005-.06783-.5915-.31158-.88773-.31158-.88773l-.29505-.29229-.83446-.44391-.39293-.19627-.48789-.61669.05398-.49094.55603.70827h.47098l.49025.20538.19794.18658.24115.0074.09448-.19398-.26327-.42271-.39765-.40035.18291-.33856-.27075-.12334.05208-.18662-.30052.18662-.22679-.18662-.0432-.17164.51843-.27783s-.50725-.21284-.74604-.19063c-.23879.02222-.46408.30319-.46408.30319l-.68373-.11256s.18305.44947.12389.44947c-.05915 0-.4305 0-.4305 0l.13804.55793h-.52946l.39142.42983-.30556.16756.46492.31626-.46492.31282.43227.28394-.24355.47086-.3833-.23346-.21559.29229.32431.71975.52946.3756.50439.12709.49367.12829.1962.1285.12212-.49245.83388.57187.43318.89673-.12752.81481-.30566.41724-.56307.2016-.73489-.1381-.38433-.4676-.09177-.47719s.22267-.32406.38415-.29716c.16149.0269.49764.24962.49764.24962z" fill="#dfdfdf" fill-rule="evenodd"/><path d="m3.95662 6.20967s-.88947.08249-1.12696-.10632"/><path d="m4.62593 6.78676s-.88947.08248-1.12696-.10632"/><path d="m4.77524 7.31639s-.47999.0807-.5275-.08634"/></g><path clip-rule="evenodd" d="m3.625 4.75c.06904 0 .125-.05596.125-.125s-.05596-.125-.125-.125-.125.05596-.125.125.05596.125.125.125z" fill="#000" fill-rule="evenodd"/></svg>