<svg xmlns="http://www.w3.org/2000/svg" fill="none" viewBox="0 0 20 15"><mask id="430_svg__a" width="20" height="15" x="0" y="0" mask-type="alpha" maskUnits="userSpaceOnUse"><path fill="#fff" d="M0 0H20V15H0z"/></mask><g mask="url(#430_svg__a)"><path fill="#F7FCFF" fill-rule="evenodd" d="M0 0H20V15H0V0Z" clip-rule="evenodd"/><path fill="#E31D1C" d="M.017 3.438H20.017V5.313000000000001H.017z"/><path fill="#E31D1C" fill-rule="evenodd" d="M0 0H20V1.875H0V0Z" clip-rule="evenodd"/><path fill="#E31D1C" d="M-.037 6.875H19.963V8.75H-.037z"/><path fill="#E31D1C" d="M.07 10.25H20.07V12.125H.07z"/><path fill="#E31D1C" d="M.063 13.438H20.063V15.313H.063z"/><path fill="#3D58DB" fill-rule="evenodd" d="M0 0H10V8.75H0V0Z" clip-rule="evenodd"/><path fill="#F7FCFF" fill-rule="evenodd" d="M5.08279 5.75818L3.25694 7.02463L3.84037 4.8555L2.5 3.46986L4.31493 3.39494L5.08279 1.25L5.85066 3.39494H7.6625L6.32522 4.8555L6.99495 6.8966L5.08279 5.75818Z" clip-rule="evenodd"/></g></svg>