<svg xmlns="http://www.w3.org/2000/svg" fill="none" viewBox="0 0 20 15"><mask id="AMS_svg__a" width="20" height="15" x="0" y="0" mask-type="alpha" maskUnits="userSpaceOnUse"><path fill="#fff" d="M0 0H20V15H0z"/></mask><g mask="url(#AMS_svg__a)"><path fill="#E31D1C" fill-rule="evenodd" d="M0 0V15H20V0H0Z" clip-rule="evenodd"/><mask id="AMS_svg__b" width="20" height="15" x="0" y="0" mask-type="alpha" maskUnits="userSpaceOnUse"><path fill="#fff" fill-rule="evenodd" d="M0 0V15H20V0H0Z" clip-rule="evenodd"/></mask><g fill-rule="evenodd" clip-rule="evenodd" mask="url(#AMS_svg__b)"><path fill="#272727" d="M0 5V10H20V5H0Z"/><path fill="#F7FCFF" d="M3.78307 7.44192 2.46252 8.76247 3.34641 9.64635 4.66696 8.3258 5.9875 9.64635 6.87139 8.76247 5.55084 7.44192 6.87139 6.12137 5.9875 5.23749 4.66696 6.55804 3.34641 5.23749 2.46252 6.12137 3.78307 7.44192zM9.15807 7.44192 7.83752 8.76247 8.72141 9.64635 10.042 8.3258 11.3625 9.64635 12.2464 8.76247 10.9258 7.44192 12.2464 6.12137 11.3625 5.23749 10.042 6.55804 8.72141 5.23749 7.83752 6.12137 9.15807 7.44192zM14.5331 7.44192 13.2125 8.76247 14.0964 9.64635 15.417 8.3258 16.7375 9.64635 17.6214 8.76247 16.3008 7.44192 17.6214 6.12137 16.7375 5.23749 15.417 6.55804 14.0964 5.23749 13.2125 6.12137 14.5331 7.44192z"/></g></g></svg>