<svg xmlns="http://www.w3.org/2000/svg" fill="none" viewBox="0 0 20 15"><mask id="CXR_svg__a" width="20" height="15" x="0" y="0" mask-type="alpha" maskUnits="userSpaceOnUse"><path fill="#fff" d="M0 0H20V15H0z"/></mask><g fill-rule="evenodd" clip-rule="evenodd" mask="url(#CXR_svg__a)"><path fill="#5EAA22" d="M0 0H20V15H0V0Z"/><path fill="#4141DB" d="M0 0L20 15H0V0Z"/><path fill="#fff" d="M3.75 5.625 3.125 6.08253 3.20873 5.3125 2.5 5 3.20873 4.6875 3.125 3.91747 3.75 4.375 4.375 3.91747 4.29127 4.6875 5 5 4.29127 5.3125 4.375 6.08253 3.75 5.625zM2.5 9.375 1.875 9.83253 1.95873 9.0625 1.25 8.75 1.95873 8.4375 1.875 7.66747 2.5 8.125 3.125 7.66747 3.04127 8.4375 3.75 8.75 3.04127 9.0625 3.125 9.83253 2.5 9.375zM5 13.125 4.375 13.5825 4.45873 12.8125 3.75 12.5 4.45873 12.1875 4.375 11.4175 5 11.875 5.625 11.4175 5.54127 12.1875 6.25 12.5 5.54127 12.8125 5.625 13.5825 5 13.125zM5.625 7.1875 5.3125 7.41627 5.35437 7.03125 5 6.875 5.35437 6.71875 5.3125 6.33373 5.625 6.5625 5.9375 6.33373 5.89563 6.71875 6.25 6.875 5.89563 7.03125 5.9375 7.41627 5.625 7.1875z"/><path fill="#FECA00" d="M13.4757 7.63992C13.242 7.39619 15.3446 6.8235 15.5625 6.08504 15.8513 5.44211 15.6584 4.92114 14.567 4.46361 13.4757 4.00608 12.3727 3.1214 13.641 3.1214 14.9093 3.1214 14.9093 3.30224 15.25 3.83567 15.5907 4.36911 16.3272 4.48338 16.3428 3.83567 16.3428 2.73205 16.4469 2.58362 15.556 1.62414 14.6651.664656 17.7901 2.01816 17.5318 3.66303 17.2735 5.3079 16.9625 4.77713 17.1599 5.05325 17.3573 5.32937 18.5451 4.47224 18.3968 5.614 17.9813 6.27066 17.1571 7.24769 13.4757 7.63992zM10 10.625C11.7259 10.625 13.125 9.22589 13.125 7.5 13.125 5.77411 11.7259 4.375 10 4.375 8.27411 4.375 6.875 5.77411 6.875 7.5 6.875 9.22589 8.27411 10.625 10 10.625z"/><path fill="#548650" d="M8.0956 6.35129C8.45007 6.27226 8.93477 7.22145 9.8096 6.86544C10.6844 6.50944 10.8671 5.82977 11.2828 6.07852C11.6984 6.32728 11.753 6.9262 11.4761 7.22723C11.1992 7.52826 10.7293 7.59946 10.7293 7.97994C10.7293 8.36041 10.6372 9.71721 10.4576 9.324C9.91914 8.88709 10.2477 8.19119 9.58439 7.97994C8.9211 7.76868 8.51825 7.77576 8.02896 7.86491C7.53967 7.95405 8.35767 7.62002 8.53115 7.30289C8.88437 6.96308 7.93352 6.46428 8.0956 6.35129Z"/></g></svg>