<svg width="20" height="15" viewBox="0 0 20 15" fill="none" xmlns="http://www.w3.org/2000/svg">
<mask id="mask0" mask-type="alpha" maskUnits="userSpaceOnUse" x="0" y="0" width="20" height="15">
<rect width="20" height="15" fill="white"/>
</mask>
<g mask="url(#mask0)">
<path fill-rule="evenodd" clip-rule="evenodd" d="M0 0V15H20V0H0Z" fill="#279E19"/>
<mask id="mask1" mask-type="alpha" maskUnits="userSpaceOnUse" x="0" y="0" width="20" height="15">
<path fill-rule="evenodd" clip-rule="evenodd" d="M0 0V15H20V0H0Z" fill="white"/>
</mask>
<g mask="url(#mask1)">
<path fill-rule="evenodd" clip-rule="evenodd" d="M10 0H11.25V8.75H20V10H11.25V15H10V10H0V8.75H10V0Z" fill="#F7FCFF"/>
<path fill-rule="evenodd" clip-rule="evenodd" d="M8.75 0H10V7.5H20V8.75H10V15H8.75V8.75H0V7.5H8.75V0Z" fill="#272727"/>
<path fill-rule="evenodd" clip-rule="evenodd" d="M7.5 0H8.75V6.25H20V7.5H8.75V15H7.5V7.5H0V6.25H7.5V0Z" fill="#FECA00"/>
<path fill-rule="evenodd" clip-rule="evenodd" d="M10 12.5C12.7614 12.5 15 10.2614 15 7.5C15 4.73858 12.7614 2.5 10 2.5C7.23858 2.5 5 4.73858 5 7.5C5 10.2614 7.23858 12.5 10 12.5Z" fill="#C51918"/>
<path fill-rule="evenodd" clip-rule="evenodd" d="M9.20367 5.25809C9.20367 5.25809 9.44113 4.48751 9.99277 4.8856C10.8578 5.31167 11.1431 5.80115 11.4771 6.35547C11.8111 6.90979 10.6583 6.50382 10.4432 6.19183C10.2282 5.87985 9.03527 5.77869 9.20367 5.51839C9.37207 5.25809 9.20367 5.25809 9.20367 5.25809Z" fill="#804BFF"/>
<path fill-rule="evenodd" clip-rule="evenodd" d="M9.00819 9.20337C9.00819 9.20337 8.42089 10.0068 9.00819 10.0068C9.5955 10.0068 11.9766 9.83395 11.6912 9.60509C11.4058 9.37622 9.29039 9.60509 9.29039 9.60509L9.00819 9.20337Z" fill="#A95601"/>
<path fill-rule="evenodd" clip-rule="evenodd" d="M9.88626 9.17811C9.82535 9.10941 8.75525 6.68115 9.25279 6.17646C9.75033 5.67177 10.0419 5.96833 10.0419 6.72511C10.0419 7.48188 10.0718 9.3651 9.88626 9.17811Z" fill="#804BFF"/>
<path fill-rule="evenodd" clip-rule="evenodd" d="M9.82327 8.7841C9.82327 8.7841 9.76152 9.37434 10.0651 10.0634C10.3686 10.7524 10.9817 10.7391 10.9817 10.1752C10.9817 9.61121 11.4292 10.1405 11.601 10.5169C11.7728 10.8933 11.3279 7.17455 10.6965 6.3426C10.0651 5.51065 9.45584 5.45723 9.63956 5.99485C9.82327 6.53247 9.82327 8.7841 9.82327 8.7841Z" fill="#279E19"/>
<path fill-rule="evenodd" clip-rule="evenodd" d="M9.45454 4.75C9.45454 4.75 9.18744 4.92128 9.18744 5.39303C9.18744 5.86479 9.81984 5.24697 9.81984 5.24697L9.45454 4.75Z" fill="#FECA00"/>
<path fill-rule="evenodd" clip-rule="evenodd" d="M9.51142 4.57095L10.0625 4.28125L10.6135 4.57095L10.5083 3.95735L10.9541 3.5228L10.338 3.43327L10.0625 2.875L9.78694 3.43327L9.17085 3.5228L9.61666 3.95735L9.51142 4.57095ZM9.51142 11.9459L10.0625 11.6562L10.6135 11.9459L10.5083 11.3323L10.9541 10.8978L10.338 10.8083L10.0625 10.25L9.78694 10.8083L9.17085 10.8978L9.61666 11.3323L9.51142 11.9459ZM13.5625 8.15624L13.0114 8.44594L13.1166 7.83234L12.6708 7.39779L13.2869 7.30826L13.5625 6.74999L13.838 7.30826L14.4541 7.39779L14.0083 7.83234L14.1135 8.44594L13.5625 8.15624ZM5.99171 7.83234L5.88647 8.44594L6.43751 8.15624L6.98856 8.44594L6.88332 7.83234L7.32913 7.39779L6.71304 7.30826L6.43751 6.74999L6.16199 7.30826L5.5459 7.39779L5.99171 7.83234ZM7.79241 5.43874L7.61802 6.03638L7.24974 5.53443L6.62746 5.55325L6.99104 5.04788L6.78084 4.46188L7.37383 4.65149L7.8662 4.2705L7.86911 4.89305L8.3836 5.24359L7.79241 5.43874ZM12.9231 10.9125L13.0975 10.3149L13.6887 10.1197L13.1742 9.7692L13.1713 9.14664L12.679 9.52764L12.086 9.33802L12.2962 9.92403L11.9326 10.4294L12.5549 10.4106L12.9231 10.9125ZM13.0111 5.3659L12.8367 5.96354L12.4685 5.46159L11.8462 5.48041L12.2098 4.97504L11.9996 4.38904L12.5926 4.57865L13.0849 4.19766L13.0878 4.82021L13.6023 5.17075L13.0111 5.3659ZM7.76343 11.0888L7.93782 10.4912L8.52901 10.296L8.01451 9.94547L8.0116 9.32291L7.51923 9.7039L6.92625 9.51429L7.13644 10.1003L6.77287 10.6057L7.39514 10.5868L7.76343 11.0888Z" fill="#FECA00"/>
</g>
</g>
</svg>
