<svg width="20" height="15" viewBox="0 0 20 15" fill="none" xmlns="http://www.w3.org/2000/svg">
<mask id="mask0" mask-type="alpha" maskUnits="userSpaceOnUse" x="0" y="0" width="20" height="15">
<rect width="20" height="15" fill="white"/>
</mask>
<g mask="url(#mask0)">
<path fill-rule="evenodd" clip-rule="evenodd" d="M0 0H20V15H0V0Z" fill="#2E42A5"/>
<rect width="11" height="9" fill="#2E42A5"/>
<mask id="mask1" mask-type="alpha" maskUnits="userSpaceOnUse" x="0" y="0" width="11" height="9">
<rect width="11" height="9" fill="white"/>
</mask>
<g mask="url(#mask1)">
<path d="M-1.25269 8.12482L1.22291 9.21057L11.3062 1.1804L12.612 -0.43306L9.96468 -0.795949L5.85197 2.66448L2.54165 4.996L-1.25269 8.12482Z" fill="#F7FCFF"/>
<path d="M-0.913757 8.88555L0.347444 9.51562L12.1431 -0.582947H10.3722L-0.913757 8.88555Z" fill="#F50100"/>
<path d="M12.5026 8.12493L10.3055 9.52063L-0.0562172 1.1805L-1.36204 -0.432954L1.28526 -0.795844L5.39797 2.66459L8.70828 4.99611L12.5026 8.12493Z" fill="#F7FCFF"/>
<path d="M12.4182 8.67082L11.157 9.3009L6.13425 4.97718L4.64512 4.4941L-1.48769 -0.427482H0.283185L6.41255 4.37728L8.04064 4.95655L12.4182 8.67082Z" fill="#F50100"/>
<mask id="path-10-outside-1" maskUnits="userSpaceOnUse" x="-1" y="-1" width="13" height="11" fill="black">
<rect fill="white" x="-1" y="-1" width="13" height="11"/>
<path fill-rule="evenodd" clip-rule="evenodd" d="M6 0H5V4H0V5H5V9H6V5H11V4H6V0Z"/>
</mask>
<path fill-rule="evenodd" clip-rule="evenodd" d="M6 0H5V4H0V5H5V9H6V5H11V4H6V0Z" fill="#F50100"/>
<path d="M5 0V-0.9375H4.0625V0H5ZM6 0H6.9375V-0.9375H6V0ZM5 4V4.9375H5.9375V4H5ZM0 4V3.0625H-0.9375V4H0ZM0 5H-0.9375V5.9375H0V5ZM5 5H5.9375V4.0625H5V5ZM5 9H4.0625V9.9375H5V9ZM6 9V9.9375H6.9375V9H6ZM6 5V4.0625H5.0625V5H6ZM11 5V5.9375H11.9375V5H11ZM11 4H11.9375V3.0625H11V4ZM6 4H5.0625V4.9375H6V4ZM5 0.9375H6V-0.9375H5V0.9375ZM5.9375 4V0H4.0625V4H5.9375ZM0 4.9375H5V3.0625H0V4.9375ZM0.9375 5V4H-0.9375V5H0.9375ZM5 4.0625H0V5.9375H5V4.0625ZM5.9375 9V5H4.0625V9H5.9375ZM6 8.0625H5V9.9375H6V8.0625ZM5.0625 5V9H6.9375V5H5.0625ZM11 4.0625H6V5.9375H11V4.0625ZM10.0625 4V5H11.9375V4H10.0625ZM6 4.9375H11V3.0625H6V4.9375ZM5.0625 0V4H6.9375V0H5.0625Z" fill="#F7FCFF" mask="url(#path-10-outside-1)"/>
</g>
</g>
<path d="M5.92003 12.2784L5.09999 13.0362L5.1812 11.9226L4.07742 11.7539L4.99872 11.1231L4.44237 10.155L5.51001 10.4819L5.92003 9.44336L6.33005 10.4819L7.39769 10.155L6.84134 11.1231L7.76264 11.7539L6.65886 11.9226L6.74007 13.0362L5.92003 12.2784Z" fill="#F7FCFF"/>
<path d="M13.24 8.29662L12.6933 8.80184L12.7474 8.05941L12.0116 7.94699L12.6258 7.52643L12.2549 6.88102L12.9666 7.09901L13.24 6.40662L13.5133 7.09901L14.2251 6.88102L13.8542 7.52643L14.4684 7.94699L13.7325 8.05941L13.7867 8.80184L13.24 8.29662Z" fill="#F7FCFF"/>
<path d="M14.52 2.96336L13.9733 3.46859L14.0275 2.72616L13.2916 2.61374L13.9058 2.19318L13.5349 1.54777L14.2467 1.76575L14.52 1.07336L14.7934 1.76575L15.5051 1.54777L15.1342 2.19318L15.7484 2.61374L15.0126 2.72616L15.0667 3.46859L14.52 2.96336Z" fill="#F7FCFF"/>
<path d="M17.72 5.62999L17.1733 6.13521L17.2275 5.39279L16.4916 5.28037L17.1058 4.8598L16.7349 4.21439L17.4467 4.43238L17.72 3.73999L17.9934 4.43238L18.7051 4.21439L18.3342 4.8598L18.9484 5.28037L18.2126 5.39279L18.2667 6.13521L17.72 5.62999Z" fill="#F7FCFF"/>
<path d="M15.16 13.2966L14.6133 13.8018L14.6675 13.0594L13.9316 12.947L14.5458 12.5264L14.1749 11.881L14.8867 12.099L15.16 11.4066L15.4334 12.099L16.1451 11.881L15.7742 12.5264L16.3884 12.947L15.6526 13.0594L15.7067 13.8018L15.16 13.2966Z" fill="#F7FCFF"/>
<path d="M17.4 9.13918L16.8446 9.4312L16.9506 8.81269L16.5013 8.37466L17.1223 8.28442L17.4 7.72168L17.6777 8.28442L18.2988 8.37466L17.8494 8.81269L17.9555 9.4312L17.4 9.13918Z" fill="#F7FCFF"/>
<path d="M14.8462 51.7782L16.3465 51.8029" stroke="#979797" stroke-width="2"/>
</svg>
