<svg xmlns="http://www.w3.org/2000/svg" fill="none" viewBox="0 0 20 15"><mask id="MV_svg__a" width="20" height="15" x="0" y="0" mask-type="alpha" maskUnits="userSpaceOnUse"><path fill="#fff" d="M0 0H20V15H0z"/></mask><g mask="url(#MV_svg__a)"><path fill="#C51918" fill-rule="evenodd" d="M0 0H20V13.75C20 14.4404 19.4404 15 18.75 15H1.25C0.559644 15 0 14.4404 0 13.75V0Z" clip-rule="evenodd"/><path fill="#C51918" fill-rule="evenodd" d="M0 0H20V15H0V0Z" clip-rule="evenodd"/><path fill="#579D20" fill-rule="evenodd" d="M3 3H17V12H3V3Z" clip-rule="evenodd"/><path stroke="#B6EB9A" stroke-opacity=".238" stroke-width="1.25" d="M3.625 3.625H16.375V11.375H3.625V3.625Z"/><mask id="MV_svg__b" width="14" height="9" x="3" y="3" mask-type="alpha" maskUnits="userSpaceOnUse"><path fill="#fff" fill-rule="evenodd" d="M3 3H17V12H3V3Z" clip-rule="evenodd"/><path stroke="#fff" stroke-width="1.25" d="M3.625 3.625H16.375V11.375H3.625V3.625Z"/></mask><g mask="url(#MV_svg__b)"><path fill="#F9FAFA" fill-rule="evenodd" d="M10.0206 7.78901C10.01 9.70506 11.5184 10.7266 11.5184 10.7266C9.7972 10.9287 8.65204 9.36839 8.65204 7.80768C8.65204 6.24697 10.213 4.95776 11.5184 4.37561C11.5184 4.37561 10.0312 5.87295 10.0206 7.78901Z" clip-rule="evenodd"/></g></g></svg>