<svg width="20" height="15" viewBox="0 0 20 15" fill="none" xmlns="http://www.w3.org/2000/svg">
<mask id="mask0" mask-type="alpha" maskUnits="userSpaceOnUse" x="0" y="0" width="20" height="15">
<rect width="20" height="15" fill="white"/>
</mask>
<g mask="url(#mask0)">
<path fill-rule="evenodd" clip-rule="evenodd" d="M0 0V15H20V0H0Z" fill="#009933"/>
<mask id="mask1" mask-type="alpha" maskUnits="userSpaceOnUse" x="0" y="0" width="20" height="15">
<path fill-rule="evenodd" clip-rule="evenodd" d="M0 0V15H20V0H0Z" fill="white"/>
</mask>
<g mask="url(#mask1)">
<path fill-rule="evenodd" clip-rule="evenodd" d="M0 0V15L20 0H0Z" fill="#3195F9"/>
<path d="M-0.632795 16.9335L-0.301197 17.5343L0.266074 17.1482L22.036 2.32985L22.4748 2.03116L22.2511 1.54978L20.7874 -1.59971L20.4804 -2.26039L19.8741 -1.85643L-2.22322 12.8664L-2.70169 13.1852L-2.42386 13.6885L-0.632795 16.9335Z" fill="#E31D1C" stroke="#F7FCFF" stroke-width="1.25"/>
<path fill-rule="evenodd" clip-rule="evenodd" d="M3.89352 5.77809L3.08471 6.78716L2.88879 5.50888L1.68381 5.97835L2.15328 4.77337L0.875 4.57745L1.88407 3.76864L0.875 2.95983L2.15328 2.76391L1.68381 1.55893L2.88879 2.0284L3.08471 0.750122L3.89352 1.75919L4.70233 0.750122L4.89824 2.0284L6.10323 1.55893L5.63375 2.76391L6.91204 2.95983L5.90297 3.76864L6.91204 4.57745L5.63375 4.77337L6.10323 5.97835L4.89824 5.50888L4.70233 6.78716L3.89352 5.77809ZM3.89352 5.33114C4.75646 5.33114 5.45602 4.63159 5.45602 3.76864C5.45602 2.9057 4.75646 2.20614 3.89352 2.20614C3.03057 2.20614 2.33102 2.9057 2.33102 3.76864C2.33102 4.63159 3.03057 5.33114 3.89352 5.33114ZM5.14352 3.76864C5.14352 4.459 4.58387 5.01864 3.89352 5.01864C3.20316 5.01864 2.64352 4.459 2.64352 3.76864C2.64352 3.07828 3.20316 2.51864 3.89352 2.51864C4.58387 2.51864 5.14352 3.07828 5.14352 3.76864Z" fill="#FECA00"/>
</g>
</g>
</svg>
