<svg width="20" height="15" viewBox="0 0 20 15" fill="none" xmlns="http://www.w3.org/2000/svg">
<mask id="mask0" mask-type="alpha" maskUnits="userSpaceOnUse" x="0" y="0" width="20" height="15">
<rect width="20" height="15" fill="white"/>
</mask>
<g mask="url(#mask0)">
<path fill-rule="evenodd" clip-rule="evenodd" d="M0 0V15H20V0H0Z" fill="#F7FCFF"/>
<mask id="mask1" mask-type="alpha" maskUnits="userSpaceOnUse" x="0" y="0" width="20" height="15">
<path fill-rule="evenodd" clip-rule="evenodd" d="M0 0V15H20V0H0Z" fill="white"/>
</mask>
<g mask="url(#mask1)">
<path fill-rule="evenodd" clip-rule="evenodd" d="M0 0V2.5H20V0H0Z" fill="#FF0122"/>
<path fill-rule="evenodd" clip-rule="evenodd" d="M0 2.5V5H20V2.5H0Z" fill="#FF8C01"/>
<path fill-rule="evenodd" clip-rule="evenodd" d="M0 5V7.5H20V5H0Z" fill="#FECA00"/>
<path fill-rule="evenodd" clip-rule="evenodd" d="M0 7.5V10H20V7.5H0Z" fill="#73BE4A"/>
<path fill-rule="evenodd" clip-rule="evenodd" d="M0 10V12.5H20V10H0Z" fill="#5770ED"/>
<path fill-rule="evenodd" clip-rule="evenodd" d="M0 12.5V15H20V12.5H0Z" fill="#871FF0"/>
</g>
</g>
</svg>
