<svg xmlns="http://www.w3.org/2000/svg" fill="none" viewBox="0 0 20 15"><mask id="RAINBOW_svg__a" width="20" height="15" x="0" y="0" mask-type="alpha" maskUnits="userSpaceOnUse"><path fill="#fff" d="M0 0H20V15H0z"/></mask><g mask="url(#RAINBOW_svg__a)"><path fill="#F7FCFF" fill-rule="evenodd" d="M0 0V15H20V0H0Z" clip-rule="evenodd"/><mask id="RAINBOW_svg__b" width="20" height="15" x="0" y="0" mask-type="alpha" maskUnits="userSpaceOnUse"><path fill="#fff" fill-rule="evenodd" d="M0 0V15H20V0H0Z" clip-rule="evenodd"/></mask><g fill-rule="evenodd" clip-rule="evenodd" mask="url(#RAINBOW_svg__b)"><path fill="#FF0122" d="M0 0V2.5H20V0H0Z"/><path fill="#FF8C01" d="M0 2.5V5H20V2.5H0Z"/><path fill="#FECA00" d="M0 5V7.5H20V5H0Z"/><path fill="#73BE4A" d="M0 7.5V10H20V7.5H0Z"/><path fill="#5770ED" d="M0 10V12.5H20V10H0Z"/><path fill="#871FF0" d="M0 12.5V15H20V12.5H0Z"/></g></g></svg>