<svg width="20" height="15" viewBox="0 0 20 15" fill="none" xmlns="http://www.w3.org/2000/svg">
<mask id="mask0" mask-type="alpha" maskUnits="userSpaceOnUse" x="0" y="0" width="20" height="15">
<rect width="20" height="15" fill="white"/>
</mask>
<g mask="url(#mask0)">
<path fill-rule="evenodd" clip-rule="evenodd" d="M0 0V15H20V0H0Z" fill="#3D58DB"/>
<mask id="mask1" mask-type="alpha" maskUnits="userSpaceOnUse" x="0" y="0" width="20" height="15">
<path fill-rule="evenodd" clip-rule="evenodd" d="M0 0V15H20V0H0Z" fill="white"/>
</mask>
<g mask="url(#mask1)">
<path fill-rule="evenodd" clip-rule="evenodd" d="M0 0V5H20V0H0Z" fill="#F7FCFF"/>
<path fill-rule="evenodd" clip-rule="evenodd" d="M0 10V15H20V10H0Z" fill="#E31D1C"/>
<path d="M9.75243 3.76904L10.0632 3.73598L10.0334 3.45654H9.75243H3.9655H3.67336L3.65371 3.74802L3.9655 3.76904L3.65371 3.74807L3.6537 3.74821L3.65366 3.74871L3.65354 3.75063L3.65304 3.75808L3.65113 3.78699L3.64405 3.89711C3.63801 3.99235 3.62955 4.12938 3.6198 4.29685C3.60032 4.63169 3.57571 5.0887 3.5552 5.57693C3.51477 6.53919 3.48797 7.66567 3.55797 8.19175C3.69458 9.2183 4.31967 11.5228 6.73737 12.5671L6.86346 12.6216L6.98885 12.5655C9.28523 11.5387 10.0533 9.4708 10.2304 8.19346C10.3198 7.54881 10.2744 6.42079 10.2116 5.48341C10.1798 5.0084 10.1428 4.57193 10.1136 4.25431C10.0991 4.09544 10.0865 3.96614 10.0775 3.87644L10.067 3.77279L10.0642 3.74557L10.0634 3.73851L10.0633 3.73667L10.0632 3.73618L10.0632 3.73605L9.75243 3.76904Z" fill="#E31D1C" stroke="white" stroke-width="0.625"/>
<mask id="mask2" mask-type="alpha" maskUnits="userSpaceOnUse" x="3" y="3" width="8" height="10">
<path d="M9.75243 3.76904L10.0632 3.73598L10.0334 3.45654H9.75243H3.9655H3.67336L3.65371 3.74802L3.9655 3.76904L3.65371 3.74807L3.6537 3.74821L3.65366 3.74871L3.65354 3.75063L3.65304 3.75808L3.65113 3.78699L3.64405 3.89711C3.63801 3.99235 3.62955 4.12938 3.6198 4.29685C3.60032 4.63169 3.57571 5.0887 3.5552 5.57693C3.51477 6.53919 3.48797 7.66567 3.55797 8.19175C3.69458 9.2183 4.31967 11.5228 6.73737 12.5671L6.86346 12.6216L6.98885 12.5655C9.28523 11.5387 10.0533 9.4708 10.2304 8.19346C10.3198 7.54881 10.2744 6.42079 10.2116 5.48341C10.1798 5.0084 10.1428 4.57193 10.1136 4.25431C10.0991 4.09544 10.0865 3.96614 10.0775 3.87644L10.067 3.77279L10.0642 3.74557L10.0634 3.73851L10.0633 3.73667L10.0632 3.73618L10.0632 3.73605L9.75243 3.76904Z" fill="white" stroke="white" stroke-width="0.625"/>
</mask>
<g mask="url(#mask2)">
<path fill-rule="evenodd" clip-rule="evenodd" d="M6.41067 4.11865C6.41067 4.11865 6.53972 4.31529 6.5975 4.61597C6.65527 4.91665 6.66524 5.44347 6.66524 5.44347L5.44094 5.29273V6.22103L6.69259 6.06163L6.67225 6.94272C6.67225 6.94272 6.29779 6.98154 5.99068 6.94272C5.68357 6.9039 5.07855 6.74128 5.07855 6.74128V7.80402C5.07855 7.80402 5.69324 7.60736 5.99068 7.56224C6.28812 7.51711 6.67225 7.56224 6.67225 7.56224V8.86744H7.18039V7.56224C7.18039 7.56224 7.73586 7.51395 8.06722 7.56623C8.39858 7.61851 8.7129 7.80402 8.7129 7.80402V6.74128C8.7129 6.74128 8.39446 6.89993 8.09412 6.9394C7.79377 6.97888 7.18039 6.94272 7.18039 6.94272L7.20073 6.06163C7.20073 6.06163 7.6165 6.01858 7.84976 6.05025C8.08302 6.08192 8.37497 6.22103 8.37497 6.22103V5.29273C8.37497 5.29273 8.09042 5.44757 7.86652 5.47565C7.64263 5.50374 7.17338 5.44347 7.17338 5.44347C7.17338 5.44347 7.1817 4.8998 7.22984 4.63508C7.27798 4.37035 7.41431 4.11865 7.41431 4.11865H6.41067Z" fill="#F7FCFF"/>
<path fill-rule="evenodd" clip-rule="evenodd" d="M4.31079 10.1533C4.31079 10.1533 4.58547 9.56373 5.03243 9.45163C5.47939 9.33954 5.94807 9.80246 5.94807 9.80246C5.94807 9.80246 6.23426 8.86719 6.93182 8.86719C7.62938 8.86719 7.8742 9.80246 7.8742 9.80246C7.8742 9.80246 8.17182 9.45163 8.5998 9.45163C9.02779 9.45163 9.42431 10.1533 9.42431 10.1533C9.42431 10.1533 8.14593 12.4742 6.86755 12.4742C5.58917 12.4742 4.31079 10.1533 4.31079 10.1533Z" fill="#2E42A5"/>
</g>
</g>
</g>
</svg>
