<svg width="20" height="15" viewBox="0 0 20 15" fill="none" xmlns="http://www.w3.org/2000/svg">
<mask id="mask0" mask-type="alpha" maskUnits="userSpaceOnUse" x="0" y="0" width="20" height="15">
<rect width="20" height="15" rx="1.25" fill="white"/>
</mask>
<g mask="url(#mask0)">
<path fill-rule="evenodd" clip-rule="evenodd" d="M0 0V15H20V0H0Z" fill="#2E42A5"/>
<mask id="mask1" mask-type="alpha" maskUnits="userSpaceOnUse" x="0" y="0" width="20" height="15">
<path fill-rule="evenodd" clip-rule="evenodd" d="M0 0V15H20V0H0Z" fill="white"/>
</mask>
<g mask="url(#mask1)">
<path fill-rule="evenodd" clip-rule="evenodd" d="M0 0V5H20V0H0Z" fill="#FECA00"/>
<path fill-rule="evenodd" clip-rule="evenodd" d="M0 10V15H20V10H0Z" fill="#E31D1C"/>
<path fill-rule="evenodd" clip-rule="evenodd" d="M7.9605 7.41206L8.57468 7.06363L9.26382 7.41206L9.01634 6.70392L9.53105 6.18355H8.87597L8.57376 5.51343L8.31603 6.18355H7.54758L8.12539 6.69461H7.47737L7.17516 6.02449L6.91743 6.69461H6.14898L6.73732 7.21498L6.62487 7.66894H6.13452L5.83231 6.99882L5.57457 7.66894H4.80613L5.39446 8.18932L5.28565 8.62859H5.07097L4.76876 7.95847L4.51103 8.62859H3.74258L4.33092 9.14896L4.15551 9.8571L4.76969 9.50868L5.45883 9.8571L5.21134 9.14896L5.72605 8.62859H5.69298L5.83323 8.54903L6.52237 8.89745L6.27488 8.18932L6.56983 7.89112L6.56191 7.92312L7.17609 7.5747L7.86522 7.92312L7.61774 7.21498L8.12916 6.69794L8.13592 6.70392L7.9605 7.41206Z" fill="#F7FCFF"/>
<path fill-rule="evenodd" clip-rule="evenodd" d="M12.0143 7.38472L11.4001 7.03629L10.711 7.38472L10.9585 6.67658L10.4438 6.1562H11.0989L11.4011 5.48608L11.6588 6.1562H12.4272L11.8494 6.66727H12.5005L12.8027 5.99715L13.0604 6.66727H13.8289L13.2406 7.18764L13.353 7.6416H13.8434L14.1456 6.97148L14.4033 7.6416H15.1717L14.5834 8.16197L14.6922 8.60125H14.9069L15.2091 7.93113L15.4668 8.60125H16.2353L15.647 9.12162L15.8224 9.82976L15.2082 9.48133L14.519 9.82976L14.7665 9.12162L14.2518 8.60125H14.2849L14.1446 8.52168L13.4555 8.87011L13.703 8.16197L13.408 7.86378L13.416 7.89578L12.8018 7.54735L12.1127 7.89578L12.3601 7.18764L11.8473 6.66915L11.8389 6.67658L12.0143 7.38472Z" fill="#F7FCFF"/>
<path fill-rule="evenodd" clip-rule="evenodd" d="M9.89557 6.58414L9.28139 6.93257L9.4568 6.22443L8.86847 5.70406H9.63692L9.89465 5.03394L10.1969 5.70406H10.8519L10.3372 6.22443L10.5847 6.93257L9.89557 6.58414Z" fill="#F7FCFF"/>
</g>
</g>
</svg>
