<svg width="20" height="15" viewBox="0 0 20 15" fill="none" xmlns="http://www.w3.org/2000/svg">
<mask id="mask0" mask-type="alpha" maskUnits="userSpaceOnUse" x="0" y="0" width="20" height="15">
<rect width="20" height="15" fill="white"/>
</mask>
<g mask="url(#mask0)">
<path fill-rule="evenodd" clip-rule="evenodd" d="M0 0H20V15H0V0Z" fill="#F7FCFF"/>
<path fill-rule="evenodd" clip-rule="evenodd" d="M0 0V5H20V0H0Z" fill="#C51918"/>
<path fill-rule="evenodd" clip-rule="evenodd" d="M0 10V15H20V10H0Z" fill="#5EAA22"/>
<path fill-rule="evenodd" clip-rule="evenodd" d="M0 -1.25L10.4185 7.5L0 16.25V-1.25Z" fill="#272727"/>
<mask id="path-7-outside-1" maskUnits="userSpaceOnUse" x="-2" y="-5.09692" width="24" height="25" fill="black">
<rect fill="white" x="-2" y="-5.09692" width="24" height="25"/>
<path fill-rule="evenodd" clip-rule="evenodd" d="M0 -2.09692L10.8802 6.24992H20V8.74992H10.7309L0 16.7571V13.9625L8.75 7.49992L0 0.958984V-2.09692Z"/>
</mask>
<path fill-rule="evenodd" clip-rule="evenodd" d="M0 -2.09692L10.8802 6.24992H20V8.74992H10.7309L0 16.7571V13.9625L8.75 7.49992L0 0.958984V-2.09692Z" fill="#FFD018"/>
<path d="M10.8802 6.24992L10.1193 7.24169L10.4559 7.49992H10.8802V6.24992ZM0 -2.09692L0.760848 -3.0887L-1.25 -4.63134V-2.09692H0ZM20 6.24992H21.25V4.99992H20V6.24992ZM20 8.74992V9.99992H21.25V8.74992H20ZM10.7309 8.74992V7.49992H10.3159L9.98331 7.74809L10.7309 8.74992ZM0 16.7571H-1.25V19.2495L0.747551 17.7589L0 16.7571ZM0 13.9625L-0.742634 12.9571L-1.25 13.3318V13.9625H0ZM8.75 7.49992L9.49263 8.5054L10.8458 7.50596L9.49842 6.49873L8.75 7.49992ZM0 0.958984H-1.25V1.58522L-0.74842 1.96017L0 0.958984ZM11.641 5.25815L0.760848 -3.0887L-0.760848 -1.10515L10.1193 7.24169L11.641 5.25815ZM20 4.99992H10.8802V7.49992H20V4.99992ZM21.25 8.74992V6.24992H18.75V8.74992H21.25ZM10.7309 9.99992H20V7.49992H10.7309V9.99992ZM0.747551 17.7589L11.4784 9.75175L9.98331 7.74809L-0.747551 15.7553L0.747551 17.7589ZM-1.25 13.9625V16.7571H1.25V13.9625H-1.25ZM8.00737 6.49444L-0.742634 12.9571L0.742634 14.968L9.49263 8.5054L8.00737 6.49444ZM-0.74842 1.96017L8.00158 8.5011L9.49842 6.49873L0.74842 -0.0421996L-0.74842 1.96017ZM-1.25 -2.09692V0.958984H1.25V-2.09692H-1.25Z" fill="#272727" mask="url(#path-7-outside-1)"/>
<path d="M3.04604 10.48L3.04729 9.49226C3.9275 9.29808 4.51059 9.04549 4.79441 8.74175C5.49331 7.8804 5.02871 5.86235 3.59286 5.87554C2.88149 5.87554 2.14587 6.21453 2.14587 7.01237C2.14587 8.00327 2.34979 8.42686 3.04729 8.42686C3.74045 8.42686 3.99458 8.46391 4.45117 7.84159L4.94666 7.99469C4.45738 8.66157 3.79785 9.18836 3.04604 9.18836C1.80758 9.18836 1.13361 8.25457 1.13361 7.17462C1.13361 5.84143 2.21591 4.90771 3.52087 4.90771C4.49456 4.90771 6.03465 6.10034 6.03465 7.17462C6.03465 8.2489 6.03465 8.74175 5.19018 9.49226C4.85003 9.79455 4.00725 10.3344 3.04604 10.48Z" fill="#FFD018"/>
<path fill-rule="evenodd" clip-rule="evenodd" d="M3.11962 6.17486C3.07194 6.16227 3.02309 6.19071 3.0105 6.23839L2.97636 6.36765C2.97466 6.36544 2.97294 6.36322 2.97123 6.361C2.94109 6.32198 2.88502 6.31477 2.84599 6.34491C2.80696 6.37505 2.79976 6.43112 2.8299 6.47015C2.85059 6.49694 2.871 6.52341 2.89113 6.54956L2.78824 6.64458C2.75201 6.67803 2.74976 6.73452 2.78321 6.77074C2.81666 6.80697 2.87315 6.80922 2.90938 6.77577L3.0003 6.69181C3.05459 6.76277 3.10661 6.83112 3.15631 6.89676L2.98515 6.98865C2.9417 7.01197 2.92539 7.0661 2.94871 7.10955C2.97204 7.15299 3.02617 7.16931 3.06961 7.14598L3.2651 7.04103C3.312 7.10351 3.35646 7.16312 3.39845 7.21978L3.16372 7.34579C3.12027 7.36912 3.10396 7.42324 3.12728 7.46669C3.15061 7.51014 3.20474 7.52645 3.24818 7.50312L3.50539 7.36504C3.5738 7.45862 3.63377 7.54208 3.68497 7.61483L3.52086 7.70293C3.47741 7.72626 3.4611 7.78039 3.48443 7.82383C3.50775 7.86728 3.56188 7.88359 3.60533 7.86027L3.78696 7.76275C3.86251 7.87533 3.90162 7.94286 3.90162 7.96063C3.90162 8.00994 3.94159 8.04992 3.99091 8.04992C4.04022 8.04992 4.08019 8.00994 4.08019 7.96063C4.08019 7.91544 4.03318 7.82039 3.93494 7.66806C3.93636 7.66559 3.93767 7.66305 3.93885 7.66044L4.07097 7.36953C4.09137 7.32464 4.0715 7.27171 4.0266 7.25132C3.9817 7.23093 3.92878 7.25079 3.90839 7.29569L3.81813 7.49443C3.76174 7.41326 3.69591 7.32139 3.62034 7.21825L3.71383 7.01239C3.73422 6.96749 3.71436 6.91457 3.66946 6.89417C3.62456 6.87378 3.57164 6.89365 3.55124 6.93855L3.49883 7.05395C3.46995 7.01521 3.43993 6.97516 3.40877 6.93376L3.53526 6.65525C3.55565 6.61035 3.53579 6.55742 3.49089 6.53703C3.44599 6.51664 3.39306 6.53651 3.37267 6.5814L3.28621 6.77177C3.23176 6.70013 3.17433 6.62499 3.11389 6.54626L3.18315 6.28398C3.19574 6.2363 3.1673 6.18745 3.11962 6.17486Z" fill="#FFD018"/>
<path fill-rule="evenodd" clip-rule="evenodd" d="M3.7201 6.17486C3.76778 6.16227 3.81664 6.19071 3.82923 6.23839L3.86336 6.36765C3.86507 6.36544 3.86678 6.36322 3.86849 6.361C3.89863 6.32198 3.9547 6.31477 3.99373 6.34491C4.03276 6.37505 4.03996 6.43112 4.00982 6.47015C3.98914 6.49694 3.96873 6.52341 3.94859 6.54956L4.05149 6.64458C4.08771 6.67803 4.08996 6.73452 4.05651 6.77074C4.02306 6.80697 3.96657 6.80922 3.93034 6.77577L3.83942 6.69181C3.78514 6.76277 3.73312 6.83112 3.68341 6.89676L3.85458 6.98865C3.89802 7.01197 3.91433 7.0661 3.89101 7.10955C3.86768 7.15299 3.81356 7.16931 3.77011 7.14598L3.57463 7.04103C3.52773 7.10351 3.48326 7.16312 3.44127 7.21978L3.676 7.34579C3.71945 7.36912 3.73576 7.42324 3.71244 7.46669C3.68911 7.51014 3.63498 7.52645 3.59154 7.50312L3.33433 7.36504C3.26592 7.45862 3.20595 7.54208 3.15475 7.61483L3.31886 7.70293C3.36231 7.72626 3.37862 7.78039 3.35529 7.82383C3.33197 7.86728 3.27784 7.88359 3.2344 7.86027L3.05276 7.76275C2.97722 7.87533 2.9381 7.94286 2.9381 7.96063C2.9381 8.00994 2.89813 8.04992 2.84882 8.04992C2.7995 8.04992 2.75953 8.00994 2.75953 7.96063C2.75953 7.91544 2.80654 7.82039 2.90478 7.66806C2.90336 7.66559 2.90205 7.66305 2.90087 7.66044L2.76875 7.36953C2.74836 7.32464 2.76822 7.27171 2.81312 7.25132C2.85802 7.23093 2.91094 7.25079 2.93134 7.29569L3.0216 7.49443C3.07799 7.41326 3.14381 7.32139 3.21938 7.21825L3.12589 7.01239C3.1055 6.96749 3.12536 6.91457 3.17026 6.89417C3.21516 6.87378 3.26809 6.89365 3.28848 6.93855L3.34089 7.05395C3.36978 7.01521 3.39979 6.97516 3.43095 6.93376L3.30446 6.65525C3.28407 6.61035 3.30394 6.55742 3.34883 6.53703C3.39373 6.51664 3.44666 6.53651 3.46705 6.5814L3.55351 6.77177C3.60796 6.70013 3.66539 6.62499 3.72583 6.54626L3.65657 6.28398C3.64398 6.2363 3.67243 6.18745 3.7201 6.17486Z" fill="#FFD018"/>
</g>
</svg>
